<?xml version="1.0" encoding="utf-8" standalone="no"?>
<!DOCTYPE svg PUBLIC "-//W3C//DTD SVG 1.1//EN"
  "http://www.w3.org/Graphics/SVG/1.1/DTD/svg11.dtd">
<svg xmlns:xlink="http://www.w3.org/1999/xlink" width="1160.39952pt" height="341.44602pt" viewBox="0 0 1160.39952 341.44602" xmlns="http://www.w3.org/2000/svg" version="1.1">
 <metadata>
  <rdf:RDF xmlns:dc="http://purl.org/dc/elements/1.1/" xmlns:cc="http://creativecommons.org/ns#" xmlns:rdf="http://www.w3.org/1999/02/22-rdf-syntax-ns#">
   <cc:Work>
    <dc:type rdf:resource="http://purl.org/dc/dcmitype/StillImage"/>
    <dc:date>2026-04-11T16:11:37.029281</dc:date>
    <dc:format>image/svg+xml</dc:format>
    <dc:creator>
     <cc:Agent>
      <dc:title>Matplotlib v3.8.4, https://matplotlib.org/</dc:title>
     </cc:Agent>
    </dc:creator>
   </cc:Work>
  </rdf:RDF>
 </metadata>
 <defs>
  <style type="text/css">*{stroke-linejoin: round; stroke-linecap: butt}</style>
 </defs>
 <g id="figure_1">
  <g id="patch_1">
   <path d="M 0 341.44602 
L 1160.39952 341.44602 
L 1160.39952 0 
L 0 0 
z
" style="fill: #ffffff"/>
  </g>
  <g id="axes_1">
   <g id="line2d_1">
    <path d="M 103.371223 216.703414 
L 103.367105 216.189608 
L 103.354752 215.675934 
L 103.334168 215.162524 
L 103.305358 214.64951 
L 103.268329 214.137024 
L 103.223091 213.625197 
L 103.169655 213.114161 
L 103.108035 212.604046 
L 103.038247 212.094985 
L 102.960308 211.587108 
L 102.87424 211.080546 
L 102.780063 210.575428 
L 102.677803 210.071884 
L 102.567485 209.570044 
L 102.449138 209.070037 
L 102.322792 208.57199 
L 102.188479 208.076033 
L 102.046235 207.582292 
L 101.896096 207.090895 
L 101.738099 206.601967 
L 101.572287 206.115634 
L 101.3987 205.632021 
L 101.217385 205.151252 
L 101.028388 204.673452 
L 100.831757 204.198742 
L 100.627542 203.727244 
L 100.415796 203.259081 
L 100.196574 202.794371 
L 99.969932 202.333234 
L 99.735928 201.87579 
L 99.494623 201.422154 
L 99.246077 200.972445 
L 98.990355 200.526777 
L 98.727524 200.085265 
L 98.457649 199.648022 
L 98.180801 199.215161 
L 97.897051 198.786793 
L 97.606471 198.363028 
L 97.309137 197.943974 
L 97.005125 197.52974 
L 96.694512 197.120432 
L 96.377378 196.716155 
L 96.053806 196.317013 
L 95.723878 195.923108 
L 95.387679 195.534542 
L 95.045295 195.151415 
L 94.696815 194.773824 
L 94.342327 194.401867 
L 93.981923 194.035639 
" clip-path="url(#pe0f54db5c8)" style="fill: none; stroke: #39c5bb; stroke-width: 2; stroke-linecap: square"/>
   </g>
   <g id="patch_2">
    <path d="M 73.31315 216.703414 
Q 124.742104 216.703414 173.934989 216.703414 
" style="fill: none; stroke: #39c5bb; stroke-width: 2; stroke-linecap: round"/>
    <path d="M 169.934989 214.703414 
L 173.934989 216.703414 
L 169.934989 218.703414 
" style="fill: none; stroke: #39c5bb; stroke-width: 2; stroke-linecap: round"/>
   </g>
   <g id="patch_3">
    <path d="M 72.727656 215.289906 
Q 109.093418 178.924145 143.878041 144.139522 
" style="fill: none; stroke: #39c5bb; stroke-width: 2; stroke-linecap: round"/>
    <path d="M 139.6354 145.553736 
L 143.878041 144.139522 
L 142.463827 148.382163 
" style="fill: none; stroke: #39c5bb; stroke-width: 2; stroke-linecap: round"/>
   </g>
   <g id="text_1">
    <g id="patch_4">
     <path d="M 113.024825 203.108791 
L 128.326388 203.108791 
Q 130.326388 203.108791 130.326388 201.108791 
L 130.326388 191.405666 
Q 130.326388 189.405666 128.326388 189.405666 
L 113.024825 189.405666 
Q 111.024825 189.405666 111.024825 191.405666 
L 111.024825 201.108791 
Q 111.024825 203.108791 113.024825 203.108791 
z
" style="fill: #ffffff; opacity: 0.8"/>
    </g>
    <!-- 45° -->
    <g style="fill: #39c5bb" transform="translate(113.024825 198.808791) scale(0.1 -0.1)">
     <defs>
      <path id="SegoeUI-Bold-34" d="M 2975 4481 
L 2975 1656 
L 3513 1656 
L 3513 919 
L 2975 919 
L 2975 0 
L 2075 0 
L 2075 919 
L 122 919 
L 122 1691 
Q 381 1981 659 2326 
Q 938 2672 1197 3037 
Q 1456 3403 1679 3773 
Q 1903 4144 2059 4481 
L 2975 4481 
z
M 1006 1656 
L 2075 1656 
L 2075 3222 
Q 1966 3019 1837 2811 
Q 1709 2603 1568 2401 
Q 1428 2200 1284 2011 
Q 1141 1822 1006 1656 
z
" transform="scale(0.015625)"/>
      <path id="SegoeUI-Bold-35" d="M 444 116 
L 444 959 
Q 903 678 1422 678 
Q 1813 678 2033 864 
Q 2253 1050 2253 1369 
Q 2253 2034 1313 2034 
Q 966 2034 513 1981 
L 681 4481 
L 3053 4481 
L 3053 3675 
L 1434 3675 
L 1372 2778 
Q 1613 2797 1788 2797 
Q 2478 2797 2868 2434 
Q 3259 2072 3259 1459 
Q 3259 781 2793 351 
Q 2328 -78 1531 -78 
Q 884 -78 444 116 
z
" transform="scale(0.015625)"/>
      <path id="SegoeUI-Bold-b0" d="M 1247 2797 
Q 875 2797 617 3055 
Q 359 3313 359 3681 
Q 359 4050 617 4303 
Q 875 4556 1247 4556 
Q 1616 4556 1877 4303 
Q 2138 4050 2138 3681 
Q 2138 3313 1877 3055 
Q 1616 2797 1247 2797 
z
M 1247 4084 
Q 1078 4084 961 3967 
Q 844 3850 844 3681 
Q 844 3513 961 3392 
Q 1078 3272 1247 3272 
Q 1413 3272 1531 3392 
Q 1650 3513 1650 3681 
Q 1650 3850 1533 3967 
Q 1416 4084 1247 4084 
z
" transform="scale(0.015625)"/>
     </defs>
     <use xlink:href="#SegoeUI-Bold-34"/>
     <use xlink:href="#SegoeUI-Bold-35" x="57.519531"/>
     <use xlink:href="#SegoeUI-Bold-b0" x="115.039062"/>
    </g>
   </g>
   <g id="text_2">
    <!-- Agudo -->
    <g style="fill: #1f2937" transform="translate(107.373778 288.961) scale(0.11 -0.11)">
     <defs>
      <path id="SegoeUI-Bold-41" d="M 4453 0 
L 3353 0 
L 3034 997 
L 1441 997 
L 1125 0 
L 31 0 
L 1663 4481 
L 2859 4481 
L 4453 0 
z
M 2803 1772 
L 2322 3278 
Q 2269 3447 2247 3681 
L 2222 3681 
Q 2206 3484 2144 3291 
L 1656 1772 
L 2803 1772 
z
" transform="scale(0.015625)"/>
      <path id="SegoeUI-Bold-67" d="M 3553 366 
Q 3553 -525 3037 -1014 
Q 2522 -1503 1544 -1503 
Q 897 -1503 519 -1319 
L 519 -488 
Q 1013 -775 1516 -775 
Q 2016 -775 2291 -511 
Q 2566 -247 2566 206 
L 2566 459 
L 2553 459 
Q 2216 -78 1556 -78 
Q 944 -78 584 353 
Q 225 784 225 1509 
Q 225 2322 625 2800 
Q 1025 3278 1678 3278 
Q 2263 3278 2553 2828 
L 2566 2828 
L 2566 3200 
L 3553 3200 
L 3553 366 
z
M 2578 1538 
L 2578 1791 
Q 2578 2094 2398 2308 
Q 2219 2522 1931 2522 
Q 1603 2522 1415 2265 
Q 1228 2009 1228 1544 
Q 1228 1144 1406 911 
Q 1584 678 1894 678 
Q 2200 678 2389 914 
Q 2578 1150 2578 1538 
z
" transform="scale(0.015625)"/>
      <path id="SegoeUI-Bold-75" d="M 3456 0 
L 2472 0 
L 2472 488 
L 2456 488 
Q 2091 -78 1478 -78 
Q 366 -78 366 1269 
L 366 3200 
L 1350 3200 
L 1350 1356 
Q 1350 678 1888 678 
Q 2153 678 2312 864 
Q 2472 1050 2472 1369 
L 2472 3200 
L 3456 3200 
L 3456 0 
z
" transform="scale(0.015625)"/>
      <path id="SegoeUI-Bold-64" d="M 3547 0 
L 2559 0 
L 2559 441 
L 2547 441 
Q 2209 -78 1556 -78 
Q 956 -78 590 345 
Q 225 769 225 1528 
Q 225 2322 628 2800 
Q 1031 3278 1684 3278 
Q 2303 3278 2547 2834 
L 2559 2834 
L 2559 4738 
L 3547 4738 
L 3547 0 
z
M 2578 1556 
L 2578 1797 
Q 2578 2109 2397 2315 
Q 2216 2522 1925 2522 
Q 1597 2522 1412 2264 
Q 1228 2006 1228 1556 
Q 1228 1134 1406 906 
Q 1584 678 1900 678 
Q 2200 678 2389 918 
Q 2578 1159 2578 1556 
z
" transform="scale(0.015625)"/>
      <path id="SegoeUI-Bold-6f" d="M 1941 -78 
Q 1141 -78 683 370 
Q 225 819 225 1588 
Q 225 2381 700 2829 
Q 1175 3278 1984 3278 
Q 2781 3278 3234 2829 
Q 3688 2381 3688 1644 
Q 3688 847 3220 384 
Q 2753 -78 1941 -78 
z
M 1966 2522 
Q 1616 2522 1422 2281 
Q 1228 2041 1228 1600 
Q 1228 678 1972 678 
Q 2681 678 2681 1625 
Q 2681 2522 1966 2522 
z
" transform="scale(0.015625)"/>
     </defs>
     <use xlink:href="#SegoeUI-Bold-41"/>
     <use xlink:href="#SegoeUI-Bold-67" x="70.3125"/>
     <use xlink:href="#SegoeUI-Bold-75" x="132.226562"/>
     <use xlink:href="#SegoeUI-Bold-64" x="192.724609"/>
     <use xlink:href="#SegoeUI-Bold-6f" x="254.638672"/>
    </g>
   </g>
   <g id="text_3">
    <!-- 0° &lt; α &lt; 90° -->
    <g style="fill: #6b7280" transform="translate(100.143074 324.884514) scale(0.09 -0.09)">
     <defs>
      <path id="SegoeUI-Italic-30" d="M 3431 3231 
Q 3431 2997 3409 2742 
Q 3388 2488 3341 2228 
Q 3294 1969 3220 1714 
Q 3147 1459 3044 1221 
Q 2941 984 2808 773 
Q 2675 563 2509 391 
Q 2059 -78 1428 -78 
Q 1175 -78 964 20 
Q 753 119 603 308 
Q 453 497 370 773 
Q 288 1050 288 1409 
Q 288 1756 344 2126 
Q 400 2497 515 2848 
Q 631 3200 803 3512 
Q 975 3825 1209 4063 
Q 1431 4297 1706 4426 
Q 1981 4556 2328 4556 
Q 2578 4556 2781 4472 
Q 2984 4388 3129 4220 
Q 3275 4053 3353 3806 
Q 3431 3559 3431 3231 
z
M 2913 3188 
Q 2913 3625 2750 3873 
Q 2588 4122 2278 4122 
Q 2094 4122 1931 4042 
Q 1769 3963 1613 3803 
Q 1491 3675 1383 3498 
Q 1275 3322 1186 3117 
Q 1097 2913 1028 2688 
Q 959 2463 911 2238 
Q 863 2013 838 1797 
Q 813 1581 813 1394 
Q 813 1122 864 926 
Q 916 731 1006 604 
Q 1097 478 1220 418 
Q 1344 359 1484 359 
Q 1653 359 1815 434 
Q 1978 509 2119 659 
Q 2284 838 2428 1120 
Q 2572 1403 2680 1743 
Q 2788 2084 2850 2457 
Q 2913 2831 2913 3188 
z
" transform="scale(0.015625)"/>
      <path id="SegoeUI-Italic-b0" d="M 2503 3675 
Q 2503 3494 2434 3336 
Q 2366 3178 2247 3059 
Q 2128 2941 1970 2872 
Q 1813 2803 1631 2803 
Q 1453 2803 1295 2872 
Q 1138 2941 1020 3059 
Q 903 3178 836 3336 
Q 769 3494 769 3675 
Q 769 3853 836 4009 
Q 903 4166 1020 4281 
Q 1138 4397 1295 4464 
Q 1453 4531 1631 4531 
Q 1813 4531 1970 4464 
Q 2128 4397 2247 4281 
Q 2366 4166 2434 4009 
Q 2503 3853 2503 3675 
z
M 2131 3675 
Q 2131 3778 2092 3867 
Q 2053 3956 1984 4023 
Q 1916 4091 1825 4128 
Q 1734 4166 1631 4166 
Q 1531 4166 1442 4128 
Q 1353 4091 1286 4023 
Q 1219 3956 1180 3867 
Q 1141 3778 1141 3675 
Q 1141 3572 1180 3480 
Q 1219 3388 1286 3319 
Q 1353 3250 1442 3209 
Q 1531 3169 1631 3169 
Q 1731 3169 1822 3209 
Q 1913 3250 1981 3319 
Q 2050 3388 2090 3480 
Q 2131 3572 2131 3675 
z
" transform="scale(0.015625)"/>
      <path id="SegoeUI-Italic-20" transform="scale(0.015625)"/>
      <path id="SegoeUI-Italic-3c" d="M 744 1747 
L 744 1931 
L 3431 3438 
L 3431 2969 
L 1422 1856 
L 1422 1844 
L 3431 863 
L 3431 397 
L 744 1747 
z
" transform="scale(0.015625)"/>
      <path id="SegoeUI-Italic-3b1" d="M 4019 3200 
Q 3972 3113 3900 2984 
Q 3828 2856 3740 2704 
Q 3653 2553 3559 2392 
Q 3466 2231 3377 2079 
Q 3288 1928 3209 1798 
Q 3131 1669 3078 1578 
Q 3097 1266 3126 1050 
Q 3156 834 3200 700 
Q 3244 566 3306 506 
Q 3369 447 3456 447 
Q 3494 447 3545 453 
Q 3597 459 3634 475 
L 3500 -6 
Q 3453 -22 3397 -33 
Q 3341 -44 3263 -44 
Q 3134 -44 3031 11 
Q 2928 66 2854 187 
Q 2781 309 2737 509 
Q 2694 709 2681 1000 
L 2675 1000 
Q 2378 453 2029 186 
Q 1681 -81 1241 -81 
Q 1013 -81 827 -3 
Q 641 75 512 226 
Q 384 378 314 600 
Q 244 822 244 1109 
Q 244 1403 309 1678 
Q 375 1953 494 2195 
Q 613 2438 778 2636 
Q 944 2834 1142 2978 
Q 1341 3122 1566 3200 
Q 1791 3278 2028 3278 
Q 2256 3278 2418 3193 
Q 2581 3109 2690 2965 
Q 2800 2822 2864 2634 
Q 2928 2447 2956 2241 
L 2963 2241 
Q 3016 2334 3081 2459 
Q 3147 2584 3215 2715 
Q 3284 2847 3348 2973 
Q 3413 3100 3459 3200 
L 4019 3200 
L 4019 3200 
z
M 2028 2859 
Q 1775 2859 1550 2714 
Q 1325 2569 1153 2326 
Q 981 2084 881 1771 
Q 781 1459 781 1122 
Q 781 950 818 811 
Q 856 672 923 572 
Q 991 472 1089 417 
Q 1188 363 1309 363 
Q 1603 363 1892 595 
Q 2181 828 2463 1325 
Q 2481 1359 2509 1411 
Q 2538 1463 2566 1513 
Q 2600 1569 2631 1631 
Q 2619 1869 2583 2091 
Q 2547 2313 2478 2483 
Q 2409 2653 2300 2756 
Q 2191 2859 2028 2859 
z
" transform="scale(0.015625)"/>
      <path id="SegoeUI-Italic-39" d="M 3347 3003 
Q 3347 2634 3278 2251 
Q 3209 1869 3068 1514 
Q 2928 1159 2717 853 
Q 2506 547 2222 331 
Q 1941 119 1628 20 
Q 1316 -78 966 -78 
Q 722 -78 526 -40 
Q 331 -3 231 50 
L 300 538 
Q 409 475 582 417 
Q 756 359 991 359 
Q 1253 359 1497 445 
Q 1741 531 1931 684 
Q 2088 803 2222 968 
Q 2356 1134 2467 1337 
Q 2578 1541 2662 1778 
Q 2747 2016 2797 2278 
L 2784 2278 
Q 2697 2138 2581 2019 
Q 2466 1900 2328 1815 
Q 2191 1731 2031 1684 
Q 1872 1638 1697 1638 
Q 1369 1638 1145 1756 
Q 922 1875 786 2058 
Q 650 2241 590 2462 
Q 531 2684 531 2888 
Q 531 3075 570 3270 
Q 609 3466 692 3652 
Q 775 3838 900 4002 
Q 1025 4166 1195 4289 
Q 1366 4413 1586 4484 
Q 1806 4556 2075 4556 
Q 2397 4556 2636 4439 
Q 2875 4322 3033 4112 
Q 3191 3903 3269 3620 
Q 3347 3338 3347 3003 
z
M 2822 3138 
Q 2822 3359 2765 3540 
Q 2709 3722 2606 3850 
Q 2503 3978 2359 4050 
Q 2216 4122 2041 4122 
Q 1806 4122 1623 4022 
Q 1441 3922 1314 3758 
Q 1188 3594 1122 3380 
Q 1056 3166 1056 2938 
Q 1056 2781 1097 2626 
Q 1138 2472 1228 2350 
Q 1319 2228 1464 2151 
Q 1609 2075 1819 2075 
Q 2081 2075 2272 2172 
Q 2463 2269 2584 2423 
Q 2706 2578 2764 2767 
Q 2822 2956 2822 3138 
z
" transform="scale(0.015625)"/>
     </defs>
     <use xlink:href="#SegoeUI-Italic-30"/>
     <use xlink:href="#SegoeUI-Italic-b0" x="53.90625"/>
     <use xlink:href="#SegoeUI-Italic-20" x="91.601562"/>
     <use xlink:href="#SegoeUI-Italic-3c" x="119.091797"/>
     <use xlink:href="#SegoeUI-Italic-20" x="187.597656"/>
     <use xlink:href="#SegoeUI-Italic-3b1" x="215.087891"/>
     <use xlink:href="#SegoeUI-Italic-20" x="277.685547"/>
     <use xlink:href="#SegoeUI-Italic-3c" x="305.175781"/>
     <use xlink:href="#SegoeUI-Italic-20" x="373.681641"/>
     <use xlink:href="#SegoeUI-Italic-39" x="401.171875"/>
     <use xlink:href="#SegoeUI-Italic-30" x="455.078125"/>
     <use xlink:href="#SegoeUI-Italic-b0" x="508.984375"/>
    </g>
   </g>
  </g>
  <g id="axes_2">
   <g id="line2d_2">
    <path d="M 333.771223 216.703414 
L 333.754752 215.675934 
L 333.705358 214.64951 
L 333.623091 213.625197 
L 333.508035 212.604046 
L 333.360308 211.587108 
L 333.180063 210.575428 
L 332.967485 209.570044 
L 332.722792 208.57199 
L 332.446235 207.582292 
L 332.138099 206.601967 
L 331.7987 205.632021 
L 331.428388 204.673452 
L 331.027542 203.727244 
L 330.596574 202.794371 
L 330.135928 201.87579 
L 329.646077 200.972445 
L 329.127524 200.085265 
L 328.580801 199.215161 
L 328.006471 198.363028 
L 327.405125 197.52974 
L 326.777378 196.716155 
L 326.123878 195.923108 
L 325.445295 195.151415 
L 324.742327 194.401867 
L 324.015696 193.675236 
L 323.266148 192.972267 
L 322.494454 192.293684 
L 321.701407 191.640184 
L 320.887822 191.012438 
L 320.054535 190.411091 
L 319.202401 189.836761 
L 318.332298 189.290039 
L 317.445118 188.771486 
L 316.541773 188.281634 
L 315.623192 187.820988 
L 314.690318 187.390021 
L 313.744111 186.989175 
L 312.785542 186.618862 
L 311.815596 186.279464 
L 310.835271 185.971328 
L 309.845572 185.694771 
L 308.847519 185.450078 
L 307.842135 185.237499 
L 306.830454 185.057254 
L 305.813516 184.909528 
L 304.792366 184.794472 
L 303.768052 184.712205 
L 302.741628 184.66281 
L 301.714149 184.64634 
" clip-path="url(#p324c831d3c)" style="fill: none; stroke: #e12885; stroke-width: 2; stroke-linecap: square"/>
   </g>
   <g id="patch_5">
    <path d="M 303.71315 216.703414 
Q 355.142104 216.703414 404.334989 216.703414 
" style="fill: none; stroke: #e12885; stroke-width: 2; stroke-linecap: round"/>
    <path d="M 400.334989 214.703414 
L 404.334989 216.703414 
L 400.334989 218.703414 
" style="fill: none; stroke: #e12885; stroke-width: 2; stroke-linecap: round"/>
   </g>
   <g id="patch_6">
    <path d="M 301.714149 214.704412 
Q 301.714149 163.275459 301.714149 114.082574 
" style="fill: none; stroke: #e12885; stroke-width: 2; stroke-linecap: round"/>
    <path d="M 299.714149 118.082574 
L 301.714149 114.082574 
L 303.714149 118.082574 
" style="fill: none; stroke: #e12885; stroke-width: 2; stroke-linecap: round"/>
   </g>
   <g id="text_4">
    <g id="patch_7">
     <path d="M 331.842992 185.775352 
L 347.144554 185.775352 
Q 349.144554 185.775352 349.144554 183.775352 
L 349.144554 174.072227 
Q 349.144554 172.072227 347.144554 172.072227 
L 331.842992 172.072227 
Q 329.842992 172.072227 329.842992 174.072227 
L 329.842992 183.775352 
Q 329.842992 185.775352 331.842992 185.775352 
z
" style="fill: #ffffff; opacity: 0.8"/>
    </g>
    <!-- 90° -->
    <g style="fill: #e12885" transform="translate(331.842992 181.475352) scale(0.1 -0.1)">
     <defs>
      <path id="SegoeUI-Bold-39" d="M 3397 2456 
Q 3397 1859 3265 1389 
Q 3134 919 2882 594 
Q 2631 269 2268 95 
Q 1906 -78 1447 -78 
Q 897 -78 500 97 
L 500 909 
Q 853 678 1350 678 
Q 1859 678 2146 1025 
Q 2434 1372 2438 2028 
L 2419 2034 
Q 2122 1594 1516 1594 
Q 1241 1594 1008 1697 
Q 775 1800 604 1983 
Q 434 2166 339 2419 
Q 244 2672 244 2975 
Q 244 3328 359 3618 
Q 475 3909 683 4118 
Q 891 4328 1181 4442 
Q 1472 4556 1825 4556 
Q 2191 4556 2481 4414 
Q 2772 4272 2976 4003 
Q 3181 3734 3289 3343 
Q 3397 2953 3397 2456 
z
M 2400 2981 
Q 2400 3153 2356 3304 
Q 2313 3456 2234 3565 
Q 2156 3675 2043 3739 
Q 1931 3803 1797 3803 
Q 1669 3803 1561 3747 
Q 1453 3691 1375 3592 
Q 1297 3494 1253 3356 
Q 1209 3219 1209 3059 
Q 1209 2884 1253 2748 
Q 1297 2613 1376 2519 
Q 1456 2425 1568 2376 
Q 1681 2328 1819 2328 
Q 1950 2328 2056 2379 
Q 2163 2431 2239 2518 
Q 2316 2606 2358 2725 
Q 2400 2844 2400 2981 
z
" transform="scale(0.015625)"/>
      <path id="SegoeUI-Bold-30" d="M 1816 -78 
Q 216 -78 216 2169 
Q 216 3334 648 3945 
Q 1081 4556 1903 4556 
Q 3466 4556 3466 2272 
Q 3466 1134 3039 528 
Q 2613 -78 1816 -78 
z
M 1859 3803 
Q 1219 3803 1219 2194 
Q 1219 678 1847 678 
Q 2459 678 2459 2241 
Q 2459 3803 1859 3803 
z
" transform="scale(0.015625)"/>
     </defs>
     <use xlink:href="#SegoeUI-Bold-39"/>
     <use xlink:href="#SegoeUI-Bold-30" x="57.519531"/>
     <use xlink:href="#SegoeUI-Bold-b0" x="115.039062"/>
    </g>
   </g>
   <g id="text_5">
    <!-- Recto -->
    <g style="fill: #1f2937" transform="translate(340.590809 288.961) scale(0.11 -0.11)">
     <defs>
      <path id="SegoeUI-Bold-52" d="M 4272 0 
L 3113 0 
L 2416 1153 
Q 2338 1284 2266 1387 
Q 2194 1491 2120 1564 
Q 2047 1638 1967 1677 
Q 1888 1716 1794 1716 
L 1522 1716 
L 1522 0 
L 513 0 
L 513 4481 
L 2113 4481 
Q 3744 4481 3744 3263 
Q 3744 3028 3672 2829 
Q 3600 2631 3469 2472 
Q 3338 2313 3152 2197 
Q 2966 2081 2738 2016 
L 2738 2003 
Q 2838 1972 2931 1901 
Q 3025 1831 3112 1737 
Q 3200 1644 3279 1536 
Q 3359 1428 3425 1325 
L 4272 0 
z
M 1522 3725 
L 1522 2478 
L 1959 2478 
Q 2284 2478 2481 2666 
Q 2681 2856 2681 3138 
Q 2681 3725 1978 3725 
L 1522 3725 
z
" transform="scale(0.015625)"/>
      <path id="SegoeUI-Bold-65" d="M 3291 1319 
L 1203 1319 
Q 1253 622 2081 622 
Q 2609 622 3009 872 
L 3009 159 
Q 2566 -78 1856 -78 
Q 1081 -78 653 351 
Q 225 781 225 1550 
Q 225 2347 687 2812 
Q 1150 3278 1825 3278 
Q 2525 3278 2908 2862 
Q 3291 2447 3291 1734 
L 3291 1319 
z
M 2375 1925 
Q 2375 2613 1819 2613 
Q 1581 2613 1407 2416 
Q 1234 2219 1197 1925 
L 2375 1925 
z
" transform="scale(0.015625)"/>
      <path id="SegoeUI-Bold-63" d="M 2841 116 
Q 2506 -78 1875 -78 
Q 1138 -78 681 369 
Q 225 816 225 1522 
Q 225 2338 714 2808 
Q 1203 3278 2022 3278 
Q 2588 3278 2841 3128 
L 2841 2291 
Q 2531 2522 2150 2522 
Q 1725 2522 1476 2273 
Q 1228 2025 1228 1588 
Q 1228 1163 1465 920 
Q 1703 678 2119 678 
Q 2488 678 2841 909 
L 2841 116 
z
" transform="scale(0.015625)"/>
      <path id="SegoeUI-Bold-74" d="M 2350 38 
Q 2131 -78 1691 -78 
Q 647 -78 647 1006 
L 647 2472 
L 128 2472 
L 128 3200 
L 647 3200 
L 647 3891 
L 1631 4172 
L 1631 3200 
L 2350 3200 
L 2350 2472 
L 1631 2472 
L 1631 1178 
Q 1631 678 2028 678 
Q 2184 678 2350 769 
L 2350 38 
z
" transform="scale(0.015625)"/>
     </defs>
     <use xlink:href="#SegoeUI-Bold-52"/>
     <use xlink:href="#SegoeUI-Bold-65" x="62.783203"/>
     <use xlink:href="#SegoeUI-Bold-63" x="116.884766"/>
     <use xlink:href="#SegoeUI-Bold-74" x="164.882812"/>
     <use xlink:href="#SegoeUI-Bold-6f" x="203.423828"/>
    </g>
   </g>
   <g id="text_6">
    <!-- α = 90° -->
    <g style="fill: #6b7280" transform="translate(340.22159 324.884514) scale(0.09 -0.09)">
     <defs>
      <path id="SegoeUI-Italic-3d" d="M 800 2322 
L 800 2741 
L 3738 2741 
L 3738 2322 
L 800 2322 
z
M 800 991 
L 800 1409 
L 3738 1409 
L 3738 991 
L 800 991 
z
" transform="scale(0.015625)"/>
     </defs>
     <use xlink:href="#SegoeUI-Italic-3b1"/>
     <use xlink:href="#SegoeUI-Italic-20" x="62.597656"/>
     <use xlink:href="#SegoeUI-Italic-3d" x="90.087891"/>
     <use xlink:href="#SegoeUI-Italic-20" x="158.59375"/>
     <use xlink:href="#SegoeUI-Italic-39" x="186.083984"/>
     <use xlink:href="#SegoeUI-Italic-30" x="239.990234"/>
     <use xlink:href="#SegoeUI-Italic-b0" x="293.896484"/>
    </g>
   </g>
  </g>
  <g id="axes_3">
   <g id="line2d_3">
    <path d="M 564.171223 216.703414 
L 564.141944 215.333624 
L 564.054161 213.966335 
L 563.908035 212.604046 
L 563.703831 211.249246 
L 563.441924 209.904408 
L 563.122792 208.57199 
L 562.747017 207.254426 
L 562.315286 205.954121 
L 561.828388 204.673452 
L 561.287212 203.414757 
L 560.692746 202.180337 
L 560.046077 200.972445 
L 559.348386 199.793289 
L 558.600946 198.645021 
L 557.805125 197.52974 
L 556.962374 196.449484 
L 556.074234 195.406224 
L 555.142327 194.401867 
L 554.168355 193.438247 
L 553.154098 192.517126 
L 552.101407 191.640184 
L 551.012207 190.809025 
L 549.888486 190.025166 
L 548.732298 189.290039 
L 547.545753 188.604987 
L 546.33102 187.971262 
L 545.090318 187.390021 
L 543.825913 186.862325 
L 542.540114 186.389139 
L 541.235271 185.971328 
L 539.913766 185.609653 
L 538.578014 185.304776 
L 537.230454 185.057254 
L 535.873549 184.867539 
L 534.509777 184.735978 
L 533.141628 184.66281 
L 531.771603 184.64817 
L 530.402204 184.692084 
L 529.035931 184.794472 
L 527.675282 184.955147 
L 526.322741 185.173815 
L 524.980778 185.450078 
L 523.651847 185.783429 
L 522.338372 186.173262 
L 521.042755 186.618862 
L 519.767362 187.119417 
L 518.514522 187.674012 
L 517.286524 188.281634 
L 516.085611 188.941173 
" clip-path="url(#pfbb1757d6f)" style="fill: none; stroke: #1f2937; stroke-width: 2; stroke-linecap: square"/>
   </g>
   <g id="patch_8">
    <path d="M 534.11315 216.703414 
Q 585.542104 216.703414 634.734989 216.703414 
" style="fill: none; stroke: #1f2937; stroke-width: 2; stroke-linecap: round"/>
    <path d="M 630.734989 214.703414 
L 634.734989 216.703414 
L 630.734989 218.703414 
" style="fill: none; stroke: #1f2937; stroke-width: 2; stroke-linecap: round"/>
   </g>
   <g id="patch_9">
    <path d="M 531.114648 214.972228 
Q 505.400171 170.433448 480.803728 127.831159 
" style="fill: none; stroke: #1f2937; stroke-width: 2; stroke-linecap: round"/>
    <path d="M 481.071678 132.295261 
L 480.803728 127.831159 
L 484.535779 130.295261 
" style="fill: none; stroke: #1f2937; stroke-width: 2; stroke-linecap: round"/>
   </g>
   <g id="text_7">
    <g id="patch_10">
     <path d="M 548.301815 177.284575 
L 569.35494 177.284575 
Q 571.35494 177.284575 571.35494 175.284575 
L 571.35494 165.58145 
Q 571.35494 163.58145 569.35494 163.58145 
L 548.301815 163.58145 
Q 546.301815 163.58145 546.301815 165.58145 
L 546.301815 175.284575 
Q 546.301815 177.284575 548.301815 177.284575 
z
" style="fill: #ffffff; opacity: 0.8"/>
    </g>
    <!-- 120° -->
    <g style="fill: #1f2937" transform="translate(548.301815 172.984575) scale(0.1 -0.1)">
     <defs>
      <path id="SegoeUI-Bold-31" d="M 2600 4581 
L 2600 0 
L 1616 0 
L 1616 3469 
Q 1534 3397 1423 3333 
Q 1313 3269 1188 3217 
Q 1063 3166 928 3130 
Q 794 3094 663 3078 
L 663 3909 
Q 1047 4022 1387 4197 
Q 1728 4372 2003 4581 
L 2600 4581 
z
" transform="scale(0.015625)"/>
      <path id="SegoeUI-Bold-32" d="M 1341 819 
L 3241 819 
L 3241 0 
L 259 0 
L 259 338 
Q 259 681 375 954 
Q 491 1228 666 1445 
Q 841 1663 1048 1830 
Q 1256 1997 1444 2131 
Q 1641 2272 1789 2400 
Q 1938 2528 2039 2654 
Q 2141 2781 2191 2911 
Q 2241 3041 2241 3188 
Q 2241 3475 2078 3622 
Q 1916 3769 1581 3769 
Q 1003 3769 475 3309 
L 475 4178 
Q 1059 4556 1794 4556 
Q 2134 4556 2404 4467 
Q 2675 4378 2862 4212 
Q 3050 4047 3148 3811 
Q 3247 3575 3247 3284 
Q 3247 2975 3151 2734 
Q 3056 2494 2898 2297 
Q 2741 2100 2534 1936 
Q 2328 1772 2106 1619 
Q 1956 1513 1817 1408 
Q 1678 1303 1572 1201 
Q 1466 1100 1403 1003 
Q 1341 906 1341 819 
z
" transform="scale(0.015625)"/>
     </defs>
     <use xlink:href="#SegoeUI-Bold-31"/>
     <use xlink:href="#SegoeUI-Bold-32" x="57.519531"/>
     <use xlink:href="#SegoeUI-Bold-30" x="115.039062"/>
     <use xlink:href="#SegoeUI-Bold-b0" x="172.558594"/>
    </g>
   </g>
   <g id="text_8">
    <!-- Obtuso -->
    <g style="fill: #1f2937" transform="translate(566.710262 288.961) scale(0.11 -0.11)">
     <defs>
      <path id="SegoeUI-Bold-4f" d="M 2406 -78 
Q 1444 -78 837 548 
Q 231 1175 231 2181 
Q 231 3244 847 3900 
Q 1463 4556 2478 4556 
Q 3438 4556 4030 3928 
Q 4622 3300 4622 2272 
Q 4622 1216 4008 569 
Q 3394 -78 2406 -78 
z
M 2450 3688 
Q 1919 3688 1606 3289 
Q 1294 2891 1294 2234 
Q 1294 1569 1606 1181 
Q 1919 794 2425 794 
Q 2947 794 3253 1170 
Q 3559 1547 3559 2216 
Q 3559 2913 3262 3300 
Q 2966 3688 2450 3688 
z
" transform="scale(0.015625)"/>
      <path id="SegoeUI-Bold-62" d="M 1416 372 
L 1403 372 
L 1403 0 
L 416 0 
L 416 4738 
L 1403 4738 
L 1403 2719 
L 1416 2719 
Q 1781 3278 2456 3278 
Q 3075 3278 3409 2853 
Q 3744 2428 3744 1691 
Q 3744 891 3353 406 
Q 2963 -78 2309 -78 
Q 1719 -78 1416 372 
z
M 1388 1722 
L 1388 1394 
Q 1388 1084 1566 881 
Q 1744 678 2022 678 
Q 2359 678 2545 939 
Q 2731 1200 2731 1678 
Q 2731 2075 2561 2298 
Q 2391 2522 2075 2522 
Q 1778 2522 1583 2300 
Q 1388 2078 1388 1722 
z
" transform="scale(0.015625)"/>
      <path id="SegoeUI-Bold-73" d="M 206 84 
L 206 884 
Q 450 738 692 666 
Q 934 594 1150 594 
Q 1413 594 1564 666 
Q 1716 738 1716 884 
Q 1716 978 1647 1040 
Q 1578 1103 1470 1150 
Q 1363 1197 1234 1234 
Q 1106 1272 988 1319 
Q 797 1391 651 1473 
Q 506 1556 407 1665 
Q 309 1775 257 1919 
Q 206 2063 206 2259 
Q 206 2528 323 2722 
Q 441 2916 636 3039 
Q 831 3163 1082 3220 
Q 1334 3278 1606 3278 
Q 1819 3278 2037 3245 
Q 2256 3213 2469 3150 
L 2469 2388 
Q 2281 2497 2067 2551 
Q 1853 2606 1647 2606 
Q 1550 2606 1464 2589 
Q 1378 2572 1312 2539 
Q 1247 2506 1209 2454 
Q 1172 2403 1172 2338 
Q 1172 2250 1228 2187 
Q 1284 2125 1375 2079 
Q 1466 2034 1577 1998 
Q 1688 1963 1797 1925 
Q 1994 1856 2153 1775 
Q 2313 1694 2427 1584 
Q 2541 1475 2602 1328 
Q 2663 1181 2663 978 
Q 2663 694 2539 492 
Q 2416 291 2211 164 
Q 2006 38 1739 -20 
Q 1472 -78 1184 -78 
Q 656 -78 206 84 
z
" transform="scale(0.015625)"/>
     </defs>
     <use xlink:href="#SegoeUI-Bold-4f"/>
     <use xlink:href="#SegoeUI-Bold-62" x="75.830078"/>
     <use xlink:href="#SegoeUI-Bold-74" x="137.841797"/>
     <use xlink:href="#SegoeUI-Bold-75" x="176.757812"/>
     <use xlink:href="#SegoeUI-Bold-73" x="237.255859"/>
     <use xlink:href="#SegoeUI-Bold-6f" x="281.25"/>
    </g>
   </g>
   <g id="text_9">
    <!-- 90° &lt; α &lt; 180° -->
    <g style="fill: #6b7280" transform="translate(556.091512 324.884514) scale(0.09 -0.09)">
     <defs>
      <path id="SegoeUI-Italic-31" d="M 1438 0 
L 2272 3903 
L 1166 3603 
L 1275 4097 
L 2919 4556 
L 1956 0 
L 1438 0 
z
" transform="scale(0.015625)"/>
      <path id="SegoeUI-Italic-38" d="M 203 1078 
Q 203 1559 518 1936 
Q 834 2313 1344 2431 
Q 1134 2566 1000 2787 
Q 866 3009 866 3303 
Q 866 3653 1050 3943 
Q 1234 4234 1567 4395 
Q 1900 4556 2328 4556 
Q 2825 4556 3128 4287 
Q 3431 4019 3431 3578 
Q 3431 3175 3209 2876 
Q 2988 2578 2569 2431 
Q 2841 2316 3003 2050 
Q 3166 1784 3166 1453 
Q 3166 1034 2947 681 
Q 2728 328 2343 128 
Q 1959 -72 1506 -72 
Q 888 -72 545 220 
Q 203 513 203 1078 
z
M 772 1097 
Q 772 769 972 575 
Q 1172 381 1553 381 
Q 1831 381 2079 522 
Q 2328 663 2476 916 
Q 2625 1169 2625 1466 
Q 2625 1794 2423 1998 
Q 2222 2203 1894 2203 
Q 1600 2203 1337 2054 
Q 1075 1906 923 1651 
Q 772 1397 772 1097 
z
M 1384 3238 
Q 1384 2966 1557 2794 
Q 1731 2622 2009 2622 
Q 2222 2622 2433 2739 
Q 2644 2856 2773 3061 
Q 2903 3266 2903 3513 
Q 2903 3784 2731 3954 
Q 2559 4125 2266 4125 
Q 1897 4125 1640 3869 
Q 1384 3613 1384 3238 
z
" transform="scale(0.015625)"/>
     </defs>
     <use xlink:href="#SegoeUI-Italic-39"/>
     <use xlink:href="#SegoeUI-Italic-30" x="53.90625"/>
     <use xlink:href="#SegoeUI-Italic-b0" x="107.8125"/>
     <use xlink:href="#SegoeUI-Italic-20" x="145.507812"/>
     <use xlink:href="#SegoeUI-Italic-3c" x="172.998047"/>
     <use xlink:href="#SegoeUI-Italic-20" x="241.503906"/>
     <use xlink:href="#SegoeUI-Italic-3b1" x="268.994141"/>
     <use xlink:href="#SegoeUI-Italic-20" x="331.591797"/>
     <use xlink:href="#SegoeUI-Italic-3c" x="359.082031"/>
     <use xlink:href="#SegoeUI-Italic-20" x="427.587891"/>
     <use xlink:href="#SegoeUI-Italic-31" x="455.078125"/>
     <use xlink:href="#SegoeUI-Italic-38" x="508.984375"/>
     <use xlink:href="#SegoeUI-Italic-30" x="562.890625"/>
     <use xlink:href="#SegoeUI-Italic-b0" x="616.796875"/>
    </g>
   </g>
  </g>
  <g id="axes_4">
   <g id="line2d_4">
    <path d="M 794.571223 216.703414 
L 794.505358 214.64951 
L 794.308035 212.604046 
L 793.980063 210.575428 
L 793.522792 208.57199 
L 792.938099 206.601967 
L 792.228388 204.673452 
L 791.396574 202.794371 
L 790.446077 200.972445 
L 789.380801 199.215161 
L 788.205125 197.52974 
L 786.923878 195.923108 
L 785.542327 194.401867 
L 784.066148 192.972267 
L 782.501407 191.640184 
L 780.854535 190.411091 
L 779.132298 189.290039 
L 777.341773 188.281634 
L 775.490318 187.390021 
L 773.585542 186.618862 
L 771.635271 185.971328 
L 769.647519 185.450078 
L 767.630454 185.057254 
L 765.592366 184.794472 
L 763.541628 184.66281 
L 761.486669 184.66281 
L 759.435931 184.794472 
L 757.397843 185.057254 
L 755.380778 185.450078 
L 753.393027 185.971328 
L 751.442755 186.618862 
L 749.537979 187.390021 
L 747.686524 188.281634 
L 745.895999 189.290039 
L 744.173762 190.411091 
L 742.52689 191.640184 
L 740.962149 192.972267 
L 739.48597 194.401867 
L 738.104419 195.923108 
L 736.823173 197.52974 
L 735.647496 199.215161 
L 734.58222 200.972445 
L 733.631723 202.794371 
L 732.799909 204.673452 
L 732.090198 206.601967 
L 731.505505 208.57199 
L 731.048234 210.575428 
L 730.720262 212.604046 
L 730.522939 214.64951 
L 730.457074 216.703414 
" clip-path="url(#pbe0db55dc5)" style="fill: none; stroke: #4b5563; stroke-width: 2; stroke-linecap: square"/>
   </g>
   <g id="patch_11">
    <path d="M 764.51315 216.703414 
Q 815.942104 216.703414 865.134989 216.703414 
" style="fill: none; stroke: #4b5563; stroke-width: 2; stroke-linecap: round"/>
    <path d="M 861.134989 214.703414 
L 865.134989 216.703414 
L 861.134989 218.703414 
" style="fill: none; stroke: #4b5563; stroke-width: 2; stroke-linecap: round"/>
   </g>
   <g id="text_10">
    <g id="patch_12">
     <path d="M 751.987586 170.126519 
L 773.040711 170.126519 
Q 775.040711 170.126519 775.040711 168.126519 
L 775.040711 158.423394 
Q 775.040711 156.423394 773.040711 156.423394 
L 751.987586 156.423394 
Q 749.987586 156.423394 749.987586 158.423394 
L 749.987586 168.126519 
Q 749.987586 170.126519 751.987586 170.126519 
z
" style="fill: #ffffff; opacity: 0.8"/>
    </g>
    <!-- 180° -->
    <g style="fill: #4b5563" transform="translate(751.987586 165.826519) scale(0.1 -0.1)">
     <defs>
      <path id="SegoeUI-Bold-38" d="M 250 1206 
Q 250 1394 304 1567 
Q 359 1741 468 1889 
Q 578 2038 742 2155 
Q 906 2272 1128 2347 
Q 788 2516 600 2780 
Q 413 3044 413 3366 
Q 413 3622 520 3840 
Q 628 4059 818 4218 
Q 1009 4378 1273 4467 
Q 1538 4556 1850 4556 
Q 2169 4556 2434 4467 
Q 2700 4378 2892 4220 
Q 3084 4063 3190 3847 
Q 3297 3631 3297 3378 
Q 3297 3059 3097 2798 
Q 2897 2538 2544 2369 
Q 2763 2294 2928 2176 
Q 3094 2059 3206 1909 
Q 3319 1759 3375 1582 
Q 3431 1406 3431 1216 
Q 3431 928 3315 692 
Q 3200 456 2989 286 
Q 2778 116 2486 22 
Q 2194 -72 1841 -72 
Q 1494 -72 1201 20 
Q 909 113 698 281 
Q 488 450 369 686 
Q 250 922 250 1206 
z
M 1184 1291 
Q 1184 1138 1231 1016 
Q 1278 894 1365 809 
Q 1453 725 1573 679 
Q 1694 634 1844 634 
Q 1988 634 2108 681 
Q 2228 728 2315 812 
Q 2403 897 2453 1019 
Q 2503 1141 2503 1291 
Q 2503 1425 2456 1547 
Q 2409 1669 2321 1758 
Q 2234 1847 2114 1900 
Q 1994 1953 1844 1953 
Q 1703 1953 1581 1904 
Q 1459 1856 1371 1767 
Q 1284 1678 1234 1556 
Q 1184 1434 1184 1291 
z
M 1322 3275 
Q 1322 3156 1364 3051 
Q 1406 2947 1478 2870 
Q 1550 2794 1648 2750 
Q 1747 2706 1856 2706 
Q 1969 2706 2066 2750 
Q 2163 2794 2236 2872 
Q 2309 2950 2351 3053 
Q 2394 3156 2394 3275 
Q 2394 3397 2353 3501 
Q 2313 3606 2239 3682 
Q 2166 3759 2067 3803 
Q 1969 3847 1856 3847 
Q 1738 3847 1639 3801 
Q 1541 3756 1470 3679 
Q 1400 3603 1361 3498 
Q 1322 3394 1322 3275 
z
" transform="scale(0.015625)"/>
     </defs>
     <use xlink:href="#SegoeUI-Bold-31"/>
     <use xlink:href="#SegoeUI-Bold-38" x="57.519531"/>
     <use xlink:href="#SegoeUI-Bold-30" x="115.039062"/>
     <use xlink:href="#SegoeUI-Bold-b0" x="172.558594"/>
    </g>
   </g>
   <g id="text_11">
    <!-- Llano -->
    <g style="fill: #1f2937" transform="translate(801.917606 288.961) scale(0.11 -0.11)">
     <defs>
      <path id="SegoeUI-Bold-4c" d="M 3181 0 
L 513 0 
L 513 4481 
L 1522 4481 
L 1522 819 
L 3181 819 
L 3181 0 
z
" transform="scale(0.015625)"/>
      <path id="SegoeUI-Bold-6c" d="M 1403 0 
L 416 0 
L 416 4738 
L 1403 4738 
L 1403 0 
z
" transform="scale(0.015625)"/>
      <path id="SegoeUI-Bold-61" d="M 3078 0 
L 2144 0 
L 2144 459 
L 2131 459 
Q 1809 -78 1178 -78 
Q 713 -78 445 186 
Q 178 450 178 891 
Q 178 1822 1281 1966 
L 2150 2081 
Q 2150 2606 1581 2606 
Q 1009 2606 494 2266 
L 494 3009 
Q 700 3116 1058 3197 
Q 1416 3278 1709 3278 
Q 3078 3278 3078 1913 
L 3078 0 
z
M 2150 1300 
L 2150 1516 
L 1569 1441 
Q 1088 1378 1088 1006 
Q 1088 838 1205 730 
Q 1322 622 1522 622 
Q 1800 622 1975 814 
Q 2150 1006 2150 1300 
z
" transform="scale(0.015625)"/>
      <path id="SegoeUI-Bold-6e" d="M 3506 0 
L 2522 0 
L 2522 1778 
Q 2522 2522 1991 2522 
Q 1734 2522 1568 2325 
Q 1403 2128 1403 1825 
L 1403 0 
L 416 0 
L 416 3200 
L 1403 3200 
L 1403 2694 
L 1416 2694 
Q 1769 3278 2444 3278 
Q 3506 3278 3506 1959 
L 3506 0 
z
" transform="scale(0.015625)"/>
     </defs>
     <use xlink:href="#SegoeUI-Bold-4c"/>
     <use xlink:href="#SegoeUI-Bold-6c" x="51.123047"/>
     <use xlink:href="#SegoeUI-Bold-61" x="79.541016"/>
     <use xlink:href="#SegoeUI-Bold-6e" x="133.349609"/>
     <use xlink:href="#SegoeUI-Bold-6f" x="193.847656"/>
    </g>
   </g>
   <g id="text_12">
    <!-- α = 180° -->
    <g style="fill: #6b7280" transform="translate(798.595809 324.884514) scale(0.09 -0.09)">
     <use xlink:href="#SegoeUI-Italic-3b1"/>
     <use xlink:href="#SegoeUI-Italic-20" x="62.597656"/>
     <use xlink:href="#SegoeUI-Italic-3d" x="90.087891"/>
     <use xlink:href="#SegoeUI-Italic-20" x="158.59375"/>
     <use xlink:href="#SegoeUI-Italic-31" x="186.083984"/>
     <use xlink:href="#SegoeUI-Italic-38" x="239.990234"/>
     <use xlink:href="#SegoeUI-Italic-30" x="293.896484"/>
     <use xlink:href="#SegoeUI-Italic-b0" x="347.802734"/>
    </g>
   </g>
  </g>
  <g id="axes_5">
   <g id="line2d_5">
    <path d="M 1024.971223 216.703414 
L 1024.823091 213.625197 
L 1024.380063 210.575428 
L 1023.646235 207.582292 
L 1022.628388 204.673452 
L 1021.335928 201.87579 
L 1019.780801 199.215161 
L 1017.977378 196.716155 
L 1015.942327 194.401867 
L 1013.694454 192.293684 
L 1011.254535 190.411091 
L 1008.645118 188.771486 
L 1005.890318 187.390021 
L 1003.015596 186.279464 
L 1000.047519 185.450078 
L 997.013516 184.909528 
L 993.941628 184.66281 
L 990.860245 184.712205 
L 987.797843 185.057254 
L 984.782725 185.694771 
L 981.842755 186.618862 
L 979.005105 187.820988 
L 976.295999 189.290039 
L 973.740475 191.012438 
L 971.362149 192.972267 
L 969.183002 195.151415 
L 967.223173 197.52974 
L 965.500773 200.085265 
L 964.031723 202.794371 
L 962.829597 205.632021 
L 961.905505 208.57199 
L 961.267989 211.587108 
L 960.922939 214.64951 
L 960.873545 217.730894 
L 961.120262 220.802782 
L 961.660812 223.836784 
L 962.490198 226.804862 
L 963.600755 229.679584 
L 964.98222 232.434383 
L 966.621826 235.0438 
L 968.504419 237.48372 
L 970.612601 239.731593 
L 972.92689 241.766644 
L 975.425896 243.570067 
L 978.086524 245.125194 
L 980.884186 246.417653 
L 983.793027 247.435501 
L 986.786162 248.169329 
L 989.835931 248.612356 
L 992.914149 248.760488 
" clip-path="url(#p1bca6595f6)" style="fill: none; stroke: #f59e0b; stroke-width: 2; stroke-linecap: square"/>
   </g>
   <g id="patch_13">
    <path d="M 994.91315 216.703414 
Q 1046.342104 216.703414 1095.534989 216.703414 
" style="fill: none; stroke: #f59e0b; stroke-width: 2; stroke-linecap: round"/>
    <path d="M 1091.534989 214.703414 
L 1095.534989 216.703414 
L 1091.534989 218.703414 
" style="fill: none; stroke: #f59e0b; stroke-width: 2; stroke-linecap: round"/>
   </g>
   <g id="patch_14">
    <path d="M 992.914149 218.702416 
Q 992.914149 270.131369 992.914149 319.324254 
" style="fill: none; stroke: #f59e0b; stroke-width: 2; stroke-linecap: round"/>
    <path d="M 994.914149 315.324254 
L 992.914149 319.324254 
L 990.914149 315.324254 
" style="fill: none; stroke: #f59e0b; stroke-width: 2; stroke-linecap: round"/>
   </g>
   <g id="text_13">
    <g id="patch_15">
     <path d="M 944.607962 185.775352 
L 965.661087 185.775352 
Q 967.661087 185.775352 967.661087 183.775352 
L 967.661087 174.072227 
Q 967.661087 172.072227 965.661087 172.072227 
L 944.607962 172.072227 
Q 942.607962 172.072227 942.607962 174.072227 
L 942.607962 183.775352 
Q 942.607962 185.775352 944.607962 185.775352 
z
" style="fill: #ffffff; opacity: 0.8"/>
    </g>
    <!-- 270° -->
    <g style="fill: #f59e0b" transform="translate(944.607962 181.475352) scale(0.1 -0.1)">
     <defs>
      <path id="SegoeUI-Bold-37" d="M 3419 3913 
Q 3119 3372 2881 2898 
Q 2644 2425 2462 1964 
Q 2281 1503 2153 1026 
Q 2025 550 1944 0 
L 913 0 
Q 1000 522 1144 1006 
Q 1288 1491 1477 1945 
Q 1666 2400 1895 2831 
Q 2125 3263 2381 3675 
L 300 3675 
L 300 4481 
L 3419 4481 
L 3419 3913 
z
" transform="scale(0.015625)"/>
     </defs>
     <use xlink:href="#SegoeUI-Bold-32"/>
     <use xlink:href="#SegoeUI-Bold-37" x="57.519531"/>
     <use xlink:href="#SegoeUI-Bold-30" x="115.039062"/>
     <use xlink:href="#SegoeUI-Bold-b0" x="172.558594"/>
    </g>
   </g>
   <g id="text_14">
    <!-- Cóncavo -->
    <g style="fill: #1f2937" transform="translate(1024.334871 288.961) scale(0.11 -0.11)">
     <defs>
      <path id="SegoeUI-Bold-43" d="M 3725 159 
Q 3234 -78 2444 -78 
Q 1413 -78 822 528 
Q 231 1134 231 2144 
Q 231 3219 895 3887 
Q 1559 4556 2619 4556 
Q 3275 4556 3725 4391 
L 3725 3419 
Q 3275 3688 2700 3688 
Q 2069 3688 1681 3291 
Q 1294 2894 1294 2216 
Q 1294 1566 1659 1180 
Q 2025 794 2644 794 
Q 3234 794 3725 1081 
L 3725 159 
z
" transform="scale(0.015625)"/>
      <path id="SegoeUI-Bold-f3" d="M 1941 -78 
Q 1141 -78 683 370 
Q 225 819 225 1588 
Q 225 2381 700 2829 
Q 1175 3278 1984 3278 
Q 2781 3278 3234 2829 
Q 3688 2381 3688 1644 
Q 3688 847 3220 384 
Q 2753 -78 1941 -78 
z
M 1966 2522 
Q 1616 2522 1422 2281 
Q 1228 2041 1228 1600 
Q 1228 678 1972 678 
Q 2681 678 2681 1625 
Q 2681 2522 1966 2522 
z
M 3023 4716 
L 2044 3706 
L 1332 3706 
L 2144 4716 
L 3023 4716 
z
" transform="scale(0.015625)"/>
      <path id="SegoeUI-Bold-76" d="M 3463 3200 
L 2272 0 
L 1147 0 
L 13 3200 
L 1069 3200 
L 1625 1228 
Q 1719 894 1734 659 
L 1747 659 
Q 1769 881 1863 1209 
L 2431 3200 
L 3463 3200 
z
" transform="scale(0.015625)"/>
     </defs>
     <use xlink:href="#SegoeUI-Bold-43"/>
     <use xlink:href="#SegoeUI-Bold-f3" x="62.402344"/>
     <use xlink:href="#SegoeUI-Bold-6e" x="123.486328"/>
     <use xlink:href="#SegoeUI-Bold-63" x="183.984375"/>
     <use xlink:href="#SegoeUI-Bold-61" x="231.982422"/>
     <use xlink:href="#SegoeUI-Bold-76" x="285.791016"/>
     <use xlink:href="#SegoeUI-Bold-6f" x="338.990234"/>
    </g>
   </g>
   <g id="text_15">
    <!-- 180° &lt; α &lt; 360° -->
    <g style="fill: #6b7280" transform="translate(1014.465731 324.884514) scale(0.09 -0.09)">
     <defs>
      <path id="SegoeUI-Italic-33" d="M 3284 3553 
Q 3284 3328 3215 3126 
Q 3147 2925 3000 2762 
Q 2853 2600 2625 2483 
Q 2397 2366 2081 2309 
L 2081 2297 
Q 2269 2269 2425 2184 
Q 2581 2100 2692 1972 
Q 2803 1844 2864 1678 
Q 2925 1513 2925 1319 
Q 2925 1034 2822 781 
Q 2719 528 2508 337 
Q 2297 147 1980 34 
Q 1663 -78 1234 -78 
Q 1063 -78 897 -54 
Q 731 -31 586 5 
Q 441 41 319 86 
Q 197 131 109 178 
L 219 666 
Q 303 609 420 553 
Q 538 497 673 455 
Q 809 413 957 386 
Q 1106 359 1253 359 
Q 1581 359 1803 439 
Q 2025 519 2159 648 
Q 2294 778 2350 945 
Q 2406 1113 2406 1288 
Q 2406 1659 2131 1876 
Q 1856 2094 1300 2094 
L 959 2094 
L 1056 2534 
L 1428 2534 
Q 1753 2534 2001 2600 
Q 2250 2666 2419 2786 
Q 2588 2906 2673 3078 
Q 2759 3250 2759 3463 
Q 2759 3597 2715 3717 
Q 2672 3838 2580 3927 
Q 2488 4016 2348 4069 
Q 2209 4122 2016 4122 
Q 1856 4122 1711 4098 
Q 1566 4075 1437 4037 
Q 1309 4000 1200 3953 
Q 1091 3906 1006 3859 
L 1113 4372 
Q 1194 4403 1294 4436 
Q 1394 4469 1516 4495 
Q 1638 4522 1784 4539 
Q 1931 4556 2106 4556 
Q 2422 4556 2644 4468 
Q 2866 4381 3009 4239 
Q 3153 4097 3218 3917 
Q 3284 3738 3284 3553 
z
" transform="scale(0.015625)"/>
      <path id="SegoeUI-Italic-36" d="M 3378 3944 
Q 3247 4019 3062 4070 
Q 2878 4122 2663 4122 
Q 2409 4122 2181 4031 
Q 1953 3941 1759 3775 
Q 1600 3644 1465 3461 
Q 1331 3278 1223 3065 
Q 1116 2853 1037 2623 
Q 959 2394 916 2169 
L 928 2169 
Q 1009 2303 1125 2418 
Q 1241 2534 1383 2620 
Q 1525 2706 1692 2754 
Q 1859 2803 2041 2803 
Q 2319 2803 2528 2715 
Q 2738 2628 2878 2468 
Q 3019 2309 3091 2087 
Q 3163 1866 3163 1594 
Q 3163 1281 3064 981 
Q 2966 681 2773 445 
Q 2581 209 2300 65 
Q 2019 -78 1656 -78 
Q 1369 -78 1131 19 
Q 894 116 723 312 
Q 553 509 459 806 
Q 366 1103 366 1503 
Q 366 1906 442 2289 
Q 519 2672 661 3011 
Q 803 3350 1004 3633 
Q 1206 3916 1459 4116 
Q 1744 4341 2070 4448 
Q 2397 4556 2725 4556 
Q 2969 4556 3167 4514 
Q 3366 4472 3481 4428 
L 3378 3944 
z
M 2638 1550 
Q 2638 1722 2592 1870 
Q 2547 2019 2453 2128 
Q 2359 2238 2212 2300 
Q 2066 2363 1863 2363 
Q 1622 2363 1440 2272 
Q 1259 2181 1137 2034 
Q 1016 1888 953 1703 
Q 891 1519 891 1331 
Q 891 1109 947 929 
Q 1003 750 1106 623 
Q 1209 497 1357 428 
Q 1506 359 1691 359 
Q 1916 359 2092 461 
Q 2269 563 2389 728 
Q 2509 894 2573 1109 
Q 2638 1325 2638 1550 
z
" transform="scale(0.015625)"/>
     </defs>
     <use xlink:href="#SegoeUI-Italic-31"/>
     <use xlink:href="#SegoeUI-Italic-38" x="53.90625"/>
     <use xlink:href="#SegoeUI-Italic-30" x="107.8125"/>
     <use xlink:href="#SegoeUI-Italic-b0" x="161.71875"/>
     <use xlink:href="#SegoeUI-Italic-20" x="199.414062"/>
     <use xlink:href="#SegoeUI-Italic-3c" x="226.904297"/>
     <use xlink:href="#SegoeUI-Italic-20" x="295.410156"/>
     <use xlink:href="#SegoeUI-Italic-3b1" x="322.900391"/>
     <use xlink:href="#SegoeUI-Italic-20" x="385.498047"/>
     <use xlink:href="#SegoeUI-Italic-3c" x="412.988281"/>
     <use xlink:href="#SegoeUI-Italic-20" x="481.494141"/>
     <use xlink:href="#SegoeUI-Italic-33" x="508.984375"/>
     <use xlink:href="#SegoeUI-Italic-36" x="562.890625"/>
     <use xlink:href="#SegoeUI-Italic-30" x="616.796875"/>
     <use xlink:href="#SegoeUI-Italic-b0" x="670.703125"/>
    </g>
   </g>
  </g>
  <g id="text_16">
   <!-- Clasificación de Ángulos por Medida -->
   <g style="fill: #2c2f33" transform="translate(460.102729 20.17625) scale(0.14 -0.14)">
    <defs>
     <path id="SegoeUI-Bold-69" d="M 916 3706 
Q 666 3706 506 3854 
Q 347 4003 347 4219 
Q 347 4441 506 4581 
Q 666 4722 916 4722 
Q 1169 4722 1326 4581 
Q 1484 4441 1484 4219 
Q 1484 3994 1326 3850 
Q 1169 3706 916 3706 
z
M 1403 0 
L 416 0 
L 416 3200 
L 1403 3200 
L 1403 0 
z
" transform="scale(0.015625)"/>
     <path id="SegoeUI-Bold-66" d="M 2503 3981 
Q 2313 4056 2138 4056 
Q 1663 4056 1663 3541 
L 1663 3200 
L 2394 3200 
L 2394 2472 
L 1663 2472 
L 1663 0 
L 678 0 
L 678 2472 
L 141 2472 
L 141 3200 
L 678 3200 
L 678 3597 
Q 678 4144 1034 4478 
Q 1391 4813 2003 4813 
Q 2303 4813 2503 4750 
L 2503 3981 
z
" transform="scale(0.015625)"/>
     <path id="SegoeUI-Bold-20" transform="scale(0.015625)"/>
     <path id="SegoeUI-Bold-c1" d="M 4453 0 
L 3353 0 
L 3034 997 
L 1441 997 
L 1125 0 
L 31 0 
L 1663 4481 
L 2859 4481 
L 4453 0 
z
M 2803 1772 
L 2322 3278 
Q 2269 3447 2247 3681 
L 2222 3681 
Q 2206 3484 2144 3291 
L 1656 1772 
L 2803 1772 
z
M 3239 5932 
L 2260 4922 
L 1548 4922 
L 2360 5932 
L 3239 5932 
z
" transform="scale(0.015625)"/>
     <path id="SegoeUI-Bold-70" d="M 1416 372 
L 1403 372 
L 1403 -1472 
L 416 -1472 
L 416 3200 
L 1403 3200 
L 1403 2719 
L 1416 2719 
Q 1781 3278 2444 3278 
Q 3066 3278 3405 2851 
Q 3744 2425 3744 1691 
Q 3744 891 3348 406 
Q 2953 -78 2297 -78 
Q 1719 -78 1416 372 
z
M 1388 1684 
L 1388 1428 
Q 1388 1097 1563 887 
Q 1738 678 2022 678 
Q 2359 678 2545 939 
Q 2731 1200 2731 1678 
Q 2731 2522 2075 2522 
Q 1772 2522 1580 2292 
Q 1388 2063 1388 1684 
z
" transform="scale(0.015625)"/>
     <path id="SegoeUI-Bold-72" d="M 2503 2309 
Q 2325 2406 2088 2406 
Q 1766 2406 1584 2170 
Q 1403 1934 1403 1528 
L 1403 0 
L 416 0 
L 416 3200 
L 1403 3200 
L 1403 2606 
L 1416 2606 
Q 1650 3256 2259 3256 
Q 2416 3256 2503 3219 
L 2503 2309 
z
" transform="scale(0.015625)"/>
     <path id="SegoeUI-Bold-4d" d="M 5619 0 
L 4622 0 
L 4622 2681 
Q 4622 3116 4659 3641 
L 4634 3641 
Q 4556 3228 4494 3047 
L 3444 0 
L 2619 0 
L 1550 3016 
Q 1506 3138 1409 3641 
L 1381 3641 
Q 1422 2978 1422 2478 
L 1422 0 
L 513 0 
L 513 4481 
L 1991 4481 
L 2906 1825 
Q 3016 1506 3066 1184 
L 3084 1184 
Q 3169 1556 3263 1831 
L 4178 4481 
L 5619 4481 
L 5619 0 
z
" transform="scale(0.015625)"/>
    </defs>
    <use xlink:href="#SegoeUI-Bold-43"/>
    <use xlink:href="#SegoeUI-Bold-6c" x="62.402344"/>
    <use xlink:href="#SegoeUI-Bold-61" x="90.820312"/>
    <use xlink:href="#SegoeUI-Bold-73" x="144.628906"/>
    <use xlink:href="#SegoeUI-Bold-69" x="188.623047"/>
    <use xlink:href="#SegoeUI-Bold-66" x="217.041016"/>
    <use xlink:href="#SegoeUI-Bold-69" x="255.371094"/>
    <use xlink:href="#SegoeUI-Bold-63" x="283.789062"/>
    <use xlink:href="#SegoeUI-Bold-61" x="331.787109"/>
    <use xlink:href="#SegoeUI-Bold-63" x="385.595703"/>
    <use xlink:href="#SegoeUI-Bold-69" x="433.59375"/>
    <use xlink:href="#SegoeUI-Bold-f3" x="462.011719"/>
    <use xlink:href="#SegoeUI-Bold-6e" x="523.095703"/>
    <use xlink:href="#SegoeUI-Bold-20" x="583.59375"/>
    <use xlink:href="#SegoeUI-Bold-64" x="611.181641"/>
    <use xlink:href="#SegoeUI-Bold-65" x="673.095703"/>
    <use xlink:href="#SegoeUI-Bold-20" x="727.197266"/>
    <use xlink:href="#SegoeUI-Bold-c1" x="754.785156"/>
    <use xlink:href="#SegoeUI-Bold-6e" x="825.097656"/>
    <use xlink:href="#SegoeUI-Bold-67" x="885.595703"/>
    <use xlink:href="#SegoeUI-Bold-75" x="947.509766"/>
    <use xlink:href="#SegoeUI-Bold-6c" x="1008.007812"/>
    <use xlink:href="#SegoeUI-Bold-6f" x="1036.425781"/>
    <use xlink:href="#SegoeUI-Bold-73" x="1097.558594"/>
    <use xlink:href="#SegoeUI-Bold-20" x="1141.552734"/>
    <use xlink:href="#SegoeUI-Bold-70" x="1169.140625"/>
    <use xlink:href="#SegoeUI-Bold-6f" x="1231.152344"/>
    <use xlink:href="#SegoeUI-Bold-72" x="1292.285156"/>
    <use xlink:href="#SegoeUI-Bold-20" x="1332.080078"/>
    <use xlink:href="#SegoeUI-Bold-4d" x="1359.667969"/>
    <use xlink:href="#SegoeUI-Bold-65" x="1455.371094"/>
    <use xlink:href="#SegoeUI-Bold-64" x="1509.472656"/>
    <use xlink:href="#SegoeUI-Bold-69" x="1571.386719"/>
    <use xlink:href="#SegoeUI-Bold-64" x="1599.804688"/>
    <use xlink:href="#SegoeUI-Bold-61" x="1661.71875"/>
   </g>
  </g>
 </g>
 <defs>
  <clipPath id="pe0f54db5c8">
   <rect x="7.2" y="56.418043" width="224.39952" height="277.827977"/>
  </clipPath>
  <clipPath id="p324c831d3c">
   <rect x="237.6" y="56.418043" width="224.39952" height="277.827977"/>
  </clipPath>
  <clipPath id="pfbb1757d6f">
   <rect x="468" y="56.418043" width="224.39952" height="277.827977"/>
  </clipPath>
  <clipPath id="pbe0db55dc5">
   <rect x="698.4" y="56.418043" width="224.39952" height="277.827977"/>
  </clipPath>
  <clipPath id="p1bca6595f6">
   <rect x="928.8" y="56.418043" width="224.39952" height="277.827977"/>
  </clipPath>
 </defs>
</svg>
