<?xml version="1.0" encoding="utf-8" standalone="no"?>
<!DOCTYPE svg PUBLIC "-//W3C//DTD SVG 1.1//EN"
  "http://www.w3.org/Graphics/SVG/1.1/DTD/svg11.dtd">
<svg xmlns:xlink="http://www.w3.org/1999/xlink" width="866.55936pt" height="368.39952pt" viewBox="0 0 866.55936 368.39952" xmlns="http://www.w3.org/2000/svg" version="1.1">
 <metadata>
  <rdf:RDF xmlns:dc="http://purl.org/dc/elements/1.1/" xmlns:cc="http://creativecommons.org/ns#" xmlns:rdf="http://www.w3.org/1999/02/22-rdf-syntax-ns#">
   <cc:Work>
    <dc:type rdf:resource="http://purl.org/dc/dcmitype/StillImage"/>
    <dc:date>2026-04-11T16:11:37.230774</dc:date>
    <dc:format>image/svg+xml</dc:format>
    <dc:creator>
     <cc:Agent>
      <dc:title>Matplotlib v3.8.4, https://matplotlib.org/</dc:title>
     </cc:Agent>
    </dc:creator>
   </cc:Work>
  </rdf:RDF>
 </metadata>
 <defs>
  <style type="text/css">*{stroke-linejoin: round; stroke-linecap: butt}</style>
 </defs>
 <g id="figure_1">
  <g id="patch_1">
   <path d="M 0 368.39952 
L 866.55936 368.39952 
L 866.55936 0 
L 0 0 
z
" style="fill: #ffffff"/>
  </g>
  <g id="axes_1">
   <g id="line2d_1">
    <path d="M 125.19984 302.1996 
L 125.186751 300.956899 
L 125.147491 299.714749 
L 125.082076 298.473702 
L 124.990535 297.234307 
L 124.87291 295.997116 
L 124.729252 294.762677 
L 124.559626 293.531538 
L 124.364106 292.304244 
L 124.142779 291.081341 
L 123.895743 289.863371 
L 123.623109 288.650874 
L 123.324996 287.444389 
L 123.001538 286.244451 
L 122.652877 285.051591 
L 122.279169 283.86634 
L 121.880579 282.689224 
L 121.457284 281.520764 
L 121.009472 280.361478 
L 120.537342 279.211883 
L 120.041103 278.072486 
L 119.520975 276.943795 
L 118.977189 275.826309 
L 118.409986 274.720525 
L 117.819618 273.626933 
L 117.206347 272.546018 
L 116.570446 271.47826 
L 115.912195 270.424133 
L 115.231887 269.384105 
L 114.529825 268.358636 
" clip-path="url(#pcf937c9f08)" style="fill: none; stroke: #39c5bb; stroke-width: 2; stroke-linecap: square"/>
   </g>
   <g id="line2d_2">
    <path d="M 104.863844 275.126829 
L 103.94669 273.862075 
L 102.988182 272.628368 
L 101.989369 271.427058 
L 100.951346 270.259463 
L 99.875249 269.12686 
L 98.762259 268.030491 
L 97.613594 266.971557 
L 96.430513 265.951218 
L 95.214312 264.970592 
L 93.966323 264.030754 
L 92.687914 263.132732 
L 91.380485 262.277512 
L 90.045468 261.466029 
L 88.684327 260.699174 
L 87.298553 259.977785 
L 85.889663 259.302654 
L 84.459202 258.67452 
L 83.008736 258.094071 
L 81.539854 257.561944 
L 80.054167 257.07872 
L 78.553301 256.64493 
L 77.038901 256.261049 
L 75.512625 255.927497 
L 73.976148 255.644641 
L 72.43115 255.412789 
L 70.879326 255.232195 
L 69.322375 255.103058 
L 67.762003 255.02552 
L 66.19992 254.999664 
" clip-path="url(#pcf937c9f08)" style="fill: none; stroke: #e12885; stroke-width: 2; stroke-linecap: square"/>
   </g>
   <g id="line2d_3">
    <path d="M 83.899896 302.1996 
L 83.899896 284.499624 
L 66.19992 284.499624 
" clip-path="url(#pcf937c9f08)" style="fill: none; stroke: #374151; stroke-width: 1.5; stroke-linecap: square"/>
   </g>
   <g id="patch_2">
    <path d="M 68.198513 302.1996 
Q 184.197511 302.1996 297.96044 302.1996 
" style="fill: none; stroke: #374151; stroke-width: 2; stroke-linecap: round"/>
    <path d="M 293.96044 300.1996 
L 297.96044 302.1996 
L 293.96044 304.1996 
" style="fill: none; stroke: #374151; stroke-width: 2; stroke-linecap: round"/>
   </g>
   <g id="patch_3">
    <path d="M 67.837072 301.053254 
Q 162.857888 234.518962 256.047024 169.267227 
" style="fill: none; stroke: #39c5bb; stroke-width: 2; stroke-linecap: round"/>
    <path d="M 251.623263 169.923228 
L 256.047024 169.267227 
L 253.917569 173.199836 
" style="fill: none; stroke: #39c5bb; stroke-width: 2; stroke-linecap: round"/>
   </g>
   <g id="patch_4">
    <path d="M 66.19992 300.201007 
Q 66.19992 184.202009 66.19992 70.43908 
" style="fill: none; stroke: #374151; stroke-width: 2; stroke-linecap: round"/>
    <path d="M 64.19992 74.43908 
L 66.19992 70.43908 
L 68.19992 74.43908 
" style="fill: none; stroke: #374151; stroke-width: 2; stroke-linecap: round"/>
   </g>
   <g id="text_1">
    <!-- α -->
    <g style="fill: #39c5bb" transform="translate(148.799808 278.599632) scale(0.14 -0.14)">
     <defs>
      <path id="SegoeUI-Bold-3b1" d="M 2697 669 
Q 2313 -78 1538 -78 
Q 928 -78 578 362 
Q 228 803 228 1509 
Q 228 2275 634 2776 
Q 1041 3278 1725 3278 
Q 2497 3278 2769 2619 
L 2784 2619 
L 2959 3200 
L 3956 3200 
L 3266 1578 
Q 3384 1134 3511 939 
Q 3638 744 3803 744 
Q 3950 744 4050 794 
L 4038 38 
Q 3831 -47 3566 -47 
Q 3222 -47 3020 120 
Q 2819 288 2716 669 
L 2697 669 
z
M 2484 1644 
Q 2303 2528 1850 2528 
Q 1553 2528 1384 2253 
Q 1216 1978 1216 1569 
Q 1216 1178 1352 933 
Q 1488 688 1747 688 
Q 2191 688 2438 1497 
L 2484 1644 
z
" transform="scale(0.015625)"/>
     </defs>
     <use xlink:href="#SegoeUI-Bold-3b1"/>
    </g>
   </g>
   <g id="text_2">
    <!-- β -->
    <g style="fill: #e12885" transform="translate(89.799888 231.399696) scale(0.14 -0.14)">
     <defs>
      <path id="SegoeUI-Bold-3b2" d="M 1403 78 
L 1403 -1481 
L 416 -1481 
L 416 3275 
Q 416 3966 834 4383 
Q 1253 4800 1975 4800 
Q 2678 4800 3079 4470 
Q 3481 4141 3481 3588 
Q 3481 3213 3264 2928 
Q 3047 2644 2684 2528 
L 2684 2516 
Q 3188 2416 3475 2089 
Q 3763 1763 3763 1288 
Q 3763 678 3341 301 
Q 2919 -75 2222 -75 
Q 1800 -75 1403 78 
z
M 1759 2094 
L 1759 2784 
Q 2084 2806 2282 2997 
Q 2481 3188 2481 3494 
Q 2481 3750 2343 3897 
Q 2206 4044 1972 4044 
Q 1403 4044 1403 3306 
L 1403 888 
Q 1738 681 2084 681 
Q 2756 681 2756 1319 
Q 2756 2056 1759 2094 
z
" transform="scale(0.015625)"/>
     </defs>
     <use xlink:href="#SegoeUI-Bold-3b2"/>
    </g>
   </g>
   <g id="text_3">
    <!-- α + β = 90° -->
    <g style="fill: #2c2f33" transform="translate(152.359447 337.599552) scale(0.12 -0.12)">
     <defs>
      <path id="SegoeUI-Bold-20" transform="scale(0.015625)"/>
      <path id="SegoeUI-Bold-2b" d="M 3788 1516 
L 2584 1516 
L 2584 313 
L 1953 313 
L 1953 1516 
L 744 1516 
L 744 2150 
L 1953 2150 
L 1953 3359 
L 2584 3359 
L 2584 2150 
L 3788 2150 
L 3788 1516 
z
" transform="scale(0.015625)"/>
      <path id="SegoeUI-Bold-3d" d="M 3788 2188 
L 744 2188 
L 744 2828 
L 3788 2828 
L 3788 2188 
z
M 3788 831 
L 744 831 
L 744 1466 
L 3788 1466 
L 3788 831 
z
" transform="scale(0.015625)"/>
      <path id="SegoeUI-Bold-39" d="M 3397 2456 
Q 3397 1859 3265 1389 
Q 3134 919 2882 594 
Q 2631 269 2268 95 
Q 1906 -78 1447 -78 
Q 897 -78 500 97 
L 500 909 
Q 853 678 1350 678 
Q 1859 678 2146 1025 
Q 2434 1372 2438 2028 
L 2419 2034 
Q 2122 1594 1516 1594 
Q 1241 1594 1008 1697 
Q 775 1800 604 1983 
Q 434 2166 339 2419 
Q 244 2672 244 2975 
Q 244 3328 359 3618 
Q 475 3909 683 4118 
Q 891 4328 1181 4442 
Q 1472 4556 1825 4556 
Q 2191 4556 2481 4414 
Q 2772 4272 2976 4003 
Q 3181 3734 3289 3343 
Q 3397 2953 3397 2456 
z
M 2400 2981 
Q 2400 3153 2356 3304 
Q 2313 3456 2234 3565 
Q 2156 3675 2043 3739 
Q 1931 3803 1797 3803 
Q 1669 3803 1561 3747 
Q 1453 3691 1375 3592 
Q 1297 3494 1253 3356 
Q 1209 3219 1209 3059 
Q 1209 2884 1253 2748 
Q 1297 2613 1376 2519 
Q 1456 2425 1568 2376 
Q 1681 2328 1819 2328 
Q 1950 2328 2056 2379 
Q 2163 2431 2239 2518 
Q 2316 2606 2358 2725 
Q 2400 2844 2400 2981 
z
" transform="scale(0.015625)"/>
      <path id="SegoeUI-Bold-30" d="M 1816 -78 
Q 216 -78 216 2169 
Q 216 3334 648 3945 
Q 1081 4556 1903 4556 
Q 3466 4556 3466 2272 
Q 3466 1134 3039 528 
Q 2613 -78 1816 -78 
z
M 1859 3803 
Q 1219 3803 1219 2194 
Q 1219 678 1847 678 
Q 2459 678 2459 2241 
Q 2459 3803 1859 3803 
z
" transform="scale(0.015625)"/>
      <path id="SegoeUI-Bold-b0" d="M 1247 2797 
Q 875 2797 617 3055 
Q 359 3313 359 3681 
Q 359 4050 617 4303 
Q 875 4556 1247 4556 
Q 1616 4556 1877 4303 
Q 2138 4050 2138 3681 
Q 2138 3313 1877 3055 
Q 1616 2797 1247 2797 
z
M 1247 4084 
Q 1078 4084 961 3967 
Q 844 3850 844 3681 
Q 844 3513 961 3392 
Q 1078 3272 1247 3272 
Q 1413 3272 1531 3392 
Q 1650 3513 1650 3681 
Q 1650 3850 1533 3967 
Q 1416 4084 1247 4084 
z
" transform="scale(0.015625)"/>
     </defs>
     <use xlink:href="#SegoeUI-Bold-3b1"/>
     <use xlink:href="#SegoeUI-Bold-20" x="63.671875"/>
     <use xlink:href="#SegoeUI-Bold-2b" x="91.259766"/>
     <use xlink:href="#SegoeUI-Bold-20" x="161.962891"/>
     <use xlink:href="#SegoeUI-Bold-3b2" x="189.550781"/>
     <use xlink:href="#SegoeUI-Bold-20" x="251.757812"/>
     <use xlink:href="#SegoeUI-Bold-3d" x="279.345703"/>
     <use xlink:href="#SegoeUI-Bold-20" x="350.048828"/>
     <use xlink:href="#SegoeUI-Bold-39" x="377.636719"/>
     <use xlink:href="#SegoeUI-Bold-30" x="435.15625"/>
     <use xlink:href="#SegoeUI-Bold-b0" x="492.675781"/>
    </g>
   </g>
   <g id="text_4">
    <!-- Ángulos Complementarios -->
    <g style="fill: #1f2937" transform="translate(103.158979 42.599952) scale(0.13 -0.13)">
     <defs>
      <path id="SegoeUI-Bold-c1" d="M 4453 0 
L 3353 0 
L 3034 997 
L 1441 997 
L 1125 0 
L 31 0 
L 1663 4481 
L 2859 4481 
L 4453 0 
z
M 2803 1772 
L 2322 3278 
Q 2269 3447 2247 3681 
L 2222 3681 
Q 2206 3484 2144 3291 
L 1656 1772 
L 2803 1772 
z
M 3239 5932 
L 2260 4922 
L 1548 4922 
L 2360 5932 
L 3239 5932 
z
" transform="scale(0.015625)"/>
      <path id="SegoeUI-Bold-6e" d="M 3506 0 
L 2522 0 
L 2522 1778 
Q 2522 2522 1991 2522 
Q 1734 2522 1568 2325 
Q 1403 2128 1403 1825 
L 1403 0 
L 416 0 
L 416 3200 
L 1403 3200 
L 1403 2694 
L 1416 2694 
Q 1769 3278 2444 3278 
Q 3506 3278 3506 1959 
L 3506 0 
z
" transform="scale(0.015625)"/>
      <path id="SegoeUI-Bold-67" d="M 3553 366 
Q 3553 -525 3037 -1014 
Q 2522 -1503 1544 -1503 
Q 897 -1503 519 -1319 
L 519 -488 
Q 1013 -775 1516 -775 
Q 2016 -775 2291 -511 
Q 2566 -247 2566 206 
L 2566 459 
L 2553 459 
Q 2216 -78 1556 -78 
Q 944 -78 584 353 
Q 225 784 225 1509 
Q 225 2322 625 2800 
Q 1025 3278 1678 3278 
Q 2263 3278 2553 2828 
L 2566 2828 
L 2566 3200 
L 3553 3200 
L 3553 366 
z
M 2578 1538 
L 2578 1791 
Q 2578 2094 2398 2308 
Q 2219 2522 1931 2522 
Q 1603 2522 1415 2265 
Q 1228 2009 1228 1544 
Q 1228 1144 1406 911 
Q 1584 678 1894 678 
Q 2200 678 2389 914 
Q 2578 1150 2578 1538 
z
" transform="scale(0.015625)"/>
      <path id="SegoeUI-Bold-75" d="M 3456 0 
L 2472 0 
L 2472 488 
L 2456 488 
Q 2091 -78 1478 -78 
Q 366 -78 366 1269 
L 366 3200 
L 1350 3200 
L 1350 1356 
Q 1350 678 1888 678 
Q 2153 678 2312 864 
Q 2472 1050 2472 1369 
L 2472 3200 
L 3456 3200 
L 3456 0 
z
" transform="scale(0.015625)"/>
      <path id="SegoeUI-Bold-6c" d="M 1403 0 
L 416 0 
L 416 4738 
L 1403 4738 
L 1403 0 
z
" transform="scale(0.015625)"/>
      <path id="SegoeUI-Bold-6f" d="M 1941 -78 
Q 1141 -78 683 370 
Q 225 819 225 1588 
Q 225 2381 700 2829 
Q 1175 3278 1984 3278 
Q 2781 3278 3234 2829 
Q 3688 2381 3688 1644 
Q 3688 847 3220 384 
Q 2753 -78 1941 -78 
z
M 1966 2522 
Q 1616 2522 1422 2281 
Q 1228 2041 1228 1600 
Q 1228 678 1972 678 
Q 2681 678 2681 1625 
Q 2681 2522 1966 2522 
z
" transform="scale(0.015625)"/>
      <path id="SegoeUI-Bold-73" d="M 206 84 
L 206 884 
Q 450 738 692 666 
Q 934 594 1150 594 
Q 1413 594 1564 666 
Q 1716 738 1716 884 
Q 1716 978 1647 1040 
Q 1578 1103 1470 1150 
Q 1363 1197 1234 1234 
Q 1106 1272 988 1319 
Q 797 1391 651 1473 
Q 506 1556 407 1665 
Q 309 1775 257 1919 
Q 206 2063 206 2259 
Q 206 2528 323 2722 
Q 441 2916 636 3039 
Q 831 3163 1082 3220 
Q 1334 3278 1606 3278 
Q 1819 3278 2037 3245 
Q 2256 3213 2469 3150 
L 2469 2388 
Q 2281 2497 2067 2551 
Q 1853 2606 1647 2606 
Q 1550 2606 1464 2589 
Q 1378 2572 1312 2539 
Q 1247 2506 1209 2454 
Q 1172 2403 1172 2338 
Q 1172 2250 1228 2187 
Q 1284 2125 1375 2079 
Q 1466 2034 1577 1998 
Q 1688 1963 1797 1925 
Q 1994 1856 2153 1775 
Q 2313 1694 2427 1584 
Q 2541 1475 2602 1328 
Q 2663 1181 2663 978 
Q 2663 694 2539 492 
Q 2416 291 2211 164 
Q 2006 38 1739 -20 
Q 1472 -78 1184 -78 
Q 656 -78 206 84 
z
" transform="scale(0.015625)"/>
      <path id="SegoeUI-Bold-43" d="M 3725 159 
Q 3234 -78 2444 -78 
Q 1413 -78 822 528 
Q 231 1134 231 2144 
Q 231 3219 895 3887 
Q 1559 4556 2619 4556 
Q 3275 4556 3725 4391 
L 3725 3419 
Q 3275 3688 2700 3688 
Q 2069 3688 1681 3291 
Q 1294 2894 1294 2216 
Q 1294 1566 1659 1180 
Q 2025 794 2644 794 
Q 3234 794 3725 1081 
L 3725 159 
z
" transform="scale(0.015625)"/>
      <path id="SegoeUI-Bold-6d" d="M 5497 0 
L 4513 0 
L 4513 1825 
Q 4513 2522 4000 2522 
Q 3756 2522 3603 2312 
Q 3450 2103 3450 1791 
L 3450 0 
L 2463 0 
L 2463 1844 
Q 2463 2522 1959 2522 
Q 1706 2522 1554 2322 
Q 1403 2122 1403 1778 
L 1403 0 
L 416 0 
L 416 3200 
L 1403 3200 
L 1403 2700 
L 1416 2700 
Q 1569 2956 1845 3117 
Q 2122 3278 2450 3278 
Q 3128 3278 3378 2681 
Q 3744 3278 4453 3278 
Q 5497 3278 5497 1991 
L 5497 0 
z
" transform="scale(0.015625)"/>
      <path id="SegoeUI-Bold-70" d="M 1416 372 
L 1403 372 
L 1403 -1472 
L 416 -1472 
L 416 3200 
L 1403 3200 
L 1403 2719 
L 1416 2719 
Q 1781 3278 2444 3278 
Q 3066 3278 3405 2851 
Q 3744 2425 3744 1691 
Q 3744 891 3348 406 
Q 2953 -78 2297 -78 
Q 1719 -78 1416 372 
z
M 1388 1684 
L 1388 1428 
Q 1388 1097 1563 887 
Q 1738 678 2022 678 
Q 2359 678 2545 939 
Q 2731 1200 2731 1678 
Q 2731 2522 2075 2522 
Q 1772 2522 1580 2292 
Q 1388 2063 1388 1684 
z
" transform="scale(0.015625)"/>
      <path id="SegoeUI-Bold-65" d="M 3291 1319 
L 1203 1319 
Q 1253 622 2081 622 
Q 2609 622 3009 872 
L 3009 159 
Q 2566 -78 1856 -78 
Q 1081 -78 653 351 
Q 225 781 225 1550 
Q 225 2347 687 2812 
Q 1150 3278 1825 3278 
Q 2525 3278 2908 2862 
Q 3291 2447 3291 1734 
L 3291 1319 
z
M 2375 1925 
Q 2375 2613 1819 2613 
Q 1581 2613 1407 2416 
Q 1234 2219 1197 1925 
L 2375 1925 
z
" transform="scale(0.015625)"/>
      <path id="SegoeUI-Bold-74" d="M 2350 38 
Q 2131 -78 1691 -78 
Q 647 -78 647 1006 
L 647 2472 
L 128 2472 
L 128 3200 
L 647 3200 
L 647 3891 
L 1631 4172 
L 1631 3200 
L 2350 3200 
L 2350 2472 
L 1631 2472 
L 1631 1178 
Q 1631 678 2028 678 
Q 2184 678 2350 769 
L 2350 38 
z
" transform="scale(0.015625)"/>
      <path id="SegoeUI-Bold-61" d="M 3078 0 
L 2144 0 
L 2144 459 
L 2131 459 
Q 1809 -78 1178 -78 
Q 713 -78 445 186 
Q 178 450 178 891 
Q 178 1822 1281 1966 
L 2150 2081 
Q 2150 2606 1581 2606 
Q 1009 2606 494 2266 
L 494 3009 
Q 700 3116 1058 3197 
Q 1416 3278 1709 3278 
Q 3078 3278 3078 1913 
L 3078 0 
z
M 2150 1300 
L 2150 1516 
L 1569 1441 
Q 1088 1378 1088 1006 
Q 1088 838 1205 730 
Q 1322 622 1522 622 
Q 1800 622 1975 814 
Q 2150 1006 2150 1300 
z
" transform="scale(0.015625)"/>
      <path id="SegoeUI-Bold-72" d="M 2503 2309 
Q 2325 2406 2088 2406 
Q 1766 2406 1584 2170 
Q 1403 1934 1403 1528 
L 1403 0 
L 416 0 
L 416 3200 
L 1403 3200 
L 1403 2606 
L 1416 2606 
Q 1650 3256 2259 3256 
Q 2416 3256 2503 3219 
L 2503 2309 
z
" transform="scale(0.015625)"/>
      <path id="SegoeUI-Bold-69" d="M 916 3706 
Q 666 3706 506 3854 
Q 347 4003 347 4219 
Q 347 4441 506 4581 
Q 666 4722 916 4722 
Q 1169 4722 1326 4581 
Q 1484 4441 1484 4219 
Q 1484 3994 1326 3850 
Q 1169 3706 916 3706 
z
M 1403 0 
L 416 0 
L 416 3200 
L 1403 3200 
L 1403 0 
z
" transform="scale(0.015625)"/>
     </defs>
     <use xlink:href="#SegoeUI-Bold-c1"/>
     <use xlink:href="#SegoeUI-Bold-6e" x="70.3125"/>
     <use xlink:href="#SegoeUI-Bold-67" x="130.810547"/>
     <use xlink:href="#SegoeUI-Bold-75" x="192.724609"/>
     <use xlink:href="#SegoeUI-Bold-6c" x="253.222656"/>
     <use xlink:href="#SegoeUI-Bold-6f" x="281.640625"/>
     <use xlink:href="#SegoeUI-Bold-73" x="342.773438"/>
     <use xlink:href="#SegoeUI-Bold-20" x="386.767578"/>
     <use xlink:href="#SegoeUI-Bold-43" x="414.355469"/>
     <use xlink:href="#SegoeUI-Bold-6f" x="476.757812"/>
     <use xlink:href="#SegoeUI-Bold-6d" x="537.890625"/>
     <use xlink:href="#SegoeUI-Bold-70" x="629.492188"/>
     <use xlink:href="#SegoeUI-Bold-6c" x="691.503906"/>
     <use xlink:href="#SegoeUI-Bold-65" x="719.921875"/>
     <use xlink:href="#SegoeUI-Bold-6d" x="774.023438"/>
     <use xlink:href="#SegoeUI-Bold-65" x="865.625"/>
     <use xlink:href="#SegoeUI-Bold-6e" x="919.726562"/>
     <use xlink:href="#SegoeUI-Bold-74" x="980.224609"/>
     <use xlink:href="#SegoeUI-Bold-61" x="1019.140625"/>
     <use xlink:href="#SegoeUI-Bold-72" x="1072.949219"/>
     <use xlink:href="#SegoeUI-Bold-69" x="1113.119141"/>
     <use xlink:href="#SegoeUI-Bold-6f" x="1141.537109"/>
     <use xlink:href="#SegoeUI-Bold-73" x="1202.669922"/>
    </g>
   </g>
   <g id="text_5">
    <!-- α = 35°, β = 55° -->
    <g style="fill: #6b7280" transform="translate(145.551947 77.999904) scale(0.11 -0.11)">
     <defs>
      <path id="SegoeUI-3b1" d="M 3816 16 
Q 3650 -25 3519 -25 
Q 3038 -25 2869 891 
L 2856 891 
Q 2394 -75 1563 -75 
Q 981 -75 631 373 
Q 281 822 281 1506 
Q 281 2288 684 2781 
Q 1088 3275 1775 3275 
Q 2169 3275 2478 3040 
Q 2788 2806 2947 2381 
L 2959 2381 
L 3225 3200 
L 3763 3200 
L 3159 1631 
Q 3266 947 3384 701 
Q 3503 456 3691 456 
Q 3763 456 3816 472 
L 3816 16 
z
M 2728 1625 
Q 2609 2219 2365 2534 
Q 2122 2850 1778 2850 
Q 1334 2850 1070 2472 
Q 806 2094 806 1538 
Q 806 1044 1029 709 
Q 1253 375 1631 375 
Q 1963 375 2233 658 
Q 2503 941 2684 1491 
L 2728 1625 
z
" transform="scale(0.015625)"/>
      <path id="SegoeUI-20" transform="scale(0.015625)"/>
      <path id="SegoeUI-3d" d="M 3663 2325 
L 725 2325 
L 725 2738 
L 3663 2738 
L 3663 2325 
z
M 3663 994 
L 725 994 
L 725 1406 
L 3663 1406 
L 3663 994 
z
" transform="scale(0.015625)"/>
      <path id="SegoeUI-33" d="M 2978 1269 
Q 2978 966 2864 717 
Q 2750 469 2542 292 
Q 2334 116 2043 19 
Q 1753 -78 1403 -78 
Q 763 -78 384 166 
L 384 716 
Q 838 359 1422 359 
Q 1656 359 1845 418 
Q 2034 478 2170 590 
Q 2306 703 2379 862 
Q 2453 1022 2453 1222 
Q 2453 2100 1203 2100 
L 831 2100 
L 831 2534 
L 1184 2534 
Q 2291 2534 2291 3359 
Q 2291 4122 1447 4122 
Q 972 4122 556 3803 
L 556 4300 
Q 984 4556 1575 4556 
Q 1856 4556 2084 4478 
Q 2313 4400 2475 4259 
Q 2638 4119 2727 3922 
Q 2816 3725 2816 3488 
Q 2816 2603 1922 2350 
L 1922 2338 
Q 2150 2313 2344 2227 
Q 2538 2141 2678 2003 
Q 2819 1866 2898 1680 
Q 2978 1494 2978 1269 
z
" transform="scale(0.015625)"/>
      <path id="SegoeUI-35" d="M 3028 1369 
Q 3028 1041 2915 775 
Q 2803 509 2595 318 
Q 2388 128 2094 25 
Q 1800 -78 1441 -78 
Q 816 -78 513 109 
L 513 653 
Q 969 359 1447 359 
Q 1691 359 1886 431 
Q 2081 503 2218 631 
Q 2356 759 2429 940 
Q 2503 1122 2503 1338 
Q 2503 1775 2209 2023 
Q 1916 2272 1356 2272 
Q 1266 2272 1166 2269 
Q 1066 2266 966 2261 
Q 866 2256 770 2250 
Q 675 2244 597 2234 
L 750 4481 
L 2822 4481 
L 2822 4019 
L 1194 4019 
L 1103 2703 
Q 1203 2709 1315 2714 
Q 1428 2719 1516 2719 
Q 1872 2719 2153 2625 
Q 2434 2531 2629 2357 
Q 2825 2184 2926 1932 
Q 3028 1681 3028 1369 
z
" transform="scale(0.015625)"/>
      <path id="SegoeUI-b0" d="M 1203 2803 
Q 844 2803 591 3058 
Q 338 3313 338 3675 
Q 338 4034 588 4282 
Q 838 4531 1197 4531 
Q 1559 4531 1814 4281 
Q 2069 4031 2069 3675 
Q 2069 3313 1816 3058 
Q 1563 2803 1203 2803 
z
M 1203 4166 
Q 1000 4166 856 4022 
Q 713 3878 713 3675 
Q 713 3466 853 3317 
Q 994 3169 1197 3169 
Q 1400 3169 1547 3319 
Q 1694 3469 1694 3675 
Q 1694 3881 1550 4023 
Q 1406 4166 1203 4166 
z
" transform="scale(0.015625)"/>
      <path id="SegoeUI-2c" d="M 988 713 
L 488 -825 
L 122 -825 
L 488 713 
L 988 713 
z
" transform="scale(0.015625)"/>
      <path id="SegoeUI-3b2" d="M 1028 144 
L 1028 -1503 
L 522 -1503 
L 522 3484 
Q 522 4081 865 4434 
Q 1209 4788 1788 4788 
Q 2328 4788 2639 4505 
Q 2950 4222 2950 3722 
Q 2950 3347 2711 3020 
Q 2472 2694 2091 2572 
L 2091 2559 
Q 2656 2469 2961 2133 
Q 3266 1797 3266 1278 
Q 3266 675 2887 298 
Q 2509 -78 1894 -78 
Q 1419 -78 1028 144 
z
M 1553 2316 
L 1553 2725 
Q 1938 2778 2186 3048 
Q 2434 3319 2434 3659 
Q 2434 4350 1778 4350 
Q 1416 4350 1222 4109 
Q 1028 3869 1028 3431 
L 1028 631 
Q 1466 359 1884 359 
Q 2288 359 2514 592 
Q 2741 825 2741 1244 
Q 2741 2191 1553 2316 
z
" transform="scale(0.015625)"/>
     </defs>
     <use xlink:href="#SegoeUI-3b1"/>
     <use xlink:href="#SegoeUI-20" x="61.425781"/>
     <use xlink:href="#SegoeUI-3d" x="88.818359"/>
     <use xlink:href="#SegoeUI-20" x="157.226562"/>
     <use xlink:href="#SegoeUI-33" x="184.619141"/>
     <use xlink:href="#SegoeUI-35" x="238.525391"/>
     <use xlink:href="#SegoeUI-b0" x="292.431641"/>
     <use xlink:href="#SegoeUI-2c" x="330.126953"/>
     <use xlink:href="#SegoeUI-20" x="351.806641"/>
     <use xlink:href="#SegoeUI-3b2" x="379.199219"/>
     <use xlink:href="#SegoeUI-20" x="433.984375"/>
     <use xlink:href="#SegoeUI-3d" x="461.376953"/>
     <use xlink:href="#SegoeUI-20" x="529.785156"/>
     <use xlink:href="#SegoeUI-35" x="557.177734"/>
     <use xlink:href="#SegoeUI-35" x="611.083984"/>
     <use xlink:href="#SegoeUI-b0" x="664.990234"/>
    </g>
   </g>
  </g>
  <g id="axes_2">
   <g id="line2d_4">
    <path d="M 689.487456 247.901724 
L 689.459771 246.368528 
L 689.376752 244.83733 
L 689.238507 243.310128 
L 689.045216 241.788913 
L 688.797132 240.275667 
L 688.494578 238.772365 
L 688.137949 237.280965 
L 687.727708 235.803413 
L 687.264392 234.341634 
L 686.748604 232.897536 
L 686.181017 231.473 
L 685.562371 230.069884 
L 684.893472 228.690017 
L 684.175193 227.335199 
L 683.40847 226.007195 
L 682.594303 224.707738 
L 681.733752 223.438521 
L 680.827941 222.2012 
L 679.87805 220.997387 
L 678.885318 219.828653 
L 677.851039 218.69652 
L 676.776562 217.602465 
L 675.663286 216.547915 
L 674.512665 215.534244 
L 673.326198 214.562774 
L 672.105432 213.634772 
L 670.851959 212.751447 
L 669.567413 211.913952 
L 668.253468 211.123378 
" clip-path="url(#pc999ee0a7b)" style="fill: none; stroke: #39c5bb; stroke-width: 2; stroke-linecap: square"/>
   </g>
   <g id="line2d_5">
    <path d="M 664.00667 218.479047 
L 661.839314 217.329988 
L 659.594695 216.340315 
L 657.284514 215.515189 
L 654.920815 214.858912 
L 652.515923 214.374904 
L 650.082375 214.06569 
L 647.632859 213.932881 
L 645.180144 213.97717 
L 642.737019 214.198325 
L 640.316221 214.595195 
L 637.93037 215.16571 
L 635.591906 215.906895 
L 633.31302 216.814886 
L 631.105593 217.884949 
L 628.981134 219.111506 
L 626.950718 220.488162 
L 625.024932 222.00774 
L 623.213815 223.662317 
L 621.526809 225.443267 
L 619.972711 227.341305 
L 618.559622 229.346535 
L 617.294909 231.448504 
L 616.185167 233.636252 
L 615.236181 235.898373 
L 614.452897 238.223075 
L 613.839401 240.598236 
L 613.398891 243.011475 
L 613.133663 245.450209 
L 613.045099 247.901724 
" clip-path="url(#pc999ee0a7b)" style="fill: none; stroke: #e12885; stroke-width: 2; stroke-linecap: square"/>
   </g>
   <g id="patch_5">
    <path d="M 481.382106 247.901724 
Q 647.017627 247.901724 812.653148 247.901724 
" style="fill: none; stroke: #374151; stroke-width: 2; stroke-linecap: round"/>
    <path d="M 485.382106 249.901724 
L 481.382106 247.901724 
L 485.382106 245.901724 
" style="fill: none; stroke: #374151; stroke-width: 2; stroke-linecap: round"/>
    <path d="M 808.653148 245.901724 
L 812.653148 247.901724 
L 808.653148 249.901724 
" style="fill: none; stroke: #374151; stroke-width: 2; stroke-linecap: round"/>
   </g>
   <g id="patch_6">
    <path d="M 648.018711 246.171005 
Q 689.48693 174.345943 729.837115 104.457373 
" style="fill: none; stroke: #1f2937; stroke-width: 2; stroke-linecap: round"/>
    <path d="M 726.105064 106.921475 
L 729.837115 104.457373 
L 729.569165 108.921475 
" style="fill: none; stroke: #1f2937; stroke-width: 2; stroke-linecap: round"/>
   </g>
   <g id="text_6">
    <!-- α -->
    <g style="fill: #39c5bb" transform="translate(697.981051 222.420938) scale(0.14 -0.14)">
     <use xlink:href="#SegoeUI-Bold-3b1"/>
    </g>
   </g>
   <g id="text_7">
    <!-- β -->
    <g style="fill: #e12885" transform="translate(604.551504 213.927343) scale(0.14 -0.14)">
     <use xlink:href="#SegoeUI-Bold-3b2"/>
    </g>
   </g>
   <g id="text_8">
    <!-- α + β = 180° -->
    <g style="fill: #2c2f33" transform="translate(611.72823 273.38251) scale(0.12 -0.12)">
     <defs>
      <path id="SegoeUI-Bold-31" d="M 2600 4581 
L 2600 0 
L 1616 0 
L 1616 3469 
Q 1534 3397 1423 3333 
Q 1313 3269 1188 3217 
Q 1063 3166 928 3130 
Q 794 3094 663 3078 
L 663 3909 
Q 1047 4022 1387 4197 
Q 1728 4372 2003 4581 
L 2600 4581 
z
" transform="scale(0.015625)"/>
      <path id="SegoeUI-Bold-38" d="M 250 1206 
Q 250 1394 304 1567 
Q 359 1741 468 1889 
Q 578 2038 742 2155 
Q 906 2272 1128 2347 
Q 788 2516 600 2780 
Q 413 3044 413 3366 
Q 413 3622 520 3840 
Q 628 4059 818 4218 
Q 1009 4378 1273 4467 
Q 1538 4556 1850 4556 
Q 2169 4556 2434 4467 
Q 2700 4378 2892 4220 
Q 3084 4063 3190 3847 
Q 3297 3631 3297 3378 
Q 3297 3059 3097 2798 
Q 2897 2538 2544 2369 
Q 2763 2294 2928 2176 
Q 3094 2059 3206 1909 
Q 3319 1759 3375 1582 
Q 3431 1406 3431 1216 
Q 3431 928 3315 692 
Q 3200 456 2989 286 
Q 2778 116 2486 22 
Q 2194 -72 1841 -72 
Q 1494 -72 1201 20 
Q 909 113 698 281 
Q 488 450 369 686 
Q 250 922 250 1206 
z
M 1184 1291 
Q 1184 1138 1231 1016 
Q 1278 894 1365 809 
Q 1453 725 1573 679 
Q 1694 634 1844 634 
Q 1988 634 2108 681 
Q 2228 728 2315 812 
Q 2403 897 2453 1019 
Q 2503 1141 2503 1291 
Q 2503 1425 2456 1547 
Q 2409 1669 2321 1758 
Q 2234 1847 2114 1900 
Q 1994 1953 1844 1953 
Q 1703 1953 1581 1904 
Q 1459 1856 1371 1767 
Q 1284 1678 1234 1556 
Q 1184 1434 1184 1291 
z
M 1322 3275 
Q 1322 3156 1364 3051 
Q 1406 2947 1478 2870 
Q 1550 2794 1648 2750 
Q 1747 2706 1856 2706 
Q 1969 2706 2066 2750 
Q 2163 2794 2236 2872 
Q 2309 2950 2351 3053 
Q 2394 3156 2394 3275 
Q 2394 3397 2353 3501 
Q 2313 3606 2239 3682 
Q 2166 3759 2067 3803 
Q 1969 3847 1856 3847 
Q 1738 3847 1639 3801 
Q 1541 3756 1470 3679 
Q 1400 3603 1361 3498 
Q 1322 3394 1322 3275 
z
" transform="scale(0.015625)"/>
     </defs>
     <use xlink:href="#SegoeUI-Bold-3b1"/>
     <use xlink:href="#SegoeUI-Bold-20" x="63.671875"/>
     <use xlink:href="#SegoeUI-Bold-2b" x="91.259766"/>
     <use xlink:href="#SegoeUI-Bold-20" x="161.962891"/>
     <use xlink:href="#SegoeUI-Bold-3b2" x="189.550781"/>
     <use xlink:href="#SegoeUI-Bold-20" x="251.757812"/>
     <use xlink:href="#SegoeUI-Bold-3d" x="279.345703"/>
     <use xlink:href="#SegoeUI-Bold-20" x="350.048828"/>
     <use xlink:href="#SegoeUI-Bold-31" x="377.636719"/>
     <use xlink:href="#SegoeUI-Bold-38" x="435.15625"/>
     <use xlink:href="#SegoeUI-Bold-30" x="492.675781"/>
     <use xlink:href="#SegoeUI-Bold-b0" x="550.195312"/>
    </g>
   </g>
   <g id="text_9">
    <!-- Ángulos Suplementarios -->
    <g style="fill: #1f2937" transform="translate(572.387293 95.01701) scale(0.13 -0.13)">
     <defs>
      <path id="SegoeUI-Bold-53" d="M 306 172 
L 306 1172 
Q 578 944 897 830 
Q 1216 716 1541 716 
Q 1731 716 1873 750 
Q 2016 784 2111 845 
Q 2206 906 2253 989 
Q 2300 1072 2300 1169 
Q 2300 1300 2225 1403 
Q 2150 1506 2020 1593 
Q 1891 1681 1712 1762 
Q 1534 1844 1328 1928 
Q 803 2147 545 2462 
Q 288 2778 288 3225 
Q 288 3575 428 3826 
Q 569 4078 811 4240 
Q 1053 4403 1372 4479 
Q 1691 4556 2047 4556 
Q 2397 4556 2667 4514 
Q 2938 4472 3166 4384 
L 3166 3450 
Q 3053 3528 2920 3587 
Q 2788 3647 2647 3686 
Q 2506 3725 2367 3744 
Q 2228 3763 2103 3763 
Q 1931 3763 1790 3730 
Q 1650 3697 1553 3637 
Q 1456 3578 1403 3495 
Q 1350 3413 1350 3309 
Q 1350 3197 1409 3108 
Q 1469 3019 1578 2939 
Q 1688 2859 1844 2782 
Q 2000 2706 2197 2625 
Q 2466 2513 2680 2386 
Q 2894 2259 3047 2100 
Q 3200 1941 3281 1736 
Q 3363 1531 3363 1259 
Q 3363 884 3220 629 
Q 3078 375 2834 217 
Q 2591 59 2267 -9 
Q 1944 -78 1584 -78 
Q 1216 -78 883 -15 
Q 550 47 306 172 
z
" transform="scale(0.015625)"/>
     </defs>
     <use xlink:href="#SegoeUI-Bold-c1"/>
     <use xlink:href="#SegoeUI-Bold-6e" x="70.3125"/>
     <use xlink:href="#SegoeUI-Bold-67" x="130.810547"/>
     <use xlink:href="#SegoeUI-Bold-75" x="192.724609"/>
     <use xlink:href="#SegoeUI-Bold-6c" x="253.222656"/>
     <use xlink:href="#SegoeUI-Bold-6f" x="281.640625"/>
     <use xlink:href="#SegoeUI-Bold-73" x="342.773438"/>
     <use xlink:href="#SegoeUI-Bold-20" x="386.767578"/>
     <use xlink:href="#SegoeUI-Bold-53" x="414.355469"/>
     <use xlink:href="#SegoeUI-Bold-75" x="470.410156"/>
     <use xlink:href="#SegoeUI-Bold-70" x="530.908203"/>
     <use xlink:href="#SegoeUI-Bold-6c" x="592.919922"/>
     <use xlink:href="#SegoeUI-Bold-65" x="621.337891"/>
     <use xlink:href="#SegoeUI-Bold-6d" x="675.439453"/>
     <use xlink:href="#SegoeUI-Bold-65" x="767.041016"/>
     <use xlink:href="#SegoeUI-Bold-6e" x="821.142578"/>
     <use xlink:href="#SegoeUI-Bold-74" x="881.640625"/>
     <use xlink:href="#SegoeUI-Bold-61" x="920.556641"/>
     <use xlink:href="#SegoeUI-Bold-72" x="974.365234"/>
     <use xlink:href="#SegoeUI-Bold-69" x="1014.535156"/>
     <use xlink:href="#SegoeUI-Bold-6f" x="1042.953125"/>
     <use xlink:href="#SegoeUI-Bold-73" x="1104.085938"/>
    </g>
   </g>
   <g id="text_10">
    <!-- α = 60°, β = 120° -->
    <g style="fill: #6b7280" transform="translate(605.406824 120.497796) scale(0.11 -0.11)">
     <defs>
      <path id="SegoeUI-36" d="M 3194 1422 
Q 3194 1094 3087 819 
Q 2981 544 2793 344 
Q 2606 144 2347 33 
Q 2088 -78 1784 -78 
Q 1447 -78 1180 62 
Q 913 203 727 467 
Q 541 731 444 1112 
Q 347 1494 347 1972 
Q 347 2556 476 3032 
Q 606 3509 845 3848 
Q 1084 4188 1421 4372 
Q 1759 4556 2175 4556 
Q 2638 4556 2919 4428 
L 2919 3944 
Q 2572 4122 2188 4122 
Q 1888 4122 1647 3987 
Q 1406 3853 1234 3608 
Q 1063 3363 970 3016 
Q 878 2669 878 2244 
L 891 2244 
Q 1200 2803 1913 2803 
Q 2206 2803 2442 2703 
Q 2678 2603 2845 2420 
Q 3013 2238 3103 1984 
Q 3194 1731 3194 1422 
z
M 2669 1356 
Q 2669 1591 2609 1778 
Q 2550 1966 2439 2097 
Q 2328 2228 2165 2298 
Q 2003 2369 1797 2369 
Q 1606 2369 1443 2297 
Q 1281 2225 1162 2101 
Q 1044 1978 976 1814 
Q 909 1650 909 1466 
Q 909 1234 975 1032 
Q 1041 831 1159 681 
Q 1278 531 1442 445 
Q 1606 359 1806 359 
Q 2000 359 2159 432 
Q 2319 506 2431 637 
Q 2544 769 2606 951 
Q 2669 1134 2669 1356 
z
" transform="scale(0.015625)"/>
      <path id="SegoeUI-30" d="M 3188 2259 
Q 3188 1697 3086 1262 
Q 2984 828 2792 529 
Q 2600 231 2320 76 
Q 2041 -78 1684 -78 
Q 1347 -78 1083 70 
Q 819 219 637 503 
Q 456 788 362 1202 
Q 269 1616 269 2150 
Q 269 2738 367 3188 
Q 466 3638 656 3942 
Q 847 4247 1130 4401 
Q 1413 4556 1778 4556 
Q 3188 4556 3188 2259 
z
M 2663 2209 
Q 2663 4122 1753 4122 
Q 794 4122 794 2175 
Q 794 359 1734 359 
Q 2663 359 2663 2209 
z
" transform="scale(0.015625)"/>
      <path id="SegoeUI-31" d="M 2263 0 
L 1750 0 
L 1750 3872 
Q 1691 3813 1577 3736 
Q 1463 3659 1320 3584 
Q 1178 3509 1020 3443 
Q 863 3378 713 3341 
L 713 3859 
Q 881 3906 1070 3986 
Q 1259 4066 1442 4164 
Q 1625 4263 1787 4370 
Q 1950 4478 2069 4581 
L 2263 4581 
L 2263 0 
z
" transform="scale(0.015625)"/>
      <path id="SegoeUI-32" d="M 2413 3306 
Q 2413 3513 2348 3666 
Q 2284 3819 2173 3920 
Q 2063 4022 1913 4072 
Q 1763 4122 1588 4122 
Q 1438 4122 1294 4081 
Q 1150 4041 1014 3969 
Q 878 3897 751 3797 
Q 625 3697 516 3575 
L 516 4125 
Q 731 4334 998 4445 
Q 1266 4556 1650 4556 
Q 1925 4556 2159 4476 
Q 2394 4397 2566 4244 
Q 2738 4091 2836 3866 
Q 2934 3641 2934 3350 
Q 2934 3084 2873 2868 
Q 2813 2653 2689 2462 
Q 2566 2272 2378 2097 
Q 2191 1922 1938 1741 
Q 1622 1516 1417 1356 
Q 1213 1197 1092 1058 
Q 972 919 923 780 
Q 875 641 875 459 
L 3106 459 
L 3106 0 
L 341 0 
L 341 222 
Q 341 509 403 728 
Q 466 947 609 1144 
Q 753 1341 986 1537 
Q 1219 1734 1556 1981 
Q 1800 2156 1964 2315 
Q 2128 2475 2228 2634 
Q 2328 2794 2370 2958 
Q 2413 3122 2413 3306 
z
" transform="scale(0.015625)"/>
     </defs>
     <use xlink:href="#SegoeUI-3b1"/>
     <use xlink:href="#SegoeUI-20" x="61.425781"/>
     <use xlink:href="#SegoeUI-3d" x="88.818359"/>
     <use xlink:href="#SegoeUI-20" x="157.226562"/>
     <use xlink:href="#SegoeUI-36" x="184.619141"/>
     <use xlink:href="#SegoeUI-30" x="238.525391"/>
     <use xlink:href="#SegoeUI-b0" x="292.431641"/>
     <use xlink:href="#SegoeUI-2c" x="330.126953"/>
     <use xlink:href="#SegoeUI-20" x="351.806641"/>
     <use xlink:href="#SegoeUI-3b2" x="379.199219"/>
     <use xlink:href="#SegoeUI-20" x="433.984375"/>
     <use xlink:href="#SegoeUI-3d" x="461.376953"/>
     <use xlink:href="#SegoeUI-20" x="529.785156"/>
     <use xlink:href="#SegoeUI-31" x="557.177734"/>
     <use xlink:href="#SegoeUI-32" x="611.083984"/>
     <use xlink:href="#SegoeUI-30" x="664.990234"/>
     <use xlink:href="#SegoeUI-b0" x="718.896484"/>
    </g>
   </g>
  </g>
 </g>
 <defs>
  <clipPath id="pcf937c9f08">
   <rect x="7.2" y="7.2" width="412.99944" height="353.99952"/>
  </clipPath>
  <clipPath id="pc999ee0a7b">
   <rect x="434.6796" y="78.02982" width="424.67976" height="212.33988"/>
  </clipPath>
 </defs>
</svg>
