<?xml version="1.0" encoding="utf-8" standalone="no"?>
<!DOCTYPE svg PUBLIC "-//W3C//DTD SVG 1.1//EN"
  "http://www.w3.org/Graphics/SVG/1.1/DTD/svg11.dtd">
<svg xmlns:xlink="http://www.w3.org/1999/xlink" width="1016.39952pt" height="712.46426pt" viewBox="0 0 1016.39952 712.46426" xmlns="http://www.w3.org/2000/svg" version="1.1">
 <metadata>
  <rdf:RDF xmlns:dc="http://purl.org/dc/elements/1.1/" xmlns:cc="http://creativecommons.org/ns#" xmlns:rdf="http://www.w3.org/1999/02/22-rdf-syntax-ns#">
   <cc:Work>
    <dc:type rdf:resource="http://purl.org/dc/dcmitype/StillImage"/>
    <dc:date>2026-04-11T16:11:37.606194</dc:date>
    <dc:format>image/svg+xml</dc:format>
    <dc:creator>
     <cc:Agent>
      <dc:title>Matplotlib v3.8.4, https://matplotlib.org/</dc:title>
     </cc:Agent>
    </dc:creator>
   </cc:Work>
  </rdf:RDF>
 </metadata>
 <defs>
  <style type="text/css">*{stroke-linejoin: round; stroke-linecap: butt}</style>
 </defs>
 <g id="figure_1">
  <g id="patch_1">
   <path d="M 0 712.46426 
L 1016.39952 712.46426 
L 1016.39952 0 
L 0 0 
z
" style="fill: #ffffff"/>
  </g>
  <g id="axes_1">
   <g id="patch_2">
    <path d="M 58.687475 252.821821 
L 213.1499 252.821821 
L 213.1499 98.359396 
L 58.687475 98.359396 
z
" clip-path="url(#p6d25178f1f)" style="fill: #39c5bb; opacity: 0.3; stroke: #39c5bb; stroke-width: 2; stroke-linejoin: miter"/>
   </g>
   <g id="text_1">
    <!-- l -->
    <g style="fill: #39c5bb" transform="translate(134.213375 283.714306) scale(0.12 -0.12)">
     <defs>
      <path id="SegoeUI-Bold-6c" d="M 1403 0 
L 416 0 
L 416 4738 
L 1403 4738 
L 1403 0 
z
" transform="scale(0.015625)"/>
     </defs>
     <use xlink:href="#SegoeUI-Bold-6c"/>
    </g>
   </g>
   <g id="text_2">
    <!-- l -->
    <g style="fill: #39c5bb" transform="translate(31.238425 175.590608) scale(0.12 -0.12)">
     <use xlink:href="#SegoeUI-Bold-6c"/>
    </g>
   </g>
   <g id="text_3">
    <!-- $A = l^2$ -->
    <g style="fill: #1f2937" transform="translate(118.108688 324.904286) scale(0.13 -0.13)">
     <defs>
      <path id="DejaVuSans-Oblique-41" d="M 2356 4666 
L 3072 4666 
L 3938 0 
L 3278 0 
L 3084 1197 
L 984 1197 
L 325 0 
L -341 0 
L 2356 4666 
z
M 2584 4044 
L 1275 1722 
L 2988 1722 
L 2584 4044 
z
" transform="scale(0.015625)"/>
      <path id="DejaVuSans-3d" d="M 678 2906 
L 4684 2906 
L 4684 2381 
L 678 2381 
L 678 2906 
z
M 678 1631 
L 4684 1631 
L 4684 1100 
L 678 1100 
L 678 1631 
z
" transform="scale(0.015625)"/>
      <path id="DejaVuSans-Oblique-6c" d="M 1172 4863 
L 1747 4863 
L 800 0 
L 225 0 
L 1172 4863 
z
" transform="scale(0.015625)"/>
      <path id="DejaVuSans-32" d="M 1228 531 
L 3431 531 
L 3431 0 
L 469 0 
L 469 531 
Q 828 903 1448 1529 
Q 2069 2156 2228 2338 
Q 2531 2678 2651 2914 
Q 2772 3150 2772 3378 
Q 2772 3750 2511 3984 
Q 2250 4219 1831 4219 
Q 1534 4219 1204 4116 
Q 875 4013 500 3803 
L 500 4441 
Q 881 4594 1212 4672 
Q 1544 4750 1819 4750 
Q 2544 4750 2975 4387 
Q 3406 4025 3406 3419 
Q 3406 3131 3298 2873 
Q 3191 2616 2906 2266 
Q 2828 2175 2409 1742 
Q 1991 1309 1228 531 
z
" transform="scale(0.015625)"/>
     </defs>
     <use xlink:href="#DejaVuSans-Oblique-41" transform="translate(0 0.765625)"/>
     <use xlink:href="#DejaVuSans-3d" transform="translate(87.890625 0.765625)"/>
     <use xlink:href="#DejaVuSans-Oblique-6c" transform="translate(191.162109 0.765625)"/>
     <use xlink:href="#DejaVuSans-32" transform="translate(226.393021 39.046875) scale(0.7)"/>
    </g>
   </g>
   <g id="text_4">
    <!-- CUADRADO -->
    <g style="fill: #2c2f33" transform="translate(141.067967 36.871921) scale(0.11 -0.11)">
     <defs>
      <path id="SegoeUI-Bold-43" d="M 3725 159 
Q 3234 -78 2444 -78 
Q 1413 -78 822 528 
Q 231 1134 231 2144 
Q 231 3219 895 3887 
Q 1559 4556 2619 4556 
Q 3275 4556 3725 4391 
L 3725 3419 
Q 3275 3688 2700 3688 
Q 2069 3688 1681 3291 
Q 1294 2894 1294 2216 
Q 1294 1566 1659 1180 
Q 2025 794 2644 794 
Q 3234 794 3725 1081 
L 3725 159 
z
" transform="scale(0.015625)"/>
      <path id="SegoeUI-Bold-55" d="M 4166 1941 
Q 4166 -78 2284 -78 
Q 459 -78 459 1894 
L 459 4481 
L 1472 4481 
L 1472 1881 
Q 1472 794 2322 794 
Q 3156 794 3156 1844 
L 3156 4481 
L 4166 4481 
L 4166 1941 
z
" transform="scale(0.015625)"/>
      <path id="SegoeUI-Bold-41" d="M 4453 0 
L 3353 0 
L 3034 997 
L 1441 997 
L 1125 0 
L 31 0 
L 1663 4481 
L 2859 4481 
L 4453 0 
z
M 2803 1772 
L 2322 3278 
Q 2269 3447 2247 3681 
L 2222 3681 
Q 2206 3484 2144 3291 
L 1656 1772 
L 2803 1772 
z
" transform="scale(0.015625)"/>
      <path id="SegoeUI-Bold-44" d="M 513 0 
L 513 4481 
L 2100 4481 
Q 4488 4481 4488 2297 
Q 4488 1250 3836 625 
Q 3184 0 2100 0 
L 513 0 
z
M 1522 3659 
L 1522 819 
L 2022 819 
Q 2678 819 3051 1212 
Q 3425 1606 3425 2284 
Q 3425 2925 3054 3292 
Q 2684 3659 2016 3659 
L 1522 3659 
z
" transform="scale(0.015625)"/>
      <path id="SegoeUI-Bold-52" d="M 4272 0 
L 3113 0 
L 2416 1153 
Q 2338 1284 2266 1387 
Q 2194 1491 2120 1564 
Q 2047 1638 1967 1677 
Q 1888 1716 1794 1716 
L 1522 1716 
L 1522 0 
L 513 0 
L 513 4481 
L 2113 4481 
Q 3744 4481 3744 3263 
Q 3744 3028 3672 2829 
Q 3600 2631 3469 2472 
Q 3338 2313 3152 2197 
Q 2966 2081 2738 2016 
L 2738 2003 
Q 2838 1972 2931 1901 
Q 3025 1831 3112 1737 
Q 3200 1644 3279 1536 
Q 3359 1428 3425 1325 
L 4272 0 
z
M 1522 3725 
L 1522 2478 
L 1959 2478 
Q 2284 2478 2481 2666 
Q 2681 2856 2681 3138 
Q 2681 3725 1978 3725 
L 1522 3725 
z
" transform="scale(0.015625)"/>
      <path id="SegoeUI-Bold-4f" d="M 2406 -78 
Q 1444 -78 837 548 
Q 231 1175 231 2181 
Q 231 3244 847 3900 
Q 1463 4556 2478 4556 
Q 3438 4556 4030 3928 
Q 4622 3300 4622 2272 
Q 4622 1216 4008 569 
Q 3394 -78 2406 -78 
z
M 2450 3688 
Q 1919 3688 1606 3289 
Q 1294 2891 1294 2234 
Q 1294 1569 1606 1181 
Q 1919 794 2425 794 
Q 2947 794 3253 1170 
Q 3559 1547 3559 2216 
Q 3559 2913 3262 3300 
Q 2966 3688 2450 3688 
z
" transform="scale(0.015625)"/>
     </defs>
     <use xlink:href="#SegoeUI-Bold-43"/>
     <use xlink:href="#SegoeUI-Bold-55" x="62.402344"/>
     <use xlink:href="#SegoeUI-Bold-41" x="132.466797"/>
     <use xlink:href="#SegoeUI-Bold-44" x="202.779297"/>
     <use xlink:href="#SegoeUI-Bold-52" x="276.509766"/>
     <use xlink:href="#SegoeUI-Bold-41" x="341.792969"/>
     <use xlink:href="#SegoeUI-Bold-44" x="412.105469"/>
     <use xlink:href="#SegoeUI-Bold-4f" x="485.835938"/>
    </g>
   </g>
  </g>
  <g id="axes_2">
   <g id="patch_3">
    <path d="M 394.927315 252.821821 
L 600.877215 252.821821 
L 600.877215 129.251881 
L 394.927315 129.251881 
z
" clip-path="url(#p22e9da6ff3)" style="fill: #e12885; opacity: 0.3; stroke: #e12885; stroke-width: 2; stroke-linejoin: miter"/>
   </g>
   <g id="text_5">
    <!-- b -->
    <g style="fill: #e12885" transform="translate(494.181328 283.714306) scale(0.12 -0.12)">
     <defs>
      <path id="SegoeUI-Bold-62" d="M 1416 372 
L 1403 372 
L 1403 0 
L 416 0 
L 416 4738 
L 1403 4738 
L 1403 2719 
L 1416 2719 
Q 1781 3278 2456 3278 
Q 3075 3278 3409 2853 
Q 3744 2428 3744 1691 
Q 3744 891 3353 406 
Q 2963 -78 2309 -78 
Q 1719 -78 1416 372 
z
M 1388 1722 
L 1388 1394 
Q 1388 1084 1566 881 
Q 1744 678 2022 678 
Q 2359 678 2545 939 
Q 2731 1200 2731 1678 
Q 2731 2075 2561 2298 
Q 2391 2522 2075 2522 
Q 1778 2522 1583 2300 
Q 1388 2078 1388 1722 
z
" transform="scale(0.015625)"/>
     </defs>
     <use xlink:href="#SegoeUI-Bold-62"/>
    </g>
   </g>
   <g id="text_6">
    <!-- h -->
    <g style="fill: #e12885" transform="translate(365.57139 191.036851) scale(0.12 -0.12)">
     <defs>
      <path id="SegoeUI-Bold-68" d="M 3488 0 
L 2503 0 
L 2503 1819 
Q 2503 2522 1991 2522 
Q 1728 2522 1565 2325 
Q 1403 2128 1403 1825 
L 1403 0 
L 416 0 
L 416 4738 
L 1403 4738 
L 1403 2725 
L 1416 2725 
Q 1778 3278 2400 3278 
Q 3488 3278 3488 1966 
L 3488 0 
z
" transform="scale(0.015625)"/>
     </defs>
     <use xlink:href="#SegoeUI-Bold-68"/>
    </g>
   </g>
   <g id="text_7">
    <!-- $A = b \cdot h$ -->
    <g style="fill: #1f2937" transform="translate(472.617265 324.904286) scale(0.13 -0.13)">
     <defs>
      <path id="DejaVuSans-Oblique-62" d="M 3169 2138 
Q 3169 2591 2961 2847 
Q 2753 3103 2388 3103 
Q 2122 3103 1889 2973 
Q 1656 2844 1484 2597 
Q 1303 2338 1198 1995 
Q 1094 1653 1094 1313 
Q 1094 881 1298 636 
Q 1503 391 1863 391 
Q 2134 391 2365 517 
Q 2597 644 2772 891 
Q 2950 1147 3059 1487 
Q 3169 1828 3169 2138 
z
M 1381 2969 
Q 1594 3256 1914 3420 
Q 2234 3584 2584 3584 
Q 3122 3584 3439 3221 
Q 3756 2859 3756 2241 
Q 3756 1734 3570 1259 
Q 3384 784 3041 416 
Q 2816 172 2522 40 
Q 2228 -91 1906 -91 
Q 1566 -91 1316 65 
Q 1066 222 909 531 
L 806 0 
L 231 0 
L 1178 4863 
L 1753 4863 
L 1381 2969 
z
" transform="scale(0.015625)"/>
      <path id="DejaVuSans-22c5" d="M 684 2619 
L 1344 2619 
L 1344 1825 
L 684 1825 
L 684 2619 
z
" transform="scale(0.015625)"/>
      <path id="DejaVuSans-Oblique-68" d="M 3566 2113 
L 3156 0 
L 2578 0 
L 2988 2091 
Q 3016 2238 3031 2350 
Q 3047 2463 3047 2528 
Q 3047 2791 2881 2937 
Q 2716 3084 2419 3084 
Q 1956 3084 1617 2771 
Q 1278 2459 1178 1941 
L 800 0 
L 225 0 
L 1172 4863 
L 1747 4863 
L 1375 2950 
Q 1594 3244 1934 3414 
Q 2275 3584 2650 3584 
Q 3113 3584 3367 3334 
Q 3622 3084 3622 2631 
Q 3622 2519 3608 2391 
Q 3594 2263 3566 2113 
z
" transform="scale(0.015625)"/>
     </defs>
     <use xlink:href="#DejaVuSans-Oblique-41" transform="translate(0 0.015625)"/>
     <use xlink:href="#DejaVuSans-3d" transform="translate(87.890625 0.015625)"/>
     <use xlink:href="#DejaVuSans-Oblique-62" transform="translate(191.162109 0.015625)"/>
     <use xlink:href="#DejaVuSans-22c5" transform="translate(274.121094 0.015625)"/>
     <use xlink:href="#DejaVuSans-Oblique-68" transform="translate(325.390625 0.015625)"/>
    </g>
   </g>
   <g id="text_8">
    <!-- RECTÁNGULO -->
    <g style="fill: #2c2f33" transform="translate(472.412807 36.871921) scale(0.11 -0.11)">
     <defs>
      <path id="SegoeUI-Bold-45" d="M 3200 0 
L 513 0 
L 513 4481 
L 3097 4481 
L 3097 3659 
L 1522 3659 
L 1522 2663 
L 2988 2663 
L 2988 1844 
L 1522 1844 
L 1522 819 
L 3200 819 
L 3200 0 
z
" transform="scale(0.015625)"/>
      <path id="SegoeUI-Bold-54" d="M 3659 3659 
L 2381 3659 
L 2381 0 
L 1369 0 
L 1369 3659 
L 97 3659 
L 97 4481 
L 3659 4481 
L 3659 3659 
z
" transform="scale(0.015625)"/>
      <path id="SegoeUI-Bold-c1" d="M 4453 0 
L 3353 0 
L 3034 997 
L 1441 997 
L 1125 0 
L 31 0 
L 1663 4481 
L 2859 4481 
L 4453 0 
z
M 2803 1772 
L 2322 3278 
Q 2269 3447 2247 3681 
L 2222 3681 
Q 2206 3484 2144 3291 
L 1656 1772 
L 2803 1772 
z
M 3239 5932 
L 2260 4922 
L 1548 4922 
L 2360 5932 
L 3239 5932 
z
" transform="scale(0.015625)"/>
      <path id="SegoeUI-Bold-4e" d="M 4544 0 
L 3525 0 
L 1678 2816 
Q 1516 3063 1453 3188 
L 1441 3188 
Q 1466 2950 1466 2463 
L 1466 0 
L 513 0 
L 513 4481 
L 1600 4481 
L 3378 1753 
Q 3500 1569 3603 1388 
L 3616 1388 
Q 3591 1544 3591 2003 
L 3591 4481 
L 4544 4481 
L 4544 0 
z
" transform="scale(0.015625)"/>
      <path id="SegoeUI-Bold-47" d="M 4191 300 
Q 3534 -78 2559 -78 
Q 1478 -78 854 520 
Q 231 1119 231 2169 
Q 231 3225 912 3890 
Q 1594 4556 2725 4556 
Q 3438 4556 3981 4359 
L 3981 3413 
Q 3463 3713 2713 3713 
Q 2084 3713 1689 3305 
Q 1294 2897 1294 2216 
Q 1294 1525 1648 1147 
Q 2003 769 2606 769 
Q 2969 769 3181 872 
L 3181 1747 
L 2284 1747 
L 2284 2553 
L 4191 2553 
L 4191 300 
z
" transform="scale(0.015625)"/>
      <path id="SegoeUI-Bold-4c" d="M 3181 0 
L 513 0 
L 513 4481 
L 1522 4481 
L 1522 819 
L 3181 819 
L 3181 0 
z
" transform="scale(0.015625)"/>
     </defs>
     <use xlink:href="#SegoeUI-Bold-52"/>
     <use xlink:href="#SegoeUI-Bold-45" x="65.283203"/>
     <use xlink:href="#SegoeUI-Bold-43" x="118.505859"/>
     <use xlink:href="#SegoeUI-Bold-54" x="180.908203"/>
     <use xlink:href="#SegoeUI-Bold-c1" x="233.501953"/>
     <use xlink:href="#SegoeUI-Bold-4e" x="303.814453"/>
     <use xlink:href="#SegoeUI-Bold-47" x="382.818359"/>
     <use xlink:href="#SegoeUI-Bold-55" x="453.912109"/>
     <use xlink:href="#SegoeUI-Bold-4c" x="526.226562"/>
     <use xlink:href="#SegoeUI-Bold-4f" x="574.849609"/>
    </g>
   </g>
  </g>
  <g id="axes_3">
   <g id="patch_4">
    <path d="M 731.167155 252.821821 
L 937.117055 252.821821 
L 813.547115 108.656891 
z
" clip-path="url(#p7006d27a05)" style="fill: #1f2937; opacity: 0.3; stroke: #1f2937; stroke-width: 2; stroke-linejoin: miter"/>
   </g>
   <g id="line2d_1">
    <path d="M 813.547115 252.821821 
L 813.547115 108.656891 
" clip-path="url(#p7006d27a05)" style="fill: none; stroke-dasharray: 5.55,2.4; stroke-dashoffset: 0; stroke: #4b5563; stroke-width: 1.5"/>
   </g>
   <g id="line2d_2">
    <path d="M 813.547115 252.821821 
L 828.993358 252.821821 
" clip-path="url(#p7006d27a05)" style="fill: none; stroke: #4b5563; stroke-width: 1.5; stroke-linecap: square"/>
   </g>
   <g id="line2d_3">
    <path d="M 828.993358 252.821821 
L 828.993358 237.375578 
" clip-path="url(#p7006d27a05)" style="fill: none; stroke: #4b5563; stroke-linecap: square"/>
   </g>
   <g id="text_9">
    <!-- b -->
    <g style="fill: #1f2937" transform="translate(830.421168 283.714306) scale(0.12 -0.12)">
     <use xlink:href="#SegoeUI-Bold-62"/>
    </g>
   </g>
   <g id="text_10">
    <!-- h -->
    <g style="fill: #4b5563" transform="translate(784.19119 180.739356) scale(0.12 -0.12)">
     <use xlink:href="#SegoeUI-Bold-68"/>
    </g>
   </g>
   <g id="text_11">
    <!-- $A = \frac{b \cdot h}{2}$ -->
    <g style="fill: #1f2937" transform="translate(811.912105 324.904286) scale(0.13 -0.13)">
     <use xlink:href="#DejaVuSans-Oblique-41" transform="translate(0 0.01875)"/>
     <use xlink:href="#DejaVuSans-3d" transform="translate(87.890625 0.01875)"/>
     <use xlink:href="#DejaVuSans-Oblique-62" transform="translate(191.162109 44.810938) scale(0.7)"/>
     <use xlink:href="#DejaVuSans-22c5" transform="translate(249.233398 44.810938) scale(0.7)"/>
     <use xlink:href="#DejaVuSans-Oblique-68" transform="translate(285.12207 44.810938) scale(0.7)"/>
     <use xlink:href="#DejaVuSans-32" transform="translate(238.162109 -39.3875) scale(0.7)"/>
     <path d="M 191.162109 18.815625 
L 191.162109 25.065625 
L 329.487305 25.065625 
L 329.487305 18.815625 
L 191.162109 18.815625 
z
"/>
    </g>
   </g>
   <g id="text_12">
    <!-- TRIÁNGULO -->
    <g style="fill: #2c2f33" transform="translate(812.939209 36.871921) scale(0.11 -0.11)">
     <defs>
      <path id="SegoeUI-Bold-49" d="M 1522 0 
L 513 0 
L 513 4481 
L 1522 4481 
L 1522 0 
z
" transform="scale(0.015625)"/>
     </defs>
     <use xlink:href="#SegoeUI-Bold-54"/>
     <use xlink:href="#SegoeUI-Bold-52" x="58.59375"/>
     <use xlink:href="#SegoeUI-Bold-49" x="123.876953"/>
     <use xlink:href="#SegoeUI-Bold-c1" x="155.566406"/>
     <use xlink:href="#SegoeUI-Bold-4e" x="225.878906"/>
     <use xlink:href="#SegoeUI-Bold-47" x="304.882812"/>
     <use xlink:href="#SegoeUI-Bold-55" x="375.976562"/>
     <use xlink:href="#SegoeUI-Bold-4c" x="448.291016"/>
     <use xlink:href="#SegoeUI-Bold-4f" x="496.914062"/>
    </g>
   </g>
  </g>
  <g id="axes_4">
   <g id="patch_5">
    <path d="M 99.877455 602.28931 
L 285.232365 602.28931 
L 326.422345 468.421875 
L 141.067435 468.421875 
z
" clip-path="url(#pe456d1cf1d)" style="fill: #4b5563; opacity: 0.3; stroke: #4b5563; stroke-width: 2; stroke-linejoin: miter"/>
   </g>
   <g id="line2d_4">
    <path d="M 213.1499 602.28931 
L 213.1499 468.421875 
" clip-path="url(#pe456d1cf1d)" style="fill: none; stroke-dasharray: 5.55,2.4; stroke-dashoffset: 0; stroke: #39c5bb; stroke-width: 1.5"/>
   </g>
   <g id="line2d_5">
    <path d="M 213.1499 602.28931 
L 228.596143 602.28931 
" clip-path="url(#pe456d1cf1d)" style="fill: none; stroke: #39c5bb; stroke-width: 1.5; stroke-linecap: square"/>
   </g>
   <g id="text_13">
    <!-- b -->
    <g style="fill: #4b5563" transform="translate(188.833973 633.181795) scale(0.12 -0.12)">
     <use xlink:href="#SegoeUI-Bold-62"/>
    </g>
   </g>
   <g id="text_14">
    <!-- h -->
    <g style="fill: #39c5bb" transform="translate(183.793975 535.355592) scale(0.12 -0.12)">
     <use xlink:href="#SegoeUI-Bold-68"/>
    </g>
   </g>
   <g id="text_15">
    <!-- $A = b \cdot h$ -->
    <g style="fill: #1f2937" transform="translate(187.8649 674.371775) scale(0.13 -0.13)">
     <use xlink:href="#DejaVuSans-Oblique-41" transform="translate(0 0.015625)"/>
     <use xlink:href="#DejaVuSans-3d" transform="translate(87.890625 0.015625)"/>
     <use xlink:href="#DejaVuSans-Oblique-62" transform="translate(191.162109 0.015625)"/>
     <use xlink:href="#DejaVuSans-22c5" transform="translate(274.121094 0.015625)"/>
     <use xlink:href="#DejaVuSans-Oblique-68" transform="translate(325.390625 0.015625)"/>
    </g>
   </g>
   <g id="text_16">
    <!-- PARALELOGRAMO -->
    <g style="fill: #2c2f33" transform="translate(124.194139 386.33941) scale(0.11 -0.11)">
     <defs>
      <path id="SegoeUI-Bold-50" d="M 1522 1544 
L 1522 0 
L 513 0 
L 513 4481 
L 2094 4481 
Q 3788 4481 3788 3053 
Q 3788 2378 3302 1961 
Q 2816 1544 2003 1544 
L 1522 1544 
z
M 1522 3706 
L 1522 2309 
L 1919 2309 
Q 2725 2309 2725 3016 
Q 2725 3706 1919 3706 
L 1522 3706 
z
" transform="scale(0.015625)"/>
      <path id="SegoeUI-Bold-4d" d="M 5619 0 
L 4622 0 
L 4622 2681 
Q 4622 3116 4659 3641 
L 4634 3641 
Q 4556 3228 4494 3047 
L 3444 0 
L 2619 0 
L 1550 3016 
Q 1506 3138 1409 3641 
L 1381 3641 
Q 1422 2978 1422 2478 
L 1422 0 
L 513 0 
L 513 4481 
L 1991 4481 
L 2906 1825 
Q 3016 1506 3066 1184 
L 3084 1184 
Q 3169 1556 3263 1831 
L 4178 4481 
L 5619 4481 
L 5619 0 
z
" transform="scale(0.015625)"/>
     </defs>
     <use xlink:href="#SegoeUI-Bold-50"/>
     <use xlink:href="#SegoeUI-Bold-41" x="55.550781"/>
     <use xlink:href="#SegoeUI-Bold-52" x="125.863281"/>
     <use xlink:href="#SegoeUI-Bold-41" x="191.146484"/>
     <use xlink:href="#SegoeUI-Bold-4c" x="261.458984"/>
     <use xlink:href="#SegoeUI-Bold-45" x="312.582031"/>
     <use xlink:href="#SegoeUI-Bold-4c" x="365.804688"/>
     <use xlink:href="#SegoeUI-Bold-4f" x="414.427734"/>
     <use xlink:href="#SegoeUI-Bold-47" x="490.257812"/>
     <use xlink:href="#SegoeUI-Bold-52" x="561.351562"/>
     <use xlink:href="#SegoeUI-Bold-41" x="626.634766"/>
     <use xlink:href="#SegoeUI-Bold-4d" x="696.947266"/>
     <use xlink:href="#SegoeUI-Bold-4f" x="792.650391"/>
    </g>
   </g>
  </g>
  <g id="axes_5">
   <g id="patch_6">
    <path d="M 425.8198 602.28931 
L 631.7697 602.28931 
L 580.282225 478.71937 
L 467.00978 478.71937 
z
" clip-path="url(#pda6c4f1a2b)" style="fill: #f59e0b; opacity: 0.3; stroke: #f59e0b; stroke-width: 2; stroke-linejoin: miter"/>
   </g>
   <g id="line2d_6">
    <path d="M 528.79475 602.28931 
L 528.79475 478.71937 
" clip-path="url(#pda6c4f1a2b)" style="fill: none; stroke-dasharray: 5.55,2.4; stroke-dashoffset: 0; stroke: #39c5bb; stroke-width: 1.5"/>
   </g>
   <g id="text_17">
    <!-- B -->
    <g style="fill: #f59e0b" transform="translate(524.948188 633.181795) scale(0.12 -0.12)">
     <defs>
      <path id="SegoeUI-Bold-42" d="M 513 0 
L 513 4481 
L 2144 4481 
Q 2894 4481 3297 4206 
Q 3700 3931 3700 3431 
Q 3700 3069 3454 2797 
Q 3209 2525 2828 2419 
L 2828 2406 
Q 3306 2347 3592 2053 
Q 3878 1759 3878 1338 
Q 3878 722 3437 361 
Q 2997 0 2234 0 
L 513 0 
z
M 1522 3738 
L 1522 2675 
L 1966 2675 
Q 2278 2675 2458 2826 
Q 2638 2978 2638 3244 
Q 2638 3738 1900 3738 
L 1522 3738 
z
M 1522 1925 
L 1522 744 
L 2069 744 
Q 2419 744 2617 906 
Q 2816 1069 2816 1350 
Q 2816 1619 2620 1772 
Q 2425 1925 2075 1925 
L 1522 1925 
z
" transform="scale(0.015625)"/>
     </defs>
     <use xlink:href="#SegoeUI-Bold-42"/>
    </g>
   </g>
   <g id="text_18">
    <!-- b -->
    <g style="fill: #f59e0b" transform="translate(519.925065 458.12438) scale(0.12 -0.12)">
     <use xlink:href="#SegoeUI-Bold-62"/>
    </g>
   </g>
   <g id="text_19">
    <!-- h -->
    <g style="fill: #39c5bb" transform="translate(499.438825 540.50434) scale(0.12 -0.12)">
     <use xlink:href="#SegoeUI-Bold-68"/>
    </g>
   </g>
   <g id="text_20">
    <!-- $A = \frac{(B + b) \cdot h}{2}$ -->
    <g style="fill: #1f2937" transform="translate(494.27975 674.371775) scale(0.13 -0.13)">
     <defs>
      <path id="DejaVuSans-28" d="M 1984 4856 
Q 1566 4138 1362 3434 
Q 1159 2731 1159 2009 
Q 1159 1288 1364 580 
Q 1569 -128 1984 -844 
L 1484 -844 
Q 1016 -109 783 600 
Q 550 1309 550 2009 
Q 550 2706 781 3412 
Q 1013 4119 1484 4856 
L 1984 4856 
z
" transform="scale(0.015625)"/>
      <path id="DejaVuSans-Oblique-42" d="M 1081 4666 
L 2694 4666 
Q 3350 4666 3675 4422 
Q 4000 4178 4000 3688 
Q 4000 3238 3720 2911 
Q 3441 2584 2988 2516 
Q 3375 2428 3569 2181 
Q 3763 1934 3763 1522 
Q 3763 819 3242 409 
Q 2722 0 1819 0 
L 172 0 
L 1081 4666 
z
M 1234 2228 
L 903 519 
L 1919 519 
Q 2491 519 2800 781 
Q 3109 1044 3109 1522 
Q 3109 1891 2904 2059 
Q 2700 2228 2247 2228 
L 1234 2228 
z
M 1606 4147 
L 1331 2741 
L 2272 2741 
Q 2775 2741 3058 2959 
Q 3341 3178 3341 3566 
Q 3341 3869 3150 4008 
Q 2959 4147 2541 4147 
L 1606 4147 
z
" transform="scale(0.015625)"/>
      <path id="DejaVuSans-2b" d="M 2944 4013 
L 2944 2272 
L 4684 2272 
L 4684 1741 
L 2944 1741 
L 2944 0 
L 2419 0 
L 2419 1741 
L 678 1741 
L 678 2272 
L 2419 2272 
L 2419 4013 
L 2944 4013 
z
" transform="scale(0.015625)"/>
      <path id="DejaVuSans-29" d="M 513 4856 
L 1013 4856 
Q 1481 4119 1714 3412 
Q 1947 2706 1947 2009 
Q 1947 1309 1714 600 
Q 1481 -109 1013 -844 
L 513 -844 
Q 928 -128 1133 580 
Q 1338 1288 1338 2009 
Q 1338 2731 1133 3434 
Q 928 4138 513 4856 
z
" transform="scale(0.015625)"/>
     </defs>
     <use xlink:href="#DejaVuSans-Oblique-41" transform="translate(0 0.782813)"/>
     <use xlink:href="#DejaVuSans-3d" transform="translate(87.890625 0.782813)"/>
     <use xlink:href="#DejaVuSans-28" transform="translate(191.162109 53.810938) scale(0.7)"/>
     <use xlink:href="#DejaVuSans-Oblique-42" transform="translate(218.47168 53.810938) scale(0.7)"/>
     <use xlink:href="#DejaVuSans-2b" transform="translate(280.131836 53.810938) scale(0.7)"/>
     <use xlink:href="#DejaVuSans-Oblique-62" transform="translate(352.421875 53.810938) scale(0.7)"/>
     <use xlink:href="#DejaVuSans-29" transform="translate(396.855469 53.810938) scale(0.7)"/>
     <use xlink:href="#DejaVuSans-22c5" transform="translate(437.802734 53.810938) scale(0.7)"/>
     <use xlink:href="#DejaVuSans-Oblique-68" transform="translate(473.691406 53.810938) scale(0.7)"/>
     <use xlink:href="#DejaVuSans-32" transform="translate(332.162109 -38.623437) scale(0.7)"/>
     <path d="M 191.162109 19.579688 
L 191.162109 25.829688 
L 518.056641 25.829688 
L 518.056641 19.579688 
L 191.162109 19.579688 
z
"/>
    </g>
   </g>
   <g id="text_21">
    <!-- TRAPECIO -->
    <g style="fill: #2c2f33" transform="translate(481.86851 386.33941) scale(0.11 -0.11)">
     <use xlink:href="#SegoeUI-Bold-54"/>
     <use xlink:href="#SegoeUI-Bold-52" x="58.59375"/>
     <use xlink:href="#SegoeUI-Bold-41" x="123.876953"/>
     <use xlink:href="#SegoeUI-Bold-50" x="194.189453"/>
     <use xlink:href="#SegoeUI-Bold-45" x="255.615234"/>
     <use xlink:href="#SegoeUI-Bold-43" x="308.837891"/>
     <use xlink:href="#SegoeUI-Bold-49" x="371.240234"/>
     <use xlink:href="#SegoeUI-Bold-4f" x="402.929688"/>
    </g>
   </g>
  </g>
  <g id="axes_6">
   <g id="patch_7">
    <path d="M 926.81956 530.206845 
L 926.63297 524.328877 
L 926.073953 518.474578 
L 925.144758 512.667521 
L 923.849127 506.931088 
L 922.192278 501.288379 
L 920.180882 495.762114 
L 917.823039 490.374546 
L 915.128241 485.147369 
L 912.107341 480.10163 
L 908.772503 475.257647 
L 905.137154 470.634925 
L 901.215934 466.252078 
L 897.02463 462.126755 
L 892.580121 458.275566 
L 887.900303 454.714019 
L 883.00402 451.456454 
L 877.910986 448.51599 
L 872.641711 445.904466 
L 867.217412 443.632398 
L 861.65993 441.708935 
L 855.991643 440.141822 
L 850.235376 438.937368 
L 844.414307 438.100425 
L 838.551876 437.634362 
L 832.671688 437.541055 
L 826.797421 437.820881 
L 820.952728 438.472713 
L 815.161144 439.493925 
L 809.44599 440.880406 
L 803.830279 442.626574 
L 798.336622 444.725396 
L 792.987141 447.168422 
L 787.803378 449.945814 
L 782.806203 453.046389 
L 778.01574 456.457663 
L 773.451279 460.165898 
L 769.131198 464.156163 
L 765.072893 468.412391 
L 761.292705 472.917443 
L 757.805856 477.65318 
L 754.626386 482.600531 
L 751.767098 487.739577 
L 749.239505 493.049623 
L 747.053784 498.509288 
L 745.218738 504.096588 
L 743.741755 509.789025 
L 742.628782 515.563677 
L 741.884301 521.397293 
L 741.511309 527.266381 
L 741.511309 533.147309 
L 741.884301 539.016397 
L 742.628782 544.850012 
L 743.741755 550.624664 
L 745.218738 556.317101 
L 747.053784 561.904401 
L 749.239505 567.364066 
L 751.767098 572.674113 
L 754.626386 577.813158 
L 757.805856 582.76051 
L 761.292705 587.496246 
L 765.072893 592.001299 
L 769.131198 596.257527 
L 773.451279 600.247792 
L 778.01574 603.956027 
L 782.806203 607.3673 
L 787.803378 610.467875 
L 792.987141 613.245267 
L 798.336622 615.688293 
L 803.830279 617.787116 
L 809.44599 619.533283 
L 815.161144 620.919764 
L 820.952728 621.940977 
L 826.797421 622.592808 
L 832.671688 622.872634 
L 838.551876 622.779328 
L 844.414307 622.313264 
L 850.235376 621.476321 
L 855.991643 620.271868 
L 861.65993 618.704754 
L 867.217412 616.781291 
L 872.641711 614.509223 
L 877.910986 611.897699 
L 883.00402 608.957235 
L 887.900303 605.699671 
L 892.580121 602.138124 
L 897.02463 598.286935 
L 901.215934 594.161611 
L 905.137154 589.778764 
L 908.772503 585.156043 
L 912.107341 580.31206 
L 915.128241 575.266321 
L 917.823039 570.039143 
L 920.180882 564.651575 
L 922.192278 559.12531 
L 923.849127 553.482601 
L 925.144758 547.746168 
L 926.073953 541.939111 
L 926.63297 536.084812 
L 926.81956 530.206845 
z
" clip-path="url(#p9b0c5fb0c4)" style="fill: #ec4899; opacity: 0.3; stroke: #ec4899; stroke-linejoin: miter"/>
   </g>
   <g id="line2d_7">
    <path d="M 926.81956 530.206845 
L 926.63297 524.328877 
L 926.073953 518.474578 
L 925.144758 512.667521 
L 923.849127 506.931088 
L 922.192278 501.288379 
L 920.180882 495.762114 
L 917.823039 490.374546 
L 915.128241 485.147369 
L 912.107341 480.10163 
L 908.772503 475.257647 
L 905.137154 470.634925 
L 901.215934 466.252078 
L 897.02463 462.126755 
L 892.580121 458.275566 
L 887.900303 454.714019 
L 883.00402 451.456454 
L 877.910986 448.51599 
L 872.641711 445.904466 
L 867.217412 443.632398 
L 861.65993 441.708935 
L 855.991643 440.141822 
L 850.235376 438.937368 
L 844.414307 438.100425 
L 838.551876 437.634362 
L 832.671688 437.541055 
L 826.797421 437.820881 
L 820.952728 438.472713 
L 815.161144 439.493925 
L 809.44599 440.880406 
L 803.830279 442.626574 
L 798.336622 444.725396 
L 792.987141 447.168422 
L 787.803378 449.945814 
L 782.806203 453.046389 
L 778.01574 456.457663 
L 773.451279 460.165898 
L 769.131198 464.156163 
L 765.072893 468.412391 
L 761.292705 472.917443 
L 757.805856 477.65318 
L 754.626386 482.600531 
L 751.767098 487.739577 
L 749.239505 493.049623 
L 747.053784 498.509288 
L 745.218738 504.096588 
L 743.741755 509.789025 
L 742.628782 515.563677 
L 741.884301 521.397293 
L 741.511309 527.266381 
L 741.511309 533.147309 
L 741.884301 539.016397 
L 742.628782 544.850012 
L 743.741755 550.624664 
L 745.218738 556.317101 
L 747.053784 561.904401 
L 749.239505 567.364066 
L 751.767098 572.674113 
L 754.626386 577.813158 
L 757.805856 582.76051 
L 761.292705 587.496246 
L 765.072893 592.001299 
L 769.131198 596.257527 
L 773.451279 600.247792 
L 778.01574 603.956027 
L 782.806203 607.3673 
L 787.803378 610.467875 
L 792.987141 613.245267 
L 798.336622 615.688293 
L 803.830279 617.787116 
L 809.44599 619.533283 
L 815.161144 620.919764 
L 820.952728 621.940977 
L 826.797421 622.592808 
L 832.671688 622.872634 
L 838.551876 622.779328 
L 844.414307 622.313264 
L 850.235376 621.476321 
L 855.991643 620.271868 
L 861.65993 618.704754 
L 867.217412 616.781291 
L 872.641711 614.509223 
L 877.910986 611.897699 
L 883.00402 608.957235 
L 887.900303 605.699671 
L 892.580121 602.138124 
L 897.02463 598.286935 
L 901.215934 594.161611 
L 905.137154 589.778764 
L 908.772503 585.156043 
L 912.107341 580.31206 
L 915.128241 575.266321 
L 917.823039 570.039143 
L 920.180882 564.651575 
L 922.192278 559.12531 
L 923.849127 553.482601 
L 925.144758 547.746168 
L 926.073953 541.939111 
L 926.63297 536.084812 
L 926.81956 530.206845 
" clip-path="url(#p9b0c5fb0c4)" style="fill: none; stroke: #ec4899; stroke-width: 2; stroke-linecap: square"/>
   </g>
   <g id="line2d_8">
    <path d="M 834.142105 530.206845 
L 926.81956 530.206845 
" clip-path="url(#p9b0c5fb0c4)" style="fill: none; stroke: #39c5bb; stroke-width: 2; stroke-linecap: square"/>
   </g>
   <g id="line2d_9">
    <defs>
     <path id="m5e7ea93e18" d="M 0 2 
C 0.530406 2 1.03916 1.789267 1.414214 1.414214 
C 1.789267 1.03916 2 0.530406 2 0 
C 2 -0.530406 1.789267 -1.03916 1.414214 -1.414214 
C 1.03916 -1.789267 0.530406 -2 0 -2 
C -0.530406 -2 -1.03916 -1.789267 -1.414214 -1.414214 
C -1.789267 -1.03916 -2 -0.530406 -2 0 
C -2 0.530406 -1.789267 1.03916 -1.414214 1.414214 
C -1.03916 1.789267 -0.530406 2 0 2 
z
" style="stroke: #374151"/>
    </defs>
    <g clip-path="url(#p9b0c5fb0c4)">
     <use xlink:href="#m5e7ea93e18" x="834.142105" y="530.206845" style="fill: #374151; stroke: #374151"/>
    </g>
   </g>
   <g id="text_22">
    <!-- r -->
    <g style="fill: #39c5bb" transform="translate(880.480833 514.760602) scale(0.12 -0.12)">
     <defs>
      <path id="SegoeUI-Bold-72" d="M 2503 2309 
Q 2325 2406 2088 2406 
Q 1766 2406 1584 2170 
Q 1403 1934 1403 1528 
L 1403 0 
L 416 0 
L 416 3200 
L 1403 3200 
L 1403 2606 
L 1416 2606 
Q 1650 3256 2259 3256 
Q 2416 3256 2503 3219 
L 2503 2309 
z
" transform="scale(0.015625)"/>
     </defs>
     <use xlink:href="#SegoeUI-Bold-72"/>
    </g>
   </g>
   <g id="text_23">
    <!-- $A = \pi r^2$ -->
    <g style="fill: #1f2937" transform="translate(811.717105 658.925532) scale(0.13 -0.13)">
     <defs>
      <path id="DejaVuSans-Oblique-3c0" d="M 584 3500 
L 3938 3500 
L 3825 2925 
L 3384 2925 
L 2966 775 
Q 2922 550 2981 450 
Q 3038 353 3209 353 
Q 3256 353 3325 363 
Q 3397 369 3419 372 
L 3338 -44 
Q 3222 -84 3103 -103 
Q 2981 -122 2866 -122 
Q 2491 -122 2388 81 
Q 2284 288 2391 838 
L 2797 2925 
L 1506 2925 
L 938 0 
L 350 0 
L 919 2925 
L 472 2925 
L 584 3500 
z
" transform="scale(0.015625)"/>
      <path id="DejaVuSans-Oblique-72" d="M 2853 2969 
Q 2766 3016 2653 3041 
Q 2541 3066 2413 3066 
Q 1953 3066 1609 2717 
Q 1266 2369 1153 1784 
L 800 0 
L 225 0 
L 909 3500 
L 1484 3500 
L 1375 2956 
Q 1603 3259 1920 3421 
Q 2238 3584 2597 3584 
Q 2691 3584 2781 3573 
Q 2872 3563 2963 3538 
L 2853 2969 
z
" transform="scale(0.015625)"/>
     </defs>
     <use xlink:href="#DejaVuSans-Oblique-41" transform="translate(0 0.765625)"/>
     <use xlink:href="#DejaVuSans-3d" transform="translate(87.890625 0.765625)"/>
     <use xlink:href="#DejaVuSans-Oblique-3c0" transform="translate(191.162109 0.765625)"/>
     <use xlink:href="#DejaVuSans-Oblique-72" transform="translate(251.367188 0.765625)"/>
     <use xlink:href="#DejaVuSans-32" transform="translate(297.130365 39.046875) scale(0.7)"/>
    </g>
   </g>
   <g id="text_24">
    <!-- CÍRCULO -->
    <g style="fill: #2c2f33" transform="translate(821.474522 386.33941) scale(0.11 -0.11)">
     <defs>
      <path id="SegoeUI-Bold-cd" d="M 1522 0 
L 513 0 
L 513 4481 
L 1522 4481 
L 1522 0 
z
M 2031 5932 
L 1052 4922 
L 340 4922 
L 1152 5932 
L 2031 5932 
z
" transform="scale(0.015625)"/>
     </defs>
     <use xlink:href="#SegoeUI-Bold-43"/>
     <use xlink:href="#SegoeUI-Bold-cd" x="62.402344"/>
     <use xlink:href="#SegoeUI-Bold-52" x="94.091797"/>
     <use xlink:href="#SegoeUI-Bold-43" x="158.375"/>
     <use xlink:href="#SegoeUI-Bold-55" x="220.777344"/>
     <use xlink:href="#SegoeUI-Bold-4c" x="293.091797"/>
     <use xlink:href="#SegoeUI-Bold-4f" x="341.714844"/>
    </g>
   </g>
  </g>
  <g id="text_25">
   <!-- Fórmulas de Áreas de Figuras Planas -->
   <g style="fill: #2c2f33" transform="translate(388.809291 20.17625) scale(0.14 -0.14)">
    <defs>
     <path id="SegoeUI-Bold-46" d="M 3103 3659 
L 1522 3659 
L 1522 2559 
L 2975 2559 
L 2975 1741 
L 1522 1741 
L 1522 0 
L 513 0 
L 513 4481 
L 3103 4481 
L 3103 3659 
z
" transform="scale(0.015625)"/>
     <path id="SegoeUI-Bold-f3" d="M 1941 -78 
Q 1141 -78 683 370 
Q 225 819 225 1588 
Q 225 2381 700 2829 
Q 1175 3278 1984 3278 
Q 2781 3278 3234 2829 
Q 3688 2381 3688 1644 
Q 3688 847 3220 384 
Q 2753 -78 1941 -78 
z
M 1966 2522 
Q 1616 2522 1422 2281 
Q 1228 2041 1228 1600 
Q 1228 678 1972 678 
Q 2681 678 2681 1625 
Q 2681 2522 1966 2522 
z
M 3023 4716 
L 2044 3706 
L 1332 3706 
L 2144 4716 
L 3023 4716 
z
" transform="scale(0.015625)"/>
     <path id="SegoeUI-Bold-6d" d="M 5497 0 
L 4513 0 
L 4513 1825 
Q 4513 2522 4000 2522 
Q 3756 2522 3603 2312 
Q 3450 2103 3450 1791 
L 3450 0 
L 2463 0 
L 2463 1844 
Q 2463 2522 1959 2522 
Q 1706 2522 1554 2322 
Q 1403 2122 1403 1778 
L 1403 0 
L 416 0 
L 416 3200 
L 1403 3200 
L 1403 2700 
L 1416 2700 
Q 1569 2956 1845 3117 
Q 2122 3278 2450 3278 
Q 3128 3278 3378 2681 
Q 3744 3278 4453 3278 
Q 5497 3278 5497 1991 
L 5497 0 
z
" transform="scale(0.015625)"/>
     <path id="SegoeUI-Bold-75" d="M 3456 0 
L 2472 0 
L 2472 488 
L 2456 488 
Q 2091 -78 1478 -78 
Q 366 -78 366 1269 
L 366 3200 
L 1350 3200 
L 1350 1356 
Q 1350 678 1888 678 
Q 2153 678 2312 864 
Q 2472 1050 2472 1369 
L 2472 3200 
L 3456 3200 
L 3456 0 
z
" transform="scale(0.015625)"/>
     <path id="SegoeUI-Bold-61" d="M 3078 0 
L 2144 0 
L 2144 459 
L 2131 459 
Q 1809 -78 1178 -78 
Q 713 -78 445 186 
Q 178 450 178 891 
Q 178 1822 1281 1966 
L 2150 2081 
Q 2150 2606 1581 2606 
Q 1009 2606 494 2266 
L 494 3009 
Q 700 3116 1058 3197 
Q 1416 3278 1709 3278 
Q 3078 3278 3078 1913 
L 3078 0 
z
M 2150 1300 
L 2150 1516 
L 1569 1441 
Q 1088 1378 1088 1006 
Q 1088 838 1205 730 
Q 1322 622 1522 622 
Q 1800 622 1975 814 
Q 2150 1006 2150 1300 
z
" transform="scale(0.015625)"/>
     <path id="SegoeUI-Bold-73" d="M 206 84 
L 206 884 
Q 450 738 692 666 
Q 934 594 1150 594 
Q 1413 594 1564 666 
Q 1716 738 1716 884 
Q 1716 978 1647 1040 
Q 1578 1103 1470 1150 
Q 1363 1197 1234 1234 
Q 1106 1272 988 1319 
Q 797 1391 651 1473 
Q 506 1556 407 1665 
Q 309 1775 257 1919 
Q 206 2063 206 2259 
Q 206 2528 323 2722 
Q 441 2916 636 3039 
Q 831 3163 1082 3220 
Q 1334 3278 1606 3278 
Q 1819 3278 2037 3245 
Q 2256 3213 2469 3150 
L 2469 2388 
Q 2281 2497 2067 2551 
Q 1853 2606 1647 2606 
Q 1550 2606 1464 2589 
Q 1378 2572 1312 2539 
Q 1247 2506 1209 2454 
Q 1172 2403 1172 2338 
Q 1172 2250 1228 2187 
Q 1284 2125 1375 2079 
Q 1466 2034 1577 1998 
Q 1688 1963 1797 1925 
Q 1994 1856 2153 1775 
Q 2313 1694 2427 1584 
Q 2541 1475 2602 1328 
Q 2663 1181 2663 978 
Q 2663 694 2539 492 
Q 2416 291 2211 164 
Q 2006 38 1739 -20 
Q 1472 -78 1184 -78 
Q 656 -78 206 84 
z
" transform="scale(0.015625)"/>
     <path id="SegoeUI-Bold-20" transform="scale(0.015625)"/>
     <path id="SegoeUI-Bold-64" d="M 3547 0 
L 2559 0 
L 2559 441 
L 2547 441 
Q 2209 -78 1556 -78 
Q 956 -78 590 345 
Q 225 769 225 1528 
Q 225 2322 628 2800 
Q 1031 3278 1684 3278 
Q 2303 3278 2547 2834 
L 2559 2834 
L 2559 4738 
L 3547 4738 
L 3547 0 
z
M 2578 1556 
L 2578 1797 
Q 2578 2109 2397 2315 
Q 2216 2522 1925 2522 
Q 1597 2522 1412 2264 
Q 1228 2006 1228 1556 
Q 1228 1134 1406 906 
Q 1584 678 1900 678 
Q 2200 678 2389 918 
Q 2578 1159 2578 1556 
z
" transform="scale(0.015625)"/>
     <path id="SegoeUI-Bold-65" d="M 3291 1319 
L 1203 1319 
Q 1253 622 2081 622 
Q 2609 622 3009 872 
L 3009 159 
Q 2566 -78 1856 -78 
Q 1081 -78 653 351 
Q 225 781 225 1550 
Q 225 2347 687 2812 
Q 1150 3278 1825 3278 
Q 2525 3278 2908 2862 
Q 3291 2447 3291 1734 
L 3291 1319 
z
M 2375 1925 
Q 2375 2613 1819 2613 
Q 1581 2613 1407 2416 
Q 1234 2219 1197 1925 
L 2375 1925 
z
" transform="scale(0.015625)"/>
     <path id="SegoeUI-Bold-69" d="M 916 3706 
Q 666 3706 506 3854 
Q 347 4003 347 4219 
Q 347 4441 506 4581 
Q 666 4722 916 4722 
Q 1169 4722 1326 4581 
Q 1484 4441 1484 4219 
Q 1484 3994 1326 3850 
Q 1169 3706 916 3706 
z
M 1403 0 
L 416 0 
L 416 3200 
L 1403 3200 
L 1403 0 
z
" transform="scale(0.015625)"/>
     <path id="SegoeUI-Bold-67" d="M 3553 366 
Q 3553 -525 3037 -1014 
Q 2522 -1503 1544 -1503 
Q 897 -1503 519 -1319 
L 519 -488 
Q 1013 -775 1516 -775 
Q 2016 -775 2291 -511 
Q 2566 -247 2566 206 
L 2566 459 
L 2553 459 
Q 2216 -78 1556 -78 
Q 944 -78 584 353 
Q 225 784 225 1509 
Q 225 2322 625 2800 
Q 1025 3278 1678 3278 
Q 2263 3278 2553 2828 
L 2566 2828 
L 2566 3200 
L 3553 3200 
L 3553 366 
z
M 2578 1538 
L 2578 1791 
Q 2578 2094 2398 2308 
Q 2219 2522 1931 2522 
Q 1603 2522 1415 2265 
Q 1228 2009 1228 1544 
Q 1228 1144 1406 911 
Q 1584 678 1894 678 
Q 2200 678 2389 914 
Q 2578 1150 2578 1538 
z
" transform="scale(0.015625)"/>
     <path id="SegoeUI-Bold-6e" d="M 3506 0 
L 2522 0 
L 2522 1778 
Q 2522 2522 1991 2522 
Q 1734 2522 1568 2325 
Q 1403 2128 1403 1825 
L 1403 0 
L 416 0 
L 416 3200 
L 1403 3200 
L 1403 2694 
L 1416 2694 
Q 1769 3278 2444 3278 
Q 3506 3278 3506 1959 
L 3506 0 
z
" transform="scale(0.015625)"/>
    </defs>
    <use xlink:href="#SegoeUI-Bold-46"/>
    <use xlink:href="#SegoeUI-Bold-f3" x="52.001953"/>
    <use xlink:href="#SegoeUI-Bold-72" x="113.085938"/>
    <use xlink:href="#SegoeUI-Bold-6d" x="153.130859"/>
    <use xlink:href="#SegoeUI-Bold-75" x="244.732422"/>
    <use xlink:href="#SegoeUI-Bold-6c" x="305.230469"/>
    <use xlink:href="#SegoeUI-Bold-61" x="333.648438"/>
    <use xlink:href="#SegoeUI-Bold-73" x="387.457031"/>
    <use xlink:href="#SegoeUI-Bold-20" x="431.451172"/>
    <use xlink:href="#SegoeUI-Bold-64" x="459.039062"/>
    <use xlink:href="#SegoeUI-Bold-65" x="520.953125"/>
    <use xlink:href="#SegoeUI-Bold-20" x="575.054688"/>
    <use xlink:href="#SegoeUI-Bold-c1" x="602.642578"/>
    <use xlink:href="#SegoeUI-Bold-72" x="672.955078"/>
    <use xlink:href="#SegoeUI-Bold-65" x="712.375"/>
    <use xlink:href="#SegoeUI-Bold-61" x="766.476562"/>
    <use xlink:href="#SegoeUI-Bold-73" x="820.285156"/>
    <use xlink:href="#SegoeUI-Bold-20" x="864.279297"/>
    <use xlink:href="#SegoeUI-Bold-64" x="891.867188"/>
    <use xlink:href="#SegoeUI-Bold-65" x="953.78125"/>
    <use xlink:href="#SegoeUI-Bold-20" x="1007.882812"/>
    <use xlink:href="#SegoeUI-Bold-46" x="1035.470703"/>
    <use xlink:href="#SegoeUI-Bold-69" x="1087.472656"/>
    <use xlink:href="#SegoeUI-Bold-67" x="1115.890625"/>
    <use xlink:href="#SegoeUI-Bold-75" x="1177.804688"/>
    <use xlink:href="#SegoeUI-Bold-72" x="1238.302734"/>
    <use xlink:href="#SegoeUI-Bold-61" x="1278.097656"/>
    <use xlink:href="#SegoeUI-Bold-73" x="1331.90625"/>
    <use xlink:href="#SegoeUI-Bold-20" x="1375.900391"/>
    <use xlink:href="#SegoeUI-Bold-50" x="1403.488281"/>
    <use xlink:href="#SegoeUI-Bold-6c" x="1464.914062"/>
    <use xlink:href="#SegoeUI-Bold-61" x="1493.332031"/>
    <use xlink:href="#SegoeUI-Bold-6e" x="1547.140625"/>
    <use xlink:href="#SegoeUI-Bold-61" x="1607.638672"/>
    <use xlink:href="#SegoeUI-Bold-73" x="1661.447266"/>
   </g>
  </g>
 </g>
 <defs>
  <clipPath id="p6d25178f1f">
   <rect x="7.2" y="46.871921" width="329.51984" height="308.92485"/>
  </clipPath>
  <clipPath id="p22e9da6ff3">
   <rect x="343.43984" y="46.871921" width="329.51984" height="308.92485"/>
  </clipPath>
  <clipPath id="p7006d27a05">
   <rect x="679.67968" y="46.871921" width="329.51984" height="308.92485"/>
  </clipPath>
  <clipPath id="pe456d1cf1d">
   <rect x="7.2" y="396.33941" width="329.51984" height="308.92485"/>
  </clipPath>
  <clipPath id="pda6c4f1a2b">
   <rect x="343.43984" y="396.33941" width="329.51984" height="308.92485"/>
  </clipPath>
  <clipPath id="p9b0c5fb0c4">
   <rect x="679.67968" y="396.33941" width="329.51984" height="308.92485"/>
  </clipPath>
 </defs>
</svg>
