<?xml version="1.0" encoding="utf-8" standalone="no"?>
<!DOCTYPE svg PUBLIC "-//W3C//DTD SVG 1.1//EN"
  "http://www.w3.org/Graphics/SVG/1.1/DTD/svg11.dtd">
<svg xmlns:xlink="http://www.w3.org/1999/xlink" width="973.591945pt" height="368.39952pt" viewBox="0 0 973.591945 368.39952" xmlns="http://www.w3.org/2000/svg" version="1.1">
 <metadata>
  <rdf:RDF xmlns:dc="http://purl.org/dc/elements/1.1/" xmlns:cc="http://creativecommons.org/ns#" xmlns:rdf="http://www.w3.org/1999/02/22-rdf-syntax-ns#">
   <cc:Work>
    <dc:type rdf:resource="http://purl.org/dc/dcmitype/StillImage"/>
    <dc:date>2026-04-11T16:11:38.283461</dc:date>
    <dc:format>image/svg+xml</dc:format>
    <dc:creator>
     <cc:Agent>
      <dc:title>Matplotlib v3.8.4, https://matplotlib.org/</dc:title>
     </cc:Agent>
    </dc:creator>
   </cc:Work>
  </rdf:RDF>
 </metadata>
 <defs>
  <style type="text/css">*{stroke-linejoin: round; stroke-linecap: butt}</style>
 </defs>
 <g id="figure_1">
  <g id="patch_1">
   <path d="M 0 368.39952 
L 973.591945 368.39952 
L 973.591945 0 
L 0 0 
z
" style="fill: #ffffff"/>
  </g>
  <g id="axes_1">
   <g id="line2d_1">
    <path d="M 240.153715 182.004354 
L 239.973327 176.321724 
L 239.432886 170.661976 
L 238.53457 165.0479 
L 237.281997 159.502102 
L 235.680208 154.046912 
L 233.735655 148.704297 
L 231.456168 143.495769 
L 228.850925 138.442302 
L 225.930416 133.564244 
L 222.706401 128.881237 
L 219.191863 124.412138 
L 215.400953 120.174943 
L 211.348936 116.186713 
L 207.052127 112.463507 
L 202.52783 109.020318 
L 197.79426 105.87101 
L 192.870479 103.028264 
L 187.776314 100.503526 
L 182.532275 98.306964 
L 177.159481 96.447422 
L 171.679563 94.932387 
L 166.11459 93.76796 
L 160.486967 92.95883 
L 154.819357 92.508255 
L 149.134581 92.418049 
L 143.455528 92.688576 
L 137.805067 93.318746 
L 132.20595 94.306021 
L 126.680723 95.646427 
L 121.251634 97.334565 
L 115.940543 99.363639 
L 110.768837 101.725478 
L 105.757341 104.410571 
L 100.926234 107.408108 
L 96.294968 110.706017 
L 91.882194 114.291019 
L 87.705678 118.148679 
L 83.782239 122.263464 
L 80.127675 126.618803 
L 76.756702 131.197161 
L 73.682893 135.980102 
L 70.918625 140.948366 
L 68.475029 146.081947 
L 66.361945 151.360176 
L 64.587881 156.761798 
L 63.159981 162.265063 
L 62.083995 167.847811 
L 61.364255 173.487563 
L 61.003658 179.161608 
L 61.003658 184.8471 
L 61.364255 190.521146 
L 62.083995 196.160897 
L 63.159981 201.743646 
L 64.587881 207.24691 
L 66.361945 212.648532 
L 68.475029 217.926761 
L 70.918625 223.060343 
L 73.682893 228.028607 
L 76.756702 232.811547 
L 80.127675 237.389905 
L 83.782239 241.745245 
L 87.705678 245.860029 
L 91.882194 249.717689 
L 96.294968 253.302692 
L 100.926234 256.600601 
L 105.757341 259.598137 
L 110.768837 262.283231 
L 115.940543 264.64507 
L 121.251634 266.674143 
L 126.680723 268.362282 
L 132.20595 269.702688 
L 137.805067 270.689963 
L 143.455528 271.320133 
L 149.134581 271.590659 
L 154.819357 271.500453 
L 160.486967 271.049878 
L 166.11459 270.240749 
L 171.679563 269.076322 
L 177.159481 267.561287 
L 182.532275 265.701745 
L 187.776314 263.505182 
L 192.870479 260.980445 
L 197.79426 258.137699 
L 202.52783 254.988391 
L 207.052127 251.545201 
L 211.348936 247.821996 
L 215.400953 243.833766 
L 219.191863 239.59657 
L 222.706401 235.127472 
L 225.930416 230.444465 
L 228.850925 225.566407 
L 231.456168 220.51294 
L 233.735655 215.304412 
L 235.680208 209.961797 
L 237.281997 204.506607 
L 238.53457 198.960808 
L 239.432886 193.346732 
L 239.973327 187.686984 
L 240.153715 182.004354 
" clip-path="url(#pe59942cd0e)" style="fill: none; stroke: #374151; stroke-width: 2; stroke-linecap: square"/>
   </g>
   <g id="line2d_2">
    <defs>
     <path id="m0e882bc18f" d="M 0 2.5 
C 0.663008 2.5 1.29895 2.236584 1.767767 1.767767 
C 2.236584 1.29895 2.5 0.663008 2.5 0 
C 2.5 -0.663008 2.236584 -1.29895 1.767767 -1.767767 
C 1.29895 -2.236584 0.663008 -2.5 0 -2.5 
C -0.663008 -2.5 -1.29895 -2.236584 -1.767767 -1.767767 
C -2.236584 -1.29895 -2.5 -0.663008 -2.5 0 
C -2.5 0.663008 -2.236584 1.29895 -1.767767 1.767767 
C -1.29895 2.236584 -0.663008 2.5 0 2.5 
z
" style="stroke: #374151"/>
    </defs>
    <g clip-path="url(#pe59942cd0e)">
     <use xlink:href="#m0e882bc18f" x="150.556133" y="182.004354" style="fill: #374151; stroke: #374151"/>
    </g>
   </g>
   <g id="line2d_3">
    <path d="M 150.556133 182.004354 
L 228.149915 137.205563 
" clip-path="url(#pe59942cd0e)" style="fill: none; stroke: #39c5bb; stroke-width: 2; stroke-linecap: square"/>
   </g>
   <g id="line2d_4">
    <path d="M 150.556133 182.004354 
L 134.997676 93.76796 
" clip-path="url(#pe59942cd0e)" style="fill: none; stroke: #39c5bb; stroke-width: 2; stroke-linecap: square"/>
   </g>
   <g id="line2d_5">
    <defs>
     <path id="m2ca9c77698" d="M 0 3 
C 0.795609 3 1.55874 2.683901 2.12132 2.12132 
C 2.683901 1.55874 3 0.795609 3 0 
C 3 -0.795609 2.683901 -1.55874 2.12132 -2.12132 
C 1.55874 -2.683901 0.795609 -3 0 -3 
C -0.795609 -3 -1.55874 -2.683901 -2.12132 -2.12132 
C -2.683901 -1.55874 -3 -0.795609 -3 0 
C -3 0.795609 -2.683901 1.55874 -2.12132 2.12132 
C -1.55874 2.683901 -0.795609 3 0 3 
z
" style="stroke: #e12885"/>
    </defs>
    <g clip-path="url(#pe59942cd0e)">
     <use xlink:href="#m2ca9c77698" x="228.149915" y="137.205563" style="fill: #e12885; stroke: #e12885"/>
    </g>
   </g>
   <g id="line2d_6">
    <g clip-path="url(#pe59942cd0e)">
     <use xlink:href="#m2ca9c77698" x="134.997676" y="93.76796" style="fill: #e12885; stroke: #e12885"/>
    </g>
   </g>
   <g id="line2d_7">
    <path d="M 169.954578 170.804656 
L 169.465678 169.997605 
L 168.943222 169.211861 
L 168.388136 168.448818 
L 167.801407 167.709829 
L 167.184075 166.996208 
L 166.537235 166.309219 
L 165.862036 165.650082 
L 165.159676 165.019966 
L 164.431402 164.419991 
L 163.678504 163.85122 
L 162.90232 163.314663 
L 162.104227 162.811271 
L 161.285642 162.341939 
L 160.448016 161.9075 
L 159.592836 161.508723 
L 158.721621 161.146317 
L 157.835915 160.820924 
L 156.937291 160.533124 
L 156.027343 160.283425 
L 155.107686 160.072271 
L 154.179952 159.900037 
L 153.245787 159.767028 
L 152.306849 159.673481 
L 151.364805 159.619561 
L 150.421325 159.605364 
L 149.478085 159.630916 
L 148.536758 159.696171 
L 147.599014 159.801013 
L 146.666518 159.945256 
" clip-path="url(#pe59942cd0e)" style="fill: none; stroke: #1f2937; stroke-width: 2; stroke-linecap: square"/>
   </g>
   <g id="line2d_8">
    <path d="M 228.149915 137.205563 
L 226.194314 133.977358 
L 224.104489 130.834381 
L 221.884147 127.782207 
L 219.53723 124.826254 
L 217.067901 121.971767 
L 214.480544 119.223812 
L 211.779748 116.587264 
L 208.970308 114.066802 
L 206.057208 111.6669 
L 203.045619 109.391816 
L 199.940884 107.245587 
L 196.748512 105.232022 
L 193.474169 103.354695 
L 190.123666 101.616935 
L 186.702948 100.021828 
L 183.218085 98.572204 
L 179.675262 97.270635 
L 176.080765 96.119431 
L 172.440972 95.120635 
L 168.762344 94.27602 
L 165.051408 93.587083 
L 161.31475 93.055048 
L 157.558999 92.68086 
L 153.790822 92.465181 
L 150.016904 92.408394 
L 146.243943 92.510601 
L 142.478634 92.77162 
L 138.72766 93.190988 
L 134.997676 93.76796 
" clip-path="url(#pe59942cd0e)" style="fill: none; stroke: #e12885; stroke-opacity: 0.5; stroke-width: 4; stroke-linecap: square"/>
   </g>
   <g id="text_1">
    <!-- O -->
    <g style="fill: #374151" transform="translate(159.515891 195.443992) scale(0.1 -0.1)">
     <defs>
      <path id="SegoeUI-4f" d="M 2394 -75 
Q 1441 -75 867 553 
Q 294 1181 294 2188 
Q 294 3269 878 3912 
Q 1463 4556 2469 4556 
Q 3397 4556 3964 3931 
Q 4531 3306 4531 2297 
Q 4531 1200 3950 562 
Q 3369 -75 2394 -75 
z
M 2431 4081 
Q 1725 4081 1284 3572 
Q 844 3063 844 2234 
Q 844 1406 1273 901 
Q 1703 397 2394 397 
Q 3131 397 3556 878 
Q 3981 1359 3981 2225 
Q 3981 3113 3568 3597 
Q 3156 4081 2431 4081 
z
" transform="scale(0.015625)"/>
     </defs>
     <use xlink:href="#SegoeUI-4f"/>
    </g>
   </g>
   <g id="text_2">
    <!-- A -->
    <g style="fill: #2c2f33" transform="translate(241.589553 137.205563) scale(0.1 -0.1)">
     <defs>
      <path id="SegoeUI-41" d="M 4056 0 
L 3475 0 
L 3000 1256 
L 1100 1256 
L 653 0 
L 69 0 
L 1788 4481 
L 2331 4481 
L 4056 0 
z
M 2828 1728 
L 2125 3638 
Q 2091 3731 2056 3938 
L 2044 3938 
Q 2013 3747 1972 3638 
L 1275 1728 
L 2828 1728 
z
" transform="scale(0.015625)"/>
     </defs>
     <use xlink:href="#SegoeUI-41"/>
    </g>
   </g>
   <g id="text_3">
    <!-- B -->
    <g style="fill: #2c2f33" transform="translate(117.078159 84.808202) scale(0.1 -0.1)">
     <defs>
      <path id="SegoeUI-42" d="M 588 0 
L 588 4481 
L 1863 4481 
Q 2444 4481 2784 4197 
Q 3125 3913 3125 3456 
Q 3125 3075 2919 2794 
Q 2713 2513 2350 2394 
L 2350 2381 
Q 2803 2328 3075 2039 
Q 3347 1750 3347 1288 
Q 3347 713 2934 356 
Q 2522 0 1894 0 
L 588 0 
z
M 1113 4006 
L 1113 2559 
L 1650 2559 
Q 2081 2559 2328 2767 
Q 2575 2975 2575 3353 
Q 2575 4006 1716 4006 
L 1113 4006 
z
M 1113 2088 
L 1113 475 
L 1825 475 
Q 2288 475 2542 694 
Q 2797 913 2797 1294 
Q 2797 2088 1716 2088 
L 1113 2088 
z
" transform="scale(0.015625)"/>
     </defs>
     <use xlink:href="#SegoeUI-42"/>
    </g>
   </g>
   <g id="text_4">
    <!-- α -->
    <g style="fill: #1f2937" transform="translate(163.99577 150.6452) scale(0.12 -0.12)">
     <defs>
      <path id="SegoeUI-Bold-3b1" d="M 2697 669 
Q 2313 -78 1538 -78 
Q 928 -78 578 362 
Q 228 803 228 1509 
Q 228 2275 634 2776 
Q 1041 3278 1725 3278 
Q 2497 3278 2769 2619 
L 2784 2619 
L 2959 3200 
L 3956 3200 
L 3266 1578 
Q 3384 1134 3511 939 
Q 3638 744 3803 744 
Q 3950 744 4050 794 
L 4038 38 
Q 3831 -47 3566 -47 
Q 3222 -47 3020 120 
Q 2819 288 2716 669 
L 2697 669 
z
M 2484 1644 
Q 2303 2528 1850 2528 
Q 1553 2528 1384 2253 
Q 1216 1978 1216 1569 
Q 1216 1178 1352 933 
Q 1488 688 1747 688 
Q 2191 688 2438 1497 
L 2484 1644 
z
" transform="scale(0.015625)"/>
     </defs>
     <use xlink:href="#SegoeUI-Bold-3b1"/>
    </g>
   </g>
   <g id="text_5">
    <!-- α = arco AB -->
    <g style="fill: #4b5563" transform="translate(124.412383 316.400729) scale(0.1 -0.1)">
     <defs>
      <path id="SegoeUI-3b1" d="M 3816 16 
Q 3650 -25 3519 -25 
Q 3038 -25 2869 891 
L 2856 891 
Q 2394 -75 1563 -75 
Q 981 -75 631 373 
Q 281 822 281 1506 
Q 281 2288 684 2781 
Q 1088 3275 1775 3275 
Q 2169 3275 2478 3040 
Q 2788 2806 2947 2381 
L 2959 2381 
L 3225 3200 
L 3763 3200 
L 3159 1631 
Q 3266 947 3384 701 
Q 3503 456 3691 456 
Q 3763 456 3816 472 
L 3816 16 
z
M 2728 1625 
Q 2609 2219 2365 2534 
Q 2122 2850 1778 2850 
Q 1334 2850 1070 2472 
Q 806 2094 806 1538 
Q 806 1044 1029 709 
Q 1253 375 1631 375 
Q 1963 375 2233 658 
Q 2503 941 2684 1491 
L 2728 1625 
z
" transform="scale(0.015625)"/>
      <path id="SegoeUI-20" transform="scale(0.015625)"/>
      <path id="SegoeUI-3d" d="M 3663 2325 
L 725 2325 
L 725 2738 
L 3663 2738 
L 3663 2325 
z
M 3663 994 
L 725 994 
L 725 1406 
L 3663 1406 
L 3663 994 
z
" transform="scale(0.015625)"/>
      <path id="SegoeUI-61" d="M 2809 0 
L 2297 0 
L 2297 500 
L 2284 500 
Q 1950 -75 1300 -75 
Q 822 -75 551 178 
Q 281 431 281 850 
Q 281 1747 1338 1894 
L 2297 2028 
Q 2297 2844 1638 2844 
Q 1059 2844 594 2450 
L 594 2975 
Q 1066 3275 1681 3275 
Q 2809 3275 2809 2081 
L 2809 0 
z
M 2297 1619 
L 1525 1513 
Q 1169 1463 987 1336 
Q 806 1209 806 888 
Q 806 653 973 504 
Q 1141 356 1419 356 
Q 1800 356 2048 623 
Q 2297 891 2297 1300 
L 2297 1619 
z
" transform="scale(0.015625)"/>
      <path id="SegoeUI-72" d="M 2188 2681 
Q 2053 2784 1800 2784 
Q 1472 2784 1251 2475 
Q 1031 2166 1031 1631 
L 1031 0 
L 519 0 
L 519 3200 
L 1031 3200 
L 1031 2541 
L 1044 2541 
Q 1153 2878 1378 3067 
Q 1603 3256 1881 3256 
Q 2081 3256 2188 3213 
L 2188 2681 
z
" transform="scale(0.015625)"/>
      <path id="SegoeUI-63" d="M 2700 147 
Q 2331 -75 1825 -75 
Q 1141 -75 720 370 
Q 300 816 300 1525 
Q 300 2316 753 2795 
Q 1206 3275 1963 3275 
Q 2384 3275 2706 3119 
L 2706 2594 
Q 2350 2844 1944 2844 
Q 1453 2844 1139 2492 
Q 825 2141 825 1569 
Q 825 1006 1120 681 
Q 1416 356 1913 356 
Q 2331 356 2700 634 
L 2700 147 
z
" transform="scale(0.015625)"/>
      <path id="SegoeUI-6f" d="M 1856 -75 
Q 1147 -75 723 373 
Q 300 822 300 1563 
Q 300 2369 740 2822 
Q 1181 3275 1931 3275 
Q 2647 3275 3048 2834 
Q 3450 2394 3450 1613 
Q 3450 847 3017 386 
Q 2584 -75 1856 -75 
z
M 1894 2844 
Q 1400 2844 1112 2508 
Q 825 2172 825 1581 
Q 825 1013 1115 684 
Q 1406 356 1894 356 
Q 2391 356 2658 678 
Q 2925 1000 2925 1594 
Q 2925 2194 2658 2519 
Q 2391 2844 1894 2844 
z
" transform="scale(0.015625)"/>
     </defs>
     <use xlink:href="#SegoeUI-3b1"/>
     <use xlink:href="#SegoeUI-20" x="61.425781"/>
     <use xlink:href="#SegoeUI-3d" x="88.818359"/>
     <use xlink:href="#SegoeUI-20" x="157.226562"/>
     <use xlink:href="#SegoeUI-61" x="184.619141"/>
     <use xlink:href="#SegoeUI-72" x="235.498047"/>
     <use xlink:href="#SegoeUI-63" x="268.888672"/>
     <use xlink:href="#SegoeUI-6f" x="315.080078"/>
     <use xlink:href="#SegoeUI-20" x="373.673828"/>
     <use xlink:href="#SegoeUI-41" x="401.066406"/>
     <use xlink:href="#SegoeUI-42" x="465.568359"/>
    </g>
   </g>
   <g id="text_6">
    <!-- ÁNGULO CENTRAL -->
    <g style="fill: #2c2f33" transform="translate(101.897461 37.60798) scale(0.11 -0.11)">
     <defs>
      <path id="SegoeUI-Bold-c1" d="M 4453 0 
L 3353 0 
L 3034 997 
L 1441 997 
L 1125 0 
L 31 0 
L 1663 4481 
L 2859 4481 
L 4453 0 
z
M 2803 1772 
L 2322 3278 
Q 2269 3447 2247 3681 
L 2222 3681 
Q 2206 3484 2144 3291 
L 1656 1772 
L 2803 1772 
z
M 3239 5932 
L 2260 4922 
L 1548 4922 
L 2360 5932 
L 3239 5932 
z
" transform="scale(0.015625)"/>
      <path id="SegoeUI-Bold-4e" d="M 4544 0 
L 3525 0 
L 1678 2816 
Q 1516 3063 1453 3188 
L 1441 3188 
Q 1466 2950 1466 2463 
L 1466 0 
L 513 0 
L 513 4481 
L 1600 4481 
L 3378 1753 
Q 3500 1569 3603 1388 
L 3616 1388 
Q 3591 1544 3591 2003 
L 3591 4481 
L 4544 4481 
L 4544 0 
z
" transform="scale(0.015625)"/>
      <path id="SegoeUI-Bold-47" d="M 4191 300 
Q 3534 -78 2559 -78 
Q 1478 -78 854 520 
Q 231 1119 231 2169 
Q 231 3225 912 3890 
Q 1594 4556 2725 4556 
Q 3438 4556 3981 4359 
L 3981 3413 
Q 3463 3713 2713 3713 
Q 2084 3713 1689 3305 
Q 1294 2897 1294 2216 
Q 1294 1525 1648 1147 
Q 2003 769 2606 769 
Q 2969 769 3181 872 
L 3181 1747 
L 2284 1747 
L 2284 2553 
L 4191 2553 
L 4191 300 
z
" transform="scale(0.015625)"/>
      <path id="SegoeUI-Bold-55" d="M 4166 1941 
Q 4166 -78 2284 -78 
Q 459 -78 459 1894 
L 459 4481 
L 1472 4481 
L 1472 1881 
Q 1472 794 2322 794 
Q 3156 794 3156 1844 
L 3156 4481 
L 4166 4481 
L 4166 1941 
z
" transform="scale(0.015625)"/>
      <path id="SegoeUI-Bold-4c" d="M 3181 0 
L 513 0 
L 513 4481 
L 1522 4481 
L 1522 819 
L 3181 819 
L 3181 0 
z
" transform="scale(0.015625)"/>
      <path id="SegoeUI-Bold-4f" d="M 2406 -78 
Q 1444 -78 837 548 
Q 231 1175 231 2181 
Q 231 3244 847 3900 
Q 1463 4556 2478 4556 
Q 3438 4556 4030 3928 
Q 4622 3300 4622 2272 
Q 4622 1216 4008 569 
Q 3394 -78 2406 -78 
z
M 2450 3688 
Q 1919 3688 1606 3289 
Q 1294 2891 1294 2234 
Q 1294 1569 1606 1181 
Q 1919 794 2425 794 
Q 2947 794 3253 1170 
Q 3559 1547 3559 2216 
Q 3559 2913 3262 3300 
Q 2966 3688 2450 3688 
z
" transform="scale(0.015625)"/>
      <path id="SegoeUI-Bold-20" transform="scale(0.015625)"/>
      <path id="SegoeUI-Bold-43" d="M 3725 159 
Q 3234 -78 2444 -78 
Q 1413 -78 822 528 
Q 231 1134 231 2144 
Q 231 3219 895 3887 
Q 1559 4556 2619 4556 
Q 3275 4556 3725 4391 
L 3725 3419 
Q 3275 3688 2700 3688 
Q 2069 3688 1681 3291 
Q 1294 2894 1294 2216 
Q 1294 1566 1659 1180 
Q 2025 794 2644 794 
Q 3234 794 3725 1081 
L 3725 159 
z
" transform="scale(0.015625)"/>
      <path id="SegoeUI-Bold-45" d="M 3200 0 
L 513 0 
L 513 4481 
L 3097 4481 
L 3097 3659 
L 1522 3659 
L 1522 2663 
L 2988 2663 
L 2988 1844 
L 1522 1844 
L 1522 819 
L 3200 819 
L 3200 0 
z
" transform="scale(0.015625)"/>
      <path id="SegoeUI-Bold-54" d="M 3659 3659 
L 2381 3659 
L 2381 0 
L 1369 0 
L 1369 3659 
L 97 3659 
L 97 4481 
L 3659 4481 
L 3659 3659 
z
" transform="scale(0.015625)"/>
      <path id="SegoeUI-Bold-52" d="M 4272 0 
L 3113 0 
L 2416 1153 
Q 2338 1284 2266 1387 
Q 2194 1491 2120 1564 
Q 2047 1638 1967 1677 
Q 1888 1716 1794 1716 
L 1522 1716 
L 1522 0 
L 513 0 
L 513 4481 
L 2113 4481 
Q 3744 4481 3744 3263 
Q 3744 3028 3672 2829 
Q 3600 2631 3469 2472 
Q 3338 2313 3152 2197 
Q 2966 2081 2738 2016 
L 2738 2003 
Q 2838 1972 2931 1901 
Q 3025 1831 3112 1737 
Q 3200 1644 3279 1536 
Q 3359 1428 3425 1325 
L 4272 0 
z
M 1522 3725 
L 1522 2478 
L 1959 2478 
Q 2284 2478 2481 2666 
Q 2681 2856 2681 3138 
Q 2681 3725 1978 3725 
L 1522 3725 
z
" transform="scale(0.015625)"/>
      <path id="SegoeUI-Bold-41" d="M 4453 0 
L 3353 0 
L 3034 997 
L 1441 997 
L 1125 0 
L 31 0 
L 1663 4481 
L 2859 4481 
L 4453 0 
z
M 2803 1772 
L 2322 3278 
Q 2269 3447 2247 3681 
L 2222 3681 
Q 2206 3484 2144 3291 
L 1656 1772 
L 2803 1772 
z
" transform="scale(0.015625)"/>
     </defs>
     <use xlink:href="#SegoeUI-Bold-c1"/>
     <use xlink:href="#SegoeUI-Bold-4e" x="70.3125"/>
     <use xlink:href="#SegoeUI-Bold-47" x="149.316406"/>
     <use xlink:href="#SegoeUI-Bold-55" x="220.410156"/>
     <use xlink:href="#SegoeUI-Bold-4c" x="292.724609"/>
     <use xlink:href="#SegoeUI-Bold-4f" x="341.347656"/>
     <use xlink:href="#SegoeUI-Bold-20" x="417.177734"/>
     <use xlink:href="#SegoeUI-Bold-43" x="444.765625"/>
     <use xlink:href="#SegoeUI-Bold-45" x="507.167969"/>
     <use xlink:href="#SegoeUI-Bold-4e" x="560.390625"/>
     <use xlink:href="#SegoeUI-Bold-54" x="639.394531"/>
     <use xlink:href="#SegoeUI-Bold-52" x="697.988281"/>
     <use xlink:href="#SegoeUI-Bold-41" x="763.271484"/>
     <use xlink:href="#SegoeUI-Bold-4c" x="833.583984"/>
    </g>
   </g>
  </g>
  <g id="axes_2">
   <g id="line2d_9">
    <path d="M 576.393555 182.004354 
L 576.213167 176.321724 
L 575.672726 170.661976 
L 574.77441 165.0479 
L 573.521837 159.502102 
L 571.920048 154.046912 
L 569.975495 148.704297 
L 567.696008 143.495769 
L 565.090765 138.442302 
L 562.170256 133.564244 
L 558.946241 128.881237 
L 555.431703 124.412138 
L 551.640793 120.174943 
L 547.588776 116.186713 
L 543.291967 112.463507 
L 538.76767 109.020318 
L 534.0341 105.87101 
L 529.110319 103.028264 
L 524.016154 100.503526 
L 518.772115 98.306964 
L 513.399321 96.447422 
L 507.919403 94.932387 
L 502.35443 93.76796 
L 496.726807 92.95883 
L 491.059197 92.508255 
L 485.374421 92.418049 
L 479.695368 92.688576 
L 474.044907 93.318746 
L 468.44579 94.306021 
L 462.920563 95.646427 
L 457.491474 97.334565 
L 452.180383 99.363639 
L 447.008677 101.725478 
L 441.997181 104.410571 
L 437.166074 107.408108 
L 432.534808 110.706017 
L 428.122034 114.291019 
L 423.945518 118.148679 
L 420.022079 122.263464 
L 416.367515 126.618803 
L 412.996542 131.197161 
L 409.922733 135.980102 
L 407.158465 140.948366 
L 404.714869 146.081947 
L 402.601785 151.360176 
L 400.827721 156.761798 
L 399.399821 162.265063 
L 398.323835 167.847811 
L 397.604095 173.487563 
L 397.243498 179.161608 
L 397.243498 184.8471 
L 397.604095 190.521146 
L 398.323835 196.160897 
L 399.399821 201.743646 
L 400.827721 207.24691 
L 402.601785 212.648532 
L 404.714869 217.926761 
L 407.158465 223.060343 
L 409.922733 228.028607 
L 412.996542 232.811547 
L 416.367515 237.389905 
L 420.022079 241.745245 
L 423.945518 245.860029 
L 428.122034 249.717689 
L 432.534808 253.302692 
L 437.166074 256.600601 
L 441.997181 259.598137 
L 447.008677 262.283231 
L 452.180383 264.64507 
L 457.491474 266.674143 
L 462.920563 268.362282 
L 468.44579 269.702688 
L 474.044907 270.689963 
L 479.695368 271.320133 
L 485.374421 271.590659 
L 491.059197 271.500453 
L 496.726807 271.049878 
L 502.35443 270.240749 
L 507.919403 269.076322 
L 513.399321 267.561287 
L 518.772115 265.701745 
L 524.016154 263.505182 
L 529.110319 260.980445 
L 534.0341 258.137699 
L 538.76767 254.988391 
L 543.291967 251.545201 
L 547.588776 247.821996 
L 551.640793 243.833766 
L 555.431703 239.59657 
L 558.946241 235.127472 
L 562.170256 230.444465 
L 565.090765 225.566407 
L 567.696008 220.51294 
L 569.975495 215.304412 
L 571.920048 209.961797 
L 573.521837 204.506607 
L 574.77441 198.960808 
L 575.672726 193.346732 
L 576.213167 187.686984 
L 576.393555 182.004354 
" clip-path="url(#pd11c363d68)" style="fill: none; stroke: #374151; stroke-width: 2; stroke-linecap: square"/>
   </g>
   <g id="line2d_10">
    <g clip-path="url(#pd11c363d68)">
     <use xlink:href="#m0e882bc18f" x="486.795973" y="182.004354" style="fill: #374151; stroke: #374151"/>
    </g>
   </g>
   <g id="line2d_11">
    <path d="M 418.160242 239.59657 
L 570.99016 151.360176 
" clip-path="url(#pd11c363d68)" style="fill: none; stroke: #39c5bb; stroke-width: 2; stroke-linecap: square"/>
   </g>
   <g id="line2d_12">
    <path d="M 418.160242 239.59657 
L 441.997181 104.410571 
" clip-path="url(#pd11c363d68)" style="fill: none; stroke: #39c5bb; stroke-width: 2; stroke-linecap: square"/>
   </g>
   <g id="line2d_13">
    <g clip-path="url(#pd11c363d68)">
     <use xlink:href="#m2ca9c77698" x="570.99016" y="151.360176" style="fill: #e12885; stroke: #e12885"/>
    </g>
   </g>
   <g id="line2d_14">
    <g clip-path="url(#pd11c363d68)">
     <use xlink:href="#m2ca9c77698" x="441.997181" y="104.410571" style="fill: #e12885; stroke: #e12885"/>
    </g>
   </g>
   <g id="line2d_15">
    <defs>
     <path id="m5ebd65ffbb" d="M 0 3 
C 0.795609 3 1.55874 2.683901 2.12132 2.12132 
C 2.683901 1.55874 3 0.795609 3 0 
C 3 -0.795609 2.683901 -1.55874 2.12132 -2.12132 
C 1.55874 -2.683901 0.795609 -3 0 -3 
C -0.795609 -3 -1.55874 -2.683901 -2.12132 -2.12132 
C -2.683901 -1.55874 -3 -0.795609 -3 0 
C -3 0.795609 -2.683901 1.55874 -2.12132 2.12132 
C -1.55874 2.683901 -0.795609 3 0 3 
z
" style="stroke: #1f2937"/>
    </defs>
    <g clip-path="url(#pd11c363d68)">
     <use xlink:href="#m5ebd65ffbb" x="418.160242" y="239.59657" style="fill: #1f2937; stroke: #1f2937"/>
    </g>
   </g>
   <g id="line2d_16">
    <path d="M 433.678999 230.636812 
L 433.402398 230.17395 
L 433.111995 229.71962 
L 432.808055 229.274233 
L 432.490852 228.838193 
L 432.160673 228.411893 
L 431.817818 227.995721 
L 431.462596 227.590053 
L 431.095329 227.195256 
L 430.716351 226.811688 
L 430.326003 226.439696 
L 429.92464 226.079617 
L 429.512625 225.731777 
L 429.09033 225.396491 
L 428.658139 225.074063 
L 428.216443 224.764784 
L 427.765641 224.468934 
L 427.306142 224.186782 
L 426.838362 223.918582 
L 426.362724 223.664579 
L 425.87966 223.425001 
L 425.389605 223.200065 
L 424.893005 222.989976 
L 424.390309 222.794923 
L 423.881971 222.615084 
L 423.368453 222.45062 
L 422.850219 222.301681 
L 422.327738 222.168402 
L 421.801484 222.050903 
L 421.271934 221.949292 
" clip-path="url(#pd11c363d68)" style="fill: none; stroke: #1f2937; stroke-width: 2; stroke-linecap: square"/>
   </g>
   <g id="line2d_17">
    <path d="M 570.99016 151.360176 
L 568.994558 146.351592 
L 566.701315 141.472107 
L 564.118736 136.739388 
L 561.256171 132.170574 
L 558.123987 127.782207 
L 554.733524 123.590179 
L 551.097061 119.609667 
L 547.227763 115.855087 
L 543.139642 112.340032 
L 538.847501 109.077232 
L 534.366882 106.0785 
L 529.714009 103.354695 
L 524.905731 100.915679 
L 519.959457 98.770286 
L 514.893098 96.926282 
L 509.725 95.390345 
L 504.473876 94.168037 
L 499.15874 93.263784 
L 493.798839 92.68086 
L 488.413581 92.421375 
L 483.022465 92.48627 
L 477.645013 92.875309 
L 472.300697 93.587083 
L 467.008868 94.619016 
L 461.788688 95.967371 
L 456.659059 97.627265 
L 451.638555 99.592687 
L 446.745357 101.856522 
L 441.997181 104.410571 
" clip-path="url(#pd11c363d68)" style="fill: none; stroke: #e12885; stroke-opacity: 0.5; stroke-width: 4; stroke-linecap: square"/>
   </g>
   <g id="text_7">
    <!-- O -->
    <g style="fill: #374151" transform="translate(495.755731 195.443992) scale(0.1 -0.1)">
     <use xlink:href="#SegoeUI-4f"/>
    </g>
   </g>
   <g id="text_8">
    <!-- A -->
    <g style="fill: #2c2f33" transform="translate(584.429797 151.360176) scale(0.1 -0.1)">
     <use xlink:href="#SegoeUI-41"/>
    </g>
   </g>
   <g id="text_9">
    <!-- B -->
    <g style="fill: #2c2f33" transform="translate(424.077665 95.450813) scale(0.1 -0.1)">
     <use xlink:href="#SegoeUI-42"/>
    </g>
   </g>
   <g id="text_10">
    <!-- P -->
    <g style="fill: #2c2f33" transform="translate(400.240726 253.036208) scale(0.1 -0.1)">
     <defs>
      <path id="SegoeUI-50" d="M 1113 1694 
L 1113 0 
L 588 0 
L 588 4481 
L 1819 4481 
Q 2538 4481 2933 4131 
Q 3328 3781 3328 3144 
Q 3328 2506 2889 2100 
Q 2450 1694 1703 1694 
L 1113 1694 
z
M 1113 4006 
L 1113 2169 
L 1663 2169 
Q 2206 2169 2492 2417 
Q 2778 2666 2778 3119 
Q 2778 4006 1728 4006 
L 1113 4006 
z
" transform="scale(0.015625)"/>
     </defs>
     <use xlink:href="#SegoeUI-50"/>
    </g>
   </g>
   <g id="text_11">
    <!-- β -->
    <g style="fill: #1f2937" transform="translate(440.559638 212.717296) scale(0.12 -0.12)">
     <defs>
      <path id="SegoeUI-Bold-3b2" d="M 1403 78 
L 1403 -1481 
L 416 -1481 
L 416 3275 
Q 416 3966 834 4383 
Q 1253 4800 1975 4800 
Q 2678 4800 3079 4470 
Q 3481 4141 3481 3588 
Q 3481 3213 3264 2928 
Q 3047 2644 2684 2528 
L 2684 2516 
Q 3188 2416 3475 2089 
Q 3763 1763 3763 1288 
Q 3763 678 3341 301 
Q 2919 -75 2222 -75 
Q 1800 -75 1403 78 
z
M 1759 2094 
L 1759 2784 
Q 2084 2806 2282 2997 
Q 2481 3188 2481 3494 
Q 2481 3750 2343 3897 
Q 2206 4044 1972 4044 
Q 1403 4044 1403 3306 
L 1403 888 
Q 1738 681 2084 681 
Q 2756 681 2756 1319 
Q 2756 2056 1759 2094 
z
" transform="scale(0.015625)"/>
     </defs>
     <use xlink:href="#SegoeUI-Bold-3b2"/>
    </g>
   </g>
   <g id="text_12">
    <!-- β = arco AB / 2 -->
    <g style="fill: #4b5563" transform="translate(453.601441 316.400729) scale(0.1 -0.1)">
     <defs>
      <path id="SegoeUI-3b2" d="M 1028 144 
L 1028 -1503 
L 522 -1503 
L 522 3484 
Q 522 4081 865 4434 
Q 1209 4788 1788 4788 
Q 2328 4788 2639 4505 
Q 2950 4222 2950 3722 
Q 2950 3347 2711 3020 
Q 2472 2694 2091 2572 
L 2091 2559 
Q 2656 2469 2961 2133 
Q 3266 1797 3266 1278 
Q 3266 675 2887 298 
Q 2509 -78 1894 -78 
Q 1419 -78 1028 144 
z
M 1553 2316 
L 1553 2725 
Q 1938 2778 2186 3048 
Q 2434 3319 2434 3659 
Q 2434 4350 1778 4350 
Q 1416 4350 1222 4109 
Q 1028 3869 1028 3431 
L 1028 631 
Q 1466 359 1884 359 
Q 2288 359 2514 592 
Q 2741 825 2741 1244 
Q 2741 2191 1553 2316 
z
" transform="scale(0.015625)"/>
      <path id="SegoeUI-2f" d="M 2541 4481 
L 391 -744 
L -88 -744 
L 2056 4481 
L 2541 4481 
z
" transform="scale(0.015625)"/>
      <path id="SegoeUI-32" d="M 2413 3306 
Q 2413 3513 2348 3666 
Q 2284 3819 2173 3920 
Q 2063 4022 1913 4072 
Q 1763 4122 1588 4122 
Q 1438 4122 1294 4081 
Q 1150 4041 1014 3969 
Q 878 3897 751 3797 
Q 625 3697 516 3575 
L 516 4125 
Q 731 4334 998 4445 
Q 1266 4556 1650 4556 
Q 1925 4556 2159 4476 
Q 2394 4397 2566 4244 
Q 2738 4091 2836 3866 
Q 2934 3641 2934 3350 
Q 2934 3084 2873 2868 
Q 2813 2653 2689 2462 
Q 2566 2272 2378 2097 
Q 2191 1922 1938 1741 
Q 1622 1516 1417 1356 
Q 1213 1197 1092 1058 
Q 972 919 923 780 
Q 875 641 875 459 
L 3106 459 
L 3106 0 
L 341 0 
L 341 222 
Q 341 509 403 728 
Q 466 947 609 1144 
Q 753 1341 986 1537 
Q 1219 1734 1556 1981 
Q 1800 2156 1964 2315 
Q 2128 2475 2228 2634 
Q 2328 2794 2370 2958 
Q 2413 3122 2413 3306 
z
" transform="scale(0.015625)"/>
     </defs>
     <use xlink:href="#SegoeUI-3b2"/>
     <use xlink:href="#SegoeUI-20" x="54.785156"/>
     <use xlink:href="#SegoeUI-3d" x="82.177734"/>
     <use xlink:href="#SegoeUI-20" x="150.585938"/>
     <use xlink:href="#SegoeUI-61" x="177.978516"/>
     <use xlink:href="#SegoeUI-72" x="228.857422"/>
     <use xlink:href="#SegoeUI-63" x="262.248047"/>
     <use xlink:href="#SegoeUI-6f" x="308.439453"/>
     <use xlink:href="#SegoeUI-20" x="367.033203"/>
     <use xlink:href="#SegoeUI-41" x="394.425781"/>
     <use xlink:href="#SegoeUI-42" x="458.927734"/>
     <use xlink:href="#SegoeUI-20" x="516.251953"/>
     <use xlink:href="#SegoeUI-2f" x="543.644531"/>
     <use xlink:href="#SegoeUI-20" x="582.609375"/>
     <use xlink:href="#SegoeUI-32" x="610.001953"/>
    </g>
   </g>
   <g id="text_13">
    <!-- ÁNGULO INSCRITO -->
    <g style="fill: #2c2f33" transform="translate(437.210035 37.60798) scale(0.11 -0.11)">
     <defs>
      <path id="SegoeUI-Bold-49" d="M 1522 0 
L 513 0 
L 513 4481 
L 1522 4481 
L 1522 0 
z
" transform="scale(0.015625)"/>
      <path id="SegoeUI-Bold-53" d="M 306 172 
L 306 1172 
Q 578 944 897 830 
Q 1216 716 1541 716 
Q 1731 716 1873 750 
Q 2016 784 2111 845 
Q 2206 906 2253 989 
Q 2300 1072 2300 1169 
Q 2300 1300 2225 1403 
Q 2150 1506 2020 1593 
Q 1891 1681 1712 1762 
Q 1534 1844 1328 1928 
Q 803 2147 545 2462 
Q 288 2778 288 3225 
Q 288 3575 428 3826 
Q 569 4078 811 4240 
Q 1053 4403 1372 4479 
Q 1691 4556 2047 4556 
Q 2397 4556 2667 4514 
Q 2938 4472 3166 4384 
L 3166 3450 
Q 3053 3528 2920 3587 
Q 2788 3647 2647 3686 
Q 2506 3725 2367 3744 
Q 2228 3763 2103 3763 
Q 1931 3763 1790 3730 
Q 1650 3697 1553 3637 
Q 1456 3578 1403 3495 
Q 1350 3413 1350 3309 
Q 1350 3197 1409 3108 
Q 1469 3019 1578 2939 
Q 1688 2859 1844 2782 
Q 2000 2706 2197 2625 
Q 2466 2513 2680 2386 
Q 2894 2259 3047 2100 
Q 3200 1941 3281 1736 
Q 3363 1531 3363 1259 
Q 3363 884 3220 629 
Q 3078 375 2834 217 
Q 2591 59 2267 -9 
Q 1944 -78 1584 -78 
Q 1216 -78 883 -15 
Q 550 47 306 172 
z
" transform="scale(0.015625)"/>
     </defs>
     <use xlink:href="#SegoeUI-Bold-c1"/>
     <use xlink:href="#SegoeUI-Bold-4e" x="70.3125"/>
     <use xlink:href="#SegoeUI-Bold-47" x="149.316406"/>
     <use xlink:href="#SegoeUI-Bold-55" x="220.410156"/>
     <use xlink:href="#SegoeUI-Bold-4c" x="292.724609"/>
     <use xlink:href="#SegoeUI-Bold-4f" x="341.347656"/>
     <use xlink:href="#SegoeUI-Bold-20" x="417.177734"/>
     <use xlink:href="#SegoeUI-Bold-49" x="444.765625"/>
     <use xlink:href="#SegoeUI-Bold-4e" x="476.455078"/>
     <use xlink:href="#SegoeUI-Bold-53" x="555.458984"/>
     <use xlink:href="#SegoeUI-Bold-43" x="611.513672"/>
     <use xlink:href="#SegoeUI-Bold-52" x="673.916016"/>
     <use xlink:href="#SegoeUI-Bold-49" x="739.199219"/>
     <use xlink:href="#SegoeUI-Bold-54" x="770.888672"/>
     <use xlink:href="#SegoeUI-Bold-4f" x="825.732422"/>
    </g>
   </g>
  </g>
  <g id="axes_3">
   <g id="line2d_18">
    <path d="M 912.633395 182.004354 
L 912.453007 176.321724 
L 911.912566 170.661976 
L 911.01425 165.0479 
L 909.761677 159.502102 
L 908.159888 154.046912 
L 906.215335 148.704297 
L 903.935848 143.495769 
L 901.330605 138.442302 
L 898.410096 133.564244 
L 895.186081 128.881237 
L 891.671543 124.412138 
L 887.880633 120.174943 
L 883.828616 116.186713 
L 879.531807 112.463507 
L 875.00751 109.020318 
L 870.27394 105.87101 
L 865.350159 103.028264 
L 860.255994 100.503526 
L 855.011955 98.306964 
L 849.639161 96.447422 
L 844.159243 94.932387 
L 838.59427 93.76796 
L 832.966647 92.95883 
L 827.299037 92.508255 
L 821.614261 92.418049 
L 815.935208 92.688576 
L 810.284747 93.318746 
L 804.68563 94.306021 
L 799.160403 95.646427 
L 793.731314 97.334565 
L 788.420223 99.363639 
L 783.248517 101.725478 
L 778.237021 104.410571 
L 773.405914 107.408108 
L 768.774648 110.706017 
L 764.361874 114.291019 
L 760.185358 118.148679 
L 756.261919 122.263464 
L 752.607355 126.618803 
L 749.236382 131.197161 
L 746.162573 135.980102 
L 743.398305 140.948366 
L 740.954709 146.081947 
L 738.841625 151.360176 
L 737.067561 156.761798 
L 735.639661 162.265063 
L 734.563675 167.847811 
L 733.843935 173.487563 
L 733.483338 179.161608 
L 733.483338 184.8471 
L 733.843935 190.521146 
L 734.563675 196.160897 
L 735.639661 201.743646 
L 737.067561 207.24691 
L 738.841625 212.648532 
L 740.954709 217.926761 
L 743.398305 223.060343 
L 746.162573 228.028607 
L 749.236382 232.811547 
L 752.607355 237.389905 
L 756.261919 241.745245 
L 760.185358 245.860029 
L 764.361874 249.717689 
L 768.774648 253.302692 
L 773.405914 256.600601 
L 778.237021 259.598137 
L 783.248517 262.283231 
L 788.420223 264.64507 
L 793.731314 266.674143 
L 799.160403 268.362282 
L 804.68563 269.702688 
L 810.284747 270.689963 
L 815.935208 271.320133 
L 821.614261 271.590659 
L 827.299037 271.500453 
L 832.966647 271.049878 
L 838.59427 270.240749 
L 844.159243 269.076322 
L 849.639161 267.561287 
L 855.011955 265.701745 
L 860.255994 263.505182 
L 865.350159 260.980445 
L 870.27394 258.137699 
L 875.00751 254.988391 
L 879.531807 251.545201 
L 883.828616 247.821996 
L 887.880633 243.833766 
L 891.671543 239.59657 
L 895.186081 235.127472 
L 898.410096 230.444465 
L 901.330605 225.566407 
L 903.935848 220.51294 
L 906.215335 215.304412 
L 908.159888 209.961797 
L 909.761677 204.506607 
L 911.01425 198.960808 
L 911.912566 193.346732 
L 912.453007 187.686984 
L 912.633395 182.004354 
" clip-path="url(#p577958f67c)" style="fill: none; stroke: #374151; stroke-width: 2; stroke-linecap: square"/>
   </g>
   <g id="line2d_19">
    <g clip-path="url(#p577958f67c)">
     <use xlink:href="#m0e882bc18f" x="823.035813" y="182.004354" style="fill: #374151; stroke: #374151"/>
    </g>
   </g>
   <g id="line2d_20">
    <path d="M 733.43823 182.004354 
L 912.633395 182.004354 
" clip-path="url(#p577958f67c)" style="fill: none; stroke: #374151; stroke-width: 2; stroke-linecap: square"/>
   </g>
   <g id="line2d_21">
    <path d="M 867.834604 104.410571 
L 733.43823 182.004354 
" clip-path="url(#p577958f67c)" style="fill: none; stroke: #39c5bb; stroke-width: 2; stroke-linecap: square"/>
   </g>
   <g id="line2d_22">
    <path d="M 867.834604 104.410571 
L 912.633395 182.004354 
" clip-path="url(#p577958f67c)" style="fill: none; stroke: #39c5bb; stroke-width: 2; stroke-linecap: square"/>
   </g>
   <g id="line2d_23">
    <g clip-path="url(#p577958f67c)">
     <use xlink:href="#m2ca9c77698" x="733.43823" y="182.004354" style="fill: #e12885; stroke: #e12885"/>
    </g>
   </g>
   <g id="line2d_24">
    <g clip-path="url(#p577958f67c)">
     <use xlink:href="#m2ca9c77698" x="912.633395" y="182.004354" style="fill: #e12885; stroke: #e12885"/>
    </g>
   </g>
   <g id="line2d_25">
    <g clip-path="url(#p577958f67c)">
     <use xlink:href="#m5ebd65ffbb" x="867.834604" y="104.410571" style="fill: #1f2937; stroke: #1f2937"/>
    </g>
   </g>
   <g id="line2d_26">
    <path d="M 856.195537 111.13039 
L 862.915355 122.769458 
L 874.554423 116.049639 
" clip-path="url(#p577958f67c)" style="fill: none; stroke: #e12885; stroke-width: 1.5; stroke-linecap: square"/>
   </g>
   <g id="text_14">
    <!-- O -->
    <g style="fill: #374151" transform="translate(831.995571 195.443992) scale(0.1 -0.1)">
     <use xlink:href="#SegoeUI-4f"/>
    </g>
   </g>
   <g id="text_15">
    <!-- A -->
    <g style="fill: #2c2f33" transform="translate(715.518713 182.004354) scale(0.1 -0.1)">
     <use xlink:href="#SegoeUI-41"/>
    </g>
   </g>
   <g id="text_16">
    <!-- B -->
    <g style="fill: #2c2f33" transform="translate(921.593154 182.004354) scale(0.1 -0.1)">
     <use xlink:href="#SegoeUI-42"/>
    </g>
   </g>
   <g id="text_17">
    <!-- P -->
    <g style="fill: #2c2f33" transform="translate(876.794362 95.450813) scale(0.1 -0.1)">
     <use xlink:href="#SegoeUI-50"/>
    </g>
   </g>
   <g id="text_18">
    <!-- ∠APB = 90° -->
    <g style="fill: #4b5563" transform="translate(797.481906 316.400729) scale(0.1 -0.1)">
     <defs>
      <path id="SegoeUI-2220" d="M 519 0 
L 519 4369 
L 3613 4369 
L 3613 0 
L 519 0 
z
M 981 463 
L 3150 463 
L 3150 3906 
L 981 3906 
L 981 463 
z
" transform="scale(0.015625)"/>
      <path id="SegoeUI-39" d="M 3138 2509 
Q 3138 1894 3016 1414 
Q 2894 934 2659 601 
Q 2425 269 2087 95 
Q 1750 -78 1319 -78 
Q 875 -78 538 78 
L 538 569 
Q 909 359 1331 359 
Q 1634 359 1873 484 
Q 2113 609 2278 848 
Q 2444 1088 2531 1438 
Q 2619 1788 2619 2241 
L 2606 2241 
Q 2319 1663 1606 1663 
Q 1319 1663 1078 1764 
Q 838 1866 663 2052 
Q 488 2238 391 2494 
Q 294 2750 294 3059 
Q 294 3391 401 3666 
Q 509 3941 701 4139 
Q 894 4338 1158 4447 
Q 1422 4556 1734 4556 
Q 2072 4556 2333 4420 
Q 2594 4284 2772 4023 
Q 2950 3763 3044 3381 
Q 3138 3000 3138 2509 
z
M 2584 2969 
Q 2584 3228 2517 3440 
Q 2450 3653 2331 3804 
Q 2213 3956 2048 4039 
Q 1884 4122 1691 4122 
Q 1506 4122 1347 4048 
Q 1188 3975 1070 3842 
Q 953 3709 886 3526 
Q 819 3344 819 3128 
Q 819 2891 883 2703 
Q 947 2516 1065 2386 
Q 1184 2256 1351 2187 
Q 1519 2119 1722 2119 
Q 1900 2119 2058 2186 
Q 2216 2253 2333 2367 
Q 2450 2481 2517 2636 
Q 2584 2791 2584 2969 
z
" transform="scale(0.015625)"/>
      <path id="SegoeUI-30" d="M 3188 2259 
Q 3188 1697 3086 1262 
Q 2984 828 2792 529 
Q 2600 231 2320 76 
Q 2041 -78 1684 -78 
Q 1347 -78 1083 70 
Q 819 219 637 503 
Q 456 788 362 1202 
Q 269 1616 269 2150 
Q 269 2738 367 3188 
Q 466 3638 656 3942 
Q 847 4247 1130 4401 
Q 1413 4556 1778 4556 
Q 3188 4556 3188 2259 
z
M 2663 2209 
Q 2663 4122 1753 4122 
Q 794 4122 794 2175 
Q 794 359 1734 359 
Q 2663 359 2663 2209 
z
" transform="scale(0.015625)"/>
      <path id="SegoeUI-b0" d="M 1203 2803 
Q 844 2803 591 3058 
Q 338 3313 338 3675 
Q 338 4034 588 4282 
Q 838 4531 1197 4531 
Q 1559 4531 1814 4281 
Q 2069 4031 2069 3675 
Q 2069 3313 1816 3058 
Q 1563 2803 1203 2803 
z
M 1203 4166 
Q 1000 4166 856 4022 
Q 713 3878 713 3675 
Q 713 3466 853 3317 
Q 994 3169 1197 3169 
Q 1400 3169 1547 3319 
Q 1694 3469 1694 3675 
Q 1694 3881 1550 4023 
Q 1406 4166 1203 4166 
z
" transform="scale(0.015625)"/>
     </defs>
     <use xlink:href="#SegoeUI-2220"/>
     <use xlink:href="#SegoeUI-41" x="64.550781"/>
     <use xlink:href="#SegoeUI-50" x="129.052734"/>
     <use xlink:href="#SegoeUI-42" x="185.058594"/>
     <use xlink:href="#SegoeUI-20" x="242.382812"/>
     <use xlink:href="#SegoeUI-3d" x="269.775391"/>
     <use xlink:href="#SegoeUI-20" x="338.183594"/>
     <use xlink:href="#SegoeUI-39" x="365.576172"/>
     <use xlink:href="#SegoeUI-30" x="419.482422"/>
     <use xlink:href="#SegoeUI-b0" x="473.388672"/>
    </g>
   </g>
   <g id="text_19">
    <!-- (AB es diámetro) -->
    <g style="fill: #6b7280" transform="translate(790.888938 343.280003) scale(0.09 -0.09)">
     <defs>
      <path id="SegoeUI-Italic-28" d="M 2541 4481 
Q 2153 4100 1842 3694 
Q 1531 3288 1312 2853 
Q 1094 2419 975 1951 
Q 856 1484 856 978 
Q 856 728 889 473 
Q 922 219 987 -26 
Q 1053 -272 1147 -503 
Q 1241 -734 1363 -934 
L 922 -934 
Q 791 -728 692 -495 
Q 594 -263 528 -19 
Q 463 225 430 472 
Q 397 719 397 953 
Q 397 1494 512 1973 
Q 628 2453 840 2887 
Q 1053 3322 1358 3717 
Q 1663 4113 2041 4481 
L 2541 4481 
z
" transform="scale(0.015625)"/>
      <path id="SegoeUI-Italic-41" d="M 3122 0 
L 2919 1253 
L 1019 1253 
L 294 0 
L -325 0 
L 2344 4481 
L 2894 4481 
L 3675 0 
L 3122 0 
z
M 2547 3634 
Q 2544 3666 2542 3706 
Q 2541 3747 2541 3788 
Q 2541 3831 2541 3869 
Q 2541 3909 2541 3938 
L 2528 3938 
Q 2519 3909 2503 3870 
Q 2488 3831 2469 3789 
Q 2450 3747 2429 3706 
Q 2409 3666 2394 3634 
L 1288 1728 
L 2834 1728 
L 2547 3634 
z
" transform="scale(0.015625)"/>
      <path id="SegoeUI-Italic-42" d="M 3519 3513 
Q 3519 3303 3459 3111 
Q 3400 2919 3276 2762 
Q 3153 2606 2961 2492 
Q 2769 2378 2503 2328 
L 2503 2316 
Q 2697 2284 2842 2201 
Q 2988 2119 3084 2000 
Q 3181 1881 3229 1732 
Q 3278 1584 3278 1416 
Q 3278 1069 3151 805 
Q 3025 541 2800 362 
Q 2575 184 2267 92 
Q 1959 0 1600 0 
L 231 0 
L 1178 4481 
L 2413 4481 
Q 2681 4481 2887 4406 
Q 3094 4331 3234 4200 
Q 3375 4069 3447 3892 
Q 3519 3716 3519 3513 
z
M 2969 3413 
Q 2969 3531 2931 3637 
Q 2894 3744 2811 3826 
Q 2728 3909 2595 3957 
Q 2463 4006 2272 4006 
L 1619 4006 
L 1306 2559 
L 1894 2559 
Q 2163 2559 2364 2621 
Q 2566 2684 2698 2796 
Q 2831 2909 2897 3065 
Q 2963 3222 2963 3413 
L 2969 3413 
z
M 2725 1381 
Q 2725 1709 2497 1898 
Q 2269 2088 1797 2088 
L 1203 2088 
L 872 475 
L 1594 475 
Q 1888 475 2100 539 
Q 2313 603 2452 722 
Q 2591 841 2658 1008 
Q 2725 1175 2725 1381 
z
" transform="scale(0.015625)"/>
      <path id="SegoeUI-Italic-20" transform="scale(0.015625)"/>
      <path id="SegoeUI-Italic-65" d="M 2994 2450 
Q 2994 2197 2881 1989 
Q 2769 1781 2509 1632 
Q 2250 1484 1825 1403 
Q 1400 1322 775 1319 
Q 769 1284 769 1247 
Q 769 1213 769 1184 
Q 769 1016 816 866 
Q 863 716 961 603 
Q 1059 491 1214 425 
Q 1369 359 1581 359 
Q 1797 359 2055 442 
Q 2313 525 2547 678 
L 2450 172 
Q 2278 72 2040 -3 
Q 1803 -78 1509 -78 
Q 1156 -78 914 31 
Q 672 141 523 323 
Q 375 506 309 745 
Q 244 984 244 1247 
Q 244 1528 306 1789 
Q 369 2050 483 2275 
Q 597 2500 756 2686 
Q 916 2872 1109 3003 
Q 1303 3134 1525 3206 
Q 1747 3278 1984 3278 
Q 2231 3278 2420 3212 
Q 2609 3147 2736 3033 
Q 2863 2919 2928 2769 
Q 2994 2619 2994 2450 
z
M 2472 2425 
Q 2472 2622 2326 2731 
Q 2181 2841 1941 2841 
Q 1750 2841 1572 2758 
Q 1394 2675 1244 2529 
Q 1094 2384 984 2182 
Q 875 1981 825 1747 
Q 1272 1747 1584 1792 
Q 1897 1838 2094 1925 
Q 2291 2013 2381 2139 
Q 2472 2266 2472 2425 
z
" transform="scale(0.015625)"/>
      <path id="SegoeUI-Italic-73" d="M 2266 2638 
Q 2125 2728 1950 2784 
Q 1775 2841 1600 2841 
Q 1306 2841 1145 2706 
Q 984 2572 984 2350 
Q 984 2259 1014 2184 
Q 1044 2109 1101 2042 
Q 1159 1975 1248 1912 
Q 1338 1850 1453 1778 
Q 1803 1575 1958 1361 
Q 2113 1147 2113 878 
Q 2113 697 2045 523 
Q 1978 350 1831 217 
Q 1684 84 1451 3 
Q 1219 -78 884 -78 
Q 791 -78 678 -65 
Q 566 -53 452 -28 
Q 338 -3 233 33 
Q 128 69 50 116 
L 153 603 
Q 216 559 308 515 
Q 400 472 508 437 
Q 616 403 733 381 
Q 850 359 966 359 
Q 1278 359 1433 484 
Q 1588 609 1588 831 
Q 1588 913 1564 981 
Q 1541 1050 1481 1119 
Q 1422 1188 1325 1258 
Q 1228 1328 1081 1416 
Q 763 1609 611 1820 
Q 459 2031 459 2297 
Q 459 2491 531 2667 
Q 603 2844 745 2980 
Q 888 3116 1103 3197 
Q 1319 3278 1606 3278 
Q 1831 3278 2032 3234 
Q 2234 3191 2375 3122 
L 2266 2638 
z
" transform="scale(0.015625)"/>
      <path id="SegoeUI-Italic-64" d="M 2816 984 
Q 2794 884 2773 743 
Q 2753 603 2737 461 
Q 2722 319 2711 194 
Q 2700 69 2700 0 
L 2169 0 
Q 2169 53 2176 142 
Q 2184 231 2195 328 
Q 2206 425 2218 514 
Q 2231 603 2241 659 
L 2228 659 
Q 2116 478 2003 339 
Q 1891 200 1766 108 
Q 1641 16 1500 -31 
Q 1359 -78 1191 -78 
Q 972 -78 797 0 
Q 622 78 498 229 
Q 375 381 309 604 
Q 244 828 244 1119 
Q 244 1350 292 1600 
Q 341 1850 442 2090 
Q 544 2331 700 2547 
Q 856 2763 1072 2925 
Q 1288 3088 1566 3183 
Q 1844 3278 2188 3278 
Q 2363 3278 2513 3254 
Q 2663 3231 2772 3206 
L 3097 4738 
L 3603 4738 
L 2816 984 
z
M 2681 2766 
Q 2563 2800 2433 2820 
Q 2303 2841 2156 2841 
Q 1884 2841 1676 2756 
Q 1469 2672 1314 2531 
Q 1159 2391 1054 2211 
Q 950 2031 886 1842 
Q 822 1653 795 1470 
Q 769 1288 769 1141 
Q 769 966 798 822 
Q 828 678 895 575 
Q 963 472 1069 415 
Q 1175 359 1325 359 
Q 1481 359 1617 425 
Q 1753 491 1872 603 
Q 1991 716 2087 862 
Q 2184 1009 2262 1175 
Q 2341 1341 2395 1511 
Q 2450 1681 2484 1838 
L 2681 2766 
z
" transform="scale(0.015625)"/>
      <path id="SegoeUI-Italic-69" d="M 1300 13 
Q 1222 -13 1123 -28 
Q 1025 -44 928 -44 
Q 613 -44 456 114 
Q 300 272 300 538 
Q 300 616 315 722 
Q 331 828 366 984 
L 831 3200 
L 1350 3200 
L 881 972 
Q 853 841 842 769 
Q 831 697 831 647 
Q 831 519 901 451 
Q 972 384 1125 384 
Q 1206 384 1267 393 
Q 1328 403 1381 422 
L 1300 13 
z
M 1666 4341 
Q 1666 4200 1570 4100 
Q 1475 4000 1334 4000 
Q 1197 4000 1095 4098 
Q 994 4197 994 4341 
Q 994 4484 1095 4575 
Q 1197 4666 1334 4666 
Q 1472 4666 1569 4573 
Q 1666 4481 1666 4341 
z
" transform="scale(0.015625)"/>
      <path id="SegoeUI-Italic-e1" d="M 2828 1025 
Q 2803 906 2779 757 
Q 2756 609 2739 464 
Q 2722 319 2711 194 
Q 2700 69 2700 0 
L 2169 0 
Q 2172 63 2178 150 
Q 2184 238 2195 331 
Q 2206 425 2217 515 
Q 2228 606 2241 672 
L 2228 672 
Q 2131 519 2031 383 
Q 1931 247 1809 144 
Q 1688 41 1538 -18 
Q 1388 -78 1184 -78 
Q 975 -78 801 -3 
Q 628 72 503 220 
Q 378 369 311 592 
Q 244 816 244 1113 
Q 244 1294 281 1525 
Q 319 1756 408 1997 
Q 497 2238 645 2467 
Q 794 2697 1014 2878 
Q 1234 3059 1534 3168 
Q 1834 3278 2228 3278 
Q 2478 3278 2743 3240 
Q 3009 3203 3272 3150 
L 2828 1025 
z
M 2681 2778 
Q 2572 2803 2425 2822 
Q 2278 2841 2150 2841 
Q 1878 2841 1670 2755 
Q 1463 2669 1309 2530 
Q 1156 2391 1051 2209 
Q 947 2028 884 1839 
Q 822 1650 795 1465 
Q 769 1281 769 1131 
Q 769 953 800 811 
Q 831 669 898 569 
Q 966 469 1070 414 
Q 1175 359 1319 359 
Q 1475 359 1611 423 
Q 1747 488 1865 597 
Q 1984 706 2081 850 
Q 2178 994 2256 1155 
Q 2334 1316 2389 1483 
Q 2444 1650 2478 1806 
L 2681 2778 
z
M 2182 3809 
L 1798 3809 
L 2701 4831 
L 3204 4831 
L 2182 3809 
z
" transform="scale(0.015625)"/>
      <path id="SegoeUI-Italic-6d" d="M 5166 2394 
Q 5166 2353 5155 2270 
Q 5144 2188 5126 2094 
Q 5109 2000 5092 1908 
Q 5075 1816 5063 1753 
L 4684 0 
L 4172 0 
L 4563 1875 
Q 4575 1928 4587 1993 
Q 4600 2059 4611 2123 
Q 4622 2188 4628 2242 
Q 4634 2297 4634 2328 
Q 4634 2575 4528 2708 
Q 4422 2841 4197 2841 
Q 4078 2841 3951 2786 
Q 3825 2731 3704 2637 
Q 3584 2544 3473 2419 
Q 3363 2294 3270 2151 
Q 3178 2009 3112 1861 
Q 3047 1713 3016 1569 
L 2681 0 
L 2163 0 
L 2559 1875 
Q 2572 1928 2584 1993 
Q 2597 2059 2608 2123 
Q 2619 2188 2625 2242 
Q 2631 2297 2631 2328 
Q 2631 2575 2522 2708 
Q 2413 2841 2194 2841 
Q 2072 2841 1944 2786 
Q 1816 2731 1694 2636 
Q 1572 2541 1461 2414 
Q 1350 2288 1258 2145 
Q 1166 2003 1102 1854 
Q 1038 1706 1006 1563 
L 672 0 
L 153 0 
L 647 2284 
Q 672 2406 697 2539 
Q 722 2672 744 2795 
Q 766 2919 781 3025 
Q 797 3131 806 3200 
L 1306 3200 
Q 1291 3078 1269 2945 
Q 1247 2813 1231 2700 
Q 1213 2569 1191 2444 
L 1203 2444 
Q 1316 2625 1447 2778 
Q 1578 2931 1725 3042 
Q 1872 3153 2031 3215 
Q 2191 3278 2363 3278 
Q 2563 3278 2706 3218 
Q 2850 3159 2945 3051 
Q 3041 2944 3091 2791 
Q 3141 2638 3150 2450 
Q 3266 2625 3398 2776 
Q 3531 2928 3682 3039 
Q 3834 3150 4004 3214 
Q 4175 3278 4366 3278 
Q 4766 3278 4966 3045 
Q 5166 2813 5166 2394 
z
" transform="scale(0.015625)"/>
      <path id="SegoeUI-Italic-74" d="M 2156 2766 
L 1350 2766 
L 991 1069 
Q 972 972 953 859 
Q 934 747 934 678 
Q 934 519 1004 448 
Q 1075 378 1228 378 
Q 1266 378 1325 390 
Q 1384 403 1446 422 
Q 1509 441 1570 464 
Q 1631 488 1678 506 
L 1581 56 
Q 1472 9 1333 -23 
Q 1194 -56 1069 -56 
Q 891 -56 766 -11 
Q 641 34 561 118 
Q 481 203 445 323 
Q 409 444 409 594 
Q 409 684 426 804 
Q 444 925 469 1025 
L 838 2766 
L 306 2766 
L 403 3200 
L 928 3200 
L 1094 3981 
Q 1106 3988 1189 4011 
Q 1272 4034 1370 4064 
Q 1469 4094 1551 4119 
Q 1634 4144 1644 4147 
L 1447 3200 
L 2253 3200 
L 2156 2766 
z
" transform="scale(0.015625)"/>
      <path id="SegoeUI-Italic-72" d="M 2394 2656 
L 2381 2656 
Q 2319 2694 2217 2730 
Q 2116 2766 2016 2766 
Q 1834 2766 1668 2648 
Q 1503 2531 1367 2339 
Q 1231 2147 1129 1900 
Q 1028 1653 972 1394 
L 672 0 
L 159 0 
L 609 2125 
Q 638 2256 666 2400 
Q 694 2544 717 2687 
Q 741 2831 759 2962 
Q 778 3094 788 3200 
L 1294 3200 
Q 1284 3106 1271 3001 
Q 1259 2897 1246 2798 
Q 1234 2700 1221 2620 
Q 1209 2541 1203 2497 
L 1216 2497 
Q 1316 2675 1419 2819 
Q 1522 2963 1636 3064 
Q 1750 3166 1878 3222 
Q 2006 3278 2156 3278 
Q 2244 3278 2330 3261 
Q 2416 3244 2484 3225 
L 2394 2656 
z
" transform="scale(0.015625)"/>
      <path id="SegoeUI-Italic-6f" d="M 3181 2016 
Q 3181 1591 3061 1209 
Q 2941 828 2714 542 
Q 2488 256 2164 89 
Q 1841 -78 1434 -78 
Q 1159 -78 939 9 
Q 719 97 564 261 
Q 409 425 326 658 
Q 244 891 244 1184 
Q 244 1625 370 2008 
Q 497 2391 726 2673 
Q 956 2956 1276 3117 
Q 1597 3278 1984 3278 
Q 2256 3278 2476 3190 
Q 2697 3103 2853 2939 
Q 3009 2775 3095 2542 
Q 3181 2309 3181 2016 
z
M 2656 1991 
Q 2656 2194 2606 2351 
Q 2556 2509 2465 2617 
Q 2375 2725 2247 2783 
Q 2119 2841 1959 2841 
Q 1684 2841 1462 2700 
Q 1241 2559 1087 2329 
Q 934 2100 851 1808 
Q 769 1516 769 1209 
Q 769 1016 817 858 
Q 866 700 955 589 
Q 1044 478 1173 418 
Q 1303 359 1466 359 
Q 1744 359 1966 498 
Q 2188 638 2341 867 
Q 2494 1097 2575 1390 
Q 2656 1684 2656 1991 
z
" transform="scale(0.015625)"/>
      <path id="SegoeUI-Italic-29" d="M 1575 2591 
Q 1575 2053 1459 1572 
Q 1344 1091 1130 658 
Q 916 225 611 -170 
Q 306 -566 -72 -934 
L -575 -934 
Q -188 -553 125 -148 
Q 438 256 656 690 
Q 875 1125 994 1592 
Q 1113 2059 1113 2566 
Q 1113 2816 1080 3069 
Q 1047 3322 983 3569 
Q 919 3816 825 4047 
Q 731 4278 609 4481 
L 1044 4481 
Q 1175 4272 1275 4037 
Q 1375 3803 1440 3559 
Q 1506 3316 1540 3070 
Q 1575 2825 1575 2591 
z
" transform="scale(0.015625)"/>
     </defs>
     <use xlink:href="#SegoeUI-Italic-28"/>
     <use xlink:href="#SegoeUI-Italic-41" x="30.419922"/>
     <use xlink:href="#SegoeUI-Italic-42" x="93.603516"/>
     <use xlink:href="#SegoeUI-Italic-20" x="150.927734"/>
     <use xlink:href="#SegoeUI-Italic-65" x="178.417969"/>
     <use xlink:href="#SegoeUI-Italic-73" x="227.099609"/>
     <use xlink:href="#SegoeUI-Italic-20" x="266.601562"/>
     <use xlink:href="#SegoeUI-Italic-64" x="294.091797"/>
     <use xlink:href="#SegoeUI-Italic-69" x="348.291016"/>
     <use xlink:href="#SegoeUI-Italic-e1" x="374.169922"/>
     <use xlink:href="#SegoeUI-Italic-6d" x="428.369141"/>
     <use xlink:href="#SegoeUI-Italic-65" x="514.160156"/>
     <use xlink:href="#SegoeUI-Italic-74" x="562.841797"/>
     <use xlink:href="#SegoeUI-Italic-72" x="595.166016"/>
     <use xlink:href="#SegoeUI-Italic-6f" x="630.414062"/>
     <use xlink:href="#SegoeUI-Italic-29" x="683.929688"/>
    </g>
   </g>
   <g id="text_20">
    <!-- ÁNGULO EN SEMICÍRCULO -->
    <g style="fill: #2c2f33" transform="translate(753.801984 37.60798) scale(0.11 -0.11)">
     <defs>
      <path id="SegoeUI-Bold-4d" d="M 5619 0 
L 4622 0 
L 4622 2681 
Q 4622 3116 4659 3641 
L 4634 3641 
Q 4556 3228 4494 3047 
L 3444 0 
L 2619 0 
L 1550 3016 
Q 1506 3138 1409 3641 
L 1381 3641 
Q 1422 2978 1422 2478 
L 1422 0 
L 513 0 
L 513 4481 
L 1991 4481 
L 2906 1825 
Q 3016 1506 3066 1184 
L 3084 1184 
Q 3169 1556 3263 1831 
L 4178 4481 
L 5619 4481 
L 5619 0 
z
" transform="scale(0.015625)"/>
      <path id="SegoeUI-Bold-cd" d="M 1522 0 
L 513 0 
L 513 4481 
L 1522 4481 
L 1522 0 
z
M 2031 5932 
L 1052 4922 
L 340 4922 
L 1152 5932 
L 2031 5932 
z
" transform="scale(0.015625)"/>
     </defs>
     <use xlink:href="#SegoeUI-Bold-c1"/>
     <use xlink:href="#SegoeUI-Bold-4e" x="70.3125"/>
     <use xlink:href="#SegoeUI-Bold-47" x="149.316406"/>
     <use xlink:href="#SegoeUI-Bold-55" x="220.410156"/>
     <use xlink:href="#SegoeUI-Bold-4c" x="292.724609"/>
     <use xlink:href="#SegoeUI-Bold-4f" x="341.347656"/>
     <use xlink:href="#SegoeUI-Bold-20" x="417.177734"/>
     <use xlink:href="#SegoeUI-Bold-45" x="444.765625"/>
     <use xlink:href="#SegoeUI-Bold-4e" x="497.988281"/>
     <use xlink:href="#SegoeUI-Bold-20" x="576.992188"/>
     <use xlink:href="#SegoeUI-Bold-53" x="604.580078"/>
     <use xlink:href="#SegoeUI-Bold-45" x="660.634766"/>
     <use xlink:href="#SegoeUI-Bold-4d" x="713.857422"/>
     <use xlink:href="#SegoeUI-Bold-49" x="809.560547"/>
     <use xlink:href="#SegoeUI-Bold-43" x="841.25"/>
     <use xlink:href="#SegoeUI-Bold-cd" x="903.652344"/>
     <use xlink:href="#SegoeUI-Bold-52" x="935.341797"/>
     <use xlink:href="#SegoeUI-Bold-43" x="999.625"/>
     <use xlink:href="#SegoeUI-Bold-55" x="1062.027344"/>
     <use xlink:href="#SegoeUI-Bold-4c" x="1134.341797"/>
     <use xlink:href="#SegoeUI-Bold-4f" x="1182.964844"/>
    </g>
   </g>
  </g>
  <g id="text_21">
   <!-- Ángulos en la Circunferencia -->
   <g style="fill: #2c2f33" transform="translate(392.829723 20.17625) scale(0.14 -0.14)">
    <defs>
     <path id="SegoeUI-Bold-6e" d="M 3506 0 
L 2522 0 
L 2522 1778 
Q 2522 2522 1991 2522 
Q 1734 2522 1568 2325 
Q 1403 2128 1403 1825 
L 1403 0 
L 416 0 
L 416 3200 
L 1403 3200 
L 1403 2694 
L 1416 2694 
Q 1769 3278 2444 3278 
Q 3506 3278 3506 1959 
L 3506 0 
z
" transform="scale(0.015625)"/>
     <path id="SegoeUI-Bold-67" d="M 3553 366 
Q 3553 -525 3037 -1014 
Q 2522 -1503 1544 -1503 
Q 897 -1503 519 -1319 
L 519 -488 
Q 1013 -775 1516 -775 
Q 2016 -775 2291 -511 
Q 2566 -247 2566 206 
L 2566 459 
L 2553 459 
Q 2216 -78 1556 -78 
Q 944 -78 584 353 
Q 225 784 225 1509 
Q 225 2322 625 2800 
Q 1025 3278 1678 3278 
Q 2263 3278 2553 2828 
L 2566 2828 
L 2566 3200 
L 3553 3200 
L 3553 366 
z
M 2578 1538 
L 2578 1791 
Q 2578 2094 2398 2308 
Q 2219 2522 1931 2522 
Q 1603 2522 1415 2265 
Q 1228 2009 1228 1544 
Q 1228 1144 1406 911 
Q 1584 678 1894 678 
Q 2200 678 2389 914 
Q 2578 1150 2578 1538 
z
" transform="scale(0.015625)"/>
     <path id="SegoeUI-Bold-75" d="M 3456 0 
L 2472 0 
L 2472 488 
L 2456 488 
Q 2091 -78 1478 -78 
Q 366 -78 366 1269 
L 366 3200 
L 1350 3200 
L 1350 1356 
Q 1350 678 1888 678 
Q 2153 678 2312 864 
Q 2472 1050 2472 1369 
L 2472 3200 
L 3456 3200 
L 3456 0 
z
" transform="scale(0.015625)"/>
     <path id="SegoeUI-Bold-6c" d="M 1403 0 
L 416 0 
L 416 4738 
L 1403 4738 
L 1403 0 
z
" transform="scale(0.015625)"/>
     <path id="SegoeUI-Bold-6f" d="M 1941 -78 
Q 1141 -78 683 370 
Q 225 819 225 1588 
Q 225 2381 700 2829 
Q 1175 3278 1984 3278 
Q 2781 3278 3234 2829 
Q 3688 2381 3688 1644 
Q 3688 847 3220 384 
Q 2753 -78 1941 -78 
z
M 1966 2522 
Q 1616 2522 1422 2281 
Q 1228 2041 1228 1600 
Q 1228 678 1972 678 
Q 2681 678 2681 1625 
Q 2681 2522 1966 2522 
z
" transform="scale(0.015625)"/>
     <path id="SegoeUI-Bold-73" d="M 206 84 
L 206 884 
Q 450 738 692 666 
Q 934 594 1150 594 
Q 1413 594 1564 666 
Q 1716 738 1716 884 
Q 1716 978 1647 1040 
Q 1578 1103 1470 1150 
Q 1363 1197 1234 1234 
Q 1106 1272 988 1319 
Q 797 1391 651 1473 
Q 506 1556 407 1665 
Q 309 1775 257 1919 
Q 206 2063 206 2259 
Q 206 2528 323 2722 
Q 441 2916 636 3039 
Q 831 3163 1082 3220 
Q 1334 3278 1606 3278 
Q 1819 3278 2037 3245 
Q 2256 3213 2469 3150 
L 2469 2388 
Q 2281 2497 2067 2551 
Q 1853 2606 1647 2606 
Q 1550 2606 1464 2589 
Q 1378 2572 1312 2539 
Q 1247 2506 1209 2454 
Q 1172 2403 1172 2338 
Q 1172 2250 1228 2187 
Q 1284 2125 1375 2079 
Q 1466 2034 1577 1998 
Q 1688 1963 1797 1925 
Q 1994 1856 2153 1775 
Q 2313 1694 2427 1584 
Q 2541 1475 2602 1328 
Q 2663 1181 2663 978 
Q 2663 694 2539 492 
Q 2416 291 2211 164 
Q 2006 38 1739 -20 
Q 1472 -78 1184 -78 
Q 656 -78 206 84 
z
" transform="scale(0.015625)"/>
     <path id="SegoeUI-Bold-65" d="M 3291 1319 
L 1203 1319 
Q 1253 622 2081 622 
Q 2609 622 3009 872 
L 3009 159 
Q 2566 -78 1856 -78 
Q 1081 -78 653 351 
Q 225 781 225 1550 
Q 225 2347 687 2812 
Q 1150 3278 1825 3278 
Q 2525 3278 2908 2862 
Q 3291 2447 3291 1734 
L 3291 1319 
z
M 2375 1925 
Q 2375 2613 1819 2613 
Q 1581 2613 1407 2416 
Q 1234 2219 1197 1925 
L 2375 1925 
z
" transform="scale(0.015625)"/>
     <path id="SegoeUI-Bold-61" d="M 3078 0 
L 2144 0 
L 2144 459 
L 2131 459 
Q 1809 -78 1178 -78 
Q 713 -78 445 186 
Q 178 450 178 891 
Q 178 1822 1281 1966 
L 2150 2081 
Q 2150 2606 1581 2606 
Q 1009 2606 494 2266 
L 494 3009 
Q 700 3116 1058 3197 
Q 1416 3278 1709 3278 
Q 3078 3278 3078 1913 
L 3078 0 
z
M 2150 1300 
L 2150 1516 
L 1569 1441 
Q 1088 1378 1088 1006 
Q 1088 838 1205 730 
Q 1322 622 1522 622 
Q 1800 622 1975 814 
Q 2150 1006 2150 1300 
z
" transform="scale(0.015625)"/>
     <path id="SegoeUI-Bold-69" d="M 916 3706 
Q 666 3706 506 3854 
Q 347 4003 347 4219 
Q 347 4441 506 4581 
Q 666 4722 916 4722 
Q 1169 4722 1326 4581 
Q 1484 4441 1484 4219 
Q 1484 3994 1326 3850 
Q 1169 3706 916 3706 
z
M 1403 0 
L 416 0 
L 416 3200 
L 1403 3200 
L 1403 0 
z
" transform="scale(0.015625)"/>
     <path id="SegoeUI-Bold-72" d="M 2503 2309 
Q 2325 2406 2088 2406 
Q 1766 2406 1584 2170 
Q 1403 1934 1403 1528 
L 1403 0 
L 416 0 
L 416 3200 
L 1403 3200 
L 1403 2606 
L 1416 2606 
Q 1650 3256 2259 3256 
Q 2416 3256 2503 3219 
L 2503 2309 
z
" transform="scale(0.015625)"/>
     <path id="SegoeUI-Bold-63" d="M 2841 116 
Q 2506 -78 1875 -78 
Q 1138 -78 681 369 
Q 225 816 225 1522 
Q 225 2338 714 2808 
Q 1203 3278 2022 3278 
Q 2588 3278 2841 3128 
L 2841 2291 
Q 2531 2522 2150 2522 
Q 1725 2522 1476 2273 
Q 1228 2025 1228 1588 
Q 1228 1163 1465 920 
Q 1703 678 2119 678 
Q 2488 678 2841 909 
L 2841 116 
z
" transform="scale(0.015625)"/>
     <path id="SegoeUI-Bold-66" d="M 2503 3981 
Q 2313 4056 2138 4056 
Q 1663 4056 1663 3541 
L 1663 3200 
L 2394 3200 
L 2394 2472 
L 1663 2472 
L 1663 0 
L 678 0 
L 678 2472 
L 141 2472 
L 141 3200 
L 678 3200 
L 678 3597 
Q 678 4144 1034 4478 
Q 1391 4813 2003 4813 
Q 2303 4813 2503 4750 
L 2503 3981 
z
" transform="scale(0.015625)"/>
    </defs>
    <use xlink:href="#SegoeUI-Bold-c1"/>
    <use xlink:href="#SegoeUI-Bold-6e" x="70.3125"/>
    <use xlink:href="#SegoeUI-Bold-67" x="130.810547"/>
    <use xlink:href="#SegoeUI-Bold-75" x="192.724609"/>
    <use xlink:href="#SegoeUI-Bold-6c" x="253.222656"/>
    <use xlink:href="#SegoeUI-Bold-6f" x="281.640625"/>
    <use xlink:href="#SegoeUI-Bold-73" x="342.773438"/>
    <use xlink:href="#SegoeUI-Bold-20" x="386.767578"/>
    <use xlink:href="#SegoeUI-Bold-65" x="414.355469"/>
    <use xlink:href="#SegoeUI-Bold-6e" x="468.457031"/>
    <use xlink:href="#SegoeUI-Bold-20" x="528.955078"/>
    <use xlink:href="#SegoeUI-Bold-6c" x="556.542969"/>
    <use xlink:href="#SegoeUI-Bold-61" x="584.960938"/>
    <use xlink:href="#SegoeUI-Bold-20" x="638.769531"/>
    <use xlink:href="#SegoeUI-Bold-43" x="666.357422"/>
    <use xlink:href="#SegoeUI-Bold-69" x="728.759766"/>
    <use xlink:href="#SegoeUI-Bold-72" x="757.177734"/>
    <use xlink:href="#SegoeUI-Bold-63" x="796.597656"/>
    <use xlink:href="#SegoeUI-Bold-75" x="844.595703"/>
    <use xlink:href="#SegoeUI-Bold-6e" x="905.09375"/>
    <use xlink:href="#SegoeUI-Bold-66" x="965.591797"/>
    <use xlink:href="#SegoeUI-Bold-65" x="1003.921875"/>
    <use xlink:href="#SegoeUI-Bold-72" x="1058.023438"/>
    <use xlink:href="#SegoeUI-Bold-65" x="1097.443359"/>
    <use xlink:href="#SegoeUI-Bold-6e" x="1151.544922"/>
    <use xlink:href="#SegoeUI-Bold-63" x="1212.042969"/>
    <use xlink:href="#SegoeUI-Bold-69" x="1260.041016"/>
    <use xlink:href="#SegoeUI-Bold-61" x="1288.458984"/>
   </g>
  </g>
 </g>
 <defs>
  <clipPath id="pe59942cd0e">
   <rect x="7.2" y="47.60798" width="286.712265" height="313.59154"/>
  </clipPath>
  <clipPath id="pd11c363d68">
   <rect x="343.43984" y="47.60798" width="286.712265" height="313.59154"/>
  </clipPath>
  <clipPath id="p577958f67c">
   <rect x="679.67968" y="47.60798" width="286.712265" height="313.59154"/>
  </clipPath>
 </defs>
</svg>
