<?xml version="1.0" encoding="utf-8" standalone="no"?>
<!DOCTYPE svg PUBLIC "-//W3C//DTD SVG 1.1//EN"
  "http://www.w3.org/Graphics/SVG/1.1/DTD/svg11.dtd">
<svg xmlns:xlink="http://www.w3.org/1999/xlink" width="944.39952pt" height="728.39952pt" viewBox="0 0 944.39952 728.39952" xmlns="http://www.w3.org/2000/svg" version="1.1">
 <metadata>
  <rdf:RDF xmlns:dc="http://purl.org/dc/elements/1.1/" xmlns:cc="http://creativecommons.org/ns#" xmlns:rdf="http://www.w3.org/1999/02/22-rdf-syntax-ns#">
   <cc:Work>
    <dc:type rdf:resource="http://purl.org/dc/dcmitype/StillImage"/>
    <dc:date>2026-04-11T16:11:38.696270</dc:date>
    <dc:format>image/svg+xml</dc:format>
    <dc:creator>
     <cc:Agent>
      <dc:title>Matplotlib v3.8.4, https://matplotlib.org/</dc:title>
     </cc:Agent>
    </dc:creator>
   </cc:Work>
  </rdf:RDF>
 </metadata>
 <defs>
  <style type="text/css">*{stroke-linejoin: round; stroke-linecap: butt}</style>
 </defs>
 <g id="figure_1">
  <g id="patch_1">
   <path d="M 0 728.39952 
L 944.39952 728.39952 
L 944.39952 0 
L 0 0 
z
" style="fill: #ffffff"/>
  </g>
  <g id="axes_1">
   <g id="patch_2">
    <path d="M 409.09265 131.908286 
L 535.30687 131.908286 
Q 548.592578 131.908286 548.592578 118.622579 
L 548.592578 102.015444 
Q 548.592578 88.729737 535.30687 88.729737 
L 409.09265 88.729737 
Q 395.806942 88.729737 395.806942 102.015444 
L 395.806942 118.622579 
Q 395.806942 131.908286 409.09265 131.908286 
z
" clip-path="url(#p2d79b470fd)" style="fill: #39c5bb; opacity: 0.15; stroke: #2c2f33; stroke-width: 2; stroke-linejoin: miter"/>
   </g>
   <g id="patch_3">
    <path d="M 409.09265 131.908286 
L 535.30687 131.908286 
Q 548.592578 131.908286 548.592578 118.622579 
L 548.592578 102.015444 
Q 548.592578 88.729737 535.30687 88.729737 
L 409.09265 88.729737 
Q 395.806942 88.729737 395.806942 102.015444 
L 395.806942 118.622579 
Q 395.806942 131.908286 409.09265 131.908286 
L 409.09265 131.908286 
z
" clip-path="url(#p2d79b470fd)" style="fill: none; opacity: 0.8; stroke: #39c5bb; stroke-width: 2; stroke-linejoin: miter"/>
   </g>
   <g id="patch_4">
    <path d="M 209.807038 231.551092 
L 336.021259 231.551092 
Q 349.306966 231.551092 349.306966 218.265384 
L 349.306966 201.65825 
Q 349.306966 188.372543 336.021259 188.372543 
L 209.807038 188.372543 
Q 196.521331 188.372543 196.521331 201.65825 
L 196.521331 218.265384 
Q 196.521331 231.551092 209.807038 231.551092 
z
" clip-path="url(#p2d79b470fd)" style="fill: #39c5bb; opacity: 0.15; stroke: #2c2f33; stroke-width: 2; stroke-linejoin: miter"/>
   </g>
   <g id="patch_5">
    <path d="M 209.807038 231.551092 
L 336.021259 231.551092 
Q 349.306966 231.551092 349.306966 218.265384 
L 349.306966 201.65825 
Q 349.306966 188.372543 336.021259 188.372543 
L 209.807038 188.372543 
Q 196.521331 188.372543 196.521331 201.65825 
L 196.521331 218.265384 
Q 196.521331 231.551092 209.807038 231.551092 
L 209.807038 231.551092 
z
" clip-path="url(#p2d79b470fd)" style="fill: none; opacity: 0.8; stroke: #39c5bb; stroke-width: 2; stroke-linejoin: miter"/>
   </g>
   <g id="patch_6">
    <path d="M 608.378261 231.551092 
L 734.592482 231.551092 
Q 747.878189 231.551092 747.878189 218.265384 
L 747.878189 201.65825 
Q 747.878189 188.372543 734.592482 188.372543 
L 608.378261 188.372543 
Q 595.092554 188.372543 595.092554 201.65825 
L 595.092554 218.265384 
Q 595.092554 231.551092 608.378261 231.551092 
z
" clip-path="url(#p2d79b470fd)" style="fill: #4b5563; opacity: 0.15; stroke: #2c2f33; stroke-width: 2; stroke-linejoin: miter"/>
   </g>
   <g id="patch_7">
    <path d="M 608.378261 231.551092 
L 734.592482 231.551092 
Q 747.878189 231.551092 747.878189 218.265384 
L 747.878189 201.65825 
Q 747.878189 188.372543 734.592482 188.372543 
L 608.378261 188.372543 
Q 595.092554 188.372543 595.092554 201.65825 
L 595.092554 218.265384 
Q 595.092554 231.551092 608.378261 231.551092 
L 608.378261 231.551092 
z
" clip-path="url(#p2d79b470fd)" style="fill: none; opacity: 0.8; stroke: #4b5563; stroke-width: 2; stroke-linejoin: miter"/>
   </g>
   <g id="patch_8">
    <path d="M 90.235671 331.193898 
L 216.449892 331.193898 
Q 229.735599 331.193898 229.735599 317.90819 
L 229.735599 301.301056 
Q 229.735599 288.015348 216.449892 288.015348 
L 90.235671 288.015348 
Q 76.949964 288.015348 76.949964 301.301056 
L 76.949964 317.90819 
Q 76.949964 331.193898 90.235671 331.193898 
z
" clip-path="url(#p2d79b470fd)" style="fill: #1f2937; opacity: 0.2; stroke: #2c2f33; stroke-width: 2; stroke-linejoin: miter"/>
   </g>
   <g id="patch_9">
    <path d="M 90.235671 331.193898 
L 216.449892 331.193898 
Q 229.735599 331.193898 229.735599 317.90819 
L 229.735599 301.301056 
Q 229.735599 288.015348 216.449892 288.015348 
L 90.235671 288.015348 
Q 76.949964 288.015348 76.949964 301.301056 
L 76.949964 317.90819 
Q 76.949964 331.193898 90.235671 331.193898 
L 90.235671 331.193898 
z
" clip-path="url(#p2d79b470fd)" style="fill: none; opacity: 0.8; stroke: #1f2937; stroke-width: 2; stroke-linejoin: miter"/>
   </g>
   <g id="patch_10">
    <path d="M 309.449844 331.193898 
L 435.664065 331.193898 
Q 448.949772 331.193898 448.949772 317.90819 
L 448.949772 301.301056 
Q 448.949772 288.015348 435.664065 288.015348 
L 309.449844 288.015348 
Q 296.164137 288.015348 296.164137 301.301056 
L 296.164137 317.90819 
Q 296.164137 331.193898 309.449844 331.193898 
z
" clip-path="url(#p2d79b470fd)" style="fill: #1f2937; opacity: 0.2; stroke: #2c2f33; stroke-width: 2; stroke-linejoin: miter"/>
   </g>
   <g id="patch_11">
    <path d="M 309.449844 331.193898 
L 435.664065 331.193898 
Q 448.949772 331.193898 448.949772 317.90819 
L 448.949772 301.301056 
Q 448.949772 288.015348 435.664065 288.015348 
L 309.449844 288.015348 
Q 296.164137 288.015348 296.164137 301.301056 
L 296.164137 317.90819 
Q 296.164137 331.193898 309.449844 331.193898 
L 309.449844 331.193898 
z
" clip-path="url(#p2d79b470fd)" style="fill: none; opacity: 0.8; stroke: #1f2937; stroke-width: 2; stroke-linejoin: miter"/>
   </g>
   <g id="patch_12">
    <path d="M 541.949724 331.193898 
L 668.163945 331.193898 
Q 681.449652 331.193898 681.449652 317.90819 
L 681.449652 301.301056 
Q 681.449652 288.015348 668.163945 288.015348 
L 541.949724 288.015348 
Q 528.664017 288.015348 528.664017 301.301056 
L 528.664017 317.90819 
Q 528.664017 331.193898 541.949724 331.193898 
z
" clip-path="url(#p2d79b470fd)" style="fill: #e12885; opacity: 0.15; stroke: #2c2f33; stroke-width: 2; stroke-linejoin: miter"/>
   </g>
   <g id="patch_13">
    <path d="M 541.949724 331.193898 
L 668.163945 331.193898 
Q 681.449652 331.193898 681.449652 317.90819 
L 681.449652 301.301056 
Q 681.449652 288.015348 668.163945 288.015348 
L 541.949724 288.015348 
Q 528.664017 288.015348 528.664017 301.301056 
L 528.664017 317.90819 
Q 528.664017 331.193898 541.949724 331.193898 
L 541.949724 331.193898 
z
" clip-path="url(#p2d79b470fd)" style="fill: none; opacity: 0.8; stroke: #e12885; stroke-width: 2; stroke-linejoin: miter"/>
   </g>
   <g id="patch_14">
    <path d="M 727.949628 331.193898 
L 854.163849 331.193898 
Q 867.449556 331.193898 867.449556 317.90819 
L 867.449556 301.301056 
Q 867.449556 288.015348 854.163849 288.015348 
L 727.949628 288.015348 
Q 714.663921 288.015348 714.663921 301.301056 
L 714.663921 317.90819 
Q 714.663921 331.193898 727.949628 331.193898 
z
" clip-path="url(#p2d79b470fd)" style="fill: #e12885; opacity: 0.15; stroke: #2c2f33; stroke-width: 2; stroke-linejoin: miter"/>
   </g>
   <g id="patch_15">
    <path d="M 727.949628 331.193898 
L 854.163849 331.193898 
Q 867.449556 331.193898 867.449556 317.90819 
L 867.449556 301.301056 
Q 867.449556 288.015348 854.163849 288.015348 
L 727.949628 288.015348 
Q 714.663921 288.015348 714.663921 301.301056 
L 714.663921 317.90819 
Q 714.663921 331.193898 727.949628 331.193898 
L 727.949628 331.193898 
z
" clip-path="url(#p2d79b470fd)" style="fill: none; opacity: 0.8; stroke: #e12885; stroke-width: 2; stroke-linejoin: miter"/>
   </g>
   <g id="patch_16">
    <path d="M 199.842758 430.836703 
L 326.056978 430.836703 
Q 339.342686 430.836703 339.342686 417.550996 
L 339.342686 400.943862 
Q 339.342686 387.658154 326.056978 387.658154 
L 199.842758 387.658154 
Q 186.55705 387.658154 186.55705 400.943862 
L 186.55705 417.550996 
Q 186.55705 430.836703 199.842758 430.836703 
z
" clip-path="url(#p2d79b470fd)" style="fill: #1f2937; opacity: 0.2; stroke: #2c2f33; stroke-width: 2; stroke-linejoin: miter"/>
   </g>
   <g id="patch_17">
    <path d="M 199.842758 430.836703 
L 326.056978 430.836703 
Q 339.342686 430.836703 339.342686 417.550996 
L 339.342686 400.943862 
Q 339.342686 387.658154 326.056978 387.658154 
L 199.842758 387.658154 
Q 186.55705 387.658154 186.55705 400.943862 
L 186.55705 417.550996 
Q 186.55705 430.836703 199.842758 430.836703 
L 199.842758 430.836703 
z
" clip-path="url(#p2d79b470fd)" style="fill: none; opacity: 0.8; stroke: #1f2937; stroke-width: 2; stroke-linejoin: miter"/>
   </g>
   <g id="patch_18">
    <path d="M 228.672743 324.484615 
L 283.941286 324.484615 
L 283.941286 294.724631 
L 228.672743 294.724631 
z
" clip-path="url(#p2d79b470fd)" style="fill: #39c5bb; opacity: 0.3; stroke: #2c2f33; stroke-linejoin: miter"/>
   </g>
   <g id="patch_19">
    <path d="M 475.521187 330.861755 
L 492.526892 309.604623 
L 475.521187 288.347491 
L 458.515481 309.604623 
z
" clip-path="url(#p2d79b470fd)" style="fill: #39c5bb; opacity: 0.3; stroke: #2c2f33; stroke-linejoin: miter"/>
   </g>
   <g id="patch_20">
    <path d="M 344.656969 430.504561 
L 387.171232 430.504561 
L 387.171232 387.990297 
L 344.656969 387.990297 
z
" clip-path="url(#p2d79b470fd)" style="fill: #39c5bb; opacity: 0.3; stroke: #2c2f33; stroke-linejoin: miter"/>
   </g>
   <g id="patch_21">
    <path d="M 686.763935 322.358902 
L 729.278199 322.358902 
L 720.775346 296.850344 
L 695.266788 296.850344 
z
" clip-path="url(#p2d79b470fd)" style="fill: #39c5bb; opacity: 0.3; stroke: #2c2f33; stroke-linejoin: miter"/>
   </g>
   <g id="patch_22">
    <path d="M 872.763839 322.358902 
L 911.026676 318.107476 
L 902.523824 298.976057 
L 881.266692 303.227483 
z
" clip-path="url(#p2d79b470fd)" style="fill: #39c5bb; opacity: 0.3; stroke: #2c2f33; stroke-linejoin: miter"/>
   </g>
   <g id="line2d_1">
    <path d="M 472.19976 128.586859 
L 472.19976 160.140414 
" clip-path="url(#p2d79b470fd)" style="fill: none; stroke: #2c2f33; stroke-opacity: 0.5; stroke-width: 1.5; stroke-linecap: square"/>
   </g>
   <g id="line2d_2">
    <path d="M 472.19976 160.140414 
L 272.914149 160.140414 
" clip-path="url(#p2d79b470fd)" style="fill: none; stroke: #2c2f33; stroke-opacity: 0.5; stroke-width: 1.5; stroke-linecap: square"/>
   </g>
   <g id="line2d_3">
    <path d="M 272.914149 160.140414 
L 272.914149 191.69397 
" clip-path="url(#p2d79b470fd)" style="fill: none; stroke: #2c2f33; stroke-opacity: 0.5; stroke-width: 1.5; stroke-linecap: square"/>
   </g>
   <g id="line2d_4">
    <path d="M 472.19976 128.586859 
L 472.19976 160.140414 
" clip-path="url(#p2d79b470fd)" style="fill: none; stroke: #2c2f33; stroke-opacity: 0.5; stroke-width: 1.5; stroke-linecap: square"/>
   </g>
   <g id="line2d_5">
    <path d="M 472.19976 160.140414 
L 671.485371 160.140414 
" clip-path="url(#p2d79b470fd)" style="fill: none; stroke: #2c2f33; stroke-opacity: 0.5; stroke-width: 1.5; stroke-linecap: square"/>
   </g>
   <g id="line2d_6">
    <path d="M 671.485371 160.140414 
L 671.485371 191.69397 
" clip-path="url(#p2d79b470fd)" style="fill: none; stroke: #2c2f33; stroke-opacity: 0.5; stroke-width: 1.5; stroke-linecap: square"/>
   </g>
   <g id="line2d_7">
    <path d="M 272.914149 228.229665 
L 272.914149 259.78322 
" clip-path="url(#p2d79b470fd)" style="fill: none; stroke: #2c2f33; stroke-opacity: 0.5; stroke-width: 1.5; stroke-linecap: square"/>
   </g>
   <g id="line2d_8">
    <path d="M 272.914149 259.78322 
L 153.342782 259.78322 
" clip-path="url(#p2d79b470fd)" style="fill: none; stroke: #2c2f33; stroke-opacity: 0.5; stroke-width: 1.5; stroke-linecap: square"/>
   </g>
   <g id="line2d_9">
    <path d="M 153.342782 259.78322 
L 153.342782 291.336775 
" clip-path="url(#p2d79b470fd)" style="fill: none; stroke: #2c2f33; stroke-opacity: 0.5; stroke-width: 1.5; stroke-linecap: square"/>
   </g>
   <g id="line2d_10">
    <path d="M 272.914149 228.229665 
L 272.914149 259.78322 
" clip-path="url(#p2d79b470fd)" style="fill: none; stroke: #2c2f33; stroke-opacity: 0.5; stroke-width: 1.5; stroke-linecap: square"/>
   </g>
   <g id="line2d_11">
    <path d="M 272.914149 259.78322 
L 372.556954 259.78322 
" clip-path="url(#p2d79b470fd)" style="fill: none; stroke: #2c2f33; stroke-opacity: 0.5; stroke-width: 1.5; stroke-linecap: square"/>
   </g>
   <g id="line2d_12">
    <path d="M 372.556954 259.78322 
L 372.556954 291.336775 
" clip-path="url(#p2d79b470fd)" style="fill: none; stroke: #2c2f33; stroke-opacity: 0.5; stroke-width: 1.5; stroke-linecap: square"/>
   </g>
   <g id="line2d_13">
    <path d="M 671.485371 228.229665 
L 671.485371 259.78322 
" clip-path="url(#p2d79b470fd)" style="fill: none; stroke: #2c2f33; stroke-opacity: 0.5; stroke-width: 1.5; stroke-linecap: square"/>
   </g>
   <g id="line2d_14">
    <path d="M 671.485371 259.78322 
L 605.056834 259.78322 
" clip-path="url(#p2d79b470fd)" style="fill: none; stroke: #2c2f33; stroke-opacity: 0.5; stroke-width: 1.5; stroke-linecap: square"/>
   </g>
   <g id="line2d_15">
    <path d="M 605.056834 259.78322 
L 605.056834 291.336775 
" clip-path="url(#p2d79b470fd)" style="fill: none; stroke: #2c2f33; stroke-opacity: 0.5; stroke-width: 1.5; stroke-linecap: square"/>
   </g>
   <g id="line2d_16">
    <path d="M 671.485371 228.229665 
L 671.485371 259.78322 
" clip-path="url(#p2d79b470fd)" style="fill: none; stroke: #2c2f33; stroke-opacity: 0.5; stroke-width: 1.5; stroke-linecap: square"/>
   </g>
   <g id="line2d_17">
    <path d="M 671.485371 259.78322 
L 791.056738 259.78322 
" clip-path="url(#p2d79b470fd)" style="fill: none; stroke: #2c2f33; stroke-opacity: 0.5; stroke-width: 1.5; stroke-linecap: square"/>
   </g>
   <g id="line2d_18">
    <path d="M 791.056738 259.78322 
L 791.056738 291.336775 
" clip-path="url(#p2d79b470fd)" style="fill: none; stroke: #2c2f33; stroke-opacity: 0.5; stroke-width: 1.5; stroke-linecap: square"/>
   </g>
   <g id="line2d_19">
    <path d="M 153.342782 327.872471 
L 153.342782 359.426026 
" clip-path="url(#p2d79b470fd)" style="fill: none; stroke: #2c2f33; stroke-opacity: 0.5; stroke-width: 1.5; stroke-linecap: square"/>
   </g>
   <g id="line2d_20">
    <path d="M 153.342782 359.426026 
L 262.949868 359.426026 
" clip-path="url(#p2d79b470fd)" style="fill: none; stroke: #2c2f33; stroke-opacity: 0.5; stroke-width: 1.5; stroke-linecap: square"/>
   </g>
   <g id="line2d_21">
    <path d="M 262.949868 359.426026 
L 262.949868 390.979581 
" clip-path="url(#p2d79b470fd)" style="fill: none; stroke: #2c2f33; stroke-opacity: 0.5; stroke-width: 1.5; stroke-linecap: square"/>
   </g>
   <g id="line2d_22">
    <path d="M 372.556954 327.872471 
L 372.556954 359.426026 
" clip-path="url(#p2d79b470fd)" style="fill: none; stroke: #2c2f33; stroke-opacity: 0.5; stroke-width: 1.5; stroke-linecap: square"/>
   </g>
   <g id="line2d_23">
    <path d="M 372.556954 359.426026 
L 262.949868 359.426026 
" clip-path="url(#p2d79b470fd)" style="fill: none; stroke: #2c2f33; stroke-opacity: 0.5; stroke-width: 1.5; stroke-linecap: square"/>
   </g>
   <g id="line2d_24">
    <path d="M 262.949868 359.426026 
L 262.949868 390.979581 
" clip-path="url(#p2d79b470fd)" style="fill: none; stroke: #2c2f33; stroke-opacity: 0.5; stroke-width: 1.5; stroke-linecap: square"/>
   </g>
   <g id="text_1">
    <!-- Cuadriláteros -->
    <g style="fill: #2c2f33" transform="translate(440.865385 112.870574) scale(0.1 -0.1)">
     <defs>
      <path id="SegoeUI-Bold-43" d="M 3725 159 
Q 3234 -78 2444 -78 
Q 1413 -78 822 528 
Q 231 1134 231 2144 
Q 231 3219 895 3887 
Q 1559 4556 2619 4556 
Q 3275 4556 3725 4391 
L 3725 3419 
Q 3275 3688 2700 3688 
Q 2069 3688 1681 3291 
Q 1294 2894 1294 2216 
Q 1294 1566 1659 1180 
Q 2025 794 2644 794 
Q 3234 794 3725 1081 
L 3725 159 
z
" transform="scale(0.015625)"/>
      <path id="SegoeUI-Bold-75" d="M 3456 0 
L 2472 0 
L 2472 488 
L 2456 488 
Q 2091 -78 1478 -78 
Q 366 -78 366 1269 
L 366 3200 
L 1350 3200 
L 1350 1356 
Q 1350 678 1888 678 
Q 2153 678 2312 864 
Q 2472 1050 2472 1369 
L 2472 3200 
L 3456 3200 
L 3456 0 
z
" transform="scale(0.015625)"/>
      <path id="SegoeUI-Bold-61" d="M 3078 0 
L 2144 0 
L 2144 459 
L 2131 459 
Q 1809 -78 1178 -78 
Q 713 -78 445 186 
Q 178 450 178 891 
Q 178 1822 1281 1966 
L 2150 2081 
Q 2150 2606 1581 2606 
Q 1009 2606 494 2266 
L 494 3009 
Q 700 3116 1058 3197 
Q 1416 3278 1709 3278 
Q 3078 3278 3078 1913 
L 3078 0 
z
M 2150 1300 
L 2150 1516 
L 1569 1441 
Q 1088 1378 1088 1006 
Q 1088 838 1205 730 
Q 1322 622 1522 622 
Q 1800 622 1975 814 
Q 2150 1006 2150 1300 
z
" transform="scale(0.015625)"/>
      <path id="SegoeUI-Bold-64" d="M 3547 0 
L 2559 0 
L 2559 441 
L 2547 441 
Q 2209 -78 1556 -78 
Q 956 -78 590 345 
Q 225 769 225 1528 
Q 225 2322 628 2800 
Q 1031 3278 1684 3278 
Q 2303 3278 2547 2834 
L 2559 2834 
L 2559 4738 
L 3547 4738 
L 3547 0 
z
M 2578 1556 
L 2578 1797 
Q 2578 2109 2397 2315 
Q 2216 2522 1925 2522 
Q 1597 2522 1412 2264 
Q 1228 2006 1228 1556 
Q 1228 1134 1406 906 
Q 1584 678 1900 678 
Q 2200 678 2389 918 
Q 2578 1159 2578 1556 
z
" transform="scale(0.015625)"/>
      <path id="SegoeUI-Bold-72" d="M 2503 2309 
Q 2325 2406 2088 2406 
Q 1766 2406 1584 2170 
Q 1403 1934 1403 1528 
L 1403 0 
L 416 0 
L 416 3200 
L 1403 3200 
L 1403 2606 
L 1416 2606 
Q 1650 3256 2259 3256 
Q 2416 3256 2503 3219 
L 2503 2309 
z
" transform="scale(0.015625)"/>
      <path id="SegoeUI-Bold-69" d="M 916 3706 
Q 666 3706 506 3854 
Q 347 4003 347 4219 
Q 347 4441 506 4581 
Q 666 4722 916 4722 
Q 1169 4722 1326 4581 
Q 1484 4441 1484 4219 
Q 1484 3994 1326 3850 
Q 1169 3706 916 3706 
z
M 1403 0 
L 416 0 
L 416 3200 
L 1403 3200 
L 1403 0 
z
" transform="scale(0.015625)"/>
      <path id="SegoeUI-Bold-6c" d="M 1403 0 
L 416 0 
L 416 4738 
L 1403 4738 
L 1403 0 
z
" transform="scale(0.015625)"/>
      <path id="SegoeUI-Bold-e1" d="M 3078 0 
L 2144 0 
L 2144 459 
L 2131 459 
Q 1809 -78 1178 -78 
Q 713 -78 445 186 
Q 178 450 178 891 
Q 178 1822 1281 1966 
L 2150 2081 
Q 2150 2606 1581 2606 
Q 1009 2606 494 2266 
L 494 3009 
Q 700 3116 1058 3197 
Q 1416 3278 1709 3278 
Q 3078 3278 3078 1913 
L 3078 0 
z
M 2150 1300 
L 2150 1516 
L 1569 1441 
Q 1088 1378 1088 1006 
Q 1088 838 1205 730 
Q 1322 622 1522 622 
Q 1800 622 1975 814 
Q 2150 1006 2150 1300 
z
M 2783 4716 
L 1804 3706 
L 1092 3706 
L 1904 4716 
L 2783 4716 
z
" transform="scale(0.015625)"/>
      <path id="SegoeUI-Bold-74" d="M 2350 38 
Q 2131 -78 1691 -78 
Q 647 -78 647 1006 
L 647 2472 
L 128 2472 
L 128 3200 
L 647 3200 
L 647 3891 
L 1631 4172 
L 1631 3200 
L 2350 3200 
L 2350 2472 
L 1631 2472 
L 1631 1178 
Q 1631 678 2028 678 
Q 2184 678 2350 769 
L 2350 38 
z
" transform="scale(0.015625)"/>
      <path id="SegoeUI-Bold-65" d="M 3291 1319 
L 1203 1319 
Q 1253 622 2081 622 
Q 2609 622 3009 872 
L 3009 159 
Q 2566 -78 1856 -78 
Q 1081 -78 653 351 
Q 225 781 225 1550 
Q 225 2347 687 2812 
Q 1150 3278 1825 3278 
Q 2525 3278 2908 2862 
Q 3291 2447 3291 1734 
L 3291 1319 
z
M 2375 1925 
Q 2375 2613 1819 2613 
Q 1581 2613 1407 2416 
Q 1234 2219 1197 1925 
L 2375 1925 
z
" transform="scale(0.015625)"/>
      <path id="SegoeUI-Bold-6f" d="M 1941 -78 
Q 1141 -78 683 370 
Q 225 819 225 1588 
Q 225 2381 700 2829 
Q 1175 3278 1984 3278 
Q 2781 3278 3234 2829 
Q 3688 2381 3688 1644 
Q 3688 847 3220 384 
Q 2753 -78 1941 -78 
z
M 1966 2522 
Q 1616 2522 1422 2281 
Q 1228 2041 1228 1600 
Q 1228 678 1972 678 
Q 2681 678 2681 1625 
Q 2681 2522 1966 2522 
z
" transform="scale(0.015625)"/>
      <path id="SegoeUI-Bold-73" d="M 206 84 
L 206 884 
Q 450 738 692 666 
Q 934 594 1150 594 
Q 1413 594 1564 666 
Q 1716 738 1716 884 
Q 1716 978 1647 1040 
Q 1578 1103 1470 1150 
Q 1363 1197 1234 1234 
Q 1106 1272 988 1319 
Q 797 1391 651 1473 
Q 506 1556 407 1665 
Q 309 1775 257 1919 
Q 206 2063 206 2259 
Q 206 2528 323 2722 
Q 441 2916 636 3039 
Q 831 3163 1082 3220 
Q 1334 3278 1606 3278 
Q 1819 3278 2037 3245 
Q 2256 3213 2469 3150 
L 2469 2388 
Q 2281 2497 2067 2551 
Q 1853 2606 1647 2606 
Q 1550 2606 1464 2589 
Q 1378 2572 1312 2539 
Q 1247 2506 1209 2454 
Q 1172 2403 1172 2338 
Q 1172 2250 1228 2187 
Q 1284 2125 1375 2079 
Q 1466 2034 1577 1998 
Q 1688 1963 1797 1925 
Q 1994 1856 2153 1775 
Q 2313 1694 2427 1584 
Q 2541 1475 2602 1328 
Q 2663 1181 2663 978 
Q 2663 694 2539 492 
Q 2416 291 2211 164 
Q 2006 38 1739 -20 
Q 1472 -78 1184 -78 
Q 656 -78 206 84 
z
" transform="scale(0.015625)"/>
     </defs>
     <use xlink:href="#SegoeUI-Bold-43"/>
     <use xlink:href="#SegoeUI-Bold-75" x="62.402344"/>
     <use xlink:href="#SegoeUI-Bold-61" x="122.900391"/>
     <use xlink:href="#SegoeUI-Bold-64" x="176.708984"/>
     <use xlink:href="#SegoeUI-Bold-72" x="238.623047"/>
     <use xlink:href="#SegoeUI-Bold-69" x="278.792969"/>
     <use xlink:href="#SegoeUI-Bold-6c" x="307.210938"/>
     <use xlink:href="#SegoeUI-Bold-e1" x="335.628906"/>
     <use xlink:href="#SegoeUI-Bold-74" x="389.4375"/>
     <use xlink:href="#SegoeUI-Bold-65" x="427.978516"/>
     <use xlink:href="#SegoeUI-Bold-72" x="482.080078"/>
     <use xlink:href="#SegoeUI-Bold-6f" x="521.5"/>
     <use xlink:href="#SegoeUI-Bold-73" x="582.632812"/>
    </g>
   </g>
   <g id="text_2">
    <!-- Paralelogramos -->
    <g style="fill: #2c2f33" transform="translate(236.378211 212.489161) scale(0.1 -0.1)">
     <defs>
      <path id="SegoeUI-Bold-50" d="M 1522 1544 
L 1522 0 
L 513 0 
L 513 4481 
L 2094 4481 
Q 3788 4481 3788 3053 
Q 3788 2378 3302 1961 
Q 2816 1544 2003 1544 
L 1522 1544 
z
M 1522 3706 
L 1522 2309 
L 1919 2309 
Q 2725 2309 2725 3016 
Q 2725 3706 1919 3706 
L 1522 3706 
z
" transform="scale(0.015625)"/>
      <path id="SegoeUI-Bold-67" d="M 3553 366 
Q 3553 -525 3037 -1014 
Q 2522 -1503 1544 -1503 
Q 897 -1503 519 -1319 
L 519 -488 
Q 1013 -775 1516 -775 
Q 2016 -775 2291 -511 
Q 2566 -247 2566 206 
L 2566 459 
L 2553 459 
Q 2216 -78 1556 -78 
Q 944 -78 584 353 
Q 225 784 225 1509 
Q 225 2322 625 2800 
Q 1025 3278 1678 3278 
Q 2263 3278 2553 2828 
L 2566 2828 
L 2566 3200 
L 3553 3200 
L 3553 366 
z
M 2578 1538 
L 2578 1791 
Q 2578 2094 2398 2308 
Q 2219 2522 1931 2522 
Q 1603 2522 1415 2265 
Q 1228 2009 1228 1544 
Q 1228 1144 1406 911 
Q 1584 678 1894 678 
Q 2200 678 2389 914 
Q 2578 1150 2578 1538 
z
" transform="scale(0.015625)"/>
      <path id="SegoeUI-Bold-6d" d="M 5497 0 
L 4513 0 
L 4513 1825 
Q 4513 2522 4000 2522 
Q 3756 2522 3603 2312 
Q 3450 2103 3450 1791 
L 3450 0 
L 2463 0 
L 2463 1844 
Q 2463 2522 1959 2522 
Q 1706 2522 1554 2322 
Q 1403 2122 1403 1778 
L 1403 0 
L 416 0 
L 416 3200 
L 1403 3200 
L 1403 2700 
L 1416 2700 
Q 1569 2956 1845 3117 
Q 2122 3278 2450 3278 
Q 3128 3278 3378 2681 
Q 3744 3278 4453 3278 
Q 5497 3278 5497 1991 
L 5497 0 
z
" transform="scale(0.015625)"/>
     </defs>
     <use xlink:href="#SegoeUI-Bold-50"/>
     <use xlink:href="#SegoeUI-Bold-61" x="58.925781"/>
     <use xlink:href="#SegoeUI-Bold-72" x="112.734375"/>
     <use xlink:href="#SegoeUI-Bold-61" x="152.529297"/>
     <use xlink:href="#SegoeUI-Bold-6c" x="206.337891"/>
     <use xlink:href="#SegoeUI-Bold-65" x="234.755859"/>
     <use xlink:href="#SegoeUI-Bold-6c" x="288.857422"/>
     <use xlink:href="#SegoeUI-Bold-6f" x="317.275391"/>
     <use xlink:href="#SegoeUI-Bold-67" x="378.408203"/>
     <use xlink:href="#SegoeUI-Bold-72" x="440.322266"/>
     <use xlink:href="#SegoeUI-Bold-61" x="480.117188"/>
     <use xlink:href="#SegoeUI-Bold-6d" x="533.925781"/>
     <use xlink:href="#SegoeUI-Bold-6f" x="625.527344"/>
     <use xlink:href="#SegoeUI-Bold-73" x="686.660156"/>
    </g>
   </g>
   <g id="text_3">
    <!-- No Paralelogramos -->
    <g style="fill: #2c2f33" transform="translate(626.562715 212.489161) scale(0.1 -0.1)">
     <defs>
      <path id="SegoeUI-Bold-4e" d="M 4544 0 
L 3525 0 
L 1678 2816 
Q 1516 3063 1453 3188 
L 1441 3188 
Q 1466 2950 1466 2463 
L 1466 0 
L 513 0 
L 513 4481 
L 1600 4481 
L 3378 1753 
Q 3500 1569 3603 1388 
L 3616 1388 
Q 3591 1544 3591 2003 
L 3591 4481 
L 4544 4481 
L 4544 0 
z
" transform="scale(0.015625)"/>
      <path id="SegoeUI-Bold-20" transform="scale(0.015625)"/>
     </defs>
     <use xlink:href="#SegoeUI-Bold-4e"/>
     <use xlink:href="#SegoeUI-Bold-6f" x="79.003906"/>
     <use xlink:href="#SegoeUI-Bold-20" x="140.136719"/>
     <use xlink:href="#SegoeUI-Bold-50" x="167.724609"/>
     <use xlink:href="#SegoeUI-Bold-61" x="226.650391"/>
     <use xlink:href="#SegoeUI-Bold-72" x="280.458984"/>
     <use xlink:href="#SegoeUI-Bold-61" x="320.253906"/>
     <use xlink:href="#SegoeUI-Bold-6c" x="374.0625"/>
     <use xlink:href="#SegoeUI-Bold-65" x="402.480469"/>
     <use xlink:href="#SegoeUI-Bold-6c" x="456.582031"/>
     <use xlink:href="#SegoeUI-Bold-6f" x="485"/>
     <use xlink:href="#SegoeUI-Bold-67" x="546.132812"/>
     <use xlink:href="#SegoeUI-Bold-72" x="608.046875"/>
     <use xlink:href="#SegoeUI-Bold-61" x="647.841797"/>
     <use xlink:href="#SegoeUI-Bold-6d" x="701.650391"/>
     <use xlink:href="#SegoeUI-Bold-6f" x="793.251953"/>
     <use xlink:href="#SegoeUI-Bold-73" x="854.384766"/>
    </g>
   </g>
   <g id="text_4">
    <!-- Rectángulo -->
    <g style="fill: #2c2f33" transform="translate(126.837313 312.131967) scale(0.1 -0.1)">
     <defs>
      <path id="SegoeUI-Bold-52" d="M 4272 0 
L 3113 0 
L 2416 1153 
Q 2338 1284 2266 1387 
Q 2194 1491 2120 1564 
Q 2047 1638 1967 1677 
Q 1888 1716 1794 1716 
L 1522 1716 
L 1522 0 
L 513 0 
L 513 4481 
L 2113 4481 
Q 3744 4481 3744 3263 
Q 3744 3028 3672 2829 
Q 3600 2631 3469 2472 
Q 3338 2313 3152 2197 
Q 2966 2081 2738 2016 
L 2738 2003 
Q 2838 1972 2931 1901 
Q 3025 1831 3112 1737 
Q 3200 1644 3279 1536 
Q 3359 1428 3425 1325 
L 4272 0 
z
M 1522 3725 
L 1522 2478 
L 1959 2478 
Q 2284 2478 2481 2666 
Q 2681 2856 2681 3138 
Q 2681 3725 1978 3725 
L 1522 3725 
z
" transform="scale(0.015625)"/>
      <path id="SegoeUI-Bold-63" d="M 2841 116 
Q 2506 -78 1875 -78 
Q 1138 -78 681 369 
Q 225 816 225 1522 
Q 225 2338 714 2808 
Q 1203 3278 2022 3278 
Q 2588 3278 2841 3128 
L 2841 2291 
Q 2531 2522 2150 2522 
Q 1725 2522 1476 2273 
Q 1228 2025 1228 1588 
Q 1228 1163 1465 920 
Q 1703 678 2119 678 
Q 2488 678 2841 909 
L 2841 116 
z
" transform="scale(0.015625)"/>
      <path id="SegoeUI-Bold-6e" d="M 3506 0 
L 2522 0 
L 2522 1778 
Q 2522 2522 1991 2522 
Q 1734 2522 1568 2325 
Q 1403 2128 1403 1825 
L 1403 0 
L 416 0 
L 416 3200 
L 1403 3200 
L 1403 2694 
L 1416 2694 
Q 1769 3278 2444 3278 
Q 3506 3278 3506 1959 
L 3506 0 
z
" transform="scale(0.015625)"/>
     </defs>
     <use xlink:href="#SegoeUI-Bold-52"/>
     <use xlink:href="#SegoeUI-Bold-65" x="62.783203"/>
     <use xlink:href="#SegoeUI-Bold-63" x="116.884766"/>
     <use xlink:href="#SegoeUI-Bold-74" x="164.882812"/>
     <use xlink:href="#SegoeUI-Bold-e1" x="203.798828"/>
     <use xlink:href="#SegoeUI-Bold-6e" x="257.607422"/>
     <use xlink:href="#SegoeUI-Bold-67" x="318.105469"/>
     <use xlink:href="#SegoeUI-Bold-75" x="380.019531"/>
     <use xlink:href="#SegoeUI-Bold-6c" x="440.517578"/>
     <use xlink:href="#SegoeUI-Bold-6f" x="468.935547"/>
    </g>
   </g>
   <g id="text_5">
    <!-- Rombo -->
    <g style="fill: #2c2f33" transform="translate(355.622579 312.156185) scale(0.1 -0.1)">
     <defs>
      <path id="SegoeUI-Bold-62" d="M 1416 372 
L 1403 372 
L 1403 0 
L 416 0 
L 416 4738 
L 1403 4738 
L 1403 2719 
L 1416 2719 
Q 1781 3278 2456 3278 
Q 3075 3278 3409 2853 
Q 3744 2428 3744 1691 
Q 3744 891 3353 406 
Q 2963 -78 2309 -78 
Q 1719 -78 1416 372 
z
M 1388 1722 
L 1388 1394 
Q 1388 1084 1566 881 
Q 1744 678 2022 678 
Q 2359 678 2545 939 
Q 2731 1200 2731 1678 
Q 2731 2075 2561 2298 
Q 2391 2522 2075 2522 
Q 1778 2522 1583 2300 
Q 1388 2078 1388 1722 
z
" transform="scale(0.015625)"/>
     </defs>
     <use xlink:href="#SegoeUI-Bold-52"/>
     <use xlink:href="#SegoeUI-Bold-6f" x="62.783203"/>
     <use xlink:href="#SegoeUI-Bold-6d" x="123.916016"/>
     <use xlink:href="#SegoeUI-Bold-62" x="215.517578"/>
     <use xlink:href="#SegoeUI-Bold-6f" x="277.529297"/>
    </g>
   </g>
   <g id="text_6">
    <!-- Trapecio -->
    <g style="fill: #2c2f33" transform="translate(585.137303 312.156185) scale(0.1 -0.1)">
     <defs>
      <path id="SegoeUI-Bold-54" d="M 3659 3659 
L 2381 3659 
L 2381 0 
L 1369 0 
L 1369 3659 
L 97 3659 
L 97 4481 
L 3659 4481 
L 3659 3659 
z
" transform="scale(0.015625)"/>
      <path id="SegoeUI-Bold-70" d="M 1416 372 
L 1403 372 
L 1403 -1472 
L 416 -1472 
L 416 3200 
L 1403 3200 
L 1403 2719 
L 1416 2719 
Q 1781 3278 2444 3278 
Q 3066 3278 3405 2851 
Q 3744 2425 3744 1691 
Q 3744 891 3348 406 
Q 2953 -78 2297 -78 
Q 1719 -78 1416 372 
z
M 1388 1684 
L 1388 1428 
Q 1388 1097 1563 887 
Q 1738 678 2022 678 
Q 2359 678 2545 939 
Q 2731 1200 2731 1678 
Q 2731 2522 2075 2522 
Q 1772 2522 1580 2292 
Q 1388 2063 1388 1684 
z
" transform="scale(0.015625)"/>
     </defs>
     <use xlink:href="#SegoeUI-Bold-54"/>
     <use xlink:href="#SegoeUI-Bold-72" x="51.09375"/>
     <use xlink:href="#SegoeUI-Bold-61" x="90.888672"/>
     <use xlink:href="#SegoeUI-Bold-70" x="144.697266"/>
     <use xlink:href="#SegoeUI-Bold-65" x="206.708984"/>
     <use xlink:href="#SegoeUI-Bold-63" x="260.810547"/>
     <use xlink:href="#SegoeUI-Bold-69" x="308.808594"/>
     <use xlink:href="#SegoeUI-Bold-6f" x="337.226562"/>
    </g>
   </g>
   <g id="text_7">
    <!-- Trapezoide -->
    <g style="fill: #2c2f33" transform="translate(765.340332 312.156185) scale(0.1 -0.1)">
     <defs>
      <path id="SegoeUI-Bold-7a" d="M 2950 0 
L 78 0 
L 78 409 
L 1684 2472 
L 238 2472 
L 238 3200 
L 2938 3200 
L 2938 2713 
L 1416 728 
L 2950 728 
L 2950 0 
z
" transform="scale(0.015625)"/>
     </defs>
     <use xlink:href="#SegoeUI-Bold-54"/>
     <use xlink:href="#SegoeUI-Bold-72" x="51.09375"/>
     <use xlink:href="#SegoeUI-Bold-61" x="90.888672"/>
     <use xlink:href="#SegoeUI-Bold-70" x="144.697266"/>
     <use xlink:href="#SegoeUI-Bold-65" x="206.708984"/>
     <use xlink:href="#SegoeUI-Bold-7a" x="260.810547"/>
     <use xlink:href="#SegoeUI-Bold-6f" x="308.710938"/>
     <use xlink:href="#SegoeUI-Bold-69" x="369.84375"/>
     <use xlink:href="#SegoeUI-Bold-64" x="398.261719"/>
     <use xlink:href="#SegoeUI-Bold-65" x="460.175781"/>
    </g>
   </g>
   <g id="text_8">
    <!-- Cuadrado -->
    <g style="fill: #2c2f33" transform="translate(240.184243 411.798991) scale(0.1 -0.1)">
     <use xlink:href="#SegoeUI-Bold-43"/>
     <use xlink:href="#SegoeUI-Bold-75" x="62.402344"/>
     <use xlink:href="#SegoeUI-Bold-61" x="122.900391"/>
     <use xlink:href="#SegoeUI-Bold-64" x="176.708984"/>
     <use xlink:href="#SegoeUI-Bold-72" x="238.623047"/>
     <use xlink:href="#SegoeUI-Bold-61" x="278.417969"/>
     <use xlink:href="#SegoeUI-Bold-64" x="332.226562"/>
     <use xlink:href="#SegoeUI-Bold-6f" x="394.140625"/>
    </g>
   </g>
  </g>
  <g id="axes_2">
   <g id="line2d_25">
    <path d="M 25.79999 563.116037 
L 918.59953 563.116037 
" clip-path="url(#p0e08ec926c)" style="fill: none; stroke: #d1d5db; stroke-width: 1.5; stroke-linecap: square"/>
   </g>
   <g id="line2d_26">
    <path d="M 472.19976 704.559153 
L 472.19976 579.756404 
" clip-path="url(#p0e08ec926c)" style="fill: none; stroke: #e5e7eb; stroke-linecap: square"/>
   </g>
   <g id="text_9">
    <!-- Definiciones -->
    <g style="fill: #39c5bb" transform="translate(440.316947 574.764294) scale(0.11 -0.11)">
     <defs>
      <path id="SegoeUI-Bold-44" d="M 513 0 
L 513 4481 
L 2100 4481 
Q 4488 4481 4488 2297 
Q 4488 1250 3836 625 
Q 3184 0 2100 0 
L 513 0 
z
M 1522 3659 
L 1522 819 
L 2022 819 
Q 2678 819 3051 1212 
Q 3425 1606 3425 2284 
Q 3425 2925 3054 3292 
Q 2684 3659 2016 3659 
L 1522 3659 
z
" transform="scale(0.015625)"/>
      <path id="SegoeUI-Bold-66" d="M 2503 3981 
Q 2313 4056 2138 4056 
Q 1663 4056 1663 3541 
L 1663 3200 
L 2394 3200 
L 2394 2472 
L 1663 2472 
L 1663 0 
L 678 0 
L 678 2472 
L 141 2472 
L 141 3200 
L 678 3200 
L 678 3597 
Q 678 4144 1034 4478 
Q 1391 4813 2003 4813 
Q 2303 4813 2503 4750 
L 2503 3981 
z
" transform="scale(0.015625)"/>
     </defs>
     <use xlink:href="#SegoeUI-Bold-44"/>
     <use xlink:href="#SegoeUI-Bold-65" x="73.730469"/>
     <use xlink:href="#SegoeUI-Bold-66" x="127.832031"/>
     <use xlink:href="#SegoeUI-Bold-69" x="166.162109"/>
     <use xlink:href="#SegoeUI-Bold-6e" x="194.580078"/>
     <use xlink:href="#SegoeUI-Bold-69" x="255.078125"/>
     <use xlink:href="#SegoeUI-Bold-63" x="283.496094"/>
     <use xlink:href="#SegoeUI-Bold-69" x="331.494141"/>
     <use xlink:href="#SegoeUI-Bold-6f" x="359.912109"/>
     <use xlink:href="#SegoeUI-Bold-6e" x="421.044922"/>
     <use xlink:href="#SegoeUI-Bold-65" x="481.542969"/>
     <use xlink:href="#SegoeUI-Bold-73" x="535.644531"/>
    </g>
   </g>
   <g id="text_10">
    <!-- • -->
    <g style="fill: #39c5bb" transform="translate(53.699976 604.450755) scale(0.12 -0.12)">
     <defs>
      <path id="SegoeUI-Bold-2022" d="M 1356 878 
Q 1003 878 751 1131 
Q 500 1384 500 1741 
Q 500 2097 750 2347 
Q 1000 2597 1356 2597 
Q 1713 2597 1967 2345 
Q 2222 2094 2222 1741 
Q 2222 1388 1967 1133 
Q 1713 878 1356 878 
z
" transform="scale(0.015625)"/>
     </defs>
     <use xlink:href="#SegoeUI-Bold-2022"/>
    </g>
   </g>
   <g id="text_11">
    <!-- Paralelogramos: -->
    <g style="fill: #374151" transform="translate(81.599962 603.66349) scale(0.09 -0.09)">
     <defs>
      <path id="SegoeUI-Bold-3a" d="M 856 2209 
Q 613 2209 450 2357 
Q 288 2506 288 2725 
Q 288 2950 455 3094 
Q 622 3238 872 3238 
Q 1125 3238 1286 3092 
Q 1447 2947 1447 2725 
Q 1447 2497 1283 2353 
Q 1119 2209 856 2209 
z
M 856 -78 
Q 613 -78 450 72 
Q 288 222 288 441 
Q 288 666 455 809 
Q 622 953 872 953 
Q 1125 953 1286 808 
Q 1447 663 1447 441 
Q 1447 213 1283 67 
Q 1119 -78 856 -78 
z
" transform="scale(0.015625)"/>
     </defs>
     <use xlink:href="#SegoeUI-Bold-50"/>
     <use xlink:href="#SegoeUI-Bold-61" x="58.925781"/>
     <use xlink:href="#SegoeUI-Bold-72" x="112.734375"/>
     <use xlink:href="#SegoeUI-Bold-61" x="152.529297"/>
     <use xlink:href="#SegoeUI-Bold-6c" x="206.337891"/>
     <use xlink:href="#SegoeUI-Bold-65" x="234.755859"/>
     <use xlink:href="#SegoeUI-Bold-6c" x="288.857422"/>
     <use xlink:href="#SegoeUI-Bold-6f" x="317.275391"/>
     <use xlink:href="#SegoeUI-Bold-67" x="378.408203"/>
     <use xlink:href="#SegoeUI-Bold-72" x="440.322266"/>
     <use xlink:href="#SegoeUI-Bold-61" x="480.117188"/>
     <use xlink:href="#SegoeUI-Bold-6d" x="533.925781"/>
     <use xlink:href="#SegoeUI-Bold-6f" x="625.527344"/>
     <use xlink:href="#SegoeUI-Bold-73" x="686.660156"/>
     <use xlink:href="#SegoeUI-Bold-3a" x="730.654297"/>
    </g>
   </g>
   <g id="text_12">
    <!-- Lados opuestos paralelos -->
    <g style="fill: #6b7280" transform="translate(221.09989 603.685287) scale(0.09 -0.09)">
     <defs>
      <path id="SegoeUI-4c" d="M 2913 0 
L 588 0 
L 588 4481 
L 1113 4481 
L 1113 475 
L 2913 475 
L 2913 0 
z
" transform="scale(0.015625)"/>
      <path id="SegoeUI-61" d="M 2809 0 
L 2297 0 
L 2297 500 
L 2284 500 
Q 1950 -75 1300 -75 
Q 822 -75 551 178 
Q 281 431 281 850 
Q 281 1747 1338 1894 
L 2297 2028 
Q 2297 2844 1638 2844 
Q 1059 2844 594 2450 
L 594 2975 
Q 1066 3275 1681 3275 
Q 2809 3275 2809 2081 
L 2809 0 
z
M 2297 1619 
L 1525 1513 
Q 1169 1463 987 1336 
Q 806 1209 806 888 
Q 806 653 973 504 
Q 1141 356 1419 356 
Q 1800 356 2048 623 
Q 2297 891 2297 1300 
L 2297 1619 
z
" transform="scale(0.015625)"/>
      <path id="SegoeUI-64" d="M 3250 0 
L 2738 0 
L 2738 544 
L 2725 544 
Q 2369 -75 1625 -75 
Q 1022 -75 661 354 
Q 300 784 300 1525 
Q 300 2319 700 2797 
Q 1100 3275 1766 3275 
Q 2425 3275 2725 2756 
L 2738 2756 
L 2738 4738 
L 3250 4738 
L 3250 0 
z
M 2738 1447 
L 2738 1919 
Q 2738 2306 2481 2575 
Q 2225 2844 1831 2844 
Q 1363 2844 1094 2500 
Q 825 2156 825 1550 
Q 825 997 1083 676 
Q 1341 356 1775 356 
Q 2203 356 2470 665 
Q 2738 975 2738 1447 
z
" transform="scale(0.015625)"/>
      <path id="SegoeUI-6f" d="M 1856 -75 
Q 1147 -75 723 373 
Q 300 822 300 1563 
Q 300 2369 740 2822 
Q 1181 3275 1931 3275 
Q 2647 3275 3048 2834 
Q 3450 2394 3450 1613 
Q 3450 847 3017 386 
Q 2584 -75 1856 -75 
z
M 1894 2844 
Q 1400 2844 1112 2508 
Q 825 2172 825 1581 
Q 825 1013 1115 684 
Q 1406 356 1894 356 
Q 2391 356 2658 678 
Q 2925 1000 2925 1594 
Q 2925 2194 2658 2519 
Q 2391 2844 1894 2844 
z
" transform="scale(0.015625)"/>
      <path id="SegoeUI-73" d="M 325 116 
L 325 666 
Q 744 356 1247 356 
Q 1922 356 1922 806 
Q 1922 934 1864 1023 
Q 1806 1113 1707 1181 
Q 1609 1250 1476 1304 
Q 1344 1359 1191 1419 
Q 978 1503 817 1589 
Q 656 1675 548 1783 
Q 441 1891 386 2028 
Q 331 2166 331 2350 
Q 331 2575 434 2748 
Q 538 2922 709 3039 
Q 881 3156 1101 3215 
Q 1322 3275 1556 3275 
Q 1972 3275 2300 3131 
L 2300 2613 
Q 1947 2844 1488 2844 
Q 1344 2844 1228 2811 
Q 1113 2778 1030 2718 
Q 947 2659 901 2576 
Q 856 2494 856 2394 
Q 856 2269 901 2184 
Q 947 2100 1034 2034 
Q 1122 1969 1247 1916 
Q 1372 1863 1531 1800 
Q 1744 1719 1912 1633 
Q 2081 1547 2200 1439 
Q 2319 1331 2383 1190 
Q 2447 1050 2447 856 
Q 2447 619 2342 444 
Q 2238 269 2063 153 
Q 1888 38 1659 -18 
Q 1431 -75 1181 -75 
Q 688 -75 325 116 
z
" transform="scale(0.015625)"/>
      <path id="SegoeUI-20" transform="scale(0.015625)"/>
      <path id="SegoeUI-70" d="M 1044 463 
L 1031 463 
L 1031 -1472 
L 519 -1472 
L 519 3200 
L 1031 3200 
L 1031 2638 
L 1044 2638 
Q 1422 3275 2150 3275 
Q 2769 3275 3116 2845 
Q 3463 2416 3463 1694 
Q 3463 891 3072 408 
Q 2681 -75 2003 -75 
Q 1381 -75 1044 463 
z
M 1031 1753 
L 1031 1306 
Q 1031 909 1289 632 
Q 1547 356 1944 356 
Q 2409 356 2673 712 
Q 2938 1069 2938 1703 
Q 2938 2238 2691 2541 
Q 2444 2844 2022 2844 
Q 1575 2844 1303 2533 
Q 1031 2222 1031 1753 
z
" transform="scale(0.015625)"/>
      <path id="SegoeUI-75" d="M 3106 0 
L 2594 0 
L 2594 506 
L 2581 506 
Q 2263 -75 1594 -75 
Q 450 -75 450 1288 
L 450 3200 
L 959 3200 
L 959 1369 
Q 959 356 1734 356 
Q 2109 356 2351 632 
Q 2594 909 2594 1356 
L 2594 3200 
L 3106 3200 
L 3106 0 
z
" transform="scale(0.015625)"/>
      <path id="SegoeUI-65" d="M 3091 1472 
L 831 1472 
Q 844 938 1119 647 
Q 1394 356 1875 356 
Q 2416 356 2869 713 
L 2869 231 
Q 2447 -75 1753 -75 
Q 1075 -75 687 361 
Q 300 797 300 1588 
Q 300 2334 723 2804 
Q 1147 3275 1775 3275 
Q 2403 3275 2747 2869 
Q 3091 2463 3091 1741 
L 3091 1472 
z
M 2566 1906 
Q 2563 2350 2352 2597 
Q 2141 2844 1766 2844 
Q 1403 2844 1150 2584 
Q 897 2325 838 1906 
L 2566 1906 
z
" transform="scale(0.015625)"/>
      <path id="SegoeUI-74" d="M 2003 31 
Q 1822 -69 1525 -69 
Q 684 -69 684 869 
L 684 2763 
L 134 2763 
L 134 3200 
L 684 3200 
L 684 3981 
L 1197 4147 
L 1197 3200 
L 2003 3200 
L 2003 2763 
L 1197 2763 
L 1197 959 
Q 1197 638 1306 500 
Q 1416 363 1669 363 
Q 1863 363 2003 469 
L 2003 31 
z
" transform="scale(0.015625)"/>
      <path id="SegoeUI-72" d="M 2188 2681 
Q 2053 2784 1800 2784 
Q 1472 2784 1251 2475 
Q 1031 2166 1031 1631 
L 1031 0 
L 519 0 
L 519 3200 
L 1031 3200 
L 1031 2541 
L 1044 2541 
Q 1153 2878 1378 3067 
Q 1603 3256 1881 3256 
Q 2081 3256 2188 3213 
L 2188 2681 
z
" transform="scale(0.015625)"/>
      <path id="SegoeUI-6c" d="M 1031 0 
L 519 0 
L 519 4738 
L 1031 4738 
L 1031 0 
z
" transform="scale(0.015625)"/>
     </defs>
     <use xlink:href="#SegoeUI-4c"/>
     <use xlink:href="#SegoeUI-61" x="47.070312"/>
     <use xlink:href="#SegoeUI-64" x="97.949219"/>
     <use xlink:href="#SegoeUI-6f" x="156.835938"/>
     <use xlink:href="#SegoeUI-73" x="215.429688"/>
     <use xlink:href="#SegoeUI-20" x="257.861328"/>
     <use xlink:href="#SegoeUI-6f" x="285.253906"/>
     <use xlink:href="#SegoeUI-70" x="343.847656"/>
     <use xlink:href="#SegoeUI-75" x="402.636719"/>
     <use xlink:href="#SegoeUI-65" x="459.228516"/>
     <use xlink:href="#SegoeUI-73" x="511.523438"/>
     <use xlink:href="#SegoeUI-74" x="553.955078"/>
     <use xlink:href="#SegoeUI-6f" x="587.091797"/>
     <use xlink:href="#SegoeUI-73" x="645.685547"/>
     <use xlink:href="#SegoeUI-20" x="688.117188"/>
     <use xlink:href="#SegoeUI-70" x="715.509766"/>
     <use xlink:href="#SegoeUI-61" x="772.923828"/>
     <use xlink:href="#SegoeUI-72" x="823.802734"/>
     <use xlink:href="#SegoeUI-61" x="858.568359"/>
     <use xlink:href="#SegoeUI-6c" x="909.447266"/>
     <use xlink:href="#SegoeUI-65" x="933.666016"/>
     <use xlink:href="#SegoeUI-6c" x="985.960938"/>
     <use xlink:href="#SegoeUI-6f" x="1010.179688"/>
     <use xlink:href="#SegoeUI-73" x="1068.773438"/>
    </g>
   </g>
   <g id="text_13">
    <!-- • -->
    <g style="fill: #1f2937" transform="translate(53.699976 634.403415) scale(0.12 -0.12)">
     <use xlink:href="#SegoeUI-Bold-2022"/>
    </g>
   </g>
   <g id="text_14">
    <!-- Rectángulo: -->
    <g style="fill: #374151" transform="translate(81.599962 633.61615) scale(0.09 -0.09)">
     <use xlink:href="#SegoeUI-Bold-52"/>
     <use xlink:href="#SegoeUI-Bold-65" x="62.783203"/>
     <use xlink:href="#SegoeUI-Bold-63" x="116.884766"/>
     <use xlink:href="#SegoeUI-Bold-74" x="164.882812"/>
     <use xlink:href="#SegoeUI-Bold-e1" x="203.798828"/>
     <use xlink:href="#SegoeUI-Bold-6e" x="257.607422"/>
     <use xlink:href="#SegoeUI-Bold-67" x="318.105469"/>
     <use xlink:href="#SegoeUI-Bold-75" x="380.019531"/>
     <use xlink:href="#SegoeUI-Bold-6c" x="440.517578"/>
     <use xlink:href="#SegoeUI-Bold-6f" x="468.935547"/>
     <use xlink:href="#SegoeUI-Bold-3a" x="530.068359"/>
    </g>
   </g>
   <g id="text_15">
    <!-- 4 ángulos rectos -->
    <g style="fill: #6b7280" transform="translate(221.09989 633.679431) scale(0.09 -0.09)">
     <defs>
      <path id="SegoeUI-34" d="M 2656 4481 
L 2656 1522 
L 3231 1522 
L 3231 1053 
L 2656 1053 
L 2656 0 
L 2150 0 
L 2150 1053 
L 44 1053 
L 44 1497 
Q 338 1828 638 2204 
Q 938 2581 1211 2968 
Q 1484 3356 1717 3742 
Q 1950 4128 2109 4481 
L 2656 4481 
z
M 622 1522 
L 2150 1522 
L 2150 3716 
Q 1916 3306 1706 2984 
Q 1497 2663 1308 2400 
Q 1119 2138 947 1925 
Q 775 1713 622 1522 
z
" transform="scale(0.015625)"/>
      <path id="SegoeUI-e1" d="M 2809 0 
L 2297 0 
L 2297 500 
L 2284 500 
Q 1950 -75 1300 -75 
Q 822 -75 551 178 
Q 281 431 281 850 
Q 281 1747 1338 1894 
L 2297 2028 
Q 2297 2844 1638 2844 
Q 1059 2844 594 2450 
L 594 2975 
Q 1066 3275 1681 3275 
Q 2809 3275 2809 2081 
L 2809 0 
z
M 2297 1619 
L 1525 1513 
Q 1169 1463 987 1336 
Q 806 1209 806 888 
Q 806 653 973 504 
Q 1141 356 1419 356 
Q 1800 356 2048 623 
Q 2297 891 2297 1300 
L 2297 1619 
z
M 2366 4831 
L 1547 3806 
L 1150 3806 
L 1847 4831 
L 2366 4831 
z
" transform="scale(0.015625)"/>
      <path id="SegoeUI-6e" d="M 3175 0 
L 2663 0 
L 2663 1825 
Q 2663 2844 1919 2844 
Q 1534 2844 1282 2555 
Q 1031 2266 1031 1825 
L 1031 0 
L 519 0 
L 519 3200 
L 1031 3200 
L 1031 2669 
L 1044 2669 
Q 1406 3275 2094 3275 
Q 2619 3275 2897 2936 
Q 3175 2597 3175 1956 
L 3175 0 
z
" transform="scale(0.015625)"/>
      <path id="SegoeUI-67" d="M 3250 256 
Q 3250 -1506 1563 -1506 
Q 969 -1506 525 -1281 
L 525 -769 
Q 1066 -1069 1556 -1069 
Q 2738 -1069 2738 188 
L 2738 538 
L 2725 538 
Q 2359 -75 1625 -75 
Q 1028 -75 664 351 
Q 300 778 300 1497 
Q 300 2313 692 2794 
Q 1084 3275 1766 3275 
Q 2413 3275 2725 2756 
L 2738 2756 
L 2738 3200 
L 3250 3200 
L 3250 256 
z
M 2738 1447 
L 2738 1919 
Q 2738 2300 2480 2572 
Q 2222 2844 1838 2844 
Q 1363 2844 1094 2498 
Q 825 2153 825 1531 
Q 825 997 1083 676 
Q 1341 356 1766 356 
Q 2197 356 2467 662 
Q 2738 969 2738 1447 
z
" transform="scale(0.015625)"/>
      <path id="SegoeUI-63" d="M 2700 147 
Q 2331 -75 1825 -75 
Q 1141 -75 720 370 
Q 300 816 300 1525 
Q 300 2316 753 2795 
Q 1206 3275 1963 3275 
Q 2384 3275 2706 3119 
L 2706 2594 
Q 2350 2844 1944 2844 
Q 1453 2844 1139 2492 
Q 825 2141 825 1569 
Q 825 1006 1120 681 
Q 1416 356 1913 356 
Q 2331 356 2700 634 
L 2700 147 
z
" transform="scale(0.015625)"/>
     </defs>
     <use xlink:href="#SegoeUI-34"/>
     <use xlink:href="#SegoeUI-20" x="53.90625"/>
     <use xlink:href="#SegoeUI-e1" x="81.298828"/>
     <use xlink:href="#SegoeUI-6e" x="132.177734"/>
     <use xlink:href="#SegoeUI-67" x="188.769531"/>
     <use xlink:href="#SegoeUI-75" x="247.65625"/>
     <use xlink:href="#SegoeUI-6c" x="304.248047"/>
     <use xlink:href="#SegoeUI-6f" x="328.466797"/>
     <use xlink:href="#SegoeUI-73" x="387.060547"/>
     <use xlink:href="#SegoeUI-20" x="429.492188"/>
     <use xlink:href="#SegoeUI-72" x="456.884766"/>
     <use xlink:href="#SegoeUI-65" x="490.275391"/>
     <use xlink:href="#SegoeUI-63" x="542.570312"/>
     <use xlink:href="#SegoeUI-74" x="588.761719"/>
     <use xlink:href="#SegoeUI-6f" x="621.898438"/>
     <use xlink:href="#SegoeUI-73" x="680.492188"/>
    </g>
   </g>
   <g id="text_16">
    <!-- • -->
    <g style="fill: #1f2937" transform="translate(53.699976 664.356075) scale(0.12 -0.12)">
     <use xlink:href="#SegoeUI-Bold-2022"/>
    </g>
   </g>
   <g id="text_17">
    <!-- Rombo: -->
    <g style="fill: #374151" transform="translate(81.599962 663.590606) scale(0.09 -0.09)">
     <use xlink:href="#SegoeUI-Bold-52"/>
     <use xlink:href="#SegoeUI-Bold-6f" x="62.783203"/>
     <use xlink:href="#SegoeUI-Bold-6d" x="123.916016"/>
     <use xlink:href="#SegoeUI-Bold-62" x="215.517578"/>
     <use xlink:href="#SegoeUI-Bold-6f" x="277.529297"/>
     <use xlink:href="#SegoeUI-Bold-3a" x="338.662109"/>
    </g>
   </g>
   <g id="text_18">
    <!-- 4 lados iguales -->
    <g style="fill: #6b7280" transform="translate(221.09989 663.5667) scale(0.09 -0.09)">
     <defs>
      <path id="SegoeUI-69" d="M 781 4013 
Q 644 4013 547 4106 
Q 450 4200 450 4344 
Q 450 4488 547 4583 
Q 644 4678 781 4678 
Q 922 4678 1020 4583 
Q 1119 4488 1119 4344 
Q 1119 4206 1020 4109 
Q 922 4013 781 4013 
z
M 1031 0 
L 519 0 
L 519 3200 
L 1031 3200 
L 1031 0 
z
" transform="scale(0.015625)"/>
     </defs>
     <use xlink:href="#SegoeUI-34"/>
     <use xlink:href="#SegoeUI-20" x="53.90625"/>
     <use xlink:href="#SegoeUI-6c" x="81.298828"/>
     <use xlink:href="#SegoeUI-61" x="105.517578"/>
     <use xlink:href="#SegoeUI-64" x="156.396484"/>
     <use xlink:href="#SegoeUI-6f" x="215.283203"/>
     <use xlink:href="#SegoeUI-73" x="273.876953"/>
     <use xlink:href="#SegoeUI-20" x="316.308594"/>
     <use xlink:href="#SegoeUI-69" x="343.701172"/>
     <use xlink:href="#SegoeUI-67" x="367.919922"/>
     <use xlink:href="#SegoeUI-75" x="426.806641"/>
     <use xlink:href="#SegoeUI-61" x="483.398438"/>
     <use xlink:href="#SegoeUI-6c" x="534.277344"/>
     <use xlink:href="#SegoeUI-65" x="558.496094"/>
     <use xlink:href="#SegoeUI-73" x="610.791016"/>
    </g>
   </g>
   <g id="text_19">
    <!-- • -->
    <g style="fill: #1f2937" transform="translate(53.699976 694.308735) scale(0.12 -0.12)">
     <use xlink:href="#SegoeUI-Bold-2022"/>
    </g>
   </g>
   <g id="text_20">
    <!-- Cuadrado: -->
    <g style="fill: #374151" transform="translate(81.599962 693.543266) scale(0.09 -0.09)">
     <use xlink:href="#SegoeUI-Bold-43"/>
     <use xlink:href="#SegoeUI-Bold-75" x="62.402344"/>
     <use xlink:href="#SegoeUI-Bold-61" x="122.900391"/>
     <use xlink:href="#SegoeUI-Bold-64" x="176.708984"/>
     <use xlink:href="#SegoeUI-Bold-72" x="238.623047"/>
     <use xlink:href="#SegoeUI-Bold-61" x="278.417969"/>
     <use xlink:href="#SegoeUI-Bold-64" x="332.226562"/>
     <use xlink:href="#SegoeUI-Bold-6f" x="394.140625"/>
     <use xlink:href="#SegoeUI-Bold-3a" x="455.273438"/>
    </g>
   </g>
   <g id="text_21">
    <!-- Rectángulo + Rombo -->
    <g style="fill: #6b7280" transform="translate(221.09989 693.584751) scale(0.09 -0.09)">
     <defs>
      <path id="SegoeUI-52" d="M 3800 0 
L 3175 0 
L 2425 1256 
Q 2322 1431 2225 1554 
Q 2128 1678 2026 1756 
Q 1925 1834 1808 1870 
Q 1691 1906 1544 1906 
L 1113 1906 
L 1113 0 
L 588 0 
L 588 4481 
L 1925 4481 
Q 2219 4481 2467 4407 
Q 2716 4334 2898 4184 
Q 3081 4034 3184 3811 
Q 3288 3588 3288 3288 
Q 3288 3053 3217 2858 
Q 3147 2663 3017 2509 
Q 2888 2356 2705 2248 
Q 2522 2141 2294 2081 
L 2294 2069 
Q 2406 2019 2489 1955 
Q 2572 1891 2647 1803 
Q 2722 1716 2795 1605 
Q 2869 1494 2959 1347 
L 3800 0 
z
M 1113 4006 
L 1113 2381 
L 1825 2381 
Q 2022 2381 2189 2440 
Q 2356 2500 2478 2611 
Q 2600 2722 2669 2883 
Q 2738 3044 2738 3244 
Q 2738 3603 2505 3804 
Q 2272 4006 1831 4006 
L 1113 4006 
z
" transform="scale(0.015625)"/>
      <path id="SegoeUI-2b" d="M 3663 1656 
L 2400 1656 
L 2400 397 
L 1984 397 
L 1984 1656 
L 725 1656 
L 725 2075 
L 1984 2075 
L 1984 3334 
L 2400 3334 
L 2400 2075 
L 3663 2075 
L 3663 1656 
z
" transform="scale(0.015625)"/>
      <path id="SegoeUI-6d" d="M 5063 0 
L 4550 0 
L 4550 1838 
Q 4550 2369 4386 2606 
Q 4222 2844 3834 2844 
Q 3506 2844 3276 2544 
Q 3047 2244 3047 1825 
L 3047 0 
L 2534 0 
L 2534 1900 
Q 2534 2844 1806 2844 
Q 1469 2844 1250 2561 
Q 1031 2278 1031 1825 
L 1031 0 
L 519 0 
L 519 3200 
L 1031 3200 
L 1031 2694 
L 1044 2694 
Q 1384 3275 2038 3275 
Q 2366 3275 2609 3092 
Q 2853 2909 2944 2613 
Q 3300 3275 4006 3275 
Q 5063 3275 5063 1972 
L 5063 0 
z
" transform="scale(0.015625)"/>
      <path id="SegoeUI-62" d="M 1044 463 
L 1031 463 
L 1031 0 
L 519 0 
L 519 4738 
L 1031 4738 
L 1031 2638 
L 1044 2638 
Q 1422 3275 2150 3275 
Q 2766 3275 3114 2845 
Q 3463 2416 3463 1694 
Q 3463 891 3072 408 
Q 2681 -75 2003 -75 
Q 1369 -75 1044 463 
z
M 1031 1753 
L 1031 1306 
Q 1031 909 1289 632 
Q 1547 356 1944 356 
Q 2409 356 2673 712 
Q 2938 1069 2938 1703 
Q 2938 2238 2691 2541 
Q 2444 2844 2022 2844 
Q 1575 2844 1303 2533 
Q 1031 2222 1031 1753 
z
" transform="scale(0.015625)"/>
     </defs>
     <use xlink:href="#SegoeUI-52"/>
     <use xlink:href="#SegoeUI-65" x="57.064453"/>
     <use xlink:href="#SegoeUI-63" x="109.359375"/>
     <use xlink:href="#SegoeUI-74" x="155.550781"/>
     <use xlink:href="#SegoeUI-e1" x="189.4375"/>
     <use xlink:href="#SegoeUI-6e" x="240.316406"/>
     <use xlink:href="#SegoeUI-67" x="296.908203"/>
     <use xlink:href="#SegoeUI-75" x="355.794922"/>
     <use xlink:href="#SegoeUI-6c" x="412.386719"/>
     <use xlink:href="#SegoeUI-6f" x="436.605469"/>
     <use xlink:href="#SegoeUI-20" x="495.199219"/>
     <use xlink:href="#SegoeUI-2b" x="522.591797"/>
     <use xlink:href="#SegoeUI-20" x="591"/>
     <use xlink:href="#SegoeUI-52" x="618.392578"/>
     <use xlink:href="#SegoeUI-6f" x="675.332031"/>
     <use xlink:href="#SegoeUI-6d" x="733.925781"/>
     <use xlink:href="#SegoeUI-62" x="820.058594"/>
     <use xlink:href="#SegoeUI-6f" x="878.847656"/>
    </g>
   </g>
   <g id="text_22">
    <!-- • -->
    <g style="fill: #4b5563" transform="translate(518.699736 604.450755) scale(0.12 -0.12)">
     <use xlink:href="#SegoeUI-Bold-2022"/>
    </g>
   </g>
   <g id="text_23">
    <!-- No Paralelogramos: -->
    <g style="fill: #374151" transform="translate(546.599722 603.66349) scale(0.09 -0.09)">
     <use xlink:href="#SegoeUI-Bold-4e"/>
     <use xlink:href="#SegoeUI-Bold-6f" x="79.003906"/>
     <use xlink:href="#SegoeUI-Bold-20" x="140.136719"/>
     <use xlink:href="#SegoeUI-Bold-50" x="167.724609"/>
     <use xlink:href="#SegoeUI-Bold-61" x="226.650391"/>
     <use xlink:href="#SegoeUI-Bold-72" x="280.458984"/>
     <use xlink:href="#SegoeUI-Bold-61" x="320.253906"/>
     <use xlink:href="#SegoeUI-Bold-6c" x="374.0625"/>
     <use xlink:href="#SegoeUI-Bold-65" x="402.480469"/>
     <use xlink:href="#SegoeUI-Bold-6c" x="456.582031"/>
     <use xlink:href="#SegoeUI-Bold-6f" x="485"/>
     <use xlink:href="#SegoeUI-Bold-67" x="546.132812"/>
     <use xlink:href="#SegoeUI-Bold-72" x="608.046875"/>
     <use xlink:href="#SegoeUI-Bold-61" x="647.841797"/>
     <use xlink:href="#SegoeUI-Bold-6d" x="701.650391"/>
     <use xlink:href="#SegoeUI-Bold-6f" x="793.251953"/>
     <use xlink:href="#SegoeUI-Bold-73" x="854.384766"/>
     <use xlink:href="#SegoeUI-Bold-3a" x="898.378906"/>
    </g>
   </g>
   <g id="text_24">
    <!-- Sin 2 pares paralelos -->
    <g style="fill: #6b7280" transform="translate(732.599626 603.685287) scale(0.09 -0.09)">
     <defs>
      <path id="SegoeUI-53" d="M 378 181 
L 378 800 
Q 484 706 632 631 
Q 781 556 945 504 
Q 1109 453 1275 425 
Q 1441 397 1581 397 
Q 2066 397 2305 576 
Q 2544 756 2544 1094 
Q 2544 1275 2464 1409 
Q 2384 1544 2243 1655 
Q 2103 1766 1911 1867 
Q 1719 1969 1497 2081 
Q 1263 2200 1059 2322 
Q 856 2444 706 2591 
Q 556 2738 470 2923 
Q 384 3109 384 3359 
Q 384 3666 518 3892 
Q 653 4119 872 4266 
Q 1091 4413 1370 4484 
Q 1650 4556 1941 4556 
Q 2603 4556 2906 4397 
L 2906 3806 
Q 2509 4081 1888 4081 
Q 1716 4081 1544 4045 
Q 1372 4009 1237 3928 
Q 1103 3847 1018 3719 
Q 934 3591 934 3406 
Q 934 3234 998 3109 
Q 1063 2984 1188 2881 
Q 1313 2778 1492 2681 
Q 1672 2584 1906 2469 
Q 2147 2350 2362 2219 
Q 2578 2088 2740 1928 
Q 2903 1769 2998 1575 
Q 3094 1381 3094 1131 
Q 3094 800 2964 570 
Q 2834 341 2614 197 
Q 2394 53 2106 -11 
Q 1819 -75 1500 -75 
Q 1394 -75 1237 -58 
Q 1081 -41 918 -8 
Q 756 25 611 73 
Q 466 122 378 181 
z
" transform="scale(0.015625)"/>
      <path id="SegoeUI-32" d="M 2413 3306 
Q 2413 3513 2348 3666 
Q 2284 3819 2173 3920 
Q 2063 4022 1913 4072 
Q 1763 4122 1588 4122 
Q 1438 4122 1294 4081 
Q 1150 4041 1014 3969 
Q 878 3897 751 3797 
Q 625 3697 516 3575 
L 516 4125 
Q 731 4334 998 4445 
Q 1266 4556 1650 4556 
Q 1925 4556 2159 4476 
Q 2394 4397 2566 4244 
Q 2738 4091 2836 3866 
Q 2934 3641 2934 3350 
Q 2934 3084 2873 2868 
Q 2813 2653 2689 2462 
Q 2566 2272 2378 2097 
Q 2191 1922 1938 1741 
Q 1622 1516 1417 1356 
Q 1213 1197 1092 1058 
Q 972 919 923 780 
Q 875 641 875 459 
L 3106 459 
L 3106 0 
L 341 0 
L 341 222 
Q 341 509 403 728 
Q 466 947 609 1144 
Q 753 1341 986 1537 
Q 1219 1734 1556 1981 
Q 1800 2156 1964 2315 
Q 2128 2475 2228 2634 
Q 2328 2794 2370 2958 
Q 2413 3122 2413 3306 
z
" transform="scale(0.015625)"/>
     </defs>
     <use xlink:href="#SegoeUI-53"/>
     <use xlink:href="#SegoeUI-69" x="53.125"/>
     <use xlink:href="#SegoeUI-6e" x="77.34375"/>
     <use xlink:href="#SegoeUI-20" x="133.935547"/>
     <use xlink:href="#SegoeUI-32" x="161.328125"/>
     <use xlink:href="#SegoeUI-20" x="215.234375"/>
     <use xlink:href="#SegoeUI-70" x="242.626953"/>
     <use xlink:href="#SegoeUI-61" x="300.041016"/>
     <use xlink:href="#SegoeUI-72" x="350.919922"/>
     <use xlink:href="#SegoeUI-65" x="384.310547"/>
     <use xlink:href="#SegoeUI-73" x="436.605469"/>
     <use xlink:href="#SegoeUI-20" x="479.037109"/>
     <use xlink:href="#SegoeUI-70" x="506.429688"/>
     <use xlink:href="#SegoeUI-61" x="563.84375"/>
     <use xlink:href="#SegoeUI-72" x="614.722656"/>
     <use xlink:href="#SegoeUI-61" x="649.488281"/>
     <use xlink:href="#SegoeUI-6c" x="700.367188"/>
     <use xlink:href="#SegoeUI-65" x="724.585938"/>
     <use xlink:href="#SegoeUI-6c" x="776.880859"/>
     <use xlink:href="#SegoeUI-6f" x="801.099609"/>
     <use xlink:href="#SegoeUI-73" x="859.693359"/>
    </g>
   </g>
   <g id="text_25">
    <!-- • -->
    <g style="fill: #e12885" transform="translate(518.699736 634.403415) scale(0.12 -0.12)">
     <use xlink:href="#SegoeUI-Bold-2022"/>
    </g>
   </g>
   <g id="text_26">
    <!-- Trapecio: -->
    <g style="fill: #374151" transform="translate(546.599722 633.637946) scale(0.09 -0.09)">
     <use xlink:href="#SegoeUI-Bold-54"/>
     <use xlink:href="#SegoeUI-Bold-72" x="51.09375"/>
     <use xlink:href="#SegoeUI-Bold-61" x="90.888672"/>
     <use xlink:href="#SegoeUI-Bold-70" x="144.697266"/>
     <use xlink:href="#SegoeUI-Bold-65" x="206.708984"/>
     <use xlink:href="#SegoeUI-Bold-63" x="260.810547"/>
     <use xlink:href="#SegoeUI-Bold-69" x="308.808594"/>
     <use xlink:href="#SegoeUI-Bold-6f" x="337.226562"/>
     <use xlink:href="#SegoeUI-Bold-3a" x="398.359375"/>
    </g>
   </g>
   <g id="text_27">
    <!-- 1 par de lados paralelos -->
    <g style="fill: #6b7280" transform="translate(732.599626 633.637946) scale(0.09 -0.09)">
     <defs>
      <path id="SegoeUI-31" d="M 2263 0 
L 1750 0 
L 1750 3872 
Q 1691 3813 1577 3736 
Q 1463 3659 1320 3584 
Q 1178 3509 1020 3443 
Q 863 3378 713 3341 
L 713 3859 
Q 881 3906 1070 3986 
Q 1259 4066 1442 4164 
Q 1625 4263 1787 4370 
Q 1950 4478 2069 4581 
L 2263 4581 
L 2263 0 
z
" transform="scale(0.015625)"/>
     </defs>
     <use xlink:href="#SegoeUI-31"/>
     <use xlink:href="#SegoeUI-20" x="53.90625"/>
     <use xlink:href="#SegoeUI-70" x="81.298828"/>
     <use xlink:href="#SegoeUI-61" x="138.712891"/>
     <use xlink:href="#SegoeUI-72" x="189.591797"/>
     <use xlink:href="#SegoeUI-20" x="224.357422"/>
     <use xlink:href="#SegoeUI-64" x="251.75"/>
     <use xlink:href="#SegoeUI-65" x="310.636719"/>
     <use xlink:href="#SegoeUI-20" x="362.931641"/>
     <use xlink:href="#SegoeUI-6c" x="390.324219"/>
     <use xlink:href="#SegoeUI-61" x="414.542969"/>
     <use xlink:href="#SegoeUI-64" x="465.421875"/>
     <use xlink:href="#SegoeUI-6f" x="524.308594"/>
     <use xlink:href="#SegoeUI-73" x="582.902344"/>
     <use xlink:href="#SegoeUI-20" x="625.333984"/>
     <use xlink:href="#SegoeUI-70" x="652.726562"/>
     <use xlink:href="#SegoeUI-61" x="710.140625"/>
     <use xlink:href="#SegoeUI-72" x="761.019531"/>
     <use xlink:href="#SegoeUI-61" x="795.785156"/>
     <use xlink:href="#SegoeUI-6c" x="846.664062"/>
     <use xlink:href="#SegoeUI-65" x="870.882812"/>
     <use xlink:href="#SegoeUI-6c" x="923.177734"/>
     <use xlink:href="#SegoeUI-6f" x="947.396484"/>
     <use xlink:href="#SegoeUI-73" x="1005.990234"/>
    </g>
   </g>
   <g id="text_28">
    <!-- • -->
    <g style="fill: #e12885" transform="translate(518.699736 664.356075) scale(0.12 -0.12)">
     <use xlink:href="#SegoeUI-Bold-2022"/>
    </g>
   </g>
   <g id="text_29">
    <!-- Trapezoide: -->
    <g style="fill: #374151" transform="translate(546.599722 663.590606) scale(0.09 -0.09)">
     <use xlink:href="#SegoeUI-Bold-54"/>
     <use xlink:href="#SegoeUI-Bold-72" x="51.09375"/>
     <use xlink:href="#SegoeUI-Bold-61" x="90.888672"/>
     <use xlink:href="#SegoeUI-Bold-70" x="144.697266"/>
     <use xlink:href="#SegoeUI-Bold-65" x="206.708984"/>
     <use xlink:href="#SegoeUI-Bold-7a" x="260.810547"/>
     <use xlink:href="#SegoeUI-Bold-6f" x="308.710938"/>
     <use xlink:href="#SegoeUI-Bold-69" x="369.84375"/>
     <use xlink:href="#SegoeUI-Bold-64" x="398.261719"/>
     <use xlink:href="#SegoeUI-Bold-65" x="460.175781"/>
     <use xlink:href="#SegoeUI-Bold-3a" x="514.277344"/>
    </g>
   </g>
   <g id="text_30">
    <!-- Ningún lado paralelo -->
    <g style="fill: #6b7280" transform="translate(732.599626 663.632091) scale(0.09 -0.09)">
     <defs>
      <path id="SegoeUI-4e" d="M 4200 0 
L 3556 0 
L 1250 3572 
Q 1163 3706 1106 3853 
L 1088 3853 
Q 1113 3709 1113 3238 
L 1113 0 
L 588 0 
L 588 4481 
L 1269 4481 
L 3513 966 
Q 3653 747 3694 666 
L 3706 666 
Q 3675 859 3675 1325 
L 3675 4481 
L 4200 4481 
L 4200 0 
z
" transform="scale(0.015625)"/>
      <path id="SegoeUI-fa" d="M 3106 0 
L 2594 0 
L 2594 506 
L 2581 506 
Q 2263 -75 1594 -75 
Q 450 -75 450 1288 
L 450 3200 
L 959 3200 
L 959 1369 
Q 959 356 1734 356 
Q 2109 356 2351 632 
Q 2594 909 2594 1356 
L 2594 3200 
L 3106 3200 
L 3106 0 
z
M 2622 4831 
L 1803 3806 
L 1406 3806 
L 2103 4831 
L 2622 4831 
z
" transform="scale(0.015625)"/>
     </defs>
     <use xlink:href="#SegoeUI-4e"/>
     <use xlink:href="#SegoeUI-69" x="74.804688"/>
     <use xlink:href="#SegoeUI-6e" x="99.023438"/>
     <use xlink:href="#SegoeUI-67" x="155.615234"/>
     <use xlink:href="#SegoeUI-fa" x="214.501953"/>
     <use xlink:href="#SegoeUI-6e" x="271.09375"/>
     <use xlink:href="#SegoeUI-20" x="327.685547"/>
     <use xlink:href="#SegoeUI-6c" x="355.078125"/>
     <use xlink:href="#SegoeUI-61" x="379.296875"/>
     <use xlink:href="#SegoeUI-64" x="430.175781"/>
     <use xlink:href="#SegoeUI-6f" x="489.0625"/>
     <use xlink:href="#SegoeUI-20" x="547.65625"/>
     <use xlink:href="#SegoeUI-70" x="575.048828"/>
     <use xlink:href="#SegoeUI-61" x="632.462891"/>
     <use xlink:href="#SegoeUI-72" x="683.341797"/>
     <use xlink:href="#SegoeUI-61" x="718.107422"/>
     <use xlink:href="#SegoeUI-6c" x="768.986328"/>
     <use xlink:href="#SegoeUI-65" x="793.205078"/>
     <use xlink:href="#SegoeUI-6c" x="845.5"/>
     <use xlink:href="#SegoeUI-6f" x="869.71875"/>
    </g>
   </g>
  </g>
  <g id="text_31">
   <!-- Clasificación de Cuadriláteros -->
   <g style="fill: #2c2f33" transform="translate(375.492573 17.564375) scale(0.14 -0.14)">
    <defs>
     <path id="SegoeUI-Bold-f3" d="M 1941 -78 
Q 1141 -78 683 370 
Q 225 819 225 1588 
Q 225 2381 700 2829 
Q 1175 3278 1984 3278 
Q 2781 3278 3234 2829 
Q 3688 2381 3688 1644 
Q 3688 847 3220 384 
Q 2753 -78 1941 -78 
z
M 1966 2522 
Q 1616 2522 1422 2281 
Q 1228 2041 1228 1600 
Q 1228 678 1972 678 
Q 2681 678 2681 1625 
Q 2681 2522 1966 2522 
z
M 3023 4716 
L 2044 3706 
L 1332 3706 
L 2144 4716 
L 3023 4716 
z
" transform="scale(0.015625)"/>
    </defs>
    <use xlink:href="#SegoeUI-Bold-43"/>
    <use xlink:href="#SegoeUI-Bold-6c" x="62.402344"/>
    <use xlink:href="#SegoeUI-Bold-61" x="90.820312"/>
    <use xlink:href="#SegoeUI-Bold-73" x="144.628906"/>
    <use xlink:href="#SegoeUI-Bold-69" x="188.623047"/>
    <use xlink:href="#SegoeUI-Bold-66" x="217.041016"/>
    <use xlink:href="#SegoeUI-Bold-69" x="255.371094"/>
    <use xlink:href="#SegoeUI-Bold-63" x="283.789062"/>
    <use xlink:href="#SegoeUI-Bold-61" x="331.787109"/>
    <use xlink:href="#SegoeUI-Bold-63" x="385.595703"/>
    <use xlink:href="#SegoeUI-Bold-69" x="433.59375"/>
    <use xlink:href="#SegoeUI-Bold-f3" x="462.011719"/>
    <use xlink:href="#SegoeUI-Bold-6e" x="523.095703"/>
    <use xlink:href="#SegoeUI-Bold-20" x="583.59375"/>
    <use xlink:href="#SegoeUI-Bold-64" x="611.181641"/>
    <use xlink:href="#SegoeUI-Bold-65" x="673.095703"/>
    <use xlink:href="#SegoeUI-Bold-20" x="727.197266"/>
    <use xlink:href="#SegoeUI-Bold-43" x="754.785156"/>
    <use xlink:href="#SegoeUI-Bold-75" x="817.1875"/>
    <use xlink:href="#SegoeUI-Bold-61" x="877.685547"/>
    <use xlink:href="#SegoeUI-Bold-64" x="931.494141"/>
    <use xlink:href="#SegoeUI-Bold-72" x="993.408203"/>
    <use xlink:href="#SegoeUI-Bold-69" x="1033.578125"/>
    <use xlink:href="#SegoeUI-Bold-6c" x="1061.996094"/>
    <use xlink:href="#SegoeUI-Bold-e1" x="1090.414062"/>
    <use xlink:href="#SegoeUI-Bold-74" x="1144.222656"/>
    <use xlink:href="#SegoeUI-Bold-65" x="1182.763672"/>
    <use xlink:href="#SegoeUI-Bold-72" x="1236.865234"/>
    <use xlink:href="#SegoeUI-Bold-6f" x="1276.285156"/>
    <use xlink:href="#SegoeUI-Bold-73" x="1337.417969"/>
   </g>
  </g>
 </g>
 <defs>
  <clipPath id="p2d79b470fd">
   <rect x="7.2" y="57.176182" width="929.99952" height="438.428345"/>
  </clipPath>
  <clipPath id="p0e08ec926c">
   <rect x="7.2" y="554.795854" width="929.99952" height="166.403666"/>
  </clipPath>
 </defs>
</svg>
