<?xml version="1.0" encoding="utf-8" standalone="no"?>
<!DOCTYPE svg PUBLIC "-//W3C//DTD SVG 1.1//EN"
  "http://www.w3.org/Graphics/SVG/1.1/DTD/svg11.dtd">
<svg xmlns:xlink="http://www.w3.org/1999/xlink" width="830.429697pt" height="728.39952pt" viewBox="0 0 830.429697 728.39952" xmlns="http://www.w3.org/2000/svg" version="1.1">
 <metadata>
  <rdf:RDF xmlns:dc="http://purl.org/dc/elements/1.1/" xmlns:cc="http://creativecommons.org/ns#" xmlns:rdf="http://www.w3.org/1999/02/22-rdf-syntax-ns#">
   <cc:Work>
    <dc:type rdf:resource="http://purl.org/dc/dcmitype/StillImage"/>
    <dc:date>2026-04-11T16:11:38.958097</dc:date>
    <dc:format>image/svg+xml</dc:format>
    <dc:creator>
     <cc:Agent>
      <dc:title>Matplotlib v3.8.4, https://matplotlib.org/</dc:title>
     </cc:Agent>
    </dc:creator>
   </cc:Work>
  </rdf:RDF>
 </metadata>
 <defs>
  <style type="text/css">*{stroke-linejoin: round; stroke-linecap: butt}</style>
 </defs>
 <g id="figure_1">
  <g id="patch_1">
   <path d="M 0 728.39952 
L 830.429697 728.39952 
L 830.429697 0 
L 0 0 
z
" style="fill: #ffffff"/>
  </g>
  <g id="axes_1">
   <g id="patch_2">
    <path d="M 41.991812 277.614021 
L 273.937228 277.614021 
L 343.520853 138.446771 
L 111.575437 138.446771 
z
" clip-path="url(#pc8d5c56d9c)" style="fill: #39c5bb; opacity: 0.15; stroke: #39c5bb; stroke-width: 2.5; stroke-linejoin: miter"/>
   </g>
   <g id="line2d_1">
    <defs>
     <path id="md21933eb2b" d="M 0 2.5 
C 0.663008 2.5 1.29895 2.236584 1.767767 1.767767 
C 2.236584 1.29895 2.5 0.663008 2.5 0 
C 2.5 -0.663008 2.236584 -1.29895 1.767767 -1.767767 
C 1.29895 -2.236584 0.663008 -2.5 0 -2.5 
C -0.663008 -2.5 -1.29895 -2.236584 -1.767767 -1.767767 
C -2.236584 -1.29895 -2.5 -0.663008 -2.5 0 
C -2.5 0.663008 -2.236584 1.29895 -1.767767 1.767767 
C -1.29895 2.236584 -0.663008 2.5 0 2.5 
z
" style="stroke: #39c5bb"/>
    </defs>
    <g clip-path="url(#pc8d5c56d9c)">
     <use xlink:href="#md21933eb2b" x="41.991812" y="277.614021" style="fill: #39c5bb; stroke: #39c5bb"/>
    </g>
   </g>
   <g id="line2d_2">
    <g clip-path="url(#pc8d5c56d9c)">
     <use xlink:href="#md21933eb2b" x="273.937228" y="277.614021" style="fill: #39c5bb; stroke: #39c5bb"/>
    </g>
   </g>
   <g id="line2d_3">
    <g clip-path="url(#pc8d5c56d9c)">
     <use xlink:href="#md21933eb2b" x="343.520853" y="138.446771" style="fill: #39c5bb; stroke: #39c5bb"/>
    </g>
   </g>
   <g id="line2d_4">
    <g clip-path="url(#pc8d5c56d9c)">
     <use xlink:href="#md21933eb2b" x="111.575437" y="138.446771" style="fill: #39c5bb; stroke: #39c5bb"/>
    </g>
   </g>
   <g id="line2d_5">
    <path d="M 41.991812 277.614021 
L 343.520853 138.446771 
" clip-path="url(#pc8d5c56d9c)" style="fill: none; stroke-dasharray: 5.55,2.4; stroke-dashoffset: 0; stroke: #dc2626; stroke-opacity: 0.8; stroke-width: 1.5"/>
   </g>
   <g id="line2d_6">
    <path d="M 273.937228 277.614021 
L 111.575437 138.446771 
" clip-path="url(#pc8d5c56d9c)" style="fill: none; stroke-dasharray: 5.55,2.4; stroke-dashoffset: 0; stroke: #059669; stroke-opacity: 0.8; stroke-width: 1.5"/>
   </g>
   <g id="line2d_7">
    <defs>
     <path id="mf57d120ddf" d="M 0 2 
C 0.530406 2 1.03916 1.789267 1.414214 1.414214 
C 1.789267 1.03916 2 0.530406 2 0 
C 2 -0.530406 1.789267 -1.03916 1.414214 -1.414214 
C 1.03916 -1.789267 0.530406 -2 0 -2 
C -0.530406 -2 -1.03916 -1.789267 -1.414214 -1.414214 
C -1.789267 -1.03916 -2 -0.530406 -2 0 
C -2 0.530406 -1.789267 1.03916 -1.414214 1.414214 
C -1.03916 1.789267 -0.530406 2 0 2 
z
" style="stroke: #374151"/>
    </defs>
    <g clip-path="url(#pc8d5c56d9c)">
     <use xlink:href="#mf57d120ddf" x="192.756333" y="208.030396" style="fill: #374151; stroke: #374151"/>
    </g>
   </g>
   <g id="text_1">
    <!-- • Lados opuestos paralelos e iguales -->
    <g style="fill: #4b5563" transform="translate(120.941958 313.889917) scale(0.09 -0.09)">
     <defs>
      <path id="SegoeUI-2022" d="M 1306 1275 
Q 981 1275 747 1503 
Q 513 1731 513 2056 
Q 513 2378 747 2614 
Q 981 2850 1306 2850 
Q 1631 2850 1859 2615 
Q 2088 2381 2088 2056 
Q 2088 1731 1859 1503 
Q 1631 1275 1306 1275 
z
" transform="scale(0.015625)"/>
      <path id="SegoeUI-20" transform="scale(0.015625)"/>
      <path id="SegoeUI-4c" d="M 2913 0 
L 588 0 
L 588 4481 
L 1113 4481 
L 1113 475 
L 2913 475 
L 2913 0 
z
" transform="scale(0.015625)"/>
      <path id="SegoeUI-61" d="M 2809 0 
L 2297 0 
L 2297 500 
L 2284 500 
Q 1950 -75 1300 -75 
Q 822 -75 551 178 
Q 281 431 281 850 
Q 281 1747 1338 1894 
L 2297 2028 
Q 2297 2844 1638 2844 
Q 1059 2844 594 2450 
L 594 2975 
Q 1066 3275 1681 3275 
Q 2809 3275 2809 2081 
L 2809 0 
z
M 2297 1619 
L 1525 1513 
Q 1169 1463 987 1336 
Q 806 1209 806 888 
Q 806 653 973 504 
Q 1141 356 1419 356 
Q 1800 356 2048 623 
Q 2297 891 2297 1300 
L 2297 1619 
z
" transform="scale(0.015625)"/>
      <path id="SegoeUI-64" d="M 3250 0 
L 2738 0 
L 2738 544 
L 2725 544 
Q 2369 -75 1625 -75 
Q 1022 -75 661 354 
Q 300 784 300 1525 
Q 300 2319 700 2797 
Q 1100 3275 1766 3275 
Q 2425 3275 2725 2756 
L 2738 2756 
L 2738 4738 
L 3250 4738 
L 3250 0 
z
M 2738 1447 
L 2738 1919 
Q 2738 2306 2481 2575 
Q 2225 2844 1831 2844 
Q 1363 2844 1094 2500 
Q 825 2156 825 1550 
Q 825 997 1083 676 
Q 1341 356 1775 356 
Q 2203 356 2470 665 
Q 2738 975 2738 1447 
z
" transform="scale(0.015625)"/>
      <path id="SegoeUI-6f" d="M 1856 -75 
Q 1147 -75 723 373 
Q 300 822 300 1563 
Q 300 2369 740 2822 
Q 1181 3275 1931 3275 
Q 2647 3275 3048 2834 
Q 3450 2394 3450 1613 
Q 3450 847 3017 386 
Q 2584 -75 1856 -75 
z
M 1894 2844 
Q 1400 2844 1112 2508 
Q 825 2172 825 1581 
Q 825 1013 1115 684 
Q 1406 356 1894 356 
Q 2391 356 2658 678 
Q 2925 1000 2925 1594 
Q 2925 2194 2658 2519 
Q 2391 2844 1894 2844 
z
" transform="scale(0.015625)"/>
      <path id="SegoeUI-73" d="M 325 116 
L 325 666 
Q 744 356 1247 356 
Q 1922 356 1922 806 
Q 1922 934 1864 1023 
Q 1806 1113 1707 1181 
Q 1609 1250 1476 1304 
Q 1344 1359 1191 1419 
Q 978 1503 817 1589 
Q 656 1675 548 1783 
Q 441 1891 386 2028 
Q 331 2166 331 2350 
Q 331 2575 434 2748 
Q 538 2922 709 3039 
Q 881 3156 1101 3215 
Q 1322 3275 1556 3275 
Q 1972 3275 2300 3131 
L 2300 2613 
Q 1947 2844 1488 2844 
Q 1344 2844 1228 2811 
Q 1113 2778 1030 2718 
Q 947 2659 901 2576 
Q 856 2494 856 2394 
Q 856 2269 901 2184 
Q 947 2100 1034 2034 
Q 1122 1969 1247 1916 
Q 1372 1863 1531 1800 
Q 1744 1719 1912 1633 
Q 2081 1547 2200 1439 
Q 2319 1331 2383 1190 
Q 2447 1050 2447 856 
Q 2447 619 2342 444 
Q 2238 269 2063 153 
Q 1888 38 1659 -18 
Q 1431 -75 1181 -75 
Q 688 -75 325 116 
z
" transform="scale(0.015625)"/>
      <path id="SegoeUI-70" d="M 1044 463 
L 1031 463 
L 1031 -1472 
L 519 -1472 
L 519 3200 
L 1031 3200 
L 1031 2638 
L 1044 2638 
Q 1422 3275 2150 3275 
Q 2769 3275 3116 2845 
Q 3463 2416 3463 1694 
Q 3463 891 3072 408 
Q 2681 -75 2003 -75 
Q 1381 -75 1044 463 
z
M 1031 1753 
L 1031 1306 
Q 1031 909 1289 632 
Q 1547 356 1944 356 
Q 2409 356 2673 712 
Q 2938 1069 2938 1703 
Q 2938 2238 2691 2541 
Q 2444 2844 2022 2844 
Q 1575 2844 1303 2533 
Q 1031 2222 1031 1753 
z
" transform="scale(0.015625)"/>
      <path id="SegoeUI-75" d="M 3106 0 
L 2594 0 
L 2594 506 
L 2581 506 
Q 2263 -75 1594 -75 
Q 450 -75 450 1288 
L 450 3200 
L 959 3200 
L 959 1369 
Q 959 356 1734 356 
Q 2109 356 2351 632 
Q 2594 909 2594 1356 
L 2594 3200 
L 3106 3200 
L 3106 0 
z
" transform="scale(0.015625)"/>
      <path id="SegoeUI-65" d="M 3091 1472 
L 831 1472 
Q 844 938 1119 647 
Q 1394 356 1875 356 
Q 2416 356 2869 713 
L 2869 231 
Q 2447 -75 1753 -75 
Q 1075 -75 687 361 
Q 300 797 300 1588 
Q 300 2334 723 2804 
Q 1147 3275 1775 3275 
Q 2403 3275 2747 2869 
Q 3091 2463 3091 1741 
L 3091 1472 
z
M 2566 1906 
Q 2563 2350 2352 2597 
Q 2141 2844 1766 2844 
Q 1403 2844 1150 2584 
Q 897 2325 838 1906 
L 2566 1906 
z
" transform="scale(0.015625)"/>
      <path id="SegoeUI-74" d="M 2003 31 
Q 1822 -69 1525 -69 
Q 684 -69 684 869 
L 684 2763 
L 134 2763 
L 134 3200 
L 684 3200 
L 684 3981 
L 1197 4147 
L 1197 3200 
L 2003 3200 
L 2003 2763 
L 1197 2763 
L 1197 959 
Q 1197 638 1306 500 
Q 1416 363 1669 363 
Q 1863 363 2003 469 
L 2003 31 
z
" transform="scale(0.015625)"/>
      <path id="SegoeUI-72" d="M 2188 2681 
Q 2053 2784 1800 2784 
Q 1472 2784 1251 2475 
Q 1031 2166 1031 1631 
L 1031 0 
L 519 0 
L 519 3200 
L 1031 3200 
L 1031 2541 
L 1044 2541 
Q 1153 2878 1378 3067 
Q 1603 3256 1881 3256 
Q 2081 3256 2188 3213 
L 2188 2681 
z
" transform="scale(0.015625)"/>
      <path id="SegoeUI-6c" d="M 1031 0 
L 519 0 
L 519 4738 
L 1031 4738 
L 1031 0 
z
" transform="scale(0.015625)"/>
      <path id="SegoeUI-69" d="M 781 4013 
Q 644 4013 547 4106 
Q 450 4200 450 4344 
Q 450 4488 547 4583 
Q 644 4678 781 4678 
Q 922 4678 1020 4583 
Q 1119 4488 1119 4344 
Q 1119 4206 1020 4109 
Q 922 4013 781 4013 
z
M 1031 0 
L 519 0 
L 519 3200 
L 1031 3200 
L 1031 0 
z
" transform="scale(0.015625)"/>
      <path id="SegoeUI-67" d="M 3250 256 
Q 3250 -1506 1563 -1506 
Q 969 -1506 525 -1281 
L 525 -769 
Q 1066 -1069 1556 -1069 
Q 2738 -1069 2738 188 
L 2738 538 
L 2725 538 
Q 2359 -75 1625 -75 
Q 1028 -75 664 351 
Q 300 778 300 1497 
Q 300 2313 692 2794 
Q 1084 3275 1766 3275 
Q 2413 3275 2725 2756 
L 2738 2756 
L 2738 3200 
L 3250 3200 
L 3250 256 
z
M 2738 1447 
L 2738 1919 
Q 2738 2300 2480 2572 
Q 2222 2844 1838 2844 
Q 1363 2844 1094 2498 
Q 825 2153 825 1531 
Q 825 997 1083 676 
Q 1341 356 1766 356 
Q 2197 356 2467 662 
Q 2738 969 2738 1447 
z
" transform="scale(0.015625)"/>
     </defs>
     <use xlink:href="#SegoeUI-2022"/>
     <use xlink:href="#SegoeUI-20" x="40.625"/>
     <use xlink:href="#SegoeUI-4c" x="68.017578"/>
     <use xlink:href="#SegoeUI-61" x="115.087891"/>
     <use xlink:href="#SegoeUI-64" x="165.966797"/>
     <use xlink:href="#SegoeUI-6f" x="224.853516"/>
     <use xlink:href="#SegoeUI-73" x="283.447266"/>
     <use xlink:href="#SegoeUI-20" x="325.878906"/>
     <use xlink:href="#SegoeUI-6f" x="353.271484"/>
     <use xlink:href="#SegoeUI-70" x="411.865234"/>
     <use xlink:href="#SegoeUI-75" x="470.654297"/>
     <use xlink:href="#SegoeUI-65" x="527.246094"/>
     <use xlink:href="#SegoeUI-73" x="579.541016"/>
     <use xlink:href="#SegoeUI-74" x="621.972656"/>
     <use xlink:href="#SegoeUI-6f" x="655.109375"/>
     <use xlink:href="#SegoeUI-73" x="713.703125"/>
     <use xlink:href="#SegoeUI-20" x="756.134766"/>
     <use xlink:href="#SegoeUI-70" x="783.527344"/>
     <use xlink:href="#SegoeUI-61" x="840.941406"/>
     <use xlink:href="#SegoeUI-72" x="891.820312"/>
     <use xlink:href="#SegoeUI-61" x="926.585938"/>
     <use xlink:href="#SegoeUI-6c" x="977.464844"/>
     <use xlink:href="#SegoeUI-65" x="1001.683594"/>
     <use xlink:href="#SegoeUI-6c" x="1053.978516"/>
     <use xlink:href="#SegoeUI-6f" x="1078.197266"/>
     <use xlink:href="#SegoeUI-73" x="1136.791016"/>
     <use xlink:href="#SegoeUI-20" x="1179.222656"/>
     <use xlink:href="#SegoeUI-65" x="1206.615234"/>
     <use xlink:href="#SegoeUI-20" x="1258.910156"/>
     <use xlink:href="#SegoeUI-69" x="1286.302734"/>
     <use xlink:href="#SegoeUI-67" x="1310.521484"/>
     <use xlink:href="#SegoeUI-75" x="1369.408203"/>
     <use xlink:href="#SegoeUI-61" x="1426"/>
     <use xlink:href="#SegoeUI-6c" x="1476.878906"/>
     <use xlink:href="#SegoeUI-65" x="1501.097656"/>
     <use xlink:href="#SegoeUI-73" x="1553.392578"/>
    </g>
    <!-- • Diagonales se bisecan -->
    <g style="fill: #4b5563" transform="translate(146.04352 324.003104) scale(0.09 -0.09)">
     <defs>
      <path id="SegoeUI-44" d="M 588 0 
L 588 4481 
L 1825 4481 
Q 4194 4481 4194 2297 
Q 4194 1259 3536 629 
Q 2878 0 1775 0 
L 588 0 
z
M 1113 4006 
L 1113 475 
L 1781 475 
Q 2663 475 3153 947 
Q 3644 1419 3644 2284 
Q 3644 4006 1813 4006 
L 1113 4006 
z
" transform="scale(0.015625)"/>
      <path id="SegoeUI-6e" d="M 3175 0 
L 2663 0 
L 2663 1825 
Q 2663 2844 1919 2844 
Q 1534 2844 1282 2555 
Q 1031 2266 1031 1825 
L 1031 0 
L 519 0 
L 519 3200 
L 1031 3200 
L 1031 2669 
L 1044 2669 
Q 1406 3275 2094 3275 
Q 2619 3275 2897 2936 
Q 3175 2597 3175 1956 
L 3175 0 
z
" transform="scale(0.015625)"/>
      <path id="SegoeUI-62" d="M 1044 463 
L 1031 463 
L 1031 0 
L 519 0 
L 519 4738 
L 1031 4738 
L 1031 2638 
L 1044 2638 
Q 1422 3275 2150 3275 
Q 2766 3275 3114 2845 
Q 3463 2416 3463 1694 
Q 3463 891 3072 408 
Q 2681 -75 2003 -75 
Q 1369 -75 1044 463 
z
M 1031 1753 
L 1031 1306 
Q 1031 909 1289 632 
Q 1547 356 1944 356 
Q 2409 356 2673 712 
Q 2938 1069 2938 1703 
Q 2938 2238 2691 2541 
Q 2444 2844 2022 2844 
Q 1575 2844 1303 2533 
Q 1031 2222 1031 1753 
z
" transform="scale(0.015625)"/>
      <path id="SegoeUI-63" d="M 2700 147 
Q 2331 -75 1825 -75 
Q 1141 -75 720 370 
Q 300 816 300 1525 
Q 300 2316 753 2795 
Q 1206 3275 1963 3275 
Q 2384 3275 2706 3119 
L 2706 2594 
Q 2350 2844 1944 2844 
Q 1453 2844 1139 2492 
Q 825 2141 825 1569 
Q 825 1006 1120 681 
Q 1416 356 1913 356 
Q 2331 356 2700 634 
L 2700 147 
z
" transform="scale(0.015625)"/>
     </defs>
     <use xlink:href="#SegoeUI-2022"/>
     <use xlink:href="#SegoeUI-20" x="40.625"/>
     <use xlink:href="#SegoeUI-44" x="68.017578"/>
     <use xlink:href="#SegoeUI-69" x="138.134766"/>
     <use xlink:href="#SegoeUI-61" x="162.353516"/>
     <use xlink:href="#SegoeUI-67" x="213.232422"/>
     <use xlink:href="#SegoeUI-6f" x="272.119141"/>
     <use xlink:href="#SegoeUI-6e" x="330.712891"/>
     <use xlink:href="#SegoeUI-61" x="387.304688"/>
     <use xlink:href="#SegoeUI-6c" x="438.183594"/>
     <use xlink:href="#SegoeUI-65" x="462.402344"/>
     <use xlink:href="#SegoeUI-73" x="514.697266"/>
     <use xlink:href="#SegoeUI-20" x="557.128906"/>
     <use xlink:href="#SegoeUI-73" x="584.521484"/>
     <use xlink:href="#SegoeUI-65" x="626.953125"/>
     <use xlink:href="#SegoeUI-20" x="679.248047"/>
     <use xlink:href="#SegoeUI-62" x="706.640625"/>
     <use xlink:href="#SegoeUI-69" x="765.429688"/>
     <use xlink:href="#SegoeUI-73" x="789.648438"/>
     <use xlink:href="#SegoeUI-65" x="832.080078"/>
     <use xlink:href="#SegoeUI-63" x="884.375"/>
     <use xlink:href="#SegoeUI-61" x="930.566406"/>
     <use xlink:href="#SegoeUI-6e" x="981.445312"/>
    </g>
   </g>
   <g id="patch_3">
    <path d="M 178.039253 266.01675 
Q 157.964677 266.01675 137.890101 266.01675 
" style="fill: none; stroke: #6b7280; stroke-linecap: round"/>
    <path d="M 174.039253 264.01675 
L 178.039253 266.01675 
L 174.039253 268.01675 
" style="fill: none; stroke: #6b7280; stroke-linecap: round"/>
    <path d="M 141.890101 268.01675 
L 137.890101 266.01675 
L 141.890101 264.01675 
" style="fill: none; stroke: #6b7280; stroke-linecap: round"/>
   </g>
   <g id="patch_4">
    <path d="M 247.622878 150.044042 
Q 227.548302 150.044042 207.473726 150.044042 
" style="fill: none; stroke: #6b7280; stroke-linecap: round"/>
    <path d="M 243.622878 148.044042 
L 247.622878 150.044042 
L 243.622878 152.044042 
" style="fill: none; stroke: #6b7280; stroke-linecap: round"/>
    <path d="M 211.473726 152.044042 
L 207.473726 150.044042 
L 211.473726 148.044042 
" style="fill: none; stroke: #6b7280; stroke-linecap: round"/>
   </g>
   <g id="text_2">
    <!-- PARALELOGRAMO -->
    <g style="fill: #2c2f33" transform="translate(146.446843 35.668605) scale(0.12 -0.12)">
     <defs>
      <path id="SegoeUI-Bold-50" d="M 1522 1544 
L 1522 0 
L 513 0 
L 513 4481 
L 2094 4481 
Q 3788 4481 3788 3053 
Q 3788 2378 3302 1961 
Q 2816 1544 2003 1544 
L 1522 1544 
z
M 1522 3706 
L 1522 2309 
L 1919 2309 
Q 2725 2309 2725 3016 
Q 2725 3706 1919 3706 
L 1522 3706 
z
" transform="scale(0.015625)"/>
      <path id="SegoeUI-Bold-41" d="M 4453 0 
L 3353 0 
L 3034 997 
L 1441 997 
L 1125 0 
L 31 0 
L 1663 4481 
L 2859 4481 
L 4453 0 
z
M 2803 1772 
L 2322 3278 
Q 2269 3447 2247 3681 
L 2222 3681 
Q 2206 3484 2144 3291 
L 1656 1772 
L 2803 1772 
z
" transform="scale(0.015625)"/>
      <path id="SegoeUI-Bold-52" d="M 4272 0 
L 3113 0 
L 2416 1153 
Q 2338 1284 2266 1387 
Q 2194 1491 2120 1564 
Q 2047 1638 1967 1677 
Q 1888 1716 1794 1716 
L 1522 1716 
L 1522 0 
L 513 0 
L 513 4481 
L 2113 4481 
Q 3744 4481 3744 3263 
Q 3744 3028 3672 2829 
Q 3600 2631 3469 2472 
Q 3338 2313 3152 2197 
Q 2966 2081 2738 2016 
L 2738 2003 
Q 2838 1972 2931 1901 
Q 3025 1831 3112 1737 
Q 3200 1644 3279 1536 
Q 3359 1428 3425 1325 
L 4272 0 
z
M 1522 3725 
L 1522 2478 
L 1959 2478 
Q 2284 2478 2481 2666 
Q 2681 2856 2681 3138 
Q 2681 3725 1978 3725 
L 1522 3725 
z
" transform="scale(0.015625)"/>
      <path id="SegoeUI-Bold-4c" d="M 3181 0 
L 513 0 
L 513 4481 
L 1522 4481 
L 1522 819 
L 3181 819 
L 3181 0 
z
" transform="scale(0.015625)"/>
      <path id="SegoeUI-Bold-45" d="M 3200 0 
L 513 0 
L 513 4481 
L 3097 4481 
L 3097 3659 
L 1522 3659 
L 1522 2663 
L 2988 2663 
L 2988 1844 
L 1522 1844 
L 1522 819 
L 3200 819 
L 3200 0 
z
" transform="scale(0.015625)"/>
      <path id="SegoeUI-Bold-4f" d="M 2406 -78 
Q 1444 -78 837 548 
Q 231 1175 231 2181 
Q 231 3244 847 3900 
Q 1463 4556 2478 4556 
Q 3438 4556 4030 3928 
Q 4622 3300 4622 2272 
Q 4622 1216 4008 569 
Q 3394 -78 2406 -78 
z
M 2450 3688 
Q 1919 3688 1606 3289 
Q 1294 2891 1294 2234 
Q 1294 1569 1606 1181 
Q 1919 794 2425 794 
Q 2947 794 3253 1170 
Q 3559 1547 3559 2216 
Q 3559 2913 3262 3300 
Q 2966 3688 2450 3688 
z
" transform="scale(0.015625)"/>
      <path id="SegoeUI-Bold-47" d="M 4191 300 
Q 3534 -78 2559 -78 
Q 1478 -78 854 520 
Q 231 1119 231 2169 
Q 231 3225 912 3890 
Q 1594 4556 2725 4556 
Q 3438 4556 3981 4359 
L 3981 3413 
Q 3463 3713 2713 3713 
Q 2084 3713 1689 3305 
Q 1294 2897 1294 2216 
Q 1294 1525 1648 1147 
Q 2003 769 2606 769 
Q 2969 769 3181 872 
L 3181 1747 
L 2284 1747 
L 2284 2553 
L 4191 2553 
L 4191 300 
z
" transform="scale(0.015625)"/>
      <path id="SegoeUI-Bold-4d" d="M 5619 0 
L 4622 0 
L 4622 2681 
Q 4622 3116 4659 3641 
L 4634 3641 
Q 4556 3228 4494 3047 
L 3444 0 
L 2619 0 
L 1550 3016 
Q 1506 3138 1409 3641 
L 1381 3641 
Q 1422 2978 1422 2478 
L 1422 0 
L 513 0 
L 513 4481 
L 1991 4481 
L 2906 1825 
Q 3016 1506 3066 1184 
L 3084 1184 
Q 3169 1556 3263 1831 
L 4178 4481 
L 5619 4481 
L 5619 0 
z
" transform="scale(0.015625)"/>
     </defs>
     <use xlink:href="#SegoeUI-Bold-50"/>
     <use xlink:href="#SegoeUI-Bold-41" x="55.550781"/>
     <use xlink:href="#SegoeUI-Bold-52" x="125.863281"/>
     <use xlink:href="#SegoeUI-Bold-41" x="191.146484"/>
     <use xlink:href="#SegoeUI-Bold-4c" x="261.458984"/>
     <use xlink:href="#SegoeUI-Bold-45" x="312.582031"/>
     <use xlink:href="#SegoeUI-Bold-4c" x="365.804688"/>
     <use xlink:href="#SegoeUI-Bold-4f" x="414.427734"/>
     <use xlink:href="#SegoeUI-Bold-47" x="490.257812"/>
     <use xlink:href="#SegoeUI-Bold-52" x="561.351562"/>
     <use xlink:href="#SegoeUI-Bold-41" x="626.634766"/>
     <use xlink:href="#SegoeUI-Bold-4d" x="696.947266"/>
     <use xlink:href="#SegoeUI-Bold-4f" x="792.650391"/>
    </g>
   </g>
  </g>
  <g id="axes_2">
   <g id="patch_5">
    <path d="M 475.311572 277.614021 
L 730.45153 277.614021 
L 730.45153 115.25223 
L 475.311572 115.25223 
z
" clip-path="url(#p36acb59d1a)" style="fill: #e12885; opacity: 0.15; stroke: #e12885; stroke-width: 2.5; stroke-linejoin: miter"/>
   </g>
   <g id="line2d_8">
    <defs>
     <path id="md521079697" d="M 0 2.5 
C 0.663008 2.5 1.29895 2.236584 1.767767 1.767767 
C 2.236584 1.29895 2.5 0.663008 2.5 0 
C 2.5 -0.663008 2.236584 -1.29895 1.767767 -1.767767 
C 1.29895 -2.236584 0.663008 -2.5 0 -2.5 
C -0.663008 -2.5 -1.29895 -2.236584 -1.767767 -1.767767 
C -2.236584 -1.29895 -2.5 -0.663008 -2.5 0 
C -2.5 0.663008 -2.236584 1.29895 -1.767767 1.767767 
C -1.29895 2.236584 -0.663008 2.5 0 2.5 
z
" style="stroke: #e12885"/>
    </defs>
    <g clip-path="url(#p36acb59d1a)">
     <use xlink:href="#md521079697" x="475.311572" y="277.614021" style="fill: #e12885; stroke: #e12885"/>
    </g>
   </g>
   <g id="line2d_9">
    <g clip-path="url(#p36acb59d1a)">
     <use xlink:href="#md521079697" x="730.45153" y="277.614021" style="fill: #e12885; stroke: #e12885"/>
    </g>
   </g>
   <g id="line2d_10">
    <g clip-path="url(#p36acb59d1a)">
     <use xlink:href="#md521079697" x="730.45153" y="115.25223" style="fill: #e12885; stroke: #e12885"/>
    </g>
   </g>
   <g id="line2d_11">
    <g clip-path="url(#p36acb59d1a)">
     <use xlink:href="#md521079697" x="475.311572" y="115.25223" style="fill: #e12885; stroke: #e12885"/>
    </g>
   </g>
   <g id="line2d_12">
    <path d="M 475.311572 277.614021 
L 730.45153 115.25223 
" clip-path="url(#p36acb59d1a)" style="fill: none; stroke-dasharray: 5.55,2.4; stroke-dashoffset: 0; stroke: #dc2626; stroke-opacity: 0.8; stroke-width: 1.5"/>
   </g>
   <g id="line2d_13">
    <path d="M 730.45153 277.614021 
L 475.311572 115.25223 
" clip-path="url(#p36acb59d1a)" style="fill: none; stroke-dasharray: 5.55,2.4; stroke-dashoffset: 0; stroke: #059669; stroke-opacity: 0.8; stroke-width: 1.5"/>
   </g>
   <g id="line2d_14">
    <g clip-path="url(#p36acb59d1a)">
     <use xlink:href="#mf57d120ddf" x="602.881551" y="196.433125" style="fill: #374151; stroke: #374151"/>
    </g>
   </g>
   <g id="line2d_15">
    <path d="M 492.707479 277.614021 
L 492.707479 260.218115 
L 475.311572 260.218115 
" clip-path="url(#p36acb59d1a)" style="fill: none; stroke: #e12885; stroke-linecap: square"/>
   </g>
   <g id="line2d_16">
    <path d="M 713.055624 277.614021 
L 713.055624 260.218115 
L 730.45153 260.218115 
" clip-path="url(#p36acb59d1a)" style="fill: none; stroke: #e12885; stroke-linecap: square"/>
   </g>
   <g id="line2d_17">
    <path d="M 713.055624 115.25223 
L 713.055624 132.648136 
L 730.45153 132.648136 
" clip-path="url(#p36acb59d1a)" style="fill: none; stroke: #e12885; stroke-linecap: square"/>
   </g>
   <g id="line2d_18">
    <path d="M 492.707479 115.25223 
L 492.707479 132.648136 
L 475.311572 132.648136 
" clip-path="url(#p36acb59d1a)" style="fill: none; stroke: #e12885; stroke-linecap: square"/>
   </g>
   <g id="text_3">
    <!-- • 4 ángulos rectos -->
    <g style="fill: #4b5563" transform="translate(567.288661 313.889917) scale(0.09 -0.09)">
     <defs>
      <path id="SegoeUI-34" d="M 2656 4481 
L 2656 1522 
L 3231 1522 
L 3231 1053 
L 2656 1053 
L 2656 0 
L 2150 0 
L 2150 1053 
L 44 1053 
L 44 1497 
Q 338 1828 638 2204 
Q 938 2581 1211 2968 
Q 1484 3356 1717 3742 
Q 1950 4128 2109 4481 
L 2656 4481 
z
M 622 1522 
L 2150 1522 
L 2150 3716 
Q 1916 3306 1706 2984 
Q 1497 2663 1308 2400 
Q 1119 2138 947 1925 
Q 775 1713 622 1522 
z
" transform="scale(0.015625)"/>
      <path id="SegoeUI-e1" d="M 2809 0 
L 2297 0 
L 2297 500 
L 2284 500 
Q 1950 -75 1300 -75 
Q 822 -75 551 178 
Q 281 431 281 850 
Q 281 1747 1338 1894 
L 2297 2028 
Q 2297 2844 1638 2844 
Q 1059 2844 594 2450 
L 594 2975 
Q 1066 3275 1681 3275 
Q 2809 3275 2809 2081 
L 2809 0 
z
M 2297 1619 
L 1525 1513 
Q 1169 1463 987 1336 
Q 806 1209 806 888 
Q 806 653 973 504 
Q 1141 356 1419 356 
Q 1800 356 2048 623 
Q 2297 891 2297 1300 
L 2297 1619 
z
M 2366 4831 
L 1547 3806 
L 1150 3806 
L 1847 4831 
L 2366 4831 
z
" transform="scale(0.015625)"/>
     </defs>
     <use xlink:href="#SegoeUI-2022"/>
     <use xlink:href="#SegoeUI-20" x="40.625"/>
     <use xlink:href="#SegoeUI-34" x="68.017578"/>
     <use xlink:href="#SegoeUI-20" x="121.923828"/>
     <use xlink:href="#SegoeUI-e1" x="149.316406"/>
     <use xlink:href="#SegoeUI-6e" x="200.195312"/>
     <use xlink:href="#SegoeUI-67" x="256.787109"/>
     <use xlink:href="#SegoeUI-75" x="315.673828"/>
     <use xlink:href="#SegoeUI-6c" x="372.265625"/>
     <use xlink:href="#SegoeUI-6f" x="396.484375"/>
     <use xlink:href="#SegoeUI-73" x="455.078125"/>
     <use xlink:href="#SegoeUI-20" x="497.509766"/>
     <use xlink:href="#SegoeUI-72" x="524.902344"/>
     <use xlink:href="#SegoeUI-65" x="558.292969"/>
     <use xlink:href="#SegoeUI-63" x="610.587891"/>
     <use xlink:href="#SegoeUI-74" x="656.779297"/>
     <use xlink:href="#SegoeUI-6f" x="689.916016"/>
     <use xlink:href="#SegoeUI-73" x="748.509766"/>
    </g>
    <!-- • Diagonales iguales -->
    <g style="fill: #4b5563" transform="translate(562.648739 324.003104) scale(0.09 -0.09)">
     <use xlink:href="#SegoeUI-2022"/>
     <use xlink:href="#SegoeUI-20" x="40.625"/>
     <use xlink:href="#SegoeUI-44" x="68.017578"/>
     <use xlink:href="#SegoeUI-69" x="138.134766"/>
     <use xlink:href="#SegoeUI-61" x="162.353516"/>
     <use xlink:href="#SegoeUI-67" x="213.232422"/>
     <use xlink:href="#SegoeUI-6f" x="272.119141"/>
     <use xlink:href="#SegoeUI-6e" x="330.712891"/>
     <use xlink:href="#SegoeUI-61" x="387.304688"/>
     <use xlink:href="#SegoeUI-6c" x="438.183594"/>
     <use xlink:href="#SegoeUI-65" x="462.402344"/>
     <use xlink:href="#SegoeUI-73" x="514.697266"/>
     <use xlink:href="#SegoeUI-20" x="557.128906"/>
     <use xlink:href="#SegoeUI-69" x="584.521484"/>
     <use xlink:href="#SegoeUI-67" x="608.740234"/>
     <use xlink:href="#SegoeUI-75" x="667.626953"/>
     <use xlink:href="#SegoeUI-61" x="724.21875"/>
     <use xlink:href="#SegoeUI-6c" x="775.097656"/>
     <use xlink:href="#SegoeUI-65" x="799.316406"/>
     <use xlink:href="#SegoeUI-73" x="851.611328"/>
    </g>
   </g>
   <g id="text_4">
    <!-- RECTÁNGULO -->
    <g style="fill: #2c2f33" transform="translate(592.834416 35.668605) scale(0.12 -0.12)">
     <defs>
      <path id="SegoeUI-Bold-43" d="M 3725 159 
Q 3234 -78 2444 -78 
Q 1413 -78 822 528 
Q 231 1134 231 2144 
Q 231 3219 895 3887 
Q 1559 4556 2619 4556 
Q 3275 4556 3725 4391 
L 3725 3419 
Q 3275 3688 2700 3688 
Q 2069 3688 1681 3291 
Q 1294 2894 1294 2216 
Q 1294 1566 1659 1180 
Q 2025 794 2644 794 
Q 3234 794 3725 1081 
L 3725 159 
z
" transform="scale(0.015625)"/>
      <path id="SegoeUI-Bold-54" d="M 3659 3659 
L 2381 3659 
L 2381 0 
L 1369 0 
L 1369 3659 
L 97 3659 
L 97 4481 
L 3659 4481 
L 3659 3659 
z
" transform="scale(0.015625)"/>
      <path id="SegoeUI-Bold-c1" d="M 4453 0 
L 3353 0 
L 3034 997 
L 1441 997 
L 1125 0 
L 31 0 
L 1663 4481 
L 2859 4481 
L 4453 0 
z
M 2803 1772 
L 2322 3278 
Q 2269 3447 2247 3681 
L 2222 3681 
Q 2206 3484 2144 3291 
L 1656 1772 
L 2803 1772 
z
M 3239 5932 
L 2260 4922 
L 1548 4922 
L 2360 5932 
L 3239 5932 
z
" transform="scale(0.015625)"/>
      <path id="SegoeUI-Bold-4e" d="M 4544 0 
L 3525 0 
L 1678 2816 
Q 1516 3063 1453 3188 
L 1441 3188 
Q 1466 2950 1466 2463 
L 1466 0 
L 513 0 
L 513 4481 
L 1600 4481 
L 3378 1753 
Q 3500 1569 3603 1388 
L 3616 1388 
Q 3591 1544 3591 2003 
L 3591 4481 
L 4544 4481 
L 4544 0 
z
" transform="scale(0.015625)"/>
      <path id="SegoeUI-Bold-55" d="M 4166 1941 
Q 4166 -78 2284 -78 
Q 459 -78 459 1894 
L 459 4481 
L 1472 4481 
L 1472 1881 
Q 1472 794 2322 794 
Q 3156 794 3156 1844 
L 3156 4481 
L 4166 4481 
L 4166 1941 
z
" transform="scale(0.015625)"/>
     </defs>
     <use xlink:href="#SegoeUI-Bold-52"/>
     <use xlink:href="#SegoeUI-Bold-45" x="65.283203"/>
     <use xlink:href="#SegoeUI-Bold-43" x="118.505859"/>
     <use xlink:href="#SegoeUI-Bold-54" x="180.908203"/>
     <use xlink:href="#SegoeUI-Bold-c1" x="233.501953"/>
     <use xlink:href="#SegoeUI-Bold-4e" x="303.814453"/>
     <use xlink:href="#SegoeUI-Bold-47" x="382.818359"/>
     <use xlink:href="#SegoeUI-Bold-55" x="453.912109"/>
     <use xlink:href="#SegoeUI-Bold-4c" x="526.226562"/>
     <use xlink:href="#SegoeUI-Bold-4f" x="574.849609"/>
    </g>
   </g>
  </g>
  <g id="axes_3">
   <g id="patch_6">
    <path d="M 181.159062 628.421354 
L 297.13177 535.643187 
L 181.159062 442.865021 
L 65.186354 535.643187 
z
" clip-path="url(#pe68c713402)" style="fill: #1f2937; opacity: 0.15; stroke: #1f2937; stroke-width: 2.5; stroke-linejoin: miter"/>
   </g>
   <g id="line2d_19">
    <defs>
     <path id="m327fbd382b" d="M 0 2.5 
C 0.663008 2.5 1.29895 2.236584 1.767767 1.767767 
C 2.236584 1.29895 2.5 0.663008 2.5 0 
C 2.5 -0.663008 2.236584 -1.29895 1.767767 -1.767767 
C 1.29895 -2.236584 0.663008 -2.5 0 -2.5 
C -0.663008 -2.5 -1.29895 -2.236584 -1.767767 -1.767767 
C -2.236584 -1.29895 -2.5 -0.663008 -2.5 0 
C -2.5 0.663008 -2.236584 1.29895 -1.767767 1.767767 
C -1.29895 2.236584 -0.663008 2.5 0 2.5 
z
" style="stroke: #1f2937"/>
    </defs>
    <g clip-path="url(#pe68c713402)">
     <use xlink:href="#m327fbd382b" x="181.159062" y="628.421354" style="fill: #1f2937; stroke: #1f2937"/>
    </g>
   </g>
   <g id="line2d_20">
    <g clip-path="url(#pe68c713402)">
     <use xlink:href="#m327fbd382b" x="297.13177" y="535.643187" style="fill: #1f2937; stroke: #1f2937"/>
    </g>
   </g>
   <g id="line2d_21">
    <g clip-path="url(#pe68c713402)">
     <use xlink:href="#m327fbd382b" x="181.159062" y="442.865021" style="fill: #1f2937; stroke: #1f2937"/>
    </g>
   </g>
   <g id="line2d_22">
    <g clip-path="url(#pe68c713402)">
     <use xlink:href="#m327fbd382b" x="65.186354" y="535.643187" style="fill: #1f2937; stroke: #1f2937"/>
    </g>
   </g>
   <g id="line2d_23">
    <path d="M 181.159062 628.421354 
L 181.159062 442.865021 
" clip-path="url(#pe68c713402)" style="fill: none; stroke-dasharray: 5.55,2.4; stroke-dashoffset: 0; stroke: #dc2626; stroke-opacity: 0.8; stroke-width: 1.5"/>
   </g>
   <g id="line2d_24">
    <path d="M 297.13177 535.643187 
L 65.186354 535.643187 
" clip-path="url(#pe68c713402)" style="fill: none; stroke-dasharray: 5.55,2.4; stroke-dashoffset: 0; stroke: #059669; stroke-opacity: 0.8; stroke-width: 1.5"/>
   </g>
   <g id="line2d_25">
    <g clip-path="url(#pe68c713402)">
     <use xlink:href="#mf57d120ddf" x="181.159062" y="535.643187" style="fill: #374151; stroke: #374151"/>
    </g>
   </g>
   <g id="line2d_26">
    <path d="M 167.242337 535.643187 
L 181.159062 535.643187 
L 181.159062 521.726462 
" clip-path="url(#pe68c713402)" style="fill: none; stroke: #374151; stroke-linecap: square"/>
   </g>
   <g id="line2d_27">
    <defs>
     <path id="m1430c74c07" d="M 0 4 
L 0 -4 
" style="stroke: #1f2937; stroke-width: 2"/>
    </defs>
    <g clip-path="url(#pe68c713402)">
     <use xlink:href="#m1430c74c07" x="239.145416" y="582.03227" style="fill: #1f2937; stroke: #1f2937; stroke-width: 2"/>
    </g>
   </g>
   <g id="line2d_28">
    <g clip-path="url(#pe68c713402)">
     <use xlink:href="#m1430c74c07" x="239.145416" y="489.254104" style="fill: #1f2937; stroke: #1f2937; stroke-width: 2"/>
    </g>
   </g>
   <g id="line2d_29">
    <g clip-path="url(#pe68c713402)">
     <use xlink:href="#m1430c74c07" x="123.172708" y="489.254104" style="fill: #1f2937; stroke: #1f2937; stroke-width: 2"/>
    </g>
   </g>
   <g id="line2d_30">
    <g clip-path="url(#pe68c713402)">
     <use xlink:href="#m1430c74c07" x="123.172708" y="582.03227" style="fill: #1f2937; stroke: #1f2937; stroke-width: 2"/>
    </g>
   </g>
   <g id="text_5">
    <!-- • 4 lados iguales -->
    <g style="fill: #4b5563" transform="translate(148.702812 664.697249) scale(0.09 -0.09)">
     <use xlink:href="#SegoeUI-2022"/>
     <use xlink:href="#SegoeUI-20" x="40.625"/>
     <use xlink:href="#SegoeUI-34" x="68.017578"/>
     <use xlink:href="#SegoeUI-20" x="121.923828"/>
     <use xlink:href="#SegoeUI-6c" x="149.316406"/>
     <use xlink:href="#SegoeUI-61" x="173.535156"/>
     <use xlink:href="#SegoeUI-64" x="224.414062"/>
     <use xlink:href="#SegoeUI-6f" x="283.300781"/>
     <use xlink:href="#SegoeUI-73" x="341.894531"/>
     <use xlink:href="#SegoeUI-20" x="384.326172"/>
     <use xlink:href="#SegoeUI-69" x="411.71875"/>
     <use xlink:href="#SegoeUI-67" x="435.9375"/>
     <use xlink:href="#SegoeUI-75" x="494.824219"/>
     <use xlink:href="#SegoeUI-61" x="551.416016"/>
     <use xlink:href="#SegoeUI-6c" x="602.294922"/>
     <use xlink:href="#SegoeUI-65" x="626.513672"/>
     <use xlink:href="#SegoeUI-73" x="678.808594"/>
    </g>
    <!-- • Diagonales perpendiculares -->
    <g style="fill: #4b5563" transform="translate(123.235625 674.810437) scale(0.09 -0.09)">
     <use xlink:href="#SegoeUI-2022"/>
     <use xlink:href="#SegoeUI-20" x="40.625"/>
     <use xlink:href="#SegoeUI-44" x="68.017578"/>
     <use xlink:href="#SegoeUI-69" x="138.134766"/>
     <use xlink:href="#SegoeUI-61" x="162.353516"/>
     <use xlink:href="#SegoeUI-67" x="213.232422"/>
     <use xlink:href="#SegoeUI-6f" x="272.119141"/>
     <use xlink:href="#SegoeUI-6e" x="330.712891"/>
     <use xlink:href="#SegoeUI-61" x="387.304688"/>
     <use xlink:href="#SegoeUI-6c" x="438.183594"/>
     <use xlink:href="#SegoeUI-65" x="462.402344"/>
     <use xlink:href="#SegoeUI-73" x="514.697266"/>
     <use xlink:href="#SegoeUI-20" x="557.128906"/>
     <use xlink:href="#SegoeUI-70" x="584.521484"/>
     <use xlink:href="#SegoeUI-65" x="643.310547"/>
     <use xlink:href="#SegoeUI-72" x="695.605469"/>
     <use xlink:href="#SegoeUI-70" x="730.371094"/>
     <use xlink:href="#SegoeUI-65" x="789.160156"/>
     <use xlink:href="#SegoeUI-6e" x="841.455078"/>
     <use xlink:href="#SegoeUI-64" x="898.046875"/>
     <use xlink:href="#SegoeUI-69" x="956.933594"/>
     <use xlink:href="#SegoeUI-63" x="981.152344"/>
     <use xlink:href="#SegoeUI-75" x="1027.34375"/>
     <use xlink:href="#SegoeUI-6c" x="1083.935547"/>
     <use xlink:href="#SegoeUI-61" x="1108.154297"/>
     <use xlink:href="#SegoeUI-72" x="1159.033203"/>
     <use xlink:href="#SegoeUI-65" x="1192.423828"/>
     <use xlink:href="#SegoeUI-73" x="1244.71875"/>
    </g>
   </g>
   <g id="text_6">
    <!-- ROMBO -->
    <g style="fill: #2c2f33" transform="translate(176.009968 386.475937) scale(0.12 -0.12)">
     <defs>
      <path id="SegoeUI-Bold-42" d="M 513 0 
L 513 4481 
L 2144 4481 
Q 2894 4481 3297 4206 
Q 3700 3931 3700 3431 
Q 3700 3069 3454 2797 
Q 3209 2525 2828 2419 
L 2828 2406 
Q 3306 2347 3592 2053 
Q 3878 1759 3878 1338 
Q 3878 722 3437 361 
Q 2997 0 2234 0 
L 513 0 
z
M 1522 3738 
L 1522 2675 
L 1966 2675 
Q 2278 2675 2458 2826 
Q 2638 2978 2638 3244 
Q 2638 3738 1900 3738 
L 1522 3738 
z
M 1522 1925 
L 1522 744 
L 2069 744 
Q 2419 744 2617 906 
Q 2816 1069 2816 1350 
Q 2816 1619 2620 1772 
Q 2425 1925 2075 1925 
L 1522 1925 
z
" transform="scale(0.015625)"/>
     </defs>
     <use xlink:href="#SegoeUI-Bold-52"/>
     <use xlink:href="#SegoeUI-Bold-4f" x="64.283203"/>
     <use xlink:href="#SegoeUI-Bold-4d" x="140.113281"/>
     <use xlink:href="#SegoeUI-Bold-42" x="235.816406"/>
     <use xlink:href="#SegoeUI-Bold-4f" x="299.927734"/>
    </g>
   </g>
  </g>
  <g id="axes_4">
   <g id="patch_7">
    <path d="M 510.103385 628.421354 
L 684.062447 628.421354 
L 684.062447 454.462292 
L 510.103385 454.462292 
z
" clip-path="url(#p87481d2f33)" style="fill: #4b5563; opacity: 0.15; stroke: #4b5563; stroke-width: 2.5; stroke-linejoin: miter"/>
   </g>
   <g id="line2d_31">
    <defs>
     <path id="mf59841afef" d="M 0 2.5 
C 0.663008 2.5 1.29895 2.236584 1.767767 1.767767 
C 2.236584 1.29895 2.5 0.663008 2.5 0 
C 2.5 -0.663008 2.236584 -1.29895 1.767767 -1.767767 
C 1.29895 -2.236584 0.663008 -2.5 0 -2.5 
C -0.663008 -2.5 -1.29895 -2.236584 -1.767767 -1.767767 
C -2.236584 -1.29895 -2.5 -0.663008 -2.5 0 
C -2.5 0.663008 -2.236584 1.29895 -1.767767 1.767767 
C -1.29895 2.236584 -0.663008 2.5 0 2.5 
z
" style="stroke: #4b5563"/>
    </defs>
    <g clip-path="url(#p87481d2f33)">
     <use xlink:href="#mf59841afef" x="510.103385" y="628.421354" style="fill: #4b5563; stroke: #4b5563"/>
    </g>
   </g>
   <g id="line2d_32">
    <g clip-path="url(#p87481d2f33)">
     <use xlink:href="#mf59841afef" x="684.062447" y="628.421354" style="fill: #4b5563; stroke: #4b5563"/>
    </g>
   </g>
   <g id="line2d_33">
    <g clip-path="url(#p87481d2f33)">
     <use xlink:href="#mf59841afef" x="684.062447" y="454.462292" style="fill: #4b5563; stroke: #4b5563"/>
    </g>
   </g>
   <g id="line2d_34">
    <g clip-path="url(#p87481d2f33)">
     <use xlink:href="#mf59841afef" x="510.103385" y="454.462292" style="fill: #4b5563; stroke: #4b5563"/>
    </g>
   </g>
   <g id="line2d_35">
    <path d="M 510.103385 628.421354 
L 684.062447 454.462292 
" clip-path="url(#p87481d2f33)" style="fill: none; stroke-dasharray: 5.55,2.4; stroke-dashoffset: 0; stroke: #dc2626; stroke-opacity: 0.8; stroke-width: 1.5"/>
   </g>
   <g id="line2d_36">
    <path d="M 684.062447 628.421354 
L 510.103385 454.462292 
" clip-path="url(#p87481d2f33)" style="fill: none; stroke-dasharray: 5.55,2.4; stroke-dashoffset: 0; stroke: #059669; stroke-opacity: 0.8; stroke-width: 1.5"/>
   </g>
   <g id="line2d_37">
    <g clip-path="url(#p87481d2f33)">
     <use xlink:href="#mf57d120ddf" x="597.082916" y="541.441823" style="fill: #374151; stroke: #374151"/>
    </g>
   </g>
   <g id="line2d_38">
    <path d="M 583.166191 541.441823 
L 597.082916 541.441823 
L 597.082916 527.525098 
" clip-path="url(#p87481d2f33)" style="fill: none; stroke: #374151; stroke-linecap: square"/>
   </g>
   <g id="line2d_39">
    <path d="M 527.499291 628.421354 
L 527.499291 611.025447 
L 510.103385 611.025447 
" clip-path="url(#p87481d2f33)" style="fill: none; stroke: #4b5563; stroke-linecap: square"/>
   </g>
   <g id="line2d_40">
    <path d="M 666.666541 628.421354 
L 666.666541 611.025447 
L 684.062447 611.025447 
" clip-path="url(#p87481d2f33)" style="fill: none; stroke: #4b5563; stroke-linecap: square"/>
   </g>
   <g id="line2d_41">
    <path d="M 666.666541 454.462292 
L 666.666541 471.858198 
L 684.062447 471.858198 
" clip-path="url(#p87481d2f33)" style="fill: none; stroke: #4b5563; stroke-linecap: square"/>
   </g>
   <g id="line2d_42">
    <path d="M 527.499291 454.462292 
L 527.499291 471.858198 
L 510.103385 471.858198 
" clip-path="url(#p87481d2f33)" style="fill: none; stroke: #4b5563; stroke-linecap: square"/>
   </g>
   <g id="text_7">
    <!-- • 4 lados iguales + 4 ángulos rectos -->
    <g style="fill: #4b5563" transform="translate(526.551041 664.697249) scale(0.09 -0.09)">
     <defs>
      <path id="SegoeUI-2b" d="M 3663 1656 
L 2400 1656 
L 2400 397 
L 1984 397 
L 1984 1656 
L 725 1656 
L 725 2075 
L 1984 2075 
L 1984 3334 
L 2400 3334 
L 2400 2075 
L 3663 2075 
L 3663 1656 
z
" transform="scale(0.015625)"/>
     </defs>
     <use xlink:href="#SegoeUI-2022"/>
     <use xlink:href="#SegoeUI-20" x="40.625"/>
     <use xlink:href="#SegoeUI-34" x="68.017578"/>
     <use xlink:href="#SegoeUI-20" x="121.923828"/>
     <use xlink:href="#SegoeUI-6c" x="149.316406"/>
     <use xlink:href="#SegoeUI-61" x="173.535156"/>
     <use xlink:href="#SegoeUI-64" x="224.414062"/>
     <use xlink:href="#SegoeUI-6f" x="283.300781"/>
     <use xlink:href="#SegoeUI-73" x="341.894531"/>
     <use xlink:href="#SegoeUI-20" x="384.326172"/>
     <use xlink:href="#SegoeUI-69" x="411.71875"/>
     <use xlink:href="#SegoeUI-67" x="435.9375"/>
     <use xlink:href="#SegoeUI-75" x="494.824219"/>
     <use xlink:href="#SegoeUI-61" x="551.416016"/>
     <use xlink:href="#SegoeUI-6c" x="602.294922"/>
     <use xlink:href="#SegoeUI-65" x="626.513672"/>
     <use xlink:href="#SegoeUI-73" x="678.808594"/>
     <use xlink:href="#SegoeUI-20" x="721.240234"/>
     <use xlink:href="#SegoeUI-2b" x="748.632812"/>
     <use xlink:href="#SegoeUI-20" x="817.041016"/>
     <use xlink:href="#SegoeUI-34" x="844.433594"/>
     <use xlink:href="#SegoeUI-20" x="898.339844"/>
     <use xlink:href="#SegoeUI-e1" x="925.732422"/>
     <use xlink:href="#SegoeUI-6e" x="976.611328"/>
     <use xlink:href="#SegoeUI-67" x="1033.203125"/>
     <use xlink:href="#SegoeUI-75" x="1092.089844"/>
     <use xlink:href="#SegoeUI-6c" x="1148.681641"/>
     <use xlink:href="#SegoeUI-6f" x="1172.900391"/>
     <use xlink:href="#SegoeUI-73" x="1231.494141"/>
     <use xlink:href="#SegoeUI-20" x="1273.925781"/>
     <use xlink:href="#SegoeUI-72" x="1301.318359"/>
     <use xlink:href="#SegoeUI-65" x="1334.708984"/>
     <use xlink:href="#SegoeUI-63" x="1387.003906"/>
     <use xlink:href="#SegoeUI-74" x="1433.195312"/>
     <use xlink:href="#SegoeUI-6f" x="1466.332031"/>
     <use xlink:href="#SegoeUI-73" x="1524.925781"/>
    </g>
    <!-- • Diagonales iguales y perpendiculares -->
    <g style="fill: #4b5563" transform="translate(520.587838 674.810437) scale(0.09 -0.09)">
     <defs>
      <path id="SegoeUI-79" d="M 3066 3200 
L 1594 -513 
Q 1200 -1506 488 -1506 
Q 288 -1506 153 -1466 
L 153 -1006 
Q 319 -1063 456 -1063 
Q 844 -1063 1038 -600 
L 1294 6 
L 44 3200 
L 613 3200 
L 1478 738 
Q 1494 691 1544 494 
L 1563 494 
Q 1578 569 1625 731 
L 2534 3200 
L 3066 3200 
z
" transform="scale(0.015625)"/>
     </defs>
     <use xlink:href="#SegoeUI-2022"/>
     <use xlink:href="#SegoeUI-20" x="40.625"/>
     <use xlink:href="#SegoeUI-44" x="68.017578"/>
     <use xlink:href="#SegoeUI-69" x="138.134766"/>
     <use xlink:href="#SegoeUI-61" x="162.353516"/>
     <use xlink:href="#SegoeUI-67" x="213.232422"/>
     <use xlink:href="#SegoeUI-6f" x="272.119141"/>
     <use xlink:href="#SegoeUI-6e" x="330.712891"/>
     <use xlink:href="#SegoeUI-61" x="387.304688"/>
     <use xlink:href="#SegoeUI-6c" x="438.183594"/>
     <use xlink:href="#SegoeUI-65" x="462.402344"/>
     <use xlink:href="#SegoeUI-73" x="514.697266"/>
     <use xlink:href="#SegoeUI-20" x="557.128906"/>
     <use xlink:href="#SegoeUI-69" x="584.521484"/>
     <use xlink:href="#SegoeUI-67" x="608.740234"/>
     <use xlink:href="#SegoeUI-75" x="667.626953"/>
     <use xlink:href="#SegoeUI-61" x="724.21875"/>
     <use xlink:href="#SegoeUI-6c" x="775.097656"/>
     <use xlink:href="#SegoeUI-65" x="799.316406"/>
     <use xlink:href="#SegoeUI-73" x="851.611328"/>
     <use xlink:href="#SegoeUI-20" x="894.042969"/>
     <use xlink:href="#SegoeUI-79" x="921.435547"/>
     <use xlink:href="#SegoeUI-20" x="969.824219"/>
     <use xlink:href="#SegoeUI-70" x="997.216797"/>
     <use xlink:href="#SegoeUI-65" x="1056.005859"/>
     <use xlink:href="#SegoeUI-72" x="1108.300781"/>
     <use xlink:href="#SegoeUI-70" x="1143.066406"/>
     <use xlink:href="#SegoeUI-65" x="1201.855469"/>
     <use xlink:href="#SegoeUI-6e" x="1254.150391"/>
     <use xlink:href="#SegoeUI-64" x="1310.742188"/>
     <use xlink:href="#SegoeUI-69" x="1369.628906"/>
     <use xlink:href="#SegoeUI-63" x="1393.847656"/>
     <use xlink:href="#SegoeUI-75" x="1440.039062"/>
     <use xlink:href="#SegoeUI-6c" x="1496.630859"/>
     <use xlink:href="#SegoeUI-61" x="1520.849609"/>
     <use xlink:href="#SegoeUI-72" x="1571.728516"/>
     <use xlink:href="#SegoeUI-65" x="1605.119141"/>
     <use xlink:href="#SegoeUI-73" x="1657.414062"/>
    </g>
   </g>
   <g id="text_8">
    <!-- CUADRADO -->
    <g style="fill: #2c2f33" transform="translate(598.174416 386.475937) scale(0.12 -0.12)">
     <defs>
      <path id="SegoeUI-Bold-44" d="M 513 0 
L 513 4481 
L 2100 4481 
Q 4488 4481 4488 2297 
Q 4488 1250 3836 625 
Q 3184 0 2100 0 
L 513 0 
z
M 1522 3659 
L 1522 819 
L 2022 819 
Q 2678 819 3051 1212 
Q 3425 1606 3425 2284 
Q 3425 2925 3054 3292 
Q 2684 3659 2016 3659 
L 1522 3659 
z
" transform="scale(0.015625)"/>
     </defs>
     <use xlink:href="#SegoeUI-Bold-43"/>
     <use xlink:href="#SegoeUI-Bold-55" x="62.402344"/>
     <use xlink:href="#SegoeUI-Bold-41" x="132.466797"/>
     <use xlink:href="#SegoeUI-Bold-44" x="202.779297"/>
     <use xlink:href="#SegoeUI-Bold-52" x="276.509766"/>
     <use xlink:href="#SegoeUI-Bold-41" x="341.792969"/>
     <use xlink:href="#SegoeUI-Bold-44" x="412.105469"/>
     <use xlink:href="#SegoeUI-Bold-4f" x="485.835938"/>
    </g>
   </g>
  </g>
  <g id="text_9">
   <!-- Propiedades de Cuadriláteros Especiales -->
   <g style="fill: #2c2f33" transform="translate(283.761411 17.564375) scale(0.14 -0.14)">
    <defs>
     <path id="SegoeUI-Bold-72" d="M 2503 2309 
Q 2325 2406 2088 2406 
Q 1766 2406 1584 2170 
Q 1403 1934 1403 1528 
L 1403 0 
L 416 0 
L 416 3200 
L 1403 3200 
L 1403 2606 
L 1416 2606 
Q 1650 3256 2259 3256 
Q 2416 3256 2503 3219 
L 2503 2309 
z
" transform="scale(0.015625)"/>
     <path id="SegoeUI-Bold-6f" d="M 1941 -78 
Q 1141 -78 683 370 
Q 225 819 225 1588 
Q 225 2381 700 2829 
Q 1175 3278 1984 3278 
Q 2781 3278 3234 2829 
Q 3688 2381 3688 1644 
Q 3688 847 3220 384 
Q 2753 -78 1941 -78 
z
M 1966 2522 
Q 1616 2522 1422 2281 
Q 1228 2041 1228 1600 
Q 1228 678 1972 678 
Q 2681 678 2681 1625 
Q 2681 2522 1966 2522 
z
" transform="scale(0.015625)"/>
     <path id="SegoeUI-Bold-70" d="M 1416 372 
L 1403 372 
L 1403 -1472 
L 416 -1472 
L 416 3200 
L 1403 3200 
L 1403 2719 
L 1416 2719 
Q 1781 3278 2444 3278 
Q 3066 3278 3405 2851 
Q 3744 2425 3744 1691 
Q 3744 891 3348 406 
Q 2953 -78 2297 -78 
Q 1719 -78 1416 372 
z
M 1388 1684 
L 1388 1428 
Q 1388 1097 1563 887 
Q 1738 678 2022 678 
Q 2359 678 2545 939 
Q 2731 1200 2731 1678 
Q 2731 2522 2075 2522 
Q 1772 2522 1580 2292 
Q 1388 2063 1388 1684 
z
" transform="scale(0.015625)"/>
     <path id="SegoeUI-Bold-69" d="M 916 3706 
Q 666 3706 506 3854 
Q 347 4003 347 4219 
Q 347 4441 506 4581 
Q 666 4722 916 4722 
Q 1169 4722 1326 4581 
Q 1484 4441 1484 4219 
Q 1484 3994 1326 3850 
Q 1169 3706 916 3706 
z
M 1403 0 
L 416 0 
L 416 3200 
L 1403 3200 
L 1403 0 
z
" transform="scale(0.015625)"/>
     <path id="SegoeUI-Bold-65" d="M 3291 1319 
L 1203 1319 
Q 1253 622 2081 622 
Q 2609 622 3009 872 
L 3009 159 
Q 2566 -78 1856 -78 
Q 1081 -78 653 351 
Q 225 781 225 1550 
Q 225 2347 687 2812 
Q 1150 3278 1825 3278 
Q 2525 3278 2908 2862 
Q 3291 2447 3291 1734 
L 3291 1319 
z
M 2375 1925 
Q 2375 2613 1819 2613 
Q 1581 2613 1407 2416 
Q 1234 2219 1197 1925 
L 2375 1925 
z
" transform="scale(0.015625)"/>
     <path id="SegoeUI-Bold-64" d="M 3547 0 
L 2559 0 
L 2559 441 
L 2547 441 
Q 2209 -78 1556 -78 
Q 956 -78 590 345 
Q 225 769 225 1528 
Q 225 2322 628 2800 
Q 1031 3278 1684 3278 
Q 2303 3278 2547 2834 
L 2559 2834 
L 2559 4738 
L 3547 4738 
L 3547 0 
z
M 2578 1556 
L 2578 1797 
Q 2578 2109 2397 2315 
Q 2216 2522 1925 2522 
Q 1597 2522 1412 2264 
Q 1228 2006 1228 1556 
Q 1228 1134 1406 906 
Q 1584 678 1900 678 
Q 2200 678 2389 918 
Q 2578 1159 2578 1556 
z
" transform="scale(0.015625)"/>
     <path id="SegoeUI-Bold-61" d="M 3078 0 
L 2144 0 
L 2144 459 
L 2131 459 
Q 1809 -78 1178 -78 
Q 713 -78 445 186 
Q 178 450 178 891 
Q 178 1822 1281 1966 
L 2150 2081 
Q 2150 2606 1581 2606 
Q 1009 2606 494 2266 
L 494 3009 
Q 700 3116 1058 3197 
Q 1416 3278 1709 3278 
Q 3078 3278 3078 1913 
L 3078 0 
z
M 2150 1300 
L 2150 1516 
L 1569 1441 
Q 1088 1378 1088 1006 
Q 1088 838 1205 730 
Q 1322 622 1522 622 
Q 1800 622 1975 814 
Q 2150 1006 2150 1300 
z
" transform="scale(0.015625)"/>
     <path id="SegoeUI-Bold-73" d="M 206 84 
L 206 884 
Q 450 738 692 666 
Q 934 594 1150 594 
Q 1413 594 1564 666 
Q 1716 738 1716 884 
Q 1716 978 1647 1040 
Q 1578 1103 1470 1150 
Q 1363 1197 1234 1234 
Q 1106 1272 988 1319 
Q 797 1391 651 1473 
Q 506 1556 407 1665 
Q 309 1775 257 1919 
Q 206 2063 206 2259 
Q 206 2528 323 2722 
Q 441 2916 636 3039 
Q 831 3163 1082 3220 
Q 1334 3278 1606 3278 
Q 1819 3278 2037 3245 
Q 2256 3213 2469 3150 
L 2469 2388 
Q 2281 2497 2067 2551 
Q 1853 2606 1647 2606 
Q 1550 2606 1464 2589 
Q 1378 2572 1312 2539 
Q 1247 2506 1209 2454 
Q 1172 2403 1172 2338 
Q 1172 2250 1228 2187 
Q 1284 2125 1375 2079 
Q 1466 2034 1577 1998 
Q 1688 1963 1797 1925 
Q 1994 1856 2153 1775 
Q 2313 1694 2427 1584 
Q 2541 1475 2602 1328 
Q 2663 1181 2663 978 
Q 2663 694 2539 492 
Q 2416 291 2211 164 
Q 2006 38 1739 -20 
Q 1472 -78 1184 -78 
Q 656 -78 206 84 
z
" transform="scale(0.015625)"/>
     <path id="SegoeUI-Bold-20" transform="scale(0.015625)"/>
     <path id="SegoeUI-Bold-75" d="M 3456 0 
L 2472 0 
L 2472 488 
L 2456 488 
Q 2091 -78 1478 -78 
Q 366 -78 366 1269 
L 366 3200 
L 1350 3200 
L 1350 1356 
Q 1350 678 1888 678 
Q 2153 678 2312 864 
Q 2472 1050 2472 1369 
L 2472 3200 
L 3456 3200 
L 3456 0 
z
" transform="scale(0.015625)"/>
     <path id="SegoeUI-Bold-6c" d="M 1403 0 
L 416 0 
L 416 4738 
L 1403 4738 
L 1403 0 
z
" transform="scale(0.015625)"/>
     <path id="SegoeUI-Bold-e1" d="M 3078 0 
L 2144 0 
L 2144 459 
L 2131 459 
Q 1809 -78 1178 -78 
Q 713 -78 445 186 
Q 178 450 178 891 
Q 178 1822 1281 1966 
L 2150 2081 
Q 2150 2606 1581 2606 
Q 1009 2606 494 2266 
L 494 3009 
Q 700 3116 1058 3197 
Q 1416 3278 1709 3278 
Q 3078 3278 3078 1913 
L 3078 0 
z
M 2150 1300 
L 2150 1516 
L 1569 1441 
Q 1088 1378 1088 1006 
Q 1088 838 1205 730 
Q 1322 622 1522 622 
Q 1800 622 1975 814 
Q 2150 1006 2150 1300 
z
M 2783 4716 
L 1804 3706 
L 1092 3706 
L 1904 4716 
L 2783 4716 
z
" transform="scale(0.015625)"/>
     <path id="SegoeUI-Bold-74" d="M 2350 38 
Q 2131 -78 1691 -78 
Q 647 -78 647 1006 
L 647 2472 
L 128 2472 
L 128 3200 
L 647 3200 
L 647 3891 
L 1631 4172 
L 1631 3200 
L 2350 3200 
L 2350 2472 
L 1631 2472 
L 1631 1178 
Q 1631 678 2028 678 
Q 2184 678 2350 769 
L 2350 38 
z
" transform="scale(0.015625)"/>
     <path id="SegoeUI-Bold-63" d="M 2841 116 
Q 2506 -78 1875 -78 
Q 1138 -78 681 369 
Q 225 816 225 1522 
Q 225 2338 714 2808 
Q 1203 3278 2022 3278 
Q 2588 3278 2841 3128 
L 2841 2291 
Q 2531 2522 2150 2522 
Q 1725 2522 1476 2273 
Q 1228 2025 1228 1588 
Q 1228 1163 1465 920 
Q 1703 678 2119 678 
Q 2488 678 2841 909 
L 2841 116 
z
" transform="scale(0.015625)"/>
    </defs>
    <use xlink:href="#SegoeUI-Bold-50"/>
    <use xlink:href="#SegoeUI-Bold-72" x="61.425781"/>
    <use xlink:href="#SegoeUI-Bold-6f" x="100.845703"/>
    <use xlink:href="#SegoeUI-Bold-70" x="161.978516"/>
    <use xlink:href="#SegoeUI-Bold-69" x="223.990234"/>
    <use xlink:href="#SegoeUI-Bold-65" x="252.408203"/>
    <use xlink:href="#SegoeUI-Bold-64" x="306.509766"/>
    <use xlink:href="#SegoeUI-Bold-61" x="368.423828"/>
    <use xlink:href="#SegoeUI-Bold-64" x="422.232422"/>
    <use xlink:href="#SegoeUI-Bold-65" x="484.146484"/>
    <use xlink:href="#SegoeUI-Bold-73" x="538.248047"/>
    <use xlink:href="#SegoeUI-Bold-20" x="582.242188"/>
    <use xlink:href="#SegoeUI-Bold-64" x="609.830078"/>
    <use xlink:href="#SegoeUI-Bold-65" x="671.744141"/>
    <use xlink:href="#SegoeUI-Bold-20" x="725.845703"/>
    <use xlink:href="#SegoeUI-Bold-43" x="753.433594"/>
    <use xlink:href="#SegoeUI-Bold-75" x="815.835938"/>
    <use xlink:href="#SegoeUI-Bold-61" x="876.333984"/>
    <use xlink:href="#SegoeUI-Bold-64" x="930.142578"/>
    <use xlink:href="#SegoeUI-Bold-72" x="992.056641"/>
    <use xlink:href="#SegoeUI-Bold-69" x="1032.226562"/>
    <use xlink:href="#SegoeUI-Bold-6c" x="1060.644531"/>
    <use xlink:href="#SegoeUI-Bold-e1" x="1089.0625"/>
    <use xlink:href="#SegoeUI-Bold-74" x="1142.871094"/>
    <use xlink:href="#SegoeUI-Bold-65" x="1181.412109"/>
    <use xlink:href="#SegoeUI-Bold-72" x="1235.513672"/>
    <use xlink:href="#SegoeUI-Bold-6f" x="1274.933594"/>
    <use xlink:href="#SegoeUI-Bold-73" x="1336.066406"/>
    <use xlink:href="#SegoeUI-Bold-20" x="1380.060547"/>
    <use xlink:href="#SegoeUI-Bold-45" x="1407.648438"/>
    <use xlink:href="#SegoeUI-Bold-73" x="1460.871094"/>
    <use xlink:href="#SegoeUI-Bold-70" x="1504.865234"/>
    <use xlink:href="#SegoeUI-Bold-65" x="1566.876953"/>
    <use xlink:href="#SegoeUI-Bold-63" x="1620.978516"/>
    <use xlink:href="#SegoeUI-Bold-69" x="1668.976562"/>
    <use xlink:href="#SegoeUI-Bold-61" x="1697.394531"/>
    <use xlink:href="#SegoeUI-Bold-6c" x="1751.203125"/>
    <use xlink:href="#SegoeUI-Bold-65" x="1779.621094"/>
    <use xlink:href="#SegoeUI-Bold-73" x="1833.722656"/>
   </g>
  </g>
 </g>
 <defs>
  <clipPath id="pc8d5c56d9c">
   <rect x="7.2" y="45.668605" width="382.709937" height="324.723582"/>
  </clipPath>
  <clipPath id="p36acb59d1a">
   <rect x="440.51976" y="45.668605" width="382.709937" height="324.723582"/>
  </clipPath>
  <clipPath id="pe68c713402">
   <rect x="7.2" y="396.475937" width="382.709937" height="324.723583"/>
  </clipPath>
  <clipPath id="p87481d2f33">
   <rect x="440.51976" y="396.475937" width="382.709937" height="324.723583"/>
  </clipPath>
 </defs>
</svg>
