<?xml version="1.0" encoding="utf-8" standalone="no"?>
<!DOCTYPE svg PUBLIC "-//W3C//DTD SVG 1.1//EN"
  "http://www.w3.org/Graphics/SVG/1.1/DTD/svg11.dtd">
<svg xmlns:xlink="http://www.w3.org/1999/xlink" width="517.140134pt" height="584.39952pt" viewBox="0 0 517.140134 584.39952" xmlns="http://www.w3.org/2000/svg" version="1.1">
 <metadata>
  <rdf:RDF xmlns:dc="http://purl.org/dc/elements/1.1/" xmlns:cc="http://creativecommons.org/ns#" xmlns:rdf="http://www.w3.org/1999/02/22-rdf-syntax-ns#">
   <cc:Work>
    <dc:type rdf:resource="http://purl.org/dc/dcmitype/StillImage"/>
    <dc:date>2026-04-11T16:11:39.161096</dc:date>
    <dc:format>image/svg+xml</dc:format>
    <dc:creator>
     <cc:Agent>
      <dc:title>Matplotlib v3.8.4, https://matplotlib.org/</dc:title>
     </cc:Agent>
    </dc:creator>
   </cc:Work>
  </rdf:RDF>
 </metadata>
 <defs>
  <style type="text/css">*{stroke-linejoin: round; stroke-linecap: butt}</style>
 </defs>
 <g id="figure_1">
  <g id="patch_1">
   <path d="M 0 584.39952 
L 517.140134 584.39952 
L 517.140134 0 
L 0 0 
z
" style="fill: #ffffff"/>
  </g>
  <g id="axes_1">
   <g id="patch_2">
    <path d="M 90.990022 493.409498 
L 90.990022 32.564375 
L 103.558526 32.564375 
L 103.558526 493.409498 
z
" clip-path="url(#pfaa7c75252)" style="fill: #9ca3af; opacity: 0.4; stroke: #9ca3af; stroke-linejoin: miter"/>
   </g>
   <g id="patch_3">
    <path d="M 49.095011 493.409498 
L 426.150112 493.409498 
L 426.150112 505.978001 
L 49.095011 505.978001 
z
" clip-path="url(#pfaa7c75252)" style="fill: #d1d5db; opacity: 0.5; stroke: #d1d5db; stroke-linejoin: miter"/>
   </g>
   <g id="line2d_1">
    <path d="M 90.990022 493.409498 
L 90.990022 32.564375 
" clip-path="url(#pfaa7c75252)" style="fill: none; stroke: #374151; stroke-width: 3; stroke-linecap: square"/>
   </g>
   <g id="line2d_2">
    <path d="M 49.095011 493.409498 
L 426.150112 493.409498 
" clip-path="url(#pfaa7c75252)" style="fill: none; stroke: #374151; stroke-width: 3; stroke-linecap: square"/>
   </g>
   <g id="line2d_3">
    <path d="M 342.360089 493.409498 
L 90.990022 158.249408 
" clip-path="url(#pfaa7c75252)" style="fill: none; stroke: #e12885; stroke-width: 4; stroke-linecap: square"/>
   </g>
   <g id="line2d_4">
    <defs>
     <path id="madb81c13d6" d="M 0 5 
C 1.326016 5 2.597899 4.473168 3.535534 3.535534 
C 4.473168 2.597899 5 1.326016 5 0 
C 5 -1.326016 4.473168 -2.597899 3.535534 -3.535534 
C 2.597899 -4.473168 1.326016 -5 0 -5 
C -1.326016 -5 -2.597899 -4.473168 -3.535534 -3.535534 
C -4.473168 -2.597899 -5 -1.326016 -5 0 
C -5 1.326016 -4.473168 2.597899 -3.535534 3.535534 
C -2.597899 4.473168 -1.326016 5 0 5 
z
" style="stroke: #39c5bb"/>
    </defs>
    <g clip-path="url(#pfaa7c75252)">
     <use xlink:href="#madb81c13d6" x="342.360089" y="493.409498" style="fill: #39c5bb; stroke: #39c5bb"/>
    </g>
   </g>
   <g id="line2d_5">
    <g clip-path="url(#pfaa7c75252)">
     <use xlink:href="#madb81c13d6" x="90.990022" y="158.249408" style="fill: #39c5bb; stroke: #39c5bb"/>
    </g>
   </g>
   <g id="line2d_6">
    <path d="M 111.937528 493.409498 
L 111.937528 472.461992 
L 90.990022 472.461992 
" clip-path="url(#pfaa7c75252)" style="fill: none; stroke: #374151; stroke-width: 1.5; stroke-linecap: square"/>
   </g>
   <g id="line2d_7">
    <path d="M 90.990022 493.409498 
L 342.360089 493.409498 
" clip-path="url(#pfaa7c75252)" style="fill: none; stroke-dasharray: 5.55,2.4; stroke-dashoffset: 0; stroke: #39c5bb; stroke-opacity: 0.5; stroke-width: 1.5"/>
   </g>
   <g id="line2d_8">
    <path d="M 90.990022 493.409498 
L 90.990022 158.249408 
" clip-path="url(#pfaa7c75252)" style="fill: none; stroke-dasharray: 5.55,2.4; stroke-dashoffset: 0; stroke: #39c5bb; stroke-opacity: 0.5; stroke-width: 1.5"/>
   </g>
   <g id="line2d_9">
    <path d="M 310.519881 468.831091 
L 323.926284 450.955886 
" clip-path="url(#pfaa7c75252)" style="fill: none; stroke: #e12885; stroke-opacity: 0.7; stroke-width: 1.5; stroke-linecap: square"/>
   </g>
   <g id="line2d_10">
    <path d="M 285.382874 435.315082 
L 298.789278 417.439877 
" clip-path="url(#pfaa7c75252)" style="fill: none; stroke: #e12885; stroke-opacity: 0.7; stroke-width: 1.5; stroke-linecap: square"/>
   </g>
   <g id="line2d_11">
    <path d="M 260.245867 401.799073 
L 273.652271 383.923869 
" clip-path="url(#pfaa7c75252)" style="fill: none; stroke: #e12885; stroke-opacity: 0.7; stroke-width: 1.5; stroke-linecap: square"/>
   </g>
   <g id="line2d_12">
    <path d="M 235.108861 368.283064 
L 248.515264 350.40786 
" clip-path="url(#pfaa7c75252)" style="fill: none; stroke: #e12885; stroke-opacity: 0.7; stroke-width: 1.5; stroke-linecap: square"/>
   </g>
   <g id="line2d_13">
    <path d="M 209.971854 334.767055 
L 223.378258 316.891851 
" clip-path="url(#pfaa7c75252)" style="fill: none; stroke: #e12885; stroke-opacity: 0.7; stroke-width: 1.5; stroke-linecap: square"/>
   </g>
   <g id="line2d_14">
    <path d="M 184.834847 301.251047 
L 198.241251 283.375842 
" clip-path="url(#pfaa7c75252)" style="fill: none; stroke: #e12885; stroke-opacity: 0.7; stroke-width: 1.5; stroke-linecap: square"/>
   </g>
   <g id="line2d_15">
    <path d="M 159.697841 267.735038 
L 173.104244 249.859833 
" clip-path="url(#pfaa7c75252)" style="fill: none; stroke: #e12885; stroke-opacity: 0.7; stroke-width: 1.5; stroke-linecap: square"/>
   </g>
   <g id="line2d_16">
    <path d="M 134.560834 234.219029 
L 147.967237 216.343824 
" clip-path="url(#pfaa7c75252)" style="fill: none; stroke: #e12885; stroke-opacity: 0.7; stroke-width: 1.5; stroke-linecap: square"/>
   </g>
   <g id="line2d_17">
    <path d="M 109.423827 200.70302 
L 122.830231 182.827815 
" clip-path="url(#pfaa7c75252)" style="fill: none; stroke: #e12885; stroke-opacity: 0.7; stroke-width: 1.5; stroke-linecap: square"/>
   </g>
   <g id="text_1">
    <!-- 3 m -->
    <g style="fill: #1f2937" transform="translate(205.188337 535.304509) scale(0.13 -0.13)">
     <defs>
      <path id="SegoeUI-Bold-33" d="M 366 147 
L 366 1006 
Q 816 678 1416 678 
Q 1794 678 2005 840 
Q 2216 1003 2216 1294 
Q 2216 1594 1955 1756 
Q 1694 1919 1238 1919 
L 822 1919 
L 822 2675 
L 1206 2675 
Q 2081 2675 2081 3256 
Q 2081 3803 1409 3803 
Q 959 3803 534 3513 
L 534 4319 
Q 1006 4556 1634 4556 
Q 2322 4556 2705 4247 
Q 3088 3938 3088 3444 
Q 3088 2566 2197 2344 
L 2197 2328 
Q 2672 2269 2947 1983 
Q 3222 1697 3222 1281 
Q 3222 653 2762 287 
Q 2303 -78 1494 -78 
Q 800 -78 366 147 
z
" transform="scale(0.015625)"/>
      <path id="SegoeUI-Bold-20" transform="scale(0.015625)"/>
      <path id="SegoeUI-Bold-6d" d="M 5497 0 
L 4513 0 
L 4513 1825 
Q 4513 2522 4000 2522 
Q 3756 2522 3603 2312 
Q 3450 2103 3450 1791 
L 3450 0 
L 2463 0 
L 2463 1844 
Q 2463 2522 1959 2522 
Q 1706 2522 1554 2322 
Q 1403 2122 1403 1778 
L 1403 0 
L 416 0 
L 416 3200 
L 1403 3200 
L 1403 2700 
L 1416 2700 
Q 1569 2956 1845 3117 
Q 2122 3278 2450 3278 
Q 3128 3278 3378 2681 
Q 3744 3278 4453 3278 
Q 5497 3278 5497 1991 
L 5497 0 
z
" transform="scale(0.015625)"/>
     </defs>
     <use xlink:href="#SegoeUI-Bold-33"/>
     <use xlink:href="#SegoeUI-Bold-20" x="57.519531"/>
     <use xlink:href="#SegoeUI-Bold-6d" x="85.107422"/>
    </g>
   </g>
   <g id="patch_4">
    <path d="M 94.665422 518.546504 
Q 216.675389 518.546504 338.685355 518.546504 
" style="fill: none; stroke: #1f2937; stroke-width: 1.5; stroke-linecap: round"/>
    <path d="M 98.665422 520.546504 
L 94.665422 518.546504 
L 98.665422 516.546504 
" style="fill: none; stroke: #1f2937; stroke-width: 1.5; stroke-linecap: round"/>
    <path d="M 334.685355 516.546504 
L 338.685355 518.546504 
L 334.685355 520.546504 
" style="fill: none; stroke: #1f2937; stroke-width: 1.5; stroke-linecap: round"/>
   </g>
   <g id="text_2">
    <!-- 4 m -->
    <g style="fill: #4b5563" transform="translate(44.03304 328.819453) rotate(-90) scale(0.13 -0.13)">
     <defs>
      <path id="SegoeUI-Bold-34" d="M 2975 4481 
L 2975 1656 
L 3513 1656 
L 3513 919 
L 2975 919 
L 2975 0 
L 2075 0 
L 2075 919 
L 122 919 
L 122 1691 
Q 381 1981 659 2326 
Q 938 2672 1197 3037 
Q 1456 3403 1679 3773 
Q 1903 4144 2059 4481 
L 2975 4481 
z
M 1006 1656 
L 2075 1656 
L 2075 3222 
Q 1966 3019 1837 2811 
Q 1709 2603 1568 2401 
Q 1428 2200 1284 2011 
Q 1141 1822 1006 1656 
z
" transform="scale(0.015625)"/>
     </defs>
     <use xlink:href="#SegoeUI-Bold-34"/>
     <use xlink:href="#SegoeUI-Bold-20" x="57.519531"/>
     <use xlink:href="#SegoeUI-Bold-6d" x="85.107422"/>
    </g>
   </g>
   <g id="patch_5">
    <path d="M 61.663515 489.730262 
Q 61.663515 325.828556 61.663515 161.926851 
" style="fill: none; stroke: #4b5563; stroke-width: 1.5; stroke-linecap: round"/>
    <path d="M 63.663515 485.730262 
L 61.663515 489.730262 
L 59.663515 485.730262 
" style="fill: none; stroke: #4b5563; stroke-width: 1.5; stroke-linecap: round"/>
    <path d="M 59.663515 165.926851 
L 61.663515 161.926851 
L 63.663515 165.926851 
" style="fill: none; stroke: #4b5563; stroke-width: 1.5; stroke-linecap: round"/>
   </g>
   <g id="text_3">
    <!-- 5 m -->
    <g style="fill: #e12885" transform="translate(257.877183 301.883019) rotate(-53) scale(0.13 -0.13)">
     <defs>
      <path id="SegoeUI-Bold-35" d="M 444 116 
L 444 959 
Q 903 678 1422 678 
Q 1813 678 2033 864 
Q 2253 1050 2253 1369 
Q 2253 2034 1313 2034 
Q 966 2034 513 1981 
L 681 4481 
L 3053 4481 
L 3053 3675 
L 1434 3675 
L 1372 2778 
Q 1613 2797 1788 2797 
Q 2478 2797 2868 2434 
Q 3259 2072 3259 1459 
Q 3259 781 2793 351 
Q 2328 -78 1531 -78 
Q 884 -78 444 116 
z
" transform="scale(0.015625)"/>
     </defs>
     <use xlink:href="#SegoeUI-Bold-35"/>
     <use xlink:href="#SegoeUI-Bold-20" x="57.519531"/>
     <use xlink:href="#SegoeUI-Bold-6d" x="85.107422"/>
    </g>
   </g>
   <g id="text_4">
    <!-- Teorema de Pitágoras: -->
    <g style="fill: #374151" transform="translate(300.465078 116.354397) scale(0.11 -0.11)">
     <defs>
      <path id="SegoeUI-Bold-54" d="M 3659 3659 
L 2381 3659 
L 2381 0 
L 1369 0 
L 1369 3659 
L 97 3659 
L 97 4481 
L 3659 4481 
L 3659 3659 
z
" transform="scale(0.015625)"/>
      <path id="SegoeUI-Bold-65" d="M 3291 1319 
L 1203 1319 
Q 1253 622 2081 622 
Q 2609 622 3009 872 
L 3009 159 
Q 2566 -78 1856 -78 
Q 1081 -78 653 351 
Q 225 781 225 1550 
Q 225 2347 687 2812 
Q 1150 3278 1825 3278 
Q 2525 3278 2908 2862 
Q 3291 2447 3291 1734 
L 3291 1319 
z
M 2375 1925 
Q 2375 2613 1819 2613 
Q 1581 2613 1407 2416 
Q 1234 2219 1197 1925 
L 2375 1925 
z
" transform="scale(0.015625)"/>
      <path id="SegoeUI-Bold-6f" d="M 1941 -78 
Q 1141 -78 683 370 
Q 225 819 225 1588 
Q 225 2381 700 2829 
Q 1175 3278 1984 3278 
Q 2781 3278 3234 2829 
Q 3688 2381 3688 1644 
Q 3688 847 3220 384 
Q 2753 -78 1941 -78 
z
M 1966 2522 
Q 1616 2522 1422 2281 
Q 1228 2041 1228 1600 
Q 1228 678 1972 678 
Q 2681 678 2681 1625 
Q 2681 2522 1966 2522 
z
" transform="scale(0.015625)"/>
      <path id="SegoeUI-Bold-72" d="M 2503 2309 
Q 2325 2406 2088 2406 
Q 1766 2406 1584 2170 
Q 1403 1934 1403 1528 
L 1403 0 
L 416 0 
L 416 3200 
L 1403 3200 
L 1403 2606 
L 1416 2606 
Q 1650 3256 2259 3256 
Q 2416 3256 2503 3219 
L 2503 2309 
z
" transform="scale(0.015625)"/>
      <path id="SegoeUI-Bold-61" d="M 3078 0 
L 2144 0 
L 2144 459 
L 2131 459 
Q 1809 -78 1178 -78 
Q 713 -78 445 186 
Q 178 450 178 891 
Q 178 1822 1281 1966 
L 2150 2081 
Q 2150 2606 1581 2606 
Q 1009 2606 494 2266 
L 494 3009 
Q 700 3116 1058 3197 
Q 1416 3278 1709 3278 
Q 3078 3278 3078 1913 
L 3078 0 
z
M 2150 1300 
L 2150 1516 
L 1569 1441 
Q 1088 1378 1088 1006 
Q 1088 838 1205 730 
Q 1322 622 1522 622 
Q 1800 622 1975 814 
Q 2150 1006 2150 1300 
z
" transform="scale(0.015625)"/>
      <path id="SegoeUI-Bold-64" d="M 3547 0 
L 2559 0 
L 2559 441 
L 2547 441 
Q 2209 -78 1556 -78 
Q 956 -78 590 345 
Q 225 769 225 1528 
Q 225 2322 628 2800 
Q 1031 3278 1684 3278 
Q 2303 3278 2547 2834 
L 2559 2834 
L 2559 4738 
L 3547 4738 
L 3547 0 
z
M 2578 1556 
L 2578 1797 
Q 2578 2109 2397 2315 
Q 2216 2522 1925 2522 
Q 1597 2522 1412 2264 
Q 1228 2006 1228 1556 
Q 1228 1134 1406 906 
Q 1584 678 1900 678 
Q 2200 678 2389 918 
Q 2578 1159 2578 1556 
z
" transform="scale(0.015625)"/>
      <path id="SegoeUI-Bold-50" d="M 1522 1544 
L 1522 0 
L 513 0 
L 513 4481 
L 2094 4481 
Q 3788 4481 3788 3053 
Q 3788 2378 3302 1961 
Q 2816 1544 2003 1544 
L 1522 1544 
z
M 1522 3706 
L 1522 2309 
L 1919 2309 
Q 2725 2309 2725 3016 
Q 2725 3706 1919 3706 
L 1522 3706 
z
" transform="scale(0.015625)"/>
      <path id="SegoeUI-Bold-69" d="M 916 3706 
Q 666 3706 506 3854 
Q 347 4003 347 4219 
Q 347 4441 506 4581 
Q 666 4722 916 4722 
Q 1169 4722 1326 4581 
Q 1484 4441 1484 4219 
Q 1484 3994 1326 3850 
Q 1169 3706 916 3706 
z
M 1403 0 
L 416 0 
L 416 3200 
L 1403 3200 
L 1403 0 
z
" transform="scale(0.015625)"/>
      <path id="SegoeUI-Bold-74" d="M 2350 38 
Q 2131 -78 1691 -78 
Q 647 -78 647 1006 
L 647 2472 
L 128 2472 
L 128 3200 
L 647 3200 
L 647 3891 
L 1631 4172 
L 1631 3200 
L 2350 3200 
L 2350 2472 
L 1631 2472 
L 1631 1178 
Q 1631 678 2028 678 
Q 2184 678 2350 769 
L 2350 38 
z
" transform="scale(0.015625)"/>
      <path id="SegoeUI-Bold-e1" d="M 3078 0 
L 2144 0 
L 2144 459 
L 2131 459 
Q 1809 -78 1178 -78 
Q 713 -78 445 186 
Q 178 450 178 891 
Q 178 1822 1281 1966 
L 2150 2081 
Q 2150 2606 1581 2606 
Q 1009 2606 494 2266 
L 494 3009 
Q 700 3116 1058 3197 
Q 1416 3278 1709 3278 
Q 3078 3278 3078 1913 
L 3078 0 
z
M 2150 1300 
L 2150 1516 
L 1569 1441 
Q 1088 1378 1088 1006 
Q 1088 838 1205 730 
Q 1322 622 1522 622 
Q 1800 622 1975 814 
Q 2150 1006 2150 1300 
z
M 2783 4716 
L 1804 3706 
L 1092 3706 
L 1904 4716 
L 2783 4716 
z
" transform="scale(0.015625)"/>
      <path id="SegoeUI-Bold-67" d="M 3553 366 
Q 3553 -525 3037 -1014 
Q 2522 -1503 1544 -1503 
Q 897 -1503 519 -1319 
L 519 -488 
Q 1013 -775 1516 -775 
Q 2016 -775 2291 -511 
Q 2566 -247 2566 206 
L 2566 459 
L 2553 459 
Q 2216 -78 1556 -78 
Q 944 -78 584 353 
Q 225 784 225 1509 
Q 225 2322 625 2800 
Q 1025 3278 1678 3278 
Q 2263 3278 2553 2828 
L 2566 2828 
L 2566 3200 
L 3553 3200 
L 3553 366 
z
M 2578 1538 
L 2578 1791 
Q 2578 2094 2398 2308 
Q 2219 2522 1931 2522 
Q 1603 2522 1415 2265 
Q 1228 2009 1228 1544 
Q 1228 1144 1406 911 
Q 1584 678 1894 678 
Q 2200 678 2389 914 
Q 2578 1150 2578 1538 
z
" transform="scale(0.015625)"/>
      <path id="SegoeUI-Bold-73" d="M 206 84 
L 206 884 
Q 450 738 692 666 
Q 934 594 1150 594 
Q 1413 594 1564 666 
Q 1716 738 1716 884 
Q 1716 978 1647 1040 
Q 1578 1103 1470 1150 
Q 1363 1197 1234 1234 
Q 1106 1272 988 1319 
Q 797 1391 651 1473 
Q 506 1556 407 1665 
Q 309 1775 257 1919 
Q 206 2063 206 2259 
Q 206 2528 323 2722 
Q 441 2916 636 3039 
Q 831 3163 1082 3220 
Q 1334 3278 1606 3278 
Q 1819 3278 2037 3245 
Q 2256 3213 2469 3150 
L 2469 2388 
Q 2281 2497 2067 2551 
Q 1853 2606 1647 2606 
Q 1550 2606 1464 2589 
Q 1378 2572 1312 2539 
Q 1247 2506 1209 2454 
Q 1172 2403 1172 2338 
Q 1172 2250 1228 2187 
Q 1284 2125 1375 2079 
Q 1466 2034 1577 1998 
Q 1688 1963 1797 1925 
Q 1994 1856 2153 1775 
Q 2313 1694 2427 1584 
Q 2541 1475 2602 1328 
Q 2663 1181 2663 978 
Q 2663 694 2539 492 
Q 2416 291 2211 164 
Q 2006 38 1739 -20 
Q 1472 -78 1184 -78 
Q 656 -78 206 84 
z
" transform="scale(0.015625)"/>
      <path id="SegoeUI-Bold-3a" d="M 856 2209 
Q 613 2209 450 2357 
Q 288 2506 288 2725 
Q 288 2950 455 3094 
Q 622 3238 872 3238 
Q 1125 3238 1286 3092 
Q 1447 2947 1447 2725 
Q 1447 2497 1283 2353 
Q 1119 2209 856 2209 
z
M 856 -78 
Q 613 -78 450 72 
Q 288 222 288 441 
Q 288 666 455 809 
Q 622 953 872 953 
Q 1125 953 1286 808 
Q 1447 663 1447 441 
Q 1447 213 1283 67 
Q 1119 -78 856 -78 
z
" transform="scale(0.015625)"/>
     </defs>
     <use xlink:href="#SegoeUI-Bold-54"/>
     <use xlink:href="#SegoeUI-Bold-65" x="49.59375"/>
     <use xlink:href="#SegoeUI-Bold-6f" x="103.695312"/>
     <use xlink:href="#SegoeUI-Bold-72" x="164.828125"/>
     <use xlink:href="#SegoeUI-Bold-65" x="204.248047"/>
     <use xlink:href="#SegoeUI-Bold-6d" x="258.349609"/>
     <use xlink:href="#SegoeUI-Bold-61" x="349.951172"/>
     <use xlink:href="#SegoeUI-Bold-20" x="403.759766"/>
     <use xlink:href="#SegoeUI-Bold-64" x="431.347656"/>
     <use xlink:href="#SegoeUI-Bold-65" x="493.261719"/>
     <use xlink:href="#SegoeUI-Bold-20" x="547.363281"/>
     <use xlink:href="#SegoeUI-Bold-50" x="574.951172"/>
     <use xlink:href="#SegoeUI-Bold-69" x="636.376953"/>
     <use xlink:href="#SegoeUI-Bold-74" x="664.794922"/>
     <use xlink:href="#SegoeUI-Bold-e1" x="703.710938"/>
     <use xlink:href="#SegoeUI-Bold-67" x="757.519531"/>
     <use xlink:href="#SegoeUI-Bold-6f" x="819.433594"/>
     <use xlink:href="#SegoeUI-Bold-72" x="880.566406"/>
     <use xlink:href="#SegoeUI-Bold-61" x="920.361328"/>
     <use xlink:href="#SegoeUI-Bold-73" x="974.169922"/>
     <use xlink:href="#SegoeUI-Bold-3a" x="1018.164062"/>
    </g>
   </g>
   <g id="text_5">
    <!-- $escalera^2 = altura^2 + base^2$ -->
    <g style="fill: #2c2f33" transform="translate(300.465078 158.249408) scale(0.11 -0.11)">
     <defs>
      <path id="DejaVuSans-Oblique-65" d="M 3078 2063 
Q 3088 2113 3092 2166 
Q 3097 2219 3097 2272 
Q 3097 2653 2873 2875 
Q 2650 3097 2266 3097 
Q 1838 3097 1509 2826 
Q 1181 2556 1013 2059 
L 3078 2063 
z
M 3578 1613 
L 903 1613 
Q 884 1494 878 1425 
Q 872 1356 872 1306 
Q 872 872 1139 634 
Q 1406 397 1894 397 
Q 2269 397 2603 481 
Q 2938 566 3225 728 
L 3116 159 
Q 2806 34 2476 -28 
Q 2147 -91 1806 -91 
Q 1078 -91 686 257 
Q 294 606 294 1247 
Q 294 1794 489 2264 
Q 684 2734 1063 3103 
Q 1306 3334 1642 3459 
Q 1978 3584 2356 3584 
Q 2950 3584 3301 3228 
Q 3653 2872 3653 2272 
Q 3653 2128 3634 1964 
Q 3616 1800 3578 1613 
z
" transform="scale(0.015625)"/>
      <path id="DejaVuSans-Oblique-73" d="M 3200 3397 
L 3091 2853 
Q 2863 2978 2609 3040 
Q 2356 3103 2088 3103 
Q 1634 3103 1373 2948 
Q 1113 2794 1113 2528 
Q 1113 2219 1719 2053 
Q 1766 2041 1788 2034 
L 1972 1978 
Q 2547 1819 2739 1644 
Q 2931 1469 2931 1166 
Q 2931 609 2489 259 
Q 2047 -91 1331 -91 
Q 1053 -91 747 -37 
Q 441 16 72 128 
L 184 722 
Q 500 559 806 475 
Q 1113 391 1394 391 
Q 1816 391 2080 572 
Q 2344 753 2344 1031 
Q 2344 1331 1650 1516 
L 1591 1531 
L 1394 1581 
Q 956 1697 753 1886 
Q 550 2075 550 2369 
Q 550 2928 970 3256 
Q 1391 3584 2113 3584 
Q 2397 3584 2667 3537 
Q 2938 3491 3200 3397 
z
" transform="scale(0.015625)"/>
      <path id="DejaVuSans-Oblique-63" d="M 3431 3366 
L 3316 2797 
Q 3109 2947 2876 3022 
Q 2644 3097 2394 3097 
Q 2119 3097 1870 3000 
Q 1622 2903 1453 2725 
Q 1184 2453 1037 2087 
Q 891 1722 891 1331 
Q 891 859 1127 628 
Q 1363 397 1844 397 
Q 2081 397 2348 469 
Q 2616 541 2906 684 
L 2797 116 
Q 2547 13 2283 -39 
Q 2019 -91 1741 -91 
Q 1044 -91 669 257 
Q 294 606 294 1253 
Q 294 1797 489 2255 
Q 684 2713 1069 3078 
Q 1331 3328 1684 3456 
Q 2038 3584 2456 3584 
Q 2700 3584 2940 3529 
Q 3181 3475 3431 3366 
z
" transform="scale(0.015625)"/>
      <path id="DejaVuSans-Oblique-61" d="M 3438 1997 
L 3047 0 
L 2472 0 
L 2578 531 
Q 2325 219 2001 64 
Q 1678 -91 1281 -91 
Q 834 -91 548 182 
Q 263 456 263 884 
Q 263 1497 752 1853 
Q 1241 2209 2100 2209 
L 2900 2209 
L 2931 2363 
Q 2938 2388 2941 2417 
Q 2944 2447 2944 2509 
Q 2944 2788 2717 2942 
Q 2491 3097 2081 3097 
Q 1800 3097 1504 3025 
Q 1209 2953 897 2809 
L 997 3341 
Q 1322 3463 1633 3523 
Q 1944 3584 2234 3584 
Q 2853 3584 3176 3315 
Q 3500 3047 3500 2534 
Q 3500 2431 3484 2292 
Q 3469 2153 3438 1997 
z
M 2816 1759 
L 2241 1759 
Q 1534 1759 1195 1570 
Q 856 1381 856 984 
Q 856 709 1029 553 
Q 1203 397 1509 397 
Q 1978 397 2328 733 
Q 2678 1069 2791 1631 
L 2816 1759 
z
" transform="scale(0.015625)"/>
      <path id="DejaVuSans-Oblique-6c" d="M 1172 4863 
L 1747 4863 
L 800 0 
L 225 0 
L 1172 4863 
z
" transform="scale(0.015625)"/>
      <path id="DejaVuSans-Oblique-72" d="M 2853 2969 
Q 2766 3016 2653 3041 
Q 2541 3066 2413 3066 
Q 1953 3066 1609 2717 
Q 1266 2369 1153 1784 
L 800 0 
L 225 0 
L 909 3500 
L 1484 3500 
L 1375 2956 
Q 1603 3259 1920 3421 
Q 2238 3584 2597 3584 
Q 2691 3584 2781 3573 
Q 2872 3563 2963 3538 
L 2853 2969 
z
" transform="scale(0.015625)"/>
      <path id="DejaVuSans-32" d="M 1228 531 
L 3431 531 
L 3431 0 
L 469 0 
L 469 531 
Q 828 903 1448 1529 
Q 2069 2156 2228 2338 
Q 2531 2678 2651 2914 
Q 2772 3150 2772 3378 
Q 2772 3750 2511 3984 
Q 2250 4219 1831 4219 
Q 1534 4219 1204 4116 
Q 875 4013 500 3803 
L 500 4441 
Q 881 4594 1212 4672 
Q 1544 4750 1819 4750 
Q 2544 4750 2975 4387 
Q 3406 4025 3406 3419 
Q 3406 3131 3298 2873 
Q 3191 2616 2906 2266 
Q 2828 2175 2409 1742 
Q 1991 1309 1228 531 
z
" transform="scale(0.015625)"/>
      <path id="DejaVuSans-3d" d="M 678 2906 
L 4684 2906 
L 4684 2381 
L 678 2381 
L 678 2906 
z
M 678 1631 
L 4684 1631 
L 4684 1100 
L 678 1100 
L 678 1631 
z
" transform="scale(0.015625)"/>
      <path id="DejaVuSans-Oblique-74" d="M 2706 3500 
L 2619 3053 
L 1472 3053 
L 1100 1153 
Q 1081 1047 1072 975 
Q 1063 903 1063 863 
Q 1063 663 1183 572 
Q 1303 481 1569 481 
L 2150 481 
L 2053 0 
L 1503 0 
Q 991 0 739 200 
Q 488 400 488 806 
Q 488 878 497 964 
Q 506 1050 525 1153 
L 897 3053 
L 409 3053 
L 500 3500 
L 978 3500 
L 1172 4494 
L 1747 4494 
L 1556 3500 
L 2706 3500 
z
" transform="scale(0.015625)"/>
      <path id="DejaVuSans-Oblique-75" d="M 428 1388 
L 838 3500 
L 1416 3500 
L 1006 1409 
Q 975 1256 961 1147 
Q 947 1038 947 966 
Q 947 700 1109 554 
Q 1272 409 1569 409 
Q 2031 409 2368 721 
Q 2706 1034 2809 1563 
L 3194 3500 
L 3769 3500 
L 3091 0 
L 2516 0 
L 2631 550 
Q 2388 244 2052 76 
Q 1716 -91 1338 -91 
Q 878 -91 622 161 
Q 366 413 366 863 
Q 366 956 381 1097 
Q 397 1238 428 1388 
z
" transform="scale(0.015625)"/>
      <path id="DejaVuSans-2b" d="M 2944 4013 
L 2944 2272 
L 4684 2272 
L 4684 1741 
L 2944 1741 
L 2944 0 
L 2419 0 
L 2419 1741 
L 678 1741 
L 678 2272 
L 2419 2272 
L 2419 4013 
L 2944 4013 
z
" transform="scale(0.015625)"/>
      <path id="DejaVuSans-Oblique-62" d="M 3169 2138 
Q 3169 2591 2961 2847 
Q 2753 3103 2388 3103 
Q 2122 3103 1889 2973 
Q 1656 2844 1484 2597 
Q 1303 2338 1198 1995 
Q 1094 1653 1094 1313 
Q 1094 881 1298 636 
Q 1503 391 1863 391 
Q 2134 391 2365 517 
Q 2597 644 2772 891 
Q 2950 1147 3059 1487 
Q 3169 1828 3169 2138 
z
M 1381 2969 
Q 1594 3256 1914 3420 
Q 2234 3584 2584 3584 
Q 3122 3584 3439 3221 
Q 3756 2859 3756 2241 
Q 3756 1734 3570 1259 
Q 3384 784 3041 416 
Q 2816 172 2522 40 
Q 2228 -91 1906 -91 
Q 1566 -91 1316 65 
Q 1066 222 909 531 
L 806 0 
L 231 0 
L 1178 4863 
L 1753 4863 
L 1381 2969 
z
" transform="scale(0.015625)"/>
     </defs>
     <use xlink:href="#DejaVuSans-Oblique-65" transform="translate(0 0.765625)"/>
     <use xlink:href="#DejaVuSans-Oblique-73" transform="translate(61.523438 0.765625)"/>
     <use xlink:href="#DejaVuSans-Oblique-63" transform="translate(113.623047 0.765625)"/>
     <use xlink:href="#DejaVuSans-Oblique-61" transform="translate(168.603516 0.765625)"/>
     <use xlink:href="#DejaVuSans-Oblique-6c" transform="translate(229.882812 0.765625)"/>
     <use xlink:href="#DejaVuSans-Oblique-65" transform="translate(257.666016 0.765625)"/>
     <use xlink:href="#DejaVuSans-Oblique-72" transform="translate(319.189453 0.765625)"/>
     <use xlink:href="#DejaVuSans-Oblique-61" transform="translate(360.302734 0.765625)"/>
     <use xlink:href="#DejaVuSans-32" transform="translate(426.231927 39.046875) scale(0.7)"/>
     <use xlink:href="#DejaVuSans-3d" transform="translate(492.984857 0.765625)"/>
     <use xlink:href="#DejaVuSans-Oblique-61" transform="translate(596.256341 0.765625)"/>
     <use xlink:href="#DejaVuSans-Oblique-6c" transform="translate(657.535638 0.765625)"/>
     <use xlink:href="#DejaVuSans-Oblique-74" transform="translate(685.318841 0.765625)"/>
     <use xlink:href="#DejaVuSans-Oblique-75" transform="translate(724.527826 0.765625)"/>
     <use xlink:href="#DejaVuSans-Oblique-72" transform="translate(787.906732 0.765625)"/>
     <use xlink:href="#DejaVuSans-Oblique-61" transform="translate(829.020013 0.765625)"/>
     <use xlink:href="#DejaVuSans-32" transform="translate(894.949206 39.046875) scale(0.7)"/>
     <use xlink:href="#DejaVuSans-2b" transform="translate(961.702135 0.765625)"/>
     <use xlink:href="#DejaVuSans-Oblique-62" transform="translate(1064.97362 0.765625)"/>
     <use xlink:href="#DejaVuSans-Oblique-61" transform="translate(1128.450182 0.765625)"/>
     <use xlink:href="#DejaVuSans-Oblique-73" transform="translate(1189.729479 0.765625)"/>
     <use xlink:href="#DejaVuSans-Oblique-65" transform="translate(1241.829089 0.765625)"/>
     <use xlink:href="#DejaVuSans-32" transform="translate(1308.002422 39.046875) scale(0.7)"/>
    </g>
   </g>
   <g id="text_6">
    <!-- $5^2 = 4^2 + 3^2$ -->
    <g style="fill: #39c5bb" transform="translate(300.465078 200.14442) scale(0.11 -0.11)">
     <defs>
      <path id="DejaVuSans-35" d="M 691 4666 
L 3169 4666 
L 3169 4134 
L 1269 4134 
L 1269 2991 
Q 1406 3038 1543 3061 
Q 1681 3084 1819 3084 
Q 2600 3084 3056 2656 
Q 3513 2228 3513 1497 
Q 3513 744 3044 326 
Q 2575 -91 1722 -91 
Q 1428 -91 1123 -41 
Q 819 9 494 109 
L 494 744 
Q 775 591 1075 516 
Q 1375 441 1709 441 
Q 2250 441 2565 725 
Q 2881 1009 2881 1497 
Q 2881 1984 2565 2268 
Q 2250 2553 1709 2553 
Q 1456 2553 1204 2497 
Q 953 2441 691 2322 
L 691 4666 
z
" transform="scale(0.015625)"/>
      <path id="DejaVuSans-34" d="M 2419 4116 
L 825 1625 
L 2419 1625 
L 2419 4116 
z
M 2253 4666 
L 3047 4666 
L 3047 1625 
L 3713 1625 
L 3713 1100 
L 3047 1100 
L 3047 0 
L 2419 0 
L 2419 1100 
L 313 1100 
L 313 1709 
L 2253 4666 
z
" transform="scale(0.015625)"/>
      <path id="DejaVuSans-33" d="M 2597 2516 
Q 3050 2419 3304 2112 
Q 3559 1806 3559 1356 
Q 3559 666 3084 287 
Q 2609 -91 1734 -91 
Q 1441 -91 1130 -33 
Q 819 25 488 141 
L 488 750 
Q 750 597 1062 519 
Q 1375 441 1716 441 
Q 2309 441 2620 675 
Q 2931 909 2931 1356 
Q 2931 1769 2642 2001 
Q 2353 2234 1838 2234 
L 1294 2234 
L 1294 2753 
L 1863 2753 
Q 2328 2753 2575 2939 
Q 2822 3125 2822 3475 
Q 2822 3834 2567 4026 
Q 2313 4219 1838 4219 
Q 1578 4219 1281 4162 
Q 984 4106 628 3988 
L 628 4550 
Q 988 4650 1302 4700 
Q 1616 4750 1894 4750 
Q 2613 4750 3031 4423 
Q 3450 4097 3450 3541 
Q 3450 3153 3228 2886 
Q 3006 2619 2597 2516 
z
" transform="scale(0.015625)"/>
     </defs>
     <use xlink:href="#DejaVuSans-35" transform="translate(0 0.765625)"/>
     <use xlink:href="#DejaVuSans-32" transform="translate(64.580078 39.046875) scale(0.7)"/>
     <use xlink:href="#DejaVuSans-3d" transform="translate(131.333008 0.765625)"/>
     <use xlink:href="#DejaVuSans-34" transform="translate(234.604492 0.765625)"/>
     <use xlink:href="#DejaVuSans-32" transform="translate(299.18457 39.046875) scale(0.7)"/>
     <use xlink:href="#DejaVuSans-2b" transform="translate(365.9375 0.765625)"/>
     <use xlink:href="#DejaVuSans-33" transform="translate(469.208984 0.765625)"/>
     <use xlink:href="#DejaVuSans-32" transform="translate(533.789062 39.046875) scale(0.7)"/>
    </g>
   </g>
   <g id="text_7">
    <!-- $25 = 16 + 9$ ✓ -->
    <g style="fill: #1f2937" transform="translate(300.465078 242.039431) scale(0.11 -0.11)">
     <defs>
      <path id="DejaVuSans-31" d="M 794 531 
L 1825 531 
L 1825 4091 
L 703 3866 
L 703 4441 
L 1819 4666 
L 2450 4666 
L 2450 531 
L 3481 531 
L 3481 0 
L 794 0 
L 794 531 
z
" transform="scale(0.015625)"/>
      <path id="DejaVuSans-36" d="M 2113 2584 
Q 1688 2584 1439 2293 
Q 1191 2003 1191 1497 
Q 1191 994 1439 701 
Q 1688 409 2113 409 
Q 2538 409 2786 701 
Q 3034 994 3034 1497 
Q 3034 2003 2786 2293 
Q 2538 2584 2113 2584 
z
M 3366 4563 
L 3366 3988 
Q 3128 4100 2886 4159 
Q 2644 4219 2406 4219 
Q 1781 4219 1451 3797 
Q 1122 3375 1075 2522 
Q 1259 2794 1537 2939 
Q 1816 3084 2150 3084 
Q 2853 3084 3261 2657 
Q 3669 2231 3669 1497 
Q 3669 778 3244 343 
Q 2819 -91 2113 -91 
Q 1303 -91 875 529 
Q 447 1150 447 2328 
Q 447 3434 972 4092 
Q 1497 4750 2381 4750 
Q 2619 4750 2861 4703 
Q 3103 4656 3366 4563 
z
" transform="scale(0.015625)"/>
      <path id="DejaVuSans-39" d="M 703 97 
L 703 672 
Q 941 559 1184 500 
Q 1428 441 1663 441 
Q 2288 441 2617 861 
Q 2947 1281 2994 2138 
Q 2813 1869 2534 1725 
Q 2256 1581 1919 1581 
Q 1219 1581 811 2004 
Q 403 2428 403 3163 
Q 403 3881 828 4315 
Q 1253 4750 1959 4750 
Q 2769 4750 3195 4129 
Q 3622 3509 3622 2328 
Q 3622 1225 3098 567 
Q 2575 -91 1691 -91 
Q 1453 -91 1209 -44 
Q 966 3 703 97 
z
M 1959 2075 
Q 2384 2075 2632 2365 
Q 2881 2656 2881 3163 
Q 2881 3666 2632 3958 
Q 2384 4250 1959 4250 
Q 1534 4250 1286 3958 
Q 1038 3666 1038 3163 
Q 1038 2656 1286 2365 
Q 1534 2075 1959 2075 
z
" transform="scale(0.015625)"/>
      <path id="SegoeUI-20" transform="scale(0.015625)"/>
      <path id="STIXGeneral-Regular-a4" d="M 3341 256 
L 3034 -64 
L 2406 563 
Q 2029 301 1606 301 
Q 1171 301 794 563 
L 179 -64 
L -141 256 
L 486 870 
Q 224 1248 224 1677 
Q 224 2118 486 2483 
L -141 3110 
L 179 3418 
L 794 2803 
Q 1184 3053 1606 3053 
Q 2048 3053 2406 2803 
L 3034 3418 
L 3341 3110 
L 2726 2483 
Q 2976 2112 2976 1683 
Q 2976 1261 2726 870 
L 3341 256 
z
M 2541 1690 
Q 2541 2086 2265 2364 
Q 1990 2643 1594 2643 
Q 1210 2643 934 2361 
Q 659 2080 659 1683 
Q 659 1280 937 995 
Q 1216 710 1606 710 
Q 2003 710 2272 995 
Q 2541 1280 2541 1690 
z
" transform="scale(0.015625)"/>
     </defs>
     <use xlink:href="#DejaVuSans-32" transform="translate(0 0.78125)"/>
     <use xlink:href="#DejaVuSans-35" transform="translate(63.623047 0.78125)"/>
     <use xlink:href="#DejaVuSans-3d" transform="translate(146.728516 0.78125)"/>
     <use xlink:href="#DejaVuSans-31" transform="translate(250 0.78125)"/>
     <use xlink:href="#DejaVuSans-36" transform="translate(313.623047 0.78125)"/>
     <use xlink:href="#DejaVuSans-2b" transform="translate(396.728516 0.78125)"/>
     <use xlink:href="#DejaVuSans-39" transform="translate(500 0.78125)"/>
     <use xlink:href="#SegoeUI-20" transform="translate(563.623047 0.78125)"/>
     <use xlink:href="#STIXGeneral-Regular-a4" transform="translate(591.015625 0.78125)"/>
    </g>
   </g>
   <g id="text_8">
    <!-- Problema de la Escalera Apoyada -->
    <g style="fill: #2c2f33" transform="translate(149.888504 17.564375) scale(0.14 -0.14)">
     <defs>
      <path id="SegoeUI-Bold-62" d="M 1416 372 
L 1403 372 
L 1403 0 
L 416 0 
L 416 4738 
L 1403 4738 
L 1403 2719 
L 1416 2719 
Q 1781 3278 2456 3278 
Q 3075 3278 3409 2853 
Q 3744 2428 3744 1691 
Q 3744 891 3353 406 
Q 2963 -78 2309 -78 
Q 1719 -78 1416 372 
z
M 1388 1722 
L 1388 1394 
Q 1388 1084 1566 881 
Q 1744 678 2022 678 
Q 2359 678 2545 939 
Q 2731 1200 2731 1678 
Q 2731 2075 2561 2298 
Q 2391 2522 2075 2522 
Q 1778 2522 1583 2300 
Q 1388 2078 1388 1722 
z
" transform="scale(0.015625)"/>
      <path id="SegoeUI-Bold-6c" d="M 1403 0 
L 416 0 
L 416 4738 
L 1403 4738 
L 1403 0 
z
" transform="scale(0.015625)"/>
      <path id="SegoeUI-Bold-45" d="M 3200 0 
L 513 0 
L 513 4481 
L 3097 4481 
L 3097 3659 
L 1522 3659 
L 1522 2663 
L 2988 2663 
L 2988 1844 
L 1522 1844 
L 1522 819 
L 3200 819 
L 3200 0 
z
" transform="scale(0.015625)"/>
      <path id="SegoeUI-Bold-63" d="M 2841 116 
Q 2506 -78 1875 -78 
Q 1138 -78 681 369 
Q 225 816 225 1522 
Q 225 2338 714 2808 
Q 1203 3278 2022 3278 
Q 2588 3278 2841 3128 
L 2841 2291 
Q 2531 2522 2150 2522 
Q 1725 2522 1476 2273 
Q 1228 2025 1228 1588 
Q 1228 1163 1465 920 
Q 1703 678 2119 678 
Q 2488 678 2841 909 
L 2841 116 
z
" transform="scale(0.015625)"/>
      <path id="SegoeUI-Bold-41" d="M 4453 0 
L 3353 0 
L 3034 997 
L 1441 997 
L 1125 0 
L 31 0 
L 1663 4481 
L 2859 4481 
L 4453 0 
z
M 2803 1772 
L 2322 3278 
Q 2269 3447 2247 3681 
L 2222 3681 
Q 2206 3484 2144 3291 
L 1656 1772 
L 2803 1772 
z
" transform="scale(0.015625)"/>
      <path id="SegoeUI-Bold-70" d="M 1416 372 
L 1403 372 
L 1403 -1472 
L 416 -1472 
L 416 3200 
L 1403 3200 
L 1403 2719 
L 1416 2719 
Q 1781 3278 2444 3278 
Q 3066 3278 3405 2851 
Q 3744 2425 3744 1691 
Q 3744 891 3348 406 
Q 2953 -78 2297 -78 
Q 1719 -78 1416 372 
z
M 1388 1684 
L 1388 1428 
Q 1388 1097 1563 887 
Q 1738 678 2022 678 
Q 2359 678 2545 939 
Q 2731 1200 2731 1678 
Q 2731 2522 2075 2522 
Q 1772 2522 1580 2292 
Q 1388 2063 1388 1684 
z
" transform="scale(0.015625)"/>
      <path id="SegoeUI-Bold-79" d="M 3463 3200 
L 2163 -256 
Q 1694 -1503 750 -1503 
Q 391 -1503 159 -1422 
L 159 -634 
Q 356 -750 588 -750 
Q 969 -750 1119 -391 
L 1288 6 
L -13 3200 
L 1081 3200 
L 1678 1253 
Q 1734 1072 1766 825 
L 1778 825 
Q 1806 1006 1881 1247 
L 2484 3200 
L 3463 3200 
z
" transform="scale(0.015625)"/>
     </defs>
     <use xlink:href="#SegoeUI-Bold-50"/>
     <use xlink:href="#SegoeUI-Bold-72" x="61.425781"/>
     <use xlink:href="#SegoeUI-Bold-6f" x="100.845703"/>
     <use xlink:href="#SegoeUI-Bold-62" x="161.978516"/>
     <use xlink:href="#SegoeUI-Bold-6c" x="223.990234"/>
     <use xlink:href="#SegoeUI-Bold-65" x="252.408203"/>
     <use xlink:href="#SegoeUI-Bold-6d" x="306.509766"/>
     <use xlink:href="#SegoeUI-Bold-61" x="398.111328"/>
     <use xlink:href="#SegoeUI-Bold-20" x="451.919922"/>
     <use xlink:href="#SegoeUI-Bold-64" x="479.507812"/>
     <use xlink:href="#SegoeUI-Bold-65" x="541.421875"/>
     <use xlink:href="#SegoeUI-Bold-20" x="595.523438"/>
     <use xlink:href="#SegoeUI-Bold-6c" x="623.111328"/>
     <use xlink:href="#SegoeUI-Bold-61" x="651.529297"/>
     <use xlink:href="#SegoeUI-Bold-20" x="705.337891"/>
     <use xlink:href="#SegoeUI-Bold-45" x="732.925781"/>
     <use xlink:href="#SegoeUI-Bold-73" x="786.148438"/>
     <use xlink:href="#SegoeUI-Bold-63" x="830.142578"/>
     <use xlink:href="#SegoeUI-Bold-61" x="878.140625"/>
     <use xlink:href="#SegoeUI-Bold-6c" x="931.949219"/>
     <use xlink:href="#SegoeUI-Bold-65" x="960.367188"/>
     <use xlink:href="#SegoeUI-Bold-72" x="1014.46875"/>
     <use xlink:href="#SegoeUI-Bold-61" x="1054.263672"/>
     <use xlink:href="#SegoeUI-Bold-20" x="1108.072266"/>
     <use xlink:href="#SegoeUI-Bold-41" x="1135.660156"/>
     <use xlink:href="#SegoeUI-Bold-70" x="1205.972656"/>
     <use xlink:href="#SegoeUI-Bold-6f" x="1267.984375"/>
     <use xlink:href="#SegoeUI-Bold-79" x="1329.117188"/>
     <use xlink:href="#SegoeUI-Bold-61" x="1382.925781"/>
     <use xlink:href="#SegoeUI-Bold-64" x="1436.734375"/>
     <use xlink:href="#SegoeUI-Bold-61" x="1498.648438"/>
    </g>
   </g>
  </g>
 </g>
 <defs>
  <clipPath id="pfaa7c75252">
   <rect x="7.2" y="32.564375" width="502.740134" height="544.635145"/>
  </clipPath>
 </defs>
</svg>
