<?xml version="1.0" encoding="utf-8" standalone="no"?>
<!DOCTYPE svg PUBLIC "-//W3C//DTD SVG 1.1//EN"
  "http://www.w3.org/Graphics/SVG/1.1/DTD/svg11.dtd">
<svg xmlns:xlink="http://www.w3.org/1999/xlink" width="655.833411pt" height="512.39952pt" viewBox="0 0 655.833411 512.39952" xmlns="http://www.w3.org/2000/svg" version="1.1">
 <metadata>
  <rdf:RDF xmlns:dc="http://purl.org/dc/elements/1.1/" xmlns:cc="http://creativecommons.org/ns#" xmlns:rdf="http://www.w3.org/1999/02/22-rdf-syntax-ns#">
   <cc:Work>
    <dc:type rdf:resource="http://purl.org/dc/dcmitype/StillImage"/>
    <dc:date>2026-04-11T16:11:39.374274</dc:date>
    <dc:format>image/svg+xml</dc:format>
    <dc:creator>
     <cc:Agent>
      <dc:title>Matplotlib v3.8.4, https://matplotlib.org/</dc:title>
     </cc:Agent>
    </dc:creator>
   </cc:Work>
  </rdf:RDF>
 </metadata>
 <defs>
  <style type="text/css">*{stroke-linejoin: round; stroke-linecap: butt}</style>
 </defs>
 <g id="figure_1">
  <g id="patch_1">
   <path d="M 0 512.39952 
L 655.833411 512.39952 
L 655.833411 0 
L 0 0 
z
" style="fill: #ffffff"/>
  </g>
  <g id="axes_1">
   <g id="patch_2">
    <path d="M 200.702862 136.481127 
C 196.140683 140.282943 192.469784 145.041824 189.950884 150.419781 
C 187.431984 155.797738 186.126162 161.664362 186.126162 167.602988 
" clip-path="url(#p81691d6726)" style="fill: none; stroke: #1f2937; stroke-width: 2; stroke-linejoin: miter"/>
   </g>
   <g id="patch_3">
    <path d="M 369.501128 339.039046 
C 364.938949 342.840862 361.26805 347.599744 358.74915 352.9777 
C 356.23025 358.355657 354.924428 364.222281 354.924428 370.160907 
" clip-path="url(#p81691d6726)" style="fill: none; stroke: #4b5563; stroke-width: 2; stroke-linejoin: miter"/>
   </g>
   <g id="patch_4">
    <path d="M 421.370896 401.282768 
C 425.933075 397.480952 429.603974 392.722071 432.122874 387.344114 
C 434.641774 381.966157 435.947596 376.099533 435.947596 370.160907 
" clip-path="url(#p81691d6726)" style="fill: none; stroke: #e12885; stroke-width: 2; stroke-linejoin: miter"/>
   </g>
   <g id="line2d_1">
    <path d="M 40.959653 167.602988 
L 581.114105 167.602988 
" clip-path="url(#p81691d6726)" style="fill: none; stroke: #39c5bb; stroke-width: 2.5; stroke-linecap: square"/>
   </g>
   <g id="line2d_2">
    <path d="M 40.959653 370.160907 
L 581.114105 370.160907 
" clip-path="url(#p81691d6726)" style="fill: none; stroke: #39c5bb; stroke-width: 2.5; stroke-linecap: square"/>
   </g>
   <g id="line2d_3">
    <path d="M 142.238613 66.324028 
L 479.835145 471.439867 
" clip-path="url(#p81691d6726)" style="fill: none; stroke: #e12885; stroke-width: 2.5; stroke-linecap: square"/>
   </g>
   <g id="line2d_4">
    <defs>
     <path id="mdd9bfb5d11" d="M 0 3 
C 0.795609 3 1.55874 2.683901 2.12132 2.12132 
C 2.683901 1.55874 3 0.795609 3 0 
C 3 -0.795609 2.683901 -1.55874 2.12132 -2.12132 
C 1.55874 -2.683901 0.795609 -3 0 -3 
C -0.795609 -3 -1.55874 -2.683901 -2.12132 -2.12132 
C -2.683901 -1.55874 -3 -0.795609 -3 0 
C -3 0.795609 -2.683901 1.55874 -2.12132 2.12132 
C -1.55874 2.683901 -0.795609 3 0 3 
z
" style="stroke: #2c2f33"/>
    </defs>
    <g clip-path="url(#p81691d6726)">
     <use xlink:href="#mdd9bfb5d11" x="226.637746" y="167.602988" style="fill: #2c2f33; stroke: #2c2f33"/>
    </g>
   </g>
   <g id="line2d_5">
    <g clip-path="url(#p81691d6726)">
     <use xlink:href="#mdd9bfb5d11" x="395.436012" y="370.160907" style="fill: #2c2f33; stroke: #2c2f33"/>
    </g>
   </g>
   <g id="text_1">
    <!-- $\ell_1$ -->
    <g style="fill: #39c5bb" transform="translate(601.369897 171.175175) scale(0.14 -0.14)">
     <defs>
      <path id="DejaVuSans-Oblique-2113" d="M 950 838 
Q 1078 213 1350 213 
Q 1531 213 1766 572 
L 2181 572 
Q 1994 253 1775 88 
Q 1538 -91 1319 -91 
Q 831 -91 634 344 
L 400 0 
L -88 0 
Q 250 459 500 888 
Q 469 1131 469 1397 
Q 469 1872 566 2347 
Q 931 4131 1256 4497 
Q 1481 4750 1866 4750 
Q 2256 4750 2256 4209 
Q 2253 3966 2197 3675 
Q 1972 2484 950 838 
z
M 947 1656 
Q 1531 2744 1709 3613 
Q 1803 4072 1803 4191 
Q 1803 4406 1725 4406 
Q 1384 4134 1081 2516 
Q 997 2063 947 1656 
z
" transform="scale(0.015625)"/>
      <path id="DejaVuSans-31" d="M 794 531 
L 1825 531 
L 1825 4091 
L 703 3866 
L 703 4441 
L 1819 4666 
L 2450 4666 
L 2450 531 
L 3481 531 
L 3481 0 
L 794 0 
L 794 531 
z
" transform="scale(0.015625)"/>
     </defs>
     <use xlink:href="#DejaVuSans-Oblique-2113" transform="translate(0 0.78125)"/>
     <use xlink:href="#DejaVuSans-31" transform="translate(41.308594 -15.625) scale(0.7)"/>
    </g>
   </g>
   <g id="text_2">
    <!-- $\ell_2$ -->
    <g style="fill: #39c5bb" transform="translate(601.369897 373.733095) scale(0.14 -0.14)">
     <defs>
      <path id="DejaVuSans-32" d="M 1228 531 
L 3431 531 
L 3431 0 
L 469 0 
L 469 531 
Q 828 903 1448 1529 
Q 2069 2156 2228 2338 
Q 2531 2678 2651 2914 
Q 2772 3150 2772 3378 
Q 2772 3750 2511 3984 
Q 2250 4219 1831 4219 
Q 1534 4219 1204 4116 
Q 875 4013 500 3803 
L 500 4441 
Q 881 4594 1212 4672 
Q 1544 4750 1819 4750 
Q 2544 4750 2975 4387 
Q 3406 4025 3406 3419 
Q 3406 3131 3298 2873 
Q 3191 2616 2906 2266 
Q 2828 2175 2409 1742 
Q 1991 1309 1228 531 
z
" transform="scale(0.015625)"/>
     </defs>
     <use xlink:href="#DejaVuSans-Oblique-2113" transform="translate(0 0.78125)"/>
     <use xlink:href="#DejaVuSans-32" transform="translate(41.308594 -15.625) scale(0.7)"/>
    </g>
   </g>
   <g id="text_3">
    <!-- $\angle 1$ -->
    <g style="fill: #1f2937" transform="translate(165.266139 146.863529) scale(0.13 -0.13)">
     <defs>
      <path id="DejaVuSans-2220" d="M 5028 631 
L 5028 0 
L 547 0 
L 3525 4666 
L 4281 4666 
L 1716 631 
L 5028 631 
z
" transform="scale(0.015625)"/>
     </defs>
     <use xlink:href="#DejaVuSans-2220" transform="translate(0 0.09375)"/>
     <use xlink:href="#DejaVuSans-31" transform="translate(89.648438 0.09375)"/>
    </g>
   </g>
   <g id="text_4">
    <!-- $\angle 2$ -->
    <g style="fill: #4b5563" transform="translate(334.064405 349.421449) scale(0.13 -0.13)">
     <use xlink:href="#DejaVuSans-2220" transform="translate(0 0.78125)"/>
     <use xlink:href="#DejaVuSans-32" transform="translate(89.648438 0.78125)"/>
    </g>
   </g>
   <g id="text_5">
    <!-- $\angle 3$ -->
    <g style="fill: #e12885" transform="translate(440.456305 399.252749) scale(0.13 -0.13)">
     <defs>
      <path id="DejaVuSans-33" d="M 2597 2516 
Q 3050 2419 3304 2112 
Q 3559 1806 3559 1356 
Q 3559 666 3084 287 
Q 2609 -91 1734 -91 
Q 1441 -91 1130 -33 
Q 819 25 488 141 
L 488 750 
Q 750 597 1062 519 
Q 1375 441 1716 441 
Q 2309 441 2620 675 
Q 2931 909 2931 1356 
Q 2931 1769 2642 2001 
Q 2353 2234 1838 2234 
L 1294 2234 
L 1294 2753 
L 1863 2753 
Q 2328 2753 2575 2939 
Q 2822 3125 2822 3475 
Q 2822 3834 2567 4026 
Q 2313 4219 1838 4219 
Q 1578 4219 1281 4162 
Q 984 4106 628 3988 
L 628 4550 
Q 988 4650 1302 4700 
Q 1616 4750 1894 4750 
Q 2613 4750 3031 4423 
Q 3450 4097 3450 3541 
Q 3450 3153 3228 2886 
Q 3006 2619 2597 2516 
z
" transform="scale(0.015625)"/>
     </defs>
     <use xlink:href="#DejaVuSans-2220" transform="translate(0 0.78125)"/>
     <use xlink:href="#DejaVuSans-33" transform="translate(89.648438 0.78125)"/>
    </g>
   </g>
   <g id="patch_5">
    <path d="M 313.035589 157.475092 
Q 327.917715 157.475092 341.122791 157.475092 
" style="fill: none; stroke: #39c5bb; stroke-width: 1.5; stroke-linecap: round"/>
    <path d="M 337.122791 155.475092 
L 341.122791 157.475092 
L 337.122791 159.475092 
" style="fill: none; stroke: #39c5bb; stroke-width: 1.5; stroke-linecap: round"/>
   </g>
   <g id="patch_6">
    <path d="M 333.291381 177.730884 
Q 348.173507 177.730884 361.378583 177.730884 
" style="fill: none; stroke: #39c5bb; stroke-width: 1.5; stroke-linecap: round"/>
    <path d="M 357.378583 175.730884 
L 361.378583 177.730884 
L 357.378583 179.730884 
" style="fill: none; stroke: #39c5bb; stroke-width: 1.5; stroke-linecap: round"/>
   </g>
   <g id="patch_7">
    <path d="M 313.035589 360.033011 
Q 327.917715 360.033011 341.122791 360.033011 
" style="fill: none; stroke: #39c5bb; stroke-width: 1.5; stroke-linecap: round"/>
    <path d="M 337.122791 358.033011 
L 341.122791 360.033011 
L 337.122791 362.033011 
" style="fill: none; stroke: #39c5bb; stroke-width: 1.5; stroke-linecap: round"/>
   </g>
   <g id="patch_8">
    <path d="M 333.291381 380.288803 
Q 348.173507 380.288803 361.378583 380.288803 
" style="fill: none; stroke: #39c5bb; stroke-width: 1.5; stroke-linecap: round"/>
    <path d="M 357.378583 378.288803 
L 361.378583 380.288803 
L 357.378583 382.288803 
" style="fill: none; stroke: #39c5bb; stroke-width: 1.5; stroke-linecap: round"/>
   </g>
   <g id="text_6">
    <g id="patch_9">
     <path d="M 74.719306 118.732139 
L 179.879306 118.732139 
Q 183.179306 118.732139 183.179306 115.432139 
L 183.179306 79.827889 
Q 183.179306 76.527889 179.879306 76.527889 
L 74.719306 76.527889 
Q 71.419306 76.527889 71.419306 79.827889 
L 71.419306 115.432139 
Q 71.419306 118.732139 74.719306 118.732139 
z
" style="fill: #f5deb3; opacity: 0.5; stroke: #000000; stroke-linejoin: miter"/>
    </g>
    <!-- Dado: $\ell_1 \parallel \ell_2$ -->
    <g style="fill: #2c2f33" transform="translate(74.719306 88.297889) scale(0.11 -0.11)">
     <defs>
      <path id="SegoeUI-44" d="M 588 0 
L 588 4481 
L 1825 4481 
Q 4194 4481 4194 2297 
Q 4194 1259 3536 629 
Q 2878 0 1775 0 
L 588 0 
z
M 1113 4006 
L 1113 475 
L 1781 475 
Q 2663 475 3153 947 
Q 3644 1419 3644 2284 
Q 3644 4006 1813 4006 
L 1113 4006 
z
" transform="scale(0.015625)"/>
      <path id="SegoeUI-61" d="M 2809 0 
L 2297 0 
L 2297 500 
L 2284 500 
Q 1950 -75 1300 -75 
Q 822 -75 551 178 
Q 281 431 281 850 
Q 281 1747 1338 1894 
L 2297 2028 
Q 2297 2844 1638 2844 
Q 1059 2844 594 2450 
L 594 2975 
Q 1066 3275 1681 3275 
Q 2809 3275 2809 2081 
L 2809 0 
z
M 2297 1619 
L 1525 1513 
Q 1169 1463 987 1336 
Q 806 1209 806 888 
Q 806 653 973 504 
Q 1141 356 1419 356 
Q 1800 356 2048 623 
Q 2297 891 2297 1300 
L 2297 1619 
z
" transform="scale(0.015625)"/>
      <path id="SegoeUI-64" d="M 3250 0 
L 2738 0 
L 2738 544 
L 2725 544 
Q 2369 -75 1625 -75 
Q 1022 -75 661 354 
Q 300 784 300 1525 
Q 300 2319 700 2797 
Q 1100 3275 1766 3275 
Q 2425 3275 2725 2756 
L 2738 2756 
L 2738 4738 
L 3250 4738 
L 3250 0 
z
M 2738 1447 
L 2738 1919 
Q 2738 2306 2481 2575 
Q 2225 2844 1831 2844 
Q 1363 2844 1094 2500 
Q 825 2156 825 1550 
Q 825 997 1083 676 
Q 1341 356 1775 356 
Q 2203 356 2470 665 
Q 2738 975 2738 1447 
z
" transform="scale(0.015625)"/>
      <path id="SegoeUI-6f" d="M 1856 -75 
Q 1147 -75 723 373 
Q 300 822 300 1563 
Q 300 2369 740 2822 
Q 1181 3275 1931 3275 
Q 2647 3275 3048 2834 
Q 3450 2394 3450 1613 
Q 3450 847 3017 386 
Q 2584 -75 1856 -75 
z
M 1894 2844 
Q 1400 2844 1112 2508 
Q 825 2172 825 1581 
Q 825 1013 1115 684 
Q 1406 356 1894 356 
Q 2391 356 2658 678 
Q 2925 1000 2925 1594 
Q 2925 2194 2658 2519 
Q 2391 2844 1894 2844 
z
" transform="scale(0.015625)"/>
      <path id="SegoeUI-3a" d="M 697 2575 
Q 553 2575 451 2678 
Q 350 2781 350 2925 
Q 350 3069 451 3169 
Q 553 3269 697 3269 
Q 844 3269 947 3169 
Q 1050 3069 1050 2925 
Q 1050 2781 947 2678 
Q 844 2575 697 2575 
z
M 697 -69 
Q 553 -69 451 34 
Q 350 138 350 281 
Q 350 425 451 529 
Q 553 634 697 634 
Q 844 634 947 529 
Q 1050 425 1050 281 
Q 1050 138 947 34 
Q 844 -69 697 -69 
z
" transform="scale(0.015625)"/>
      <path id="SegoeUI-20" transform="scale(0.015625)"/>
      <path id="DejaVuSans-2225" d="M 850 4934 
L 1350 4934 
L 1350 -1369 
L 850 -1369 
L 850 4934 
z
M 1850 4934 
L 2350 4934 
L 2350 -1369 
L 1850 -1369 
L 1850 4934 
z
" transform="scale(0.015625)"/>
     </defs>
     <use xlink:href="#SegoeUI-44" transform="translate(0 0.90625)"/>
     <use xlink:href="#SegoeUI-61" transform="translate(70.117188 0.90625)"/>
     <use xlink:href="#SegoeUI-64" transform="translate(120.996094 0.90625)"/>
     <use xlink:href="#SegoeUI-6f" transform="translate(179.882812 0.90625)"/>
     <use xlink:href="#SegoeUI-3a" transform="translate(238.476562 0.90625)"/>
     <use xlink:href="#SegoeUI-20" transform="translate(260.15625 0.90625)"/>
     <use xlink:href="#DejaVuSans-Oblique-2113" transform="translate(287.548828 0.90625)"/>
     <use xlink:href="#DejaVuSans-31" transform="translate(328.857422 -15.5) scale(0.7)"/>
     <use xlink:href="#DejaVuSans-2225" transform="translate(395.610352 0.90625)"/>
     <use xlink:href="#DejaVuSans-Oblique-2113" transform="translate(465.092773 0.90625)"/>
     <use xlink:href="#DejaVuSans-32" transform="translate(506.401367 -15.5) scale(0.7)"/>
    </g>
    <!-- $\angle 1 = 65°$, $\angle 2 = 40°$ -->
    <g style="fill: #2c2f33" transform="translate(74.719306 100.600014) scale(0.11 -0.11)">
     <defs>
      <path id="DejaVuSans-3d" d="M 678 2906 
L 4684 2906 
L 4684 2381 
L 678 2381 
L 678 2906 
z
M 678 1631 
L 4684 1631 
L 4684 1100 
L 678 1100 
L 678 1631 
z
" transform="scale(0.015625)"/>
      <path id="DejaVuSans-36" d="M 2113 2584 
Q 1688 2584 1439 2293 
Q 1191 2003 1191 1497 
Q 1191 994 1439 701 
Q 1688 409 2113 409 
Q 2538 409 2786 701 
Q 3034 994 3034 1497 
Q 3034 2003 2786 2293 
Q 2538 2584 2113 2584 
z
M 3366 4563 
L 3366 3988 
Q 3128 4100 2886 4159 
Q 2644 4219 2406 4219 
Q 1781 4219 1451 3797 
Q 1122 3375 1075 2522 
Q 1259 2794 1537 2939 
Q 1816 3084 2150 3084 
Q 2853 3084 3261 2657 
Q 3669 2231 3669 1497 
Q 3669 778 3244 343 
Q 2819 -91 2113 -91 
Q 1303 -91 875 529 
Q 447 1150 447 2328 
Q 447 3434 972 4092 
Q 1497 4750 2381 4750 
Q 2619 4750 2861 4703 
Q 3103 4656 3366 4563 
z
" transform="scale(0.015625)"/>
      <path id="DejaVuSans-35" d="M 691 4666 
L 3169 4666 
L 3169 4134 
L 1269 4134 
L 1269 2991 
Q 1406 3038 1543 3061 
Q 1681 3084 1819 3084 
Q 2600 3084 3056 2656 
Q 3513 2228 3513 1497 
Q 3513 744 3044 326 
Q 2575 -91 1722 -91 
Q 1428 -91 1123 -41 
Q 819 9 494 109 
L 494 744 
Q 775 591 1075 516 
Q 1375 441 1709 441 
Q 2250 441 2565 725 
Q 2881 1009 2881 1497 
Q 2881 1984 2565 2268 
Q 2250 2553 1709 2553 
Q 1456 2553 1204 2497 
Q 953 2441 691 2322 
L 691 4666 
z
" transform="scale(0.015625)"/>
      <path id="DejaVuSans-b0" d="M 1600 4347 
Q 1350 4347 1178 4173 
Q 1006 4000 1006 3750 
Q 1006 3503 1178 3333 
Q 1350 3163 1600 3163 
Q 1850 3163 2022 3333 
Q 2194 3503 2194 3750 
Q 2194 3997 2020 4172 
Q 1847 4347 1600 4347 
z
M 1600 4750 
Q 1800 4750 1984 4673 
Q 2169 4597 2303 4453 
Q 2447 4313 2519 4134 
Q 2591 3956 2591 3750 
Q 2591 3338 2302 3052 
Q 2013 2766 1594 2766 
Q 1172 2766 890 3047 
Q 609 3328 609 3750 
Q 609 4169 896 4459 
Q 1184 4750 1600 4750 
z
" transform="scale(0.015625)"/>
      <path id="SegoeUI-2c" d="M 988 713 
L 488 -825 
L 122 -825 
L 488 713 
L 988 713 
z
" transform="scale(0.015625)"/>
      <path id="DejaVuSans-34" d="M 2419 4116 
L 825 1625 
L 2419 1625 
L 2419 4116 
z
M 2253 4666 
L 3047 4666 
L 3047 1625 
L 3713 1625 
L 3713 1100 
L 3047 1100 
L 3047 0 
L 2419 0 
L 2419 1100 
L 313 1100 
L 313 1709 
L 2253 4666 
z
" transform="scale(0.015625)"/>
      <path id="DejaVuSans-30" d="M 2034 4250 
Q 1547 4250 1301 3770 
Q 1056 3291 1056 2328 
Q 1056 1369 1301 889 
Q 1547 409 2034 409 
Q 2525 409 2770 889 
Q 3016 1369 3016 2328 
Q 3016 3291 2770 3770 
Q 2525 4250 2034 4250 
z
M 2034 4750 
Q 2819 4750 3233 4129 
Q 3647 3509 3647 2328 
Q 3647 1150 3233 529 
Q 2819 -91 2034 -91 
Q 1250 -91 836 529 
Q 422 1150 422 2328 
Q 422 3509 836 4129 
Q 1250 4750 2034 4750 
z
" transform="scale(0.015625)"/>
     </defs>
     <use xlink:href="#DejaVuSans-2220" transform="translate(0 0.78125)"/>
     <use xlink:href="#DejaVuSans-31" transform="translate(89.648438 0.78125)"/>
     <use xlink:href="#DejaVuSans-3d" transform="translate(172.753906 0.78125)"/>
     <use xlink:href="#DejaVuSans-36" transform="translate(276.025391 0.78125)"/>
     <use xlink:href="#DejaVuSans-35" transform="translate(339.648438 0.78125)"/>
     <use xlink:href="#DejaVuSans-b0" transform="translate(403.271484 0.78125)"/>
     <use xlink:href="#SegoeUI-2c" transform="translate(453.271484 0.78125)"/>
     <use xlink:href="#SegoeUI-20" transform="translate(474.951172 0.78125)"/>
     <use xlink:href="#DejaVuSans-2220" transform="translate(502.34375 0.78125)"/>
     <use xlink:href="#DejaVuSans-32" transform="translate(591.992188 0.78125)"/>
     <use xlink:href="#DejaVuSans-3d" transform="translate(675.097656 0.78125)"/>
     <use xlink:href="#DejaVuSans-34" transform="translate(778.369141 0.78125)"/>
     <use xlink:href="#DejaVuSans-30" transform="translate(841.992188 0.78125)"/>
     <use xlink:href="#DejaVuSans-b0" transform="translate(905.615234 0.78125)"/>
    </g>
    <!-- Hallar: $\angle 3$ -->
    <g style="fill: #2c2f33" transform="translate(74.719306 112.902139) scale(0.11 -0.11)">
     <defs>
      <path id="SegoeUI-48" d="M 3956 0 
L 3431 0 
L 3431 2044 
L 1113 2044 
L 1113 0 
L 588 0 
L 588 4481 
L 1113 4481 
L 1113 2516 
L 3431 2516 
L 3431 4481 
L 3956 4481 
L 3956 0 
z
" transform="scale(0.015625)"/>
      <path id="SegoeUI-6c" d="M 1031 0 
L 519 0 
L 519 4738 
L 1031 4738 
L 1031 0 
z
" transform="scale(0.015625)"/>
      <path id="SegoeUI-72" d="M 2188 2681 
Q 2053 2784 1800 2784 
Q 1472 2784 1251 2475 
Q 1031 2166 1031 1631 
L 1031 0 
L 519 0 
L 519 3200 
L 1031 3200 
L 1031 2541 
L 1044 2541 
Q 1153 2878 1378 3067 
Q 1603 3256 1881 3256 
Q 2081 3256 2188 3213 
L 2188 2681 
z
" transform="scale(0.015625)"/>
     </defs>
     <use xlink:href="#SegoeUI-48" transform="translate(0 0.78125)"/>
     <use xlink:href="#SegoeUI-61" transform="translate(70.996094 0.78125)"/>
     <use xlink:href="#SegoeUI-6c" transform="translate(121.875 0.78125)"/>
     <use xlink:href="#SegoeUI-6c" transform="translate(146.09375 0.78125)"/>
     <use xlink:href="#SegoeUI-61" transform="translate(170.3125 0.78125)"/>
     <use xlink:href="#SegoeUI-72" transform="translate(221.191406 0.78125)"/>
     <use xlink:href="#SegoeUI-3a" transform="translate(255.957031 0.78125)"/>
     <use xlink:href="#SegoeUI-20" transform="translate(277.636719 0.78125)"/>
     <use xlink:href="#DejaVuSans-2220" transform="translate(305.029297 0.78125)"/>
     <use xlink:href="#DejaVuSans-33" transform="translate(394.677734 0.78125)"/>
    </g>
   </g>
   <g id="text_7">
    <!-- Paralelas cortadas por una transversal -->
    <g style="fill: #2c2f33" transform="translate(203.419518 17.564375) scale(0.14 -0.14)">
     <defs>
      <path id="SegoeUI-Bold-50" d="M 1522 1544 
L 1522 0 
L 513 0 
L 513 4481 
L 2094 4481 
Q 3788 4481 3788 3053 
Q 3788 2378 3302 1961 
Q 2816 1544 2003 1544 
L 1522 1544 
z
M 1522 3706 
L 1522 2309 
L 1919 2309 
Q 2725 2309 2725 3016 
Q 2725 3706 1919 3706 
L 1522 3706 
z
" transform="scale(0.015625)"/>
      <path id="SegoeUI-Bold-61" d="M 3078 0 
L 2144 0 
L 2144 459 
L 2131 459 
Q 1809 -78 1178 -78 
Q 713 -78 445 186 
Q 178 450 178 891 
Q 178 1822 1281 1966 
L 2150 2081 
Q 2150 2606 1581 2606 
Q 1009 2606 494 2266 
L 494 3009 
Q 700 3116 1058 3197 
Q 1416 3278 1709 3278 
Q 3078 3278 3078 1913 
L 3078 0 
z
M 2150 1300 
L 2150 1516 
L 1569 1441 
Q 1088 1378 1088 1006 
Q 1088 838 1205 730 
Q 1322 622 1522 622 
Q 1800 622 1975 814 
Q 2150 1006 2150 1300 
z
" transform="scale(0.015625)"/>
      <path id="SegoeUI-Bold-72" d="M 2503 2309 
Q 2325 2406 2088 2406 
Q 1766 2406 1584 2170 
Q 1403 1934 1403 1528 
L 1403 0 
L 416 0 
L 416 3200 
L 1403 3200 
L 1403 2606 
L 1416 2606 
Q 1650 3256 2259 3256 
Q 2416 3256 2503 3219 
L 2503 2309 
z
" transform="scale(0.015625)"/>
      <path id="SegoeUI-Bold-6c" d="M 1403 0 
L 416 0 
L 416 4738 
L 1403 4738 
L 1403 0 
z
" transform="scale(0.015625)"/>
      <path id="SegoeUI-Bold-65" d="M 3291 1319 
L 1203 1319 
Q 1253 622 2081 622 
Q 2609 622 3009 872 
L 3009 159 
Q 2566 -78 1856 -78 
Q 1081 -78 653 351 
Q 225 781 225 1550 
Q 225 2347 687 2812 
Q 1150 3278 1825 3278 
Q 2525 3278 2908 2862 
Q 3291 2447 3291 1734 
L 3291 1319 
z
M 2375 1925 
Q 2375 2613 1819 2613 
Q 1581 2613 1407 2416 
Q 1234 2219 1197 1925 
L 2375 1925 
z
" transform="scale(0.015625)"/>
      <path id="SegoeUI-Bold-73" d="M 206 84 
L 206 884 
Q 450 738 692 666 
Q 934 594 1150 594 
Q 1413 594 1564 666 
Q 1716 738 1716 884 
Q 1716 978 1647 1040 
Q 1578 1103 1470 1150 
Q 1363 1197 1234 1234 
Q 1106 1272 988 1319 
Q 797 1391 651 1473 
Q 506 1556 407 1665 
Q 309 1775 257 1919 
Q 206 2063 206 2259 
Q 206 2528 323 2722 
Q 441 2916 636 3039 
Q 831 3163 1082 3220 
Q 1334 3278 1606 3278 
Q 1819 3278 2037 3245 
Q 2256 3213 2469 3150 
L 2469 2388 
Q 2281 2497 2067 2551 
Q 1853 2606 1647 2606 
Q 1550 2606 1464 2589 
Q 1378 2572 1312 2539 
Q 1247 2506 1209 2454 
Q 1172 2403 1172 2338 
Q 1172 2250 1228 2187 
Q 1284 2125 1375 2079 
Q 1466 2034 1577 1998 
Q 1688 1963 1797 1925 
Q 1994 1856 2153 1775 
Q 2313 1694 2427 1584 
Q 2541 1475 2602 1328 
Q 2663 1181 2663 978 
Q 2663 694 2539 492 
Q 2416 291 2211 164 
Q 2006 38 1739 -20 
Q 1472 -78 1184 -78 
Q 656 -78 206 84 
z
" transform="scale(0.015625)"/>
      <path id="SegoeUI-Bold-20" transform="scale(0.015625)"/>
      <path id="SegoeUI-Bold-63" d="M 2841 116 
Q 2506 -78 1875 -78 
Q 1138 -78 681 369 
Q 225 816 225 1522 
Q 225 2338 714 2808 
Q 1203 3278 2022 3278 
Q 2588 3278 2841 3128 
L 2841 2291 
Q 2531 2522 2150 2522 
Q 1725 2522 1476 2273 
Q 1228 2025 1228 1588 
Q 1228 1163 1465 920 
Q 1703 678 2119 678 
Q 2488 678 2841 909 
L 2841 116 
z
" transform="scale(0.015625)"/>
      <path id="SegoeUI-Bold-6f" d="M 1941 -78 
Q 1141 -78 683 370 
Q 225 819 225 1588 
Q 225 2381 700 2829 
Q 1175 3278 1984 3278 
Q 2781 3278 3234 2829 
Q 3688 2381 3688 1644 
Q 3688 847 3220 384 
Q 2753 -78 1941 -78 
z
M 1966 2522 
Q 1616 2522 1422 2281 
Q 1228 2041 1228 1600 
Q 1228 678 1972 678 
Q 2681 678 2681 1625 
Q 2681 2522 1966 2522 
z
" transform="scale(0.015625)"/>
      <path id="SegoeUI-Bold-74" d="M 2350 38 
Q 2131 -78 1691 -78 
Q 647 -78 647 1006 
L 647 2472 
L 128 2472 
L 128 3200 
L 647 3200 
L 647 3891 
L 1631 4172 
L 1631 3200 
L 2350 3200 
L 2350 2472 
L 1631 2472 
L 1631 1178 
Q 1631 678 2028 678 
Q 2184 678 2350 769 
L 2350 38 
z
" transform="scale(0.015625)"/>
      <path id="SegoeUI-Bold-64" d="M 3547 0 
L 2559 0 
L 2559 441 
L 2547 441 
Q 2209 -78 1556 -78 
Q 956 -78 590 345 
Q 225 769 225 1528 
Q 225 2322 628 2800 
Q 1031 3278 1684 3278 
Q 2303 3278 2547 2834 
L 2559 2834 
L 2559 4738 
L 3547 4738 
L 3547 0 
z
M 2578 1556 
L 2578 1797 
Q 2578 2109 2397 2315 
Q 2216 2522 1925 2522 
Q 1597 2522 1412 2264 
Q 1228 2006 1228 1556 
Q 1228 1134 1406 906 
Q 1584 678 1900 678 
Q 2200 678 2389 918 
Q 2578 1159 2578 1556 
z
" transform="scale(0.015625)"/>
      <path id="SegoeUI-Bold-70" d="M 1416 372 
L 1403 372 
L 1403 -1472 
L 416 -1472 
L 416 3200 
L 1403 3200 
L 1403 2719 
L 1416 2719 
Q 1781 3278 2444 3278 
Q 3066 3278 3405 2851 
Q 3744 2425 3744 1691 
Q 3744 891 3348 406 
Q 2953 -78 2297 -78 
Q 1719 -78 1416 372 
z
M 1388 1684 
L 1388 1428 
Q 1388 1097 1563 887 
Q 1738 678 2022 678 
Q 2359 678 2545 939 
Q 2731 1200 2731 1678 
Q 2731 2522 2075 2522 
Q 1772 2522 1580 2292 
Q 1388 2063 1388 1684 
z
" transform="scale(0.015625)"/>
      <path id="SegoeUI-Bold-75" d="M 3456 0 
L 2472 0 
L 2472 488 
L 2456 488 
Q 2091 -78 1478 -78 
Q 366 -78 366 1269 
L 366 3200 
L 1350 3200 
L 1350 1356 
Q 1350 678 1888 678 
Q 2153 678 2312 864 
Q 2472 1050 2472 1369 
L 2472 3200 
L 3456 3200 
L 3456 0 
z
" transform="scale(0.015625)"/>
      <path id="SegoeUI-Bold-6e" d="M 3506 0 
L 2522 0 
L 2522 1778 
Q 2522 2522 1991 2522 
Q 1734 2522 1568 2325 
Q 1403 2128 1403 1825 
L 1403 0 
L 416 0 
L 416 3200 
L 1403 3200 
L 1403 2694 
L 1416 2694 
Q 1769 3278 2444 3278 
Q 3506 3278 3506 1959 
L 3506 0 
z
" transform="scale(0.015625)"/>
      <path id="SegoeUI-Bold-76" d="M 3463 3200 
L 2272 0 
L 1147 0 
L 13 3200 
L 1069 3200 
L 1625 1228 
Q 1719 894 1734 659 
L 1747 659 
Q 1769 881 1863 1209 
L 2431 3200 
L 3463 3200 
z
" transform="scale(0.015625)"/>
     </defs>
     <use xlink:href="#SegoeUI-Bold-50"/>
     <use xlink:href="#SegoeUI-Bold-61" x="58.925781"/>
     <use xlink:href="#SegoeUI-Bold-72" x="112.734375"/>
     <use xlink:href="#SegoeUI-Bold-61" x="152.529297"/>
     <use xlink:href="#SegoeUI-Bold-6c" x="206.337891"/>
     <use xlink:href="#SegoeUI-Bold-65" x="234.755859"/>
     <use xlink:href="#SegoeUI-Bold-6c" x="288.857422"/>
     <use xlink:href="#SegoeUI-Bold-61" x="317.275391"/>
     <use xlink:href="#SegoeUI-Bold-73" x="371.083984"/>
     <use xlink:href="#SegoeUI-Bold-20" x="415.078125"/>
     <use xlink:href="#SegoeUI-Bold-63" x="442.666016"/>
     <use xlink:href="#SegoeUI-Bold-6f" x="490.664062"/>
     <use xlink:href="#SegoeUI-Bold-72" x="551.796875"/>
     <use xlink:href="#SegoeUI-Bold-74" x="594.466797"/>
     <use xlink:href="#SegoeUI-Bold-61" x="633.382812"/>
     <use xlink:href="#SegoeUI-Bold-64" x="687.191406"/>
     <use xlink:href="#SegoeUI-Bold-61" x="749.105469"/>
     <use xlink:href="#SegoeUI-Bold-73" x="802.914062"/>
     <use xlink:href="#SegoeUI-Bold-20" x="846.908203"/>
     <use xlink:href="#SegoeUI-Bold-70" x="874.496094"/>
     <use xlink:href="#SegoeUI-Bold-6f" x="936.507812"/>
     <use xlink:href="#SegoeUI-Bold-72" x="997.640625"/>
     <use xlink:href="#SegoeUI-Bold-20" x="1037.435547"/>
     <use xlink:href="#SegoeUI-Bold-75" x="1065.023438"/>
     <use xlink:href="#SegoeUI-Bold-6e" x="1125.521484"/>
     <use xlink:href="#SegoeUI-Bold-61" x="1186.019531"/>
     <use xlink:href="#SegoeUI-Bold-20" x="1239.828125"/>
     <use xlink:href="#SegoeUI-Bold-74" x="1267.416016"/>
     <use xlink:href="#SegoeUI-Bold-72" x="1306.332031"/>
     <use xlink:href="#SegoeUI-Bold-61" x="1346.126953"/>
     <use xlink:href="#SegoeUI-Bold-6e" x="1399.935547"/>
     <use xlink:href="#SegoeUI-Bold-73" x="1460.433594"/>
     <use xlink:href="#SegoeUI-Bold-76" x="1504.427734"/>
     <use xlink:href="#SegoeUI-Bold-65" x="1557.626953"/>
     <use xlink:href="#SegoeUI-Bold-72" x="1611.728516"/>
     <use xlink:href="#SegoeUI-Bold-73" x="1652.148438"/>
     <use xlink:href="#SegoeUI-Bold-61" x="1696.142578"/>
     <use xlink:href="#SegoeUI-Bold-6c" x="1749.951172"/>
    </g>
   </g>
  </g>
 </g>
 <defs>
  <clipPath id="p81691d6726">
   <rect x="7.2" y="32.564375" width="641.433411" height="472.635145"/>
  </clipPath>
 </defs>
</svg>
