<?xml version="1.0" encoding="utf-8" standalone="no"?>
<!DOCTYPE svg PUBLIC "-//W3C//DTD SVG 1.1//EN"
  "http://www.w3.org/Graphics/SVG/1.1/DTD/svg11.dtd">
<svg xmlns:xlink="http://www.w3.org/1999/xlink" width="1003.06909pt" height="584.39952pt" viewBox="0 0 1003.06909 584.39952" xmlns="http://www.w3.org/2000/svg" version="1.1">
 <metadata>
  <rdf:RDF xmlns:dc="http://purl.org/dc/elements/1.1/" xmlns:cc="http://creativecommons.org/ns#" xmlns:rdf="http://www.w3.org/1999/02/22-rdf-syntax-ns#">
   <cc:Work>
    <dc:type rdf:resource="http://purl.org/dc/dcmitype/StillImage"/>
    <dc:date>2026-04-11T16:11:39.639314</dc:date>
    <dc:format>image/svg+xml</dc:format>
    <dc:creator>
     <cc:Agent>
      <dc:title>Matplotlib v3.8.4, https://matplotlib.org/</dc:title>
     </cc:Agent>
    </dc:creator>
   </cc:Work>
  </rdf:RDF>
 </metadata>
 <defs>
  <style type="text/css">*{stroke-linejoin: round; stroke-linecap: butt}</style>
 </defs>
 <g id="figure_1">
  <g id="patch_1">
   <path d="M 0 584.39952 
L 1003.06909 584.39952 
L 1003.06909 0 
L 0 0 
z
" style="fill: #ffffff"/>
  </g>
  <g id="axes_1">
   <g id="patch_2">
    <path d="M 213.58007 336.422772 
L 419.960139 336.422772 
L 213.58007 181.63772 
z
" clip-path="url(#p2a2e6dac6d)" style="fill: #2c2f33; opacity: 0.1; stroke: #2c2f33; stroke-width: 2; stroke-linejoin: miter"/>
   </g>
   <g id="patch_3">
    <path d="M 213.58007 336.422772 
L 227.338741 336.422772 
L 227.338741 322.664101 
L 213.58007 322.664101 
L 213.58007 336.422772 
z
" clip-path="url(#p2a2e6dac6d)" style="fill: none; stroke: #e12885; stroke-width: 2; stroke-linejoin: miter"/>
   </g>
   <g id="patch_4">
    <path d="M 58.795017 336.422772 
L 213.58007 336.422772 
L 213.58007 181.63772 
L 58.795017 181.63772 
z
" clip-path="url(#p2a2e6dac6d)" style="fill: #1f2937; opacity: 0.3; stroke: #1f2937; stroke-width: 2; stroke-linejoin: miter"/>
   </g>
   <g id="patch_5">
    <path d="M 213.58007 336.422772 
L 419.960139 336.422772 
L 419.960139 542.802842 
L 213.58007 542.802842 
z
" clip-path="url(#p2a2e6dac6d)" style="fill: #4b5563; opacity: 0.3; stroke: #4b5563; stroke-width: 2; stroke-linejoin: miter"/>
   </g>
   <g id="patch_6">
    <path d="M 213.58007 181.63772 
L 419.960139 336.422772 
L 265.175087 542.802842 
L 58.795017 388.017789 
z
" clip-path="url(#p2a2e6dac6d)" style="fill: #e12885; opacity: 0.3; stroke: #e12885; stroke-width: 2; stroke-linejoin: miter"/>
   </g>
   <g id="line2d_1">
    <path d="M 213.58007 336.422772 
L 419.960139 336.422772 
" clip-path="url(#p2a2e6dac6d)" style="fill: none; stroke: #2c2f33; stroke-width: 2.5; stroke-linecap: square"/>
   </g>
   <g id="line2d_2">
    <path d="M 419.960139 336.422772 
L 213.58007 181.63772 
" clip-path="url(#p2a2e6dac6d)" style="fill: none; stroke: #2c2f33; stroke-width: 2.5; stroke-linecap: square"/>
   </g>
   <g id="line2d_3">
    <path d="M 213.58007 181.63772 
L 213.58007 336.422772 
" clip-path="url(#p2a2e6dac6d)" style="fill: none; stroke: #2c2f33; stroke-width: 2.5; stroke-linecap: square"/>
   </g>
   <g id="text_1">
    <!-- $a^2$ -->
    <g style="fill: #1f2937" transform="translate(125.927544 263.623058) scale(0.18 -0.18)">
     <defs>
      <path id="DejaVuSans-Oblique-61" d="M 3438 1997 
L 3047 0 
L 2472 0 
L 2578 531 
Q 2325 219 2001 64 
Q 1678 -91 1281 -91 
Q 834 -91 548 182 
Q 263 456 263 884 
Q 263 1497 752 1853 
Q 1241 2209 2100 2209 
L 2900 2209 
L 2931 2363 
Q 2938 2388 2941 2417 
Q 2944 2447 2944 2509 
Q 2944 2788 2717 2942 
Q 2491 3097 2081 3097 
Q 1800 3097 1504 3025 
Q 1209 2953 897 2809 
L 997 3341 
Q 1322 3463 1633 3523 
Q 1944 3584 2234 3584 
Q 2853 3584 3176 3315 
Q 3500 3047 3500 2534 
Q 3500 2431 3484 2292 
Q 3469 2153 3438 1997 
z
M 2816 1759 
L 2241 1759 
Q 1534 1759 1195 1570 
Q 856 1381 856 984 
Q 856 709 1029 553 
Q 1203 397 1509 397 
Q 1978 397 2328 733 
Q 2678 1069 2791 1631 
L 2816 1759 
z
" transform="scale(0.015625)"/>
      <path id="DejaVuSans-32" d="M 1228 531 
L 3431 531 
L 3431 0 
L 469 0 
L 469 531 
Q 828 903 1448 1529 
Q 2069 2156 2228 2338 
Q 2531 2678 2651 2914 
Q 2772 3150 2772 3378 
Q 2772 3750 2511 3984 
Q 2250 4219 1831 4219 
Q 1534 4219 1204 4116 
Q 875 4013 500 3803 
L 500 4441 
Q 881 4594 1212 4672 
Q 1544 4750 1819 4750 
Q 2544 4750 2975 4387 
Q 3406 4025 3406 3419 
Q 3406 3131 3298 2873 
Q 3191 2616 2906 2266 
Q 2828 2175 2409 1742 
Q 1991 1309 1228 531 
z
" transform="scale(0.015625)"/>
     </defs>
     <use xlink:href="#DejaVuSans-Oblique-61" transform="translate(0 0.765625)"/>
     <use xlink:href="#DejaVuSans-32" transform="translate(65.929193 39.046875) scale(0.7)"/>
    </g>
   </g>
   <g id="text_2">
    <!-- $b^2$ -->
    <g style="fill: #4b5563" transform="translate(306.060105 444.205619) scale(0.18 -0.18)">
     <defs>
      <path id="DejaVuSans-Oblique-62" d="M 3169 2138 
Q 3169 2591 2961 2847 
Q 2753 3103 2388 3103 
Q 2122 3103 1889 2973 
Q 1656 2844 1484 2597 
Q 1303 2338 1198 1995 
Q 1094 1653 1094 1313 
Q 1094 881 1298 636 
Q 1503 391 1863 391 
Q 2134 391 2365 517 
Q 2597 644 2772 891 
Q 2950 1147 3059 1487 
Q 3169 1828 3169 2138 
z
M 1381 2969 
Q 1594 3256 1914 3420 
Q 2234 3584 2584 3584 
Q 3122 3584 3439 3221 
Q 3756 2859 3756 2241 
Q 3756 1734 3570 1259 
Q 3384 784 3041 416 
Q 2816 172 2522 40 
Q 2228 -91 1906 -91 
Q 1566 -91 1316 65 
Q 1066 222 909 531 
L 806 0 
L 231 0 
L 1178 4863 
L 1753 4863 
L 1381 2969 
z
" transform="scale(0.015625)"/>
     </defs>
     <use xlink:href="#DejaVuSans-Oblique-62" transform="translate(0 0.765625)"/>
     <use xlink:href="#DejaVuSans-32" transform="translate(70.924271 39.046875) scale(0.7)"/>
    </g>
   </g>
   <g id="text_3">
    <!-- $c^2$ -->
    <g style="fill: #e12885" transform="translate(229.747578 366.813093) scale(0.18 -0.18)">
     <defs>
      <path id="DejaVuSans-Oblique-63" d="M 3431 3366 
L 3316 2797 
Q 3109 2947 2876 3022 
Q 2644 3097 2394 3097 
Q 2119 3097 1870 3000 
Q 1622 2903 1453 2725 
Q 1184 2453 1037 2087 
Q 891 1722 891 1331 
Q 891 859 1127 628 
Q 1363 397 1844 397 
Q 2081 397 2348 469 
Q 2616 541 2906 684 
L 2797 116 
Q 2547 13 2283 -39 
Q 2019 -91 1741 -91 
Q 1044 -91 669 257 
Q 294 606 294 1253 
Q 294 1797 489 2255 
Q 684 2713 1069 3078 
Q 1331 3328 1684 3456 
Q 2038 3584 2456 3584 
Q 2700 3584 2940 3529 
Q 3181 3475 3431 3366 
z
" transform="scale(0.015625)"/>
     </defs>
     <use xlink:href="#DejaVuSans-Oblique-63" transform="translate(0 0.765625)"/>
     <use xlink:href="#DejaVuSans-32" transform="translate(59.630365 39.046875) scale(0.7)"/>
    </g>
   </g>
   <g id="text_4">
    <!-- $a$ -->
    <g style="fill: #2c2f33" transform="translate(192.041731 262.602433) scale(0.14 -0.14)">
     <use xlink:href="#DejaVuSans-Oblique-61"/>
    </g>
   </g>
   <g id="text_5">
    <!-- $b$ -->
    <g style="fill: #2c2f33" transform="translate(312.290105 357.193299) scale(0.14 -0.14)">
     <use xlink:href="#DejaVuSans-Oblique-62" transform="translate(0 0.015625)"/>
    </g>
   </g>
   <g id="text_6">
    <!-- $c$ -->
    <g style="fill: #2c2f33" transform="translate(326.678776 252.28343) scale(0.14 -0.14)">
     <use xlink:href="#DejaVuSans-Oblique-63"/>
    </g>
   </g>
  </g>
  <g id="axes_2">
   <g id="patch_7">
    <path d="M 630.430873 164.439381 
L 976.6355 164.439381 
L 976.6355 54.37001 
L 630.430873 54.37001 
z
" clip-path="url(#p1cc3b5e7b9)" style="fill: #fffbeb; stroke: #39c5bb; stroke-width: 2.5; stroke-linejoin: miter"/>
   </g>
   <g id="patch_8">
    <path d="M 649.664463 511.157898 
L 957.401909 511.157898 
L 957.401909 445.116275 
L 649.664463 445.116275 
z
" clip-path="url(#p1cc3b5e7b9)" style="fill: #f0fdf4; stroke: #e12885; stroke-linejoin: miter"/>
   </g>
   <g id="line2d_4">
    <path d="M 630.430873 191.956723 
L 976.6355 191.956723 
" clip-path="url(#p1cc3b5e7b9)" style="fill: none; stroke: #e5e7eb; stroke-linecap: square"/>
   </g>
   <g id="line2d_5">
    <path d="M 630.430873 401.088527 
L 976.6355 401.088527 
" clip-path="url(#p1cc3b5e7b9)" style="fill: none; stroke: #e5e7eb; stroke-linecap: square"/>
   </g>
   <g id="line2d_6">
    <path d="M 630.430873 533.171772 
L 976.6355 533.171772 
" clip-path="url(#p1cc3b5e7b9)" style="fill: none; stroke: #e5e7eb; stroke-linecap: square"/>
   </g>
   <g id="text_7">
    <!-- TEOREMA DE PITÁGORAS -->
    <g style="fill: #39c5bb" transform="translate(743.088655 73.431978) scale(0.1 -0.1)">
     <defs>
      <path id="SegoeUI-Bold-54" d="M 3659 3659 
L 2381 3659 
L 2381 0 
L 1369 0 
L 1369 3659 
L 97 3659 
L 97 4481 
L 3659 4481 
L 3659 3659 
z
" transform="scale(0.015625)"/>
      <path id="SegoeUI-Bold-45" d="M 3200 0 
L 513 0 
L 513 4481 
L 3097 4481 
L 3097 3659 
L 1522 3659 
L 1522 2663 
L 2988 2663 
L 2988 1844 
L 1522 1844 
L 1522 819 
L 3200 819 
L 3200 0 
z
" transform="scale(0.015625)"/>
      <path id="SegoeUI-Bold-4f" d="M 2406 -78 
Q 1444 -78 837 548 
Q 231 1175 231 2181 
Q 231 3244 847 3900 
Q 1463 4556 2478 4556 
Q 3438 4556 4030 3928 
Q 4622 3300 4622 2272 
Q 4622 1216 4008 569 
Q 3394 -78 2406 -78 
z
M 2450 3688 
Q 1919 3688 1606 3289 
Q 1294 2891 1294 2234 
Q 1294 1569 1606 1181 
Q 1919 794 2425 794 
Q 2947 794 3253 1170 
Q 3559 1547 3559 2216 
Q 3559 2913 3262 3300 
Q 2966 3688 2450 3688 
z
" transform="scale(0.015625)"/>
      <path id="SegoeUI-Bold-52" d="M 4272 0 
L 3113 0 
L 2416 1153 
Q 2338 1284 2266 1387 
Q 2194 1491 2120 1564 
Q 2047 1638 1967 1677 
Q 1888 1716 1794 1716 
L 1522 1716 
L 1522 0 
L 513 0 
L 513 4481 
L 2113 4481 
Q 3744 4481 3744 3263 
Q 3744 3028 3672 2829 
Q 3600 2631 3469 2472 
Q 3338 2313 3152 2197 
Q 2966 2081 2738 2016 
L 2738 2003 
Q 2838 1972 2931 1901 
Q 3025 1831 3112 1737 
Q 3200 1644 3279 1536 
Q 3359 1428 3425 1325 
L 4272 0 
z
M 1522 3725 
L 1522 2478 
L 1959 2478 
Q 2284 2478 2481 2666 
Q 2681 2856 2681 3138 
Q 2681 3725 1978 3725 
L 1522 3725 
z
" transform="scale(0.015625)"/>
      <path id="SegoeUI-Bold-4d" d="M 5619 0 
L 4622 0 
L 4622 2681 
Q 4622 3116 4659 3641 
L 4634 3641 
Q 4556 3228 4494 3047 
L 3444 0 
L 2619 0 
L 1550 3016 
Q 1506 3138 1409 3641 
L 1381 3641 
Q 1422 2978 1422 2478 
L 1422 0 
L 513 0 
L 513 4481 
L 1991 4481 
L 2906 1825 
Q 3016 1506 3066 1184 
L 3084 1184 
Q 3169 1556 3263 1831 
L 4178 4481 
L 5619 4481 
L 5619 0 
z
" transform="scale(0.015625)"/>
      <path id="SegoeUI-Bold-41" d="M 4453 0 
L 3353 0 
L 3034 997 
L 1441 997 
L 1125 0 
L 31 0 
L 1663 4481 
L 2859 4481 
L 4453 0 
z
M 2803 1772 
L 2322 3278 
Q 2269 3447 2247 3681 
L 2222 3681 
Q 2206 3484 2144 3291 
L 1656 1772 
L 2803 1772 
z
" transform="scale(0.015625)"/>
      <path id="SegoeUI-Bold-20" transform="scale(0.015625)"/>
      <path id="SegoeUI-Bold-44" d="M 513 0 
L 513 4481 
L 2100 4481 
Q 4488 4481 4488 2297 
Q 4488 1250 3836 625 
Q 3184 0 2100 0 
L 513 0 
z
M 1522 3659 
L 1522 819 
L 2022 819 
Q 2678 819 3051 1212 
Q 3425 1606 3425 2284 
Q 3425 2925 3054 3292 
Q 2684 3659 2016 3659 
L 1522 3659 
z
" transform="scale(0.015625)"/>
      <path id="SegoeUI-Bold-50" d="M 1522 1544 
L 1522 0 
L 513 0 
L 513 4481 
L 2094 4481 
Q 3788 4481 3788 3053 
Q 3788 2378 3302 1961 
Q 2816 1544 2003 1544 
L 1522 1544 
z
M 1522 3706 
L 1522 2309 
L 1919 2309 
Q 2725 2309 2725 3016 
Q 2725 3706 1919 3706 
L 1522 3706 
z
" transform="scale(0.015625)"/>
      <path id="SegoeUI-Bold-49" d="M 1522 0 
L 513 0 
L 513 4481 
L 1522 4481 
L 1522 0 
z
" transform="scale(0.015625)"/>
      <path id="SegoeUI-Bold-c1" d="M 4453 0 
L 3353 0 
L 3034 997 
L 1441 997 
L 1125 0 
L 31 0 
L 1663 4481 
L 2859 4481 
L 4453 0 
z
M 2803 1772 
L 2322 3278 
Q 2269 3447 2247 3681 
L 2222 3681 
Q 2206 3484 2144 3291 
L 1656 1772 
L 2803 1772 
z
M 3239 5932 
L 2260 4922 
L 1548 4922 
L 2360 5932 
L 3239 5932 
z
" transform="scale(0.015625)"/>
      <path id="SegoeUI-Bold-47" d="M 4191 300 
Q 3534 -78 2559 -78 
Q 1478 -78 854 520 
Q 231 1119 231 2169 
Q 231 3225 912 3890 
Q 1594 4556 2725 4556 
Q 3438 4556 3981 4359 
L 3981 3413 
Q 3463 3713 2713 3713 
Q 2084 3713 1689 3305 
Q 1294 2897 1294 2216 
Q 1294 1525 1648 1147 
Q 2003 769 2606 769 
Q 2969 769 3181 872 
L 3181 1747 
L 2284 1747 
L 2284 2553 
L 4191 2553 
L 4191 300 
z
" transform="scale(0.015625)"/>
      <path id="SegoeUI-Bold-53" d="M 306 172 
L 306 1172 
Q 578 944 897 830 
Q 1216 716 1541 716 
Q 1731 716 1873 750 
Q 2016 784 2111 845 
Q 2206 906 2253 989 
Q 2300 1072 2300 1169 
Q 2300 1300 2225 1403 
Q 2150 1506 2020 1593 
Q 1891 1681 1712 1762 
Q 1534 1844 1328 1928 
Q 803 2147 545 2462 
Q 288 2778 288 3225 
Q 288 3575 428 3826 
Q 569 4078 811 4240 
Q 1053 4403 1372 4479 
Q 1691 4556 2047 4556 
Q 2397 4556 2667 4514 
Q 2938 4472 3166 4384 
L 3166 3450 
Q 3053 3528 2920 3587 
Q 2788 3647 2647 3686 
Q 2506 3725 2367 3744 
Q 2228 3763 2103 3763 
Q 1931 3763 1790 3730 
Q 1650 3697 1553 3637 
Q 1456 3578 1403 3495 
Q 1350 3413 1350 3309 
Q 1350 3197 1409 3108 
Q 1469 3019 1578 2939 
Q 1688 2859 1844 2782 
Q 2000 2706 2197 2625 
Q 2466 2513 2680 2386 
Q 2894 2259 3047 2100 
Q 3200 1941 3281 1736 
Q 3363 1531 3363 1259 
Q 3363 884 3220 629 
Q 3078 375 2834 217 
Q 2591 59 2267 -9 
Q 1944 -78 1584 -78 
Q 1216 -78 883 -15 
Q 550 47 306 172 
z
" transform="scale(0.015625)"/>
     </defs>
     <use xlink:href="#SegoeUI-Bold-54"/>
     <use xlink:href="#SegoeUI-Bold-45" x="58.59375"/>
     <use xlink:href="#SegoeUI-Bold-4f" x="111.816406"/>
     <use xlink:href="#SegoeUI-Bold-52" x="187.646484"/>
     <use xlink:href="#SegoeUI-Bold-45" x="252.929688"/>
     <use xlink:href="#SegoeUI-Bold-4d" x="306.152344"/>
     <use xlink:href="#SegoeUI-Bold-41" x="401.855469"/>
     <use xlink:href="#SegoeUI-Bold-20" x="472.167969"/>
     <use xlink:href="#SegoeUI-Bold-44" x="499.755859"/>
     <use xlink:href="#SegoeUI-Bold-45" x="573.486328"/>
     <use xlink:href="#SegoeUI-Bold-20" x="626.708984"/>
     <use xlink:href="#SegoeUI-Bold-50" x="654.296875"/>
     <use xlink:href="#SegoeUI-Bold-49" x="715.722656"/>
     <use xlink:href="#SegoeUI-Bold-54" x="747.412109"/>
     <use xlink:href="#SegoeUI-Bold-c1" x="800.005859"/>
     <use xlink:href="#SegoeUI-Bold-47" x="870.318359"/>
     <use xlink:href="#SegoeUI-Bold-4f" x="941.412109"/>
     <use xlink:href="#SegoeUI-Bold-52" x="1017.242188"/>
     <use xlink:href="#SegoeUI-Bold-41" x="1082.525391"/>
     <use xlink:href="#SegoeUI-Bold-53" x="1152.837891"/>
    </g>
   </g>
   <g id="text_8">
    <!-- $c^2 = a^2 + b^2$ -->
    <g style="fill: #39c5bb" transform="translate(733.453186 132.038851) scale(0.24 -0.24)">
     <defs>
      <path id="DejaVuSans-3d" d="M 678 2906 
L 4684 2906 
L 4684 2381 
L 678 2381 
L 678 2906 
z
M 678 1631 
L 4684 1631 
L 4684 1100 
L 678 1100 
L 678 1631 
z
" transform="scale(0.015625)"/>
      <path id="DejaVuSans-2b" d="M 2944 4013 
L 2944 2272 
L 4684 2272 
L 4684 1741 
L 2944 1741 
L 2944 0 
L 2419 0 
L 2419 1741 
L 678 1741 
L 678 2272 
L 2419 2272 
L 2419 4013 
L 2944 4013 
z
" transform="scale(0.015625)"/>
     </defs>
     <use xlink:href="#DejaVuSans-Oblique-63" transform="translate(0 0.765625)"/>
     <use xlink:href="#DejaVuSans-32" transform="translate(59.630365 39.046875) scale(0.7)"/>
     <use xlink:href="#DejaVuSans-3d" transform="translate(126.383294 0.765625)"/>
     <use xlink:href="#DejaVuSans-Oblique-61" transform="translate(229.654779 0.765625)"/>
     <use xlink:href="#DejaVuSans-32" transform="translate(295.583971 39.046875) scale(0.7)"/>
     <use xlink:href="#DejaVuSans-2b" transform="translate(362.336901 0.765625)"/>
     <use xlink:href="#DejaVuSans-Oblique-62" transform="translate(465.608385 0.765625)"/>
     <use xlink:href="#DejaVuSans-32" transform="translate(536.532656 39.046875) scale(0.7)"/>
    </g>
   </g>
   <g id="text_9">
    <!-- Elementos -->
    <g style="fill: #374151" transform="translate(779.250374 213.970597) scale(0.1 -0.1)">
     <defs>
      <path id="SegoeUI-Bold-6c" d="M 1403 0 
L 416 0 
L 416 4738 
L 1403 4738 
L 1403 0 
z
" transform="scale(0.015625)"/>
      <path id="SegoeUI-Bold-65" d="M 3291 1319 
L 1203 1319 
Q 1253 622 2081 622 
Q 2609 622 3009 872 
L 3009 159 
Q 2566 -78 1856 -78 
Q 1081 -78 653 351 
Q 225 781 225 1550 
Q 225 2347 687 2812 
Q 1150 3278 1825 3278 
Q 2525 3278 2908 2862 
Q 3291 2447 3291 1734 
L 3291 1319 
z
M 2375 1925 
Q 2375 2613 1819 2613 
Q 1581 2613 1407 2416 
Q 1234 2219 1197 1925 
L 2375 1925 
z
" transform="scale(0.015625)"/>
      <path id="SegoeUI-Bold-6d" d="M 5497 0 
L 4513 0 
L 4513 1825 
Q 4513 2522 4000 2522 
Q 3756 2522 3603 2312 
Q 3450 2103 3450 1791 
L 3450 0 
L 2463 0 
L 2463 1844 
Q 2463 2522 1959 2522 
Q 1706 2522 1554 2322 
Q 1403 2122 1403 1778 
L 1403 0 
L 416 0 
L 416 3200 
L 1403 3200 
L 1403 2700 
L 1416 2700 
Q 1569 2956 1845 3117 
Q 2122 3278 2450 3278 
Q 3128 3278 3378 2681 
Q 3744 3278 4453 3278 
Q 5497 3278 5497 1991 
L 5497 0 
z
" transform="scale(0.015625)"/>
      <path id="SegoeUI-Bold-6e" d="M 3506 0 
L 2522 0 
L 2522 1778 
Q 2522 2522 1991 2522 
Q 1734 2522 1568 2325 
Q 1403 2128 1403 1825 
L 1403 0 
L 416 0 
L 416 3200 
L 1403 3200 
L 1403 2694 
L 1416 2694 
Q 1769 3278 2444 3278 
Q 3506 3278 3506 1959 
L 3506 0 
z
" transform="scale(0.015625)"/>
      <path id="SegoeUI-Bold-74" d="M 2350 38 
Q 2131 -78 1691 -78 
Q 647 -78 647 1006 
L 647 2472 
L 128 2472 
L 128 3200 
L 647 3200 
L 647 3891 
L 1631 4172 
L 1631 3200 
L 2350 3200 
L 2350 2472 
L 1631 2472 
L 1631 1178 
Q 1631 678 2028 678 
Q 2184 678 2350 769 
L 2350 38 
z
" transform="scale(0.015625)"/>
      <path id="SegoeUI-Bold-6f" d="M 1941 -78 
Q 1141 -78 683 370 
Q 225 819 225 1588 
Q 225 2381 700 2829 
Q 1175 3278 1984 3278 
Q 2781 3278 3234 2829 
Q 3688 2381 3688 1644 
Q 3688 847 3220 384 
Q 2753 -78 1941 -78 
z
M 1966 2522 
Q 1616 2522 1422 2281 
Q 1228 2041 1228 1600 
Q 1228 678 1972 678 
Q 2681 678 2681 1625 
Q 2681 2522 1966 2522 
z
" transform="scale(0.015625)"/>
      <path id="SegoeUI-Bold-73" d="M 206 84 
L 206 884 
Q 450 738 692 666 
Q 934 594 1150 594 
Q 1413 594 1564 666 
Q 1716 738 1716 884 
Q 1716 978 1647 1040 
Q 1578 1103 1470 1150 
Q 1363 1197 1234 1234 
Q 1106 1272 988 1319 
Q 797 1391 651 1473 
Q 506 1556 407 1665 
Q 309 1775 257 1919 
Q 206 2063 206 2259 
Q 206 2528 323 2722 
Q 441 2916 636 3039 
Q 831 3163 1082 3220 
Q 1334 3278 1606 3278 
Q 1819 3278 2037 3245 
Q 2256 3213 2469 3150 
L 2469 2388 
Q 2281 2497 2067 2551 
Q 1853 2606 1647 2606 
Q 1550 2606 1464 2589 
Q 1378 2572 1312 2539 
Q 1247 2506 1209 2454 
Q 1172 2403 1172 2338 
Q 1172 2250 1228 2187 
Q 1284 2125 1375 2079 
Q 1466 2034 1577 1998 
Q 1688 1963 1797 1925 
Q 1994 1856 2153 1775 
Q 2313 1694 2427 1584 
Q 2541 1475 2602 1328 
Q 2663 1181 2663 978 
Q 2663 694 2539 492 
Q 2416 291 2211 164 
Q 2006 38 1739 -20 
Q 1472 -78 1184 -78 
Q 656 -78 206 84 
z
" transform="scale(0.015625)"/>
     </defs>
     <use xlink:href="#SegoeUI-Bold-45"/>
     <use xlink:href="#SegoeUI-Bold-6c" x="53.222656"/>
     <use xlink:href="#SegoeUI-Bold-65" x="81.640625"/>
     <use xlink:href="#SegoeUI-Bold-6d" x="135.742188"/>
     <use xlink:href="#SegoeUI-Bold-65" x="227.34375"/>
     <use xlink:href="#SegoeUI-Bold-6e" x="281.445312"/>
     <use xlink:href="#SegoeUI-Bold-74" x="341.943359"/>
     <use xlink:href="#SegoeUI-Bold-6f" x="380.484375"/>
     <use xlink:href="#SegoeUI-Bold-73" x="441.617188"/>
    </g>
   </g>
   <g id="text_10">
    <!-- a -->
    <g style="fill: #1f2937" transform="translate(641.971027 261.315377) scale(0.13 -0.13)">
     <defs>
      <path id="SegoeUI-Bold-61" d="M 3078 0 
L 2144 0 
L 2144 459 
L 2131 459 
Q 1809 -78 1178 -78 
Q 713 -78 445 186 
Q 178 450 178 891 
Q 178 1822 1281 1966 
L 2150 2081 
Q 2150 2606 1581 2606 
Q 1009 2606 494 2266 
L 494 3009 
Q 700 3116 1058 3197 
Q 1416 3278 1709 3278 
Q 3078 3278 3078 1913 
L 3078 0 
z
M 2150 1300 
L 2150 1516 
L 1569 1441 
Q 1088 1378 1088 1006 
Q 1088 838 1205 730 
Q 1322 622 1522 622 
Q 1800 622 1975 814 
Q 2150 1006 2150 1300 
z
" transform="scale(0.015625)"/>
     </defs>
     <use xlink:href="#SegoeUI-Bold-61"/>
    </g>
   </g>
   <g id="text_11">
    <!-- = cateto (lado menor) -->
    <g style="fill: #374151" transform="translate(672.744772 260.294752) scale(0.09 -0.09)">
     <defs>
      <path id="SegoeUI-3d" d="M 3663 2325 
L 725 2325 
L 725 2738 
L 3663 2738 
L 3663 2325 
z
M 3663 994 
L 725 994 
L 725 1406 
L 3663 1406 
L 3663 994 
z
" transform="scale(0.015625)"/>
      <path id="SegoeUI-20" transform="scale(0.015625)"/>
      <path id="SegoeUI-63" d="M 2700 147 
Q 2331 -75 1825 -75 
Q 1141 -75 720 370 
Q 300 816 300 1525 
Q 300 2316 753 2795 
Q 1206 3275 1963 3275 
Q 2384 3275 2706 3119 
L 2706 2594 
Q 2350 2844 1944 2844 
Q 1453 2844 1139 2492 
Q 825 2141 825 1569 
Q 825 1006 1120 681 
Q 1416 356 1913 356 
Q 2331 356 2700 634 
L 2700 147 
z
" transform="scale(0.015625)"/>
      <path id="SegoeUI-61" d="M 2809 0 
L 2297 0 
L 2297 500 
L 2284 500 
Q 1950 -75 1300 -75 
Q 822 -75 551 178 
Q 281 431 281 850 
Q 281 1747 1338 1894 
L 2297 2028 
Q 2297 2844 1638 2844 
Q 1059 2844 594 2450 
L 594 2975 
Q 1066 3275 1681 3275 
Q 2809 3275 2809 2081 
L 2809 0 
z
M 2297 1619 
L 1525 1513 
Q 1169 1463 987 1336 
Q 806 1209 806 888 
Q 806 653 973 504 
Q 1141 356 1419 356 
Q 1800 356 2048 623 
Q 2297 891 2297 1300 
L 2297 1619 
z
" transform="scale(0.015625)"/>
      <path id="SegoeUI-74" d="M 2003 31 
Q 1822 -69 1525 -69 
Q 684 -69 684 869 
L 684 2763 
L 134 2763 
L 134 3200 
L 684 3200 
L 684 3981 
L 1197 4147 
L 1197 3200 
L 2003 3200 
L 2003 2763 
L 1197 2763 
L 1197 959 
Q 1197 638 1306 500 
Q 1416 363 1669 363 
Q 1863 363 2003 469 
L 2003 31 
z
" transform="scale(0.015625)"/>
      <path id="SegoeUI-65" d="M 3091 1472 
L 831 1472 
Q 844 938 1119 647 
Q 1394 356 1875 356 
Q 2416 356 2869 713 
L 2869 231 
Q 2447 -75 1753 -75 
Q 1075 -75 687 361 
Q 300 797 300 1588 
Q 300 2334 723 2804 
Q 1147 3275 1775 3275 
Q 2403 3275 2747 2869 
Q 3091 2463 3091 1741 
L 3091 1472 
z
M 2566 1906 
Q 2563 2350 2352 2597 
Q 2141 2844 1766 2844 
Q 1403 2844 1150 2584 
Q 897 2325 838 1906 
L 2566 1906 
z
" transform="scale(0.015625)"/>
      <path id="SegoeUI-6f" d="M 1856 -75 
Q 1147 -75 723 373 
Q 300 822 300 1563 
Q 300 2369 740 2822 
Q 1181 3275 1931 3275 
Q 2647 3275 3048 2834 
Q 3450 2394 3450 1613 
Q 3450 847 3017 386 
Q 2584 -75 1856 -75 
z
M 1894 2844 
Q 1400 2844 1112 2508 
Q 825 2172 825 1581 
Q 825 1013 1115 684 
Q 1406 356 1894 356 
Q 2391 356 2658 678 
Q 2925 1000 2925 1594 
Q 2925 2194 2658 2519 
Q 2391 2844 1894 2844 
z
" transform="scale(0.015625)"/>
      <path id="SegoeUI-28" d="M 1863 -1019 
L 1406 -1019 
Q 438 88 438 1709 
Q 438 3338 1406 4481 
L 1869 4481 
Q 888 3294 888 1716 
Q 888 150 1863 -1019 
z
" transform="scale(0.015625)"/>
      <path id="SegoeUI-6c" d="M 1031 0 
L 519 0 
L 519 4738 
L 1031 4738 
L 1031 0 
z
" transform="scale(0.015625)"/>
      <path id="SegoeUI-64" d="M 3250 0 
L 2738 0 
L 2738 544 
L 2725 544 
Q 2369 -75 1625 -75 
Q 1022 -75 661 354 
Q 300 784 300 1525 
Q 300 2319 700 2797 
Q 1100 3275 1766 3275 
Q 2425 3275 2725 2756 
L 2738 2756 
L 2738 4738 
L 3250 4738 
L 3250 0 
z
M 2738 1447 
L 2738 1919 
Q 2738 2306 2481 2575 
Q 2225 2844 1831 2844 
Q 1363 2844 1094 2500 
Q 825 2156 825 1550 
Q 825 997 1083 676 
Q 1341 356 1775 356 
Q 2203 356 2470 665 
Q 2738 975 2738 1447 
z
" transform="scale(0.015625)"/>
      <path id="SegoeUI-6d" d="M 5063 0 
L 4550 0 
L 4550 1838 
Q 4550 2369 4386 2606 
Q 4222 2844 3834 2844 
Q 3506 2844 3276 2544 
Q 3047 2244 3047 1825 
L 3047 0 
L 2534 0 
L 2534 1900 
Q 2534 2844 1806 2844 
Q 1469 2844 1250 2561 
Q 1031 2278 1031 1825 
L 1031 0 
L 519 0 
L 519 3200 
L 1031 3200 
L 1031 2694 
L 1044 2694 
Q 1384 3275 2038 3275 
Q 2366 3275 2609 3092 
Q 2853 2909 2944 2613 
Q 3300 3275 4006 3275 
Q 5063 3275 5063 1972 
L 5063 0 
z
" transform="scale(0.015625)"/>
      <path id="SegoeUI-6e" d="M 3175 0 
L 2663 0 
L 2663 1825 
Q 2663 2844 1919 2844 
Q 1534 2844 1282 2555 
Q 1031 2266 1031 1825 
L 1031 0 
L 519 0 
L 519 3200 
L 1031 3200 
L 1031 2669 
L 1044 2669 
Q 1406 3275 2094 3275 
Q 2619 3275 2897 2936 
Q 3175 2597 3175 1956 
L 3175 0 
z
" transform="scale(0.015625)"/>
      <path id="SegoeUI-72" d="M 2188 2681 
Q 2053 2784 1800 2784 
Q 1472 2784 1251 2475 
Q 1031 2166 1031 1631 
L 1031 0 
L 519 0 
L 519 3200 
L 1031 3200 
L 1031 2541 
L 1044 2541 
Q 1153 2878 1378 3067 
Q 1603 3256 1881 3256 
Q 2081 3256 2188 3213 
L 2188 2681 
z
" transform="scale(0.015625)"/>
      <path id="SegoeUI-29" d="M 531 -1019 
L 75 -1019 
Q 1050 150 1050 1716 
Q 1050 3294 69 4481 
L 531 4481 
Q 1506 3338 1506 1709 
Q 1506 88 531 -1019 
z
" transform="scale(0.015625)"/>
     </defs>
     <use xlink:href="#SegoeUI-3d"/>
     <use xlink:href="#SegoeUI-20" x="68.408203"/>
     <use xlink:href="#SegoeUI-63" x="95.800781"/>
     <use xlink:href="#SegoeUI-61" x="141.992188"/>
     <use xlink:href="#SegoeUI-74" x="192.871094"/>
     <use xlink:href="#SegoeUI-65" x="226.007812"/>
     <use xlink:href="#SegoeUI-74" x="278.302734"/>
     <use xlink:href="#SegoeUI-6f" x="311.439453"/>
     <use xlink:href="#SegoeUI-20" x="370.033203"/>
     <use xlink:href="#SegoeUI-28" x="397.425781"/>
     <use xlink:href="#SegoeUI-6c" x="427.601562"/>
     <use xlink:href="#SegoeUI-61" x="451.820312"/>
     <use xlink:href="#SegoeUI-64" x="502.699219"/>
     <use xlink:href="#SegoeUI-6f" x="561.585938"/>
     <use xlink:href="#SegoeUI-20" x="620.179688"/>
     <use xlink:href="#SegoeUI-6d" x="647.572266"/>
     <use xlink:href="#SegoeUI-65" x="733.705078"/>
     <use xlink:href="#SegoeUI-6e" x="786"/>
     <use xlink:href="#SegoeUI-6f" x="842.591797"/>
     <use xlink:href="#SegoeUI-72" x="901.185547"/>
     <use xlink:href="#SegoeUI-29" x="935.951172"/>
    </g>
   </g>
   <g id="text_12">
    <!-- b -->
    <g style="fill: #4b5563" transform="translate(641.971027 305.343125) scale(0.13 -0.13)">
     <defs>
      <path id="SegoeUI-Bold-62" d="M 1416 372 
L 1403 372 
L 1403 0 
L 416 0 
L 416 4738 
L 1403 4738 
L 1403 2719 
L 1416 2719 
Q 1781 3278 2456 3278 
Q 3075 3278 3409 2853 
Q 3744 2428 3744 1691 
Q 3744 891 3353 406 
Q 2963 -78 2309 -78 
Q 1719 -78 1416 372 
z
M 1388 1722 
L 1388 1394 
Q 1388 1084 1566 881 
Q 1744 678 2022 678 
Q 2359 678 2545 939 
Q 2731 1200 2731 1678 
Q 2731 2075 2561 2298 
Q 2391 2522 2075 2522 
Q 1778 2522 1583 2300 
Q 1388 2078 1388 1722 
z
" transform="scale(0.015625)"/>
     </defs>
     <use xlink:href="#SegoeUI-Bold-62"/>
    </g>
   </g>
   <g id="text_13">
    <!-- = cateto (lado mayor) -->
    <g style="fill: #374151" transform="translate(672.744772 304.298594) scale(0.09 -0.09)">
     <defs>
      <path id="SegoeUI-79" d="M 3066 3200 
L 1594 -513 
Q 1200 -1506 488 -1506 
Q 288 -1506 153 -1466 
L 153 -1006 
Q 319 -1063 456 -1063 
Q 844 -1063 1038 -600 
L 1294 6 
L 44 3200 
L 613 3200 
L 1478 738 
Q 1494 691 1544 494 
L 1563 494 
Q 1578 569 1625 731 
L 2534 3200 
L 3066 3200 
z
" transform="scale(0.015625)"/>
     </defs>
     <use xlink:href="#SegoeUI-3d"/>
     <use xlink:href="#SegoeUI-20" x="68.408203"/>
     <use xlink:href="#SegoeUI-63" x="95.800781"/>
     <use xlink:href="#SegoeUI-61" x="141.992188"/>
     <use xlink:href="#SegoeUI-74" x="192.871094"/>
     <use xlink:href="#SegoeUI-65" x="226.007812"/>
     <use xlink:href="#SegoeUI-74" x="278.302734"/>
     <use xlink:href="#SegoeUI-6f" x="311.439453"/>
     <use xlink:href="#SegoeUI-20" x="370.033203"/>
     <use xlink:href="#SegoeUI-28" x="397.425781"/>
     <use xlink:href="#SegoeUI-6c" x="427.601562"/>
     <use xlink:href="#SegoeUI-61" x="451.820312"/>
     <use xlink:href="#SegoeUI-64" x="502.699219"/>
     <use xlink:href="#SegoeUI-6f" x="561.585938"/>
     <use xlink:href="#SegoeUI-20" x="620.179688"/>
     <use xlink:href="#SegoeUI-6d" x="647.572266"/>
     <use xlink:href="#SegoeUI-61" x="733.705078"/>
     <use xlink:href="#SegoeUI-79" x="784.583984"/>
     <use xlink:href="#SegoeUI-6f" x="832.472656"/>
     <use xlink:href="#SegoeUI-72" x="891.066406"/>
     <use xlink:href="#SegoeUI-29" x="925.832031"/>
    </g>
   </g>
   <g id="text_14">
    <!-- c -->
    <g style="fill: #e12885" transform="translate(641.971027 349.370873) scale(0.13 -0.13)">
     <defs>
      <path id="SegoeUI-Bold-63" d="M 2841 116 
Q 2506 -78 1875 -78 
Q 1138 -78 681 369 
Q 225 816 225 1522 
Q 225 2338 714 2808 
Q 1203 3278 2022 3278 
Q 2588 3278 2841 3128 
L 2841 2291 
Q 2531 2522 2150 2522 
Q 1725 2522 1476 2273 
Q 1228 2025 1228 1588 
Q 1228 1163 1465 920 
Q 1703 678 2119 678 
Q 2488 678 2841 909 
L 2841 116 
z
" transform="scale(0.015625)"/>
     </defs>
     <use xlink:href="#SegoeUI-Bold-63"/>
    </g>
   </g>
   <g id="text_15">
    <!-- = hipotenusa (lado opuesto al ángulo recto) -->
    <g style="fill: #374151" transform="translate(672.744772 348.391733) scale(0.09 -0.09)">
     <defs>
      <path id="SegoeUI-68" d="M 3175 0 
L 2663 0 
L 2663 1844 
Q 2663 2844 1919 2844 
Q 1544 2844 1287 2555 
Q 1031 2266 1031 1813 
L 1031 0 
L 519 0 
L 519 4738 
L 1031 4738 
L 1031 2669 
L 1044 2669 
Q 1413 3275 2094 3275 
Q 3175 3275 3175 1972 
L 3175 0 
z
" transform="scale(0.015625)"/>
      <path id="SegoeUI-69" d="M 781 4013 
Q 644 4013 547 4106 
Q 450 4200 450 4344 
Q 450 4488 547 4583 
Q 644 4678 781 4678 
Q 922 4678 1020 4583 
Q 1119 4488 1119 4344 
Q 1119 4206 1020 4109 
Q 922 4013 781 4013 
z
M 1031 0 
L 519 0 
L 519 3200 
L 1031 3200 
L 1031 0 
z
" transform="scale(0.015625)"/>
      <path id="SegoeUI-70" d="M 1044 463 
L 1031 463 
L 1031 -1472 
L 519 -1472 
L 519 3200 
L 1031 3200 
L 1031 2638 
L 1044 2638 
Q 1422 3275 2150 3275 
Q 2769 3275 3116 2845 
Q 3463 2416 3463 1694 
Q 3463 891 3072 408 
Q 2681 -75 2003 -75 
Q 1381 -75 1044 463 
z
M 1031 1753 
L 1031 1306 
Q 1031 909 1289 632 
Q 1547 356 1944 356 
Q 2409 356 2673 712 
Q 2938 1069 2938 1703 
Q 2938 2238 2691 2541 
Q 2444 2844 2022 2844 
Q 1575 2844 1303 2533 
Q 1031 2222 1031 1753 
z
" transform="scale(0.015625)"/>
      <path id="SegoeUI-75" d="M 3106 0 
L 2594 0 
L 2594 506 
L 2581 506 
Q 2263 -75 1594 -75 
Q 450 -75 450 1288 
L 450 3200 
L 959 3200 
L 959 1369 
Q 959 356 1734 356 
Q 2109 356 2351 632 
Q 2594 909 2594 1356 
L 2594 3200 
L 3106 3200 
L 3106 0 
z
" transform="scale(0.015625)"/>
      <path id="SegoeUI-73" d="M 325 116 
L 325 666 
Q 744 356 1247 356 
Q 1922 356 1922 806 
Q 1922 934 1864 1023 
Q 1806 1113 1707 1181 
Q 1609 1250 1476 1304 
Q 1344 1359 1191 1419 
Q 978 1503 817 1589 
Q 656 1675 548 1783 
Q 441 1891 386 2028 
Q 331 2166 331 2350 
Q 331 2575 434 2748 
Q 538 2922 709 3039 
Q 881 3156 1101 3215 
Q 1322 3275 1556 3275 
Q 1972 3275 2300 3131 
L 2300 2613 
Q 1947 2844 1488 2844 
Q 1344 2844 1228 2811 
Q 1113 2778 1030 2718 
Q 947 2659 901 2576 
Q 856 2494 856 2394 
Q 856 2269 901 2184 
Q 947 2100 1034 2034 
Q 1122 1969 1247 1916 
Q 1372 1863 1531 1800 
Q 1744 1719 1912 1633 
Q 2081 1547 2200 1439 
Q 2319 1331 2383 1190 
Q 2447 1050 2447 856 
Q 2447 619 2342 444 
Q 2238 269 2063 153 
Q 1888 38 1659 -18 
Q 1431 -75 1181 -75 
Q 688 -75 325 116 
z
" transform="scale(0.015625)"/>
      <path id="SegoeUI-e1" d="M 2809 0 
L 2297 0 
L 2297 500 
L 2284 500 
Q 1950 -75 1300 -75 
Q 822 -75 551 178 
Q 281 431 281 850 
Q 281 1747 1338 1894 
L 2297 2028 
Q 2297 2844 1638 2844 
Q 1059 2844 594 2450 
L 594 2975 
Q 1066 3275 1681 3275 
Q 2809 3275 2809 2081 
L 2809 0 
z
M 2297 1619 
L 1525 1513 
Q 1169 1463 987 1336 
Q 806 1209 806 888 
Q 806 653 973 504 
Q 1141 356 1419 356 
Q 1800 356 2048 623 
Q 2297 891 2297 1300 
L 2297 1619 
z
M 2366 4831 
L 1547 3806 
L 1150 3806 
L 1847 4831 
L 2366 4831 
z
" transform="scale(0.015625)"/>
      <path id="SegoeUI-67" d="M 3250 256 
Q 3250 -1506 1563 -1506 
Q 969 -1506 525 -1281 
L 525 -769 
Q 1066 -1069 1556 -1069 
Q 2738 -1069 2738 188 
L 2738 538 
L 2725 538 
Q 2359 -75 1625 -75 
Q 1028 -75 664 351 
Q 300 778 300 1497 
Q 300 2313 692 2794 
Q 1084 3275 1766 3275 
Q 2413 3275 2725 2756 
L 2738 2756 
L 2738 3200 
L 3250 3200 
L 3250 256 
z
M 2738 1447 
L 2738 1919 
Q 2738 2300 2480 2572 
Q 2222 2844 1838 2844 
Q 1363 2844 1094 2498 
Q 825 2153 825 1531 
Q 825 997 1083 676 
Q 1341 356 1766 356 
Q 2197 356 2467 662 
Q 2738 969 2738 1447 
z
" transform="scale(0.015625)"/>
     </defs>
     <use xlink:href="#SegoeUI-3d"/>
     <use xlink:href="#SegoeUI-20" x="68.408203"/>
     <use xlink:href="#SegoeUI-68" x="95.800781"/>
     <use xlink:href="#SegoeUI-69" x="152.392578"/>
     <use xlink:href="#SegoeUI-70" x="176.611328"/>
     <use xlink:href="#SegoeUI-6f" x="235.400391"/>
     <use xlink:href="#SegoeUI-74" x="293.994141"/>
     <use xlink:href="#SegoeUI-65" x="327.130859"/>
     <use xlink:href="#SegoeUI-6e" x="379.425781"/>
     <use xlink:href="#SegoeUI-75" x="436.017578"/>
     <use xlink:href="#SegoeUI-73" x="492.609375"/>
     <use xlink:href="#SegoeUI-61" x="535.041016"/>
     <use xlink:href="#SegoeUI-20" x="585.919922"/>
     <use xlink:href="#SegoeUI-28" x="613.3125"/>
     <use xlink:href="#SegoeUI-6c" x="643.488281"/>
     <use xlink:href="#SegoeUI-61" x="667.707031"/>
     <use xlink:href="#SegoeUI-64" x="718.585938"/>
     <use xlink:href="#SegoeUI-6f" x="777.472656"/>
     <use xlink:href="#SegoeUI-20" x="836.066406"/>
     <use xlink:href="#SegoeUI-6f" x="863.458984"/>
     <use xlink:href="#SegoeUI-70" x="922.052734"/>
     <use xlink:href="#SegoeUI-75" x="980.841797"/>
     <use xlink:href="#SegoeUI-65" x="1037.433594"/>
     <use xlink:href="#SegoeUI-73" x="1089.728516"/>
     <use xlink:href="#SegoeUI-74" x="1132.160156"/>
     <use xlink:href="#SegoeUI-6f" x="1165.296875"/>
     <use xlink:href="#SegoeUI-20" x="1223.890625"/>
     <use xlink:href="#SegoeUI-61" x="1251.283203"/>
     <use xlink:href="#SegoeUI-6c" x="1302.162109"/>
     <use xlink:href="#SegoeUI-20" x="1326.380859"/>
     <use xlink:href="#SegoeUI-e1" x="1353.773438"/>
     <use xlink:href="#SegoeUI-6e" x="1404.652344"/>
     <use xlink:href="#SegoeUI-67" x="1461.244141"/>
     <use xlink:href="#SegoeUI-75" x="1520.130859"/>
     <use xlink:href="#SegoeUI-6c" x="1576.722656"/>
     <use xlink:href="#SegoeUI-6f" x="1600.941406"/>
     <use xlink:href="#SegoeUI-20" x="1659.535156"/>
     <use xlink:href="#SegoeUI-72" x="1686.927734"/>
     <use xlink:href="#SegoeUI-65" x="1720.318359"/>
     <use xlink:href="#SegoeUI-63" x="1772.613281"/>
     <use xlink:href="#SegoeUI-74" x="1818.804688"/>
     <use xlink:href="#SegoeUI-6f" x="1851.941406"/>
     <use xlink:href="#SegoeUI-29" x="1910.535156"/>
    </g>
   </g>
   <g id="text_16">
    <!-- Ejemplo (terna pitagórica) -->
    <g style="fill: #374151" transform="translate(741.955061 423.102401) scale(0.1 -0.1)">
     <defs>
      <path id="SegoeUI-Bold-6a" d="M 916 3706 
Q 666 3706 506 3854 
Q 347 4003 347 4219 
Q 347 4441 506 4581 
Q 666 4722 916 4722 
Q 1169 4722 1326 4581 
Q 1484 4441 1484 4219 
Q 1484 3994 1326 3850 
Q 1169 3706 916 3706 
z
M 1403 56 
Q 1403 -653 1056 -1078 
Q 709 -1503 56 -1503 
Q -159 -1503 -416 -1409 
L -416 -634 
Q -209 -750 -50 -750 
Q 416 -750 416 -19 
L 416 3200 
L 1403 3200 
L 1403 56 
z
" transform="scale(0.015625)"/>
      <path id="SegoeUI-Bold-70" d="M 1416 372 
L 1403 372 
L 1403 -1472 
L 416 -1472 
L 416 3200 
L 1403 3200 
L 1403 2719 
L 1416 2719 
Q 1781 3278 2444 3278 
Q 3066 3278 3405 2851 
Q 3744 2425 3744 1691 
Q 3744 891 3348 406 
Q 2953 -78 2297 -78 
Q 1719 -78 1416 372 
z
M 1388 1684 
L 1388 1428 
Q 1388 1097 1563 887 
Q 1738 678 2022 678 
Q 2359 678 2545 939 
Q 2731 1200 2731 1678 
Q 2731 2522 2075 2522 
Q 1772 2522 1580 2292 
Q 1388 2063 1388 1684 
z
" transform="scale(0.015625)"/>
      <path id="SegoeUI-Bold-28" d="M 2309 -1019 
L 1503 -1019 
Q 494 94 494 1716 
Q 494 3281 1503 4481 
L 2303 4481 
Q 1356 3225 1356 1716 
Q 1356 206 2309 -1019 
z
" transform="scale(0.015625)"/>
      <path id="SegoeUI-Bold-72" d="M 2503 2309 
Q 2325 2406 2088 2406 
Q 1766 2406 1584 2170 
Q 1403 1934 1403 1528 
L 1403 0 
L 416 0 
L 416 3200 
L 1403 3200 
L 1403 2606 
L 1416 2606 
Q 1650 3256 2259 3256 
Q 2416 3256 2503 3219 
L 2503 2309 
z
" transform="scale(0.015625)"/>
      <path id="SegoeUI-Bold-69" d="M 916 3706 
Q 666 3706 506 3854 
Q 347 4003 347 4219 
Q 347 4441 506 4581 
Q 666 4722 916 4722 
Q 1169 4722 1326 4581 
Q 1484 4441 1484 4219 
Q 1484 3994 1326 3850 
Q 1169 3706 916 3706 
z
M 1403 0 
L 416 0 
L 416 3200 
L 1403 3200 
L 1403 0 
z
" transform="scale(0.015625)"/>
      <path id="SegoeUI-Bold-67" d="M 3553 366 
Q 3553 -525 3037 -1014 
Q 2522 -1503 1544 -1503 
Q 897 -1503 519 -1319 
L 519 -488 
Q 1013 -775 1516 -775 
Q 2016 -775 2291 -511 
Q 2566 -247 2566 206 
L 2566 459 
L 2553 459 
Q 2216 -78 1556 -78 
Q 944 -78 584 353 
Q 225 784 225 1509 
Q 225 2322 625 2800 
Q 1025 3278 1678 3278 
Q 2263 3278 2553 2828 
L 2566 2828 
L 2566 3200 
L 3553 3200 
L 3553 366 
z
M 2578 1538 
L 2578 1791 
Q 2578 2094 2398 2308 
Q 2219 2522 1931 2522 
Q 1603 2522 1415 2265 
Q 1228 2009 1228 1544 
Q 1228 1144 1406 911 
Q 1584 678 1894 678 
Q 2200 678 2389 914 
Q 2578 1150 2578 1538 
z
" transform="scale(0.015625)"/>
      <path id="SegoeUI-Bold-f3" d="M 1941 -78 
Q 1141 -78 683 370 
Q 225 819 225 1588 
Q 225 2381 700 2829 
Q 1175 3278 1984 3278 
Q 2781 3278 3234 2829 
Q 3688 2381 3688 1644 
Q 3688 847 3220 384 
Q 2753 -78 1941 -78 
z
M 1966 2522 
Q 1616 2522 1422 2281 
Q 1228 2041 1228 1600 
Q 1228 678 1972 678 
Q 2681 678 2681 1625 
Q 2681 2522 1966 2522 
z
M 3023 4716 
L 2044 3706 
L 1332 3706 
L 2144 4716 
L 3023 4716 
z
" transform="scale(0.015625)"/>
      <path id="SegoeUI-Bold-29" d="M 856 -1019 
L 56 -1019 
Q 1013 200 1013 1716 
Q 1013 3219 56 4481 
L 863 4481 
Q 1875 3278 1875 1716 
Q 1875 106 856 -1019 
z
" transform="scale(0.015625)"/>
     </defs>
     <use xlink:href="#SegoeUI-Bold-45"/>
     <use xlink:href="#SegoeUI-Bold-6a" x="53.222656"/>
     <use xlink:href="#SegoeUI-Bold-65" x="81.640625"/>
     <use xlink:href="#SegoeUI-Bold-6d" x="135.742188"/>
     <use xlink:href="#SegoeUI-Bold-70" x="227.34375"/>
     <use xlink:href="#SegoeUI-Bold-6c" x="289.355469"/>
     <use xlink:href="#SegoeUI-Bold-6f" x="317.773438"/>
     <use xlink:href="#SegoeUI-Bold-20" x="378.90625"/>
     <use xlink:href="#SegoeUI-Bold-28" x="406.494141"/>
     <use xlink:href="#SegoeUI-Bold-74" x="443.408203"/>
     <use xlink:href="#SegoeUI-Bold-65" x="481.949219"/>
     <use xlink:href="#SegoeUI-Bold-72" x="536.050781"/>
     <use xlink:href="#SegoeUI-Bold-6e" x="576.095703"/>
     <use xlink:href="#SegoeUI-Bold-61" x="636.59375"/>
     <use xlink:href="#SegoeUI-Bold-20" x="690.402344"/>
     <use xlink:href="#SegoeUI-Bold-70" x="717.990234"/>
     <use xlink:href="#SegoeUI-Bold-69" x="780.001953"/>
     <use xlink:href="#SegoeUI-Bold-74" x="808.419922"/>
     <use xlink:href="#SegoeUI-Bold-61" x="847.335938"/>
     <use xlink:href="#SegoeUI-Bold-67" x="901.144531"/>
     <use xlink:href="#SegoeUI-Bold-f3" x="963.058594"/>
     <use xlink:href="#SegoeUI-Bold-72" x="1024.142578"/>
     <use xlink:href="#SegoeUI-Bold-69" x="1064.3125"/>
     <use xlink:href="#SegoeUI-Bold-63" x="1092.730469"/>
     <use xlink:href="#SegoeUI-Bold-61" x="1140.728516"/>
     <use xlink:href="#SegoeUI-Bold-29" x="1194.537109"/>
    </g>
   </g>
   <g id="text_17">
    <!-- $3^2 + 4^2 = 5^2$  →  $9 + 16 = 25$ ✓ -->
    <g style="fill: #e12885" transform="translate(718.453186 481.198962) scale(0.12 -0.12)">
     <defs>
      <path id="DejaVuSans-33" d="M 2597 2516 
Q 3050 2419 3304 2112 
Q 3559 1806 3559 1356 
Q 3559 666 3084 287 
Q 2609 -91 1734 -91 
Q 1441 -91 1130 -33 
Q 819 25 488 141 
L 488 750 
Q 750 597 1062 519 
Q 1375 441 1716 441 
Q 2309 441 2620 675 
Q 2931 909 2931 1356 
Q 2931 1769 2642 2001 
Q 2353 2234 1838 2234 
L 1294 2234 
L 1294 2753 
L 1863 2753 
Q 2328 2753 2575 2939 
Q 2822 3125 2822 3475 
Q 2822 3834 2567 4026 
Q 2313 4219 1838 4219 
Q 1578 4219 1281 4162 
Q 984 4106 628 3988 
L 628 4550 
Q 988 4650 1302 4700 
Q 1616 4750 1894 4750 
Q 2613 4750 3031 4423 
Q 3450 4097 3450 3541 
Q 3450 3153 3228 2886 
Q 3006 2619 2597 2516 
z
" transform="scale(0.015625)"/>
      <path id="DejaVuSans-34" d="M 2419 4116 
L 825 1625 
L 2419 1625 
L 2419 4116 
z
M 2253 4666 
L 3047 4666 
L 3047 1625 
L 3713 1625 
L 3713 1100 
L 3047 1100 
L 3047 0 
L 2419 0 
L 2419 1100 
L 313 1100 
L 313 1709 
L 2253 4666 
z
" transform="scale(0.015625)"/>
      <path id="DejaVuSans-35" d="M 691 4666 
L 3169 4666 
L 3169 4134 
L 1269 4134 
L 1269 2991 
Q 1406 3038 1543 3061 
Q 1681 3084 1819 3084 
Q 2600 3084 3056 2656 
Q 3513 2228 3513 1497 
Q 3513 744 3044 326 
Q 2575 -91 1722 -91 
Q 1428 -91 1123 -41 
Q 819 9 494 109 
L 494 744 
Q 775 591 1075 516 
Q 1375 441 1709 441 
Q 2250 441 2565 725 
Q 2881 1009 2881 1497 
Q 2881 1984 2565 2268 
Q 2250 2553 1709 2553 
Q 1456 2553 1204 2497 
Q 953 2441 691 2322 
L 691 4666 
z
" transform="scale(0.015625)"/>
      <path id="SegoeUI-2192" d="M 722 2075 
L 4441 2075 
L 4056 2450 
L 4056 2913 
L 5056 1875 
L 5056 1863 
L 4056 825 
L 4056 1288 
L 4434 1656 
L 722 1656 
L 722 2075 
z
" transform="scale(0.015625)"/>
      <path id="DejaVuSans-39" d="M 703 97 
L 703 672 
Q 941 559 1184 500 
Q 1428 441 1663 441 
Q 2288 441 2617 861 
Q 2947 1281 2994 2138 
Q 2813 1869 2534 1725 
Q 2256 1581 1919 1581 
Q 1219 1581 811 2004 
Q 403 2428 403 3163 
Q 403 3881 828 4315 
Q 1253 4750 1959 4750 
Q 2769 4750 3195 4129 
Q 3622 3509 3622 2328 
Q 3622 1225 3098 567 
Q 2575 -91 1691 -91 
Q 1453 -91 1209 -44 
Q 966 3 703 97 
z
M 1959 2075 
Q 2384 2075 2632 2365 
Q 2881 2656 2881 3163 
Q 2881 3666 2632 3958 
Q 2384 4250 1959 4250 
Q 1534 4250 1286 3958 
Q 1038 3666 1038 3163 
Q 1038 2656 1286 2365 
Q 1534 2075 1959 2075 
z
" transform="scale(0.015625)"/>
      <path id="DejaVuSans-31" d="M 794 531 
L 1825 531 
L 1825 4091 
L 703 3866 
L 703 4441 
L 1819 4666 
L 2450 4666 
L 2450 531 
L 3481 531 
L 3481 0 
L 794 0 
L 794 531 
z
" transform="scale(0.015625)"/>
      <path id="DejaVuSans-36" d="M 2113 2584 
Q 1688 2584 1439 2293 
Q 1191 2003 1191 1497 
Q 1191 994 1439 701 
Q 1688 409 2113 409 
Q 2538 409 2786 701 
Q 3034 994 3034 1497 
Q 3034 2003 2786 2293 
Q 2538 2584 2113 2584 
z
M 3366 4563 
L 3366 3988 
Q 3128 4100 2886 4159 
Q 2644 4219 2406 4219 
Q 1781 4219 1451 3797 
Q 1122 3375 1075 2522 
Q 1259 2794 1537 2939 
Q 1816 3084 2150 3084 
Q 2853 3084 3261 2657 
Q 3669 2231 3669 1497 
Q 3669 778 3244 343 
Q 2819 -91 2113 -91 
Q 1303 -91 875 529 
Q 447 1150 447 2328 
Q 447 3434 972 4092 
Q 1497 4750 2381 4750 
Q 2619 4750 2861 4703 
Q 3103 4656 3366 4563 
z
" transform="scale(0.015625)"/>
      <path id="STIXGeneral-Regular-a4" d="M 3341 256 
L 3034 -64 
L 2406 563 
Q 2029 301 1606 301 
Q 1171 301 794 563 
L 179 -64 
L -141 256 
L 486 870 
Q 224 1248 224 1677 
Q 224 2118 486 2483 
L -141 3110 
L 179 3418 
L 794 2803 
Q 1184 3053 1606 3053 
Q 2048 3053 2406 2803 
L 3034 3418 
L 3341 3110 
L 2726 2483 
Q 2976 2112 2976 1683 
Q 2976 1261 2726 870 
L 3341 256 
z
M 2541 1690 
Q 2541 2086 2265 2364 
Q 1990 2643 1594 2643 
Q 1210 2643 934 2361 
Q 659 2080 659 1683 
Q 659 1280 937 995 
Q 1216 710 1606 710 
Q 2003 710 2272 995 
Q 2541 1280 2541 1690 
z
" transform="scale(0.015625)"/>
     </defs>
     <use xlink:href="#DejaVuSans-33" transform="translate(0 0.765625)"/>
     <use xlink:href="#DejaVuSans-32" transform="translate(64.580078 39.046875) scale(0.7)"/>
     <use xlink:href="#DejaVuSans-2b" transform="translate(131.333008 0.765625)"/>
     <use xlink:href="#DejaVuSans-34" transform="translate(234.604492 0.765625)"/>
     <use xlink:href="#DejaVuSans-32" transform="translate(299.18457 39.046875) scale(0.7)"/>
     <use xlink:href="#DejaVuSans-3d" transform="translate(365.9375 0.765625)"/>
     <use xlink:href="#DejaVuSans-35" transform="translate(469.208984 0.765625)"/>
     <use xlink:href="#DejaVuSans-32" transform="translate(533.789062 39.046875) scale(0.7)"/>
     <use xlink:href="#SegoeUI-20" transform="translate(581.05957 0.765625)"/>
     <use xlink:href="#SegoeUI-20" transform="translate(608.452148 0.765625)"/>
     <use xlink:href="#SegoeUI-2192" transform="translate(635.844727 0.765625)"/>
     <use xlink:href="#SegoeUI-20" transform="translate(722.124023 0.765625)"/>
     <use xlink:href="#SegoeUI-20" transform="translate(749.516602 0.765625)"/>
     <use xlink:href="#DejaVuSans-39" transform="translate(776.90918 0.765625)"/>
     <use xlink:href="#DejaVuSans-2b" transform="translate(860.014648 0.765625)"/>
     <use xlink:href="#DejaVuSans-31" transform="translate(963.286133 0.765625)"/>
     <use xlink:href="#DejaVuSans-36" transform="translate(1026.90918 0.765625)"/>
     <use xlink:href="#DejaVuSans-3d" transform="translate(1110.014648 0.765625)"/>
     <use xlink:href="#DejaVuSans-32" transform="translate(1213.286133 0.765625)"/>
     <use xlink:href="#DejaVuSans-35" transform="translate(1276.90918 0.765625)"/>
     <use xlink:href="#SegoeUI-20" transform="translate(1340.532227 0.765625)"/>
     <use xlink:href="#STIXGeneral-Regular-a4" transform="translate(1367.924805 0.765625)"/>
    </g>
   </g>
   <g id="text_18">
    <!-- Otras ternas: (5,12,13), (8,15,17), (7,24,25) -->
    <g style="fill: #6b7280" transform="translate(731.530686 557.221271) scale(0.08 -0.08)">
     <defs>
      <path id="SegoeUI-Italic-4f" d="M 4647 2663 
Q 4647 2372 4594 2086 
Q 4541 1800 4441 1534 
Q 4341 1269 4195 1031 
Q 4050 794 3866 603 
Q 3716 447 3541 320 
Q 3366 194 3166 105 
Q 2966 16 2737 -31 
Q 2509 -78 2247 -78 
Q 1825 -78 1487 67 
Q 1150 213 914 467 
Q 678 722 553 1072 
Q 428 1422 428 1831 
Q 428 2481 639 2997 
Q 850 3513 1228 3891 
Q 1534 4197 1936 4376 
Q 2338 4556 2847 4556 
Q 3259 4556 3592 4415 
Q 3925 4275 4159 4022 
Q 4394 3769 4520 3422 
Q 4647 3075 4647 2663 
z
M 4091 2644 
Q 4091 2978 4000 3243 
Q 3909 3509 3740 3696 
Q 3572 3884 3334 3984 
Q 3097 4084 2803 4084 
Q 2456 4084 2140 3934 
Q 1825 3784 1581 3519 
Q 1444 3369 1333 3175 
Q 1222 2981 1142 2762 
Q 1063 2544 1020 2306 
Q 978 2069 978 1825 
Q 978 1513 1064 1250 
Q 1150 988 1314 798 
Q 1478 609 1718 503 
Q 1959 397 2272 397 
Q 2619 397 2936 536 
Q 3253 675 3494 947 
Q 3644 1116 3755 1323 
Q 3866 1531 3941 1754 
Q 4016 1978 4053 2206 
Q 4091 2434 4091 2644 
z
" transform="scale(0.015625)"/>
      <path id="SegoeUI-Italic-74" d="M 2156 2766 
L 1350 2766 
L 991 1069 
Q 972 972 953 859 
Q 934 747 934 678 
Q 934 519 1004 448 
Q 1075 378 1228 378 
Q 1266 378 1325 390 
Q 1384 403 1446 422 
Q 1509 441 1570 464 
Q 1631 488 1678 506 
L 1581 56 
Q 1472 9 1333 -23 
Q 1194 -56 1069 -56 
Q 891 -56 766 -11 
Q 641 34 561 118 
Q 481 203 445 323 
Q 409 444 409 594 
Q 409 684 426 804 
Q 444 925 469 1025 
L 838 2766 
L 306 2766 
L 403 3200 
L 928 3200 
L 1094 3981 
Q 1106 3988 1189 4011 
Q 1272 4034 1370 4064 
Q 1469 4094 1551 4119 
Q 1634 4144 1644 4147 
L 1447 3200 
L 2253 3200 
L 2156 2766 
z
" transform="scale(0.015625)"/>
      <path id="SegoeUI-Italic-72" d="M 2394 2656 
L 2381 2656 
Q 2319 2694 2217 2730 
Q 2116 2766 2016 2766 
Q 1834 2766 1668 2648 
Q 1503 2531 1367 2339 
Q 1231 2147 1129 1900 
Q 1028 1653 972 1394 
L 672 0 
L 159 0 
L 609 2125 
Q 638 2256 666 2400 
Q 694 2544 717 2687 
Q 741 2831 759 2962 
Q 778 3094 788 3200 
L 1294 3200 
Q 1284 3106 1271 3001 
Q 1259 2897 1246 2798 
Q 1234 2700 1221 2620 
Q 1209 2541 1203 2497 
L 1216 2497 
Q 1316 2675 1419 2819 
Q 1522 2963 1636 3064 
Q 1750 3166 1878 3222 
Q 2006 3278 2156 3278 
Q 2244 3278 2330 3261 
Q 2416 3244 2484 3225 
L 2394 2656 
z
" transform="scale(0.015625)"/>
      <path id="SegoeUI-Italic-61" d="M 2828 1025 
Q 2803 906 2779 757 
Q 2756 609 2739 464 
Q 2722 319 2711 194 
Q 2700 69 2700 0 
L 2169 0 
Q 2172 63 2178 150 
Q 2184 238 2195 331 
Q 2206 425 2217 515 
Q 2228 606 2241 672 
L 2228 672 
Q 2131 519 2031 383 
Q 1931 247 1809 144 
Q 1688 41 1538 -18 
Q 1388 -78 1184 -78 
Q 975 -78 801 -3 
Q 628 72 503 220 
Q 378 369 311 592 
Q 244 816 244 1113 
Q 244 1294 281 1525 
Q 319 1756 408 1997 
Q 497 2238 645 2467 
Q 794 2697 1014 2878 
Q 1234 3059 1534 3168 
Q 1834 3278 2228 3278 
Q 2478 3278 2743 3240 
Q 3009 3203 3272 3150 
L 2828 1025 
z
M 2681 2778 
Q 2572 2803 2425 2822 
Q 2278 2841 2150 2841 
Q 1878 2841 1670 2755 
Q 1463 2669 1309 2530 
Q 1156 2391 1051 2209 
Q 947 2028 884 1839 
Q 822 1650 795 1465 
Q 769 1281 769 1131 
Q 769 953 800 811 
Q 831 669 898 569 
Q 966 469 1070 414 
Q 1175 359 1319 359 
Q 1475 359 1611 423 
Q 1747 488 1865 597 
Q 1984 706 2081 850 
Q 2178 994 2256 1155 
Q 2334 1316 2389 1483 
Q 2444 1650 2478 1806 
L 2681 2778 
z
" transform="scale(0.015625)"/>
      <path id="SegoeUI-Italic-73" d="M 2266 2638 
Q 2125 2728 1950 2784 
Q 1775 2841 1600 2841 
Q 1306 2841 1145 2706 
Q 984 2572 984 2350 
Q 984 2259 1014 2184 
Q 1044 2109 1101 2042 
Q 1159 1975 1248 1912 
Q 1338 1850 1453 1778 
Q 1803 1575 1958 1361 
Q 2113 1147 2113 878 
Q 2113 697 2045 523 
Q 1978 350 1831 217 
Q 1684 84 1451 3 
Q 1219 -78 884 -78 
Q 791 -78 678 -65 
Q 566 -53 452 -28 
Q 338 -3 233 33 
Q 128 69 50 116 
L 153 603 
Q 216 559 308 515 
Q 400 472 508 437 
Q 616 403 733 381 
Q 850 359 966 359 
Q 1278 359 1433 484 
Q 1588 609 1588 831 
Q 1588 913 1564 981 
Q 1541 1050 1481 1119 
Q 1422 1188 1325 1258 
Q 1228 1328 1081 1416 
Q 763 1609 611 1820 
Q 459 2031 459 2297 
Q 459 2491 531 2667 
Q 603 2844 745 2980 
Q 888 3116 1103 3197 
Q 1319 3278 1606 3278 
Q 1831 3278 2032 3234 
Q 2234 3191 2375 3122 
L 2266 2638 
z
" transform="scale(0.015625)"/>
      <path id="SegoeUI-Italic-20" transform="scale(0.015625)"/>
      <path id="SegoeUI-Italic-65" d="M 2994 2450 
Q 2994 2197 2881 1989 
Q 2769 1781 2509 1632 
Q 2250 1484 1825 1403 
Q 1400 1322 775 1319 
Q 769 1284 769 1247 
Q 769 1213 769 1184 
Q 769 1016 816 866 
Q 863 716 961 603 
Q 1059 491 1214 425 
Q 1369 359 1581 359 
Q 1797 359 2055 442 
Q 2313 525 2547 678 
L 2450 172 
Q 2278 72 2040 -3 
Q 1803 -78 1509 -78 
Q 1156 -78 914 31 
Q 672 141 523 323 
Q 375 506 309 745 
Q 244 984 244 1247 
Q 244 1528 306 1789 
Q 369 2050 483 2275 
Q 597 2500 756 2686 
Q 916 2872 1109 3003 
Q 1303 3134 1525 3206 
Q 1747 3278 1984 3278 
Q 2231 3278 2420 3212 
Q 2609 3147 2736 3033 
Q 2863 2919 2928 2769 
Q 2994 2619 2994 2450 
z
M 2472 2425 
Q 2472 2622 2326 2731 
Q 2181 2841 1941 2841 
Q 1750 2841 1572 2758 
Q 1394 2675 1244 2529 
Q 1094 2384 984 2182 
Q 875 1981 825 1747 
Q 1272 1747 1584 1792 
Q 1897 1838 2094 1925 
Q 2291 2013 2381 2139 
Q 2472 2266 2472 2425 
z
" transform="scale(0.015625)"/>
      <path id="SegoeUI-Italic-6e" d="M 3269 2400 
Q 3269 2353 3258 2272 
Q 3247 2191 3230 2097 
Q 3213 2003 3195 1911 
Q 3178 1819 3163 1753 
L 2791 0 
L 2272 0 
L 2663 1875 
Q 2675 1925 2687 1990 
Q 2700 2056 2709 2122 
Q 2719 2188 2725 2242 
Q 2731 2297 2731 2328 
Q 2731 2566 2617 2703 
Q 2503 2841 2278 2841 
Q 2072 2841 1869 2719 
Q 1666 2597 1494 2409 
Q 1322 2222 1198 1997 
Q 1075 1772 1031 1563 
L 697 0 
L 178 0 
L 672 2284 
Q 697 2406 722 2539 
Q 747 2672 769 2795 
Q 791 2919 806 3025 
Q 822 3131 831 3200 
L 1331 3200 
Q 1316 3078 1294 2945 
Q 1272 2813 1256 2700 
Q 1238 2569 1216 2444 
L 1228 2444 
Q 1338 2616 1470 2767 
Q 1603 2919 1758 3033 
Q 1913 3147 2086 3212 
Q 2259 3278 2450 3278 
Q 2663 3278 2816 3214 
Q 2969 3150 3070 3034 
Q 3172 2919 3220 2756 
Q 3269 2594 3269 2400 
z
" transform="scale(0.015625)"/>
      <path id="SegoeUI-Italic-3a" d="M 1319 2925 
Q 1319 2853 1291 2789 
Q 1263 2725 1216 2678 
Q 1169 2631 1106 2604 
Q 1044 2578 972 2578 
Q 900 2578 837 2604 
Q 775 2631 728 2678 
Q 681 2725 654 2789 
Q 628 2853 628 2925 
Q 628 2994 654 3056 
Q 681 3119 728 3167 
Q 775 3216 837 3244 
Q 900 3272 972 3272 
Q 1044 3272 1108 3244 
Q 1172 3216 1219 3167 
Q 1266 3119 1292 3056 
Q 1319 2994 1319 2925 
z
M 763 275 
Q 763 203 736 140 
Q 709 78 662 31 
Q 616 -16 552 -44 
Q 488 -72 416 -72 
Q 344 -72 281 -44 
Q 219 -16 172 31 
Q 125 78 98 140 
Q 72 203 72 275 
Q 72 347 98 411 
Q 125 475 172 522 
Q 219 569 281 595 
Q 344 622 416 622 
Q 488 622 552 595 
Q 616 569 662 522 
Q 709 475 736 411 
Q 763 347 763 275 
z
" transform="scale(0.015625)"/>
      <path id="SegoeUI-Italic-28" d="M 2541 4481 
Q 2153 4100 1842 3694 
Q 1531 3288 1312 2853 
Q 1094 2419 975 1951 
Q 856 1484 856 978 
Q 856 728 889 473 
Q 922 219 987 -26 
Q 1053 -272 1147 -503 
Q 1241 -734 1363 -934 
L 922 -934 
Q 791 -728 692 -495 
Q 594 -263 528 -19 
Q 463 225 430 472 
Q 397 719 397 953 
Q 397 1494 512 1973 
Q 628 2453 840 2887 
Q 1053 3322 1358 3717 
Q 1663 4113 2041 4481 
L 2541 4481 
z
" transform="scale(0.015625)"/>
      <path id="SegoeUI-Italic-35" d="M 3291 4013 
L 1606 4013 
L 1331 2706 
L 1663 2719 
Q 2288 2719 2638 2411 
Q 2988 2103 2988 1544 
Q 2988 1072 2759 690 
Q 2531 309 2126 115 
Q 1722 -78 1184 -78 
Q 909 -78 629 -31 
Q 350 16 191 91 
L 306 594 
Q 463 491 719 425 
Q 975 359 1222 359 
Q 1616 359 1891 501 
Q 2166 644 2314 892 
Q 2463 1141 2463 1453 
Q 2463 1856 2238 2064 
Q 2013 2272 1522 2272 
Q 1088 2272 744 2241 
L 1216 4481 
L 3384 4481 
L 3291 4013 
z
" transform="scale(0.015625)"/>
      <path id="SegoeUI-Italic-2c" d="M 159 -825 
L -244 -825 
L 384 709 
L 897 709 
L 159 -825 
z
" transform="scale(0.015625)"/>
      <path id="SegoeUI-Italic-31" d="M 1438 0 
L 2272 3903 
L 1166 3603 
L 1275 4097 
L 2919 4556 
L 1956 0 
L 1438 0 
z
" transform="scale(0.015625)"/>
      <path id="SegoeUI-Italic-32" d="M 2828 3488 
Q 2828 3788 2648 3955 
Q 2469 4122 2150 4122 
Q 1847 4122 1540 3994 
Q 1234 3866 969 3622 
L 1097 4197 
Q 1366 4400 1639 4478 
Q 1913 4556 2275 4556 
Q 2775 4556 3072 4292 
Q 3369 4028 3369 3581 
Q 3369 3200 3239 2911 
Q 3109 2622 2825 2353 
Q 2541 2084 1994 1741 
Q 1497 1431 1239 1231 
Q 981 1031 856 862 
Q 731 694 678 459 
L 2891 459 
L 2794 0 
L 28 0 
L 75 222 
Q 156 600 317 872 
Q 478 1144 768 1400 
Q 1059 1656 1666 2044 
Q 2106 2322 2354 2544 
Q 2603 2766 2715 2978 
Q 2828 3191 2828 3488 
z
" transform="scale(0.015625)"/>
      <path id="SegoeUI-Italic-33" d="M 3284 3553 
Q 3284 3328 3215 3126 
Q 3147 2925 3000 2762 
Q 2853 2600 2625 2483 
Q 2397 2366 2081 2309 
L 2081 2297 
Q 2269 2269 2425 2184 
Q 2581 2100 2692 1972 
Q 2803 1844 2864 1678 
Q 2925 1513 2925 1319 
Q 2925 1034 2822 781 
Q 2719 528 2508 337 
Q 2297 147 1980 34 
Q 1663 -78 1234 -78 
Q 1063 -78 897 -54 
Q 731 -31 586 5 
Q 441 41 319 86 
Q 197 131 109 178 
L 219 666 
Q 303 609 420 553 
Q 538 497 673 455 
Q 809 413 957 386 
Q 1106 359 1253 359 
Q 1581 359 1803 439 
Q 2025 519 2159 648 
Q 2294 778 2350 945 
Q 2406 1113 2406 1288 
Q 2406 1659 2131 1876 
Q 1856 2094 1300 2094 
L 959 2094 
L 1056 2534 
L 1428 2534 
Q 1753 2534 2001 2600 
Q 2250 2666 2419 2786 
Q 2588 2906 2673 3078 
Q 2759 3250 2759 3463 
Q 2759 3597 2715 3717 
Q 2672 3838 2580 3927 
Q 2488 4016 2348 4069 
Q 2209 4122 2016 4122 
Q 1856 4122 1711 4098 
Q 1566 4075 1437 4037 
Q 1309 4000 1200 3953 
Q 1091 3906 1006 3859 
L 1113 4372 
Q 1194 4403 1294 4436 
Q 1394 4469 1516 4495 
Q 1638 4522 1784 4539 
Q 1931 4556 2106 4556 
Q 2422 4556 2644 4468 
Q 2866 4381 3009 4239 
Q 3153 4097 3218 3917 
Q 3284 3738 3284 3553 
z
" transform="scale(0.015625)"/>
      <path id="SegoeUI-Italic-29" d="M 1575 2591 
Q 1575 2053 1459 1572 
Q 1344 1091 1130 658 
Q 916 225 611 -170 
Q 306 -566 -72 -934 
L -575 -934 
Q -188 -553 125 -148 
Q 438 256 656 690 
Q 875 1125 994 1592 
Q 1113 2059 1113 2566 
Q 1113 2816 1080 3069 
Q 1047 3322 983 3569 
Q 919 3816 825 4047 
Q 731 4278 609 4481 
L 1044 4481 
Q 1175 4272 1275 4037 
Q 1375 3803 1440 3559 
Q 1506 3316 1540 3070 
Q 1575 2825 1575 2591 
z
" transform="scale(0.015625)"/>
      <path id="SegoeUI-Italic-38" d="M 203 1078 
Q 203 1559 518 1936 
Q 834 2313 1344 2431 
Q 1134 2566 1000 2787 
Q 866 3009 866 3303 
Q 866 3653 1050 3943 
Q 1234 4234 1567 4395 
Q 1900 4556 2328 4556 
Q 2825 4556 3128 4287 
Q 3431 4019 3431 3578 
Q 3431 3175 3209 2876 
Q 2988 2578 2569 2431 
Q 2841 2316 3003 2050 
Q 3166 1784 3166 1453 
Q 3166 1034 2947 681 
Q 2728 328 2343 128 
Q 1959 -72 1506 -72 
Q 888 -72 545 220 
Q 203 513 203 1078 
z
M 772 1097 
Q 772 769 972 575 
Q 1172 381 1553 381 
Q 1831 381 2079 522 
Q 2328 663 2476 916 
Q 2625 1169 2625 1466 
Q 2625 1794 2423 1998 
Q 2222 2203 1894 2203 
Q 1600 2203 1337 2054 
Q 1075 1906 923 1651 
Q 772 1397 772 1097 
z
M 1384 3238 
Q 1384 2966 1557 2794 
Q 1731 2622 2009 2622 
Q 2222 2622 2433 2739 
Q 2644 2856 2773 3061 
Q 2903 3266 2903 3513 
Q 2903 3784 2731 3954 
Q 2559 4125 2266 4125 
Q 1897 4125 1640 3869 
Q 1384 3613 1384 3238 
z
" transform="scale(0.015625)"/>
      <path id="SegoeUI-Italic-37" d="M 1222 0 
L 641 0 
Q 934 834 1586 1906 
Q 2238 2978 3063 4019 
L 847 4019 
L 947 4481 
L 3797 4481 
L 3734 4184 
Q 2772 2959 2133 1889 
Q 1494 819 1222 0 
z
" transform="scale(0.015625)"/>
      <path id="SegoeUI-Italic-34" d="M 3294 4481 
L 2666 1522 
L 3253 1522 
L 3153 1053 
L 2566 1053 
L 2341 0 
L 1834 0 
L 2059 1053 
L -44 1053 
L 50 1497 
Q 728 2113 1440 2906 
Q 2153 3700 2728 4481 
L 3294 4481 
z
M 2159 1522 
L 2616 3669 
Q 1788 2622 659 1522 
L 2159 1522 
z
" transform="scale(0.015625)"/>
     </defs>
     <use xlink:href="#SegoeUI-Italic-4f"/>
     <use xlink:href="#SegoeUI-Italic-74" x="75.390625"/>
     <use xlink:href="#SegoeUI-Italic-72" x="107.714844"/>
     <use xlink:href="#SegoeUI-Italic-61" x="142.587891"/>
     <use xlink:href="#SegoeUI-Italic-73" x="196.787109"/>
     <use xlink:href="#SegoeUI-Italic-20" x="236.289062"/>
     <use xlink:href="#SegoeUI-Italic-74" x="263.779297"/>
     <use xlink:href="#SegoeUI-Italic-65" x="296.228516"/>
     <use xlink:href="#SegoeUI-Italic-72" x="344.910156"/>
     <use xlink:href="#SegoeUI-Italic-6e" x="380.533203"/>
     <use xlink:href="#SegoeUI-Italic-61" x="436.734375"/>
     <use xlink:href="#SegoeUI-Italic-73" x="490.933594"/>
     <use xlink:href="#SegoeUI-Italic-3a" x="530.435547"/>
     <use xlink:href="#SegoeUI-Italic-20" x="552.212891"/>
     <use xlink:href="#SegoeUI-Italic-28" x="579.703125"/>
     <use xlink:href="#SegoeUI-Italic-35" x="610.123047"/>
     <use xlink:href="#SegoeUI-Italic-2c" x="664.029297"/>
     <use xlink:href="#SegoeUI-Italic-31" x="685.806641"/>
     <use xlink:href="#SegoeUI-Italic-32" x="739.712891"/>
     <use xlink:href="#SegoeUI-Italic-2c" x="793.619141"/>
     <use xlink:href="#SegoeUI-Italic-31" x="815.396484"/>
     <use xlink:href="#SegoeUI-Italic-33" x="869.302734"/>
     <use xlink:href="#SegoeUI-Italic-29" x="923.208984"/>
     <use xlink:href="#SegoeUI-Italic-2c" x="953.628906"/>
     <use xlink:href="#SegoeUI-Italic-20" x="975.40625"/>
     <use xlink:href="#SegoeUI-Italic-28" x="1002.896484"/>
     <use xlink:href="#SegoeUI-Italic-38" x="1033.316406"/>
     <use xlink:href="#SegoeUI-Italic-2c" x="1087.222656"/>
     <use xlink:href="#SegoeUI-Italic-31" x="1109"/>
     <use xlink:href="#SegoeUI-Italic-35" x="1162.90625"/>
     <use xlink:href="#SegoeUI-Italic-2c" x="1216.8125"/>
     <use xlink:href="#SegoeUI-Italic-31" x="1238.589844"/>
     <use xlink:href="#SegoeUI-Italic-37" x="1292.496094"/>
     <use xlink:href="#SegoeUI-Italic-29" x="1346.402344"/>
     <use xlink:href="#SegoeUI-Italic-2c" x="1376.822266"/>
     <use xlink:href="#SegoeUI-Italic-20" x="1398.599609"/>
     <use xlink:href="#SegoeUI-Italic-28" x="1426.089844"/>
     <use xlink:href="#SegoeUI-Italic-37" x="1456.509766"/>
     <use xlink:href="#SegoeUI-Italic-2c" x="1510.416016"/>
     <use xlink:href="#SegoeUI-Italic-32" x="1532.193359"/>
     <use xlink:href="#SegoeUI-Italic-34" x="1586.099609"/>
     <use xlink:href="#SegoeUI-Italic-2c" x="1640.005859"/>
     <use xlink:href="#SegoeUI-Italic-32" x="1661.783203"/>
     <use xlink:href="#SegoeUI-Italic-35" x="1715.689453"/>
     <use xlink:href="#SegoeUI-Italic-29" x="1769.595703"/>
    </g>
   </g>
  </g>
  <g id="text_19">
   <!-- Teorema de Pitágoras — Demostración Visual -->
   <g style="fill: #2c2f33" transform="translate(345.207143 17.564375) scale(0.14 -0.14)">
    <defs>
     <path id="SegoeUI-Bold-64" d="M 3547 0 
L 2559 0 
L 2559 441 
L 2547 441 
Q 2209 -78 1556 -78 
Q 956 -78 590 345 
Q 225 769 225 1528 
Q 225 2322 628 2800 
Q 1031 3278 1684 3278 
Q 2303 3278 2547 2834 
L 2559 2834 
L 2559 4738 
L 3547 4738 
L 3547 0 
z
M 2578 1556 
L 2578 1797 
Q 2578 2109 2397 2315 
Q 2216 2522 1925 2522 
Q 1597 2522 1412 2264 
Q 1228 2006 1228 1556 
Q 1228 1134 1406 906 
Q 1584 678 1900 678 
Q 2200 678 2389 918 
Q 2578 1159 2578 1556 
z
" transform="scale(0.015625)"/>
     <path id="SegoeUI-Bold-e1" d="M 3078 0 
L 2144 0 
L 2144 459 
L 2131 459 
Q 1809 -78 1178 -78 
Q 713 -78 445 186 
Q 178 450 178 891 
Q 178 1822 1281 1966 
L 2150 2081 
Q 2150 2606 1581 2606 
Q 1009 2606 494 2266 
L 494 3009 
Q 700 3116 1058 3197 
Q 1416 3278 1709 3278 
Q 3078 3278 3078 1913 
L 3078 0 
z
M 2150 1300 
L 2150 1516 
L 1569 1441 
Q 1088 1378 1088 1006 
Q 1088 838 1205 730 
Q 1322 622 1522 622 
Q 1800 622 1975 814 
Q 2150 1006 2150 1300 
z
M 2783 4716 
L 1804 3706 
L 1092 3706 
L 1904 4716 
L 2783 4716 
z
" transform="scale(0.015625)"/>
     <path id="SegoeUI-Bold-2014" d="M 6400 1363 
L 0 1363 
L 0 2053 
L 6400 2053 
L 6400 1363 
z
" transform="scale(0.015625)"/>
     <path id="SegoeUI-Bold-56" d="M 4244 4481 
L 2700 0 
L 1556 0 
L 31 4481 
L 1119 4481 
L 2053 1363 
Q 2128 1109 2144 916 
L 2163 916 
Q 2184 1125 2259 1375 
L 3188 4481 
L 4244 4481 
z
" transform="scale(0.015625)"/>
     <path id="SegoeUI-Bold-75" d="M 3456 0 
L 2472 0 
L 2472 488 
L 2456 488 
Q 2091 -78 1478 -78 
Q 366 -78 366 1269 
L 366 3200 
L 1350 3200 
L 1350 1356 
Q 1350 678 1888 678 
Q 2153 678 2312 864 
Q 2472 1050 2472 1369 
L 2472 3200 
L 3456 3200 
L 3456 0 
z
" transform="scale(0.015625)"/>
    </defs>
    <use xlink:href="#SegoeUI-Bold-54"/>
    <use xlink:href="#SegoeUI-Bold-65" x="49.59375"/>
    <use xlink:href="#SegoeUI-Bold-6f" x="103.695312"/>
    <use xlink:href="#SegoeUI-Bold-72" x="164.828125"/>
    <use xlink:href="#SegoeUI-Bold-65" x="204.248047"/>
    <use xlink:href="#SegoeUI-Bold-6d" x="258.349609"/>
    <use xlink:href="#SegoeUI-Bold-61" x="349.951172"/>
    <use xlink:href="#SegoeUI-Bold-20" x="403.759766"/>
    <use xlink:href="#SegoeUI-Bold-64" x="431.347656"/>
    <use xlink:href="#SegoeUI-Bold-65" x="493.261719"/>
    <use xlink:href="#SegoeUI-Bold-20" x="547.363281"/>
    <use xlink:href="#SegoeUI-Bold-50" x="574.951172"/>
    <use xlink:href="#SegoeUI-Bold-69" x="636.376953"/>
    <use xlink:href="#SegoeUI-Bold-74" x="664.794922"/>
    <use xlink:href="#SegoeUI-Bold-e1" x="703.710938"/>
    <use xlink:href="#SegoeUI-Bold-67" x="757.519531"/>
    <use xlink:href="#SegoeUI-Bold-6f" x="819.433594"/>
    <use xlink:href="#SegoeUI-Bold-72" x="880.566406"/>
    <use xlink:href="#SegoeUI-Bold-61" x="920.361328"/>
    <use xlink:href="#SegoeUI-Bold-73" x="974.169922"/>
    <use xlink:href="#SegoeUI-Bold-20" x="1018.164062"/>
    <use xlink:href="#SegoeUI-Bold-2014" x="1045.751953"/>
    <use xlink:href="#SegoeUI-Bold-20" x="1145.751953"/>
    <use xlink:href="#SegoeUI-Bold-44" x="1173.339844"/>
    <use xlink:href="#SegoeUI-Bold-65" x="1247.070312"/>
    <use xlink:href="#SegoeUI-Bold-6d" x="1301.171875"/>
    <use xlink:href="#SegoeUI-Bold-6f" x="1392.773438"/>
    <use xlink:href="#SegoeUI-Bold-73" x="1453.90625"/>
    <use xlink:href="#SegoeUI-Bold-74" x="1497.900391"/>
    <use xlink:href="#SegoeUI-Bold-72" x="1536.816406"/>
    <use xlink:href="#SegoeUI-Bold-61" x="1576.611328"/>
    <use xlink:href="#SegoeUI-Bold-63" x="1630.419922"/>
    <use xlink:href="#SegoeUI-Bold-69" x="1678.417969"/>
    <use xlink:href="#SegoeUI-Bold-f3" x="1706.835938"/>
    <use xlink:href="#SegoeUI-Bold-6e" x="1767.919922"/>
    <use xlink:href="#SegoeUI-Bold-20" x="1828.417969"/>
    <use xlink:href="#SegoeUI-Bold-56" x="1856.005859"/>
    <use xlink:href="#SegoeUI-Bold-69" x="1922.705078"/>
    <use xlink:href="#SegoeUI-Bold-73" x="1951.123047"/>
    <use xlink:href="#SegoeUI-Bold-75" x="1995.117188"/>
    <use xlink:href="#SegoeUI-Bold-61" x="2055.615234"/>
    <use xlink:href="#SegoeUI-Bold-6c" x="2109.423828"/>
   </g>
  </g>
 </g>
 <defs>
  <clipPath id="p2a2e6dac6d">
   <rect x="7.2" y="26.852667" width="550.346852" height="550.346852"/>
  </clipPath>
  <clipPath id="p1cc3b5e7b9">
   <rect x="611.197282" y="26.852667" width="384.671808" height="550.346852"/>
  </clipPath>
 </defs>
</svg>
