<?xml version="1.0" encoding="utf-8" standalone="no"?>
<!DOCTYPE svg PUBLIC "-//W3C//DTD SVG 1.1//EN"
  "http://www.w3.org/Graphics/SVG/1.1/DTD/svg11.dtd">
<svg xmlns:xlink="http://www.w3.org/1999/xlink" width="1016.39952pt" height="425.148806pt" viewBox="0 0 1016.39952 425.148806" xmlns="http://www.w3.org/2000/svg" version="1.1">
 <metadata>
  <rdf:RDF xmlns:dc="http://purl.org/dc/elements/1.1/" xmlns:cc="http://creativecommons.org/ns#" xmlns:rdf="http://www.w3.org/1999/02/22-rdf-syntax-ns#">
   <cc:Work>
    <dc:type rdf:resource="http://purl.org/dc/dcmitype/StillImage"/>
    <dc:date>2026-04-11T16:11:39.849622</dc:date>
    <dc:format>image/svg+xml</dc:format>
    <dc:creator>
     <cc:Agent>
      <dc:title>Matplotlib v3.8.4, https://matplotlib.org/</dc:title>
     </cc:Agent>
    </dc:creator>
   </cc:Work>
  </rdf:RDF>
 </metadata>
 <defs>
  <style type="text/css">*{stroke-linejoin: round; stroke-linecap: butt}</style>
 </defs>
 <g id="figure_1">
  <g id="patch_1">
   <path d="M 0 425.148806 
L 1016.39952 425.148806 
L 1016.39952 0 
L 0 0 
z
" style="fill: #ffffff"/>
  </g>
  <g id="axes_1">
   <g id="patch_2">
    <path d="M 122.815329 109.641261 
L 56.064788 225.25659 
L 189.565871 225.25659 
z
" clip-path="url(#pb96516ca1b)" style="fill: #39c5bb; opacity: 0.2; stroke: #39c5bb; stroke-width: 2; stroke-linejoin: miter"/>
   </g>
   <g id="patch_3">
    <path d="M 315.507545 109.641261 
L 238.430658 186.718147 
L 315.507545 263.795033 
L 392.584431 186.718147 
z
" clip-path="url(#pb96516ca1b)" style="fill: #e12885; opacity: 0.2; stroke: #e12885; stroke-width: 2; stroke-linejoin: miter"/>
   </g>
   <g id="patch_4">
    <path d="M 508.19976 109.641261 
L 434.895285 162.90008 
L 462.895103 249.074658 
L 553.504417 249.074658 
L 581.504235 162.90008 
z
" clip-path="url(#pb96516ca1b)" style="fill: #1f2937; opacity: 0.2; stroke: #1f2937; stroke-width: 2; stroke-linejoin: miter"/>
   </g>
   <g id="patch_5">
    <path d="M 700.891975 109.641261 
L 634.141434 148.179704 
L 634.141434 225.25659 
L 700.891975 263.795033 
L 767.642517 225.25659 
L 767.642517 148.179704 
z
" clip-path="url(#pb96516ca1b)" style="fill: #4b5563; opacity: 0.2; stroke: #4b5563; stroke-width: 2; stroke-linejoin: miter"/>
   </g>
   <g id="patch_6">
    <path d="M 893.584191 109.641261 
L 839.082602 132.216558 
L 816.507305 186.718147 
L 839.082602 241.219736 
L 893.584191 263.795033 
L 948.08578 241.219736 
L 970.661077 186.718147 
L 948.08578 132.216558 
z
" clip-path="url(#pb96516ca1b)" style="fill: #f59e0b; opacity: 0.2; stroke: #f59e0b; stroke-width: 2; stroke-linejoin: miter"/>
   </g>
   <g id="line2d_1">
    <defs>
     <path id="mdab982aa7c" d="M 0 2 
C 0.530406 2 1.03916 1.789267 1.414214 1.414214 
C 1.789267 1.03916 2 0.530406 2 0 
C 2 -0.530406 1.789267 -1.03916 1.414214 -1.414214 
C 1.03916 -1.789267 0.530406 -2 0 -2 
C -0.530406 -2 -1.03916 -1.789267 -1.414214 -1.414214 
C -1.789267 -1.03916 -2 -0.530406 -2 0 
C -2 0.530406 -1.789267 1.03916 -1.414214 1.414214 
C -1.03916 1.789267 -0.530406 2 0 2 
z
" style="stroke: #374151"/>
    </defs>
    <g clip-path="url(#pb96516ca1b)">
     <use xlink:href="#mdab982aa7c" x="122.815329" y="186.718147" style="fill: #374151; stroke: #374151"/>
    </g>
   </g>
   <g id="line2d_2">
    <path d="M 122.815329 186.718147 
L 122.815329 109.641261 
" clip-path="url(#pb96516ca1b)" style="fill: none; stroke-dasharray: 3.7,1.6; stroke-dashoffset: 0; stroke: #6b7280; stroke-opacity: 0.7"/>
   </g>
   <g id="line2d_3">
    <path d="M 122.815329 186.718147 
L 89.440059 167.448926 
" clip-path="url(#pb96516ca1b)" style="fill: none; stroke-dasharray: 1.5,2.475; stroke-dashoffset: 0; stroke: #9ca3af; stroke-width: 1.5"/>
   </g>
   <g id="line2d_4">
    <g clip-path="url(#pb96516ca1b)">
     <use xlink:href="#mdab982aa7c" x="315.507545" y="186.718147" style="fill: #374151; stroke: #374151"/>
    </g>
   </g>
   <g id="line2d_5">
    <path d="M 315.507545 186.718147 
L 315.507545 109.641261 
" clip-path="url(#pb96516ca1b)" style="fill: none; stroke-dasharray: 3.7,1.6; stroke-dashoffset: 0; stroke: #6b7280; stroke-opacity: 0.7"/>
   </g>
   <g id="line2d_6">
    <path d="M 315.507545 186.718147 
L 276.969102 148.179704 
" clip-path="url(#pb96516ca1b)" style="fill: none; stroke-dasharray: 1.5,2.475; stroke-dashoffset: 0; stroke: #9ca3af; stroke-width: 1.5"/>
   </g>
   <g id="line2d_7">
    <g clip-path="url(#pb96516ca1b)">
     <use xlink:href="#mdab982aa7c" x="508.19976" y="186.718147" style="fill: #374151; stroke: #374151"/>
    </g>
   </g>
   <g id="line2d_8">
    <path d="M 508.19976 186.718147 
L 508.19976 109.641261 
" clip-path="url(#pb96516ca1b)" style="fill: none; stroke-dasharray: 3.7,1.6; stroke-dashoffset: 0; stroke: #6b7280; stroke-opacity: 0.7"/>
   </g>
   <g id="line2d_9">
    <path d="M 508.19976 186.718147 
L 471.547523 136.27067 
" clip-path="url(#pb96516ca1b)" style="fill: none; stroke-dasharray: 1.5,2.475; stroke-dashoffset: 0; stroke: #9ca3af; stroke-width: 1.5"/>
   </g>
   <g id="line2d_10">
    <g clip-path="url(#pb96516ca1b)">
     <use xlink:href="#mdab982aa7c" x="700.891975" y="186.718147" style="fill: #374151; stroke: #374151"/>
    </g>
   </g>
   <g id="line2d_11">
    <path d="M 700.891975 186.718147 
L 700.891975 109.641261 
" clip-path="url(#pb96516ca1b)" style="fill: none; stroke-dasharray: 3.7,1.6; stroke-dashoffset: 0; stroke: #6b7280; stroke-opacity: 0.7"/>
   </g>
   <g id="line2d_12">
    <path d="M 700.891975 186.718147 
L 667.516705 128.910483 
" clip-path="url(#pb96516ca1b)" style="fill: none; stroke-dasharray: 1.5,2.475; stroke-dashoffset: 0; stroke: #9ca3af; stroke-width: 1.5"/>
   </g>
   <g id="line2d_13">
    <g clip-path="url(#pb96516ca1b)">
     <use xlink:href="#mdab982aa7c" x="893.584191" y="186.718147" style="fill: #374151; stroke: #374151"/>
    </g>
   </g>
   <g id="line2d_14">
    <path d="M 893.584191 186.718147 
L 893.584191 109.641261 
" clip-path="url(#pb96516ca1b)" style="fill: none; stroke-dasharray: 3.7,1.6; stroke-dashoffset: 0; stroke: #6b7280; stroke-opacity: 0.7"/>
   </g>
   <g id="line2d_15">
    <path d="M 893.584191 186.718147 
L 866.333396 120.92891 
" clip-path="url(#pb96516ca1b)" style="fill: none; stroke-dasharray: 1.5,2.475; stroke-dashoffset: 0; stroke: #9ca3af; stroke-width: 1.5"/>
   </g>
   <g id="line2d_16">
    <path d="M 45.738443 55.687441 
L 68.861509 55.687441 
" clip-path="url(#pb96516ca1b)" style="fill: none; stroke-dasharray: 3.7,1.6; stroke-dashoffset: 0; stroke: #6b7280"/>
   </g>
   <g id="line2d_17">
    <path d="M 199.892215 55.687441 
L 223.015281 55.687441 
" clip-path="url(#pb96516ca1b)" style="fill: none; stroke-dasharray: 1.5,2.475; stroke-dashoffset: 0; stroke: #9ca3af; stroke-width: 1.5"/>
   </g>
   <g id="text_1">
    <!-- Triángulo -->
    <g style="fill: #1f2937" transform="translate(98.286189 286.918099) scale(0.11 -0.11)">
     <defs>
      <path id="SegoeUI-Bold-54" d="M 3659 3659 
L 2381 3659 
L 2381 0 
L 1369 0 
L 1369 3659 
L 97 3659 
L 97 4481 
L 3659 4481 
L 3659 3659 
z
" transform="scale(0.015625)"/>
      <path id="SegoeUI-Bold-72" d="M 2503 2309 
Q 2325 2406 2088 2406 
Q 1766 2406 1584 2170 
Q 1403 1934 1403 1528 
L 1403 0 
L 416 0 
L 416 3200 
L 1403 3200 
L 1403 2606 
L 1416 2606 
Q 1650 3256 2259 3256 
Q 2416 3256 2503 3219 
L 2503 2309 
z
" transform="scale(0.015625)"/>
      <path id="SegoeUI-Bold-69" d="M 916 3706 
Q 666 3706 506 3854 
Q 347 4003 347 4219 
Q 347 4441 506 4581 
Q 666 4722 916 4722 
Q 1169 4722 1326 4581 
Q 1484 4441 1484 4219 
Q 1484 3994 1326 3850 
Q 1169 3706 916 3706 
z
M 1403 0 
L 416 0 
L 416 3200 
L 1403 3200 
L 1403 0 
z
" transform="scale(0.015625)"/>
      <path id="SegoeUI-Bold-e1" d="M 3078 0 
L 2144 0 
L 2144 459 
L 2131 459 
Q 1809 -78 1178 -78 
Q 713 -78 445 186 
Q 178 450 178 891 
Q 178 1822 1281 1966 
L 2150 2081 
Q 2150 2606 1581 2606 
Q 1009 2606 494 2266 
L 494 3009 
Q 700 3116 1058 3197 
Q 1416 3278 1709 3278 
Q 3078 3278 3078 1913 
L 3078 0 
z
M 2150 1300 
L 2150 1516 
L 1569 1441 
Q 1088 1378 1088 1006 
Q 1088 838 1205 730 
Q 1322 622 1522 622 
Q 1800 622 1975 814 
Q 2150 1006 2150 1300 
z
M 2783 4716 
L 1804 3706 
L 1092 3706 
L 1904 4716 
L 2783 4716 
z
" transform="scale(0.015625)"/>
      <path id="SegoeUI-Bold-6e" d="M 3506 0 
L 2522 0 
L 2522 1778 
Q 2522 2522 1991 2522 
Q 1734 2522 1568 2325 
Q 1403 2128 1403 1825 
L 1403 0 
L 416 0 
L 416 3200 
L 1403 3200 
L 1403 2694 
L 1416 2694 
Q 1769 3278 2444 3278 
Q 3506 3278 3506 1959 
L 3506 0 
z
" transform="scale(0.015625)"/>
      <path id="SegoeUI-Bold-67" d="M 3553 366 
Q 3553 -525 3037 -1014 
Q 2522 -1503 1544 -1503 
Q 897 -1503 519 -1319 
L 519 -488 
Q 1013 -775 1516 -775 
Q 2016 -775 2291 -511 
Q 2566 -247 2566 206 
L 2566 459 
L 2553 459 
Q 2216 -78 1556 -78 
Q 944 -78 584 353 
Q 225 784 225 1509 
Q 225 2322 625 2800 
Q 1025 3278 1678 3278 
Q 2263 3278 2553 2828 
L 2566 2828 
L 2566 3200 
L 3553 3200 
L 3553 366 
z
M 2578 1538 
L 2578 1791 
Q 2578 2094 2398 2308 
Q 2219 2522 1931 2522 
Q 1603 2522 1415 2265 
Q 1228 2009 1228 1544 
Q 1228 1144 1406 911 
Q 1584 678 1894 678 
Q 2200 678 2389 914 
Q 2578 1150 2578 1538 
z
" transform="scale(0.015625)"/>
      <path id="SegoeUI-Bold-75" d="M 3456 0 
L 2472 0 
L 2472 488 
L 2456 488 
Q 2091 -78 1478 -78 
Q 366 -78 366 1269 
L 366 3200 
L 1350 3200 
L 1350 1356 
Q 1350 678 1888 678 
Q 2153 678 2312 864 
Q 2472 1050 2472 1369 
L 2472 3200 
L 3456 3200 
L 3456 0 
z
" transform="scale(0.015625)"/>
      <path id="SegoeUI-Bold-6c" d="M 1403 0 
L 416 0 
L 416 4738 
L 1403 4738 
L 1403 0 
z
" transform="scale(0.015625)"/>
      <path id="SegoeUI-Bold-6f" d="M 1941 -78 
Q 1141 -78 683 370 
Q 225 819 225 1588 
Q 225 2381 700 2829 
Q 1175 3278 1984 3278 
Q 2781 3278 3234 2829 
Q 3688 2381 3688 1644 
Q 3688 847 3220 384 
Q 2753 -78 1941 -78 
z
M 1966 2522 
Q 1616 2522 1422 2281 
Q 1228 2041 1228 1600 
Q 1228 678 1972 678 
Q 2681 678 2681 1625 
Q 2681 2522 1966 2522 
z
" transform="scale(0.015625)"/>
     </defs>
     <use xlink:href="#SegoeUI-Bold-54"/>
     <use xlink:href="#SegoeUI-Bold-72" x="51.09375"/>
     <use xlink:href="#SegoeUI-Bold-69" x="91.263672"/>
     <use xlink:href="#SegoeUI-Bold-e1" x="119.681641"/>
     <use xlink:href="#SegoeUI-Bold-6e" x="173.490234"/>
     <use xlink:href="#SegoeUI-Bold-67" x="233.988281"/>
     <use xlink:href="#SegoeUI-Bold-75" x="295.902344"/>
     <use xlink:href="#SegoeUI-Bold-6c" x="356.400391"/>
     <use xlink:href="#SegoeUI-Bold-6f" x="384.818359"/>
    </g>
   </g>
   <g id="text_2">
    <!-- n = 3 -->
    <g style="fill: #6b7280" transform="translate(112.299392 306.187321) scale(0.09 -0.09)">
     <defs>
      <path id="SegoeUI-6e" d="M 3175 0 
L 2663 0 
L 2663 1825 
Q 2663 2844 1919 2844 
Q 1534 2844 1282 2555 
Q 1031 2266 1031 1825 
L 1031 0 
L 519 0 
L 519 3200 
L 1031 3200 
L 1031 2669 
L 1044 2669 
Q 1406 3275 2094 3275 
Q 2619 3275 2897 2936 
Q 3175 2597 3175 1956 
L 3175 0 
z
" transform="scale(0.015625)"/>
      <path id="SegoeUI-20" transform="scale(0.015625)"/>
      <path id="SegoeUI-3d" d="M 3663 2325 
L 725 2325 
L 725 2738 
L 3663 2738 
L 3663 2325 
z
M 3663 994 
L 725 994 
L 725 1406 
L 3663 1406 
L 3663 994 
z
" transform="scale(0.015625)"/>
      <path id="SegoeUI-33" d="M 2978 1269 
Q 2978 966 2864 717 
Q 2750 469 2542 292 
Q 2334 116 2043 19 
Q 1753 -78 1403 -78 
Q 763 -78 384 166 
L 384 716 
Q 838 359 1422 359 
Q 1656 359 1845 418 
Q 2034 478 2170 590 
Q 2306 703 2379 862 
Q 2453 1022 2453 1222 
Q 2453 2100 1203 2100 
L 831 2100 
L 831 2534 
L 1184 2534 
Q 2291 2534 2291 3359 
Q 2291 4122 1447 4122 
Q 972 4122 556 3803 
L 556 4300 
Q 984 4556 1575 4556 
Q 1856 4556 2084 4478 
Q 2313 4400 2475 4259 
Q 2638 4119 2727 3922 
Q 2816 3725 2816 3488 
Q 2816 2603 1922 2350 
L 1922 2338 
Q 2150 2313 2344 2227 
Q 2538 2141 2678 2003 
Q 2819 1866 2898 1680 
Q 2978 1494 2978 1269 
z
" transform="scale(0.015625)"/>
     </defs>
     <use xlink:href="#SegoeUI-6e"/>
     <use xlink:href="#SegoeUI-20" x="56.591797"/>
     <use xlink:href="#SegoeUI-3d" x="83.984375"/>
     <use xlink:href="#SegoeUI-20" x="152.392578"/>
     <use xlink:href="#SegoeUI-33" x="179.785156"/>
    </g>
   </g>
   <g id="text_3">
    <!-- ∠ = 60° -->
    <g style="fill: #39c5bb" transform="translate(107.819079 325.456542) scale(0.09 -0.09)">
     <defs>
      <path id="SegoeUI-2220" d="M 519 0 
L 519 4369 
L 3613 4369 
L 3613 0 
L 519 0 
z
M 981 463 
L 3150 463 
L 3150 3906 
L 981 3906 
L 981 463 
z
" transform="scale(0.015625)"/>
      <path id="SegoeUI-36" d="M 3194 1422 
Q 3194 1094 3087 819 
Q 2981 544 2793 344 
Q 2606 144 2347 33 
Q 2088 -78 1784 -78 
Q 1447 -78 1180 62 
Q 913 203 727 467 
Q 541 731 444 1112 
Q 347 1494 347 1972 
Q 347 2556 476 3032 
Q 606 3509 845 3848 
Q 1084 4188 1421 4372 
Q 1759 4556 2175 4556 
Q 2638 4556 2919 4428 
L 2919 3944 
Q 2572 4122 2188 4122 
Q 1888 4122 1647 3987 
Q 1406 3853 1234 3608 
Q 1063 3363 970 3016 
Q 878 2669 878 2244 
L 891 2244 
Q 1200 2803 1913 2803 
Q 2206 2803 2442 2703 
Q 2678 2603 2845 2420 
Q 3013 2238 3103 1984 
Q 3194 1731 3194 1422 
z
M 2669 1356 
Q 2669 1591 2609 1778 
Q 2550 1966 2439 2097 
Q 2328 2228 2165 2298 
Q 2003 2369 1797 2369 
Q 1606 2369 1443 2297 
Q 1281 2225 1162 2101 
Q 1044 1978 976 1814 
Q 909 1650 909 1466 
Q 909 1234 975 1032 
Q 1041 831 1159 681 
Q 1278 531 1442 445 
Q 1606 359 1806 359 
Q 2000 359 2159 432 
Q 2319 506 2431 637 
Q 2544 769 2606 951 
Q 2669 1134 2669 1356 
z
" transform="scale(0.015625)"/>
      <path id="SegoeUI-30" d="M 3188 2259 
Q 3188 1697 3086 1262 
Q 2984 828 2792 529 
Q 2600 231 2320 76 
Q 2041 -78 1684 -78 
Q 1347 -78 1083 70 
Q 819 219 637 503 
Q 456 788 362 1202 
Q 269 1616 269 2150 
Q 269 2738 367 3188 
Q 466 3638 656 3942 
Q 847 4247 1130 4401 
Q 1413 4556 1778 4556 
Q 3188 4556 3188 2259 
z
M 2663 2209 
Q 2663 4122 1753 4122 
Q 794 4122 794 2175 
Q 794 359 1734 359 
Q 2663 359 2663 2209 
z
" transform="scale(0.015625)"/>
      <path id="SegoeUI-b0" d="M 1203 2803 
Q 844 2803 591 3058 
Q 338 3313 338 3675 
Q 338 4034 588 4282 
Q 838 4531 1197 4531 
Q 1559 4531 1814 4281 
Q 2069 4031 2069 3675 
Q 2069 3313 1816 3058 
Q 1563 2803 1203 2803 
z
M 1203 4166 
Q 1000 4166 856 4022 
Q 713 3878 713 3675 
Q 713 3466 853 3317 
Q 994 3169 1197 3169 
Q 1400 3169 1547 3319 
Q 1694 3469 1694 3675 
Q 1694 3881 1550 4023 
Q 1406 4166 1203 4166 
z
" transform="scale(0.015625)"/>
     </defs>
     <use xlink:href="#SegoeUI-2220"/>
     <use xlink:href="#SegoeUI-20" x="64.550781"/>
     <use xlink:href="#SegoeUI-3d" x="91.943359"/>
     <use xlink:href="#SegoeUI-20" x="160.351562"/>
     <use xlink:href="#SegoeUI-36" x="187.744141"/>
     <use xlink:href="#SegoeUI-30" x="241.650391"/>
     <use xlink:href="#SegoeUI-b0" x="295.556641"/>
    </g>
   </g>
   <g id="text_4">
    <!-- Cuadrado -->
    <g style="fill: #1f2937" transform="translate(290.465357 286.918099) scale(0.11 -0.11)">
     <defs>
      <path id="SegoeUI-Bold-43" d="M 3725 159 
Q 3234 -78 2444 -78 
Q 1413 -78 822 528 
Q 231 1134 231 2144 
Q 231 3219 895 3887 
Q 1559 4556 2619 4556 
Q 3275 4556 3725 4391 
L 3725 3419 
Q 3275 3688 2700 3688 
Q 2069 3688 1681 3291 
Q 1294 2894 1294 2216 
Q 1294 1566 1659 1180 
Q 2025 794 2644 794 
Q 3234 794 3725 1081 
L 3725 159 
z
" transform="scale(0.015625)"/>
      <path id="SegoeUI-Bold-61" d="M 3078 0 
L 2144 0 
L 2144 459 
L 2131 459 
Q 1809 -78 1178 -78 
Q 713 -78 445 186 
Q 178 450 178 891 
Q 178 1822 1281 1966 
L 2150 2081 
Q 2150 2606 1581 2606 
Q 1009 2606 494 2266 
L 494 3009 
Q 700 3116 1058 3197 
Q 1416 3278 1709 3278 
Q 3078 3278 3078 1913 
L 3078 0 
z
M 2150 1300 
L 2150 1516 
L 1569 1441 
Q 1088 1378 1088 1006 
Q 1088 838 1205 730 
Q 1322 622 1522 622 
Q 1800 622 1975 814 
Q 2150 1006 2150 1300 
z
" transform="scale(0.015625)"/>
      <path id="SegoeUI-Bold-64" d="M 3547 0 
L 2559 0 
L 2559 441 
L 2547 441 
Q 2209 -78 1556 -78 
Q 956 -78 590 345 
Q 225 769 225 1528 
Q 225 2322 628 2800 
Q 1031 3278 1684 3278 
Q 2303 3278 2547 2834 
L 2559 2834 
L 2559 4738 
L 3547 4738 
L 3547 0 
z
M 2578 1556 
L 2578 1797 
Q 2578 2109 2397 2315 
Q 2216 2522 1925 2522 
Q 1597 2522 1412 2264 
Q 1228 2006 1228 1556 
Q 1228 1134 1406 906 
Q 1584 678 1900 678 
Q 2200 678 2389 918 
Q 2578 1159 2578 1556 
z
" transform="scale(0.015625)"/>
     </defs>
     <use xlink:href="#SegoeUI-Bold-43"/>
     <use xlink:href="#SegoeUI-Bold-75" x="62.402344"/>
     <use xlink:href="#SegoeUI-Bold-61" x="122.900391"/>
     <use xlink:href="#SegoeUI-Bold-64" x="176.708984"/>
     <use xlink:href="#SegoeUI-Bold-72" x="238.623047"/>
     <use xlink:href="#SegoeUI-Bold-61" x="278.417969"/>
     <use xlink:href="#SegoeUI-Bold-64" x="332.226562"/>
     <use xlink:href="#SegoeUI-Bold-6f" x="394.140625"/>
    </g>
   </g>
   <g id="text_5">
    <!-- n = 4 -->
    <g style="fill: #6b7280" transform="translate(304.991607 306.187321) scale(0.09 -0.09)">
     <defs>
      <path id="SegoeUI-34" d="M 2656 4481 
L 2656 1522 
L 3231 1522 
L 3231 1053 
L 2656 1053 
L 2656 0 
L 2150 0 
L 2150 1053 
L 44 1053 
L 44 1497 
Q 338 1828 638 2204 
Q 938 2581 1211 2968 
Q 1484 3356 1717 3742 
Q 1950 4128 2109 4481 
L 2656 4481 
z
M 622 1522 
L 2150 1522 
L 2150 3716 
Q 1916 3306 1706 2984 
Q 1497 2663 1308 2400 
Q 1119 2138 947 1925 
Q 775 1713 622 1522 
z
" transform="scale(0.015625)"/>
     </defs>
     <use xlink:href="#SegoeUI-6e"/>
     <use xlink:href="#SegoeUI-20" x="56.591797"/>
     <use xlink:href="#SegoeUI-3d" x="83.984375"/>
     <use xlink:href="#SegoeUI-20" x="152.392578"/>
     <use xlink:href="#SegoeUI-34" x="179.785156"/>
    </g>
   </g>
   <g id="text_6">
    <!-- ∠ = 90° -->
    <g style="fill: #e12885" transform="translate(300.511295 325.456542) scale(0.09 -0.09)">
     <defs>
      <path id="SegoeUI-39" d="M 3138 2509 
Q 3138 1894 3016 1414 
Q 2894 934 2659 601 
Q 2425 269 2087 95 
Q 1750 -78 1319 -78 
Q 875 -78 538 78 
L 538 569 
Q 909 359 1331 359 
Q 1634 359 1873 484 
Q 2113 609 2278 848 
Q 2444 1088 2531 1438 
Q 2619 1788 2619 2241 
L 2606 2241 
Q 2319 1663 1606 1663 
Q 1319 1663 1078 1764 
Q 838 1866 663 2052 
Q 488 2238 391 2494 
Q 294 2750 294 3059 
Q 294 3391 401 3666 
Q 509 3941 701 4139 
Q 894 4338 1158 4447 
Q 1422 4556 1734 4556 
Q 2072 4556 2333 4420 
Q 2594 4284 2772 4023 
Q 2950 3763 3044 3381 
Q 3138 3000 3138 2509 
z
M 2584 2969 
Q 2584 3228 2517 3440 
Q 2450 3653 2331 3804 
Q 2213 3956 2048 4039 
Q 1884 4122 1691 4122 
Q 1506 4122 1347 4048 
Q 1188 3975 1070 3842 
Q 953 3709 886 3526 
Q 819 3344 819 3128 
Q 819 2891 883 2703 
Q 947 2516 1065 2386 
Q 1184 2256 1351 2187 
Q 1519 2119 1722 2119 
Q 1900 2119 2058 2186 
Q 2216 2253 2333 2367 
Q 2450 2481 2517 2636 
Q 2584 2791 2584 2969 
z
" transform="scale(0.015625)"/>
     </defs>
     <use xlink:href="#SegoeUI-2220"/>
     <use xlink:href="#SegoeUI-20" x="64.550781"/>
     <use xlink:href="#SegoeUI-3d" x="91.943359"/>
     <use xlink:href="#SegoeUI-20" x="160.351562"/>
     <use xlink:href="#SegoeUI-39" x="187.744141"/>
     <use xlink:href="#SegoeUI-30" x="241.650391"/>
     <use xlink:href="#SegoeUI-b0" x="295.556641"/>
    </g>
   </g>
   <g id="text_7">
    <!-- Pentágono -->
    <g style="fill: #1f2937" transform="translate(480.123979 286.918099) scale(0.11 -0.11)">
     <defs>
      <path id="SegoeUI-Bold-50" d="M 1522 1544 
L 1522 0 
L 513 0 
L 513 4481 
L 2094 4481 
Q 3788 4481 3788 3053 
Q 3788 2378 3302 1961 
Q 2816 1544 2003 1544 
L 1522 1544 
z
M 1522 3706 
L 1522 2309 
L 1919 2309 
Q 2725 2309 2725 3016 
Q 2725 3706 1919 3706 
L 1522 3706 
z
" transform="scale(0.015625)"/>
      <path id="SegoeUI-Bold-65" d="M 3291 1319 
L 1203 1319 
Q 1253 622 2081 622 
Q 2609 622 3009 872 
L 3009 159 
Q 2566 -78 1856 -78 
Q 1081 -78 653 351 
Q 225 781 225 1550 
Q 225 2347 687 2812 
Q 1150 3278 1825 3278 
Q 2525 3278 2908 2862 
Q 3291 2447 3291 1734 
L 3291 1319 
z
M 2375 1925 
Q 2375 2613 1819 2613 
Q 1581 2613 1407 2416 
Q 1234 2219 1197 1925 
L 2375 1925 
z
" transform="scale(0.015625)"/>
      <path id="SegoeUI-Bold-74" d="M 2350 38 
Q 2131 -78 1691 -78 
Q 647 -78 647 1006 
L 647 2472 
L 128 2472 
L 128 3200 
L 647 3200 
L 647 3891 
L 1631 4172 
L 1631 3200 
L 2350 3200 
L 2350 2472 
L 1631 2472 
L 1631 1178 
Q 1631 678 2028 678 
Q 2184 678 2350 769 
L 2350 38 
z
" transform="scale(0.015625)"/>
     </defs>
     <use xlink:href="#SegoeUI-Bold-50"/>
     <use xlink:href="#SegoeUI-Bold-65" x="58.425781"/>
     <use xlink:href="#SegoeUI-Bold-6e" x="112.527344"/>
     <use xlink:href="#SegoeUI-Bold-74" x="173.025391"/>
     <use xlink:href="#SegoeUI-Bold-e1" x="211.941406"/>
     <use xlink:href="#SegoeUI-Bold-67" x="265.75"/>
     <use xlink:href="#SegoeUI-Bold-6f" x="327.664062"/>
     <use xlink:href="#SegoeUI-Bold-6e" x="388.796875"/>
     <use xlink:href="#SegoeUI-Bold-6f" x="449.294922"/>
    </g>
   </g>
   <g id="text_8">
    <!-- n = 5 -->
    <g style="fill: #6b7280" transform="translate(497.683823 306.187321) scale(0.09 -0.09)">
     <defs>
      <path id="SegoeUI-35" d="M 3028 1369 
Q 3028 1041 2915 775 
Q 2803 509 2595 318 
Q 2388 128 2094 25 
Q 1800 -78 1441 -78 
Q 816 -78 513 109 
L 513 653 
Q 969 359 1447 359 
Q 1691 359 1886 431 
Q 2081 503 2218 631 
Q 2356 759 2429 940 
Q 2503 1122 2503 1338 
Q 2503 1775 2209 2023 
Q 1916 2272 1356 2272 
Q 1266 2272 1166 2269 
Q 1066 2266 966 2261 
Q 866 2256 770 2250 
Q 675 2244 597 2234 
L 750 4481 
L 2822 4481 
L 2822 4019 
L 1194 4019 
L 1103 2703 
Q 1203 2709 1315 2714 
Q 1428 2719 1516 2719 
Q 1872 2719 2153 2625 
Q 2434 2531 2629 2357 
Q 2825 2184 2926 1932 
Q 3028 1681 3028 1369 
z
" transform="scale(0.015625)"/>
     </defs>
     <use xlink:href="#SegoeUI-6e"/>
     <use xlink:href="#SegoeUI-20" x="56.591797"/>
     <use xlink:href="#SegoeUI-3d" x="83.984375"/>
     <use xlink:href="#SegoeUI-20" x="152.392578"/>
     <use xlink:href="#SegoeUI-35" x="179.785156"/>
    </g>
   </g>
   <g id="text_9">
    <!-- ∠ = 108° -->
    <g style="fill: #1f2937" transform="translate(490.777729 325.456542) scale(0.09 -0.09)">
     <defs>
      <path id="SegoeUI-31" d="M 2263 0 
L 1750 0 
L 1750 3872 
Q 1691 3813 1577 3736 
Q 1463 3659 1320 3584 
Q 1178 3509 1020 3443 
Q 863 3378 713 3341 
L 713 3859 
Q 881 3906 1070 3986 
Q 1259 4066 1442 4164 
Q 1625 4263 1787 4370 
Q 1950 4478 2069 4581 
L 2263 4581 
L 2263 0 
z
" transform="scale(0.015625)"/>
      <path id="SegoeUI-38" d="M 281 1250 
Q 281 1428 337 1608 
Q 394 1788 498 1944 
Q 603 2100 758 2228 
Q 913 2356 1109 2431 
Q 819 2594 647 2848 
Q 475 3103 475 3413 
Q 475 3659 570 3868 
Q 666 4078 834 4231 
Q 1003 4384 1234 4470 
Q 1466 4556 1734 4556 
Q 2006 4556 2237 4468 
Q 2469 4381 2637 4228 
Q 2806 4075 2900 3865 
Q 2994 3656 2994 3413 
Q 2994 3103 2822 2848 
Q 2650 2594 2366 2431 
Q 2559 2356 2712 2228 
Q 2866 2100 2970 1944 
Q 3075 1788 3131 1608 
Q 3188 1428 3188 1250 
Q 3188 956 3081 712 
Q 2975 469 2783 295 
Q 2591 122 2323 25 
Q 2056 -72 1734 -72 
Q 1416 -72 1150 25 
Q 884 122 690 295 
Q 497 469 389 712 
Q 281 956 281 1250 
z
M 838 1294 
Q 838 1084 902 915 
Q 966 747 1083 628 
Q 1200 509 1367 445 
Q 1534 381 1738 381 
Q 1934 381 2100 447 
Q 2266 513 2386 631 
Q 2506 750 2573 919 
Q 2641 1088 2641 1294 
Q 2641 1481 2577 1645 
Q 2513 1809 2394 1934 
Q 2275 2059 2109 2131 
Q 1944 2203 1738 2203 
Q 1544 2203 1380 2136 
Q 1216 2069 1095 1948 
Q 975 1828 906 1661 
Q 838 1494 838 1294 
z
M 997 3372 
Q 997 3213 1055 3077 
Q 1113 2941 1214 2839 
Q 1316 2738 1450 2680 
Q 1584 2622 1738 2622 
Q 1891 2622 2027 2681 
Q 2163 2741 2263 2842 
Q 2363 2944 2422 3080 
Q 2481 3216 2481 3372 
Q 2481 3534 2423 3671 
Q 2366 3809 2266 3909 
Q 2166 4009 2030 4067 
Q 1894 4125 1738 4125 
Q 1572 4125 1436 4065 
Q 1300 4006 1201 3904 
Q 1103 3803 1050 3665 
Q 997 3528 997 3372 
z
" transform="scale(0.015625)"/>
     </defs>
     <use xlink:href="#SegoeUI-2220"/>
     <use xlink:href="#SegoeUI-20" x="64.550781"/>
     <use xlink:href="#SegoeUI-3d" x="91.943359"/>
     <use xlink:href="#SegoeUI-20" x="160.351562"/>
     <use xlink:href="#SegoeUI-31" x="187.744141"/>
     <use xlink:href="#SegoeUI-30" x="241.650391"/>
     <use xlink:href="#SegoeUI-38" x="295.556641"/>
     <use xlink:href="#SegoeUI-b0" x="349.462891"/>
    </g>
   </g>
   <g id="text_10">
    <!-- Hexágono -->
    <g style="fill: #1f2937" transform="translate(674.247054 286.918099) scale(0.11 -0.11)">
     <defs>
      <path id="SegoeUI-Bold-48" d="M 4391 0 
L 3378 0 
L 3378 1825 
L 1522 1825 
L 1522 0 
L 513 0 
L 513 4481 
L 1522 4481 
L 1522 2694 
L 3378 2694 
L 3378 4481 
L 4391 4481 
L 4391 0 
z
" transform="scale(0.015625)"/>
      <path id="SegoeUI-Bold-78" d="M 3506 3200 
L 2450 1650 
L 3500 0 
L 2363 0 
L 1900 863 
Q 1844 966 1766 1153 
L 1753 1153 
Q 1706 1022 1625 872 
L 1159 0 
L 25 0 
L 1106 1594 
L 91 3200 
L 1234 3200 
L 1691 2303 
Q 1781 2125 1819 2003 
L 1831 2003 
Q 1881 2150 1966 2309 
L 2431 3200 
L 3506 3200 
z
" transform="scale(0.015625)"/>
     </defs>
     <use xlink:href="#SegoeUI-Bold-48"/>
     <use xlink:href="#SegoeUI-Bold-65" x="76.611328"/>
     <use xlink:href="#SegoeUI-Bold-78" x="130.712891"/>
     <use xlink:href="#SegoeUI-Bold-e1" x="185.9375"/>
     <use xlink:href="#SegoeUI-Bold-67" x="239.746094"/>
     <use xlink:href="#SegoeUI-Bold-6f" x="301.660156"/>
     <use xlink:href="#SegoeUI-Bold-6e" x="362.792969"/>
     <use xlink:href="#SegoeUI-Bold-6f" x="423.291016"/>
    </g>
   </g>
   <g id="text_11">
    <!-- n = 6 -->
    <g style="fill: #6b7280" transform="translate(690.376038 306.187321) scale(0.09 -0.09)">
     <use xlink:href="#SegoeUI-6e"/>
     <use xlink:href="#SegoeUI-20" x="56.591797"/>
     <use xlink:href="#SegoeUI-3d" x="83.984375"/>
     <use xlink:href="#SegoeUI-20" x="152.392578"/>
     <use xlink:href="#SegoeUI-36" x="179.785156"/>
    </g>
   </g>
   <g id="text_12">
    <!-- ∠ = 120° -->
    <g style="fill: #4b5563" transform="translate(683.469944 325.456542) scale(0.09 -0.09)">
     <defs>
      <path id="SegoeUI-32" d="M 2413 3306 
Q 2413 3513 2348 3666 
Q 2284 3819 2173 3920 
Q 2063 4022 1913 4072 
Q 1763 4122 1588 4122 
Q 1438 4122 1294 4081 
Q 1150 4041 1014 3969 
Q 878 3897 751 3797 
Q 625 3697 516 3575 
L 516 4125 
Q 731 4334 998 4445 
Q 1266 4556 1650 4556 
Q 1925 4556 2159 4476 
Q 2394 4397 2566 4244 
Q 2738 4091 2836 3866 
Q 2934 3641 2934 3350 
Q 2934 3084 2873 2868 
Q 2813 2653 2689 2462 
Q 2566 2272 2378 2097 
Q 2191 1922 1938 1741 
Q 1622 1516 1417 1356 
Q 1213 1197 1092 1058 
Q 972 919 923 780 
Q 875 641 875 459 
L 3106 459 
L 3106 0 
L 341 0 
L 341 222 
Q 341 509 403 728 
Q 466 947 609 1144 
Q 753 1341 986 1537 
Q 1219 1734 1556 1981 
Q 1800 2156 1964 2315 
Q 2128 2475 2228 2634 
Q 2328 2794 2370 2958 
Q 2413 3122 2413 3306 
z
" transform="scale(0.015625)"/>
     </defs>
     <use xlink:href="#SegoeUI-2220"/>
     <use xlink:href="#SegoeUI-20" x="64.550781"/>
     <use xlink:href="#SegoeUI-3d" x="91.943359"/>
     <use xlink:href="#SegoeUI-20" x="160.351562"/>
     <use xlink:href="#SegoeUI-31" x="187.744141"/>
     <use xlink:href="#SegoeUI-32" x="241.650391"/>
     <use xlink:href="#SegoeUI-30" x="295.556641"/>
     <use xlink:href="#SegoeUI-b0" x="349.462891"/>
    </g>
   </g>
   <g id="text_13">
    <!-- Octágono -->
    <g style="fill: #1f2937" transform="translate(868.214581 286.918099) scale(0.11 -0.11)">
     <defs>
      <path id="SegoeUI-Bold-4f" d="M 2406 -78 
Q 1444 -78 837 548 
Q 231 1175 231 2181 
Q 231 3244 847 3900 
Q 1463 4556 2478 4556 
Q 3438 4556 4030 3928 
Q 4622 3300 4622 2272 
Q 4622 1216 4008 569 
Q 3394 -78 2406 -78 
z
M 2450 3688 
Q 1919 3688 1606 3289 
Q 1294 2891 1294 2234 
Q 1294 1569 1606 1181 
Q 1919 794 2425 794 
Q 2947 794 3253 1170 
Q 3559 1547 3559 2216 
Q 3559 2913 3262 3300 
Q 2966 3688 2450 3688 
z
" transform="scale(0.015625)"/>
      <path id="SegoeUI-Bold-63" d="M 2841 116 
Q 2506 -78 1875 -78 
Q 1138 -78 681 369 
Q 225 816 225 1522 
Q 225 2338 714 2808 
Q 1203 3278 2022 3278 
Q 2588 3278 2841 3128 
L 2841 2291 
Q 2531 2522 2150 2522 
Q 1725 2522 1476 2273 
Q 1228 2025 1228 1588 
Q 1228 1163 1465 920 
Q 1703 678 2119 678 
Q 2488 678 2841 909 
L 2841 116 
z
" transform="scale(0.015625)"/>
     </defs>
     <use xlink:href="#SegoeUI-Bold-4f"/>
     <use xlink:href="#SegoeUI-Bold-63" x="75.830078"/>
     <use xlink:href="#SegoeUI-Bold-74" x="123.828125"/>
     <use xlink:href="#SegoeUI-Bold-e1" x="162.744141"/>
     <use xlink:href="#SegoeUI-Bold-67" x="216.552734"/>
     <use xlink:href="#SegoeUI-Bold-6f" x="278.466797"/>
     <use xlink:href="#SegoeUI-Bold-6e" x="339.599609"/>
     <use xlink:href="#SegoeUI-Bold-6f" x="400.097656"/>
    </g>
   </g>
   <g id="text_14">
    <!-- n = 8 -->
    <g style="fill: #6b7280" transform="translate(883.068253 306.187321) scale(0.09 -0.09)">
     <use xlink:href="#SegoeUI-6e"/>
     <use xlink:href="#SegoeUI-20" x="56.591797"/>
     <use xlink:href="#SegoeUI-3d" x="83.984375"/>
     <use xlink:href="#SegoeUI-20" x="152.392578"/>
     <use xlink:href="#SegoeUI-38" x="179.785156"/>
    </g>
   </g>
   <g id="text_15">
    <!-- ∠ = 135° -->
    <g style="fill: #f59e0b" transform="translate(876.16216 325.456542) scale(0.09 -0.09)">
     <use xlink:href="#SegoeUI-2220"/>
     <use xlink:href="#SegoeUI-20" x="64.550781"/>
     <use xlink:href="#SegoeUI-3d" x="91.943359"/>
     <use xlink:href="#SegoeUI-20" x="160.351562"/>
     <use xlink:href="#SegoeUI-31" x="187.744141"/>
     <use xlink:href="#SegoeUI-33" x="241.650391"/>
     <use xlink:href="#SegoeUI-35" x="295.556641"/>
     <use xlink:href="#SegoeUI-b0" x="349.462891"/>
    </g>
   </g>
   <g id="text_16">
    <!-- Ángulo interior: -->
    <g style="fill: #374151" transform="translate(122.815329 356.287297) scale(0.1 -0.1)">
     <defs>
      <path id="SegoeUI-Bold-c1" d="M 4453 0 
L 3353 0 
L 3034 997 
L 1441 997 
L 1125 0 
L 31 0 
L 1663 4481 
L 2859 4481 
L 4453 0 
z
M 2803 1772 
L 2322 3278 
Q 2269 3447 2247 3681 
L 2222 3681 
Q 2206 3484 2144 3291 
L 1656 1772 
L 2803 1772 
z
M 3239 5932 
L 2260 4922 
L 1548 4922 
L 2360 5932 
L 3239 5932 
z
" transform="scale(0.015625)"/>
      <path id="SegoeUI-Bold-20" transform="scale(0.015625)"/>
      <path id="SegoeUI-Bold-3a" d="M 856 2209 
Q 613 2209 450 2357 
Q 288 2506 288 2725 
Q 288 2950 455 3094 
Q 622 3238 872 3238 
Q 1125 3238 1286 3092 
Q 1447 2947 1447 2725 
Q 1447 2497 1283 2353 
Q 1119 2209 856 2209 
z
M 856 -78 
Q 613 -78 450 72 
Q 288 222 288 441 
Q 288 666 455 809 
Q 622 953 872 953 
Q 1125 953 1286 808 
Q 1447 663 1447 441 
Q 1447 213 1283 67 
Q 1119 -78 856 -78 
z
" transform="scale(0.015625)"/>
     </defs>
     <use xlink:href="#SegoeUI-Bold-c1"/>
     <use xlink:href="#SegoeUI-Bold-6e" x="70.3125"/>
     <use xlink:href="#SegoeUI-Bold-67" x="130.810547"/>
     <use xlink:href="#SegoeUI-Bold-75" x="192.724609"/>
     <use xlink:href="#SegoeUI-Bold-6c" x="253.222656"/>
     <use xlink:href="#SegoeUI-Bold-6f" x="281.640625"/>
     <use xlink:href="#SegoeUI-Bold-20" x="342.773438"/>
     <use xlink:href="#SegoeUI-Bold-69" x="370.361328"/>
     <use xlink:href="#SegoeUI-Bold-6e" x="398.779297"/>
     <use xlink:href="#SegoeUI-Bold-74" x="459.277344"/>
     <use xlink:href="#SegoeUI-Bold-65" x="497.818359"/>
     <use xlink:href="#SegoeUI-Bold-72" x="551.919922"/>
     <use xlink:href="#SegoeUI-Bold-69" x="592.089844"/>
     <use xlink:href="#SegoeUI-Bold-6f" x="620.507812"/>
     <use xlink:href="#SegoeUI-Bold-72" x="681.640625"/>
     <use xlink:href="#SegoeUI-Bold-3a" x="725.435547"/>
    </g>
   </g>
   <g id="text_17">
    <!-- $\frac{(n-2) \cdot 180°}{n}$ -->
    <g style="fill: #1f2937" transform="translate(122.815329 379.410363) scale(0.11 -0.11)">
     <defs>
      <path id="DejaVuSans-28" d="M 1984 4856 
Q 1566 4138 1362 3434 
Q 1159 2731 1159 2009 
Q 1159 1288 1364 580 
Q 1569 -128 1984 -844 
L 1484 -844 
Q 1016 -109 783 600 
Q 550 1309 550 2009 
Q 550 2706 781 3412 
Q 1013 4119 1484 4856 
L 1984 4856 
z
" transform="scale(0.015625)"/>
      <path id="DejaVuSans-Oblique-6e" d="M 3566 2113 
L 3156 0 
L 2578 0 
L 2988 2091 
Q 3016 2238 3031 2350 
Q 3047 2463 3047 2528 
Q 3047 2791 2881 2937 
Q 2716 3084 2419 3084 
Q 1956 3084 1622 2776 
Q 1288 2469 1184 1941 
L 800 0 
L 225 0 
L 903 3500 
L 1478 3500 
L 1363 2950 
Q 1603 3253 1940 3418 
Q 2278 3584 2650 3584 
Q 3113 3584 3367 3334 
Q 3622 3084 3622 2631 
Q 3622 2519 3608 2391 
Q 3594 2263 3566 2113 
z
" transform="scale(0.015625)"/>
      <path id="DejaVuSans-2212" d="M 678 2272 
L 4684 2272 
L 4684 1741 
L 678 1741 
L 678 2272 
z
" transform="scale(0.015625)"/>
      <path id="DejaVuSans-32" d="M 1228 531 
L 3431 531 
L 3431 0 
L 469 0 
L 469 531 
Q 828 903 1448 1529 
Q 2069 2156 2228 2338 
Q 2531 2678 2651 2914 
Q 2772 3150 2772 3378 
Q 2772 3750 2511 3984 
Q 2250 4219 1831 4219 
Q 1534 4219 1204 4116 
Q 875 4013 500 3803 
L 500 4441 
Q 881 4594 1212 4672 
Q 1544 4750 1819 4750 
Q 2544 4750 2975 4387 
Q 3406 4025 3406 3419 
Q 3406 3131 3298 2873 
Q 3191 2616 2906 2266 
Q 2828 2175 2409 1742 
Q 1991 1309 1228 531 
z
" transform="scale(0.015625)"/>
      <path id="DejaVuSans-29" d="M 513 4856 
L 1013 4856 
Q 1481 4119 1714 3412 
Q 1947 2706 1947 2009 
Q 1947 1309 1714 600 
Q 1481 -109 1013 -844 
L 513 -844 
Q 928 -128 1133 580 
Q 1338 1288 1338 2009 
Q 1338 2731 1133 3434 
Q 928 4138 513 4856 
z
" transform="scale(0.015625)"/>
      <path id="DejaVuSans-22c5" d="M 684 2619 
L 1344 2619 
L 1344 1825 
L 684 1825 
L 684 2619 
z
" transform="scale(0.015625)"/>
      <path id="DejaVuSans-31" d="M 794 531 
L 1825 531 
L 1825 4091 
L 703 3866 
L 703 4441 
L 1819 4666 
L 2450 4666 
L 2450 531 
L 3481 531 
L 3481 0 
L 794 0 
L 794 531 
z
" transform="scale(0.015625)"/>
      <path id="DejaVuSans-38" d="M 2034 2216 
Q 1584 2216 1326 1975 
Q 1069 1734 1069 1313 
Q 1069 891 1326 650 
Q 1584 409 2034 409 
Q 2484 409 2743 651 
Q 3003 894 3003 1313 
Q 3003 1734 2745 1975 
Q 2488 2216 2034 2216 
z
M 1403 2484 
Q 997 2584 770 2862 
Q 544 3141 544 3541 
Q 544 4100 942 4425 
Q 1341 4750 2034 4750 
Q 2731 4750 3128 4425 
Q 3525 4100 3525 3541 
Q 3525 3141 3298 2862 
Q 3072 2584 2669 2484 
Q 3125 2378 3379 2068 
Q 3634 1759 3634 1313 
Q 3634 634 3220 271 
Q 2806 -91 2034 -91 
Q 1263 -91 848 271 
Q 434 634 434 1313 
Q 434 1759 690 2068 
Q 947 2378 1403 2484 
z
M 1172 3481 
Q 1172 3119 1398 2916 
Q 1625 2713 2034 2713 
Q 2441 2713 2670 2916 
Q 2900 3119 2900 3481 
Q 2900 3844 2670 4047 
Q 2441 4250 2034 4250 
Q 1625 4250 1398 4047 
Q 1172 3844 1172 3481 
z
" transform="scale(0.015625)"/>
      <path id="DejaVuSans-30" d="M 2034 4250 
Q 1547 4250 1301 3770 
Q 1056 3291 1056 2328 
Q 1056 1369 1301 889 
Q 1547 409 2034 409 
Q 2525 409 2770 889 
Q 3016 1369 3016 2328 
Q 3016 3291 2770 3770 
Q 2525 4250 2034 4250 
z
M 2034 4750 
Q 2819 4750 3233 4129 
Q 3647 3509 3647 2328 
Q 3647 1150 3233 529 
Q 2819 -91 2034 -91 
Q 1250 -91 836 529 
Q 422 1150 422 2328 
Q 422 3509 836 4129 
Q 1250 4750 2034 4750 
z
" transform="scale(0.015625)"/>
      <path id="DejaVuSans-b0" d="M 1600 4347 
Q 1350 4347 1178 4173 
Q 1006 4000 1006 3750 
Q 1006 3503 1178 3333 
Q 1350 3163 1600 3163 
Q 1850 3163 2022 3333 
Q 2194 3503 2194 3750 
Q 2194 3997 2020 4172 
Q 1847 4347 1600 4347 
z
M 1600 4750 
Q 1800 4750 1984 4673 
Q 2169 4597 2303 4453 
Q 2447 4313 2519 4134 
Q 2591 3956 2591 3750 
Q 2591 3338 2302 3052 
Q 2013 2766 1594 2766 
Q 1172 2766 890 3047 
Q 609 3328 609 3750 
Q 609 4169 896 4459 
Q 1184 4750 1600 4750 
z
" transform="scale(0.015625)"/>
     </defs>
     <use xlink:href="#DejaVuSans-28" transform="translate(0 53.8875) scale(0.7)"/>
     <use xlink:href="#DejaVuSans-Oblique-6e" transform="translate(27.30957 53.8875) scale(0.7)"/>
     <use xlink:href="#DejaVuSans-2212" transform="translate(85.3125 53.8875) scale(0.7)"/>
     <use xlink:href="#DejaVuSans-32" transform="translate(157.602539 53.8875) scale(0.7)"/>
     <use xlink:href="#DejaVuSans-29" transform="translate(202.138672 53.8875) scale(0.7)"/>
     <use xlink:href="#DejaVuSans-22c5" transform="translate(243.085938 53.8875) scale(0.7)"/>
     <use xlink:href="#DejaVuSans-31" transform="translate(278.974609 53.8875) scale(0.7)"/>
     <use xlink:href="#DejaVuSans-38" transform="translate(323.510742 53.8875) scale(0.7)"/>
     <use xlink:href="#DejaVuSans-30" transform="translate(368.046875 53.8875) scale(0.7)"/>
     <use xlink:href="#DejaVuSans-b0" transform="translate(412.583008 53.8875) scale(0.7)"/>
     <use xlink:href="#DejaVuSans-Oblique-6e" transform="translate(202 -25.79375) scale(0.7)"/>
     <path d="M 0 19.65625 
L 0 25.90625 
L 447.583008 25.90625 
L 447.583008 19.65625 
L 0 19.65625 
z
"/>
    </g>
   </g>
   <g id="text_18">
    <!-- Suma ángulos int.: -->
    <g style="fill: #374151" transform="translate(469.661317 356.287297) scale(0.1 -0.1)">
     <defs>
      <path id="SegoeUI-Bold-53" d="M 306 172 
L 306 1172 
Q 578 944 897 830 
Q 1216 716 1541 716 
Q 1731 716 1873 750 
Q 2016 784 2111 845 
Q 2206 906 2253 989 
Q 2300 1072 2300 1169 
Q 2300 1300 2225 1403 
Q 2150 1506 2020 1593 
Q 1891 1681 1712 1762 
Q 1534 1844 1328 1928 
Q 803 2147 545 2462 
Q 288 2778 288 3225 
Q 288 3575 428 3826 
Q 569 4078 811 4240 
Q 1053 4403 1372 4479 
Q 1691 4556 2047 4556 
Q 2397 4556 2667 4514 
Q 2938 4472 3166 4384 
L 3166 3450 
Q 3053 3528 2920 3587 
Q 2788 3647 2647 3686 
Q 2506 3725 2367 3744 
Q 2228 3763 2103 3763 
Q 1931 3763 1790 3730 
Q 1650 3697 1553 3637 
Q 1456 3578 1403 3495 
Q 1350 3413 1350 3309 
Q 1350 3197 1409 3108 
Q 1469 3019 1578 2939 
Q 1688 2859 1844 2782 
Q 2000 2706 2197 2625 
Q 2466 2513 2680 2386 
Q 2894 2259 3047 2100 
Q 3200 1941 3281 1736 
Q 3363 1531 3363 1259 
Q 3363 884 3220 629 
Q 3078 375 2834 217 
Q 2591 59 2267 -9 
Q 1944 -78 1584 -78 
Q 1216 -78 883 -15 
Q 550 47 306 172 
z
" transform="scale(0.015625)"/>
      <path id="SegoeUI-Bold-6d" d="M 5497 0 
L 4513 0 
L 4513 1825 
Q 4513 2522 4000 2522 
Q 3756 2522 3603 2312 
Q 3450 2103 3450 1791 
L 3450 0 
L 2463 0 
L 2463 1844 
Q 2463 2522 1959 2522 
Q 1706 2522 1554 2322 
Q 1403 2122 1403 1778 
L 1403 0 
L 416 0 
L 416 3200 
L 1403 3200 
L 1403 2700 
L 1416 2700 
Q 1569 2956 1845 3117 
Q 2122 3278 2450 3278 
Q 3128 3278 3378 2681 
Q 3744 3278 4453 3278 
Q 5497 3278 5497 1991 
L 5497 0 
z
" transform="scale(0.015625)"/>
      <path id="SegoeUI-Bold-73" d="M 206 84 
L 206 884 
Q 450 738 692 666 
Q 934 594 1150 594 
Q 1413 594 1564 666 
Q 1716 738 1716 884 
Q 1716 978 1647 1040 
Q 1578 1103 1470 1150 
Q 1363 1197 1234 1234 
Q 1106 1272 988 1319 
Q 797 1391 651 1473 
Q 506 1556 407 1665 
Q 309 1775 257 1919 
Q 206 2063 206 2259 
Q 206 2528 323 2722 
Q 441 2916 636 3039 
Q 831 3163 1082 3220 
Q 1334 3278 1606 3278 
Q 1819 3278 2037 3245 
Q 2256 3213 2469 3150 
L 2469 2388 
Q 2281 2497 2067 2551 
Q 1853 2606 1647 2606 
Q 1550 2606 1464 2589 
Q 1378 2572 1312 2539 
Q 1247 2506 1209 2454 
Q 1172 2403 1172 2338 
Q 1172 2250 1228 2187 
Q 1284 2125 1375 2079 
Q 1466 2034 1577 1998 
Q 1688 1963 1797 1925 
Q 1994 1856 2153 1775 
Q 2313 1694 2427 1584 
Q 2541 1475 2602 1328 
Q 2663 1181 2663 978 
Q 2663 694 2539 492 
Q 2416 291 2211 164 
Q 2006 38 1739 -20 
Q 1472 -78 1184 -78 
Q 656 -78 206 84 
z
" transform="scale(0.015625)"/>
      <path id="SegoeUI-Bold-2e" d="M 856 -78 
Q 613 -78 450 72 
Q 288 222 288 441 
Q 288 666 455 809 
Q 622 953 872 953 
Q 1125 953 1286 808 
Q 1447 663 1447 441 
Q 1447 213 1283 67 
Q 1119 -78 856 -78 
z
" transform="scale(0.015625)"/>
     </defs>
     <use xlink:href="#SegoeUI-Bold-53"/>
     <use xlink:href="#SegoeUI-Bold-75" x="56.054688"/>
     <use xlink:href="#SegoeUI-Bold-6d" x="116.552734"/>
     <use xlink:href="#SegoeUI-Bold-61" x="208.154297"/>
     <use xlink:href="#SegoeUI-Bold-20" x="261.962891"/>
     <use xlink:href="#SegoeUI-Bold-e1" x="289.550781"/>
     <use xlink:href="#SegoeUI-Bold-6e" x="343.359375"/>
     <use xlink:href="#SegoeUI-Bold-67" x="403.857422"/>
     <use xlink:href="#SegoeUI-Bold-75" x="465.771484"/>
     <use xlink:href="#SegoeUI-Bold-6c" x="526.269531"/>
     <use xlink:href="#SegoeUI-Bold-6f" x="554.6875"/>
     <use xlink:href="#SegoeUI-Bold-73" x="615.820312"/>
     <use xlink:href="#SegoeUI-Bold-20" x="659.814453"/>
     <use xlink:href="#SegoeUI-Bold-69" x="687.402344"/>
     <use xlink:href="#SegoeUI-Bold-6e" x="715.820312"/>
     <use xlink:href="#SegoeUI-Bold-74" x="776.318359"/>
     <use xlink:href="#SegoeUI-Bold-2e" x="815.234375"/>
     <use xlink:href="#SegoeUI-Bold-3a" x="842.333984"/>
    </g>
   </g>
   <g id="text_19">
    <!-- $(n-2) \cdot 180°$ -->
    <g style="fill: #1f2937" transform="translate(469.661317 379.410363) scale(0.11 -0.11)">
     <use xlink:href="#DejaVuSans-28" transform="translate(0 0.125)"/>
     <use xlink:href="#DejaVuSans-Oblique-6e" transform="translate(39.013672 0.125)"/>
     <use xlink:href="#DejaVuSans-2212" transform="translate(121.875 0.125)"/>
     <use xlink:href="#DejaVuSans-32" transform="translate(225.146484 0.125)"/>
     <use xlink:href="#DejaVuSans-29" transform="translate(288.769531 0.125)"/>
     <use xlink:href="#DejaVuSans-22c5" transform="translate(347.265625 0.125)"/>
     <use xlink:href="#DejaVuSans-31" transform="translate(398.535156 0.125)"/>
     <use xlink:href="#DejaVuSans-38" transform="translate(462.158203 0.125)"/>
     <use xlink:href="#DejaVuSans-30" transform="translate(525.78125 0.125)"/>
     <use xlink:href="#DejaVuSans-b0" transform="translate(589.404297 0.125)"/>
    </g>
   </g>
   <g id="text_20">
    <!-- Nº diagonales: -->
    <g style="fill: #374151" transform="translate(816.507305 356.287297) scale(0.1 -0.1)">
     <defs>
      <path id="SegoeUI-Bold-4e" d="M 4544 0 
L 3525 0 
L 1678 2816 
Q 1516 3063 1453 3188 
L 1441 3188 
Q 1466 2950 1466 2463 
L 1466 0 
L 513 0 
L 513 4481 
L 1600 4481 
L 3378 1753 
Q 3500 1569 3603 1388 
L 3616 1388 
Q 3591 1544 3591 2003 
L 3591 4481 
L 4544 4481 
L 4544 0 
z
" transform="scale(0.015625)"/>
      <path id="SegoeUI-Bold-ba" d="M 1434 2175 
Q 856 2175 537 2486 
Q 219 2797 219 3353 
Q 219 3913 558 4228 
Q 897 4544 1472 4544 
Q 2038 4544 2359 4226 
Q 2681 3909 2681 3397 
Q 2681 2822 2348 2498 
Q 2016 2175 1434 2175 
z
M 1453 4000 
Q 941 4000 941 3366 
Q 941 2719 1453 2719 
Q 1953 2719 1953 3372 
Q 1953 4000 1453 4000 
z
" transform="scale(0.015625)"/>
     </defs>
     <use xlink:href="#SegoeUI-Bold-4e"/>
     <use xlink:href="#SegoeUI-Bold-ba" x="79.003906"/>
     <use xlink:href="#SegoeUI-Bold-20" x="124.609375"/>
     <use xlink:href="#SegoeUI-Bold-64" x="152.197266"/>
     <use xlink:href="#SegoeUI-Bold-69" x="214.111328"/>
     <use xlink:href="#SegoeUI-Bold-61" x="242.529297"/>
     <use xlink:href="#SegoeUI-Bold-67" x="296.337891"/>
     <use xlink:href="#SegoeUI-Bold-6f" x="358.251953"/>
     <use xlink:href="#SegoeUI-Bold-6e" x="419.384766"/>
     <use xlink:href="#SegoeUI-Bold-61" x="479.882812"/>
     <use xlink:href="#SegoeUI-Bold-6c" x="533.691406"/>
     <use xlink:href="#SegoeUI-Bold-65" x="562.109375"/>
     <use xlink:href="#SegoeUI-Bold-73" x="616.210938"/>
     <use xlink:href="#SegoeUI-Bold-3a" x="660.205078"/>
    </g>
   </g>
   <g id="text_21">
    <!-- $\frac{n(n-3)}{2}$ -->
    <g style="fill: #1f2937" transform="translate(816.507305 379.410363) scale(0.11 -0.11)">
     <defs>
      <path id="DejaVuSans-33" d="M 2597 2516 
Q 3050 2419 3304 2112 
Q 3559 1806 3559 1356 
Q 3559 666 3084 287 
Q 2609 -91 1734 -91 
Q 1441 -91 1130 -33 
Q 819 25 488 141 
L 488 750 
Q 750 597 1062 519 
Q 1375 441 1716 441 
Q 2309 441 2620 675 
Q 2931 909 2931 1356 
Q 2931 1769 2642 2001 
Q 2353 2234 1838 2234 
L 1294 2234 
L 1294 2753 
L 1863 2753 
Q 2328 2753 2575 2939 
Q 2822 3125 2822 3475 
Q 2822 3834 2567 4026 
Q 2313 4219 1838 4219 
Q 1578 4219 1281 4162 
Q 984 4106 628 3988 
L 628 4550 
Q 988 4650 1302 4700 
Q 1616 4750 1894 4750 
Q 2613 4750 3031 4423 
Q 3450 4097 3450 3541 
Q 3450 3153 3228 2886 
Q 3006 2619 2597 2516 
z
" transform="scale(0.015625)"/>
     </defs>
     <use xlink:href="#DejaVuSans-Oblique-6e" transform="translate(0 53.8875) scale(0.7)"/>
     <use xlink:href="#DejaVuSans-28" transform="translate(44.365234 53.8875) scale(0.7)"/>
     <use xlink:href="#DejaVuSans-Oblique-6e" transform="translate(71.674805 53.8875) scale(0.7)"/>
     <use xlink:href="#DejaVuSans-2212" transform="translate(129.677734 53.8875) scale(0.7)"/>
     <use xlink:href="#DejaVuSans-33" transform="translate(201.967773 53.8875) scale(0.7)"/>
     <use xlink:href="#DejaVuSans-29" transform="translate(246.503906 53.8875) scale(0.7)"/>
     <use xlink:href="#DejaVuSans-32" transform="translate(115 -38.546875) scale(0.7)"/>
     <path d="M 0 19.65625 
L 0 25.90625 
L 273.813477 25.90625 
L 273.813477 19.65625 
L 0 19.65625 
z
"/>
    </g>
   </g>
   <g id="text_22">
    <!-- Radio -->
    <g style="fill: #6b7280" transform="translate(84.276886 57.983847) scale(0.09 -0.09)">
     <defs>
      <path id="SegoeUI-52" d="M 3800 0 
L 3175 0 
L 2425 1256 
Q 2322 1431 2225 1554 
Q 2128 1678 2026 1756 
Q 1925 1834 1808 1870 
Q 1691 1906 1544 1906 
L 1113 1906 
L 1113 0 
L 588 0 
L 588 4481 
L 1925 4481 
Q 2219 4481 2467 4407 
Q 2716 4334 2898 4184 
Q 3081 4034 3184 3811 
Q 3288 3588 3288 3288 
Q 3288 3053 3217 2858 
Q 3147 2663 3017 2509 
Q 2888 2356 2705 2248 
Q 2522 2141 2294 2081 
L 2294 2069 
Q 2406 2019 2489 1955 
Q 2572 1891 2647 1803 
Q 2722 1716 2795 1605 
Q 2869 1494 2959 1347 
L 3800 0 
z
M 1113 4006 
L 1113 2381 
L 1825 2381 
Q 2022 2381 2189 2440 
Q 2356 2500 2478 2611 
Q 2600 2722 2669 2883 
Q 2738 3044 2738 3244 
Q 2738 3603 2505 3804 
Q 2272 4006 1831 4006 
L 1113 4006 
z
" transform="scale(0.015625)"/>
      <path id="SegoeUI-61" d="M 2809 0 
L 2297 0 
L 2297 500 
L 2284 500 
Q 1950 -75 1300 -75 
Q 822 -75 551 178 
Q 281 431 281 850 
Q 281 1747 1338 1894 
L 2297 2028 
Q 2297 2844 1638 2844 
Q 1059 2844 594 2450 
L 594 2975 
Q 1066 3275 1681 3275 
Q 2809 3275 2809 2081 
L 2809 0 
z
M 2297 1619 
L 1525 1513 
Q 1169 1463 987 1336 
Q 806 1209 806 888 
Q 806 653 973 504 
Q 1141 356 1419 356 
Q 1800 356 2048 623 
Q 2297 891 2297 1300 
L 2297 1619 
z
" transform="scale(0.015625)"/>
      <path id="SegoeUI-64" d="M 3250 0 
L 2738 0 
L 2738 544 
L 2725 544 
Q 2369 -75 1625 -75 
Q 1022 -75 661 354 
Q 300 784 300 1525 
Q 300 2319 700 2797 
Q 1100 3275 1766 3275 
Q 2425 3275 2725 2756 
L 2738 2756 
L 2738 4738 
L 3250 4738 
L 3250 0 
z
M 2738 1447 
L 2738 1919 
Q 2738 2306 2481 2575 
Q 2225 2844 1831 2844 
Q 1363 2844 1094 2500 
Q 825 2156 825 1550 
Q 825 997 1083 676 
Q 1341 356 1775 356 
Q 2203 356 2470 665 
Q 2738 975 2738 1447 
z
" transform="scale(0.015625)"/>
      <path id="SegoeUI-69" d="M 781 4013 
Q 644 4013 547 4106 
Q 450 4200 450 4344 
Q 450 4488 547 4583 
Q 644 4678 781 4678 
Q 922 4678 1020 4583 
Q 1119 4488 1119 4344 
Q 1119 4206 1020 4109 
Q 922 4013 781 4013 
z
M 1031 0 
L 519 0 
L 519 3200 
L 1031 3200 
L 1031 0 
z
" transform="scale(0.015625)"/>
      <path id="SegoeUI-6f" d="M 1856 -75 
Q 1147 -75 723 373 
Q 300 822 300 1563 
Q 300 2369 740 2822 
Q 1181 3275 1931 3275 
Q 2647 3275 3048 2834 
Q 3450 2394 3450 1613 
Q 3450 847 3017 386 
Q 2584 -75 1856 -75 
z
M 1894 2844 
Q 1400 2844 1112 2508 
Q 825 2172 825 1581 
Q 825 1013 1115 684 
Q 1406 356 1894 356 
Q 2391 356 2658 678 
Q 2925 1000 2925 1594 
Q 2925 2194 2658 2519 
Q 2391 2844 1894 2844 
z
" transform="scale(0.015625)"/>
     </defs>
     <use xlink:href="#SegoeUI-52"/>
     <use xlink:href="#SegoeUI-61" x="59.814453"/>
     <use xlink:href="#SegoeUI-64" x="110.693359"/>
     <use xlink:href="#SegoeUI-69" x="169.580078"/>
     <use xlink:href="#SegoeUI-6f" x="193.798828"/>
    </g>
   </g>
   <g id="text_23">
    <!-- Apotema -->
    <g style="fill: #9ca3af" transform="translate(238.430658 57.983847) scale(0.09 -0.09)">
     <defs>
      <path id="SegoeUI-41" d="M 4056 0 
L 3475 0 
L 3000 1256 
L 1100 1256 
L 653 0 
L 69 0 
L 1788 4481 
L 2331 4481 
L 4056 0 
z
M 2828 1728 
L 2125 3638 
Q 2091 3731 2056 3938 
L 2044 3938 
Q 2013 3747 1972 3638 
L 1275 1728 
L 2828 1728 
z
" transform="scale(0.015625)"/>
      <path id="SegoeUI-70" d="M 1044 463 
L 1031 463 
L 1031 -1472 
L 519 -1472 
L 519 3200 
L 1031 3200 
L 1031 2638 
L 1044 2638 
Q 1422 3275 2150 3275 
Q 2769 3275 3116 2845 
Q 3463 2416 3463 1694 
Q 3463 891 3072 408 
Q 2681 -75 2003 -75 
Q 1381 -75 1044 463 
z
M 1031 1753 
L 1031 1306 
Q 1031 909 1289 632 
Q 1547 356 1944 356 
Q 2409 356 2673 712 
Q 2938 1069 2938 1703 
Q 2938 2238 2691 2541 
Q 2444 2844 2022 2844 
Q 1575 2844 1303 2533 
Q 1031 2222 1031 1753 
z
" transform="scale(0.015625)"/>
      <path id="SegoeUI-74" d="M 2003 31 
Q 1822 -69 1525 -69 
Q 684 -69 684 869 
L 684 2763 
L 134 2763 
L 134 3200 
L 684 3200 
L 684 3981 
L 1197 4147 
L 1197 3200 
L 2003 3200 
L 2003 2763 
L 1197 2763 
L 1197 959 
Q 1197 638 1306 500 
Q 1416 363 1669 363 
Q 1863 363 2003 469 
L 2003 31 
z
" transform="scale(0.015625)"/>
      <path id="SegoeUI-65" d="M 3091 1472 
L 831 1472 
Q 844 938 1119 647 
Q 1394 356 1875 356 
Q 2416 356 2869 713 
L 2869 231 
Q 2447 -75 1753 -75 
Q 1075 -75 687 361 
Q 300 797 300 1588 
Q 300 2334 723 2804 
Q 1147 3275 1775 3275 
Q 2403 3275 2747 2869 
Q 3091 2463 3091 1741 
L 3091 1472 
z
M 2566 1906 
Q 2563 2350 2352 2597 
Q 2141 2844 1766 2844 
Q 1403 2844 1150 2584 
Q 897 2325 838 1906 
L 2566 1906 
z
" transform="scale(0.015625)"/>
      <path id="SegoeUI-6d" d="M 5063 0 
L 4550 0 
L 4550 1838 
Q 4550 2369 4386 2606 
Q 4222 2844 3834 2844 
Q 3506 2844 3276 2544 
Q 3047 2244 3047 1825 
L 3047 0 
L 2534 0 
L 2534 1900 
Q 2534 2844 1806 2844 
Q 1469 2844 1250 2561 
Q 1031 2278 1031 1825 
L 1031 0 
L 519 0 
L 519 3200 
L 1031 3200 
L 1031 2694 
L 1044 2694 
Q 1384 3275 2038 3275 
Q 2366 3275 2609 3092 
Q 2853 2909 2944 2613 
Q 3300 3275 4006 3275 
Q 5063 3275 5063 1972 
L 5063 0 
z
" transform="scale(0.015625)"/>
     </defs>
     <use xlink:href="#SegoeUI-41"/>
     <use xlink:href="#SegoeUI-70" x="64.501953"/>
     <use xlink:href="#SegoeUI-6f" x="123.291016"/>
     <use xlink:href="#SegoeUI-74" x="181.884766"/>
     <use xlink:href="#SegoeUI-65" x="215.021484"/>
     <use xlink:href="#SegoeUI-6d" x="267.316406"/>
     <use xlink:href="#SegoeUI-61" x="353.449219"/>
    </g>
   </g>
   <g id="text_24">
    <!-- Polígonos Regulares -->
    <g style="fill: #2c2f33" transform="translate(441.575072 17.564375) scale(0.14 -0.14)">
     <defs>
      <path id="SegoeUI-Bold-ed" d="M 1403 0 
L 416 0 
L 416 3200 
L 1403 3200 
L 1403 0 
z
M 1911 4716 
L 932 3706 
L 220 3706 
L 1032 4716 
L 1911 4716 
z
" transform="scale(0.015625)"/>
      <path id="SegoeUI-Bold-52" d="M 4272 0 
L 3113 0 
L 2416 1153 
Q 2338 1284 2266 1387 
Q 2194 1491 2120 1564 
Q 2047 1638 1967 1677 
Q 1888 1716 1794 1716 
L 1522 1716 
L 1522 0 
L 513 0 
L 513 4481 
L 2113 4481 
Q 3744 4481 3744 3263 
Q 3744 3028 3672 2829 
Q 3600 2631 3469 2472 
Q 3338 2313 3152 2197 
Q 2966 2081 2738 2016 
L 2738 2003 
Q 2838 1972 2931 1901 
Q 3025 1831 3112 1737 
Q 3200 1644 3279 1536 
Q 3359 1428 3425 1325 
L 4272 0 
z
M 1522 3725 
L 1522 2478 
L 1959 2478 
Q 2284 2478 2481 2666 
Q 2681 2856 2681 3138 
Q 2681 3725 1978 3725 
L 1522 3725 
z
" transform="scale(0.015625)"/>
     </defs>
     <use xlink:href="#SegoeUI-Bold-50"/>
     <use xlink:href="#SegoeUI-Bold-6f" x="58.425781"/>
     <use xlink:href="#SegoeUI-Bold-6c" x="119.558594"/>
     <use xlink:href="#SegoeUI-Bold-ed" x="147.976562"/>
     <use xlink:href="#SegoeUI-Bold-67" x="176.394531"/>
     <use xlink:href="#SegoeUI-Bold-6f" x="238.308594"/>
     <use xlink:href="#SegoeUI-Bold-6e" x="299.441406"/>
     <use xlink:href="#SegoeUI-Bold-6f" x="359.939453"/>
     <use xlink:href="#SegoeUI-Bold-73" x="421.072266"/>
     <use xlink:href="#SegoeUI-Bold-20" x="465.066406"/>
     <use xlink:href="#SegoeUI-Bold-52" x="492.654297"/>
     <use xlink:href="#SegoeUI-Bold-65" x="555.4375"/>
     <use xlink:href="#SegoeUI-Bold-67" x="609.539062"/>
     <use xlink:href="#SegoeUI-Bold-75" x="671.453125"/>
     <use xlink:href="#SegoeUI-Bold-6c" x="731.951172"/>
     <use xlink:href="#SegoeUI-Bold-61" x="760.369141"/>
     <use xlink:href="#SegoeUI-Bold-72" x="814.177734"/>
     <use xlink:href="#SegoeUI-Bold-65" x="853.597656"/>
     <use xlink:href="#SegoeUI-Bold-73" x="907.699219"/>
    </g>
   </g>
  </g>
 </g>
 <defs>
  <clipPath id="pb96516ca1b">
   <rect x="7.2" y="32.564375" width="1001.99952" height="385.384431"/>
  </clipPath>
 </defs>
</svg>
