<?xml version="1.0" encoding="utf-8" standalone="no"?>
<!DOCTYPE svg PUBLIC "-//W3C//DTD SVG 1.1//EN"
  "http://www.w3.org/Graphics/SVG/1.1/DTD/svg11.dtd">
<svg xmlns:xlink="http://www.w3.org/1999/xlink" width="728.39952pt" height="583.764009pt" viewBox="0 0 728.39952 583.764009" xmlns="http://www.w3.org/2000/svg" version="1.1">
 <metadata>
  <rdf:RDF xmlns:dc="http://purl.org/dc/elements/1.1/" xmlns:cc="http://creativecommons.org/ns#" xmlns:rdf="http://www.w3.org/1999/02/22-rdf-syntax-ns#">
   <cc:Work>
    <dc:type rdf:resource="http://purl.org/dc/dcmitype/StillImage"/>
    <dc:date>2026-04-11T16:11:40.276453</dc:date>
    <dc:format>image/svg+xml</dc:format>
    <dc:creator>
     <cc:Agent>
      <dc:title>Matplotlib v3.8.4, https://matplotlib.org/</dc:title>
     </cc:Agent>
    </dc:creator>
   </cc:Work>
  </rdf:RDF>
 </metadata>
 <defs>
  <style type="text/css">*{stroke-linejoin: round; stroke-linecap: butt}</style>
 </defs>
 <g id="figure_1">
  <g id="patch_1">
   <path d="M 0 583.764009 
L 728.39952 583.764009 
L 728.39952 0 
L 0 0 
z
" style="fill: #ffffff"/>
  </g>
  <g id="axes_1">
   <g id="patch_2">
    <path d="M 619.199589 338.564169 
L 347.199771 134.564306 
L 75.199954 338.564169 
L 347.199771 542.564032 
z
" clip-path="url(#p91c2d282f1)" style="fill: #39c5bb; opacity: 0.2; stroke: #39c5bb; stroke-width: 2.5; stroke-linejoin: miter"/>
   </g>
   <g id="patch_3">
    <path d="M 347.199771 338.564169 
L 619.199589 338.564169 
L 347.199771 134.564306 
z
" clip-path="url(#p91c2d282f1)" style="fill: #4b5563; opacity: 0.15"/>
   </g>
   <g id="line2d_1">
    <path d="M 75.199954 338.564169 
L 619.199589 338.564169 
" clip-path="url(#p91c2d282f1)" style="fill: none; stroke: #e12885; stroke-width: 2.5; stroke-linecap: square"/>
   </g>
   <g id="line2d_2">
    <path d="M 347.199771 542.564032 
L 347.199771 134.564306 
" clip-path="url(#p91c2d282f1)" style="fill: none; stroke: #1f2937; stroke-width: 2.5; stroke-linecap: square"/>
   </g>
   <g id="line2d_3">
    <path d="M 364.19976 338.564169 
L 364.19976 321.564181 
L 347.199771 321.564181 
" clip-path="url(#p91c2d282f1)" style="fill: none; stroke: #374151; stroke-width: 1.5; stroke-linecap: square"/>
   </g>
   <g id="line2d_4">
    <defs>
     <path id="mc3bd7c8146" d="M 0 4 
C 1.060812 4 2.078319 3.578535 2.828427 2.828427 
C 3.578535 2.078319 4 1.060812 4 0 
C 4 -1.060812 3.578535 -2.078319 2.828427 -2.828427 
C 2.078319 -3.578535 1.060812 -4 0 -4 
C -1.060812 -4 -2.078319 -3.578535 -2.828427 -2.828427 
C -3.578535 -2.078319 -4 -1.060812 -4 0 
C -4 1.060812 -3.578535 2.078319 -2.828427 2.828427 
C -2.078319 3.578535 -1.060812 4 0 4 
z
" style="stroke: #374151"/>
    </defs>
    <g clip-path="url(#p91c2d282f1)">
     <use xlink:href="#mc3bd7c8146" x="347.199771" y="338.564169" style="fill: #374151; stroke: #374151"/>
    </g>
   </g>
   <g id="line2d_5">
    <defs>
     <path id="maf92c000ea" d="M 0 3.5 
C 0.928211 3.5 1.81853 3.131218 2.474874 2.474874 
C 3.131218 1.81853 3.5 0.928211 3.5 0 
C 3.5 -0.928211 3.131218 -1.81853 2.474874 -2.474874 
C 1.81853 -3.131218 0.928211 -3.5 0 -3.5 
C -0.928211 -3.5 -1.81853 -3.131218 -2.474874 -2.474874 
C -3.131218 -1.81853 -3.5 -0.928211 -3.5 0 
C -3.5 0.928211 -3.131218 1.81853 -2.474874 2.474874 
C -1.81853 3.131218 -0.928211 3.5 0 3.5 
z
" style="stroke: #39c5bb"/>
    </defs>
    <g clip-path="url(#p91c2d282f1)">
     <use xlink:href="#maf92c000ea" x="619.199589" y="338.564169" style="fill: #39c5bb; stroke: #39c5bb"/>
    </g>
   </g>
   <g id="line2d_6">
    <g clip-path="url(#p91c2d282f1)">
     <use xlink:href="#maf92c000ea" x="347.199771" y="134.564306" style="fill: #39c5bb; stroke: #39c5bb"/>
    </g>
   </g>
   <g id="line2d_7">
    <g clip-path="url(#p91c2d282f1)">
     <use xlink:href="#maf92c000ea" x="75.199954" y="338.564169" style="fill: #39c5bb; stroke: #39c5bb"/>
    </g>
   </g>
   <g id="line2d_8">
    <g clip-path="url(#p91c2d282f1)">
     <use xlink:href="#maf92c000ea" x="347.199771" y="542.564032" style="fill: #39c5bb; stroke: #39c5bb"/>
    </g>
   </g>
   <g id="line2d_9">
    <defs>
     <path id="maea9b663a4" d="M 0 5 
L 0 -5 
" style="stroke: #4b5563; stroke-width: 2"/>
    </defs>
    <g clip-path="url(#p91c2d282f1)">
     <use xlink:href="#maea9b663a4" x="483.19968" y="236.564238" style="fill: #4b5563; stroke: #4b5563; stroke-width: 2"/>
    </g>
   </g>
   <g id="line2d_10">
    <g clip-path="url(#p91c2d282f1)">
     <use xlink:href="#maea9b663a4" x="211.199863" y="236.564238" style="fill: #4b5563; stroke: #4b5563; stroke-width: 2"/>
    </g>
   </g>
   <g id="line2d_11">
    <g clip-path="url(#p91c2d282f1)">
     <use xlink:href="#maea9b663a4" x="211.199863" y="440.564101" style="fill: #4b5563; stroke: #4b5563; stroke-width: 2"/>
    </g>
   </g>
   <g id="line2d_12">
    <g clip-path="url(#p91c2d282f1)">
     <use xlink:href="#maea9b663a4" x="483.19968" y="440.564101" style="fill: #4b5563; stroke: #4b5563; stroke-width: 2"/>
    </g>
   </g>
   <g id="text_1">
    <g id="patch_4">
     <path d="M 360.799762 365.994153 
L 369.140856 365.994153 
Q 370.240856 365.994153 370.240856 364.894153 
L 370.240856 354.220716 
Q 370.240856 353.120716 369.140856 353.120716 
L 360.799762 353.120716 
Q 359.699762 353.120716 359.699762 354.220716 
L 359.699762 364.894153 
Q 359.699762 365.994153 360.799762 365.994153 
z
" style="fill: #ffffff; opacity: 0.8"/>
    </g>
    <!-- O -->
    <g style="fill: #2c2f33" transform="translate(360.799762 362.364153) scale(0.11 -0.11)">
     <defs>
      <path id="SegoeUI-Bold-4f" d="M 2406 -78 
Q 1444 -78 837 548 
Q 231 1175 231 2181 
Q 231 3244 847 3900 
Q 1463 4556 2478 4556 
Q 3438 4556 4030 3928 
Q 4622 3300 4622 2272 
Q 4622 1216 4008 569 
Q 3394 -78 2406 -78 
z
M 2450 3688 
Q 1919 3688 1606 3289 
Q 1294 2891 1294 2234 
Q 1294 1569 1606 1181 
Q 1919 794 2425 794 
Q 2947 794 3253 1170 
Q 3559 1547 3559 2216 
Q 3559 2913 3262 3300 
Q 2966 3688 2450 3688 
z
" transform="scale(0.015625)"/>
     </defs>
     <use xlink:href="#SegoeUI-Bold-4f"/>
    </g>
   </g>
   <g id="text_2">
    <g id="patch_5">
     <path d="M 632.799579 342.194169 
L 640.533954 342.194169 
Q 641.633954 342.194169 641.633954 341.094169 
L 641.633954 330.420732 
Q 641.633954 329.320732 640.533954 329.320732 
L 632.799579 329.320732 
Q 631.699579 329.320732 631.699579 330.420732 
L 631.699579 341.094169 
Q 631.699579 342.194169 632.799579 342.194169 
z
" style="fill: #ffffff; opacity: 0.8"/>
    </g>
    <!-- A -->
    <g style="fill: #2c2f33" transform="translate(632.799579 338.564169) scale(0.11 -0.11)">
     <defs>
      <path id="SegoeUI-Bold-41" d="M 4453 0 
L 3353 0 
L 3034 997 
L 1441 997 
L 1125 0 
L 31 0 
L 1663 4481 
L 2859 4481 
L 4453 0 
z
M 2803 1772 
L 2322 3278 
Q 2269 3447 2247 3681 
L 2222 3681 
Q 2206 3484 2144 3291 
L 1656 1772 
L 2803 1772 
z
" transform="scale(0.015625)"/>
     </defs>
     <use xlink:href="#SegoeUI-Bold-41"/>
    </g>
   </g>
   <g id="text_3">
    <g id="patch_6">
     <path d="M 360.799762 124.594316 
L 367.851794 124.594316 
Q 368.951794 124.594316 368.951794 123.494316 
L 368.951794 112.820878 
Q 368.951794 111.720878 367.851794 111.720878 
L 360.799762 111.720878 
Q 359.699762 111.720878 359.699762 112.820878 
L 359.699762 123.494316 
Q 359.699762 124.594316 360.799762 124.594316 
z
" style="fill: #ffffff; opacity: 0.8"/>
    </g>
    <!-- B -->
    <g style="fill: #2c2f33" transform="translate(360.799762 120.964316) scale(0.11 -0.11)">
     <defs>
      <path id="SegoeUI-Bold-42" d="M 513 0 
L 513 4481 
L 2144 4481 
Q 2894 4481 3297 4206 
Q 3700 3931 3700 3431 
Q 3700 3069 3454 2797 
Q 3209 2525 2828 2419 
L 2828 2406 
Q 3306 2347 3592 2053 
Q 3878 1759 3878 1338 
Q 3878 722 3437 361 
Q 2997 0 2234 0 
L 513 0 
z
M 1522 3738 
L 1522 2675 
L 1966 2675 
Q 2278 2675 2458 2826 
Q 2638 2978 2638 3244 
Q 2638 3738 1900 3738 
L 1522 3738 
z
M 1522 1925 
L 1522 744 
L 2069 744 
Q 2419 744 2617 906 
Q 2816 1069 2816 1350 
Q 2816 1619 2620 1772 
Q 2425 1925 2075 1925 
L 1522 1925 
z
" transform="scale(0.015625)"/>
     </defs>
     <use xlink:href="#SegoeUI-Bold-42"/>
    </g>
   </g>
   <g id="text_4">
    <g id="patch_7">
     <path d="M 47.999973 342.194169 
L 54.86466 342.194169 
Q 55.96466 342.194169 55.96466 341.094169 
L 55.96466 330.420732 
Q 55.96466 329.320732 54.86466 329.320732 
L 47.999973 329.320732 
Q 46.899973 329.320732 46.899973 330.420732 
L 46.899973 341.094169 
Q 46.899973 342.194169 47.999973 342.194169 
z
" style="fill: #ffffff; opacity: 0.8"/>
    </g>
    <!-- C -->
    <g style="fill: #2c2f33" transform="translate(47.999973 338.564169) scale(0.11 -0.11)">
     <defs>
      <path id="SegoeUI-Bold-43" d="M 3725 159 
Q 3234 -78 2444 -78 
Q 1413 -78 822 528 
Q 231 1134 231 2144 
Q 231 3219 895 3887 
Q 1559 4556 2619 4556 
Q 3275 4556 3725 4391 
L 3725 3419 
Q 3275 3688 2700 3688 
Q 2069 3688 1681 3291 
Q 1294 2894 1294 2216 
Q 1294 1566 1659 1180 
Q 2025 794 2644 794 
Q 3234 794 3725 1081 
L 3725 159 
z
" transform="scale(0.015625)"/>
     </defs>
     <use xlink:href="#SegoeUI-Bold-43"/>
    </g>
   </g>
   <g id="text_5">
    <g id="patch_8">
     <path d="M 360.799762 559.794023 
L 368.910544 559.794023 
Q 370.010544 559.794023 370.010544 558.694023 
L 370.010544 548.020585 
Q 370.010544 546.920585 368.910544 546.920585 
L 360.799762 546.920585 
Q 359.699762 546.920585 359.699762 548.020585 
L 359.699762 558.694023 
Q 359.699762 559.794023 360.799762 559.794023 
z
" style="fill: #ffffff; opacity: 0.8"/>
    </g>
    <!-- D -->
    <g style="fill: #2c2f33" transform="translate(360.799762 556.164023) scale(0.11 -0.11)">
     <defs>
      <path id="SegoeUI-Bold-44" d="M 513 0 
L 513 4481 
L 2100 4481 
Q 4488 4481 4488 2297 
Q 4488 1250 3836 625 
Q 3184 0 2100 0 
L 513 0 
z
M 1522 3659 
L 1522 819 
L 2022 819 
Q 2678 819 3051 1212 
Q 3425 1606 3425 2284 
Q 3425 2925 3054 3292 
Q 2684 3659 2016 3659 
L 1522 3659 
z
" transform="scale(0.015625)"/>
     </defs>
     <use xlink:href="#SegoeUI-Bold-44"/>
    </g>
   </g>
   <g id="text_6">
    <!-- L -->
    <g style="fill: #39c5bb" transform="translate(503.599666 222.964247) scale(0.12 -0.12)">
     <defs>
      <path id="SegoeUI-Bold-4c" d="M 3181 0 
L 513 0 
L 513 4481 
L 1522 4481 
L 1522 819 
L 3181 819 
L 3181 0 
z
" transform="scale(0.015625)"/>
     </defs>
     <use xlink:href="#SegoeUI-Bold-4c"/>
    </g>
   </g>
   <g id="text_7">
    <!-- D/2 -->
    <g style="fill: #e12885" transform="translate(474.23468 365.764151) scale(0.11 -0.11)">
     <defs>
      <path id="SegoeUI-44" d="M 588 0 
L 588 4481 
L 1825 4481 
Q 4194 4481 4194 2297 
Q 4194 1259 3536 629 
Q 2878 0 1775 0 
L 588 0 
z
M 1113 4006 
L 1113 475 
L 1781 475 
Q 2663 475 3153 947 
Q 3644 1419 3644 2284 
Q 3644 4006 1813 4006 
L 1113 4006 
z
" transform="scale(0.015625)"/>
      <path id="SegoeUI-2f" d="M 2541 4481 
L 391 -744 
L -88 -744 
L 2056 4481 
L 2541 4481 
z
" transform="scale(0.015625)"/>
      <path id="SegoeUI-32" d="M 2413 3306 
Q 2413 3513 2348 3666 
Q 2284 3819 2173 3920 
Q 2063 4022 1913 4072 
Q 1763 4122 1588 4122 
Q 1438 4122 1294 4081 
Q 1150 4041 1014 3969 
Q 878 3897 751 3797 
Q 625 3697 516 3575 
L 516 4125 
Q 731 4334 998 4445 
Q 1266 4556 1650 4556 
Q 1925 4556 2159 4476 
Q 2394 4397 2566 4244 
Q 2738 4091 2836 3866 
Q 2934 3641 2934 3350 
Q 2934 3084 2873 2868 
Q 2813 2653 2689 2462 
Q 2566 2272 2378 2097 
Q 2191 1922 1938 1741 
Q 1622 1516 1417 1356 
Q 1213 1197 1092 1058 
Q 972 919 923 780 
Q 875 641 875 459 
L 3106 459 
L 3106 0 
L 341 0 
L 341 222 
Q 341 509 403 728 
Q 466 947 609 1144 
Q 753 1341 986 1537 
Q 1219 1734 1556 1981 
Q 1800 2156 1964 2315 
Q 2128 2475 2228 2634 
Q 2328 2794 2370 2958 
Q 2413 3122 2413 3306 
z
" transform="scale(0.015625)"/>
     </defs>
     <use xlink:href="#SegoeUI-44"/>
     <use xlink:href="#SegoeUI-2f" x="70.117188"/>
     <use xlink:href="#SegoeUI-32" x="109.082031"/>
    </g>
   </g>
   <g id="text_8">
    <!-- D/2 -->
    <g style="fill: #e12885" transform="translate(202.234863 365.764151) scale(0.11 -0.11)">
     <use xlink:href="#SegoeUI-44"/>
     <use xlink:href="#SegoeUI-2f" x="70.117188"/>
     <use xlink:href="#SegoeUI-32" x="109.082031"/>
    </g>
   </g>
   <g id="text_9">
    <!-- d/2 -->
    <g style="fill: #1f2937" transform="translate(367.599758 236.564238) scale(0.11 -0.11)">
     <defs>
      <path id="SegoeUI-64" d="M 3250 0 
L 2738 0 
L 2738 544 
L 2725 544 
Q 2369 -75 1625 -75 
Q 1022 -75 661 354 
Q 300 784 300 1525 
Q 300 2319 700 2797 
Q 1100 3275 1766 3275 
Q 2425 3275 2725 2756 
L 2738 2756 
L 2738 4738 
L 3250 4738 
L 3250 0 
z
M 2738 1447 
L 2738 1919 
Q 2738 2306 2481 2575 
Q 2225 2844 1831 2844 
Q 1363 2844 1094 2500 
Q 825 2156 825 1550 
Q 825 997 1083 676 
Q 1341 356 1775 356 
Q 2203 356 2470 665 
Q 2738 975 2738 1447 
z
" transform="scale(0.015625)"/>
     </defs>
     <use xlink:href="#SegoeUI-64"/>
     <use xlink:href="#SegoeUI-2f" x="58.886719"/>
     <use xlink:href="#SegoeUI-32" x="97.851562"/>
    </g>
   </g>
   <g id="text_10">
    <!-- d/2 -->
    <g style="fill: #1f2937" transform="translate(367.599758 440.564101) scale(0.11 -0.11)">
     <use xlink:href="#SegoeUI-64"/>
     <use xlink:href="#SegoeUI-2f" x="58.886719"/>
     <use xlink:href="#SegoeUI-32" x="97.851562"/>
    </g>
   </g>
   <g id="text_11">
    <!-- L² = (D/2)² + (d/2)² -->
    <g style="fill: #4b5563" transform="translate(449.199703 270.564215) scale(0.09 -0.09)">
     <defs>
      <path id="SegoeUI-Italic-4c" d="M 2553 0 
L 231 0 
L 1178 4481 
L 1722 4481 
L 872 488 
L 2656 488 
L 2553 0 
z
" transform="scale(0.015625)"/>
      <path id="SegoeUI-Italic-b2" d="M 2325 2785 
L 594 2785 
L 647 3041 
Q 681 3204 767 3333 
Q 853 3463 973 3574 
Q 1094 3685 1236 3780 
Q 1378 3876 1520 3968 
Q 1663 4060 1795 4150 
Q 1928 4241 2031 4344 
Q 2134 4448 2196 4566 
Q 2259 4685 2259 4829 
Q 2259 4969 2164 5044 
Q 2069 5119 1900 5119 
Q 1525 5119 1156 4801 
L 1253 5266 
Q 1566 5504 2038 5504 
Q 2191 5504 2312 5458 
Q 2434 5413 2520 5333 
Q 2606 5254 2653 5141 
Q 2700 5029 2700 4898 
Q 2700 4648 2590 4451 
Q 2481 4254 2315 4094 
Q 2150 3935 1953 3808 
Q 1756 3682 1584 3577 
Q 1413 3473 1291 3380 
Q 1169 3288 1150 3201 
L 1144 3166 
L 2403 3166 
L 2325 2785 
z
" transform="scale(0.015625)"/>
      <path id="SegoeUI-Italic-20" transform="scale(0.015625)"/>
      <path id="SegoeUI-Italic-3d" d="M 800 2322 
L 800 2741 
L 3738 2741 
L 3738 2322 
L 800 2322 
z
M 800 991 
L 800 1409 
L 3738 1409 
L 3738 991 
L 800 991 
z
" transform="scale(0.015625)"/>
      <path id="SegoeUI-Italic-28" d="M 2541 4481 
Q 2153 4100 1842 3694 
Q 1531 3288 1312 2853 
Q 1094 2419 975 1951 
Q 856 1484 856 978 
Q 856 728 889 473 
Q 922 219 987 -26 
Q 1053 -272 1147 -503 
Q 1241 -734 1363 -934 
L 922 -934 
Q 791 -728 692 -495 
Q 594 -263 528 -19 
Q 463 225 430 472 
Q 397 719 397 953 
Q 397 1494 512 1973 
Q 628 2453 840 2887 
Q 1053 3322 1358 3717 
Q 1663 4113 2041 4481 
L 2541 4481 
z
" transform="scale(0.015625)"/>
      <path id="SegoeUI-Italic-44" d="M 4378 2669 
Q 4378 2338 4311 2009 
Q 4244 1681 4105 1384 
Q 3966 1088 3747 834 
Q 3528 581 3225 395 
Q 2922 209 2530 104 
Q 2138 0 1650 0 
L 231 0 
L 1184 4481 
L 2431 4481 
Q 2869 4481 3228 4357 
Q 3588 4234 3842 4000 
Q 4097 3766 4237 3430 
Q 4378 3094 4378 2669 
z
M 3828 2631 
Q 3828 3288 3443 3647 
Q 3059 4006 2303 4006 
L 1619 4006 
L 863 475 
L 1697 475 
Q 2225 475 2623 644 
Q 3022 813 3289 1106 
Q 3556 1400 3692 1792 
Q 3828 2184 3828 2631 
z
" transform="scale(0.015625)"/>
      <path id="SegoeUI-Italic-2f" d="M 13 -744 
L -513 -744 
L 2741 4481 
L 3263 4481 
L 13 -744 
z
" transform="scale(0.015625)"/>
      <path id="SegoeUI-Italic-32" d="M 2828 3488 
Q 2828 3788 2648 3955 
Q 2469 4122 2150 4122 
Q 1847 4122 1540 3994 
Q 1234 3866 969 3622 
L 1097 4197 
Q 1366 4400 1639 4478 
Q 1913 4556 2275 4556 
Q 2775 4556 3072 4292 
Q 3369 4028 3369 3581 
Q 3369 3200 3239 2911 
Q 3109 2622 2825 2353 
Q 2541 2084 1994 1741 
Q 1497 1431 1239 1231 
Q 981 1031 856 862 
Q 731 694 678 459 
L 2891 459 
L 2794 0 
L 28 0 
L 75 222 
Q 156 600 317 872 
Q 478 1144 768 1400 
Q 1059 1656 1666 2044 
Q 2106 2322 2354 2544 
Q 2603 2766 2715 2978 
Q 2828 3191 2828 3488 
z
" transform="scale(0.015625)"/>
      <path id="SegoeUI-Italic-29" d="M 1575 2591 
Q 1575 2053 1459 1572 
Q 1344 1091 1130 658 
Q 916 225 611 -170 
Q 306 -566 -72 -934 
L -575 -934 
Q -188 -553 125 -148 
Q 438 256 656 690 
Q 875 1125 994 1592 
Q 1113 2059 1113 2566 
Q 1113 2816 1080 3069 
Q 1047 3322 983 3569 
Q 919 3816 825 4047 
Q 731 4278 609 4481 
L 1044 4481 
Q 1175 4272 1275 4037 
Q 1375 3803 1440 3559 
Q 1506 3316 1540 3070 
Q 1575 2825 1575 2591 
z
" transform="scale(0.015625)"/>
      <path id="SegoeUI-Italic-2b" d="M 2478 1656 
L 2478 397 
L 2069 397 
L 2069 1656 
L 800 1656 
L 800 2075 
L 2069 2075 
L 2069 3334 
L 2478 3334 
L 2478 2075 
L 3738 2075 
L 3738 1656 
L 2478 1656 
z
" transform="scale(0.015625)"/>
      <path id="SegoeUI-Italic-64" d="M 2816 984 
Q 2794 884 2773 743 
Q 2753 603 2737 461 
Q 2722 319 2711 194 
Q 2700 69 2700 0 
L 2169 0 
Q 2169 53 2176 142 
Q 2184 231 2195 328 
Q 2206 425 2218 514 
Q 2231 603 2241 659 
L 2228 659 
Q 2116 478 2003 339 
Q 1891 200 1766 108 
Q 1641 16 1500 -31 
Q 1359 -78 1191 -78 
Q 972 -78 797 0 
Q 622 78 498 229 
Q 375 381 309 604 
Q 244 828 244 1119 
Q 244 1350 292 1600 
Q 341 1850 442 2090 
Q 544 2331 700 2547 
Q 856 2763 1072 2925 
Q 1288 3088 1566 3183 
Q 1844 3278 2188 3278 
Q 2363 3278 2513 3254 
Q 2663 3231 2772 3206 
L 3097 4738 
L 3603 4738 
L 2816 984 
z
M 2681 2766 
Q 2563 2800 2433 2820 
Q 2303 2841 2156 2841 
Q 1884 2841 1676 2756 
Q 1469 2672 1314 2531 
Q 1159 2391 1054 2211 
Q 950 2031 886 1842 
Q 822 1653 795 1470 
Q 769 1288 769 1141 
Q 769 966 798 822 
Q 828 678 895 575 
Q 963 472 1069 415 
Q 1175 359 1325 359 
Q 1481 359 1617 425 
Q 1753 491 1872 603 
Q 1991 716 2087 862 
Q 2184 1009 2262 1175 
Q 2341 1341 2395 1511 
Q 2450 1681 2484 1838 
L 2681 2766 
z
" transform="scale(0.015625)"/>
     </defs>
     <use xlink:href="#SegoeUI-Italic-4c"/>
     <use xlink:href="#SegoeUI-Italic-b2" x="46.289062"/>
     <use xlink:href="#SegoeUI-Italic-20" x="82.910156"/>
     <use xlink:href="#SegoeUI-Italic-3d" x="110.400391"/>
     <use xlink:href="#SegoeUI-Italic-20" x="178.90625"/>
     <use xlink:href="#SegoeUI-Italic-28" x="206.396484"/>
     <use xlink:href="#SegoeUI-Italic-44" x="236.816406"/>
     <use xlink:href="#SegoeUI-Italic-2f" x="308.007812"/>
     <use xlink:href="#SegoeUI-Italic-32" x="347.607422"/>
     <use xlink:href="#SegoeUI-Italic-29" x="401.513672"/>
     <use xlink:href="#SegoeUI-Italic-b2" x="431.933594"/>
     <use xlink:href="#SegoeUI-Italic-20" x="468.554688"/>
     <use xlink:href="#SegoeUI-Italic-2b" x="496.044922"/>
     <use xlink:href="#SegoeUI-Italic-20" x="564.550781"/>
     <use xlink:href="#SegoeUI-Italic-28" x="592.041016"/>
     <use xlink:href="#SegoeUI-Italic-64" x="622.460938"/>
     <use xlink:href="#SegoeUI-Italic-2f" x="676.660156"/>
     <use xlink:href="#SegoeUI-Italic-32" x="716.259766"/>
     <use xlink:href="#SegoeUI-Italic-29" x="770.166016"/>
     <use xlink:href="#SegoeUI-Italic-b2" x="800.585938"/>
    </g>
   </g>
   <g id="text_12">
    <!-- Área: -->
    <g style="fill: #374151" transform="translate(109.199931 440.564101) scale(0.1 -0.1)">
     <defs>
      <path id="SegoeUI-Bold-c1" d="M 4453 0 
L 3353 0 
L 3034 997 
L 1441 997 
L 1125 0 
L 31 0 
L 1663 4481 
L 2859 4481 
L 4453 0 
z
M 2803 1772 
L 2322 3278 
Q 2269 3447 2247 3681 
L 2222 3681 
Q 2206 3484 2144 3291 
L 1656 1772 
L 2803 1772 
z
M 3239 5932 
L 2260 4922 
L 1548 4922 
L 2360 5932 
L 3239 5932 
z
" transform="scale(0.015625)"/>
      <path id="SegoeUI-Bold-72" d="M 2503 2309 
Q 2325 2406 2088 2406 
Q 1766 2406 1584 2170 
Q 1403 1934 1403 1528 
L 1403 0 
L 416 0 
L 416 3200 
L 1403 3200 
L 1403 2606 
L 1416 2606 
Q 1650 3256 2259 3256 
Q 2416 3256 2503 3219 
L 2503 2309 
z
" transform="scale(0.015625)"/>
      <path id="SegoeUI-Bold-65" d="M 3291 1319 
L 1203 1319 
Q 1253 622 2081 622 
Q 2609 622 3009 872 
L 3009 159 
Q 2566 -78 1856 -78 
Q 1081 -78 653 351 
Q 225 781 225 1550 
Q 225 2347 687 2812 
Q 1150 3278 1825 3278 
Q 2525 3278 2908 2862 
Q 3291 2447 3291 1734 
L 3291 1319 
z
M 2375 1925 
Q 2375 2613 1819 2613 
Q 1581 2613 1407 2416 
Q 1234 2219 1197 1925 
L 2375 1925 
z
" transform="scale(0.015625)"/>
      <path id="SegoeUI-Bold-61" d="M 3078 0 
L 2144 0 
L 2144 459 
L 2131 459 
Q 1809 -78 1178 -78 
Q 713 -78 445 186 
Q 178 450 178 891 
Q 178 1822 1281 1966 
L 2150 2081 
Q 2150 2606 1581 2606 
Q 1009 2606 494 2266 
L 494 3009 
Q 700 3116 1058 3197 
Q 1416 3278 1709 3278 
Q 3078 3278 3078 1913 
L 3078 0 
z
M 2150 1300 
L 2150 1516 
L 1569 1441 
Q 1088 1378 1088 1006 
Q 1088 838 1205 730 
Q 1322 622 1522 622 
Q 1800 622 1975 814 
Q 2150 1006 2150 1300 
z
" transform="scale(0.015625)"/>
      <path id="SegoeUI-Bold-3a" d="M 856 2209 
Q 613 2209 450 2357 
Q 288 2506 288 2725 
Q 288 2950 455 3094 
Q 622 3238 872 3238 
Q 1125 3238 1286 3092 
Q 1447 2947 1447 2725 
Q 1447 2497 1283 2353 
Q 1119 2209 856 2209 
z
M 856 -78 
Q 613 -78 450 72 
Q 288 222 288 441 
Q 288 666 455 809 
Q 622 953 872 953 
Q 1125 953 1286 808 
Q 1447 663 1447 441 
Q 1447 213 1283 67 
Q 1119 -78 856 -78 
z
" transform="scale(0.015625)"/>
     </defs>
     <use xlink:href="#SegoeUI-Bold-c1"/>
     <use xlink:href="#SegoeUI-Bold-72" x="70.3125"/>
     <use xlink:href="#SegoeUI-Bold-65" x="109.732422"/>
     <use xlink:href="#SegoeUI-Bold-61" x="163.833984"/>
     <use xlink:href="#SegoeUI-Bold-3a" x="217.642578"/>
    </g>
   </g>
   <g id="text_13">
    <!-- $A = \frac{D \cdot d}{2}$ -->
    <g style="fill: #1f2937" transform="translate(177.199886 440.564101) scale(0.11 -0.11)">
     <defs>
      <path id="DejaVuSans-Oblique-41" d="M 2356 4666 
L 3072 4666 
L 3938 0 
L 3278 0 
L 3084 1197 
L 984 1197 
L 325 0 
L -341 0 
L 2356 4666 
z
M 2584 4044 
L 1275 1722 
L 2988 1722 
L 2584 4044 
z
" transform="scale(0.015625)"/>
      <path id="DejaVuSans-3d" d="M 678 2906 
L 4684 2906 
L 4684 2381 
L 678 2381 
L 678 2906 
z
M 678 1631 
L 4684 1631 
L 4684 1100 
L 678 1100 
L 678 1631 
z
" transform="scale(0.015625)"/>
      <path id="DejaVuSans-Oblique-44" d="M 1081 4666 
L 2438 4666 
Q 3519 4666 4070 4208 
Q 4622 3750 4622 2847 
Q 4622 2250 4412 1698 
Q 4203 1147 3834 769 
Q 3463 381 2891 190 
Q 2319 0 1538 0 
L 172 0 
L 1081 4666 
z
M 1613 4147 
L 909 519 
L 1734 519 
Q 2794 519 3375 1128 
Q 3956 1738 3956 2847 
Q 3956 3519 3581 3833 
Q 3206 4147 2406 4147 
L 1613 4147 
z
" transform="scale(0.015625)"/>
      <path id="DejaVuSans-22c5" d="M 684 2619 
L 1344 2619 
L 1344 1825 
L 684 1825 
L 684 2619 
z
" transform="scale(0.015625)"/>
      <path id="DejaVuSans-Oblique-64" d="M 2675 525 
Q 2444 222 2128 65 
Q 1813 -91 1428 -91 
Q 903 -91 598 267 
Q 294 625 294 1247 
Q 294 1766 478 2236 
Q 663 2706 1013 3078 
Q 1244 3325 1534 3454 
Q 1825 3584 2144 3584 
Q 2481 3584 2739 3421 
Q 2997 3259 3138 2956 
L 3513 4863 
L 4091 4863 
L 3144 0 
L 2566 0 
L 2675 525 
z
M 891 1350 
Q 891 897 1095 644 
Q 1300 391 1663 391 
Q 1931 391 2161 520 
Q 2391 650 2566 903 
Q 2750 1166 2856 1509 
Q 2963 1853 2963 2188 
Q 2963 2622 2758 2865 
Q 2553 3109 2194 3109 
Q 1922 3109 1687 2981 
Q 1453 2853 1288 2613 
Q 1106 2353 998 2009 
Q 891 1666 891 1350 
z
" transform="scale(0.015625)"/>
      <path id="DejaVuSans-32" d="M 1228 531 
L 3431 531 
L 3431 0 
L 469 0 
L 469 531 
Q 828 903 1448 1529 
Q 2069 2156 2228 2338 
Q 2531 2678 2651 2914 
Q 2772 3150 2772 3378 
Q 2772 3750 2511 3984 
Q 2250 4219 1831 4219 
Q 1534 4219 1204 4116 
Q 875 4013 500 3803 
L 500 4441 
Q 881 4594 1212 4672 
Q 1544 4750 1819 4750 
Q 2544 4750 2975 4387 
Q 3406 4025 3406 3419 
Q 3406 3131 3298 2873 
Q 3191 2616 2906 2266 
Q 2828 2175 2409 1742 
Q 1991 1309 1228 531 
z
" transform="scale(0.015625)"/>
     </defs>
     <use xlink:href="#DejaVuSans-Oblique-41" transform="translate(0 0.01875)"/>
     <use xlink:href="#DejaVuSans-3d" transform="translate(87.890625 0.01875)"/>
     <use xlink:href="#DejaVuSans-Oblique-44" transform="translate(191.162109 44.810938) scale(0.7)"/>
     <use xlink:href="#DejaVuSans-22c5" transform="translate(258.701172 44.810938) scale(0.7)"/>
     <use xlink:href="#DejaVuSans-Oblique-64" transform="translate(294.589844 44.810938) scale(0.7)"/>
     <use xlink:href="#DejaVuSans-32" transform="translate(243.162109 -39.3875) scale(0.7)"/>
     <path d="M 191.162109 18.815625 
L 191.162109 25.065625 
L 339.023438 25.065625 
L 339.023438 18.815625 
L 191.162109 18.815625 
z
"/>
    </g>
   </g>
   <g id="text_14">
    <!-- Lado: -->
    <g style="fill: #374151" transform="translate(109.199931 481.364073) scale(0.1 -0.1)">
     <defs>
      <path id="SegoeUI-Bold-64" d="M 3547 0 
L 2559 0 
L 2559 441 
L 2547 441 
Q 2209 -78 1556 -78 
Q 956 -78 590 345 
Q 225 769 225 1528 
Q 225 2322 628 2800 
Q 1031 3278 1684 3278 
Q 2303 3278 2547 2834 
L 2559 2834 
L 2559 4738 
L 3547 4738 
L 3547 0 
z
M 2578 1556 
L 2578 1797 
Q 2578 2109 2397 2315 
Q 2216 2522 1925 2522 
Q 1597 2522 1412 2264 
Q 1228 2006 1228 1556 
Q 1228 1134 1406 906 
Q 1584 678 1900 678 
Q 2200 678 2389 918 
Q 2578 1159 2578 1556 
z
" transform="scale(0.015625)"/>
      <path id="SegoeUI-Bold-6f" d="M 1941 -78 
Q 1141 -78 683 370 
Q 225 819 225 1588 
Q 225 2381 700 2829 
Q 1175 3278 1984 3278 
Q 2781 3278 3234 2829 
Q 3688 2381 3688 1644 
Q 3688 847 3220 384 
Q 2753 -78 1941 -78 
z
M 1966 2522 
Q 1616 2522 1422 2281 
Q 1228 2041 1228 1600 
Q 1228 678 1972 678 
Q 2681 678 2681 1625 
Q 2681 2522 1966 2522 
z
" transform="scale(0.015625)"/>
     </defs>
     <use xlink:href="#SegoeUI-Bold-4c"/>
     <use xlink:href="#SegoeUI-Bold-61" x="51.123047"/>
     <use xlink:href="#SegoeUI-Bold-64" x="104.931641"/>
     <use xlink:href="#SegoeUI-Bold-6f" x="166.845703"/>
     <use xlink:href="#SegoeUI-Bold-3a" x="227.978516"/>
    </g>
   </g>
   <g id="text_15">
    <!-- $L = \sqrt{\left(\frac{D}{2}\right)^2 + \left(\frac{d}{2}\right)^2}$ -->
    <g style="fill: #1f2937" transform="translate(177.199886 481.364073) scale(0.11 -0.11)">
     <defs>
      <path id="DejaVuSans-Oblique-4c" d="M 1075 4666 
L 1709 4666 
L 909 525 
L 3181 525 
L 3078 0 
L 172 0 
L 1075 4666 
z
" transform="scale(0.015625)"/>
      <path id="STIXSizeOneSym-Regular-221a" d="M 6970 9933 
L 3373 -1888 
L 3104 -1888 
L 1626 2918 
Q 1555 3149 1465 3251 
Q 1376 3354 1229 3354 
Q 1011 3354 794 3181 
L 717 3309 
L 1766 4115 
L 1926 4115 
L 3379 -602 
L 3405 -602 
L 6605 9933 
L 6970 9933 
z
" transform="scale(0.015625)"/>
      <path id="STIXSizeTwoSym-Regular-28" d="M 3219 -1555 
L 3219 -1786 
Q 2144 -774 1517 730 
Q 890 2234 890 4115 
Q 890 6003 1533 7593 
Q 2176 9184 3219 10022 
L 3219 9811 
Q 2490 9062 1994 7606 
Q 1498 6150 1498 4115 
Q 1498 563 3219 -1555 
z
" transform="scale(0.015625)"/>
      <path id="STIXSizeTwoSym-Regular-29" d="M 730 9792 
L 730 10022 
Q 1805 9011 2432 7507 
Q 3059 6003 3059 4115 
Q 3059 2234 2416 643 
Q 1773 -947 730 -1786 
L 730 -1574 
Q 1459 -826 1955 633 
Q 2451 2093 2451 4115 
Q 2451 7674 730 9792 
z
" transform="scale(0.015625)"/>
      <path id="DejaVuSans-2b" d="M 2944 4013 
L 2944 2272 
L 4684 2272 
L 4684 1741 
L 2944 1741 
L 2944 0 
L 2419 0 
L 2419 1741 
L 678 1741 
L 678 2272 
L 2419 2272 
L 2419 4013 
L 2944 4013 
z
" transform="scale(0.015625)"/>
     </defs>
     <use xlink:href="#DejaVuSans-Oblique-4c" transform="translate(0 0.328125)"/>
     <use xlink:href="#DejaVuSans-3d" transform="translate(75.195312 0.328125)"/>
     <use xlink:href="#STIXSizeOneSym-Regular-221a" transform="translate(178.466797 -12.234375) scale(0.913019)"/>
     <use xlink:href="#STIXSizeTwoSym-Regular-28" transform="translate(287.418045 -18.278125) scale(0.727575)"/>
     <use xlink:href="#DejaVuSans-Oblique-44" transform="translate(330.267792 44.565625) scale(0.7)"/>
     <use xlink:href="#DejaVuSans-32" transform="translate(335.267792 -38.6375) scale(0.7)"/>
     <use xlink:href="#STIXSizeTwoSym-Regular-29" transform="translate(396.669159 -18.278125) scale(0.727575)"/>
     <use xlink:href="#DejaVuSans-32" transform="translate(441.858185 39.05) scale(0.7)"/>
     <use xlink:href="#DejaVuSans-2b" transform="translate(508.611115 0.76875)"/>
     <use xlink:href="#STIXSizeTwoSym-Regular-28" transform="translate(611.882599 -17.996875) scale(0.744648)"/>
     <use xlink:href="#DejaVuSans-Oblique-64" transform="translate(655.763092 45.560937) scale(0.7)"/>
     <use xlink:href="#DejaVuSans-32" transform="translate(655.763092 -38.6375) scale(0.7)"/>
     <use xlink:href="#STIXSizeTwoSym-Regular-29" transform="translate(712.799225 -17.996875) scale(0.744648)"/>
     <use xlink:href="#DejaVuSans-32" transform="translate(759.052246 39.05) scale(0.7)"/>
     <path d="M 274.918045 122.5 
L 274.918045 128.75 
L 818.822754 128.75 
L 818.822754 122.5 
L 274.918045 122.5 
z
"/>
     <path d="M 330.267792 19.565625 
L 330.267792 25.815625 
L 384.169159 25.815625 
L 384.169159 19.565625 
L 330.267792 19.565625 
z
"/>
     <path d="M 655.763092 19.565625 
L 655.763092 25.815625 
L 700.299225 25.815625 
L 700.299225 19.565625 
L 655.763092 19.565625 
z
"/>
    </g>
   </g>
   <g id="text_16">
    <!-- Perímetro: -->
    <g style="fill: #374151" transform="translate(109.199931 522.164046) scale(0.1 -0.1)">
     <defs>
      <path id="SegoeUI-Bold-50" d="M 1522 1544 
L 1522 0 
L 513 0 
L 513 4481 
L 2094 4481 
Q 3788 4481 3788 3053 
Q 3788 2378 3302 1961 
Q 2816 1544 2003 1544 
L 1522 1544 
z
M 1522 3706 
L 1522 2309 
L 1919 2309 
Q 2725 2309 2725 3016 
Q 2725 3706 1919 3706 
L 1522 3706 
z
" transform="scale(0.015625)"/>
      <path id="SegoeUI-Bold-ed" d="M 1403 0 
L 416 0 
L 416 3200 
L 1403 3200 
L 1403 0 
z
M 1911 4716 
L 932 3706 
L 220 3706 
L 1032 4716 
L 1911 4716 
z
" transform="scale(0.015625)"/>
      <path id="SegoeUI-Bold-6d" d="M 5497 0 
L 4513 0 
L 4513 1825 
Q 4513 2522 4000 2522 
Q 3756 2522 3603 2312 
Q 3450 2103 3450 1791 
L 3450 0 
L 2463 0 
L 2463 1844 
Q 2463 2522 1959 2522 
Q 1706 2522 1554 2322 
Q 1403 2122 1403 1778 
L 1403 0 
L 416 0 
L 416 3200 
L 1403 3200 
L 1403 2700 
L 1416 2700 
Q 1569 2956 1845 3117 
Q 2122 3278 2450 3278 
Q 3128 3278 3378 2681 
Q 3744 3278 4453 3278 
Q 5497 3278 5497 1991 
L 5497 0 
z
" transform="scale(0.015625)"/>
      <path id="SegoeUI-Bold-74" d="M 2350 38 
Q 2131 -78 1691 -78 
Q 647 -78 647 1006 
L 647 2472 
L 128 2472 
L 128 3200 
L 647 3200 
L 647 3891 
L 1631 4172 
L 1631 3200 
L 2350 3200 
L 2350 2472 
L 1631 2472 
L 1631 1178 
Q 1631 678 2028 678 
Q 2184 678 2350 769 
L 2350 38 
z
" transform="scale(0.015625)"/>
     </defs>
     <use xlink:href="#SegoeUI-Bold-50"/>
     <use xlink:href="#SegoeUI-Bold-65" x="58.425781"/>
     <use xlink:href="#SegoeUI-Bold-72" x="112.527344"/>
     <use xlink:href="#SegoeUI-Bold-ed" x="152.322266"/>
     <use xlink:href="#SegoeUI-Bold-6d" x="180.740234"/>
     <use xlink:href="#SegoeUI-Bold-65" x="272.341797"/>
     <use xlink:href="#SegoeUI-Bold-74" x="326.443359"/>
     <use xlink:href="#SegoeUI-Bold-72" x="365.359375"/>
     <use xlink:href="#SegoeUI-Bold-6f" x="404.779297"/>
     <use xlink:href="#SegoeUI-Bold-3a" x="465.912109"/>
    </g>
   </g>
   <g id="text_17">
    <!-- $P = 4L$ -->
    <g style="fill: #1f2937" transform="translate(177.199886 522.164046) scale(0.11 -0.11)">
     <defs>
      <path id="DejaVuSans-Oblique-50" d="M 1081 4666 
L 2541 4666 
Q 3178 4666 3512 4369 
Q 3847 4072 3847 3500 
Q 3847 2731 3353 2303 
Q 2859 1875 1966 1875 
L 1172 1875 
L 806 0 
L 172 0 
L 1081 4666 
z
M 1613 4147 
L 1275 2394 
L 2069 2394 
Q 2606 2394 2893 2669 
Q 3181 2944 3181 3456 
Q 3181 3784 2986 3965 
Q 2791 4147 2438 4147 
L 1613 4147 
z
" transform="scale(0.015625)"/>
      <path id="DejaVuSans-34" d="M 2419 4116 
L 825 1625 
L 2419 1625 
L 2419 4116 
z
M 2253 4666 
L 3047 4666 
L 3047 1625 
L 3713 1625 
L 3713 1100 
L 3047 1100 
L 3047 0 
L 2419 0 
L 2419 1100 
L 313 1100 
L 313 1709 
L 2253 4666 
z
" transform="scale(0.015625)"/>
     </defs>
     <use xlink:href="#DejaVuSans-Oblique-50" transform="translate(0 0.09375)"/>
     <use xlink:href="#DejaVuSans-3d" transform="translate(79.785156 0.09375)"/>
     <use xlink:href="#DejaVuSans-34" transform="translate(183.056641 0.09375)"/>
     <use xlink:href="#DejaVuSans-Oblique-4c" transform="translate(246.679688 0.09375)"/>
    </g>
   </g>
   <g id="text_18">
    <!-- • Las diagonales son perpendiculares -->
    <g style="fill: #6b7280" transform="translate(109.199931 80.164343) scale(0.09 -0.09)">
     <defs>
      <path id="SegoeUI-2022" d="M 1306 1275 
Q 981 1275 747 1503 
Q 513 1731 513 2056 
Q 513 2378 747 2614 
Q 981 2850 1306 2850 
Q 1631 2850 1859 2615 
Q 2088 2381 2088 2056 
Q 2088 1731 1859 1503 
Q 1631 1275 1306 1275 
z
" transform="scale(0.015625)"/>
      <path id="SegoeUI-20" transform="scale(0.015625)"/>
      <path id="SegoeUI-4c" d="M 2913 0 
L 588 0 
L 588 4481 
L 1113 4481 
L 1113 475 
L 2913 475 
L 2913 0 
z
" transform="scale(0.015625)"/>
      <path id="SegoeUI-61" d="M 2809 0 
L 2297 0 
L 2297 500 
L 2284 500 
Q 1950 -75 1300 -75 
Q 822 -75 551 178 
Q 281 431 281 850 
Q 281 1747 1338 1894 
L 2297 2028 
Q 2297 2844 1638 2844 
Q 1059 2844 594 2450 
L 594 2975 
Q 1066 3275 1681 3275 
Q 2809 3275 2809 2081 
L 2809 0 
z
M 2297 1619 
L 1525 1513 
Q 1169 1463 987 1336 
Q 806 1209 806 888 
Q 806 653 973 504 
Q 1141 356 1419 356 
Q 1800 356 2048 623 
Q 2297 891 2297 1300 
L 2297 1619 
z
" transform="scale(0.015625)"/>
      <path id="SegoeUI-73" d="M 325 116 
L 325 666 
Q 744 356 1247 356 
Q 1922 356 1922 806 
Q 1922 934 1864 1023 
Q 1806 1113 1707 1181 
Q 1609 1250 1476 1304 
Q 1344 1359 1191 1419 
Q 978 1503 817 1589 
Q 656 1675 548 1783 
Q 441 1891 386 2028 
Q 331 2166 331 2350 
Q 331 2575 434 2748 
Q 538 2922 709 3039 
Q 881 3156 1101 3215 
Q 1322 3275 1556 3275 
Q 1972 3275 2300 3131 
L 2300 2613 
Q 1947 2844 1488 2844 
Q 1344 2844 1228 2811 
Q 1113 2778 1030 2718 
Q 947 2659 901 2576 
Q 856 2494 856 2394 
Q 856 2269 901 2184 
Q 947 2100 1034 2034 
Q 1122 1969 1247 1916 
Q 1372 1863 1531 1800 
Q 1744 1719 1912 1633 
Q 2081 1547 2200 1439 
Q 2319 1331 2383 1190 
Q 2447 1050 2447 856 
Q 2447 619 2342 444 
Q 2238 269 2063 153 
Q 1888 38 1659 -18 
Q 1431 -75 1181 -75 
Q 688 -75 325 116 
z
" transform="scale(0.015625)"/>
      <path id="SegoeUI-69" d="M 781 4013 
Q 644 4013 547 4106 
Q 450 4200 450 4344 
Q 450 4488 547 4583 
Q 644 4678 781 4678 
Q 922 4678 1020 4583 
Q 1119 4488 1119 4344 
Q 1119 4206 1020 4109 
Q 922 4013 781 4013 
z
M 1031 0 
L 519 0 
L 519 3200 
L 1031 3200 
L 1031 0 
z
" transform="scale(0.015625)"/>
      <path id="SegoeUI-67" d="M 3250 256 
Q 3250 -1506 1563 -1506 
Q 969 -1506 525 -1281 
L 525 -769 
Q 1066 -1069 1556 -1069 
Q 2738 -1069 2738 188 
L 2738 538 
L 2725 538 
Q 2359 -75 1625 -75 
Q 1028 -75 664 351 
Q 300 778 300 1497 
Q 300 2313 692 2794 
Q 1084 3275 1766 3275 
Q 2413 3275 2725 2756 
L 2738 2756 
L 2738 3200 
L 3250 3200 
L 3250 256 
z
M 2738 1447 
L 2738 1919 
Q 2738 2300 2480 2572 
Q 2222 2844 1838 2844 
Q 1363 2844 1094 2498 
Q 825 2153 825 1531 
Q 825 997 1083 676 
Q 1341 356 1766 356 
Q 2197 356 2467 662 
Q 2738 969 2738 1447 
z
" transform="scale(0.015625)"/>
      <path id="SegoeUI-6f" d="M 1856 -75 
Q 1147 -75 723 373 
Q 300 822 300 1563 
Q 300 2369 740 2822 
Q 1181 3275 1931 3275 
Q 2647 3275 3048 2834 
Q 3450 2394 3450 1613 
Q 3450 847 3017 386 
Q 2584 -75 1856 -75 
z
M 1894 2844 
Q 1400 2844 1112 2508 
Q 825 2172 825 1581 
Q 825 1013 1115 684 
Q 1406 356 1894 356 
Q 2391 356 2658 678 
Q 2925 1000 2925 1594 
Q 2925 2194 2658 2519 
Q 2391 2844 1894 2844 
z
" transform="scale(0.015625)"/>
      <path id="SegoeUI-6e" d="M 3175 0 
L 2663 0 
L 2663 1825 
Q 2663 2844 1919 2844 
Q 1534 2844 1282 2555 
Q 1031 2266 1031 1825 
L 1031 0 
L 519 0 
L 519 3200 
L 1031 3200 
L 1031 2669 
L 1044 2669 
Q 1406 3275 2094 3275 
Q 2619 3275 2897 2936 
Q 3175 2597 3175 1956 
L 3175 0 
z
" transform="scale(0.015625)"/>
      <path id="SegoeUI-6c" d="M 1031 0 
L 519 0 
L 519 4738 
L 1031 4738 
L 1031 0 
z
" transform="scale(0.015625)"/>
      <path id="SegoeUI-65" d="M 3091 1472 
L 831 1472 
Q 844 938 1119 647 
Q 1394 356 1875 356 
Q 2416 356 2869 713 
L 2869 231 
Q 2447 -75 1753 -75 
Q 1075 -75 687 361 
Q 300 797 300 1588 
Q 300 2334 723 2804 
Q 1147 3275 1775 3275 
Q 2403 3275 2747 2869 
Q 3091 2463 3091 1741 
L 3091 1472 
z
M 2566 1906 
Q 2563 2350 2352 2597 
Q 2141 2844 1766 2844 
Q 1403 2844 1150 2584 
Q 897 2325 838 1906 
L 2566 1906 
z
" transform="scale(0.015625)"/>
      <path id="SegoeUI-70" d="M 1044 463 
L 1031 463 
L 1031 -1472 
L 519 -1472 
L 519 3200 
L 1031 3200 
L 1031 2638 
L 1044 2638 
Q 1422 3275 2150 3275 
Q 2769 3275 3116 2845 
Q 3463 2416 3463 1694 
Q 3463 891 3072 408 
Q 2681 -75 2003 -75 
Q 1381 -75 1044 463 
z
M 1031 1753 
L 1031 1306 
Q 1031 909 1289 632 
Q 1547 356 1944 356 
Q 2409 356 2673 712 
Q 2938 1069 2938 1703 
Q 2938 2238 2691 2541 
Q 2444 2844 2022 2844 
Q 1575 2844 1303 2533 
Q 1031 2222 1031 1753 
z
" transform="scale(0.015625)"/>
      <path id="SegoeUI-72" d="M 2188 2681 
Q 2053 2784 1800 2784 
Q 1472 2784 1251 2475 
Q 1031 2166 1031 1631 
L 1031 0 
L 519 0 
L 519 3200 
L 1031 3200 
L 1031 2541 
L 1044 2541 
Q 1153 2878 1378 3067 
Q 1603 3256 1881 3256 
Q 2081 3256 2188 3213 
L 2188 2681 
z
" transform="scale(0.015625)"/>
      <path id="SegoeUI-63" d="M 2700 147 
Q 2331 -75 1825 -75 
Q 1141 -75 720 370 
Q 300 816 300 1525 
Q 300 2316 753 2795 
Q 1206 3275 1963 3275 
Q 2384 3275 2706 3119 
L 2706 2594 
Q 2350 2844 1944 2844 
Q 1453 2844 1139 2492 
Q 825 2141 825 1569 
Q 825 1006 1120 681 
Q 1416 356 1913 356 
Q 2331 356 2700 634 
L 2700 147 
z
" transform="scale(0.015625)"/>
      <path id="SegoeUI-75" d="M 3106 0 
L 2594 0 
L 2594 506 
L 2581 506 
Q 2263 -75 1594 -75 
Q 450 -75 450 1288 
L 450 3200 
L 959 3200 
L 959 1369 
Q 959 356 1734 356 
Q 2109 356 2351 632 
Q 2594 909 2594 1356 
L 2594 3200 
L 3106 3200 
L 3106 0 
z
" transform="scale(0.015625)"/>
     </defs>
     <use xlink:href="#SegoeUI-2022"/>
     <use xlink:href="#SegoeUI-20" x="40.625"/>
     <use xlink:href="#SegoeUI-4c" x="68.017578"/>
     <use xlink:href="#SegoeUI-61" x="115.087891"/>
     <use xlink:href="#SegoeUI-73" x="165.966797"/>
     <use xlink:href="#SegoeUI-20" x="208.398438"/>
     <use xlink:href="#SegoeUI-64" x="235.791016"/>
     <use xlink:href="#SegoeUI-69" x="294.677734"/>
     <use xlink:href="#SegoeUI-61" x="318.896484"/>
     <use xlink:href="#SegoeUI-67" x="369.775391"/>
     <use xlink:href="#SegoeUI-6f" x="428.662109"/>
     <use xlink:href="#SegoeUI-6e" x="487.255859"/>
     <use xlink:href="#SegoeUI-61" x="543.847656"/>
     <use xlink:href="#SegoeUI-6c" x="594.726562"/>
     <use xlink:href="#SegoeUI-65" x="618.945312"/>
     <use xlink:href="#SegoeUI-73" x="671.240234"/>
     <use xlink:href="#SegoeUI-20" x="713.671875"/>
     <use xlink:href="#SegoeUI-73" x="741.064453"/>
     <use xlink:href="#SegoeUI-6f" x="783.496094"/>
     <use xlink:href="#SegoeUI-6e" x="842.089844"/>
     <use xlink:href="#SegoeUI-20" x="898.681641"/>
     <use xlink:href="#SegoeUI-70" x="926.074219"/>
     <use xlink:href="#SegoeUI-65" x="984.863281"/>
     <use xlink:href="#SegoeUI-72" x="1037.158203"/>
     <use xlink:href="#SegoeUI-70" x="1071.923828"/>
     <use xlink:href="#SegoeUI-65" x="1130.712891"/>
     <use xlink:href="#SegoeUI-6e" x="1183.007812"/>
     <use xlink:href="#SegoeUI-64" x="1239.599609"/>
     <use xlink:href="#SegoeUI-69" x="1298.486328"/>
     <use xlink:href="#SegoeUI-63" x="1322.705078"/>
     <use xlink:href="#SegoeUI-75" x="1368.896484"/>
     <use xlink:href="#SegoeUI-6c" x="1425.488281"/>
     <use xlink:href="#SegoeUI-61" x="1449.707031"/>
     <use xlink:href="#SegoeUI-72" x="1500.585938"/>
     <use xlink:href="#SegoeUI-65" x="1533.976562"/>
     <use xlink:href="#SegoeUI-73" x="1586.271484"/>
    </g>
   </g>
   <g id="text_19">
    <!-- • Las diagonales se bisecan mutuamente -->
    <g style="fill: #6b7280" transform="translate(109.199931 107.364325) scale(0.09 -0.09)">
     <defs>
      <path id="SegoeUI-62" d="M 1044 463 
L 1031 463 
L 1031 0 
L 519 0 
L 519 4738 
L 1031 4738 
L 1031 2638 
L 1044 2638 
Q 1422 3275 2150 3275 
Q 2766 3275 3114 2845 
Q 3463 2416 3463 1694 
Q 3463 891 3072 408 
Q 2681 -75 2003 -75 
Q 1369 -75 1044 463 
z
M 1031 1753 
L 1031 1306 
Q 1031 909 1289 632 
Q 1547 356 1944 356 
Q 2409 356 2673 712 
Q 2938 1069 2938 1703 
Q 2938 2238 2691 2541 
Q 2444 2844 2022 2844 
Q 1575 2844 1303 2533 
Q 1031 2222 1031 1753 
z
" transform="scale(0.015625)"/>
      <path id="SegoeUI-6d" d="M 5063 0 
L 4550 0 
L 4550 1838 
Q 4550 2369 4386 2606 
Q 4222 2844 3834 2844 
Q 3506 2844 3276 2544 
Q 3047 2244 3047 1825 
L 3047 0 
L 2534 0 
L 2534 1900 
Q 2534 2844 1806 2844 
Q 1469 2844 1250 2561 
Q 1031 2278 1031 1825 
L 1031 0 
L 519 0 
L 519 3200 
L 1031 3200 
L 1031 2694 
L 1044 2694 
Q 1384 3275 2038 3275 
Q 2366 3275 2609 3092 
Q 2853 2909 2944 2613 
Q 3300 3275 4006 3275 
Q 5063 3275 5063 1972 
L 5063 0 
z
" transform="scale(0.015625)"/>
      <path id="SegoeUI-74" d="M 2003 31 
Q 1822 -69 1525 -69 
Q 684 -69 684 869 
L 684 2763 
L 134 2763 
L 134 3200 
L 684 3200 
L 684 3981 
L 1197 4147 
L 1197 3200 
L 2003 3200 
L 2003 2763 
L 1197 2763 
L 1197 959 
Q 1197 638 1306 500 
Q 1416 363 1669 363 
Q 1863 363 2003 469 
L 2003 31 
z
" transform="scale(0.015625)"/>
     </defs>
     <use xlink:href="#SegoeUI-2022"/>
     <use xlink:href="#SegoeUI-20" x="40.625"/>
     <use xlink:href="#SegoeUI-4c" x="68.017578"/>
     <use xlink:href="#SegoeUI-61" x="115.087891"/>
     <use xlink:href="#SegoeUI-73" x="165.966797"/>
     <use xlink:href="#SegoeUI-20" x="208.398438"/>
     <use xlink:href="#SegoeUI-64" x="235.791016"/>
     <use xlink:href="#SegoeUI-69" x="294.677734"/>
     <use xlink:href="#SegoeUI-61" x="318.896484"/>
     <use xlink:href="#SegoeUI-67" x="369.775391"/>
     <use xlink:href="#SegoeUI-6f" x="428.662109"/>
     <use xlink:href="#SegoeUI-6e" x="487.255859"/>
     <use xlink:href="#SegoeUI-61" x="543.847656"/>
     <use xlink:href="#SegoeUI-6c" x="594.726562"/>
     <use xlink:href="#SegoeUI-65" x="618.945312"/>
     <use xlink:href="#SegoeUI-73" x="671.240234"/>
     <use xlink:href="#SegoeUI-20" x="713.671875"/>
     <use xlink:href="#SegoeUI-73" x="741.064453"/>
     <use xlink:href="#SegoeUI-65" x="783.496094"/>
     <use xlink:href="#SegoeUI-20" x="835.791016"/>
     <use xlink:href="#SegoeUI-62" x="863.183594"/>
     <use xlink:href="#SegoeUI-69" x="921.972656"/>
     <use xlink:href="#SegoeUI-73" x="946.191406"/>
     <use xlink:href="#SegoeUI-65" x="988.623047"/>
     <use xlink:href="#SegoeUI-63" x="1040.917969"/>
     <use xlink:href="#SegoeUI-61" x="1087.109375"/>
     <use xlink:href="#SegoeUI-6e" x="1137.988281"/>
     <use xlink:href="#SegoeUI-20" x="1194.580078"/>
     <use xlink:href="#SegoeUI-6d" x="1221.972656"/>
     <use xlink:href="#SegoeUI-75" x="1308.105469"/>
     <use xlink:href="#SegoeUI-74" x="1364.697266"/>
     <use xlink:href="#SegoeUI-75" x="1398.583984"/>
     <use xlink:href="#SegoeUI-61" x="1455.175781"/>
     <use xlink:href="#SegoeUI-6d" x="1506.054688"/>
     <use xlink:href="#SegoeUI-65" x="1592.1875"/>
     <use xlink:href="#SegoeUI-6e" x="1644.482422"/>
     <use xlink:href="#SegoeUI-74" x="1701.074219"/>
     <use xlink:href="#SegoeUI-65" x="1734.210938"/>
    </g>
   </g>
   <g id="text_20">
    <!-- • Los 4 lados son iguales -->
    <g style="fill: #6b7280" transform="translate(109.199931 134.564306) scale(0.09 -0.09)">
     <defs>
      <path id="SegoeUI-34" d="M 2656 4481 
L 2656 1522 
L 3231 1522 
L 3231 1053 
L 2656 1053 
L 2656 0 
L 2150 0 
L 2150 1053 
L 44 1053 
L 44 1497 
Q 338 1828 638 2204 
Q 938 2581 1211 2968 
Q 1484 3356 1717 3742 
Q 1950 4128 2109 4481 
L 2656 4481 
z
M 622 1522 
L 2150 1522 
L 2150 3716 
Q 1916 3306 1706 2984 
Q 1497 2663 1308 2400 
Q 1119 2138 947 1925 
Q 775 1713 622 1522 
z
" transform="scale(0.015625)"/>
     </defs>
     <use xlink:href="#SegoeUI-2022"/>
     <use xlink:href="#SegoeUI-20" x="40.625"/>
     <use xlink:href="#SegoeUI-4c" x="68.017578"/>
     <use xlink:href="#SegoeUI-6f" x="115.087891"/>
     <use xlink:href="#SegoeUI-73" x="173.681641"/>
     <use xlink:href="#SegoeUI-20" x="216.113281"/>
     <use xlink:href="#SegoeUI-34" x="243.505859"/>
     <use xlink:href="#SegoeUI-20" x="297.412109"/>
     <use xlink:href="#SegoeUI-6c" x="324.804688"/>
     <use xlink:href="#SegoeUI-61" x="349.023438"/>
     <use xlink:href="#SegoeUI-64" x="399.902344"/>
     <use xlink:href="#SegoeUI-6f" x="458.789062"/>
     <use xlink:href="#SegoeUI-73" x="517.382812"/>
     <use xlink:href="#SegoeUI-20" x="559.814453"/>
     <use xlink:href="#SegoeUI-73" x="587.207031"/>
     <use xlink:href="#SegoeUI-6f" x="629.638672"/>
     <use xlink:href="#SegoeUI-6e" x="688.232422"/>
     <use xlink:href="#SegoeUI-20" x="744.824219"/>
     <use xlink:href="#SegoeUI-69" x="772.216797"/>
     <use xlink:href="#SegoeUI-67" x="796.435547"/>
     <use xlink:href="#SegoeUI-75" x="855.322266"/>
     <use xlink:href="#SegoeUI-61" x="911.914062"/>
     <use xlink:href="#SegoeUI-6c" x="962.792969"/>
     <use xlink:href="#SegoeUI-65" x="987.011719"/>
     <use xlink:href="#SegoeUI-73" x="1039.306641"/>
    </g>
   </g>
   <g id="text_21">
    <!-- Rombo - Diagonales y Propiedades -->
    <g style="fill: #2c2f33" transform="translate(249.015854 17.564375) scale(0.14 -0.14)">
     <defs>
      <path id="SegoeUI-Bold-52" d="M 4272 0 
L 3113 0 
L 2416 1153 
Q 2338 1284 2266 1387 
Q 2194 1491 2120 1564 
Q 2047 1638 1967 1677 
Q 1888 1716 1794 1716 
L 1522 1716 
L 1522 0 
L 513 0 
L 513 4481 
L 2113 4481 
Q 3744 4481 3744 3263 
Q 3744 3028 3672 2829 
Q 3600 2631 3469 2472 
Q 3338 2313 3152 2197 
Q 2966 2081 2738 2016 
L 2738 2003 
Q 2838 1972 2931 1901 
Q 3025 1831 3112 1737 
Q 3200 1644 3279 1536 
Q 3359 1428 3425 1325 
L 4272 0 
z
M 1522 3725 
L 1522 2478 
L 1959 2478 
Q 2284 2478 2481 2666 
Q 2681 2856 2681 3138 
Q 2681 3725 1978 3725 
L 1522 3725 
z
" transform="scale(0.015625)"/>
      <path id="SegoeUI-Bold-62" d="M 1416 372 
L 1403 372 
L 1403 0 
L 416 0 
L 416 4738 
L 1403 4738 
L 1403 2719 
L 1416 2719 
Q 1781 3278 2456 3278 
Q 3075 3278 3409 2853 
Q 3744 2428 3744 1691 
Q 3744 891 3353 406 
Q 2963 -78 2309 -78 
Q 1719 -78 1416 372 
z
M 1388 1722 
L 1388 1394 
Q 1388 1084 1566 881 
Q 1744 678 2022 678 
Q 2359 678 2545 939 
Q 2731 1200 2731 1678 
Q 2731 2075 2561 2298 
Q 2391 2522 2075 2522 
Q 1778 2522 1583 2300 
Q 1388 2078 1388 1722 
z
" transform="scale(0.015625)"/>
      <path id="SegoeUI-Bold-20" transform="scale(0.015625)"/>
      <path id="SegoeUI-Bold-2d" d="M 2156 1363 
L 447 1363 
L 447 2053 
L 2156 2053 
L 2156 1363 
z
" transform="scale(0.015625)"/>
      <path id="SegoeUI-Bold-69" d="M 916 3706 
Q 666 3706 506 3854 
Q 347 4003 347 4219 
Q 347 4441 506 4581 
Q 666 4722 916 4722 
Q 1169 4722 1326 4581 
Q 1484 4441 1484 4219 
Q 1484 3994 1326 3850 
Q 1169 3706 916 3706 
z
M 1403 0 
L 416 0 
L 416 3200 
L 1403 3200 
L 1403 0 
z
" transform="scale(0.015625)"/>
      <path id="SegoeUI-Bold-67" d="M 3553 366 
Q 3553 -525 3037 -1014 
Q 2522 -1503 1544 -1503 
Q 897 -1503 519 -1319 
L 519 -488 
Q 1013 -775 1516 -775 
Q 2016 -775 2291 -511 
Q 2566 -247 2566 206 
L 2566 459 
L 2553 459 
Q 2216 -78 1556 -78 
Q 944 -78 584 353 
Q 225 784 225 1509 
Q 225 2322 625 2800 
Q 1025 3278 1678 3278 
Q 2263 3278 2553 2828 
L 2566 2828 
L 2566 3200 
L 3553 3200 
L 3553 366 
z
M 2578 1538 
L 2578 1791 
Q 2578 2094 2398 2308 
Q 2219 2522 1931 2522 
Q 1603 2522 1415 2265 
Q 1228 2009 1228 1544 
Q 1228 1144 1406 911 
Q 1584 678 1894 678 
Q 2200 678 2389 914 
Q 2578 1150 2578 1538 
z
" transform="scale(0.015625)"/>
      <path id="SegoeUI-Bold-6e" d="M 3506 0 
L 2522 0 
L 2522 1778 
Q 2522 2522 1991 2522 
Q 1734 2522 1568 2325 
Q 1403 2128 1403 1825 
L 1403 0 
L 416 0 
L 416 3200 
L 1403 3200 
L 1403 2694 
L 1416 2694 
Q 1769 3278 2444 3278 
Q 3506 3278 3506 1959 
L 3506 0 
z
" transform="scale(0.015625)"/>
      <path id="SegoeUI-Bold-6c" d="M 1403 0 
L 416 0 
L 416 4738 
L 1403 4738 
L 1403 0 
z
" transform="scale(0.015625)"/>
      <path id="SegoeUI-Bold-73" d="M 206 84 
L 206 884 
Q 450 738 692 666 
Q 934 594 1150 594 
Q 1413 594 1564 666 
Q 1716 738 1716 884 
Q 1716 978 1647 1040 
Q 1578 1103 1470 1150 
Q 1363 1197 1234 1234 
Q 1106 1272 988 1319 
Q 797 1391 651 1473 
Q 506 1556 407 1665 
Q 309 1775 257 1919 
Q 206 2063 206 2259 
Q 206 2528 323 2722 
Q 441 2916 636 3039 
Q 831 3163 1082 3220 
Q 1334 3278 1606 3278 
Q 1819 3278 2037 3245 
Q 2256 3213 2469 3150 
L 2469 2388 
Q 2281 2497 2067 2551 
Q 1853 2606 1647 2606 
Q 1550 2606 1464 2589 
Q 1378 2572 1312 2539 
Q 1247 2506 1209 2454 
Q 1172 2403 1172 2338 
Q 1172 2250 1228 2187 
Q 1284 2125 1375 2079 
Q 1466 2034 1577 1998 
Q 1688 1963 1797 1925 
Q 1994 1856 2153 1775 
Q 2313 1694 2427 1584 
Q 2541 1475 2602 1328 
Q 2663 1181 2663 978 
Q 2663 694 2539 492 
Q 2416 291 2211 164 
Q 2006 38 1739 -20 
Q 1472 -78 1184 -78 
Q 656 -78 206 84 
z
" transform="scale(0.015625)"/>
      <path id="SegoeUI-Bold-79" d="M 3463 3200 
L 2163 -256 
Q 1694 -1503 750 -1503 
Q 391 -1503 159 -1422 
L 159 -634 
Q 356 -750 588 -750 
Q 969 -750 1119 -391 
L 1288 6 
L -13 3200 
L 1081 3200 
L 1678 1253 
Q 1734 1072 1766 825 
L 1778 825 
Q 1806 1006 1881 1247 
L 2484 3200 
L 3463 3200 
z
" transform="scale(0.015625)"/>
      <path id="SegoeUI-Bold-70" d="M 1416 372 
L 1403 372 
L 1403 -1472 
L 416 -1472 
L 416 3200 
L 1403 3200 
L 1403 2719 
L 1416 2719 
Q 1781 3278 2444 3278 
Q 3066 3278 3405 2851 
Q 3744 2425 3744 1691 
Q 3744 891 3348 406 
Q 2953 -78 2297 -78 
Q 1719 -78 1416 372 
z
M 1388 1684 
L 1388 1428 
Q 1388 1097 1563 887 
Q 1738 678 2022 678 
Q 2359 678 2545 939 
Q 2731 1200 2731 1678 
Q 2731 2522 2075 2522 
Q 1772 2522 1580 2292 
Q 1388 2063 1388 1684 
z
" transform="scale(0.015625)"/>
     </defs>
     <use xlink:href="#SegoeUI-Bold-52"/>
     <use xlink:href="#SegoeUI-Bold-6f" x="62.783203"/>
     <use xlink:href="#SegoeUI-Bold-6d" x="123.916016"/>
     <use xlink:href="#SegoeUI-Bold-62" x="215.517578"/>
     <use xlink:href="#SegoeUI-Bold-6f" x="277.529297"/>
     <use xlink:href="#SegoeUI-Bold-20" x="338.662109"/>
     <use xlink:href="#SegoeUI-Bold-2d" x="366.25"/>
     <use xlink:href="#SegoeUI-Bold-20" x="406.679688"/>
     <use xlink:href="#SegoeUI-Bold-44" x="434.267578"/>
     <use xlink:href="#SegoeUI-Bold-69" x="507.998047"/>
     <use xlink:href="#SegoeUI-Bold-61" x="536.416016"/>
     <use xlink:href="#SegoeUI-Bold-67" x="590.224609"/>
     <use xlink:href="#SegoeUI-Bold-6f" x="652.138672"/>
     <use xlink:href="#SegoeUI-Bold-6e" x="713.271484"/>
     <use xlink:href="#SegoeUI-Bold-61" x="773.769531"/>
     <use xlink:href="#SegoeUI-Bold-6c" x="827.578125"/>
     <use xlink:href="#SegoeUI-Bold-65" x="855.996094"/>
     <use xlink:href="#SegoeUI-Bold-73" x="910.097656"/>
     <use xlink:href="#SegoeUI-Bold-20" x="954.091797"/>
     <use xlink:href="#SegoeUI-Bold-79" x="981.679688"/>
     <use xlink:href="#SegoeUI-Bold-20" x="1035.488281"/>
     <use xlink:href="#SegoeUI-Bold-50" x="1063.076172"/>
     <use xlink:href="#SegoeUI-Bold-72" x="1124.501953"/>
     <use xlink:href="#SegoeUI-Bold-6f" x="1163.921875"/>
     <use xlink:href="#SegoeUI-Bold-70" x="1225.054688"/>
     <use xlink:href="#SegoeUI-Bold-69" x="1287.066406"/>
     <use xlink:href="#SegoeUI-Bold-65" x="1315.484375"/>
     <use xlink:href="#SegoeUI-Bold-64" x="1369.585938"/>
     <use xlink:href="#SegoeUI-Bold-61" x="1431.5"/>
     <use xlink:href="#SegoeUI-Bold-64" x="1485.308594"/>
     <use xlink:href="#SegoeUI-Bold-65" x="1547.222656"/>
     <use xlink:href="#SegoeUI-Bold-73" x="1601.324219"/>
    </g>
   </g>
   <g id="legend_1">
    <g id="patch_9">
     <path d="M 602.44327 70.076875 
L 714.19952 70.076875 
Q 716.19952 70.076875 716.19952 68.076875 
L 716.19952 39.564375 
Q 716.19952 37.564375 714.19952 37.564375 
L 602.44327 37.564375 
Q 600.44327 37.564375 600.44327 39.564375 
L 600.44327 68.076875 
Q 600.44327 70.076875 602.44327 70.076875 
z
" style="fill: #ffffff; opacity: 0.8; stroke: #cccccc; stroke-linejoin: miter"/>
    </g>
    <g id="line2d_13">
     <path d="M 604.44327 45.4675 
L 614.44327 45.4675 
L 624.44327 45.4675 
" style="fill: none; stroke: #e12885; stroke-width: 2.5; stroke-linecap: square"/>
    </g>
    <g id="text_22">
     <!-- Diagonal mayor D -->
     <g style="fill: #2c2f33" transform="translate(632.44327 48.9675) scale(0.1 -0.1)">
      <defs>
       <path id="SegoeUI-79" d="M 3066 3200 
L 1594 -513 
Q 1200 -1506 488 -1506 
Q 288 -1506 153 -1466 
L 153 -1006 
Q 319 -1063 456 -1063 
Q 844 -1063 1038 -600 
L 1294 6 
L 44 3200 
L 613 3200 
L 1478 738 
Q 1494 691 1544 494 
L 1563 494 
Q 1578 569 1625 731 
L 2534 3200 
L 3066 3200 
z
" transform="scale(0.015625)"/>
      </defs>
      <use xlink:href="#SegoeUI-44"/>
      <use xlink:href="#SegoeUI-69" x="70.117188"/>
      <use xlink:href="#SegoeUI-61" x="94.335938"/>
      <use xlink:href="#SegoeUI-67" x="145.214844"/>
      <use xlink:href="#SegoeUI-6f" x="204.101562"/>
      <use xlink:href="#SegoeUI-6e" x="262.695312"/>
      <use xlink:href="#SegoeUI-61" x="319.287109"/>
      <use xlink:href="#SegoeUI-6c" x="370.166016"/>
      <use xlink:href="#SegoeUI-20" x="394.384766"/>
      <use xlink:href="#SegoeUI-6d" x="421.777344"/>
      <use xlink:href="#SegoeUI-61" x="507.910156"/>
      <use xlink:href="#SegoeUI-79" x="558.789062"/>
      <use xlink:href="#SegoeUI-6f" x="606.677734"/>
      <use xlink:href="#SegoeUI-72" x="665.271484"/>
      <use xlink:href="#SegoeUI-20" x="700.037109"/>
      <use xlink:href="#SegoeUI-44" x="727.429688"/>
     </g>
    </g>
    <g id="line2d_14">
     <path d="M 604.44327 60.22375 
L 614.44327 60.22375 
L 624.44327 60.22375 
" style="fill: none; stroke: #1f2937; stroke-width: 2.5; stroke-linecap: square"/>
    </g>
    <g id="text_23">
     <!-- Diagonal menor d -->
     <g style="fill: #2c2f33" transform="translate(632.44327 63.72375) scale(0.1 -0.1)">
      <use xlink:href="#SegoeUI-44"/>
      <use xlink:href="#SegoeUI-69" x="70.117188"/>
      <use xlink:href="#SegoeUI-61" x="94.335938"/>
      <use xlink:href="#SegoeUI-67" x="145.214844"/>
      <use xlink:href="#SegoeUI-6f" x="204.101562"/>
      <use xlink:href="#SegoeUI-6e" x="262.695312"/>
      <use xlink:href="#SegoeUI-61" x="319.287109"/>
      <use xlink:href="#SegoeUI-6c" x="370.166016"/>
      <use xlink:href="#SegoeUI-20" x="394.384766"/>
      <use xlink:href="#SegoeUI-6d" x="421.777344"/>
      <use xlink:href="#SegoeUI-65" x="507.910156"/>
      <use xlink:href="#SegoeUI-6e" x="560.205078"/>
      <use xlink:href="#SegoeUI-6f" x="616.796875"/>
      <use xlink:href="#SegoeUI-72" x="675.390625"/>
      <use xlink:href="#SegoeUI-20" x="710.15625"/>
      <use xlink:href="#SegoeUI-64" x="737.548828"/>
     </g>
    </g>
   </g>
  </g>
 </g>
 <defs>
  <clipPath id="p91c2d282f1">
   <rect x="7.2" y="32.564375" width="713.99952" height="543.999634"/>
  </clipPath>
 </defs>
</svg>
