<?xml version="1.0" encoding="utf-8" standalone="no"?>
<!DOCTYPE svg PUBLIC "-//W3C//DTD SVG 1.1//EN"
  "http://www.w3.org/Graphics/SVG/1.1/DTD/svg11.dtd">
<svg xmlns:xlink="http://www.w3.org/1999/xlink" width="884.010242pt" height="512.39952pt" viewBox="0 0 884.010242 512.39952" xmlns="http://www.w3.org/2000/svg" version="1.1">
 <metadata>
  <rdf:RDF xmlns:dc="http://purl.org/dc/elements/1.1/" xmlns:cc="http://creativecommons.org/ns#" xmlns:rdf="http://www.w3.org/1999/02/22-rdf-syntax-ns#">
   <cc:Work>
    <dc:type rdf:resource="http://purl.org/dc/dcmitype/StillImage"/>
    <dc:date>2026-04-11T16:11:40.578598</dc:date>
    <dc:format>image/svg+xml</dc:format>
    <dc:creator>
     <cc:Agent>
      <dc:title>Matplotlib v3.8.4, https://matplotlib.org/</dc:title>
     </cc:Agent>
    </dc:creator>
   </cc:Work>
  </rdf:RDF>
 </metadata>
 <defs>
  <style type="text/css">*{stroke-linejoin: round; stroke-linecap: butt}</style>
 </defs>
 <g id="figure_1">
  <g id="patch_1">
   <path d="M 0 512.39952 
L 884.010242 512.39952 
L 884.010242 0 
L 0 0 
z
" style="fill: #ffffff"/>
  </g>
  <g id="axes_1">
   <g id="patch_2">
    <path d="M 188.985241 232.521658 
L 311.001134 188.111506 
L 309.686296 184.653141 
L 308.273459 181.233642 
L 306.76377 177.855784 
L 305.158454 174.522311 
L 303.458815 171.235929 
L 301.666232 167.999306 
L 299.782161 164.81507 
L 297.808133 161.685806 
L 295.745748 158.614055 
L 293.596683 155.602311 
L 291.362681 152.65302 
L 289.045558 149.768576 
L 286.647193 146.95132 
L 284.169535 144.203541 
L 281.614594 141.527468 
L 278.984446 138.925276 
L 276.281226 136.399077 
L 273.507129 133.950921 
L 270.664406 131.582797 
L 267.755367 129.296628 
L 264.782373 127.094268 
L 261.747837 124.977508 
L 258.654224 122.948064 
L 255.504045 121.007586 
L 252.299859 119.157648 
L 249.044266 117.399752 
L 245.73991 115.735327 
L 242.389473 114.165722 
L 238.995677 112.692213 
L 235.561276 111.315996 
L 232.089059 110.038188 
L 228.581846 108.859827 
L 225.042483 107.781869 
L 221.473844 106.80519 
L 217.878828 105.930583 
L 214.260352 105.158758 
L 210.621355 104.490341 
L 206.964791 103.925875 
L 203.293629 103.465819 
L 199.610849 103.110546 
L 195.919443 102.860344 
L 192.222407 102.715416 
L 188.522742 102.675881 
L 184.823453 102.741771 
L 181.127542 102.913031 
L 177.438012 103.189523 
L 173.757857 103.571023 
L 170.090066 104.05722 
L 166.437615 104.647719 
z
" clip-path="url(#pabfe80d0aa)" style="fill: #39c5bb; opacity: 0.4; stroke: #39c5bb; stroke-linejoin: miter"/>
   </g>
   <g id="line2d_1">
    <path d="M 318.831842 232.521658 
L 318.570418 224.286278 
L 317.787202 216.084059 
L 316.485344 207.948028 
L 314.67009 199.910946 
L 312.348746 192.005176 
L 309.530661 184.262552 
L 306.227183 176.71425 
L 302.451612 169.390665 
L 298.219153 162.321286 
L 293.546847 155.534579 
L 288.453508 149.057872 
L 282.959646 142.917245 
L 277.087382 137.137422 
L 270.860361 131.741678 
L 264.303659 126.75174 
L 257.443676 122.1877 
L 250.308035 118.067936 
L 242.925468 114.409036 
L 235.325704 111.225734 
L 227.539342 108.530848 
L 219.597737 106.33523 
L 211.532867 104.647719 
L 203.377204 103.475112 
L 195.163591 102.82213 
L 186.9251 102.691402 
L 178.694903 103.083454 
L 170.506143 103.996709 
L 162.391791 105.427488 
L 154.384522 107.370031 
L 146.516578 109.816515 
L 138.81964 112.757089 
L 131.324701 116.179913 
L 124.061941 120.071204 
L 117.060604 124.415293 
L 110.348882 129.194689 
L 103.953801 134.390145 
L 97.901111 139.980743 
L 92.215186 145.94397 
L 86.918919 152.255815 
L 82.033637 158.890863 
L 77.579011 165.822395 
L 73.572979 173.022502 
L 70.031672 180.462191 
L 66.969348 188.111506 
L 64.39834 195.939644 
L 62.328999 203.915085 
L 60.769658 212.005714 
L 59.726596 220.178954 
L 59.204013 228.401894 
L 59.204013 236.641423 
L 59.726596 244.864363 
L 60.769658 253.037603 
L 62.328999 261.128232 
L 64.39834 269.103673 
L 66.969348 276.931811 
L 70.031672 284.581126 
L 73.572979 292.020815 
L 77.579011 299.220922 
L 82.033637 306.152454 
L 86.918919 312.787502 
L 92.215186 319.099347 
L 97.901111 325.062574 
L 103.953801 330.653172 
L 110.348882 335.848628 
L 117.060604 340.628024 
L 124.061941 344.972113 
L 131.324701 348.863404 
L 138.81964 352.286228 
L 146.516578 355.226802 
L 154.384522 357.673286 
L 162.391791 359.615829 
L 170.506143 361.046608 
L 178.694903 361.959863 
L 186.9251 362.351915 
L 195.163591 362.221187 
L 203.377204 361.568205 
L 211.532867 360.395598 
L 219.597737 358.708087 
L 227.539342 356.512469 
L 235.325704 353.817583 
L 242.925468 350.634281 
L 250.308035 346.975381 
L 257.443676 342.855617 
L 264.303659 338.291577 
L 270.860361 333.301639 
L 277.087382 327.905895 
L 282.959646 322.126072 
L 288.453508 315.985445 
L 293.546847 309.508738 
L 298.219153 302.722031 
L 302.451612 295.652652 
L 306.227183 288.329067 
L 309.530661 280.780765 
L 312.348746 273.038141 
L 314.67009 265.132371 
L 316.485344 257.095289 
L 317.787202 248.959258 
L 318.570418 240.757039 
L 318.831842 232.521658 
" clip-path="url(#pabfe80d0aa)" style="fill: none; stroke: #d1d5db; stroke-width: 1.5; stroke-linecap: square"/>
   </g>
   <g id="line2d_2">
    <path d="M 311.001134 188.111506 
L 309.686296 184.653141 
L 308.273459 181.233642 
L 306.76377 177.855784 
L 305.158454 174.522311 
L 303.458815 171.235929 
L 301.666232 167.999306 
L 299.782161 164.81507 
L 297.808133 161.685806 
L 295.745748 158.614055 
L 293.596683 155.602311 
L 291.362681 152.65302 
L 289.045558 149.768576 
L 286.647193 146.95132 
L 284.169535 144.203541 
L 281.614594 141.527468 
L 278.984446 138.925276 
L 276.281226 136.399077 
L 273.507129 133.950921 
L 270.664406 131.582797 
L 267.755367 129.296628 
L 264.782373 127.094268 
L 261.747837 124.977508 
L 258.654224 122.948064 
L 255.504045 121.007586 
L 252.299859 119.157648 
L 249.044266 117.399752 
L 245.73991 115.735327 
L 242.389473 114.165722 
L 238.995677 112.692213 
L 235.561276 111.315996 
L 232.089059 110.038188 
L 228.581846 108.859827 
L 225.042483 107.781869 
L 221.473844 106.80519 
L 217.878828 105.930583 
L 214.260352 105.158758 
L 210.621355 104.490341 
L 206.964791 103.925875 
L 203.293629 103.465819 
L 199.610849 103.110546 
L 195.919443 102.860344 
L 192.222407 102.715416 
L 188.522742 102.675881 
L 184.823453 102.741771 
L 181.127542 102.913031 
L 177.438012 103.189523 
L 173.757857 103.571023 
L 170.090066 104.05722 
L 166.437615 104.647719 
" clip-path="url(#pabfe80d0aa)" style="fill: none; stroke: #39c5bb; stroke-width: 3; stroke-linecap: square"/>
   </g>
   <g id="line2d_3">
    <path d="M 188.985241 232.521658 
L 311.001134 188.111506 
" clip-path="url(#pabfe80d0aa)" style="fill: none; stroke: #e12885; stroke-width: 2.5; stroke-linecap: square"/>
   </g>
   <g id="line2d_4">
    <path d="M 188.985241 232.521658 
L 166.437615 104.647719 
" clip-path="url(#pabfe80d0aa)" style="fill: none; stroke: #e12885; stroke-width: 2.5; stroke-linecap: square"/>
   </g>
   <g id="line2d_5">
    <defs>
     <path id="mc0626e763c" d="M 0 3 
C 0.795609 3 1.55874 2.683901 2.12132 2.12132 
C 2.683901 1.55874 3 0.795609 3 0 
C 3 -0.795609 2.683901 -1.55874 2.12132 -2.12132 
C 1.55874 -2.683901 0.795609 -3 0 -3 
C -0.795609 -3 -1.55874 -2.683901 -2.12132 -2.12132 
C -2.683901 -1.55874 -3 -0.795609 -3 0 
C -3 0.795609 -2.683901 1.55874 -2.12132 2.12132 
C -1.55874 2.683901 -0.795609 3 0 3 
z
" style="stroke: #374151"/>
    </defs>
    <g clip-path="url(#pabfe80d0aa)">
     <use xlink:href="#mc0626e763c" x="188.985241" y="232.521658" style="fill: #374151; stroke: #374151"/>
    </g>
   </g>
   <g id="line2d_6">
    <path d="M 213.38842 223.639628 
L 212.932662 222.475435 
L 212.421402 221.334525 
L 211.855824 220.219544 
L 211.237239 219.133075 
L 210.567081 218.077637 
L 209.846904 217.055676 
L 209.078375 216.06956 
L 208.263277 215.121574 
L 207.403498 214.213917 
L 206.501032 213.348691 
L 205.557969 212.527903 
L 204.576496 211.753453 
L 203.558888 211.027138 
L 202.507502 210.35064 
L 201.424776 209.725528 
L 200.313219 209.15325 
L 199.175407 208.635133 
L 198.013977 208.172377 
L 196.831622 207.766055 
L 195.631082 207.417109 
L 194.415138 207.126348 
L 193.186609 206.894445 
L 191.948344 206.721937 
L 190.70321 206.609226 
L 189.454095 206.556571 
L 188.203893 206.564095 
L 186.955502 206.631781 
L 185.711816 206.759472 
L 184.475716 206.946871 
" clip-path="url(#pabfe80d0aa)" style="fill: none; stroke: #1f2937; stroke-width: 2; stroke-linecap: square"/>
   </g>
   <g id="text_1">
    <g id="patch_3">
     <path d="M 198.723736 258.874814 
L 207.06483 258.874814 
Q 208.16483 258.874814 208.16483 257.774814 
L 208.16483 247.101376 
Q 208.16483 246.001376 207.06483 246.001376 
L 198.723736 246.001376 
Q 197.623736 246.001376 197.623736 247.101376 
L 197.623736 257.774814 
Q 197.623736 258.874814 198.723736 258.874814 
z
" style="fill: #ffffff; opacity: 0.8"/>
    </g>
    <!-- O -->
    <g style="fill: #2c2f33" transform="translate(198.723736 255.244814) scale(0.11 -0.11)">
     <defs>
      <path id="SegoeUI-Bold-4f" d="M 2406 -78 
Q 1444 -78 837 548 
Q 231 1175 231 2181 
Q 231 3244 847 3900 
Q 1463 4556 2478 4556 
Q 3438 4556 4030 3928 
Q 4622 3300 4622 2272 
Q 4622 1216 4008 569 
Q 3394 -78 2406 -78 
z
M 2450 3688 
Q 1919 3688 1606 3289 
Q 1294 2891 1294 2234 
Q 1294 1569 1606 1181 
Q 1919 794 2425 794 
Q 2947 794 3253 1170 
Q 3559 1547 3559 2216 
Q 3559 2913 3262 3300 
Q 2966 3688 2450 3688 
z
" transform="scale(0.015625)"/>
     </defs>
     <use xlink:href="#SegoeUI-Bold-4f"/>
    </g>
   </g>
   <g id="text_2">
    <g id="patch_4">
     <path d="M 224.693056 201.433843 
L 233.259306 201.433843 
Q 234.659306 201.433843 234.659306 200.033843 
L 234.659306 186.449468 
Q 234.659306 185.049468 233.259306 185.049468 
L 224.693056 185.049468 
Q 223.293056 185.049468 223.293056 186.449468 
L 223.293056 200.033843 
Q 223.293056 201.433843 224.693056 201.433843 
z
" style="fill: #ffffff; opacity: 0.8"/>
    </g>
    <!-- θ -->
    <g style="fill: #1f2937" transform="translate(224.693056 196.813843) scale(0.14 -0.14)">
     <defs>
      <path id="SegoeUI-Bold-3b8" d="M 1938 -78 
Q 1134 -78 679 564 
Q 225 1206 225 2359 
Q 225 3513 692 4158 
Q 1159 4803 1988 4803 
Q 2800 4803 3244 4165 
Q 3688 3528 3688 2425 
Q 3688 1247 3228 584 
Q 2769 -78 1938 -78 
z
M 2669 2744 
Q 2600 4041 1959 4041 
Q 1322 4041 1241 2744 
L 2669 2744 
z
M 2669 2031 
L 1238 2031 
Q 1303 684 1966 684 
Q 2606 684 2669 2031 
z
" transform="scale(0.015625)"/>
     </defs>
     <use xlink:href="#SegoeUI-Bold-3b8"/>
    </g>
   </g>
   <g id="text_3">
    <g id="patch_5">
     <path d="M 256.774451 101.881113 
L 277.011951 101.881113 
Q 279.011951 101.881113 279.011951 99.881113 
L 279.011951 90.177988 
Q 279.011951 88.177988 277.011951 88.177988 
L 256.774451 88.177988 
Q 254.774451 88.177988 254.774451 90.177988 
L 254.774451 99.881113 
Q 254.774451 101.881113 256.774451 101.881113 
z
" style="fill: #ffffff; opacity: 0.8"/>
    </g>
    <!-- arco -->
    <g style="fill: #39c5bb" transform="translate(256.774451 97.581113) scale(0.1 -0.1)">
     <defs>
      <path id="SegoeUI-Bold-61" d="M 3078 0 
L 2144 0 
L 2144 459 
L 2131 459 
Q 1809 -78 1178 -78 
Q 713 -78 445 186 
Q 178 450 178 891 
Q 178 1822 1281 1966 
L 2150 2081 
Q 2150 2606 1581 2606 
Q 1009 2606 494 2266 
L 494 3009 
Q 700 3116 1058 3197 
Q 1416 3278 1709 3278 
Q 3078 3278 3078 1913 
L 3078 0 
z
M 2150 1300 
L 2150 1516 
L 1569 1441 
Q 1088 1378 1088 1006 
Q 1088 838 1205 730 
Q 1322 622 1522 622 
Q 1800 622 1975 814 
Q 2150 1006 2150 1300 
z
" transform="scale(0.015625)"/>
      <path id="SegoeUI-Bold-72" d="M 2503 2309 
Q 2325 2406 2088 2406 
Q 1766 2406 1584 2170 
Q 1403 1934 1403 1528 
L 1403 0 
L 416 0 
L 416 3200 
L 1403 3200 
L 1403 2606 
L 1416 2606 
Q 1650 3256 2259 3256 
Q 2416 3256 2503 3219 
L 2503 2309 
z
" transform="scale(0.015625)"/>
      <path id="SegoeUI-Bold-63" d="M 2841 116 
Q 2506 -78 1875 -78 
Q 1138 -78 681 369 
Q 225 816 225 1522 
Q 225 2338 714 2808 
Q 1203 3278 2022 3278 
Q 2588 3278 2841 3128 
L 2841 2291 
Q 2531 2522 2150 2522 
Q 1725 2522 1476 2273 
Q 1228 2025 1228 1588 
Q 1228 1163 1465 920 
Q 1703 678 2119 678 
Q 2488 678 2841 909 
L 2841 116 
z
" transform="scale(0.015625)"/>
      <path id="SegoeUI-Bold-6f" d="M 1941 -78 
Q 1141 -78 683 370 
Q 225 819 225 1588 
Q 225 2381 700 2829 
Q 1175 3278 1984 3278 
Q 2781 3278 3234 2829 
Q 3688 2381 3688 1644 
Q 3688 847 3220 384 
Q 2753 -78 1941 -78 
z
M 1966 2522 
Q 1616 2522 1422 2281 
Q 1228 2041 1228 1600 
Q 1228 678 1972 678 
Q 2681 678 2681 1625 
Q 2681 2522 1966 2522 
z
" transform="scale(0.015625)"/>
     </defs>
     <use xlink:href="#SegoeUI-Bold-61"/>
     <use xlink:href="#SegoeUI-Bold-72" x="53.808594"/>
     <use xlink:href="#SegoeUI-Bold-63" x="93.228516"/>
     <use xlink:href="#SegoeUI-Bold-6f" x="141.226562"/>
    </g>
   </g>
   <g id="text_4">
    <g id="patch_6">
     <path d="M 256.093982 225.040734 
L 260.869607 225.040734 
Q 262.069607 225.040734 262.069607 223.840734 
L 262.069607 212.196984 
Q 262.069607 210.996984 260.869607 210.996984 
L 256.093982 210.996984 
Q 254.893982 210.996984 254.893982 212.196984 
L 254.893982 223.840734 
Q 254.893982 225.040734 256.093982 225.040734 
z
" style="fill: #ffffff; opacity: 0.8"/>
    </g>
    <!-- r -->
    <g style="fill: #e12885" transform="translate(256.093982 221.080734) scale(0.12 -0.12)">
     <use xlink:href="#SegoeUI-Bold-72"/>
    </g>
   </g>
   <g id="text_5">
    <g id="patch_7">
     <path d="M 142.290241 478.071685 
L 235.680241 478.071685 
Q 241.180241 478.071685 241.180241 472.571685 
L 241.180241 427.29156 
Q 241.180241 421.79156 235.680241 421.79156 
L 142.290241 421.79156 
Q 136.790241 421.79156 136.790241 427.29156 
L 136.790241 472.571685 
Q 136.790241 478.071685 142.290241 478.071685 
z
" style="fill: #f8fafc; opacity: 0.95; stroke: #e2e8f0; stroke-linejoin: miter"/>
    </g>
    <!-- Área: $A = \frac{\theta}{360°} \cdot \pi r^2$ -->
    <g style="fill: #1f2937" transform="translate(142.345241 438.18156) scale(0.11 -0.11)">
     <defs>
      <path id="SegoeUI-c1" d="M 4056 0 
L 3475 0 
L 3000 1256 
L 1100 1256 
L 653 0 
L 69 0 
L 1788 4481 
L 2331 4481 
L 4056 0 
z
M 2828 1728 
L 2125 3638 
Q 2091 3731 2056 3938 
L 2044 3938 
Q 2013 3747 1972 3638 
L 1275 1728 
L 2828 1728 
z
M 2710 5919 
L 1891 4894 
L 1494 4894 
L 2191 5919 
L 2710 5919 
z
" transform="scale(0.015625)"/>
      <path id="SegoeUI-72" d="M 2188 2681 
Q 2053 2784 1800 2784 
Q 1472 2784 1251 2475 
Q 1031 2166 1031 1631 
L 1031 0 
L 519 0 
L 519 3200 
L 1031 3200 
L 1031 2541 
L 1044 2541 
Q 1153 2878 1378 3067 
Q 1603 3256 1881 3256 
Q 2081 3256 2188 3213 
L 2188 2681 
z
" transform="scale(0.015625)"/>
      <path id="SegoeUI-65" d="M 3091 1472 
L 831 1472 
Q 844 938 1119 647 
Q 1394 356 1875 356 
Q 2416 356 2869 713 
L 2869 231 
Q 2447 -75 1753 -75 
Q 1075 -75 687 361 
Q 300 797 300 1588 
Q 300 2334 723 2804 
Q 1147 3275 1775 3275 
Q 2403 3275 2747 2869 
Q 3091 2463 3091 1741 
L 3091 1472 
z
M 2566 1906 
Q 2563 2350 2352 2597 
Q 2141 2844 1766 2844 
Q 1403 2844 1150 2584 
Q 897 2325 838 1906 
L 2566 1906 
z
" transform="scale(0.015625)"/>
      <path id="SegoeUI-61" d="M 2809 0 
L 2297 0 
L 2297 500 
L 2284 500 
Q 1950 -75 1300 -75 
Q 822 -75 551 178 
Q 281 431 281 850 
Q 281 1747 1338 1894 
L 2297 2028 
Q 2297 2844 1638 2844 
Q 1059 2844 594 2450 
L 594 2975 
Q 1066 3275 1681 3275 
Q 2809 3275 2809 2081 
L 2809 0 
z
M 2297 1619 
L 1525 1513 
Q 1169 1463 987 1336 
Q 806 1209 806 888 
Q 806 653 973 504 
Q 1141 356 1419 356 
Q 1800 356 2048 623 
Q 2297 891 2297 1300 
L 2297 1619 
z
" transform="scale(0.015625)"/>
      <path id="SegoeUI-3a" d="M 697 2575 
Q 553 2575 451 2678 
Q 350 2781 350 2925 
Q 350 3069 451 3169 
Q 553 3269 697 3269 
Q 844 3269 947 3169 
Q 1050 3069 1050 2925 
Q 1050 2781 947 2678 
Q 844 2575 697 2575 
z
M 697 -69 
Q 553 -69 451 34 
Q 350 138 350 281 
Q 350 425 451 529 
Q 553 634 697 634 
Q 844 634 947 529 
Q 1050 425 1050 281 
Q 1050 138 947 34 
Q 844 -69 697 -69 
z
" transform="scale(0.015625)"/>
      <path id="SegoeUI-20" transform="scale(0.015625)"/>
      <path id="DejaVuSans-Oblique-41" d="M 2356 4666 
L 3072 4666 
L 3938 0 
L 3278 0 
L 3084 1197 
L 984 1197 
L 325 0 
L -341 0 
L 2356 4666 
z
M 2584 4044 
L 1275 1722 
L 2988 1722 
L 2584 4044 
z
" transform="scale(0.015625)"/>
      <path id="DejaVuSans-3d" d="M 678 2906 
L 4684 2906 
L 4684 2381 
L 678 2381 
L 678 2906 
z
M 678 1631 
L 4684 1631 
L 4684 1100 
L 678 1100 
L 678 1631 
z
" transform="scale(0.015625)"/>
      <path id="DejaVuSans-Oblique-3b8" d="M 2913 2219 
L 925 2219 
Q 791 1284 928 888 
Q 1100 400 1566 400 
Q 2034 400 2391 891 
Q 2703 1322 2913 2219 
z
M 3009 2750 
Q 3094 3638 2984 3950 
Q 2813 4444 2353 4444 
Q 1875 4444 1525 3956 
Q 1250 3563 1034 2750 
L 3009 2750 
z
M 2444 4913 
Q 3194 4913 3494 4250 
Q 3794 3591 3566 2422 
Q 3341 1256 2781 594 
Q 2225 -72 1475 -72 
Q 722 -72 425 594 
Q 128 1256 353 2422 
Q 581 3591 1134 4250 
Q 1691 4913 2444 4913 
z
" transform="scale(0.015625)"/>
      <path id="DejaVuSans-33" d="M 2597 2516 
Q 3050 2419 3304 2112 
Q 3559 1806 3559 1356 
Q 3559 666 3084 287 
Q 2609 -91 1734 -91 
Q 1441 -91 1130 -33 
Q 819 25 488 141 
L 488 750 
Q 750 597 1062 519 
Q 1375 441 1716 441 
Q 2309 441 2620 675 
Q 2931 909 2931 1356 
Q 2931 1769 2642 2001 
Q 2353 2234 1838 2234 
L 1294 2234 
L 1294 2753 
L 1863 2753 
Q 2328 2753 2575 2939 
Q 2822 3125 2822 3475 
Q 2822 3834 2567 4026 
Q 2313 4219 1838 4219 
Q 1578 4219 1281 4162 
Q 984 4106 628 3988 
L 628 4550 
Q 988 4650 1302 4700 
Q 1616 4750 1894 4750 
Q 2613 4750 3031 4423 
Q 3450 4097 3450 3541 
Q 3450 3153 3228 2886 
Q 3006 2619 2597 2516 
z
" transform="scale(0.015625)"/>
      <path id="DejaVuSans-36" d="M 2113 2584 
Q 1688 2584 1439 2293 
Q 1191 2003 1191 1497 
Q 1191 994 1439 701 
Q 1688 409 2113 409 
Q 2538 409 2786 701 
Q 3034 994 3034 1497 
Q 3034 2003 2786 2293 
Q 2538 2584 2113 2584 
z
M 3366 4563 
L 3366 3988 
Q 3128 4100 2886 4159 
Q 2644 4219 2406 4219 
Q 1781 4219 1451 3797 
Q 1122 3375 1075 2522 
Q 1259 2794 1537 2939 
Q 1816 3084 2150 3084 
Q 2853 3084 3261 2657 
Q 3669 2231 3669 1497 
Q 3669 778 3244 343 
Q 2819 -91 2113 -91 
Q 1303 -91 875 529 
Q 447 1150 447 2328 
Q 447 3434 972 4092 
Q 1497 4750 2381 4750 
Q 2619 4750 2861 4703 
Q 3103 4656 3366 4563 
z
" transform="scale(0.015625)"/>
      <path id="DejaVuSans-30" d="M 2034 4250 
Q 1547 4250 1301 3770 
Q 1056 3291 1056 2328 
Q 1056 1369 1301 889 
Q 1547 409 2034 409 
Q 2525 409 2770 889 
Q 3016 1369 3016 2328 
Q 3016 3291 2770 3770 
Q 2525 4250 2034 4250 
z
M 2034 4750 
Q 2819 4750 3233 4129 
Q 3647 3509 3647 2328 
Q 3647 1150 3233 529 
Q 2819 -91 2034 -91 
Q 1250 -91 836 529 
Q 422 1150 422 2328 
Q 422 3509 836 4129 
Q 1250 4750 2034 4750 
z
" transform="scale(0.015625)"/>
      <path id="DejaVuSans-b0" d="M 1600 4347 
Q 1350 4347 1178 4173 
Q 1006 4000 1006 3750 
Q 1006 3503 1178 3333 
Q 1350 3163 1600 3163 
Q 1850 3163 2022 3333 
Q 2194 3503 2194 3750 
Q 2194 3997 2020 4172 
Q 1847 4347 1600 4347 
z
M 1600 4750 
Q 1800 4750 1984 4673 
Q 2169 4597 2303 4453 
Q 2447 4313 2519 4134 
Q 2591 3956 2591 3750 
Q 2591 3338 2302 3052 
Q 2013 2766 1594 2766 
Q 1172 2766 890 3047 
Q 609 3328 609 3750 
Q 609 4169 896 4459 
Q 1184 4750 1600 4750 
z
" transform="scale(0.015625)"/>
      <path id="DejaVuSans-22c5" d="M 684 2619 
L 1344 2619 
L 1344 1825 
L 684 1825 
L 684 2619 
z
" transform="scale(0.015625)"/>
      <path id="DejaVuSans-Oblique-3c0" d="M 584 3500 
L 3938 3500 
L 3825 2925 
L 3384 2925 
L 2966 775 
Q 2922 550 2981 450 
Q 3038 353 3209 353 
Q 3256 353 3325 363 
Q 3397 369 3419 372 
L 3338 -44 
Q 3222 -84 3103 -103 
Q 2981 -122 2866 -122 
Q 2491 -122 2388 81 
Q 2284 288 2391 838 
L 2797 2925 
L 1506 2925 
L 938 0 
L 350 0 
L 919 2925 
L 472 2925 
L 584 3500 
z
" transform="scale(0.015625)"/>
      <path id="DejaVuSans-Oblique-72" d="M 2853 2969 
Q 2766 3016 2653 3041 
Q 2541 3066 2413 3066 
Q 1953 3066 1609 2717 
Q 1266 2369 1153 1784 
L 800 0 
L 225 0 
L 909 3500 
L 1484 3500 
L 1375 2956 
Q 1603 3259 1920 3421 
Q 2238 3584 2597 3584 
Q 2691 3584 2781 3573 
Q 2872 3563 2963 3538 
L 2853 2969 
z
" transform="scale(0.015625)"/>
      <path id="DejaVuSans-32" d="M 1228 531 
L 3431 531 
L 3431 0 
L 469 0 
L 469 531 
Q 828 903 1448 1529 
Q 2069 2156 2228 2338 
Q 2531 2678 2651 2914 
Q 2772 3150 2772 3378 
Q 2772 3750 2511 3984 
Q 2250 4219 1831 4219 
Q 1534 4219 1204 4116 
Q 875 4013 500 3803 
L 500 4441 
Q 881 4594 1212 4672 
Q 1544 4750 1819 4750 
Q 2544 4750 2975 4387 
Q 3406 4025 3406 3419 
Q 3406 3131 3298 2873 
Q 3191 2616 2906 2266 
Q 2828 2175 2409 1742 
Q 1991 1309 1228 531 
z
" transform="scale(0.015625)"/>
     </defs>
     <use xlink:href="#SegoeUI-c1" transform="translate(0 0.679688)"/>
     <use xlink:href="#SegoeUI-72" transform="translate(64.501953 0.679688)"/>
     <use xlink:href="#SegoeUI-65" transform="translate(99.267578 0.679688)"/>
     <use xlink:href="#SegoeUI-61" transform="translate(151.5625 0.679688)"/>
     <use xlink:href="#SegoeUI-3a" transform="translate(202.441406 0.679688)"/>
     <use xlink:href="#SegoeUI-20" transform="translate(224.121094 0.679688)"/>
     <use xlink:href="#DejaVuSans-Oblique-41" transform="translate(251.513672 0.679688)"/>
     <use xlink:href="#DejaVuSans-3d" transform="translate(339.404297 0.679688)"/>
     <use xlink:href="#DejaVuSans-Oblique-3b8" transform="translate(505.675781 45.264063) scale(0.7)"/>
     <use xlink:href="#DejaVuSans-33" transform="translate(442.675781 -38.726562) scale(0.7)"/>
     <use xlink:href="#DejaVuSans-36" transform="translate(487.211914 -38.726562) scale(0.7)"/>
     <use xlink:href="#DejaVuSans-30" transform="translate(531.748047 -38.726562) scale(0.7)"/>
     <use xlink:href="#DejaVuSans-b0" transform="translate(576.28418 -38.726562) scale(0.7)"/>
     <use xlink:href="#DejaVuSans-22c5" transform="translate(643.266602 0.679688)"/>
     <use xlink:href="#DejaVuSans-Oblique-3c0" transform="translate(694.536133 0.679688)"/>
     <use xlink:href="#DejaVuSans-Oblique-72" transform="translate(754.741211 0.679688)"/>
     <use xlink:href="#DejaVuSans-32" transform="translate(800.504388 38.960938) scale(0.7)"/>
     <path d="M 442.675781 19.476562 
L 442.675781 25.726562 
L 611.28418 25.726562 
L 611.28418 19.476562 
L 442.675781 19.476562 
z
"/>
    </g>
    <!--  -->
    <g style="fill: #1f2937" transform="translate(188.985241 452.463685) scale(0.11 -0.11)"/>
    <!-- Arco: $L = \frac{\theta}{360°} \cdot 2\pi r$ -->
    <g style="fill: #1f2937" transform="translate(142.290241 468.061685) scale(0.11 -0.11)">
     <defs>
      <path id="SegoeUI-41" d="M 4056 0 
L 3475 0 
L 3000 1256 
L 1100 1256 
L 653 0 
L 69 0 
L 1788 4481 
L 2331 4481 
L 4056 0 
z
M 2828 1728 
L 2125 3638 
Q 2091 3731 2056 3938 
L 2044 3938 
Q 2013 3747 1972 3638 
L 1275 1728 
L 2828 1728 
z
" transform="scale(0.015625)"/>
      <path id="SegoeUI-63" d="M 2700 147 
Q 2331 -75 1825 -75 
Q 1141 -75 720 370 
Q 300 816 300 1525 
Q 300 2316 753 2795 
Q 1206 3275 1963 3275 
Q 2384 3275 2706 3119 
L 2706 2594 
Q 2350 2844 1944 2844 
Q 1453 2844 1139 2492 
Q 825 2141 825 1569 
Q 825 1006 1120 681 
Q 1416 356 1913 356 
Q 2331 356 2700 634 
L 2700 147 
z
" transform="scale(0.015625)"/>
      <path id="SegoeUI-6f" d="M 1856 -75 
Q 1147 -75 723 373 
Q 300 822 300 1563 
Q 300 2369 740 2822 
Q 1181 3275 1931 3275 
Q 2647 3275 3048 2834 
Q 3450 2394 3450 1613 
Q 3450 847 3017 386 
Q 2584 -75 1856 -75 
z
M 1894 2844 
Q 1400 2844 1112 2508 
Q 825 2172 825 1581 
Q 825 1013 1115 684 
Q 1406 356 1894 356 
Q 2391 356 2658 678 
Q 2925 1000 2925 1594 
Q 2925 2194 2658 2519 
Q 2391 2844 1894 2844 
z
" transform="scale(0.015625)"/>
      <path id="DejaVuSans-Oblique-4c" d="M 1075 4666 
L 1709 4666 
L 909 525 
L 3181 525 
L 3078 0 
L 172 0 
L 1075 4666 
z
" transform="scale(0.015625)"/>
     </defs>
     <use xlink:href="#SegoeUI-41" transform="translate(0 0.679688)"/>
     <use xlink:href="#SegoeUI-72" transform="translate(64.501953 0.679688)"/>
     <use xlink:href="#SegoeUI-63" transform="translate(99.267578 0.679688)"/>
     <use xlink:href="#SegoeUI-6f" transform="translate(145.458984 0.679688)"/>
     <use xlink:href="#SegoeUI-3a" transform="translate(204.052734 0.679688)"/>
     <use xlink:href="#SegoeUI-20" transform="translate(225.732422 0.679688)"/>
     <use xlink:href="#DejaVuSans-Oblique-4c" transform="translate(253.125 0.679688)"/>
     <use xlink:href="#DejaVuSans-3d" transform="translate(328.320312 0.679688)"/>
     <use xlink:href="#DejaVuSans-Oblique-3b8" transform="translate(494.591797 45.264063) scale(0.7)"/>
     <use xlink:href="#DejaVuSans-33" transform="translate(431.591797 -38.726562) scale(0.7)"/>
     <use xlink:href="#DejaVuSans-36" transform="translate(476.12793 -38.726562) scale(0.7)"/>
     <use xlink:href="#DejaVuSans-30" transform="translate(520.664062 -38.726562) scale(0.7)"/>
     <use xlink:href="#DejaVuSans-b0" transform="translate(565.200195 -38.726562) scale(0.7)"/>
     <use xlink:href="#DejaVuSans-22c5" transform="translate(632.182617 0.679688)"/>
     <use xlink:href="#DejaVuSans-32" transform="translate(683.452148 0.679688)"/>
     <use xlink:href="#DejaVuSans-Oblique-3c0" transform="translate(747.075195 0.679688)"/>
     <use xlink:href="#DejaVuSans-Oblique-72" transform="translate(807.280273 0.679688)"/>
     <path d="M 431.591797 19.476562 
L 431.591797 25.726562 
L 600.200195 25.726562 
L 600.200195 19.476562 
L 431.591797 19.476562 
z
"/>
    </g>
   </g>
   <g id="text_6">
    <!-- SECTOR CIRCULAR -->
    <g style="fill: #2c2f33" transform="translate(136.347429 35.736417) scale(0.12 -0.12)">
     <defs>
      <path id="SegoeUI-Bold-53" d="M 306 172 
L 306 1172 
Q 578 944 897 830 
Q 1216 716 1541 716 
Q 1731 716 1873 750 
Q 2016 784 2111 845 
Q 2206 906 2253 989 
Q 2300 1072 2300 1169 
Q 2300 1300 2225 1403 
Q 2150 1506 2020 1593 
Q 1891 1681 1712 1762 
Q 1534 1844 1328 1928 
Q 803 2147 545 2462 
Q 288 2778 288 3225 
Q 288 3575 428 3826 
Q 569 4078 811 4240 
Q 1053 4403 1372 4479 
Q 1691 4556 2047 4556 
Q 2397 4556 2667 4514 
Q 2938 4472 3166 4384 
L 3166 3450 
Q 3053 3528 2920 3587 
Q 2788 3647 2647 3686 
Q 2506 3725 2367 3744 
Q 2228 3763 2103 3763 
Q 1931 3763 1790 3730 
Q 1650 3697 1553 3637 
Q 1456 3578 1403 3495 
Q 1350 3413 1350 3309 
Q 1350 3197 1409 3108 
Q 1469 3019 1578 2939 
Q 1688 2859 1844 2782 
Q 2000 2706 2197 2625 
Q 2466 2513 2680 2386 
Q 2894 2259 3047 2100 
Q 3200 1941 3281 1736 
Q 3363 1531 3363 1259 
Q 3363 884 3220 629 
Q 3078 375 2834 217 
Q 2591 59 2267 -9 
Q 1944 -78 1584 -78 
Q 1216 -78 883 -15 
Q 550 47 306 172 
z
" transform="scale(0.015625)"/>
      <path id="SegoeUI-Bold-45" d="M 3200 0 
L 513 0 
L 513 4481 
L 3097 4481 
L 3097 3659 
L 1522 3659 
L 1522 2663 
L 2988 2663 
L 2988 1844 
L 1522 1844 
L 1522 819 
L 3200 819 
L 3200 0 
z
" transform="scale(0.015625)"/>
      <path id="SegoeUI-Bold-43" d="M 3725 159 
Q 3234 -78 2444 -78 
Q 1413 -78 822 528 
Q 231 1134 231 2144 
Q 231 3219 895 3887 
Q 1559 4556 2619 4556 
Q 3275 4556 3725 4391 
L 3725 3419 
Q 3275 3688 2700 3688 
Q 2069 3688 1681 3291 
Q 1294 2894 1294 2216 
Q 1294 1566 1659 1180 
Q 2025 794 2644 794 
Q 3234 794 3725 1081 
L 3725 159 
z
" transform="scale(0.015625)"/>
      <path id="SegoeUI-Bold-54" d="M 3659 3659 
L 2381 3659 
L 2381 0 
L 1369 0 
L 1369 3659 
L 97 3659 
L 97 4481 
L 3659 4481 
L 3659 3659 
z
" transform="scale(0.015625)"/>
      <path id="SegoeUI-Bold-52" d="M 4272 0 
L 3113 0 
L 2416 1153 
Q 2338 1284 2266 1387 
Q 2194 1491 2120 1564 
Q 2047 1638 1967 1677 
Q 1888 1716 1794 1716 
L 1522 1716 
L 1522 0 
L 513 0 
L 513 4481 
L 2113 4481 
Q 3744 4481 3744 3263 
Q 3744 3028 3672 2829 
Q 3600 2631 3469 2472 
Q 3338 2313 3152 2197 
Q 2966 2081 2738 2016 
L 2738 2003 
Q 2838 1972 2931 1901 
Q 3025 1831 3112 1737 
Q 3200 1644 3279 1536 
Q 3359 1428 3425 1325 
L 4272 0 
z
M 1522 3725 
L 1522 2478 
L 1959 2478 
Q 2284 2478 2481 2666 
Q 2681 2856 2681 3138 
Q 2681 3725 1978 3725 
L 1522 3725 
z
" transform="scale(0.015625)"/>
      <path id="SegoeUI-Bold-20" transform="scale(0.015625)"/>
      <path id="SegoeUI-Bold-49" d="M 1522 0 
L 513 0 
L 513 4481 
L 1522 4481 
L 1522 0 
z
" transform="scale(0.015625)"/>
      <path id="SegoeUI-Bold-55" d="M 4166 1941 
Q 4166 -78 2284 -78 
Q 459 -78 459 1894 
L 459 4481 
L 1472 4481 
L 1472 1881 
Q 1472 794 2322 794 
Q 3156 794 3156 1844 
L 3156 4481 
L 4166 4481 
L 4166 1941 
z
" transform="scale(0.015625)"/>
      <path id="SegoeUI-Bold-4c" d="M 3181 0 
L 513 0 
L 513 4481 
L 1522 4481 
L 1522 819 
L 3181 819 
L 3181 0 
z
" transform="scale(0.015625)"/>
      <path id="SegoeUI-Bold-41" d="M 4453 0 
L 3353 0 
L 3034 997 
L 1441 997 
L 1125 0 
L 31 0 
L 1663 4481 
L 2859 4481 
L 4453 0 
z
M 2803 1772 
L 2322 3278 
Q 2269 3447 2247 3681 
L 2222 3681 
Q 2206 3484 2144 3291 
L 1656 1772 
L 2803 1772 
z
" transform="scale(0.015625)"/>
     </defs>
     <use xlink:href="#SegoeUI-Bold-53"/>
     <use xlink:href="#SegoeUI-Bold-45" x="56.054688"/>
     <use xlink:href="#SegoeUI-Bold-43" x="109.277344"/>
     <use xlink:href="#SegoeUI-Bold-54" x="171.679688"/>
     <use xlink:href="#SegoeUI-Bold-4f" x="226.523438"/>
     <use xlink:href="#SegoeUI-Bold-52" x="302.353516"/>
     <use xlink:href="#SegoeUI-Bold-20" x="367.636719"/>
     <use xlink:href="#SegoeUI-Bold-43" x="395.224609"/>
     <use xlink:href="#SegoeUI-Bold-49" x="457.626953"/>
     <use xlink:href="#SegoeUI-Bold-52" x="489.316406"/>
     <use xlink:href="#SegoeUI-Bold-43" x="553.599609"/>
     <use xlink:href="#SegoeUI-Bold-55" x="616.001953"/>
     <use xlink:href="#SegoeUI-Bold-4c" x="688.316406"/>
     <use xlink:href="#SegoeUI-Bold-41" x="741.689453"/>
     <use xlink:href="#SegoeUI-Bold-52" x="812.001953"/>
    </g>
   </g>
  </g>
  <g id="axes_2">
   <g id="patch_8">
    <path d="M 817.040894 188.111506 
L 815.726056 184.653141 
L 814.313219 181.233642 
L 812.80353 177.855784 
L 811.198214 174.522311 
L 809.498575 171.235929 
L 807.705992 167.999306 
L 805.821921 164.81507 
L 803.847893 161.685806 
L 801.785508 158.614055 
L 799.636443 155.602311 
L 797.402441 152.65302 
L 795.085318 149.768576 
L 792.686953 146.95132 
L 790.209295 144.203541 
L 787.654354 141.527468 
L 785.024206 138.925276 
L 782.320986 136.399077 
L 779.546889 133.950921 
L 776.704166 131.582797 
L 773.795127 129.296628 
L 770.822133 127.094268 
L 767.787597 124.977508 
L 764.693984 122.948064 
L 761.543805 121.007586 
L 758.339619 119.157648 
L 755.084026 117.399752 
L 751.77967 115.735327 
L 748.429233 114.165722 
L 745.035437 112.692213 
L 741.601036 111.315996 
L 738.128819 110.038188 
L 734.621606 108.859827 
L 731.082243 107.781869 
L 727.513604 106.80519 
L 723.918588 105.930583 
L 720.300112 105.158758 
L 716.661115 104.490341 
L 713.004551 103.925875 
L 709.333389 103.465819 
L 705.650609 103.110546 
L 701.959203 102.860344 
L 698.262167 102.715416 
L 694.562502 102.675881 
L 690.863213 102.741771 
L 687.167302 102.913031 
L 683.477772 103.189523 
L 679.797617 103.571023 
L 676.129826 104.05722 
L 672.477375 104.647719 
z
" clip-path="url(#p3a5a1ba1e6)" style="fill: #4b5563; opacity: 0.4; stroke: #4b5563; stroke-linejoin: miter"/>
   </g>
   <g id="line2d_7">
    <path d="M 824.871602 232.521658 
L 824.610178 224.286278 
L 823.826962 216.084059 
L 822.525104 207.948028 
L 820.70985 199.910946 
L 818.388506 192.005176 
L 815.570421 184.262552 
L 812.266943 176.71425 
L 808.491372 169.390665 
L 804.258913 162.321286 
L 799.586607 155.534579 
L 794.493268 149.057872 
L 788.999406 142.917245 
L 783.127142 137.137422 
L 776.900121 131.741678 
L 770.343419 126.75174 
L 763.483436 122.1877 
L 756.347795 118.067936 
L 748.965228 114.409036 
L 741.365464 111.225734 
L 733.579102 108.530848 
L 725.637497 106.33523 
L 717.572627 104.647719 
L 709.416964 103.475112 
L 701.203351 102.82213 
L 692.96486 102.691402 
L 684.734663 103.083454 
L 676.545903 103.996709 
L 668.431551 105.427488 
L 660.424282 107.370031 
L 652.556338 109.816515 
L 644.8594 112.757089 
L 637.364461 116.179913 
L 630.101701 120.071204 
L 623.100364 124.415293 
L 616.388642 129.194689 
L 609.993561 134.390145 
L 603.940871 139.980743 
L 598.254946 145.94397 
L 592.958679 152.255815 
L 588.073397 158.890863 
L 583.618771 165.822395 
L 579.612739 173.022502 
L 576.071432 180.462191 
L 573.009108 188.111506 
L 570.4381 195.939644 
L 568.368759 203.915085 
L 566.809418 212.005714 
L 565.766356 220.178954 
L 565.243773 228.401894 
L 565.243773 236.641423 
L 565.766356 244.864363 
L 566.809418 253.037603 
L 568.368759 261.128232 
L 570.4381 269.103673 
L 573.009108 276.931811 
L 576.071432 284.581126 
L 579.612739 292.020815 
L 583.618771 299.220922 
L 588.073397 306.152454 
L 592.958679 312.787502 
L 598.254946 319.099347 
L 603.940871 325.062574 
L 609.993561 330.653172 
L 616.388642 335.848628 
L 623.100364 340.628024 
L 630.101701 344.972113 
L 637.364461 348.863404 
L 644.8594 352.286228 
L 652.556338 355.226802 
L 660.424282 357.673286 
L 668.431551 359.615829 
L 676.545903 361.046608 
L 684.734663 361.959863 
L 692.96486 362.351915 
L 701.203351 362.221187 
L 709.416964 361.568205 
L 717.572627 360.395598 
L 725.637497 358.708087 
L 733.579102 356.512469 
L 741.365464 353.817583 
L 748.965228 350.634281 
L 756.347795 346.975381 
L 763.483436 342.855617 
L 770.343419 338.291577 
L 776.900121 333.301639 
L 783.127142 327.905895 
L 788.999406 322.126072 
L 794.493268 315.985445 
L 799.586607 309.508738 
L 804.258913 302.722031 
L 808.491372 295.652652 
L 812.266943 288.329067 
L 815.570421 280.780765 
L 818.388506 273.038141 
L 820.70985 265.132371 
L 822.525104 257.095289 
L 823.826962 248.959258 
L 824.610178 240.757039 
L 824.871602 232.521658 
" clip-path="url(#p3a5a1ba1e6)" style="fill: none; stroke: #d1d5db; stroke-width: 1.5; stroke-linecap: square"/>
   </g>
   <g id="line2d_8">
    <path d="M 817.040894 188.111506 
L 815.726056 184.653141 
L 814.313219 181.233642 
L 812.80353 177.855784 
L 811.198214 174.522311 
L 809.498575 171.235929 
L 807.705992 167.999306 
L 805.821921 164.81507 
L 803.847893 161.685806 
L 801.785508 158.614055 
L 799.636443 155.602311 
L 797.402441 152.65302 
L 795.085318 149.768576 
L 792.686953 146.95132 
L 790.209295 144.203541 
L 787.654354 141.527468 
L 785.024206 138.925276 
L 782.320986 136.399077 
L 779.546889 133.950921 
L 776.704166 131.582797 
L 773.795127 129.296628 
L 770.822133 127.094268 
L 767.787597 124.977508 
L 764.693984 122.948064 
L 761.543805 121.007586 
L 758.339619 119.157648 
L 755.084026 117.399752 
L 751.77967 115.735327 
L 748.429233 114.165722 
L 745.035437 112.692213 
L 741.601036 111.315996 
L 738.128819 110.038188 
L 734.621606 108.859827 
L 731.082243 107.781869 
L 727.513604 106.80519 
L 723.918588 105.930583 
L 720.300112 105.158758 
L 716.661115 104.490341 
L 713.004551 103.925875 
L 709.333389 103.465819 
L 705.650609 103.110546 
L 701.959203 102.860344 
L 698.262167 102.715416 
L 694.562502 102.675881 
L 690.863213 102.741771 
L 687.167302 102.913031 
L 683.477772 103.189523 
L 679.797617 103.571023 
L 676.129826 104.05722 
L 672.477375 104.647719 
" clip-path="url(#p3a5a1ba1e6)" style="fill: none; stroke: #4b5563; stroke-width: 3; stroke-linecap: square"/>
   </g>
   <g id="line2d_9">
    <path d="M 817.040894 188.111506 
L 672.477375 104.647719 
" clip-path="url(#p3a5a1ba1e6)" style="fill: none; stroke: #e12885; stroke-width: 2.5; stroke-linecap: square"/>
   </g>
   <g id="line2d_10">
    <g clip-path="url(#p3a5a1ba1e6)">
     <use xlink:href="#mc0626e763c" x="695.025001" y="232.521658" style="fill: #374151; stroke: #374151"/>
    </g>
   </g>
   <g id="line2d_11">
    <path d="M 695.025001 232.521658 
L 817.040894 188.111506 
" clip-path="url(#p3a5a1ba1e6)" style="fill: none; stroke-dasharray: 5.55,2.4; stroke-dashoffset: 0; stroke: #9ca3af; stroke-width: 1.5"/>
   </g>
   <g id="line2d_12">
    <path d="M 695.025001 232.521658 
L 672.477375 104.647719 
" clip-path="url(#p3a5a1ba1e6)" style="fill: none; stroke-dasharray: 5.55,2.4; stroke-dashoffset: 0; stroke: #9ca3af; stroke-width: 1.5"/>
   </g>
   <g id="line2d_13">
    <defs>
     <path id="md6f547ef89" d="M 0 3.5 
C 0.928211 3.5 1.81853 3.131218 2.474874 2.474874 
C 3.131218 1.81853 3.5 0.928211 3.5 0 
C 3.5 -0.928211 3.131218 -1.81853 2.474874 -2.474874 
C 1.81853 -3.131218 0.928211 -3.5 0 -3.5 
C -0.928211 -3.5 -1.81853 -3.131218 -2.474874 -2.474874 
C -3.131218 -1.81853 -3.5 -0.928211 -3.5 0 
C -3.5 0.928211 -3.131218 1.81853 -2.474874 2.474874 
C -1.81853 3.131218 -0.928211 3.5 0 3.5 
z
" style="stroke: #e12885"/>
    </defs>
    <g clip-path="url(#p3a5a1ba1e6)">
     <use xlink:href="#md6f547ef89" x="817.040894" y="188.111506" style="fill: #e12885; stroke: #e12885"/>
    </g>
   </g>
   <g id="line2d_14">
    <g clip-path="url(#p3a5a1ba1e6)">
     <use xlink:href="#md6f547ef89" x="672.477375" y="104.647719" style="fill: #e12885; stroke: #e12885"/>
    </g>
   </g>
   <g id="text_7">
    <g id="patch_9">
     <path d="M 704.763496 258.874814 
L 713.10459 258.874814 
Q 714.20459 258.874814 714.20459 257.774814 
L 714.20459 247.101376 
Q 714.20459 246.001376 713.10459 246.001376 
L 704.763496 246.001376 
Q 703.663496 246.001376 703.663496 247.101376 
L 703.663496 257.774814 
Q 703.663496 258.874814 704.763496 258.874814 
z
" style="fill: #ffffff; opacity: 0.8"/>
    </g>
    <!-- O -->
    <g style="fill: #2c2f33" transform="translate(704.763496 255.244814) scale(0.11 -0.11)">
     <use xlink:href="#SegoeUI-Bold-4f"/>
    </g>
   </g>
   <g id="text_8">
    <g id="patch_10">
     <path d="M 830.025554 207.972331 
L 837.759929 207.972331 
Q 838.859929 207.972331 838.859929 206.872331 
L 838.859929 196.198893 
Q 838.859929 195.098893 837.759929 195.098893 
L 830.025554 195.098893 
Q 828.925554 195.098893 828.925554 196.198893 
L 828.925554 206.872331 
Q 828.925554 207.972331 830.025554 207.972331 
z
" style="fill: #ffffff; opacity: 0.8"/>
    </g>
    <!-- A -->
    <g style="fill: #2c2f33" transform="translate(830.025554 204.342331) scale(0.11 -0.11)">
     <use xlink:href="#SegoeUI-Bold-41"/>
    </g>
   </g>
   <g id="text_9">
    <g id="patch_11">
     <path d="M 662.73888 92.046894 
L 669.790912 92.046894 
Q 670.890912 92.046894 670.890912 90.946894 
L 670.890912 80.273457 
Q 670.890912 79.173457 669.790912 79.173457 
L 662.73888 79.173457 
Q 661.63888 79.173457 661.63888 80.273457 
L 661.63888 90.946894 
Q 661.63888 92.046894 662.73888 92.046894 
z
" style="fill: #ffffff; opacity: 0.8"/>
    </g>
    <!-- B -->
    <g style="fill: #2c2f33" transform="translate(662.73888 88.416894) scale(0.11 -0.11)">
     <defs>
      <path id="SegoeUI-Bold-42" d="M 513 0 
L 513 4481 
L 2144 4481 
Q 2894 4481 3297 4206 
Q 3700 3931 3700 3431 
Q 3700 3069 3454 2797 
Q 3209 2525 2828 2419 
L 2828 2406 
Q 3306 2347 3592 2053 
Q 3878 1759 3878 1338 
Q 3878 722 3437 361 
Q 2997 0 2234 0 
L 513 0 
z
M 1522 3738 
L 1522 2675 
L 1966 2675 
Q 2278 2675 2458 2826 
Q 2638 2978 2638 3244 
Q 2638 3738 1900 3738 
L 1522 3738 
z
M 1522 1925 
L 1522 744 
L 2069 744 
Q 2419 744 2617 906 
Q 2816 1069 2816 1350 
Q 2816 1619 2620 1772 
Q 2425 1925 2075 1925 
L 1522 1925 
z
" transform="scale(0.015625)"/>
     </defs>
     <use xlink:href="#SegoeUI-Bold-42"/>
    </g>
   </g>
   <g id="text_10">
    <g id="patch_12">
     <path d="M 718.789814 173.402768 
L 750.566377 173.402768 
Q 752.566377 173.402768 752.566377 171.402768 
L 752.566377 161.699643 
Q 752.566377 159.699643 750.566377 159.699643 
L 718.789814 159.699643 
Q 716.789814 159.699643 716.789814 161.699643 
L 716.789814 171.402768 
Q 716.789814 173.402768 718.789814 173.402768 
z
" style="fill: #ffffff; opacity: 0.8"/>
    </g>
    <!-- cuerda -->
    <g style="fill: #e12885" transform="translate(718.789814 169.102768) scale(0.1 -0.1)">
     <defs>
      <path id="SegoeUI-Bold-75" d="M 3456 0 
L 2472 0 
L 2472 488 
L 2456 488 
Q 2091 -78 1478 -78 
Q 366 -78 366 1269 
L 366 3200 
L 1350 3200 
L 1350 1356 
Q 1350 678 1888 678 
Q 2153 678 2312 864 
Q 2472 1050 2472 1369 
L 2472 3200 
L 3456 3200 
L 3456 0 
z
" transform="scale(0.015625)"/>
      <path id="SegoeUI-Bold-65" d="M 3291 1319 
L 1203 1319 
Q 1253 622 2081 622 
Q 2609 622 3009 872 
L 3009 159 
Q 2566 -78 1856 -78 
Q 1081 -78 653 351 
Q 225 781 225 1550 
Q 225 2347 687 2812 
Q 1150 3278 1825 3278 
Q 2525 3278 2908 2862 
Q 3291 2447 3291 1734 
L 3291 1319 
z
M 2375 1925 
Q 2375 2613 1819 2613 
Q 1581 2613 1407 2416 
Q 1234 2219 1197 1925 
L 2375 1925 
z
" transform="scale(0.015625)"/>
      <path id="SegoeUI-Bold-64" d="M 3547 0 
L 2559 0 
L 2559 441 
L 2547 441 
Q 2209 -78 1556 -78 
Q 956 -78 590 345 
Q 225 769 225 1528 
Q 225 2322 628 2800 
Q 1031 3278 1684 3278 
Q 2303 3278 2547 2834 
L 2559 2834 
L 2559 4738 
L 3547 4738 
L 3547 0 
z
M 2578 1556 
L 2578 1797 
Q 2578 2109 2397 2315 
Q 2216 2522 1925 2522 
Q 1597 2522 1412 2264 
Q 1228 2006 1228 1556 
Q 1228 1134 1406 906 
Q 1584 678 1900 678 
Q 2200 678 2389 918 
Q 2578 1159 2578 1556 
z
" transform="scale(0.015625)"/>
     </defs>
     <use xlink:href="#SegoeUI-Bold-63"/>
     <use xlink:href="#SegoeUI-Bold-75" x="47.998047"/>
     <use xlink:href="#SegoeUI-Bold-65" x="108.496094"/>
     <use xlink:href="#SegoeUI-Bold-72" x="162.597656"/>
     <use xlink:href="#SegoeUI-Bold-64" x="202.017578"/>
     <use xlink:href="#SegoeUI-Bold-61" x="263.931641"/>
    </g>
   </g>
   <g id="text_11">
    <g id="patch_13">
     <path d="M 720.994321 107.023495 
L 767.588071 107.023495 
Q 769.588071 107.023495 769.588071 105.023495 
L 769.588071 95.32037 
Q 769.588071 93.32037 767.588071 93.32037 
L 720.994321 93.32037 
Q 718.994321 93.32037 718.994321 95.32037 
L 718.994321 105.023495 
Q 718.994321 107.023495 720.994321 107.023495 
z
" style="fill: #ffffff; opacity: 0.8"/>
    </g>
    <!-- segmento -->
    <g style="fill: #4b5563" transform="translate(720.994321 102.675058) scale(0.1 -0.1)">
     <defs>
      <path id="SegoeUI-Bold-73" d="M 206 84 
L 206 884 
Q 450 738 692 666 
Q 934 594 1150 594 
Q 1413 594 1564 666 
Q 1716 738 1716 884 
Q 1716 978 1647 1040 
Q 1578 1103 1470 1150 
Q 1363 1197 1234 1234 
Q 1106 1272 988 1319 
Q 797 1391 651 1473 
Q 506 1556 407 1665 
Q 309 1775 257 1919 
Q 206 2063 206 2259 
Q 206 2528 323 2722 
Q 441 2916 636 3039 
Q 831 3163 1082 3220 
Q 1334 3278 1606 3278 
Q 1819 3278 2037 3245 
Q 2256 3213 2469 3150 
L 2469 2388 
Q 2281 2497 2067 2551 
Q 1853 2606 1647 2606 
Q 1550 2606 1464 2589 
Q 1378 2572 1312 2539 
Q 1247 2506 1209 2454 
Q 1172 2403 1172 2338 
Q 1172 2250 1228 2187 
Q 1284 2125 1375 2079 
Q 1466 2034 1577 1998 
Q 1688 1963 1797 1925 
Q 1994 1856 2153 1775 
Q 2313 1694 2427 1584 
Q 2541 1475 2602 1328 
Q 2663 1181 2663 978 
Q 2663 694 2539 492 
Q 2416 291 2211 164 
Q 2006 38 1739 -20 
Q 1472 -78 1184 -78 
Q 656 -78 206 84 
z
" transform="scale(0.015625)"/>
      <path id="SegoeUI-Bold-67" d="M 3553 366 
Q 3553 -525 3037 -1014 
Q 2522 -1503 1544 -1503 
Q 897 -1503 519 -1319 
L 519 -488 
Q 1013 -775 1516 -775 
Q 2016 -775 2291 -511 
Q 2566 -247 2566 206 
L 2566 459 
L 2553 459 
Q 2216 -78 1556 -78 
Q 944 -78 584 353 
Q 225 784 225 1509 
Q 225 2322 625 2800 
Q 1025 3278 1678 3278 
Q 2263 3278 2553 2828 
L 2566 2828 
L 2566 3200 
L 3553 3200 
L 3553 366 
z
M 2578 1538 
L 2578 1791 
Q 2578 2094 2398 2308 
Q 2219 2522 1931 2522 
Q 1603 2522 1415 2265 
Q 1228 2009 1228 1544 
Q 1228 1144 1406 911 
Q 1584 678 1894 678 
Q 2200 678 2389 914 
Q 2578 1150 2578 1538 
z
" transform="scale(0.015625)"/>
      <path id="SegoeUI-Bold-6d" d="M 5497 0 
L 4513 0 
L 4513 1825 
Q 4513 2522 4000 2522 
Q 3756 2522 3603 2312 
Q 3450 2103 3450 1791 
L 3450 0 
L 2463 0 
L 2463 1844 
Q 2463 2522 1959 2522 
Q 1706 2522 1554 2322 
Q 1403 2122 1403 1778 
L 1403 0 
L 416 0 
L 416 3200 
L 1403 3200 
L 1403 2700 
L 1416 2700 
Q 1569 2956 1845 3117 
Q 2122 3278 2450 3278 
Q 3128 3278 3378 2681 
Q 3744 3278 4453 3278 
Q 5497 3278 5497 1991 
L 5497 0 
z
" transform="scale(0.015625)"/>
      <path id="SegoeUI-Bold-6e" d="M 3506 0 
L 2522 0 
L 2522 1778 
Q 2522 2522 1991 2522 
Q 1734 2522 1568 2325 
Q 1403 2128 1403 1825 
L 1403 0 
L 416 0 
L 416 3200 
L 1403 3200 
L 1403 2694 
L 1416 2694 
Q 1769 3278 2444 3278 
Q 3506 3278 3506 1959 
L 3506 0 
z
" transform="scale(0.015625)"/>
      <path id="SegoeUI-Bold-74" d="M 2350 38 
Q 2131 -78 1691 -78 
Q 647 -78 647 1006 
L 647 2472 
L 128 2472 
L 128 3200 
L 647 3200 
L 647 3891 
L 1631 4172 
L 1631 3200 
L 2350 3200 
L 2350 2472 
L 1631 2472 
L 1631 1178 
Q 1631 678 2028 678 
Q 2184 678 2350 769 
L 2350 38 
z
" transform="scale(0.015625)"/>
     </defs>
     <use xlink:href="#SegoeUI-Bold-73"/>
     <use xlink:href="#SegoeUI-Bold-65" x="43.994141"/>
     <use xlink:href="#SegoeUI-Bold-67" x="98.095703"/>
     <use xlink:href="#SegoeUI-Bold-6d" x="160.009766"/>
     <use xlink:href="#SegoeUI-Bold-65" x="251.611328"/>
     <use xlink:href="#SegoeUI-Bold-6e" x="305.712891"/>
     <use xlink:href="#SegoeUI-Bold-74" x="366.210938"/>
     <use xlink:href="#SegoeUI-Bold-6f" x="404.751953"/>
    </g>
   </g>
   <g id="text_12">
    <g id="patch_14">
     <path d="M 620.170001 475.057685 
L 769.880001 475.057685 
Q 775.380001 475.057685 775.380001 469.557685 
L 775.380001 428.28156 
Q 775.380001 422.78156 769.880001 422.78156 
L 620.170001 422.78156 
Q 614.670001 422.78156 614.670001 428.28156 
L 614.670001 469.557685 
Q 614.670001 475.057685 620.170001 475.057685 
z
" style="fill: #f8fafc; opacity: 0.95; stroke: #e2e8f0; stroke-linejoin: miter"/>
    </g>
    <!-- $A_{seg} = A_{sector} - A_{triángulo}$ -->
    <g style="fill: #1f2937" transform="translate(633.755001 435.32156) scale(0.11 -0.11)">
     <defs>
      <path id="DejaVuSans-Oblique-73" d="M 3200 3397 
L 3091 2853 
Q 2863 2978 2609 3040 
Q 2356 3103 2088 3103 
Q 1634 3103 1373 2948 
Q 1113 2794 1113 2528 
Q 1113 2219 1719 2053 
Q 1766 2041 1788 2034 
L 1972 1978 
Q 2547 1819 2739 1644 
Q 2931 1469 2931 1166 
Q 2931 609 2489 259 
Q 2047 -91 1331 -91 
Q 1053 -91 747 -37 
Q 441 16 72 128 
L 184 722 
Q 500 559 806 475 
Q 1113 391 1394 391 
Q 1816 391 2080 572 
Q 2344 753 2344 1031 
Q 2344 1331 1650 1516 
L 1591 1531 
L 1394 1581 
Q 956 1697 753 1886 
Q 550 2075 550 2369 
Q 550 2928 970 3256 
Q 1391 3584 2113 3584 
Q 2397 3584 2667 3537 
Q 2938 3491 3200 3397 
z
" transform="scale(0.015625)"/>
      <path id="DejaVuSans-Oblique-65" d="M 3078 2063 
Q 3088 2113 3092 2166 
Q 3097 2219 3097 2272 
Q 3097 2653 2873 2875 
Q 2650 3097 2266 3097 
Q 1838 3097 1509 2826 
Q 1181 2556 1013 2059 
L 3078 2063 
z
M 3578 1613 
L 903 1613 
Q 884 1494 878 1425 
Q 872 1356 872 1306 
Q 872 872 1139 634 
Q 1406 397 1894 397 
Q 2269 397 2603 481 
Q 2938 566 3225 728 
L 3116 159 
Q 2806 34 2476 -28 
Q 2147 -91 1806 -91 
Q 1078 -91 686 257 
Q 294 606 294 1247 
Q 294 1794 489 2264 
Q 684 2734 1063 3103 
Q 1306 3334 1642 3459 
Q 1978 3584 2356 3584 
Q 2950 3584 3301 3228 
Q 3653 2872 3653 2272 
Q 3653 2128 3634 1964 
Q 3616 1800 3578 1613 
z
" transform="scale(0.015625)"/>
      <path id="DejaVuSans-Oblique-67" d="M 3816 3500 
L 3219 434 
Q 3047 -456 2561 -893 
Q 2075 -1331 1253 -1331 
Q 950 -1331 690 -1286 
Q 431 -1241 206 -1147 
L 313 -588 
Q 525 -725 762 -790 
Q 1000 -856 1269 -856 
Q 1816 -856 2167 -557 
Q 2519 -259 2631 300 
L 2681 563 
Q 2441 288 2122 144 
Q 1803 0 1434 0 
Q 903 0 598 351 
Q 294 703 294 1319 
Q 294 1803 478 2267 
Q 663 2731 997 3091 
Q 1219 3328 1514 3456 
Q 1809 3584 2131 3584 
Q 2484 3584 2746 3420 
Q 3009 3256 3138 2956 
L 3238 3500 
L 3816 3500 
z
M 2950 2216 
Q 2950 2641 2750 2872 
Q 2550 3103 2181 3103 
Q 1953 3103 1747 3012 
Q 1541 2922 1394 2759 
Q 1156 2491 1023 2127 
Q 891 1763 891 1375 
Q 891 944 1092 712 
Q 1294 481 1672 481 
Q 2219 481 2584 976 
Q 2950 1472 2950 2216 
z
" transform="scale(0.015625)"/>
      <path id="DejaVuSans-Oblique-63" d="M 3431 3366 
L 3316 2797 
Q 3109 2947 2876 3022 
Q 2644 3097 2394 3097 
Q 2119 3097 1870 3000 
Q 1622 2903 1453 2725 
Q 1184 2453 1037 2087 
Q 891 1722 891 1331 
Q 891 859 1127 628 
Q 1363 397 1844 397 
Q 2081 397 2348 469 
Q 2616 541 2906 684 
L 2797 116 
Q 2547 13 2283 -39 
Q 2019 -91 1741 -91 
Q 1044 -91 669 257 
Q 294 606 294 1253 
Q 294 1797 489 2255 
Q 684 2713 1069 3078 
Q 1331 3328 1684 3456 
Q 2038 3584 2456 3584 
Q 2700 3584 2940 3529 
Q 3181 3475 3431 3366 
z
" transform="scale(0.015625)"/>
      <path id="DejaVuSans-Oblique-74" d="M 2706 3500 
L 2619 3053 
L 1472 3053 
L 1100 1153 
Q 1081 1047 1072 975 
Q 1063 903 1063 863 
Q 1063 663 1183 572 
Q 1303 481 1569 481 
L 2150 481 
L 2053 0 
L 1503 0 
Q 991 0 739 200 
Q 488 400 488 806 
Q 488 878 497 964 
Q 506 1050 525 1153 
L 897 3053 
L 409 3053 
L 500 3500 
L 978 3500 
L 1172 4494 
L 1747 4494 
L 1556 3500 
L 2706 3500 
z
" transform="scale(0.015625)"/>
      <path id="DejaVuSans-Oblique-6f" d="M 1625 -91 
Q 1009 -91 651 289 
Q 294 669 294 1325 
Q 294 1706 417 2101 
Q 541 2497 738 2766 
Q 1047 3184 1428 3384 
Q 1809 3584 2291 3584 
Q 2888 3584 3255 3212 
Q 3622 2841 3622 2241 
Q 3622 1825 3500 1412 
Q 3378 1000 3181 728 
Q 2875 309 2494 109 
Q 2113 -91 1625 -91 
z
M 891 1344 
Q 891 869 1089 633 
Q 1288 397 1691 397 
Q 2269 397 2648 901 
Q 3028 1406 3028 2181 
Q 3028 2634 2825 2865 
Q 2622 3097 2228 3097 
Q 1903 3097 1650 2945 
Q 1397 2794 1197 2484 
Q 1050 2253 970 1956 
Q 891 1659 891 1344 
z
" transform="scale(0.015625)"/>
      <path id="DejaVuSans-2212" d="M 678 2272 
L 4684 2272 
L 4684 1741 
L 678 1741 
L 678 2272 
z
" transform="scale(0.015625)"/>
      <path id="DejaVuSans-Oblique-69" d="M 1172 4863 
L 1747 4863 
L 1606 4134 
L 1031 4134 
L 1172 4863 
z
M 909 3500 
L 1484 3500 
L 800 0 
L 225 0 
L 909 3500 
z
" transform="scale(0.015625)"/>
      <path id="DejaVuSans-Oblique-e1" d="M 3438 1997 
L 3047 0 
L 2472 0 
L 2578 531 
Q 2325 219 2001 64 
Q 1678 -91 1281 -91 
Q 834 -91 548 182 
Q 263 456 263 884 
Q 263 1497 752 1853 
Q 1241 2209 2100 2209 
L 2900 2209 
L 2931 2363 
Q 2938 2388 2941 2417 
Q 2944 2447 2944 2509 
Q 2944 2788 2717 2942 
Q 2491 3097 2081 3097 
Q 1800 3097 1504 3025 
Q 1209 2953 897 2809 
L 997 3341 
Q 1322 3463 1633 3523 
Q 1944 3584 2234 3584 
Q 2853 3584 3176 3315 
Q 3500 3047 3500 2534 
Q 3500 2431 3484 2292 
Q 3469 2153 3438 1997 
z
M 2816 1759 
L 2241 1759 
Q 1534 1759 1195 1570 
Q 856 1381 856 984 
Q 856 709 1029 553 
Q 1203 397 1509 397 
Q 1978 397 2328 733 
Q 2678 1069 2791 1631 
L 2816 1759 
z
M 3031 5119 
L 3653 5119 
L 2406 3944 
L 1925 3944 
L 3031 5119 
z
" transform="scale(0.015625)"/>
      <path id="DejaVuSans-Oblique-6e" d="M 3566 2113 
L 3156 0 
L 2578 0 
L 2988 2091 
Q 3016 2238 3031 2350 
Q 3047 2463 3047 2528 
Q 3047 2791 2881 2937 
Q 2716 3084 2419 3084 
Q 1956 3084 1622 2776 
Q 1288 2469 1184 1941 
L 800 0 
L 225 0 
L 903 3500 
L 1478 3500 
L 1363 2950 
Q 1603 3253 1940 3418 
Q 2278 3584 2650 3584 
Q 3113 3584 3367 3334 
Q 3622 3084 3622 2631 
Q 3622 2519 3608 2391 
Q 3594 2263 3566 2113 
z
" transform="scale(0.015625)"/>
      <path id="DejaVuSans-Oblique-75" d="M 428 1388 
L 838 3500 
L 1416 3500 
L 1006 1409 
Q 975 1256 961 1147 
Q 947 1038 947 966 
Q 947 700 1109 554 
Q 1272 409 1569 409 
Q 2031 409 2368 721 
Q 2706 1034 2809 1563 
L 3194 3500 
L 3769 3500 
L 3091 0 
L 2516 0 
L 2631 550 
Q 2388 244 2052 76 
Q 1716 -91 1338 -91 
Q 878 -91 622 161 
Q 366 413 366 863 
Q 366 956 381 1097 
Q 397 1238 428 1388 
z
" transform="scale(0.015625)"/>
      <path id="DejaVuSans-Oblique-6c" d="M 1172 4863 
L 1747 4863 
L 800 0 
L 225 0 
L 1172 4863 
z
" transform="scale(0.015625)"/>
     </defs>
     <use xlink:href="#DejaVuSans-Oblique-41" transform="translate(0 0.09375)"/>
     <use xlink:href="#DejaVuSans-Oblique-73" transform="translate(68.408203 -16.3125) scale(0.7)"/>
     <use xlink:href="#DejaVuSans-Oblique-65" transform="translate(104.87793 -16.3125) scale(0.7)"/>
     <use xlink:href="#DejaVuSans-Oblique-67" transform="translate(147.944336 -16.3125) scale(0.7)"/>
     <use xlink:href="#DejaVuSans-3d" transform="translate(214.594727 0.09375)"/>
     <use xlink:href="#DejaVuSans-Oblique-41" transform="translate(317.866211 0.09375)"/>
     <use xlink:href="#DejaVuSans-Oblique-73" transform="translate(386.274414 -16.3125) scale(0.7)"/>
     <use xlink:href="#DejaVuSans-Oblique-65" transform="translate(422.744141 -16.3125) scale(0.7)"/>
     <use xlink:href="#DejaVuSans-Oblique-63" transform="translate(465.810547 -16.3125) scale(0.7)"/>
     <use xlink:href="#DejaVuSans-Oblique-74" transform="translate(504.296875 -16.3125) scale(0.7)"/>
     <use xlink:href="#DejaVuSans-Oblique-6f" transform="translate(531.743164 -16.3125) scale(0.7)"/>
     <use xlink:href="#DejaVuSans-Oblique-72" transform="translate(574.570312 -16.3125) scale(0.7)"/>
     <use xlink:href="#DejaVuSans-2212" transform="translate(625.566406 0.09375)"/>
     <use xlink:href="#DejaVuSans-Oblique-41" transform="translate(728.837891 0.09375)"/>
     <use xlink:href="#DejaVuSans-Oblique-74" transform="translate(797.246094 -16.3125) scale(0.7)"/>
     <use xlink:href="#DejaVuSans-Oblique-72" transform="translate(824.692383 -16.3125) scale(0.7)"/>
     <use xlink:href="#DejaVuSans-Oblique-69" transform="translate(853.47168 -16.3125) scale(0.7)"/>
     <use xlink:href="#DejaVuSans-Oblique-e1" transform="translate(872.919922 -16.3125) scale(0.7)"/>
     <use xlink:href="#DejaVuSans-Oblique-6e" transform="translate(915.81543 -16.3125) scale(0.7)"/>
     <use xlink:href="#DejaVuSans-Oblique-67" transform="translate(960.180664 -16.3125) scale(0.7)"/>
     <use xlink:href="#DejaVuSans-Oblique-75" transform="translate(1004.614258 -16.3125) scale(0.7)"/>
     <use xlink:href="#DejaVuSans-Oblique-6c" transform="translate(1048.979492 -16.3125) scale(0.7)"/>
     <use xlink:href="#DejaVuSans-Oblique-6f" transform="translate(1068.427734 -16.3125) scale(0.7)"/>
    </g>
    <!--  -->
    <g style="fill: #1f2937" transform="translate(695.025001 448.503685) scale(0.11 -0.11)"/>
    <!-- $A_{seg} = \frac{r^2}{2}(\theta - \sin\theta)$  (θ en rad) -->
    <g style="fill: #1f2937" transform="translate(620.170001 465.157685) scale(0.11 -0.11)">
     <defs>
      <path id="DejaVuSans-28" d="M 1984 4856 
Q 1566 4138 1362 3434 
Q 1159 2731 1159 2009 
Q 1159 1288 1364 580 
Q 1569 -128 1984 -844 
L 1484 -844 
Q 1016 -109 783 600 
Q 550 1309 550 2009 
Q 550 2706 781 3412 
Q 1013 4119 1484 4856 
L 1984 4856 
z
" transform="scale(0.015625)"/>
      <path id="DejaVuSans-73" d="M 2834 3397 
L 2834 2853 
Q 2591 2978 2328 3040 
Q 2066 3103 1784 3103 
Q 1356 3103 1142 2972 
Q 928 2841 928 2578 
Q 928 2378 1081 2264 
Q 1234 2150 1697 2047 
L 1894 2003 
Q 2506 1872 2764 1633 
Q 3022 1394 3022 966 
Q 3022 478 2636 193 
Q 2250 -91 1575 -91 
Q 1294 -91 989 -36 
Q 684 19 347 128 
L 347 722 
Q 666 556 975 473 
Q 1284 391 1588 391 
Q 1994 391 2212 530 
Q 2431 669 2431 922 
Q 2431 1156 2273 1281 
Q 2116 1406 1581 1522 
L 1381 1569 
Q 847 1681 609 1914 
Q 372 2147 372 2553 
Q 372 3047 722 3315 
Q 1072 3584 1716 3584 
Q 2034 3584 2315 3537 
Q 2597 3491 2834 3397 
z
" transform="scale(0.015625)"/>
      <path id="DejaVuSans-69" d="M 603 3500 
L 1178 3500 
L 1178 0 
L 603 0 
L 603 3500 
z
M 603 4863 
L 1178 4863 
L 1178 4134 
L 603 4134 
L 603 4863 
z
" transform="scale(0.015625)"/>
      <path id="DejaVuSans-6e" d="M 3513 2113 
L 3513 0 
L 2938 0 
L 2938 2094 
Q 2938 2591 2744 2837 
Q 2550 3084 2163 3084 
Q 1697 3084 1428 2787 
Q 1159 2491 1159 1978 
L 1159 0 
L 581 0 
L 581 3500 
L 1159 3500 
L 1159 2956 
Q 1366 3272 1645 3428 
Q 1925 3584 2291 3584 
Q 2894 3584 3203 3211 
Q 3513 2838 3513 2113 
z
" transform="scale(0.015625)"/>
      <path id="DejaVuSans-29" d="M 513 4856 
L 1013 4856 
Q 1481 4119 1714 3412 
Q 1947 2706 1947 2009 
Q 1947 1309 1714 600 
Q 1481 -109 1013 -844 
L 513 -844 
Q 928 -128 1133 580 
Q 1338 1288 1338 2009 
Q 1338 2731 1133 3434 
Q 928 4138 513 4856 
z
" transform="scale(0.015625)"/>
      <path id="SegoeUI-28" d="M 1863 -1019 
L 1406 -1019 
Q 438 88 438 1709 
Q 438 3338 1406 4481 
L 1869 4481 
Q 888 3294 888 1716 
Q 888 150 1863 -1019 
z
" transform="scale(0.015625)"/>
      <path id="SegoeUI-3b8" d="M 1844 -75 
Q 1116 -75 709 553 
Q 303 1181 303 2319 
Q 303 3516 726 4155 
Q 1150 4794 1944 4794 
Q 3450 4794 3450 2397 
Q 3450 1216 3029 570 
Q 2609 -75 1844 -75 
z
M 2919 2613 
Q 2863 4356 1891 4356 
Q 1422 4356 1140 3882 
Q 859 3409 828 2613 
L 2919 2613 
z
M 2922 2200 
L 825 2200 
Q 841 1303 1119 833 
Q 1397 363 1888 363 
Q 2366 363 2636 839 
Q 2906 1316 2922 2200 
z
" transform="scale(0.015625)"/>
      <path id="SegoeUI-6e" d="M 3175 0 
L 2663 0 
L 2663 1825 
Q 2663 2844 1919 2844 
Q 1534 2844 1282 2555 
Q 1031 2266 1031 1825 
L 1031 0 
L 519 0 
L 519 3200 
L 1031 3200 
L 1031 2669 
L 1044 2669 
Q 1406 3275 2094 3275 
Q 2619 3275 2897 2936 
Q 3175 2597 3175 1956 
L 3175 0 
z
" transform="scale(0.015625)"/>
      <path id="SegoeUI-64" d="M 3250 0 
L 2738 0 
L 2738 544 
L 2725 544 
Q 2369 -75 1625 -75 
Q 1022 -75 661 354 
Q 300 784 300 1525 
Q 300 2319 700 2797 
Q 1100 3275 1766 3275 
Q 2425 3275 2725 2756 
L 2738 2756 
L 2738 4738 
L 3250 4738 
L 3250 0 
z
M 2738 1447 
L 2738 1919 
Q 2738 2306 2481 2575 
Q 2225 2844 1831 2844 
Q 1363 2844 1094 2500 
Q 825 2156 825 1550 
Q 825 997 1083 676 
Q 1341 356 1775 356 
Q 2203 356 2470 665 
Q 2738 975 2738 1447 
z
" transform="scale(0.015625)"/>
      <path id="SegoeUI-29" d="M 531 -1019 
L 75 -1019 
Q 1050 150 1050 1716 
Q 1050 3294 69 4481 
L 531 4481 
Q 1506 3338 1506 1709 
Q 1506 88 531 -1019 
z
" transform="scale(0.015625)"/>
     </defs>
     <use xlink:href="#DejaVuSans-Oblique-41" transform="translate(0 0.039062)"/>
     <use xlink:href="#DejaVuSans-Oblique-73" transform="translate(68.408203 -16.367188) scale(0.7)"/>
     <use xlink:href="#DejaVuSans-Oblique-65" transform="translate(104.87793 -16.367188) scale(0.7)"/>
     <use xlink:href="#DejaVuSans-Oblique-67" transform="translate(147.944336 -16.367188) scale(0.7)"/>
     <use xlink:href="#DejaVuSans-3d" transform="translate(214.594727 0.039062)"/>
     <use xlink:href="#DejaVuSans-Oblique-72" transform="translate(317.866211 43.835938) scale(0.7)"/>
     <use xlink:href="#DejaVuSans-32" transform="translate(349.900435 70.632812) scale(0.49)"/>
     <use xlink:href="#DejaVuSans-32" transform="translate(327.866211 -39.367188) scale(0.7)"/>
     <use xlink:href="#DejaVuSans-28" transform="translate(395.48979 0.039062)"/>
     <use xlink:href="#DejaVuSans-Oblique-3b8" transform="translate(434.503462 0.039062)"/>
     <use xlink:href="#DejaVuSans-2212" transform="translate(515.167525 0.039062)"/>
     <use xlink:href="#DejaVuSans-73" transform="translate(618.439009 0.039062)"/>
     <use xlink:href="#DejaVuSans-69" transform="translate(670.538618 0.039062)"/>
     <use xlink:href="#DejaVuSans-6e" transform="translate(698.321822 0.039062)"/>
     <use xlink:href="#DejaVuSans-Oblique-3b8" transform="translate(777.936404 0.039062)"/>
     <use xlink:href="#DejaVuSans-29" transform="translate(839.118045 0.039062)"/>
     <use xlink:href="#SegoeUI-20" transform="translate(878.131717 0.039062)"/>
     <use xlink:href="#SegoeUI-20" transform="translate(905.524295 0.039062)"/>
     <use xlink:href="#SegoeUI-28" transform="translate(932.916873 0.039062)"/>
     <use xlink:href="#SegoeUI-3b8" transform="translate(963.092654 0.039062)"/>
     <use xlink:href="#SegoeUI-20" transform="translate(1021.735232 0.039062)"/>
     <use xlink:href="#SegoeUI-65" transform="translate(1049.12781 0.039062)"/>
     <use xlink:href="#SegoeUI-6e" transform="translate(1101.422732 0.039062)"/>
     <use xlink:href="#SegoeUI-20" transform="translate(1158.014529 0.039062)"/>
     <use xlink:href="#SegoeUI-72" transform="translate(1185.407107 0.039062)"/>
     <use xlink:href="#SegoeUI-61" transform="translate(1220.172732 0.039062)"/>
     <use xlink:href="#SegoeUI-64" transform="translate(1271.051639 0.039062)"/>
     <use xlink:href="#SegoeUI-29" transform="translate(1329.938357 0.039062)"/>
     <path d="M 317.866211 18.835938 
L 317.866211 25.085938 
L 382.98979 25.085938 
L 382.98979 18.835938 
L 317.866211 18.835938 
z
"/>
    </g>
   </g>
   <g id="text_13">
    <!-- SEGMENTO CIRCULAR -->
    <g style="fill: #2c2f33" transform="translate(632.107501 35.736417) scale(0.12 -0.12)">
     <defs>
      <path id="SegoeUI-Bold-47" d="M 4191 300 
Q 3534 -78 2559 -78 
Q 1478 -78 854 520 
Q 231 1119 231 2169 
Q 231 3225 912 3890 
Q 1594 4556 2725 4556 
Q 3438 4556 3981 4359 
L 3981 3413 
Q 3463 3713 2713 3713 
Q 2084 3713 1689 3305 
Q 1294 2897 1294 2216 
Q 1294 1525 1648 1147 
Q 2003 769 2606 769 
Q 2969 769 3181 872 
L 3181 1747 
L 2284 1747 
L 2284 2553 
L 4191 2553 
L 4191 300 
z
" transform="scale(0.015625)"/>
      <path id="SegoeUI-Bold-4d" d="M 5619 0 
L 4622 0 
L 4622 2681 
Q 4622 3116 4659 3641 
L 4634 3641 
Q 4556 3228 4494 3047 
L 3444 0 
L 2619 0 
L 1550 3016 
Q 1506 3138 1409 3641 
L 1381 3641 
Q 1422 2978 1422 2478 
L 1422 0 
L 513 0 
L 513 4481 
L 1991 4481 
L 2906 1825 
Q 3016 1506 3066 1184 
L 3084 1184 
Q 3169 1556 3263 1831 
L 4178 4481 
L 5619 4481 
L 5619 0 
z
" transform="scale(0.015625)"/>
      <path id="SegoeUI-Bold-4e" d="M 4544 0 
L 3525 0 
L 1678 2816 
Q 1516 3063 1453 3188 
L 1441 3188 
Q 1466 2950 1466 2463 
L 1466 0 
L 513 0 
L 513 4481 
L 1600 4481 
L 3378 1753 
Q 3500 1569 3603 1388 
L 3616 1388 
Q 3591 1544 3591 2003 
L 3591 4481 
L 4544 4481 
L 4544 0 
z
" transform="scale(0.015625)"/>
     </defs>
     <use xlink:href="#SegoeUI-Bold-53"/>
     <use xlink:href="#SegoeUI-Bold-45" x="56.054688"/>
     <use xlink:href="#SegoeUI-Bold-47" x="109.277344"/>
     <use xlink:href="#SegoeUI-Bold-4d" x="180.371094"/>
     <use xlink:href="#SegoeUI-Bold-45" x="276.074219"/>
     <use xlink:href="#SegoeUI-Bold-4e" x="329.296875"/>
     <use xlink:href="#SegoeUI-Bold-54" x="408.300781"/>
     <use xlink:href="#SegoeUI-Bold-4f" x="463.144531"/>
     <use xlink:href="#SegoeUI-Bold-20" x="538.974609"/>
     <use xlink:href="#SegoeUI-Bold-43" x="566.5625"/>
     <use xlink:href="#SegoeUI-Bold-49" x="628.964844"/>
     <use xlink:href="#SegoeUI-Bold-52" x="660.654297"/>
     <use xlink:href="#SegoeUI-Bold-43" x="724.9375"/>
     <use xlink:href="#SegoeUI-Bold-55" x="787.339844"/>
     <use xlink:href="#SegoeUI-Bold-4c" x="859.654297"/>
     <use xlink:href="#SegoeUI-Bold-41" x="913.027344"/>
     <use xlink:href="#SegoeUI-Bold-52" x="983.339844"/>
    </g>
   </g>
  </g>
  <g id="text_14">
   <!-- Sector y Segmento Circular -->
   <g style="fill: #2c2f33" transform="translate(352.892934 17.564375) scale(0.14 -0.14)">
    <defs>
     <path id="SegoeUI-Bold-79" d="M 3463 3200 
L 2163 -256 
Q 1694 -1503 750 -1503 
Q 391 -1503 159 -1422 
L 159 -634 
Q 356 -750 588 -750 
Q 969 -750 1119 -391 
L 1288 6 
L -13 3200 
L 1081 3200 
L 1678 1253 
Q 1734 1072 1766 825 
L 1778 825 
Q 1806 1006 1881 1247 
L 2484 3200 
L 3463 3200 
z
" transform="scale(0.015625)"/>
     <path id="SegoeUI-Bold-69" d="M 916 3706 
Q 666 3706 506 3854 
Q 347 4003 347 4219 
Q 347 4441 506 4581 
Q 666 4722 916 4722 
Q 1169 4722 1326 4581 
Q 1484 4441 1484 4219 
Q 1484 3994 1326 3850 
Q 1169 3706 916 3706 
z
M 1403 0 
L 416 0 
L 416 3200 
L 1403 3200 
L 1403 0 
z
" transform="scale(0.015625)"/>
     <path id="SegoeUI-Bold-6c" d="M 1403 0 
L 416 0 
L 416 4738 
L 1403 4738 
L 1403 0 
z
" transform="scale(0.015625)"/>
    </defs>
    <use xlink:href="#SegoeUI-Bold-53"/>
    <use xlink:href="#SegoeUI-Bold-65" x="56.054688"/>
    <use xlink:href="#SegoeUI-Bold-63" x="110.15625"/>
    <use xlink:href="#SegoeUI-Bold-74" x="158.154297"/>
    <use xlink:href="#SegoeUI-Bold-6f" x="196.695312"/>
    <use xlink:href="#SegoeUI-Bold-72" x="257.828125"/>
    <use xlink:href="#SegoeUI-Bold-20" x="297.623047"/>
    <use xlink:href="#SegoeUI-Bold-79" x="325.210938"/>
    <use xlink:href="#SegoeUI-Bold-20" x="379.019531"/>
    <use xlink:href="#SegoeUI-Bold-53" x="406.607422"/>
    <use xlink:href="#SegoeUI-Bold-65" x="462.662109"/>
    <use xlink:href="#SegoeUI-Bold-67" x="516.763672"/>
    <use xlink:href="#SegoeUI-Bold-6d" x="578.677734"/>
    <use xlink:href="#SegoeUI-Bold-65" x="670.279297"/>
    <use xlink:href="#SegoeUI-Bold-6e" x="724.380859"/>
    <use xlink:href="#SegoeUI-Bold-74" x="784.878906"/>
    <use xlink:href="#SegoeUI-Bold-6f" x="823.419922"/>
    <use xlink:href="#SegoeUI-Bold-20" x="884.552734"/>
    <use xlink:href="#SegoeUI-Bold-43" x="912.140625"/>
    <use xlink:href="#SegoeUI-Bold-69" x="974.542969"/>
    <use xlink:href="#SegoeUI-Bold-72" x="1002.960938"/>
    <use xlink:href="#SegoeUI-Bold-63" x="1042.380859"/>
    <use xlink:href="#SegoeUI-Bold-75" x="1090.378906"/>
    <use xlink:href="#SegoeUI-Bold-6c" x="1150.876953"/>
    <use xlink:href="#SegoeUI-Bold-61" x="1179.294922"/>
    <use xlink:href="#SegoeUI-Bold-72" x="1233.103516"/>
   </g>
  </g>
 </g>
 <defs>
  <clipPath id="pabfe80d0aa">
   <rect x="7.2" y="50.736417" width="363.570482" height="454.463103"/>
  </clipPath>
  <clipPath id="p3a5a1ba1e6">
   <rect x="513.23976" y="50.736417" width="363.570482" height="454.463103"/>
  </clipPath>
 </defs>
</svg>
