<?xml version="1.0" encoding="utf-8" standalone="no"?>
<!DOCTYPE svg PUBLIC "-//W3C//DTD SVG 1.1//EN"
  "http://www.w3.org/Graphics/SVG/1.1/DTD/svg11.dtd">
<svg xmlns:xlink="http://www.w3.org/1999/xlink" width="944.39952pt" height="512.39952pt" viewBox="0 0 944.39952 512.39952" xmlns="http://www.w3.org/2000/svg" version="1.1">
 <metadata>
  <rdf:RDF xmlns:dc="http://purl.org/dc/elements/1.1/" xmlns:cc="http://creativecommons.org/ns#" xmlns:rdf="http://www.w3.org/1999/02/22-rdf-syntax-ns#">
   <cc:Work>
    <dc:type rdf:resource="http://purl.org/dc/dcmitype/StillImage"/>
    <dc:date>2026-04-11T16:11:40.846345</dc:date>
    <dc:format>image/svg+xml</dc:format>
    <dc:creator>
     <cc:Agent>
      <dc:title>Matplotlib v3.8.4, https://matplotlib.org/</dc:title>
     </cc:Agent>
    </dc:creator>
   </cc:Work>
  </rdf:RDF>
 </metadata>
 <defs>
  <style type="text/css">*{stroke-linejoin: round; stroke-linecap: butt}</style>
 </defs>
 <g id="figure_1">
  <g id="patch_1">
   <path d="M 0 512.39952 
L 944.39952 512.39952 
L 944.39952 0 
L 0 0 
z
" style="fill: #ffffff"/>
  </g>
  <g id="axes_1">
   <g id="patch_2">
    <path d="M 27.007987 228.982802 
L 96.335942 228.982802 
L 51.767971 174.510837 
z
" clip-path="url(#p152299806b)" style="fill: #39c5bb; opacity: 0.15; stroke: #39c5bb; stroke-width: 2.5; stroke-linejoin: miter"/>
   </g>
   <g id="patch_3">
    <path d="M 135.951917 228.982802 
L 234.991853 228.982802 
L 170.615894 149.750853 
z
" clip-path="url(#p152299806b)" style="fill: #e12885; opacity: 0.15; stroke: #e12885; stroke-width: 2.5; stroke-linejoin: miter"/>
   </g>
   <g id="line2d_1">
    <defs>
     <path id="ma3b5197bb2" d="M 0 3 
C 0.795609 3 1.55874 2.683901 2.12132 2.12132 
C 2.683901 1.55874 3 0.795609 3 0 
C 3 -0.795609 2.683901 -1.55874 2.12132 -2.12132 
C 1.55874 -2.683901 0.795609 -3 0 -3 
C -0.795609 -3 -1.55874 -2.683901 -2.12132 -2.12132 
C -2.683901 -1.55874 -3 -0.795609 -3 0 
C -3 0.795609 -2.683901 1.55874 -2.12132 2.12132 
C -1.55874 2.683901 -0.795609 3 0 3 
z
" style="stroke: #39c5bb"/>
    </defs>
    <g clip-path="url(#p152299806b)">
     <use xlink:href="#ma3b5197bb2" x="27.007987" y="228.982802" style="fill: #39c5bb; stroke: #39c5bb"/>
    </g>
   </g>
   <g id="line2d_2">
    <g clip-path="url(#p152299806b)">
     <use xlink:href="#ma3b5197bb2" x="96.335942" y="228.982802" style="fill: #39c5bb; stroke: #39c5bb"/>
    </g>
   </g>
   <g id="line2d_3">
    <g clip-path="url(#p152299806b)">
     <use xlink:href="#ma3b5197bb2" x="51.767971" y="174.510837" style="fill: #39c5bb; stroke: #39c5bb"/>
    </g>
   </g>
   <g id="line2d_4">
    <defs>
     <path id="md50e0d4ccb" d="M 0 3 
C 0.795609 3 1.55874 2.683901 2.12132 2.12132 
C 2.683901 1.55874 3 0.795609 3 0 
C 3 -0.795609 2.683901 -1.55874 2.12132 -2.12132 
C 1.55874 -2.683901 0.795609 -3 0 -3 
C -0.795609 -3 -1.55874 -2.683901 -2.12132 -2.12132 
C -2.683901 -1.55874 -3 -0.795609 -3 0 
C -3 0.795609 -2.683901 1.55874 -2.12132 2.12132 
C -1.55874 2.683901 -0.795609 3 0 3 
z
" style="stroke: #e12885"/>
    </defs>
    <g clip-path="url(#p152299806b)">
     <use xlink:href="#md50e0d4ccb" x="135.951917" y="228.982802" style="fill: #e12885; stroke: #e12885"/>
    </g>
   </g>
   <g id="line2d_5">
    <g clip-path="url(#p152299806b)">
     <use xlink:href="#md50e0d4ccb" x="234.991853" y="228.982802" style="fill: #e12885; stroke: #e12885"/>
    </g>
   </g>
   <g id="line2d_6">
    <g clip-path="url(#p152299806b)">
     <use xlink:href="#md50e0d4ccb" x="170.615894" y="149.750853" style="fill: #e12885; stroke: #e12885"/>
    </g>
   </g>
   <g id="line2d_7">
    <path d="M 30.696459 220.868165 
L 28.394221 220.17766 
L 25.991189 220.127392 
L 23.662089 220.721015 
L 21.576275 221.915365 
L 19.88541 223.623599 
L 18.712438 225.72151 
L 18.142649 228.056554 
L 18.217472 230.458948 
L 18.931468 232.754008 
L 20.23272 234.774858 
L 22.026613 236.374559 
L 24.182709 237.436793 
L 26.544235 237.884324 
L 28.939482 237.684611 
L 31.194287 236.852177 
L 33.144699 235.447547 
L 34.648901 233.572856 
L 35.597521 231.364414 
L 35.921581 228.982802 
" clip-path="url(#p152299806b)" style="fill: none; stroke: #1f2937; stroke-width: 2; stroke-linecap: square"/>
   </g>
   <g id="line2d_8">
    <path d="M 140.914051 217.640781 
L 137.712358 216.728617 
L 134.383364 216.70258 
L 131.167795 217.564554 
L 128.298177 219.252208 
L 125.982018 221.643502 
L 124.386805 224.565518 
L 123.627892 227.806958 
L 123.760156 231.133426 
L 124.774035 234.304377 
L 126.596211 237.090513 
L 129.09492 239.290362 
L 132.089474 240.744848 
L 135.363329 241.348794 
L 138.679747 241.058527 
L 141.798909 239.895037 
L 144.495262 237.942459 
L 146.573826 235.341988 
L 147.884296 232.281669 
L 148.331909 228.982802 
" clip-path="url(#p152299806b)" style="fill: none; stroke: #1f2937; stroke-width: 2; stroke-linecap: square"/>
   </g>
   <g id="line2d_9">
    <path d="M 87.422348 228.982802 
L 87.779685 231.481324 
L 88.823043 233.77952 
L 90.46877 235.693126 
L 92.584913 237.068712 
L 95.001807 237.795988 
L 97.525668 237.816641 
L 99.95414 237.129016 
L 102.092512 235.788246 
L 103.769335 233.90183 
L 104.850165 231.621016 
L 105.248343 229.128677 
L 104.931944 226.624641 
L 103.926336 224.309678 
L 102.312147 222.369395 
L 100.218798 220.959362 
L 97.814131 220.19263 
L 95.290946 220.130675 
L 92.851546 220.778465 
L 90.691518 222.084061 
" clip-path="url(#p152299806b)" style="fill: none; stroke: #1f2937; stroke-width: 2; stroke-linecap: square"/>
   </g>
   <g id="line2d_10">
    <path d="M 222.611861 228.982802 
L 223.107538 232.450837 
L 224.554878 235.641161 
L 226.837981 238.298304 
L 229.774022 240.209487 
L 233.127893 241.221669 
L 236.631025 241.253797 
L 240.002896 240.303299 
L 242.973497 238.446287 
L 245.304951 235.831467 
L 246.810561 232.668224 
L 247.369762 229.209864 
L 246.937776 225.733321 
L 245.549194 222.516987 
L 243.31521 219.818418 
L 240.414715 217.853706 
L 237.079972 216.780181 
L 233.578019 216.683807 
L 230.189282 217.572302 
L 227.185121 219.374517 
" clip-path="url(#p152299806b)" style="fill: none; stroke: #1f2937; stroke-width: 2; stroke-linecap: square"/>
   </g>
   <g id="text_1">
    <!-- ~ -->
    <g style="fill: #4b5563" transform="translate(97.04853 200.952887) scale(0.26 -0.26)">
     <defs>
      <path id="SegoeUI-Bold-7e" d="M 3922 2413 
Q 3903 1888 3642 1581 
Q 3381 1275 2944 1275 
Q 2613 1275 2138 1550 
Q 1797 1747 1650 1747 
Q 1266 1747 1247 1247 
L 609 1247 
Q 628 1775 889 2081 
Q 1150 2388 1600 2388 
Q 1950 2388 2344 2150 
Q 2750 1906 2906 1906 
Q 3069 1906 3173 2045 
Q 3278 2184 3284 2413 
L 3922 2413 
z
" transform="scale(0.015625)"/>
     </defs>
     <use xlink:href="#SegoeUI-Bold-7e"/>
    </g>
   </g>
   <g id="text_2">
    <!-- AA -->
    <g style="fill: #39c5bb" transform="translate(121.859295 123.942866) scale(0.13 -0.13)">
     <defs>
      <path id="SegoeUI-Bold-41" d="M 4453 0 
L 3353 0 
L 3034 997 
L 1441 997 
L 1125 0 
L 31 0 
L 1663 4481 
L 2859 4481 
L 4453 0 
z
M 2803 1772 
L 2322 3278 
Q 2269 3447 2247 3681 
L 2222 3681 
Q 2206 3484 2144 3291 
L 1656 1772 
L 2803 1772 
z
" transform="scale(0.015625)"/>
     </defs>
     <use xlink:href="#SegoeUI-Bold-41"/>
     <use xlink:href="#SegoeUI-Bold-41" x="70.3125"/>
    </g>
   </g>
  </g>
  <g id="axes_2">
   <g id="patch_4">
    <path d="M 368.207827 228.982802 
L 437.535782 228.982802 
L 392.967811 174.510837 
z
" clip-path="url(#pe5955c8b72)" style="fill: #39c5bb; opacity: 0.15; stroke: #39c5bb; stroke-width: 2.5; stroke-linejoin: miter"/>
   </g>
   <g id="patch_5">
    <path d="M 477.151757 228.982802 
L 576.191693 228.982802 
L 511.815734 149.750853 
z
" clip-path="url(#pe5955c8b72)" style="fill: #e12885; opacity: 0.15; stroke: #e12885; stroke-width: 2.5; stroke-linejoin: miter"/>
   </g>
   <g id="line2d_11">
    <g clip-path="url(#pe5955c8b72)">
     <use xlink:href="#ma3b5197bb2" x="368.207827" y="228.982802" style="fill: #39c5bb; stroke: #39c5bb"/>
    </g>
   </g>
   <g id="line2d_12">
    <g clip-path="url(#pe5955c8b72)">
     <use xlink:href="#ma3b5197bb2" x="437.535782" y="228.982802" style="fill: #39c5bb; stroke: #39c5bb"/>
    </g>
   </g>
   <g id="line2d_13">
    <g clip-path="url(#pe5955c8b72)">
     <use xlink:href="#ma3b5197bb2" x="392.967811" y="174.510837" style="fill: #39c5bb; stroke: #39c5bb"/>
    </g>
   </g>
   <g id="line2d_14">
    <g clip-path="url(#pe5955c8b72)">
     <use xlink:href="#md50e0d4ccb" x="477.151757" y="228.982802" style="fill: #e12885; stroke: #e12885"/>
    </g>
   </g>
   <g id="line2d_15">
    <g clip-path="url(#pe5955c8b72)">
     <use xlink:href="#md50e0d4ccb" x="576.191693" y="228.982802" style="fill: #e12885; stroke: #e12885"/>
    </g>
   </g>
   <g id="line2d_16">
    <g clip-path="url(#pe5955c8b72)">
     <use xlink:href="#md50e0d4ccb" x="511.815734" y="149.750853" style="fill: #e12885; stroke: #e12885"/>
    </g>
   </g>
   <g id="line2d_17">
    <path d="M 371.896299 220.868165 
L 369.594061 220.17766 
L 367.191029 220.127392 
L 364.861929 220.721015 
L 362.776115 221.915365 
L 361.08525 223.623599 
L 359.912278 225.72151 
L 359.342489 228.056554 
L 359.417312 230.458948 
L 360.131308 232.754008 
L 361.43256 234.774858 
L 363.226453 236.374559 
L 365.382549 237.436793 
L 367.744075 237.884324 
L 370.139322 237.684611 
L 372.394127 236.852177 
L 374.344539 235.447547 
L 375.848741 233.572856 
L 376.797361 231.364414 
L 377.121421 228.982802 
" clip-path="url(#pe5955c8b72)" style="fill: none; stroke: #1f2937; stroke-width: 2; stroke-linecap: square"/>
   </g>
   <g id="line2d_18">
    <path d="M 482.113891 217.640781 
L 478.912198 216.728617 
L 475.583204 216.70258 
L 472.367635 217.564554 
L 469.498017 219.252208 
L 467.181858 221.643502 
L 465.586645 224.565518 
L 464.827732 227.806958 
L 464.959996 231.133426 
L 465.973875 234.304377 
L 467.796051 237.090513 
L 470.29476 239.290362 
L 473.289314 240.744848 
L 476.563169 241.348794 
L 479.879587 241.058527 
L 482.998749 239.895037 
L 485.695102 237.942459 
L 487.773666 235.341988 
L 489.084136 232.281669 
L 489.531749 228.982802 
" clip-path="url(#pe5955c8b72)" style="fill: none; stroke: #1f2937; stroke-width: 2; stroke-linecap: square"/>
   </g>
   <g id="line2d_19">
    <path d="M 380.587819 204.222818 
L 380.587819 199.270821 
" clip-path="url(#pe5955c8b72)" style="fill: none; stroke: #1f2937; stroke-width: 2; stroke-linecap: square"/>
   </g>
   <g id="line2d_20">
    <path d="M 415.251797 204.222818 
L 415.251797 199.270821 
" clip-path="url(#pe5955c8b72)" style="fill: none; stroke: #1f2937; stroke-width: 2; stroke-linecap: square"/>
   </g>
   <g id="line2d_21">
    <path d="M 494.483746 194.318824 
L 494.483746 186.890829 
" clip-path="url(#pe5955c8b72)" style="fill: none; stroke: #1f2937; stroke-width: 2; stroke-linecap: square"/>
   </g>
   <g id="line2d_22">
    <path d="M 494.978945 193.328425 
L 494.978945 185.90043 
" clip-path="url(#pe5955c8b72)" style="fill: none; stroke: #1f2937; stroke-width: 2; stroke-linecap: square"/>
   </g>
   <g id="line2d_23">
    <path d="M 544.003714 194.318824 
L 544.003714 186.890829 
" clip-path="url(#pe5955c8b72)" style="fill: none; stroke: #1f2937; stroke-width: 2; stroke-linecap: square"/>
   </g>
   <g id="line2d_24">
    <path d="M 544.498913 193.328425 
L 544.498913 185.90043 
" clip-path="url(#pe5955c8b72)" style="fill: none; stroke: #1f2937; stroke-width: 2; stroke-linecap: square"/>
   </g>
   <g id="text_3">
    <!-- ~ -->
    <g style="fill: #4b5563" transform="translate(438.24837 200.952887) scale(0.26 -0.26)">
     <use xlink:href="#SegoeUI-Bold-7e"/>
    </g>
   </g>
   <g id="text_4">
    <!-- LAL -->
    <g style="fill: #39c5bb" transform="translate(460.836947 123.942866) scale(0.13 -0.13)">
     <defs>
      <path id="SegoeUI-Bold-4c" d="M 3181 0 
L 513 0 
L 513 4481 
L 1522 4481 
L 1522 819 
L 3181 819 
L 3181 0 
z
" transform="scale(0.015625)"/>
     </defs>
     <use xlink:href="#SegoeUI-Bold-4c"/>
     <use xlink:href="#SegoeUI-Bold-41" x="53.373047"/>
     <use xlink:href="#SegoeUI-Bold-4c" x="123.685547"/>
    </g>
   </g>
  </g>
  <g id="axes_3">
   <g id="patch_6">
    <path d="M 709.407667 228.982802 
L 778.735622 228.982802 
L 734.167651 174.510837 
z
" clip-path="url(#pece3e1bc08)" style="fill: #39c5bb; opacity: 0.15; stroke: #39c5bb; stroke-width: 2.5; stroke-linejoin: miter"/>
   </g>
   <g id="patch_7">
    <path d="M 818.351597 228.982802 
L 917.391533 228.982802 
L 853.015574 149.750853 
z
" clip-path="url(#pece3e1bc08)" style="fill: #e12885; opacity: 0.15; stroke: #e12885; stroke-width: 2.5; stroke-linejoin: miter"/>
   </g>
   <g id="line2d_25">
    <g clip-path="url(#pece3e1bc08)">
     <use xlink:href="#ma3b5197bb2" x="709.407667" y="228.982802" style="fill: #39c5bb; stroke: #39c5bb"/>
    </g>
   </g>
   <g id="line2d_26">
    <g clip-path="url(#pece3e1bc08)">
     <use xlink:href="#ma3b5197bb2" x="778.735622" y="228.982802" style="fill: #39c5bb; stroke: #39c5bb"/>
    </g>
   </g>
   <g id="line2d_27">
    <g clip-path="url(#pece3e1bc08)">
     <use xlink:href="#ma3b5197bb2" x="734.167651" y="174.510837" style="fill: #39c5bb; stroke: #39c5bb"/>
    </g>
   </g>
   <g id="line2d_28">
    <g clip-path="url(#pece3e1bc08)">
     <use xlink:href="#md50e0d4ccb" x="818.351597" y="228.982802" style="fill: #e12885; stroke: #e12885"/>
    </g>
   </g>
   <g id="line2d_29">
    <g clip-path="url(#pece3e1bc08)">
     <use xlink:href="#md50e0d4ccb" x="917.391533" y="228.982802" style="fill: #e12885; stroke: #e12885"/>
    </g>
   </g>
   <g id="line2d_30">
    <g clip-path="url(#pece3e1bc08)">
     <use xlink:href="#md50e0d4ccb" x="853.015574" y="149.750853" style="fill: #e12885; stroke: #e12885"/>
    </g>
   </g>
   <g id="line2d_31">
    <path d="M 744.071645 232.944399 
L 744.071645 227.992403 
" clip-path="url(#pece3e1bc08)" style="fill: none; stroke: #39c5bb; stroke-width: 2; stroke-linecap: square"/>
   </g>
   <g id="line2d_32">
    <path d="M 756.451637 204.222818 
L 758.927635 201.74682 
" clip-path="url(#pece3e1bc08)" style="fill: none; stroke: #39c5bb; stroke-width: 2; stroke-linecap: square"/>
   </g>
   <g id="line2d_33">
    <path d="M 753.975638 203.232419 
L 756.451637 200.75642 
" clip-path="url(#pece3e1bc08)" style="fill: none; stroke: #39c5bb; stroke-width: 2; stroke-linecap: square"/>
   </g>
   <g id="line2d_34">
    <path d="M 719.311661 204.222818 
L 721.787659 201.74682 
" clip-path="url(#pece3e1bc08)" style="fill: none; stroke: #39c5bb; stroke-width: 2; stroke-linecap: square"/>
   </g>
   <g id="line2d_35">
    <path d="M 720.30206 203.232419 
L 722.778059 200.75642 
" clip-path="url(#pece3e1bc08)" style="fill: none; stroke: #39c5bb; stroke-width: 2; stroke-linecap: square"/>
   </g>
   <g id="line2d_36">
    <path d="M 721.29246 202.242019 
L 723.768458 199.766021 
" clip-path="url(#pece3e1bc08)" style="fill: none; stroke: #39c5bb; stroke-width: 2; stroke-linecap: square"/>
   </g>
   <g id="line2d_37">
    <path d="M 867.871565 232.944399 
L 867.871565 227.992403 
" clip-path="url(#pece3e1bc08)" style="fill: none; stroke: #e12885; stroke-width: 2; stroke-linecap: square"/>
   </g>
   <g id="line2d_38">
    <path d="M 887.679552 194.318824 
L 890.15555 190.357227 
" clip-path="url(#pece3e1bc08)" style="fill: none; stroke: #e12885; stroke-width: 2; stroke-linecap: square"/>
   </g>
   <g id="line2d_39">
    <path d="M 885.203554 193.328425 
L 887.679552 189.366828 
" clip-path="url(#pece3e1bc08)" style="fill: none; stroke: #e12885; stroke-width: 2; stroke-linecap: square"/>
   </g>
   <g id="line2d_40">
    <path d="M 833.207587 194.318824 
L 835.683586 190.357227 
" clip-path="url(#pece3e1bc08)" style="fill: none; stroke: #e12885; stroke-width: 2; stroke-linecap: square"/>
   </g>
   <g id="line2d_41">
    <path d="M 834.197987 193.328425 
L 836.673985 189.366828 
" clip-path="url(#pece3e1bc08)" style="fill: none; stroke: #e12885; stroke-width: 2; stroke-linecap: square"/>
   </g>
   <g id="line2d_42">
    <path d="M 835.188386 192.338026 
L 837.664384 188.376428 
" clip-path="url(#pece3e1bc08)" style="fill: none; stroke: #e12885; stroke-width: 2; stroke-linecap: square"/>
   </g>
   <g id="text_5">
    <!-- ~ -->
    <g style="fill: #4b5563" transform="translate(779.44821 200.952887) scale(0.26 -0.26)">
     <use xlink:href="#SegoeUI-Bold-7e"/>
    </g>
   </g>
   <g id="text_6">
    <!-- LLL -->
    <g style="fill: #39c5bb" transform="translate(803.430225 123.942866) scale(0.13 -0.13)">
     <use xlink:href="#SegoeUI-Bold-4c"/>
     <use xlink:href="#SegoeUI-Bold-4c" x="51.123047"/>
     <use xlink:href="#SegoeUI-Bold-4c" x="102.246094"/>
    </g>
   </g>
  </g>
  <g id="axes_4">
   <g id="line2d_43">
    <path d="M 25.79999 383.570517 
L 918.59953 383.570517 
" clip-path="url(#pc529265e24)" style="fill: none; stroke: #d1d5db; stroke-width: 1.5; stroke-linecap: square"/>
   </g>
   <g id="line2d_44">
    <path d="M 314.099842 492.396467 
L 314.099842 389.972044 
" clip-path="url(#pc529265e24)" style="fill: none; stroke: #e5e7eb; stroke-linecap: square"/>
   </g>
   <g id="line2d_45">
    <path d="M 630.299678 492.396467 
L 630.299678 389.972044 
" clip-path="url(#pc529265e24)" style="fill: none; stroke: #e5e7eb; stroke-linecap: square"/>
   </g>
   <g id="line2d_46">
    <path d="M 332.699832 498.797994 
L 360.599818 498.797994 
" clip-path="url(#pc529265e24)" style="fill: none; stroke: #39c5bb; stroke-width: 4; stroke-linecap: square"/>
   </g>
   <g id="line2d_47">
    <path d="M 546.599722 498.797994 
L 574.499707 498.797994 
" clip-path="url(#pc529265e24)" style="fill: none; stroke: #e12885; stroke-width: 4; stroke-linecap: square"/>
   </g>
   <g id="text_7">
    <!-- AA -->
    <g style="fill: #4b5563" transform="translate(156.862418 400.214486) scale(0.12 -0.12)">
     <use xlink:href="#SegoeUI-Bold-41"/>
     <use xlink:href="#SegoeUI-Bold-41" x="70.3125"/>
    </g>
   </g>
   <g id="text_8">
    <!-- Ángulo-Ángulo -->
    <g style="fill: #374151" transform="translate(131.361637 418.13876) scale(0.1 -0.1)">
     <defs>
      <path id="SegoeUI-c1" d="M 4056 0 
L 3475 0 
L 3000 1256 
L 1100 1256 
L 653 0 
L 69 0 
L 1788 4481 
L 2331 4481 
L 4056 0 
z
M 2828 1728 
L 2125 3638 
Q 2091 3731 2056 3938 
L 2044 3938 
Q 2013 3747 1972 3638 
L 1275 1728 
L 2828 1728 
z
M 2710 5919 
L 1891 4894 
L 1494 4894 
L 2191 5919 
L 2710 5919 
z
" transform="scale(0.015625)"/>
      <path id="SegoeUI-6e" d="M 3175 0 
L 2663 0 
L 2663 1825 
Q 2663 2844 1919 2844 
Q 1534 2844 1282 2555 
Q 1031 2266 1031 1825 
L 1031 0 
L 519 0 
L 519 3200 
L 1031 3200 
L 1031 2669 
L 1044 2669 
Q 1406 3275 2094 3275 
Q 2619 3275 2897 2936 
Q 3175 2597 3175 1956 
L 3175 0 
z
" transform="scale(0.015625)"/>
      <path id="SegoeUI-67" d="M 3250 256 
Q 3250 -1506 1563 -1506 
Q 969 -1506 525 -1281 
L 525 -769 
Q 1066 -1069 1556 -1069 
Q 2738 -1069 2738 188 
L 2738 538 
L 2725 538 
Q 2359 -75 1625 -75 
Q 1028 -75 664 351 
Q 300 778 300 1497 
Q 300 2313 692 2794 
Q 1084 3275 1766 3275 
Q 2413 3275 2725 2756 
L 2738 2756 
L 2738 3200 
L 3250 3200 
L 3250 256 
z
M 2738 1447 
L 2738 1919 
Q 2738 2300 2480 2572 
Q 2222 2844 1838 2844 
Q 1363 2844 1094 2498 
Q 825 2153 825 1531 
Q 825 997 1083 676 
Q 1341 356 1766 356 
Q 2197 356 2467 662 
Q 2738 969 2738 1447 
z
" transform="scale(0.015625)"/>
      <path id="SegoeUI-75" d="M 3106 0 
L 2594 0 
L 2594 506 
L 2581 506 
Q 2263 -75 1594 -75 
Q 450 -75 450 1288 
L 450 3200 
L 959 3200 
L 959 1369 
Q 959 356 1734 356 
Q 2109 356 2351 632 
Q 2594 909 2594 1356 
L 2594 3200 
L 3106 3200 
L 3106 0 
z
" transform="scale(0.015625)"/>
      <path id="SegoeUI-6c" d="M 1031 0 
L 519 0 
L 519 4738 
L 1031 4738 
L 1031 0 
z
" transform="scale(0.015625)"/>
      <path id="SegoeUI-6f" d="M 1856 -75 
Q 1147 -75 723 373 
Q 300 822 300 1563 
Q 300 2369 740 2822 
Q 1181 3275 1931 3275 
Q 2647 3275 3048 2834 
Q 3450 2394 3450 1613 
Q 3450 847 3017 386 
Q 2584 -75 1856 -75 
z
M 1894 2844 
Q 1400 2844 1112 2508 
Q 825 2172 825 1581 
Q 825 1013 1115 684 
Q 1406 356 1894 356 
Q 2391 356 2658 678 
Q 2925 1000 2925 1594 
Q 2925 2194 2658 2519 
Q 2391 2844 1894 2844 
z
" transform="scale(0.015625)"/>
      <path id="SegoeUI-2d" d="M 2156 1581 
L 450 1581 
L 450 1984 
L 2156 1984 
L 2156 1581 
z
" transform="scale(0.015625)"/>
     </defs>
     <use xlink:href="#SegoeUI-c1"/>
     <use xlink:href="#SegoeUI-6e" x="64.501953"/>
     <use xlink:href="#SegoeUI-67" x="121.09375"/>
     <use xlink:href="#SegoeUI-75" x="179.980469"/>
     <use xlink:href="#SegoeUI-6c" x="236.572266"/>
     <use xlink:href="#SegoeUI-6f" x="260.791016"/>
     <use xlink:href="#SegoeUI-2d" x="319.384766"/>
     <use xlink:href="#SegoeUI-c1" x="359.375"/>
     <use xlink:href="#SegoeUI-6e" x="423.876953"/>
     <use xlink:href="#SegoeUI-67" x="480.46875"/>
     <use xlink:href="#SegoeUI-75" x="539.355469"/>
     <use xlink:href="#SegoeUI-6c" x="595.947266"/>
     <use xlink:href="#SegoeUI-6f" x="620.166016"/>
    </g>
   </g>
   <g id="text_9">
    <!-- Dos triángulos son semejantes si -->
    <g style="fill: #6b7280" transform="translate(100.553356 447.977849) scale(0.09 -0.09)">
     <defs>
      <path id="SegoeUI-44" d="M 588 0 
L 588 4481 
L 1825 4481 
Q 4194 4481 4194 2297 
Q 4194 1259 3536 629 
Q 2878 0 1775 0 
L 588 0 
z
M 1113 4006 
L 1113 475 
L 1781 475 
Q 2663 475 3153 947 
Q 3644 1419 3644 2284 
Q 3644 4006 1813 4006 
L 1113 4006 
z
" transform="scale(0.015625)"/>
      <path id="SegoeUI-73" d="M 325 116 
L 325 666 
Q 744 356 1247 356 
Q 1922 356 1922 806 
Q 1922 934 1864 1023 
Q 1806 1113 1707 1181 
Q 1609 1250 1476 1304 
Q 1344 1359 1191 1419 
Q 978 1503 817 1589 
Q 656 1675 548 1783 
Q 441 1891 386 2028 
Q 331 2166 331 2350 
Q 331 2575 434 2748 
Q 538 2922 709 3039 
Q 881 3156 1101 3215 
Q 1322 3275 1556 3275 
Q 1972 3275 2300 3131 
L 2300 2613 
Q 1947 2844 1488 2844 
Q 1344 2844 1228 2811 
Q 1113 2778 1030 2718 
Q 947 2659 901 2576 
Q 856 2494 856 2394 
Q 856 2269 901 2184 
Q 947 2100 1034 2034 
Q 1122 1969 1247 1916 
Q 1372 1863 1531 1800 
Q 1744 1719 1912 1633 
Q 2081 1547 2200 1439 
Q 2319 1331 2383 1190 
Q 2447 1050 2447 856 
Q 2447 619 2342 444 
Q 2238 269 2063 153 
Q 1888 38 1659 -18 
Q 1431 -75 1181 -75 
Q 688 -75 325 116 
z
" transform="scale(0.015625)"/>
      <path id="SegoeUI-20" transform="scale(0.015625)"/>
      <path id="SegoeUI-74" d="M 2003 31 
Q 1822 -69 1525 -69 
Q 684 -69 684 869 
L 684 2763 
L 134 2763 
L 134 3200 
L 684 3200 
L 684 3981 
L 1197 4147 
L 1197 3200 
L 2003 3200 
L 2003 2763 
L 1197 2763 
L 1197 959 
Q 1197 638 1306 500 
Q 1416 363 1669 363 
Q 1863 363 2003 469 
L 2003 31 
z
" transform="scale(0.015625)"/>
      <path id="SegoeUI-72" d="M 2188 2681 
Q 2053 2784 1800 2784 
Q 1472 2784 1251 2475 
Q 1031 2166 1031 1631 
L 1031 0 
L 519 0 
L 519 3200 
L 1031 3200 
L 1031 2541 
L 1044 2541 
Q 1153 2878 1378 3067 
Q 1603 3256 1881 3256 
Q 2081 3256 2188 3213 
L 2188 2681 
z
" transform="scale(0.015625)"/>
      <path id="SegoeUI-69" d="M 781 4013 
Q 644 4013 547 4106 
Q 450 4200 450 4344 
Q 450 4488 547 4583 
Q 644 4678 781 4678 
Q 922 4678 1020 4583 
Q 1119 4488 1119 4344 
Q 1119 4206 1020 4109 
Q 922 4013 781 4013 
z
M 1031 0 
L 519 0 
L 519 3200 
L 1031 3200 
L 1031 0 
z
" transform="scale(0.015625)"/>
      <path id="SegoeUI-e1" d="M 2809 0 
L 2297 0 
L 2297 500 
L 2284 500 
Q 1950 -75 1300 -75 
Q 822 -75 551 178 
Q 281 431 281 850 
Q 281 1747 1338 1894 
L 2297 2028 
Q 2297 2844 1638 2844 
Q 1059 2844 594 2450 
L 594 2975 
Q 1066 3275 1681 3275 
Q 2809 3275 2809 2081 
L 2809 0 
z
M 2297 1619 
L 1525 1513 
Q 1169 1463 987 1336 
Q 806 1209 806 888 
Q 806 653 973 504 
Q 1141 356 1419 356 
Q 1800 356 2048 623 
Q 2297 891 2297 1300 
L 2297 1619 
z
M 2366 4831 
L 1547 3806 
L 1150 3806 
L 1847 4831 
L 2366 4831 
z
" transform="scale(0.015625)"/>
      <path id="SegoeUI-65" d="M 3091 1472 
L 831 1472 
Q 844 938 1119 647 
Q 1394 356 1875 356 
Q 2416 356 2869 713 
L 2869 231 
Q 2447 -75 1753 -75 
Q 1075 -75 687 361 
Q 300 797 300 1588 
Q 300 2334 723 2804 
Q 1147 3275 1775 3275 
Q 2403 3275 2747 2869 
Q 3091 2463 3091 1741 
L 3091 1472 
z
M 2566 1906 
Q 2563 2350 2352 2597 
Q 2141 2844 1766 2844 
Q 1403 2844 1150 2584 
Q 897 2325 838 1906 
L 2566 1906 
z
" transform="scale(0.015625)"/>
      <path id="SegoeUI-6d" d="M 5063 0 
L 4550 0 
L 4550 1838 
Q 4550 2369 4386 2606 
Q 4222 2844 3834 2844 
Q 3506 2844 3276 2544 
Q 3047 2244 3047 1825 
L 3047 0 
L 2534 0 
L 2534 1900 
Q 2534 2844 1806 2844 
Q 1469 2844 1250 2561 
Q 1031 2278 1031 1825 
L 1031 0 
L 519 0 
L 519 3200 
L 1031 3200 
L 1031 2694 
L 1044 2694 
Q 1384 3275 2038 3275 
Q 2366 3275 2609 3092 
Q 2853 2909 2944 2613 
Q 3300 3275 4006 3275 
Q 5063 3275 5063 1972 
L 5063 0 
z
" transform="scale(0.015625)"/>
      <path id="SegoeUI-6a" d="M 1031 134 
Q 1031 -653 714 -1079 
Q 397 -1506 -194 -1506 
Q -413 -1506 -619 -1406 
L -619 -928 
Q -388 -1069 -181 -1069 
Q 519 -1069 519 50 
L 519 3200 
L 1031 3200 
L 1031 134 
z
M 781 4013 
Q 644 4013 547 4106 
Q 450 4200 450 4344 
Q 450 4488 547 4583 
Q 644 4678 781 4678 
Q 922 4678 1020 4583 
Q 1119 4488 1119 4344 
Q 1119 4206 1020 4109 
Q 922 4013 781 4013 
z
" transform="scale(0.015625)"/>
      <path id="SegoeUI-61" d="M 2809 0 
L 2297 0 
L 2297 500 
L 2284 500 
Q 1950 -75 1300 -75 
Q 822 -75 551 178 
Q 281 431 281 850 
Q 281 1747 1338 1894 
L 2297 2028 
Q 2297 2844 1638 2844 
Q 1059 2844 594 2450 
L 594 2975 
Q 1066 3275 1681 3275 
Q 2809 3275 2809 2081 
L 2809 0 
z
M 2297 1619 
L 1525 1513 
Q 1169 1463 987 1336 
Q 806 1209 806 888 
Q 806 653 973 504 
Q 1141 356 1419 356 
Q 1800 356 2048 623 
Q 2297 891 2297 1300 
L 2297 1619 
z
" transform="scale(0.015625)"/>
     </defs>
     <use xlink:href="#SegoeUI-44"/>
     <use xlink:href="#SegoeUI-6f" x="70.117188"/>
     <use xlink:href="#SegoeUI-73" x="128.710938"/>
     <use xlink:href="#SegoeUI-20" x="171.142578"/>
     <use xlink:href="#SegoeUI-74" x="198.535156"/>
     <use xlink:href="#SegoeUI-72" x="232.421875"/>
     <use xlink:href="#SegoeUI-69" x="267.1875"/>
     <use xlink:href="#SegoeUI-e1" x="291.40625"/>
     <use xlink:href="#SegoeUI-6e" x="342.285156"/>
     <use xlink:href="#SegoeUI-67" x="398.876953"/>
     <use xlink:href="#SegoeUI-75" x="457.763672"/>
     <use xlink:href="#SegoeUI-6c" x="514.355469"/>
     <use xlink:href="#SegoeUI-6f" x="538.574219"/>
     <use xlink:href="#SegoeUI-73" x="597.167969"/>
     <use xlink:href="#SegoeUI-20" x="639.599609"/>
     <use xlink:href="#SegoeUI-73" x="666.992188"/>
     <use xlink:href="#SegoeUI-6f" x="709.423828"/>
     <use xlink:href="#SegoeUI-6e" x="768.017578"/>
     <use xlink:href="#SegoeUI-20" x="824.609375"/>
     <use xlink:href="#SegoeUI-73" x="852.001953"/>
     <use xlink:href="#SegoeUI-65" x="894.433594"/>
     <use xlink:href="#SegoeUI-6d" x="946.728516"/>
     <use xlink:href="#SegoeUI-65" x="1032.861328"/>
     <use xlink:href="#SegoeUI-6a" x="1085.15625"/>
     <use xlink:href="#SegoeUI-61" x="1109.375"/>
     <use xlink:href="#SegoeUI-6e" x="1160.253906"/>
     <use xlink:href="#SegoeUI-74" x="1216.845703"/>
     <use xlink:href="#SegoeUI-65" x="1249.982422"/>
     <use xlink:href="#SegoeUI-73" x="1302.277344"/>
     <use xlink:href="#SegoeUI-20" x="1344.708984"/>
     <use xlink:href="#SegoeUI-73" x="1372.101562"/>
     <use xlink:href="#SegoeUI-69" x="1414.533203"/>
    </g>
    <!-- tienen dos ángulos iguales. -->
    <g style="fill: #6b7280" transform="translate(111.416637 458.927333) scale(0.09 -0.09)">
     <defs>
      <path id="SegoeUI-64" d="M 3250 0 
L 2738 0 
L 2738 544 
L 2725 544 
Q 2369 -75 1625 -75 
Q 1022 -75 661 354 
Q 300 784 300 1525 
Q 300 2319 700 2797 
Q 1100 3275 1766 3275 
Q 2425 3275 2725 2756 
L 2738 2756 
L 2738 4738 
L 3250 4738 
L 3250 0 
z
M 2738 1447 
L 2738 1919 
Q 2738 2306 2481 2575 
Q 2225 2844 1831 2844 
Q 1363 2844 1094 2500 
Q 825 2156 825 1550 
Q 825 997 1083 676 
Q 1341 356 1775 356 
Q 2203 356 2470 665 
Q 2738 975 2738 1447 
z
" transform="scale(0.015625)"/>
      <path id="SegoeUI-2e" d="M 697 -69 
Q 553 -69 451 34 
Q 350 138 350 281 
Q 350 425 451 529 
Q 553 634 697 634 
Q 844 634 947 529 
Q 1050 425 1050 281 
Q 1050 138 947 34 
Q 844 -69 697 -69 
z
" transform="scale(0.015625)"/>
     </defs>
     <use xlink:href="#SegoeUI-74"/>
     <use xlink:href="#SegoeUI-69" x="33.886719"/>
     <use xlink:href="#SegoeUI-65" x="58.105469"/>
     <use xlink:href="#SegoeUI-6e" x="110.400391"/>
     <use xlink:href="#SegoeUI-65" x="166.992188"/>
     <use xlink:href="#SegoeUI-6e" x="219.287109"/>
     <use xlink:href="#SegoeUI-20" x="275.878906"/>
     <use xlink:href="#SegoeUI-64" x="303.271484"/>
     <use xlink:href="#SegoeUI-6f" x="362.158203"/>
     <use xlink:href="#SegoeUI-73" x="420.751953"/>
     <use xlink:href="#SegoeUI-20" x="463.183594"/>
     <use xlink:href="#SegoeUI-e1" x="490.576172"/>
     <use xlink:href="#SegoeUI-6e" x="541.455078"/>
     <use xlink:href="#SegoeUI-67" x="598.046875"/>
     <use xlink:href="#SegoeUI-75" x="656.933594"/>
     <use xlink:href="#SegoeUI-6c" x="713.525391"/>
     <use xlink:href="#SegoeUI-6f" x="737.744141"/>
     <use xlink:href="#SegoeUI-73" x="796.337891"/>
     <use xlink:href="#SegoeUI-20" x="838.769531"/>
     <use xlink:href="#SegoeUI-69" x="866.162109"/>
     <use xlink:href="#SegoeUI-67" x="890.380859"/>
     <use xlink:href="#SegoeUI-75" x="949.267578"/>
     <use xlink:href="#SegoeUI-61" x="1005.859375"/>
     <use xlink:href="#SegoeUI-6c" x="1056.738281"/>
     <use xlink:href="#SegoeUI-65" x="1080.957031"/>
     <use xlink:href="#SegoeUI-73" x="1133.251953"/>
     <use xlink:href="#SegoeUI-2e" x="1175.683594"/>
    </g>
   </g>
   <g id="text_10">
    <!-- LAL -->
    <g style="fill: #4b5563" transform="translate(461.71101 400.214486) scale(0.12 -0.12)">
     <use xlink:href="#SegoeUI-Bold-4c"/>
     <use xlink:href="#SegoeUI-Bold-41" x="53.373047"/>
     <use xlink:href="#SegoeUI-Bold-4c" x="123.685547"/>
    </g>
   </g>
   <g id="text_11">
    <!-- Lado-Ángulo-Lado -->
    <g style="fill: #374151" transform="translate(430.688041 418.13876) scale(0.1 -0.1)">
     <defs>
      <path id="SegoeUI-4c" d="M 2913 0 
L 588 0 
L 588 4481 
L 1113 4481 
L 1113 475 
L 2913 475 
L 2913 0 
z
" transform="scale(0.015625)"/>
     </defs>
     <use xlink:href="#SegoeUI-4c"/>
     <use xlink:href="#SegoeUI-61" x="47.070312"/>
     <use xlink:href="#SegoeUI-64" x="97.949219"/>
     <use xlink:href="#SegoeUI-6f" x="156.835938"/>
     <use xlink:href="#SegoeUI-2d" x="215.429688"/>
     <use xlink:href="#SegoeUI-c1" x="255.419922"/>
     <use xlink:href="#SegoeUI-6e" x="319.921875"/>
     <use xlink:href="#SegoeUI-67" x="376.513672"/>
     <use xlink:href="#SegoeUI-75" x="435.400391"/>
     <use xlink:href="#SegoeUI-6c" x="491.992188"/>
     <use xlink:href="#SegoeUI-6f" x="516.210938"/>
     <use xlink:href="#SegoeUI-2d" x="574.804688"/>
     <use xlink:href="#SegoeUI-4c" x="614.794922"/>
     <use xlink:href="#SegoeUI-61" x="661.865234"/>
     <use xlink:href="#SegoeUI-64" x="712.744141"/>
     <use xlink:href="#SegoeUI-6f" x="771.630859"/>
    </g>
   </g>
   <g id="text_12">
    <!-- Dos triángulos son semejantes si -->
    <g style="fill: #6b7280" transform="translate(407.453197 447.977849) scale(0.09 -0.09)">
     <use xlink:href="#SegoeUI-44"/>
     <use xlink:href="#SegoeUI-6f" x="70.117188"/>
     <use xlink:href="#SegoeUI-73" x="128.710938"/>
     <use xlink:href="#SegoeUI-20" x="171.142578"/>
     <use xlink:href="#SegoeUI-74" x="198.535156"/>
     <use xlink:href="#SegoeUI-72" x="232.421875"/>
     <use xlink:href="#SegoeUI-69" x="267.1875"/>
     <use xlink:href="#SegoeUI-e1" x="291.40625"/>
     <use xlink:href="#SegoeUI-6e" x="342.285156"/>
     <use xlink:href="#SegoeUI-67" x="398.876953"/>
     <use xlink:href="#SegoeUI-75" x="457.763672"/>
     <use xlink:href="#SegoeUI-6c" x="514.355469"/>
     <use xlink:href="#SegoeUI-6f" x="538.574219"/>
     <use xlink:href="#SegoeUI-73" x="597.167969"/>
     <use xlink:href="#SegoeUI-20" x="639.599609"/>
     <use xlink:href="#SegoeUI-73" x="666.992188"/>
     <use xlink:href="#SegoeUI-6f" x="709.423828"/>
     <use xlink:href="#SegoeUI-6e" x="768.017578"/>
     <use xlink:href="#SegoeUI-20" x="824.609375"/>
     <use xlink:href="#SegoeUI-73" x="852.001953"/>
     <use xlink:href="#SegoeUI-65" x="894.433594"/>
     <use xlink:href="#SegoeUI-6d" x="946.728516"/>
     <use xlink:href="#SegoeUI-65" x="1032.861328"/>
     <use xlink:href="#SegoeUI-6a" x="1085.15625"/>
     <use xlink:href="#SegoeUI-61" x="1109.375"/>
     <use xlink:href="#SegoeUI-6e" x="1160.253906"/>
     <use xlink:href="#SegoeUI-74" x="1216.845703"/>
     <use xlink:href="#SegoeUI-65" x="1249.982422"/>
     <use xlink:href="#SegoeUI-73" x="1302.277344"/>
     <use xlink:href="#SegoeUI-20" x="1344.708984"/>
     <use xlink:href="#SegoeUI-73" x="1372.101562"/>
     <use xlink:href="#SegoeUI-69" x="1414.533203"/>
    </g>
    <!-- tienen dos lados proporcionales -->
    <g style="fill: #6b7280" transform="translate(408.750463 458.757318) scale(0.09 -0.09)">
     <defs>
      <path id="SegoeUI-70" d="M 1044 463 
L 1031 463 
L 1031 -1472 
L 519 -1472 
L 519 3200 
L 1031 3200 
L 1031 2638 
L 1044 2638 
Q 1422 3275 2150 3275 
Q 2769 3275 3116 2845 
Q 3463 2416 3463 1694 
Q 3463 891 3072 408 
Q 2681 -75 2003 -75 
Q 1381 -75 1044 463 
z
M 1031 1753 
L 1031 1306 
Q 1031 909 1289 632 
Q 1547 356 1944 356 
Q 2409 356 2673 712 
Q 2938 1069 2938 1703 
Q 2938 2238 2691 2541 
Q 2444 2844 2022 2844 
Q 1575 2844 1303 2533 
Q 1031 2222 1031 1753 
z
" transform="scale(0.015625)"/>
      <path id="SegoeUI-63" d="M 2700 147 
Q 2331 -75 1825 -75 
Q 1141 -75 720 370 
Q 300 816 300 1525 
Q 300 2316 753 2795 
Q 1206 3275 1963 3275 
Q 2384 3275 2706 3119 
L 2706 2594 
Q 2350 2844 1944 2844 
Q 1453 2844 1139 2492 
Q 825 2141 825 1569 
Q 825 1006 1120 681 
Q 1416 356 1913 356 
Q 2331 356 2700 634 
L 2700 147 
z
" transform="scale(0.015625)"/>
     </defs>
     <use xlink:href="#SegoeUI-74"/>
     <use xlink:href="#SegoeUI-69" x="33.886719"/>
     <use xlink:href="#SegoeUI-65" x="58.105469"/>
     <use xlink:href="#SegoeUI-6e" x="110.400391"/>
     <use xlink:href="#SegoeUI-65" x="166.992188"/>
     <use xlink:href="#SegoeUI-6e" x="219.287109"/>
     <use xlink:href="#SegoeUI-20" x="275.878906"/>
     <use xlink:href="#SegoeUI-64" x="303.271484"/>
     <use xlink:href="#SegoeUI-6f" x="362.158203"/>
     <use xlink:href="#SegoeUI-73" x="420.751953"/>
     <use xlink:href="#SegoeUI-20" x="463.183594"/>
     <use xlink:href="#SegoeUI-6c" x="490.576172"/>
     <use xlink:href="#SegoeUI-61" x="514.794922"/>
     <use xlink:href="#SegoeUI-64" x="565.673828"/>
     <use xlink:href="#SegoeUI-6f" x="624.560547"/>
     <use xlink:href="#SegoeUI-73" x="683.154297"/>
     <use xlink:href="#SegoeUI-20" x="725.585938"/>
     <use xlink:href="#SegoeUI-70" x="752.978516"/>
     <use xlink:href="#SegoeUI-72" x="811.767578"/>
     <use xlink:href="#SegoeUI-6f" x="845.158203"/>
     <use xlink:href="#SegoeUI-70" x="903.751953"/>
     <use xlink:href="#SegoeUI-6f" x="962.541016"/>
     <use xlink:href="#SegoeUI-72" x="1021.134766"/>
     <use xlink:href="#SegoeUI-63" x="1054.525391"/>
     <use xlink:href="#SegoeUI-69" x="1100.716797"/>
     <use xlink:href="#SegoeUI-6f" x="1124.935547"/>
     <use xlink:href="#SegoeUI-6e" x="1183.529297"/>
     <use xlink:href="#SegoeUI-61" x="1240.121094"/>
     <use xlink:href="#SegoeUI-6c" x="1291"/>
     <use xlink:href="#SegoeUI-65" x="1315.21875"/>
     <use xlink:href="#SegoeUI-73" x="1367.513672"/>
    </g>
    <!-- y el ángulo comprendido igual. -->
    <g style="fill: #6b7280" transform="translate(410.580697 469.65899) scale(0.09 -0.09)">
     <defs>
      <path id="SegoeUI-79" d="M 3066 3200 
L 1594 -513 
Q 1200 -1506 488 -1506 
Q 288 -1506 153 -1466 
L 153 -1006 
Q 319 -1063 456 -1063 
Q 844 -1063 1038 -600 
L 1294 6 
L 44 3200 
L 613 3200 
L 1478 738 
Q 1494 691 1544 494 
L 1563 494 
Q 1578 569 1625 731 
L 2534 3200 
L 3066 3200 
z
" transform="scale(0.015625)"/>
     </defs>
     <use xlink:href="#SegoeUI-79"/>
     <use xlink:href="#SegoeUI-20" x="48.388672"/>
     <use xlink:href="#SegoeUI-65" x="75.78125"/>
     <use xlink:href="#SegoeUI-6c" x="128.076172"/>
     <use xlink:href="#SegoeUI-20" x="152.294922"/>
     <use xlink:href="#SegoeUI-e1" x="179.6875"/>
     <use xlink:href="#SegoeUI-6e" x="230.566406"/>
     <use xlink:href="#SegoeUI-67" x="287.158203"/>
     <use xlink:href="#SegoeUI-75" x="346.044922"/>
     <use xlink:href="#SegoeUI-6c" x="402.636719"/>
     <use xlink:href="#SegoeUI-6f" x="426.855469"/>
     <use xlink:href="#SegoeUI-20" x="485.449219"/>
     <use xlink:href="#SegoeUI-63" x="512.841797"/>
     <use xlink:href="#SegoeUI-6f" x="559.033203"/>
     <use xlink:href="#SegoeUI-6d" x="617.626953"/>
     <use xlink:href="#SegoeUI-70" x="703.759766"/>
     <use xlink:href="#SegoeUI-72" x="762.548828"/>
     <use xlink:href="#SegoeUI-65" x="795.939453"/>
     <use xlink:href="#SegoeUI-6e" x="848.234375"/>
     <use xlink:href="#SegoeUI-64" x="904.826172"/>
     <use xlink:href="#SegoeUI-69" x="963.712891"/>
     <use xlink:href="#SegoeUI-64" x="987.931641"/>
     <use xlink:href="#SegoeUI-6f" x="1046.818359"/>
     <use xlink:href="#SegoeUI-20" x="1105.412109"/>
     <use xlink:href="#SegoeUI-69" x="1132.804688"/>
     <use xlink:href="#SegoeUI-67" x="1157.023438"/>
     <use xlink:href="#SegoeUI-75" x="1215.910156"/>
     <use xlink:href="#SegoeUI-61" x="1272.501953"/>
     <use xlink:href="#SegoeUI-6c" x="1323.380859"/>
     <use xlink:href="#SegoeUI-2e" x="1347.599609"/>
    </g>
   </g>
   <g id="text_13">
    <!-- LLL -->
    <g style="fill: #4b5563" transform="translate(769.897102 400.214486) scale(0.12 -0.12)">
     <use xlink:href="#SegoeUI-Bold-4c"/>
     <use xlink:href="#SegoeUI-Bold-4c" x="51.123047"/>
     <use xlink:href="#SegoeUI-Bold-4c" x="102.246094"/>
    </g>
   </g>
   <g id="text_14">
    <!-- Lado-Lado-Lado -->
    <g style="fill: #374151" transform="translate(742.785539 418.13876) scale(0.1 -0.1)">
     <use xlink:href="#SegoeUI-4c"/>
     <use xlink:href="#SegoeUI-61" x="47.070312"/>
     <use xlink:href="#SegoeUI-64" x="97.949219"/>
     <use xlink:href="#SegoeUI-6f" x="156.835938"/>
     <use xlink:href="#SegoeUI-2d" x="215.429688"/>
     <use xlink:href="#SegoeUI-4c" x="255.419922"/>
     <use xlink:href="#SegoeUI-61" x="302.490234"/>
     <use xlink:href="#SegoeUI-64" x="353.369141"/>
     <use xlink:href="#SegoeUI-6f" x="412.255859"/>
     <use xlink:href="#SegoeUI-2d" x="470.849609"/>
     <use xlink:href="#SegoeUI-4c" x="510.839844"/>
     <use xlink:href="#SegoeUI-61" x="557.910156"/>
     <use xlink:href="#SegoeUI-64" x="608.789062"/>
     <use xlink:href="#SegoeUI-6f" x="667.675781"/>
    </g>
   </g>
   <g id="text_15">
    <!-- Dos triángulos son semejantes si -->
    <g style="fill: #6b7280" transform="translate(714.353039 447.977849) scale(0.09 -0.09)">
     <use xlink:href="#SegoeUI-44"/>
     <use xlink:href="#SegoeUI-6f" x="70.117188"/>
     <use xlink:href="#SegoeUI-73" x="128.710938"/>
     <use xlink:href="#SegoeUI-20" x="171.142578"/>
     <use xlink:href="#SegoeUI-74" x="198.535156"/>
     <use xlink:href="#SegoeUI-72" x="232.421875"/>
     <use xlink:href="#SegoeUI-69" x="267.1875"/>
     <use xlink:href="#SegoeUI-e1" x="291.40625"/>
     <use xlink:href="#SegoeUI-6e" x="342.285156"/>
     <use xlink:href="#SegoeUI-67" x="398.876953"/>
     <use xlink:href="#SegoeUI-75" x="457.763672"/>
     <use xlink:href="#SegoeUI-6c" x="514.355469"/>
     <use xlink:href="#SegoeUI-6f" x="538.574219"/>
     <use xlink:href="#SegoeUI-73" x="597.167969"/>
     <use xlink:href="#SegoeUI-20" x="639.599609"/>
     <use xlink:href="#SegoeUI-73" x="666.992188"/>
     <use xlink:href="#SegoeUI-6f" x="709.423828"/>
     <use xlink:href="#SegoeUI-6e" x="768.017578"/>
     <use xlink:href="#SegoeUI-20" x="824.609375"/>
     <use xlink:href="#SegoeUI-73" x="852.001953"/>
     <use xlink:href="#SegoeUI-65" x="894.433594"/>
     <use xlink:href="#SegoeUI-6d" x="946.728516"/>
     <use xlink:href="#SegoeUI-65" x="1032.861328"/>
     <use xlink:href="#SegoeUI-6a" x="1085.15625"/>
     <use xlink:href="#SegoeUI-61" x="1109.375"/>
     <use xlink:href="#SegoeUI-6e" x="1160.253906"/>
     <use xlink:href="#SegoeUI-74" x="1216.845703"/>
     <use xlink:href="#SegoeUI-65" x="1249.982422"/>
     <use xlink:href="#SegoeUI-73" x="1302.277344"/>
     <use xlink:href="#SegoeUI-20" x="1344.708984"/>
     <use xlink:href="#SegoeUI-73" x="1372.101562"/>
     <use xlink:href="#SegoeUI-69" x="1414.533203"/>
    </g>
    <!-- tienen los tres lados proporcionales. -->
    <g style="fill: #6b7280" transform="translate(707.71132 458.757318) scale(0.09 -0.09)">
     <use xlink:href="#SegoeUI-74"/>
     <use xlink:href="#SegoeUI-69" x="33.886719"/>
     <use xlink:href="#SegoeUI-65" x="58.105469"/>
     <use xlink:href="#SegoeUI-6e" x="110.400391"/>
     <use xlink:href="#SegoeUI-65" x="166.992188"/>
     <use xlink:href="#SegoeUI-6e" x="219.287109"/>
     <use xlink:href="#SegoeUI-20" x="275.878906"/>
     <use xlink:href="#SegoeUI-6c" x="303.271484"/>
     <use xlink:href="#SegoeUI-6f" x="327.490234"/>
     <use xlink:href="#SegoeUI-73" x="386.083984"/>
     <use xlink:href="#SegoeUI-20" x="428.515625"/>
     <use xlink:href="#SegoeUI-74" x="455.908203"/>
     <use xlink:href="#SegoeUI-72" x="489.794922"/>
     <use xlink:href="#SegoeUI-65" x="523.185547"/>
     <use xlink:href="#SegoeUI-73" x="575.480469"/>
     <use xlink:href="#SegoeUI-20" x="617.912109"/>
     <use xlink:href="#SegoeUI-6c" x="645.304688"/>
     <use xlink:href="#SegoeUI-61" x="669.523438"/>
     <use xlink:href="#SegoeUI-64" x="720.402344"/>
     <use xlink:href="#SegoeUI-6f" x="779.289062"/>
     <use xlink:href="#SegoeUI-73" x="837.882812"/>
     <use xlink:href="#SegoeUI-20" x="880.314453"/>
     <use xlink:href="#SegoeUI-70" x="907.707031"/>
     <use xlink:href="#SegoeUI-72" x="966.496094"/>
     <use xlink:href="#SegoeUI-6f" x="999.886719"/>
     <use xlink:href="#SegoeUI-70" x="1058.480469"/>
     <use xlink:href="#SegoeUI-6f" x="1117.269531"/>
     <use xlink:href="#SegoeUI-72" x="1175.863281"/>
     <use xlink:href="#SegoeUI-63" x="1209.253906"/>
     <use xlink:href="#SegoeUI-69" x="1255.445312"/>
     <use xlink:href="#SegoeUI-6f" x="1279.664062"/>
     <use xlink:href="#SegoeUI-6e" x="1338.257812"/>
     <use xlink:href="#SegoeUI-61" x="1394.849609"/>
     <use xlink:href="#SegoeUI-6c" x="1445.728516"/>
     <use xlink:href="#SegoeUI-65" x="1469.947266"/>
     <use xlink:href="#SegoeUI-73" x="1522.242188"/>
     <use xlink:href="#SegoeUI-2e" x="1564.673828"/>
    </g>
   </g>
   <g id="text_16">
    <!-- Leyenda: -->
    <g style="fill: #374151" transform="translate(453.502963 489.835856) scale(0.09 -0.09)">
     <defs>
      <path id="SegoeUI-Bold-65" d="M 3291 1319 
L 1203 1319 
Q 1253 622 2081 622 
Q 2609 622 3009 872 
L 3009 159 
Q 2566 -78 1856 -78 
Q 1081 -78 653 351 
Q 225 781 225 1550 
Q 225 2347 687 2812 
Q 1150 3278 1825 3278 
Q 2525 3278 2908 2862 
Q 3291 2447 3291 1734 
L 3291 1319 
z
M 2375 1925 
Q 2375 2613 1819 2613 
Q 1581 2613 1407 2416 
Q 1234 2219 1197 1925 
L 2375 1925 
z
" transform="scale(0.015625)"/>
      <path id="SegoeUI-Bold-79" d="M 3463 3200 
L 2163 -256 
Q 1694 -1503 750 -1503 
Q 391 -1503 159 -1422 
L 159 -634 
Q 356 -750 588 -750 
Q 969 -750 1119 -391 
L 1288 6 
L -13 3200 
L 1081 3200 
L 1678 1253 
Q 1734 1072 1766 825 
L 1778 825 
Q 1806 1006 1881 1247 
L 2484 3200 
L 3463 3200 
z
" transform="scale(0.015625)"/>
      <path id="SegoeUI-Bold-6e" d="M 3506 0 
L 2522 0 
L 2522 1778 
Q 2522 2522 1991 2522 
Q 1734 2522 1568 2325 
Q 1403 2128 1403 1825 
L 1403 0 
L 416 0 
L 416 3200 
L 1403 3200 
L 1403 2694 
L 1416 2694 
Q 1769 3278 2444 3278 
Q 3506 3278 3506 1959 
L 3506 0 
z
" transform="scale(0.015625)"/>
      <path id="SegoeUI-Bold-64" d="M 3547 0 
L 2559 0 
L 2559 441 
L 2547 441 
Q 2209 -78 1556 -78 
Q 956 -78 590 345 
Q 225 769 225 1528 
Q 225 2322 628 2800 
Q 1031 3278 1684 3278 
Q 2303 3278 2547 2834 
L 2559 2834 
L 2559 4738 
L 3547 4738 
L 3547 0 
z
M 2578 1556 
L 2578 1797 
Q 2578 2109 2397 2315 
Q 2216 2522 1925 2522 
Q 1597 2522 1412 2264 
Q 1228 2006 1228 1556 
Q 1228 1134 1406 906 
Q 1584 678 1900 678 
Q 2200 678 2389 918 
Q 2578 1159 2578 1556 
z
" transform="scale(0.015625)"/>
      <path id="SegoeUI-Bold-61" d="M 3078 0 
L 2144 0 
L 2144 459 
L 2131 459 
Q 1809 -78 1178 -78 
Q 713 -78 445 186 
Q 178 450 178 891 
Q 178 1822 1281 1966 
L 2150 2081 
Q 2150 2606 1581 2606 
Q 1009 2606 494 2266 
L 494 3009 
Q 700 3116 1058 3197 
Q 1416 3278 1709 3278 
Q 3078 3278 3078 1913 
L 3078 0 
z
M 2150 1300 
L 2150 1516 
L 1569 1441 
Q 1088 1378 1088 1006 
Q 1088 838 1205 730 
Q 1322 622 1522 622 
Q 1800 622 1975 814 
Q 2150 1006 2150 1300 
z
" transform="scale(0.015625)"/>
      <path id="SegoeUI-Bold-3a" d="M 856 2209 
Q 613 2209 450 2357 
Q 288 2506 288 2725 
Q 288 2950 455 3094 
Q 622 3238 872 3238 
Q 1125 3238 1286 3092 
Q 1447 2947 1447 2725 
Q 1447 2497 1283 2353 
Q 1119 2209 856 2209 
z
M 856 -78 
Q 613 -78 450 72 
Q 288 222 288 441 
Q 288 666 455 809 
Q 622 953 872 953 
Q 1125 953 1286 808 
Q 1447 663 1447 441 
Q 1447 213 1283 67 
Q 1119 -78 856 -78 
z
" transform="scale(0.015625)"/>
     </defs>
     <use xlink:href="#SegoeUI-Bold-4c"/>
     <use xlink:href="#SegoeUI-Bold-65" x="51.123047"/>
     <use xlink:href="#SegoeUI-Bold-79" x="105.224609"/>
     <use xlink:href="#SegoeUI-Bold-65" x="158.033203"/>
     <use xlink:href="#SegoeUI-Bold-6e" x="212.134766"/>
     <use xlink:href="#SegoeUI-Bold-64" x="272.632812"/>
     <use xlink:href="#SegoeUI-Bold-61" x="334.546875"/>
     <use xlink:href="#SegoeUI-Bold-3a" x="388.355469"/>
    </g>
   </g>
   <g id="text_17">
    <!-- Triángulo pequeño -->
    <g style="fill: #2c2f33" transform="translate(369.899813 500.876119) scale(0.08 -0.08)">
     <defs>
      <path id="SegoeUI-54" d="M 3238 4006 
L 1944 4006 
L 1944 0 
L 1419 0 
L 1419 4006 
L 128 4006 
L 128 4481 
L 3238 4481 
L 3238 4006 
z
" transform="scale(0.015625)"/>
      <path id="SegoeUI-71" d="M 3250 -1472 
L 2738 -1472 
L 2738 550 
L 2725 550 
Q 2391 -75 1631 -75 
Q 1028 -75 664 354 
Q 300 784 300 1525 
Q 300 2322 700 2798 
Q 1100 3275 1775 3275 
Q 2431 3275 2725 2756 
L 2738 2756 
L 2738 3200 
L 3250 3200 
L 3250 -1472 
z
M 2738 1441 
L 2738 1906 
Q 2738 2300 2480 2572 
Q 2222 2844 1825 2844 
Q 1363 2844 1094 2501 
Q 825 2159 825 1538 
Q 825 984 1084 670 
Q 1344 356 1753 356 
Q 2203 356 2470 664 
Q 2738 972 2738 1441 
z
" transform="scale(0.015625)"/>
      <path id="SegoeUI-f1" d="M 3175 0 
L 2663 0 
L 2663 1825 
Q 2663 2844 1919 2844 
Q 1534 2844 1282 2555 
Q 1031 2266 1031 1825 
L 1031 0 
L 519 0 
L 519 3200 
L 1031 3200 
L 1031 2669 
L 1044 2669 
Q 1406 3275 2094 3275 
Q 2619 3275 2897 2936 
Q 3175 2597 3175 1956 
L 3175 0 
z
M 2841 4556 
Q 2841 4228 2691 4020 
Q 2541 3813 2284 3813 
Q 2062 3813 1778 3975 
Q 1537 4109 1406 4109 
Q 1131 4109 1131 3756 
L 837 3756 
Q 837 4091 987 4292 
Q 1137 4494 1406 4494 
Q 1609 4494 1872 4331 
Q 2103 4194 2272 4194 
Q 2534 4194 2534 4556 
L 2841 4556 
z
" transform="scale(0.015625)"/>
     </defs>
     <use xlink:href="#SegoeUI-54"/>
     <use xlink:href="#SegoeUI-72" x="43.642578"/>
     <use xlink:href="#SegoeUI-69" x="78.408203"/>
     <use xlink:href="#SegoeUI-e1" x="102.626953"/>
     <use xlink:href="#SegoeUI-6e" x="153.505859"/>
     <use xlink:href="#SegoeUI-67" x="210.097656"/>
     <use xlink:href="#SegoeUI-75" x="268.984375"/>
     <use xlink:href="#SegoeUI-6c" x="325.576172"/>
     <use xlink:href="#SegoeUI-6f" x="349.794922"/>
     <use xlink:href="#SegoeUI-20" x="408.388672"/>
     <use xlink:href="#SegoeUI-70" x="435.78125"/>
     <use xlink:href="#SegoeUI-65" x="494.570312"/>
     <use xlink:href="#SegoeUI-71" x="546.865234"/>
     <use xlink:href="#SegoeUI-75" x="605.751953"/>
     <use xlink:href="#SegoeUI-65" x="662.34375"/>
     <use xlink:href="#SegoeUI-f1" x="714.638672"/>
     <use xlink:href="#SegoeUI-6f" x="771.230469"/>
    </g>
   </g>
   <g id="text_18">
    <!-- Triángulo grande -->
    <g style="fill: #2c2f33" transform="translate(583.799702 500.876119) scale(0.08 -0.08)">
     <use xlink:href="#SegoeUI-54"/>
     <use xlink:href="#SegoeUI-72" x="43.642578"/>
     <use xlink:href="#SegoeUI-69" x="78.408203"/>
     <use xlink:href="#SegoeUI-e1" x="102.626953"/>
     <use xlink:href="#SegoeUI-6e" x="153.505859"/>
     <use xlink:href="#SegoeUI-67" x="210.097656"/>
     <use xlink:href="#SegoeUI-75" x="268.984375"/>
     <use xlink:href="#SegoeUI-6c" x="325.576172"/>
     <use xlink:href="#SegoeUI-6f" x="349.794922"/>
     <use xlink:href="#SegoeUI-20" x="408.388672"/>
     <use xlink:href="#SegoeUI-67" x="435.78125"/>
     <use xlink:href="#SegoeUI-72" x="494.667969"/>
     <use xlink:href="#SegoeUI-61" x="529.433594"/>
     <use xlink:href="#SegoeUI-6e" x="580.3125"/>
     <use xlink:href="#SegoeUI-64" x="636.904297"/>
     <use xlink:href="#SegoeUI-65" x="695.791016"/>
    </g>
   </g>
  </g>
  <g id="text_19">
   <!-- Criterios de Semejanza de Triángulos -->
   <g style="fill: #2c2f33" transform="translate(351.088822 17.564375) scale(0.14 -0.14)">
    <defs>
     <path id="SegoeUI-Bold-43" d="M 3725 159 
Q 3234 -78 2444 -78 
Q 1413 -78 822 528 
Q 231 1134 231 2144 
Q 231 3219 895 3887 
Q 1559 4556 2619 4556 
Q 3275 4556 3725 4391 
L 3725 3419 
Q 3275 3688 2700 3688 
Q 2069 3688 1681 3291 
Q 1294 2894 1294 2216 
Q 1294 1566 1659 1180 
Q 2025 794 2644 794 
Q 3234 794 3725 1081 
L 3725 159 
z
" transform="scale(0.015625)"/>
     <path id="SegoeUI-Bold-72" d="M 2503 2309 
Q 2325 2406 2088 2406 
Q 1766 2406 1584 2170 
Q 1403 1934 1403 1528 
L 1403 0 
L 416 0 
L 416 3200 
L 1403 3200 
L 1403 2606 
L 1416 2606 
Q 1650 3256 2259 3256 
Q 2416 3256 2503 3219 
L 2503 2309 
z
" transform="scale(0.015625)"/>
     <path id="SegoeUI-Bold-69" d="M 916 3706 
Q 666 3706 506 3854 
Q 347 4003 347 4219 
Q 347 4441 506 4581 
Q 666 4722 916 4722 
Q 1169 4722 1326 4581 
Q 1484 4441 1484 4219 
Q 1484 3994 1326 3850 
Q 1169 3706 916 3706 
z
M 1403 0 
L 416 0 
L 416 3200 
L 1403 3200 
L 1403 0 
z
" transform="scale(0.015625)"/>
     <path id="SegoeUI-Bold-74" d="M 2350 38 
Q 2131 -78 1691 -78 
Q 647 -78 647 1006 
L 647 2472 
L 128 2472 
L 128 3200 
L 647 3200 
L 647 3891 
L 1631 4172 
L 1631 3200 
L 2350 3200 
L 2350 2472 
L 1631 2472 
L 1631 1178 
Q 1631 678 2028 678 
Q 2184 678 2350 769 
L 2350 38 
z
" transform="scale(0.015625)"/>
     <path id="SegoeUI-Bold-6f" d="M 1941 -78 
Q 1141 -78 683 370 
Q 225 819 225 1588 
Q 225 2381 700 2829 
Q 1175 3278 1984 3278 
Q 2781 3278 3234 2829 
Q 3688 2381 3688 1644 
Q 3688 847 3220 384 
Q 2753 -78 1941 -78 
z
M 1966 2522 
Q 1616 2522 1422 2281 
Q 1228 2041 1228 1600 
Q 1228 678 1972 678 
Q 2681 678 2681 1625 
Q 2681 2522 1966 2522 
z
" transform="scale(0.015625)"/>
     <path id="SegoeUI-Bold-73" d="M 206 84 
L 206 884 
Q 450 738 692 666 
Q 934 594 1150 594 
Q 1413 594 1564 666 
Q 1716 738 1716 884 
Q 1716 978 1647 1040 
Q 1578 1103 1470 1150 
Q 1363 1197 1234 1234 
Q 1106 1272 988 1319 
Q 797 1391 651 1473 
Q 506 1556 407 1665 
Q 309 1775 257 1919 
Q 206 2063 206 2259 
Q 206 2528 323 2722 
Q 441 2916 636 3039 
Q 831 3163 1082 3220 
Q 1334 3278 1606 3278 
Q 1819 3278 2037 3245 
Q 2256 3213 2469 3150 
L 2469 2388 
Q 2281 2497 2067 2551 
Q 1853 2606 1647 2606 
Q 1550 2606 1464 2589 
Q 1378 2572 1312 2539 
Q 1247 2506 1209 2454 
Q 1172 2403 1172 2338 
Q 1172 2250 1228 2187 
Q 1284 2125 1375 2079 
Q 1466 2034 1577 1998 
Q 1688 1963 1797 1925 
Q 1994 1856 2153 1775 
Q 2313 1694 2427 1584 
Q 2541 1475 2602 1328 
Q 2663 1181 2663 978 
Q 2663 694 2539 492 
Q 2416 291 2211 164 
Q 2006 38 1739 -20 
Q 1472 -78 1184 -78 
Q 656 -78 206 84 
z
" transform="scale(0.015625)"/>
     <path id="SegoeUI-Bold-20" transform="scale(0.015625)"/>
     <path id="SegoeUI-Bold-53" d="M 306 172 
L 306 1172 
Q 578 944 897 830 
Q 1216 716 1541 716 
Q 1731 716 1873 750 
Q 2016 784 2111 845 
Q 2206 906 2253 989 
Q 2300 1072 2300 1169 
Q 2300 1300 2225 1403 
Q 2150 1506 2020 1593 
Q 1891 1681 1712 1762 
Q 1534 1844 1328 1928 
Q 803 2147 545 2462 
Q 288 2778 288 3225 
Q 288 3575 428 3826 
Q 569 4078 811 4240 
Q 1053 4403 1372 4479 
Q 1691 4556 2047 4556 
Q 2397 4556 2667 4514 
Q 2938 4472 3166 4384 
L 3166 3450 
Q 3053 3528 2920 3587 
Q 2788 3647 2647 3686 
Q 2506 3725 2367 3744 
Q 2228 3763 2103 3763 
Q 1931 3763 1790 3730 
Q 1650 3697 1553 3637 
Q 1456 3578 1403 3495 
Q 1350 3413 1350 3309 
Q 1350 3197 1409 3108 
Q 1469 3019 1578 2939 
Q 1688 2859 1844 2782 
Q 2000 2706 2197 2625 
Q 2466 2513 2680 2386 
Q 2894 2259 3047 2100 
Q 3200 1941 3281 1736 
Q 3363 1531 3363 1259 
Q 3363 884 3220 629 
Q 3078 375 2834 217 
Q 2591 59 2267 -9 
Q 1944 -78 1584 -78 
Q 1216 -78 883 -15 
Q 550 47 306 172 
z
" transform="scale(0.015625)"/>
     <path id="SegoeUI-Bold-6d" d="M 5497 0 
L 4513 0 
L 4513 1825 
Q 4513 2522 4000 2522 
Q 3756 2522 3603 2312 
Q 3450 2103 3450 1791 
L 3450 0 
L 2463 0 
L 2463 1844 
Q 2463 2522 1959 2522 
Q 1706 2522 1554 2322 
Q 1403 2122 1403 1778 
L 1403 0 
L 416 0 
L 416 3200 
L 1403 3200 
L 1403 2700 
L 1416 2700 
Q 1569 2956 1845 3117 
Q 2122 3278 2450 3278 
Q 3128 3278 3378 2681 
Q 3744 3278 4453 3278 
Q 5497 3278 5497 1991 
L 5497 0 
z
" transform="scale(0.015625)"/>
     <path id="SegoeUI-Bold-6a" d="M 916 3706 
Q 666 3706 506 3854 
Q 347 4003 347 4219 
Q 347 4441 506 4581 
Q 666 4722 916 4722 
Q 1169 4722 1326 4581 
Q 1484 4441 1484 4219 
Q 1484 3994 1326 3850 
Q 1169 3706 916 3706 
z
M 1403 56 
Q 1403 -653 1056 -1078 
Q 709 -1503 56 -1503 
Q -159 -1503 -416 -1409 
L -416 -634 
Q -209 -750 -50 -750 
Q 416 -750 416 -19 
L 416 3200 
L 1403 3200 
L 1403 56 
z
" transform="scale(0.015625)"/>
     <path id="SegoeUI-Bold-7a" d="M 2950 0 
L 78 0 
L 78 409 
L 1684 2472 
L 238 2472 
L 238 3200 
L 2938 3200 
L 2938 2713 
L 1416 728 
L 2950 728 
L 2950 0 
z
" transform="scale(0.015625)"/>
     <path id="SegoeUI-Bold-54" d="M 3659 3659 
L 2381 3659 
L 2381 0 
L 1369 0 
L 1369 3659 
L 97 3659 
L 97 4481 
L 3659 4481 
L 3659 3659 
z
" transform="scale(0.015625)"/>
     <path id="SegoeUI-Bold-e1" d="M 3078 0 
L 2144 0 
L 2144 459 
L 2131 459 
Q 1809 -78 1178 -78 
Q 713 -78 445 186 
Q 178 450 178 891 
Q 178 1822 1281 1966 
L 2150 2081 
Q 2150 2606 1581 2606 
Q 1009 2606 494 2266 
L 494 3009 
Q 700 3116 1058 3197 
Q 1416 3278 1709 3278 
Q 3078 3278 3078 1913 
L 3078 0 
z
M 2150 1300 
L 2150 1516 
L 1569 1441 
Q 1088 1378 1088 1006 
Q 1088 838 1205 730 
Q 1322 622 1522 622 
Q 1800 622 1975 814 
Q 2150 1006 2150 1300 
z
M 2783 4716 
L 1804 3706 
L 1092 3706 
L 1904 4716 
L 2783 4716 
z
" transform="scale(0.015625)"/>
     <path id="SegoeUI-Bold-67" d="M 3553 366 
Q 3553 -525 3037 -1014 
Q 2522 -1503 1544 -1503 
Q 897 -1503 519 -1319 
L 519 -488 
Q 1013 -775 1516 -775 
Q 2016 -775 2291 -511 
Q 2566 -247 2566 206 
L 2566 459 
L 2553 459 
Q 2216 -78 1556 -78 
Q 944 -78 584 353 
Q 225 784 225 1509 
Q 225 2322 625 2800 
Q 1025 3278 1678 3278 
Q 2263 3278 2553 2828 
L 2566 2828 
L 2566 3200 
L 3553 3200 
L 3553 366 
z
M 2578 1538 
L 2578 1791 
Q 2578 2094 2398 2308 
Q 2219 2522 1931 2522 
Q 1603 2522 1415 2265 
Q 1228 2009 1228 1544 
Q 1228 1144 1406 911 
Q 1584 678 1894 678 
Q 2200 678 2389 914 
Q 2578 1150 2578 1538 
z
" transform="scale(0.015625)"/>
     <path id="SegoeUI-Bold-75" d="M 3456 0 
L 2472 0 
L 2472 488 
L 2456 488 
Q 2091 -78 1478 -78 
Q 366 -78 366 1269 
L 366 3200 
L 1350 3200 
L 1350 1356 
Q 1350 678 1888 678 
Q 2153 678 2312 864 
Q 2472 1050 2472 1369 
L 2472 3200 
L 3456 3200 
L 3456 0 
z
" transform="scale(0.015625)"/>
     <path id="SegoeUI-Bold-6c" d="M 1403 0 
L 416 0 
L 416 4738 
L 1403 4738 
L 1403 0 
z
" transform="scale(0.015625)"/>
    </defs>
    <use xlink:href="#SegoeUI-Bold-43"/>
    <use xlink:href="#SegoeUI-Bold-72" x="62.402344"/>
    <use xlink:href="#SegoeUI-Bold-69" x="102.572266"/>
    <use xlink:href="#SegoeUI-Bold-74" x="130.990234"/>
    <use xlink:href="#SegoeUI-Bold-65" x="169.53125"/>
    <use xlink:href="#SegoeUI-Bold-72" x="223.632812"/>
    <use xlink:href="#SegoeUI-Bold-69" x="263.802734"/>
    <use xlink:href="#SegoeUI-Bold-6f" x="292.220703"/>
    <use xlink:href="#SegoeUI-Bold-73" x="353.353516"/>
    <use xlink:href="#SegoeUI-Bold-20" x="397.347656"/>
    <use xlink:href="#SegoeUI-Bold-64" x="424.935547"/>
    <use xlink:href="#SegoeUI-Bold-65" x="486.849609"/>
    <use xlink:href="#SegoeUI-Bold-20" x="540.951172"/>
    <use xlink:href="#SegoeUI-Bold-53" x="568.539062"/>
    <use xlink:href="#SegoeUI-Bold-65" x="624.59375"/>
    <use xlink:href="#SegoeUI-Bold-6d" x="678.695312"/>
    <use xlink:href="#SegoeUI-Bold-65" x="770.296875"/>
    <use xlink:href="#SegoeUI-Bold-6a" x="824.398438"/>
    <use xlink:href="#SegoeUI-Bold-61" x="852.816406"/>
    <use xlink:href="#SegoeUI-Bold-6e" x="906.625"/>
    <use xlink:href="#SegoeUI-Bold-7a" x="967.123047"/>
    <use xlink:href="#SegoeUI-Bold-61" x="1015.023438"/>
    <use xlink:href="#SegoeUI-Bold-20" x="1068.832031"/>
    <use xlink:href="#SegoeUI-Bold-64" x="1096.419922"/>
    <use xlink:href="#SegoeUI-Bold-65" x="1158.333984"/>
    <use xlink:href="#SegoeUI-Bold-20" x="1212.435547"/>
    <use xlink:href="#SegoeUI-Bold-54" x="1240.023438"/>
    <use xlink:href="#SegoeUI-Bold-72" x="1291.117188"/>
    <use xlink:href="#SegoeUI-Bold-69" x="1331.287109"/>
    <use xlink:href="#SegoeUI-Bold-e1" x="1359.705078"/>
    <use xlink:href="#SegoeUI-Bold-6e" x="1413.513672"/>
    <use xlink:href="#SegoeUI-Bold-67" x="1474.011719"/>
    <use xlink:href="#SegoeUI-Bold-75" x="1535.925781"/>
    <use xlink:href="#SegoeUI-Bold-6c" x="1596.423828"/>
    <use xlink:href="#SegoeUI-Bold-6f" x="1624.841797"/>
    <use xlink:href="#SegoeUI-Bold-73" x="1685.974609"/>
   </g>
  </g>
 </g>
 <defs>
  <clipPath id="p152299806b">
   <rect x="7.2" y="129.942866" width="247.59984" height="113.895926"/>
  </clipPath>
  <clipPath id="pe5955c8b72">
   <rect x="348.39984" y="129.942866" width="247.59984" height="113.895926"/>
  </clipPath>
  <clipPath id="pece3e1bc08">
   <rect x="689.59968" y="129.942866" width="247.59984" height="113.895926"/>
  </clipPath>
  <clipPath id="pc529265e24">
   <rect x="7.2" y="377.168991" width="929.99952" height="128.030529"/>
  </clipPath>
 </defs>
</svg>
