<?xml version="1.0" encoding="utf-8" standalone="no"?>
<!DOCTYPE svg PUBLIC "-//W3C//DTD SVG 1.1//EN"
  "http://www.w3.org/Graphics/SVG/1.1/DTD/svg11.dtd">
<svg xmlns:xlink="http://www.w3.org/1999/xlink" width="885.735295pt" height="440.39952pt" viewBox="0 0 885.735295 440.39952" xmlns="http://www.w3.org/2000/svg" version="1.1">
 <metadata>
  <rdf:RDF xmlns:dc="http://purl.org/dc/elements/1.1/" xmlns:cc="http://creativecommons.org/ns#" xmlns:rdf="http://www.w3.org/1999/02/22-rdf-syntax-ns#">
   <cc:Work>
    <dc:type rdf:resource="http://purl.org/dc/dcmitype/StillImage"/>
    <dc:date>2026-04-11T16:11:42.006112</dc:date>
    <dc:format>image/svg+xml</dc:format>
    <dc:creator>
     <cc:Agent>
      <dc:title>Matplotlib v3.8.4, https://matplotlib.org/</dc:title>
     </cc:Agent>
    </dc:creator>
   </cc:Work>
  </rdf:RDF>
 </metadata>
 <defs>
  <style type="text/css">*{stroke-linejoin: round; stroke-linecap: butt}</style>
 </defs>
 <g id="figure_1">
  <g id="patch_1">
   <path d="M 0 440.39952 
L 885.735295 440.39952 
L 885.735295 0 
L 0 0 
z
" style="fill: #ffffff"/>
  </g>
  <g id="axes_1">
   <g id="line2d_1">
    <path d="M 171.607055 92.642049 
L 54.173444 327.50927 
" clip-path="url(#pfc3e9d81b4)" style="fill: none; stroke: #39c5bb; stroke-width: 2.5; stroke-linecap: square"/>
   </g>
   <g id="line2d_2">
    <path d="M 171.607055 92.642049 
L 347.757471 327.50927 
" clip-path="url(#pfc3e9d81b4)" style="fill: none; stroke: #39c5bb; stroke-width: 2.5; stroke-linecap: square"/>
   </g>
   <g id="line2d_3">
    <path d="M 54.173444 327.50927 
L 347.757471 327.50927 
" clip-path="url(#pfc3e9d81b4)" style="fill: none; stroke: #39c5bb; stroke-width: 2.5; stroke-linecap: square"/>
   </g>
   <g id="line2d_4">
    <path d="M 124.633611 186.588938 
L 242.067221 186.588938 
" clip-path="url(#pfc3e9d81b4)" style="fill: none; stroke: #e12885; stroke-width: 2.5; stroke-linecap: square"/>
   </g>
   <g id="line2d_5">
    <path d="M 36.558403 327.50927 
L 365.372512 327.50927 
" clip-path="url(#pfc3e9d81b4)" style="fill: none; stroke-dasharray: 3.7,1.6; stroke-dashoffset: 0; stroke: #39c5bb; stroke-opacity: 0.5"/>
   </g>
   <g id="line2d_6">
    <path d="M 112.89025 186.588938 
L 253.810582 186.588938 
" clip-path="url(#pfc3e9d81b4)" style="fill: none; stroke-dasharray: 3.7,1.6; stroke-dashoffset: 0; stroke: #e12885; stroke-opacity: 0.5"/>
   </g>
   <g id="line2d_7">
    <defs>
     <path id="m9b94f1689e" d="M 0 3 
C 0.795609 3 1.55874 2.683901 2.12132 2.12132 
C 2.683901 1.55874 3 0.795609 3 0 
C 3 -0.795609 2.683901 -1.55874 2.12132 -2.12132 
C 1.55874 -2.683901 0.795609 -3 0 -3 
C -0.795609 -3 -1.55874 -2.683901 -2.12132 -2.12132 
C -2.683901 -1.55874 -3 -0.795609 -3 0 
C -3 0.795609 -2.683901 1.55874 -2.12132 2.12132 
C -1.55874 2.683901 -0.795609 3 0 3 
z
" style="stroke: #374151"/>
    </defs>
    <g clip-path="url(#pfc3e9d81b4)">
     <use xlink:href="#m9b94f1689e" x="171.607055" y="92.642049" style="fill: #374151; stroke: #374151"/>
    </g>
   </g>
   <g id="line2d_8">
    <g clip-path="url(#pfc3e9d81b4)">
     <use xlink:href="#m9b94f1689e" x="54.173444" y="327.50927" style="fill: #374151; stroke: #374151"/>
    </g>
   </g>
   <g id="line2d_9">
    <g clip-path="url(#pfc3e9d81b4)">
     <use xlink:href="#m9b94f1689e" x="347.757471" y="327.50927" style="fill: #374151; stroke: #374151"/>
    </g>
   </g>
   <g id="line2d_10">
    <g clip-path="url(#pfc3e9d81b4)">
     <use xlink:href="#m9b94f1689e" x="124.633611" y="186.588938" style="fill: #374151; stroke: #374151"/>
    </g>
   </g>
   <g id="line2d_11">
    <g clip-path="url(#pfc3e9d81b4)">
     <use xlink:href="#m9b94f1689e" x="242.067221" y="186.588938" style="fill: #374151; stroke: #374151"/>
    </g>
   </g>
   <g id="text_1">
    <!-- A -->
    <g style="fill: #2c2f33" transform="translate(171.607055 80.898688) scale(0.11 -0.11)">
     <defs>
      <path id="SegoeUI-Bold-41" d="M 4453 0 
L 3353 0 
L 3034 997 
L 1441 997 
L 1125 0 
L 31 0 
L 1663 4481 
L 2859 4481 
L 4453 0 
z
M 2803 1772 
L 2322 3278 
Q 2269 3447 2247 3681 
L 2222 3681 
Q 2206 3484 2144 3291 
L 1656 1772 
L 2803 1772 
z
" transform="scale(0.015625)"/>
     </defs>
     <use xlink:href="#SegoeUI-Bold-41"/>
    </g>
   </g>
   <g id="text_2">
    <!-- B -->
    <g style="fill: #2c2f33" transform="translate(36.558403 333.380951) scale(0.11 -0.11)">
     <defs>
      <path id="SegoeUI-Bold-42" d="M 513 0 
L 513 4481 
L 2144 4481 
Q 2894 4481 3297 4206 
Q 3700 3931 3700 3431 
Q 3700 3069 3454 2797 
Q 3209 2525 2828 2419 
L 2828 2406 
Q 3306 2347 3592 2053 
Q 3878 1759 3878 1338 
Q 3878 722 3437 361 
Q 2997 0 2234 0 
L 513 0 
z
M 1522 3738 
L 1522 2675 
L 1966 2675 
Q 2278 2675 2458 2826 
Q 2638 2978 2638 3244 
Q 2638 3738 1900 3738 
L 1522 3738 
z
M 1522 1925 
L 1522 744 
L 2069 744 
Q 2419 744 2617 906 
Q 2816 1069 2816 1350 
Q 2816 1619 2620 1772 
Q 2425 1925 2075 1925 
L 1522 1925 
z
" transform="scale(0.015625)"/>
     </defs>
     <use xlink:href="#SegoeUI-Bold-42"/>
    </g>
   </g>
   <g id="text_3">
    <!-- C -->
    <g style="fill: #2c2f33" transform="translate(359.500832 333.380951) scale(0.11 -0.11)">
     <defs>
      <path id="SegoeUI-Bold-43" d="M 3725 159 
Q 3234 -78 2444 -78 
Q 1413 -78 822 528 
Q 231 1134 231 2144 
Q 231 3219 895 3887 
Q 1559 4556 2619 4556 
Q 3275 4556 3725 4391 
L 3725 3419 
Q 3275 3688 2700 3688 
Q 2069 3688 1681 3291 
Q 1294 2894 1294 2216 
Q 1294 1566 1659 1180 
Q 2025 794 2644 794 
Q 3234 794 3725 1081 
L 3725 159 
z
" transform="scale(0.015625)"/>
     </defs>
     <use xlink:href="#SegoeUI-Bold-43"/>
    </g>
   </g>
   <g id="text_4">
    <!-- D -->
    <g style="fill: #2c2f33" transform="translate(104.082729 186.588938) scale(0.11 -0.11)">
     <defs>
      <path id="SegoeUI-Bold-44" d="M 513 0 
L 513 4481 
L 2100 4481 
Q 4488 4481 4488 2297 
Q 4488 1250 3836 625 
Q 3184 0 2100 0 
L 513 0 
z
M 1522 3659 
L 1522 819 
L 2022 819 
Q 2678 819 3051 1212 
Q 3425 1606 3425 2284 
Q 3425 2925 3054 3292 
Q 2684 3659 2016 3659 
L 1522 3659 
z
" transform="scale(0.015625)"/>
     </defs>
     <use xlink:href="#SegoeUI-Bold-44"/>
    </g>
   </g>
   <g id="text_5">
    <!-- E -->
    <g style="fill: #2c2f33" transform="translate(253.810582 186.588938) scale(0.11 -0.11)">
     <defs>
      <path id="SegoeUI-Bold-45" d="M 3200 0 
L 513 0 
L 513 4481 
L 3097 4481 
L 3097 3659 
L 1522 3659 
L 1522 2663 
L 2988 2663 
L 2988 1844 
L 1522 1844 
L 1522 819 
L 3200 819 
L 3200 0 
z
" transform="scale(0.015625)"/>
     </defs>
     <use xlink:href="#SegoeUI-Bold-45"/>
    </g>
   </g>
   <g id="text_6">
    <!-- AD -->
    <g style="fill: #1f2937" transform="translate(124.633611 139.615493) scale(0.1 -0.1)">
     <defs>
      <path id="SegoeUI-41" d="M 4056 0 
L 3475 0 
L 3000 1256 
L 1100 1256 
L 653 0 
L 69 0 
L 1788 4481 
L 2331 4481 
L 4056 0 
z
M 2828 1728 
L 2125 3638 
Q 2091 3731 2056 3938 
L 2044 3938 
Q 2013 3747 1972 3638 
L 1275 1728 
L 2828 1728 
z
" transform="scale(0.015625)"/>
      <path id="SegoeUI-44" d="M 588 0 
L 588 4481 
L 1825 4481 
Q 4194 4481 4194 2297 
Q 4194 1259 3536 629 
Q 2878 0 1775 0 
L 588 0 
z
M 1113 4006 
L 1113 475 
L 1781 475 
Q 2663 475 3153 947 
Q 3644 1419 3644 2284 
Q 3644 4006 1813 4006 
L 1113 4006 
z
" transform="scale(0.015625)"/>
     </defs>
     <use xlink:href="#SegoeUI-41"/>
     <use xlink:href="#SegoeUI-44" x="64.501953"/>
    </g>
   </g>
   <g id="text_7">
    <!-- DB -->
    <g style="fill: #1f2937" transform="translate(65.916805 257.049104) scale(0.1 -0.1)">
     <defs>
      <path id="SegoeUI-42" d="M 588 0 
L 588 4481 
L 1863 4481 
Q 2444 4481 2784 4197 
Q 3125 3913 3125 3456 
Q 3125 3075 2919 2794 
Q 2713 2513 2350 2394 
L 2350 2381 
Q 2803 2328 3075 2039 
Q 3347 1750 3347 1288 
Q 3347 713 2934 356 
Q 2522 0 1894 0 
L 588 0 
z
M 1113 4006 
L 1113 2559 
L 1650 2559 
Q 2081 2559 2328 2767 
Q 2575 2975 2575 3353 
Q 2575 4006 1716 4006 
L 1113 4006 
z
M 1113 2088 
L 1113 475 
L 1825 475 
Q 2288 475 2542 694 
Q 2797 913 2797 1294 
Q 2797 2088 1716 2088 
L 1113 2088 
z
" transform="scale(0.015625)"/>
     </defs>
     <use xlink:href="#SegoeUI-44"/>
     <use xlink:href="#SegoeUI-42" x="70.117188"/>
    </g>
   </g>
   <g id="text_8">
    <!-- AE -->
    <g style="fill: #4b5563" transform="translate(218.580499 139.615493) scale(0.1 -0.1)">
     <defs>
      <path id="SegoeUI-45" d="M 2963 0 
L 588 0 
L 588 4481 
L 2863 4481 
L 2863 4006 
L 1113 4006 
L 1113 2516 
L 2731 2516 
L 2731 2044 
L 1113 2044 
L 1113 475 
L 2963 475 
L 2963 0 
z
" transform="scale(0.015625)"/>
     </defs>
     <use xlink:href="#SegoeUI-41"/>
     <use xlink:href="#SegoeUI-45" x="64.501953"/>
    </g>
   </g>
   <g id="text_9">
    <!-- EC -->
    <g style="fill: #4b5563" transform="translate(306.655707 257.049104) scale(0.1 -0.1)">
     <defs>
      <path id="SegoeUI-43" d="M 3638 188 
Q 3141 -75 2400 -75 
Q 1444 -75 869 540 
Q 294 1156 294 2156 
Q 294 3231 941 3893 
Q 1588 4556 2581 4556 
Q 3219 4556 3638 4372 
L 3638 3813 
Q 3156 4081 2575 4081 
Q 1803 4081 1323 3565 
Q 844 3050 844 2188 
Q 844 1369 1292 883 
Q 1741 397 2469 397 
Q 3144 397 3638 697 
L 3638 188 
z
" transform="scale(0.015625)"/>
     </defs>
     <use xlink:href="#SegoeUI-45"/>
     <use xlink:href="#SegoeUI-43" x="50.585938"/>
    </g>
   </g>
   <g id="text_10">
    <!-- ∥ -->
    <g style="fill: #6b7280" transform="translate(200.965457 239.434062) scale(0.2 -0.2)">
     <defs>
      <path id="SegoeUI-2225" d="M 519 0 
L 519 4369 
L 3613 4369 
L 3613 0 
L 519 0 
z
M 981 463 
L 3150 463 
L 3150 3906 
L 981 3906 
L 981 463 
z
" transform="scale(0.015625)"/>
     </defs>
     <use xlink:href="#SegoeUI-2225"/>
    </g>
   </g>
   <g id="text_11">
    <!-- Si DE ∥ BC: -->
    <g style="fill: #374151" transform="translate(174.250926 374.482715) scale(0.11 -0.11)">
     <defs>
      <path id="SegoeUI-53" d="M 378 181 
L 378 800 
Q 484 706 632 631 
Q 781 556 945 504 
Q 1109 453 1275 425 
Q 1441 397 1581 397 
Q 2066 397 2305 576 
Q 2544 756 2544 1094 
Q 2544 1275 2464 1409 
Q 2384 1544 2243 1655 
Q 2103 1766 1911 1867 
Q 1719 1969 1497 2081 
Q 1263 2200 1059 2322 
Q 856 2444 706 2591 
Q 556 2738 470 2923 
Q 384 3109 384 3359 
Q 384 3666 518 3892 
Q 653 4119 872 4266 
Q 1091 4413 1370 4484 
Q 1650 4556 1941 4556 
Q 2603 4556 2906 4397 
L 2906 3806 
Q 2509 4081 1888 4081 
Q 1716 4081 1544 4045 
Q 1372 4009 1237 3928 
Q 1103 3847 1018 3719 
Q 934 3591 934 3406 
Q 934 3234 998 3109 
Q 1063 2984 1188 2881 
Q 1313 2778 1492 2681 
Q 1672 2584 1906 2469 
Q 2147 2350 2362 2219 
Q 2578 2088 2740 1928 
Q 2903 1769 2998 1575 
Q 3094 1381 3094 1131 
Q 3094 800 2964 570 
Q 2834 341 2614 197 
Q 2394 53 2106 -11 
Q 1819 -75 1500 -75 
Q 1394 -75 1237 -58 
Q 1081 -41 918 -8 
Q 756 25 611 73 
Q 466 122 378 181 
z
" transform="scale(0.015625)"/>
      <path id="SegoeUI-69" d="M 781 4013 
Q 644 4013 547 4106 
Q 450 4200 450 4344 
Q 450 4488 547 4583 
Q 644 4678 781 4678 
Q 922 4678 1020 4583 
Q 1119 4488 1119 4344 
Q 1119 4206 1020 4109 
Q 922 4013 781 4013 
z
M 1031 0 
L 519 0 
L 519 3200 
L 1031 3200 
L 1031 0 
z
" transform="scale(0.015625)"/>
      <path id="SegoeUI-20" transform="scale(0.015625)"/>
      <path id="SegoeUI-3a" d="M 697 2575 
Q 553 2575 451 2678 
Q 350 2781 350 2925 
Q 350 3069 451 3169 
Q 553 3269 697 3269 
Q 844 3269 947 3169 
Q 1050 3069 1050 2925 
Q 1050 2781 947 2678 
Q 844 2575 697 2575 
z
M 697 -69 
Q 553 -69 451 34 
Q 350 138 350 281 
Q 350 425 451 529 
Q 553 634 697 634 
Q 844 634 947 529 
Q 1050 425 1050 281 
Q 1050 138 947 34 
Q 844 -69 697 -69 
z
" transform="scale(0.015625)"/>
     </defs>
     <use xlink:href="#SegoeUI-53"/>
     <use xlink:href="#SegoeUI-69" x="53.125"/>
     <use xlink:href="#SegoeUI-20" x="77.34375"/>
     <use xlink:href="#SegoeUI-44" x="104.736328"/>
     <use xlink:href="#SegoeUI-45" x="174.853516"/>
     <use xlink:href="#SegoeUI-20" x="225.439453"/>
     <use xlink:href="#SegoeUI-2225" x="252.832031"/>
     <use xlink:href="#SegoeUI-20" x="317.382812"/>
     <use xlink:href="#SegoeUI-42" x="344.775391"/>
     <use xlink:href="#SegoeUI-43" x="402.099609"/>
     <use xlink:href="#SegoeUI-3a" x="464.013672"/>
    </g>
   </g>
   <g id="text_12">
    <!-- $\frac{AD}{DB} = \frac{AE}{EC}$ -->
    <g style="fill: #39c5bb" transform="translate(176.955457 403.841117) scale(0.14 -0.14)">
     <defs>
      <path id="DejaVuSans-Oblique-41" d="M 2356 4666 
L 3072 4666 
L 3938 0 
L 3278 0 
L 3084 1197 
L 984 1197 
L 325 0 
L -341 0 
L 2356 4666 
z
M 2584 4044 
L 1275 1722 
L 2988 1722 
L 2584 4044 
z
" transform="scale(0.015625)"/>
      <path id="DejaVuSans-Oblique-44" d="M 1081 4666 
L 2438 4666 
Q 3519 4666 4070 4208 
Q 4622 3750 4622 2847 
Q 4622 2250 4412 1698 
Q 4203 1147 3834 769 
Q 3463 381 2891 190 
Q 2319 0 1538 0 
L 172 0 
L 1081 4666 
z
M 1613 4147 
L 909 519 
L 1734 519 
Q 2794 519 3375 1128 
Q 3956 1738 3956 2847 
Q 3956 3519 3581 3833 
Q 3206 4147 2406 4147 
L 1613 4147 
z
" transform="scale(0.015625)"/>
      <path id="DejaVuSans-Oblique-42" d="M 1081 4666 
L 2694 4666 
Q 3350 4666 3675 4422 
Q 4000 4178 4000 3688 
Q 4000 3238 3720 2911 
Q 3441 2584 2988 2516 
Q 3375 2428 3569 2181 
Q 3763 1934 3763 1522 
Q 3763 819 3242 409 
Q 2722 0 1819 0 
L 172 0 
L 1081 4666 
z
M 1234 2228 
L 903 519 
L 1919 519 
Q 2491 519 2800 781 
Q 3109 1044 3109 1522 
Q 3109 1891 2904 2059 
Q 2700 2228 2247 2228 
L 1234 2228 
z
M 1606 4147 
L 1331 2741 
L 2272 2741 
Q 2775 2741 3058 2959 
Q 3341 3178 3341 3566 
Q 3341 3869 3150 4008 
Q 2959 4147 2541 4147 
L 1606 4147 
z
" transform="scale(0.015625)"/>
      <path id="DejaVuSans-3d" d="M 678 2906 
L 4684 2906 
L 4684 2381 
L 678 2381 
L 678 2906 
z
M 678 1631 
L 4684 1631 
L 4684 1100 
L 678 1100 
L 678 1631 
z
" transform="scale(0.015625)"/>
      <path id="DejaVuSans-Oblique-45" d="M 1081 4666 
L 4031 4666 
L 3928 4134 
L 1606 4134 
L 1338 2753 
L 3566 2753 
L 3463 2222 
L 1234 2222 
L 909 531 
L 3284 531 
L 3181 0 
L 172 0 
L 1081 4666 
z
" transform="scale(0.015625)"/>
      <path id="DejaVuSans-Oblique-43" d="M 4447 4306 
L 4319 3641 
Q 4019 3944 3683 4091 
Q 3347 4238 2956 4238 
Q 2422 4238 2017 3981 
Q 1613 3725 1319 3200 
Q 1131 2863 1032 2486 
Q 934 2109 934 1728 
Q 934 1091 1264 756 
Q 1594 422 2222 422 
Q 2656 422 3056 561 
Q 3456 700 3834 978 
L 3688 231 
Q 3316 72 2936 -9 
Q 2556 -91 2175 -91 
Q 1278 -91 773 396 
Q 269 884 269 1753 
Q 269 2309 461 2846 
Q 653 3384 1013 3828 
Q 1394 4300 1883 4525 
Q 2372 4750 3022 4750 
Q 3422 4750 3780 4639 
Q 4138 4528 4447 4306 
z
" transform="scale(0.015625)"/>
     </defs>
     <use xlink:href="#DejaVuSans-Oblique-41" transform="translate(0 43.965625) scale(0.7)"/>
     <use xlink:href="#DejaVuSans-Oblique-44" transform="translate(47.885742 43.965625) scale(0.7)"/>
     <use xlink:href="#DejaVuSans-Oblique-44" transform="translate(0 -38.31875) scale(0.7)"/>
     <use xlink:href="#DejaVuSans-Oblique-42" transform="translate(53.901367 -38.31875) scale(0.7)"/>
     <use xlink:href="#DejaVuSans-3d" transform="translate(133.90625 0.16875)"/>
     <use xlink:href="#DejaVuSans-Oblique-41" transform="translate(237.177734 43.965625) scale(0.7)"/>
     <use xlink:href="#DejaVuSans-Oblique-45" transform="translate(285.063477 43.965625) scale(0.7)"/>
     <use xlink:href="#DejaVuSans-Oblique-45" transform="translate(237.177734 -39.2375) scale(0.7)"/>
     <use xlink:href="#DejaVuSans-Oblique-43" transform="translate(281.40625 -39.2375) scale(0.7)"/>
     <path d="M 0 18.965625 
L 0 25.215625 
L 101.923828 25.215625 
L 101.923828 18.965625 
L 0 18.965625 
z
"/>
     <path d="M 237.177734 18.965625 
L 237.177734 25.215625 
L 330.283203 25.215625 
L 330.283203 18.965625 
L 237.177734 18.965625 
z
"/>
    </g>
   </g>
   <g id="text_13">
    <!-- Teorema de Tales en Triángulo -->
    <g style="fill: #2c2f33" transform="translate(115.691395 35.668605) scale(0.12 -0.12)">
     <defs>
      <path id="SegoeUI-Bold-54" d="M 3659 3659 
L 2381 3659 
L 2381 0 
L 1369 0 
L 1369 3659 
L 97 3659 
L 97 4481 
L 3659 4481 
L 3659 3659 
z
" transform="scale(0.015625)"/>
      <path id="SegoeUI-Bold-65" d="M 3291 1319 
L 1203 1319 
Q 1253 622 2081 622 
Q 2609 622 3009 872 
L 3009 159 
Q 2566 -78 1856 -78 
Q 1081 -78 653 351 
Q 225 781 225 1550 
Q 225 2347 687 2812 
Q 1150 3278 1825 3278 
Q 2525 3278 2908 2862 
Q 3291 2447 3291 1734 
L 3291 1319 
z
M 2375 1925 
Q 2375 2613 1819 2613 
Q 1581 2613 1407 2416 
Q 1234 2219 1197 1925 
L 2375 1925 
z
" transform="scale(0.015625)"/>
      <path id="SegoeUI-Bold-6f" d="M 1941 -78 
Q 1141 -78 683 370 
Q 225 819 225 1588 
Q 225 2381 700 2829 
Q 1175 3278 1984 3278 
Q 2781 3278 3234 2829 
Q 3688 2381 3688 1644 
Q 3688 847 3220 384 
Q 2753 -78 1941 -78 
z
M 1966 2522 
Q 1616 2522 1422 2281 
Q 1228 2041 1228 1600 
Q 1228 678 1972 678 
Q 2681 678 2681 1625 
Q 2681 2522 1966 2522 
z
" transform="scale(0.015625)"/>
      <path id="SegoeUI-Bold-72" d="M 2503 2309 
Q 2325 2406 2088 2406 
Q 1766 2406 1584 2170 
Q 1403 1934 1403 1528 
L 1403 0 
L 416 0 
L 416 3200 
L 1403 3200 
L 1403 2606 
L 1416 2606 
Q 1650 3256 2259 3256 
Q 2416 3256 2503 3219 
L 2503 2309 
z
" transform="scale(0.015625)"/>
      <path id="SegoeUI-Bold-6d" d="M 5497 0 
L 4513 0 
L 4513 1825 
Q 4513 2522 4000 2522 
Q 3756 2522 3603 2312 
Q 3450 2103 3450 1791 
L 3450 0 
L 2463 0 
L 2463 1844 
Q 2463 2522 1959 2522 
Q 1706 2522 1554 2322 
Q 1403 2122 1403 1778 
L 1403 0 
L 416 0 
L 416 3200 
L 1403 3200 
L 1403 2700 
L 1416 2700 
Q 1569 2956 1845 3117 
Q 2122 3278 2450 3278 
Q 3128 3278 3378 2681 
Q 3744 3278 4453 3278 
Q 5497 3278 5497 1991 
L 5497 0 
z
" transform="scale(0.015625)"/>
      <path id="SegoeUI-Bold-61" d="M 3078 0 
L 2144 0 
L 2144 459 
L 2131 459 
Q 1809 -78 1178 -78 
Q 713 -78 445 186 
Q 178 450 178 891 
Q 178 1822 1281 1966 
L 2150 2081 
Q 2150 2606 1581 2606 
Q 1009 2606 494 2266 
L 494 3009 
Q 700 3116 1058 3197 
Q 1416 3278 1709 3278 
Q 3078 3278 3078 1913 
L 3078 0 
z
M 2150 1300 
L 2150 1516 
L 1569 1441 
Q 1088 1378 1088 1006 
Q 1088 838 1205 730 
Q 1322 622 1522 622 
Q 1800 622 1975 814 
Q 2150 1006 2150 1300 
z
" transform="scale(0.015625)"/>
      <path id="SegoeUI-Bold-20" transform="scale(0.015625)"/>
      <path id="SegoeUI-Bold-64" d="M 3547 0 
L 2559 0 
L 2559 441 
L 2547 441 
Q 2209 -78 1556 -78 
Q 956 -78 590 345 
Q 225 769 225 1528 
Q 225 2322 628 2800 
Q 1031 3278 1684 3278 
Q 2303 3278 2547 2834 
L 2559 2834 
L 2559 4738 
L 3547 4738 
L 3547 0 
z
M 2578 1556 
L 2578 1797 
Q 2578 2109 2397 2315 
Q 2216 2522 1925 2522 
Q 1597 2522 1412 2264 
Q 1228 2006 1228 1556 
Q 1228 1134 1406 906 
Q 1584 678 1900 678 
Q 2200 678 2389 918 
Q 2578 1159 2578 1556 
z
" transform="scale(0.015625)"/>
      <path id="SegoeUI-Bold-6c" d="M 1403 0 
L 416 0 
L 416 4738 
L 1403 4738 
L 1403 0 
z
" transform="scale(0.015625)"/>
      <path id="SegoeUI-Bold-73" d="M 206 84 
L 206 884 
Q 450 738 692 666 
Q 934 594 1150 594 
Q 1413 594 1564 666 
Q 1716 738 1716 884 
Q 1716 978 1647 1040 
Q 1578 1103 1470 1150 
Q 1363 1197 1234 1234 
Q 1106 1272 988 1319 
Q 797 1391 651 1473 
Q 506 1556 407 1665 
Q 309 1775 257 1919 
Q 206 2063 206 2259 
Q 206 2528 323 2722 
Q 441 2916 636 3039 
Q 831 3163 1082 3220 
Q 1334 3278 1606 3278 
Q 1819 3278 2037 3245 
Q 2256 3213 2469 3150 
L 2469 2388 
Q 2281 2497 2067 2551 
Q 1853 2606 1647 2606 
Q 1550 2606 1464 2589 
Q 1378 2572 1312 2539 
Q 1247 2506 1209 2454 
Q 1172 2403 1172 2338 
Q 1172 2250 1228 2187 
Q 1284 2125 1375 2079 
Q 1466 2034 1577 1998 
Q 1688 1963 1797 1925 
Q 1994 1856 2153 1775 
Q 2313 1694 2427 1584 
Q 2541 1475 2602 1328 
Q 2663 1181 2663 978 
Q 2663 694 2539 492 
Q 2416 291 2211 164 
Q 2006 38 1739 -20 
Q 1472 -78 1184 -78 
Q 656 -78 206 84 
z
" transform="scale(0.015625)"/>
      <path id="SegoeUI-Bold-6e" d="M 3506 0 
L 2522 0 
L 2522 1778 
Q 2522 2522 1991 2522 
Q 1734 2522 1568 2325 
Q 1403 2128 1403 1825 
L 1403 0 
L 416 0 
L 416 3200 
L 1403 3200 
L 1403 2694 
L 1416 2694 
Q 1769 3278 2444 3278 
Q 3506 3278 3506 1959 
L 3506 0 
z
" transform="scale(0.015625)"/>
      <path id="SegoeUI-Bold-69" d="M 916 3706 
Q 666 3706 506 3854 
Q 347 4003 347 4219 
Q 347 4441 506 4581 
Q 666 4722 916 4722 
Q 1169 4722 1326 4581 
Q 1484 4441 1484 4219 
Q 1484 3994 1326 3850 
Q 1169 3706 916 3706 
z
M 1403 0 
L 416 0 
L 416 3200 
L 1403 3200 
L 1403 0 
z
" transform="scale(0.015625)"/>
      <path id="SegoeUI-Bold-e1" d="M 3078 0 
L 2144 0 
L 2144 459 
L 2131 459 
Q 1809 -78 1178 -78 
Q 713 -78 445 186 
Q 178 450 178 891 
Q 178 1822 1281 1966 
L 2150 2081 
Q 2150 2606 1581 2606 
Q 1009 2606 494 2266 
L 494 3009 
Q 700 3116 1058 3197 
Q 1416 3278 1709 3278 
Q 3078 3278 3078 1913 
L 3078 0 
z
M 2150 1300 
L 2150 1516 
L 1569 1441 
Q 1088 1378 1088 1006 
Q 1088 838 1205 730 
Q 1322 622 1522 622 
Q 1800 622 1975 814 
Q 2150 1006 2150 1300 
z
M 2783 4716 
L 1804 3706 
L 1092 3706 
L 1904 4716 
L 2783 4716 
z
" transform="scale(0.015625)"/>
      <path id="SegoeUI-Bold-67" d="M 3553 366 
Q 3553 -525 3037 -1014 
Q 2522 -1503 1544 -1503 
Q 897 -1503 519 -1319 
L 519 -488 
Q 1013 -775 1516 -775 
Q 2016 -775 2291 -511 
Q 2566 -247 2566 206 
L 2566 459 
L 2553 459 
Q 2216 -78 1556 -78 
Q 944 -78 584 353 
Q 225 784 225 1509 
Q 225 2322 625 2800 
Q 1025 3278 1678 3278 
Q 2263 3278 2553 2828 
L 2566 2828 
L 2566 3200 
L 3553 3200 
L 3553 366 
z
M 2578 1538 
L 2578 1791 
Q 2578 2094 2398 2308 
Q 2219 2522 1931 2522 
Q 1603 2522 1415 2265 
Q 1228 2009 1228 1544 
Q 1228 1144 1406 911 
Q 1584 678 1894 678 
Q 2200 678 2389 914 
Q 2578 1150 2578 1538 
z
" transform="scale(0.015625)"/>
      <path id="SegoeUI-Bold-75" d="M 3456 0 
L 2472 0 
L 2472 488 
L 2456 488 
Q 2091 -78 1478 -78 
Q 366 -78 366 1269 
L 366 3200 
L 1350 3200 
L 1350 1356 
Q 1350 678 1888 678 
Q 2153 678 2312 864 
Q 2472 1050 2472 1369 
L 2472 3200 
L 3456 3200 
L 3456 0 
z
" transform="scale(0.015625)"/>
     </defs>
     <use xlink:href="#SegoeUI-Bold-54"/>
     <use xlink:href="#SegoeUI-Bold-65" x="49.59375"/>
     <use xlink:href="#SegoeUI-Bold-6f" x="103.695312"/>
     <use xlink:href="#SegoeUI-Bold-72" x="164.828125"/>
     <use xlink:href="#SegoeUI-Bold-65" x="204.248047"/>
     <use xlink:href="#SegoeUI-Bold-6d" x="258.349609"/>
     <use xlink:href="#SegoeUI-Bold-61" x="349.951172"/>
     <use xlink:href="#SegoeUI-Bold-20" x="403.759766"/>
     <use xlink:href="#SegoeUI-Bold-64" x="431.347656"/>
     <use xlink:href="#SegoeUI-Bold-65" x="493.261719"/>
     <use xlink:href="#SegoeUI-Bold-20" x="547.363281"/>
     <use xlink:href="#SegoeUI-Bold-54" x="574.951172"/>
     <use xlink:href="#SegoeUI-Bold-61" x="625.044922"/>
     <use xlink:href="#SegoeUI-Bold-6c" x="678.853516"/>
     <use xlink:href="#SegoeUI-Bold-65" x="707.271484"/>
     <use xlink:href="#SegoeUI-Bold-73" x="761.373047"/>
     <use xlink:href="#SegoeUI-Bold-20" x="805.367188"/>
     <use xlink:href="#SegoeUI-Bold-65" x="832.955078"/>
     <use xlink:href="#SegoeUI-Bold-6e" x="887.056641"/>
     <use xlink:href="#SegoeUI-Bold-20" x="947.554688"/>
     <use xlink:href="#SegoeUI-Bold-54" x="975.142578"/>
     <use xlink:href="#SegoeUI-Bold-72" x="1026.236328"/>
     <use xlink:href="#SegoeUI-Bold-69" x="1066.40625"/>
     <use xlink:href="#SegoeUI-Bold-e1" x="1094.824219"/>
     <use xlink:href="#SegoeUI-Bold-6e" x="1148.632812"/>
     <use xlink:href="#SegoeUI-Bold-67" x="1209.130859"/>
     <use xlink:href="#SegoeUI-Bold-75" x="1271.044922"/>
     <use xlink:href="#SegoeUI-Bold-6c" x="1331.542969"/>
     <use xlink:href="#SegoeUI-Bold-6f" x="1359.960938"/>
    </g>
   </g>
  </g>
  <g id="axes_2">
   <g id="line2d_12">
    <path d="M 552.628148 318.846135 
L 861.382287 318.846135 
" clip-path="url(#pc466b607f1)" style="fill: none; stroke: #374151; stroke-width: 2; stroke-linecap: square"/>
   </g>
   <g id="line2d_13">
    <path d="M 552.628148 223.551648 
L 861.382287 223.551648 
" clip-path="url(#pc466b607f1)" style="fill: none; stroke: #374151; stroke-width: 2; stroke-linecap: square"/>
   </g>
   <g id="line2d_14">
    <path d="M 552.628148 96.492332 
L 861.382287 96.492332 
" clip-path="url(#pc466b607f1)" style="fill: none; stroke: #374151; stroke-width: 2; stroke-linecap: square"/>
   </g>
   <g id="line2d_15">
    <path d="M 605.357764 318.846135 
L 668.887423 223.551648 
L 764.18191 96.492332 
" clip-path="url(#pc466b607f1)" style="fill: none; stroke: #39c5bb; stroke-width: 2.5; stroke-linecap: square"/>
   </g>
   <g id="line2d_16">
    <defs>
     <path id="mcd9b00c5e6" d="M 0 3.5 
C 0.928211 3.5 1.81853 3.131218 2.474874 2.474874 
C 3.131218 1.81853 3.5 0.928211 3.5 0 
C 3.5 -0.928211 3.131218 -1.81853 2.474874 -2.474874 
C 1.81853 -3.131218 0.928211 -3.5 0 -3.5 
C -0.928211 -3.5 -1.81853 -3.131218 -2.474874 -2.474874 
C -3.131218 -1.81853 -3.5 -0.928211 -3.5 0 
C -3.5 0.928211 -3.131218 1.81853 -2.474874 2.474874 
C -1.81853 3.131218 -0.928211 3.5 0 3.5 
z
" style="stroke: #39c5bb"/>
    </defs>
    <g clip-path="url(#pc466b607f1)">
     <use xlink:href="#mcd9b00c5e6" x="605.357764" y="318.846135" style="fill: #39c5bb; stroke: #39c5bb"/>
    </g>
   </g>
   <g id="line2d_17">
    <g clip-path="url(#pc466b607f1)">
     <use xlink:href="#mcd9b00c5e6" x="668.887423" y="223.551648" style="fill: #39c5bb; stroke: #39c5bb"/>
    </g>
   </g>
   <g id="line2d_18">
    <g clip-path="url(#pc466b607f1)">
     <use xlink:href="#mcd9b00c5e6" x="764.18191" y="96.492332" style="fill: #39c5bb; stroke: #39c5bb"/>
    </g>
   </g>
   <g id="line2d_19">
    <path d="M 700.652252 318.846135 
L 751.475978 223.551648 
L 827.711568 96.492332 
" clip-path="url(#pc466b607f1)" style="fill: none; stroke: #e12885; stroke-width: 2.5; stroke-linecap: square"/>
   </g>
   <g id="line2d_20">
    <defs>
     <path id="maf04384f95" d="M 0 3.5 
C 0.928211 3.5 1.81853 3.131218 2.474874 2.474874 
C 3.131218 1.81853 3.5 0.928211 3.5 0 
C 3.5 -0.928211 3.131218 -1.81853 2.474874 -2.474874 
C 1.81853 -3.131218 0.928211 -3.5 0 -3.5 
C -0.928211 -3.5 -1.81853 -3.131218 -2.474874 -2.474874 
C -3.131218 -1.81853 -3.5 -0.928211 -3.5 0 
C -3.5 0.928211 -3.131218 1.81853 -2.474874 2.474874 
C -1.81853 3.131218 -0.928211 3.5 0 3.5 
z
" style="stroke: #e12885"/>
    </defs>
    <g clip-path="url(#pc466b607f1)">
     <use xlink:href="#maf04384f95" x="700.652252" y="318.846135" style="fill: #e12885; stroke: #e12885"/>
    </g>
   </g>
   <g id="line2d_21">
    <g clip-path="url(#pc466b607f1)">
     <use xlink:href="#maf04384f95" x="751.475978" y="223.551648" style="fill: #e12885; stroke: #e12885"/>
    </g>
   </g>
   <g id="line2d_22">
    <g clip-path="url(#pc466b607f1)">
     <use xlink:href="#maf04384f95" x="827.711568" y="96.492332" style="fill: #e12885; stroke: #e12885"/>
    </g>
   </g>
   <g id="text_14">
    <!-- ℓ₁ -->
    <g style="fill: #374151" transform="translate(554.534038 318.846135) scale(0.11 -0.11)">
     <defs>
      <path id="SegoeUI-2113" d="M 44 1319 
L 600 2056 
L 600 3475 
Q 600 4181 792 4420 
Q 984 4659 1331 4659 
Q 1644 4659 1830 4448 
Q 2016 4238 2016 3913 
Q 2016 3303 1125 2081 
L 1125 781 
Q 1125 500 1169 436 
Q 1213 372 1306 372 
Q 1456 372 1925 706 
L 1925 200 
Q 1575 -75 1222 -75 
Q 600 -75 600 678 
L 600 1381 
L 350 1075 
L 44 1319 
z
M 1125 2809 
Q 1466 3394 1523 3570 
Q 1581 3747 1581 3913 
Q 1581 4281 1344 4281 
Q 1253 4281 1189 4184 
Q 1125 4088 1125 3519 
L 1125 2809 
z
" transform="scale(0.015625)"/>
      <path id="SegoeUI-2081" d="M 1000 -735 
L 1000 1471 
Q 822 1328 634 1217 
Q 447 1106 250 1021 
L 250 1443 
Q 369 1484 478 1537 
Q 588 1590 700 1657 
Q 813 1724 931 1807 
Q 1050 1890 1188 1990 
L 1406 1990 
L 1406 -735 
L 1000 -735 
z
" transform="scale(0.015625)"/>
     </defs>
     <use xlink:href="#SegoeUI-2113"/>
     <use xlink:href="#SegoeUI-2081" x="32.324219"/>
    </g>
   </g>
   <g id="text_15">
    <!-- ℓ₂ -->
    <g style="fill: #374151" transform="translate(554.534038 223.551648) scale(0.11 -0.11)">
     <defs>
      <path id="SegoeUI-2082" d="M 2056 -735 
L 325 -735 
L 325 -479 
Q 325 -288 417 -136 
Q 509 15 648 146 
Q 788 278 950 395 
Q 1113 512 1252 637 
Q 1391 762 1483 902 
Q 1575 1043 1575 1218 
Q 1575 1399 1458 1499 
Q 1341 1599 1144 1599 
Q 772 1599 469 1281 
L 469 1746 
Q 728 1984 1203 1984 
Q 1378 1984 1525 1931 
Q 1672 1878 1778 1779 
Q 1884 1681 1943 1543 
Q 2003 1406 2003 1234 
Q 2003 1003 1914 823 
Q 1825 643 1690 499 
Q 1556 356 1400 243 
Q 1244 131 1109 35 
Q 975 -60 886 -146 
Q 797 -232 797 -319 
L 797 -354 
L 2056 -354 
L 2056 -735 
z
" transform="scale(0.015625)"/>
     </defs>
     <use xlink:href="#SegoeUI-2113"/>
     <use xlink:href="#SegoeUI-2082" x="32.324219"/>
    </g>
   </g>
   <g id="text_16">
    <!-- ℓ₃ -->
    <g style="fill: #374151" transform="translate(554.534038 96.492332) scale(0.11 -0.11)">
     <defs>
      <path id="SegoeUI-2083" d="M 403 -635 
L 403 -191 
Q 725 -429 1081 -429 
Q 1331 -429 1475 -311 
Q 1619 -194 1619 6 
Q 1619 446 934 446 
L 672 446 
L 672 815 
L 922 815 
Q 1538 815 1538 1234 
Q 1538 1606 1088 1606 
Q 794 1606 506 1390 
L 506 1824 
Q 778 1984 1172 1984 
Q 1525 1984 1734 1798 
Q 1944 1612 1944 1312 
Q 1944 840 1491 671 
L 1491 659 
Q 2044 528 2044 28 
Q 2044 -338 1778 -569 
Q 1513 -801 1069 -801 
Q 641 -801 403 -635 
z
" transform="scale(0.015625)"/>
     </defs>
     <use xlink:href="#SegoeUI-2113"/>
     <use xlink:href="#SegoeUI-2083" x="32.324219"/>
    </g>
   </g>
   <g id="text_17">
    <!-- A -->
    <g style="fill: #2c2f33" transform="translate(595.779799 341.081516) scale(0.1 -0.1)">
     <use xlink:href="#SegoeUI-41"/>
    </g>
   </g>
   <g id="text_18">
    <!-- B -->
    <g style="fill: #2c2f33" transform="translate(659.668051 245.787028) scale(0.1 -0.1)">
     <use xlink:href="#SegoeUI-42"/>
    </g>
   </g>
   <g id="text_19">
    <!-- C -->
    <g style="fill: #2c2f33" transform="translate(754.73285 83.7864) scale(0.1 -0.1)">
     <use xlink:href="#SegoeUI-43"/>
    </g>
   </g>
   <g id="text_20">
    <!-- A' -->
    <g style="fill: #2c2f33" transform="translate(702.630218 341.081516) scale(0.1 -0.1)">
     <defs>
      <path id="SegoeUI-27" d="M 963 4481 
L 963 3084 
L 509 3084 
L 509 4481 
L 963 4481 
z
" transform="scale(0.015625)"/>
     </defs>
     <use xlink:href="#SegoeUI-41"/>
     <use xlink:href="#SegoeUI-27" x="64.501953"/>
    </g>
   </g>
   <g id="text_21">
    <!-- B' -->
    <g style="fill: #2c2f33" transform="translate(753.812538 245.787028) scale(0.1 -0.1)">
     <use xlink:href="#SegoeUI-42"/>
     <use xlink:href="#SegoeUI-27" x="57.324219"/>
    </g>
   </g>
   <g id="text_22">
    <!-- C' -->
    <g style="fill: #2c2f33" transform="translate(829.81844 83.7864) scale(0.1 -0.1)">
     <use xlink:href="#SegoeUI-43"/>
     <use xlink:href="#SegoeUI-27" x="61.914062"/>
    </g>
   </g>
   <g id="text_23">
    <!-- a -->
    <g style="fill: #1f2937" transform="translate(624.416662 271.198892) scale(0.11 -0.11)">
     <use xlink:href="#SegoeUI-Bold-61"/>
    </g>
   </g>
   <g id="text_24">
    <!-- b -->
    <g style="fill: #1f2937" transform="translate(700.652252 160.02199) scale(0.11 -0.11)">
     <defs>
      <path id="SegoeUI-Bold-62" d="M 1416 372 
L 1403 372 
L 1403 0 
L 416 0 
L 416 4738 
L 1403 4738 
L 1403 2719 
L 1416 2719 
Q 1781 3278 2456 3278 
Q 3075 3278 3409 2853 
Q 3744 2428 3744 1691 
Q 3744 891 3353 406 
Q 2963 -78 2309 -78 
Q 1719 -78 1416 372 
z
M 1388 1722 
L 1388 1394 
Q 1388 1084 1566 881 
Q 1744 678 2022 678 
Q 2359 678 2545 939 
Q 2731 1200 2731 1678 
Q 2731 2075 2561 2298 
Q 2391 2522 2075 2522 
Q 1778 2522 1583 2300 
Q 1388 2078 1388 1722 
z
" transform="scale(0.015625)"/>
     </defs>
     <use xlink:href="#SegoeUI-Bold-62"/>
    </g>
   </g>
   <g id="text_25">
    <!-- a' -->
    <g style="fill: #4b5563" transform="translate(713.358183 271.198892) scale(0.11 -0.11)">
     <defs>
      <path id="SegoeUI-Bold-27" d="M 1297 4538 
L 1297 3156 
L 547 3156 
L 547 4538 
L 1297 4538 
z
" transform="scale(0.015625)"/>
     </defs>
     <use xlink:href="#SegoeUI-Bold-61"/>
     <use xlink:href="#SegoeUI-Bold-27" x="53.808594"/>
    </g>
   </g>
   <g id="text_26">
    <!-- b' -->
    <g style="fill: #4b5563" transform="translate(776.887842 160.02199) scale(0.11 -0.11)">
     <use xlink:href="#SegoeUI-Bold-62"/>
     <use xlink:href="#SegoeUI-Bold-27" x="62.011719"/>
    </g>
   </g>
   <g id="text_27">
    <!-- Si ℓ₁ ∥ ℓ₂ ∥ ℓ₃: -->
    <g style="fill: #374151" transform="translate(685.161463 369.669862) scale(0.11 -0.11)">
     <use xlink:href="#SegoeUI-53"/>
     <use xlink:href="#SegoeUI-69" x="53.125"/>
     <use xlink:href="#SegoeUI-20" x="77.34375"/>
     <use xlink:href="#SegoeUI-2113" x="104.736328"/>
     <use xlink:href="#SegoeUI-2081" x="137.060547"/>
     <use xlink:href="#SegoeUI-20" x="172.167969"/>
     <use xlink:href="#SegoeUI-2225" x="199.560547"/>
     <use xlink:href="#SegoeUI-20" x="264.111328"/>
     <use xlink:href="#SegoeUI-2113" x="291.503906"/>
     <use xlink:href="#SegoeUI-2082" x="323.828125"/>
     <use xlink:href="#SegoeUI-20" x="360.449219"/>
     <use xlink:href="#SegoeUI-2225" x="387.841797"/>
     <use xlink:href="#SegoeUI-20" x="452.392578"/>
     <use xlink:href="#SegoeUI-2113" x="479.785156"/>
     <use xlink:href="#SegoeUI-2083" x="512.109375"/>
     <use xlink:href="#SegoeUI-3a" x="548.730469"/>
    </g>
   </g>
   <g id="text_28">
    <!-- $\frac{a}{b} = \frac{a'}{b'}$ -->
    <g style="fill: #39c5bb" transform="translate(698.474666 401.434691) scale(0.14 -0.14)">
     <defs>
      <path id="DejaVuSans-Oblique-61" d="M 3438 1997 
L 3047 0 
L 2472 0 
L 2578 531 
Q 2325 219 2001 64 
Q 1678 -91 1281 -91 
Q 834 -91 548 182 
Q 263 456 263 884 
Q 263 1497 752 1853 
Q 1241 2209 2100 2209 
L 2900 2209 
L 2931 2363 
Q 2938 2388 2941 2417 
Q 2944 2447 2944 2509 
Q 2944 2788 2717 2942 
Q 2491 3097 2081 3097 
Q 1800 3097 1504 3025 
Q 1209 2953 897 2809 
L 997 3341 
Q 1322 3463 1633 3523 
Q 1944 3584 2234 3584 
Q 2853 3584 3176 3315 
Q 3500 3047 3500 2534 
Q 3500 2431 3484 2292 
Q 3469 2153 3438 1997 
z
M 2816 1759 
L 2241 1759 
Q 1534 1759 1195 1570 
Q 856 1381 856 984 
Q 856 709 1029 553 
Q 1203 397 1509 397 
Q 1978 397 2328 733 
Q 2678 1069 2791 1631 
L 2816 1759 
z
" transform="scale(0.015625)"/>
      <path id="DejaVuSans-Oblique-62" d="M 3169 2138 
Q 3169 2591 2961 2847 
Q 2753 3103 2388 3103 
Q 2122 3103 1889 2973 
Q 1656 2844 1484 2597 
Q 1303 2338 1198 1995 
Q 1094 1653 1094 1313 
Q 1094 881 1298 636 
Q 1503 391 1863 391 
Q 2134 391 2365 517 
Q 2597 644 2772 891 
Q 2950 1147 3059 1487 
Q 3169 1828 3169 2138 
z
M 1381 2969 
Q 1594 3256 1914 3420 
Q 2234 3584 2584 3584 
Q 3122 3584 3439 3221 
Q 3756 2859 3756 2241 
Q 3756 1734 3570 1259 
Q 3384 784 3041 416 
Q 2816 172 2522 40 
Q 2228 -91 1906 -91 
Q 1566 -91 1316 65 
Q 1066 222 909 531 
L 806 0 
L 231 0 
L 1178 4863 
L 1753 4863 
L 1381 2969 
z
" transform="scale(0.015625)"/>
      <path id="Cmsy10-30" d="M 225 347 
Q 184 359 184 409 
L 966 3316 
Q 1003 3434 1093 3506 
Q 1184 3578 1300 3578 
Q 1450 3578 1564 3479 
Q 1678 3381 1678 3231 
Q 1678 3166 1644 3084 
L 488 319 
Q 466 275 428 275 
Q 394 275 320 306 
Q 247 338 225 347 
z
" transform="scale(0.015625)"/>
     </defs>
     <use xlink:href="#DejaVuSans-Oblique-61" transform="translate(1 44.809063) scale(0.7)"/>
     <use xlink:href="#DejaVuSans-Oblique-62" transform="translate(0 -40.625312) scale(0.7)"/>
     <use xlink:href="#DejaVuSans-3d" transform="translate(76.416016 0.016875)"/>
     <use xlink:href="#DejaVuSans-Oblique-61" transform="translate(181.6875 44.809062) scale(0.7)"/>
     <use xlink:href="#Cmsy10-30" transform="translate(227.837935 71.605937) scale(0.49)"/>
     <use xlink:href="#DejaVuSans-Oblique-62" transform="translate(179.6875 -41.627187) scale(0.7)"/>
     <use xlink:href="#Cmsy10-30" transform="translate(229.33449 -14.830313) scale(0.49)"/>
     <path d="M 0 18.81375 
L 0 25.06375 
L 44.433594 25.06375 
L 44.433594 18.81375 
L 0 18.81375 
z
"/>
     <path d="M 179.6875 18.81375 
L 179.6875 25.06375 
L 244.718767 25.06375 
L 244.718767 18.81375 
L 179.6875 18.81375 
z
"/>
    </g>
   </g>
   <g id="text_29">
    <!-- Teorema de Tales General -->
    <g style="fill: #2c2f33" transform="translate(635.31178 35.668605) scale(0.12 -0.12)">
     <defs>
      <path id="SegoeUI-Bold-47" d="M 4191 300 
Q 3534 -78 2559 -78 
Q 1478 -78 854 520 
Q 231 1119 231 2169 
Q 231 3225 912 3890 
Q 1594 4556 2725 4556 
Q 3438 4556 3981 4359 
L 3981 3413 
Q 3463 3713 2713 3713 
Q 2084 3713 1689 3305 
Q 1294 2897 1294 2216 
Q 1294 1525 1648 1147 
Q 2003 769 2606 769 
Q 2969 769 3181 872 
L 3181 1747 
L 2284 1747 
L 2284 2553 
L 4191 2553 
L 4191 300 
z
" transform="scale(0.015625)"/>
     </defs>
     <use xlink:href="#SegoeUI-Bold-54"/>
     <use xlink:href="#SegoeUI-Bold-65" x="49.59375"/>
     <use xlink:href="#SegoeUI-Bold-6f" x="103.695312"/>
     <use xlink:href="#SegoeUI-Bold-72" x="164.828125"/>
     <use xlink:href="#SegoeUI-Bold-65" x="204.248047"/>
     <use xlink:href="#SegoeUI-Bold-6d" x="258.349609"/>
     <use xlink:href="#SegoeUI-Bold-61" x="349.951172"/>
     <use xlink:href="#SegoeUI-Bold-20" x="403.759766"/>
     <use xlink:href="#SegoeUI-Bold-64" x="431.347656"/>
     <use xlink:href="#SegoeUI-Bold-65" x="493.261719"/>
     <use xlink:href="#SegoeUI-Bold-20" x="547.363281"/>
     <use xlink:href="#SegoeUI-Bold-54" x="574.951172"/>
     <use xlink:href="#SegoeUI-Bold-61" x="625.044922"/>
     <use xlink:href="#SegoeUI-Bold-6c" x="678.853516"/>
     <use xlink:href="#SegoeUI-Bold-65" x="707.271484"/>
     <use xlink:href="#SegoeUI-Bold-73" x="761.373047"/>
     <use xlink:href="#SegoeUI-Bold-20" x="805.367188"/>
     <use xlink:href="#SegoeUI-Bold-47" x="832.955078"/>
     <use xlink:href="#SegoeUI-Bold-65" x="904.048828"/>
     <use xlink:href="#SegoeUI-Bold-6e" x="958.150391"/>
     <use xlink:href="#SegoeUI-Bold-65" x="1018.648438"/>
     <use xlink:href="#SegoeUI-Bold-72" x="1072.75"/>
     <use xlink:href="#SegoeUI-Bold-61" x="1112.544922"/>
     <use xlink:href="#SegoeUI-Bold-6c" x="1166.353516"/>
    </g>
   </g>
  </g>
  <g id="text_30">
   <!-- Teorema de Tales -->
   <g style="fill: #2c2f33" transform="translate(397.603619 17.564375) scale(0.14 -0.14)">
    <use xlink:href="#SegoeUI-Bold-54"/>
    <use xlink:href="#SegoeUI-Bold-65" x="49.59375"/>
    <use xlink:href="#SegoeUI-Bold-6f" x="103.695312"/>
    <use xlink:href="#SegoeUI-Bold-72" x="164.828125"/>
    <use xlink:href="#SegoeUI-Bold-65" x="204.248047"/>
    <use xlink:href="#SegoeUI-Bold-6d" x="258.349609"/>
    <use xlink:href="#SegoeUI-Bold-61" x="349.951172"/>
    <use xlink:href="#SegoeUI-Bold-20" x="403.759766"/>
    <use xlink:href="#SegoeUI-Bold-64" x="431.347656"/>
    <use xlink:href="#SegoeUI-Bold-65" x="493.261719"/>
    <use xlink:href="#SegoeUI-Bold-20" x="547.363281"/>
    <use xlink:href="#SegoeUI-Bold-54" x="574.951172"/>
    <use xlink:href="#SegoeUI-Bold-61" x="625.044922"/>
    <use xlink:href="#SegoeUI-Bold-6c" x="678.853516"/>
    <use xlink:href="#SegoeUI-Bold-65" x="707.271484"/>
    <use xlink:href="#SegoeUI-Bold-73" x="761.373047"/>
   </g>
  </g>
 </g>
 <defs>
  <clipPath id="pfc3e9d81b4">
   <rect x="7.2" y="45.668605" width="387.530915" height="387.530915"/>
  </clipPath>
  <clipPath id="pc466b607f1">
   <rect x="535.47514" y="45.668605" width="343.060154" height="387.530915"/>
  </clipPath>
 </defs>
</svg>
