<?xml version="1.0" encoding="utf-8" standalone="no"?>
<!DOCTYPE svg PUBLIC "-//W3C//DTD SVG 1.1//EN"
  "http://www.w3.org/Graphics/SVG/1.1/DTD/svg11.dtd">
<svg xmlns:xlink="http://www.w3.org/1999/xlink" width="800.39952pt" height="360.210333pt" viewBox="0 0 800.39952 360.210333" xmlns="http://www.w3.org/2000/svg" version="1.1">
 <metadata>
  <rdf:RDF xmlns:dc="http://purl.org/dc/elements/1.1/" xmlns:cc="http://creativecommons.org/ns#" xmlns:rdf="http://www.w3.org/1999/02/22-rdf-syntax-ns#">
   <cc:Work>
    <dc:type rdf:resource="http://purl.org/dc/dcmitype/StillImage"/>
    <dc:date>2026-04-11T16:11:42.216383</dc:date>
    <dc:format>image/svg+xml</dc:format>
    <dc:creator>
     <cc:Agent>
      <dc:title>Matplotlib v3.8.4, https://matplotlib.org/</dc:title>
     </cc:Agent>
    </dc:creator>
   </cc:Work>
  </rdf:RDF>
 </metadata>
 <defs>
  <style type="text/css">*{stroke-linejoin: round; stroke-linecap: butt}</style>
 </defs>
 <g id="figure_1">
  <g id="patch_1">
   <path d="M 0 360.210333 
L 800.39952 360.210333 
L 800.39952 0 
L 0 0 
z
" style="fill: #ffffff"/>
  </g>
  <g id="axes_1">
   <g id="patch_2">
    <path d="M 67.661502 244.17963 
L 430.430511 244.17963 
L 369.969009 93.025877 
L 158.353754 93.025877 
z
" clip-path="url(#pa9df347494)" style="fill: #39c5bb; opacity: 0.2; stroke: #39c5bb; stroke-width: 2.5; stroke-linejoin: miter"/>
   </g>
   <g id="line2d_1">
    <path d="M 67.661502 244.17963 
L 430.430511 244.17963 
" clip-path="url(#pa9df347494)" style="fill: none; stroke: #e12885; stroke-width: 3; stroke-linecap: square"/>
   </g>
   <g id="line2d_2">
    <path d="M 158.353754 93.025877 
L 369.969009 93.025877 
" clip-path="url(#pa9df347494)" style="fill: none; stroke: #1f2937; stroke-width: 3; stroke-linecap: square"/>
   </g>
   <g id="line2d_3">
    <path d="M 249.046006 244.17963 
L 249.046006 93.025877 
" clip-path="url(#pa9df347494)" style="fill: none; stroke-dasharray: 7.4,3.2; stroke-dashoffset: 0; stroke: #4b5563; stroke-width: 2"/>
   </g>
   <g id="line2d_4">
    <path d="M 239.976781 244.17963 
L 239.976781 235.110405 
L 249.046006 235.110405 
" clip-path="url(#pa9df347494)" style="fill: none; stroke: #4b5563; stroke-width: 1.5; stroke-linecap: square"/>
   </g>
   <g id="line2d_5">
    <path d="M 113.007628 168.602753 
L 400.19976 168.602753 
" clip-path="url(#pa9df347494)" style="fill: none; stroke-dasharray: 16,4,2.5,4; stroke-dashoffset: 0; stroke: #f59e0b; stroke-width: 2.5"/>
   </g>
   <g id="line2d_6">
    <defs>
     <path id="m6dee4403ca" d="M 0 3 
C 0.795609 3 1.55874 2.683901 2.12132 2.12132 
C 2.683901 1.55874 3 0.795609 3 0 
C 3 -0.795609 2.683901 -1.55874 2.12132 -2.12132 
C 1.55874 -2.683901 0.795609 -3 0 -3 
C -0.795609 -3 -1.55874 -2.683901 -2.12132 -2.12132 
C -2.683901 -1.55874 -3 -0.795609 -3 0 
C -3 0.795609 -2.683901 1.55874 -2.12132 2.12132 
C -1.55874 2.683901 -0.795609 3 0 3 
z
" style="stroke: #f59e0b"/>
    </defs>
    <g clip-path="url(#pa9df347494)">
     <use xlink:href="#m6dee4403ca" x="113.007628" y="168.602753" style="fill: #f59e0b; stroke: #f59e0b"/>
    </g>
   </g>
   <g id="line2d_7">
    <g clip-path="url(#pa9df347494)">
     <use xlink:href="#m6dee4403ca" x="400.19976" y="168.602753" style="fill: #f59e0b; stroke: #f59e0b"/>
    </g>
   </g>
   <g id="line2d_8">
    <defs>
     <path id="m8731e5539c" d="M 0 3.5 
C 0.928211 3.5 1.81853 3.131218 2.474874 2.474874 
C 3.131218 1.81853 3.5 0.928211 3.5 0 
C 3.5 -0.928211 3.131218 -1.81853 2.474874 -2.474874 
C 1.81853 -3.131218 0.928211 -3.5 0 -3.5 
C -0.928211 -3.5 -1.81853 -3.131218 -2.474874 -2.474874 
C -3.131218 -1.81853 -3.5 -0.928211 -3.5 0 
C -3.5 0.928211 -3.131218 1.81853 -2.474874 2.474874 
C -1.81853 3.131218 -0.928211 3.5 0 3.5 
z
" style="stroke: #39c5bb"/>
    </defs>
    <g clip-path="url(#pa9df347494)">
     <use xlink:href="#m8731e5539c" x="67.661502" y="244.17963" style="fill: #39c5bb; stroke: #39c5bb"/>
    </g>
   </g>
   <g id="line2d_9">
    <g clip-path="url(#pa9df347494)">
     <use xlink:href="#m8731e5539c" x="430.430511" y="244.17963" style="fill: #39c5bb; stroke: #39c5bb"/>
    </g>
   </g>
   <g id="line2d_10">
    <g clip-path="url(#pa9df347494)">
     <use xlink:href="#m8731e5539c" x="369.969009" y="93.025877" style="fill: #39c5bb; stroke: #39c5bb"/>
    </g>
   </g>
   <g id="line2d_11">
    <g clip-path="url(#pa9df347494)">
     <use xlink:href="#m8731e5539c" x="158.353754" y="93.025877" style="fill: #39c5bb; stroke: #39c5bb"/>
    </g>
   </g>
   <g id="line2d_12">
    <path d="M 67.661502 244.17963 
L 369.969009 93.025877 
" clip-path="url(#pa9df347494)" style="fill: none; stroke-dasharray: 1.5,2.475; stroke-dashoffset: 0; stroke: #9ca3af; stroke-opacity: 0.7; stroke-width: 1.5"/>
   </g>
   <g id="line2d_13">
    <path d="M 430.430511 244.17963 
L 158.353754 93.025877 
" clip-path="url(#pa9df347494)" style="fill: none; stroke-dasharray: 1.5,2.475; stroke-dashoffset: 0; stroke: #9ca3af; stroke-opacity: 0.7; stroke-width: 1.5"/>
   </g>
   <g id="text_1">
    <!-- B (base mayor) -->
    <g style="fill: #e12885" transform="translate(210.257256 268.364231) scale(0.11 -0.11)">
     <defs>
      <path id="SegoeUI-Bold-42" d="M 513 0 
L 513 4481 
L 2144 4481 
Q 2894 4481 3297 4206 
Q 3700 3931 3700 3431 
Q 3700 3069 3454 2797 
Q 3209 2525 2828 2419 
L 2828 2406 
Q 3306 2347 3592 2053 
Q 3878 1759 3878 1338 
Q 3878 722 3437 361 
Q 2997 0 2234 0 
L 513 0 
z
M 1522 3738 
L 1522 2675 
L 1966 2675 
Q 2278 2675 2458 2826 
Q 2638 2978 2638 3244 
Q 2638 3738 1900 3738 
L 1522 3738 
z
M 1522 1925 
L 1522 744 
L 2069 744 
Q 2419 744 2617 906 
Q 2816 1069 2816 1350 
Q 2816 1619 2620 1772 
Q 2425 1925 2075 1925 
L 1522 1925 
z
" transform="scale(0.015625)"/>
      <path id="SegoeUI-Bold-20" transform="scale(0.015625)"/>
      <path id="SegoeUI-Bold-28" d="M 2309 -1019 
L 1503 -1019 
Q 494 94 494 1716 
Q 494 3281 1503 4481 
L 2303 4481 
Q 1356 3225 1356 1716 
Q 1356 206 2309 -1019 
z
" transform="scale(0.015625)"/>
      <path id="SegoeUI-Bold-62" d="M 1416 372 
L 1403 372 
L 1403 0 
L 416 0 
L 416 4738 
L 1403 4738 
L 1403 2719 
L 1416 2719 
Q 1781 3278 2456 3278 
Q 3075 3278 3409 2853 
Q 3744 2428 3744 1691 
Q 3744 891 3353 406 
Q 2963 -78 2309 -78 
Q 1719 -78 1416 372 
z
M 1388 1722 
L 1388 1394 
Q 1388 1084 1566 881 
Q 1744 678 2022 678 
Q 2359 678 2545 939 
Q 2731 1200 2731 1678 
Q 2731 2075 2561 2298 
Q 2391 2522 2075 2522 
Q 1778 2522 1583 2300 
Q 1388 2078 1388 1722 
z
" transform="scale(0.015625)"/>
      <path id="SegoeUI-Bold-61" d="M 3078 0 
L 2144 0 
L 2144 459 
L 2131 459 
Q 1809 -78 1178 -78 
Q 713 -78 445 186 
Q 178 450 178 891 
Q 178 1822 1281 1966 
L 2150 2081 
Q 2150 2606 1581 2606 
Q 1009 2606 494 2266 
L 494 3009 
Q 700 3116 1058 3197 
Q 1416 3278 1709 3278 
Q 3078 3278 3078 1913 
L 3078 0 
z
M 2150 1300 
L 2150 1516 
L 1569 1441 
Q 1088 1378 1088 1006 
Q 1088 838 1205 730 
Q 1322 622 1522 622 
Q 1800 622 1975 814 
Q 2150 1006 2150 1300 
z
" transform="scale(0.015625)"/>
      <path id="SegoeUI-Bold-73" d="M 206 84 
L 206 884 
Q 450 738 692 666 
Q 934 594 1150 594 
Q 1413 594 1564 666 
Q 1716 738 1716 884 
Q 1716 978 1647 1040 
Q 1578 1103 1470 1150 
Q 1363 1197 1234 1234 
Q 1106 1272 988 1319 
Q 797 1391 651 1473 
Q 506 1556 407 1665 
Q 309 1775 257 1919 
Q 206 2063 206 2259 
Q 206 2528 323 2722 
Q 441 2916 636 3039 
Q 831 3163 1082 3220 
Q 1334 3278 1606 3278 
Q 1819 3278 2037 3245 
Q 2256 3213 2469 3150 
L 2469 2388 
Q 2281 2497 2067 2551 
Q 1853 2606 1647 2606 
Q 1550 2606 1464 2589 
Q 1378 2572 1312 2539 
Q 1247 2506 1209 2454 
Q 1172 2403 1172 2338 
Q 1172 2250 1228 2187 
Q 1284 2125 1375 2079 
Q 1466 2034 1577 1998 
Q 1688 1963 1797 1925 
Q 1994 1856 2153 1775 
Q 2313 1694 2427 1584 
Q 2541 1475 2602 1328 
Q 2663 1181 2663 978 
Q 2663 694 2539 492 
Q 2416 291 2211 164 
Q 2006 38 1739 -20 
Q 1472 -78 1184 -78 
Q 656 -78 206 84 
z
" transform="scale(0.015625)"/>
      <path id="SegoeUI-Bold-65" d="M 3291 1319 
L 1203 1319 
Q 1253 622 2081 622 
Q 2609 622 3009 872 
L 3009 159 
Q 2566 -78 1856 -78 
Q 1081 -78 653 351 
Q 225 781 225 1550 
Q 225 2347 687 2812 
Q 1150 3278 1825 3278 
Q 2525 3278 2908 2862 
Q 3291 2447 3291 1734 
L 3291 1319 
z
M 2375 1925 
Q 2375 2613 1819 2613 
Q 1581 2613 1407 2416 
Q 1234 2219 1197 1925 
L 2375 1925 
z
" transform="scale(0.015625)"/>
      <path id="SegoeUI-Bold-6d" d="M 5497 0 
L 4513 0 
L 4513 1825 
Q 4513 2522 4000 2522 
Q 3756 2522 3603 2312 
Q 3450 2103 3450 1791 
L 3450 0 
L 2463 0 
L 2463 1844 
Q 2463 2522 1959 2522 
Q 1706 2522 1554 2322 
Q 1403 2122 1403 1778 
L 1403 0 
L 416 0 
L 416 3200 
L 1403 3200 
L 1403 2700 
L 1416 2700 
Q 1569 2956 1845 3117 
Q 2122 3278 2450 3278 
Q 3128 3278 3378 2681 
Q 3744 3278 4453 3278 
Q 5497 3278 5497 1991 
L 5497 0 
z
" transform="scale(0.015625)"/>
      <path id="SegoeUI-Bold-79" d="M 3463 3200 
L 2163 -256 
Q 1694 -1503 750 -1503 
Q 391 -1503 159 -1422 
L 159 -634 
Q 356 -750 588 -750 
Q 969 -750 1119 -391 
L 1288 6 
L -13 3200 
L 1081 3200 
L 1678 1253 
Q 1734 1072 1766 825 
L 1778 825 
Q 1806 1006 1881 1247 
L 2484 3200 
L 3463 3200 
z
" transform="scale(0.015625)"/>
      <path id="SegoeUI-Bold-6f" d="M 1941 -78 
Q 1141 -78 683 370 
Q 225 819 225 1588 
Q 225 2381 700 2829 
Q 1175 3278 1984 3278 
Q 2781 3278 3234 2829 
Q 3688 2381 3688 1644 
Q 3688 847 3220 384 
Q 2753 -78 1941 -78 
z
M 1966 2522 
Q 1616 2522 1422 2281 
Q 1228 2041 1228 1600 
Q 1228 678 1972 678 
Q 2681 678 2681 1625 
Q 2681 2522 1966 2522 
z
" transform="scale(0.015625)"/>
      <path id="SegoeUI-Bold-72" d="M 2503 2309 
Q 2325 2406 2088 2406 
Q 1766 2406 1584 2170 
Q 1403 1934 1403 1528 
L 1403 0 
L 416 0 
L 416 3200 
L 1403 3200 
L 1403 2606 
L 1416 2606 
Q 1650 3256 2259 3256 
Q 2416 3256 2503 3219 
L 2503 2309 
z
" transform="scale(0.015625)"/>
      <path id="SegoeUI-Bold-29" d="M 856 -1019 
L 56 -1019 
Q 1013 200 1013 1716 
Q 1013 3219 56 4481 
L 863 4481 
Q 1875 3278 1875 1716 
Q 1875 106 856 -1019 
z
" transform="scale(0.015625)"/>
     </defs>
     <use xlink:href="#SegoeUI-Bold-42"/>
     <use xlink:href="#SegoeUI-Bold-20" x="64.111328"/>
     <use xlink:href="#SegoeUI-Bold-28" x="91.699219"/>
     <use xlink:href="#SegoeUI-Bold-62" x="128.613281"/>
     <use xlink:href="#SegoeUI-Bold-61" x="189.625"/>
     <use xlink:href="#SegoeUI-Bold-73" x="243.433594"/>
     <use xlink:href="#SegoeUI-Bold-65" x="287.427734"/>
     <use xlink:href="#SegoeUI-Bold-20" x="341.529297"/>
     <use xlink:href="#SegoeUI-Bold-6d" x="369.117188"/>
     <use xlink:href="#SegoeUI-Bold-61" x="460.71875"/>
     <use xlink:href="#SegoeUI-Bold-79" x="514.527344"/>
     <use xlink:href="#SegoeUI-Bold-6f" x="567.335938"/>
     <use xlink:href="#SegoeUI-Bold-72" x="628.46875"/>
     <use xlink:href="#SegoeUI-Bold-29" x="668.263672"/>
    </g>
   </g>
   <g id="text_2">
    <!-- b (base menor) -->
    <g style="fill: #1f2937" transform="translate(225.048647 74.887426) scale(0.11 -0.11)">
     <defs>
      <path id="SegoeUI-Bold-6e" d="M 3506 0 
L 2522 0 
L 2522 1778 
Q 2522 2522 1991 2522 
Q 1734 2522 1568 2325 
Q 1403 2128 1403 1825 
L 1403 0 
L 416 0 
L 416 3200 
L 1403 3200 
L 1403 2694 
L 1416 2694 
Q 1769 3278 2444 3278 
Q 3506 3278 3506 1959 
L 3506 0 
z
" transform="scale(0.015625)"/>
     </defs>
     <use xlink:href="#SegoeUI-Bold-62"/>
     <use xlink:href="#SegoeUI-Bold-20" x="62.011719"/>
     <use xlink:href="#SegoeUI-Bold-28" x="89.599609"/>
     <use xlink:href="#SegoeUI-Bold-62" x="126.513672"/>
     <use xlink:href="#SegoeUI-Bold-61" x="187.525391"/>
     <use xlink:href="#SegoeUI-Bold-73" x="241.333984"/>
     <use xlink:href="#SegoeUI-Bold-65" x="285.328125"/>
     <use xlink:href="#SegoeUI-Bold-20" x="339.429688"/>
     <use xlink:href="#SegoeUI-Bold-6d" x="367.017578"/>
     <use xlink:href="#SegoeUI-Bold-65" x="458.619141"/>
     <use xlink:href="#SegoeUI-Bold-6e" x="512.720703"/>
     <use xlink:href="#SegoeUI-Bold-6f" x="573.21875"/>
     <use xlink:href="#SegoeUI-Bold-72" x="634.351562"/>
     <use xlink:href="#SegoeUI-Bold-29" x="674.146484"/>
    </g>
   </g>
   <g id="text_3">
    <g id="patch_3">
     <path d="M 261.138306 172.562753 
L 268.362681 172.562753 
Q 269.562681 172.562753 269.562681 171.362753 
L 269.562681 159.719003 
Q 269.562681 158.519003 268.362681 158.519003 
L 261.138306 158.519003 
Q 259.938306 158.519003 259.938306 159.719003 
L 259.938306 171.362753 
Q 259.938306 172.562753 261.138306 172.562753 
z
" style="fill: #ffffff; opacity: 0.8"/>
    </g>
    <!-- h -->
    <g style="fill: #4b5563" transform="translate(261.138306 168.602753) scale(0.12 -0.12)">
     <defs>
      <path id="SegoeUI-Bold-68" d="M 3488 0 
L 2503 0 
L 2503 1819 
Q 2503 2522 1991 2522 
Q 1728 2522 1565 2325 
Q 1403 2128 1403 1825 
L 1403 0 
L 416 0 
L 416 4738 
L 1403 4738 
L 1403 2725 
L 1416 2725 
Q 1778 3278 2400 3278 
Q 3488 3278 3488 1966 
L 3488 0 
z
" transform="scale(0.015625)"/>
     </defs>
     <use xlink:href="#SegoeUI-Bold-68"/>
    </g>
   </g>
   <g id="text_4">
    <!-- m (mediana) -->
    <g style="fill: #f59e0b" transform="translate(274.742144 156.510453) scale(0.1 -0.1)">
     <defs>
      <path id="SegoeUI-Bold-64" d="M 3547 0 
L 2559 0 
L 2559 441 
L 2547 441 
Q 2209 -78 1556 -78 
Q 956 -78 590 345 
Q 225 769 225 1528 
Q 225 2322 628 2800 
Q 1031 3278 1684 3278 
Q 2303 3278 2547 2834 
L 2559 2834 
L 2559 4738 
L 3547 4738 
L 3547 0 
z
M 2578 1556 
L 2578 1797 
Q 2578 2109 2397 2315 
Q 2216 2522 1925 2522 
Q 1597 2522 1412 2264 
Q 1228 2006 1228 1556 
Q 1228 1134 1406 906 
Q 1584 678 1900 678 
Q 2200 678 2389 918 
Q 2578 1159 2578 1556 
z
" transform="scale(0.015625)"/>
      <path id="SegoeUI-Bold-69" d="M 916 3706 
Q 666 3706 506 3854 
Q 347 4003 347 4219 
Q 347 4441 506 4581 
Q 666 4722 916 4722 
Q 1169 4722 1326 4581 
Q 1484 4441 1484 4219 
Q 1484 3994 1326 3850 
Q 1169 3706 916 3706 
z
M 1403 0 
L 416 0 
L 416 3200 
L 1403 3200 
L 1403 0 
z
" transform="scale(0.015625)"/>
     </defs>
     <use xlink:href="#SegoeUI-Bold-6d"/>
     <use xlink:href="#SegoeUI-Bold-20" x="91.601562"/>
     <use xlink:href="#SegoeUI-Bold-28" x="119.189453"/>
     <use xlink:href="#SegoeUI-Bold-6d" x="156.103516"/>
     <use xlink:href="#SegoeUI-Bold-65" x="247.705078"/>
     <use xlink:href="#SegoeUI-Bold-64" x="301.806641"/>
     <use xlink:href="#SegoeUI-Bold-69" x="363.720703"/>
     <use xlink:href="#SegoeUI-Bold-61" x="392.138672"/>
     <use xlink:href="#SegoeUI-Bold-6e" x="445.947266"/>
     <use xlink:href="#SegoeUI-Bold-61" x="506.445312"/>
     <use xlink:href="#SegoeUI-Bold-29" x="560.253906"/>
    </g>
   </g>
   <g id="text_5">
    <g id="patch_4">
     <path d="M 49.523051 259.901931 
L 57.257426 259.901931 
Q 58.357426 259.901931 58.357426 258.801931 
L 58.357426 248.128493 
Q 58.357426 247.028493 57.257426 247.028493 
L 49.523051 247.028493 
Q 48.423051 247.028493 48.423051 248.128493 
L 48.423051 258.801931 
Q 48.423051 259.901931 49.523051 259.901931 
z
" style="fill: #ffffff; opacity: 0.8"/>
    </g>
    <!-- A -->
    <g style="fill: #2c2f33" transform="translate(49.523051 256.271931) scale(0.11 -0.11)">
     <defs>
      <path id="SegoeUI-Bold-41" d="M 4453 0 
L 3353 0 
L 3034 997 
L 1441 997 
L 1125 0 
L 31 0 
L 1663 4481 
L 2859 4481 
L 4453 0 
z
M 2803 1772 
L 2322 3278 
Q 2269 3447 2247 3681 
L 2222 3681 
Q 2206 3484 2144 3291 
L 1656 1772 
L 2803 1772 
z
" transform="scale(0.015625)"/>
     </defs>
     <use xlink:href="#SegoeUI-Bold-41"/>
    </g>
   </g>
   <g id="text_6">
    <g id="patch_5">
     <path d="M 442.522811 259.901931 
L 449.574842 259.901931 
Q 450.674842 259.901931 450.674842 258.801931 
L 450.674842 248.128493 
Q 450.674842 247.028493 449.574842 247.028493 
L 442.522811 247.028493 
Q 441.422811 247.028493 441.422811 248.128493 
L 441.422811 258.801931 
Q 441.422811 259.901931 442.522811 259.901931 
z
" style="fill: #ffffff; opacity: 0.8"/>
    </g>
    <!-- B -->
    <g style="fill: #2c2f33" transform="translate(442.522811 256.271931) scale(0.11 -0.11)">
     <use xlink:href="#SegoeUI-Bold-42"/>
    </g>
   </g>
   <g id="text_7">
    <g id="patch_6">
     <path d="M 382.06131 90.609726 
L 388.925997 90.609726 
Q 390.025997 90.609726 390.025997 89.509726 
L 390.025997 78.836289 
Q 390.025997 77.736289 388.925997 77.736289 
L 382.06131 77.736289 
Q 380.96131 77.736289 380.96131 78.836289 
L 380.96131 89.509726 
Q 380.96131 90.609726 382.06131 90.609726 
z
" style="fill: #ffffff; opacity: 0.8"/>
    </g>
    <!-- C -->
    <g style="fill: #2c2f33" transform="translate(382.06131 86.979726) scale(0.11 -0.11)">
     <defs>
      <path id="SegoeUI-Bold-43" d="M 3725 159 
Q 3234 -78 2444 -78 
Q 1413 -78 822 528 
Q 231 1134 231 2144 
Q 231 3219 895 3887 
Q 1559 4556 2619 4556 
Q 3275 4556 3725 4391 
L 3725 3419 
Q 3275 3688 2700 3688 
Q 2069 3688 1681 3291 
Q 1294 2894 1294 2216 
Q 1294 1566 1659 1180 
Q 2025 794 2644 794 
Q 3234 794 3725 1081 
L 3725 159 
z
" transform="scale(0.015625)"/>
     </defs>
     <use xlink:href="#SegoeUI-Bold-43"/>
    </g>
   </g>
   <g id="text_8">
    <g id="patch_7">
     <path d="M 140.215303 90.609726 
L 148.326085 90.609726 
Q 149.426085 90.609726 149.426085 89.509726 
L 149.426085 78.836289 
Q 149.426085 77.736289 148.326085 77.736289 
L 140.215303 77.736289 
Q 139.115303 77.736289 139.115303 78.836289 
L 139.115303 89.509726 
Q 139.115303 90.609726 140.215303 90.609726 
z
" style="fill: #ffffff; opacity: 0.8"/>
    </g>
    <!-- D -->
    <g style="fill: #2c2f33" transform="translate(140.215303 86.979726) scale(0.11 -0.11)">
     <defs>
      <path id="SegoeUI-Bold-44" d="M 513 0 
L 513 4481 
L 2100 4481 
Q 4488 4481 4488 2297 
Q 4488 1250 3836 625 
Q 3184 0 2100 0 
L 513 0 
z
M 1522 3659 
L 1522 819 
L 2022 819 
Q 2678 819 3051 1212 
Q 3425 1606 3425 2284 
Q 3425 2925 3054 3292 
Q 2684 3659 2016 3659 
L 1522 3659 
z
" transform="scale(0.015625)"/>
     </defs>
     <use xlink:href="#SegoeUI-Bold-44"/>
    </g>
   </g>
   <g id="text_9">
    <!-- ∥ -->
    <g style="fill: #6b7280" transform="translate(108.256627 171.822753) rotate(-90) scale(0.14 -0.14)">
     <defs>
      <path id="SegoeUI-2225" d="M 519 0 
L 519 4369 
L 3613 4369 
L 3613 0 
L 519 0 
z
M 981 463 
L 3150 463 
L 3150 3906 
L 981 3906 
L 981 463 
z
" transform="scale(0.015625)"/>
     </defs>
     <use xlink:href="#SegoeUI-2225"/>
    </g>
   </g>
   <g id="text_10">
    <!-- FÓRMULAS -->
    <g style="fill: #374151" transform="translate(521.122763 105.118177) scale(0.11 -0.11)">
     <defs>
      <path id="SegoeUI-Bold-46" d="M 3103 3659 
L 1522 3659 
L 1522 2559 
L 2975 2559 
L 2975 1741 
L 1522 1741 
L 1522 0 
L 513 0 
L 513 4481 
L 3103 4481 
L 3103 3659 
z
" transform="scale(0.015625)"/>
      <path id="SegoeUI-Bold-d3" d="M 2406 -78 
Q 1444 -78 837 548 
Q 231 1175 231 2181 
Q 231 3244 847 3900 
Q 1463 4556 2478 4556 
Q 3438 4556 4030 3928 
Q 4622 3300 4622 2272 
Q 4622 1216 4008 569 
Q 3394 -78 2406 -78 
z
M 2450 3688 
Q 1919 3688 1606 3289 
Q 1294 2891 1294 2234 
Q 1294 1569 1606 1181 
Q 1919 794 2425 794 
Q 2947 794 3253 1170 
Q 3559 1547 3559 2216 
Q 3559 2913 3262 3300 
Q 2966 3688 2450 3688 
z
M 3471 5932 
L 2492 4922 
L 1780 4922 
L 2592 5932 
L 3471 5932 
z
" transform="scale(0.015625)"/>
      <path id="SegoeUI-Bold-52" d="M 4272 0 
L 3113 0 
L 2416 1153 
Q 2338 1284 2266 1387 
Q 2194 1491 2120 1564 
Q 2047 1638 1967 1677 
Q 1888 1716 1794 1716 
L 1522 1716 
L 1522 0 
L 513 0 
L 513 4481 
L 2113 4481 
Q 3744 4481 3744 3263 
Q 3744 3028 3672 2829 
Q 3600 2631 3469 2472 
Q 3338 2313 3152 2197 
Q 2966 2081 2738 2016 
L 2738 2003 
Q 2838 1972 2931 1901 
Q 3025 1831 3112 1737 
Q 3200 1644 3279 1536 
Q 3359 1428 3425 1325 
L 4272 0 
z
M 1522 3725 
L 1522 2478 
L 1959 2478 
Q 2284 2478 2481 2666 
Q 2681 2856 2681 3138 
Q 2681 3725 1978 3725 
L 1522 3725 
z
" transform="scale(0.015625)"/>
      <path id="SegoeUI-Bold-4d" d="M 5619 0 
L 4622 0 
L 4622 2681 
Q 4622 3116 4659 3641 
L 4634 3641 
Q 4556 3228 4494 3047 
L 3444 0 
L 2619 0 
L 1550 3016 
Q 1506 3138 1409 3641 
L 1381 3641 
Q 1422 2978 1422 2478 
L 1422 0 
L 513 0 
L 513 4481 
L 1991 4481 
L 2906 1825 
Q 3016 1506 3066 1184 
L 3084 1184 
Q 3169 1556 3263 1831 
L 4178 4481 
L 5619 4481 
L 5619 0 
z
" transform="scale(0.015625)"/>
      <path id="SegoeUI-Bold-55" d="M 4166 1941 
Q 4166 -78 2284 -78 
Q 459 -78 459 1894 
L 459 4481 
L 1472 4481 
L 1472 1881 
Q 1472 794 2322 794 
Q 3156 794 3156 1844 
L 3156 4481 
L 4166 4481 
L 4166 1941 
z
" transform="scale(0.015625)"/>
      <path id="SegoeUI-Bold-4c" d="M 3181 0 
L 513 0 
L 513 4481 
L 1522 4481 
L 1522 819 
L 3181 819 
L 3181 0 
z
" transform="scale(0.015625)"/>
      <path id="SegoeUI-Bold-53" d="M 306 172 
L 306 1172 
Q 578 944 897 830 
Q 1216 716 1541 716 
Q 1731 716 1873 750 
Q 2016 784 2111 845 
Q 2206 906 2253 989 
Q 2300 1072 2300 1169 
Q 2300 1300 2225 1403 
Q 2150 1506 2020 1593 
Q 1891 1681 1712 1762 
Q 1534 1844 1328 1928 
Q 803 2147 545 2462 
Q 288 2778 288 3225 
Q 288 3575 428 3826 
Q 569 4078 811 4240 
Q 1053 4403 1372 4479 
Q 1691 4556 2047 4556 
Q 2397 4556 2667 4514 
Q 2938 4472 3166 4384 
L 3166 3450 
Q 3053 3528 2920 3587 
Q 2788 3647 2647 3686 
Q 2506 3725 2367 3744 
Q 2228 3763 2103 3763 
Q 1931 3763 1790 3730 
Q 1650 3697 1553 3637 
Q 1456 3578 1403 3495 
Q 1350 3413 1350 3309 
Q 1350 3197 1409 3108 
Q 1469 3019 1578 2939 
Q 1688 2859 1844 2782 
Q 2000 2706 2197 2625 
Q 2466 2513 2680 2386 
Q 2894 2259 3047 2100 
Q 3200 1941 3281 1736 
Q 3363 1531 3363 1259 
Q 3363 884 3220 629 
Q 3078 375 2834 217 
Q 2591 59 2267 -9 
Q 1944 -78 1584 -78 
Q 1216 -78 883 -15 
Q 550 47 306 172 
z
" transform="scale(0.015625)"/>
     </defs>
     <use xlink:href="#SegoeUI-Bold-46"/>
     <use xlink:href="#SegoeUI-Bold-d3" x="52.001953"/>
     <use xlink:href="#SegoeUI-Bold-52" x="127.783203"/>
     <use xlink:href="#SegoeUI-Bold-4d" x="193.066406"/>
     <use xlink:href="#SegoeUI-Bold-55" x="288.769531"/>
     <use xlink:href="#SegoeUI-Bold-4c" x="361.083984"/>
     <use xlink:href="#SegoeUI-Bold-41" x="414.457031"/>
     <use xlink:href="#SegoeUI-Bold-53" x="484.769531"/>
    </g>
   </g>
   <g id="text_11">
    <!-- Área: -->
    <g style="fill: #374151" transform="translate(521.122763 135.348928) scale(0.1 -0.1)">
     <defs>
      <path id="SegoeUI-c1" d="M 4056 0 
L 3475 0 
L 3000 1256 
L 1100 1256 
L 653 0 
L 69 0 
L 1788 4481 
L 2331 4481 
L 4056 0 
z
M 2828 1728 
L 2125 3638 
Q 2091 3731 2056 3938 
L 2044 3938 
Q 2013 3747 1972 3638 
L 1275 1728 
L 2828 1728 
z
M 2710 5919 
L 1891 4894 
L 1494 4894 
L 2191 5919 
L 2710 5919 
z
" transform="scale(0.015625)"/>
      <path id="SegoeUI-72" d="M 2188 2681 
Q 2053 2784 1800 2784 
Q 1472 2784 1251 2475 
Q 1031 2166 1031 1631 
L 1031 0 
L 519 0 
L 519 3200 
L 1031 3200 
L 1031 2541 
L 1044 2541 
Q 1153 2878 1378 3067 
Q 1603 3256 1881 3256 
Q 2081 3256 2188 3213 
L 2188 2681 
z
" transform="scale(0.015625)"/>
      <path id="SegoeUI-65" d="M 3091 1472 
L 831 1472 
Q 844 938 1119 647 
Q 1394 356 1875 356 
Q 2416 356 2869 713 
L 2869 231 
Q 2447 -75 1753 -75 
Q 1075 -75 687 361 
Q 300 797 300 1588 
Q 300 2334 723 2804 
Q 1147 3275 1775 3275 
Q 2403 3275 2747 2869 
Q 3091 2463 3091 1741 
L 3091 1472 
z
M 2566 1906 
Q 2563 2350 2352 2597 
Q 2141 2844 1766 2844 
Q 1403 2844 1150 2584 
Q 897 2325 838 1906 
L 2566 1906 
z
" transform="scale(0.015625)"/>
      <path id="SegoeUI-61" d="M 2809 0 
L 2297 0 
L 2297 500 
L 2284 500 
Q 1950 -75 1300 -75 
Q 822 -75 551 178 
Q 281 431 281 850 
Q 281 1747 1338 1894 
L 2297 2028 
Q 2297 2844 1638 2844 
Q 1059 2844 594 2450 
L 594 2975 
Q 1066 3275 1681 3275 
Q 2809 3275 2809 2081 
L 2809 0 
z
M 2297 1619 
L 1525 1513 
Q 1169 1463 987 1336 
Q 806 1209 806 888 
Q 806 653 973 504 
Q 1141 356 1419 356 
Q 1800 356 2048 623 
Q 2297 891 2297 1300 
L 2297 1619 
z
" transform="scale(0.015625)"/>
      <path id="SegoeUI-3a" d="M 697 2575 
Q 553 2575 451 2678 
Q 350 2781 350 2925 
Q 350 3069 451 3169 
Q 553 3269 697 3269 
Q 844 3269 947 3169 
Q 1050 3069 1050 2925 
Q 1050 2781 947 2678 
Q 844 2575 697 2575 
z
M 697 -69 
Q 553 -69 451 34 
Q 350 138 350 281 
Q 350 425 451 529 
Q 553 634 697 634 
Q 844 634 947 529 
Q 1050 425 1050 281 
Q 1050 138 947 34 
Q 844 -69 697 -69 
z
" transform="scale(0.015625)"/>
     </defs>
     <use xlink:href="#SegoeUI-c1"/>
     <use xlink:href="#SegoeUI-72" x="64.501953"/>
     <use xlink:href="#SegoeUI-65" x="97.892578"/>
     <use xlink:href="#SegoeUI-61" x="150.1875"/>
     <use xlink:href="#SegoeUI-3a" x="201.066406"/>
    </g>
   </g>
   <g id="text_12">
    <!-- $A = \frac{(B + b) \cdot h}{2}$ -->
    <g style="fill: #1f2937" transform="translate(521.122763 153.487378) scale(0.11 -0.11)">
     <defs>
      <path id="DejaVuSans-Oblique-41" d="M 2356 4666 
L 3072 4666 
L 3938 0 
L 3278 0 
L 3084 1197 
L 984 1197 
L 325 0 
L -341 0 
L 2356 4666 
z
M 2584 4044 
L 1275 1722 
L 2988 1722 
L 2584 4044 
z
" transform="scale(0.015625)"/>
      <path id="DejaVuSans-3d" d="M 678 2906 
L 4684 2906 
L 4684 2381 
L 678 2381 
L 678 2906 
z
M 678 1631 
L 4684 1631 
L 4684 1100 
L 678 1100 
L 678 1631 
z
" transform="scale(0.015625)"/>
      <path id="DejaVuSans-28" d="M 1984 4856 
Q 1566 4138 1362 3434 
Q 1159 2731 1159 2009 
Q 1159 1288 1364 580 
Q 1569 -128 1984 -844 
L 1484 -844 
Q 1016 -109 783 600 
Q 550 1309 550 2009 
Q 550 2706 781 3412 
Q 1013 4119 1484 4856 
L 1984 4856 
z
" transform="scale(0.015625)"/>
      <path id="DejaVuSans-Oblique-42" d="M 1081 4666 
L 2694 4666 
Q 3350 4666 3675 4422 
Q 4000 4178 4000 3688 
Q 4000 3238 3720 2911 
Q 3441 2584 2988 2516 
Q 3375 2428 3569 2181 
Q 3763 1934 3763 1522 
Q 3763 819 3242 409 
Q 2722 0 1819 0 
L 172 0 
L 1081 4666 
z
M 1234 2228 
L 903 519 
L 1919 519 
Q 2491 519 2800 781 
Q 3109 1044 3109 1522 
Q 3109 1891 2904 2059 
Q 2700 2228 2247 2228 
L 1234 2228 
z
M 1606 4147 
L 1331 2741 
L 2272 2741 
Q 2775 2741 3058 2959 
Q 3341 3178 3341 3566 
Q 3341 3869 3150 4008 
Q 2959 4147 2541 4147 
L 1606 4147 
z
" transform="scale(0.015625)"/>
      <path id="DejaVuSans-2b" d="M 2944 4013 
L 2944 2272 
L 4684 2272 
L 4684 1741 
L 2944 1741 
L 2944 0 
L 2419 0 
L 2419 1741 
L 678 1741 
L 678 2272 
L 2419 2272 
L 2419 4013 
L 2944 4013 
z
" transform="scale(0.015625)"/>
      <path id="DejaVuSans-Oblique-62" d="M 3169 2138 
Q 3169 2591 2961 2847 
Q 2753 3103 2388 3103 
Q 2122 3103 1889 2973 
Q 1656 2844 1484 2597 
Q 1303 2338 1198 1995 
Q 1094 1653 1094 1313 
Q 1094 881 1298 636 
Q 1503 391 1863 391 
Q 2134 391 2365 517 
Q 2597 644 2772 891 
Q 2950 1147 3059 1487 
Q 3169 1828 3169 2138 
z
M 1381 2969 
Q 1594 3256 1914 3420 
Q 2234 3584 2584 3584 
Q 3122 3584 3439 3221 
Q 3756 2859 3756 2241 
Q 3756 1734 3570 1259 
Q 3384 784 3041 416 
Q 2816 172 2522 40 
Q 2228 -91 1906 -91 
Q 1566 -91 1316 65 
Q 1066 222 909 531 
L 806 0 
L 231 0 
L 1178 4863 
L 1753 4863 
L 1381 2969 
z
" transform="scale(0.015625)"/>
      <path id="DejaVuSans-29" d="M 513 4856 
L 1013 4856 
Q 1481 4119 1714 3412 
Q 1947 2706 1947 2009 
Q 1947 1309 1714 600 
Q 1481 -109 1013 -844 
L 513 -844 
Q 928 -128 1133 580 
Q 1338 1288 1338 2009 
Q 1338 2731 1133 3434 
Q 928 4138 513 4856 
z
" transform="scale(0.015625)"/>
      <path id="DejaVuSans-22c5" d="M 684 2619 
L 1344 2619 
L 1344 1825 
L 684 1825 
L 684 2619 
z
" transform="scale(0.015625)"/>
      <path id="DejaVuSans-Oblique-68" d="M 3566 2113 
L 3156 0 
L 2578 0 
L 2988 2091 
Q 3016 2238 3031 2350 
Q 3047 2463 3047 2528 
Q 3047 2791 2881 2937 
Q 2716 3084 2419 3084 
Q 1956 3084 1617 2771 
Q 1278 2459 1178 1941 
L 800 0 
L 225 0 
L 1172 4863 
L 1747 4863 
L 1375 2950 
Q 1594 3244 1934 3414 
Q 2275 3584 2650 3584 
Q 3113 3584 3367 3334 
Q 3622 3084 3622 2631 
Q 3622 2519 3608 2391 
Q 3594 2263 3566 2113 
z
" transform="scale(0.015625)"/>
      <path id="DejaVuSans-32" d="M 1228 531 
L 3431 531 
L 3431 0 
L 469 0 
L 469 531 
Q 828 903 1448 1529 
Q 2069 2156 2228 2338 
Q 2531 2678 2651 2914 
Q 2772 3150 2772 3378 
Q 2772 3750 2511 3984 
Q 2250 4219 1831 4219 
Q 1534 4219 1204 4116 
Q 875 4013 500 3803 
L 500 4441 
Q 881 4594 1212 4672 
Q 1544 4750 1819 4750 
Q 2544 4750 2975 4387 
Q 3406 4025 3406 3419 
Q 3406 3131 3298 2873 
Q 3191 2616 2906 2266 
Q 2828 2175 2409 1742 
Q 1991 1309 1228 531 
z
" transform="scale(0.015625)"/>
     </defs>
     <use xlink:href="#DejaVuSans-Oblique-41" transform="translate(0 0.782813)"/>
     <use xlink:href="#DejaVuSans-3d" transform="translate(87.890625 0.782813)"/>
     <use xlink:href="#DejaVuSans-28" transform="translate(191.162109 53.810938) scale(0.7)"/>
     <use xlink:href="#DejaVuSans-Oblique-42" transform="translate(218.47168 53.810938) scale(0.7)"/>
     <use xlink:href="#DejaVuSans-2b" transform="translate(280.131836 53.810938) scale(0.7)"/>
     <use xlink:href="#DejaVuSans-Oblique-62" transform="translate(352.421875 53.810938) scale(0.7)"/>
     <use xlink:href="#DejaVuSans-29" transform="translate(396.855469 53.810938) scale(0.7)"/>
     <use xlink:href="#DejaVuSans-22c5" transform="translate(437.802734 53.810938) scale(0.7)"/>
     <use xlink:href="#DejaVuSans-Oblique-68" transform="translate(473.691406 53.810938) scale(0.7)"/>
     <use xlink:href="#DejaVuSans-32" transform="translate(332.162109 -38.623437) scale(0.7)"/>
     <path d="M 191.162109 19.579688 
L 191.162109 25.829688 
L 518.056641 25.829688 
L 518.056641 19.579688 
L 191.162109 19.579688 
z
"/>
    </g>
   </g>
   <g id="text_13">
    <!-- Mediana: -->
    <g style="fill: #374151" transform="translate(521.122763 171.625829) scale(0.1 -0.1)">
     <defs>
      <path id="SegoeUI-4d" d="M 5156 0 
L 4634 0 
L 4634 3006 
Q 4634 3363 4678 3878 
L 4666 3878 
Q 4591 3575 4531 3444 
L 3000 0 
L 2744 0 
L 1216 3419 
Q 1150 3569 1081 3878 
L 1069 3878 
Q 1094 3609 1094 3000 
L 1094 0 
L 588 0 
L 588 4481 
L 1281 4481 
L 2656 1356 
Q 2816 997 2863 819 
L 2881 819 
Q 3016 1188 3097 1369 
L 4500 4481 
L 5156 4481 
L 5156 0 
z
" transform="scale(0.015625)"/>
      <path id="SegoeUI-64" d="M 3250 0 
L 2738 0 
L 2738 544 
L 2725 544 
Q 2369 -75 1625 -75 
Q 1022 -75 661 354 
Q 300 784 300 1525 
Q 300 2319 700 2797 
Q 1100 3275 1766 3275 
Q 2425 3275 2725 2756 
L 2738 2756 
L 2738 4738 
L 3250 4738 
L 3250 0 
z
M 2738 1447 
L 2738 1919 
Q 2738 2306 2481 2575 
Q 2225 2844 1831 2844 
Q 1363 2844 1094 2500 
Q 825 2156 825 1550 
Q 825 997 1083 676 
Q 1341 356 1775 356 
Q 2203 356 2470 665 
Q 2738 975 2738 1447 
z
" transform="scale(0.015625)"/>
      <path id="SegoeUI-69" d="M 781 4013 
Q 644 4013 547 4106 
Q 450 4200 450 4344 
Q 450 4488 547 4583 
Q 644 4678 781 4678 
Q 922 4678 1020 4583 
Q 1119 4488 1119 4344 
Q 1119 4206 1020 4109 
Q 922 4013 781 4013 
z
M 1031 0 
L 519 0 
L 519 3200 
L 1031 3200 
L 1031 0 
z
" transform="scale(0.015625)"/>
      <path id="SegoeUI-6e" d="M 3175 0 
L 2663 0 
L 2663 1825 
Q 2663 2844 1919 2844 
Q 1534 2844 1282 2555 
Q 1031 2266 1031 1825 
L 1031 0 
L 519 0 
L 519 3200 
L 1031 3200 
L 1031 2669 
L 1044 2669 
Q 1406 3275 2094 3275 
Q 2619 3275 2897 2936 
Q 3175 2597 3175 1956 
L 3175 0 
z
" transform="scale(0.015625)"/>
     </defs>
     <use xlink:href="#SegoeUI-4d"/>
     <use xlink:href="#SegoeUI-65" x="89.794922"/>
     <use xlink:href="#SegoeUI-64" x="142.089844"/>
     <use xlink:href="#SegoeUI-69" x="200.976562"/>
     <use xlink:href="#SegoeUI-61" x="225.195312"/>
     <use xlink:href="#SegoeUI-6e" x="276.074219"/>
     <use xlink:href="#SegoeUI-61" x="332.666016"/>
     <use xlink:href="#SegoeUI-3a" x="383.544922"/>
    </g>
   </g>
   <g id="text_14">
    <!-- $m = \frac{B + b}{2}$ -->
    <g style="fill: #1f2937" transform="translate(521.122763 189.764279) scale(0.11 -0.11)">
     <defs>
      <path id="DejaVuSans-Oblique-6d" d="M 5747 2113 
L 5338 0 
L 4763 0 
L 5166 2094 
Q 5191 2228 5203 2325 
Q 5216 2422 5216 2491 
Q 5216 2772 5059 2928 
Q 4903 3084 4622 3084 
Q 4203 3084 3875 2770 
Q 3547 2456 3450 1953 
L 3066 0 
L 2491 0 
L 2900 2094 
Q 2925 2209 2937 2307 
Q 2950 2406 2950 2484 
Q 2950 2769 2794 2926 
Q 2638 3084 2363 3084 
Q 1938 3084 1609 2770 
Q 1281 2456 1184 1953 
L 800 0 
L 225 0 
L 909 3500 
L 1484 3500 
L 1375 2956 
Q 1609 3263 1923 3423 
Q 2238 3584 2597 3584 
Q 2978 3584 3223 3384 
Q 3469 3184 3519 2828 
Q 3781 3197 4126 3390 
Q 4472 3584 4856 3584 
Q 5306 3584 5551 3325 
Q 5797 3066 5797 2591 
Q 5797 2488 5784 2364 
Q 5772 2241 5747 2113 
z
" transform="scale(0.015625)"/>
     </defs>
     <use xlink:href="#DejaVuSans-Oblique-6d" transform="translate(0 0.01875)"/>
     <use xlink:href="#DejaVuSans-3d" transform="translate(116.894531 0.01875)"/>
     <use xlink:href="#DejaVuSans-Oblique-42" transform="translate(220.166016 44.810938) scale(0.7)"/>
     <use xlink:href="#DejaVuSans-2b" transform="translate(281.826172 44.810938) scale(0.7)"/>
     <use xlink:href="#DejaVuSans-Oblique-62" transform="translate(354.116211 44.810938) scale(0.7)"/>
     <use xlink:href="#DejaVuSans-32" transform="translate(287.166016 -39.3875) scale(0.7)"/>
     <path d="M 220.166016 18.815625 
L 220.166016 25.065625 
L 398.549805 25.065625 
L 398.549805 18.815625 
L 220.166016 18.815625 
z
"/>
    </g>
   </g>
   <g id="text_15">
    <!-- Perímetro: -->
    <g style="fill: #374151" transform="translate(521.122763 207.902729) scale(0.1 -0.1)">
     <defs>
      <path id="SegoeUI-50" d="M 1113 1694 
L 1113 0 
L 588 0 
L 588 4481 
L 1819 4481 
Q 2538 4481 2933 4131 
Q 3328 3781 3328 3144 
Q 3328 2506 2889 2100 
Q 2450 1694 1703 1694 
L 1113 1694 
z
M 1113 4006 
L 1113 2169 
L 1663 2169 
Q 2206 2169 2492 2417 
Q 2778 2666 2778 3119 
Q 2778 4006 1728 4006 
L 1113 4006 
z
" transform="scale(0.015625)"/>
      <path id="SegoeUI-ed" d="M 1031 0 
L 519 0 
L 519 3200 
L 1031 3200 
L 1031 0 
z
M 1494 4831 
L 675 3806 
L 278 3806 
L 975 4831 
L 1494 4831 
z
" transform="scale(0.015625)"/>
      <path id="SegoeUI-6d" d="M 5063 0 
L 4550 0 
L 4550 1838 
Q 4550 2369 4386 2606 
Q 4222 2844 3834 2844 
Q 3506 2844 3276 2544 
Q 3047 2244 3047 1825 
L 3047 0 
L 2534 0 
L 2534 1900 
Q 2534 2844 1806 2844 
Q 1469 2844 1250 2561 
Q 1031 2278 1031 1825 
L 1031 0 
L 519 0 
L 519 3200 
L 1031 3200 
L 1031 2694 
L 1044 2694 
Q 1384 3275 2038 3275 
Q 2366 3275 2609 3092 
Q 2853 2909 2944 2613 
Q 3300 3275 4006 3275 
Q 5063 3275 5063 1972 
L 5063 0 
z
" transform="scale(0.015625)"/>
      <path id="SegoeUI-74" d="M 2003 31 
Q 1822 -69 1525 -69 
Q 684 -69 684 869 
L 684 2763 
L 134 2763 
L 134 3200 
L 684 3200 
L 684 3981 
L 1197 4147 
L 1197 3200 
L 2003 3200 
L 2003 2763 
L 1197 2763 
L 1197 959 
Q 1197 638 1306 500 
Q 1416 363 1669 363 
Q 1863 363 2003 469 
L 2003 31 
z
" transform="scale(0.015625)"/>
      <path id="SegoeUI-6f" d="M 1856 -75 
Q 1147 -75 723 373 
Q 300 822 300 1563 
Q 300 2369 740 2822 
Q 1181 3275 1931 3275 
Q 2647 3275 3048 2834 
Q 3450 2394 3450 1613 
Q 3450 847 3017 386 
Q 2584 -75 1856 -75 
z
M 1894 2844 
Q 1400 2844 1112 2508 
Q 825 2172 825 1581 
Q 825 1013 1115 684 
Q 1406 356 1894 356 
Q 2391 356 2658 678 
Q 2925 1000 2925 1594 
Q 2925 2194 2658 2519 
Q 2391 2844 1894 2844 
z
" transform="scale(0.015625)"/>
     </defs>
     <use xlink:href="#SegoeUI-50"/>
     <use xlink:href="#SegoeUI-65" x="52.255859"/>
     <use xlink:href="#SegoeUI-72" x="104.550781"/>
     <use xlink:href="#SegoeUI-ed" x="139.316406"/>
     <use xlink:href="#SegoeUI-6d" x="163.535156"/>
     <use xlink:href="#SegoeUI-65" x="249.667969"/>
     <use xlink:href="#SegoeUI-74" x="301.962891"/>
     <use xlink:href="#SegoeUI-72" x="335.849609"/>
     <use xlink:href="#SegoeUI-6f" x="369.240234"/>
     <use xlink:href="#SegoeUI-3a" x="427.833984"/>
    </g>
   </g>
   <g id="text_16">
    <!-- $P = B + b + c_1 + c_2$ -->
    <g style="fill: #1f2937" transform="translate(521.122763 226.04118) scale(0.11 -0.11)">
     <defs>
      <path id="DejaVuSans-Oblique-50" d="M 1081 4666 
L 2541 4666 
Q 3178 4666 3512 4369 
Q 3847 4072 3847 3500 
Q 3847 2731 3353 2303 
Q 2859 1875 1966 1875 
L 1172 1875 
L 806 0 
L 172 0 
L 1081 4666 
z
M 1613 4147 
L 1275 2394 
L 2069 2394 
Q 2606 2394 2893 2669 
Q 3181 2944 3181 3456 
Q 3181 3784 2986 3965 
Q 2791 4147 2438 4147 
L 1613 4147 
z
" transform="scale(0.015625)"/>
      <path id="DejaVuSans-Oblique-63" d="M 3431 3366 
L 3316 2797 
Q 3109 2947 2876 3022 
Q 2644 3097 2394 3097 
Q 2119 3097 1870 3000 
Q 1622 2903 1453 2725 
Q 1184 2453 1037 2087 
Q 891 1722 891 1331 
Q 891 859 1127 628 
Q 1363 397 1844 397 
Q 2081 397 2348 469 
Q 2616 541 2906 684 
L 2797 116 
Q 2547 13 2283 -39 
Q 2019 -91 1741 -91 
Q 1044 -91 669 257 
Q 294 606 294 1253 
Q 294 1797 489 2255 
Q 684 2713 1069 3078 
Q 1331 3328 1684 3456 
Q 2038 3584 2456 3584 
Q 2700 3584 2940 3529 
Q 3181 3475 3431 3366 
z
" transform="scale(0.015625)"/>
      <path id="DejaVuSans-31" d="M 794 531 
L 1825 531 
L 1825 4091 
L 703 3866 
L 703 4441 
L 1819 4666 
L 2450 4666 
L 2450 531 
L 3481 531 
L 3481 0 
L 794 0 
L 794 531 
z
" transform="scale(0.015625)"/>
     </defs>
     <use xlink:href="#DejaVuSans-Oblique-50" transform="translate(0 0.015625)"/>
     <use xlink:href="#DejaVuSans-3d" transform="translate(79.785156 0.015625)"/>
     <use xlink:href="#DejaVuSans-Oblique-42" transform="translate(183.056641 0.015625)"/>
     <use xlink:href="#DejaVuSans-2b" transform="translate(271.142578 0.015625)"/>
     <use xlink:href="#DejaVuSans-Oblique-62" transform="translate(374.414062 0.015625)"/>
     <use xlink:href="#DejaVuSans-2b" transform="translate(457.373047 0.015625)"/>
     <use xlink:href="#DejaVuSans-Oblique-63" transform="translate(560.644531 0.015625)"/>
     <use xlink:href="#DejaVuSans-31" transform="translate(615.625 -16.390625) scale(0.7)"/>
     <use xlink:href="#DejaVuSans-2b" transform="translate(682.37793 0.015625)"/>
     <use xlink:href="#DejaVuSans-Oblique-63" transform="translate(785.649414 0.015625)"/>
     <use xlink:href="#DejaVuSans-32" transform="translate(840.629883 -16.390625) scale(0.7)"/>
    </g>
   </g>
   <g id="text_17">
    <!-- TIPOS: -->
    <g style="fill: #374151" transform="translate(521.122763 256.271931) scale(0.1 -0.1)">
     <defs>
      <path id="SegoeUI-Bold-54" d="M 3659 3659 
L 2381 3659 
L 2381 0 
L 1369 0 
L 1369 3659 
L 97 3659 
L 97 4481 
L 3659 4481 
L 3659 3659 
z
" transform="scale(0.015625)"/>
      <path id="SegoeUI-Bold-49" d="M 1522 0 
L 513 0 
L 513 4481 
L 1522 4481 
L 1522 0 
z
" transform="scale(0.015625)"/>
      <path id="SegoeUI-Bold-50" d="M 1522 1544 
L 1522 0 
L 513 0 
L 513 4481 
L 2094 4481 
Q 3788 4481 3788 3053 
Q 3788 2378 3302 1961 
Q 2816 1544 2003 1544 
L 1522 1544 
z
M 1522 3706 
L 1522 2309 
L 1919 2309 
Q 2725 2309 2725 3016 
Q 2725 3706 1919 3706 
L 1522 3706 
z
" transform="scale(0.015625)"/>
      <path id="SegoeUI-Bold-4f" d="M 2406 -78 
Q 1444 -78 837 548 
Q 231 1175 231 2181 
Q 231 3244 847 3900 
Q 1463 4556 2478 4556 
Q 3438 4556 4030 3928 
Q 4622 3300 4622 2272 
Q 4622 1216 4008 569 
Q 3394 -78 2406 -78 
z
M 2450 3688 
Q 1919 3688 1606 3289 
Q 1294 2891 1294 2234 
Q 1294 1569 1606 1181 
Q 1919 794 2425 794 
Q 2947 794 3253 1170 
Q 3559 1547 3559 2216 
Q 3559 2913 3262 3300 
Q 2966 3688 2450 3688 
z
" transform="scale(0.015625)"/>
      <path id="SegoeUI-Bold-3a" d="M 856 2209 
Q 613 2209 450 2357 
Q 288 2506 288 2725 
Q 288 2950 455 3094 
Q 622 3238 872 3238 
Q 1125 3238 1286 3092 
Q 1447 2947 1447 2725 
Q 1447 2497 1283 2353 
Q 1119 2209 856 2209 
z
M 856 -78 
Q 613 -78 450 72 
Q 288 222 288 441 
Q 288 666 455 809 
Q 622 953 872 953 
Q 1125 953 1286 808 
Q 1447 663 1447 441 
Q 1447 213 1283 67 
Q 1119 -78 856 -78 
z
" transform="scale(0.015625)"/>
     </defs>
     <use xlink:href="#SegoeUI-Bold-54"/>
     <use xlink:href="#SegoeUI-Bold-49" x="58.59375"/>
     <use xlink:href="#SegoeUI-Bold-50" x="90.283203"/>
     <use xlink:href="#SegoeUI-Bold-4f" x="151.708984"/>
     <use xlink:href="#SegoeUI-Bold-53" x="227.539062"/>
     <use xlink:href="#SegoeUI-Bold-3a" x="283.59375"/>
    </g>
   </g>
   <g id="text_18">
    <!-- • Isósceles: lados no paralelos iguales -->
    <g style="fill: #6b7280" transform="translate(521.122763 274.410381) scale(0.09 -0.09)">
     <defs>
      <path id="SegoeUI-2022" d="M 1306 1275 
Q 981 1275 747 1503 
Q 513 1731 513 2056 
Q 513 2378 747 2614 
Q 981 2850 1306 2850 
Q 1631 2850 1859 2615 
Q 2088 2381 2088 2056 
Q 2088 1731 1859 1503 
Q 1631 1275 1306 1275 
z
" transform="scale(0.015625)"/>
      <path id="SegoeUI-20" transform="scale(0.015625)"/>
      <path id="SegoeUI-49" d="M 1113 0 
L 588 0 
L 588 4481 
L 1113 4481 
L 1113 0 
z
" transform="scale(0.015625)"/>
      <path id="SegoeUI-73" d="M 325 116 
L 325 666 
Q 744 356 1247 356 
Q 1922 356 1922 806 
Q 1922 934 1864 1023 
Q 1806 1113 1707 1181 
Q 1609 1250 1476 1304 
Q 1344 1359 1191 1419 
Q 978 1503 817 1589 
Q 656 1675 548 1783 
Q 441 1891 386 2028 
Q 331 2166 331 2350 
Q 331 2575 434 2748 
Q 538 2922 709 3039 
Q 881 3156 1101 3215 
Q 1322 3275 1556 3275 
Q 1972 3275 2300 3131 
L 2300 2613 
Q 1947 2844 1488 2844 
Q 1344 2844 1228 2811 
Q 1113 2778 1030 2718 
Q 947 2659 901 2576 
Q 856 2494 856 2394 
Q 856 2269 901 2184 
Q 947 2100 1034 2034 
Q 1122 1969 1247 1916 
Q 1372 1863 1531 1800 
Q 1744 1719 1912 1633 
Q 2081 1547 2200 1439 
Q 2319 1331 2383 1190 
Q 2447 1050 2447 856 
Q 2447 619 2342 444 
Q 2238 269 2063 153 
Q 1888 38 1659 -18 
Q 1431 -75 1181 -75 
Q 688 -75 325 116 
z
" transform="scale(0.015625)"/>
      <path id="SegoeUI-f3" d="M 1856 -75 
Q 1147 -75 723 373 
Q 300 822 300 1563 
Q 300 2369 740 2822 
Q 1181 3275 1931 3275 
Q 2647 3275 3048 2834 
Q 3450 2394 3450 1613 
Q 3450 847 3017 386 
Q 2584 -75 1856 -75 
z
M 1894 2844 
Q 1400 2844 1112 2508 
Q 825 2172 825 1581 
Q 825 1013 1115 684 
Q 1406 356 1894 356 
Q 2391 356 2658 678 
Q 2925 1000 2925 1594 
Q 2925 2194 2658 2519 
Q 2391 2844 1894 2844 
z
M 2646 4831 
L 1827 3806 
L 1430 3806 
L 2127 4831 
L 2646 4831 
z
" transform="scale(0.015625)"/>
      <path id="SegoeUI-63" d="M 2700 147 
Q 2331 -75 1825 -75 
Q 1141 -75 720 370 
Q 300 816 300 1525 
Q 300 2316 753 2795 
Q 1206 3275 1963 3275 
Q 2384 3275 2706 3119 
L 2706 2594 
Q 2350 2844 1944 2844 
Q 1453 2844 1139 2492 
Q 825 2141 825 1569 
Q 825 1006 1120 681 
Q 1416 356 1913 356 
Q 2331 356 2700 634 
L 2700 147 
z
" transform="scale(0.015625)"/>
      <path id="SegoeUI-6c" d="M 1031 0 
L 519 0 
L 519 4738 
L 1031 4738 
L 1031 0 
z
" transform="scale(0.015625)"/>
      <path id="SegoeUI-70" d="M 1044 463 
L 1031 463 
L 1031 -1472 
L 519 -1472 
L 519 3200 
L 1031 3200 
L 1031 2638 
L 1044 2638 
Q 1422 3275 2150 3275 
Q 2769 3275 3116 2845 
Q 3463 2416 3463 1694 
Q 3463 891 3072 408 
Q 2681 -75 2003 -75 
Q 1381 -75 1044 463 
z
M 1031 1753 
L 1031 1306 
Q 1031 909 1289 632 
Q 1547 356 1944 356 
Q 2409 356 2673 712 
Q 2938 1069 2938 1703 
Q 2938 2238 2691 2541 
Q 2444 2844 2022 2844 
Q 1575 2844 1303 2533 
Q 1031 2222 1031 1753 
z
" transform="scale(0.015625)"/>
      <path id="SegoeUI-67" d="M 3250 256 
Q 3250 -1506 1563 -1506 
Q 969 -1506 525 -1281 
L 525 -769 
Q 1066 -1069 1556 -1069 
Q 2738 -1069 2738 188 
L 2738 538 
L 2725 538 
Q 2359 -75 1625 -75 
Q 1028 -75 664 351 
Q 300 778 300 1497 
Q 300 2313 692 2794 
Q 1084 3275 1766 3275 
Q 2413 3275 2725 2756 
L 2738 2756 
L 2738 3200 
L 3250 3200 
L 3250 256 
z
M 2738 1447 
L 2738 1919 
Q 2738 2300 2480 2572 
Q 2222 2844 1838 2844 
Q 1363 2844 1094 2498 
Q 825 2153 825 1531 
Q 825 997 1083 676 
Q 1341 356 1766 356 
Q 2197 356 2467 662 
Q 2738 969 2738 1447 
z
" transform="scale(0.015625)"/>
      <path id="SegoeUI-75" d="M 3106 0 
L 2594 0 
L 2594 506 
L 2581 506 
Q 2263 -75 1594 -75 
Q 450 -75 450 1288 
L 450 3200 
L 959 3200 
L 959 1369 
Q 959 356 1734 356 
Q 2109 356 2351 632 
Q 2594 909 2594 1356 
L 2594 3200 
L 3106 3200 
L 3106 0 
z
" transform="scale(0.015625)"/>
     </defs>
     <use xlink:href="#SegoeUI-2022"/>
     <use xlink:href="#SegoeUI-20" x="40.625"/>
     <use xlink:href="#SegoeUI-49" x="68.017578"/>
     <use xlink:href="#SegoeUI-73" x="94.628906"/>
     <use xlink:href="#SegoeUI-f3" x="137.060547"/>
     <use xlink:href="#SegoeUI-73" x="195.654297"/>
     <use xlink:href="#SegoeUI-63" x="238.085938"/>
     <use xlink:href="#SegoeUI-65" x="284.277344"/>
     <use xlink:href="#SegoeUI-6c" x="336.572266"/>
     <use xlink:href="#SegoeUI-65" x="360.791016"/>
     <use xlink:href="#SegoeUI-73" x="413.085938"/>
     <use xlink:href="#SegoeUI-3a" x="455.517578"/>
     <use xlink:href="#SegoeUI-20" x="477.197266"/>
     <use xlink:href="#SegoeUI-6c" x="504.589844"/>
     <use xlink:href="#SegoeUI-61" x="528.808594"/>
     <use xlink:href="#SegoeUI-64" x="579.6875"/>
     <use xlink:href="#SegoeUI-6f" x="638.574219"/>
     <use xlink:href="#SegoeUI-73" x="697.167969"/>
     <use xlink:href="#SegoeUI-20" x="739.599609"/>
     <use xlink:href="#SegoeUI-6e" x="766.992188"/>
     <use xlink:href="#SegoeUI-6f" x="823.583984"/>
     <use xlink:href="#SegoeUI-20" x="882.177734"/>
     <use xlink:href="#SegoeUI-70" x="909.570312"/>
     <use xlink:href="#SegoeUI-61" x="966.984375"/>
     <use xlink:href="#SegoeUI-72" x="1017.863281"/>
     <use xlink:href="#SegoeUI-61" x="1052.628906"/>
     <use xlink:href="#SegoeUI-6c" x="1103.507812"/>
     <use xlink:href="#SegoeUI-65" x="1127.726562"/>
     <use xlink:href="#SegoeUI-6c" x="1180.021484"/>
     <use xlink:href="#SegoeUI-6f" x="1204.240234"/>
     <use xlink:href="#SegoeUI-73" x="1262.833984"/>
     <use xlink:href="#SegoeUI-20" x="1305.265625"/>
     <use xlink:href="#SegoeUI-69" x="1332.658203"/>
     <use xlink:href="#SegoeUI-67" x="1356.876953"/>
     <use xlink:href="#SegoeUI-75" x="1415.763672"/>
     <use xlink:href="#SegoeUI-61" x="1472.355469"/>
     <use xlink:href="#SegoeUI-6c" x="1523.234375"/>
     <use xlink:href="#SegoeUI-65" x="1547.453125"/>
     <use xlink:href="#SegoeUI-73" x="1599.748047"/>
    </g>
   </g>
   <g id="text_19">
    <!-- • Rectángulo: un lado perpendicular -->
    <g style="fill: #6b7280" transform="translate(521.122763 295.571907) scale(0.09 -0.09)">
     <defs>
      <path id="SegoeUI-52" d="M 3800 0 
L 3175 0 
L 2425 1256 
Q 2322 1431 2225 1554 
Q 2128 1678 2026 1756 
Q 1925 1834 1808 1870 
Q 1691 1906 1544 1906 
L 1113 1906 
L 1113 0 
L 588 0 
L 588 4481 
L 1925 4481 
Q 2219 4481 2467 4407 
Q 2716 4334 2898 4184 
Q 3081 4034 3184 3811 
Q 3288 3588 3288 3288 
Q 3288 3053 3217 2858 
Q 3147 2663 3017 2509 
Q 2888 2356 2705 2248 
Q 2522 2141 2294 2081 
L 2294 2069 
Q 2406 2019 2489 1955 
Q 2572 1891 2647 1803 
Q 2722 1716 2795 1605 
Q 2869 1494 2959 1347 
L 3800 0 
z
M 1113 4006 
L 1113 2381 
L 1825 2381 
Q 2022 2381 2189 2440 
Q 2356 2500 2478 2611 
Q 2600 2722 2669 2883 
Q 2738 3044 2738 3244 
Q 2738 3603 2505 3804 
Q 2272 4006 1831 4006 
L 1113 4006 
z
" transform="scale(0.015625)"/>
      <path id="SegoeUI-e1" d="M 2809 0 
L 2297 0 
L 2297 500 
L 2284 500 
Q 1950 -75 1300 -75 
Q 822 -75 551 178 
Q 281 431 281 850 
Q 281 1747 1338 1894 
L 2297 2028 
Q 2297 2844 1638 2844 
Q 1059 2844 594 2450 
L 594 2975 
Q 1066 3275 1681 3275 
Q 2809 3275 2809 2081 
L 2809 0 
z
M 2297 1619 
L 1525 1513 
Q 1169 1463 987 1336 
Q 806 1209 806 888 
Q 806 653 973 504 
Q 1141 356 1419 356 
Q 1800 356 2048 623 
Q 2297 891 2297 1300 
L 2297 1619 
z
M 2366 4831 
L 1547 3806 
L 1150 3806 
L 1847 4831 
L 2366 4831 
z
" transform="scale(0.015625)"/>
     </defs>
     <use xlink:href="#SegoeUI-2022"/>
     <use xlink:href="#SegoeUI-20" x="40.625"/>
     <use xlink:href="#SegoeUI-52" x="68.017578"/>
     <use xlink:href="#SegoeUI-65" x="125.082031"/>
     <use xlink:href="#SegoeUI-63" x="177.376953"/>
     <use xlink:href="#SegoeUI-74" x="223.568359"/>
     <use xlink:href="#SegoeUI-e1" x="257.455078"/>
     <use xlink:href="#SegoeUI-6e" x="308.333984"/>
     <use xlink:href="#SegoeUI-67" x="364.925781"/>
     <use xlink:href="#SegoeUI-75" x="423.8125"/>
     <use xlink:href="#SegoeUI-6c" x="480.404297"/>
     <use xlink:href="#SegoeUI-6f" x="504.623047"/>
     <use xlink:href="#SegoeUI-3a" x="563.216797"/>
     <use xlink:href="#SegoeUI-20" x="584.896484"/>
     <use xlink:href="#SegoeUI-75" x="612.289062"/>
     <use xlink:href="#SegoeUI-6e" x="668.880859"/>
     <use xlink:href="#SegoeUI-20" x="725.472656"/>
     <use xlink:href="#SegoeUI-6c" x="752.865234"/>
     <use xlink:href="#SegoeUI-61" x="777.083984"/>
     <use xlink:href="#SegoeUI-64" x="827.962891"/>
     <use xlink:href="#SegoeUI-6f" x="886.849609"/>
     <use xlink:href="#SegoeUI-20" x="945.443359"/>
     <use xlink:href="#SegoeUI-70" x="972.835938"/>
     <use xlink:href="#SegoeUI-65" x="1031.625"/>
     <use xlink:href="#SegoeUI-72" x="1083.919922"/>
     <use xlink:href="#SegoeUI-70" x="1118.685547"/>
     <use xlink:href="#SegoeUI-65" x="1177.474609"/>
     <use xlink:href="#SegoeUI-6e" x="1229.769531"/>
     <use xlink:href="#SegoeUI-64" x="1286.361328"/>
     <use xlink:href="#SegoeUI-69" x="1345.248047"/>
     <use xlink:href="#SegoeUI-63" x="1369.466797"/>
     <use xlink:href="#SegoeUI-75" x="1415.658203"/>
     <use xlink:href="#SegoeUI-6c" x="1472.25"/>
     <use xlink:href="#SegoeUI-61" x="1496.46875"/>
     <use xlink:href="#SegoeUI-72" x="1547.347656"/>
    </g>
   </g>
   <g id="text_20">
    <!-- • Escaleno: todos los lados diferentes -->
    <g style="fill: #6b7280" transform="translate(521.122763 316.733432) scale(0.09 -0.09)">
     <defs>
      <path id="SegoeUI-45" d="M 2963 0 
L 588 0 
L 588 4481 
L 2863 4481 
L 2863 4006 
L 1113 4006 
L 1113 2516 
L 2731 2516 
L 2731 2044 
L 1113 2044 
L 1113 475 
L 2963 475 
L 2963 0 
z
" transform="scale(0.015625)"/>
      <path id="SegoeUI-66" d="M 2100 4288 
Q 1950 4372 1759 4372 
Q 1222 4372 1222 3694 
L 1222 3200 
L 1972 3200 
L 1972 2763 
L 1222 2763 
L 1222 0 
L 713 0 
L 713 2763 
L 166 2763 
L 166 3200 
L 713 3200 
L 713 3719 
Q 713 4222 1003 4514 
Q 1294 4806 1728 4806 
Q 1963 4806 2100 4750 
L 2100 4288 
z
" transform="scale(0.015625)"/>
     </defs>
     <use xlink:href="#SegoeUI-2022"/>
     <use xlink:href="#SegoeUI-20" x="40.625"/>
     <use xlink:href="#SegoeUI-45" x="68.017578"/>
     <use xlink:href="#SegoeUI-73" x="118.603516"/>
     <use xlink:href="#SegoeUI-63" x="161.035156"/>
     <use xlink:href="#SegoeUI-61" x="207.226562"/>
     <use xlink:href="#SegoeUI-6c" x="258.105469"/>
     <use xlink:href="#SegoeUI-65" x="282.324219"/>
     <use xlink:href="#SegoeUI-6e" x="334.619141"/>
     <use xlink:href="#SegoeUI-6f" x="391.210938"/>
     <use xlink:href="#SegoeUI-3a" x="449.804688"/>
     <use xlink:href="#SegoeUI-20" x="471.484375"/>
     <use xlink:href="#SegoeUI-74" x="498.876953"/>
     <use xlink:href="#SegoeUI-6f" x="532.013672"/>
     <use xlink:href="#SegoeUI-64" x="590.607422"/>
     <use xlink:href="#SegoeUI-6f" x="649.494141"/>
     <use xlink:href="#SegoeUI-73" x="708.087891"/>
     <use xlink:href="#SegoeUI-20" x="750.519531"/>
     <use xlink:href="#SegoeUI-6c" x="777.912109"/>
     <use xlink:href="#SegoeUI-6f" x="802.130859"/>
     <use xlink:href="#SegoeUI-73" x="860.724609"/>
     <use xlink:href="#SegoeUI-20" x="903.15625"/>
     <use xlink:href="#SegoeUI-6c" x="930.548828"/>
     <use xlink:href="#SegoeUI-61" x="954.767578"/>
     <use xlink:href="#SegoeUI-64" x="1005.646484"/>
     <use xlink:href="#SegoeUI-6f" x="1064.533203"/>
     <use xlink:href="#SegoeUI-73" x="1123.126953"/>
     <use xlink:href="#SegoeUI-20" x="1165.558594"/>
     <use xlink:href="#SegoeUI-64" x="1192.951172"/>
     <use xlink:href="#SegoeUI-69" x="1251.837891"/>
     <use xlink:href="#SegoeUI-66" x="1276.056641"/>
     <use xlink:href="#SegoeUI-65" x="1307.355469"/>
     <use xlink:href="#SegoeUI-72" x="1359.650391"/>
     <use xlink:href="#SegoeUI-65" x="1393.041016"/>
     <use xlink:href="#SegoeUI-6e" x="1445.335938"/>
     <use xlink:href="#SegoeUI-74" x="1501.927734"/>
     <use xlink:href="#SegoeUI-65" x="1535.064453"/>
     <use xlink:href="#SegoeUI-73" x="1587.359375"/>
    </g>
   </g>
   <g id="text_21">
    <!-- Trapecio - Elementos y Fórmulas -->
    <g style="fill: #2c2f33" transform="translate(293.789916 17.564375) scale(0.14 -0.14)">
     <defs>
      <path id="SegoeUI-Bold-70" d="M 1416 372 
L 1403 372 
L 1403 -1472 
L 416 -1472 
L 416 3200 
L 1403 3200 
L 1403 2719 
L 1416 2719 
Q 1781 3278 2444 3278 
Q 3066 3278 3405 2851 
Q 3744 2425 3744 1691 
Q 3744 891 3348 406 
Q 2953 -78 2297 -78 
Q 1719 -78 1416 372 
z
M 1388 1684 
L 1388 1428 
Q 1388 1097 1563 887 
Q 1738 678 2022 678 
Q 2359 678 2545 939 
Q 2731 1200 2731 1678 
Q 2731 2522 2075 2522 
Q 1772 2522 1580 2292 
Q 1388 2063 1388 1684 
z
" transform="scale(0.015625)"/>
      <path id="SegoeUI-Bold-63" d="M 2841 116 
Q 2506 -78 1875 -78 
Q 1138 -78 681 369 
Q 225 816 225 1522 
Q 225 2338 714 2808 
Q 1203 3278 2022 3278 
Q 2588 3278 2841 3128 
L 2841 2291 
Q 2531 2522 2150 2522 
Q 1725 2522 1476 2273 
Q 1228 2025 1228 1588 
Q 1228 1163 1465 920 
Q 1703 678 2119 678 
Q 2488 678 2841 909 
L 2841 116 
z
" transform="scale(0.015625)"/>
      <path id="SegoeUI-Bold-2d" d="M 2156 1363 
L 447 1363 
L 447 2053 
L 2156 2053 
L 2156 1363 
z
" transform="scale(0.015625)"/>
      <path id="SegoeUI-Bold-45" d="M 3200 0 
L 513 0 
L 513 4481 
L 3097 4481 
L 3097 3659 
L 1522 3659 
L 1522 2663 
L 2988 2663 
L 2988 1844 
L 1522 1844 
L 1522 819 
L 3200 819 
L 3200 0 
z
" transform="scale(0.015625)"/>
      <path id="SegoeUI-Bold-6c" d="M 1403 0 
L 416 0 
L 416 4738 
L 1403 4738 
L 1403 0 
z
" transform="scale(0.015625)"/>
      <path id="SegoeUI-Bold-74" d="M 2350 38 
Q 2131 -78 1691 -78 
Q 647 -78 647 1006 
L 647 2472 
L 128 2472 
L 128 3200 
L 647 3200 
L 647 3891 
L 1631 4172 
L 1631 3200 
L 2350 3200 
L 2350 2472 
L 1631 2472 
L 1631 1178 
Q 1631 678 2028 678 
Q 2184 678 2350 769 
L 2350 38 
z
" transform="scale(0.015625)"/>
      <path id="SegoeUI-Bold-f3" d="M 1941 -78 
Q 1141 -78 683 370 
Q 225 819 225 1588 
Q 225 2381 700 2829 
Q 1175 3278 1984 3278 
Q 2781 3278 3234 2829 
Q 3688 2381 3688 1644 
Q 3688 847 3220 384 
Q 2753 -78 1941 -78 
z
M 1966 2522 
Q 1616 2522 1422 2281 
Q 1228 2041 1228 1600 
Q 1228 678 1972 678 
Q 2681 678 2681 1625 
Q 2681 2522 1966 2522 
z
M 3023 4716 
L 2044 3706 
L 1332 3706 
L 2144 4716 
L 3023 4716 
z
" transform="scale(0.015625)"/>
      <path id="SegoeUI-Bold-75" d="M 3456 0 
L 2472 0 
L 2472 488 
L 2456 488 
Q 2091 -78 1478 -78 
Q 366 -78 366 1269 
L 366 3200 
L 1350 3200 
L 1350 1356 
Q 1350 678 1888 678 
Q 2153 678 2312 864 
Q 2472 1050 2472 1369 
L 2472 3200 
L 3456 3200 
L 3456 0 
z
" transform="scale(0.015625)"/>
     </defs>
     <use xlink:href="#SegoeUI-Bold-54"/>
     <use xlink:href="#SegoeUI-Bold-72" x="51.09375"/>
     <use xlink:href="#SegoeUI-Bold-61" x="90.888672"/>
     <use xlink:href="#SegoeUI-Bold-70" x="144.697266"/>
     <use xlink:href="#SegoeUI-Bold-65" x="206.708984"/>
     <use xlink:href="#SegoeUI-Bold-63" x="260.810547"/>
     <use xlink:href="#SegoeUI-Bold-69" x="308.808594"/>
     <use xlink:href="#SegoeUI-Bold-6f" x="337.226562"/>
     <use xlink:href="#SegoeUI-Bold-20" x="398.359375"/>
     <use xlink:href="#SegoeUI-Bold-2d" x="425.947266"/>
     <use xlink:href="#SegoeUI-Bold-20" x="466.376953"/>
     <use xlink:href="#SegoeUI-Bold-45" x="493.964844"/>
     <use xlink:href="#SegoeUI-Bold-6c" x="547.1875"/>
     <use xlink:href="#SegoeUI-Bold-65" x="575.605469"/>
     <use xlink:href="#SegoeUI-Bold-6d" x="629.707031"/>
     <use xlink:href="#SegoeUI-Bold-65" x="721.308594"/>
     <use xlink:href="#SegoeUI-Bold-6e" x="775.410156"/>
     <use xlink:href="#SegoeUI-Bold-74" x="835.908203"/>
     <use xlink:href="#SegoeUI-Bold-6f" x="874.449219"/>
     <use xlink:href="#SegoeUI-Bold-73" x="935.582031"/>
     <use xlink:href="#SegoeUI-Bold-20" x="979.576172"/>
     <use xlink:href="#SegoeUI-Bold-79" x="1007.164062"/>
     <use xlink:href="#SegoeUI-Bold-20" x="1060.972656"/>
     <use xlink:href="#SegoeUI-Bold-46" x="1088.560547"/>
     <use xlink:href="#SegoeUI-Bold-f3" x="1140.5625"/>
     <use xlink:href="#SegoeUI-Bold-72" x="1201.646484"/>
     <use xlink:href="#SegoeUI-Bold-6d" x="1241.691406"/>
     <use xlink:href="#SegoeUI-Bold-75" x="1333.292969"/>
     <use xlink:href="#SegoeUI-Bold-6c" x="1393.791016"/>
     <use xlink:href="#SegoeUI-Bold-61" x="1422.208984"/>
     <use xlink:href="#SegoeUI-Bold-73" x="1476.017578"/>
    </g>
   </g>
  </g>
 </g>
 <defs>
  <clipPath id="pa9df347494">
   <rect x="7.2" y="32.564375" width="785.99952" height="320.445958"/>
  </clipPath>
 </defs>
</svg>
