<?xml version="1.0" encoding="utf-8" standalone="no"?>
<!DOCTYPE svg PUBLIC "-//W3C//DTD SVG 1.1//EN"
  "http://www.w3.org/Graphics/SVG/1.1/DTD/svg11.dtd">
<svg xmlns:xlink="http://www.w3.org/1999/xlink" width="728.39952pt" height="591.763998pt" viewBox="0 0 728.39952 591.763998" xmlns="http://www.w3.org/2000/svg" version="1.1">
 <metadata>
  <rdf:RDF xmlns:dc="http://purl.org/dc/elements/1.1/" xmlns:cc="http://creativecommons.org/ns#" xmlns:rdf="http://www.w3.org/1999/02/22-rdf-syntax-ns#">
   <cc:Work>
    <dc:type rdf:resource="http://purl.org/dc/dcmitype/StillImage"/>
    <dc:date>2026-04-11T16:11:43.492844</dc:date>
    <dc:format>image/svg+xml</dc:format>
    <dc:creator>
     <cc:Agent>
      <dc:title>Matplotlib v3.8.4, https://matplotlib.org/</dc:title>
     </cc:Agent>
    </dc:creator>
   </cc:Work>
  </rdf:RDF>
 </metadata>
 <defs>
  <style type="text/css">*{stroke-linejoin: round; stroke-linecap: butt}</style>
 </defs>
 <g id="figure_1">
  <g id="patch_1">
   <path d="M 0 591.763998 
L 728.39952 591.763998 
L 728.39952 0 
L 0 0 
z
" style="fill: #ffffff"/>
  </g>
  <g id="axes_1">
   <g id="patch_2">
    <path d="M 109.199931 482.564066 
L 517.199657 482.564066 
L 313.199794 129.225939 
z
" clip-path="url(#p0198574c5c)" style="fill: #39c5bb; opacity: 0.15; stroke: #39c5bb; stroke-width: 2.5; stroke-linejoin: miter"/>
   </g>
   <g id="line2d_1">
    <path d="M 313.199794 482.564066 
L 313.199794 129.225939 
" clip-path="url(#p0198574c5c)" style="fill: none; stroke-dasharray: 7.4,3.2; stroke-dashoffset: 0; stroke: #e12885; stroke-width: 2"/>
   </g>
   <g id="line2d_2">
    <path d="M 297.899805 482.564066 
L 297.899805 467.264077 
L 313.199794 467.264077 
" clip-path="url(#p0198574c5c)" style="fill: none; stroke: #e12885; stroke-width: 1.5; stroke-linecap: square"/>
   </g>
   <g id="line2d_3">
    <defs>
     <path id="m857fc2dcce" d="M 0 3 
C 0.795609 3 1.55874 2.683901 2.12132 2.12132 
C 2.683901 1.55874 3 0.795609 3 0 
C 3 -0.795609 2.683901 -1.55874 2.12132 -2.12132 
C 1.55874 -2.683901 0.795609 -3 0 -3 
C -0.795609 -3 -1.55874 -2.683901 -2.12132 -2.12132 
C -2.683901 -1.55874 -3 -0.795609 -3 0 
C -3 0.795609 -2.683901 1.55874 -2.12132 2.12132 
C -1.55874 2.683901 -0.795609 3 0 3 
z
" style="stroke: #e12885"/>
    </defs>
    <g clip-path="url(#p0198574c5c)">
     <use xlink:href="#m857fc2dcce" x="313.199794" y="482.564066" style="fill: #e12885; stroke: #e12885"/>
    </g>
   </g>
   <g id="line2d_4">
    <defs>
     <path id="m2f212c7e88" d="M 0 4 
C 1.060812 4 2.078319 3.578535 2.828427 2.828427 
C 3.578535 2.078319 4 1.060812 4 0 
C 4 -1.060812 3.578535 -2.078319 2.828427 -2.828427 
C 2.078319 -3.578535 1.060812 -4 0 -4 
C -1.060812 -4 -2.078319 -3.578535 -2.828427 -2.828427 
C -3.578535 -2.078319 -4 -1.060812 -4 0 
C -4 1.060812 -3.578535 2.078319 -2.828427 2.828427 
C -2.078319 3.578535 -1.060812 4 0 4 
z
" style="stroke: #374151"/>
    </defs>
    <g clip-path="url(#p0198574c5c)">
     <use xlink:href="#m2f212c7e88" x="313.199794" y="364.784691" style="fill: #374151; stroke: #374151"/>
    </g>
   </g>
   <g id="line2d_5">
    <path d="M 430.97917 364.784691 
L 430.742042 357.314661 
L 430.031613 349.874711 
L 428.850743 342.494797 
L 427.204188 335.204638 
L 425.098577 328.033586 
L 422.54239 321.010519 
L 419.545918 314.163714 
L 416.121228 307.520743 
L 412.28211 301.108353 
L 408.044023 294.952365 
L 403.424031 289.077567 
L 398.440737 283.507616 
L 393.114209 278.264938 
L 387.465894 273.370645 
L 381.518535 268.844444 
L 375.296081 264.70456 
L 368.823587 260.967664 
L 362.127115 257.648802 
L 355.233631 254.761339 
L 348.170891 252.316901 
L 340.967335 250.325331 
L 333.651968 248.794648 
L 326.254248 247.731017 
L 318.803963 247.138719 
L 311.331111 247.02014 
L 303.865784 247.375757 
L 296.438041 248.204139 
L 289.077793 249.50195 
L 281.814675 251.263963 
L 274.677934 253.483084 
L 267.696307 256.150378 
L 260.897906 259.255103 
L 254.310106 262.784759 
L 247.959435 266.725133 
L 241.871463 271.060358 
L 236.070706 275.772978 
L 230.58052 280.844016 
L 225.423013 286.253054 
L 220.618951 291.978311 
L 216.187681 297.996734 
L 212.147043 304.284088 
L 208.51331 310.815057 
L 205.301112 317.563343 
L 202.523384 324.501772 
L 200.191311 331.602406 
L 198.314283 338.836654 
L 196.899858 346.175385 
L 195.953733 353.589049 
L 195.479715 361.047794 
L 195.479715 368.521587 
L 195.953733 375.980332 
L 196.899858 383.393996 
L 198.314283 390.732728 
L 200.191311 397.966975 
L 202.523384 405.06761 
L 205.301112 412.006039 
L 208.51331 418.754324 
L 212.147043 425.285293 
L 216.187681 431.572647 
L 220.618951 437.59107 
L 225.423013 443.316327 
L 230.58052 448.725365 
L 236.070706 453.796404 
L 241.871463 458.509024 
L 247.959435 462.844248 
L 254.310106 466.784622 
L 260.897906 470.314278 
L 267.696307 473.419004 
L 274.677934 476.086297 
L 281.814675 478.305418 
L 289.077793 480.067432 
L 296.438041 481.365242 
L 303.865784 482.193624 
L 311.331111 482.549241 
L 318.803963 482.430662 
L 326.254248 481.838365 
L 333.651968 480.774733 
L 340.967335 479.244051 
L 348.170891 477.252481 
L 355.233631 474.808043 
L 362.127115 471.920579 
L 368.823587 468.601718 
L 375.296081 464.864821 
L 381.518535 460.724938 
L 387.465894 456.198737 
L 393.114209 451.304444 
L 398.440737 446.061766 
L 403.424031 440.491814 
L 408.044023 434.617016 
L 412.28211 428.461029 
L 416.121228 422.048639 
L 419.545918 415.405667 
L 422.54239 408.558863 
L 425.098577 401.535795 
L 427.204188 394.364744 
L 428.850743 387.074584 
L 430.031613 379.694671 
L 430.742042 372.25472 
L 430.97917 364.784691 
" clip-path="url(#p0198574c5c)" style="fill: none; stroke: #1f2937; stroke-width: 2; stroke-linecap: square"/>
   </g>
   <g id="line2d_6">
    <path d="M 313.199794 364.784691 
L 313.199794 482.564066 
" clip-path="url(#p0198574c5c)" style="fill: none; stroke: #1f2937; stroke-width: 1.5; stroke-linecap: square"/>
   </g>
   <g id="line2d_7">
    <path d="M 548.758546 364.784691 
L 548.28429 349.844631 
L 546.863432 334.96473 
L 544.501692 320.204904 
L 541.208582 305.624584 
L 536.997361 291.282482 
L 531.884985 277.236347 
L 525.892042 263.542738 
L 519.042663 250.256795 
L 511.364426 237.432015 
L 502.888251 225.120039 
L 493.648267 213.370444 
L 483.681681 202.23054 
L 473.028624 191.745185 
L 461.731993 181.956599 
L 449.837276 172.904196 
L 437.392367 164.624429 
L 424.447379 157.150637 
L 411.054436 150.512914 
L 397.267467 144.737987 
L 383.141987 139.849111 
L 368.734875 135.865971 
L 354.104142 132.804606 
L 339.308702 130.677343 
L 324.408131 129.492747 
L 309.462428 129.25559 
L 294.531773 129.966824 
L 279.676289 131.623588 
L 264.955791 134.219209 
L 250.429555 137.743235 
L 236.156073 142.181478 
L 222.192819 147.516065 
L 208.596017 153.725516 
L 195.420419 160.784828 
L 182.719076 168.665575 
L 170.543133 177.336025 
L 158.941617 186.761265 
L 147.961246 196.903342 
L 137.646231 207.721417 
L 128.038109 219.171932 
L 119.175567 231.208777 
L 111.094293 243.783486 
L 103.826826 256.845423 
L 97.40243 270.341994 
L 91.846974 284.218853 
L 87.182827 298.420121 
L 83.428772 312.888617 
L 80.599923 327.566079 
L 78.707671 342.393408 
L 77.759637 357.310898 
L 77.759637 372.258483 
L 78.707671 387.175974 
L 80.599923 402.003302 
L 83.428772 416.680765 
L 87.182827 431.14926 
L 91.846974 445.350529 
L 97.40243 459.227387 
L 103.826826 472.723958 
L 111.094293 485.785896 
L 119.175567 498.360604 
L 128.038109 510.39745 
L 137.646231 521.847964 
L 147.961246 532.66604 
L 158.941617 542.808117 
L 170.543133 552.233356 
L 182.719076 560.903806 
L 195.420419 568.784554 
L 208.596017 575.843865 
L 222.192819 582.053317 
L 236.156073 587.387904 
L 250.429555 591.826146 
L 254.295433 592.763998 
M 372.132752 592.763998 
L 383.141987 589.72027 
L 397.267467 584.831394 
L 411.054436 579.056468 
L 424.447379 572.418744 
L 437.392367 564.944952 
L 449.837276 556.665185 
L 461.731993 547.612783 
L 473.028624 537.824196 
L 483.681681 527.338841 
L 493.648267 516.198937 
L 502.888251 504.449342 
L 511.364426 492.137367 
L 519.042663 479.312587 
L 525.892042 466.026644 
L 531.884985 452.333035 
L 536.997361 438.2869 
L 541.208582 423.944797 
L 544.501692 409.364478 
L 546.863432 394.604651 
L 548.28429 379.72475 
L 548.758546 364.784691 
" clip-path="url(#p0198574c5c)" style="fill: none; stroke-dasharray: 7.4,3.2; stroke-dashoffset: 0; stroke: #4b5563; stroke-width: 2"/>
   </g>
   <g id="line2d_8">
    <path d="M 313.199794 364.784691 
L 313.199794 129.225939 
" clip-path="url(#p0198574c5c)" style="fill: none; stroke: #4b5563; stroke-width: 1.5; stroke-linecap: square"/>
   </g>
   <g id="line2d_9">
    <defs>
     <path id="mbb60a8f98a" d="M 0 4 
C 1.060812 4 2.078319 3.578535 2.828427 2.828427 
C 3.578535 2.078319 4 1.060812 4 0 
C 4 -1.060812 3.578535 -2.078319 2.828427 -2.828427 
C 2.078319 -3.578535 1.060812 -4 0 -4 
C -1.060812 -4 -2.078319 -3.578535 -2.828427 -2.828427 
C -3.578535 -2.078319 -4 -1.060812 -4 0 
C -4 1.060812 -3.578535 2.078319 -2.828427 2.828427 
C -2.078319 3.578535 -1.060812 4 0 4 
z
" style="stroke: #39c5bb"/>
    </defs>
    <g clip-path="url(#p0198574c5c)">
     <use xlink:href="#mbb60a8f98a" x="109.199931" y="482.564066" style="fill: #39c5bb; stroke: #39c5bb"/>
    </g>
   </g>
   <g id="line2d_10">
    <g clip-path="url(#p0198574c5c)">
     <use xlink:href="#mbb60a8f98a" x="517.199657" y="482.564066" style="fill: #39c5bb; stroke: #39c5bb"/>
    </g>
   </g>
   <g id="line2d_11">
    <g clip-path="url(#p0198574c5c)">
     <use xlink:href="#mbb60a8f98a" x="313.199794" y="129.225939" style="fill: #39c5bb; stroke: #39c5bb"/>
    </g>
   </g>
   <g id="text_1">
    <!-- M -->
    <g style="fill: #2c2f33" transform="translate(308.260966 508.064049) scale(0.11 -0.11)">
     <defs>
      <path id="SegoeUI-4d" d="M 5156 0 
L 4634 0 
L 4634 3006 
Q 4634 3363 4678 3878 
L 4666 3878 
Q 4591 3575 4531 3444 
L 3000 0 
L 2744 0 
L 1216 3419 
Q 1150 3569 1081 3878 
L 1069 3878 
Q 1094 3609 1094 3000 
L 1094 0 
L 588 0 
L 588 4481 
L 1281 4481 
L 2656 1356 
Q 2816 997 2863 819 
L 2881 819 
Q 3016 1188 3097 1369 
L 4500 4481 
L 5156 4481 
L 5156 0 
z
" transform="scale(0.015625)"/>
     </defs>
     <use xlink:href="#SegoeUI-4d"/>
    </g>
   </g>
   <g id="text_2">
    <!-- G -->
    <g style="fill: #2c2f33" transform="translate(328.499784 354.584698) scale(0.11 -0.11)">
     <defs>
      <path id="SegoeUI-Bold-47" d="M 4191 300 
Q 3534 -78 2559 -78 
Q 1478 -78 854 520 
Q 231 1119 231 2169 
Q 231 3225 912 3890 
Q 1594 4556 2725 4556 
Q 3438 4556 3981 4359 
L 3981 3413 
Q 3463 3713 2713 3713 
Q 2084 3713 1689 3305 
Q 1294 2897 1294 2216 
Q 1294 1525 1648 1147 
Q 2003 769 2606 769 
Q 2969 769 3181 872 
L 3181 1747 
L 2284 1747 
L 2284 2553 
L 4191 2553 
L 4191 300 
z
" transform="scale(0.015625)"/>
     </defs>
     <use xlink:href="#SegoeUI-Bold-47"/>
    </g>
   </g>
   <g id="text_3">
    <!-- r -->
    <g style="fill: #1f2937" transform="translate(323.399787 423.674379) scale(0.11 -0.11)">
     <defs>
      <path id="SegoeUI-Bold-72" d="M 2503 2309 
Q 2325 2406 2088 2406 
Q 1766 2406 1584 2170 
Q 1403 1934 1403 1528 
L 1403 0 
L 416 0 
L 416 3200 
L 1403 3200 
L 1403 2606 
L 1416 2606 
Q 1650 3256 2259 3256 
Q 2416 3256 2503 3219 
L 2503 2309 
z
" transform="scale(0.015625)"/>
     </defs>
     <use xlink:href="#SegoeUI-Bold-72"/>
    </g>
   </g>
   <g id="text_4">
    <!-- R -->
    <g style="fill: #4b5563" transform="translate(338.699777 247.005315) scale(0.11 -0.11)">
     <defs>
      <path id="SegoeUI-Bold-52" d="M 4272 0 
L 3113 0 
L 2416 1153 
Q 2338 1284 2266 1387 
Q 2194 1491 2120 1564 
Q 2047 1638 1967 1677 
Q 1888 1716 1794 1716 
L 1522 1716 
L 1522 0 
L 513 0 
L 513 4481 
L 2113 4481 
Q 3744 4481 3744 3263 
Q 3744 3028 3672 2829 
Q 3600 2631 3469 2472 
Q 3338 2313 3152 2197 
Q 2966 2081 2738 2016 
L 2738 2003 
Q 2838 1972 2931 1901 
Q 3025 1831 3112 1737 
Q 3200 1644 3279 1536 
Q 3359 1428 3425 1325 
L 4272 0 
z
M 1522 3725 
L 1522 2478 
L 1959 2478 
Q 2284 2478 2481 2666 
Q 2681 2856 2681 3138 
Q 2681 3725 1978 3725 
L 1522 3725 
z
" transform="scale(0.015625)"/>
     </defs>
     <use xlink:href="#SegoeUI-Bold-52"/>
    </g>
   </g>
   <g id="text_5">
    <!-- A -->
    <g style="fill: #2c2f33" transform="translate(83.699949 502.964053) scale(0.12 -0.12)">
     <defs>
      <path id="SegoeUI-Bold-41" d="M 4453 0 
L 3353 0 
L 3034 997 
L 1441 997 
L 1125 0 
L 31 0 
L 1663 4481 
L 2859 4481 
L 4453 0 
z
M 2803 1772 
L 2322 3278 
Q 2269 3447 2247 3681 
L 2222 3681 
Q 2206 3484 2144 3291 
L 1656 1772 
L 2803 1772 
z
" transform="scale(0.015625)"/>
     </defs>
     <use xlink:href="#SegoeUI-Bold-41"/>
    </g>
   </g>
   <g id="text_6">
    <!-- B -->
    <g style="fill: #2c2f33" transform="translate(532.499647 502.964053) scale(0.12 -0.12)">
     <defs>
      <path id="SegoeUI-Bold-42" d="M 513 0 
L 513 4481 
L 2144 4481 
Q 2894 4481 3297 4206 
Q 3700 3931 3700 3431 
Q 3700 3069 3454 2797 
Q 3209 2525 2828 2419 
L 2828 2406 
Q 3306 2347 3592 2053 
Q 3878 1759 3878 1338 
Q 3878 722 3437 361 
Q 2997 0 2234 0 
L 513 0 
z
M 1522 3738 
L 1522 2675 
L 1966 2675 
Q 2278 2675 2458 2826 
Q 2638 2978 2638 3244 
Q 2638 3738 1900 3738 
L 1522 3738 
z
M 1522 1925 
L 1522 744 
L 2069 744 
Q 2419 744 2617 906 
Q 2816 1069 2816 1350 
Q 2816 1619 2620 1772 
Q 2425 1925 2075 1925 
L 1522 1925 
z
" transform="scale(0.015625)"/>
     </defs>
     <use xlink:href="#SegoeUI-Bold-42"/>
    </g>
   </g>
   <g id="text_7">
    <!-- C -->
    <g style="fill: #2c2f33" transform="translate(313.199794 108.825953) scale(0.12 -0.12)">
     <defs>
      <path id="SegoeUI-Bold-43" d="M 3725 159 
Q 3234 -78 2444 -78 
Q 1413 -78 822 528 
Q 231 1134 231 2144 
Q 231 3219 895 3887 
Q 1559 4556 2619 4556 
Q 3275 4556 3725 4391 
L 3725 3419 
Q 3275 3688 2700 3688 
Q 2069 3688 1681 3291 
Q 1294 2894 1294 2216 
Q 1294 1566 1659 1180 
Q 2025 794 2644 794 
Q 3234 794 3725 1081 
L 3725 159 
z
" transform="scale(0.015625)"/>
     </defs>
     <use xlink:href="#SegoeUI-Bold-43"/>
    </g>
   </g>
   <g id="text_8">
    <!-- L -->
    <g style="fill: #39c5bb" transform="translate(309.876669 523.364039) scale(0.13 -0.13)">
     <defs>
      <path id="SegoeUI-Bold-4c" d="M 3181 0 
L 513 0 
L 513 4481 
L 1522 4481 
L 1522 819 
L 3181 819 
L 3181 0 
z
" transform="scale(0.015625)"/>
     </defs>
     <use xlink:href="#SegoeUI-Bold-4c"/>
    </g>
   </g>
   <g id="text_9">
    <!-- h -->
    <g style="fill: #e12885" transform="translate(333.599781 305.895003) scale(0.13 -0.13)">
     <defs>
      <path id="SegoeUI-Bold-68" d="M 3488 0 
L 2503 0 
L 2503 1819 
Q 2503 2522 1991 2522 
Q 1728 2522 1565 2325 
Q 1403 2128 1403 1825 
L 1403 0 
L 416 0 
L 416 4738 
L 1403 4738 
L 1403 2725 
L 1416 2725 
Q 1778 3278 2400 3278 
Q 3488 3278 3488 1966 
L 3488 0 
z
" transform="scale(0.015625)"/>
     </defs>
     <use xlink:href="#SegoeUI-Bold-68"/>
    </g>
   </g>
   <g id="text_10">
    <g id="patch_3">
     <path d="M 568.199623 184.964272 
L 609.359623 184.964272 
Q 612.959623 184.964272 612.959623 181.364272 
L 612.959623 161.804272 
Q 612.959623 158.204272 609.359623 158.204272 
L 568.199623 158.204272 
Q 564.599623 158.204272 564.599623 161.804272 
L 564.599623 181.364272 
Q 564.599623 184.964272 568.199623 184.964272 
z
" style="fill: #ffffff; opacity: 0.9; stroke: #d1d5db; stroke-linejoin: miter"/>
    </g>
    <!-- $h = \frac{L\sqrt{3}}{2}$ -->
    <g style="fill: #1f2937" transform="translate(568.199623 176.564272) scale(0.12 -0.12)">
     <defs>
      <path id="DejaVuSans-Oblique-68" d="M 3566 2113 
L 3156 0 
L 2578 0 
L 2988 2091 
Q 3016 2238 3031 2350 
Q 3047 2463 3047 2528 
Q 3047 2791 2881 2937 
Q 2716 3084 2419 3084 
Q 1956 3084 1617 2771 
Q 1278 2459 1178 1941 
L 800 0 
L 225 0 
L 1172 4863 
L 1747 4863 
L 1375 2950 
Q 1594 3244 1934 3414 
Q 2275 3584 2650 3584 
Q 3113 3584 3367 3334 
Q 3622 3084 3622 2631 
Q 3622 2519 3608 2391 
Q 3594 2263 3566 2113 
z
" transform="scale(0.015625)"/>
      <path id="DejaVuSans-3d" d="M 678 2906 
L 4684 2906 
L 4684 2381 
L 678 2381 
L 678 2906 
z
M 678 1631 
L 4684 1631 
L 4684 1100 
L 678 1100 
L 678 1631 
z
" transform="scale(0.015625)"/>
      <path id="DejaVuSans-Oblique-4c" d="M 1075 4666 
L 1709 4666 
L 909 525 
L 3181 525 
L 3078 0 
L 172 0 
L 1075 4666 
z
" transform="scale(0.015625)"/>
      <path id="STIXSizeOneSym-Regular-221a" d="M 6970 9933 
L 3373 -1888 
L 3104 -1888 
L 1626 2918 
Q 1555 3149 1465 3251 
Q 1376 3354 1229 3354 
Q 1011 3354 794 3181 
L 717 3309 
L 1766 4115 
L 1926 4115 
L 3379 -602 
L 3405 -602 
L 6605 9933 
L 6970 9933 
z
" transform="scale(0.015625)"/>
      <path id="DejaVuSans-33" d="M 2597 2516 
Q 3050 2419 3304 2112 
Q 3559 1806 3559 1356 
Q 3559 666 3084 287 
Q 2609 -91 1734 -91 
Q 1441 -91 1130 -33 
Q 819 25 488 141 
L 488 750 
Q 750 597 1062 519 
Q 1375 441 1716 441 
Q 2309 441 2620 675 
Q 2931 909 2931 1356 
Q 2931 1769 2642 2001 
Q 2353 2234 1838 2234 
L 1294 2234 
L 1294 2753 
L 1863 2753 
Q 2328 2753 2575 2939 
Q 2822 3125 2822 3475 
Q 2822 3834 2567 4026 
Q 2313 4219 1838 4219 
Q 1578 4219 1281 4162 
Q 984 4106 628 3988 
L 628 4550 
Q 988 4650 1302 4700 
Q 1616 4750 1894 4750 
Q 2613 4750 3031 4423 
Q 3450 4097 3450 3541 
Q 3450 3153 3228 2886 
Q 3006 2619 2597 2516 
z
" transform="scale(0.015625)"/>
      <path id="DejaVuSans-32" d="M 1228 531 
L 3431 531 
L 3431 0 
L 469 0 
L 469 531 
Q 828 903 1448 1529 
Q 2069 2156 2228 2338 
Q 2531 2678 2651 2914 
Q 2772 3150 2772 3378 
Q 2772 3750 2511 3984 
Q 2250 4219 1831 4219 
Q 1534 4219 1204 4116 
Q 875 4013 500 3803 
L 500 4441 
Q 881 4594 1212 4672 
Q 1544 4750 1819 4750 
Q 2544 4750 2975 4387 
Q 3406 4025 3406 3419 
Q 3406 3131 3298 2873 
Q 3191 2616 2906 2266 
Q 2828 2175 2409 1742 
Q 1991 1309 1228 531 
z
" transform="scale(0.015625)"/>
     </defs>
     <use xlink:href="#DejaVuSans-Oblique-68" transform="translate(0 0.015625)"/>
     <use xlink:href="#DejaVuSans-3d" transform="translate(82.861328 0.015625)"/>
     <use xlink:href="#DejaVuSans-Oblique-4c" transform="translate(186.132812 44.807813) scale(0.7)"/>
     <use xlink:href="#STIXSizeOneSym-Regular-221a" transform="translate(225.131836 55.789063) scale(0.405101)"/>
     <use xlink:href="#DejaVuSans-33" transform="translate(276.703548 44.671875) scale(0.7)"/>
     <use xlink:href="#DejaVuSans-32" transform="translate(236.132812 -39.390625) scale(0.7)"/>
     <path d="M 267.953548 114.25 
L 267.953548 118.625 
L 329.98968 118.625 
L 329.98968 114.25 
L 267.953548 114.25 
z
"/>
     <path d="M 186.132812 18.8125 
L 186.132812 25.0625 
L 329.98968 25.0625 
L 329.98968 18.8125 
L 186.132812 18.8125 
z
"/>
    </g>
   </g>
   <g id="text_11">
    <g id="patch_4">
     <path d="M 568.199623 235.844238 
L 614.519623 235.844238 
Q 618.119623 235.844238 618.119623 232.244238 
L 618.119623 212.804238 
Q 618.119623 209.204238 614.519623 209.204238 
L 568.199623 209.204238 
Q 564.599623 209.204238 564.599623 212.804238 
L 564.599623 232.244238 
Q 564.599623 235.844238 568.199623 235.844238 
z
" style="fill: #ffffff; opacity: 0.9; stroke: #d1d5db; stroke-linejoin: miter"/>
    </g>
    <!-- $A = \frac{L^2\sqrt{3}}{4}$ -->
    <g style="fill: #1f2937" transform="translate(568.199623 227.564238) scale(0.12 -0.12)">
     <defs>
      <path id="DejaVuSans-Oblique-41" d="M 2356 4666 
L 3072 4666 
L 3938 0 
L 3278 0 
L 3084 1197 
L 984 1197 
L 325 0 
L -341 0 
L 2356 4666 
z
M 2584 4044 
L 1275 1722 
L 2988 1722 
L 2584 4044 
z
" transform="scale(0.015625)"/>
      <path id="DejaVuSans-34" d="M 2419 4116 
L 825 1625 
L 2419 1625 
L 2419 4116 
z
M 2253 4666 
L 3047 4666 
L 3047 1625 
L 3713 1625 
L 3713 1100 
L 3047 1100 
L 3047 0 
L 2419 0 
L 2419 1100 
L 313 1100 
L 313 1709 
L 2253 4666 
z
" transform="scale(0.015625)"/>
     </defs>
     <use xlink:href="#DejaVuSans-Oblique-41" transform="translate(0 0.015625)"/>
     <use xlink:href="#DejaVuSans-3d" transform="translate(87.890625 0.015625)"/>
     <use xlink:href="#DejaVuSans-Oblique-4c" transform="translate(191.162109 44.807813) scale(0.7)"/>
     <use xlink:href="#DejaVuSans-32" transform="translate(235.072872 71.604688) scale(0.49)"/>
     <use xlink:href="#STIXSizeOneSym-Regular-221a" transform="translate(268.162228 55.789063) scale(0.405101)"/>
     <use xlink:href="#DejaVuSans-33" transform="translate(319.73394 44.671875) scale(0.7)"/>
     <use xlink:href="#DejaVuSans-34" transform="translate(260.162109 -38.471875) scale(0.7)"/>
     <path d="M 310.98394 114.25 
L 310.98394 118.625 
L 373.020072 118.625 
L 373.020072 114.25 
L 310.98394 114.25 
z
"/>
     <path d="M 191.162109 18.8125 
L 191.162109 25.0625 
L 373.020072 25.0625 
L 373.020072 18.8125 
L 191.162109 18.8125 
z
"/>
    </g>
   </g>
   <g id="text_12">
    <g id="patch_5">
     <path d="M 568.199623 287.084204 
L 606.719623 287.084204 
Q 610.319623 287.084204 610.319623 283.484204 
L 610.319623 263.804204 
Q 610.319623 260.204204 606.719623 260.204204 
L 568.199623 260.204204 
Q 564.599623 260.204204 564.599623 263.804204 
L 564.599623 283.484204 
Q 564.599623 287.084204 568.199623 287.084204 
z
" style="fill: #ffffff; opacity: 0.9; stroke: #d1d5db; stroke-linejoin: miter"/>
    </g>
    <!-- $r = \frac{L\sqrt{3}}{6}$ -->
    <g style="fill: #1f2937" transform="translate(568.199623 278.564204) scale(0.12 -0.12)">
     <defs>
      <path id="DejaVuSans-Oblique-72" d="M 2853 2969 
Q 2766 3016 2653 3041 
Q 2541 3066 2413 3066 
Q 1953 3066 1609 2717 
Q 1266 2369 1153 1784 
L 800 0 
L 225 0 
L 909 3500 
L 1484 3500 
L 1375 2956 
Q 1603 3259 1920 3421 
Q 2238 3584 2597 3584 
Q 2691 3584 2781 3573 
Q 2872 3563 2963 3538 
L 2853 2969 
z
" transform="scale(0.015625)"/>
      <path id="DejaVuSans-36" d="M 2113 2584 
Q 1688 2584 1439 2293 
Q 1191 2003 1191 1497 
Q 1191 994 1439 701 
Q 1688 409 2113 409 
Q 2538 409 2786 701 
Q 3034 994 3034 1497 
Q 3034 2003 2786 2293 
Q 2538 2584 2113 2584 
z
M 3366 4563 
L 3366 3988 
Q 3128 4100 2886 4159 
Q 2644 4219 2406 4219 
Q 1781 4219 1451 3797 
Q 1122 3375 1075 2522 
Q 1259 2794 1537 2939 
Q 1816 3084 2150 3084 
Q 2853 3084 3261 2657 
Q 3669 2231 3669 1497 
Q 3669 778 3244 343 
Q 2819 -91 2113 -91 
Q 1303 -91 875 529 
Q 447 1150 447 2328 
Q 447 3434 972 4092 
Q 1497 4750 2381 4750 
Q 2619 4750 2861 4703 
Q 3103 4656 3366 4563 
z
" transform="scale(0.015625)"/>
     </defs>
     <use xlink:href="#DejaVuSans-Oblique-72" transform="translate(0 0.015625)"/>
     <use xlink:href="#DejaVuSans-3d" transform="translate(60.595703 0.015625)"/>
     <use xlink:href="#DejaVuSans-Oblique-4c" transform="translate(163.867188 44.807813) scale(0.7)"/>
     <use xlink:href="#STIXSizeOneSym-Regular-221a" transform="translate(202.866211 55.789063) scale(0.405101)"/>
     <use xlink:href="#DejaVuSans-33" transform="translate(254.437923 44.671875) scale(0.7)"/>
     <use xlink:href="#DejaVuSans-36" transform="translate(213.867188 -39.390625) scale(0.7)"/>
     <path d="M 245.687923 114.25 
L 245.687923 118.625 
L 307.724055 118.625 
L 307.724055 114.25 
L 245.687923 114.25 
z
"/>
     <path d="M 163.867188 18.8125 
L 163.867188 25.0625 
L 307.724055 25.0625 
L 307.724055 18.8125 
L 163.867188 18.8125 
z
"/>
    </g>
   </g>
   <g id="text_13">
    <g id="patch_6">
     <path d="M 568.199623 338.084169 
L 610.079623 338.084169 
Q 613.679623 338.084169 613.679623 334.484169 
L 613.679623 314.804169 
Q 613.679623 311.204169 610.079623 311.204169 
L 568.199623 311.204169 
Q 564.599623 311.204169 564.599623 314.804169 
L 564.599623 334.484169 
Q 564.599623 338.084169 568.199623 338.084169 
z
" style="fill: #ffffff; opacity: 0.9; stroke: #d1d5db; stroke-linejoin: miter"/>
    </g>
    <!-- $R = \frac{L\sqrt{3}}{3}$ -->
    <g style="fill: #1f2937" transform="translate(568.199623 329.564169) scale(0.12 -0.12)">
     <defs>
      <path id="DejaVuSans-Oblique-52" d="M 1613 4147 
L 1294 2491 
L 2106 2491 
Q 2584 2491 2879 2755 
Q 3175 3019 3175 3444 
Q 3175 3784 2976 3965 
Q 2778 4147 2406 4147 
L 1613 4147 
z
M 2772 2241 
Q 2972 2194 3105 2009 
Q 3238 1825 3413 1275 
L 3809 0 
L 3144 0 
L 2778 1197 
Q 2638 1659 2453 1815 
Q 2269 1972 1888 1972 
L 1191 1972 
L 806 0 
L 172 0 
L 1081 4666 
L 2503 4666 
Q 3150 4666 3495 4373 
Q 3841 4081 3841 3531 
Q 3841 3044 3547 2687 
Q 3253 2331 2772 2241 
z
" transform="scale(0.015625)"/>
     </defs>
     <use xlink:href="#DejaVuSans-Oblique-52" transform="translate(0 0.015625)"/>
     <use xlink:href="#DejaVuSans-3d" transform="translate(88.964844 0.015625)"/>
     <use xlink:href="#DejaVuSans-Oblique-4c" transform="translate(192.236328 44.807813) scale(0.7)"/>
     <use xlink:href="#STIXSizeOneSym-Regular-221a" transform="translate(231.235352 55.789063) scale(0.405101)"/>
     <use xlink:href="#DejaVuSans-33" transform="translate(282.807063 44.671875) scale(0.7)"/>
     <use xlink:href="#DejaVuSans-33" transform="translate(242.236328 -39.390625) scale(0.7)"/>
     <path d="M 274.057063 114.25 
L 274.057063 118.625 
L 336.093196 118.625 
L 336.093196 114.25 
L 274.057063 114.25 
z
"/>
     <path d="M 192.236328 18.8125 
L 192.236328 25.0625 
L 336.093196 25.0625 
L 336.093196 18.8125 
L 192.236328 18.8125 
z
"/>
    </g>
   </g>
   <g id="text_14">
    <!-- Triángulo Equilátero - Elementos -->
    <g style="fill: #2c2f33" transform="translate(256.79351 17.564375) scale(0.14 -0.14)">
     <defs>
      <path id="SegoeUI-Bold-54" d="M 3659 3659 
L 2381 3659 
L 2381 0 
L 1369 0 
L 1369 3659 
L 97 3659 
L 97 4481 
L 3659 4481 
L 3659 3659 
z
" transform="scale(0.015625)"/>
      <path id="SegoeUI-Bold-69" d="M 916 3706 
Q 666 3706 506 3854 
Q 347 4003 347 4219 
Q 347 4441 506 4581 
Q 666 4722 916 4722 
Q 1169 4722 1326 4581 
Q 1484 4441 1484 4219 
Q 1484 3994 1326 3850 
Q 1169 3706 916 3706 
z
M 1403 0 
L 416 0 
L 416 3200 
L 1403 3200 
L 1403 0 
z
" transform="scale(0.015625)"/>
      <path id="SegoeUI-Bold-e1" d="M 3078 0 
L 2144 0 
L 2144 459 
L 2131 459 
Q 1809 -78 1178 -78 
Q 713 -78 445 186 
Q 178 450 178 891 
Q 178 1822 1281 1966 
L 2150 2081 
Q 2150 2606 1581 2606 
Q 1009 2606 494 2266 
L 494 3009 
Q 700 3116 1058 3197 
Q 1416 3278 1709 3278 
Q 3078 3278 3078 1913 
L 3078 0 
z
M 2150 1300 
L 2150 1516 
L 1569 1441 
Q 1088 1378 1088 1006 
Q 1088 838 1205 730 
Q 1322 622 1522 622 
Q 1800 622 1975 814 
Q 2150 1006 2150 1300 
z
M 2783 4716 
L 1804 3706 
L 1092 3706 
L 1904 4716 
L 2783 4716 
z
" transform="scale(0.015625)"/>
      <path id="SegoeUI-Bold-6e" d="M 3506 0 
L 2522 0 
L 2522 1778 
Q 2522 2522 1991 2522 
Q 1734 2522 1568 2325 
Q 1403 2128 1403 1825 
L 1403 0 
L 416 0 
L 416 3200 
L 1403 3200 
L 1403 2694 
L 1416 2694 
Q 1769 3278 2444 3278 
Q 3506 3278 3506 1959 
L 3506 0 
z
" transform="scale(0.015625)"/>
      <path id="SegoeUI-Bold-67" d="M 3553 366 
Q 3553 -525 3037 -1014 
Q 2522 -1503 1544 -1503 
Q 897 -1503 519 -1319 
L 519 -488 
Q 1013 -775 1516 -775 
Q 2016 -775 2291 -511 
Q 2566 -247 2566 206 
L 2566 459 
L 2553 459 
Q 2216 -78 1556 -78 
Q 944 -78 584 353 
Q 225 784 225 1509 
Q 225 2322 625 2800 
Q 1025 3278 1678 3278 
Q 2263 3278 2553 2828 
L 2566 2828 
L 2566 3200 
L 3553 3200 
L 3553 366 
z
M 2578 1538 
L 2578 1791 
Q 2578 2094 2398 2308 
Q 2219 2522 1931 2522 
Q 1603 2522 1415 2265 
Q 1228 2009 1228 1544 
Q 1228 1144 1406 911 
Q 1584 678 1894 678 
Q 2200 678 2389 914 
Q 2578 1150 2578 1538 
z
" transform="scale(0.015625)"/>
      <path id="SegoeUI-Bold-75" d="M 3456 0 
L 2472 0 
L 2472 488 
L 2456 488 
Q 2091 -78 1478 -78 
Q 366 -78 366 1269 
L 366 3200 
L 1350 3200 
L 1350 1356 
Q 1350 678 1888 678 
Q 2153 678 2312 864 
Q 2472 1050 2472 1369 
L 2472 3200 
L 3456 3200 
L 3456 0 
z
" transform="scale(0.015625)"/>
      <path id="SegoeUI-Bold-6c" d="M 1403 0 
L 416 0 
L 416 4738 
L 1403 4738 
L 1403 0 
z
" transform="scale(0.015625)"/>
      <path id="SegoeUI-Bold-6f" d="M 1941 -78 
Q 1141 -78 683 370 
Q 225 819 225 1588 
Q 225 2381 700 2829 
Q 1175 3278 1984 3278 
Q 2781 3278 3234 2829 
Q 3688 2381 3688 1644 
Q 3688 847 3220 384 
Q 2753 -78 1941 -78 
z
M 1966 2522 
Q 1616 2522 1422 2281 
Q 1228 2041 1228 1600 
Q 1228 678 1972 678 
Q 2681 678 2681 1625 
Q 2681 2522 1966 2522 
z
" transform="scale(0.015625)"/>
      <path id="SegoeUI-Bold-20" transform="scale(0.015625)"/>
      <path id="SegoeUI-Bold-45" d="M 3200 0 
L 513 0 
L 513 4481 
L 3097 4481 
L 3097 3659 
L 1522 3659 
L 1522 2663 
L 2988 2663 
L 2988 1844 
L 1522 1844 
L 1522 819 
L 3200 819 
L 3200 0 
z
" transform="scale(0.015625)"/>
      <path id="SegoeUI-Bold-71" d="M 3547 -1472 
L 2559 -1472 
L 2559 441 
L 2547 441 
Q 2213 -78 1563 -78 
Q 959 -78 592 342 
Q 225 763 225 1522 
Q 225 2322 628 2800 
Q 1031 3278 1678 3278 
Q 2266 3278 2547 2828 
L 2559 2828 
L 2559 3200 
L 3547 3200 
L 3547 -1472 
z
M 2578 1528 
L 2578 1784 
Q 2578 2097 2397 2309 
Q 2216 2522 1931 2522 
Q 1603 2522 1415 2264 
Q 1228 2006 1228 1550 
Q 1228 1141 1411 909 
Q 1594 678 1888 678 
Q 2200 678 2389 912 
Q 2578 1147 2578 1528 
z
" transform="scale(0.015625)"/>
      <path id="SegoeUI-Bold-74" d="M 2350 38 
Q 2131 -78 1691 -78 
Q 647 -78 647 1006 
L 647 2472 
L 128 2472 
L 128 3200 
L 647 3200 
L 647 3891 
L 1631 4172 
L 1631 3200 
L 2350 3200 
L 2350 2472 
L 1631 2472 
L 1631 1178 
Q 1631 678 2028 678 
Q 2184 678 2350 769 
L 2350 38 
z
" transform="scale(0.015625)"/>
      <path id="SegoeUI-Bold-65" d="M 3291 1319 
L 1203 1319 
Q 1253 622 2081 622 
Q 2609 622 3009 872 
L 3009 159 
Q 2566 -78 1856 -78 
Q 1081 -78 653 351 
Q 225 781 225 1550 
Q 225 2347 687 2812 
Q 1150 3278 1825 3278 
Q 2525 3278 2908 2862 
Q 3291 2447 3291 1734 
L 3291 1319 
z
M 2375 1925 
Q 2375 2613 1819 2613 
Q 1581 2613 1407 2416 
Q 1234 2219 1197 1925 
L 2375 1925 
z
" transform="scale(0.015625)"/>
      <path id="SegoeUI-Bold-2d" d="M 2156 1363 
L 447 1363 
L 447 2053 
L 2156 2053 
L 2156 1363 
z
" transform="scale(0.015625)"/>
      <path id="SegoeUI-Bold-6d" d="M 5497 0 
L 4513 0 
L 4513 1825 
Q 4513 2522 4000 2522 
Q 3756 2522 3603 2312 
Q 3450 2103 3450 1791 
L 3450 0 
L 2463 0 
L 2463 1844 
Q 2463 2522 1959 2522 
Q 1706 2522 1554 2322 
Q 1403 2122 1403 1778 
L 1403 0 
L 416 0 
L 416 3200 
L 1403 3200 
L 1403 2700 
L 1416 2700 
Q 1569 2956 1845 3117 
Q 2122 3278 2450 3278 
Q 3128 3278 3378 2681 
Q 3744 3278 4453 3278 
Q 5497 3278 5497 1991 
L 5497 0 
z
" transform="scale(0.015625)"/>
      <path id="SegoeUI-Bold-73" d="M 206 84 
L 206 884 
Q 450 738 692 666 
Q 934 594 1150 594 
Q 1413 594 1564 666 
Q 1716 738 1716 884 
Q 1716 978 1647 1040 
Q 1578 1103 1470 1150 
Q 1363 1197 1234 1234 
Q 1106 1272 988 1319 
Q 797 1391 651 1473 
Q 506 1556 407 1665 
Q 309 1775 257 1919 
Q 206 2063 206 2259 
Q 206 2528 323 2722 
Q 441 2916 636 3039 
Q 831 3163 1082 3220 
Q 1334 3278 1606 3278 
Q 1819 3278 2037 3245 
Q 2256 3213 2469 3150 
L 2469 2388 
Q 2281 2497 2067 2551 
Q 1853 2606 1647 2606 
Q 1550 2606 1464 2589 
Q 1378 2572 1312 2539 
Q 1247 2506 1209 2454 
Q 1172 2403 1172 2338 
Q 1172 2250 1228 2187 
Q 1284 2125 1375 2079 
Q 1466 2034 1577 1998 
Q 1688 1963 1797 1925 
Q 1994 1856 2153 1775 
Q 2313 1694 2427 1584 
Q 2541 1475 2602 1328 
Q 2663 1181 2663 978 
Q 2663 694 2539 492 
Q 2416 291 2211 164 
Q 2006 38 1739 -20 
Q 1472 -78 1184 -78 
Q 656 -78 206 84 
z
" transform="scale(0.015625)"/>
     </defs>
     <use xlink:href="#SegoeUI-Bold-54"/>
     <use xlink:href="#SegoeUI-Bold-72" x="51.09375"/>
     <use xlink:href="#SegoeUI-Bold-69" x="91.263672"/>
     <use xlink:href="#SegoeUI-Bold-e1" x="119.681641"/>
     <use xlink:href="#SegoeUI-Bold-6e" x="173.490234"/>
     <use xlink:href="#SegoeUI-Bold-67" x="233.988281"/>
     <use xlink:href="#SegoeUI-Bold-75" x="295.902344"/>
     <use xlink:href="#SegoeUI-Bold-6c" x="356.400391"/>
     <use xlink:href="#SegoeUI-Bold-6f" x="384.818359"/>
     <use xlink:href="#SegoeUI-Bold-20" x="445.951172"/>
     <use xlink:href="#SegoeUI-Bold-45" x="473.539062"/>
     <use xlink:href="#SegoeUI-Bold-71" x="526.761719"/>
     <use xlink:href="#SegoeUI-Bold-75" x="588.675781"/>
     <use xlink:href="#SegoeUI-Bold-69" x="649.173828"/>
     <use xlink:href="#SegoeUI-Bold-6c" x="677.591797"/>
     <use xlink:href="#SegoeUI-Bold-e1" x="706.009766"/>
     <use xlink:href="#SegoeUI-Bold-74" x="759.818359"/>
     <use xlink:href="#SegoeUI-Bold-65" x="798.359375"/>
     <use xlink:href="#SegoeUI-Bold-72" x="852.460938"/>
     <use xlink:href="#SegoeUI-Bold-6f" x="891.880859"/>
     <use xlink:href="#SegoeUI-Bold-20" x="953.013672"/>
     <use xlink:href="#SegoeUI-Bold-2d" x="980.601562"/>
     <use xlink:href="#SegoeUI-Bold-20" x="1021.03125"/>
     <use xlink:href="#SegoeUI-Bold-45" x="1048.619141"/>
     <use xlink:href="#SegoeUI-Bold-6c" x="1101.841797"/>
     <use xlink:href="#SegoeUI-Bold-65" x="1130.259766"/>
     <use xlink:href="#SegoeUI-Bold-6d" x="1184.361328"/>
     <use xlink:href="#SegoeUI-Bold-65" x="1275.962891"/>
     <use xlink:href="#SegoeUI-Bold-6e" x="1330.064453"/>
     <use xlink:href="#SegoeUI-Bold-74" x="1390.5625"/>
     <use xlink:href="#SegoeUI-Bold-6f" x="1429.103516"/>
     <use xlink:href="#SegoeUI-Bold-73" x="1490.236328"/>
    </g>
   </g>
   <g id="legend_1">
    <g id="patch_7">
     <path d="M 14.2 75.67375 
L 125.209375 75.67375 
Q 127.209375 75.67375 127.209375 73.67375 
L 127.209375 30.564375 
Q 127.209375 28.564375 125.209375 28.564375 
L 14.2 28.564375 
Q 12.2 28.564375 12.2 30.564375 
L 12.2 73.67375 
Q 12.2 75.67375 14.2 75.67375 
z
" style="fill: #ffffff; opacity: 0.8; stroke: #cccccc; stroke-linejoin: miter"/>
    </g>
    <g id="line2d_12">
     <path d="M 16.2 36.4675 
L 26.2 36.4675 
L 36.2 36.4675 
" style="fill: none; stroke-dasharray: 7.4,3.2; stroke-dashoffset: 0; stroke: #e12885; stroke-width: 2"/>
    </g>
    <g id="text_15">
     <!-- Altura h = L·√3/2 -->
     <g style="fill: #2c2f33" transform="translate(44.2 39.9675) scale(0.1 -0.1)">
      <defs>
       <path id="SegoeUI-41" d="M 4056 0 
L 3475 0 
L 3000 1256 
L 1100 1256 
L 653 0 
L 69 0 
L 1788 4481 
L 2331 4481 
L 4056 0 
z
M 2828 1728 
L 2125 3638 
Q 2091 3731 2056 3938 
L 2044 3938 
Q 2013 3747 1972 3638 
L 1275 1728 
L 2828 1728 
z
" transform="scale(0.015625)"/>
       <path id="SegoeUI-6c" d="M 1031 0 
L 519 0 
L 519 4738 
L 1031 4738 
L 1031 0 
z
" transform="scale(0.015625)"/>
       <path id="SegoeUI-74" d="M 2003 31 
Q 1822 -69 1525 -69 
Q 684 -69 684 869 
L 684 2763 
L 134 2763 
L 134 3200 
L 684 3200 
L 684 3981 
L 1197 4147 
L 1197 3200 
L 2003 3200 
L 2003 2763 
L 1197 2763 
L 1197 959 
Q 1197 638 1306 500 
Q 1416 363 1669 363 
Q 1863 363 2003 469 
L 2003 31 
z
" transform="scale(0.015625)"/>
       <path id="SegoeUI-75" d="M 3106 0 
L 2594 0 
L 2594 506 
L 2581 506 
Q 2263 -75 1594 -75 
Q 450 -75 450 1288 
L 450 3200 
L 959 3200 
L 959 1369 
Q 959 356 1734 356 
Q 2109 356 2351 632 
Q 2594 909 2594 1356 
L 2594 3200 
L 3106 3200 
L 3106 0 
z
" transform="scale(0.015625)"/>
       <path id="SegoeUI-72" d="M 2188 2681 
Q 2053 2784 1800 2784 
Q 1472 2784 1251 2475 
Q 1031 2166 1031 1631 
L 1031 0 
L 519 0 
L 519 3200 
L 1031 3200 
L 1031 2541 
L 1044 2541 
Q 1153 2878 1378 3067 
Q 1603 3256 1881 3256 
Q 2081 3256 2188 3213 
L 2188 2681 
z
" transform="scale(0.015625)"/>
       <path id="SegoeUI-61" d="M 2809 0 
L 2297 0 
L 2297 500 
L 2284 500 
Q 1950 -75 1300 -75 
Q 822 -75 551 178 
Q 281 431 281 850 
Q 281 1747 1338 1894 
L 2297 2028 
Q 2297 2844 1638 2844 
Q 1059 2844 594 2450 
L 594 2975 
Q 1066 3275 1681 3275 
Q 2809 3275 2809 2081 
L 2809 0 
z
M 2297 1619 
L 1525 1513 
Q 1169 1463 987 1336 
Q 806 1209 806 888 
Q 806 653 973 504 
Q 1141 356 1419 356 
Q 1800 356 2048 623 
Q 2297 891 2297 1300 
L 2297 1619 
z
" transform="scale(0.015625)"/>
       <path id="SegoeUI-20" transform="scale(0.015625)"/>
       <path id="SegoeUI-68" d="M 3175 0 
L 2663 0 
L 2663 1844 
Q 2663 2844 1919 2844 
Q 1544 2844 1287 2555 
Q 1031 2266 1031 1813 
L 1031 0 
L 519 0 
L 519 4738 
L 1031 4738 
L 1031 2669 
L 1044 2669 
Q 1413 3275 2094 3275 
Q 3175 3275 3175 1972 
L 3175 0 
z
" transform="scale(0.015625)"/>
       <path id="SegoeUI-3d" d="M 3663 2325 
L 725 2325 
L 725 2738 
L 3663 2738 
L 3663 2325 
z
M 3663 994 
L 725 994 
L 725 1406 
L 3663 1406 
L 3663 994 
z
" transform="scale(0.015625)"/>
       <path id="SegoeUI-4c" d="M 2913 0 
L 588 0 
L 588 4481 
L 1113 4481 
L 1113 475 
L 2913 475 
L 2913 0 
z
" transform="scale(0.015625)"/>
       <path id="SegoeUI-b7" d="M 697 1594 
Q 553 1594 451 1697 
Q 350 1800 350 1944 
Q 350 2091 451 2194 
Q 553 2297 697 2297 
Q 844 2297 947 2194 
Q 1050 2091 1050 1944 
Q 1050 1800 947 1697 
Q 844 1594 697 1594 
z
" transform="scale(0.015625)"/>
       <path id="SegoeUI-221a" d="M 3481 4738 
L 2266 0 
L 1913 0 
L 916 2344 
L 384 2344 
L 384 2719 
L 1209 2719 
L 2069 653 
L 3113 4738 
L 3481 4738 
z
" transform="scale(0.015625)"/>
       <path id="SegoeUI-33" d="M 2978 1269 
Q 2978 966 2864 717 
Q 2750 469 2542 292 
Q 2334 116 2043 19 
Q 1753 -78 1403 -78 
Q 763 -78 384 166 
L 384 716 
Q 838 359 1422 359 
Q 1656 359 1845 418 
Q 2034 478 2170 590 
Q 2306 703 2379 862 
Q 2453 1022 2453 1222 
Q 2453 2100 1203 2100 
L 831 2100 
L 831 2534 
L 1184 2534 
Q 2291 2534 2291 3359 
Q 2291 4122 1447 4122 
Q 972 4122 556 3803 
L 556 4300 
Q 984 4556 1575 4556 
Q 1856 4556 2084 4478 
Q 2313 4400 2475 4259 
Q 2638 4119 2727 3922 
Q 2816 3725 2816 3488 
Q 2816 2603 1922 2350 
L 1922 2338 
Q 2150 2313 2344 2227 
Q 2538 2141 2678 2003 
Q 2819 1866 2898 1680 
Q 2978 1494 2978 1269 
z
" transform="scale(0.015625)"/>
       <path id="SegoeUI-2f" d="M 2541 4481 
L 391 -744 
L -88 -744 
L 2056 4481 
L 2541 4481 
z
" transform="scale(0.015625)"/>
       <path id="SegoeUI-32" d="M 2413 3306 
Q 2413 3513 2348 3666 
Q 2284 3819 2173 3920 
Q 2063 4022 1913 4072 
Q 1763 4122 1588 4122 
Q 1438 4122 1294 4081 
Q 1150 4041 1014 3969 
Q 878 3897 751 3797 
Q 625 3697 516 3575 
L 516 4125 
Q 731 4334 998 4445 
Q 1266 4556 1650 4556 
Q 1925 4556 2159 4476 
Q 2394 4397 2566 4244 
Q 2738 4091 2836 3866 
Q 2934 3641 2934 3350 
Q 2934 3084 2873 2868 
Q 2813 2653 2689 2462 
Q 2566 2272 2378 2097 
Q 2191 1922 1938 1741 
Q 1622 1516 1417 1356 
Q 1213 1197 1092 1058 
Q 972 919 923 780 
Q 875 641 875 459 
L 3106 459 
L 3106 0 
L 341 0 
L 341 222 
Q 341 509 403 728 
Q 466 947 609 1144 
Q 753 1341 986 1537 
Q 1219 1734 1556 1981 
Q 1800 2156 1964 2315 
Q 2128 2475 2228 2634 
Q 2328 2794 2370 2958 
Q 2413 3122 2413 3306 
z
" transform="scale(0.015625)"/>
      </defs>
      <use xlink:href="#SegoeUI-41"/>
      <use xlink:href="#SegoeUI-6c" x="64.501953"/>
      <use xlink:href="#SegoeUI-74" x="88.720703"/>
      <use xlink:href="#SegoeUI-75" x="122.607422"/>
      <use xlink:href="#SegoeUI-72" x="179.199219"/>
      <use xlink:href="#SegoeUI-61" x="213.964844"/>
      <use xlink:href="#SegoeUI-20" x="264.84375"/>
      <use xlink:href="#SegoeUI-68" x="292.236328"/>
      <use xlink:href="#SegoeUI-20" x="348.828125"/>
      <use xlink:href="#SegoeUI-3d" x="376.220703"/>
      <use xlink:href="#SegoeUI-20" x="444.628906"/>
      <use xlink:href="#SegoeUI-4c" x="472.021484"/>
      <use xlink:href="#SegoeUI-b7" x="519.091797"/>
      <use xlink:href="#SegoeUI-221a" x="540.771484"/>
      <use xlink:href="#SegoeUI-33" x="605.761719"/>
      <use xlink:href="#SegoeUI-2f" x="659.667969"/>
      <use xlink:href="#SegoeUI-32" x="698.632812"/>
     </g>
    </g>
    <g id="line2d_13">
     <path d="M 16.2 51.170625 
L 26.2 51.170625 
L 36.2 51.170625 
" style="fill: none; stroke: #1f2937; stroke-width: 2; stroke-linecap: square"/>
    </g>
    <g id="text_16">
     <!-- r = h/3 = L·√3/6 -->
     <g style="fill: #2c2f33" transform="translate(44.2 54.670625) scale(0.1 -0.1)">
      <defs>
       <path id="SegoeUI-36" d="M 3194 1422 
Q 3194 1094 3087 819 
Q 2981 544 2793 344 
Q 2606 144 2347 33 
Q 2088 -78 1784 -78 
Q 1447 -78 1180 62 
Q 913 203 727 467 
Q 541 731 444 1112 
Q 347 1494 347 1972 
Q 347 2556 476 3032 
Q 606 3509 845 3848 
Q 1084 4188 1421 4372 
Q 1759 4556 2175 4556 
Q 2638 4556 2919 4428 
L 2919 3944 
Q 2572 4122 2188 4122 
Q 1888 4122 1647 3987 
Q 1406 3853 1234 3608 
Q 1063 3363 970 3016 
Q 878 2669 878 2244 
L 891 2244 
Q 1200 2803 1913 2803 
Q 2206 2803 2442 2703 
Q 2678 2603 2845 2420 
Q 3013 2238 3103 1984 
Q 3194 1731 3194 1422 
z
M 2669 1356 
Q 2669 1591 2609 1778 
Q 2550 1966 2439 2097 
Q 2328 2228 2165 2298 
Q 2003 2369 1797 2369 
Q 1606 2369 1443 2297 
Q 1281 2225 1162 2101 
Q 1044 1978 976 1814 
Q 909 1650 909 1466 
Q 909 1234 975 1032 
Q 1041 831 1159 681 
Q 1278 531 1442 445 
Q 1606 359 1806 359 
Q 2000 359 2159 432 
Q 2319 506 2431 637 
Q 2544 769 2606 951 
Q 2669 1134 2669 1356 
z
" transform="scale(0.015625)"/>
      </defs>
      <use xlink:href="#SegoeUI-72"/>
      <use xlink:href="#SegoeUI-20" x="34.765625"/>
      <use xlink:href="#SegoeUI-3d" x="62.158203"/>
      <use xlink:href="#SegoeUI-20" x="130.566406"/>
      <use xlink:href="#SegoeUI-68" x="157.958984"/>
      <use xlink:href="#SegoeUI-2f" x="214.550781"/>
      <use xlink:href="#SegoeUI-33" x="253.515625"/>
      <use xlink:href="#SegoeUI-20" x="307.421875"/>
      <use xlink:href="#SegoeUI-3d" x="334.814453"/>
      <use xlink:href="#SegoeUI-20" x="403.222656"/>
      <use xlink:href="#SegoeUI-4c" x="430.615234"/>
      <use xlink:href="#SegoeUI-b7" x="477.685547"/>
      <use xlink:href="#SegoeUI-221a" x="499.365234"/>
      <use xlink:href="#SegoeUI-33" x="564.355469"/>
      <use xlink:href="#SegoeUI-2f" x="618.261719"/>
      <use xlink:href="#SegoeUI-36" x="657.226562"/>
     </g>
    </g>
    <g id="line2d_14">
     <path d="M 16.2 65.87375 
L 26.2 65.87375 
L 36.2 65.87375 
" style="fill: none; stroke-dasharray: 7.4,3.2; stroke-dashoffset: 0; stroke: #4b5563; stroke-width: 2"/>
    </g>
    <g id="text_17">
     <!-- R = 2h/3 = L·√3/3 -->
     <g style="fill: #2c2f33" transform="translate(44.2 69.37375) scale(0.1 -0.1)">
      <defs>
       <path id="SegoeUI-52" d="M 3800 0 
L 3175 0 
L 2425 1256 
Q 2322 1431 2225 1554 
Q 2128 1678 2026 1756 
Q 1925 1834 1808 1870 
Q 1691 1906 1544 1906 
L 1113 1906 
L 1113 0 
L 588 0 
L 588 4481 
L 1925 4481 
Q 2219 4481 2467 4407 
Q 2716 4334 2898 4184 
Q 3081 4034 3184 3811 
Q 3288 3588 3288 3288 
Q 3288 3053 3217 2858 
Q 3147 2663 3017 2509 
Q 2888 2356 2705 2248 
Q 2522 2141 2294 2081 
L 2294 2069 
Q 2406 2019 2489 1955 
Q 2572 1891 2647 1803 
Q 2722 1716 2795 1605 
Q 2869 1494 2959 1347 
L 3800 0 
z
M 1113 4006 
L 1113 2381 
L 1825 2381 
Q 2022 2381 2189 2440 
Q 2356 2500 2478 2611 
Q 2600 2722 2669 2883 
Q 2738 3044 2738 3244 
Q 2738 3603 2505 3804 
Q 2272 4006 1831 4006 
L 1113 4006 
z
" transform="scale(0.015625)"/>
      </defs>
      <use xlink:href="#SegoeUI-52"/>
      <use xlink:href="#SegoeUI-20" x="59.814453"/>
      <use xlink:href="#SegoeUI-3d" x="87.207031"/>
      <use xlink:href="#SegoeUI-20" x="155.615234"/>
      <use xlink:href="#SegoeUI-32" x="183.007812"/>
      <use xlink:href="#SegoeUI-68" x="236.914062"/>
      <use xlink:href="#SegoeUI-2f" x="293.505859"/>
      <use xlink:href="#SegoeUI-33" x="332.470703"/>
      <use xlink:href="#SegoeUI-20" x="386.376953"/>
      <use xlink:href="#SegoeUI-3d" x="413.769531"/>
      <use xlink:href="#SegoeUI-20" x="482.177734"/>
      <use xlink:href="#SegoeUI-4c" x="509.570312"/>
      <use xlink:href="#SegoeUI-b7" x="556.640625"/>
      <use xlink:href="#SegoeUI-221a" x="578.320312"/>
      <use xlink:href="#SegoeUI-33" x="643.310547"/>
      <use xlink:href="#SegoeUI-2f" x="697.216797"/>
      <use xlink:href="#SegoeUI-33" x="736.181641"/>
     </g>
    </g>
   </g>
  </g>
 </g>
 <defs>
  <clipPath id="p0198574c5c">
   <rect x="7.2" y="23.564375" width="713.99952" height="560.999623"/>
  </clipPath>
 </defs>
</svg>
