<?xml version="1.0" encoding="utf-8" standalone="no"?>
<!DOCTYPE svg PUBLIC "-//W3C//DTD SVG 1.1//EN"
  "http://www.w3.org/Graphics/SVG/1.1/DTD/svg11.dtd">
<svg xmlns:xlink="http://www.w3.org/1999/xlink" width="1016.39952pt" height="728.39952pt" viewBox="0 0 1016.39952 728.39952" xmlns="http://www.w3.org/2000/svg" version="1.1">
 <metadata>
  <rdf:RDF xmlns:dc="http://purl.org/dc/elements/1.1/" xmlns:cc="http://creativecommons.org/ns#" xmlns:rdf="http://www.w3.org/1999/02/22-rdf-syntax-ns#">
   <cc:Work>
    <dc:type rdf:resource="http://purl.org/dc/dcmitype/StillImage"/>
    <dc:date>2026-04-11T16:11:43.775912</dc:date>
    <dc:format>image/svg+xml</dc:format>
    <dc:creator>
     <cc:Agent>
      <dc:title>Matplotlib v3.8.4, https://matplotlib.org/</dc:title>
     </cc:Agent>
    </dc:creator>
   </cc:Work>
  </rdf:RDF>
 </metadata>
 <defs>
  <style type="text/css">*{stroke-linejoin: round; stroke-linecap: butt}</style>
 </defs>
 <g id="figure_1">
  <g id="patch_1">
   <path d="M 0 728.39952 
L 1016.39952 728.39952 
L 1016.39952 0 
L 0 0 
z
" style="fill: #ffffff"/>
  </g>
  <g id="axes_1">
   <g id="patch_2">
    <path d="M 33.787485 329.463327 
L 193.312395 329.463327 
L 86.962455 209.819644 
z
" clip-path="url(#p654e5fc838)" style="fill: #39c5bb; opacity: 0.1; stroke: #39c5bb; stroke-width: 2; stroke-linejoin: miter"/>
   </g>
   <g id="line2d_1">
    <path d="M 86.962455 209.819644 
L 113.54994 329.463327 
" clip-path="url(#p654e5fc838)" style="fill: none; stroke: #1f2937; stroke-width: 2.5; stroke-linecap: square"/>
   </g>
   <g id="line2d_2">
    <defs>
     <path id="m9310514ea4" d="M 0 3.5 
C 0.928211 3.5 1.81853 3.131218 2.474874 2.474874 
C 3.131218 1.81853 3.5 0.928211 3.5 0 
C 3.5 -0.928211 3.131218 -1.81853 2.474874 -2.474874 
C 1.81853 -3.131218 0.928211 -3.5 0 -3.5 
C -0.928211 -3.5 -1.81853 -3.131218 -2.474874 -2.474874 
C -3.131218 -1.81853 -3.5 -0.928211 -3.5 0 
C -3.5 0.928211 -3.131218 1.81853 -2.474874 2.474874 
C -1.81853 3.131218 -0.928211 3.5 0 3.5 
z
" style="stroke: #1f2937"/>
    </defs>
    <g clip-path="url(#p654e5fc838)">
     <use xlink:href="#m9310514ea4" x="113.54994" y="329.463327" style="fill: #1f2937; stroke: #1f2937"/>
    </g>
   </g>
   <g id="text_1">
    <!-- A -->
    <g style="fill: #2c2f33" transform="translate(25.81124 337.439572) scale(0.11 -0.11)">
     <defs>
      <path id="SegoeUI-Bold-41" d="M 4453 0 
L 3353 0 
L 3034 997 
L 1441 997 
L 1125 0 
L 31 0 
L 1663 4481 
L 2859 4481 
L 4453 0 
z
M 2803 1772 
L 2322 3278 
Q 2269 3447 2247 3681 
L 2222 3681 
Q 2206 3484 2144 3291 
L 1656 1772 
L 2803 1772 
z
" transform="scale(0.015625)"/>
     </defs>
     <use xlink:href="#SegoeUI-Bold-41"/>
    </g>
   </g>
   <g id="text_2">
    <!-- B -->
    <g style="fill: #2c2f33" transform="translate(198.629892 337.439572) scale(0.11 -0.11)">
     <defs>
      <path id="SegoeUI-Bold-42" d="M 513 0 
L 513 4481 
L 2144 4481 
Q 2894 4481 3297 4206 
Q 3700 3931 3700 3431 
Q 3700 3069 3454 2797 
Q 3209 2525 2828 2419 
L 2828 2406 
Q 3306 2347 3592 2053 
Q 3878 1759 3878 1338 
Q 3878 722 3437 361 
Q 2997 0 2234 0 
L 513 0 
z
M 1522 3738 
L 1522 2675 
L 1966 2675 
Q 2278 2675 2458 2826 
Q 2638 2978 2638 3244 
Q 2638 3738 1900 3738 
L 1522 3738 
z
M 1522 1925 
L 1522 744 
L 2069 744 
Q 2419 744 2617 906 
Q 2816 1069 2816 1350 
Q 2816 1619 2620 1772 
Q 2425 1925 2075 1925 
L 1522 1925 
z
" transform="scale(0.015625)"/>
     </defs>
     <use xlink:href="#SegoeUI-Bold-42"/>
    </g>
   </g>
   <g id="text_3">
    <!-- C -->
    <g style="fill: #2c2f33" transform="translate(78.98621 204.502147) scale(0.11 -0.11)">
     <defs>
      <path id="SegoeUI-Bold-43" d="M 3725 159 
Q 3234 -78 2444 -78 
Q 1413 -78 822 528 
Q 231 1134 231 2144 
Q 231 3219 895 3887 
Q 1559 4556 2619 4556 
Q 3275 4556 3725 4391 
L 3725 3419 
Q 3275 3688 2700 3688 
Q 2069 3688 1681 3291 
Q 1294 2894 1294 2216 
Q 1294 1566 1659 1180 
Q 2025 794 2644 794 
Q 3234 794 3725 1081 
L 3725 159 
z
" transform="scale(0.015625)"/>
     </defs>
     <use xlink:href="#SegoeUI-Bold-43"/>
    </g>
   </g>
   <g id="text_4">
    <!-- M -->
    <g style="fill: #1f2937" transform="translate(109.060096 340.098321) scale(0.1 -0.1)">
     <defs>
      <path id="SegoeUI-4d" d="M 5156 0 
L 4634 0 
L 4634 3006 
Q 4634 3363 4678 3878 
L 4666 3878 
Q 4591 3575 4531 3444 
L 3000 0 
L 2744 0 
L 1216 3419 
Q 1150 3569 1081 3878 
L 1069 3878 
Q 1094 3609 1094 3000 
L 1094 0 
L 588 0 
L 588 4481 
L 1281 4481 
L 2656 1356 
Q 2816 997 2863 819 
L 2881 819 
Q 3016 1188 3097 1369 
L 4500 4481 
L 5156 4481 
L 5156 0 
z
" transform="scale(0.015625)"/>
     </defs>
     <use xlink:href="#SegoeUI-4d"/>
    </g>
   </g>
   <g id="text_5">
    <!-- Mediana -->
    <g style="fill: #1f2937" transform="translate(89.053065 175.232159) scale(0.12 -0.12)">
     <defs>
      <path id="SegoeUI-Bold-4d" d="M 5619 0 
L 4622 0 
L 4622 2681 
Q 4622 3116 4659 3641 
L 4634 3641 
Q 4556 3228 4494 3047 
L 3444 0 
L 2619 0 
L 1550 3016 
Q 1506 3138 1409 3641 
L 1381 3641 
Q 1422 2978 1422 2478 
L 1422 0 
L 513 0 
L 513 4481 
L 1991 4481 
L 2906 1825 
Q 3016 1506 3066 1184 
L 3084 1184 
Q 3169 1556 3263 1831 
L 4178 4481 
L 5619 4481 
L 5619 0 
z
" transform="scale(0.015625)"/>
      <path id="SegoeUI-Bold-65" d="M 3291 1319 
L 1203 1319 
Q 1253 622 2081 622 
Q 2609 622 3009 872 
L 3009 159 
Q 2566 -78 1856 -78 
Q 1081 -78 653 351 
Q 225 781 225 1550 
Q 225 2347 687 2812 
Q 1150 3278 1825 3278 
Q 2525 3278 2908 2862 
Q 3291 2447 3291 1734 
L 3291 1319 
z
M 2375 1925 
Q 2375 2613 1819 2613 
Q 1581 2613 1407 2416 
Q 1234 2219 1197 1925 
L 2375 1925 
z
" transform="scale(0.015625)"/>
      <path id="SegoeUI-Bold-64" d="M 3547 0 
L 2559 0 
L 2559 441 
L 2547 441 
Q 2209 -78 1556 -78 
Q 956 -78 590 345 
Q 225 769 225 1528 
Q 225 2322 628 2800 
Q 1031 3278 1684 3278 
Q 2303 3278 2547 2834 
L 2559 2834 
L 2559 4738 
L 3547 4738 
L 3547 0 
z
M 2578 1556 
L 2578 1797 
Q 2578 2109 2397 2315 
Q 2216 2522 1925 2522 
Q 1597 2522 1412 2264 
Q 1228 2006 1228 1556 
Q 1228 1134 1406 906 
Q 1584 678 1900 678 
Q 2200 678 2389 918 
Q 2578 1159 2578 1556 
z
" transform="scale(0.015625)"/>
      <path id="SegoeUI-Bold-69" d="M 916 3706 
Q 666 3706 506 3854 
Q 347 4003 347 4219 
Q 347 4441 506 4581 
Q 666 4722 916 4722 
Q 1169 4722 1326 4581 
Q 1484 4441 1484 4219 
Q 1484 3994 1326 3850 
Q 1169 3706 916 3706 
z
M 1403 0 
L 416 0 
L 416 3200 
L 1403 3200 
L 1403 0 
z
" transform="scale(0.015625)"/>
      <path id="SegoeUI-Bold-61" d="M 3078 0 
L 2144 0 
L 2144 459 
L 2131 459 
Q 1809 -78 1178 -78 
Q 713 -78 445 186 
Q 178 450 178 891 
Q 178 1822 1281 1966 
L 2150 2081 
Q 2150 2606 1581 2606 
Q 1009 2606 494 2266 
L 494 3009 
Q 700 3116 1058 3197 
Q 1416 3278 1709 3278 
Q 3078 3278 3078 1913 
L 3078 0 
z
M 2150 1300 
L 2150 1516 
L 1569 1441 
Q 1088 1378 1088 1006 
Q 1088 838 1205 730 
Q 1322 622 1522 622 
Q 1800 622 1975 814 
Q 2150 1006 2150 1300 
z
" transform="scale(0.015625)"/>
      <path id="SegoeUI-Bold-6e" d="M 3506 0 
L 2522 0 
L 2522 1778 
Q 2522 2522 1991 2522 
Q 1734 2522 1568 2325 
Q 1403 2128 1403 1825 
L 1403 0 
L 416 0 
L 416 3200 
L 1403 3200 
L 1403 2694 
L 1416 2694 
Q 1769 3278 2444 3278 
Q 3506 3278 3506 1959 
L 3506 0 
z
" transform="scale(0.015625)"/>
     </defs>
     <use xlink:href="#SegoeUI-Bold-4d"/>
     <use xlink:href="#SegoeUI-Bold-65" x="95.703125"/>
     <use xlink:href="#SegoeUI-Bold-64" x="149.804688"/>
     <use xlink:href="#SegoeUI-Bold-69" x="211.71875"/>
     <use xlink:href="#SegoeUI-Bold-61" x="240.136719"/>
     <use xlink:href="#SegoeUI-Bold-6e" x="293.945312"/>
     <use xlink:href="#SegoeUI-Bold-61" x="354.443359"/>
    </g>
   </g>
  </g>
  <g id="axes_2">
   <g id="patch_3">
    <path d="M 296.887365 329.463327 
L 456.412275 329.463327 
L 350.062335 209.819644 
z
" clip-path="url(#p957c324fd8)" style="fill: #39c5bb; opacity: 0.1; stroke: #39c5bb; stroke-width: 2; stroke-linejoin: miter"/>
   </g>
   <g id="line2d_3">
    <path d="M 350.062335 209.819644 
L 350.062335 329.463327 
" clip-path="url(#p957c324fd8)" style="fill: none; stroke-dasharray: 9.25,4; stroke-dashoffset: 0; stroke: #e12885; stroke-width: 2.5"/>
   </g>
   <g id="line2d_4">
    <defs>
     <path id="m335b9ea817" d="M 0 3.5 
C 0.928211 3.5 1.81853 3.131218 2.474874 2.474874 
C 3.131218 1.81853 3.5 0.928211 3.5 0 
C 3.5 -0.928211 3.131218 -1.81853 2.474874 -2.474874 
C 1.81853 -3.131218 0.928211 -3.5 0 -3.5 
C -0.928211 -3.5 -1.81853 -3.131218 -2.474874 -2.474874 
C -3.131218 -1.81853 -3.5 -0.928211 -3.5 0 
C -3.5 0.928211 -3.131218 1.81853 -2.474874 2.474874 
C -1.81853 3.131218 -0.928211 3.5 0 3.5 
z
" style="stroke: #e12885"/>
    </defs>
    <g clip-path="url(#p957c324fd8)">
     <use xlink:href="#m335b9ea817" x="350.062335" y="329.463327" style="fill: #e12885; stroke: #e12885"/>
    </g>
   </g>
   <g id="line2d_5">
    <path d="M 350.062335 329.463327 
L 358.038581 329.463327 
" clip-path="url(#p957c324fd8)" style="fill: none; stroke: #e12885; stroke-width: 1.5; stroke-linecap: square"/>
   </g>
   <g id="line2d_6">
    <path d="M 358.038581 329.463327 
L 358.038581 321.487081 
" clip-path="url(#p957c324fd8)" style="fill: none; stroke: #e12885; stroke-width: 1.5; stroke-linecap: square"/>
   </g>
   <g id="text_6">
    <!-- A -->
    <g style="fill: #2c2f33" transform="translate(288.91112 337.439572) scale(0.11 -0.11)">
     <use xlink:href="#SegoeUI-Bold-41"/>
    </g>
   </g>
   <g id="text_7">
    <!-- B -->
    <g style="fill: #2c2f33" transform="translate(461.729772 337.439572) scale(0.11 -0.11)">
     <use xlink:href="#SegoeUI-Bold-42"/>
    </g>
   </g>
   <g id="text_8">
    <!-- C -->
    <g style="fill: #2c2f33" transform="translate(342.08609 204.502147) scale(0.11 -0.11)">
     <use xlink:href="#SegoeUI-Bold-43"/>
    </g>
   </g>
   <g id="text_9">
    <!-- H -->
    <g style="fill: #e12885" transform="translate(358.038581 337.439572) scale(0.1 -0.1)">
     <defs>
      <path id="SegoeUI-48" d="M 3956 0 
L 3431 0 
L 3431 2044 
L 1113 2044 
L 1113 0 
L 588 0 
L 588 4481 
L 1113 4481 
L 1113 2516 
L 3431 2516 
L 3431 4481 
L 3956 4481 
L 3956 0 
z
" transform="scale(0.015625)"/>
     </defs>
     <use xlink:href="#SegoeUI-48"/>
    </g>
   </g>
   <g id="text_10">
    <!-- Altura -->
    <g style="fill: #e12885" transform="translate(359.143883 175.232159) scale(0.12 -0.12)">
     <defs>
      <path id="SegoeUI-Bold-6c" d="M 1403 0 
L 416 0 
L 416 4738 
L 1403 4738 
L 1403 0 
z
" transform="scale(0.015625)"/>
      <path id="SegoeUI-Bold-74" d="M 2350 38 
Q 2131 -78 1691 -78 
Q 647 -78 647 1006 
L 647 2472 
L 128 2472 
L 128 3200 
L 647 3200 
L 647 3891 
L 1631 4172 
L 1631 3200 
L 2350 3200 
L 2350 2472 
L 1631 2472 
L 1631 1178 
Q 1631 678 2028 678 
Q 2184 678 2350 769 
L 2350 38 
z
" transform="scale(0.015625)"/>
      <path id="SegoeUI-Bold-75" d="M 3456 0 
L 2472 0 
L 2472 488 
L 2456 488 
Q 2091 -78 1478 -78 
Q 366 -78 366 1269 
L 366 3200 
L 1350 3200 
L 1350 1356 
Q 1350 678 1888 678 
Q 2153 678 2312 864 
Q 2472 1050 2472 1369 
L 2472 3200 
L 3456 3200 
L 3456 0 
z
" transform="scale(0.015625)"/>
      <path id="SegoeUI-Bold-72" d="M 2503 2309 
Q 2325 2406 2088 2406 
Q 1766 2406 1584 2170 
Q 1403 1934 1403 1528 
L 1403 0 
L 416 0 
L 416 3200 
L 1403 3200 
L 1403 2606 
L 1416 2606 
Q 1650 3256 2259 3256 
Q 2416 3256 2503 3219 
L 2503 2309 
z
" transform="scale(0.015625)"/>
     </defs>
     <use xlink:href="#SegoeUI-Bold-41"/>
     <use xlink:href="#SegoeUI-Bold-6c" x="70.3125"/>
     <use xlink:href="#SegoeUI-Bold-74" x="98.730469"/>
     <use xlink:href="#SegoeUI-Bold-75" x="137.646484"/>
     <use xlink:href="#SegoeUI-Bold-72" x="198.144531"/>
     <use xlink:href="#SegoeUI-Bold-61" x="237.939453"/>
    </g>
   </g>
  </g>
  <g id="axes_3">
   <g id="patch_4">
    <path d="M 559.987245 329.463327 
L 719.512155 329.463327 
L 613.162215 209.819644 
z
" clip-path="url(#p3342a82a12)" style="fill: #39c5bb; opacity: 0.1; stroke: #39c5bb; stroke-width: 2; stroke-linejoin: miter"/>
   </g>
   <g id="line2d_7">
    <path d="M 639.7497 382.638297 
L 639.7497 276.288357 
" clip-path="url(#p3342a82a12)" style="fill: none; stroke: #4b5563; stroke-width: 2.5; stroke-linecap: square"/>
   </g>
   <g id="line2d_8">
    <defs>
     <path id="mc9424315b4" d="M 0 3.5 
C 0.928211 3.5 1.81853 3.131218 2.474874 2.474874 
C 3.131218 1.81853 3.5 0.928211 3.5 0 
C 3.5 -0.928211 3.131218 -1.81853 2.474874 -2.474874 
C 1.81853 -3.131218 0.928211 -3.5 0 -3.5 
C -0.928211 -3.5 -1.81853 -3.131218 -2.474874 -2.474874 
C -3.131218 -1.81853 -3.5 -0.928211 -3.5 0 
C -3.5 0.928211 -3.131218 1.81853 -2.474874 2.474874 
C -1.81853 3.131218 -0.928211 3.5 0 3.5 
z
" style="stroke: #4b5563"/>
    </defs>
    <g clip-path="url(#p3342a82a12)">
     <use xlink:href="#mc9424315b4" x="639.7497" y="329.463327" style="fill: #4b5563; stroke: #4b5563"/>
    </g>
   </g>
   <g id="line2d_9">
    <path d="M 599.868473 332.653825 
L 599.868473 326.272829 
" clip-path="url(#p3342a82a12)" style="fill: none; stroke: #4b5563; stroke-width: 2; stroke-linecap: square"/>
   </g>
   <g id="line2d_10">
    <path d="M 679.630928 332.653825 
L 679.630928 326.272829 
" clip-path="url(#p3342a82a12)" style="fill: none; stroke: #4b5563; stroke-width: 2; stroke-linecap: square"/>
   </g>
   <g id="text_11">
    <!-- A -->
    <g style="fill: #2c2f33" transform="translate(552.011 337.439572) scale(0.11 -0.11)">
     <use xlink:href="#SegoeUI-Bold-41"/>
    </g>
   </g>
   <g id="text_12">
    <!-- B -->
    <g style="fill: #2c2f33" transform="translate(724.829652 337.439572) scale(0.11 -0.11)">
     <use xlink:href="#SegoeUI-Bold-42"/>
    </g>
   </g>
   <g id="text_13">
    <!-- C -->
    <g style="fill: #2c2f33" transform="translate(605.18597 204.502147) scale(0.11 -0.11)">
     <use xlink:href="#SegoeUI-Bold-43"/>
    </g>
   </g>
   <g id="text_14">
    <!-- M -->
    <g style="fill: #4b5563" transform="translate(647.725946 337.439572) scale(0.1 -0.1)">
     <use xlink:href="#SegoeUI-4d"/>
    </g>
   </g>
   <g id="text_15">
    <!-- Mediatriz -->
    <g style="fill: #4b5563" transform="translate(612.786263 175.232159) scale(0.12 -0.12)">
     <defs>
      <path id="SegoeUI-Bold-7a" d="M 2950 0 
L 78 0 
L 78 409 
L 1684 2472 
L 238 2472 
L 238 3200 
L 2938 3200 
L 2938 2713 
L 1416 728 
L 2950 728 
L 2950 0 
z
" transform="scale(0.015625)"/>
     </defs>
     <use xlink:href="#SegoeUI-Bold-4d"/>
     <use xlink:href="#SegoeUI-Bold-65" x="95.703125"/>
     <use xlink:href="#SegoeUI-Bold-64" x="149.804688"/>
     <use xlink:href="#SegoeUI-Bold-69" x="211.71875"/>
     <use xlink:href="#SegoeUI-Bold-61" x="240.136719"/>
     <use xlink:href="#SegoeUI-Bold-74" x="293.945312"/>
     <use xlink:href="#SegoeUI-Bold-72" x="332.861328"/>
     <use xlink:href="#SegoeUI-Bold-69" x="373.03125"/>
     <use xlink:href="#SegoeUI-Bold-7a" x="401.449219"/>
    </g>
   </g>
  </g>
  <g id="axes_4">
   <g id="patch_5">
    <path d="M 823.087125 329.463327 
L 982.612035 329.463327 
L 876.262095 209.819644 
z
" clip-path="url(#pd0d72f3251)" style="fill: #39c5bb; opacity: 0.1; stroke: #39c5bb; stroke-width: 2; stroke-linejoin: miter"/>
   </g>
   <g id="patch_6">
    <path d="M 868.703355 226.82681 
C 870.328697 227.549184 872.049232 228.034846 873.812398 228.268959 
C 875.575564 228.503072 877.36322 228.483227 879.120754 228.210031 
" clip-path="url(#pd0d72f3251)" style="fill: none; stroke: #f59e0b; stroke-width: 1.5; stroke-linejoin: miter"/>
   </g>
   <g id="patch_7">
    <path d="M 879.120754 228.210031 
C 880.878288 227.936834 882.587618 227.413097 884.196523 226.654818 
C 885.805429 225.89654 887.297357 224.911523 888.62673 223.729858 
" clip-path="url(#pd0d72f3251)" style="fill: none; stroke: #f59e0b; stroke-width: 1.5; stroke-linejoin: miter"/>
   </g>
   <g id="line2d_11">
    <path d="M 876.262095 209.819644 
L 894.859884 329.463327 
" clip-path="url(#pd0d72f3251)" style="fill: none; stroke: #f59e0b; stroke-width: 2.5; stroke-linecap: square"/>
   </g>
   <g id="line2d_12">
    <defs>
     <path id="meffb08898d" d="M 0 3.5 
C 0.928211 3.5 1.81853 3.131218 2.474874 2.474874 
C 3.131218 1.81853 3.5 0.928211 3.5 0 
C 3.5 -0.928211 3.131218 -1.81853 2.474874 -2.474874 
C 1.81853 -3.131218 0.928211 -3.5 0 -3.5 
C -0.928211 -3.5 -1.81853 -3.131218 -2.474874 -2.474874 
C -3.131218 -1.81853 -3.5 -0.928211 -3.5 0 
C -3.5 0.928211 -3.131218 1.81853 -2.474874 2.474874 
C -1.81853 3.131218 -0.928211 3.5 0 3.5 
z
" style="stroke: #f59e0b"/>
    </defs>
    <g clip-path="url(#pd0d72f3251)">
     <use xlink:href="#meffb08898d" x="894.859884" y="329.463327" style="fill: #f59e0b; stroke: #f59e0b"/>
    </g>
   </g>
   <g id="text_16">
    <!-- A -->
    <g style="fill: #2c2f33" transform="translate(815.11088 337.439572) scale(0.11 -0.11)">
     <use xlink:href="#SegoeUI-Bold-41"/>
    </g>
   </g>
   <g id="text_17">
    <!-- B -->
    <g style="fill: #2c2f33" transform="translate(987.929532 337.439572) scale(0.11 -0.11)">
     <use xlink:href="#SegoeUI-Bold-42"/>
    </g>
   </g>
   <g id="text_18">
    <!-- C -->
    <g style="fill: #2c2f33" transform="translate(868.28585 204.502147) scale(0.11 -0.11)">
     <use xlink:href="#SegoeUI-Bold-43"/>
    </g>
   </g>
   <g id="text_19">
    <!-- D -->
    <g style="fill: #f59e0b" transform="translate(902.836129 324.14583) scale(0.1 -0.1)">
     <defs>
      <path id="SegoeUI-44" d="M 588 0 
L 588 4481 
L 1825 4481 
Q 4194 4481 4194 2297 
Q 4194 1259 3536 629 
Q 2878 0 1775 0 
L 588 0 
z
M 1113 4006 
L 1113 475 
L 1781 475 
Q 2663 475 3153 947 
Q 3644 1419 3644 2284 
Q 3644 4006 1813 4006 
L 1113 4006 
z
" transform="scale(0.015625)"/>
     </defs>
     <use xlink:href="#SegoeUI-44"/>
    </g>
   </g>
   <g id="text_20">
    <!-- Bisectriz -->
    <g style="fill: #f59e0b" transform="translate(879.20583 175.232159) scale(0.12 -0.12)">
     <defs>
      <path id="SegoeUI-Bold-73" d="M 206 84 
L 206 884 
Q 450 738 692 666 
Q 934 594 1150 594 
Q 1413 594 1564 666 
Q 1716 738 1716 884 
Q 1716 978 1647 1040 
Q 1578 1103 1470 1150 
Q 1363 1197 1234 1234 
Q 1106 1272 988 1319 
Q 797 1391 651 1473 
Q 506 1556 407 1665 
Q 309 1775 257 1919 
Q 206 2063 206 2259 
Q 206 2528 323 2722 
Q 441 2916 636 3039 
Q 831 3163 1082 3220 
Q 1334 3278 1606 3278 
Q 1819 3278 2037 3245 
Q 2256 3213 2469 3150 
L 2469 2388 
Q 2281 2497 2067 2551 
Q 1853 2606 1647 2606 
Q 1550 2606 1464 2589 
Q 1378 2572 1312 2539 
Q 1247 2506 1209 2454 
Q 1172 2403 1172 2338 
Q 1172 2250 1228 2187 
Q 1284 2125 1375 2079 
Q 1466 2034 1577 1998 
Q 1688 1963 1797 1925 
Q 1994 1856 2153 1775 
Q 2313 1694 2427 1584 
Q 2541 1475 2602 1328 
Q 2663 1181 2663 978 
Q 2663 694 2539 492 
Q 2416 291 2211 164 
Q 2006 38 1739 -20 
Q 1472 -78 1184 -78 
Q 656 -78 206 84 
z
" transform="scale(0.015625)"/>
      <path id="SegoeUI-Bold-63" d="M 2841 116 
Q 2506 -78 1875 -78 
Q 1138 -78 681 369 
Q 225 816 225 1522 
Q 225 2338 714 2808 
Q 1203 3278 2022 3278 
Q 2588 3278 2841 3128 
L 2841 2291 
Q 2531 2522 2150 2522 
Q 1725 2522 1476 2273 
Q 1228 2025 1228 1588 
Q 1228 1163 1465 920 
Q 1703 678 2119 678 
Q 2488 678 2841 909 
L 2841 116 
z
" transform="scale(0.015625)"/>
     </defs>
     <use xlink:href="#SegoeUI-Bold-42"/>
     <use xlink:href="#SegoeUI-Bold-69" x="64.111328"/>
     <use xlink:href="#SegoeUI-Bold-73" x="92.529297"/>
     <use xlink:href="#SegoeUI-Bold-65" x="136.523438"/>
     <use xlink:href="#SegoeUI-Bold-63" x="190.625"/>
     <use xlink:href="#SegoeUI-Bold-74" x="238.623047"/>
     <use xlink:href="#SegoeUI-Bold-72" x="277.539062"/>
     <use xlink:href="#SegoeUI-Bold-69" x="317.708984"/>
     <use xlink:href="#SegoeUI-Bold-7a" x="346.126953"/>
    </g>
   </g>
  </g>
  <g id="axes_5">
   <g id="line2d_13">
    <path d="M 27.23999 569.117143 
L 989.15953 569.117143 
" clip-path="url(#pf264c7c95b)" style="fill: none; stroke: #d1d5db; stroke-width: 1.5; stroke-linecap: square"/>
   </g>
   <g id="line2d_14">
    <path d="M 257.69988 708.392583 
L 257.69988 577.121478 
" clip-path="url(#pf264c7c95b)" style="fill: none; stroke: #e5e7eb; stroke-linecap: square"/>
   </g>
   <g id="line2d_15">
    <path d="M 508.19976 708.392583 
L 508.19976 577.121478 
" clip-path="url(#pf264c7c95b)" style="fill: none; stroke: #e5e7eb; stroke-linecap: square"/>
   </g>
   <g id="line2d_16">
    <path d="M 758.69964 708.392583 
L 758.69964 577.121478 
" clip-path="url(#pf264c7c95b)" style="fill: none; stroke: #e5e7eb; stroke-linecap: square"/>
   </g>
   <g id="text_21">
    <!-- Mediana -->
    <g style="fill: #1f2937" transform="translate(112.035877 589.928415) scale(0.1 -0.1)">
     <use xlink:href="#SegoeUI-Bold-4d"/>
     <use xlink:href="#SegoeUI-Bold-65" x="95.703125"/>
     <use xlink:href="#SegoeUI-Bold-64" x="149.804688"/>
     <use xlink:href="#SegoeUI-Bold-69" x="211.71875"/>
     <use xlink:href="#SegoeUI-Bold-61" x="240.136719"/>
     <use xlink:href="#SegoeUI-Bold-6e" x="293.945312"/>
     <use xlink:href="#SegoeUI-Bold-61" x="354.443359"/>
    </g>
   </g>
   <g id="text_22">
    <!-- Une vértice con punto medio -->
    <g style="fill: #4b5563" transform="translate(81.001815 639.190578) scale(0.08 -0.08)">
     <defs>
      <path id="SegoeUI-55" d="M 3866 1813 
Q 3866 -75 2163 -75 
Q 531 -75 531 1741 
L 531 4481 
L 1056 4481 
L 1056 1775 
Q 1056 397 2219 397 
Q 3341 397 3341 1728 
L 3341 4481 
L 3866 4481 
L 3866 1813 
z
" transform="scale(0.015625)"/>
      <path id="SegoeUI-6e" d="M 3175 0 
L 2663 0 
L 2663 1825 
Q 2663 2844 1919 2844 
Q 1534 2844 1282 2555 
Q 1031 2266 1031 1825 
L 1031 0 
L 519 0 
L 519 3200 
L 1031 3200 
L 1031 2669 
L 1044 2669 
Q 1406 3275 2094 3275 
Q 2619 3275 2897 2936 
Q 3175 2597 3175 1956 
L 3175 0 
z
" transform="scale(0.015625)"/>
      <path id="SegoeUI-65" d="M 3091 1472 
L 831 1472 
Q 844 938 1119 647 
Q 1394 356 1875 356 
Q 2416 356 2869 713 
L 2869 231 
Q 2447 -75 1753 -75 
Q 1075 -75 687 361 
Q 300 797 300 1588 
Q 300 2334 723 2804 
Q 1147 3275 1775 3275 
Q 2403 3275 2747 2869 
Q 3091 2463 3091 1741 
L 3091 1472 
z
M 2566 1906 
Q 2563 2350 2352 2597 
Q 2141 2844 1766 2844 
Q 1403 2844 1150 2584 
Q 897 2325 838 1906 
L 2566 1906 
z
" transform="scale(0.015625)"/>
      <path id="SegoeUI-20" transform="scale(0.015625)"/>
      <path id="SegoeUI-76" d="M 3034 3200 
L 1759 0 
L 1256 0 
L 44 3200 
L 606 3200 
L 1419 875 
Q 1509 619 1531 428 
L 1544 428 
Q 1575 669 1644 863 
L 2494 3200 
L 3034 3200 
z
" transform="scale(0.015625)"/>
      <path id="SegoeUI-e9" d="M 3091 1472 
L 831 1472 
Q 844 938 1119 647 
Q 1394 356 1875 356 
Q 2416 356 2869 713 
L 2869 231 
Q 2447 -75 1753 -75 
Q 1075 -75 687 361 
Q 300 797 300 1588 
Q 300 2334 723 2804 
Q 1147 3275 1775 3275 
Q 2403 3275 2747 2869 
Q 3091 2463 3091 1741 
L 3091 1472 
z
M 2566 1906 
Q 2563 2350 2352 2597 
Q 2141 2844 1766 2844 
Q 1403 2844 1150 2584 
Q 897 2325 838 1906 
L 2566 1906 
z
M 2486 4831 
L 1667 3806 
L 1270 3806 
L 1967 4831 
L 2486 4831 
z
" transform="scale(0.015625)"/>
      <path id="SegoeUI-72" d="M 2188 2681 
Q 2053 2784 1800 2784 
Q 1472 2784 1251 2475 
Q 1031 2166 1031 1631 
L 1031 0 
L 519 0 
L 519 3200 
L 1031 3200 
L 1031 2541 
L 1044 2541 
Q 1153 2878 1378 3067 
Q 1603 3256 1881 3256 
Q 2081 3256 2188 3213 
L 2188 2681 
z
" transform="scale(0.015625)"/>
      <path id="SegoeUI-74" d="M 2003 31 
Q 1822 -69 1525 -69 
Q 684 -69 684 869 
L 684 2763 
L 134 2763 
L 134 3200 
L 684 3200 
L 684 3981 
L 1197 4147 
L 1197 3200 
L 2003 3200 
L 2003 2763 
L 1197 2763 
L 1197 959 
Q 1197 638 1306 500 
Q 1416 363 1669 363 
Q 1863 363 2003 469 
L 2003 31 
z
" transform="scale(0.015625)"/>
      <path id="SegoeUI-69" d="M 781 4013 
Q 644 4013 547 4106 
Q 450 4200 450 4344 
Q 450 4488 547 4583 
Q 644 4678 781 4678 
Q 922 4678 1020 4583 
Q 1119 4488 1119 4344 
Q 1119 4206 1020 4109 
Q 922 4013 781 4013 
z
M 1031 0 
L 519 0 
L 519 3200 
L 1031 3200 
L 1031 0 
z
" transform="scale(0.015625)"/>
      <path id="SegoeUI-63" d="M 2700 147 
Q 2331 -75 1825 -75 
Q 1141 -75 720 370 
Q 300 816 300 1525 
Q 300 2316 753 2795 
Q 1206 3275 1963 3275 
Q 2384 3275 2706 3119 
L 2706 2594 
Q 2350 2844 1944 2844 
Q 1453 2844 1139 2492 
Q 825 2141 825 1569 
Q 825 1006 1120 681 
Q 1416 356 1913 356 
Q 2331 356 2700 634 
L 2700 147 
z
" transform="scale(0.015625)"/>
      <path id="SegoeUI-6f" d="M 1856 -75 
Q 1147 -75 723 373 
Q 300 822 300 1563 
Q 300 2369 740 2822 
Q 1181 3275 1931 3275 
Q 2647 3275 3048 2834 
Q 3450 2394 3450 1613 
Q 3450 847 3017 386 
Q 2584 -75 1856 -75 
z
M 1894 2844 
Q 1400 2844 1112 2508 
Q 825 2172 825 1581 
Q 825 1013 1115 684 
Q 1406 356 1894 356 
Q 2391 356 2658 678 
Q 2925 1000 2925 1594 
Q 2925 2194 2658 2519 
Q 2391 2844 1894 2844 
z
" transform="scale(0.015625)"/>
      <path id="SegoeUI-70" d="M 1044 463 
L 1031 463 
L 1031 -1472 
L 519 -1472 
L 519 3200 
L 1031 3200 
L 1031 2638 
L 1044 2638 
Q 1422 3275 2150 3275 
Q 2769 3275 3116 2845 
Q 3463 2416 3463 1694 
Q 3463 891 3072 408 
Q 2681 -75 2003 -75 
Q 1381 -75 1044 463 
z
M 1031 1753 
L 1031 1306 
Q 1031 909 1289 632 
Q 1547 356 1944 356 
Q 2409 356 2673 712 
Q 2938 1069 2938 1703 
Q 2938 2238 2691 2541 
Q 2444 2844 2022 2844 
Q 1575 2844 1303 2533 
Q 1031 2222 1031 1753 
z
" transform="scale(0.015625)"/>
      <path id="SegoeUI-75" d="M 3106 0 
L 2594 0 
L 2594 506 
L 2581 506 
Q 2263 -75 1594 -75 
Q 450 -75 450 1288 
L 450 3200 
L 959 3200 
L 959 1369 
Q 959 356 1734 356 
Q 2109 356 2351 632 
Q 2594 909 2594 1356 
L 2594 3200 
L 3106 3200 
L 3106 0 
z
" transform="scale(0.015625)"/>
      <path id="SegoeUI-6d" d="M 5063 0 
L 4550 0 
L 4550 1838 
Q 4550 2369 4386 2606 
Q 4222 2844 3834 2844 
Q 3506 2844 3276 2544 
Q 3047 2244 3047 1825 
L 3047 0 
L 2534 0 
L 2534 1900 
Q 2534 2844 1806 2844 
Q 1469 2844 1250 2561 
Q 1031 2278 1031 1825 
L 1031 0 
L 519 0 
L 519 3200 
L 1031 3200 
L 1031 2694 
L 1044 2694 
Q 1384 3275 2038 3275 
Q 2366 3275 2609 3092 
Q 2853 2909 2944 2613 
Q 3300 3275 4006 3275 
Q 5063 3275 5063 1972 
L 5063 0 
z
" transform="scale(0.015625)"/>
      <path id="SegoeUI-64" d="M 3250 0 
L 2738 0 
L 2738 544 
L 2725 544 
Q 2369 -75 1625 -75 
Q 1022 -75 661 354 
Q 300 784 300 1525 
Q 300 2319 700 2797 
Q 1100 3275 1766 3275 
Q 2425 3275 2725 2756 
L 2738 2756 
L 2738 4738 
L 3250 4738 
L 3250 0 
z
M 2738 1447 
L 2738 1919 
Q 2738 2306 2481 2575 
Q 2225 2844 1831 2844 
Q 1363 2844 1094 2500 
Q 825 2156 825 1550 
Q 825 997 1083 676 
Q 1341 356 1775 356 
Q 2203 356 2470 665 
Q 2738 975 2738 1447 
z
" transform="scale(0.015625)"/>
     </defs>
     <use xlink:href="#SegoeUI-55"/>
     <use xlink:href="#SegoeUI-6e" x="68.701172"/>
     <use xlink:href="#SegoeUI-65" x="125.292969"/>
     <use xlink:href="#SegoeUI-20" x="177.587891"/>
     <use xlink:href="#SegoeUI-76" x="204.980469"/>
     <use xlink:href="#SegoeUI-e9" x="252.255859"/>
     <use xlink:href="#SegoeUI-72" x="304.550781"/>
     <use xlink:href="#SegoeUI-74" x="342.191406"/>
     <use xlink:href="#SegoeUI-69" x="376.078125"/>
     <use xlink:href="#SegoeUI-63" x="400.296875"/>
     <use xlink:href="#SegoeUI-65" x="446.488281"/>
     <use xlink:href="#SegoeUI-20" x="498.783203"/>
     <use xlink:href="#SegoeUI-63" x="526.175781"/>
     <use xlink:href="#SegoeUI-6f" x="572.367188"/>
     <use xlink:href="#SegoeUI-6e" x="630.960938"/>
     <use xlink:href="#SegoeUI-20" x="687.552734"/>
     <use xlink:href="#SegoeUI-70" x="714.945312"/>
     <use xlink:href="#SegoeUI-75" x="773.734375"/>
     <use xlink:href="#SegoeUI-6e" x="830.326172"/>
     <use xlink:href="#SegoeUI-74" x="886.917969"/>
     <use xlink:href="#SegoeUI-6f" x="920.054688"/>
     <use xlink:href="#SegoeUI-20" x="978.648438"/>
     <use xlink:href="#SegoeUI-6d" x="1006.041016"/>
     <use xlink:href="#SegoeUI-65" x="1092.173828"/>
     <use xlink:href="#SegoeUI-64" x="1144.46875"/>
     <use xlink:href="#SegoeUI-69" x="1203.355469"/>
     <use xlink:href="#SegoeUI-6f" x="1227.574219"/>
    </g>
    <!-- del lado opuesto -->
    <g style="fill: #4b5563" transform="translate(102.72119 648.729828) scale(0.08 -0.08)">
     <defs>
      <path id="SegoeUI-6c" d="M 1031 0 
L 519 0 
L 519 4738 
L 1031 4738 
L 1031 0 
z
" transform="scale(0.015625)"/>
      <path id="SegoeUI-61" d="M 2809 0 
L 2297 0 
L 2297 500 
L 2284 500 
Q 1950 -75 1300 -75 
Q 822 -75 551 178 
Q 281 431 281 850 
Q 281 1747 1338 1894 
L 2297 2028 
Q 2297 2844 1638 2844 
Q 1059 2844 594 2450 
L 594 2975 
Q 1066 3275 1681 3275 
Q 2809 3275 2809 2081 
L 2809 0 
z
M 2297 1619 
L 1525 1513 
Q 1169 1463 987 1336 
Q 806 1209 806 888 
Q 806 653 973 504 
Q 1141 356 1419 356 
Q 1800 356 2048 623 
Q 2297 891 2297 1300 
L 2297 1619 
z
" transform="scale(0.015625)"/>
      <path id="SegoeUI-73" d="M 325 116 
L 325 666 
Q 744 356 1247 356 
Q 1922 356 1922 806 
Q 1922 934 1864 1023 
Q 1806 1113 1707 1181 
Q 1609 1250 1476 1304 
Q 1344 1359 1191 1419 
Q 978 1503 817 1589 
Q 656 1675 548 1783 
Q 441 1891 386 2028 
Q 331 2166 331 2350 
Q 331 2575 434 2748 
Q 538 2922 709 3039 
Q 881 3156 1101 3215 
Q 1322 3275 1556 3275 
Q 1972 3275 2300 3131 
L 2300 2613 
Q 1947 2844 1488 2844 
Q 1344 2844 1228 2811 
Q 1113 2778 1030 2718 
Q 947 2659 901 2576 
Q 856 2494 856 2394 
Q 856 2269 901 2184 
Q 947 2100 1034 2034 
Q 1122 1969 1247 1916 
Q 1372 1863 1531 1800 
Q 1744 1719 1912 1633 
Q 2081 1547 2200 1439 
Q 2319 1331 2383 1190 
Q 2447 1050 2447 856 
Q 2447 619 2342 444 
Q 2238 269 2063 153 
Q 1888 38 1659 -18 
Q 1431 -75 1181 -75 
Q 688 -75 325 116 
z
" transform="scale(0.015625)"/>
     </defs>
     <use xlink:href="#SegoeUI-64"/>
     <use xlink:href="#SegoeUI-65" x="58.886719"/>
     <use xlink:href="#SegoeUI-6c" x="111.181641"/>
     <use xlink:href="#SegoeUI-20" x="135.400391"/>
     <use xlink:href="#SegoeUI-6c" x="162.792969"/>
     <use xlink:href="#SegoeUI-61" x="187.011719"/>
     <use xlink:href="#SegoeUI-64" x="237.890625"/>
     <use xlink:href="#SegoeUI-6f" x="296.777344"/>
     <use xlink:href="#SegoeUI-20" x="355.371094"/>
     <use xlink:href="#SegoeUI-6f" x="382.763672"/>
     <use xlink:href="#SegoeUI-70" x="441.357422"/>
     <use xlink:href="#SegoeUI-75" x="500.146484"/>
     <use xlink:href="#SegoeUI-65" x="556.738281"/>
     <use xlink:href="#SegoeUI-73" x="609.033203"/>
     <use xlink:href="#SegoeUI-74" x="651.464844"/>
     <use xlink:href="#SegoeUI-6f" x="684.601562"/>
    </g>
   </g>
   <g id="text_23">
    <g id="patch_8">
     <path d="M 103.943143 696.253912 
L 160.956737 696.253912 
Q 162.756737 696.253912 162.756737 694.453912 
L 162.756737 685.721099 
Q 162.756737 683.921099 160.956737 683.921099 
L 103.943143 683.921099 
Q 102.143143 683.921099 102.143143 685.721099 
L 102.143143 694.453912 
Q 102.143143 696.253912 103.943143 696.253912 
z
" style="fill: #ffffff; stroke: #1f2937; stroke-linejoin: miter"/>
    </g>
    <!-- Centroide (G) -->
    <g style="fill: #1f2937" transform="translate(103.943143 692.383912) scale(0.09 -0.09)">
     <defs>
      <path id="SegoeUI-Bold-6f" d="M 1941 -78 
Q 1141 -78 683 370 
Q 225 819 225 1588 
Q 225 2381 700 2829 
Q 1175 3278 1984 3278 
Q 2781 3278 3234 2829 
Q 3688 2381 3688 1644 
Q 3688 847 3220 384 
Q 2753 -78 1941 -78 
z
M 1966 2522 
Q 1616 2522 1422 2281 
Q 1228 2041 1228 1600 
Q 1228 678 1972 678 
Q 2681 678 2681 1625 
Q 2681 2522 1966 2522 
z
" transform="scale(0.015625)"/>
      <path id="SegoeUI-Bold-20" transform="scale(0.015625)"/>
      <path id="SegoeUI-Bold-28" d="M 2309 -1019 
L 1503 -1019 
Q 494 94 494 1716 
Q 494 3281 1503 4481 
L 2303 4481 
Q 1356 3225 1356 1716 
Q 1356 206 2309 -1019 
z
" transform="scale(0.015625)"/>
      <path id="SegoeUI-Bold-47" d="M 4191 300 
Q 3534 -78 2559 -78 
Q 1478 -78 854 520 
Q 231 1119 231 2169 
Q 231 3225 912 3890 
Q 1594 4556 2725 4556 
Q 3438 4556 3981 4359 
L 3981 3413 
Q 3463 3713 2713 3713 
Q 2084 3713 1689 3305 
Q 1294 2897 1294 2216 
Q 1294 1525 1648 1147 
Q 2003 769 2606 769 
Q 2969 769 3181 872 
L 3181 1747 
L 2284 1747 
L 2284 2553 
L 4191 2553 
L 4191 300 
z
" transform="scale(0.015625)"/>
      <path id="SegoeUI-Bold-29" d="M 856 -1019 
L 56 -1019 
Q 1013 200 1013 1716 
Q 1013 3219 56 4481 
L 863 4481 
Q 1875 3278 1875 1716 
Q 1875 106 856 -1019 
z
" transform="scale(0.015625)"/>
     </defs>
     <use xlink:href="#SegoeUI-Bold-43"/>
     <use xlink:href="#SegoeUI-Bold-65" x="62.402344"/>
     <use xlink:href="#SegoeUI-Bold-6e" x="116.503906"/>
     <use xlink:href="#SegoeUI-Bold-74" x="177.001953"/>
     <use xlink:href="#SegoeUI-Bold-72" x="215.917969"/>
     <use xlink:href="#SegoeUI-Bold-6f" x="255.337891"/>
     <use xlink:href="#SegoeUI-Bold-69" x="316.470703"/>
     <use xlink:href="#SegoeUI-Bold-64" x="344.888672"/>
     <use xlink:href="#SegoeUI-Bold-65" x="406.802734"/>
     <use xlink:href="#SegoeUI-Bold-20" x="460.904297"/>
     <use xlink:href="#SegoeUI-Bold-28" x="488.492188"/>
     <use xlink:href="#SegoeUI-Bold-47" x="525.40625"/>
     <use xlink:href="#SegoeUI-Bold-29" x="596.5"/>
    </g>
   </g>
   <g id="text_24">
    <!-- Altura -->
    <g style="fill: #e12885" transform="translate(368.361539 589.928415) scale(0.1 -0.1)">
     <use xlink:href="#SegoeUI-Bold-41"/>
     <use xlink:href="#SegoeUI-Bold-6c" x="70.3125"/>
     <use xlink:href="#SegoeUI-Bold-74" x="98.730469"/>
     <use xlink:href="#SegoeUI-Bold-75" x="137.646484"/>
     <use xlink:href="#SegoeUI-Bold-72" x="198.144531"/>
     <use xlink:href="#SegoeUI-Bold-61" x="237.939453"/>
    </g>
   </g>
   <g id="text_25">
    <!-- Perpendicular desde -->
    <g style="fill: #4b5563" transform="translate(347.151695 639.074328) scale(0.08 -0.08)">
     <defs>
      <path id="SegoeUI-50" d="M 1113 1694 
L 1113 0 
L 588 0 
L 588 4481 
L 1819 4481 
Q 2538 4481 2933 4131 
Q 3328 3781 3328 3144 
Q 3328 2506 2889 2100 
Q 2450 1694 1703 1694 
L 1113 1694 
z
M 1113 4006 
L 1113 2169 
L 1663 2169 
Q 2206 2169 2492 2417 
Q 2778 2666 2778 3119 
Q 2778 4006 1728 4006 
L 1113 4006 
z
" transform="scale(0.015625)"/>
     </defs>
     <use xlink:href="#SegoeUI-50"/>
     <use xlink:href="#SegoeUI-65" x="52.255859"/>
     <use xlink:href="#SegoeUI-72" x="104.550781"/>
     <use xlink:href="#SegoeUI-70" x="139.316406"/>
     <use xlink:href="#SegoeUI-65" x="198.105469"/>
     <use xlink:href="#SegoeUI-6e" x="250.400391"/>
     <use xlink:href="#SegoeUI-64" x="306.992188"/>
     <use xlink:href="#SegoeUI-69" x="365.878906"/>
     <use xlink:href="#SegoeUI-63" x="390.097656"/>
     <use xlink:href="#SegoeUI-75" x="436.289062"/>
     <use xlink:href="#SegoeUI-6c" x="492.880859"/>
     <use xlink:href="#SegoeUI-61" x="517.099609"/>
     <use xlink:href="#SegoeUI-72" x="567.978516"/>
     <use xlink:href="#SegoeUI-20" x="602.744141"/>
     <use xlink:href="#SegoeUI-64" x="630.136719"/>
     <use xlink:href="#SegoeUI-65" x="689.023438"/>
     <use xlink:href="#SegoeUI-73" x="741.318359"/>
     <use xlink:href="#SegoeUI-64" x="783.75"/>
     <use xlink:href="#SegoeUI-65" x="842.636719"/>
    </g>
    <!-- vértice al lado opuesto -->
    <g style="fill: #4b5563" transform="translate(342.785445 648.764703) scale(0.08 -0.08)">
     <use xlink:href="#SegoeUI-76"/>
     <use xlink:href="#SegoeUI-e9" x="47.275391"/>
     <use xlink:href="#SegoeUI-72" x="99.570312"/>
     <use xlink:href="#SegoeUI-74" x="137.210938"/>
     <use xlink:href="#SegoeUI-69" x="171.097656"/>
     <use xlink:href="#SegoeUI-63" x="195.316406"/>
     <use xlink:href="#SegoeUI-65" x="241.507812"/>
     <use xlink:href="#SegoeUI-20" x="293.802734"/>
     <use xlink:href="#SegoeUI-61" x="321.195312"/>
     <use xlink:href="#SegoeUI-6c" x="372.074219"/>
     <use xlink:href="#SegoeUI-20" x="396.292969"/>
     <use xlink:href="#SegoeUI-6c" x="423.685547"/>
     <use xlink:href="#SegoeUI-61" x="447.904297"/>
     <use xlink:href="#SegoeUI-64" x="498.783203"/>
     <use xlink:href="#SegoeUI-6f" x="557.669922"/>
     <use xlink:href="#SegoeUI-20" x="616.263672"/>
     <use xlink:href="#SegoeUI-6f" x="643.65625"/>
     <use xlink:href="#SegoeUI-70" x="702.25"/>
     <use xlink:href="#SegoeUI-75" x="761.039062"/>
     <use xlink:href="#SegoeUI-65" x="817.630859"/>
     <use xlink:href="#SegoeUI-73" x="869.925781"/>
     <use xlink:href="#SegoeUI-74" x="912.357422"/>
     <use xlink:href="#SegoeUI-6f" x="945.494141"/>
    </g>
   </g>
   <g id="text_26">
    <g id="patch_9">
     <path d="M 351.525054 696.253912 
L 414.374586 696.253912 
Q 416.174586 696.253912 416.174586 694.453912 
L 416.174586 685.721099 
Q 416.174586 683.921099 414.374586 683.921099 
L 351.525054 683.921099 
Q 349.725054 683.921099 349.725054 685.721099 
L 349.725054 694.453912 
Q 349.725054 696.253912 351.525054 696.253912 
z
" style="fill: #ffffff; stroke: #e12885; stroke-linejoin: miter"/>
    </g>
    <!-- Ortocentro (H) -->
    <g style="fill: #e12885" transform="translate(351.525054 692.383912) scale(0.09 -0.09)">
     <defs>
      <path id="SegoeUI-Bold-4f" d="M 2406 -78 
Q 1444 -78 837 548 
Q 231 1175 231 2181 
Q 231 3244 847 3900 
Q 1463 4556 2478 4556 
Q 3438 4556 4030 3928 
Q 4622 3300 4622 2272 
Q 4622 1216 4008 569 
Q 3394 -78 2406 -78 
z
M 2450 3688 
Q 1919 3688 1606 3289 
Q 1294 2891 1294 2234 
Q 1294 1569 1606 1181 
Q 1919 794 2425 794 
Q 2947 794 3253 1170 
Q 3559 1547 3559 2216 
Q 3559 2913 3262 3300 
Q 2966 3688 2450 3688 
z
" transform="scale(0.015625)"/>
      <path id="SegoeUI-Bold-48" d="M 4391 0 
L 3378 0 
L 3378 1825 
L 1522 1825 
L 1522 0 
L 513 0 
L 513 4481 
L 1522 4481 
L 1522 2694 
L 3378 2694 
L 3378 4481 
L 4391 4481 
L 4391 0 
z
" transform="scale(0.015625)"/>
     </defs>
     <use xlink:href="#SegoeUI-Bold-4f"/>
     <use xlink:href="#SegoeUI-Bold-72" x="75.830078"/>
     <use xlink:href="#SegoeUI-Bold-74" x="118.5"/>
     <use xlink:href="#SegoeUI-Bold-6f" x="157.041016"/>
     <use xlink:href="#SegoeUI-Bold-63" x="218.173828"/>
     <use xlink:href="#SegoeUI-Bold-65" x="266.171875"/>
     <use xlink:href="#SegoeUI-Bold-6e" x="320.273438"/>
     <use xlink:href="#SegoeUI-Bold-74" x="380.771484"/>
     <use xlink:href="#SegoeUI-Bold-72" x="419.6875"/>
     <use xlink:href="#SegoeUI-Bold-6f" x="459.107422"/>
     <use xlink:href="#SegoeUI-Bold-20" x="520.240234"/>
     <use xlink:href="#SegoeUI-Bold-28" x="547.828125"/>
     <use xlink:href="#SegoeUI-Bold-48" x="584.742188"/>
     <use xlink:href="#SegoeUI-Bold-29" x="661.353516"/>
    </g>
   </g>
   <g id="text_27">
    <!-- Mediatriz -->
    <g style="fill: #4b5563" transform="translate(610.980169 589.928415) scale(0.1 -0.1)">
     <use xlink:href="#SegoeUI-Bold-4d"/>
     <use xlink:href="#SegoeUI-Bold-65" x="95.703125"/>
     <use xlink:href="#SegoeUI-Bold-64" x="149.804688"/>
     <use xlink:href="#SegoeUI-Bold-69" x="211.71875"/>
     <use xlink:href="#SegoeUI-Bold-61" x="240.136719"/>
     <use xlink:href="#SegoeUI-Bold-74" x="293.945312"/>
     <use xlink:href="#SegoeUI-Bold-72" x="332.861328"/>
     <use xlink:href="#SegoeUI-Bold-69" x="373.03125"/>
     <use xlink:href="#SegoeUI-Bold-7a" x="401.449219"/>
    </g>
   </g>
   <g id="text_28">
    <!-- Perpendicular por el -->
    <g style="fill: #4b5563" transform="translate(598.001575 639.074328) scale(0.08 -0.08)">
     <use xlink:href="#SegoeUI-50"/>
     <use xlink:href="#SegoeUI-65" x="52.255859"/>
     <use xlink:href="#SegoeUI-72" x="104.550781"/>
     <use xlink:href="#SegoeUI-70" x="139.316406"/>
     <use xlink:href="#SegoeUI-65" x="198.105469"/>
     <use xlink:href="#SegoeUI-6e" x="250.400391"/>
     <use xlink:href="#SegoeUI-64" x="306.992188"/>
     <use xlink:href="#SegoeUI-69" x="365.878906"/>
     <use xlink:href="#SegoeUI-63" x="390.097656"/>
     <use xlink:href="#SegoeUI-75" x="436.289062"/>
     <use xlink:href="#SegoeUI-6c" x="492.880859"/>
     <use xlink:href="#SegoeUI-61" x="517.099609"/>
     <use xlink:href="#SegoeUI-72" x="567.978516"/>
     <use xlink:href="#SegoeUI-20" x="602.744141"/>
     <use xlink:href="#SegoeUI-70" x="630.136719"/>
     <use xlink:href="#SegoeUI-6f" x="688.925781"/>
     <use xlink:href="#SegoeUI-72" x="747.519531"/>
     <use xlink:href="#SegoeUI-20" x="782.285156"/>
     <use xlink:href="#SegoeUI-65" x="809.677734"/>
     <use xlink:href="#SegoeUI-6c" x="861.972656"/>
    </g>
    <!-- punto medio del lado -->
    <g style="fill: #4b5563" transform="translate(595.289075 648.613578) scale(0.08 -0.08)">
     <use xlink:href="#SegoeUI-70"/>
     <use xlink:href="#SegoeUI-75" x="58.789062"/>
     <use xlink:href="#SegoeUI-6e" x="115.380859"/>
     <use xlink:href="#SegoeUI-74" x="171.972656"/>
     <use xlink:href="#SegoeUI-6f" x="205.109375"/>
     <use xlink:href="#SegoeUI-20" x="263.703125"/>
     <use xlink:href="#SegoeUI-6d" x="291.095703"/>
     <use xlink:href="#SegoeUI-65" x="377.228516"/>
     <use xlink:href="#SegoeUI-64" x="429.523438"/>
     <use xlink:href="#SegoeUI-69" x="488.410156"/>
     <use xlink:href="#SegoeUI-6f" x="512.628906"/>
     <use xlink:href="#SegoeUI-20" x="571.222656"/>
     <use xlink:href="#SegoeUI-64" x="598.615234"/>
     <use xlink:href="#SegoeUI-65" x="657.501953"/>
     <use xlink:href="#SegoeUI-6c" x="709.796875"/>
     <use xlink:href="#SegoeUI-20" x="734.015625"/>
     <use xlink:href="#SegoeUI-6c" x="761.408203"/>
     <use xlink:href="#SegoeUI-61" x="785.626953"/>
     <use xlink:href="#SegoeUI-64" x="836.505859"/>
     <use xlink:href="#SegoeUI-6f" x="895.392578"/>
    </g>
   </g>
   <g id="text_29">
    <g id="patch_10">
     <path d="M 598.412278 696.253912 
L 668.487122 696.253912 
Q 670.287122 696.253912 670.287122 694.453912 
L 670.287122 685.721099 
Q 670.287122 683.921099 668.487122 683.921099 
L 598.412278 683.921099 
Q 596.612278 683.921099 596.612278 685.721099 
L 596.612278 694.453912 
Q 596.612278 696.253912 598.412278 696.253912 
z
" style="fill: #ffffff; stroke: #4b5563; stroke-linejoin: miter"/>
    </g>
    <!-- Circuncentro (O) -->
    <g style="fill: #4b5563" transform="translate(598.412278 692.383912) scale(0.09 -0.09)">
     <use xlink:href="#SegoeUI-Bold-43"/>
     <use xlink:href="#SegoeUI-Bold-69" x="62.402344"/>
     <use xlink:href="#SegoeUI-Bold-72" x="90.820312"/>
     <use xlink:href="#SegoeUI-Bold-63" x="130.240234"/>
     <use xlink:href="#SegoeUI-Bold-75" x="178.238281"/>
     <use xlink:href="#SegoeUI-Bold-6e" x="238.736328"/>
     <use xlink:href="#SegoeUI-Bold-63" x="299.234375"/>
     <use xlink:href="#SegoeUI-Bold-65" x="347.232422"/>
     <use xlink:href="#SegoeUI-Bold-6e" x="401.333984"/>
     <use xlink:href="#SegoeUI-Bold-74" x="461.832031"/>
     <use xlink:href="#SegoeUI-Bold-72" x="500.748047"/>
     <use xlink:href="#SegoeUI-Bold-6f" x="540.167969"/>
     <use xlink:href="#SegoeUI-Bold-20" x="601.300781"/>
     <use xlink:href="#SegoeUI-Bold-28" x="628.888672"/>
     <use xlink:href="#SegoeUI-Bold-4f" x="665.802734"/>
     <use xlink:href="#SegoeUI-Bold-29" x="741.632812"/>
    </g>
   </g>
   <g id="text_30">
    <!-- Bisectriz -->
    <g style="fill: #f59e0b" transform="translate(864.246455 589.928415) scale(0.1 -0.1)">
     <use xlink:href="#SegoeUI-Bold-42"/>
     <use xlink:href="#SegoeUI-Bold-69" x="64.111328"/>
     <use xlink:href="#SegoeUI-Bold-73" x="92.529297"/>
     <use xlink:href="#SegoeUI-Bold-65" x="136.523438"/>
     <use xlink:href="#SegoeUI-Bold-63" x="190.625"/>
     <use xlink:href="#SegoeUI-Bold-74" x="238.623047"/>
     <use xlink:href="#SegoeUI-Bold-72" x="277.539062"/>
     <use xlink:href="#SegoeUI-Bold-69" x="317.708984"/>
     <use xlink:href="#SegoeUI-Bold-7a" x="346.126953"/>
    </g>
   </g>
   <g id="text_31">
    <!-- Divide el ángulo -->
    <g style="fill: #4b5563" transform="translate(855.36083 639.190578) scale(0.08 -0.08)">
     <defs>
      <path id="SegoeUI-e1" d="M 2809 0 
L 2297 0 
L 2297 500 
L 2284 500 
Q 1950 -75 1300 -75 
Q 822 -75 551 178 
Q 281 431 281 850 
Q 281 1747 1338 1894 
L 2297 2028 
Q 2297 2844 1638 2844 
Q 1059 2844 594 2450 
L 594 2975 
Q 1066 3275 1681 3275 
Q 2809 3275 2809 2081 
L 2809 0 
z
M 2297 1619 
L 1525 1513 
Q 1169 1463 987 1336 
Q 806 1209 806 888 
Q 806 653 973 504 
Q 1141 356 1419 356 
Q 1800 356 2048 623 
Q 2297 891 2297 1300 
L 2297 1619 
z
M 2366 4831 
L 1547 3806 
L 1150 3806 
L 1847 4831 
L 2366 4831 
z
" transform="scale(0.015625)"/>
      <path id="SegoeUI-67" d="M 3250 256 
Q 3250 -1506 1563 -1506 
Q 969 -1506 525 -1281 
L 525 -769 
Q 1066 -1069 1556 -1069 
Q 2738 -1069 2738 188 
L 2738 538 
L 2725 538 
Q 2359 -75 1625 -75 
Q 1028 -75 664 351 
Q 300 778 300 1497 
Q 300 2313 692 2794 
Q 1084 3275 1766 3275 
Q 2413 3275 2725 2756 
L 2738 2756 
L 2738 3200 
L 3250 3200 
L 3250 256 
z
M 2738 1447 
L 2738 1919 
Q 2738 2300 2480 2572 
Q 2222 2844 1838 2844 
Q 1363 2844 1094 2498 
Q 825 2153 825 1531 
Q 825 997 1083 676 
Q 1341 356 1766 356 
Q 2197 356 2467 662 
Q 2738 969 2738 1447 
z
" transform="scale(0.015625)"/>
     </defs>
     <use xlink:href="#SegoeUI-44"/>
     <use xlink:href="#SegoeUI-69" x="70.117188"/>
     <use xlink:href="#SegoeUI-76" x="94.335938"/>
     <use xlink:href="#SegoeUI-69" x="142.236328"/>
     <use xlink:href="#SegoeUI-64" x="166.455078"/>
     <use xlink:href="#SegoeUI-65" x="225.341797"/>
     <use xlink:href="#SegoeUI-20" x="277.636719"/>
     <use xlink:href="#SegoeUI-65" x="305.029297"/>
     <use xlink:href="#SegoeUI-6c" x="357.324219"/>
     <use xlink:href="#SegoeUI-20" x="381.542969"/>
     <use xlink:href="#SegoeUI-e1" x="408.935547"/>
     <use xlink:href="#SegoeUI-6e" x="459.814453"/>
     <use xlink:href="#SegoeUI-67" x="516.40625"/>
     <use xlink:href="#SegoeUI-75" x="575.292969"/>
     <use xlink:href="#SegoeUI-6c" x="631.884766"/>
     <use xlink:href="#SegoeUI-6f" x="656.103516"/>
    </g>
    <!-- en dos partes iguales -->
    <g style="fill: #4b5563" transform="translate(846.576455 648.772328) scale(0.08 -0.08)">
     <use xlink:href="#SegoeUI-65"/>
     <use xlink:href="#SegoeUI-6e" x="52.294922"/>
     <use xlink:href="#SegoeUI-20" x="108.886719"/>
     <use xlink:href="#SegoeUI-64" x="136.279297"/>
     <use xlink:href="#SegoeUI-6f" x="195.166016"/>
     <use xlink:href="#SegoeUI-73" x="253.759766"/>
     <use xlink:href="#SegoeUI-20" x="296.191406"/>
     <use xlink:href="#SegoeUI-70" x="323.583984"/>
     <use xlink:href="#SegoeUI-61" x="380.998047"/>
     <use xlink:href="#SegoeUI-72" x="431.876953"/>
     <use xlink:href="#SegoeUI-74" x="469.517578"/>
     <use xlink:href="#SegoeUI-65" x="502.654297"/>
     <use xlink:href="#SegoeUI-73" x="554.949219"/>
     <use xlink:href="#SegoeUI-20" x="597.380859"/>
     <use xlink:href="#SegoeUI-69" x="624.773438"/>
     <use xlink:href="#SegoeUI-67" x="648.992188"/>
     <use xlink:href="#SegoeUI-75" x="707.878906"/>
     <use xlink:href="#SegoeUI-61" x="764.470703"/>
     <use xlink:href="#SegoeUI-6c" x="815.349609"/>
     <use xlink:href="#SegoeUI-65" x="839.568359"/>
     <use xlink:href="#SegoeUI-73" x="891.863281"/>
    </g>
   </g>
   <g id="text_32">
    <g id="patch_11">
     <path d="M 860.216299 696.253912 
L 907.682861 696.253912 
Q 909.482861 696.253912 909.482861 694.453912 
L 909.482861 685.721099 
Q 909.482861 683.921099 907.682861 683.921099 
L 860.216299 683.921099 
Q 858.416299 683.921099 858.416299 685.721099 
L 858.416299 694.453912 
Q 858.416299 696.253912 860.216299 696.253912 
z
" style="fill: #ffffff; stroke: #f59e0b; stroke-linejoin: miter"/>
    </g>
    <!-- Incentro (I) -->
    <g style="fill: #f59e0b" transform="translate(860.216299 692.383912) scale(0.09 -0.09)">
     <defs>
      <path id="SegoeUI-Bold-49" d="M 1522 0 
L 513 0 
L 513 4481 
L 1522 4481 
L 1522 0 
z
" transform="scale(0.015625)"/>
     </defs>
     <use xlink:href="#SegoeUI-Bold-49"/>
     <use xlink:href="#SegoeUI-Bold-6e" x="31.689453"/>
     <use xlink:href="#SegoeUI-Bold-63" x="92.1875"/>
     <use xlink:href="#SegoeUI-Bold-65" x="140.185547"/>
     <use xlink:href="#SegoeUI-Bold-6e" x="194.287109"/>
     <use xlink:href="#SegoeUI-Bold-74" x="254.785156"/>
     <use xlink:href="#SegoeUI-Bold-72" x="293.701172"/>
     <use xlink:href="#SegoeUI-Bold-6f" x="333.121094"/>
     <use xlink:href="#SegoeUI-Bold-20" x="394.253906"/>
     <use xlink:href="#SegoeUI-Bold-28" x="421.841797"/>
     <use xlink:href="#SegoeUI-Bold-49" x="458.755859"/>
     <use xlink:href="#SegoeUI-Bold-29" x="490.445312"/>
    </g>
   </g>
  </g>
  <g id="text_33">
   <!-- Líneas Notables del Triángulo -->
   <g style="fill: #2c2f33" transform="translate(411.137104 17.564375) scale(0.14 -0.14)">
    <defs>
     <path id="SegoeUI-Bold-4c" d="M 3181 0 
L 513 0 
L 513 4481 
L 1522 4481 
L 1522 819 
L 3181 819 
L 3181 0 
z
" transform="scale(0.015625)"/>
     <path id="SegoeUI-Bold-ed" d="M 1403 0 
L 416 0 
L 416 3200 
L 1403 3200 
L 1403 0 
z
M 1911 4716 
L 932 3706 
L 220 3706 
L 1032 4716 
L 1911 4716 
z
" transform="scale(0.015625)"/>
     <path id="SegoeUI-Bold-4e" d="M 4544 0 
L 3525 0 
L 1678 2816 
Q 1516 3063 1453 3188 
L 1441 3188 
Q 1466 2950 1466 2463 
L 1466 0 
L 513 0 
L 513 4481 
L 1600 4481 
L 3378 1753 
Q 3500 1569 3603 1388 
L 3616 1388 
Q 3591 1544 3591 2003 
L 3591 4481 
L 4544 4481 
L 4544 0 
z
" transform="scale(0.015625)"/>
     <path id="SegoeUI-Bold-62" d="M 1416 372 
L 1403 372 
L 1403 0 
L 416 0 
L 416 4738 
L 1403 4738 
L 1403 2719 
L 1416 2719 
Q 1781 3278 2456 3278 
Q 3075 3278 3409 2853 
Q 3744 2428 3744 1691 
Q 3744 891 3353 406 
Q 2963 -78 2309 -78 
Q 1719 -78 1416 372 
z
M 1388 1722 
L 1388 1394 
Q 1388 1084 1566 881 
Q 1744 678 2022 678 
Q 2359 678 2545 939 
Q 2731 1200 2731 1678 
Q 2731 2075 2561 2298 
Q 2391 2522 2075 2522 
Q 1778 2522 1583 2300 
Q 1388 2078 1388 1722 
z
" transform="scale(0.015625)"/>
     <path id="SegoeUI-Bold-54" d="M 3659 3659 
L 2381 3659 
L 2381 0 
L 1369 0 
L 1369 3659 
L 97 3659 
L 97 4481 
L 3659 4481 
L 3659 3659 
z
" transform="scale(0.015625)"/>
     <path id="SegoeUI-Bold-e1" d="M 3078 0 
L 2144 0 
L 2144 459 
L 2131 459 
Q 1809 -78 1178 -78 
Q 713 -78 445 186 
Q 178 450 178 891 
Q 178 1822 1281 1966 
L 2150 2081 
Q 2150 2606 1581 2606 
Q 1009 2606 494 2266 
L 494 3009 
Q 700 3116 1058 3197 
Q 1416 3278 1709 3278 
Q 3078 3278 3078 1913 
L 3078 0 
z
M 2150 1300 
L 2150 1516 
L 1569 1441 
Q 1088 1378 1088 1006 
Q 1088 838 1205 730 
Q 1322 622 1522 622 
Q 1800 622 1975 814 
Q 2150 1006 2150 1300 
z
M 2783 4716 
L 1804 3706 
L 1092 3706 
L 1904 4716 
L 2783 4716 
z
" transform="scale(0.015625)"/>
     <path id="SegoeUI-Bold-67" d="M 3553 366 
Q 3553 -525 3037 -1014 
Q 2522 -1503 1544 -1503 
Q 897 -1503 519 -1319 
L 519 -488 
Q 1013 -775 1516 -775 
Q 2016 -775 2291 -511 
Q 2566 -247 2566 206 
L 2566 459 
L 2553 459 
Q 2216 -78 1556 -78 
Q 944 -78 584 353 
Q 225 784 225 1509 
Q 225 2322 625 2800 
Q 1025 3278 1678 3278 
Q 2263 3278 2553 2828 
L 2566 2828 
L 2566 3200 
L 3553 3200 
L 3553 366 
z
M 2578 1538 
L 2578 1791 
Q 2578 2094 2398 2308 
Q 2219 2522 1931 2522 
Q 1603 2522 1415 2265 
Q 1228 2009 1228 1544 
Q 1228 1144 1406 911 
Q 1584 678 1894 678 
Q 2200 678 2389 914 
Q 2578 1150 2578 1538 
z
" transform="scale(0.015625)"/>
    </defs>
    <use xlink:href="#SegoeUI-Bold-4c"/>
    <use xlink:href="#SegoeUI-Bold-ed" x="51.123047"/>
    <use xlink:href="#SegoeUI-Bold-6e" x="79.541016"/>
    <use xlink:href="#SegoeUI-Bold-65" x="140.039062"/>
    <use xlink:href="#SegoeUI-Bold-61" x="194.140625"/>
    <use xlink:href="#SegoeUI-Bold-73" x="247.949219"/>
    <use xlink:href="#SegoeUI-Bold-20" x="291.943359"/>
    <use xlink:href="#SegoeUI-Bold-4e" x="319.53125"/>
    <use xlink:href="#SegoeUI-Bold-6f" x="398.535156"/>
    <use xlink:href="#SegoeUI-Bold-74" x="459.667969"/>
    <use xlink:href="#SegoeUI-Bold-61" x="498.583984"/>
    <use xlink:href="#SegoeUI-Bold-62" x="552.392578"/>
    <use xlink:href="#SegoeUI-Bold-6c" x="614.404297"/>
    <use xlink:href="#SegoeUI-Bold-65" x="642.822266"/>
    <use xlink:href="#SegoeUI-Bold-73" x="696.923828"/>
    <use xlink:href="#SegoeUI-Bold-20" x="740.917969"/>
    <use xlink:href="#SegoeUI-Bold-64" x="768.505859"/>
    <use xlink:href="#SegoeUI-Bold-65" x="830.419922"/>
    <use xlink:href="#SegoeUI-Bold-6c" x="884.521484"/>
    <use xlink:href="#SegoeUI-Bold-20" x="912.939453"/>
    <use xlink:href="#SegoeUI-Bold-54" x="940.527344"/>
    <use xlink:href="#SegoeUI-Bold-72" x="991.621094"/>
    <use xlink:href="#SegoeUI-Bold-69" x="1031.791016"/>
    <use xlink:href="#SegoeUI-Bold-e1" x="1060.208984"/>
    <use xlink:href="#SegoeUI-Bold-6e" x="1114.017578"/>
    <use xlink:href="#SegoeUI-Bold-67" x="1174.515625"/>
    <use xlink:href="#SegoeUI-Bold-75" x="1236.429688"/>
    <use xlink:href="#SegoeUI-Bold-6c" x="1296.927734"/>
    <use xlink:href="#SegoeUI-Bold-6f" x="1325.345703"/>
   </g>
  </g>
 </g>
 <defs>
  <clipPath id="p654e5fc838">
   <rect x="7.2" y="183.232159" width="212.69988" height="167.501156"/>
  </clipPath>
  <clipPath id="p957c324fd8">
   <rect x="270.29988" y="183.232159" width="212.69988" height="167.501155"/>
  </clipPath>
  <clipPath id="p3342a82a12">
   <rect x="533.39976" y="183.232159" width="212.69988" height="167.501156"/>
  </clipPath>
  <clipPath id="pd0d72f3251">
   <rect x="796.49964" y="183.232159" width="212.69988" height="167.501155"/>
  </clipPath>
  <clipPath id="pf264c7c95b">
   <rect x="7.2" y="561.112807" width="1001.99952" height="160.086713"/>
  </clipPath>
 </defs>
</svg>
