<?xml version="1.0" encoding="utf-8" standalone="no"?>
<!DOCTYPE svg PUBLIC "-//W3C//DTD SVG 1.1//EN"
  "http://www.w3.org/Graphics/SVG/1.1/DTD/svg11.dtd">
<svg xmlns:xlink="http://www.w3.org/1999/xlink" width="872.39952pt" height="665.142079pt" viewBox="0 0 872.39952 665.142079" xmlns="http://www.w3.org/2000/svg" version="1.1">
 <metadata>
  <rdf:RDF xmlns:dc="http://purl.org/dc/elements/1.1/" xmlns:cc="http://creativecommons.org/ns#" xmlns:rdf="http://www.w3.org/1999/02/22-rdf-syntax-ns#">
   <cc:Work>
    <dc:type rdf:resource="http://purl.org/dc/dcmitype/StillImage"/>
    <dc:date>2026-04-11T16:11:42.823107</dc:date>
    <dc:format>image/svg+xml</dc:format>
    <dc:creator>
     <cc:Agent>
      <dc:title>Matplotlib v3.8.4, https://matplotlib.org/</dc:title>
     </cc:Agent>
    </dc:creator>
   </cc:Work>
  </rdf:RDF>
 </metadata>
 <defs>
  <style type="text/css">*{stroke-linejoin: round; stroke-linecap: butt}</style>
 </defs>
 <g id="figure_1">
  <g id="patch_1">
   <path d="M 0 665.142079 
L 872.39952 665.142079 
L 872.39952 0 
L 0 0 
z
" style="fill: #ffffff"/>
  </g>
  <g id="axes_1">
   <g id="patch_2">
    <path d="M 54.38664 259.982013 
L 195.94656 259.982013 
L 101.57328 146.734077 
z
" clip-path="url(#pad3717107f)" style="fill: #39c5bb; opacity: 0.1; stroke: #39c5bb; stroke-width: 2; stroke-linejoin: miter"/>
   </g>
   <g id="patch_3">
    <path d="M 243.1332 259.982013 
L 384.69312 259.982013 
L 290.31984 146.734077 
z
" clip-path="url(#pad3717107f)" style="fill: #39c5bb; opacity: 0.1; stroke: #39c5bb; stroke-width: 2; stroke-linejoin: miter"/>
   </g>
   <g id="line2d_1">
    <path d="M 125.1666 267.531875 
L 125.1666 252.43215 
" clip-path="url(#pad3717107f)" style="fill: none; stroke: #e12885; stroke-width: 2; stroke-linecap: square"/>
   </g>
   <g id="line2d_2">
    <path d="M 154.559885 198.52474 
L 142.959955 208.191349 
" clip-path="url(#pad3717107f)" style="fill: none; stroke: #e12885; stroke-width: 2; stroke-linecap: square"/>
   </g>
   <g id="line2d_3">
    <path d="M 71.010856 200.454251 
L 84.949064 206.261838 
" clip-path="url(#pad3717107f)" style="fill: none; stroke: #e12885; stroke-width: 2; stroke-linecap: square"/>
   </g>
   <g id="line2d_4">
    <path d="M 313.91316 267.531875 
L 313.91316 252.43215 
" clip-path="url(#pad3717107f)" style="fill: none; stroke: #e12885; stroke-width: 2; stroke-linecap: square"/>
   </g>
   <g id="line2d_5">
    <path d="M 343.306445 198.52474 
L 331.706515 208.191349 
" clip-path="url(#pad3717107f)" style="fill: none; stroke: #e12885; stroke-width: 2; stroke-linecap: square"/>
   </g>
   <g id="line2d_6">
    <path d="M 259.757416 200.454251 
L 273.695624 206.261838 
" clip-path="url(#pad3717107f)" style="fill: none; stroke: #e12885; stroke-width: 2; stroke-linecap: square"/>
   </g>
   <g id="text_1">
    <!-- ≅ -->
    <g style="fill: #4b5563" transform="translate(211.794255 209.481795) scale(0.24 -0.24)">
     <defs>
      <path id="SegoeUI-Bold-2245" d="M 519 0 
L 519 4369 
L 3613 4369 
L 3613 0 
L 519 0 
z
M 981 463 
L 3150 463 
L 3150 3906 
L 981 3906 
L 981 463 
z
" transform="scale(0.015625)"/>
     </defs>
     <use xlink:href="#SegoeUI-Bold-2245"/>
    </g>
   </g>
   <g id="text_2">
    <!-- LLL (Lado-Lado-Lado) -->
    <g style="fill: #1f2937" transform="translate(158.35863 108.984765) scale(0.12 -0.12)">
     <defs>
      <path id="SegoeUI-Bold-4c" d="M 3181 0 
L 513 0 
L 513 4481 
L 1522 4481 
L 1522 819 
L 3181 819 
L 3181 0 
z
" transform="scale(0.015625)"/>
      <path id="SegoeUI-Bold-20" transform="scale(0.015625)"/>
      <path id="SegoeUI-Bold-28" d="M 2309 -1019 
L 1503 -1019 
Q 494 94 494 1716 
Q 494 3281 1503 4481 
L 2303 4481 
Q 1356 3225 1356 1716 
Q 1356 206 2309 -1019 
z
" transform="scale(0.015625)"/>
      <path id="SegoeUI-Bold-61" d="M 3078 0 
L 2144 0 
L 2144 459 
L 2131 459 
Q 1809 -78 1178 -78 
Q 713 -78 445 186 
Q 178 450 178 891 
Q 178 1822 1281 1966 
L 2150 2081 
Q 2150 2606 1581 2606 
Q 1009 2606 494 2266 
L 494 3009 
Q 700 3116 1058 3197 
Q 1416 3278 1709 3278 
Q 3078 3278 3078 1913 
L 3078 0 
z
M 2150 1300 
L 2150 1516 
L 1569 1441 
Q 1088 1378 1088 1006 
Q 1088 838 1205 730 
Q 1322 622 1522 622 
Q 1800 622 1975 814 
Q 2150 1006 2150 1300 
z
" transform="scale(0.015625)"/>
      <path id="SegoeUI-Bold-64" d="M 3547 0 
L 2559 0 
L 2559 441 
L 2547 441 
Q 2209 -78 1556 -78 
Q 956 -78 590 345 
Q 225 769 225 1528 
Q 225 2322 628 2800 
Q 1031 3278 1684 3278 
Q 2303 3278 2547 2834 
L 2559 2834 
L 2559 4738 
L 3547 4738 
L 3547 0 
z
M 2578 1556 
L 2578 1797 
Q 2578 2109 2397 2315 
Q 2216 2522 1925 2522 
Q 1597 2522 1412 2264 
Q 1228 2006 1228 1556 
Q 1228 1134 1406 906 
Q 1584 678 1900 678 
Q 2200 678 2389 918 
Q 2578 1159 2578 1556 
z
" transform="scale(0.015625)"/>
      <path id="SegoeUI-Bold-6f" d="M 1941 -78 
Q 1141 -78 683 370 
Q 225 819 225 1588 
Q 225 2381 700 2829 
Q 1175 3278 1984 3278 
Q 2781 3278 3234 2829 
Q 3688 2381 3688 1644 
Q 3688 847 3220 384 
Q 2753 -78 1941 -78 
z
M 1966 2522 
Q 1616 2522 1422 2281 
Q 1228 2041 1228 1600 
Q 1228 678 1972 678 
Q 2681 678 2681 1625 
Q 2681 2522 1966 2522 
z
" transform="scale(0.015625)"/>
      <path id="SegoeUI-Bold-2d" d="M 2156 1363 
L 447 1363 
L 447 2053 
L 2156 2053 
L 2156 1363 
z
" transform="scale(0.015625)"/>
      <path id="SegoeUI-Bold-29" d="M 856 -1019 
L 56 -1019 
Q 1013 200 1013 1716 
Q 1013 3219 56 4481 
L 863 4481 
Q 1875 3278 1875 1716 
Q 1875 106 856 -1019 
z
" transform="scale(0.015625)"/>
     </defs>
     <use xlink:href="#SegoeUI-Bold-4c"/>
     <use xlink:href="#SegoeUI-Bold-4c" x="51.123047"/>
     <use xlink:href="#SegoeUI-Bold-4c" x="102.246094"/>
     <use xlink:href="#SegoeUI-Bold-20" x="153.369141"/>
     <use xlink:href="#SegoeUI-Bold-28" x="180.957031"/>
     <use xlink:href="#SegoeUI-Bold-4c" x="217.871094"/>
     <use xlink:href="#SegoeUI-Bold-61" x="268.994141"/>
     <use xlink:href="#SegoeUI-Bold-64" x="322.802734"/>
     <use xlink:href="#SegoeUI-Bold-6f" x="384.716797"/>
     <use xlink:href="#SegoeUI-Bold-2d" x="445.849609"/>
     <use xlink:href="#SegoeUI-Bold-4c" x="486.279297"/>
     <use xlink:href="#SegoeUI-Bold-61" x="537.402344"/>
     <use xlink:href="#SegoeUI-Bold-64" x="591.210938"/>
     <use xlink:href="#SegoeUI-Bold-6f" x="653.125"/>
     <use xlink:href="#SegoeUI-Bold-2d" x="714.257812"/>
     <use xlink:href="#SegoeUI-Bold-4c" x="754.6875"/>
     <use xlink:href="#SegoeUI-Bold-61" x="805.810547"/>
     <use xlink:href="#SegoeUI-Bold-64" x="859.619141"/>
     <use xlink:href="#SegoeUI-Bold-6f" x="921.533203"/>
     <use xlink:href="#SegoeUI-Bold-29" x="982.666016"/>
    </g>
   </g>
   <g id="text_3">
    <!-- 3 lados iguales -->
    <g style="fill: #6b7280" transform="translate(187.523474 132.578085) scale(0.1 -0.1)">
     <defs>
      <path id="SegoeUI-Italic-33" d="M 3284 3553 
Q 3284 3328 3215 3126 
Q 3147 2925 3000 2762 
Q 2853 2600 2625 2483 
Q 2397 2366 2081 2309 
L 2081 2297 
Q 2269 2269 2425 2184 
Q 2581 2100 2692 1972 
Q 2803 1844 2864 1678 
Q 2925 1513 2925 1319 
Q 2925 1034 2822 781 
Q 2719 528 2508 337 
Q 2297 147 1980 34 
Q 1663 -78 1234 -78 
Q 1063 -78 897 -54 
Q 731 -31 586 5 
Q 441 41 319 86 
Q 197 131 109 178 
L 219 666 
Q 303 609 420 553 
Q 538 497 673 455 
Q 809 413 957 386 
Q 1106 359 1253 359 
Q 1581 359 1803 439 
Q 2025 519 2159 648 
Q 2294 778 2350 945 
Q 2406 1113 2406 1288 
Q 2406 1659 2131 1876 
Q 1856 2094 1300 2094 
L 959 2094 
L 1056 2534 
L 1428 2534 
Q 1753 2534 2001 2600 
Q 2250 2666 2419 2786 
Q 2588 2906 2673 3078 
Q 2759 3250 2759 3463 
Q 2759 3597 2715 3717 
Q 2672 3838 2580 3927 
Q 2488 4016 2348 4069 
Q 2209 4122 2016 4122 
Q 1856 4122 1711 4098 
Q 1566 4075 1437 4037 
Q 1309 4000 1200 3953 
Q 1091 3906 1006 3859 
L 1113 4372 
Q 1194 4403 1294 4436 
Q 1394 4469 1516 4495 
Q 1638 4522 1784 4539 
Q 1931 4556 2106 4556 
Q 2422 4556 2644 4468 
Q 2866 4381 3009 4239 
Q 3153 4097 3218 3917 
Q 3284 3738 3284 3553 
z
" transform="scale(0.015625)"/>
      <path id="SegoeUI-Italic-20" transform="scale(0.015625)"/>
      <path id="SegoeUI-Italic-6c" d="M 1300 13 
Q 1222 -13 1123 -28 
Q 1025 -44 928 -44 
Q 613 -44 456 114 
Q 300 272 300 538 
Q 300 616 315 722 
Q 331 828 366 984 
L 1166 4741 
L 1684 4741 
L 881 972 
Q 853 841 842 769 
Q 831 697 831 647 
Q 831 519 901 451 
Q 972 384 1125 384 
Q 1206 384 1267 393 
Q 1328 403 1381 422 
L 1300 13 
z
" transform="scale(0.015625)"/>
      <path id="SegoeUI-Italic-61" d="M 2828 1025 
Q 2803 906 2779 757 
Q 2756 609 2739 464 
Q 2722 319 2711 194 
Q 2700 69 2700 0 
L 2169 0 
Q 2172 63 2178 150 
Q 2184 238 2195 331 
Q 2206 425 2217 515 
Q 2228 606 2241 672 
L 2228 672 
Q 2131 519 2031 383 
Q 1931 247 1809 144 
Q 1688 41 1538 -18 
Q 1388 -78 1184 -78 
Q 975 -78 801 -3 
Q 628 72 503 220 
Q 378 369 311 592 
Q 244 816 244 1113 
Q 244 1294 281 1525 
Q 319 1756 408 1997 
Q 497 2238 645 2467 
Q 794 2697 1014 2878 
Q 1234 3059 1534 3168 
Q 1834 3278 2228 3278 
Q 2478 3278 2743 3240 
Q 3009 3203 3272 3150 
L 2828 1025 
z
M 2681 2778 
Q 2572 2803 2425 2822 
Q 2278 2841 2150 2841 
Q 1878 2841 1670 2755 
Q 1463 2669 1309 2530 
Q 1156 2391 1051 2209 
Q 947 2028 884 1839 
Q 822 1650 795 1465 
Q 769 1281 769 1131 
Q 769 953 800 811 
Q 831 669 898 569 
Q 966 469 1070 414 
Q 1175 359 1319 359 
Q 1475 359 1611 423 
Q 1747 488 1865 597 
Q 1984 706 2081 850 
Q 2178 994 2256 1155 
Q 2334 1316 2389 1483 
Q 2444 1650 2478 1806 
L 2681 2778 
z
" transform="scale(0.015625)"/>
      <path id="SegoeUI-Italic-64" d="M 2816 984 
Q 2794 884 2773 743 
Q 2753 603 2737 461 
Q 2722 319 2711 194 
Q 2700 69 2700 0 
L 2169 0 
Q 2169 53 2176 142 
Q 2184 231 2195 328 
Q 2206 425 2218 514 
Q 2231 603 2241 659 
L 2228 659 
Q 2116 478 2003 339 
Q 1891 200 1766 108 
Q 1641 16 1500 -31 
Q 1359 -78 1191 -78 
Q 972 -78 797 0 
Q 622 78 498 229 
Q 375 381 309 604 
Q 244 828 244 1119 
Q 244 1350 292 1600 
Q 341 1850 442 2090 
Q 544 2331 700 2547 
Q 856 2763 1072 2925 
Q 1288 3088 1566 3183 
Q 1844 3278 2188 3278 
Q 2363 3278 2513 3254 
Q 2663 3231 2772 3206 
L 3097 4738 
L 3603 4738 
L 2816 984 
z
M 2681 2766 
Q 2563 2800 2433 2820 
Q 2303 2841 2156 2841 
Q 1884 2841 1676 2756 
Q 1469 2672 1314 2531 
Q 1159 2391 1054 2211 
Q 950 2031 886 1842 
Q 822 1653 795 1470 
Q 769 1288 769 1141 
Q 769 966 798 822 
Q 828 678 895 575 
Q 963 472 1069 415 
Q 1175 359 1325 359 
Q 1481 359 1617 425 
Q 1753 491 1872 603 
Q 1991 716 2087 862 
Q 2184 1009 2262 1175 
Q 2341 1341 2395 1511 
Q 2450 1681 2484 1838 
L 2681 2766 
z
" transform="scale(0.015625)"/>
      <path id="SegoeUI-Italic-6f" d="M 3181 2016 
Q 3181 1591 3061 1209 
Q 2941 828 2714 542 
Q 2488 256 2164 89 
Q 1841 -78 1434 -78 
Q 1159 -78 939 9 
Q 719 97 564 261 
Q 409 425 326 658 
Q 244 891 244 1184 
Q 244 1625 370 2008 
Q 497 2391 726 2673 
Q 956 2956 1276 3117 
Q 1597 3278 1984 3278 
Q 2256 3278 2476 3190 
Q 2697 3103 2853 2939 
Q 3009 2775 3095 2542 
Q 3181 2309 3181 2016 
z
M 2656 1991 
Q 2656 2194 2606 2351 
Q 2556 2509 2465 2617 
Q 2375 2725 2247 2783 
Q 2119 2841 1959 2841 
Q 1684 2841 1462 2700 
Q 1241 2559 1087 2329 
Q 934 2100 851 1808 
Q 769 1516 769 1209 
Q 769 1016 817 858 
Q 866 700 955 589 
Q 1044 478 1173 418 
Q 1303 359 1466 359 
Q 1744 359 1966 498 
Q 2188 638 2341 867 
Q 2494 1097 2575 1390 
Q 2656 1684 2656 1991 
z
" transform="scale(0.015625)"/>
      <path id="SegoeUI-Italic-73" d="M 2266 2638 
Q 2125 2728 1950 2784 
Q 1775 2841 1600 2841 
Q 1306 2841 1145 2706 
Q 984 2572 984 2350 
Q 984 2259 1014 2184 
Q 1044 2109 1101 2042 
Q 1159 1975 1248 1912 
Q 1338 1850 1453 1778 
Q 1803 1575 1958 1361 
Q 2113 1147 2113 878 
Q 2113 697 2045 523 
Q 1978 350 1831 217 
Q 1684 84 1451 3 
Q 1219 -78 884 -78 
Q 791 -78 678 -65 
Q 566 -53 452 -28 
Q 338 -3 233 33 
Q 128 69 50 116 
L 153 603 
Q 216 559 308 515 
Q 400 472 508 437 
Q 616 403 733 381 
Q 850 359 966 359 
Q 1278 359 1433 484 
Q 1588 609 1588 831 
Q 1588 913 1564 981 
Q 1541 1050 1481 1119 
Q 1422 1188 1325 1258 
Q 1228 1328 1081 1416 
Q 763 1609 611 1820 
Q 459 2031 459 2297 
Q 459 2491 531 2667 
Q 603 2844 745 2980 
Q 888 3116 1103 3197 
Q 1319 3278 1606 3278 
Q 1831 3278 2032 3234 
Q 2234 3191 2375 3122 
L 2266 2638 
z
" transform="scale(0.015625)"/>
      <path id="SegoeUI-Italic-69" d="M 1300 13 
Q 1222 -13 1123 -28 
Q 1025 -44 928 -44 
Q 613 -44 456 114 
Q 300 272 300 538 
Q 300 616 315 722 
Q 331 828 366 984 
L 831 3200 
L 1350 3200 
L 881 972 
Q 853 841 842 769 
Q 831 697 831 647 
Q 831 519 901 451 
Q 972 384 1125 384 
Q 1206 384 1267 393 
Q 1328 403 1381 422 
L 1300 13 
z
M 1666 4341 
Q 1666 4200 1570 4100 
Q 1475 4000 1334 4000 
Q 1197 4000 1095 4098 
Q 994 4197 994 4341 
Q 994 4484 1095 4575 
Q 1197 4666 1334 4666 
Q 1472 4666 1569 4573 
Q 1666 4481 1666 4341 
z
" transform="scale(0.015625)"/>
      <path id="SegoeUI-Italic-67" d="M 2656 231 
Q 2578 -144 2450 -461 
Q 2322 -778 2111 -1011 
Q 1900 -1244 1590 -1373 
Q 1281 -1503 838 -1503 
Q 531 -1503 304 -1431 
Q 78 -1359 -109 -1259 
L -13 -781 
Q 184 -900 406 -981 
Q 628 -1063 884 -1063 
Q 1163 -1063 1367 -981 
Q 1572 -900 1720 -742 
Q 1869 -584 1967 -356 
Q 2066 -128 2131 166 
L 2241 666 
L 2228 666 
Q 2109 475 1995 336 
Q 1881 197 1756 105 
Q 1631 13 1493 -32 
Q 1356 -78 1191 -78 
Q 975 -78 800 -1 
Q 625 75 501 225 
Q 378 375 311 600 
Q 244 825 244 1119 
Q 244 1397 305 1665 
Q 366 1934 481 2175 
Q 597 2416 764 2617 
Q 931 2819 1143 2966 
Q 1356 3113 1611 3195 
Q 1866 3278 2156 3278 
Q 2447 3278 2737 3240 
Q 3028 3203 3272 3156 
L 2656 231 
z
M 2681 2778 
Q 2575 2803 2423 2822 
Q 2272 2841 2100 2841 
Q 1806 2841 1562 2705 
Q 1319 2569 1142 2336 
Q 966 2103 867 1793 
Q 769 1484 769 1141 
Q 769 972 798 828 
Q 828 684 892 581 
Q 956 478 1057 418 
Q 1159 359 1306 359 
Q 1478 359 1623 431 
Q 1769 503 1891 622 
Q 2013 741 2108 892 
Q 2203 1044 2276 1203 
Q 2350 1363 2400 1517 
Q 2450 1672 2478 1797 
L 2681 2778 
z
" transform="scale(0.015625)"/>
      <path id="SegoeUI-Italic-75" d="M 2906 909 
Q 2878 788 2854 656 
Q 2831 525 2809 403 
Q 2788 281 2772 175 
Q 2756 69 2747 0 
L 2247 0 
Q 2263 122 2283 255 
Q 2303 388 2322 500 
Q 2344 631 2363 756 
L 2350 756 
Q 2241 584 2108 432 
Q 1975 281 1820 167 
Q 1666 53 1492 -12 
Q 1319 -78 1131 -78 
Q 925 -78 770 -14 
Q 616 50 512 165 
Q 409 281 357 443 
Q 306 606 306 806 
Q 306 847 318 928 
Q 331 1009 347 1103 
Q 363 1197 383 1289 
Q 403 1381 416 1447 
L 788 3200 
L 1306 3200 
L 909 1325 
Q 897 1275 884 1209 
Q 872 1144 861 1078 
Q 850 1013 844 958 
Q 838 903 838 872 
Q 838 638 952 498 
Q 1066 359 1294 359 
Q 1431 359 1568 415 
Q 1706 472 1836 567 
Q 1966 663 2081 789 
Q 2197 916 2290 1058 
Q 2384 1200 2450 1350 
Q 2516 1500 2547 1638 
L 2881 3200 
L 3397 3200 
L 2906 909 
z
" transform="scale(0.015625)"/>
      <path id="SegoeUI-Italic-65" d="M 2994 2450 
Q 2994 2197 2881 1989 
Q 2769 1781 2509 1632 
Q 2250 1484 1825 1403 
Q 1400 1322 775 1319 
Q 769 1284 769 1247 
Q 769 1213 769 1184 
Q 769 1016 816 866 
Q 863 716 961 603 
Q 1059 491 1214 425 
Q 1369 359 1581 359 
Q 1797 359 2055 442 
Q 2313 525 2547 678 
L 2450 172 
Q 2278 72 2040 -3 
Q 1803 -78 1509 -78 
Q 1156 -78 914 31 
Q 672 141 523 323 
Q 375 506 309 745 
Q 244 984 244 1247 
Q 244 1528 306 1789 
Q 369 2050 483 2275 
Q 597 2500 756 2686 
Q 916 2872 1109 3003 
Q 1303 3134 1525 3206 
Q 1747 3278 1984 3278 
Q 2231 3278 2420 3212 
Q 2609 3147 2736 3033 
Q 2863 2919 2928 2769 
Q 2994 2619 2994 2450 
z
M 2472 2425 
Q 2472 2622 2326 2731 
Q 2181 2841 1941 2841 
Q 1750 2841 1572 2758 
Q 1394 2675 1244 2529 
Q 1094 2384 984 2182 
Q 875 1981 825 1747 
Q 1272 1747 1584 1792 
Q 1897 1838 2094 1925 
Q 2291 2013 2381 2139 
Q 2472 2266 2472 2425 
z
" transform="scale(0.015625)"/>
     </defs>
     <use xlink:href="#SegoeUI-Italic-33"/>
     <use xlink:href="#SegoeUI-Italic-20" x="53.90625"/>
     <use xlink:href="#SegoeUI-Italic-6c" x="81.396484"/>
     <use xlink:href="#SegoeUI-Italic-61" x="107.275391"/>
     <use xlink:href="#SegoeUI-Italic-64" x="161.474609"/>
     <use xlink:href="#SegoeUI-Italic-6f" x="215.673828"/>
     <use xlink:href="#SegoeUI-Italic-73" x="269.189453"/>
     <use xlink:href="#SegoeUI-Italic-20" x="308.691406"/>
     <use xlink:href="#SegoeUI-Italic-69" x="336.181641"/>
     <use xlink:href="#SegoeUI-Italic-67" x="362.060547"/>
     <use xlink:href="#SegoeUI-Italic-75" x="416.259766"/>
     <use xlink:href="#SegoeUI-Italic-61" x="472.070312"/>
     <use xlink:href="#SegoeUI-Italic-6c" x="526.269531"/>
     <use xlink:href="#SegoeUI-Italic-65" x="552.148438"/>
     <use xlink:href="#SegoeUI-Italic-73" x="600.830078"/>
    </g>
   </g>
  </g>
  <g id="axes_2">
   <g id="patch_4">
    <path d="M 487.7064 259.982013 
L 629.26632 259.982013 
L 534.89304 146.734077 
z
" clip-path="url(#pebecc6d75f)" style="fill: #39c5bb; opacity: 0.1; stroke: #39c5bb; stroke-width: 2; stroke-linejoin: miter"/>
   </g>
   <g id="patch_5">
    <path d="M 676.45296 259.982013 
L 818.01288 259.982013 
L 723.6396 146.734077 
z
" clip-path="url(#pebecc6d75f)" style="fill: #39c5bb; opacity: 0.1; stroke: #39c5bb; stroke-width: 2; stroke-linejoin: miter"/>
   </g>
   <g id="line2d_7">
    <path d="M 558.48636 267.531875 
L 558.48636 252.43215 
" clip-path="url(#pebecc6d75f)" style="fill: none; stroke: #e12885; stroke-width: 2; stroke-linecap: square"/>
   </g>
   <g id="line2d_8">
    <path d="M 505.419539 197.840837 
L 519.357746 203.648424 
" clip-path="url(#pebecc6d75f)" style="fill: none; stroke: #e12885; stroke-width: 2; stroke-linecap: square"/>
   </g>
   <g id="line2d_9">
    <path d="M 503.241694 203.067665 
L 517.179901 208.875252 
" clip-path="url(#pebecc6d75f)" style="fill: none; stroke: #e12885; stroke-width: 2; stroke-linecap: square"/>
   </g>
   <g id="line2d_10">
    <path d="M 501.862392 259.982013 
L 501.835285 259.106387 
L 501.754067 258.234114 
L 501.619051 257.368536 
L 501.430752 256.512966 
L 501.189891 255.670683 
L 500.897393 254.84491 
L 500.554375 254.038812 
L 500.162153 253.255474 
L 499.722229 252.497898 
L 499.236286 251.768984 
L 498.706187 251.071524 
L 498.133961 250.40819 
L 497.521799 249.78152 
L 496.872048 249.193917 
L 496.187193 248.647629 
L 495.46986 248.144749 
L 494.722794 247.687204 
L 493.948857 247.276744 
L 493.151012 246.914943 
" clip-path="url(#pebecc6d75f)" style="fill: none; stroke: #1f2937; stroke-width: 2; stroke-linecap: square"/>
   </g>
   <g id="line2d_11">
    <path d="M 747.23292 267.531875 
L 747.23292 252.43215 
" clip-path="url(#pebecc6d75f)" style="fill: none; stroke: #e12885; stroke-width: 2; stroke-linecap: square"/>
   </g>
   <g id="line2d_12">
    <path d="M 694.166099 197.840837 
L 708.104306 203.648424 
" clip-path="url(#pebecc6d75f)" style="fill: none; stroke: #e12885; stroke-width: 2; stroke-linecap: square"/>
   </g>
   <g id="line2d_13">
    <path d="M 691.988254 203.067665 
L 705.926461 208.875252 
" clip-path="url(#pebecc6d75f)" style="fill: none; stroke: #e12885; stroke-width: 2; stroke-linecap: square"/>
   </g>
   <g id="line2d_14">
    <path d="M 690.608952 259.982013 
L 690.581845 259.106387 
L 690.500627 258.234114 
L 690.365611 257.368536 
L 690.177312 256.512966 
L 689.936451 255.670683 
L 689.643953 254.84491 
L 689.300935 254.038812 
L 688.908713 253.255474 
L 688.468789 252.497898 
L 687.982846 251.768984 
L 687.452747 251.071524 
L 686.880521 250.40819 
L 686.268359 249.78152 
L 685.618608 249.193917 
L 684.933753 248.647629 
L 684.21642 248.144749 
L 683.469354 247.687204 
L 682.695417 247.276744 
L 681.897572 246.914943 
" clip-path="url(#pebecc6d75f)" style="fill: none; stroke: #1f2937; stroke-width: 2; stroke-linecap: square"/>
   </g>
   <g id="text_4">
    <!-- ≅ -->
    <g style="fill: #4b5563" transform="translate(645.114015 209.481795) scale(0.24 -0.24)">
     <use xlink:href="#SegoeUI-Bold-2245"/>
    </g>
   </g>
   <g id="text_5">
    <!-- LAL (Lado-Ángulo-Lado) -->
    <g style="fill: #1f2937" transform="translate(583.504328 108.984765) scale(0.12 -0.12)">
     <defs>
      <path id="SegoeUI-Bold-41" d="M 4453 0 
L 3353 0 
L 3034 997 
L 1441 997 
L 1125 0 
L 31 0 
L 1663 4481 
L 2859 4481 
L 4453 0 
z
M 2803 1772 
L 2322 3278 
Q 2269 3447 2247 3681 
L 2222 3681 
Q 2206 3484 2144 3291 
L 1656 1772 
L 2803 1772 
z
" transform="scale(0.015625)"/>
      <path id="SegoeUI-Bold-c1" d="M 4453 0 
L 3353 0 
L 3034 997 
L 1441 997 
L 1125 0 
L 31 0 
L 1663 4481 
L 2859 4481 
L 4453 0 
z
M 2803 1772 
L 2322 3278 
Q 2269 3447 2247 3681 
L 2222 3681 
Q 2206 3484 2144 3291 
L 1656 1772 
L 2803 1772 
z
M 3239 5932 
L 2260 4922 
L 1548 4922 
L 2360 5932 
L 3239 5932 
z
" transform="scale(0.015625)"/>
      <path id="SegoeUI-Bold-6e" d="M 3506 0 
L 2522 0 
L 2522 1778 
Q 2522 2522 1991 2522 
Q 1734 2522 1568 2325 
Q 1403 2128 1403 1825 
L 1403 0 
L 416 0 
L 416 3200 
L 1403 3200 
L 1403 2694 
L 1416 2694 
Q 1769 3278 2444 3278 
Q 3506 3278 3506 1959 
L 3506 0 
z
" transform="scale(0.015625)"/>
      <path id="SegoeUI-Bold-67" d="M 3553 366 
Q 3553 -525 3037 -1014 
Q 2522 -1503 1544 -1503 
Q 897 -1503 519 -1319 
L 519 -488 
Q 1013 -775 1516 -775 
Q 2016 -775 2291 -511 
Q 2566 -247 2566 206 
L 2566 459 
L 2553 459 
Q 2216 -78 1556 -78 
Q 944 -78 584 353 
Q 225 784 225 1509 
Q 225 2322 625 2800 
Q 1025 3278 1678 3278 
Q 2263 3278 2553 2828 
L 2566 2828 
L 2566 3200 
L 3553 3200 
L 3553 366 
z
M 2578 1538 
L 2578 1791 
Q 2578 2094 2398 2308 
Q 2219 2522 1931 2522 
Q 1603 2522 1415 2265 
Q 1228 2009 1228 1544 
Q 1228 1144 1406 911 
Q 1584 678 1894 678 
Q 2200 678 2389 914 
Q 2578 1150 2578 1538 
z
" transform="scale(0.015625)"/>
      <path id="SegoeUI-Bold-75" d="M 3456 0 
L 2472 0 
L 2472 488 
L 2456 488 
Q 2091 -78 1478 -78 
Q 366 -78 366 1269 
L 366 3200 
L 1350 3200 
L 1350 1356 
Q 1350 678 1888 678 
Q 2153 678 2312 864 
Q 2472 1050 2472 1369 
L 2472 3200 
L 3456 3200 
L 3456 0 
z
" transform="scale(0.015625)"/>
      <path id="SegoeUI-Bold-6c" d="M 1403 0 
L 416 0 
L 416 4738 
L 1403 4738 
L 1403 0 
z
" transform="scale(0.015625)"/>
     </defs>
     <use xlink:href="#SegoeUI-Bold-4c"/>
     <use xlink:href="#SegoeUI-Bold-41" x="53.373047"/>
     <use xlink:href="#SegoeUI-Bold-4c" x="123.685547"/>
     <use xlink:href="#SegoeUI-Bold-20" x="174.808594"/>
     <use xlink:href="#SegoeUI-Bold-28" x="202.396484"/>
     <use xlink:href="#SegoeUI-Bold-4c" x="239.310547"/>
     <use xlink:href="#SegoeUI-Bold-61" x="290.433594"/>
     <use xlink:href="#SegoeUI-Bold-64" x="344.242188"/>
     <use xlink:href="#SegoeUI-Bold-6f" x="406.15625"/>
     <use xlink:href="#SegoeUI-Bold-2d" x="467.289062"/>
     <use xlink:href="#SegoeUI-Bold-c1" x="507.71875"/>
     <use xlink:href="#SegoeUI-Bold-6e" x="578.03125"/>
     <use xlink:href="#SegoeUI-Bold-67" x="638.529297"/>
     <use xlink:href="#SegoeUI-Bold-75" x="700.443359"/>
     <use xlink:href="#SegoeUI-Bold-6c" x="760.941406"/>
     <use xlink:href="#SegoeUI-Bold-6f" x="789.359375"/>
     <use xlink:href="#SegoeUI-Bold-2d" x="850.492188"/>
     <use xlink:href="#SegoeUI-Bold-4c" x="890.921875"/>
     <use xlink:href="#SegoeUI-Bold-61" x="942.044922"/>
     <use xlink:href="#SegoeUI-Bold-64" x="995.853516"/>
     <use xlink:href="#SegoeUI-Bold-6f" x="1057.767578"/>
     <use xlink:href="#SegoeUI-Bold-29" x="1118.900391"/>
    </g>
   </g>
   <g id="text_6">
    <!-- 2 lados y el ángulo comprendido -->
    <g style="fill: #6b7280" transform="translate(582.561984 132.578085) scale(0.1 -0.1)">
     <defs>
      <path id="SegoeUI-Italic-32" d="M 2828 3488 
Q 2828 3788 2648 3955 
Q 2469 4122 2150 4122 
Q 1847 4122 1540 3994 
Q 1234 3866 969 3622 
L 1097 4197 
Q 1366 4400 1639 4478 
Q 1913 4556 2275 4556 
Q 2775 4556 3072 4292 
Q 3369 4028 3369 3581 
Q 3369 3200 3239 2911 
Q 3109 2622 2825 2353 
Q 2541 2084 1994 1741 
Q 1497 1431 1239 1231 
Q 981 1031 856 862 
Q 731 694 678 459 
L 2891 459 
L 2794 0 
L 28 0 
L 75 222 
Q 156 600 317 872 
Q 478 1144 768 1400 
Q 1059 1656 1666 2044 
Q 2106 2322 2354 2544 
Q 2603 2766 2715 2978 
Q 2828 3191 2828 3488 
z
" transform="scale(0.015625)"/>
      <path id="SegoeUI-Italic-79" d="M 1147 -531 
Q 1003 -766 856 -945 
Q 709 -1125 548 -1250 
Q 388 -1375 205 -1439 
Q 22 -1503 -197 -1503 
Q -269 -1503 -358 -1489 
Q -447 -1475 -500 -1459 
L -403 -1006 
Q -356 -1031 -281 -1047 
Q -206 -1063 -134 -1063 
Q 81 -1063 254 -944 
Q 428 -825 581 -581 
L 966 13 
L 384 3200 
L 916 3200 
L 1288 744 
Q 1297 675 1298 611 
Q 1300 547 1294 500 
L 1313 500 
Q 1328 538 1361 606 
Q 1394 675 1434 738 
L 2853 3200 
L 3419 3200 
L 1147 -531 
z
" transform="scale(0.015625)"/>
      <path id="SegoeUI-Italic-e1" d="M 2828 1025 
Q 2803 906 2779 757 
Q 2756 609 2739 464 
Q 2722 319 2711 194 
Q 2700 69 2700 0 
L 2169 0 
Q 2172 63 2178 150 
Q 2184 238 2195 331 
Q 2206 425 2217 515 
Q 2228 606 2241 672 
L 2228 672 
Q 2131 519 2031 383 
Q 1931 247 1809 144 
Q 1688 41 1538 -18 
Q 1388 -78 1184 -78 
Q 975 -78 801 -3 
Q 628 72 503 220 
Q 378 369 311 592 
Q 244 816 244 1113 
Q 244 1294 281 1525 
Q 319 1756 408 1997 
Q 497 2238 645 2467 
Q 794 2697 1014 2878 
Q 1234 3059 1534 3168 
Q 1834 3278 2228 3278 
Q 2478 3278 2743 3240 
Q 3009 3203 3272 3150 
L 2828 1025 
z
M 2681 2778 
Q 2572 2803 2425 2822 
Q 2278 2841 2150 2841 
Q 1878 2841 1670 2755 
Q 1463 2669 1309 2530 
Q 1156 2391 1051 2209 
Q 947 2028 884 1839 
Q 822 1650 795 1465 
Q 769 1281 769 1131 
Q 769 953 800 811 
Q 831 669 898 569 
Q 966 469 1070 414 
Q 1175 359 1319 359 
Q 1475 359 1611 423 
Q 1747 488 1865 597 
Q 1984 706 2081 850 
Q 2178 994 2256 1155 
Q 2334 1316 2389 1483 
Q 2444 1650 2478 1806 
L 2681 2778 
z
M 2182 3809 
L 1798 3809 
L 2701 4831 
L 3204 4831 
L 2182 3809 
z
" transform="scale(0.015625)"/>
      <path id="SegoeUI-Italic-6e" d="M 3269 2400 
Q 3269 2353 3258 2272 
Q 3247 2191 3230 2097 
Q 3213 2003 3195 1911 
Q 3178 1819 3163 1753 
L 2791 0 
L 2272 0 
L 2663 1875 
Q 2675 1925 2687 1990 
Q 2700 2056 2709 2122 
Q 2719 2188 2725 2242 
Q 2731 2297 2731 2328 
Q 2731 2566 2617 2703 
Q 2503 2841 2278 2841 
Q 2072 2841 1869 2719 
Q 1666 2597 1494 2409 
Q 1322 2222 1198 1997 
Q 1075 1772 1031 1563 
L 697 0 
L 178 0 
L 672 2284 
Q 697 2406 722 2539 
Q 747 2672 769 2795 
Q 791 2919 806 3025 
Q 822 3131 831 3200 
L 1331 3200 
Q 1316 3078 1294 2945 
Q 1272 2813 1256 2700 
Q 1238 2569 1216 2444 
L 1228 2444 
Q 1338 2616 1470 2767 
Q 1603 2919 1758 3033 
Q 1913 3147 2086 3212 
Q 2259 3278 2450 3278 
Q 2663 3278 2816 3214 
Q 2969 3150 3070 3034 
Q 3172 2919 3220 2756 
Q 3269 2594 3269 2400 
z
" transform="scale(0.015625)"/>
      <path id="SegoeUI-Italic-63" d="M 2700 2566 
Q 2569 2681 2383 2761 
Q 2197 2841 1972 2841 
Q 1756 2841 1582 2766 
Q 1409 2691 1275 2566 
Q 1141 2441 1044 2278 
Q 947 2116 884 1941 
Q 822 1766 792 1592 
Q 763 1419 763 1269 
Q 763 822 959 590 
Q 1156 359 1497 359 
Q 1703 359 1925 445 
Q 2147 531 2344 666 
L 2234 153 
Q 2031 44 1829 -17 
Q 1628 -78 1403 -78 
Q 1109 -78 892 22 
Q 675 122 531 297 
Q 388 472 316 711 
Q 244 950 244 1228 
Q 244 1491 297 1745 
Q 350 2000 454 2226 
Q 559 2453 712 2647 
Q 866 2841 1064 2980 
Q 1263 3119 1506 3198 
Q 1750 3278 2034 3278 
Q 2169 3278 2291 3259 
Q 2413 3241 2513 3209 
Q 2613 3178 2691 3142 
Q 2769 3106 2816 3072 
L 2700 2566 
z
" transform="scale(0.015625)"/>
      <path id="SegoeUI-Italic-6d" d="M 5166 2394 
Q 5166 2353 5155 2270 
Q 5144 2188 5126 2094 
Q 5109 2000 5092 1908 
Q 5075 1816 5063 1753 
L 4684 0 
L 4172 0 
L 4563 1875 
Q 4575 1928 4587 1993 
Q 4600 2059 4611 2123 
Q 4622 2188 4628 2242 
Q 4634 2297 4634 2328 
Q 4634 2575 4528 2708 
Q 4422 2841 4197 2841 
Q 4078 2841 3951 2786 
Q 3825 2731 3704 2637 
Q 3584 2544 3473 2419 
Q 3363 2294 3270 2151 
Q 3178 2009 3112 1861 
Q 3047 1713 3016 1569 
L 2681 0 
L 2163 0 
L 2559 1875 
Q 2572 1928 2584 1993 
Q 2597 2059 2608 2123 
Q 2619 2188 2625 2242 
Q 2631 2297 2631 2328 
Q 2631 2575 2522 2708 
Q 2413 2841 2194 2841 
Q 2072 2841 1944 2786 
Q 1816 2731 1694 2636 
Q 1572 2541 1461 2414 
Q 1350 2288 1258 2145 
Q 1166 2003 1102 1854 
Q 1038 1706 1006 1563 
L 672 0 
L 153 0 
L 647 2284 
Q 672 2406 697 2539 
Q 722 2672 744 2795 
Q 766 2919 781 3025 
Q 797 3131 806 3200 
L 1306 3200 
Q 1291 3078 1269 2945 
Q 1247 2813 1231 2700 
Q 1213 2569 1191 2444 
L 1203 2444 
Q 1316 2625 1447 2778 
Q 1578 2931 1725 3042 
Q 1872 3153 2031 3215 
Q 2191 3278 2363 3278 
Q 2563 3278 2706 3218 
Q 2850 3159 2945 3051 
Q 3041 2944 3091 2791 
Q 3141 2638 3150 2450 
Q 3266 2625 3398 2776 
Q 3531 2928 3682 3039 
Q 3834 3150 4004 3214 
Q 4175 3278 4366 3278 
Q 4766 3278 4966 3045 
Q 5166 2813 5166 2394 
z
" transform="scale(0.015625)"/>
      <path id="SegoeUI-Italic-70" d="M 3225 2081 
Q 3225 1850 3175 1601 
Q 3125 1353 3022 1112 
Q 2919 872 2764 656 
Q 2609 441 2400 277 
Q 2191 113 1925 17 
Q 1659 -78 1338 -78 
Q 1153 -78 973 -43 
Q 794 -9 659 38 
L 341 -1484 
L -178 -1484 
L 603 2216 
Q 625 2316 644 2456 
Q 663 2597 677 2739 
Q 691 2881 700 3006 
Q 709 3131 709 3200 
L 1234 3200 
Q 1234 3147 1226 3056 
Q 1219 2966 1206 2867 
Q 1194 2769 1181 2676 
Q 1169 2584 1159 2528 
L 1172 2528 
Q 1394 2906 1672 3092 
Q 1950 3278 2278 3278 
Q 2497 3278 2672 3203 
Q 2847 3128 2970 2978 
Q 3094 2828 3159 2603 
Q 3225 2378 3225 2081 
z
M 2700 2059 
Q 2700 2228 2670 2372 
Q 2641 2516 2572 2619 
Q 2503 2722 2395 2781 
Q 2288 2841 2131 2841 
Q 1969 2841 1826 2773 
Q 1684 2706 1562 2593 
Q 1441 2481 1341 2332 
Q 1241 2184 1162 2025 
Q 1084 1866 1029 1705 
Q 975 1544 947 1403 
L 750 475 
Q 806 450 884 429 
Q 963 409 1047 393 
Q 1131 378 1218 368 
Q 1306 359 1381 359 
Q 1597 359 1780 431 
Q 1963 503 2108 626 
Q 2253 750 2364 917 
Q 2475 1084 2550 1273 
Q 2625 1463 2662 1664 
Q 2700 1866 2700 2059 
z
" transform="scale(0.015625)"/>
      <path id="SegoeUI-Italic-72" d="M 2394 2656 
L 2381 2656 
Q 2319 2694 2217 2730 
Q 2116 2766 2016 2766 
Q 1834 2766 1668 2648 
Q 1503 2531 1367 2339 
Q 1231 2147 1129 1900 
Q 1028 1653 972 1394 
L 672 0 
L 159 0 
L 609 2125 
Q 638 2256 666 2400 
Q 694 2544 717 2687 
Q 741 2831 759 2962 
Q 778 3094 788 3200 
L 1294 3200 
Q 1284 3106 1271 3001 
Q 1259 2897 1246 2798 
Q 1234 2700 1221 2620 
Q 1209 2541 1203 2497 
L 1216 2497 
Q 1316 2675 1419 2819 
Q 1522 2963 1636 3064 
Q 1750 3166 1878 3222 
Q 2006 3278 2156 3278 
Q 2244 3278 2330 3261 
Q 2416 3244 2484 3225 
L 2394 2656 
z
" transform="scale(0.015625)"/>
     </defs>
     <use xlink:href="#SegoeUI-Italic-32"/>
     <use xlink:href="#SegoeUI-Italic-20" x="53.90625"/>
     <use xlink:href="#SegoeUI-Italic-6c" x="81.396484"/>
     <use xlink:href="#SegoeUI-Italic-61" x="107.275391"/>
     <use xlink:href="#SegoeUI-Italic-64" x="161.474609"/>
     <use xlink:href="#SegoeUI-Italic-6f" x="215.673828"/>
     <use xlink:href="#SegoeUI-Italic-73" x="269.189453"/>
     <use xlink:href="#SegoeUI-Italic-20" x="308.691406"/>
     <use xlink:href="#SegoeUI-Italic-79" x="336.181641"/>
     <use xlink:href="#SegoeUI-Italic-20" x="384.570312"/>
     <use xlink:href="#SegoeUI-Italic-65" x="412.060547"/>
     <use xlink:href="#SegoeUI-Italic-6c" x="460.742188"/>
     <use xlink:href="#SegoeUI-Italic-20" x="486.621094"/>
     <use xlink:href="#SegoeUI-Italic-e1" x="514.111328"/>
     <use xlink:href="#SegoeUI-Italic-6e" x="568.310547"/>
     <use xlink:href="#SegoeUI-Italic-67" x="624.511719"/>
     <use xlink:href="#SegoeUI-Italic-75" x="678.710938"/>
     <use xlink:href="#SegoeUI-Italic-6c" x="734.521484"/>
     <use xlink:href="#SegoeUI-Italic-6f" x="760.400391"/>
     <use xlink:href="#SegoeUI-Italic-20" x="813.916016"/>
     <use xlink:href="#SegoeUI-Italic-63" x="841.40625"/>
     <use xlink:href="#SegoeUI-Italic-6f" x="884.134766"/>
     <use xlink:href="#SegoeUI-Italic-6d" x="937.650391"/>
     <use xlink:href="#SegoeUI-Italic-70" x="1023.441406"/>
     <use xlink:href="#SegoeUI-Italic-72" x="1077.640625"/>
     <use xlink:href="#SegoeUI-Italic-65" x="1113.263672"/>
     <use xlink:href="#SegoeUI-Italic-6e" x="1161.945312"/>
     <use xlink:href="#SegoeUI-Italic-64" x="1218.146484"/>
     <use xlink:href="#SegoeUI-Italic-69" x="1272.345703"/>
     <use xlink:href="#SegoeUI-Italic-64" x="1298.224609"/>
     <use xlink:href="#SegoeUI-Italic-6f" x="1352.423828"/>
    </g>
   </g>
  </g>
  <g id="axes_3">
   <g id="patch_6">
    <path d="M 54.38664 610.755439 
L 195.94656 610.755439 
L 101.57328 497.507503 
z
" clip-path="url(#p19f14c3eaa)" style="fill: #39c5bb; opacity: 0.1; stroke: #39c5bb; stroke-width: 2; stroke-linejoin: miter"/>
   </g>
   <g id="patch_7">
    <path d="M 243.1332 610.755439 
L 384.69312 610.755439 
L 290.31984 497.507503 
z
" clip-path="url(#p19f14c3eaa)" style="fill: #39c5bb; opacity: 0.1; stroke: #39c5bb; stroke-width: 2; stroke-linejoin: miter"/>
   </g>
   <g id="line2d_15">
    <path d="M 125.1666 618.305301 
L 125.1666 603.205576 
" clip-path="url(#p19f14c3eaa)" style="fill: none; stroke: #e12885; stroke-width: 2; stroke-linecap: square"/>
   </g>
   <g id="line2d_16">
    <path d="M 68.542632 610.755439 
L 68.515525 609.879813 
L 68.434307 609.00754 
L 68.299291 608.141962 
L 68.110992 607.286393 
L 67.870131 606.444109 
L 67.577633 605.618336 
L 67.234615 604.812238 
L 66.842393 604.028901 
L 66.402469 603.271324 
L 65.916526 602.54241 
L 65.386427 601.844951 
L 64.814201 601.181616 
L 64.202039 600.554947 
L 63.552288 599.967343 
L 62.867433 599.421055 
L 62.1501 598.918176 
L 61.403034 598.46063 
L 60.629097 598.05017 
L 59.831252 597.688369 
" clip-path="url(#p19f14c3eaa)" style="fill: none; stroke: #1f2937; stroke-width: 2; stroke-linecap: square"/>
   </g>
   <g id="line2d_17">
    <path d="M 186.884115 599.880505 
L 186.392499 600.309769 
L 185.921191 600.761236 
L 185.471194 601.233947 
L 185.043463 601.726897 
L 184.638907 602.239038 
L 184.258387 602.769281 
L 183.902711 603.3165 
L 183.572636 603.879531 
L 183.268863 604.457177 
L 182.992037 605.048211 
L 182.742748 605.651376 
L 182.521525 606.265391 
L 182.328837 606.888949 
L 182.165096 607.520726 
L 182.030649 608.159379 
L 181.925781 608.80355 
L 181.850716 609.45187 
L 181.805613 610.102961 
L 181.790568 610.755439 
" clip-path="url(#p19f14c3eaa)" style="fill: none; stroke: #1f2937; stroke-width: 2; stroke-linecap: square"/>
   </g>
   <g id="line2d_18">
    <path d="M 313.91316 618.305301 
L 313.91316 603.205576 
" clip-path="url(#p19f14c3eaa)" style="fill: none; stroke: #e12885; stroke-width: 2; stroke-linecap: square"/>
   </g>
   <g id="line2d_19">
    <path d="M 257.289192 610.755439 
L 257.262085 609.879813 
L 257.180867 609.00754 
L 257.045851 608.141962 
L 256.857552 607.286393 
L 256.616691 606.444109 
L 256.324193 605.618336 
L 255.981175 604.812238 
L 255.588953 604.028901 
L 255.149029 603.271324 
L 254.663086 602.54241 
L 254.132987 601.844951 
L 253.560761 601.181616 
L 252.948599 600.554947 
L 252.298848 599.967343 
L 251.613993 599.421055 
L 250.89666 598.918176 
L 250.149594 598.46063 
L 249.375657 598.05017 
L 248.577812 597.688369 
" clip-path="url(#p19f14c3eaa)" style="fill: none; stroke: #1f2937; stroke-width: 2; stroke-linecap: square"/>
   </g>
   <g id="line2d_20">
    <path d="M 375.630675 599.880505 
L 375.139059 600.309769 
L 374.667751 600.761236 
L 374.217754 601.233947 
L 373.790023 601.726897 
L 373.385467 602.239038 
L 373.004947 602.769281 
L 372.649271 603.3165 
L 372.319196 603.879531 
L 372.015423 604.457177 
L 371.738597 605.048211 
L 371.489308 605.651376 
L 371.268085 606.265391 
L 371.075397 606.888949 
L 370.911656 607.520726 
L 370.777209 608.159379 
L 370.672341 608.80355 
L 370.597276 609.45187 
L 370.552173 610.102961 
L 370.537128 610.755439 
" clip-path="url(#p19f14c3eaa)" style="fill: none; stroke: #1f2937; stroke-width: 2; stroke-linecap: square"/>
   </g>
   <g id="text_7">
    <!-- ≅ -->
    <g style="fill: #4b5563" transform="translate(211.794255 560.255221) scale(0.24 -0.24)">
     <use xlink:href="#SegoeUI-Bold-2245"/>
    </g>
   </g>
   <g id="text_8">
    <!-- ALA (Ángulo-Lado-Ángulo) -->
    <g style="fill: #1f2937" transform="translate(142.145505 459.758191) scale(0.12 -0.12)">
     <use xlink:href="#SegoeUI-Bold-41"/>
     <use xlink:href="#SegoeUI-Bold-4c" x="70.3125"/>
     <use xlink:href="#SegoeUI-Bold-41" x="123.685547"/>
     <use xlink:href="#SegoeUI-Bold-20" x="193.998047"/>
     <use xlink:href="#SegoeUI-Bold-28" x="221.585938"/>
     <use xlink:href="#SegoeUI-Bold-c1" x="258.5"/>
     <use xlink:href="#SegoeUI-Bold-6e" x="328.8125"/>
     <use xlink:href="#SegoeUI-Bold-67" x="389.310547"/>
     <use xlink:href="#SegoeUI-Bold-75" x="451.224609"/>
     <use xlink:href="#SegoeUI-Bold-6c" x="511.722656"/>
     <use xlink:href="#SegoeUI-Bold-6f" x="540.140625"/>
     <use xlink:href="#SegoeUI-Bold-2d" x="601.273438"/>
     <use xlink:href="#SegoeUI-Bold-4c" x="641.703125"/>
     <use xlink:href="#SegoeUI-Bold-61" x="692.826172"/>
     <use xlink:href="#SegoeUI-Bold-64" x="746.634766"/>
     <use xlink:href="#SegoeUI-Bold-6f" x="808.548828"/>
     <use xlink:href="#SegoeUI-Bold-2d" x="869.681641"/>
     <use xlink:href="#SegoeUI-Bold-c1" x="910.111328"/>
     <use xlink:href="#SegoeUI-Bold-6e" x="980.423828"/>
     <use xlink:href="#SegoeUI-Bold-67" x="1040.921875"/>
     <use xlink:href="#SegoeUI-Bold-75" x="1102.835938"/>
     <use xlink:href="#SegoeUI-Bold-6c" x="1163.333984"/>
     <use xlink:href="#SegoeUI-Bold-6f" x="1191.751953"/>
     <use xlink:href="#SegoeUI-Bold-29" x="1252.884766"/>
    </g>
   </g>
   <g id="text_9">
    <!-- 2 ángulos y el lado comprendido -->
    <g style="fill: #6b7280" transform="translate(149.242224 483.351511) scale(0.1 -0.1)">
     <use xlink:href="#SegoeUI-Italic-32"/>
     <use xlink:href="#SegoeUI-Italic-20" x="53.90625"/>
     <use xlink:href="#SegoeUI-Italic-e1" x="81.396484"/>
     <use xlink:href="#SegoeUI-Italic-6e" x="135.595703"/>
     <use xlink:href="#SegoeUI-Italic-67" x="191.796875"/>
     <use xlink:href="#SegoeUI-Italic-75" x="245.996094"/>
     <use xlink:href="#SegoeUI-Italic-6c" x="301.806641"/>
     <use xlink:href="#SegoeUI-Italic-6f" x="327.685547"/>
     <use xlink:href="#SegoeUI-Italic-73" x="381.201172"/>
     <use xlink:href="#SegoeUI-Italic-20" x="420.703125"/>
     <use xlink:href="#SegoeUI-Italic-79" x="448.193359"/>
     <use xlink:href="#SegoeUI-Italic-20" x="496.582031"/>
     <use xlink:href="#SegoeUI-Italic-65" x="524.072266"/>
     <use xlink:href="#SegoeUI-Italic-6c" x="572.753906"/>
     <use xlink:href="#SegoeUI-Italic-20" x="598.632812"/>
     <use xlink:href="#SegoeUI-Italic-6c" x="626.123047"/>
     <use xlink:href="#SegoeUI-Italic-61" x="652.001953"/>
     <use xlink:href="#SegoeUI-Italic-64" x="706.201172"/>
     <use xlink:href="#SegoeUI-Italic-6f" x="760.400391"/>
     <use xlink:href="#SegoeUI-Italic-20" x="813.916016"/>
     <use xlink:href="#SegoeUI-Italic-63" x="841.40625"/>
     <use xlink:href="#SegoeUI-Italic-6f" x="884.134766"/>
     <use xlink:href="#SegoeUI-Italic-6d" x="937.650391"/>
     <use xlink:href="#SegoeUI-Italic-70" x="1023.441406"/>
     <use xlink:href="#SegoeUI-Italic-72" x="1077.640625"/>
     <use xlink:href="#SegoeUI-Italic-65" x="1113.263672"/>
     <use xlink:href="#SegoeUI-Italic-6e" x="1161.945312"/>
     <use xlink:href="#SegoeUI-Italic-64" x="1218.146484"/>
     <use xlink:href="#SegoeUI-Italic-69" x="1272.345703"/>
     <use xlink:href="#SegoeUI-Italic-64" x="1298.224609"/>
     <use xlink:href="#SegoeUI-Italic-6f" x="1352.423828"/>
    </g>
   </g>
  </g>
  <g id="axes_4">
   <g id="patch_8">
    <path d="M 487.7064 610.755439 
L 629.26632 610.755439 
L 534.89304 497.507503 
z
" clip-path="url(#p863462ca88)" style="fill: #39c5bb; opacity: 0.1; stroke: #39c5bb; stroke-width: 2; stroke-linejoin: miter"/>
   </g>
   <g id="patch_9">
    <path d="M 676.45296 610.755439 
L 818.01288 610.755439 
L 723.6396 497.507503 
z
" clip-path="url(#p863462ca88)" style="fill: #39c5bb; opacity: 0.1; stroke: #39c5bb; stroke-width: 2; stroke-linejoin: miter"/>
   </g>
   <g id="line2d_21">
    <path d="M 587.879645 549.298167 
L 576.279715 558.964775 
" clip-path="url(#p863462ca88)" style="fill: none; stroke: #e12885; stroke-width: 2; stroke-linecap: square"/>
   </g>
   <g id="line2d_22">
    <path d="M 501.862392 610.755439 
L 501.835285 609.879813 
L 501.754067 609.00754 
L 501.619051 608.141962 
L 501.430752 607.286393 
L 501.189891 606.444109 
L 500.897393 605.618336 
L 500.554375 604.812238 
L 500.162153 604.028901 
L 499.722229 603.271324 
L 499.236286 602.54241 
L 498.706187 601.844951 
L 498.133961 601.181616 
L 497.521799 600.554947 
L 496.872048 599.967343 
L 496.187193 599.421055 
L 495.46986 598.918176 
L 494.722794 598.46063 
L 493.948857 598.05017 
L 493.151012 597.688369 
" clip-path="url(#p863462ca88)" style="fill: none; stroke: #1f2937; stroke-width: 2; stroke-linecap: square"/>
   </g>
   <g id="line2d_23">
    <path d="M 620.203875 599.880505 
L 619.712259 600.309769 
L 619.240951 600.761236 
L 618.790954 601.233947 
L 618.363223 601.726897 
L 617.958667 602.239038 
L 617.578147 602.769281 
L 617.222471 603.3165 
L 616.892396 603.879531 
L 616.588623 604.457177 
L 616.311797 605.048211 
L 616.062508 605.651376 
L 615.841285 606.265391 
L 615.648597 606.888949 
L 615.484856 607.520726 
L 615.350409 608.159379 
L 615.245541 608.80355 
L 615.170476 609.45187 
L 615.125373 610.102961 
L 615.110328 610.755439 
" clip-path="url(#p863462ca88)" style="fill: none; stroke: #1f2937; stroke-width: 2; stroke-linecap: square"/>
   </g>
   <g id="line2d_24">
    <path d="M 776.626205 549.298167 
L 765.026275 558.964775 
" clip-path="url(#p863462ca88)" style="fill: none; stroke: #e12885; stroke-width: 2; stroke-linecap: square"/>
   </g>
   <g id="line2d_25">
    <path d="M 690.608952 610.755439 
L 690.581845 609.879813 
L 690.500627 609.00754 
L 690.365611 608.141962 
L 690.177312 607.286393 
L 689.936451 606.444109 
L 689.643953 605.618336 
L 689.300935 604.812238 
L 688.908713 604.028901 
L 688.468789 603.271324 
L 687.982846 602.54241 
L 687.452747 601.844951 
L 686.880521 601.181616 
L 686.268359 600.554947 
L 685.618608 599.967343 
L 684.933753 599.421055 
L 684.21642 598.918176 
L 683.469354 598.46063 
L 682.695417 598.05017 
L 681.897572 597.688369 
" clip-path="url(#p863462ca88)" style="fill: none; stroke: #1f2937; stroke-width: 2; stroke-linecap: square"/>
   </g>
   <g id="line2d_26">
    <path d="M 808.950435 599.880505 
L 808.458819 600.309769 
L 807.987511 600.761236 
L 807.537514 601.233947 
L 807.109783 601.726897 
L 806.705227 602.239038 
L 806.324707 602.769281 
L 805.969031 603.3165 
L 805.638956 603.879531 
L 805.335183 604.457177 
L 805.058357 605.048211 
L 804.809068 605.651376 
L 804.587845 606.265391 
L 804.395157 606.888949 
L 804.231416 607.520726 
L 804.096969 608.159379 
L 803.992101 608.80355 
L 803.917036 609.45187 
L 803.871933 610.102961 
L 803.856888 610.755439 
" clip-path="url(#p863462ca88)" style="fill: none; stroke: #1f2937; stroke-width: 2; stroke-linecap: square"/>
   </g>
   <g id="text_10">
    <!-- ≅ -->
    <g style="fill: #4b5563" transform="translate(645.114015 560.255221) scale(0.24 -0.24)">
     <use xlink:href="#SegoeUI-Bold-2245"/>
    </g>
   </g>
   <g id="text_11">
    <!-- AAL (Ángulo-Ángulo-Lado) -->
    <g style="fill: #1f2937" transform="translate(575.600265 459.758191) scale(0.12 -0.12)">
     <use xlink:href="#SegoeUI-Bold-41"/>
     <use xlink:href="#SegoeUI-Bold-41" x="70.3125"/>
     <use xlink:href="#SegoeUI-Bold-4c" x="140.625"/>
     <use xlink:href="#SegoeUI-Bold-20" x="191.748047"/>
     <use xlink:href="#SegoeUI-Bold-28" x="219.335938"/>
     <use xlink:href="#SegoeUI-Bold-c1" x="256.25"/>
     <use xlink:href="#SegoeUI-Bold-6e" x="326.5625"/>
     <use xlink:href="#SegoeUI-Bold-67" x="387.060547"/>
     <use xlink:href="#SegoeUI-Bold-75" x="448.974609"/>
     <use xlink:href="#SegoeUI-Bold-6c" x="509.472656"/>
     <use xlink:href="#SegoeUI-Bold-6f" x="537.890625"/>
     <use xlink:href="#SegoeUI-Bold-2d" x="599.023438"/>
     <use xlink:href="#SegoeUI-Bold-c1" x="639.453125"/>
     <use xlink:href="#SegoeUI-Bold-6e" x="709.765625"/>
     <use xlink:href="#SegoeUI-Bold-67" x="770.263672"/>
     <use xlink:href="#SegoeUI-Bold-75" x="832.177734"/>
     <use xlink:href="#SegoeUI-Bold-6c" x="892.675781"/>
     <use xlink:href="#SegoeUI-Bold-6f" x="921.09375"/>
     <use xlink:href="#SegoeUI-Bold-2d" x="982.226562"/>
     <use xlink:href="#SegoeUI-Bold-4c" x="1022.65625"/>
     <use xlink:href="#SegoeUI-Bold-61" x="1073.779297"/>
     <use xlink:href="#SegoeUI-Bold-64" x="1127.587891"/>
     <use xlink:href="#SegoeUI-Bold-6f" x="1189.501953"/>
     <use xlink:href="#SegoeUI-Bold-29" x="1250.634766"/>
    </g>
   </g>
   <g id="text_12">
    <!-- 2 ángulos y un lado opuesto -->
    <g style="fill: #6b7280" transform="translate(592.033077 483.351511) scale(0.1 -0.1)">
     <defs>
      <path id="SegoeUI-Italic-74" d="M 2156 2766 
L 1350 2766 
L 991 1069 
Q 972 972 953 859 
Q 934 747 934 678 
Q 934 519 1004 448 
Q 1075 378 1228 378 
Q 1266 378 1325 390 
Q 1384 403 1446 422 
Q 1509 441 1570 464 
Q 1631 488 1678 506 
L 1581 56 
Q 1472 9 1333 -23 
Q 1194 -56 1069 -56 
Q 891 -56 766 -11 
Q 641 34 561 118 
Q 481 203 445 323 
Q 409 444 409 594 
Q 409 684 426 804 
Q 444 925 469 1025 
L 838 2766 
L 306 2766 
L 403 3200 
L 928 3200 
L 1094 3981 
Q 1106 3988 1189 4011 
Q 1272 4034 1370 4064 
Q 1469 4094 1551 4119 
Q 1634 4144 1644 4147 
L 1447 3200 
L 2253 3200 
L 2156 2766 
z
" transform="scale(0.015625)"/>
     </defs>
     <use xlink:href="#SegoeUI-Italic-32"/>
     <use xlink:href="#SegoeUI-Italic-20" x="53.90625"/>
     <use xlink:href="#SegoeUI-Italic-e1" x="81.396484"/>
     <use xlink:href="#SegoeUI-Italic-6e" x="135.595703"/>
     <use xlink:href="#SegoeUI-Italic-67" x="191.796875"/>
     <use xlink:href="#SegoeUI-Italic-75" x="245.996094"/>
     <use xlink:href="#SegoeUI-Italic-6c" x="301.806641"/>
     <use xlink:href="#SegoeUI-Italic-6f" x="327.685547"/>
     <use xlink:href="#SegoeUI-Italic-73" x="381.201172"/>
     <use xlink:href="#SegoeUI-Italic-20" x="420.703125"/>
     <use xlink:href="#SegoeUI-Italic-79" x="448.193359"/>
     <use xlink:href="#SegoeUI-Italic-20" x="496.582031"/>
     <use xlink:href="#SegoeUI-Italic-75" x="524.072266"/>
     <use xlink:href="#SegoeUI-Italic-6e" x="579.882812"/>
     <use xlink:href="#SegoeUI-Italic-20" x="636.083984"/>
     <use xlink:href="#SegoeUI-Italic-6c" x="663.574219"/>
     <use xlink:href="#SegoeUI-Italic-61" x="689.453125"/>
     <use xlink:href="#SegoeUI-Italic-64" x="743.652344"/>
     <use xlink:href="#SegoeUI-Italic-6f" x="797.851562"/>
     <use xlink:href="#SegoeUI-Italic-20" x="851.367188"/>
     <use xlink:href="#SegoeUI-Italic-6f" x="878.857422"/>
     <use xlink:href="#SegoeUI-Italic-70" x="932.373047"/>
     <use xlink:href="#SegoeUI-Italic-75" x="986.572266"/>
     <use xlink:href="#SegoeUI-Italic-65" x="1042.382812"/>
     <use xlink:href="#SegoeUI-Italic-73" x="1091.064453"/>
     <use xlink:href="#SegoeUI-Italic-74" x="1130.566406"/>
     <use xlink:href="#SegoeUI-Italic-6f" x="1163.015625"/>
    </g>
   </g>
  </g>
  <g id="text_13">
   <!-- Criterios de Congruencia de Triángulos -->
   <g style="fill: #2c2f33" transform="translate(308.717729 17.564375) scale(0.14 -0.14)">
    <defs>
     <path id="SegoeUI-Bold-43" d="M 3725 159 
Q 3234 -78 2444 -78 
Q 1413 -78 822 528 
Q 231 1134 231 2144 
Q 231 3219 895 3887 
Q 1559 4556 2619 4556 
Q 3275 4556 3725 4391 
L 3725 3419 
Q 3275 3688 2700 3688 
Q 2069 3688 1681 3291 
Q 1294 2894 1294 2216 
Q 1294 1566 1659 1180 
Q 2025 794 2644 794 
Q 3234 794 3725 1081 
L 3725 159 
z
" transform="scale(0.015625)"/>
     <path id="SegoeUI-Bold-72" d="M 2503 2309 
Q 2325 2406 2088 2406 
Q 1766 2406 1584 2170 
Q 1403 1934 1403 1528 
L 1403 0 
L 416 0 
L 416 3200 
L 1403 3200 
L 1403 2606 
L 1416 2606 
Q 1650 3256 2259 3256 
Q 2416 3256 2503 3219 
L 2503 2309 
z
" transform="scale(0.015625)"/>
     <path id="SegoeUI-Bold-69" d="M 916 3706 
Q 666 3706 506 3854 
Q 347 4003 347 4219 
Q 347 4441 506 4581 
Q 666 4722 916 4722 
Q 1169 4722 1326 4581 
Q 1484 4441 1484 4219 
Q 1484 3994 1326 3850 
Q 1169 3706 916 3706 
z
M 1403 0 
L 416 0 
L 416 3200 
L 1403 3200 
L 1403 0 
z
" transform="scale(0.015625)"/>
     <path id="SegoeUI-Bold-74" d="M 2350 38 
Q 2131 -78 1691 -78 
Q 647 -78 647 1006 
L 647 2472 
L 128 2472 
L 128 3200 
L 647 3200 
L 647 3891 
L 1631 4172 
L 1631 3200 
L 2350 3200 
L 2350 2472 
L 1631 2472 
L 1631 1178 
Q 1631 678 2028 678 
Q 2184 678 2350 769 
L 2350 38 
z
" transform="scale(0.015625)"/>
     <path id="SegoeUI-Bold-65" d="M 3291 1319 
L 1203 1319 
Q 1253 622 2081 622 
Q 2609 622 3009 872 
L 3009 159 
Q 2566 -78 1856 -78 
Q 1081 -78 653 351 
Q 225 781 225 1550 
Q 225 2347 687 2812 
Q 1150 3278 1825 3278 
Q 2525 3278 2908 2862 
Q 3291 2447 3291 1734 
L 3291 1319 
z
M 2375 1925 
Q 2375 2613 1819 2613 
Q 1581 2613 1407 2416 
Q 1234 2219 1197 1925 
L 2375 1925 
z
" transform="scale(0.015625)"/>
     <path id="SegoeUI-Bold-73" d="M 206 84 
L 206 884 
Q 450 738 692 666 
Q 934 594 1150 594 
Q 1413 594 1564 666 
Q 1716 738 1716 884 
Q 1716 978 1647 1040 
Q 1578 1103 1470 1150 
Q 1363 1197 1234 1234 
Q 1106 1272 988 1319 
Q 797 1391 651 1473 
Q 506 1556 407 1665 
Q 309 1775 257 1919 
Q 206 2063 206 2259 
Q 206 2528 323 2722 
Q 441 2916 636 3039 
Q 831 3163 1082 3220 
Q 1334 3278 1606 3278 
Q 1819 3278 2037 3245 
Q 2256 3213 2469 3150 
L 2469 2388 
Q 2281 2497 2067 2551 
Q 1853 2606 1647 2606 
Q 1550 2606 1464 2589 
Q 1378 2572 1312 2539 
Q 1247 2506 1209 2454 
Q 1172 2403 1172 2338 
Q 1172 2250 1228 2187 
Q 1284 2125 1375 2079 
Q 1466 2034 1577 1998 
Q 1688 1963 1797 1925 
Q 1994 1856 2153 1775 
Q 2313 1694 2427 1584 
Q 2541 1475 2602 1328 
Q 2663 1181 2663 978 
Q 2663 694 2539 492 
Q 2416 291 2211 164 
Q 2006 38 1739 -20 
Q 1472 -78 1184 -78 
Q 656 -78 206 84 
z
" transform="scale(0.015625)"/>
     <path id="SegoeUI-Bold-63" d="M 2841 116 
Q 2506 -78 1875 -78 
Q 1138 -78 681 369 
Q 225 816 225 1522 
Q 225 2338 714 2808 
Q 1203 3278 2022 3278 
Q 2588 3278 2841 3128 
L 2841 2291 
Q 2531 2522 2150 2522 
Q 1725 2522 1476 2273 
Q 1228 2025 1228 1588 
Q 1228 1163 1465 920 
Q 1703 678 2119 678 
Q 2488 678 2841 909 
L 2841 116 
z
" transform="scale(0.015625)"/>
     <path id="SegoeUI-Bold-54" d="M 3659 3659 
L 2381 3659 
L 2381 0 
L 1369 0 
L 1369 3659 
L 97 3659 
L 97 4481 
L 3659 4481 
L 3659 3659 
z
" transform="scale(0.015625)"/>
     <path id="SegoeUI-Bold-e1" d="M 3078 0 
L 2144 0 
L 2144 459 
L 2131 459 
Q 1809 -78 1178 -78 
Q 713 -78 445 186 
Q 178 450 178 891 
Q 178 1822 1281 1966 
L 2150 2081 
Q 2150 2606 1581 2606 
Q 1009 2606 494 2266 
L 494 3009 
Q 700 3116 1058 3197 
Q 1416 3278 1709 3278 
Q 3078 3278 3078 1913 
L 3078 0 
z
M 2150 1300 
L 2150 1516 
L 1569 1441 
Q 1088 1378 1088 1006 
Q 1088 838 1205 730 
Q 1322 622 1522 622 
Q 1800 622 1975 814 
Q 2150 1006 2150 1300 
z
M 2783 4716 
L 1804 3706 
L 1092 3706 
L 1904 4716 
L 2783 4716 
z
" transform="scale(0.015625)"/>
    </defs>
    <use xlink:href="#SegoeUI-Bold-43"/>
    <use xlink:href="#SegoeUI-Bold-72" x="62.402344"/>
    <use xlink:href="#SegoeUI-Bold-69" x="102.572266"/>
    <use xlink:href="#SegoeUI-Bold-74" x="130.990234"/>
    <use xlink:href="#SegoeUI-Bold-65" x="169.53125"/>
    <use xlink:href="#SegoeUI-Bold-72" x="223.632812"/>
    <use xlink:href="#SegoeUI-Bold-69" x="263.802734"/>
    <use xlink:href="#SegoeUI-Bold-6f" x="292.220703"/>
    <use xlink:href="#SegoeUI-Bold-73" x="353.353516"/>
    <use xlink:href="#SegoeUI-Bold-20" x="397.347656"/>
    <use xlink:href="#SegoeUI-Bold-64" x="424.935547"/>
    <use xlink:href="#SegoeUI-Bold-65" x="486.849609"/>
    <use xlink:href="#SegoeUI-Bold-20" x="540.951172"/>
    <use xlink:href="#SegoeUI-Bold-43" x="568.539062"/>
    <use xlink:href="#SegoeUI-Bold-6f" x="630.941406"/>
    <use xlink:href="#SegoeUI-Bold-6e" x="692.074219"/>
    <use xlink:href="#SegoeUI-Bold-67" x="752.572266"/>
    <use xlink:href="#SegoeUI-Bold-72" x="814.486328"/>
    <use xlink:href="#SegoeUI-Bold-75" x="854.53125"/>
    <use xlink:href="#SegoeUI-Bold-65" x="915.029297"/>
    <use xlink:href="#SegoeUI-Bold-6e" x="969.130859"/>
    <use xlink:href="#SegoeUI-Bold-63" x="1029.628906"/>
    <use xlink:href="#SegoeUI-Bold-69" x="1077.626953"/>
    <use xlink:href="#SegoeUI-Bold-61" x="1106.044922"/>
    <use xlink:href="#SegoeUI-Bold-20" x="1159.853516"/>
    <use xlink:href="#SegoeUI-Bold-64" x="1187.441406"/>
    <use xlink:href="#SegoeUI-Bold-65" x="1249.355469"/>
    <use xlink:href="#SegoeUI-Bold-20" x="1303.457031"/>
    <use xlink:href="#SegoeUI-Bold-54" x="1331.044922"/>
    <use xlink:href="#SegoeUI-Bold-72" x="1382.138672"/>
    <use xlink:href="#SegoeUI-Bold-69" x="1422.308594"/>
    <use xlink:href="#SegoeUI-Bold-e1" x="1450.726562"/>
    <use xlink:href="#SegoeUI-Bold-6e" x="1504.535156"/>
    <use xlink:href="#SegoeUI-Bold-67" x="1565.033203"/>
    <use xlink:href="#SegoeUI-Bold-75" x="1626.947266"/>
    <use xlink:href="#SegoeUI-Bold-6c" x="1687.445312"/>
    <use xlink:href="#SegoeUI-Bold-6f" x="1715.863281"/>
    <use xlink:href="#SegoeUI-Bold-73" x="1776.996094"/>
   </g>
  </g>
 </g>
 <defs>
  <clipPath id="pad3717107f">
   <rect x="7.2" y="90.110109" width="424.67976" height="217.058544"/>
  </clipPath>
  <clipPath id="pebecc6d75f">
   <rect x="440.51976" y="90.110109" width="424.67976" height="217.058544"/>
  </clipPath>
  <clipPath id="p19f14c3eaa">
   <rect x="7.2" y="440.883535" width="424.67976" height="217.058544"/>
  </clipPath>
  <clipPath id="p863462ca88">
   <rect x="440.51976" y="440.883535" width="424.67976" height="217.058544"/>
  </clipPath>
 </defs>
</svg>
