<?xml version="1.0" encoding="utf-8" standalone="no"?>
<!DOCTYPE svg PUBLIC "-//W3C//DTD SVG 1.1//EN"
  "http://www.w3.org/Graphics/SVG/1.1/DTD/svg11.dtd">
<svg xmlns:xlink="http://www.w3.org/1999/xlink" width="1016.39952pt" height="326.101971pt" viewBox="0 0 1016.39952 326.101971" xmlns="http://www.w3.org/2000/svg" version="1.1">
 <metadata>
  <rdf:RDF xmlns:dc="http://purl.org/dc/elements/1.1/" xmlns:cc="http://creativecommons.org/ns#" xmlns:rdf="http://www.w3.org/1999/02/22-rdf-syntax-ns#">
   <cc:Work>
    <dc:type rdf:resource="http://purl.org/dc/dcmitype/StillImage"/>
    <dc:date>2026-04-11T16:11:42.436470</dc:date>
    <dc:format>image/svg+xml</dc:format>
    <dc:creator>
     <cc:Agent>
      <dc:title>Matplotlib v3.8.4, https://matplotlib.org/</dc:title>
     </cc:Agent>
    </dc:creator>
   </cc:Work>
  </rdf:RDF>
 </metadata>
 <defs>
  <style type="text/css">*{stroke-linejoin: round; stroke-linecap: butt}</style>
 </defs>
 <g id="figure_1">
  <g id="patch_1">
   <path d="M 0 326.101971 
L 1016.39952 326.101971 
L 1016.39952 0 
L 0 0 
z
" style="fill: #ffffff"/>
  </g>
  <g id="axes_1">
   <g id="patch_2">
    <path d="M 48.38998 252.998003 
L 254.33988 252.998003 
L 147.245932 104.714075 
z
" clip-path="url(#pdfe549b581)" style="fill: #39c5bb; opacity: 0.15; stroke: #39c5bb; stroke-width: 2.5; stroke-linejoin: miter"/>
   </g>
   <g id="line2d_1">
    <path d="M 73.103968 252.998003 
L 73.089777 252.16062 
L 73.047222 251.324199 
L 72.976351 250.4897 
L 72.877245 249.658082 
L 72.750018 248.830298 
L 72.594816 248.007302 
L 72.411818 247.190036 
L 72.201234 246.37944 
L 71.963305 245.576445 
L 71.698305 244.781972 
L 71.406539 243.996935 
L 71.08834 243.222234 
L 70.744075 242.45876 
L 70.374139 241.707389 
L 69.978956 240.968984 
L 69.558981 240.244392 
L 69.114696 239.534447 
L 68.646611 238.839963 
L 68.155264 238.161738 
L 67.641218 237.500551 
L 67.105065 236.857161 
L 66.547419 236.232306 
L 65.968922 235.626705 
L 65.370238 235.041053 
L 64.752053 234.476023 
L 64.115079 233.932263 
L 63.460046 233.410397 
L 62.787707 232.911026 
L 62.098834 232.434722 
" clip-path="url(#pdfe549b581)" style="fill: none; stroke: #1f2937; stroke-width: 2; stroke-linecap: square"/>
   </g>
   <g id="line2d_2">
    <path d="M 239.870073 232.962887 
L 239.224792 233.445118 
L 238.595571 233.948123 
L 237.983077 234.471369 
L 237.387961 235.014298 
L 236.810857 235.576334 
L 236.252376 236.156881 
L 235.713113 236.75532 
L 235.19364 237.371017 
L 234.69451 238.003317 
L 234.216252 238.651548 
L 233.759374 239.315022 
L 233.324363 239.993033 
L 232.91168 240.684862 
L 232.521764 241.389774 
L 232.155028 242.107018 
L 231.811864 242.835834 
L 231.492634 243.575447 
L 231.197679 244.325071 
L 230.927312 245.08391 
L 230.68182 245.851157 
L 230.461464 246.625997 
L 230.266478 247.407608 
L 230.097069 248.195158 
L 229.953417 248.987811 
L 229.835675 249.784725 
L 229.743968 250.585052 
L 229.678394 251.387944 
L 229.639021 252.192546 
L 229.625892 252.998003 
" clip-path="url(#pdfe549b581)" style="fill: none; stroke: #1f2937; stroke-width: 2; stroke-linecap: square"/>
   </g>
   <g id="line2d_3">
    <path d="M 133.537078 125.277356 
L 134.409285 125.832828 
L 135.303965 126.351326 
L 136.219552 126.831945 
L 137.154443 127.273842 
L 138.107001 127.676243 
L 139.075559 128.038445 
L 140.05842 128.359812 
L 141.053865 128.639783 
L 142.06015 128.877868 
L 143.075514 129.073649 
L 144.098179 129.226783 
L 145.126354 129.337003 
L 146.158241 129.404116 
L 147.192031 129.428004 
L 148.225916 129.408626 
L 149.258086 129.346015 
L 150.286732 129.24028 
L 151.310055 129.091608 
L 152.326264 128.900258 
L 153.333577 128.666565 
L 154.330234 128.390939 
L 155.314488 128.073861 
L 156.284616 127.715888 
L 157.23892 127.317646 
L 158.17573 126.879831 
L 159.093404 126.403211 
L 159.990338 125.88862 
L 160.86496 125.336958 
L 161.715739 124.749192 
" clip-path="url(#pdfe549b581)" style="fill: none; stroke: #1f2937; stroke-width: 2; stroke-linecap: square"/>
   </g>
   <g id="text_1">
    <!-- α -->
    <g style="fill: #1f2937" transform="translate(60.746974 236.522011) scale(0.1 -0.1)">
     <defs>
      <path id="SegoeUI-3b1" d="M 3816 16 
Q 3650 -25 3519 -25 
Q 3038 -25 2869 891 
L 2856 891 
Q 2394 -75 1563 -75 
Q 981 -75 631 373 
Q 281 822 281 1506 
Q 281 2288 684 2781 
Q 1088 3275 1775 3275 
Q 2169 3275 2478 3040 
Q 2788 2806 2947 2381 
L 2959 2381 
L 3225 3200 
L 3763 3200 
L 3159 1631 
Q 3266 947 3384 701 
Q 3503 456 3691 456 
Q 3763 456 3816 472 
L 3816 16 
z
M 2728 1625 
Q 2609 2219 2365 2534 
Q 2122 2850 1778 2850 
Q 1334 2850 1070 2472 
Q 806 2094 806 1538 
Q 806 1044 1029 709 
Q 1253 375 1631 375 
Q 1963 375 2233 658 
Q 2503 941 2684 1491 
L 2728 1625 
z
" transform="scale(0.015625)"/>
     </defs>
     <use xlink:href="#SegoeUI-3b1"/>
    </g>
   </g>
   <g id="text_2">
    <!-- β -->
    <g style="fill: #1f2937" transform="translate(225.506894 236.522011) scale(0.1 -0.1)">
     <defs>
      <path id="SegoeUI-3b2" d="M 1028 144 
L 1028 -1503 
L 522 -1503 
L 522 3484 
Q 522 4081 865 4434 
Q 1209 4788 1788 4788 
Q 2328 4788 2639 4505 
Q 2950 4222 2950 3722 
Q 2950 3347 2711 3020 
Q 2472 2694 2091 2572 
L 2091 2559 
Q 2656 2469 2961 2133 
Q 3266 1797 3266 1278 
Q 3266 675 2887 298 
Q 2509 -78 1894 -78 
Q 1419 -78 1028 144 
z
M 1553 2316 
L 1553 2725 
Q 1938 2778 2186 3048 
Q 2434 3319 2434 3659 
Q 2434 4350 1778 4350 
Q 1416 4350 1222 4109 
Q 1028 3869 1028 3431 
L 1028 631 
Q 1466 359 1884 359 
Q 2288 359 2514 592 
Q 2741 825 2741 1244 
Q 2741 2191 1553 2316 
z
" transform="scale(0.015625)"/>
     </defs>
     <use xlink:href="#SegoeUI-3b2"/>
    </g>
   </g>
   <g id="text_3">
    <!-- γ -->
    <g style="fill: #1f2937" transform="translate(147.245932 137.666059) scale(0.1 -0.1)">
     <defs>
      <path id="SegoeUI-3b3" d="M 1772 -216 
Q 1772 -1216 1759 -1503 
L 1213 -1503 
Q 1259 -975 1259 44 
Q 1134 716 765 1655 
Q 397 2594 16 3200 
L 603 3200 
Q 1381 1813 1675 447 
L 1688 447 
Q 2206 1209 2401 1745 
Q 2597 2281 2597 2794 
Q 2597 2988 2566 3200 
L 3100 3200 
Q 3119 3034 3119 2934 
Q 3119 2516 3025 2112 
Q 2931 1709 2732 1314 
Q 2534 919 2381 697 
L 1772 -216 
z
" transform="scale(0.015625)"/>
     </defs>
     <use xlink:href="#SegoeUI-3b3"/>
    </g>
   </g>
   <g id="text_4">
    <!-- α, β, γ &lt; 90° -->
    <g style="fill: #6b7280" transform="translate(121.941649 294.187983) scale(0.11 -0.11)">
     <defs>
      <path id="SegoeUI-2c" d="M 988 713 
L 488 -825 
L 122 -825 
L 488 713 
L 988 713 
z
" transform="scale(0.015625)"/>
      <path id="SegoeUI-20" transform="scale(0.015625)"/>
      <path id="SegoeUI-3c" d="M 3538 397 
L 850 1747 
L 850 1931 
L 3538 3438 
L 3538 2969 
L 1531 1856 
L 1531 1844 
L 3538 863 
L 3538 397 
z
" transform="scale(0.015625)"/>
      <path id="SegoeUI-39" d="M 3138 2509 
Q 3138 1894 3016 1414 
Q 2894 934 2659 601 
Q 2425 269 2087 95 
Q 1750 -78 1319 -78 
Q 875 -78 538 78 
L 538 569 
Q 909 359 1331 359 
Q 1634 359 1873 484 
Q 2113 609 2278 848 
Q 2444 1088 2531 1438 
Q 2619 1788 2619 2241 
L 2606 2241 
Q 2319 1663 1606 1663 
Q 1319 1663 1078 1764 
Q 838 1866 663 2052 
Q 488 2238 391 2494 
Q 294 2750 294 3059 
Q 294 3391 401 3666 
Q 509 3941 701 4139 
Q 894 4338 1158 4447 
Q 1422 4556 1734 4556 
Q 2072 4556 2333 4420 
Q 2594 4284 2772 4023 
Q 2950 3763 3044 3381 
Q 3138 3000 3138 2509 
z
M 2584 2969 
Q 2584 3228 2517 3440 
Q 2450 3653 2331 3804 
Q 2213 3956 2048 4039 
Q 1884 4122 1691 4122 
Q 1506 4122 1347 4048 
Q 1188 3975 1070 3842 
Q 953 3709 886 3526 
Q 819 3344 819 3128 
Q 819 2891 883 2703 
Q 947 2516 1065 2386 
Q 1184 2256 1351 2187 
Q 1519 2119 1722 2119 
Q 1900 2119 2058 2186 
Q 2216 2253 2333 2367 
Q 2450 2481 2517 2636 
Q 2584 2791 2584 2969 
z
" transform="scale(0.015625)"/>
      <path id="SegoeUI-30" d="M 3188 2259 
Q 3188 1697 3086 1262 
Q 2984 828 2792 529 
Q 2600 231 2320 76 
Q 2041 -78 1684 -78 
Q 1347 -78 1083 70 
Q 819 219 637 503 
Q 456 788 362 1202 
Q 269 1616 269 2150 
Q 269 2738 367 3188 
Q 466 3638 656 3942 
Q 847 4247 1130 4401 
Q 1413 4556 1778 4556 
Q 3188 4556 3188 2259 
z
M 2663 2209 
Q 2663 4122 1753 4122 
Q 794 4122 794 2175 
Q 794 359 1734 359 
Q 2663 359 2663 2209 
z
" transform="scale(0.015625)"/>
      <path id="SegoeUI-b0" d="M 1203 2803 
Q 844 2803 591 3058 
Q 338 3313 338 3675 
Q 338 4034 588 4282 
Q 838 4531 1197 4531 
Q 1559 4531 1814 4281 
Q 2069 4031 2069 3675 
Q 2069 3313 1816 3058 
Q 1563 2803 1203 2803 
z
M 1203 4166 
Q 1000 4166 856 4022 
Q 713 3878 713 3675 
Q 713 3466 853 3317 
Q 994 3169 1197 3169 
Q 1400 3169 1547 3319 
Q 1694 3469 1694 3675 
Q 1694 3881 1550 4023 
Q 1406 4166 1203 4166 
z
" transform="scale(0.015625)"/>
     </defs>
     <use xlink:href="#SegoeUI-3b1"/>
     <use xlink:href="#SegoeUI-2c" x="61.425781"/>
     <use xlink:href="#SegoeUI-20" x="83.105469"/>
     <use xlink:href="#SegoeUI-3b2" x="110.498047"/>
     <use xlink:href="#SegoeUI-2c" x="165.283203"/>
     <use xlink:href="#SegoeUI-20" x="186.962891"/>
     <use xlink:href="#SegoeUI-3b3" x="214.355469"/>
     <use xlink:href="#SegoeUI-20" x="266.259766"/>
     <use xlink:href="#SegoeUI-3c" x="293.652344"/>
     <use xlink:href="#SegoeUI-20" x="362.060547"/>
     <use xlink:href="#SegoeUI-39" x="389.453125"/>
     <use xlink:href="#SegoeUI-30" x="443.359375"/>
     <use xlink:href="#SegoeUI-b0" x="497.265625"/>
    </g>
   </g>
   <g id="text_5">
    <!-- ACUTÁNGULO -->
    <g style="fill: #2c2f33" transform="translate(131.562108 48.341591) scale(0.12 -0.12)">
     <defs>
      <path id="SegoeUI-Bold-41" d="M 4453 0 
L 3353 0 
L 3034 997 
L 1441 997 
L 1125 0 
L 31 0 
L 1663 4481 
L 2859 4481 
L 4453 0 
z
M 2803 1772 
L 2322 3278 
Q 2269 3447 2247 3681 
L 2222 3681 
Q 2206 3484 2144 3291 
L 1656 1772 
L 2803 1772 
z
" transform="scale(0.015625)"/>
      <path id="SegoeUI-Bold-43" d="M 3725 159 
Q 3234 -78 2444 -78 
Q 1413 -78 822 528 
Q 231 1134 231 2144 
Q 231 3219 895 3887 
Q 1559 4556 2619 4556 
Q 3275 4556 3725 4391 
L 3725 3419 
Q 3275 3688 2700 3688 
Q 2069 3688 1681 3291 
Q 1294 2894 1294 2216 
Q 1294 1566 1659 1180 
Q 2025 794 2644 794 
Q 3234 794 3725 1081 
L 3725 159 
z
" transform="scale(0.015625)"/>
      <path id="SegoeUI-Bold-55" d="M 4166 1941 
Q 4166 -78 2284 -78 
Q 459 -78 459 1894 
L 459 4481 
L 1472 4481 
L 1472 1881 
Q 1472 794 2322 794 
Q 3156 794 3156 1844 
L 3156 4481 
L 4166 4481 
L 4166 1941 
z
" transform="scale(0.015625)"/>
      <path id="SegoeUI-Bold-54" d="M 3659 3659 
L 2381 3659 
L 2381 0 
L 1369 0 
L 1369 3659 
L 97 3659 
L 97 4481 
L 3659 4481 
L 3659 3659 
z
" transform="scale(0.015625)"/>
      <path id="SegoeUI-Bold-c1" d="M 4453 0 
L 3353 0 
L 3034 997 
L 1441 997 
L 1125 0 
L 31 0 
L 1663 4481 
L 2859 4481 
L 4453 0 
z
M 2803 1772 
L 2322 3278 
Q 2269 3447 2247 3681 
L 2222 3681 
Q 2206 3484 2144 3291 
L 1656 1772 
L 2803 1772 
z
M 3239 5932 
L 2260 4922 
L 1548 4922 
L 2360 5932 
L 3239 5932 
z
" transform="scale(0.015625)"/>
      <path id="SegoeUI-Bold-4e" d="M 4544 0 
L 3525 0 
L 1678 2816 
Q 1516 3063 1453 3188 
L 1441 3188 
Q 1466 2950 1466 2463 
L 1466 0 
L 513 0 
L 513 4481 
L 1600 4481 
L 3378 1753 
Q 3500 1569 3603 1388 
L 3616 1388 
Q 3591 1544 3591 2003 
L 3591 4481 
L 4544 4481 
L 4544 0 
z
" transform="scale(0.015625)"/>
      <path id="SegoeUI-Bold-47" d="M 4191 300 
Q 3534 -78 2559 -78 
Q 1478 -78 854 520 
Q 231 1119 231 2169 
Q 231 3225 912 3890 
Q 1594 4556 2725 4556 
Q 3438 4556 3981 4359 
L 3981 3413 
Q 3463 3713 2713 3713 
Q 2084 3713 1689 3305 
Q 1294 2897 1294 2216 
Q 1294 1525 1648 1147 
Q 2003 769 2606 769 
Q 2969 769 3181 872 
L 3181 1747 
L 2284 1747 
L 2284 2553 
L 4191 2553 
L 4191 300 
z
" transform="scale(0.015625)"/>
      <path id="SegoeUI-Bold-4c" d="M 3181 0 
L 513 0 
L 513 4481 
L 1522 4481 
L 1522 819 
L 3181 819 
L 3181 0 
z
" transform="scale(0.015625)"/>
      <path id="SegoeUI-Bold-4f" d="M 2406 -78 
Q 1444 -78 837 548 
Q 231 1175 231 2181 
Q 231 3244 847 3900 
Q 1463 4556 2478 4556 
Q 3438 4556 4030 3928 
Q 4622 3300 4622 2272 
Q 4622 1216 4008 569 
Q 3394 -78 2406 -78 
z
M 2450 3688 
Q 1919 3688 1606 3289 
Q 1294 2891 1294 2234 
Q 1294 1569 1606 1181 
Q 1919 794 2425 794 
Q 2947 794 3253 1170 
Q 3559 1547 3559 2216 
Q 3559 2913 3262 3300 
Q 2966 3688 2450 3688 
z
" transform="scale(0.015625)"/>
     </defs>
     <use xlink:href="#SegoeUI-Bold-41"/>
     <use xlink:href="#SegoeUI-Bold-43" x="68.8125"/>
     <use xlink:href="#SegoeUI-Bold-55" x="131.214844"/>
     <use xlink:href="#SegoeUI-Bold-54" x="203.529297"/>
     <use xlink:href="#SegoeUI-Bold-c1" x="256.123047"/>
     <use xlink:href="#SegoeUI-Bold-4e" x="326.435547"/>
     <use xlink:href="#SegoeUI-Bold-47" x="405.439453"/>
     <use xlink:href="#SegoeUI-Bold-55" x="476.533203"/>
     <use xlink:href="#SegoeUI-Bold-4c" x="548.847656"/>
     <use xlink:href="#SegoeUI-Bold-4f" x="597.470703"/>
    </g>
    <!-- (3 ángulos agudos) -->
    <g style="fill: #2c2f33" transform="translate(117.951483 61.762091) scale(0.12 -0.12)">
     <defs>
      <path id="SegoeUI-Bold-28" d="M 2309 -1019 
L 1503 -1019 
Q 494 94 494 1716 
Q 494 3281 1503 4481 
L 2303 4481 
Q 1356 3225 1356 1716 
Q 1356 206 2309 -1019 
z
" transform="scale(0.015625)"/>
      <path id="SegoeUI-Bold-33" d="M 366 147 
L 366 1006 
Q 816 678 1416 678 
Q 1794 678 2005 840 
Q 2216 1003 2216 1294 
Q 2216 1594 1955 1756 
Q 1694 1919 1238 1919 
L 822 1919 
L 822 2675 
L 1206 2675 
Q 2081 2675 2081 3256 
Q 2081 3803 1409 3803 
Q 959 3803 534 3513 
L 534 4319 
Q 1006 4556 1634 4556 
Q 2322 4556 2705 4247 
Q 3088 3938 3088 3444 
Q 3088 2566 2197 2344 
L 2197 2328 
Q 2672 2269 2947 1983 
Q 3222 1697 3222 1281 
Q 3222 653 2762 287 
Q 2303 -78 1494 -78 
Q 800 -78 366 147 
z
" transform="scale(0.015625)"/>
      <path id="SegoeUI-Bold-20" transform="scale(0.015625)"/>
      <path id="SegoeUI-Bold-e1" d="M 3078 0 
L 2144 0 
L 2144 459 
L 2131 459 
Q 1809 -78 1178 -78 
Q 713 -78 445 186 
Q 178 450 178 891 
Q 178 1822 1281 1966 
L 2150 2081 
Q 2150 2606 1581 2606 
Q 1009 2606 494 2266 
L 494 3009 
Q 700 3116 1058 3197 
Q 1416 3278 1709 3278 
Q 3078 3278 3078 1913 
L 3078 0 
z
M 2150 1300 
L 2150 1516 
L 1569 1441 
Q 1088 1378 1088 1006 
Q 1088 838 1205 730 
Q 1322 622 1522 622 
Q 1800 622 1975 814 
Q 2150 1006 2150 1300 
z
M 2783 4716 
L 1804 3706 
L 1092 3706 
L 1904 4716 
L 2783 4716 
z
" transform="scale(0.015625)"/>
      <path id="SegoeUI-Bold-6e" d="M 3506 0 
L 2522 0 
L 2522 1778 
Q 2522 2522 1991 2522 
Q 1734 2522 1568 2325 
Q 1403 2128 1403 1825 
L 1403 0 
L 416 0 
L 416 3200 
L 1403 3200 
L 1403 2694 
L 1416 2694 
Q 1769 3278 2444 3278 
Q 3506 3278 3506 1959 
L 3506 0 
z
" transform="scale(0.015625)"/>
      <path id="SegoeUI-Bold-67" d="M 3553 366 
Q 3553 -525 3037 -1014 
Q 2522 -1503 1544 -1503 
Q 897 -1503 519 -1319 
L 519 -488 
Q 1013 -775 1516 -775 
Q 2016 -775 2291 -511 
Q 2566 -247 2566 206 
L 2566 459 
L 2553 459 
Q 2216 -78 1556 -78 
Q 944 -78 584 353 
Q 225 784 225 1509 
Q 225 2322 625 2800 
Q 1025 3278 1678 3278 
Q 2263 3278 2553 2828 
L 2566 2828 
L 2566 3200 
L 3553 3200 
L 3553 366 
z
M 2578 1538 
L 2578 1791 
Q 2578 2094 2398 2308 
Q 2219 2522 1931 2522 
Q 1603 2522 1415 2265 
Q 1228 2009 1228 1544 
Q 1228 1144 1406 911 
Q 1584 678 1894 678 
Q 2200 678 2389 914 
Q 2578 1150 2578 1538 
z
" transform="scale(0.015625)"/>
      <path id="SegoeUI-Bold-75" d="M 3456 0 
L 2472 0 
L 2472 488 
L 2456 488 
Q 2091 -78 1478 -78 
Q 366 -78 366 1269 
L 366 3200 
L 1350 3200 
L 1350 1356 
Q 1350 678 1888 678 
Q 2153 678 2312 864 
Q 2472 1050 2472 1369 
L 2472 3200 
L 3456 3200 
L 3456 0 
z
" transform="scale(0.015625)"/>
      <path id="SegoeUI-Bold-6c" d="M 1403 0 
L 416 0 
L 416 4738 
L 1403 4738 
L 1403 0 
z
" transform="scale(0.015625)"/>
      <path id="SegoeUI-Bold-6f" d="M 1941 -78 
Q 1141 -78 683 370 
Q 225 819 225 1588 
Q 225 2381 700 2829 
Q 1175 3278 1984 3278 
Q 2781 3278 3234 2829 
Q 3688 2381 3688 1644 
Q 3688 847 3220 384 
Q 2753 -78 1941 -78 
z
M 1966 2522 
Q 1616 2522 1422 2281 
Q 1228 2041 1228 1600 
Q 1228 678 1972 678 
Q 2681 678 2681 1625 
Q 2681 2522 1966 2522 
z
" transform="scale(0.015625)"/>
      <path id="SegoeUI-Bold-73" d="M 206 84 
L 206 884 
Q 450 738 692 666 
Q 934 594 1150 594 
Q 1413 594 1564 666 
Q 1716 738 1716 884 
Q 1716 978 1647 1040 
Q 1578 1103 1470 1150 
Q 1363 1197 1234 1234 
Q 1106 1272 988 1319 
Q 797 1391 651 1473 
Q 506 1556 407 1665 
Q 309 1775 257 1919 
Q 206 2063 206 2259 
Q 206 2528 323 2722 
Q 441 2916 636 3039 
Q 831 3163 1082 3220 
Q 1334 3278 1606 3278 
Q 1819 3278 2037 3245 
Q 2256 3213 2469 3150 
L 2469 2388 
Q 2281 2497 2067 2551 
Q 1853 2606 1647 2606 
Q 1550 2606 1464 2589 
Q 1378 2572 1312 2539 
Q 1247 2506 1209 2454 
Q 1172 2403 1172 2338 
Q 1172 2250 1228 2187 
Q 1284 2125 1375 2079 
Q 1466 2034 1577 1998 
Q 1688 1963 1797 1925 
Q 1994 1856 2153 1775 
Q 2313 1694 2427 1584 
Q 2541 1475 2602 1328 
Q 2663 1181 2663 978 
Q 2663 694 2539 492 
Q 2416 291 2211 164 
Q 2006 38 1739 -20 
Q 1472 -78 1184 -78 
Q 656 -78 206 84 
z
" transform="scale(0.015625)"/>
      <path id="SegoeUI-Bold-61" d="M 3078 0 
L 2144 0 
L 2144 459 
L 2131 459 
Q 1809 -78 1178 -78 
Q 713 -78 445 186 
Q 178 450 178 891 
Q 178 1822 1281 1966 
L 2150 2081 
Q 2150 2606 1581 2606 
Q 1009 2606 494 2266 
L 494 3009 
Q 700 3116 1058 3197 
Q 1416 3278 1709 3278 
Q 3078 3278 3078 1913 
L 3078 0 
z
M 2150 1300 
L 2150 1516 
L 1569 1441 
Q 1088 1378 1088 1006 
Q 1088 838 1205 730 
Q 1322 622 1522 622 
Q 1800 622 1975 814 
Q 2150 1006 2150 1300 
z
" transform="scale(0.015625)"/>
      <path id="SegoeUI-Bold-64" d="M 3547 0 
L 2559 0 
L 2559 441 
L 2547 441 
Q 2209 -78 1556 -78 
Q 956 -78 590 345 
Q 225 769 225 1528 
Q 225 2322 628 2800 
Q 1031 3278 1684 3278 
Q 2303 3278 2547 2834 
L 2559 2834 
L 2559 4738 
L 3547 4738 
L 3547 0 
z
M 2578 1556 
L 2578 1797 
Q 2578 2109 2397 2315 
Q 2216 2522 1925 2522 
Q 1597 2522 1412 2264 
Q 1228 2006 1228 1556 
Q 1228 1134 1406 906 
Q 1584 678 1900 678 
Q 2200 678 2389 918 
Q 2578 1159 2578 1556 
z
" transform="scale(0.015625)"/>
      <path id="SegoeUI-Bold-29" d="M 856 -1019 
L 56 -1019 
Q 1013 200 1013 1716 
Q 1013 3219 56 4481 
L 863 4481 
Q 1875 3278 1875 1716 
Q 1875 106 856 -1019 
z
" transform="scale(0.015625)"/>
     </defs>
     <use xlink:href="#SegoeUI-Bold-28"/>
     <use xlink:href="#SegoeUI-Bold-33" x="36.914062"/>
     <use xlink:href="#SegoeUI-Bold-20" x="94.433594"/>
     <use xlink:href="#SegoeUI-Bold-e1" x="122.021484"/>
     <use xlink:href="#SegoeUI-Bold-6e" x="175.830078"/>
     <use xlink:href="#SegoeUI-Bold-67" x="236.328125"/>
     <use xlink:href="#SegoeUI-Bold-75" x="298.242188"/>
     <use xlink:href="#SegoeUI-Bold-6c" x="358.740234"/>
     <use xlink:href="#SegoeUI-Bold-6f" x="387.158203"/>
     <use xlink:href="#SegoeUI-Bold-73" x="448.291016"/>
     <use xlink:href="#SegoeUI-Bold-20" x="492.285156"/>
     <use xlink:href="#SegoeUI-Bold-61" x="519.873047"/>
     <use xlink:href="#SegoeUI-Bold-67" x="573.681641"/>
     <use xlink:href="#SegoeUI-Bold-75" x="635.595703"/>
     <use xlink:href="#SegoeUI-Bold-64" x="696.09375"/>
     <use xlink:href="#SegoeUI-Bold-6f" x="758.007812"/>
     <use xlink:href="#SegoeUI-Bold-73" x="819.140625"/>
     <use xlink:href="#SegoeUI-Bold-29" x="863.134766"/>
    </g>
   </g>
  </g>
  <g id="axes_2">
   <g id="patch_3">
    <path d="M 384.62982 252.998003 
L 590.57972 252.998003 
L 384.62982 104.714075 
z
" clip-path="url(#p1580b22b6a)" style="fill: #e12885; opacity: 0.15; stroke: #e12885; stroke-width: 2.5; stroke-linejoin: miter"/>
   </g>
   <g id="line2d_4">
    <path d="M 401.105812 252.998003 
L 401.105812 236.522011 
L 384.62982 236.522011 
" clip-path="url(#p1580b22b6a)" style="fill: none; stroke: #e12885; stroke-width: 1.5; stroke-linecap: square"/>
   </g>
   <g id="line2d_5">
    <path d="M 570.52347 238.557503 
L 570.217406 238.992384 
L 569.92077 239.43375 
L 569.633699 239.881396 
L 569.356326 240.335115 
L 569.08878 240.794697 
L 568.831184 241.259929 
L 568.583658 241.730596 
L 568.346317 242.20648 
L 568.119269 242.68736 
L 567.902621 243.173015 
L 567.696473 243.663218 
L 567.50092 244.157744 
L 567.316052 244.656363 
L 567.141956 245.158844 
L 566.978712 245.664954 
L 566.826395 246.17446 
L 566.685076 246.687125 
L 566.55482 247.202712 
L 566.435689 247.720983 
L 566.327736 248.241696 
L 566.231012 248.764612 
L 566.145561 249.289488 
L 566.071424 249.816081 
L 566.008634 250.344148 
L 565.957221 250.873443 
L 565.917209 251.403722 
L 565.888615 251.934739 
L 565.871453 252.466248 
L 565.865732 252.998003 
" clip-path="url(#p1580b22b6a)" style="fill: none; stroke: #1f2937; stroke-width: 2; stroke-linecap: square"/>
   </g>
   <g id="line2d_6">
    <path d="M 384.62982 129.428063 
L 385.436523 129.414894 
L 386.242366 129.375399 
L 387.046491 129.309622 
L 387.84804 129.217631 
L 388.646159 129.099526 
L 389.439998 128.955432 
L 390.22871 128.785503 
L 391.011456 128.589919 
L 391.7874 128.36889 
L 392.555716 128.12265 
L 393.315584 127.851463 
L 394.066196 127.555616 
L 394.806751 127.235427 
L 395.53646 126.891235 
L 396.254545 126.523407 
L 396.960241 126.132337 
L 397.652796 125.718439 
L 398.331471 125.282156 
L 398.995544 124.823953 
L 399.644307 124.344317 
L 400.277067 123.84376 
L 400.893152 123.322816 
L 401.491904 122.782039 
L 402.072685 122.222007 
L 402.634876 121.643315 
L 403.177878 121.046581 
L 403.701113 120.43244 
L 404.204022 119.801547 
L 404.68607 119.154575 
" clip-path="url(#p1580b22b6a)" style="fill: none; stroke: #1f2937; stroke-width: 2; stroke-linecap: square"/>
   </g>
   <g id="text_6">
    <!-- β -->
    <g style="fill: #1f2937" transform="translate(557.627736 236.522011) scale(0.1 -0.1)">
     <use xlink:href="#SegoeUI-3b2"/>
    </g>
   </g>
   <g id="text_7">
    <!-- γ -->
    <g style="fill: #1f2937" transform="translate(396.986814 137.666059) scale(0.1 -0.1)">
     <use xlink:href="#SegoeUI-3b3"/>
    </g>
   </g>
   <g id="text_8">
    <!-- hipotenusa -->
    <g style="fill: #e12885" transform="translate(507.902394 170.992399) rotate(-35) scale(0.09 -0.09)">
     <defs>
      <path id="SegoeUI-68" d="M 3175 0 
L 2663 0 
L 2663 1844 
Q 2663 2844 1919 2844 
Q 1544 2844 1287 2555 
Q 1031 2266 1031 1813 
L 1031 0 
L 519 0 
L 519 4738 
L 1031 4738 
L 1031 2669 
L 1044 2669 
Q 1413 3275 2094 3275 
Q 3175 3275 3175 1972 
L 3175 0 
z
" transform="scale(0.015625)"/>
      <path id="SegoeUI-69" d="M 781 4013 
Q 644 4013 547 4106 
Q 450 4200 450 4344 
Q 450 4488 547 4583 
Q 644 4678 781 4678 
Q 922 4678 1020 4583 
Q 1119 4488 1119 4344 
Q 1119 4206 1020 4109 
Q 922 4013 781 4013 
z
M 1031 0 
L 519 0 
L 519 3200 
L 1031 3200 
L 1031 0 
z
" transform="scale(0.015625)"/>
      <path id="SegoeUI-70" d="M 1044 463 
L 1031 463 
L 1031 -1472 
L 519 -1472 
L 519 3200 
L 1031 3200 
L 1031 2638 
L 1044 2638 
Q 1422 3275 2150 3275 
Q 2769 3275 3116 2845 
Q 3463 2416 3463 1694 
Q 3463 891 3072 408 
Q 2681 -75 2003 -75 
Q 1381 -75 1044 463 
z
M 1031 1753 
L 1031 1306 
Q 1031 909 1289 632 
Q 1547 356 1944 356 
Q 2409 356 2673 712 
Q 2938 1069 2938 1703 
Q 2938 2238 2691 2541 
Q 2444 2844 2022 2844 
Q 1575 2844 1303 2533 
Q 1031 2222 1031 1753 
z
" transform="scale(0.015625)"/>
      <path id="SegoeUI-6f" d="M 1856 -75 
Q 1147 -75 723 373 
Q 300 822 300 1563 
Q 300 2369 740 2822 
Q 1181 3275 1931 3275 
Q 2647 3275 3048 2834 
Q 3450 2394 3450 1613 
Q 3450 847 3017 386 
Q 2584 -75 1856 -75 
z
M 1894 2844 
Q 1400 2844 1112 2508 
Q 825 2172 825 1581 
Q 825 1013 1115 684 
Q 1406 356 1894 356 
Q 2391 356 2658 678 
Q 2925 1000 2925 1594 
Q 2925 2194 2658 2519 
Q 2391 2844 1894 2844 
z
" transform="scale(0.015625)"/>
      <path id="SegoeUI-74" d="M 2003 31 
Q 1822 -69 1525 -69 
Q 684 -69 684 869 
L 684 2763 
L 134 2763 
L 134 3200 
L 684 3200 
L 684 3981 
L 1197 4147 
L 1197 3200 
L 2003 3200 
L 2003 2763 
L 1197 2763 
L 1197 959 
Q 1197 638 1306 500 
Q 1416 363 1669 363 
Q 1863 363 2003 469 
L 2003 31 
z
" transform="scale(0.015625)"/>
      <path id="SegoeUI-65" d="M 3091 1472 
L 831 1472 
Q 844 938 1119 647 
Q 1394 356 1875 356 
Q 2416 356 2869 713 
L 2869 231 
Q 2447 -75 1753 -75 
Q 1075 -75 687 361 
Q 300 797 300 1588 
Q 300 2334 723 2804 
Q 1147 3275 1775 3275 
Q 2403 3275 2747 2869 
Q 3091 2463 3091 1741 
L 3091 1472 
z
M 2566 1906 
Q 2563 2350 2352 2597 
Q 2141 2844 1766 2844 
Q 1403 2844 1150 2584 
Q 897 2325 838 1906 
L 2566 1906 
z
" transform="scale(0.015625)"/>
      <path id="SegoeUI-6e" d="M 3175 0 
L 2663 0 
L 2663 1825 
Q 2663 2844 1919 2844 
Q 1534 2844 1282 2555 
Q 1031 2266 1031 1825 
L 1031 0 
L 519 0 
L 519 3200 
L 1031 3200 
L 1031 2669 
L 1044 2669 
Q 1406 3275 2094 3275 
Q 2619 3275 2897 2936 
Q 3175 2597 3175 1956 
L 3175 0 
z
" transform="scale(0.015625)"/>
      <path id="SegoeUI-75" d="M 3106 0 
L 2594 0 
L 2594 506 
L 2581 506 
Q 2263 -75 1594 -75 
Q 450 -75 450 1288 
L 450 3200 
L 959 3200 
L 959 1369 
Q 959 356 1734 356 
Q 2109 356 2351 632 
Q 2594 909 2594 1356 
L 2594 3200 
L 3106 3200 
L 3106 0 
z
" transform="scale(0.015625)"/>
      <path id="SegoeUI-73" d="M 325 116 
L 325 666 
Q 744 356 1247 356 
Q 1922 356 1922 806 
Q 1922 934 1864 1023 
Q 1806 1113 1707 1181 
Q 1609 1250 1476 1304 
Q 1344 1359 1191 1419 
Q 978 1503 817 1589 
Q 656 1675 548 1783 
Q 441 1891 386 2028 
Q 331 2166 331 2350 
Q 331 2575 434 2748 
Q 538 2922 709 3039 
Q 881 3156 1101 3215 
Q 1322 3275 1556 3275 
Q 1972 3275 2300 3131 
L 2300 2613 
Q 1947 2844 1488 2844 
Q 1344 2844 1228 2811 
Q 1113 2778 1030 2718 
Q 947 2659 901 2576 
Q 856 2494 856 2394 
Q 856 2269 901 2184 
Q 947 2100 1034 2034 
Q 1122 1969 1247 1916 
Q 1372 1863 1531 1800 
Q 1744 1719 1912 1633 
Q 2081 1547 2200 1439 
Q 2319 1331 2383 1190 
Q 2447 1050 2447 856 
Q 2447 619 2342 444 
Q 2238 269 2063 153 
Q 1888 38 1659 -18 
Q 1431 -75 1181 -75 
Q 688 -75 325 116 
z
" transform="scale(0.015625)"/>
      <path id="SegoeUI-61" d="M 2809 0 
L 2297 0 
L 2297 500 
L 2284 500 
Q 1950 -75 1300 -75 
Q 822 -75 551 178 
Q 281 431 281 850 
Q 281 1747 1338 1894 
L 2297 2028 
Q 2297 2844 1638 2844 
Q 1059 2844 594 2450 
L 594 2975 
Q 1066 3275 1681 3275 
Q 2809 3275 2809 2081 
L 2809 0 
z
M 2297 1619 
L 1525 1513 
Q 1169 1463 987 1336 
Q 806 1209 806 888 
Q 806 653 973 504 
Q 1141 356 1419 356 
Q 1800 356 2048 623 
Q 2297 891 2297 1300 
L 2297 1619 
z
" transform="scale(0.015625)"/>
     </defs>
     <use xlink:href="#SegoeUI-68"/>
     <use xlink:href="#SegoeUI-69" x="56.591797"/>
     <use xlink:href="#SegoeUI-70" x="80.810547"/>
     <use xlink:href="#SegoeUI-6f" x="139.599609"/>
     <use xlink:href="#SegoeUI-74" x="198.193359"/>
     <use xlink:href="#SegoeUI-65" x="231.330078"/>
     <use xlink:href="#SegoeUI-6e" x="283.625"/>
     <use xlink:href="#SegoeUI-75" x="340.216797"/>
     <use xlink:href="#SegoeUI-73" x="396.808594"/>
     <use xlink:href="#SegoeUI-61" x="439.240234"/>
    </g>
   </g>
   <g id="text_9">
    <!-- Un ángulo = 90° -->
    <g style="fill: #6b7280" transform="translate(447.611176 294.187983) scale(0.11 -0.11)">
     <defs>
      <path id="SegoeUI-55" d="M 3866 1813 
Q 3866 -75 2163 -75 
Q 531 -75 531 1741 
L 531 4481 
L 1056 4481 
L 1056 1775 
Q 1056 397 2219 397 
Q 3341 397 3341 1728 
L 3341 4481 
L 3866 4481 
L 3866 1813 
z
" transform="scale(0.015625)"/>
      <path id="SegoeUI-e1" d="M 2809 0 
L 2297 0 
L 2297 500 
L 2284 500 
Q 1950 -75 1300 -75 
Q 822 -75 551 178 
Q 281 431 281 850 
Q 281 1747 1338 1894 
L 2297 2028 
Q 2297 2844 1638 2844 
Q 1059 2844 594 2450 
L 594 2975 
Q 1066 3275 1681 3275 
Q 2809 3275 2809 2081 
L 2809 0 
z
M 2297 1619 
L 1525 1513 
Q 1169 1463 987 1336 
Q 806 1209 806 888 
Q 806 653 973 504 
Q 1141 356 1419 356 
Q 1800 356 2048 623 
Q 2297 891 2297 1300 
L 2297 1619 
z
M 2366 4831 
L 1547 3806 
L 1150 3806 
L 1847 4831 
L 2366 4831 
z
" transform="scale(0.015625)"/>
      <path id="SegoeUI-67" d="M 3250 256 
Q 3250 -1506 1563 -1506 
Q 969 -1506 525 -1281 
L 525 -769 
Q 1066 -1069 1556 -1069 
Q 2738 -1069 2738 188 
L 2738 538 
L 2725 538 
Q 2359 -75 1625 -75 
Q 1028 -75 664 351 
Q 300 778 300 1497 
Q 300 2313 692 2794 
Q 1084 3275 1766 3275 
Q 2413 3275 2725 2756 
L 2738 2756 
L 2738 3200 
L 3250 3200 
L 3250 256 
z
M 2738 1447 
L 2738 1919 
Q 2738 2300 2480 2572 
Q 2222 2844 1838 2844 
Q 1363 2844 1094 2498 
Q 825 2153 825 1531 
Q 825 997 1083 676 
Q 1341 356 1766 356 
Q 2197 356 2467 662 
Q 2738 969 2738 1447 
z
" transform="scale(0.015625)"/>
      <path id="SegoeUI-6c" d="M 1031 0 
L 519 0 
L 519 4738 
L 1031 4738 
L 1031 0 
z
" transform="scale(0.015625)"/>
      <path id="SegoeUI-3d" d="M 3663 2325 
L 725 2325 
L 725 2738 
L 3663 2738 
L 3663 2325 
z
M 3663 994 
L 725 994 
L 725 1406 
L 3663 1406 
L 3663 994 
z
" transform="scale(0.015625)"/>
     </defs>
     <use xlink:href="#SegoeUI-55"/>
     <use xlink:href="#SegoeUI-6e" x="68.701172"/>
     <use xlink:href="#SegoeUI-20" x="125.292969"/>
     <use xlink:href="#SegoeUI-e1" x="152.685547"/>
     <use xlink:href="#SegoeUI-6e" x="203.564453"/>
     <use xlink:href="#SegoeUI-67" x="260.15625"/>
     <use xlink:href="#SegoeUI-75" x="319.042969"/>
     <use xlink:href="#SegoeUI-6c" x="375.634766"/>
     <use xlink:href="#SegoeUI-6f" x="399.853516"/>
     <use xlink:href="#SegoeUI-20" x="458.447266"/>
     <use xlink:href="#SegoeUI-3d" x="485.839844"/>
     <use xlink:href="#SegoeUI-20" x="554.248047"/>
     <use xlink:href="#SegoeUI-39" x="581.640625"/>
     <use xlink:href="#SegoeUI-30" x="635.546875"/>
     <use xlink:href="#SegoeUI-b0" x="689.453125"/>
    </g>
   </g>
   <g id="text_10">
    <!-- RECTÁNGULO -->
    <g style="fill: #2c2f33" transform="translate(469.159448 48.341591) scale(0.12 -0.12)">
     <defs>
      <path id="SegoeUI-Bold-52" d="M 4272 0 
L 3113 0 
L 2416 1153 
Q 2338 1284 2266 1387 
Q 2194 1491 2120 1564 
Q 2047 1638 1967 1677 
Q 1888 1716 1794 1716 
L 1522 1716 
L 1522 0 
L 513 0 
L 513 4481 
L 2113 4481 
Q 3744 4481 3744 3263 
Q 3744 3028 3672 2829 
Q 3600 2631 3469 2472 
Q 3338 2313 3152 2197 
Q 2966 2081 2738 2016 
L 2738 2003 
Q 2838 1972 2931 1901 
Q 3025 1831 3112 1737 
Q 3200 1644 3279 1536 
Q 3359 1428 3425 1325 
L 4272 0 
z
M 1522 3725 
L 1522 2478 
L 1959 2478 
Q 2284 2478 2481 2666 
Q 2681 2856 2681 3138 
Q 2681 3725 1978 3725 
L 1522 3725 
z
" transform="scale(0.015625)"/>
      <path id="SegoeUI-Bold-45" d="M 3200 0 
L 513 0 
L 513 4481 
L 3097 4481 
L 3097 3659 
L 1522 3659 
L 1522 2663 
L 2988 2663 
L 2988 1844 
L 1522 1844 
L 1522 819 
L 3200 819 
L 3200 0 
z
" transform="scale(0.015625)"/>
     </defs>
     <use xlink:href="#SegoeUI-Bold-52"/>
     <use xlink:href="#SegoeUI-Bold-45" x="65.283203"/>
     <use xlink:href="#SegoeUI-Bold-43" x="118.505859"/>
     <use xlink:href="#SegoeUI-Bold-54" x="180.908203"/>
     <use xlink:href="#SegoeUI-Bold-c1" x="233.501953"/>
     <use xlink:href="#SegoeUI-Bold-4e" x="303.814453"/>
     <use xlink:href="#SegoeUI-Bold-47" x="382.818359"/>
     <use xlink:href="#SegoeUI-Bold-55" x="453.912109"/>
     <use xlink:href="#SegoeUI-Bold-4c" x="526.226562"/>
     <use xlink:href="#SegoeUI-Bold-4f" x="574.849609"/>
    </g>
    <!-- (1 ángulo recto) -->
    <g style="fill: #2c2f33" transform="translate(462.95601 61.762091) scale(0.12 -0.12)">
     <defs>
      <path id="SegoeUI-Bold-31" d="M 2600 4581 
L 2600 0 
L 1616 0 
L 1616 3469 
Q 1534 3397 1423 3333 
Q 1313 3269 1188 3217 
Q 1063 3166 928 3130 
Q 794 3094 663 3078 
L 663 3909 
Q 1047 4022 1387 4197 
Q 1728 4372 2003 4581 
L 2600 4581 
z
" transform="scale(0.015625)"/>
      <path id="SegoeUI-Bold-72" d="M 2503 2309 
Q 2325 2406 2088 2406 
Q 1766 2406 1584 2170 
Q 1403 1934 1403 1528 
L 1403 0 
L 416 0 
L 416 3200 
L 1403 3200 
L 1403 2606 
L 1416 2606 
Q 1650 3256 2259 3256 
Q 2416 3256 2503 3219 
L 2503 2309 
z
" transform="scale(0.015625)"/>
      <path id="SegoeUI-Bold-65" d="M 3291 1319 
L 1203 1319 
Q 1253 622 2081 622 
Q 2609 622 3009 872 
L 3009 159 
Q 2566 -78 1856 -78 
Q 1081 -78 653 351 
Q 225 781 225 1550 
Q 225 2347 687 2812 
Q 1150 3278 1825 3278 
Q 2525 3278 2908 2862 
Q 3291 2447 3291 1734 
L 3291 1319 
z
M 2375 1925 
Q 2375 2613 1819 2613 
Q 1581 2613 1407 2416 
Q 1234 2219 1197 1925 
L 2375 1925 
z
" transform="scale(0.015625)"/>
      <path id="SegoeUI-Bold-63" d="M 2841 116 
Q 2506 -78 1875 -78 
Q 1138 -78 681 369 
Q 225 816 225 1522 
Q 225 2338 714 2808 
Q 1203 3278 2022 3278 
Q 2588 3278 2841 3128 
L 2841 2291 
Q 2531 2522 2150 2522 
Q 1725 2522 1476 2273 
Q 1228 2025 1228 1588 
Q 1228 1163 1465 920 
Q 1703 678 2119 678 
Q 2488 678 2841 909 
L 2841 116 
z
" transform="scale(0.015625)"/>
      <path id="SegoeUI-Bold-74" d="M 2350 38 
Q 2131 -78 1691 -78 
Q 647 -78 647 1006 
L 647 2472 
L 128 2472 
L 128 3200 
L 647 3200 
L 647 3891 
L 1631 4172 
L 1631 3200 
L 2350 3200 
L 2350 2472 
L 1631 2472 
L 1631 1178 
Q 1631 678 2028 678 
Q 2184 678 2350 769 
L 2350 38 
z
" transform="scale(0.015625)"/>
     </defs>
     <use xlink:href="#SegoeUI-Bold-28"/>
     <use xlink:href="#SegoeUI-Bold-31" x="36.914062"/>
     <use xlink:href="#SegoeUI-Bold-20" x="94.433594"/>
     <use xlink:href="#SegoeUI-Bold-e1" x="122.021484"/>
     <use xlink:href="#SegoeUI-Bold-6e" x="175.830078"/>
     <use xlink:href="#SegoeUI-Bold-67" x="236.328125"/>
     <use xlink:href="#SegoeUI-Bold-75" x="298.242188"/>
     <use xlink:href="#SegoeUI-Bold-6c" x="358.740234"/>
     <use xlink:href="#SegoeUI-Bold-6f" x="387.158203"/>
     <use xlink:href="#SegoeUI-Bold-20" x="448.291016"/>
     <use xlink:href="#SegoeUI-Bold-72" x="475.878906"/>
     <use xlink:href="#SegoeUI-Bold-65" x="515.298828"/>
     <use xlink:href="#SegoeUI-Bold-63" x="569.400391"/>
     <use xlink:href="#SegoeUI-Bold-74" x="617.398438"/>
     <use xlink:href="#SegoeUI-Bold-6f" x="655.939453"/>
     <use xlink:href="#SegoeUI-Bold-29" x="717.072266"/>
    </g>
   </g>
  </g>
  <g id="axes_3">
   <g id="patch_4">
    <path d="M 720.86966 252.998003 
L 968.00954 252.998003 
L 762.05964 154.142051 
z
" clip-path="url(#p79c219ca8c)" style="fill: #4b5563; opacity: 0.15; stroke: #4b5563; stroke-width: 2.5; stroke-linejoin: miter"/>
   </g>
   <g id="line2d_7">
    <path d="M 741.46465 252.998003 
L 741.447719 252.163066 
L 741.396952 251.329502 
L 741.312434 250.498681 
L 741.194303 249.671969 
L 741.042754 248.850727 
L 740.858035 248.036303 
L 740.640451 247.230038 
L 740.390359 246.433256 
L 740.108171 245.647268 
L 739.79435 244.873367 
L 739.449413 244.112825 
L 739.073926 243.366891 
L 738.668507 242.636794 
L 738.233823 241.923733 
L 737.770588 241.22888 
L 737.279564 240.553379 
L 736.761558 239.898339 
L 736.217422 239.264839 
L 735.648051 238.653918 
L 735.054381 238.066583 
L 734.437388 237.503799 
L 733.798086 236.96649 
L 733.137528 236.455542 
L 732.456798 235.971792 
L 731.757016 235.516038 
L 731.039332 235.089028 
L 730.304928 234.691465 
L 729.555009 234.324002 
L 728.79081 233.987243 
" clip-path="url(#p79c219ca8c)" style="fill: none; stroke: #4b5563; stroke-width: 2; stroke-linecap: square"/>
   </g>
   <g id="line2d_8">
    <path d="M 945.72931 242.303493 
L 945.566935 242.648575 
L 945.409904 242.996121 
L 945.258254 243.34605 
L 945.112023 243.698277 
L 944.971244 244.052718 
L 944.835952 244.40929 
L 944.706177 244.767907 
L 944.581952 245.128483 
L 944.463306 245.490934 
L 944.350268 245.855172 
L 944.242863 246.221112 
L 944.141118 246.588665 
L 944.045056 246.957744 
L 943.954702 247.328262 
L 943.870076 247.70013 
L 943.791198 248.073259 
L 943.718087 248.447562 
L 943.650761 248.822948 
L 943.589236 249.199328 
L 943.533525 249.576613 
L 943.483644 249.954712 
L 943.439603 250.333536 
L 943.401412 250.712995 
L 943.369082 251.092998 
L 943.34262 251.473454 
L 943.322031 251.854274 
L 943.307322 252.235365 
L 943.298495 252.616639 
L 943.295552 252.998003 
" clip-path="url(#p79c219ca8c)" style="fill: none; stroke: #1f2937; stroke-width: 2; stroke-linecap: square"/>
   </g>
   <g id="line2d_9">
    <path d="M 750.97003 180.757115 
L 752.377807 181.300902 
L 753.812109 181.770285 
L 755.269005 182.163978 
L 756.744505 182.480901 
L 758.234567 182.720188 
L 759.735107 182.881182 
L 761.242016 182.963442 
L 762.751165 182.966743 
L 764.258419 182.891076 
L 765.75965 182.736649 
L 767.250744 182.503883 
L 768.727616 182.193418 
L 770.186221 181.806103 
L 771.622563 181.343 
L 773.032705 180.805377 
L 774.412786 180.194707 
L 775.759025 179.512663 
L 777.067732 178.761114 
L 778.335323 177.942119 
L 779.558326 177.057921 
L 780.733389 176.110943 
L 781.857293 175.103778 
L 782.92696 174.039187 
L 783.939459 172.920086 
L 784.892016 171.749541 
L 785.782021 170.530758 
L 786.607037 169.267077 
L 787.364802 167.961959 
L 788.053242 166.61898 
" clip-path="url(#p79c219ca8c)" style="fill: none; stroke: #1f2937; stroke-width: 2; stroke-linecap: square"/>
   </g>
   <g id="text_11">
    <!-- α -->
    <g style="fill: #4b5563" transform="translate(749.702646 240.641009) scale(0.1 -0.1)">
     <defs>
      <path id="SegoeUI-Bold-3b1" d="M 2697 669 
Q 2313 -78 1538 -78 
Q 928 -78 578 362 
Q 228 803 228 1509 
Q 228 2275 634 2776 
Q 1041 3278 1725 3278 
Q 2497 3278 2769 2619 
L 2784 2619 
L 2959 3200 
L 3956 3200 
L 3266 1578 
Q 3384 1134 3511 939 
Q 3638 744 3803 744 
Q 3950 744 4050 794 
L 4038 38 
Q 3831 -47 3566 -47 
Q 3222 -47 3020 120 
Q 2819 288 2716 669 
L 2697 669 
z
M 2484 1644 
Q 2303 2528 1850 2528 
Q 1553 2528 1384 2253 
Q 1216 1978 1216 1569 
Q 1216 1178 1352 933 
Q 1488 688 1747 688 
Q 2191 688 2438 1497 
L 2484 1644 
z
" transform="scale(0.015625)"/>
     </defs>
     <use xlink:href="#SegoeUI-Bold-3b1"/>
    </g>
   </g>
   <g id="text_12">
    <!-- β -->
    <g style="fill: #1f2937" transform="translate(935.057556 236.522011) scale(0.1 -0.1)">
     <use xlink:href="#SegoeUI-3b2"/>
    </g>
   </g>
   <g id="text_13">
    <!-- γ -->
    <g style="fill: #1f2937" transform="translate(770.297636 182.975037) scale(0.1 -0.1)">
     <use xlink:href="#SegoeUI-3b3"/>
    </g>
   </g>
   <g id="text_14">
    <!-- α &gt; 90° -->
    <g style="fill: #6b7280" transform="translate(826.282725 294.187983) scale(0.11 -0.11)">
     <defs>
      <path id="SegoeUI-3e" d="M 3538 1747 
L 850 397 
L 850 863 
L 2863 1838 
L 2863 1856 
L 850 2969 
L 850 3438 
L 3538 1931 
L 3538 1747 
z
" transform="scale(0.015625)"/>
     </defs>
     <use xlink:href="#SegoeUI-3b1"/>
     <use xlink:href="#SegoeUI-20" x="61.425781"/>
     <use xlink:href="#SegoeUI-3e" x="88.818359"/>
     <use xlink:href="#SegoeUI-20" x="157.226562"/>
     <use xlink:href="#SegoeUI-39" x="184.619141"/>
     <use xlink:href="#SegoeUI-30" x="238.525391"/>
     <use xlink:href="#SegoeUI-b0" x="292.431641"/>
    </g>
   </g>
   <g id="text_15">
    <!-- OBTUSÁNGULO -->
    <g style="fill: #2c2f33" transform="translate(799.937412 48.341591) scale(0.12 -0.12)">
     <defs>
      <path id="SegoeUI-Bold-42" d="M 513 0 
L 513 4481 
L 2144 4481 
Q 2894 4481 3297 4206 
Q 3700 3931 3700 3431 
Q 3700 3069 3454 2797 
Q 3209 2525 2828 2419 
L 2828 2406 
Q 3306 2347 3592 2053 
Q 3878 1759 3878 1338 
Q 3878 722 3437 361 
Q 2997 0 2234 0 
L 513 0 
z
M 1522 3738 
L 1522 2675 
L 1966 2675 
Q 2278 2675 2458 2826 
Q 2638 2978 2638 3244 
Q 2638 3738 1900 3738 
L 1522 3738 
z
M 1522 1925 
L 1522 744 
L 2069 744 
Q 2419 744 2617 906 
Q 2816 1069 2816 1350 
Q 2816 1619 2620 1772 
Q 2425 1925 2075 1925 
L 1522 1925 
z
" transform="scale(0.015625)"/>
      <path id="SegoeUI-Bold-53" d="M 306 172 
L 306 1172 
Q 578 944 897 830 
Q 1216 716 1541 716 
Q 1731 716 1873 750 
Q 2016 784 2111 845 
Q 2206 906 2253 989 
Q 2300 1072 2300 1169 
Q 2300 1300 2225 1403 
Q 2150 1506 2020 1593 
Q 1891 1681 1712 1762 
Q 1534 1844 1328 1928 
Q 803 2147 545 2462 
Q 288 2778 288 3225 
Q 288 3575 428 3826 
Q 569 4078 811 4240 
Q 1053 4403 1372 4479 
Q 1691 4556 2047 4556 
Q 2397 4556 2667 4514 
Q 2938 4472 3166 4384 
L 3166 3450 
Q 3053 3528 2920 3587 
Q 2788 3647 2647 3686 
Q 2506 3725 2367 3744 
Q 2228 3763 2103 3763 
Q 1931 3763 1790 3730 
Q 1650 3697 1553 3637 
Q 1456 3578 1403 3495 
Q 1350 3413 1350 3309 
Q 1350 3197 1409 3108 
Q 1469 3019 1578 2939 
Q 1688 2859 1844 2782 
Q 2000 2706 2197 2625 
Q 2466 2513 2680 2386 
Q 2894 2259 3047 2100 
Q 3200 1941 3281 1736 
Q 3363 1531 3363 1259 
Q 3363 884 3220 629 
Q 3078 375 2834 217 
Q 2591 59 2267 -9 
Q 1944 -78 1584 -78 
Q 1216 -78 883 -15 
Q 550 47 306 172 
z
" transform="scale(0.015625)"/>
     </defs>
     <use xlink:href="#SegoeUI-Bold-4f"/>
     <use xlink:href="#SegoeUI-Bold-42" x="75.830078"/>
     <use xlink:href="#SegoeUI-Bold-54" x="137.566406"/>
     <use xlink:href="#SegoeUI-Bold-55" x="196.160156"/>
     <use xlink:href="#SegoeUI-Bold-53" x="268.474609"/>
     <use xlink:href="#SegoeUI-Bold-c1" x="324.529297"/>
     <use xlink:href="#SegoeUI-Bold-4e" x="394.841797"/>
     <use xlink:href="#SegoeUI-Bold-47" x="473.845703"/>
     <use xlink:href="#SegoeUI-Bold-55" x="544.939453"/>
     <use xlink:href="#SegoeUI-Bold-4c" x="617.253906"/>
     <use xlink:href="#SegoeUI-Bold-4f" x="665.876953"/>
    </g>
    <!-- (1 ángulo obtuso) -->
    <g style="fill: #2c2f33" transform="translate(794.00585 61.762091) scale(0.12 -0.12)">
     <defs>
      <path id="SegoeUI-Bold-62" d="M 1416 372 
L 1403 372 
L 1403 0 
L 416 0 
L 416 4738 
L 1403 4738 
L 1403 2719 
L 1416 2719 
Q 1781 3278 2456 3278 
Q 3075 3278 3409 2853 
Q 3744 2428 3744 1691 
Q 3744 891 3353 406 
Q 2963 -78 2309 -78 
Q 1719 -78 1416 372 
z
M 1388 1722 
L 1388 1394 
Q 1388 1084 1566 881 
Q 1744 678 2022 678 
Q 2359 678 2545 939 
Q 2731 1200 2731 1678 
Q 2731 2075 2561 2298 
Q 2391 2522 2075 2522 
Q 1778 2522 1583 2300 
Q 1388 2078 1388 1722 
z
" transform="scale(0.015625)"/>
     </defs>
     <use xlink:href="#SegoeUI-Bold-28"/>
     <use xlink:href="#SegoeUI-Bold-31" x="36.914062"/>
     <use xlink:href="#SegoeUI-Bold-20" x="94.433594"/>
     <use xlink:href="#SegoeUI-Bold-e1" x="122.021484"/>
     <use xlink:href="#SegoeUI-Bold-6e" x="175.830078"/>
     <use xlink:href="#SegoeUI-Bold-67" x="236.328125"/>
     <use xlink:href="#SegoeUI-Bold-75" x="298.242188"/>
     <use xlink:href="#SegoeUI-Bold-6c" x="358.740234"/>
     <use xlink:href="#SegoeUI-Bold-6f" x="387.158203"/>
     <use xlink:href="#SegoeUI-Bold-20" x="448.291016"/>
     <use xlink:href="#SegoeUI-Bold-6f" x="475.878906"/>
     <use xlink:href="#SegoeUI-Bold-62" x="537.011719"/>
     <use xlink:href="#SegoeUI-Bold-74" x="599.023438"/>
     <use xlink:href="#SegoeUI-Bold-75" x="637.939453"/>
     <use xlink:href="#SegoeUI-Bold-73" x="698.4375"/>
     <use xlink:href="#SegoeUI-Bold-6f" x="742.431641"/>
     <use xlink:href="#SegoeUI-Bold-29" x="803.564453"/>
    </g>
   </g>
  </g>
  <g id="text_16">
   <!-- Clasificación de Triángulos por Ángulos -->
   <g style="fill: #2c2f33" transform="translate(378.716166 20.17625) scale(0.14 -0.14)">
    <defs>
     <path id="SegoeUI-Bold-69" d="M 916 3706 
Q 666 3706 506 3854 
Q 347 4003 347 4219 
Q 347 4441 506 4581 
Q 666 4722 916 4722 
Q 1169 4722 1326 4581 
Q 1484 4441 1484 4219 
Q 1484 3994 1326 3850 
Q 1169 3706 916 3706 
z
M 1403 0 
L 416 0 
L 416 3200 
L 1403 3200 
L 1403 0 
z
" transform="scale(0.015625)"/>
     <path id="SegoeUI-Bold-66" d="M 2503 3981 
Q 2313 4056 2138 4056 
Q 1663 4056 1663 3541 
L 1663 3200 
L 2394 3200 
L 2394 2472 
L 1663 2472 
L 1663 0 
L 678 0 
L 678 2472 
L 141 2472 
L 141 3200 
L 678 3200 
L 678 3597 
Q 678 4144 1034 4478 
Q 1391 4813 2003 4813 
Q 2303 4813 2503 4750 
L 2503 3981 
z
" transform="scale(0.015625)"/>
     <path id="SegoeUI-Bold-f3" d="M 1941 -78 
Q 1141 -78 683 370 
Q 225 819 225 1588 
Q 225 2381 700 2829 
Q 1175 3278 1984 3278 
Q 2781 3278 3234 2829 
Q 3688 2381 3688 1644 
Q 3688 847 3220 384 
Q 2753 -78 1941 -78 
z
M 1966 2522 
Q 1616 2522 1422 2281 
Q 1228 2041 1228 1600 
Q 1228 678 1972 678 
Q 2681 678 2681 1625 
Q 2681 2522 1966 2522 
z
M 3023 4716 
L 2044 3706 
L 1332 3706 
L 2144 4716 
L 3023 4716 
z
" transform="scale(0.015625)"/>
     <path id="SegoeUI-Bold-70" d="M 1416 372 
L 1403 372 
L 1403 -1472 
L 416 -1472 
L 416 3200 
L 1403 3200 
L 1403 2719 
L 1416 2719 
Q 1781 3278 2444 3278 
Q 3066 3278 3405 2851 
Q 3744 2425 3744 1691 
Q 3744 891 3348 406 
Q 2953 -78 2297 -78 
Q 1719 -78 1416 372 
z
M 1388 1684 
L 1388 1428 
Q 1388 1097 1563 887 
Q 1738 678 2022 678 
Q 2359 678 2545 939 
Q 2731 1200 2731 1678 
Q 2731 2522 2075 2522 
Q 1772 2522 1580 2292 
Q 1388 2063 1388 1684 
z
" transform="scale(0.015625)"/>
    </defs>
    <use xlink:href="#SegoeUI-Bold-43"/>
    <use xlink:href="#SegoeUI-Bold-6c" x="62.402344"/>
    <use xlink:href="#SegoeUI-Bold-61" x="90.820312"/>
    <use xlink:href="#SegoeUI-Bold-73" x="144.628906"/>
    <use xlink:href="#SegoeUI-Bold-69" x="188.623047"/>
    <use xlink:href="#SegoeUI-Bold-66" x="217.041016"/>
    <use xlink:href="#SegoeUI-Bold-69" x="255.371094"/>
    <use xlink:href="#SegoeUI-Bold-63" x="283.789062"/>
    <use xlink:href="#SegoeUI-Bold-61" x="331.787109"/>
    <use xlink:href="#SegoeUI-Bold-63" x="385.595703"/>
    <use xlink:href="#SegoeUI-Bold-69" x="433.59375"/>
    <use xlink:href="#SegoeUI-Bold-f3" x="462.011719"/>
    <use xlink:href="#SegoeUI-Bold-6e" x="523.095703"/>
    <use xlink:href="#SegoeUI-Bold-20" x="583.59375"/>
    <use xlink:href="#SegoeUI-Bold-64" x="611.181641"/>
    <use xlink:href="#SegoeUI-Bold-65" x="673.095703"/>
    <use xlink:href="#SegoeUI-Bold-20" x="727.197266"/>
    <use xlink:href="#SegoeUI-Bold-54" x="754.785156"/>
    <use xlink:href="#SegoeUI-Bold-72" x="805.878906"/>
    <use xlink:href="#SegoeUI-Bold-69" x="846.048828"/>
    <use xlink:href="#SegoeUI-Bold-e1" x="874.466797"/>
    <use xlink:href="#SegoeUI-Bold-6e" x="928.275391"/>
    <use xlink:href="#SegoeUI-Bold-67" x="988.773438"/>
    <use xlink:href="#SegoeUI-Bold-75" x="1050.6875"/>
    <use xlink:href="#SegoeUI-Bold-6c" x="1111.185547"/>
    <use xlink:href="#SegoeUI-Bold-6f" x="1139.603516"/>
    <use xlink:href="#SegoeUI-Bold-73" x="1200.736328"/>
    <use xlink:href="#SegoeUI-Bold-20" x="1244.730469"/>
    <use xlink:href="#SegoeUI-Bold-70" x="1272.318359"/>
    <use xlink:href="#SegoeUI-Bold-6f" x="1334.330078"/>
    <use xlink:href="#SegoeUI-Bold-72" x="1395.462891"/>
    <use xlink:href="#SegoeUI-Bold-20" x="1435.257812"/>
    <use xlink:href="#SegoeUI-Bold-c1" x="1462.845703"/>
    <use xlink:href="#SegoeUI-Bold-6e" x="1533.158203"/>
    <use xlink:href="#SegoeUI-Bold-67" x="1593.65625"/>
    <use xlink:href="#SegoeUI-Bold-75" x="1655.570312"/>
    <use xlink:href="#SegoeUI-Bold-6c" x="1716.068359"/>
    <use xlink:href="#SegoeUI-Bold-6f" x="1744.486328"/>
    <use xlink:href="#SegoeUI-Bold-73" x="1805.619141"/>
   </g>
  </g>
 </g>
 <defs>
  <clipPath id="pdfe549b581">
   <rect x="7.2" y="71.762091" width="329.51984" height="247.13988"/>
  </clipPath>
  <clipPath id="p1580b22b6a">
   <rect x="343.43984" y="71.762091" width="329.51984" height="247.13988"/>
  </clipPath>
  <clipPath id="p79c219ca8c">
   <rect x="679.67968" y="71.762091" width="329.51984" height="247.13988"/>
  </clipPath>
 </defs>
</svg>
