<?xml version="1.0" encoding="utf-8" standalone="no"?>
<!DOCTYPE svg PUBLIC "-//W3C//DTD SVG 1.1//EN"
  "http://www.w3.org/Graphics/SVG/1.1/DTD/svg11.dtd">
<svg xmlns:xlink="http://www.w3.org/1999/xlink" width="1016.39952pt" height="338.109641pt" viewBox="0 0 1016.39952 338.109641" xmlns="http://www.w3.org/2000/svg" version="1.1">
 <metadata>
  <rdf:RDF xmlns:dc="http://purl.org/dc/elements/1.1/" xmlns:cc="http://creativecommons.org/ns#" xmlns:rdf="http://www.w3.org/1999/02/22-rdf-syntax-ns#">
   <cc:Work>
    <dc:type rdf:resource="http://purl.org/dc/dcmitype/StillImage"/>
    <dc:date>2026-04-11T16:11:42.644845</dc:date>
    <dc:format>image/svg+xml</dc:format>
    <dc:creator>
     <cc:Agent>
      <dc:title>Matplotlib v3.8.4, https://matplotlib.org/</dc:title>
     </cc:Agent>
    </dc:creator>
   </cc:Work>
  </rdf:RDF>
 </metadata>
 <defs>
  <style type="text/css">*{stroke-linejoin: round; stroke-linecap: butt}</style>
 </defs>
 <g id="figure_1">
  <g id="patch_1">
   <path d="M 0 338.109641 
L 1016.39952 338.109641 
L 1016.39952 0 
L 0 0 
z
" style="fill: #ffffff"/>
  </g>
  <g id="axes_1">
   <g id="patch_2">
    <path d="M 48.38998 265.005673 
L 213.1499 265.005673 
L 130.76994 122.319397 
L 48.38998 265.005673 
z
" clip-path="url(#pb75966553f)" style="fill: none; stroke: #39c5bb; stroke-width: 2.5; stroke-linejoin: miter"/>
   </g>
   <g id="patch_3">
    <path d="M 48.38998 265.005673 
L 213.1499 265.005673 
L 130.76994 122.319397 
z
" clip-path="url(#pb75966553f)" style="fill: #39c5bb; opacity: 0.1"/>
   </g>
   <g id="line2d_1">
    <defs>
     <path id="mc162dd9728" d="M 0 3 
C 0.795609 3 1.55874 2.683901 2.12132 2.12132 
C 2.683901 1.55874 3 0.795609 3 0 
C 3 -0.795609 2.683901 -1.55874 2.12132 -2.12132 
C 1.55874 -2.683901 0.795609 -3 0 -3 
C -0.795609 -3 -1.55874 -2.683901 -2.12132 -2.12132 
C -2.683901 -1.55874 -3 -0.795609 -3 0 
C -3 0.795609 -2.683901 1.55874 -2.12132 2.12132 
C -1.55874 2.683901 -0.795609 3 0 3 
z
" style="stroke: #e12885"/>
    </defs>
    <g clip-path="url(#pb75966553f)">
     <use xlink:href="#mc162dd9728" x="48.38998" y="265.005673" style="fill: #e12885; stroke: #e12885"/>
    </g>
   </g>
   <g id="line2d_2">
    <g clip-path="url(#pb75966553f)">
     <use xlink:href="#mc162dd9728" x="213.1499" y="265.005673" style="fill: #e12885; stroke: #e12885"/>
    </g>
   </g>
   <g id="line2d_3">
    <g clip-path="url(#pb75966553f)">
     <use xlink:href="#mc162dd9728" x="130.76994" y="122.319397" style="fill: #e12885; stroke: #e12885"/>
    </g>
   </g>
   <g id="line2d_4">
    <path d="M 130.76994 273.243669 
L 130.76994 256.767677 
" clip-path="url(#pb75966553f)" style="fill: none; stroke: #1f2937; stroke-width: 2; stroke-linecap: square"/>
   </g>
   <g id="line2d_5">
    <path d="M 179.094234 189.543537 
L 164.825606 197.781533 
" clip-path="url(#pb75966553f)" style="fill: none; stroke: #1f2937; stroke-width: 2; stroke-linecap: square"/>
   </g>
   <g id="line2d_6">
    <path d="M 82.445646 189.543537 
L 96.714274 197.781533 
" clip-path="url(#pb75966553f)" style="fill: none; stroke: #1f2937; stroke-width: 2; stroke-linecap: square"/>
   </g>
   <g id="text_1">
    <!-- a = b = c -->
    <g style="fill: #6b7280" transform="translate(108.647049 297.957657) scale(0.11 -0.11)">
     <defs>
      <path id="SegoeUI-61" d="M 2809 0 
L 2297 0 
L 2297 500 
L 2284 500 
Q 1950 -75 1300 -75 
Q 822 -75 551 178 
Q 281 431 281 850 
Q 281 1747 1338 1894 
L 2297 2028 
Q 2297 2844 1638 2844 
Q 1059 2844 594 2450 
L 594 2975 
Q 1066 3275 1681 3275 
Q 2809 3275 2809 2081 
L 2809 0 
z
M 2297 1619 
L 1525 1513 
Q 1169 1463 987 1336 
Q 806 1209 806 888 
Q 806 653 973 504 
Q 1141 356 1419 356 
Q 1800 356 2048 623 
Q 2297 891 2297 1300 
L 2297 1619 
z
" transform="scale(0.015625)"/>
      <path id="SegoeUI-20" transform="scale(0.015625)"/>
      <path id="SegoeUI-3d" d="M 3663 2325 
L 725 2325 
L 725 2738 
L 3663 2738 
L 3663 2325 
z
M 3663 994 
L 725 994 
L 725 1406 
L 3663 1406 
L 3663 994 
z
" transform="scale(0.015625)"/>
      <path id="SegoeUI-62" d="M 1044 463 
L 1031 463 
L 1031 0 
L 519 0 
L 519 4738 
L 1031 4738 
L 1031 2638 
L 1044 2638 
Q 1422 3275 2150 3275 
Q 2766 3275 3114 2845 
Q 3463 2416 3463 1694 
Q 3463 891 3072 408 
Q 2681 -75 2003 -75 
Q 1369 -75 1044 463 
z
M 1031 1753 
L 1031 1306 
Q 1031 909 1289 632 
Q 1547 356 1944 356 
Q 2409 356 2673 712 
Q 2938 1069 2938 1703 
Q 2938 2238 2691 2541 
Q 2444 2844 2022 2844 
Q 1575 2844 1303 2533 
Q 1031 2222 1031 1753 
z
" transform="scale(0.015625)"/>
      <path id="SegoeUI-63" d="M 2700 147 
Q 2331 -75 1825 -75 
Q 1141 -75 720 370 
Q 300 816 300 1525 
Q 300 2316 753 2795 
Q 1206 3275 1963 3275 
Q 2384 3275 2706 3119 
L 2706 2594 
Q 2350 2844 1944 2844 
Q 1453 2844 1139 2492 
Q 825 2141 825 1569 
Q 825 1006 1120 681 
Q 1416 356 1913 356 
Q 2331 356 2700 634 
L 2700 147 
z
" transform="scale(0.015625)"/>
     </defs>
     <use xlink:href="#SegoeUI-61"/>
     <use xlink:href="#SegoeUI-20" x="50.878906"/>
     <use xlink:href="#SegoeUI-3d" x="78.271484"/>
     <use xlink:href="#SegoeUI-20" x="146.679688"/>
     <use xlink:href="#SegoeUI-62" x="174.072266"/>
     <use xlink:href="#SegoeUI-20" x="232.861328"/>
     <use xlink:href="#SegoeUI-3d" x="260.253906"/>
     <use xlink:href="#SegoeUI-20" x="328.662109"/>
     <use xlink:href="#SegoeUI-63" x="356.054688"/>
    </g>
   </g>
   <g id="text_2">
    <!-- EQUILÁTERO -->
    <g style="fill: #2c2f33" transform="translate(135.995545 35.635273) scale(0.12 -0.12)">
     <defs>
      <path id="SegoeUI-Bold-45" d="M 3200 0 
L 513 0 
L 513 4481 
L 3097 4481 
L 3097 3659 
L 1522 3659 
L 1522 2663 
L 2988 2663 
L 2988 1844 
L 1522 1844 
L 1522 819 
L 3200 819 
L 3200 0 
z
" transform="scale(0.015625)"/>
      <path id="SegoeUI-Bold-51" d="M 2406 -78 
Q 1444 -78 838 547 
Q 231 1178 231 2181 
Q 231 3241 847 3900 
Q 1459 4556 2478 4556 
Q 3438 4556 4028 3928 
Q 4622 3303 4622 2272 
Q 4622 1219 4006 569 
Q 3984 547 3965 526 
Q 3947 506 3925 488 
L 5059 -603 
L 3647 -603 
L 3053 0 
Q 2759 -78 2406 -78 
z
M 2450 3688 
Q 1922 3688 1606 3288 
Q 1294 2891 1294 2234 
Q 1294 1569 1606 1181 
Q 1919 794 2425 794 
Q 2947 794 3253 1169 
Q 3559 1550 3559 2216 
Q 3559 2909 3263 3300 
Q 2969 3688 2450 3688 
z
" transform="scale(0.015625)"/>
      <path id="SegoeUI-Bold-55" d="M 4166 1941 
Q 4166 -78 2284 -78 
Q 459 -78 459 1894 
L 459 4481 
L 1472 4481 
L 1472 1881 
Q 1472 794 2322 794 
Q 3156 794 3156 1844 
L 3156 4481 
L 4166 4481 
L 4166 1941 
z
" transform="scale(0.015625)"/>
      <path id="SegoeUI-Bold-49" d="M 1522 0 
L 513 0 
L 513 4481 
L 1522 4481 
L 1522 0 
z
" transform="scale(0.015625)"/>
      <path id="SegoeUI-Bold-4c" d="M 3181 0 
L 513 0 
L 513 4481 
L 1522 4481 
L 1522 819 
L 3181 819 
L 3181 0 
z
" transform="scale(0.015625)"/>
      <path id="SegoeUI-Bold-c1" d="M 4453 0 
L 3353 0 
L 3034 997 
L 1441 997 
L 1125 0 
L 31 0 
L 1663 4481 
L 2859 4481 
L 4453 0 
z
M 2803 1772 
L 2322 3278 
Q 2269 3447 2247 3681 
L 2222 3681 
Q 2206 3484 2144 3291 
L 1656 1772 
L 2803 1772 
z
M 3239 5932 
L 2260 4922 
L 1548 4922 
L 2360 5932 
L 3239 5932 
z
" transform="scale(0.015625)"/>
      <path id="SegoeUI-Bold-54" d="M 3659 3659 
L 2381 3659 
L 2381 0 
L 1369 0 
L 1369 3659 
L 97 3659 
L 97 4481 
L 3659 4481 
L 3659 3659 
z
" transform="scale(0.015625)"/>
      <path id="SegoeUI-Bold-52" d="M 4272 0 
L 3113 0 
L 2416 1153 
Q 2338 1284 2266 1387 
Q 2194 1491 2120 1564 
Q 2047 1638 1967 1677 
Q 1888 1716 1794 1716 
L 1522 1716 
L 1522 0 
L 513 0 
L 513 4481 
L 2113 4481 
Q 3744 4481 3744 3263 
Q 3744 3028 3672 2829 
Q 3600 2631 3469 2472 
Q 3338 2313 3152 2197 
Q 2966 2081 2738 2016 
L 2738 2003 
Q 2838 1972 2931 1901 
Q 3025 1831 3112 1737 
Q 3200 1644 3279 1536 
Q 3359 1428 3425 1325 
L 4272 0 
z
M 1522 3725 
L 1522 2478 
L 1959 2478 
Q 2284 2478 2481 2666 
Q 2681 2856 2681 3138 
Q 2681 3725 1978 3725 
L 1522 3725 
z
" transform="scale(0.015625)"/>
      <path id="SegoeUI-Bold-4f" d="M 2406 -78 
Q 1444 -78 837 548 
Q 231 1175 231 2181 
Q 231 3244 847 3900 
Q 1463 4556 2478 4556 
Q 3438 4556 4030 3928 
Q 4622 3300 4622 2272 
Q 4622 1216 4008 569 
Q 3394 -78 2406 -78 
z
M 2450 3688 
Q 1919 3688 1606 3289 
Q 1294 2891 1294 2234 
Q 1294 1569 1606 1181 
Q 1919 794 2425 794 
Q 2947 794 3253 1170 
Q 3559 1547 3559 2216 
Q 3559 2913 3262 3300 
Q 2966 3688 2450 3688 
z
" transform="scale(0.015625)"/>
     </defs>
     <use xlink:href="#SegoeUI-Bold-45"/>
     <use xlink:href="#SegoeUI-Bold-51" x="53.222656"/>
     <use xlink:href="#SegoeUI-Bold-55" x="129.052734"/>
     <use xlink:href="#SegoeUI-Bold-49" x="201.367188"/>
     <use xlink:href="#SegoeUI-Bold-4c" x="233.056641"/>
     <use xlink:href="#SegoeUI-Bold-c1" x="284.179688"/>
     <use xlink:href="#SegoeUI-Bold-54" x="347.492188"/>
     <use xlink:href="#SegoeUI-Bold-45" x="406.085938"/>
     <use xlink:href="#SegoeUI-Bold-52" x="459.308594"/>
     <use xlink:href="#SegoeUI-Bold-4f" x="523.591797"/>
    </g>
    <!-- (3 lados iguales) -->
    <g style="fill: #2c2f33" transform="translate(125.938045 49.055773) scale(0.12 -0.12)">
     <defs>
      <path id="SegoeUI-Bold-28" d="M 2309 -1019 
L 1503 -1019 
Q 494 94 494 1716 
Q 494 3281 1503 4481 
L 2303 4481 
Q 1356 3225 1356 1716 
Q 1356 206 2309 -1019 
z
" transform="scale(0.015625)"/>
      <path id="SegoeUI-Bold-33" d="M 366 147 
L 366 1006 
Q 816 678 1416 678 
Q 1794 678 2005 840 
Q 2216 1003 2216 1294 
Q 2216 1594 1955 1756 
Q 1694 1919 1238 1919 
L 822 1919 
L 822 2675 
L 1206 2675 
Q 2081 2675 2081 3256 
Q 2081 3803 1409 3803 
Q 959 3803 534 3513 
L 534 4319 
Q 1006 4556 1634 4556 
Q 2322 4556 2705 4247 
Q 3088 3938 3088 3444 
Q 3088 2566 2197 2344 
L 2197 2328 
Q 2672 2269 2947 1983 
Q 3222 1697 3222 1281 
Q 3222 653 2762 287 
Q 2303 -78 1494 -78 
Q 800 -78 366 147 
z
" transform="scale(0.015625)"/>
      <path id="SegoeUI-Bold-20" transform="scale(0.015625)"/>
      <path id="SegoeUI-Bold-6c" d="M 1403 0 
L 416 0 
L 416 4738 
L 1403 4738 
L 1403 0 
z
" transform="scale(0.015625)"/>
      <path id="SegoeUI-Bold-61" d="M 3078 0 
L 2144 0 
L 2144 459 
L 2131 459 
Q 1809 -78 1178 -78 
Q 713 -78 445 186 
Q 178 450 178 891 
Q 178 1822 1281 1966 
L 2150 2081 
Q 2150 2606 1581 2606 
Q 1009 2606 494 2266 
L 494 3009 
Q 700 3116 1058 3197 
Q 1416 3278 1709 3278 
Q 3078 3278 3078 1913 
L 3078 0 
z
M 2150 1300 
L 2150 1516 
L 1569 1441 
Q 1088 1378 1088 1006 
Q 1088 838 1205 730 
Q 1322 622 1522 622 
Q 1800 622 1975 814 
Q 2150 1006 2150 1300 
z
" transform="scale(0.015625)"/>
      <path id="SegoeUI-Bold-64" d="M 3547 0 
L 2559 0 
L 2559 441 
L 2547 441 
Q 2209 -78 1556 -78 
Q 956 -78 590 345 
Q 225 769 225 1528 
Q 225 2322 628 2800 
Q 1031 3278 1684 3278 
Q 2303 3278 2547 2834 
L 2559 2834 
L 2559 4738 
L 3547 4738 
L 3547 0 
z
M 2578 1556 
L 2578 1797 
Q 2578 2109 2397 2315 
Q 2216 2522 1925 2522 
Q 1597 2522 1412 2264 
Q 1228 2006 1228 1556 
Q 1228 1134 1406 906 
Q 1584 678 1900 678 
Q 2200 678 2389 918 
Q 2578 1159 2578 1556 
z
" transform="scale(0.015625)"/>
      <path id="SegoeUI-Bold-6f" d="M 1941 -78 
Q 1141 -78 683 370 
Q 225 819 225 1588 
Q 225 2381 700 2829 
Q 1175 3278 1984 3278 
Q 2781 3278 3234 2829 
Q 3688 2381 3688 1644 
Q 3688 847 3220 384 
Q 2753 -78 1941 -78 
z
M 1966 2522 
Q 1616 2522 1422 2281 
Q 1228 2041 1228 1600 
Q 1228 678 1972 678 
Q 2681 678 2681 1625 
Q 2681 2522 1966 2522 
z
" transform="scale(0.015625)"/>
      <path id="SegoeUI-Bold-73" d="M 206 84 
L 206 884 
Q 450 738 692 666 
Q 934 594 1150 594 
Q 1413 594 1564 666 
Q 1716 738 1716 884 
Q 1716 978 1647 1040 
Q 1578 1103 1470 1150 
Q 1363 1197 1234 1234 
Q 1106 1272 988 1319 
Q 797 1391 651 1473 
Q 506 1556 407 1665 
Q 309 1775 257 1919 
Q 206 2063 206 2259 
Q 206 2528 323 2722 
Q 441 2916 636 3039 
Q 831 3163 1082 3220 
Q 1334 3278 1606 3278 
Q 1819 3278 2037 3245 
Q 2256 3213 2469 3150 
L 2469 2388 
Q 2281 2497 2067 2551 
Q 1853 2606 1647 2606 
Q 1550 2606 1464 2589 
Q 1378 2572 1312 2539 
Q 1247 2506 1209 2454 
Q 1172 2403 1172 2338 
Q 1172 2250 1228 2187 
Q 1284 2125 1375 2079 
Q 1466 2034 1577 1998 
Q 1688 1963 1797 1925 
Q 1994 1856 2153 1775 
Q 2313 1694 2427 1584 
Q 2541 1475 2602 1328 
Q 2663 1181 2663 978 
Q 2663 694 2539 492 
Q 2416 291 2211 164 
Q 2006 38 1739 -20 
Q 1472 -78 1184 -78 
Q 656 -78 206 84 
z
" transform="scale(0.015625)"/>
      <path id="SegoeUI-Bold-69" d="M 916 3706 
Q 666 3706 506 3854 
Q 347 4003 347 4219 
Q 347 4441 506 4581 
Q 666 4722 916 4722 
Q 1169 4722 1326 4581 
Q 1484 4441 1484 4219 
Q 1484 3994 1326 3850 
Q 1169 3706 916 3706 
z
M 1403 0 
L 416 0 
L 416 3200 
L 1403 3200 
L 1403 0 
z
" transform="scale(0.015625)"/>
      <path id="SegoeUI-Bold-67" d="M 3553 366 
Q 3553 -525 3037 -1014 
Q 2522 -1503 1544 -1503 
Q 897 -1503 519 -1319 
L 519 -488 
Q 1013 -775 1516 -775 
Q 2016 -775 2291 -511 
Q 2566 -247 2566 206 
L 2566 459 
L 2553 459 
Q 2216 -78 1556 -78 
Q 944 -78 584 353 
Q 225 784 225 1509 
Q 225 2322 625 2800 
Q 1025 3278 1678 3278 
Q 2263 3278 2553 2828 
L 2566 2828 
L 2566 3200 
L 3553 3200 
L 3553 366 
z
M 2578 1538 
L 2578 1791 
Q 2578 2094 2398 2308 
Q 2219 2522 1931 2522 
Q 1603 2522 1415 2265 
Q 1228 2009 1228 1544 
Q 1228 1144 1406 911 
Q 1584 678 1894 678 
Q 2200 678 2389 914 
Q 2578 1150 2578 1538 
z
" transform="scale(0.015625)"/>
      <path id="SegoeUI-Bold-75" d="M 3456 0 
L 2472 0 
L 2472 488 
L 2456 488 
Q 2091 -78 1478 -78 
Q 366 -78 366 1269 
L 366 3200 
L 1350 3200 
L 1350 1356 
Q 1350 678 1888 678 
Q 2153 678 2312 864 
Q 2472 1050 2472 1369 
L 2472 3200 
L 3456 3200 
L 3456 0 
z
" transform="scale(0.015625)"/>
      <path id="SegoeUI-Bold-65" d="M 3291 1319 
L 1203 1319 
Q 1253 622 2081 622 
Q 2609 622 3009 872 
L 3009 159 
Q 2566 -78 1856 -78 
Q 1081 -78 653 351 
Q 225 781 225 1550 
Q 225 2347 687 2812 
Q 1150 3278 1825 3278 
Q 2525 3278 2908 2862 
Q 3291 2447 3291 1734 
L 3291 1319 
z
M 2375 1925 
Q 2375 2613 1819 2613 
Q 1581 2613 1407 2416 
Q 1234 2219 1197 1925 
L 2375 1925 
z
" transform="scale(0.015625)"/>
      <path id="SegoeUI-Bold-29" d="M 856 -1019 
L 56 -1019 
Q 1013 200 1013 1716 
Q 1013 3219 56 4481 
L 863 4481 
Q 1875 3278 1875 1716 
Q 1875 106 856 -1019 
z
" transform="scale(0.015625)"/>
     </defs>
     <use xlink:href="#SegoeUI-Bold-28"/>
     <use xlink:href="#SegoeUI-Bold-33" x="36.914062"/>
     <use xlink:href="#SegoeUI-Bold-20" x="94.433594"/>
     <use xlink:href="#SegoeUI-Bold-6c" x="122.021484"/>
     <use xlink:href="#SegoeUI-Bold-61" x="150.439453"/>
     <use xlink:href="#SegoeUI-Bold-64" x="204.248047"/>
     <use xlink:href="#SegoeUI-Bold-6f" x="266.162109"/>
     <use xlink:href="#SegoeUI-Bold-73" x="327.294922"/>
     <use xlink:href="#SegoeUI-Bold-20" x="371.289062"/>
     <use xlink:href="#SegoeUI-Bold-69" x="398.876953"/>
     <use xlink:href="#SegoeUI-Bold-67" x="427.294922"/>
     <use xlink:href="#SegoeUI-Bold-75" x="489.208984"/>
     <use xlink:href="#SegoeUI-Bold-61" x="549.707031"/>
     <use xlink:href="#SegoeUI-Bold-6c" x="603.515625"/>
     <use xlink:href="#SegoeUI-Bold-65" x="631.933594"/>
     <use xlink:href="#SegoeUI-Bold-73" x="686.035156"/>
     <use xlink:href="#SegoeUI-Bold-29" x="730.029297"/>
    </g>
   </g>
  </g>
  <g id="axes_2">
   <g id="patch_4">
    <path d="M 384.62982 265.005673 
L 590.57972 265.005673 
L 487.60477 100.245753 
L 384.62982 265.005673 
z
" clip-path="url(#pbc94f4d2a5)" style="fill: none; stroke: #39c5bb; stroke-width: 2.5; stroke-linejoin: miter"/>
   </g>
   <g id="patch_5">
    <path d="M 384.62982 265.005673 
L 590.57972 265.005673 
L 487.60477 100.245753 
z
" clip-path="url(#pbc94f4d2a5)" style="fill: #39c5bb; opacity: 0.1"/>
   </g>
   <g id="line2d_7">
    <g clip-path="url(#pbc94f4d2a5)">
     <use xlink:href="#mc162dd9728" x="384.62982" y="265.005673" style="fill: #e12885; stroke: #e12885"/>
    </g>
   </g>
   <g id="line2d_8">
    <g clip-path="url(#pbc94f4d2a5)">
     <use xlink:href="#mc162dd9728" x="590.57972" y="265.005673" style="fill: #e12885; stroke: #e12885"/>
    </g>
   </g>
   <g id="line2d_9">
    <g clip-path="url(#pbc94f4d2a5)">
     <use xlink:href="#mc162dd9728" x="487.60477" y="100.245753" style="fill: #e12885; stroke: #e12885"/>
    </g>
   </g>
   <g id="line2d_10">
    <path d="M 547.824503 181.053907 
L 533.85289 189.786165 
" clip-path="url(#pbc94f4d2a5)" style="fill: none; stroke: #1f2937; stroke-width: 2; stroke-linecap: square"/>
   </g>
   <g id="line2d_11">
    <path d="M 544.3316 175.465261 
L 530.359987 184.197519 
" clip-path="url(#pbc94f4d2a5)" style="fill: none; stroke: #1f2937; stroke-width: 2; stroke-linecap: square"/>
   </g>
   <g id="line2d_12">
    <path d="M 430.87794 175.465261 
L 444.849553 184.197519 
" clip-path="url(#pbc94f4d2a5)" style="fill: none; stroke: #1f2937; stroke-width: 2; stroke-linecap: square"/>
   </g>
   <g id="line2d_13">
    <path d="M 427.385037 181.053907 
L 441.35665 189.786165 
" clip-path="url(#pbc94f4d2a5)" style="fill: none; stroke: #1f2937; stroke-width: 2; stroke-linecap: square"/>
   </g>
   <g id="text_3">
    <!-- a = b ≠ c -->
    <g style="fill: #6b7280" transform="translate(465.476723 297.957657) scale(0.11 -0.11)">
     <defs>
      <path id="SegoeUI-2260" d="M 3663 994 
L 1944 994 
L 1434 0 
L 994 0 
L 1506 994 
L 725 994 
L 725 1406 
L 1722 1406 
L 2188 2325 
L 725 2325 
L 725 2738 
L 2406 2738 
L 2900 3713 
L 3341 3713 
L 2844 2738 
L 3663 2738 
L 3663 2325 
L 2631 2325 
L 2156 1406 
L 3663 1406 
L 3663 994 
z
" transform="scale(0.015625)"/>
     </defs>
     <use xlink:href="#SegoeUI-61"/>
     <use xlink:href="#SegoeUI-20" x="50.878906"/>
     <use xlink:href="#SegoeUI-3d" x="78.271484"/>
     <use xlink:href="#SegoeUI-20" x="146.679688"/>
     <use xlink:href="#SegoeUI-62" x="174.072266"/>
     <use xlink:href="#SegoeUI-20" x="232.861328"/>
     <use xlink:href="#SegoeUI-2260" x="260.253906"/>
     <use xlink:href="#SegoeUI-20" x="328.759766"/>
     <use xlink:href="#SegoeUI-63" x="356.152344"/>
    </g>
   </g>
   <g id="text_4">
    <!-- ISÓSCELES -->
    <g style="fill: #2c2f33" transform="translate(478.46226 35.635273) scale(0.12 -0.12)">
     <defs>
      <path id="SegoeUI-Bold-53" d="M 306 172 
L 306 1172 
Q 578 944 897 830 
Q 1216 716 1541 716 
Q 1731 716 1873 750 
Q 2016 784 2111 845 
Q 2206 906 2253 989 
Q 2300 1072 2300 1169 
Q 2300 1300 2225 1403 
Q 2150 1506 2020 1593 
Q 1891 1681 1712 1762 
Q 1534 1844 1328 1928 
Q 803 2147 545 2462 
Q 288 2778 288 3225 
Q 288 3575 428 3826 
Q 569 4078 811 4240 
Q 1053 4403 1372 4479 
Q 1691 4556 2047 4556 
Q 2397 4556 2667 4514 
Q 2938 4472 3166 4384 
L 3166 3450 
Q 3053 3528 2920 3587 
Q 2788 3647 2647 3686 
Q 2506 3725 2367 3744 
Q 2228 3763 2103 3763 
Q 1931 3763 1790 3730 
Q 1650 3697 1553 3637 
Q 1456 3578 1403 3495 
Q 1350 3413 1350 3309 
Q 1350 3197 1409 3108 
Q 1469 3019 1578 2939 
Q 1688 2859 1844 2782 
Q 2000 2706 2197 2625 
Q 2466 2513 2680 2386 
Q 2894 2259 3047 2100 
Q 3200 1941 3281 1736 
Q 3363 1531 3363 1259 
Q 3363 884 3220 629 
Q 3078 375 2834 217 
Q 2591 59 2267 -9 
Q 1944 -78 1584 -78 
Q 1216 -78 883 -15 
Q 550 47 306 172 
z
" transform="scale(0.015625)"/>
      <path id="SegoeUI-Bold-d3" d="M 2406 -78 
Q 1444 -78 837 548 
Q 231 1175 231 2181 
Q 231 3244 847 3900 
Q 1463 4556 2478 4556 
Q 3438 4556 4030 3928 
Q 4622 3300 4622 2272 
Q 4622 1216 4008 569 
Q 3394 -78 2406 -78 
z
M 2450 3688 
Q 1919 3688 1606 3289 
Q 1294 2891 1294 2234 
Q 1294 1569 1606 1181 
Q 1919 794 2425 794 
Q 2947 794 3253 1170 
Q 3559 1547 3559 2216 
Q 3559 2913 3262 3300 
Q 2966 3688 2450 3688 
z
M 3471 5932 
L 2492 4922 
L 1780 4922 
L 2592 5932 
L 3471 5932 
z
" transform="scale(0.015625)"/>
      <path id="SegoeUI-Bold-43" d="M 3725 159 
Q 3234 -78 2444 -78 
Q 1413 -78 822 528 
Q 231 1134 231 2144 
Q 231 3219 895 3887 
Q 1559 4556 2619 4556 
Q 3275 4556 3725 4391 
L 3725 3419 
Q 3275 3688 2700 3688 
Q 2069 3688 1681 3291 
Q 1294 2894 1294 2216 
Q 1294 1566 1659 1180 
Q 2025 794 2644 794 
Q 3234 794 3725 1081 
L 3725 159 
z
" transform="scale(0.015625)"/>
     </defs>
     <use xlink:href="#SegoeUI-Bold-49"/>
     <use xlink:href="#SegoeUI-Bold-53" x="31.689453"/>
     <use xlink:href="#SegoeUI-Bold-d3" x="87.744141"/>
     <use xlink:href="#SegoeUI-Bold-53" x="163.525391"/>
     <use xlink:href="#SegoeUI-Bold-43" x="219.580078"/>
     <use xlink:href="#SegoeUI-Bold-45" x="281.982422"/>
     <use xlink:href="#SegoeUI-Bold-4c" x="335.205078"/>
     <use xlink:href="#SegoeUI-Bold-45" x="386.328125"/>
     <use xlink:href="#SegoeUI-Bold-53" x="439.550781"/>
    </g>
    <!-- (2 lados iguales) -->
    <g style="fill: #2c2f33" transform="translate(462.177885 49.055773) scale(0.12 -0.12)">
     <defs>
      <path id="SegoeUI-Bold-32" d="M 1341 819 
L 3241 819 
L 3241 0 
L 259 0 
L 259 338 
Q 259 681 375 954 
Q 491 1228 666 1445 
Q 841 1663 1048 1830 
Q 1256 1997 1444 2131 
Q 1641 2272 1789 2400 
Q 1938 2528 2039 2654 
Q 2141 2781 2191 2911 
Q 2241 3041 2241 3188 
Q 2241 3475 2078 3622 
Q 1916 3769 1581 3769 
Q 1003 3769 475 3309 
L 475 4178 
Q 1059 4556 1794 4556 
Q 2134 4556 2404 4467 
Q 2675 4378 2862 4212 
Q 3050 4047 3148 3811 
Q 3247 3575 3247 3284 
Q 3247 2975 3151 2734 
Q 3056 2494 2898 2297 
Q 2741 2100 2534 1936 
Q 2328 1772 2106 1619 
Q 1956 1513 1817 1408 
Q 1678 1303 1572 1201 
Q 1466 1100 1403 1003 
Q 1341 906 1341 819 
z
" transform="scale(0.015625)"/>
     </defs>
     <use xlink:href="#SegoeUI-Bold-28"/>
     <use xlink:href="#SegoeUI-Bold-32" x="36.914062"/>
     <use xlink:href="#SegoeUI-Bold-20" x="94.433594"/>
     <use xlink:href="#SegoeUI-Bold-6c" x="122.021484"/>
     <use xlink:href="#SegoeUI-Bold-61" x="150.439453"/>
     <use xlink:href="#SegoeUI-Bold-64" x="204.248047"/>
     <use xlink:href="#SegoeUI-Bold-6f" x="266.162109"/>
     <use xlink:href="#SegoeUI-Bold-73" x="327.294922"/>
     <use xlink:href="#SegoeUI-Bold-20" x="371.289062"/>
     <use xlink:href="#SegoeUI-Bold-69" x="398.876953"/>
     <use xlink:href="#SegoeUI-Bold-67" x="427.294922"/>
     <use xlink:href="#SegoeUI-Bold-75" x="489.208984"/>
     <use xlink:href="#SegoeUI-Bold-61" x="549.707031"/>
     <use xlink:href="#SegoeUI-Bold-6c" x="603.515625"/>
     <use xlink:href="#SegoeUI-Bold-65" x="631.933594"/>
     <use xlink:href="#SegoeUI-Bold-73" x="686.035156"/>
     <use xlink:href="#SegoeUI-Bold-29" x="730.029297"/>
    </g>
   </g>
  </g>
  <g id="axes_3">
   <g id="patch_6">
    <path d="M 720.86966 265.005673 
L 968.00954 265.005673 
L 803.24962 116.721745 
L 720.86966 265.005673 
z
" clip-path="url(#p11fb28fc88)" style="fill: none; stroke: #39c5bb; stroke-width: 2.5; stroke-linejoin: miter"/>
   </g>
   <g id="patch_7">
    <path d="M 720.86966 265.005673 
L 968.00954 265.005673 
L 803.24962 116.721745 
z
" clip-path="url(#p11fb28fc88)" style="fill: #39c5bb; opacity: 0.1"/>
   </g>
   <g id="line2d_14">
    <g clip-path="url(#p11fb28fc88)">
     <use xlink:href="#mc162dd9728" x="720.86966" y="265.005673" style="fill: #e12885; stroke: #e12885"/>
    </g>
   </g>
   <g id="line2d_15">
    <g clip-path="url(#p11fb28fc88)">
     <use xlink:href="#mc162dd9728" x="968.00954" y="265.005673" style="fill: #e12885; stroke: #e12885"/>
    </g>
   </g>
   <g id="line2d_16">
    <g clip-path="url(#p11fb28fc88)">
     <use xlink:href="#mc162dd9728" x="803.24962" y="116.721745" style="fill: #e12885; stroke: #e12885"/>
    </g>
   </g>
   <g id="text_5">
    <!-- a ≠ b ≠ c -->
    <g style="fill: #6b7280" transform="translate(822.306397 297.957657) scale(0.11 -0.11)">
     <use xlink:href="#SegoeUI-61"/>
     <use xlink:href="#SegoeUI-20" x="50.878906"/>
     <use xlink:href="#SegoeUI-2260" x="78.271484"/>
     <use xlink:href="#SegoeUI-20" x="146.777344"/>
     <use xlink:href="#SegoeUI-62" x="174.169922"/>
     <use xlink:href="#SegoeUI-20" x="232.958984"/>
     <use xlink:href="#SegoeUI-2260" x="260.351562"/>
     <use xlink:href="#SegoeUI-20" x="328.857422"/>
     <use xlink:href="#SegoeUI-63" x="356.25"/>
    </g>
   </g>
   <g id="text_6">
    <!-- ESCALENO -->
    <g style="fill: #2c2f33" transform="translate(814.369287 35.635273) scale(0.12 -0.12)">
     <defs>
      <path id="SegoeUI-Bold-41" d="M 4453 0 
L 3353 0 
L 3034 997 
L 1441 997 
L 1125 0 
L 31 0 
L 1663 4481 
L 2859 4481 
L 4453 0 
z
M 2803 1772 
L 2322 3278 
Q 2269 3447 2247 3681 
L 2222 3681 
Q 2206 3484 2144 3291 
L 1656 1772 
L 2803 1772 
z
" transform="scale(0.015625)"/>
      <path id="SegoeUI-Bold-4e" d="M 4544 0 
L 3525 0 
L 1678 2816 
Q 1516 3063 1453 3188 
L 1441 3188 
Q 1466 2950 1466 2463 
L 1466 0 
L 513 0 
L 513 4481 
L 1600 4481 
L 3378 1753 
Q 3500 1569 3603 1388 
L 3616 1388 
Q 3591 1544 3591 2003 
L 3591 4481 
L 4544 4481 
L 4544 0 
z
" transform="scale(0.015625)"/>
     </defs>
     <use xlink:href="#SegoeUI-Bold-45"/>
     <use xlink:href="#SegoeUI-Bold-53" x="53.222656"/>
     <use xlink:href="#SegoeUI-Bold-43" x="109.277344"/>
     <use xlink:href="#SegoeUI-Bold-41" x="171.679688"/>
     <use xlink:href="#SegoeUI-Bold-4c" x="241.992188"/>
     <use xlink:href="#SegoeUI-Bold-45" x="293.115234"/>
     <use xlink:href="#SegoeUI-Bold-4e" x="346.337891"/>
     <use xlink:href="#SegoeUI-Bold-4f" x="425.341797"/>
    </g>
    <!-- (3 lados diferentes) -->
    <g style="fill: #2c2f33" transform="translate(789.88085 49.055773) scale(0.12 -0.12)">
     <defs>
      <path id="SegoeUI-Bold-66" d="M 2503 3981 
Q 2313 4056 2138 4056 
Q 1663 4056 1663 3541 
L 1663 3200 
L 2394 3200 
L 2394 2472 
L 1663 2472 
L 1663 0 
L 678 0 
L 678 2472 
L 141 2472 
L 141 3200 
L 678 3200 
L 678 3597 
Q 678 4144 1034 4478 
Q 1391 4813 2003 4813 
Q 2303 4813 2503 4750 
L 2503 3981 
z
" transform="scale(0.015625)"/>
      <path id="SegoeUI-Bold-72" d="M 2503 2309 
Q 2325 2406 2088 2406 
Q 1766 2406 1584 2170 
Q 1403 1934 1403 1528 
L 1403 0 
L 416 0 
L 416 3200 
L 1403 3200 
L 1403 2606 
L 1416 2606 
Q 1650 3256 2259 3256 
Q 2416 3256 2503 3219 
L 2503 2309 
z
" transform="scale(0.015625)"/>
      <path id="SegoeUI-Bold-6e" d="M 3506 0 
L 2522 0 
L 2522 1778 
Q 2522 2522 1991 2522 
Q 1734 2522 1568 2325 
Q 1403 2128 1403 1825 
L 1403 0 
L 416 0 
L 416 3200 
L 1403 3200 
L 1403 2694 
L 1416 2694 
Q 1769 3278 2444 3278 
Q 3506 3278 3506 1959 
L 3506 0 
z
" transform="scale(0.015625)"/>
      <path id="SegoeUI-Bold-74" d="M 2350 38 
Q 2131 -78 1691 -78 
Q 647 -78 647 1006 
L 647 2472 
L 128 2472 
L 128 3200 
L 647 3200 
L 647 3891 
L 1631 4172 
L 1631 3200 
L 2350 3200 
L 2350 2472 
L 1631 2472 
L 1631 1178 
Q 1631 678 2028 678 
Q 2184 678 2350 769 
L 2350 38 
z
" transform="scale(0.015625)"/>
     </defs>
     <use xlink:href="#SegoeUI-Bold-28"/>
     <use xlink:href="#SegoeUI-Bold-33" x="36.914062"/>
     <use xlink:href="#SegoeUI-Bold-20" x="94.433594"/>
     <use xlink:href="#SegoeUI-Bold-6c" x="122.021484"/>
     <use xlink:href="#SegoeUI-Bold-61" x="150.439453"/>
     <use xlink:href="#SegoeUI-Bold-64" x="204.248047"/>
     <use xlink:href="#SegoeUI-Bold-6f" x="266.162109"/>
     <use xlink:href="#SegoeUI-Bold-73" x="327.294922"/>
     <use xlink:href="#SegoeUI-Bold-20" x="371.289062"/>
     <use xlink:href="#SegoeUI-Bold-64" x="398.876953"/>
     <use xlink:href="#SegoeUI-Bold-69" x="460.791016"/>
     <use xlink:href="#SegoeUI-Bold-66" x="489.208984"/>
     <use xlink:href="#SegoeUI-Bold-65" x="527.539062"/>
     <use xlink:href="#SegoeUI-Bold-72" x="581.640625"/>
     <use xlink:href="#SegoeUI-Bold-65" x="621.060547"/>
     <use xlink:href="#SegoeUI-Bold-6e" x="675.162109"/>
     <use xlink:href="#SegoeUI-Bold-74" x="735.660156"/>
     <use xlink:href="#SegoeUI-Bold-65" x="774.201172"/>
     <use xlink:href="#SegoeUI-Bold-73" x="828.302734"/>
     <use xlink:href="#SegoeUI-Bold-29" x="872.296875"/>
    </g>
   </g>
  </g>
  <g id="text_7">
   <!-- Clasificación de Triángulos por Lados -->
   <g style="fill: #2c2f33" transform="translate(386.751948 17.728437) scale(0.14 -0.14)">
    <defs>
     <path id="SegoeUI-Bold-63" d="M 2841 116 
Q 2506 -78 1875 -78 
Q 1138 -78 681 369 
Q 225 816 225 1522 
Q 225 2338 714 2808 
Q 1203 3278 2022 3278 
Q 2588 3278 2841 3128 
L 2841 2291 
Q 2531 2522 2150 2522 
Q 1725 2522 1476 2273 
Q 1228 2025 1228 1588 
Q 1228 1163 1465 920 
Q 1703 678 2119 678 
Q 2488 678 2841 909 
L 2841 116 
z
" transform="scale(0.015625)"/>
     <path id="SegoeUI-Bold-f3" d="M 1941 -78 
Q 1141 -78 683 370 
Q 225 819 225 1588 
Q 225 2381 700 2829 
Q 1175 3278 1984 3278 
Q 2781 3278 3234 2829 
Q 3688 2381 3688 1644 
Q 3688 847 3220 384 
Q 2753 -78 1941 -78 
z
M 1966 2522 
Q 1616 2522 1422 2281 
Q 1228 2041 1228 1600 
Q 1228 678 1972 678 
Q 2681 678 2681 1625 
Q 2681 2522 1966 2522 
z
M 3023 4716 
L 2044 3706 
L 1332 3706 
L 2144 4716 
L 3023 4716 
z
" transform="scale(0.015625)"/>
     <path id="SegoeUI-Bold-e1" d="M 3078 0 
L 2144 0 
L 2144 459 
L 2131 459 
Q 1809 -78 1178 -78 
Q 713 -78 445 186 
Q 178 450 178 891 
Q 178 1822 1281 1966 
L 2150 2081 
Q 2150 2606 1581 2606 
Q 1009 2606 494 2266 
L 494 3009 
Q 700 3116 1058 3197 
Q 1416 3278 1709 3278 
Q 3078 3278 3078 1913 
L 3078 0 
z
M 2150 1300 
L 2150 1516 
L 1569 1441 
Q 1088 1378 1088 1006 
Q 1088 838 1205 730 
Q 1322 622 1522 622 
Q 1800 622 1975 814 
Q 2150 1006 2150 1300 
z
M 2783 4716 
L 1804 3706 
L 1092 3706 
L 1904 4716 
L 2783 4716 
z
" transform="scale(0.015625)"/>
     <path id="SegoeUI-Bold-70" d="M 1416 372 
L 1403 372 
L 1403 -1472 
L 416 -1472 
L 416 3200 
L 1403 3200 
L 1403 2719 
L 1416 2719 
Q 1781 3278 2444 3278 
Q 3066 3278 3405 2851 
Q 3744 2425 3744 1691 
Q 3744 891 3348 406 
Q 2953 -78 2297 -78 
Q 1719 -78 1416 372 
z
M 1388 1684 
L 1388 1428 
Q 1388 1097 1563 887 
Q 1738 678 2022 678 
Q 2359 678 2545 939 
Q 2731 1200 2731 1678 
Q 2731 2522 2075 2522 
Q 1772 2522 1580 2292 
Q 1388 2063 1388 1684 
z
" transform="scale(0.015625)"/>
    </defs>
    <use xlink:href="#SegoeUI-Bold-43"/>
    <use xlink:href="#SegoeUI-Bold-6c" x="62.402344"/>
    <use xlink:href="#SegoeUI-Bold-61" x="90.820312"/>
    <use xlink:href="#SegoeUI-Bold-73" x="144.628906"/>
    <use xlink:href="#SegoeUI-Bold-69" x="188.623047"/>
    <use xlink:href="#SegoeUI-Bold-66" x="217.041016"/>
    <use xlink:href="#SegoeUI-Bold-69" x="255.371094"/>
    <use xlink:href="#SegoeUI-Bold-63" x="283.789062"/>
    <use xlink:href="#SegoeUI-Bold-61" x="331.787109"/>
    <use xlink:href="#SegoeUI-Bold-63" x="385.595703"/>
    <use xlink:href="#SegoeUI-Bold-69" x="433.59375"/>
    <use xlink:href="#SegoeUI-Bold-f3" x="462.011719"/>
    <use xlink:href="#SegoeUI-Bold-6e" x="523.095703"/>
    <use xlink:href="#SegoeUI-Bold-20" x="583.59375"/>
    <use xlink:href="#SegoeUI-Bold-64" x="611.181641"/>
    <use xlink:href="#SegoeUI-Bold-65" x="673.095703"/>
    <use xlink:href="#SegoeUI-Bold-20" x="727.197266"/>
    <use xlink:href="#SegoeUI-Bold-54" x="754.785156"/>
    <use xlink:href="#SegoeUI-Bold-72" x="805.878906"/>
    <use xlink:href="#SegoeUI-Bold-69" x="846.048828"/>
    <use xlink:href="#SegoeUI-Bold-e1" x="874.466797"/>
    <use xlink:href="#SegoeUI-Bold-6e" x="928.275391"/>
    <use xlink:href="#SegoeUI-Bold-67" x="988.773438"/>
    <use xlink:href="#SegoeUI-Bold-75" x="1050.6875"/>
    <use xlink:href="#SegoeUI-Bold-6c" x="1111.185547"/>
    <use xlink:href="#SegoeUI-Bold-6f" x="1139.603516"/>
    <use xlink:href="#SegoeUI-Bold-73" x="1200.736328"/>
    <use xlink:href="#SegoeUI-Bold-20" x="1244.730469"/>
    <use xlink:href="#SegoeUI-Bold-70" x="1272.318359"/>
    <use xlink:href="#SegoeUI-Bold-6f" x="1334.330078"/>
    <use xlink:href="#SegoeUI-Bold-72" x="1395.462891"/>
    <use xlink:href="#SegoeUI-Bold-20" x="1435.257812"/>
    <use xlink:href="#SegoeUI-Bold-4c" x="1462.845703"/>
    <use xlink:href="#SegoeUI-Bold-61" x="1513.96875"/>
    <use xlink:href="#SegoeUI-Bold-64" x="1567.777344"/>
    <use xlink:href="#SegoeUI-Bold-6f" x="1629.691406"/>
    <use xlink:href="#SegoeUI-Bold-73" x="1690.824219"/>
   </g>
  </g>
 </g>
 <defs>
  <clipPath id="pb75966553f">
   <rect x="7.2" y="59.055773" width="329.51984" height="271.853868"/>
  </clipPath>
  <clipPath id="pbc94f4d2a5">
   <rect x="343.43984" y="59.055773" width="329.51984" height="271.853868"/>
  </clipPath>
  <clipPath id="p11fb28fc88">
   <rect x="679.67968" y="59.055773" width="329.51984" height="271.853868"/>
  </clipPath>
 </defs>
</svg>
