<?xml version="1.0" encoding="utf-8" standalone="no"?>
<!DOCTYPE svg PUBLIC "-//W3C//DTD SVG 1.1//EN"
  "http://www.w3.org/Graphics/SVG/1.1/DTD/svg11.dtd">
<svg xmlns:xlink="http://www.w3.org/1999/xlink" width="1002.011368pt" height="584.39952pt" viewBox="0 0 1002.011368 584.39952" xmlns="http://www.w3.org/2000/svg" version="1.1">
 <metadata>
  <rdf:RDF xmlns:dc="http://purl.org/dc/elements/1.1/" xmlns:cc="http://creativecommons.org/ns#" xmlns:rdf="http://www.w3.org/1999/02/22-rdf-syntax-ns#">
   <cc:Work>
    <dc:type rdf:resource="http://purl.org/dc/dcmitype/StillImage"/>
    <dc:date>2026-04-11T16:11:55.920054</dc:date>
    <dc:format>image/svg+xml</dc:format>
    <dc:creator>
     <cc:Agent>
      <dc:title>Matplotlib v3.8.4, https://matplotlib.org/</dc:title>
     </cc:Agent>
    </dc:creator>
   </cc:Work>
  </rdf:RDF>
 </metadata>
 <defs>
  <style type="text/css">*{stroke-linejoin: round; stroke-linecap: butt}</style>
 </defs>
 <g id="figure_1">
  <g id="patch_1">
   <path d="M 0 584.39952 
L 1002.011368 584.39952 
L 1002.011368 0 
L 0 0 
z
" style="fill: #ffffff"/>
  </g>
  <g id="patch_2">
   <path d="M 7.2 577.19952 
L 539.403415 577.19952 
L 539.403415 44.996105 
L 7.2 44.996105 
z
" style="fill: #ffffff"/>
  </g>
  <g id="pane3d_1">
   <g id="patch_3">
    <path d="M 242.581951 346.423818 
L 508.703031 413.323916 
L 516.045102 162.556597 
L 241.434929 108.577738 
" style="fill: none; opacity: 0.5; stroke: #f2f2f2; stroke-linejoin: miter"/>
   </g>
  </g>
  <g id="pane3d_2">
   <g id="patch_4">
    <path d="M 242.581951 346.423818 
L 46.12306 444.546537 
L 38.372463 187.817636 
L 241.434929 108.577738 
" style="fill: none; opacity: 0.5; stroke: #e6e6e6; stroke-linejoin: miter"/>
   </g>
  </g>
  <g id="pane3d_3">
   <g id="patch_5">
    <path d="M 242.581951 346.423818 
L 46.12306 444.546537 
L 324.600797 524.480651 
L 508.703031 413.323916 
" style="fill: none; opacity: 0.5; stroke: #ececec; stroke-linejoin: miter"/>
   </g>
  </g>
  <g id="grid3d_1">
   <g id="Line3DCollection_1">
    <path d="M 489.019614 425.208315 
L 221.473173 356.96674 
L 219.669697 117.07106 
" style="fill: none; stroke: #b0b0b0; stroke-width: 0.8"/>
    <path d="M 455.535835 445.425058 
L 185.622257 374.872722 
L 182.674641 131.507427 
" style="fill: none; stroke: #b0b0b0; stroke-width: 0.8"/>
    <path d="M 420.87288 466.35376 
L 148.584985 393.371237 
L 144.416684 146.43661 
" style="fill: none; stroke: #b0b0b0; stroke-width: 0.8"/>
    <path d="M 384.967344 488.032705 
L 110.301481 412.492191 
L 104.830035 161.88428 
" style="fill: none; stroke: #b0b0b0; stroke-width: 0.8"/>
    <path d="M 347.751192 510.50297 
L 70.707768 432.267539 
L 63.844253 177.877926 
" style="fill: none; stroke: #b0b0b0; stroke-width: 0.8"/>
   </g>
  </g>
  <g id="grid3d_2">
   <g id="Line3DCollection_2">
    <path d="M 271.59976 114.5071 
L 271.862708 353.784699 
L 76.612521 453.298217 
" style="fill: none; stroke: #b0b0b0; stroke-width: 0.8"/>
    <path d="M 322.461386 124.504736 
L 321.206579 366.189239 
L 128.077373 468.070663 
" style="fill: none; stroke: #b0b0b0; stroke-width: 0.8"/>
    <path d="M 374.52277 134.738203 
L 371.679207 378.877538 
L 180.828971 483.212456 
" style="fill: none; stroke: #b0b0b0; stroke-width: 0.8"/>
    <path d="M 427.82687 145.215945 
L 423.319771 391.859444 
L 234.916185 498.737624 
" style="fill: none; stroke: #b0b0b0; stroke-width: 0.8"/>
    <path d="M 482.41872 155.946813 
L 476.169284 405.145267 
L 290.39039 514.660912 
" style="fill: none; stroke: #b0b0b0; stroke-width: 0.8"/>
   </g>
  </g>
  <g id="grid3d_3">
   <g id="Line3DCollection_3">
    <path d="M 45.972914 439.573139 
L 242.559671 341.803878 
L 508.845385 408.461865 
" style="fill: none; stroke: #b0b0b0; stroke-width: 0.8"/>
    <path d="M 45.067983 409.598417 
L 242.42544 313.9698 
L 509.703247 379.161704 
" style="fill: none; stroke: #b0b0b0; stroke-width: 0.8"/>
    <path d="M 44.156041 379.391476 
L 242.290256 285.938039 
L 510.567579 349.640565 
" style="fill: none; stroke: #b0b0b0; stroke-width: 0.8"/>
    <path d="M 43.237007 348.949607 
L 242.154108 257.706481 
L 511.438455 319.895939 
" style="fill: none; stroke: #b0b0b0; stroke-width: 0.8"/>
    <path d="M 42.310797 318.270058 
L 242.016986 229.272983 
L 512.315949 289.925279 
" style="fill: none; stroke: #b0b0b0; stroke-width: 0.8"/>
    <path d="M 41.377327 287.350034 
L 241.87888 200.635369 
L 513.200136 259.725998 
" style="fill: none; stroke: #b0b0b0; stroke-width: 0.8"/>
    <path d="M 40.436512 256.186698 
L 241.73978 171.791434 
L 514.091094 229.295471 
" style="fill: none; stroke: #b0b0b0; stroke-width: 0.8"/>
    <path d="M 39.488264 224.777165 
L 241.599673 142.73894 
L 514.9889 198.631031 
" style="fill: none; stroke: #b0b0b0; stroke-width: 0.8"/>
    <path d="M 38.532495 193.118508 
L 241.458549 113.475617 
L 515.893634 167.729971 
" style="fill: none; stroke: #b0b0b0; stroke-width: 0.8"/>
   </g>
  </g>
  <g id="axis3d_1">
   <g id="line2d_1">
    <path d="M 508.703031 413.323916 
L 324.600797 524.480651 
" style="fill: none; stroke: #4b5563; stroke-width: 0.8; stroke-linecap: square"/>
   </g>
   <g id="xtick_1">
    <g id="line2d_2">
     <path d="M 486.7476 424.628805 
L 493.570412 426.369062 
" style="fill: none; stroke: #2c2f33; stroke-width: 0.8; stroke-linecap: square"/>
    </g>
    <g id="text_1">
     <!-- −2 -->
     <g style="fill: #2c2f33" transform="translate(494.434648 445.802555) scale(0.1 -0.1)">
      <defs>
       <path id="SegoeUI-2212" d="M 3663 1656 
L 725 1656 
L 725 2075 
L 3663 2075 
L 3663 1656 
z
" transform="scale(0.015625)"/>
       <path id="SegoeUI-32" d="M 2413 3306 
Q 2413 3513 2348 3666 
Q 2284 3819 2173 3920 
Q 2063 4022 1913 4072 
Q 1763 4122 1588 4122 
Q 1438 4122 1294 4081 
Q 1150 4041 1014 3969 
Q 878 3897 751 3797 
Q 625 3697 516 3575 
L 516 4125 
Q 731 4334 998 4445 
Q 1266 4556 1650 4556 
Q 1925 4556 2159 4476 
Q 2394 4397 2566 4244 
Q 2738 4091 2836 3866 
Q 2934 3641 2934 3350 
Q 2934 3084 2873 2868 
Q 2813 2653 2689 2462 
Q 2566 2272 2378 2097 
Q 2191 1922 1938 1741 
Q 1622 1516 1417 1356 
Q 1213 1197 1092 1058 
Q 972 919 923 780 
Q 875 641 875 459 
L 3106 459 
L 3106 0 
L 341 0 
L 341 222 
Q 341 509 403 728 
Q 466 947 609 1144 
Q 753 1341 986 1537 
Q 1219 1734 1556 1981 
Q 1800 2156 1964 2315 
Q 2128 2475 2228 2634 
Q 2328 2794 2370 2958 
Q 2413 3122 2413 3306 
z
" transform="scale(0.015625)"/>
      </defs>
      <use xlink:href="#SegoeUI-2212"/>
      <use xlink:href="#SegoeUI-32" x="68.408203"/>
     </g>
    </g>
   </g>
   <g id="xtick_2">
    <g id="line2d_3">
     <path d="M 453.241423 444.825325 
L 460.131615 446.626343 
" style="fill: none; stroke: #2c2f33; stroke-width: 0.8; stroke-linecap: square"/>
    </g>
    <g id="text_2">
     <!-- −1 -->
     <g style="fill: #2c2f33" transform="translate(461.10743 466.273938) scale(0.1 -0.1)">
      <defs>
       <path id="SegoeUI-31" d="M 2263 0 
L 1750 0 
L 1750 3872 
Q 1691 3813 1577 3736 
Q 1463 3659 1320 3584 
Q 1178 3509 1020 3443 
Q 863 3378 713 3341 
L 713 3859 
Q 881 3906 1070 3986 
Q 1259 4066 1442 4164 
Q 1625 4263 1787 4370 
Q 1950 4478 2069 4581 
L 2263 4581 
L 2263 0 
z
" transform="scale(0.015625)"/>
      </defs>
      <use xlink:href="#SegoeUI-2212"/>
      <use xlink:href="#SegoeUI-31" x="68.408203"/>
     </g>
    </g>
   </g>
   <g id="xtick_3">
    <g id="line2d_4">
     <path d="M 418.555886 465.732726 
L 425.514016 467.597745 
" style="fill: none; stroke: #2c2f33; stroke-width: 0.8; stroke-linecap: square"/>
    </g>
    <g id="text_3">
     <!-- 0 -->
     <g style="fill: #2c2f33" transform="translate(430.025322 487.467194) scale(0.1 -0.1)">
      <defs>
       <path id="SegoeUI-30" d="M 3188 2259 
Q 3188 1697 3086 1262 
Q 2984 828 2792 529 
Q 2600 231 2320 76 
Q 2041 -78 1684 -78 
Q 1347 -78 1083 70 
Q 819 219 637 503 
Q 456 788 362 1202 
Q 269 1616 269 2150 
Q 269 2738 367 3188 
Q 466 3638 656 3942 
Q 847 4247 1130 4401 
Q 1413 4556 1778 4556 
Q 3188 4556 3188 2259 
z
M 2663 2209 
Q 2663 4122 1753 4122 
Q 794 4122 794 2175 
Q 794 359 1734 359 
Q 2663 359 2663 2209 
z
" transform="scale(0.015625)"/>
      </defs>
      <use xlink:href="#SegoeUI-30"/>
     </g>
    </g>
   </g>
   <g id="xtick_4">
    <g id="line2d_5">
     <path d="M 382.627609 487.389215 
L 389.654162 489.321706 
" style="fill: none; stroke: #2c2f33; stroke-width: 0.8; stroke-linecap: square"/>
    </g>
    <g id="text_4">
     <!-- 1 -->
     <g style="fill: #2c2f33" transform="translate(394.28442 509.421193) scale(0.1 -0.1)">
      <use xlink:href="#SegoeUI-31"/>
     </g>
    </g>
   </g>
   <g id="xtick_5">
    <g id="line2d_6">
     <path d="M 345.388584 509.835783 
L 352.483964 511.839477 
" style="fill: none; stroke: #2c2f33; stroke-width: 0.8; stroke-linecap: square"/>
    </g>
    <g id="text_5">
     <!-- 2 -->
     <g style="fill: #2c2f33" transform="translate(357.237136 532.177642) scale(0.1 -0.1)">
      <use xlink:href="#SegoeUI-32"/>
     </g>
    </g>
   </g>
   <g id="text_6">
    <!-- X -->
    <g style="fill: #2c2f33" transform="translate(444.754321 499.953961) scale(0.1 -0.1)">
     <defs>
      <path id="SegoeUI-58" d="M 3681 0 
L 3041 0 
L 2009 1716 
Q 1963 1794 1906 1938 
L 1894 1938 
Q 1863 1866 1788 1716 
L 725 0 
L 81 0 
L 1581 2253 
L 200 4481 
L 844 4481 
L 1759 2906 
Q 1850 2750 1919 2594 
L 1931 2594 
Q 2031 2800 2106 2919 
L 3059 4481 
L 3663 4481 
L 2253 2259 
L 3681 0 
z
" transform="scale(0.015625)"/>
     </defs>
     <use xlink:href="#SegoeUI-58"/>
    </g>
   </g>
  </g>
  <g id="axis3d_2">
   <g id="line2d_7">
    <path d="M 46.12306 444.546537 
L 324.600797 524.480651 
" style="fill: none; stroke: #4b5563; stroke-width: 0.8; stroke-linecap: square"/>
   </g>
   <g id="xtick_6">
    <g id="line2d_8">
     <path d="M 78.31499 452.430516 
L 73.200158 455.037402 
" style="fill: none; stroke: #2c2f33; stroke-width: 0.8; stroke-linecap: square"/>
    </g>
    <g id="text_7">
     <!-- −2 -->
     <g style="fill: #2c2f33" transform="translate(61.913446 475.61512) scale(0.1 -0.1)">
      <use xlink:href="#SegoeUI-2212"/>
      <use xlink:href="#SegoeUI-32" x="68.408203"/>
     </g>
    </g>
   </g>
   <g id="xtick_7">
    <g id="line2d_9">
     <path d="M 129.763063 467.181411 
L 124.698551 469.853092 
" style="fill: none; stroke: #2c2f33; stroke-width: 0.8; stroke-linecap: square"/>
    </g>
    <g id="text_8">
     <!-- −1 -->
     <g style="fill: #2c2f33" transform="translate(113.398759 490.608526) scale(0.1 -0.1)">
      <use xlink:href="#SegoeUI-2212"/>
      <use xlink:href="#SegoeUI-31" x="68.408203"/>
     </g>
    </g>
   </g>
   <g id="xtick_8">
    <g id="line2d_10">
     <path d="M 182.496506 482.30084 
L 177.486448 485.039763 
" style="fill: none; stroke: #2c2f33; stroke-width: 0.8; stroke-linecap: square"/>
    </g>
    <g id="text_9">
     <!-- 0 -->
     <g style="fill: #2c2f33" transform="translate(169.594851 505.977738) scale(0.1 -0.1)">
      <use xlink:href="#SegoeUI-30"/>
     </g>
    </g>
   </g>
   <g id="xtick_9">
    <g id="line2d_11">
     <path d="M 236.5641 497.802789 
L 231.612896 500.611524 
" style="fill: none; stroke: #2c2f33; stroke-width: 0.8; stroke-linecap: square"/>
    </g>
    <g id="text_10">
     <!-- 1 -->
     <g style="fill: #2c2f33" transform="translate(223.710232 521.737065) scale(0.1 -0.1)">
      <use xlink:href="#SegoeUI-31"/>
     </g>
    </g>
   </g>
   <g id="xtick_10">
    <g id="line2d_12">
     <path d="M 292.017125 513.701961 
L 287.129462 516.583211 
" style="fill: none; stroke: #2c2f33; stroke-width: 0.8; stroke-linecap: square"/>
    </g>
    <g id="text_11">
     <!-- 2 -->
     <g style="fill: #2c2f33" transform="translate(279.216873 537.901551) scale(0.1 -0.1)">
      <use xlink:href="#SegoeUI-32"/>
     </g>
    </g>
   </g>
   <g id="text_12">
    <!-- Y -->
    <g style="fill: #2c2f33" transform="translate(158.698911 520.605359) scale(0.1 -0.1)">
     <defs>
      <path id="SegoeUI-59" d="M 3500 4481 
L 2022 1656 
L 2022 0 
L 1497 0 
L 1497 1644 
L 56 4481 
L 653 4481 
L 1656 2456 
Q 1675 2419 1766 2181 
L 1775 2181 
Q 1806 2288 1894 2456 
L 2944 4481 
L 3500 4481 
z
" transform="scale(0.015625)"/>
     </defs>
     <use xlink:href="#SegoeUI-59"/>
    </g>
   </g>
  </g>
  <g id="axis3d_3">
   <g id="line2d_13">
    <path d="M 46.12306 444.546537 
L 38.372463 187.817636 
" style="fill: none; stroke: #4b5563; stroke-width: 0.8; stroke-linecap: square"/>
   </g>
   <g id="xtick_11">
    <g id="line2d_14">
     <path d="M 47.686094 438.721116 
L 42.539134 441.280874 
" style="fill: none; stroke: #2c2f33; stroke-width: 0.8; stroke-linecap: square"/>
    </g>
    <g id="text_13">
     <!-- 0.0 -->
     <g style="fill: #2c2f33" transform="translate(19.753388 448.303362) scale(0.1 -0.1)">
      <defs>
       <path id="SegoeUI-2e" d="M 697 -69 
Q 553 -69 451 34 
Q 350 138 350 281 
Q 350 425 451 529 
Q 553 634 697 634 
Q 844 634 947 529 
Q 1050 425 1050 281 
Q 1050 138 947 34 
Q 844 -69 697 -69 
z
" transform="scale(0.015625)"/>
      </defs>
      <use xlink:href="#SegoeUI-30"/>
      <use xlink:href="#SegoeUI-2e" x="53.90625"/>
      <use xlink:href="#SegoeUI-30" x="75.585938"/>
     </g>
    </g>
   </g>
   <g id="xtick_12">
    <g id="line2d_15">
     <path d="M 46.788423 408.764786 
L 41.619622 411.269304 
" style="fill: none; stroke: #2c2f33; stroke-width: 0.8; stroke-linecap: square"/>
    </g>
    <g id="text_14">
     <!-- 0.5 -->
     <g style="fill: #2c2f33" transform="translate(18.771165 418.300004) scale(0.1 -0.1)">
      <defs>
       <path id="SegoeUI-35" d="M 3028 1369 
Q 3028 1041 2915 775 
Q 2803 509 2595 318 
Q 2388 128 2094 25 
Q 1800 -78 1441 -78 
Q 816 -78 513 109 
L 513 653 
Q 969 359 1447 359 
Q 1691 359 1886 431 
Q 2081 503 2218 631 
Q 2356 759 2429 940 
Q 2503 1122 2503 1338 
Q 2503 1775 2209 2023 
Q 1916 2272 1356 2272 
Q 1266 2272 1166 2269 
Q 1066 2266 966 2261 
Q 866 2256 770 2250 
Q 675 2244 597 2234 
L 750 4481 
L 2822 4481 
L 2822 4019 
L 1194 4019 
L 1103 2703 
Q 1203 2709 1315 2714 
Q 1428 2719 1516 2719 
Q 1872 2719 2153 2625 
Q 2434 2531 2629 2357 
Q 2825 2184 2926 1932 
Q 3028 1681 3028 1369 
z
" transform="scale(0.015625)"/>
      </defs>
      <use xlink:href="#SegoeUI-30"/>
      <use xlink:href="#SegoeUI-2e" x="53.90625"/>
      <use xlink:href="#SegoeUI-35" x="75.585938"/>
     </g>
    </g>
   </g>
   <g id="xtick_13">
    <g id="line2d_16">
     <path d="M 45.883803 378.576548 
L 40.692976 381.024891 
" style="fill: none; stroke: #2c2f33; stroke-width: 0.8; stroke-linecap: square"/>
    </g>
    <g id="text_15">
     <!-- 1.0 -->
     <g style="fill: #2c2f33" transform="translate(17.781324 388.063941) scale(0.1 -0.1)">
      <use xlink:href="#SegoeUI-31"/>
      <use xlink:href="#SegoeUI-2e" x="53.90625"/>
      <use xlink:href="#SegoeUI-30" x="75.585938"/>
     </g>
    </g>
   </g>
   <g id="xtick_14">
    <g id="line2d_17">
     <path d="M 44.972152 348.153697 
L 39.759113 350.544914 
" style="fill: none; stroke: #2c2f33; stroke-width: 0.8; stroke-linecap: square"/>
    </g>
    <g id="text_16">
     <!-- 1.5 -->
     <g style="fill: #2c2f33" transform="translate(16.783775 357.592457) scale(0.1 -0.1)">
      <use xlink:href="#SegoeUI-31"/>
      <use xlink:href="#SegoeUI-2e" x="53.90625"/>
      <use xlink:href="#SegoeUI-35" x="75.585938"/>
     </g>
    </g>
   </g>
   <g id="xtick_15">
    <g id="line2d_18">
     <path d="M 44.053389 317.493489 
L 38.817948 319.826611 
" style="fill: none; stroke: #2c2f33; stroke-width: 0.8; stroke-linecap: square"/>
    </g>
    <g id="text_17">
     <!-- 2.0 -->
     <g style="fill: #2c2f33" transform="translate(15.778429 326.88279) scale(0.1 -0.1)">
      <use xlink:href="#SegoeUI-32"/>
      <use xlink:href="#SegoeUI-2e" x="53.90625"/>
      <use xlink:href="#SegoeUI-30" x="75.585938"/>
     </g>
    </g>
   </g>
   <g id="xtick_16">
    <g id="line2d_19">
     <path d="M 43.127429 286.593135 
L 37.869395 288.867176 
" style="fill: none; stroke: #2c2f33; stroke-width: 0.8; stroke-linecap: square"/>
    </g>
    <g id="text_18">
     <!-- 2.5 -->
     <g style="fill: #2c2f33" transform="translate(14.765194 295.932138) scale(0.1 -0.1)">
      <use xlink:href="#SegoeUI-32"/>
      <use xlink:href="#SegoeUI-2e" x="53.90625"/>
      <use xlink:href="#SegoeUI-35" x="75.585938"/>
     </g>
    </g>
   </g>
   <g id="xtick_17">
    <g id="line2d_20">
     <path d="M 42.194188 255.449802 
L 36.913367 257.663757 
" style="fill: none; stroke: #2c2f33; stroke-width: 0.8; stroke-linecap: square"/>
    </g>
    <g id="text_19">
     <!-- 3.0 -->
     <g style="fill: #2c2f33" transform="translate(13.743977 264.737652) scale(0.1 -0.1)">
      <defs>
       <path id="SegoeUI-33" d="M 2978 1269 
Q 2978 966 2864 717 
Q 2750 469 2542 292 
Q 2334 116 2043 19 
Q 1753 -78 1403 -78 
Q 763 -78 384 166 
L 384 716 
Q 838 359 1422 359 
Q 1656 359 1845 418 
Q 2034 478 2170 590 
Q 2306 703 2379 862 
Q 2453 1022 2453 1222 
Q 2453 2100 1203 2100 
L 831 2100 
L 831 2534 
L 1184 2534 
Q 2291 2534 2291 3359 
Q 2291 4122 1447 4122 
Q 972 4122 556 3803 
L 556 4300 
Q 984 4556 1575 4556 
Q 1856 4556 2084 4478 
Q 2313 4400 2475 4259 
Q 2638 4119 2727 3922 
Q 2816 3725 2816 3488 
Q 2816 2603 1922 2350 
L 1922 2338 
Q 2150 2313 2344 2227 
Q 2538 2141 2678 2003 
Q 2819 1866 2898 1680 
Q 2978 1494 2978 1269 
z
" transform="scale(0.015625)"/>
      </defs>
      <use xlink:href="#SegoeUI-33"/>
      <use xlink:href="#SegoeUI-2e" x="53.90625"/>
      <use xlink:href="#SegoeUI-30" x="75.585938"/>
     </g>
    </g>
   </g>
   <g id="xtick_18">
    <g id="line2d_21">
     <path d="M 41.25358 224.060613 
L 35.949774 226.21346 
" style="fill: none; stroke: #2c2f33; stroke-width: 0.8; stroke-linecap: square"/>
    </g>
    <g id="text_20">
     <!-- 3.5 -->
     <g style="fill: #2c2f33" transform="translate(12.714682 233.296439) scale(0.1 -0.1)">
      <use xlink:href="#SegoeUI-33"/>
      <use xlink:href="#SegoeUI-2e" x="53.90625"/>
      <use xlink:href="#SegoeUI-35" x="75.585938"/>
     </g>
    </g>
   </g>
   <g id="xtick_19">
    <g id="line2d_22">
     <path d="M 40.305517 192.422646 
L 34.978528 194.513342 
" style="fill: none; stroke: #2c2f33; stroke-width: 0.8; stroke-linecap: square"/>
    </g>
    <g id="text_21">
     <!-- 4.0 -->
     <g style="fill: #2c2f33" transform="translate(11.677214 201.605562) scale(0.1 -0.1)">
      <defs>
       <path id="SegoeUI-34" d="M 2656 4481 
L 2656 1522 
L 3231 1522 
L 3231 1053 
L 2656 1053 
L 2656 0 
L 2150 0 
L 2150 1053 
L 44 1053 
L 44 1497 
Q 338 1828 638 2204 
Q 938 2581 1211 2968 
Q 1484 3356 1717 3742 
Q 1950 4128 2109 4481 
L 2656 4481 
z
M 622 1522 
L 2150 1522 
L 2150 3716 
Q 1916 3306 1706 2984 
Q 1497 2663 1308 2400 
Q 1119 2138 947 1925 
Q 775 1713 622 1522 
z
" transform="scale(0.015625)"/>
      </defs>
      <use xlink:href="#SegoeUI-34"/>
      <use xlink:href="#SegoeUI-2e" x="53.90625"/>
      <use xlink:href="#SegoeUI-30" x="75.585938"/>
     </g>
    </g>
   </g>
   <g id="text_22">
    <!-- Z -->
    <g style="fill: #2c2f33" transform="translate(-5.953111 323.56032) scale(0.1 -0.1)">
     <defs>
      <path id="SegoeUI-5a" d="M 3513 4356 
L 888 475 
L 3450 475 
L 3450 0 
L 103 0 
L 103 147 
L 2706 4006 
L 313 4006 
L 313 4481 
L 3513 4481 
L 3513 4356 
z
" transform="scale(0.015625)"/>
     </defs>
     <use xlink:href="#SegoeUI-5a"/>
    </g>
   </g>
  </g>
  <g id="axes_1">
   <g id="line2d_23">
    <path d="M 224.160076 454.477667 
L 229.28504 454.662493 
L 234.632322 454.716673 
L 240.179522 454.634948 
L 245.903171 454.412673 
L 251.778847 454.045843 
L 257.781305 453.531125 
L 263.884601 452.865876 
L 270.062236 452.04816 
L 276.287294 451.076765 
L 282.532593 449.951207 
L 288.770833 448.671737 
L 294.974742 447.239332 
L 301.117232 445.655698 
L 307.171545 443.923249 
L 313.111396 442.045095 
L 318.911119 440.025019 
L 324.545797 437.867452 
L 329.991395 435.577442 
L 335.22488 433.160623 
L 340.224333 430.623173 
L 344.969053 427.971781 
L 349.43965 425.2136 
L 353.618127 422.356202 
L 357.487954 419.407538 
L 361.034124 416.375883 
L 364.243211 413.269795 
L 367.103397 410.098062 
L 369.604512 406.869659 
L 371.738041 403.593696 
L 373.497135 400.279376 
L 374.87661 396.935945 
L 375.872931 393.572655 
L 376.484196 390.198714 
L 376.710105 386.823253 
L 376.551925 383.455285 
L 376.012451 380.103671 
L 375.095958 376.777085 
L 373.808149 373.483984 
L 372.1561 370.232581 
L 370.148202 367.030817 
L 367.794096 363.886341 
L 365.104616 360.806483 
L 362.091717 357.798243 
L 358.768414 354.868267 
L 355.14871 352.022837 
L 351.247538 349.267856 
L 347.080686 346.608838 
L 342.664738 344.0509 
L 338.017003 341.598751 
L 333.155458 339.256689 
L 328.09868 337.028595 
L 322.865786 334.917927 
L 317.476374 332.92772 
L 311.950463 331.060582 
L 306.308434 329.318693 
L 300.570974 327.703806 
L 294.759022 326.217242 
L 288.893713 324.859899 
L 282.996319 323.632243 
L 277.088204 322.534316 
L 271.190762 321.565736 
L 265.325369 320.725698 
L 259.513326 320.012977 
L 253.775807 319.42593 
L 248.133803 318.962502 
L 237.219062 318.396224 
L 226.931266 318.289553 
L 217.426018 318.611553 
L 208.850436 319.325147 
L 204.954431 319.815587 
L 201.341143 320.387374 
L 198.025667 321.034272 
L 195.022179 321.749727 
L 192.343866 322.526879 
L 190.00286 323.358576 
L 188.01017 324.237402 
L 186.375615 325.155687 
L 185.107759 326.105541 
L 184.213846 327.078867 
L 183.699745 328.0674 
L 183.569884 329.062725 
L 183.827204 330.056316 
L 184.473107 331.039566 
L 185.50741 332.003819 
L 186.928315 332.940414 
L 188.732373 333.840714 
L 190.914464 334.696153 
L 193.467783 335.498275 
L 196.383834 336.238774 
L 199.65244 336.909538 
L 203.261753 337.502693 
L 207.198283 338.010645 
L 211.446935 338.42612 
L 215.991057 338.742213 
L 220.812503 338.952423 
L 225.8917 339.050692 
L 231.207736 339.031447 
L 236.738447 338.889632 
L 242.460529 338.62074 
L 248.349643 338.220844 
L 254.380546 337.686621 
L 260.527214 337.015376 
L 266.762985 336.205058 
L 273.060699 335.254274 
L 279.392849 334.162301 
L 285.731729 332.929088 
L 292.049587 331.555253 
L 298.318782 330.042087 
L 304.511931 328.391537 
L 310.602066 326.606194 
L 316.562771 324.689279 
L 322.368332 322.644615 
L 327.993868 320.476604 
L 333.415458 318.190198 
L 338.61026 315.790864 
L 343.556626 313.284549 
L 348.234194 310.677643 
L 352.623983 307.976939 
L 356.70847 305.189586 
L 360.471658 302.323054 
L 363.89913 299.385085 
L 366.978094 296.383649 
L 369.697417 293.326901 
L 372.047645 290.223139 
L 374.021018 287.080755 
L 375.611468 283.908201 
L 376.814613 280.713942 
L 377.627737 277.506419 
L 378.04977 274.294012 
L 378.08125 271.085004 
L 377.724287 267.88755 
L 376.982514 264.709641 
L 375.86104 261.559078 
L 374.366395 258.443446 
L 372.506466 255.37009 
L 370.290444 252.346088 
L 367.728751 249.378238 
L 364.83298 246.473034 
L 361.615829 243.636656 
L 358.091027 240.87495 
L 354.273272 238.193421 
L 350.178165 235.59722 
L 345.822135 233.091137 
L 341.222381 230.679592 
L 336.396802 228.366631 
L 331.363937 226.155918 
L 326.142897 224.050737 
L 320.753308 222.053984 
L 315.215247 220.168166 
L 309.549189 218.395402 
L 303.775941 216.737422 
L 297.916593 215.195566 
L 291.992457 213.770785 
L 286.025015 212.46364 
L 280.035865 211.274308 
L 274.046663 210.20258 
L 262.154714 208.409182 
L 250.521598 207.074149 
L 239.317251 206.182177 
L 228.707337 205.712068 
L 218.851403 205.636864 
L 209.900954 205.924031 
L 201.997442 206.535679 
L 195.270175 207.428855 
L 192.384189 207.966295 
L 189.83415 208.555902 
L 187.631836 209.191059 
L 185.787856 209.864916 
L 184.311583 210.570413 
L 183.211086 211.300298 
L 182.493068 212.047153 
L 182.162808 212.803419 
L 182.224098 213.56142 
L 182.679195 214.313399 
L 183.528774 215.05154 
L 184.77188 215.768009 
L 186.405903 216.454982 
L 188.42654 217.104681 
L 190.827786 217.709414 
L 193.601915 218.26161 
L 196.739486 218.753856 
L 200.229351 219.17894 
L 208.21296 219.799998 
L 217.430467 220.072525 
L 222.456879 220.063267 
L 222.456879 220.063267 
" clip-path="url(#pbf42653c9b)" style="fill: none; stroke: #39c5bb; stroke-width: 2.5; stroke-linecap: square"/>
   </g>
   <g id="line2d_24">
    <path d="M 280.493646 423.810182 
L 371.014313 368.337704 
" clip-path="url(#pbf42653c9b)" style="fill: none; stroke-dasharray: 5.55,2.4; stroke-dashoffset: 0; stroke: #9ca3af; stroke-opacity: 0.7; stroke-width: 1.5"/>
   </g>
   <g id="line2d_25">
    <path d="M 224.160076 454.477667 
L 229.2926 455.807127 
L 234.645877 457.008219 
L 240.197411 458.075359 
L 245.923652 459.003564 
L 251.800114 459.788476 
L 257.801501 460.426397 
L 263.901839 460.914311 
L 270.074612 461.249905 
L 276.292909 461.431587 
L 282.529569 461.458492 
L 288.757329 461.330492 
L 294.948975 461.048195 
L 301.077491 460.612944 
L 307.11621 460.026803 
L 313.038953 459.292545 
L 318.820173 458.413634 
L 324.435089 457.394201 
L 329.859811 456.239017 
L 335.071465 454.953461 
L 340.048299 453.543485 
L 344.76979 452.015575 
L 349.216729 450.376715 
L 353.37131 448.634336 
L 357.217194 446.796278 
L 360.73957 444.870742 
L 363.925206 442.866241 
L 366.762481 440.791554 
L 369.241416 438.655679 
L 371.353686 436.467783 
L 373.092627 434.23716 
L 374.453234 431.97318 
L 375.432145 429.685249 
L 376.02762 427.382764 
L 376.239516 425.075073 
L 376.069245 422.771435 
L 375.519739 420.480985 
L 374.595396 418.212698 
L 373.302033 415.975358 
L 371.646829 413.777525 
L 369.638264 411.627512 
L 367.286057 409.533355 
L 364.601108 407.502795 
L 361.595423 405.543252 
L 358.282059 403.661811 
L 354.675047 401.865201 
L 350.789334 400.159783 
L 346.640712 398.551537 
L 342.245755 397.046051 
L 337.621751 395.648507 
L 332.786643 394.36368 
L 327.758961 393.195922 
L 322.557765 392.149164 
L 317.202584 391.226906 
L 311.713354 390.432214 
L 306.110365 389.767718 
L 300.4142 389.235605 
L 294.645682 388.837624 
L 288.825817 388.575076 
L 282.975744 388.448819 
L 277.116675 388.459266 
L 271.269846 388.606383 
L 265.456461 388.889689 
L 259.697641 389.308258 
L 254.014369 389.86072 
L 248.427434 390.54526 
L 242.957379 391.359622 
L 237.624443 392.30111 
L 232.448503 393.366591 
L 227.449021 394.5525 
L 222.644979 395.85484 
L 218.054823 397.269194 
L 213.696399 398.790725 
L 209.58689 400.414188 
L 205.742754 402.133935 
L 202.17966 403.943926 
L 198.912417 405.837745 
L 195.954914 407.808604 
L 193.32005 409.849369 
L 191.019668 411.952568 
L 189.064489 414.110414 
L 187.464049 416.314827 
L 186.226633 418.557455 
L 185.359215 420.829702 
L 184.867399 423.122752 
L 184.755362 425.427603 
L 185.025807 427.735101 
L 185.679911 430.035969 
L 186.717289 432.32085 
L 188.135956 434.580342 
L 189.932298 436.805043 
L 192.101059 438.985589 
L 194.63532 441.112706 
L 197.526504 443.177248 
L 200.764379 445.170247 
L 204.337076 447.082962 
L 208.231119 448.906924 
L 212.431461 450.633986 
L 216.921534 452.256366 
L 221.683312 453.766697 
L 226.697382 455.158072 
L 231.943024 456.424081 
L 237.398311 457.558859 
L 243.040203 458.557116 
L 248.844669 459.414179 
L 254.786801 460.126015 
L 260.840948 460.689266 
L 266.980845 461.101265 
L 273.179764 461.360056 
L 279.410647 461.464412 
L 285.646265 461.413834 
L 291.859361 461.208564 
L 298.022801 460.849577 
L 304.109725 460.338578 
L 310.093692 459.677988 
L 315.948822 458.870928 
L 321.649934 457.921199 
L 327.172679 456.833255 
L 332.493658 455.612176 
L 337.590547 454.263632 
L 342.442195 452.793846 
L 347.028725 451.20956 
L 351.331621 449.517984 
L 355.333801 447.726762 
L 359.019685 445.84392 
L 362.375245 443.877819 
L 365.388051 441.837113 
L 368.047301 439.730695 
L 370.34384 437.567655 
L 372.270174 435.357228 
L 373.820471 433.108752 
L 374.990548 430.831621 
L 375.777858 428.53524 
L 376.181463 426.228988 
L 376.202003 423.922173 
L 375.841655 421.623996 
L 375.104091 419.343517 
L 373.994424 417.089619 
L 372.519161 414.870977 
L 370.686137 412.696032 
L 368.504461 410.57296 
L 365.98445 408.509654 
L 363.137565 406.513696 
L 359.976346 404.59234 
L 356.514345 402.752495 
L 352.76606 401.00071 
L 348.746868 399.343155 
L 344.472961 397.785616 
L 339.961277 396.333478 
L 335.22944 394.991722 
L 330.295694 393.764911 
L 325.178842 392.657189 
L 319.898185 391.672271 
L 314.473464 390.81344 
L 308.924799 390.083544 
L 303.272633 389.484994 
L 297.537675 389.019756 
L 291.740849 388.689356 
L 285.903232 388.494875 
L 280.046007 388.436946 
L 274.190404 388.51576 
L 268.35765 388.731059 
L 262.568915 389.082141 
L 256.845257 389.567855 
L 251.207569 390.186611 
L 245.676524 390.936371 
L 240.27252 391.814661 
L 235.015622 392.818564 
L 229.925507 393.944732 
L 225.021404 395.189382 
L 220.322035 396.548308 
L 215.845554 398.016881 
L 211.609483 399.590059 
L 207.630652 401.262394 
L 203.92513 403.028042 
L 200.508167 404.880773 
L 197.394118 406.813982 
L 194.596387 408.820708 
L 192.127352 410.893643 
L 189.998304 413.025158 
L 188.219379 415.207315 
L 186.799496 417.431896 
L 185.746292 419.690422 
L 185.066062 421.974185 
L 184.763704 424.274271 
L 184.842665 426.581599 
L 185.304889 428.886947 
L 186.150777 431.180995 
L 187.379149 433.454358 
L 188.987207 435.697628 
L 190.97052 437.901417 
L 193.322999 440.056402 
L 196.036898 442.153364 
L 199.102809 444.183242 
L 202.50968 446.137176 
L 206.244834 448.006554 
L 210.294003 449.783063 
L 214.641374 451.458731 
L 219.269641 453.025981 
L 224.160076 454.477667 
L 224.160076 454.477667 
" clip-path="url(#pbf42653c9b)" style="fill: none; stroke-dasharray: 3.7,1.6; stroke-dashoffset: 0; stroke: #9ca3af; stroke-opacity: 0.5"/>
   </g>
   <g id="Path3DCollection_1">
    <defs>
     <path id="mbd204e1a7b" d="M 0 5 
C 1.326016 5 2.597899 4.473168 3.535534 3.535534 
C 4.473168 2.597899 5 1.326016 5 0 
C 5 -1.326016 4.473168 -2.597899 3.535534 -3.535534 
C 2.597899 -4.473168 1.326016 -5 0 -5 
C -1.326016 -5 -2.597899 -4.473168 -3.535534 -3.535534 
C -4.473168 -2.597899 -5 -1.326016 -5 0 
C -5 1.326016 -4.473168 2.597899 -3.535534 3.535534 
C -2.597899 4.473168 -1.326016 5 0 5 
z
" style="stroke: #1f2937"/>
    </defs>
    <g clip-path="url(#pbf42653c9b)">
     <use xlink:href="#mbd204e1a7b" x="371.014313" y="368.337704" style="fill: #1f2937; stroke: #1f2937"/>
    </g>
   </g>
   <g id="text_23">
    <!-- $\mathbf{r}(t_0)$ -->
    <g style="fill: #1f2937" transform="translate(374.894759 356.905225) scale(0.11 -0.11)">
     <defs>
      <path id="DejaVuSans-Bold-72" d="M 3138 2547 
Q 2991 2616 2845 2648 
Q 2700 2681 2553 2681 
Q 2122 2681 1889 2404 
Q 1656 2128 1656 1613 
L 1656 0 
L 538 0 
L 538 3500 
L 1656 3500 
L 1656 2925 
Q 1872 3269 2151 3426 
Q 2431 3584 2822 3584 
Q 2878 3584 2943 3579 
Q 3009 3575 3134 3559 
L 3138 2547 
z
" transform="scale(0.015625)"/>
      <path id="DejaVuSans-28" d="M 1984 4856 
Q 1566 4138 1362 3434 
Q 1159 2731 1159 2009 
Q 1159 1288 1364 580 
Q 1569 -128 1984 -844 
L 1484 -844 
Q 1016 -109 783 600 
Q 550 1309 550 2009 
Q 550 2706 781 3412 
Q 1013 4119 1484 4856 
L 1984 4856 
z
" transform="scale(0.015625)"/>
      <path id="DejaVuSans-Oblique-74" d="M 2706 3500 
L 2619 3053 
L 1472 3053 
L 1100 1153 
Q 1081 1047 1072 975 
Q 1063 903 1063 863 
Q 1063 663 1183 572 
Q 1303 481 1569 481 
L 2150 481 
L 2053 0 
L 1503 0 
Q 991 0 739 200 
Q 488 400 488 806 
Q 488 878 497 964 
Q 506 1050 525 1153 
L 897 3053 
L 409 3053 
L 500 3500 
L 978 3500 
L 1172 4494 
L 1747 4494 
L 1556 3500 
L 2706 3500 
z
" transform="scale(0.015625)"/>
      <path id="DejaVuSans-30" d="M 2034 4250 
Q 1547 4250 1301 3770 
Q 1056 3291 1056 2328 
Q 1056 1369 1301 889 
Q 1547 409 2034 409 
Q 2525 409 2770 889 
Q 3016 1369 3016 2328 
Q 3016 3291 2770 3770 
Q 2525 4250 2034 4250 
z
M 2034 4750 
Q 2819 4750 3233 4129 
Q 3647 3509 3647 2328 
Q 3647 1150 3233 529 
Q 2819 -91 2034 -91 
Q 1250 -91 836 529 
Q 422 1150 422 2328 
Q 422 3509 836 4129 
Q 1250 4750 2034 4750 
z
" transform="scale(0.015625)"/>
      <path id="DejaVuSans-29" d="M 513 4856 
L 1013 4856 
Q 1481 4119 1714 3412 
Q 1947 2706 1947 2009 
Q 1947 1309 1714 600 
Q 1481 -109 1013 -844 
L 513 -844 
Q 928 -128 1133 580 
Q 1338 1288 1338 2009 
Q 1338 2731 1133 3434 
Q 928 4138 513 4856 
z
" transform="scale(0.015625)"/>
     </defs>
     <use xlink:href="#DejaVuSans-Bold-72" transform="translate(0 0.125)"/>
     <use xlink:href="#DejaVuSans-28" transform="translate(49.316406 0.125)"/>
     <use xlink:href="#DejaVuSans-Oblique-74" transform="translate(88.330078 0.125)"/>
     <use xlink:href="#DejaVuSans-30" transform="translate(127.539062 -16.28125) scale(0.7)"/>
     <use xlink:href="#DejaVuSans-29" transform="translate(174.80957 0.125)"/>
    </g>
   </g>
   <g id="text_24">
    <!-- $\mathbf{r}'(t_0)$ -->
    <g style="fill: #dc2626" transform="translate(342.833666 319.552966) scale(0.11 -0.11)">
     <defs>
      <path id="Cmsy10-30" d="M 225 347 
Q 184 359 184 409 
L 966 3316 
Q 1003 3434 1093 3506 
Q 1184 3578 1300 3578 
Q 1450 3578 1564 3479 
Q 1678 3381 1678 3231 
Q 1678 3166 1644 3084 
L 488 319 
Q 466 275 428 275 
Q 394 275 320 306 
Q 247 338 225 347 
z
" transform="scale(0.015625)"/>
     </defs>
     <use xlink:href="#DejaVuSans-Bold-72" transform="translate(0 0.584375)"/>
     <use xlink:href="#Cmsy10-30" transform="translate(50.273438 38.865625) scale(0.7)"/>
     <use xlink:href="#DejaVuSans-28" transform="translate(72.250977 0.584375)"/>
     <use xlink:href="#DejaVuSans-Oblique-74" transform="translate(111.264648 0.584375)"/>
     <use xlink:href="#DejaVuSans-30" transform="translate(150.473633 -15.821875) scale(0.7)"/>
     <use xlink:href="#DejaVuSans-29" transform="translate(197.744141 0.584375)"/>
    </g>
   </g>
   <g id="text_25">
    <!-- Hélice Circular -->
    <g style="fill: #2c2f33" transform="translate(236.009129 34.996105) scale(0.11 -0.11)">
     <defs>
      <path id="SegoeUI-Bold-48" d="M 4391 0 
L 3378 0 
L 3378 1825 
L 1522 1825 
L 1522 0 
L 513 0 
L 513 4481 
L 1522 4481 
L 1522 2694 
L 3378 2694 
L 3378 4481 
L 4391 4481 
L 4391 0 
z
" transform="scale(0.015625)"/>
      <path id="SegoeUI-Bold-e9" d="M 3291 1319 
L 1203 1319 
Q 1253 622 2081 622 
Q 2609 622 3009 872 
L 3009 159 
Q 2566 -78 1856 -78 
Q 1081 -78 653 351 
Q 225 781 225 1550 
Q 225 2347 687 2812 
Q 1150 3278 1825 3278 
Q 2525 3278 2908 2862 
Q 3291 2447 3291 1734 
L 3291 1319 
z
M 2375 1925 
Q 2375 2613 1819 2613 
Q 1581 2613 1407 2416 
Q 1234 2219 1197 1925 
L 2375 1925 
z
M 2879 4716 
L 1900 3706 
L 1188 3706 
L 2000 4716 
L 2879 4716 
z
" transform="scale(0.015625)"/>
      <path id="SegoeUI-Bold-6c" d="M 1403 0 
L 416 0 
L 416 4738 
L 1403 4738 
L 1403 0 
z
" transform="scale(0.015625)"/>
      <path id="SegoeUI-Bold-69" d="M 916 3706 
Q 666 3706 506 3854 
Q 347 4003 347 4219 
Q 347 4441 506 4581 
Q 666 4722 916 4722 
Q 1169 4722 1326 4581 
Q 1484 4441 1484 4219 
Q 1484 3994 1326 3850 
Q 1169 3706 916 3706 
z
M 1403 0 
L 416 0 
L 416 3200 
L 1403 3200 
L 1403 0 
z
" transform="scale(0.015625)"/>
      <path id="SegoeUI-Bold-63" d="M 2841 116 
Q 2506 -78 1875 -78 
Q 1138 -78 681 369 
Q 225 816 225 1522 
Q 225 2338 714 2808 
Q 1203 3278 2022 3278 
Q 2588 3278 2841 3128 
L 2841 2291 
Q 2531 2522 2150 2522 
Q 1725 2522 1476 2273 
Q 1228 2025 1228 1588 
Q 1228 1163 1465 920 
Q 1703 678 2119 678 
Q 2488 678 2841 909 
L 2841 116 
z
" transform="scale(0.015625)"/>
      <path id="SegoeUI-Bold-65" d="M 3291 1319 
L 1203 1319 
Q 1253 622 2081 622 
Q 2609 622 3009 872 
L 3009 159 
Q 2566 -78 1856 -78 
Q 1081 -78 653 351 
Q 225 781 225 1550 
Q 225 2347 687 2812 
Q 1150 3278 1825 3278 
Q 2525 3278 2908 2862 
Q 3291 2447 3291 1734 
L 3291 1319 
z
M 2375 1925 
Q 2375 2613 1819 2613 
Q 1581 2613 1407 2416 
Q 1234 2219 1197 1925 
L 2375 1925 
z
" transform="scale(0.015625)"/>
      <path id="SegoeUI-Bold-20" transform="scale(0.015625)"/>
      <path id="SegoeUI-Bold-43" d="M 3725 159 
Q 3234 -78 2444 -78 
Q 1413 -78 822 528 
Q 231 1134 231 2144 
Q 231 3219 895 3887 
Q 1559 4556 2619 4556 
Q 3275 4556 3725 4391 
L 3725 3419 
Q 3275 3688 2700 3688 
Q 2069 3688 1681 3291 
Q 1294 2894 1294 2216 
Q 1294 1566 1659 1180 
Q 2025 794 2644 794 
Q 3234 794 3725 1081 
L 3725 159 
z
" transform="scale(0.015625)"/>
      <path id="SegoeUI-Bold-72" d="M 2503 2309 
Q 2325 2406 2088 2406 
Q 1766 2406 1584 2170 
Q 1403 1934 1403 1528 
L 1403 0 
L 416 0 
L 416 3200 
L 1403 3200 
L 1403 2606 
L 1416 2606 
Q 1650 3256 2259 3256 
Q 2416 3256 2503 3219 
L 2503 2309 
z
" transform="scale(0.015625)"/>
      <path id="SegoeUI-Bold-75" d="M 3456 0 
L 2472 0 
L 2472 488 
L 2456 488 
Q 2091 -78 1478 -78 
Q 366 -78 366 1269 
L 366 3200 
L 1350 3200 
L 1350 1356 
Q 1350 678 1888 678 
Q 2153 678 2312 864 
Q 2472 1050 2472 1369 
L 2472 3200 
L 3456 3200 
L 3456 0 
z
" transform="scale(0.015625)"/>
      <path id="SegoeUI-Bold-61" d="M 3078 0 
L 2144 0 
L 2144 459 
L 2131 459 
Q 1809 -78 1178 -78 
Q 713 -78 445 186 
Q 178 450 178 891 
Q 178 1822 1281 1966 
L 2150 2081 
Q 2150 2606 1581 2606 
Q 1009 2606 494 2266 
L 494 3009 
Q 700 3116 1058 3197 
Q 1416 3278 1709 3278 
Q 3078 3278 3078 1913 
L 3078 0 
z
M 2150 1300 
L 2150 1516 
L 1569 1441 
Q 1088 1378 1088 1006 
Q 1088 838 1205 730 
Q 1322 622 1522 622 
Q 1800 622 1975 814 
Q 2150 1006 2150 1300 
z
" transform="scale(0.015625)"/>
     </defs>
     <use xlink:href="#SegoeUI-Bold-48"/>
     <use xlink:href="#SegoeUI-Bold-e9" x="76.611328"/>
     <use xlink:href="#SegoeUI-Bold-6c" x="130.712891"/>
     <use xlink:href="#SegoeUI-Bold-69" x="159.130859"/>
     <use xlink:href="#SegoeUI-Bold-63" x="187.548828"/>
     <use xlink:href="#SegoeUI-Bold-65" x="235.546875"/>
     <use xlink:href="#SegoeUI-Bold-20" x="289.648438"/>
     <use xlink:href="#SegoeUI-Bold-43" x="317.236328"/>
     <use xlink:href="#SegoeUI-Bold-69" x="379.638672"/>
     <use xlink:href="#SegoeUI-Bold-72" x="408.056641"/>
     <use xlink:href="#SegoeUI-Bold-63" x="447.476562"/>
     <use xlink:href="#SegoeUI-Bold-75" x="495.474609"/>
     <use xlink:href="#SegoeUI-Bold-6c" x="555.972656"/>
     <use xlink:href="#SegoeUI-Bold-61" x="584.390625"/>
     <use xlink:href="#SegoeUI-Bold-72" x="638.199219"/>
    </g>
   </g>
   <g id="Line3DCollection_4">
    <path d="M 346.205749 329.452072 
L 371.014313 368.337704 
" clip-path="url(#pbf42653c9b)" style="fill: none; stroke: #dc2626; stroke-width: 2.5"/>
    <path d="M 346.205749 329.452072 
L 348.857051 335.855892 
" clip-path="url(#pbf42653c9b)" style="fill: none; stroke: #dc2626; stroke-width: 2.5"/>
    <path d="M 346.205749 329.452072 
L 349.198889 331.893652 
" clip-path="url(#pbf42653c9b)" style="fill: none; stroke: #dc2626; stroke-width: 2.5"/>
   </g>
   <g id="Poly3DCollection_1">
    <path d="M 283.633226 388.456183 
L 271.746171 388.589259 
L 271.496663 165.559789 
L 283.722766 165.449891 
z
" clip-path="url(#pbf42653c9b)" style="fill: #989fab; fill-opacity: 0.1"/>
    <path d="M 295.473391 388.886212 
L 283.633226 388.456183 
L 283.722766 165.449891 
L 295.900778 165.805025 
z
" clip-path="url(#pbf42653c9b)" style="fill: #979ea9; fill-opacity: 0.1"/>
    <path d="M 271.746171 388.589259 
L 259.989807 389.283647 
L 259.4046 166.133249 
L 271.496663 165.559789 
z
" clip-path="url(#pbf42653c9b)" style="fill: #99a0ab; fill-opacity: 0.1"/>
    <path d="M 307.089572 389.873553 
L 295.473391 388.886212 
L 295.900778 165.805025 
L 307.849062 166.620438 
z
" clip-path="url(#pbf42653c9b)" style="fill: #959ba7; fill-opacity: 0.1"/>
    <path d="M 259.989807 389.283647 
L 248.540355 390.529984 
L 247.627332 167.162586 
L 259.4046 166.133249 
z
" clip-path="url(#pbf42653c9b)" style="fill: #999fab; fill-opacity: 0.1"/>
    <path d="M 318.30702 391.404855 
L 307.089572 389.873553 
L 307.849062 166.620438 
L 319.388344 167.885173 
z
" clip-path="url(#pbf42653c9b)" style="fill: #9298a4; fill-opacity: 0.1"/>
    <path d="M 248.540355 390.529984 
L 237.570801 392.311362 
L 236.342356 168.633921 
L 247.627332 167.162586 
z
" clip-path="url(#pbf42653c9b)" style="fill: #979eaa; fill-opacity: 0.1"/>
    <path d="M 328.955222 393.459259 
L 318.30702 391.404855 
L 319.388344 167.885173 
L 330.343627 169.582101 
z
" clip-path="url(#pbf42653c9b)" style="fill: #8e959f; fill-opacity: 0.1"/>
    <path d="M 237.570801 392.311362 
L 227.248985 394.603406 
L 225.721967 170.527236 
L 236.342356 168.633921 
z
" clip-path="url(#pbf42653c9b)" style="fill: #959ca8; fill-opacity: 0.1"/>
    <path d="M 338.86985 396.008488 
L 328.955222 393.459259 
L 330.343627 169.582101 
L 340.546164 171.687995 
z
" clip-path="url(#pbf42653c9b)" style="fill: #8a909b; fill-opacity: 0.1"/>
    <path d="M 227.248985 394.603406 
L 217.735615 397.37438 
L 215.931251 172.816459 
L 225.721967 170.527236 
z
" clip-path="url(#pbf42653c9b)" style="fill: #9399a5; fill-opacity: 0.1"/>
    <path d="M 347.894788 399.016985 
L 338.86985 396.008488 
L 340.546164 171.687995 
L 349.835517 174.173637 
z
" clip-path="url(#pbf42653c9b)" style="fill: #858b95; fill-opacity: 0.1"/>
    <path d="M 217.735615 397.37438 
L 209.182203 400.58536 
L 207.12598 175.469588 
L 215.931251 172.816459 
z
" clip-path="url(#pbf42653c9b)" style="fill: #8f96a1; fill-opacity: 0.1"/>
    <path d="M 355.884235 402.442123 
L 347.894788 399.016985 
L 349.835517 174.173637 
L 358.061709 177.003968 
z
" clip-path="url(#pbf42653c9b)" style="fill: #7f858f; fill-opacity: 0.1"/>
    <path d="M 209.182203 400.58536 
L 201.728919 404.190469 
L 199.45042 178.448886 
L 207.12598 175.469588 
z
" clip-path="url(#pbf42653c9b)" style="fill: #8b919c; fill-opacity: 0.1"/>
    <path d="M 362.704902 406.234484 
L 355.884235 402.442123 
L 358.061709 177.003968 
L 365.087462 180.138321 
z
" clip-path="url(#pbf42653c9b)" style="fill: #797f88; fill-opacity: 0.1"/>
    <path d="M 201.728919 404.190469 
L 195.502368 408.137209 
L 193.035045 181.711133 
L 199.45042 178.448886 
z
" clip-path="url(#pbf42653c9b)" style="fill: #868c96; fill-opacity: 0.1"/>
    <path d="M 368.238258 410.338244 
L 362.704902 406.234484 
L 365.087462 180.138321 
L 370.790523 183.530718 
z
" clip-path="url(#pbf42653c9b)" style="fill: #737881; fill-opacity: 0.1"/>
    <path d="M 195.502368 408.137209 
L 190.613313 412.366902 
L 187.994194 185.20798 
L 193.035045 181.711133 
z
" clip-path="url(#pbf42653c9b)" style="fill: #818790; fill-opacity: 0.1"/>
    <path d="M 372.382822 414.69168 
L 368.238258 410.338244 
L 370.790523 183.530718 
L 375.066024 187.130279 
z
" clip-path="url(#pbf42653c9b)" style="fill: #6d727a; fill-opacity: 0.1"/>
    <path d="M 190.613313 412.366902 
L 187.154393 416.815249 
L 184.423704 188.886401 
L 187.994194 185.20798 
z
" clip-path="url(#pbf42653c9b)" style="fill: #7b818a; fill-opacity: 0.1"/>
    <path d="M 375.056434 419.227805 
L 372.382822 414.69168 
L 375.066024 187.130279 
L 377.828841 190.881733 
z
" clip-path="url(#pbf42653c9b)" style="fill: #666b73; fill-opacity: 0.1"/>
    <path d="M 187.154393 416.815249 
L 185.197874 421.413042 
L 182.39857 192.689269 
L 184.423704 188.886401 
z
" clip-path="url(#pbf42653c9b)" style="fill: #757a83; fill-opacity: 0.1"/>
    <path d="M 376.198446 423.875154 
L 375.056434 419.227805 
L 377.828841 190.881733 
L 379.015884 194.726063 
z
" clip-path="url(#pbf42653c9b)" style="fill: #60646b; fill-opacity: 0.1"/>
    <path d="M 185.197874 421.413042 
L 184.793523 426.087022 
L 181.970726 196.556057 
L 182.39857 192.689269 
z
" clip-path="url(#pbf42653c9b)" style="fill: #6e737c; fill-opacity: 0.1"/>
    <path d="M 375.771762 428.558738 
L 376.198446 423.875154 
L 379.015884 194.726063 
L 378.588228 198.601278 
z
" clip-path="url(#pbf42653c9b)" style="fill: #595d64; fill-opacity: 0.1"/>
    <path d="M 184.793523 426.087022 
L 185.966679 430.760912 
L 183.167011 200.423682 
L 181.970726 196.556057 
z
" clip-path="url(#pbf42653c9b)" style="fill: #686d75; fill-opacity: 0.1"/>
    <path d="M 373.764614 433.201151 
L 375.771762 428.558738 
L 378.588228 198.601278 
L 376.532996 202.443333 
z
" clip-path="url(#pbf42653c9b)" style="fill: #53575d; fill-opacity: 0.1"/>
    <path d="M 185.966679 430.760912 
L 188.716624 435.356596 
L 185.987444 204.227481 
L 183.167011 200.423682 
z
" clip-path="url(#pbf42653c9b)" style="fill: #61666d; fill-opacity: 0.1"/>
    <path d="M 370.191999 437.72384 
L 373.764614 433.201151 
L 376.532996 202.443333 
L 372.864883 206.187168 
z
" clip-path="url(#pbf42653c9b)" style="fill: #4d5056; fill-opacity: 0.1"/>
    <path d="M 188.716624 435.356596 
L 193.015351 439.795459 
L 190.403912 207.90232 
L 185.987444 204.227481 
z
" clip-path="url(#pbf42653c9b)" style="fill: #5b5f66; fill-opacity: 0.1"/>
    <path d="M 365.096651 442.04851 
L 370.191999 437.72384 
L 372.864883 206.187168 
L 367.62721 209.767886 
z
" clip-path="url(#pbf42653c9b)" style="fill: #474a50; fill-opacity: 0.1"/>
    <path d="M 193.015351 439.795459 
L 198.806848 443.999859 
L 196.359373 211.38381 
L 190.403912 207.90232 
z
" clip-path="url(#pbf42653c9b)" style="fill: #54585f; fill-opacity: 0.1"/>
    <path d="M 358.549456 446.098659 
L 365.096651 442.04851 
L 367.62721 209.767886 
L 360.892399 213.122016 
z
" clip-path="url(#pbf42653c9b)" style="fill: #42454a; fill-opacity: 0.1"/>
    <path d="M 198.806848 443.999859 
L 206.006974 447.894689 
L 203.767685 214.609617 
L 196.359373 211.38381 
z
" clip-path="url(#pbf42653c9b)" style="fill: #4e5258; fill-opacity: 0.1"/>
    <path d="M 350.649213 449.801173 
L 358.549456 446.098659 
L 360.892399 213.122016 
L 352.761774 216.188852 
z
" clip-path="url(#pbf42653c9b)" style="fill: #3e4045; fill-opacity: 0.1"/>
    <path d="M 206.006974 447.894689 
L 214.504032 451.409007 
L 212.514159 217.520818 
L 203.767685 214.609617 
z
" clip-path="url(#pbf42653c9b)" style="fill: #494c51; fill-opacity: 0.1"/>
    <path d="M 341.521687 453.087969 
L 350.649213 449.801173 
L 352.761774 216.188852 
L 343.364611 218.911824 
z
" clip-path="url(#pbf42653c9b)" style="fill: #3a3c41; fill-opacity: 0.1"/>
    <path d="M 214.504032 451.409007 
L 224.160076 454.477667 
L 222.456879 220.063267 
L 212.514159 217.520818 
z
" clip-path="url(#pbf42653c9b)" style="fill: #43464c; fill-opacity: 0.1"/>
    <path d="M 331.317884 455.897602 
L 341.521687 453.087969 
L 343.364611 218.911824 
L 332.856387 221.239846 
z
" clip-path="url(#pbf42653c9b)" style="fill: #37393d; fill-opacity: 0.1"/>
    <path d="M 224.160076 454.477667 
L 234.812998 457.042901 
L 233.428835 222.188918 
L 222.456879 220.063267 
z
" clip-path="url(#pbf42653c9b)" style="fill: #3f4246; fill-opacity: 0.1"/>
    <path d="M 320.211564 458.176797 
L 331.317884 455.897602 
L 332.856387 221.239846 
L 321.416222 223.128596 
z
" clip-path="url(#pbf42653c9b)" style="fill: #34373b; fill-opacity: 0.1"/>
    <path d="M 234.812998 457.042901 
L 246.279372 459.055779 
L 245.240859 223.857059 
L 233.428835 222.188918 
z
" clip-path="url(#pbf42653c9b)" style="fill: #3b3d42; fill-opacity: 0.1"/>
    <path d="M 308.396014 459.881823 
L 320.211564 458.176797 
L 321.416222 223.128596 
L 309.24354 224.54168 
z
" clip-path="url(#pbf42653c9b)" style="fill: #333539; fill-opacity: 0.1"/>
    <path d="M 246.279372 459.055779 
L 258.358009 460.477501 
L 257.685303 225.035391 
L 245.240859 223.857059 
z
" clip-path="url(#pbf42653c9b)" style="fill: #373a3e; fill-opacity: 0.1"/>
    <path d="M 296.080148 460.979667 
L 308.396014 459.881823 
L 309.24354 224.54168 
L 296.554028 225.45161 
z
" clip-path="url(#pbf42653c9b)" style="fill: #323438; fill-opacity: 0.1"/>
    <path d="M 258.358009 460.477501 
L 270.834134 461.280446 
L 270.540378 225.700914 
L 257.685303 225.035391 
z
" clip-path="url(#pbf42653c9b)" style="fill: #35373b; fill-opacity: 0.1"/>
    <path d="M 283.484054 461.448933 
L 296.080148 460.979667 
L 296.554028 225.45161 
L 283.575008 225.840569 
z
" clip-path="url(#pbf42653c9b)" style="fill: #323438; fill-opacity: 0.1"/>
    <path d="M 270.834134 461.280446 
L 283.484054 461.448933 
L 283.575008 225.840569 
L 270.540378 225.700914 
z
" clip-path="url(#pbf42653c9b)" style="fill: #333539; fill-opacity: 0.1"/>
   </g>
  </g>
  <g id="axes_2">
   <g id="patch_6">
    <path d="M 606.132561 178.046959 
L 982.790373 178.046959 
L 982.790373 60.962207 
L 606.132561 60.962207 
z
" clip-path="url(#pa40e1e0862)" style="fill: #eff6ff; stroke: #39c5bb; stroke-width: 2; stroke-linejoin: miter"/>
   </g>
   <g id="patch_7">
    <path d="M 606.132561 571.877486 
L 982.790373 571.877486 
L 982.790373 529.301213 
L 606.132561 529.301213 
z
" clip-path="url(#pa40e1e0862)" style="fill: #fef3c7; stroke: #f59e0b; stroke-width: 1.5; stroke-linejoin: miter"/>
   </g>
   <g id="line2d_26">
    <path d="M 614.146557 199.335095 
L 974.776378 199.335095 
" clip-path="url(#pa40e1e0862)" style="fill: none; stroke: #e5e7eb; stroke-linecap: square"/>
   </g>
   <g id="line2d_27">
    <path d="M 614.146557 305.775778 
L 974.776378 305.775778 
" clip-path="url(#pa40e1e0862)" style="fill: none; stroke: #e5e7eb; stroke-linecap: square"/>
   </g>
   <g id="line2d_28">
    <path d="M 614.146557 523.979178 
L 974.776378 523.979178 
" clip-path="url(#pa40e1e0862)" style="fill: none; stroke: #e5e7eb; stroke-linecap: square"/>
   </g>
   <g id="text_26">
    <!-- FUNCIÓN VECTORIAL -->
    <g style="fill: #39c5bb" transform="translate(738.846155 87.572378) scale(0.11 -0.11)">
     <defs>
      <path id="SegoeUI-Bold-46" d="M 3103 3659 
L 1522 3659 
L 1522 2559 
L 2975 2559 
L 2975 1741 
L 1522 1741 
L 1522 0 
L 513 0 
L 513 4481 
L 3103 4481 
L 3103 3659 
z
" transform="scale(0.015625)"/>
      <path id="SegoeUI-Bold-55" d="M 4166 1941 
Q 4166 -78 2284 -78 
Q 459 -78 459 1894 
L 459 4481 
L 1472 4481 
L 1472 1881 
Q 1472 794 2322 794 
Q 3156 794 3156 1844 
L 3156 4481 
L 4166 4481 
L 4166 1941 
z
" transform="scale(0.015625)"/>
      <path id="SegoeUI-Bold-4e" d="M 4544 0 
L 3525 0 
L 1678 2816 
Q 1516 3063 1453 3188 
L 1441 3188 
Q 1466 2950 1466 2463 
L 1466 0 
L 513 0 
L 513 4481 
L 1600 4481 
L 3378 1753 
Q 3500 1569 3603 1388 
L 3616 1388 
Q 3591 1544 3591 2003 
L 3591 4481 
L 4544 4481 
L 4544 0 
z
" transform="scale(0.015625)"/>
      <path id="SegoeUI-Bold-49" d="M 1522 0 
L 513 0 
L 513 4481 
L 1522 4481 
L 1522 0 
z
" transform="scale(0.015625)"/>
      <path id="SegoeUI-Bold-d3" d="M 2406 -78 
Q 1444 -78 837 548 
Q 231 1175 231 2181 
Q 231 3244 847 3900 
Q 1463 4556 2478 4556 
Q 3438 4556 4030 3928 
Q 4622 3300 4622 2272 
Q 4622 1216 4008 569 
Q 3394 -78 2406 -78 
z
M 2450 3688 
Q 1919 3688 1606 3289 
Q 1294 2891 1294 2234 
Q 1294 1569 1606 1181 
Q 1919 794 2425 794 
Q 2947 794 3253 1170 
Q 3559 1547 3559 2216 
Q 3559 2913 3262 3300 
Q 2966 3688 2450 3688 
z
M 3471 5932 
L 2492 4922 
L 1780 4922 
L 2592 5932 
L 3471 5932 
z
" transform="scale(0.015625)"/>
      <path id="SegoeUI-Bold-56" d="M 4244 4481 
L 2700 0 
L 1556 0 
L 31 4481 
L 1119 4481 
L 2053 1363 
Q 2128 1109 2144 916 
L 2163 916 
Q 2184 1125 2259 1375 
L 3188 4481 
L 4244 4481 
z
" transform="scale(0.015625)"/>
      <path id="SegoeUI-Bold-45" d="M 3200 0 
L 513 0 
L 513 4481 
L 3097 4481 
L 3097 3659 
L 1522 3659 
L 1522 2663 
L 2988 2663 
L 2988 1844 
L 1522 1844 
L 1522 819 
L 3200 819 
L 3200 0 
z
" transform="scale(0.015625)"/>
      <path id="SegoeUI-Bold-54" d="M 3659 3659 
L 2381 3659 
L 2381 0 
L 1369 0 
L 1369 3659 
L 97 3659 
L 97 4481 
L 3659 4481 
L 3659 3659 
z
" transform="scale(0.015625)"/>
      <path id="SegoeUI-Bold-4f" d="M 2406 -78 
Q 1444 -78 837 548 
Q 231 1175 231 2181 
Q 231 3244 847 3900 
Q 1463 4556 2478 4556 
Q 3438 4556 4030 3928 
Q 4622 3300 4622 2272 
Q 4622 1216 4008 569 
Q 3394 -78 2406 -78 
z
M 2450 3688 
Q 1919 3688 1606 3289 
Q 1294 2891 1294 2234 
Q 1294 1569 1606 1181 
Q 1919 794 2425 794 
Q 2947 794 3253 1170 
Q 3559 1547 3559 2216 
Q 3559 2913 3262 3300 
Q 2966 3688 2450 3688 
z
" transform="scale(0.015625)"/>
      <path id="SegoeUI-Bold-52" d="M 4272 0 
L 3113 0 
L 2416 1153 
Q 2338 1284 2266 1387 
Q 2194 1491 2120 1564 
Q 2047 1638 1967 1677 
Q 1888 1716 1794 1716 
L 1522 1716 
L 1522 0 
L 513 0 
L 513 4481 
L 2113 4481 
Q 3744 4481 3744 3263 
Q 3744 3028 3672 2829 
Q 3600 2631 3469 2472 
Q 3338 2313 3152 2197 
Q 2966 2081 2738 2016 
L 2738 2003 
Q 2838 1972 2931 1901 
Q 3025 1831 3112 1737 
Q 3200 1644 3279 1536 
Q 3359 1428 3425 1325 
L 4272 0 
z
M 1522 3725 
L 1522 2478 
L 1959 2478 
Q 2284 2478 2481 2666 
Q 2681 2856 2681 3138 
Q 2681 3725 1978 3725 
L 1522 3725 
z
" transform="scale(0.015625)"/>
      <path id="SegoeUI-Bold-41" d="M 4453 0 
L 3353 0 
L 3034 997 
L 1441 997 
L 1125 0 
L 31 0 
L 1663 4481 
L 2859 4481 
L 4453 0 
z
M 2803 1772 
L 2322 3278 
Q 2269 3447 2247 3681 
L 2222 3681 
Q 2206 3484 2144 3291 
L 1656 1772 
L 2803 1772 
z
" transform="scale(0.015625)"/>
      <path id="SegoeUI-Bold-4c" d="M 3181 0 
L 513 0 
L 513 4481 
L 1522 4481 
L 1522 819 
L 3181 819 
L 3181 0 
z
" transform="scale(0.015625)"/>
     </defs>
     <use xlink:href="#SegoeUI-Bold-46"/>
     <use xlink:href="#SegoeUI-Bold-55" x="52.001953"/>
     <use xlink:href="#SegoeUI-Bold-4e" x="124.316406"/>
     <use xlink:href="#SegoeUI-Bold-43" x="203.320312"/>
     <use xlink:href="#SegoeUI-Bold-49" x="265.722656"/>
     <use xlink:href="#SegoeUI-Bold-d3" x="297.412109"/>
     <use xlink:href="#SegoeUI-Bold-4e" x="373.193359"/>
     <use xlink:href="#SegoeUI-Bold-20" x="452.197266"/>
     <use xlink:href="#SegoeUI-Bold-56" x="479.785156"/>
     <use xlink:href="#SegoeUI-Bold-45" x="546.484375"/>
     <use xlink:href="#SegoeUI-Bold-43" x="599.707031"/>
     <use xlink:href="#SegoeUI-Bold-54" x="662.109375"/>
     <use xlink:href="#SegoeUI-Bold-4f" x="716.953125"/>
     <use xlink:href="#SegoeUI-Bold-52" x="792.783203"/>
     <use xlink:href="#SegoeUI-Bold-49" x="858.066406"/>
     <use xlink:href="#SegoeUI-Bold-41" x="889.755859"/>
     <use xlink:href="#SegoeUI-Bold-4c" x="960.068359"/>
    </g>
   </g>
   <g id="text_27">
    <!-- $\mathbf{r}(t) = \langle x(t), y(t), z(t) \rangle$ -->
    <g style="fill: #2c2f33" transform="translate(729.916468 140.79272) scale(0.13 -0.13)">
     <defs>
      <path id="DejaVuSans-3d" d="M 678 2906 
L 4684 2906 
L 4684 2381 
L 678 2381 
L 678 2906 
z
M 678 1631 
L 4684 1631 
L 4684 1100 
L 678 1100 
L 678 1631 
z
" transform="scale(0.015625)"/>
      <path id="DejaVuSans-27e8" d="M 572 2006 
L 1453 4856 
L 1984 4856 
L 1103 2006 
L 1984 -844 
L 1453 -844 
L 572 2006 
z
" transform="scale(0.015625)"/>
      <path id="DejaVuSans-Oblique-78" d="M 3841 3500 
L 2234 1784 
L 3219 0 
L 2559 0 
L 1819 1388 
L 531 0 
L -166 0 
L 1556 1844 
L 641 3500 
L 1300 3500 
L 1972 2234 
L 3144 3500 
L 3841 3500 
z
" transform="scale(0.015625)"/>
      <path id="DejaVuSans-2c" d="M 750 794 
L 1409 794 
L 1409 256 
L 897 -744 
L 494 -744 
L 750 256 
L 750 794 
z
" transform="scale(0.015625)"/>
      <path id="DejaVuSans-Oblique-79" d="M 1588 -325 
Q 1188 -997 936 -1164 
Q 684 -1331 294 -1331 
L -159 -1331 
L -63 -850 
L 269 -850 
Q 509 -850 678 -719 
Q 847 -588 1056 -206 
L 1234 128 
L 459 3500 
L 1069 3500 
L 1650 819 
L 3256 3500 
L 3859 3500 
L 1588 -325 
z
" transform="scale(0.015625)"/>
      <path id="DejaVuSans-Oblique-7a" d="M 744 3500 
L 3475 3500 
L 3372 2975 
L 738 459 
L 2913 459 
L 2822 0 
L -19 0 
L 84 525 
L 2719 3041 
L 653 3041 
L 744 3500 
z
" transform="scale(0.015625)"/>
      <path id="DejaVuSans-27e9" d="M 1925 2006 
L 1044 -844 
L 513 -844 
L 1394 2006 
L 513 4856 
L 1044 4856 
L 1925 2006 
z
" transform="scale(0.015625)"/>
     </defs>
     <use xlink:href="#DejaVuSans-Bold-72" transform="translate(0 0.125)"/>
     <use xlink:href="#DejaVuSans-28" transform="translate(49.316406 0.125)"/>
     <use xlink:href="#DejaVuSans-Oblique-74" transform="translate(88.330078 0.125)"/>
     <use xlink:href="#DejaVuSans-29" transform="translate(127.539062 0.125)"/>
     <use xlink:href="#DejaVuSans-3d" transform="translate(186.035156 0.125)"/>
     <use xlink:href="#DejaVuSans-27e8" transform="translate(289.306641 0.125)"/>
     <use xlink:href="#DejaVuSans-Oblique-78" transform="translate(328.320312 0.125)"/>
     <use xlink:href="#DejaVuSans-28" transform="translate(387.5 0.125)"/>
     <use xlink:href="#DejaVuSans-Oblique-74" transform="translate(426.513672 0.125)"/>
     <use xlink:href="#DejaVuSans-29" transform="translate(465.722656 0.125)"/>
     <use xlink:href="#DejaVuSans-2c" transform="translate(504.736328 0.125)"/>
     <use xlink:href="#DejaVuSans-Oblique-79" transform="translate(556.005859 0.125)"/>
     <use xlink:href="#DejaVuSans-28" transform="translate(615.185547 0.125)"/>
     <use xlink:href="#DejaVuSans-Oblique-74" transform="translate(654.199219 0.125)"/>
     <use xlink:href="#DejaVuSans-29" transform="translate(693.408203 0.125)"/>
     <use xlink:href="#DejaVuSans-2c" transform="translate(732.421875 0.125)"/>
     <use xlink:href="#DejaVuSans-Oblique-7a" transform="translate(783.691406 0.125)"/>
     <use xlink:href="#DejaVuSans-28" transform="translate(836.181641 0.125)"/>
     <use xlink:href="#DejaVuSans-Oblique-74" transform="translate(875.195312 0.125)"/>
     <use xlink:href="#DejaVuSans-29" transform="translate(914.404297 0.125)"/>
     <use xlink:href="#DejaVuSans-27e9" transform="translate(953.417969 0.125)"/>
    </g>
   </g>
   <g id="text_28">
    <!-- VECTOR TANGENTE -->
    <g style="fill: #dc2626" transform="translate(748.366155 225.945266) scale(0.1 -0.1)">
     <defs>
      <path id="SegoeUI-Bold-47" d="M 4191 300 
Q 3534 -78 2559 -78 
Q 1478 -78 854 520 
Q 231 1119 231 2169 
Q 231 3225 912 3890 
Q 1594 4556 2725 4556 
Q 3438 4556 3981 4359 
L 3981 3413 
Q 3463 3713 2713 3713 
Q 2084 3713 1689 3305 
Q 1294 2897 1294 2216 
Q 1294 1525 1648 1147 
Q 2003 769 2606 769 
Q 2969 769 3181 872 
L 3181 1747 
L 2284 1747 
L 2284 2553 
L 4191 2553 
L 4191 300 
z
" transform="scale(0.015625)"/>
     </defs>
     <use xlink:href="#SegoeUI-Bold-56"/>
     <use xlink:href="#SegoeUI-Bold-45" x="66.699219"/>
     <use xlink:href="#SegoeUI-Bold-43" x="119.921875"/>
     <use xlink:href="#SegoeUI-Bold-54" x="182.324219"/>
     <use xlink:href="#SegoeUI-Bold-4f" x="237.167969"/>
     <use xlink:href="#SegoeUI-Bold-52" x="312.998047"/>
     <use xlink:href="#SegoeUI-Bold-20" x="378.28125"/>
     <use xlink:href="#SegoeUI-Bold-54" x="405.869141"/>
     <use xlink:href="#SegoeUI-Bold-41" x="457.462891"/>
     <use xlink:href="#SegoeUI-Bold-4e" x="527.775391"/>
     <use xlink:href="#SegoeUI-Bold-47" x="606.779297"/>
     <use xlink:href="#SegoeUI-Bold-45" x="677.873047"/>
     <use xlink:href="#SegoeUI-Bold-4e" x="731.095703"/>
     <use xlink:href="#SegoeUI-Bold-54" x="810.099609"/>
     <use xlink:href="#SegoeUI-Bold-45" x="868.693359"/>
    </g>
   </g>
   <g id="text_29">
    <!-- $\mathbf{r}'(t) = \langle x'(t), y'(t), z'(t) \rangle$ -->
    <g style="fill: #2c2f33" transform="translate(728.761467 273.843573) scale(0.12 -0.12)">
     <use xlink:href="#DejaVuSans-Bold-72" transform="translate(0 0.584375)"/>
     <use xlink:href="#Cmsy10-30" transform="translate(50.273438 38.865625) scale(0.7)"/>
     <use xlink:href="#DejaVuSans-28" transform="translate(72.250977 0.584375)"/>
     <use xlink:href="#DejaVuSans-Oblique-74" transform="translate(111.264648 0.584375)"/>
     <use xlink:href="#DejaVuSans-29" transform="translate(150.473633 0.584375)"/>
     <use xlink:href="#DejaVuSans-3d" transform="translate(208.969727 0.584375)"/>
     <use xlink:href="#DejaVuSans-27e8" transform="translate(312.241211 0.584375)"/>
     <use xlink:href="#DejaVuSans-Oblique-78" transform="translate(351.254883 0.584375)"/>
     <use xlink:href="#Cmsy10-30" transform="translate(414.900716 38.865625) scale(0.7)"/>
     <use xlink:href="#DejaVuSans-28" transform="translate(436.878255 0.584375)"/>
     <use xlink:href="#DejaVuSans-Oblique-74" transform="translate(475.891927 0.584375)"/>
     <use xlink:href="#DejaVuSans-29" transform="translate(515.100911 0.584375)"/>
     <use xlink:href="#DejaVuSans-2c" transform="translate(554.114583 0.584375)"/>
     <use xlink:href="#DejaVuSans-Oblique-79" transform="translate(605.384115 0.584375)"/>
     <use xlink:href="#Cmsy10-30" transform="translate(669.029948 38.865625) scale(0.7)"/>
     <use xlink:href="#DejaVuSans-28" transform="translate(691.007487 0.584375)"/>
     <use xlink:href="#DejaVuSans-Oblique-74" transform="translate(730.021159 0.584375)"/>
     <use xlink:href="#DejaVuSans-29" transform="translate(769.230143 0.584375)"/>
     <use xlink:href="#DejaVuSans-2c" transform="translate(808.243815 0.584375)"/>
     <use xlink:href="#DejaVuSans-Oblique-7a" transform="translate(859.513346 0.584375)"/>
     <use xlink:href="#Cmsy10-30" transform="translate(916.469727 38.865625) scale(0.7)"/>
     <use xlink:href="#DejaVuSans-28" transform="translate(938.447266 0.584375)"/>
     <use xlink:href="#DejaVuSans-Oblique-74" transform="translate(977.460938 0.584375)"/>
     <use xlink:href="#DejaVuSans-29" transform="translate(1016.669922 0.584375)"/>
     <use xlink:href="#DejaVuSans-27e9" transform="translate(1055.683594 0.584375)"/>
    </g>
   </g>
   <g id="text_30">
    <!-- INTERPRETACIÓN CINEMÁTICA -->
    <g style="fill: #e12885" transform="translate(720.772405 332.385949) scale(0.1 -0.1)">
     <defs>
      <path id="SegoeUI-Bold-50" d="M 1522 1544 
L 1522 0 
L 513 0 
L 513 4481 
L 2094 4481 
Q 3788 4481 3788 3053 
Q 3788 2378 3302 1961 
Q 2816 1544 2003 1544 
L 1522 1544 
z
M 1522 3706 
L 1522 2309 
L 1919 2309 
Q 2725 2309 2725 3016 
Q 2725 3706 1919 3706 
L 1522 3706 
z
" transform="scale(0.015625)"/>
      <path id="SegoeUI-Bold-4d" d="M 5619 0 
L 4622 0 
L 4622 2681 
Q 4622 3116 4659 3641 
L 4634 3641 
Q 4556 3228 4494 3047 
L 3444 0 
L 2619 0 
L 1550 3016 
Q 1506 3138 1409 3641 
L 1381 3641 
Q 1422 2978 1422 2478 
L 1422 0 
L 513 0 
L 513 4481 
L 1991 4481 
L 2906 1825 
Q 3016 1506 3066 1184 
L 3084 1184 
Q 3169 1556 3263 1831 
L 4178 4481 
L 5619 4481 
L 5619 0 
z
" transform="scale(0.015625)"/>
      <path id="SegoeUI-Bold-c1" d="M 4453 0 
L 3353 0 
L 3034 997 
L 1441 997 
L 1125 0 
L 31 0 
L 1663 4481 
L 2859 4481 
L 4453 0 
z
M 2803 1772 
L 2322 3278 
Q 2269 3447 2247 3681 
L 2222 3681 
Q 2206 3484 2144 3291 
L 1656 1772 
L 2803 1772 
z
M 3239 5932 
L 2260 4922 
L 1548 4922 
L 2360 5932 
L 3239 5932 
z
" transform="scale(0.015625)"/>
     </defs>
     <use xlink:href="#SegoeUI-Bold-49"/>
     <use xlink:href="#SegoeUI-Bold-4e" x="31.689453"/>
     <use xlink:href="#SegoeUI-Bold-54" x="110.693359"/>
     <use xlink:href="#SegoeUI-Bold-45" x="169.287109"/>
     <use xlink:href="#SegoeUI-Bold-52" x="222.509766"/>
     <use xlink:href="#SegoeUI-Bold-50" x="287.792969"/>
     <use xlink:href="#SegoeUI-Bold-52" x="349.21875"/>
     <use xlink:href="#SegoeUI-Bold-45" x="414.501953"/>
     <use xlink:href="#SegoeUI-Bold-54" x="468.599609"/>
     <use xlink:href="#SegoeUI-Bold-41" x="520.193359"/>
     <use xlink:href="#SegoeUI-Bold-43" x="589.005859"/>
     <use xlink:href="#SegoeUI-Bold-49" x="651.408203"/>
     <use xlink:href="#SegoeUI-Bold-d3" x="683.097656"/>
     <use xlink:href="#SegoeUI-Bold-4e" x="758.878906"/>
     <use xlink:href="#SegoeUI-Bold-20" x="837.882812"/>
     <use xlink:href="#SegoeUI-Bold-43" x="865.470703"/>
     <use xlink:href="#SegoeUI-Bold-49" x="927.873047"/>
     <use xlink:href="#SegoeUI-Bold-4e" x="959.5625"/>
     <use xlink:href="#SegoeUI-Bold-45" x="1038.566406"/>
     <use xlink:href="#SegoeUI-Bold-4d" x="1091.789062"/>
     <use xlink:href="#SegoeUI-Bold-c1" x="1187.492188"/>
     <use xlink:href="#SegoeUI-Bold-54" x="1250.804688"/>
     <use xlink:href="#SegoeUI-Bold-49" x="1309.398438"/>
     <use xlink:href="#SegoeUI-Bold-43" x="1341.087891"/>
     <use xlink:href="#SegoeUI-Bold-41" x="1403.490234"/>
    </g>
   </g>
   <g id="text_31">
    <!-- $\mathbf{r}(t)$ -->
    <g style="fill: #2c2f33" transform="translate(717.656497 374.962222) scale(0.1 -0.1)">
     <use xlink:href="#DejaVuSans-Bold-72" transform="translate(0 0.125)"/>
     <use xlink:href="#DejaVuSans-28" transform="translate(49.316406 0.125)"/>
     <use xlink:href="#DejaVuSans-Oblique-74" transform="translate(88.330078 0.125)"/>
     <use xlink:href="#DejaVuSans-29" transform="translate(127.539062 0.125)"/>
    </g>
   </g>
   <g id="text_32">
    <!-- → Posición -->
    <g style="fill: #6b7280" transform="translate(754.391488 374.962222) scale(0.09 -0.09)">
     <defs>
      <path id="SegoeUI-2192" d="M 722 2075 
L 4441 2075 
L 4056 2450 
L 4056 2913 
L 5056 1875 
L 5056 1863 
L 4056 825 
L 4056 1288 
L 4434 1656 
L 722 1656 
L 722 2075 
z
" transform="scale(0.015625)"/>
      <path id="SegoeUI-20" transform="scale(0.015625)"/>
      <path id="SegoeUI-50" d="M 1113 1694 
L 1113 0 
L 588 0 
L 588 4481 
L 1819 4481 
Q 2538 4481 2933 4131 
Q 3328 3781 3328 3144 
Q 3328 2506 2889 2100 
Q 2450 1694 1703 1694 
L 1113 1694 
z
M 1113 4006 
L 1113 2169 
L 1663 2169 
Q 2206 2169 2492 2417 
Q 2778 2666 2778 3119 
Q 2778 4006 1728 4006 
L 1113 4006 
z
" transform="scale(0.015625)"/>
      <path id="SegoeUI-6f" d="M 1856 -75 
Q 1147 -75 723 373 
Q 300 822 300 1563 
Q 300 2369 740 2822 
Q 1181 3275 1931 3275 
Q 2647 3275 3048 2834 
Q 3450 2394 3450 1613 
Q 3450 847 3017 386 
Q 2584 -75 1856 -75 
z
M 1894 2844 
Q 1400 2844 1112 2508 
Q 825 2172 825 1581 
Q 825 1013 1115 684 
Q 1406 356 1894 356 
Q 2391 356 2658 678 
Q 2925 1000 2925 1594 
Q 2925 2194 2658 2519 
Q 2391 2844 1894 2844 
z
" transform="scale(0.015625)"/>
      <path id="SegoeUI-73" d="M 325 116 
L 325 666 
Q 744 356 1247 356 
Q 1922 356 1922 806 
Q 1922 934 1864 1023 
Q 1806 1113 1707 1181 
Q 1609 1250 1476 1304 
Q 1344 1359 1191 1419 
Q 978 1503 817 1589 
Q 656 1675 548 1783 
Q 441 1891 386 2028 
Q 331 2166 331 2350 
Q 331 2575 434 2748 
Q 538 2922 709 3039 
Q 881 3156 1101 3215 
Q 1322 3275 1556 3275 
Q 1972 3275 2300 3131 
L 2300 2613 
Q 1947 2844 1488 2844 
Q 1344 2844 1228 2811 
Q 1113 2778 1030 2718 
Q 947 2659 901 2576 
Q 856 2494 856 2394 
Q 856 2269 901 2184 
Q 947 2100 1034 2034 
Q 1122 1969 1247 1916 
Q 1372 1863 1531 1800 
Q 1744 1719 1912 1633 
Q 2081 1547 2200 1439 
Q 2319 1331 2383 1190 
Q 2447 1050 2447 856 
Q 2447 619 2342 444 
Q 2238 269 2063 153 
Q 1888 38 1659 -18 
Q 1431 -75 1181 -75 
Q 688 -75 325 116 
z
" transform="scale(0.015625)"/>
      <path id="SegoeUI-69" d="M 781 4013 
Q 644 4013 547 4106 
Q 450 4200 450 4344 
Q 450 4488 547 4583 
Q 644 4678 781 4678 
Q 922 4678 1020 4583 
Q 1119 4488 1119 4344 
Q 1119 4206 1020 4109 
Q 922 4013 781 4013 
z
M 1031 0 
L 519 0 
L 519 3200 
L 1031 3200 
L 1031 0 
z
" transform="scale(0.015625)"/>
      <path id="SegoeUI-63" d="M 2700 147 
Q 2331 -75 1825 -75 
Q 1141 -75 720 370 
Q 300 816 300 1525 
Q 300 2316 753 2795 
Q 1206 3275 1963 3275 
Q 2384 3275 2706 3119 
L 2706 2594 
Q 2350 2844 1944 2844 
Q 1453 2844 1139 2492 
Q 825 2141 825 1569 
Q 825 1006 1120 681 
Q 1416 356 1913 356 
Q 2331 356 2700 634 
L 2700 147 
z
" transform="scale(0.015625)"/>
      <path id="SegoeUI-f3" d="M 1856 -75 
Q 1147 -75 723 373 
Q 300 822 300 1563 
Q 300 2369 740 2822 
Q 1181 3275 1931 3275 
Q 2647 3275 3048 2834 
Q 3450 2394 3450 1613 
Q 3450 847 3017 386 
Q 2584 -75 1856 -75 
z
M 1894 2844 
Q 1400 2844 1112 2508 
Q 825 2172 825 1581 
Q 825 1013 1115 684 
Q 1406 356 1894 356 
Q 2391 356 2658 678 
Q 2925 1000 2925 1594 
Q 2925 2194 2658 2519 
Q 2391 2844 1894 2844 
z
M 2646 4831 
L 1827 3806 
L 1430 3806 
L 2127 4831 
L 2646 4831 
z
" transform="scale(0.015625)"/>
      <path id="SegoeUI-6e" d="M 3175 0 
L 2663 0 
L 2663 1825 
Q 2663 2844 1919 2844 
Q 1534 2844 1282 2555 
Q 1031 2266 1031 1825 
L 1031 0 
L 519 0 
L 519 3200 
L 1031 3200 
L 1031 2669 
L 1044 2669 
Q 1406 3275 2094 3275 
Q 2619 3275 2897 2936 
Q 3175 2597 3175 1956 
L 3175 0 
z
" transform="scale(0.015625)"/>
     </defs>
     <use xlink:href="#SegoeUI-2192"/>
     <use xlink:href="#SegoeUI-20" x="86.279297"/>
     <use xlink:href="#SegoeUI-50" x="113.671875"/>
     <use xlink:href="#SegoeUI-6f" x="165.927734"/>
     <use xlink:href="#SegoeUI-73" x="224.521484"/>
     <use xlink:href="#SegoeUI-69" x="266.953125"/>
     <use xlink:href="#SegoeUI-63" x="291.171875"/>
     <use xlink:href="#SegoeUI-69" x="337.363281"/>
     <use xlink:href="#SegoeUI-f3" x="361.582031"/>
     <use xlink:href="#SegoeUI-6e" x="420.175781"/>
    </g>
   </g>
   <g id="text_33">
    <!-- $\mathbf{v}(t) = \mathbf{r}'(t)$ -->
    <g style="fill: #2c2f33" transform="translate(684.856497 412.216461) scale(0.1 -0.1)">
     <defs>
      <path id="DejaVuSans-Bold-76" d="M 97 3500 
L 1216 3500 
L 2088 1081 
L 2956 3500 
L 4078 3500 
L 2700 0 
L 1472 0 
L 97 3500 
z
" transform="scale(0.015625)"/>
     </defs>
     <use xlink:href="#DejaVuSans-Bold-76" transform="translate(0 0.584375)"/>
     <use xlink:href="#DejaVuSans-28" transform="translate(65.185547 0.584375)"/>
     <use xlink:href="#DejaVuSans-Oblique-74" transform="translate(104.199219 0.584375)"/>
     <use xlink:href="#DejaVuSans-29" transform="translate(143.408203 0.584375)"/>
     <use xlink:href="#DejaVuSans-3d" transform="translate(201.904297 0.584375)"/>
     <use xlink:href="#DejaVuSans-Bold-72" transform="translate(305.175781 0.584375)"/>
     <use xlink:href="#Cmsy10-30" transform="translate(355.449219 38.865625) scale(0.7)"/>
     <use xlink:href="#DejaVuSans-28" transform="translate(377.426758 0.584375)"/>
     <use xlink:href="#DejaVuSans-Oblique-74" transform="translate(416.44043 0.584375)"/>
     <use xlink:href="#DejaVuSans-29" transform="translate(455.649414 0.584375)"/>
    </g>
   </g>
   <g id="text_34">
    <!-- → Velocidad -->
    <g style="fill: #6b7280" transform="translate(754.391488 412.216461) scale(0.09 -0.09)">
     <defs>
      <path id="SegoeUI-56" d="M 3919 4481 
L 2259 0 
L 1681 0 
L 56 4481 
L 641 4481 
L 1881 928 
Q 1941 756 1972 531 
L 1984 531 
Q 2009 719 2088 934 
L 3353 4481 
L 3919 4481 
z
" transform="scale(0.015625)"/>
      <path id="SegoeUI-65" d="M 3091 1472 
L 831 1472 
Q 844 938 1119 647 
Q 1394 356 1875 356 
Q 2416 356 2869 713 
L 2869 231 
Q 2447 -75 1753 -75 
Q 1075 -75 687 361 
Q 300 797 300 1588 
Q 300 2334 723 2804 
Q 1147 3275 1775 3275 
Q 2403 3275 2747 2869 
Q 3091 2463 3091 1741 
L 3091 1472 
z
M 2566 1906 
Q 2563 2350 2352 2597 
Q 2141 2844 1766 2844 
Q 1403 2844 1150 2584 
Q 897 2325 838 1906 
L 2566 1906 
z
" transform="scale(0.015625)"/>
      <path id="SegoeUI-6c" d="M 1031 0 
L 519 0 
L 519 4738 
L 1031 4738 
L 1031 0 
z
" transform="scale(0.015625)"/>
      <path id="SegoeUI-64" d="M 3250 0 
L 2738 0 
L 2738 544 
L 2725 544 
Q 2369 -75 1625 -75 
Q 1022 -75 661 354 
Q 300 784 300 1525 
Q 300 2319 700 2797 
Q 1100 3275 1766 3275 
Q 2425 3275 2725 2756 
L 2738 2756 
L 2738 4738 
L 3250 4738 
L 3250 0 
z
M 2738 1447 
L 2738 1919 
Q 2738 2306 2481 2575 
Q 2225 2844 1831 2844 
Q 1363 2844 1094 2500 
Q 825 2156 825 1550 
Q 825 997 1083 676 
Q 1341 356 1775 356 
Q 2203 356 2470 665 
Q 2738 975 2738 1447 
z
" transform="scale(0.015625)"/>
      <path id="SegoeUI-61" d="M 2809 0 
L 2297 0 
L 2297 500 
L 2284 500 
Q 1950 -75 1300 -75 
Q 822 -75 551 178 
Q 281 431 281 850 
Q 281 1747 1338 1894 
L 2297 2028 
Q 2297 2844 1638 2844 
Q 1059 2844 594 2450 
L 594 2975 
Q 1066 3275 1681 3275 
Q 2809 3275 2809 2081 
L 2809 0 
z
M 2297 1619 
L 1525 1513 
Q 1169 1463 987 1336 
Q 806 1209 806 888 
Q 806 653 973 504 
Q 1141 356 1419 356 
Q 1800 356 2048 623 
Q 2297 891 2297 1300 
L 2297 1619 
z
" transform="scale(0.015625)"/>
     </defs>
     <use xlink:href="#SegoeUI-2192"/>
     <use xlink:href="#SegoeUI-20" x="86.279297"/>
     <use xlink:href="#SegoeUI-56" x="113.671875"/>
     <use xlink:href="#SegoeUI-65" x="169.53125"/>
     <use xlink:href="#SegoeUI-6c" x="221.826172"/>
     <use xlink:href="#SegoeUI-6f" x="246.044922"/>
     <use xlink:href="#SegoeUI-63" x="304.638672"/>
     <use xlink:href="#SegoeUI-69" x="350.830078"/>
     <use xlink:href="#SegoeUI-64" x="375.048828"/>
     <use xlink:href="#SegoeUI-61" x="433.935547"/>
     <use xlink:href="#SegoeUI-64" x="484.814453"/>
    </g>
   </g>
   <g id="text_35">
    <!-- $\mathbf{a}(t) = \mathbf{r}''(t)$ -->
    <g style="fill: #2c2f33" transform="translate(682.656497 449.4707) scale(0.1 -0.1)">
     <defs>
      <path id="DejaVuSans-Bold-61" d="M 2106 1575 
Q 1756 1575 1579 1456 
Q 1403 1338 1403 1106 
Q 1403 894 1545 773 
Q 1688 653 1941 653 
Q 2256 653 2472 879 
Q 2688 1106 2688 1447 
L 2688 1575 
L 2106 1575 
z
M 3816 1997 
L 3816 0 
L 2688 0 
L 2688 519 
Q 2463 200 2181 54 
Q 1900 -91 1497 -91 
Q 953 -91 614 226 
Q 275 544 275 1050 
Q 275 1666 698 1953 
Q 1122 2241 2028 2241 
L 2688 2241 
L 2688 2328 
Q 2688 2594 2478 2717 
Q 2269 2841 1825 2841 
Q 1466 2841 1156 2769 
Q 847 2697 581 2553 
L 581 3406 
Q 941 3494 1303 3539 
Q 1666 3584 2028 3584 
Q 2975 3584 3395 3211 
Q 3816 2838 3816 1997 
z
" transform="scale(0.015625)"/>
     </defs>
     <use xlink:href="#DejaVuSans-Bold-61" transform="translate(0 0.584375)"/>
     <use xlink:href="#DejaVuSans-28" transform="translate(67.480469 0.584375)"/>
     <use xlink:href="#DejaVuSans-Oblique-74" transform="translate(106.494141 0.584375)"/>
     <use xlink:href="#DejaVuSans-29" transform="translate(145.703125 0.584375)"/>
     <use xlink:href="#DejaVuSans-3d" transform="translate(204.199219 0.584375)"/>
     <use xlink:href="#DejaVuSans-Bold-72" transform="translate(307.470703 0.584375)"/>
     <use xlink:href="#Cmsy10-30" transform="translate(357.744141 38.865625) scale(0.7)"/>
     <use xlink:href="#Cmsy10-30" transform="translate(376.987305 38.865625) scale(0.7)"/>
     <use xlink:href="#DejaVuSans-28" transform="translate(398.964844 0.584375)"/>
     <use xlink:href="#DejaVuSans-Oblique-74" transform="translate(437.978516 0.584375)"/>
     <use xlink:href="#DejaVuSans-29" transform="translate(477.1875 0.584375)"/>
    </g>
   </g>
   <g id="text_36">
    <!-- → Aceleración -->
    <g style="fill: #6b7280" transform="translate(754.391488 449.4707) scale(0.09 -0.09)">
     <defs>
      <path id="SegoeUI-41" d="M 4056 0 
L 3475 0 
L 3000 1256 
L 1100 1256 
L 653 0 
L 69 0 
L 1788 4481 
L 2331 4481 
L 4056 0 
z
M 2828 1728 
L 2125 3638 
Q 2091 3731 2056 3938 
L 2044 3938 
Q 2013 3747 1972 3638 
L 1275 1728 
L 2828 1728 
z
" transform="scale(0.015625)"/>
      <path id="SegoeUI-72" d="M 2188 2681 
Q 2053 2784 1800 2784 
Q 1472 2784 1251 2475 
Q 1031 2166 1031 1631 
L 1031 0 
L 519 0 
L 519 3200 
L 1031 3200 
L 1031 2541 
L 1044 2541 
Q 1153 2878 1378 3067 
Q 1603 3256 1881 3256 
Q 2081 3256 2188 3213 
L 2188 2681 
z
" transform="scale(0.015625)"/>
     </defs>
     <use xlink:href="#SegoeUI-2192"/>
     <use xlink:href="#SegoeUI-20" x="86.279297"/>
     <use xlink:href="#SegoeUI-41" x="113.671875"/>
     <use xlink:href="#SegoeUI-63" x="178.173828"/>
     <use xlink:href="#SegoeUI-65" x="224.365234"/>
     <use xlink:href="#SegoeUI-6c" x="276.660156"/>
     <use xlink:href="#SegoeUI-65" x="300.878906"/>
     <use xlink:href="#SegoeUI-72" x="353.173828"/>
     <use xlink:href="#SegoeUI-61" x="387.939453"/>
     <use xlink:href="#SegoeUI-63" x="438.818359"/>
     <use xlink:href="#SegoeUI-69" x="485.009766"/>
     <use xlink:href="#SegoeUI-f3" x="509.228516"/>
     <use xlink:href="#SegoeUI-6e" x="567.822266"/>
    </g>
   </g>
   <g id="text_37">
    <!-- $v = \|\mathbf{r}'(t)\|$ -->
    <g style="fill: #2c2f33" transform="translate(687.156497 486.724939) scale(0.1 -0.1)">
     <defs>
      <path id="DejaVuSans-Oblique-76" d="M 459 3500 
L 1069 3500 
L 1581 525 
L 3256 3500 
L 3866 3500 
L 1875 0 
L 1100 0 
L 459 3500 
z
" transform="scale(0.015625)"/>
      <path id="DejaVuSans-2016" d="M 1344 4891 
L 1344 -1509 
L 813 -1509 
L 813 4891 
L 1344 4891 
z
M 2376 4891 
L 2376 -1509 
L 1845 -1509 
L 1845 4891 
L 2376 4891 
z
" transform="scale(0.015625)"/>
     </defs>
     <use xlink:href="#DejaVuSans-Oblique-76" transform="translate(0 0.584375)"/>
     <use xlink:href="#DejaVuSans-3d" transform="translate(78.662109 0.584375)"/>
     <use xlink:href="#DejaVuSans-2016" transform="translate(181.933594 0.584375)"/>
     <use xlink:href="#DejaVuSans-Bold-72" transform="translate(231.933594 0.584375)"/>
     <use xlink:href="#Cmsy10-30" transform="translate(282.207031 38.865625) scale(0.7)"/>
     <use xlink:href="#DejaVuSans-28" transform="translate(304.18457 0.584375)"/>
     <use xlink:href="#DejaVuSans-Oblique-74" transform="translate(343.198242 0.584375)"/>
     <use xlink:href="#DejaVuSans-29" transform="translate(382.407227 0.584375)"/>
     <use xlink:href="#DejaVuSans-2016" transform="translate(421.420898 0.584375)"/>
    </g>
   </g>
   <g id="text_38">
    <!-- → Rapidez -->
    <g style="fill: #6b7280" transform="translate(754.391488 486.724939) scale(0.09 -0.09)">
     <defs>
      <path id="SegoeUI-52" d="M 3800 0 
L 3175 0 
L 2425 1256 
Q 2322 1431 2225 1554 
Q 2128 1678 2026 1756 
Q 1925 1834 1808 1870 
Q 1691 1906 1544 1906 
L 1113 1906 
L 1113 0 
L 588 0 
L 588 4481 
L 1925 4481 
Q 2219 4481 2467 4407 
Q 2716 4334 2898 4184 
Q 3081 4034 3184 3811 
Q 3288 3588 3288 3288 
Q 3288 3053 3217 2858 
Q 3147 2663 3017 2509 
Q 2888 2356 2705 2248 
Q 2522 2141 2294 2081 
L 2294 2069 
Q 2406 2019 2489 1955 
Q 2572 1891 2647 1803 
Q 2722 1716 2795 1605 
Q 2869 1494 2959 1347 
L 3800 0 
z
M 1113 4006 
L 1113 2381 
L 1825 2381 
Q 2022 2381 2189 2440 
Q 2356 2500 2478 2611 
Q 2600 2722 2669 2883 
Q 2738 3044 2738 3244 
Q 2738 3603 2505 3804 
Q 2272 4006 1831 4006 
L 1113 4006 
z
" transform="scale(0.015625)"/>
      <path id="SegoeUI-70" d="M 1044 463 
L 1031 463 
L 1031 -1472 
L 519 -1472 
L 519 3200 
L 1031 3200 
L 1031 2638 
L 1044 2638 
Q 1422 3275 2150 3275 
Q 2769 3275 3116 2845 
Q 3463 2416 3463 1694 
Q 3463 891 3072 408 
Q 2681 -75 2003 -75 
Q 1381 -75 1044 463 
z
M 1031 1753 
L 1031 1306 
Q 1031 909 1289 632 
Q 1547 356 1944 356 
Q 2409 356 2673 712 
Q 2938 1069 2938 1703 
Q 2938 2238 2691 2541 
Q 2444 2844 2022 2844 
Q 1575 2844 1303 2533 
Q 1031 2222 1031 1753 
z
" transform="scale(0.015625)"/>
      <path id="SegoeUI-7a" d="M 2750 3053 
L 856 438 
L 2731 438 
L 2731 0 
L 103 0 
L 103 159 
L 1997 2763 
L 281 2763 
L 281 3200 
L 2750 3200 
L 2750 3053 
z
" transform="scale(0.015625)"/>
     </defs>
     <use xlink:href="#SegoeUI-2192"/>
     <use xlink:href="#SegoeUI-20" x="86.279297"/>
     <use xlink:href="#SegoeUI-52" x="113.671875"/>
     <use xlink:href="#SegoeUI-61" x="173.486328"/>
     <use xlink:href="#SegoeUI-70" x="224.365234"/>
     <use xlink:href="#SegoeUI-69" x="283.154297"/>
     <use xlink:href="#SegoeUI-64" x="307.373047"/>
     <use xlink:href="#SegoeUI-65" x="366.259766"/>
     <use xlink:href="#SegoeUI-7a" x="418.554688"/>
    </g>
   </g>
   <g id="text_39">
    <!-- Hélice: $\mathbf{r}(t) = \langle a\cos t, a\sin t, bt \rangle$ -->
    <g style="fill: #92400e" transform="translate(722.611468 550.589349) scale(0.1 -0.1)">
     <defs>
      <path id="SegoeUI-48" d="M 3956 0 
L 3431 0 
L 3431 2044 
L 1113 2044 
L 1113 0 
L 588 0 
L 588 4481 
L 1113 4481 
L 1113 2516 
L 3431 2516 
L 3431 4481 
L 3956 4481 
L 3956 0 
z
" transform="scale(0.015625)"/>
      <path id="SegoeUI-e9" d="M 3091 1472 
L 831 1472 
Q 844 938 1119 647 
Q 1394 356 1875 356 
Q 2416 356 2869 713 
L 2869 231 
Q 2447 -75 1753 -75 
Q 1075 -75 687 361 
Q 300 797 300 1588 
Q 300 2334 723 2804 
Q 1147 3275 1775 3275 
Q 2403 3275 2747 2869 
Q 3091 2463 3091 1741 
L 3091 1472 
z
M 2566 1906 
Q 2563 2350 2352 2597 
Q 2141 2844 1766 2844 
Q 1403 2844 1150 2584 
Q 897 2325 838 1906 
L 2566 1906 
z
M 2486 4831 
L 1667 3806 
L 1270 3806 
L 1967 4831 
L 2486 4831 
z
" transform="scale(0.015625)"/>
      <path id="SegoeUI-3a" d="M 697 2575 
Q 553 2575 451 2678 
Q 350 2781 350 2925 
Q 350 3069 451 3169 
Q 553 3269 697 3269 
Q 844 3269 947 3169 
Q 1050 3069 1050 2925 
Q 1050 2781 947 2678 
Q 844 2575 697 2575 
z
M 697 -69 
Q 553 -69 451 34 
Q 350 138 350 281 
Q 350 425 451 529 
Q 553 634 697 634 
Q 844 634 947 529 
Q 1050 425 1050 281 
Q 1050 138 947 34 
Q 844 -69 697 -69 
z
" transform="scale(0.015625)"/>
      <path id="DejaVuSans-Oblique-61" d="M 3438 1997 
L 3047 0 
L 2472 0 
L 2578 531 
Q 2325 219 2001 64 
Q 1678 -91 1281 -91 
Q 834 -91 548 182 
Q 263 456 263 884 
Q 263 1497 752 1853 
Q 1241 2209 2100 2209 
L 2900 2209 
L 2931 2363 
Q 2938 2388 2941 2417 
Q 2944 2447 2944 2509 
Q 2944 2788 2717 2942 
Q 2491 3097 2081 3097 
Q 1800 3097 1504 3025 
Q 1209 2953 897 2809 
L 997 3341 
Q 1322 3463 1633 3523 
Q 1944 3584 2234 3584 
Q 2853 3584 3176 3315 
Q 3500 3047 3500 2534 
Q 3500 2431 3484 2292 
Q 3469 2153 3438 1997 
z
M 2816 1759 
L 2241 1759 
Q 1534 1759 1195 1570 
Q 856 1381 856 984 
Q 856 709 1029 553 
Q 1203 397 1509 397 
Q 1978 397 2328 733 
Q 2678 1069 2791 1631 
L 2816 1759 
z
" transform="scale(0.015625)"/>
      <path id="DejaVuSans-63" d="M 3122 3366 
L 3122 2828 
Q 2878 2963 2633 3030 
Q 2388 3097 2138 3097 
Q 1578 3097 1268 2742 
Q 959 2388 959 1747 
Q 959 1106 1268 751 
Q 1578 397 2138 397 
Q 2388 397 2633 464 
Q 2878 531 3122 666 
L 3122 134 
Q 2881 22 2623 -34 
Q 2366 -91 2075 -91 
Q 1284 -91 818 406 
Q 353 903 353 1747 
Q 353 2603 823 3093 
Q 1294 3584 2113 3584 
Q 2378 3584 2631 3529 
Q 2884 3475 3122 3366 
z
" transform="scale(0.015625)"/>
      <path id="DejaVuSans-6f" d="M 1959 3097 
Q 1497 3097 1228 2736 
Q 959 2375 959 1747 
Q 959 1119 1226 758 
Q 1494 397 1959 397 
Q 2419 397 2687 759 
Q 2956 1122 2956 1747 
Q 2956 2369 2687 2733 
Q 2419 3097 1959 3097 
z
M 1959 3584 
Q 2709 3584 3137 3096 
Q 3566 2609 3566 1747 
Q 3566 888 3137 398 
Q 2709 -91 1959 -91 
Q 1206 -91 779 398 
Q 353 888 353 1747 
Q 353 2609 779 3096 
Q 1206 3584 1959 3584 
z
" transform="scale(0.015625)"/>
      <path id="DejaVuSans-73" d="M 2834 3397 
L 2834 2853 
Q 2591 2978 2328 3040 
Q 2066 3103 1784 3103 
Q 1356 3103 1142 2972 
Q 928 2841 928 2578 
Q 928 2378 1081 2264 
Q 1234 2150 1697 2047 
L 1894 2003 
Q 2506 1872 2764 1633 
Q 3022 1394 3022 966 
Q 3022 478 2636 193 
Q 2250 -91 1575 -91 
Q 1294 -91 989 -36 
Q 684 19 347 128 
L 347 722 
Q 666 556 975 473 
Q 1284 391 1588 391 
Q 1994 391 2212 530 
Q 2431 669 2431 922 
Q 2431 1156 2273 1281 
Q 2116 1406 1581 1522 
L 1381 1569 
Q 847 1681 609 1914 
Q 372 2147 372 2553 
Q 372 3047 722 3315 
Q 1072 3584 1716 3584 
Q 2034 3584 2315 3537 
Q 2597 3491 2834 3397 
z
" transform="scale(0.015625)"/>
      <path id="DejaVuSans-69" d="M 603 3500 
L 1178 3500 
L 1178 0 
L 603 0 
L 603 3500 
z
M 603 4863 
L 1178 4863 
L 1178 4134 
L 603 4134 
L 603 4863 
z
" transform="scale(0.015625)"/>
      <path id="DejaVuSans-6e" d="M 3513 2113 
L 3513 0 
L 2938 0 
L 2938 2094 
Q 2938 2591 2744 2837 
Q 2550 3084 2163 3084 
Q 1697 3084 1428 2787 
Q 1159 2491 1159 1978 
L 1159 0 
L 581 0 
L 581 3500 
L 1159 3500 
L 1159 2956 
Q 1366 3272 1645 3428 
Q 1925 3584 2291 3584 
Q 2894 3584 3203 3211 
Q 3513 2838 3513 2113 
z
" transform="scale(0.015625)"/>
      <path id="DejaVuSans-Oblique-62" d="M 3169 2138 
Q 3169 2591 2961 2847 
Q 2753 3103 2388 3103 
Q 2122 3103 1889 2973 
Q 1656 2844 1484 2597 
Q 1303 2338 1198 1995 
Q 1094 1653 1094 1313 
Q 1094 881 1298 636 
Q 1503 391 1863 391 
Q 2134 391 2365 517 
Q 2597 644 2772 891 
Q 2950 1147 3059 1487 
Q 3169 1828 3169 2138 
z
M 1381 2969 
Q 1594 3256 1914 3420 
Q 2234 3584 2584 3584 
Q 3122 3584 3439 3221 
Q 3756 2859 3756 2241 
Q 3756 1734 3570 1259 
Q 3384 784 3041 416 
Q 2816 172 2522 40 
Q 2228 -91 1906 -91 
Q 1566 -91 1316 65 
Q 1066 222 909 531 
L 806 0 
L 231 0 
L 1178 4863 
L 1753 4863 
L 1381 2969 
z
" transform="scale(0.015625)"/>
     </defs>
     <use xlink:href="#SegoeUI-48" transform="translate(0 0.015625)"/>
     <use xlink:href="#SegoeUI-e9" transform="translate(70.996094 0.015625)"/>
     <use xlink:href="#SegoeUI-6c" transform="translate(123.291016 0.015625)"/>
     <use xlink:href="#SegoeUI-69" transform="translate(147.509766 0.015625)"/>
     <use xlink:href="#SegoeUI-63" transform="translate(171.728516 0.015625)"/>
     <use xlink:href="#SegoeUI-65" transform="translate(217.919922 0.015625)"/>
     <use xlink:href="#SegoeUI-3a" transform="translate(270.214844 0.015625)"/>
     <use xlink:href="#SegoeUI-20" transform="translate(291.894531 0.015625)"/>
     <use xlink:href="#DejaVuSans-Bold-72" transform="translate(319.287109 0.015625)"/>
     <use xlink:href="#DejaVuSans-28" transform="translate(368.603516 0.015625)"/>
     <use xlink:href="#DejaVuSans-Oblique-74" transform="translate(407.617188 0.015625)"/>
     <use xlink:href="#DejaVuSans-29" transform="translate(446.826172 0.015625)"/>
     <use xlink:href="#DejaVuSans-3d" transform="translate(505.322266 0.015625)"/>
     <use xlink:href="#DejaVuSans-27e8" transform="translate(608.59375 0.015625)"/>
     <use xlink:href="#DejaVuSans-Oblique-61" transform="translate(647.607422 0.015625)"/>
     <use xlink:href="#DejaVuSans-63" transform="translate(708.886719 0.015625)"/>
     <use xlink:href="#DejaVuSans-6f" transform="translate(763.867188 0.015625)"/>
     <use xlink:href="#DejaVuSans-73" transform="translate(825.048828 0.015625)"/>
     <use xlink:href="#DejaVuSans-Oblique-74" transform="translate(893.384114 0.015625)"/>
     <use xlink:href="#DejaVuSans-2c" transform="translate(932.593098 0.015625)"/>
     <use xlink:href="#DejaVuSans-Oblique-61" transform="translate(983.862629 0.015625)"/>
     <use xlink:href="#DejaVuSans-73" transform="translate(1045.141926 0.015625)"/>
     <use xlink:href="#DejaVuSans-69" transform="translate(1097.241536 0.015625)"/>
     <use xlink:href="#DejaVuSans-6e" transform="translate(1125.024739 0.015625)"/>
     <use xlink:href="#DejaVuSans-Oblique-74" transform="translate(1204.639321 0.015625)"/>
     <use xlink:href="#DejaVuSans-2c" transform="translate(1243.848306 0.015625)"/>
     <use xlink:href="#DejaVuSans-Oblique-62" transform="translate(1295.117837 0.015625)"/>
     <use xlink:href="#DejaVuSans-Oblique-74" transform="translate(1358.594399 0.015625)"/>
     <use xlink:href="#DejaVuSans-27e9" transform="translate(1397.803384 0.015625)"/>
    </g>
   </g>
  </g>
  <g id="text_40">
   <!-- Funciones Vectoriales y Curvas en el Espacio -->
   <g style="fill: #2c2f33" transform="translate(349.369889 17.564375) scale(0.14 -0.14)">
    <defs>
     <path id="SegoeUI-Bold-6e" d="M 3506 0 
L 2522 0 
L 2522 1778 
Q 2522 2522 1991 2522 
Q 1734 2522 1568 2325 
Q 1403 2128 1403 1825 
L 1403 0 
L 416 0 
L 416 3200 
L 1403 3200 
L 1403 2694 
L 1416 2694 
Q 1769 3278 2444 3278 
Q 3506 3278 3506 1959 
L 3506 0 
z
" transform="scale(0.015625)"/>
     <path id="SegoeUI-Bold-6f" d="M 1941 -78 
Q 1141 -78 683 370 
Q 225 819 225 1588 
Q 225 2381 700 2829 
Q 1175 3278 1984 3278 
Q 2781 3278 3234 2829 
Q 3688 2381 3688 1644 
Q 3688 847 3220 384 
Q 2753 -78 1941 -78 
z
M 1966 2522 
Q 1616 2522 1422 2281 
Q 1228 2041 1228 1600 
Q 1228 678 1972 678 
Q 2681 678 2681 1625 
Q 2681 2522 1966 2522 
z
" transform="scale(0.015625)"/>
     <path id="SegoeUI-Bold-73" d="M 206 84 
L 206 884 
Q 450 738 692 666 
Q 934 594 1150 594 
Q 1413 594 1564 666 
Q 1716 738 1716 884 
Q 1716 978 1647 1040 
Q 1578 1103 1470 1150 
Q 1363 1197 1234 1234 
Q 1106 1272 988 1319 
Q 797 1391 651 1473 
Q 506 1556 407 1665 
Q 309 1775 257 1919 
Q 206 2063 206 2259 
Q 206 2528 323 2722 
Q 441 2916 636 3039 
Q 831 3163 1082 3220 
Q 1334 3278 1606 3278 
Q 1819 3278 2037 3245 
Q 2256 3213 2469 3150 
L 2469 2388 
Q 2281 2497 2067 2551 
Q 1853 2606 1647 2606 
Q 1550 2606 1464 2589 
Q 1378 2572 1312 2539 
Q 1247 2506 1209 2454 
Q 1172 2403 1172 2338 
Q 1172 2250 1228 2187 
Q 1284 2125 1375 2079 
Q 1466 2034 1577 1998 
Q 1688 1963 1797 1925 
Q 1994 1856 2153 1775 
Q 2313 1694 2427 1584 
Q 2541 1475 2602 1328 
Q 2663 1181 2663 978 
Q 2663 694 2539 492 
Q 2416 291 2211 164 
Q 2006 38 1739 -20 
Q 1472 -78 1184 -78 
Q 656 -78 206 84 
z
" transform="scale(0.015625)"/>
     <path id="SegoeUI-Bold-74" d="M 2350 38 
Q 2131 -78 1691 -78 
Q 647 -78 647 1006 
L 647 2472 
L 128 2472 
L 128 3200 
L 647 3200 
L 647 3891 
L 1631 4172 
L 1631 3200 
L 2350 3200 
L 2350 2472 
L 1631 2472 
L 1631 1178 
Q 1631 678 2028 678 
Q 2184 678 2350 769 
L 2350 38 
z
" transform="scale(0.015625)"/>
     <path id="SegoeUI-Bold-79" d="M 3463 3200 
L 2163 -256 
Q 1694 -1503 750 -1503 
Q 391 -1503 159 -1422 
L 159 -634 
Q 356 -750 588 -750 
Q 969 -750 1119 -391 
L 1288 6 
L -13 3200 
L 1081 3200 
L 1678 1253 
Q 1734 1072 1766 825 
L 1778 825 
Q 1806 1006 1881 1247 
L 2484 3200 
L 3463 3200 
z
" transform="scale(0.015625)"/>
     <path id="SegoeUI-Bold-76" d="M 3463 3200 
L 2272 0 
L 1147 0 
L 13 3200 
L 1069 3200 
L 1625 1228 
Q 1719 894 1734 659 
L 1747 659 
Q 1769 881 1863 1209 
L 2431 3200 
L 3463 3200 
z
" transform="scale(0.015625)"/>
     <path id="SegoeUI-Bold-70" d="M 1416 372 
L 1403 372 
L 1403 -1472 
L 416 -1472 
L 416 3200 
L 1403 3200 
L 1403 2719 
L 1416 2719 
Q 1781 3278 2444 3278 
Q 3066 3278 3405 2851 
Q 3744 2425 3744 1691 
Q 3744 891 3348 406 
Q 2953 -78 2297 -78 
Q 1719 -78 1416 372 
z
M 1388 1684 
L 1388 1428 
Q 1388 1097 1563 887 
Q 1738 678 2022 678 
Q 2359 678 2545 939 
Q 2731 1200 2731 1678 
Q 2731 2522 2075 2522 
Q 1772 2522 1580 2292 
Q 1388 2063 1388 1684 
z
" transform="scale(0.015625)"/>
    </defs>
    <use xlink:href="#SegoeUI-Bold-46"/>
    <use xlink:href="#SegoeUI-Bold-75" x="52.001953"/>
    <use xlink:href="#SegoeUI-Bold-6e" x="112.5"/>
    <use xlink:href="#SegoeUI-Bold-63" x="172.998047"/>
    <use xlink:href="#SegoeUI-Bold-69" x="220.996094"/>
    <use xlink:href="#SegoeUI-Bold-6f" x="249.414062"/>
    <use xlink:href="#SegoeUI-Bold-6e" x="310.546875"/>
    <use xlink:href="#SegoeUI-Bold-65" x="371.044922"/>
    <use xlink:href="#SegoeUI-Bold-73" x="425.146484"/>
    <use xlink:href="#SegoeUI-Bold-20" x="469.140625"/>
    <use xlink:href="#SegoeUI-Bold-56" x="496.728516"/>
    <use xlink:href="#SegoeUI-Bold-65" x="556.927734"/>
    <use xlink:href="#SegoeUI-Bold-63" x="611.029297"/>
    <use xlink:href="#SegoeUI-Bold-74" x="659.027344"/>
    <use xlink:href="#SegoeUI-Bold-6f" x="697.568359"/>
    <use xlink:href="#SegoeUI-Bold-72" x="758.701172"/>
    <use xlink:href="#SegoeUI-Bold-69" x="798.871094"/>
    <use xlink:href="#SegoeUI-Bold-61" x="827.289062"/>
    <use xlink:href="#SegoeUI-Bold-6c" x="881.097656"/>
    <use xlink:href="#SegoeUI-Bold-65" x="909.515625"/>
    <use xlink:href="#SegoeUI-Bold-73" x="963.617188"/>
    <use xlink:href="#SegoeUI-Bold-20" x="1007.611328"/>
    <use xlink:href="#SegoeUI-Bold-79" x="1035.199219"/>
    <use xlink:href="#SegoeUI-Bold-20" x="1089.007812"/>
    <use xlink:href="#SegoeUI-Bold-43" x="1116.595703"/>
    <use xlink:href="#SegoeUI-Bold-75" x="1178.998047"/>
    <use xlink:href="#SegoeUI-Bold-72" x="1239.496094"/>
    <use xlink:href="#SegoeUI-Bold-76" x="1283.291016"/>
    <use xlink:href="#SegoeUI-Bold-61" x="1335.990234"/>
    <use xlink:href="#SegoeUI-Bold-73" x="1389.798828"/>
    <use xlink:href="#SegoeUI-Bold-20" x="1433.792969"/>
    <use xlink:href="#SegoeUI-Bold-65" x="1461.380859"/>
    <use xlink:href="#SegoeUI-Bold-6e" x="1515.482422"/>
    <use xlink:href="#SegoeUI-Bold-20" x="1575.980469"/>
    <use xlink:href="#SegoeUI-Bold-65" x="1603.568359"/>
    <use xlink:href="#SegoeUI-Bold-6c" x="1657.669922"/>
    <use xlink:href="#SegoeUI-Bold-20" x="1686.087891"/>
    <use xlink:href="#SegoeUI-Bold-45" x="1713.675781"/>
    <use xlink:href="#SegoeUI-Bold-73" x="1766.898438"/>
    <use xlink:href="#SegoeUI-Bold-70" x="1810.892578"/>
    <use xlink:href="#SegoeUI-Bold-61" x="1871.904297"/>
    <use xlink:href="#SegoeUI-Bold-63" x="1925.712891"/>
    <use xlink:href="#SegoeUI-Bold-69" x="1973.710938"/>
    <use xlink:href="#SegoeUI-Bold-6f" x="2002.128906"/>
   </g>
  </g>
 </g>
 <defs>
  <clipPath id="pbf42653c9b">
   <rect x="7.2" y="44.996105" width="532.203415" height="532.203415"/>
  </clipPath>
  <clipPath id="pa40e1e0862">
   <rect x="594.111567" y="44.996105" width="400.6998" height="532.203415"/>
  </clipPath>
 </defs>
</svg>
