<?xml version="1.0" encoding="utf-8" standalone="no"?>
<!DOCTYPE svg PUBLIC "-//W3C//DTD SVG 1.1//EN"
  "http://www.w3.org/Graphics/SVG/1.1/DTD/svg11.dtd">
<svg xmlns:xlink="http://www.w3.org/1999/xlink" width="1014.028424pt" height="588.963537pt" viewBox="0 0 1014.028424 588.963537" xmlns="http://www.w3.org/2000/svg" version="1.1">
 <metadata>
  <rdf:RDF xmlns:dc="http://purl.org/dc/elements/1.1/" xmlns:cc="http://creativecommons.org/ns#" xmlns:rdf="http://www.w3.org/1999/02/22-rdf-syntax-ns#">
   <cc:Work>
    <dc:type rdf:resource="http://purl.org/dc/dcmitype/StillImage"/>
    <dc:date>2026-04-11T16:11:56.366057</dc:date>
    <dc:format>image/svg+xml</dc:format>
    <dc:creator>
     <cc:Agent>
      <dc:title>Matplotlib v3.8.4, https://matplotlib.org/</dc:title>
     </cc:Agent>
    </dc:creator>
   </cc:Work>
  </rdf:RDF>
 </metadata>
 <defs>
  <style type="text/css">*{stroke-linejoin: round; stroke-linecap: butt}</style>
 </defs>
 <g id="figure_1">
  <g id="patch_1">
   <path d="M 0 588.963537 
L 1014.028424 588.963537 
L 1014.028424 0 
L 0 0 
z
" style="fill: #ffffff"/>
  </g>
  <g id="axes_1">
   <g id="patch_2">
    <path d="M 41.104688 550.386975 
L 555.059574 550.386975 
L 555.059574 36.432088 
L 41.104688 36.432088 
z
" style="fill: #ffffff"/>
   </g>
   <g id="matplotlib.axis_1">
    <g id="xtick_1">
     <g id="line2d_1">
      <path d="M 41.104688 550.386975 
L 41.104688 36.432088 
" clip-path="url(#pc6264a9b24)" style="fill: none; stroke-dasharray: 2.96,1.28; stroke-dashoffset: 0; stroke: #b0b0b0; stroke-opacity: 0.3; stroke-width: 0.8"/>
     </g>
     <g id="line2d_2">
      <defs>
       <path id="mcb3dfdf63e" d="M 0 0 
L 0 3.5 
" style="stroke: #2c2f33; stroke-width: 0.8"/>
      </defs>
      <g>
       <use xlink:href="#mcb3dfdf63e" x="41.104688" y="550.386975" style="fill: #2c2f33; stroke: #2c2f33; stroke-width: 0.8"/>
      </g>
     </g>
     <g id="text_1">
      <!-- −2 -->
      <g style="fill: #2c2f33" transform="translate(34.989063 564.7901) scale(0.1 -0.1)">
       <defs>
        <path id="SegoeUI-2212" d="M 3663 1656 
L 725 1656 
L 725 2075 
L 3663 2075 
L 3663 1656 
z
" transform="scale(0.015625)"/>
        <path id="SegoeUI-32" d="M 2413 3306 
Q 2413 3513 2348 3666 
Q 2284 3819 2173 3920 
Q 2063 4022 1913 4072 
Q 1763 4122 1588 4122 
Q 1438 4122 1294 4081 
Q 1150 4041 1014 3969 
Q 878 3897 751 3797 
Q 625 3697 516 3575 
L 516 4125 
Q 731 4334 998 4445 
Q 1266 4556 1650 4556 
Q 1925 4556 2159 4476 
Q 2394 4397 2566 4244 
Q 2738 4091 2836 3866 
Q 2934 3641 2934 3350 
Q 2934 3084 2873 2868 
Q 2813 2653 2689 2462 
Q 2566 2272 2378 2097 
Q 2191 1922 1938 1741 
Q 1622 1516 1417 1356 
Q 1213 1197 1092 1058 
Q 972 919 923 780 
Q 875 641 875 459 
L 3106 459 
L 3106 0 
L 341 0 
L 341 222 
Q 341 509 403 728 
Q 466 947 609 1144 
Q 753 1341 986 1537 
Q 1219 1734 1556 1981 
Q 1800 2156 1964 2315 
Q 2128 2475 2228 2634 
Q 2328 2794 2370 2958 
Q 2413 3122 2413 3306 
z
" transform="scale(0.015625)"/>
       </defs>
       <use xlink:href="#SegoeUI-2212"/>
       <use xlink:href="#SegoeUI-32" x="68.408203"/>
      </g>
     </g>
    </g>
    <g id="xtick_2">
     <g id="line2d_3">
      <path d="M 134.551031 550.386975 
L 134.551031 36.432088 
" clip-path="url(#pc6264a9b24)" style="fill: none; stroke-dasharray: 2.96,1.28; stroke-dashoffset: 0; stroke: #b0b0b0; stroke-opacity: 0.3; stroke-width: 0.8"/>
     </g>
     <g id="line2d_4">
      <g>
       <use xlink:href="#mcb3dfdf63e" x="134.551031" y="550.386975" style="fill: #2c2f33; stroke: #2c2f33; stroke-width: 0.8"/>
      </g>
     </g>
     <g id="text_2">
      <!-- −1 -->
      <g style="fill: #2c2f33" transform="translate(128.435406 564.7901) scale(0.1 -0.1)">
       <defs>
        <path id="SegoeUI-31" d="M 2263 0 
L 1750 0 
L 1750 3872 
Q 1691 3813 1577 3736 
Q 1463 3659 1320 3584 
Q 1178 3509 1020 3443 
Q 863 3378 713 3341 
L 713 3859 
Q 881 3906 1070 3986 
Q 1259 4066 1442 4164 
Q 1625 4263 1787 4370 
Q 1950 4478 2069 4581 
L 2263 4581 
L 2263 0 
z
" transform="scale(0.015625)"/>
       </defs>
       <use xlink:href="#SegoeUI-2212"/>
       <use xlink:href="#SegoeUI-31" x="68.408203"/>
      </g>
     </g>
    </g>
    <g id="xtick_3">
     <g id="line2d_5">
      <path d="M 227.997374 550.386975 
L 227.997374 36.432088 
" clip-path="url(#pc6264a9b24)" style="fill: none; stroke-dasharray: 2.96,1.28; stroke-dashoffset: 0; stroke: #b0b0b0; stroke-opacity: 0.3; stroke-width: 0.8"/>
     </g>
     <g id="line2d_6">
      <g>
       <use xlink:href="#mcb3dfdf63e" x="227.997374" y="550.386975" style="fill: #2c2f33; stroke: #2c2f33; stroke-width: 0.8"/>
      </g>
     </g>
     <g id="text_3">
      <!-- 0 -->
      <g style="fill: #2c2f33" transform="translate(225.302061 564.7901) scale(0.1 -0.1)">
       <defs>
        <path id="SegoeUI-30" d="M 3188 2259 
Q 3188 1697 3086 1262 
Q 2984 828 2792 529 
Q 2600 231 2320 76 
Q 2041 -78 1684 -78 
Q 1347 -78 1083 70 
Q 819 219 637 503 
Q 456 788 362 1202 
Q 269 1616 269 2150 
Q 269 2738 367 3188 
Q 466 3638 656 3942 
Q 847 4247 1130 4401 
Q 1413 4556 1778 4556 
Q 3188 4556 3188 2259 
z
M 2663 2209 
Q 2663 4122 1753 4122 
Q 794 4122 794 2175 
Q 794 359 1734 359 
Q 2663 359 2663 2209 
z
" transform="scale(0.015625)"/>
       </defs>
       <use xlink:href="#SegoeUI-30"/>
      </g>
     </g>
    </g>
    <g id="xtick_4">
     <g id="line2d_7">
      <path d="M 321.443717 550.386975 
L 321.443717 36.432088 
" clip-path="url(#pc6264a9b24)" style="fill: none; stroke-dasharray: 2.96,1.28; stroke-dashoffset: 0; stroke: #b0b0b0; stroke-opacity: 0.3; stroke-width: 0.8"/>
     </g>
     <g id="line2d_8">
      <g>
       <use xlink:href="#mcb3dfdf63e" x="321.443717" y="550.386975" style="fill: #2c2f33; stroke: #2c2f33; stroke-width: 0.8"/>
      </g>
     </g>
     <g id="text_4">
      <!-- 1 -->
      <g style="fill: #2c2f33" transform="translate(318.748404 564.7901) scale(0.1 -0.1)">
       <use xlink:href="#SegoeUI-31"/>
      </g>
     </g>
    </g>
    <g id="xtick_5">
     <g id="line2d_9">
      <path d="M 414.89006 550.386975 
L 414.89006 36.432088 
" clip-path="url(#pc6264a9b24)" style="fill: none; stroke-dasharray: 2.96,1.28; stroke-dashoffset: 0; stroke: #b0b0b0; stroke-opacity: 0.3; stroke-width: 0.8"/>
     </g>
     <g id="line2d_10">
      <g>
       <use xlink:href="#mcb3dfdf63e" x="414.89006" y="550.386975" style="fill: #2c2f33; stroke: #2c2f33; stroke-width: 0.8"/>
      </g>
     </g>
     <g id="text_5">
      <!-- 2 -->
      <g style="fill: #2c2f33" transform="translate(412.194747 564.7901) scale(0.1 -0.1)">
       <use xlink:href="#SegoeUI-32"/>
      </g>
     </g>
    </g>
    <g id="xtick_6">
     <g id="line2d_11">
      <path d="M 508.336403 550.386975 
L 508.336403 36.432088 
" clip-path="url(#pc6264a9b24)" style="fill: none; stroke-dasharray: 2.96,1.28; stroke-dashoffset: 0; stroke: #b0b0b0; stroke-opacity: 0.3; stroke-width: 0.8"/>
     </g>
     <g id="line2d_12">
      <g>
       <use xlink:href="#mcb3dfdf63e" x="508.336403" y="550.386975" style="fill: #2c2f33; stroke: #2c2f33; stroke-width: 0.8"/>
      </g>
     </g>
     <g id="text_6">
      <!-- 3 -->
      <g style="fill: #2c2f33" transform="translate(505.64109 564.7901) scale(0.1 -0.1)">
       <defs>
        <path id="SegoeUI-33" d="M 2978 1269 
Q 2978 966 2864 717 
Q 2750 469 2542 292 
Q 2334 116 2043 19 
Q 1753 -78 1403 -78 
Q 763 -78 384 166 
L 384 716 
Q 838 359 1422 359 
Q 1656 359 1845 418 
Q 2034 478 2170 590 
Q 2306 703 2379 862 
Q 2453 1022 2453 1222 
Q 2453 2100 1203 2100 
L 831 2100 
L 831 2534 
L 1184 2534 
Q 2291 2534 2291 3359 
Q 2291 4122 1447 4122 
Q 972 4122 556 3803 
L 556 4300 
Q 984 4556 1575 4556 
Q 1856 4556 2084 4478 
Q 2313 4400 2475 4259 
Q 2638 4119 2727 3922 
Q 2816 3725 2816 3488 
Q 2816 2603 1922 2350 
L 1922 2338 
Q 2150 2313 2344 2227 
Q 2538 2141 2678 2003 
Q 2819 1866 2898 1680 
Q 2978 1494 2978 1269 
z
" transform="scale(0.015625)"/>
       </defs>
       <use xlink:href="#SegoeUI-33"/>
      </g>
     </g>
    </g>
    <g id="text_7">
     <!-- x -->
     <g style="fill: #2c2f33" transform="translate(295.557287 579.233537) scale(0.11 -0.11)">
      <defs>
       <path id="SegoeUI-78" d="M 2856 3200 
L 1781 1581 
L 2838 0 
L 2241 0 
L 1613 1038 
Q 1553 1134 1472 1281 
L 1459 1281 
Q 1444 1253 1313 1038 
L 672 0 
L 81 0 
L 1172 1569 
L 128 3200 
L 725 3200 
L 1344 2106 
Q 1413 1984 1478 1856 
L 1491 1856 
L 2291 3200 
L 2856 3200 
z
" transform="scale(0.015625)"/>
      </defs>
      <use xlink:href="#SegoeUI-78"/>
     </g>
    </g>
   </g>
   <g id="matplotlib.axis_2">
    <g id="ytick_1">
     <g id="line2d_13">
      <path d="M 41.104688 503.663803 
L 555.059574 503.663803 
" clip-path="url(#pc6264a9b24)" style="fill: none; stroke-dasharray: 2.96,1.28; stroke-dashoffset: 0; stroke: #b0b0b0; stroke-opacity: 0.3; stroke-width: 0.8"/>
     </g>
     <g id="line2d_14">
      <defs>
       <path id="m527df6c367" d="M 0 0 
L -3.5 0 
" style="stroke: #2c2f33; stroke-width: 0.8"/>
      </defs>
      <g>
       <use xlink:href="#m527df6c367" x="41.104688" y="503.663803" style="fill: #2c2f33; stroke: #2c2f33; stroke-width: 0.8"/>
      </g>
     </g>
     <g id="text_8">
      <!-- −1 -->
      <g style="fill: #2c2f33" transform="translate(21.873438 507.365366) scale(0.1 -0.1)">
       <use xlink:href="#SegoeUI-2212"/>
       <use xlink:href="#SegoeUI-31" x="68.408203"/>
      </g>
     </g>
    </g>
    <g id="ytick_2">
     <g id="line2d_15">
      <path d="M 41.104688 410.21746 
L 555.059574 410.21746 
" clip-path="url(#pc6264a9b24)" style="fill: none; stroke-dasharray: 2.96,1.28; stroke-dashoffset: 0; stroke: #b0b0b0; stroke-opacity: 0.3; stroke-width: 0.8"/>
     </g>
     <g id="line2d_16">
      <g>
       <use xlink:href="#m527df6c367" x="41.104688" y="410.21746" style="fill: #2c2f33; stroke: #2c2f33; stroke-width: 0.8"/>
      </g>
     </g>
     <g id="text_9">
      <!-- 0 -->
      <g style="fill: #2c2f33" transform="translate(28.714063 413.919023) scale(0.1 -0.1)">
       <use xlink:href="#SegoeUI-30"/>
      </g>
     </g>
    </g>
    <g id="ytick_3">
     <g id="line2d_17">
      <path d="M 41.104688 316.771117 
L 555.059574 316.771117 
" clip-path="url(#pc6264a9b24)" style="fill: none; stroke-dasharray: 2.96,1.28; stroke-dashoffset: 0; stroke: #b0b0b0; stroke-opacity: 0.3; stroke-width: 0.8"/>
     </g>
     <g id="line2d_18">
      <g>
       <use xlink:href="#m527df6c367" x="41.104688" y="316.771117" style="fill: #2c2f33; stroke: #2c2f33; stroke-width: 0.8"/>
      </g>
     </g>
     <g id="text_10">
      <!-- 1 -->
      <g style="fill: #2c2f33" transform="translate(28.714063 320.47268) scale(0.1 -0.1)">
       <use xlink:href="#SegoeUI-31"/>
      </g>
     </g>
    </g>
    <g id="ytick_4">
     <g id="line2d_19">
      <path d="M 41.104688 223.324774 
L 555.059574 223.324774 
" clip-path="url(#pc6264a9b24)" style="fill: none; stroke-dasharray: 2.96,1.28; stroke-dashoffset: 0; stroke: #b0b0b0; stroke-opacity: 0.3; stroke-width: 0.8"/>
     </g>
     <g id="line2d_20">
      <g>
       <use xlink:href="#m527df6c367" x="41.104688" y="223.324774" style="fill: #2c2f33; stroke: #2c2f33; stroke-width: 0.8"/>
      </g>
     </g>
     <g id="text_11">
      <!-- 2 -->
      <g style="fill: #2c2f33" transform="translate(28.714063 227.026336) scale(0.1 -0.1)">
       <use xlink:href="#SegoeUI-32"/>
      </g>
     </g>
    </g>
    <g id="ytick_5">
     <g id="line2d_21">
      <path d="M 41.104688 129.878431 
L 555.059574 129.878431 
" clip-path="url(#pc6264a9b24)" style="fill: none; stroke-dasharray: 2.96,1.28; stroke-dashoffset: 0; stroke: #b0b0b0; stroke-opacity: 0.3; stroke-width: 0.8"/>
     </g>
     <g id="line2d_22">
      <g>
       <use xlink:href="#m527df6c367" x="41.104688" y="129.878431" style="fill: #2c2f33; stroke: #2c2f33; stroke-width: 0.8"/>
      </g>
     </g>
     <g id="text_12">
      <!-- 3 -->
      <g style="fill: #2c2f33" transform="translate(28.714063 133.579993) scale(0.1 -0.1)">
       <use xlink:href="#SegoeUI-33"/>
      </g>
     </g>
    </g>
    <g id="ytick_6">
     <g id="line2d_23">
      <path d="M 41.104688 36.432088 
L 555.059574 36.432088 
" clip-path="url(#pc6264a9b24)" style="fill: none; stroke-dasharray: 2.96,1.28; stroke-dashoffset: 0; stroke: #b0b0b0; stroke-opacity: 0.3; stroke-width: 0.8"/>
     </g>
     <g id="line2d_24">
      <g>
       <use xlink:href="#m527df6c367" x="41.104688" y="36.432088" style="fill: #2c2f33; stroke: #2c2f33; stroke-width: 0.8"/>
      </g>
     </g>
     <g id="text_13">
      <!-- 4 -->
      <g style="fill: #2c2f33" transform="translate(28.714063 40.13365) scale(0.1 -0.1)">
       <defs>
        <path id="SegoeUI-34" d="M 2656 4481 
L 2656 1522 
L 3231 1522 
L 3231 1053 
L 2656 1053 
L 2656 0 
L 2150 0 
L 2150 1053 
L 44 1053 
L 44 1497 
Q 338 1828 638 2204 
Q 938 2581 1211 2968 
Q 1484 3356 1717 3742 
Q 1950 4128 2109 4481 
L 2656 4481 
z
M 622 1522 
L 2150 1522 
L 2150 3716 
Q 1916 3306 1706 2984 
Q 1497 2663 1308 2400 
Q 1119 2138 947 1925 
Q 775 1713 622 1522 
z
" transform="scale(0.015625)"/>
       </defs>
       <use xlink:href="#SegoeUI-34"/>
      </g>
     </g>
    </g>
    <g id="text_14">
     <!-- y -->
     <g style="fill: #2c2f33" transform="translate(15.285 296.071016) rotate(-90) scale(0.11 -0.11)">
      <defs>
       <path id="SegoeUI-79" d="M 3066 3200 
L 1594 -513 
Q 1200 -1506 488 -1506 
Q 288 -1506 153 -1466 
L 153 -1006 
Q 319 -1063 456 -1063 
Q 844 -1063 1038 -600 
L 1294 6 
L 44 3200 
L 613 3200 
L 1478 738 
Q 1494 691 1544 494 
L 1563 494 
Q 1578 569 1625 731 
L 2534 3200 
L 3066 3200 
z
" transform="scale(0.015625)"/>
      </defs>
      <use xlink:href="#SegoeUI-79"/>
     </g>
    </g>
   </g>
   <g id="line2d_25">
    <path d="M 87.827859 462.781028 
L 91.584496 458.667065 
L 95.341133 454.773562 
L 99.09777 451.094447 
L 102.854407 447.62365 
L 106.611044 444.355098 
L 112.245999 439.818202 
L 117.880954 435.70221 
L 123.51591 431.98663 
L 129.150865 428.650974 
L 134.78582 425.67475 
L 140.420776 423.037469 
L 146.055731 420.718641 
L 151.690686 418.697774 
L 157.325642 416.954379 
L 162.960597 415.467966 
L 168.595552 414.218044 
L 174.230508 413.184124 
L 179.865463 412.345714 
L 187.378737 411.496547 
L 194.892011 410.909959 
L 202.405285 410.53738 
L 211.796877 410.298614 
L 224.945106 410.218003 
L 245.606609 410.113241 
L 254.998201 409.841748 
L 262.511475 409.432742 
L 270.024749 408.80062 
L 277.538023 407.896812 
L 283.172978 407.011446 
L 288.807933 405.925446 
L 294.442889 404.618322 
L 300.077844 403.069585 
L 305.7128 401.258743 
L 311.347755 399.165307 
L 316.98271 396.768786 
L 322.617666 394.04869 
L 328.252621 390.984529 
L 333.887576 387.555813 
L 339.522532 383.742051 
L 343.279169 380.975511 
L 347.035805 378.022661 
L 350.792442 374.87743 
L 354.549079 371.533748 
L 358.305716 367.985543 
L 362.062353 364.226744 
L 365.81899 360.25128 
L 369.575627 356.05308 
L 373.332264 351.626071 
L 377.088901 346.964185 
L 380.845538 342.061348 
L 384.602175 336.91149 
L 390.23713 328.710258 
L 395.872085 319.919078 
L 401.507041 310.51746 
L 407.141996 300.484914 
L 412.776951 289.800949 
L 418.411907 278.445075 
L 424.046862 266.396802 
L 429.681817 253.635641 
L 435.316773 240.141099 
L 440.951728 225.892688 
L 446.586683 210.869917 
L 452.221639 195.052296 
L 457.856594 178.419335 
L 461.613231 166.867608 
L 461.613231 166.867608 
" clip-path="url(#pc6264a9b24)" style="fill: none; stroke: #39c5bb; stroke-width: 3; stroke-linecap: square"/>
   </g>
   <g id="line2d_26">
    <path d="M 400.699899 265.064141 
L 400.406557 255.823258 
L 399.527713 246.619586 
L 398.066905 237.490183 
L 396.030016 228.471811 
L 393.425247 219.600783 
L 390.263087 210.91282 
L 386.556269 202.442906 
L 382.319719 194.225145 
L 377.570496 186.292627 
L 372.327723 178.677295 
L 366.612511 171.409812 
L 360.447874 164.519442 
L 353.858633 158.03393 
L 346.871323 151.979391 
L 339.514077 146.380204 
L 331.816522 141.258916 
L 323.809652 136.636147 
L 315.525708 132.530513 
L 306.998048 128.958545 
L 298.261008 125.934626 
L 289.349769 123.470933 
L 280.300215 121.577385 
L 271.148784 120.261608 
L 261.932327 119.528899 
L 252.687954 119.38221 
L 243.452889 119.82213 
L 234.264318 120.846889 
L 225.159242 122.45236 
L 216.174322 124.632078 
L 207.345738 127.377266 
L 198.70904 130.676871 
L 190.299003 134.517606 
L 182.149494 138.884005 
L 174.293326 143.758488 
L 166.762134 149.121425 
L 159.586243 154.951223 
L 152.794548 161.224407 
L 146.414397 167.915717 
L 140.471481 174.998209 
L 134.989728 182.443365 
L 129.991214 190.221206 
L 125.496064 198.300413 
L 121.522379 206.648453 
L 118.08616 215.231713 
L 115.201243 224.015631 
L 112.879245 232.964836 
L 111.129516 242.043294 
L 109.959101 251.214449 
L 109.372713 260.441372 
L 109.372713 269.686909 
L 109.959101 278.913832 
L 111.129516 288.084987 
L 112.879245 297.163445 
L 115.201243 306.11265 
L 118.08616 314.896568 
L 121.522379 323.479828 
L 125.496064 331.827868 
L 129.991214 339.907075 
L 134.989728 347.684916 
L 140.471481 355.130072 
L 146.414397 362.212564 
L 152.794548 368.903874 
L 159.586243 375.177058 
L 166.762134 381.006856 
L 174.293326 386.369793 
L 182.149494 391.244276 
L 190.299003 395.610675 
L 198.70904 399.45141 
L 207.345738 402.751015 
L 216.174322 405.496203 
L 225.159242 407.675921 
L 234.264318 409.281392 
L 243.452889 410.306151 
L 252.687954 410.746071 
L 261.932327 410.599382 
L 271.148784 409.866673 
L 280.300215 408.550896 
L 289.349769 406.657348 
L 298.261008 404.193655 
L 306.998048 401.169736 
L 315.525708 397.597768 
L 323.809652 393.492134 
L 331.816522 388.869365 
L 339.514077 383.748077 
L 346.871323 378.14889 
L 353.858633 372.094351 
L 360.447874 365.608839 
L 366.612511 358.718469 
L 372.327723 351.450986 
L 377.570496 343.835654 
L 382.319719 335.903136 
L 386.556269 327.685375 
L 390.263087 319.215461 
L 393.425247 310.527498 
L 396.030016 301.65647 
L 398.066905 292.638098 
L 399.527713 283.508695 
L 400.406557 274.305023 
L 400.699899 265.064141 
" clip-path="url(#pc6264a9b24)" style="fill: none; stroke-dasharray: 7.4,3.2; stroke-dashoffset: 0; stroke: #dc2626; stroke-opacity: 0.8; stroke-width: 2"/>
   </g>
   <g id="line2d_27">
    <path d="M 340.132985 383.304913 
L 254.999629 265.064141 
" clip-path="url(#pc6264a9b24)" style="fill: none; stroke: #f59e0b; stroke-width: 2; stroke-linecap: square"/>
   </g>
   <g id="patch_3">
    <path d="M 41.104688 550.386975 
L 41.104688 36.432088 
" style="fill: none; stroke: #4b5563; stroke-width: 0.8; stroke-linejoin: miter; stroke-linecap: square"/>
   </g>
   <g id="patch_4">
    <path d="M 41.104688 550.386975 
L 555.059574 550.386975 
" style="fill: none; stroke: #4b5563; stroke-width: 0.8; stroke-linejoin: miter; stroke-linecap: square"/>
   </g>
   <g id="text_15">
    <!-- P -->
    <g style="fill: #1f2937" transform="translate(354.149937 411.338816) scale(0.12 -0.12)">
     <defs>
      <path id="SegoeUI-Bold-50" d="M 1522 1544 
L 1522 0 
L 513 0 
L 513 4481 
L 2094 4481 
Q 3788 4481 3788 3053 
Q 3788 2378 3302 1961 
Q 2816 1544 2003 1544 
L 1522 1544 
z
M 1522 3706 
L 1522 2309 
L 1919 2309 
Q 2725 2309 2725 3016 
Q 2725 3706 1919 3706 
L 1522 3706 
z
" transform="scale(0.015625)"/>
     </defs>
     <use xlink:href="#SegoeUI-Bold-50"/>
    </g>
   </g>
   <g id="text_16">
    <!-- Centro -->
    <g style="fill: #dc2626" transform="translate(269.01658 251.047189) scale(0.1 -0.1)">
     <defs>
      <path id="SegoeUI-43" d="M 3638 188 
Q 3141 -75 2400 -75 
Q 1444 -75 869 540 
Q 294 1156 294 2156 
Q 294 3231 941 3893 
Q 1588 4556 2581 4556 
Q 3219 4556 3638 4372 
L 3638 3813 
Q 3156 4081 2575 4081 
Q 1803 4081 1323 3565 
Q 844 3050 844 2188 
Q 844 1369 1292 883 
Q 1741 397 2469 397 
Q 3144 397 3638 697 
L 3638 188 
z
" transform="scale(0.015625)"/>
      <path id="SegoeUI-65" d="M 3091 1472 
L 831 1472 
Q 844 938 1119 647 
Q 1394 356 1875 356 
Q 2416 356 2869 713 
L 2869 231 
Q 2447 -75 1753 -75 
Q 1075 -75 687 361 
Q 300 797 300 1588 
Q 300 2334 723 2804 
Q 1147 3275 1775 3275 
Q 2403 3275 2747 2869 
Q 3091 2463 3091 1741 
L 3091 1472 
z
M 2566 1906 
Q 2563 2350 2352 2597 
Q 2141 2844 1766 2844 
Q 1403 2844 1150 2584 
Q 897 2325 838 1906 
L 2566 1906 
z
" transform="scale(0.015625)"/>
      <path id="SegoeUI-6e" d="M 3175 0 
L 2663 0 
L 2663 1825 
Q 2663 2844 1919 2844 
Q 1534 2844 1282 2555 
Q 1031 2266 1031 1825 
L 1031 0 
L 519 0 
L 519 3200 
L 1031 3200 
L 1031 2669 
L 1044 2669 
Q 1406 3275 2094 3275 
Q 2619 3275 2897 2936 
Q 3175 2597 3175 1956 
L 3175 0 
z
" transform="scale(0.015625)"/>
      <path id="SegoeUI-74" d="M 2003 31 
Q 1822 -69 1525 -69 
Q 684 -69 684 869 
L 684 2763 
L 134 2763 
L 134 3200 
L 684 3200 
L 684 3981 
L 1197 4147 
L 1197 3200 
L 2003 3200 
L 2003 2763 
L 1197 2763 
L 1197 959 
Q 1197 638 1306 500 
Q 1416 363 1669 363 
Q 1863 363 2003 469 
L 2003 31 
z
" transform="scale(0.015625)"/>
      <path id="SegoeUI-72" d="M 2188 2681 
Q 2053 2784 1800 2784 
Q 1472 2784 1251 2475 
Q 1031 2166 1031 1631 
L 1031 0 
L 519 0 
L 519 3200 
L 1031 3200 
L 1031 2541 
L 1044 2541 
Q 1153 2878 1378 3067 
Q 1603 3256 1881 3256 
Q 2081 3256 2188 3213 
L 2188 2681 
z
" transform="scale(0.015625)"/>
      <path id="SegoeUI-6f" d="M 1856 -75 
Q 1147 -75 723 373 
Q 300 822 300 1563 
Q 300 2369 740 2822 
Q 1181 3275 1931 3275 
Q 2647 3275 3048 2834 
Q 3450 2394 3450 1613 
Q 3450 847 3017 386 
Q 2584 -75 1856 -75 
z
M 1894 2844 
Q 1400 2844 1112 2508 
Q 825 2172 825 1581 
Q 825 1013 1115 684 
Q 1406 356 1894 356 
Q 2391 356 2658 678 
Q 2925 1000 2925 1594 
Q 2925 2194 2658 2519 
Q 2391 2844 1894 2844 
z
" transform="scale(0.015625)"/>
     </defs>
     <use xlink:href="#SegoeUI-43"/>
     <use xlink:href="#SegoeUI-65" x="61.914062"/>
     <use xlink:href="#SegoeUI-6e" x="114.208984"/>
     <use xlink:href="#SegoeUI-74" x="170.800781"/>
     <use xlink:href="#SegoeUI-72" x="204.6875"/>
     <use xlink:href="#SegoeUI-6f" x="238.078125"/>
    </g>
   </g>
   <g id="text_17">
    <!-- $\rho$ -->
    <g style="fill: #f59e0b" transform="translate(269.532404 324.184527) scale(0.14 -0.14)">
     <defs>
      <path id="DejaVuSans-Oblique-3c1" d="M 1203 2875 
Q 1453 3194 1981 3475 
Q 2188 3584 2756 3584 
Q 3394 3584 3694 3078 
Q 3994 2572 3834 1747 
Q 3672 922 3175 415 
Q 2678 -91 2041 -91 
Q 1656 -91 1409 63 
Q 1163 213 1044 525 
L 681 -1331 
L 103 -1331 
L 697 1716 
Q 838 2438 1203 2875 
z
M 3238 1747 
Q 3359 2381 3169 2744 
Q 2978 3103 2522 3103 
Q 2066 3103 1734 2744 
Q 1403 2381 1281 1747 
Q 1156 1113 1347 750 
Q 1538 391 1994 391 
Q 2450 391 2781 750 
Q 3113 1113 3238 1747 
z
" transform="scale(0.015625)"/>
     </defs>
     <use xlink:href="#DejaVuSans-Oblique-3c1"/>
    </g>
   </g>
   <g id="patch_5">
    <path d="M 341.758548 382.134508 
Q 370.467108 361.464345 396.90736 342.427363 
" style="fill: none; stroke: #39c5bb; stroke-width: 2.5; stroke-linecap: round"/>
    <path d="M 392.492613 343.141514 
L 396.90736 342.427363 
L 394.829832 346.387651 
" style="fill: none; stroke: #39c5bb; stroke-width: 2.5; stroke-linecap: round"/>
   </g>
   <g id="patch_6">
    <path d="M 338.96258 381.67935 
Q 318.292417 352.970791 299.255435 326.530538 
" style="fill: none; stroke: #10b981; stroke-width: 2.5; stroke-linecap: round"/>
    <path d="M 299.969585 330.945285 
L 299.255435 326.530538 
L 303.215723 328.608066 
" style="fill: none; stroke: #10b981; stroke-width: 2.5; stroke-linecap: round"/>
   </g>
   <g id="text_18">
    <!-- $\mathbf{T}$ -->
    <g style="fill: #39c5bb" transform="translate(410.145553 330.279367) scale(0.12 -0.12)">
     <defs>
      <path id="DejaVuSans-Bold-54" d="M 31 4666 
L 4331 4666 
L 4331 3756 
L 2784 3756 
L 2784 0 
L 1581 0 
L 1581 3756 
L 31 3756 
L 31 4666 
z
" transform="scale(0.015625)"/>
     </defs>
     <use xlink:href="#DejaVuSans-Bold-54" transform="translate(0 0.09375)"/>
    </g>
   </g>
   <g id="text_19">
    <!-- $\mathbf{N}$ -->
    <g style="fill: #10b981" transform="translate(277.762805 313.292346) scale(0.12 -0.12)">
     <defs>
      <path id="DejaVuSans-Bold-4e" d="M 588 4666 
L 1931 4666 
L 3628 1466 
L 3628 4666 
L 4769 4666 
L 4769 0 
L 3425 0 
L 1728 3200 
L 1728 0 
L 588 0 
L 588 4666 
z
" transform="scale(0.015625)"/>
     </defs>
     <use xlink:href="#DejaVuSans-Bold-4e" transform="translate(0 0.09375)"/>
    </g>
   </g>
   <g id="text_20">
    <!-- Círculo Osculador y Radio de Curvatura -->
    <g style="fill: #2c2f33" transform="translate(196.531506 30.432088) scale(0.11 -0.11)">
     <defs>
      <path id="SegoeUI-Bold-43" d="M 3725 159 
Q 3234 -78 2444 -78 
Q 1413 -78 822 528 
Q 231 1134 231 2144 
Q 231 3219 895 3887 
Q 1559 4556 2619 4556 
Q 3275 4556 3725 4391 
L 3725 3419 
Q 3275 3688 2700 3688 
Q 2069 3688 1681 3291 
Q 1294 2894 1294 2216 
Q 1294 1566 1659 1180 
Q 2025 794 2644 794 
Q 3234 794 3725 1081 
L 3725 159 
z
" transform="scale(0.015625)"/>
      <path id="SegoeUI-Bold-ed" d="M 1403 0 
L 416 0 
L 416 3200 
L 1403 3200 
L 1403 0 
z
M 1911 4716 
L 932 3706 
L 220 3706 
L 1032 4716 
L 1911 4716 
z
" transform="scale(0.015625)"/>
      <path id="SegoeUI-Bold-72" d="M 2503 2309 
Q 2325 2406 2088 2406 
Q 1766 2406 1584 2170 
Q 1403 1934 1403 1528 
L 1403 0 
L 416 0 
L 416 3200 
L 1403 3200 
L 1403 2606 
L 1416 2606 
Q 1650 3256 2259 3256 
Q 2416 3256 2503 3219 
L 2503 2309 
z
" transform="scale(0.015625)"/>
      <path id="SegoeUI-Bold-63" d="M 2841 116 
Q 2506 -78 1875 -78 
Q 1138 -78 681 369 
Q 225 816 225 1522 
Q 225 2338 714 2808 
Q 1203 3278 2022 3278 
Q 2588 3278 2841 3128 
L 2841 2291 
Q 2531 2522 2150 2522 
Q 1725 2522 1476 2273 
Q 1228 2025 1228 1588 
Q 1228 1163 1465 920 
Q 1703 678 2119 678 
Q 2488 678 2841 909 
L 2841 116 
z
" transform="scale(0.015625)"/>
      <path id="SegoeUI-Bold-75" d="M 3456 0 
L 2472 0 
L 2472 488 
L 2456 488 
Q 2091 -78 1478 -78 
Q 366 -78 366 1269 
L 366 3200 
L 1350 3200 
L 1350 1356 
Q 1350 678 1888 678 
Q 2153 678 2312 864 
Q 2472 1050 2472 1369 
L 2472 3200 
L 3456 3200 
L 3456 0 
z
" transform="scale(0.015625)"/>
      <path id="SegoeUI-Bold-6c" d="M 1403 0 
L 416 0 
L 416 4738 
L 1403 4738 
L 1403 0 
z
" transform="scale(0.015625)"/>
      <path id="SegoeUI-Bold-6f" d="M 1941 -78 
Q 1141 -78 683 370 
Q 225 819 225 1588 
Q 225 2381 700 2829 
Q 1175 3278 1984 3278 
Q 2781 3278 3234 2829 
Q 3688 2381 3688 1644 
Q 3688 847 3220 384 
Q 2753 -78 1941 -78 
z
M 1966 2522 
Q 1616 2522 1422 2281 
Q 1228 2041 1228 1600 
Q 1228 678 1972 678 
Q 2681 678 2681 1625 
Q 2681 2522 1966 2522 
z
" transform="scale(0.015625)"/>
      <path id="SegoeUI-Bold-20" transform="scale(0.015625)"/>
      <path id="SegoeUI-Bold-4f" d="M 2406 -78 
Q 1444 -78 837 548 
Q 231 1175 231 2181 
Q 231 3244 847 3900 
Q 1463 4556 2478 4556 
Q 3438 4556 4030 3928 
Q 4622 3300 4622 2272 
Q 4622 1216 4008 569 
Q 3394 -78 2406 -78 
z
M 2450 3688 
Q 1919 3688 1606 3289 
Q 1294 2891 1294 2234 
Q 1294 1569 1606 1181 
Q 1919 794 2425 794 
Q 2947 794 3253 1170 
Q 3559 1547 3559 2216 
Q 3559 2913 3262 3300 
Q 2966 3688 2450 3688 
z
" transform="scale(0.015625)"/>
      <path id="SegoeUI-Bold-73" d="M 206 84 
L 206 884 
Q 450 738 692 666 
Q 934 594 1150 594 
Q 1413 594 1564 666 
Q 1716 738 1716 884 
Q 1716 978 1647 1040 
Q 1578 1103 1470 1150 
Q 1363 1197 1234 1234 
Q 1106 1272 988 1319 
Q 797 1391 651 1473 
Q 506 1556 407 1665 
Q 309 1775 257 1919 
Q 206 2063 206 2259 
Q 206 2528 323 2722 
Q 441 2916 636 3039 
Q 831 3163 1082 3220 
Q 1334 3278 1606 3278 
Q 1819 3278 2037 3245 
Q 2256 3213 2469 3150 
L 2469 2388 
Q 2281 2497 2067 2551 
Q 1853 2606 1647 2606 
Q 1550 2606 1464 2589 
Q 1378 2572 1312 2539 
Q 1247 2506 1209 2454 
Q 1172 2403 1172 2338 
Q 1172 2250 1228 2187 
Q 1284 2125 1375 2079 
Q 1466 2034 1577 1998 
Q 1688 1963 1797 1925 
Q 1994 1856 2153 1775 
Q 2313 1694 2427 1584 
Q 2541 1475 2602 1328 
Q 2663 1181 2663 978 
Q 2663 694 2539 492 
Q 2416 291 2211 164 
Q 2006 38 1739 -20 
Q 1472 -78 1184 -78 
Q 656 -78 206 84 
z
" transform="scale(0.015625)"/>
      <path id="SegoeUI-Bold-61" d="M 3078 0 
L 2144 0 
L 2144 459 
L 2131 459 
Q 1809 -78 1178 -78 
Q 713 -78 445 186 
Q 178 450 178 891 
Q 178 1822 1281 1966 
L 2150 2081 
Q 2150 2606 1581 2606 
Q 1009 2606 494 2266 
L 494 3009 
Q 700 3116 1058 3197 
Q 1416 3278 1709 3278 
Q 3078 3278 3078 1913 
L 3078 0 
z
M 2150 1300 
L 2150 1516 
L 1569 1441 
Q 1088 1378 1088 1006 
Q 1088 838 1205 730 
Q 1322 622 1522 622 
Q 1800 622 1975 814 
Q 2150 1006 2150 1300 
z
" transform="scale(0.015625)"/>
      <path id="SegoeUI-Bold-64" d="M 3547 0 
L 2559 0 
L 2559 441 
L 2547 441 
Q 2209 -78 1556 -78 
Q 956 -78 590 345 
Q 225 769 225 1528 
Q 225 2322 628 2800 
Q 1031 3278 1684 3278 
Q 2303 3278 2547 2834 
L 2559 2834 
L 2559 4738 
L 3547 4738 
L 3547 0 
z
M 2578 1556 
L 2578 1797 
Q 2578 2109 2397 2315 
Q 2216 2522 1925 2522 
Q 1597 2522 1412 2264 
Q 1228 2006 1228 1556 
Q 1228 1134 1406 906 
Q 1584 678 1900 678 
Q 2200 678 2389 918 
Q 2578 1159 2578 1556 
z
" transform="scale(0.015625)"/>
      <path id="SegoeUI-Bold-79" d="M 3463 3200 
L 2163 -256 
Q 1694 -1503 750 -1503 
Q 391 -1503 159 -1422 
L 159 -634 
Q 356 -750 588 -750 
Q 969 -750 1119 -391 
L 1288 6 
L -13 3200 
L 1081 3200 
L 1678 1253 
Q 1734 1072 1766 825 
L 1778 825 
Q 1806 1006 1881 1247 
L 2484 3200 
L 3463 3200 
z
" transform="scale(0.015625)"/>
      <path id="SegoeUI-Bold-52" d="M 4272 0 
L 3113 0 
L 2416 1153 
Q 2338 1284 2266 1387 
Q 2194 1491 2120 1564 
Q 2047 1638 1967 1677 
Q 1888 1716 1794 1716 
L 1522 1716 
L 1522 0 
L 513 0 
L 513 4481 
L 2113 4481 
Q 3744 4481 3744 3263 
Q 3744 3028 3672 2829 
Q 3600 2631 3469 2472 
Q 3338 2313 3152 2197 
Q 2966 2081 2738 2016 
L 2738 2003 
Q 2838 1972 2931 1901 
Q 3025 1831 3112 1737 
Q 3200 1644 3279 1536 
Q 3359 1428 3425 1325 
L 4272 0 
z
M 1522 3725 
L 1522 2478 
L 1959 2478 
Q 2284 2478 2481 2666 
Q 2681 2856 2681 3138 
Q 2681 3725 1978 3725 
L 1522 3725 
z
" transform="scale(0.015625)"/>
      <path id="SegoeUI-Bold-69" d="M 916 3706 
Q 666 3706 506 3854 
Q 347 4003 347 4219 
Q 347 4441 506 4581 
Q 666 4722 916 4722 
Q 1169 4722 1326 4581 
Q 1484 4441 1484 4219 
Q 1484 3994 1326 3850 
Q 1169 3706 916 3706 
z
M 1403 0 
L 416 0 
L 416 3200 
L 1403 3200 
L 1403 0 
z
" transform="scale(0.015625)"/>
      <path id="SegoeUI-Bold-65" d="M 3291 1319 
L 1203 1319 
Q 1253 622 2081 622 
Q 2609 622 3009 872 
L 3009 159 
Q 2566 -78 1856 -78 
Q 1081 -78 653 351 
Q 225 781 225 1550 
Q 225 2347 687 2812 
Q 1150 3278 1825 3278 
Q 2525 3278 2908 2862 
Q 3291 2447 3291 1734 
L 3291 1319 
z
M 2375 1925 
Q 2375 2613 1819 2613 
Q 1581 2613 1407 2416 
Q 1234 2219 1197 1925 
L 2375 1925 
z
" transform="scale(0.015625)"/>
      <path id="SegoeUI-Bold-76" d="M 3463 3200 
L 2272 0 
L 1147 0 
L 13 3200 
L 1069 3200 
L 1625 1228 
Q 1719 894 1734 659 
L 1747 659 
Q 1769 881 1863 1209 
L 2431 3200 
L 3463 3200 
z
" transform="scale(0.015625)"/>
      <path id="SegoeUI-Bold-74" d="M 2350 38 
Q 2131 -78 1691 -78 
Q 647 -78 647 1006 
L 647 2472 
L 128 2472 
L 128 3200 
L 647 3200 
L 647 3891 
L 1631 4172 
L 1631 3200 
L 2350 3200 
L 2350 2472 
L 1631 2472 
L 1631 1178 
Q 1631 678 2028 678 
Q 2184 678 2350 769 
L 2350 38 
z
" transform="scale(0.015625)"/>
     </defs>
     <use xlink:href="#SegoeUI-Bold-43"/>
     <use xlink:href="#SegoeUI-Bold-ed" x="62.402344"/>
     <use xlink:href="#SegoeUI-Bold-72" x="90.820312"/>
     <use xlink:href="#SegoeUI-Bold-63" x="130.240234"/>
     <use xlink:href="#SegoeUI-Bold-75" x="178.238281"/>
     <use xlink:href="#SegoeUI-Bold-6c" x="238.736328"/>
     <use xlink:href="#SegoeUI-Bold-6f" x="267.154297"/>
     <use xlink:href="#SegoeUI-Bold-20" x="328.287109"/>
     <use xlink:href="#SegoeUI-Bold-4f" x="355.875"/>
     <use xlink:href="#SegoeUI-Bold-73" x="431.705078"/>
     <use xlink:href="#SegoeUI-Bold-63" x="475.699219"/>
     <use xlink:href="#SegoeUI-Bold-75" x="523.697266"/>
     <use xlink:href="#SegoeUI-Bold-6c" x="584.195312"/>
     <use xlink:href="#SegoeUI-Bold-61" x="612.613281"/>
     <use xlink:href="#SegoeUI-Bold-64" x="666.421875"/>
     <use xlink:href="#SegoeUI-Bold-6f" x="728.335938"/>
     <use xlink:href="#SegoeUI-Bold-72" x="789.46875"/>
     <use xlink:href="#SegoeUI-Bold-20" x="829.263672"/>
     <use xlink:href="#SegoeUI-Bold-79" x="856.851562"/>
     <use xlink:href="#SegoeUI-Bold-20" x="910.660156"/>
     <use xlink:href="#SegoeUI-Bold-52" x="938.248047"/>
     <use xlink:href="#SegoeUI-Bold-61" x="1003.53125"/>
     <use xlink:href="#SegoeUI-Bold-64" x="1057.339844"/>
     <use xlink:href="#SegoeUI-Bold-69" x="1119.253906"/>
     <use xlink:href="#SegoeUI-Bold-6f" x="1147.671875"/>
     <use xlink:href="#SegoeUI-Bold-20" x="1208.804688"/>
     <use xlink:href="#SegoeUI-Bold-64" x="1236.392578"/>
     <use xlink:href="#SegoeUI-Bold-65" x="1298.306641"/>
     <use xlink:href="#SegoeUI-Bold-20" x="1352.408203"/>
     <use xlink:href="#SegoeUI-Bold-43" x="1379.996094"/>
     <use xlink:href="#SegoeUI-Bold-75" x="1442.398438"/>
     <use xlink:href="#SegoeUI-Bold-72" x="1502.896484"/>
     <use xlink:href="#SegoeUI-Bold-76" x="1546.691406"/>
     <use xlink:href="#SegoeUI-Bold-61" x="1599.390625"/>
     <use xlink:href="#SegoeUI-Bold-74" x="1653.199219"/>
     <use xlink:href="#SegoeUI-Bold-75" x="1692.115234"/>
     <use xlink:href="#SegoeUI-Bold-72" x="1752.613281"/>
     <use xlink:href="#SegoeUI-Bold-61" x="1792.408203"/>
    </g>
   </g>
   <g id="line2d_28">
    <defs>
     <path id="md80ad123dd" d="M 0 6 
C 1.591219 6 3.117479 5.367802 4.242641 4.242641 
C 5.367802 3.117479 6 1.591219 6 0 
C 6 -1.591219 5.367802 -3.117479 4.242641 -4.242641 
C 3.117479 -5.367802 1.591219 -6 0 -6 
C -1.591219 -6 -3.117479 -5.367802 -4.242641 -4.242641 
C -5.367802 -3.117479 -6 -1.591219 -6 0 
C -6 1.591219 -5.367802 3.117479 -4.242641 4.242641 
C -3.117479 5.367802 -1.591219 6 0 6 
z
" style="stroke: #1f2937"/>
    </defs>
    <g clip-path="url(#pc6264a9b24)">
     <use xlink:href="#md80ad123dd" x="340.132985" y="383.304913" style="fill: #1f2937; stroke: #1f2937"/>
    </g>
   </g>
   <g id="line2d_29">
    <defs>
     <path id="mcadb39808b" d="M 0 -7.5 
L -1.683855 -2.317627 
L -7.132924 -2.317627 
L -2.724534 0.885255 
L -4.408389 6.067627 
L -0 2.864745 
L 4.408389 6.067627 
L 2.724534 0.885255 
L 7.132924 -2.317627 
L 1.683855 -2.317627 
z
" style="stroke: #dc2626; stroke-linejoin: bevel"/>
    </defs>
    <g clip-path="url(#pc6264a9b24)">
     <use xlink:href="#mcadb39808b" x="254.999629" y="265.064141" style="fill: #dc2626; stroke: #dc2626; stroke-linejoin: bevel"/>
    </g>
   </g>
   <g id="legend_1">
    <g id="patch_7">
     <path d="M 47.404688 74.6849 
L 144.935156 74.6849 
Q 146.735156 74.6849 146.735156 72.8849 
L 146.735156 42.732088 
Q 146.735156 40.932088 144.935156 40.932088 
L 47.404688 40.932088 
Q 45.604688 40.932088 45.604688 42.732088 
L 45.604688 72.8849 
Q 45.604688 74.6849 47.404688 74.6849 
z
" style="fill: #ffffff; opacity: 0.8; stroke: #cccccc; stroke-linejoin: miter"/>
    </g>
    <g id="line2d_30">
     <path d="M 49.204688 51.012088 
L 58.204688 51.012088 
L 67.204688 51.012088 
" style="fill: none; stroke: #39c5bb; stroke-width: 3; stroke-linecap: square"/>
    </g>
    <g id="text_21">
     <!-- $y = \frac{x^3}{6}$ -->
     <g style="fill: #2c2f33" transform="translate(74.404688 54.162088) scale(0.09 -0.09)">
      <defs>
       <path id="DejaVuSans-Oblique-79" d="M 1588 -325 
Q 1188 -997 936 -1164 
Q 684 -1331 294 -1331 
L -159 -1331 
L -63 -850 
L 269 -850 
Q 509 -850 678 -719 
Q 847 -588 1056 -206 
L 1234 128 
L 459 3500 
L 1069 3500 
L 1650 819 
L 3256 3500 
L 3859 3500 
L 1588 -325 
z
" transform="scale(0.015625)"/>
       <path id="DejaVuSans-3d" d="M 678 2906 
L 4684 2906 
L 4684 2381 
L 678 2381 
L 678 2906 
z
M 678 1631 
L 4684 1631 
L 4684 1100 
L 678 1100 
L 678 1631 
z
" transform="scale(0.015625)"/>
       <path id="DejaVuSans-Oblique-78" d="M 3841 3500 
L 2234 1784 
L 3219 0 
L 2559 0 
L 1819 1388 
L 531 0 
L -166 0 
L 1556 1844 
L 641 3500 
L 1300 3500 
L 1972 2234 
L 3144 3500 
L 3841 3500 
z
" transform="scale(0.015625)"/>
       <path id="DejaVuSans-33" d="M 2597 2516 
Q 3050 2419 3304 2112 
Q 3559 1806 3559 1356 
Q 3559 666 3084 287 
Q 2609 -91 1734 -91 
Q 1441 -91 1130 -33 
Q 819 25 488 141 
L 488 750 
Q 750 597 1062 519 
Q 1375 441 1716 441 
Q 2309 441 2620 675 
Q 2931 909 2931 1356 
Q 2931 1769 2642 2001 
Q 2353 2234 1838 2234 
L 1294 2234 
L 1294 2753 
L 1863 2753 
Q 2328 2753 2575 2939 
Q 2822 3125 2822 3475 
Q 2822 3834 2567 4026 
Q 2313 4219 1838 4219 
Q 1578 4219 1281 4162 
Q 984 4106 628 3988 
L 628 4550 
Q 988 4650 1302 4700 
Q 1616 4750 1894 4750 
Q 2613 4750 3031 4423 
Q 3450 4097 3450 3541 
Q 3450 3153 3228 2886 
Q 3006 2619 2597 2516 
z
" transform="scale(0.015625)"/>
       <path id="DejaVuSans-36" d="M 2113 2584 
Q 1688 2584 1439 2293 
Q 1191 2003 1191 1497 
Q 1191 994 1439 701 
Q 1688 409 2113 409 
Q 2538 409 2786 701 
Q 3034 994 3034 1497 
Q 3034 2003 2786 2293 
Q 2538 2584 2113 2584 
z
M 3366 4563 
L 3366 3988 
Q 3128 4100 2886 4159 
Q 2644 4219 2406 4219 
Q 1781 4219 1451 3797 
Q 1122 3375 1075 2522 
Q 1259 2794 1537 2939 
Q 1816 3084 2150 3084 
Q 2853 3084 3261 2657 
Q 3669 2231 3669 1497 
Q 3669 778 3244 343 
Q 2819 -91 2113 -91 
Q 1303 -91 875 529 
Q 447 1150 447 2328 
Q 447 3434 972 4092 
Q 1497 4750 2381 4750 
Q 2619 4750 2861 4703 
Q 3103 4656 3366 4563 
z
" transform="scale(0.015625)"/>
      </defs>
      <use xlink:href="#DejaVuSans-Oblique-79" transform="translate(0 0.039062)"/>
      <use xlink:href="#DejaVuSans-3d" transform="translate(78.662109 0.039062)"/>
      <use xlink:href="#DejaVuSans-Oblique-78" transform="translate(181.933594 43.835938) scale(0.7)"/>
      <use xlink:href="#DejaVuSans-33" transform="translate(226.485677 70.632812) scale(0.49)"/>
      <use xlink:href="#DejaVuSans-36" transform="translate(198.933594 -39.367188) scale(0.7)"/>
      <path d="M 181.933594 18.835938 
L 181.933594 25.085938 
L 259.575033 25.085938 
L 259.575033 18.835938 
L 181.933594 18.835938 
z
"/>
     </g>
    </g>
    <g id="line2d_31">
     <path d="M 49.204688 65.8649 
L 58.204688 65.8649 
L 67.204688 65.8649 
" style="fill: none; stroke-dasharray: 7.4,3.2; stroke-dashoffset: 0; stroke: #dc2626; stroke-opacity: 0.8; stroke-width: 2"/>
    </g>
    <g id="text_22">
     <!-- Círculo osculador -->
     <g style="fill: #2c2f33" transform="translate(74.404688 69.0149) scale(0.09 -0.09)">
      <defs>
       <path id="SegoeUI-ed" d="M 1031 0 
L 519 0 
L 519 3200 
L 1031 3200 
L 1031 0 
z
M 1494 4831 
L 675 3806 
L 278 3806 
L 975 4831 
L 1494 4831 
z
" transform="scale(0.015625)"/>
       <path id="SegoeUI-63" d="M 2700 147 
Q 2331 -75 1825 -75 
Q 1141 -75 720 370 
Q 300 816 300 1525 
Q 300 2316 753 2795 
Q 1206 3275 1963 3275 
Q 2384 3275 2706 3119 
L 2706 2594 
Q 2350 2844 1944 2844 
Q 1453 2844 1139 2492 
Q 825 2141 825 1569 
Q 825 1006 1120 681 
Q 1416 356 1913 356 
Q 2331 356 2700 634 
L 2700 147 
z
" transform="scale(0.015625)"/>
       <path id="SegoeUI-75" d="M 3106 0 
L 2594 0 
L 2594 506 
L 2581 506 
Q 2263 -75 1594 -75 
Q 450 -75 450 1288 
L 450 3200 
L 959 3200 
L 959 1369 
Q 959 356 1734 356 
Q 2109 356 2351 632 
Q 2594 909 2594 1356 
L 2594 3200 
L 3106 3200 
L 3106 0 
z
" transform="scale(0.015625)"/>
       <path id="SegoeUI-6c" d="M 1031 0 
L 519 0 
L 519 4738 
L 1031 4738 
L 1031 0 
z
" transform="scale(0.015625)"/>
       <path id="SegoeUI-20" transform="scale(0.015625)"/>
       <path id="SegoeUI-73" d="M 325 116 
L 325 666 
Q 744 356 1247 356 
Q 1922 356 1922 806 
Q 1922 934 1864 1023 
Q 1806 1113 1707 1181 
Q 1609 1250 1476 1304 
Q 1344 1359 1191 1419 
Q 978 1503 817 1589 
Q 656 1675 548 1783 
Q 441 1891 386 2028 
Q 331 2166 331 2350 
Q 331 2575 434 2748 
Q 538 2922 709 3039 
Q 881 3156 1101 3215 
Q 1322 3275 1556 3275 
Q 1972 3275 2300 3131 
L 2300 2613 
Q 1947 2844 1488 2844 
Q 1344 2844 1228 2811 
Q 1113 2778 1030 2718 
Q 947 2659 901 2576 
Q 856 2494 856 2394 
Q 856 2269 901 2184 
Q 947 2100 1034 2034 
Q 1122 1969 1247 1916 
Q 1372 1863 1531 1800 
Q 1744 1719 1912 1633 
Q 2081 1547 2200 1439 
Q 2319 1331 2383 1190 
Q 2447 1050 2447 856 
Q 2447 619 2342 444 
Q 2238 269 2063 153 
Q 1888 38 1659 -18 
Q 1431 -75 1181 -75 
Q 688 -75 325 116 
z
" transform="scale(0.015625)"/>
       <path id="SegoeUI-61" d="M 2809 0 
L 2297 0 
L 2297 500 
L 2284 500 
Q 1950 -75 1300 -75 
Q 822 -75 551 178 
Q 281 431 281 850 
Q 281 1747 1338 1894 
L 2297 2028 
Q 2297 2844 1638 2844 
Q 1059 2844 594 2450 
L 594 2975 
Q 1066 3275 1681 3275 
Q 2809 3275 2809 2081 
L 2809 0 
z
M 2297 1619 
L 1525 1513 
Q 1169 1463 987 1336 
Q 806 1209 806 888 
Q 806 653 973 504 
Q 1141 356 1419 356 
Q 1800 356 2048 623 
Q 2297 891 2297 1300 
L 2297 1619 
z
" transform="scale(0.015625)"/>
       <path id="SegoeUI-64" d="M 3250 0 
L 2738 0 
L 2738 544 
L 2725 544 
Q 2369 -75 1625 -75 
Q 1022 -75 661 354 
Q 300 784 300 1525 
Q 300 2319 700 2797 
Q 1100 3275 1766 3275 
Q 2425 3275 2725 2756 
L 2738 2756 
L 2738 4738 
L 3250 4738 
L 3250 0 
z
M 2738 1447 
L 2738 1919 
Q 2738 2306 2481 2575 
Q 2225 2844 1831 2844 
Q 1363 2844 1094 2500 
Q 825 2156 825 1550 
Q 825 997 1083 676 
Q 1341 356 1775 356 
Q 2203 356 2470 665 
Q 2738 975 2738 1447 
z
" transform="scale(0.015625)"/>
      </defs>
      <use xlink:href="#SegoeUI-43"/>
      <use xlink:href="#SegoeUI-ed" x="61.914062"/>
      <use xlink:href="#SegoeUI-72" x="86.132812"/>
      <use xlink:href="#SegoeUI-63" x="119.523438"/>
      <use xlink:href="#SegoeUI-75" x="165.714844"/>
      <use xlink:href="#SegoeUI-6c" x="222.306641"/>
      <use xlink:href="#SegoeUI-6f" x="246.525391"/>
      <use xlink:href="#SegoeUI-20" x="305.119141"/>
      <use xlink:href="#SegoeUI-6f" x="332.511719"/>
      <use xlink:href="#SegoeUI-73" x="391.105469"/>
      <use xlink:href="#SegoeUI-63" x="433.537109"/>
      <use xlink:href="#SegoeUI-75" x="479.728516"/>
      <use xlink:href="#SegoeUI-6c" x="536.320312"/>
      <use xlink:href="#SegoeUI-61" x="560.539062"/>
      <use xlink:href="#SegoeUI-64" x="611.417969"/>
      <use xlink:href="#SegoeUI-6f" x="670.304688"/>
      <use xlink:href="#SegoeUI-72" x="728.898438"/>
     </g>
    </g>
   </g>
  </g>
  <g id="axes_2">
   <g id="patch_8">
    <path d="M 619.800603 180.339456 
L 994.858491 180.339456 
L 994.858491 51.850735 
L 619.800603 51.850735 
z
" clip-path="url(#p833f233d54)" style="fill: #fffbeb; stroke: #4b5563; stroke-width: 2; stroke-linejoin: miter"/>
   </g>
   <g id="patch_9">
    <path d="M 619.800603 421.898253 
L 994.858491 421.898253 
L 994.858491 329.386373 
L 619.800603 329.386373 
z
" clip-path="url(#p833f233d54)" style="fill: #fef3c7; stroke: #f59e0b; stroke-width: 1.5; stroke-linejoin: miter"/>
   </g>
   <g id="patch_10">
    <path d="M 619.800603 534.968328 
L 994.858491 534.968328 
L 994.858491 442.456448 
L 619.800603 442.456448 
z
" clip-path="url(#p833f233d54)" style="fill: #fef2f2; stroke: #dc2626; stroke-width: 1.5; stroke-linejoin: miter"/>
   </g>
   <g id="line2d_32">
    <path d="M 627.780558 200.897652 
L 986.878536 200.897652 
" clip-path="url(#p833f233d54)" style="fill: none; stroke: #e5e7eb; stroke-linecap: square"/>
   </g>
   <g id="line2d_33">
    <path d="M 627.780558 313.967727 
L 986.878536 313.967727 
" clip-path="url(#p833f233d54)" style="fill: none; stroke: #e5e7eb; stroke-linecap: square"/>
   </g>
   <g id="text_23">
    <!-- CURVATURA -->
    <g style="fill: #4b5563" transform="translate(774.803063 77.548479) scale(0.11 -0.11)">
     <defs>
      <path id="SegoeUI-Bold-55" d="M 4166 1941 
Q 4166 -78 2284 -78 
Q 459 -78 459 1894 
L 459 4481 
L 1472 4481 
L 1472 1881 
Q 1472 794 2322 794 
Q 3156 794 3156 1844 
L 3156 4481 
L 4166 4481 
L 4166 1941 
z
" transform="scale(0.015625)"/>
      <path id="SegoeUI-Bold-56" d="M 4244 4481 
L 2700 0 
L 1556 0 
L 31 4481 
L 1119 4481 
L 2053 1363 
Q 2128 1109 2144 916 
L 2163 916 
Q 2184 1125 2259 1375 
L 3188 4481 
L 4244 4481 
z
" transform="scale(0.015625)"/>
      <path id="SegoeUI-Bold-41" d="M 4453 0 
L 3353 0 
L 3034 997 
L 1441 997 
L 1125 0 
L 31 0 
L 1663 4481 
L 2859 4481 
L 4453 0 
z
M 2803 1772 
L 2322 3278 
Q 2269 3447 2247 3681 
L 2222 3681 
Q 2206 3484 2144 3291 
L 1656 1772 
L 2803 1772 
z
" transform="scale(0.015625)"/>
      <path id="SegoeUI-Bold-54" d="M 3659 3659 
L 2381 3659 
L 2381 0 
L 1369 0 
L 1369 3659 
L 97 3659 
L 97 4481 
L 3659 4481 
L 3659 3659 
z
" transform="scale(0.015625)"/>
     </defs>
     <use xlink:href="#SegoeUI-Bold-43"/>
     <use xlink:href="#SegoeUI-Bold-55" x="62.402344"/>
     <use xlink:href="#SegoeUI-Bold-52" x="134.716797"/>
     <use xlink:href="#SegoeUI-Bold-56" x="200"/>
     <use xlink:href="#SegoeUI-Bold-41" x="261.574219"/>
     <use xlink:href="#SegoeUI-Bold-54" x="324.886719"/>
     <use xlink:href="#SegoeUI-Bold-55" x="383.480469"/>
     <use xlink:href="#SegoeUI-Bold-52" x="455.794922"/>
     <use xlink:href="#SegoeUI-Bold-41" x="521.078125"/>
    </g>
   </g>
   <g id="text_24">
    <!-- $\kappa = \left\| \frac{d\mathbf{T}}{ds} \right\| = \frac{\|\mathbf{r}^\prime \times \mathbf{r}^{\prime\prime}\|}{\|\mathbf{r}^\prime\|^3}$ -->
    <g style="fill: #2c2f33" transform="translate(757.409547 139.223065) scale(0.12 -0.12)">
     <defs>
      <path id="DejaVuSans-Oblique-3ba" d="M 938 3500 
L 1531 3500 
L 1247 2047 
L 3041 3500 
L 3741 3500 
L 2106 2181 
L 3275 0 
L 2572 0 
L 1628 1806 
L 1122 1403 
L 850 0 
L 256 0 
L 938 3500 
z
" transform="scale(0.015625)"/>
      <path id="DejaVuSans-2016" d="M 1344 4891 
L 1344 -1509 
L 813 -1509 
L 813 4891 
L 1344 4891 
z
M 2376 4891 
L 2376 -1509 
L 1845 -1509 
L 1845 4891 
L 2376 4891 
z
" transform="scale(0.015625)"/>
      <path id="DejaVuSans-Oblique-64" d="M 2675 525 
Q 2444 222 2128 65 
Q 1813 -91 1428 -91 
Q 903 -91 598 267 
Q 294 625 294 1247 
Q 294 1766 478 2236 
Q 663 2706 1013 3078 
Q 1244 3325 1534 3454 
Q 1825 3584 2144 3584 
Q 2481 3584 2739 3421 
Q 2997 3259 3138 2956 
L 3513 4863 
L 4091 4863 
L 3144 0 
L 2566 0 
L 2675 525 
z
M 891 1350 
Q 891 897 1095 644 
Q 1300 391 1663 391 
Q 1931 391 2161 520 
Q 2391 650 2566 903 
Q 2750 1166 2856 1509 
Q 2963 1853 2963 2188 
Q 2963 2622 2758 2865 
Q 2553 3109 2194 3109 
Q 1922 3109 1687 2981 
Q 1453 2853 1288 2613 
Q 1106 2353 998 2009 
Q 891 1666 891 1350 
z
" transform="scale(0.015625)"/>
      <path id="DejaVuSans-Oblique-73" d="M 3200 3397 
L 3091 2853 
Q 2863 2978 2609 3040 
Q 2356 3103 2088 3103 
Q 1634 3103 1373 2948 
Q 1113 2794 1113 2528 
Q 1113 2219 1719 2053 
Q 1766 2041 1788 2034 
L 1972 1978 
Q 2547 1819 2739 1644 
Q 2931 1469 2931 1166 
Q 2931 609 2489 259 
Q 2047 -91 1331 -91 
Q 1053 -91 747 -37 
Q 441 16 72 128 
L 184 722 
Q 500 559 806 475 
Q 1113 391 1394 391 
Q 1816 391 2080 572 
Q 2344 753 2344 1031 
Q 2344 1331 1650 1516 
L 1591 1531 
L 1394 1581 
Q 956 1697 753 1886 
Q 550 2075 550 2369 
Q 550 2928 970 3256 
Q 1391 3584 2113 3584 
Q 2397 3584 2667 3537 
Q 2938 3491 3200 3397 
z
" transform="scale(0.015625)"/>
      <path id="DejaVuSans-Bold-72" d="M 3138 2547 
Q 2991 2616 2845 2648 
Q 2700 2681 2553 2681 
Q 2122 2681 1889 2404 
Q 1656 2128 1656 1613 
L 1656 0 
L 538 0 
L 538 3500 
L 1656 3500 
L 1656 2925 
Q 1872 3269 2151 3426 
Q 2431 3584 2822 3584 
Q 2878 3584 2943 3579 
Q 3009 3575 3134 3559 
L 3138 2547 
z
" transform="scale(0.015625)"/>
      <path id="Cmsy10-30" d="M 225 347 
Q 184 359 184 409 
L 966 3316 
Q 1003 3434 1093 3506 
Q 1184 3578 1300 3578 
Q 1450 3578 1564 3479 
Q 1678 3381 1678 3231 
Q 1678 3166 1644 3084 
L 488 319 
Q 466 275 428 275 
Q 394 275 320 306 
Q 247 338 225 347 
z
" transform="scale(0.015625)"/>
      <path id="DejaVuSans-d7" d="M 4488 3438 
L 3059 2003 
L 4488 575 
L 4116 197 
L 2681 1631 
L 1247 197 
L 878 575 
L 2303 2003 
L 878 3438 
L 1247 3816 
L 2681 2381 
L 4116 3816 
L 4488 3438 
z
" transform="scale(0.015625)"/>
     </defs>
     <use xlink:href="#DejaVuSans-Oblique-3ba" transform="translate(0 0.5075)"/>
     <use xlink:href="#DejaVuSans-3d" transform="translate(78.417969 0.5075)"/>
     <use xlink:href="#DejaVuSans-2016" transform="translate(181.689453 -8.114375) scale(1.396187)"/>
     <use xlink:href="#DejaVuSans-Oblique-64" transform="translate(251.501953 45.299687) scale(0.7)"/>
     <use xlink:href="#DejaVuSans-Bold-54" transform="translate(295.935547 45.299687) scale(0.7)"/>
     <use xlink:href="#DejaVuSans-Oblique-64" transform="translate(257.501953 -40.134688) scale(0.7)"/>
     <use xlink:href="#DejaVuSans-Oblique-73" transform="translate(301.935547 -40.134688) scale(0.7)"/>
     <use xlink:href="#DejaVuSans-2016" transform="translate(356.18457 -8.114375) scale(1.396187)"/>
     <use xlink:href="#DejaVuSans-3d" transform="translate(445.479492 0.5075)"/>
     <use xlink:href="#DejaVuSans-2016" transform="translate(548.750977 60.809062) scale(0.7)"/>
     <use xlink:href="#DejaVuSans-Bold-72" transform="translate(583.750977 60.809062) scale(0.7)"/>
     <use xlink:href="#Cmsy10-30" transform="translate(618.942383 87.605937) scale(0.49)"/>
     <use xlink:href="#DejaVuSans-d7" transform="translate(647.964355 60.809062) scale(0.7)"/>
     <use xlink:href="#DejaVuSans-Bold-72" transform="translate(720.254395 60.809062) scale(0.7)"/>
     <use xlink:href="#Cmsy10-30" transform="translate(755.445801 87.605937) scale(0.49)"/>
     <use xlink:href="#Cmsy10-30" transform="translate(768.916016 87.605937) scale(0.49)"/>
     <use xlink:href="#DejaVuSans-2016" transform="translate(784.300293 60.809062) scale(0.7)"/>
     <use xlink:href="#DejaVuSans-2016" transform="translate(606.750977 -50.109688) scale(0.7)"/>
     <use xlink:href="#DejaVuSans-Bold-72" transform="translate(641.750977 -50.109688) scale(0.7)"/>
     <use xlink:href="#Cmsy10-30" transform="translate(676.942383 -23.312813) scale(0.49)"/>
     <use xlink:href="#DejaVuSans-2016" transform="translate(692.32666 -50.109688) scale(0.7)"/>
     <use xlink:href="#DejaVuSans-33" transform="translate(727.996582 -23.312813) scale(0.49)"/>
     <path d="M 251.501953 19.304375 
L 251.501953 25.554375 
L 343.68457 25.554375 
L 343.68457 19.304375 
L 251.501953 19.304375 
z
"/>
     <path d="M 548.750977 19.304375 
L 548.750977 25.554375 
L 819.300293 25.554375 
L 819.300293 19.304375 
L 548.750977 19.304375 
z
"/>
    </g>
   </g>
   <g id="text_25">
    <!-- Curva plana $y = f(x)$: -->
    <g style="fill: #374151" transform="translate(759.029547 231.734945) scale(0.1 -0.1)">
     <defs>
      <path id="SegoeUI-Bold-70" d="M 1416 372 
L 1403 372 
L 1403 -1472 
L 416 -1472 
L 416 3200 
L 1403 3200 
L 1403 2719 
L 1416 2719 
Q 1781 3278 2444 3278 
Q 3066 3278 3405 2851 
Q 3744 2425 3744 1691 
Q 3744 891 3348 406 
Q 2953 -78 2297 -78 
Q 1719 -78 1416 372 
z
M 1388 1684 
L 1388 1428 
Q 1388 1097 1563 887 
Q 1738 678 2022 678 
Q 2359 678 2545 939 
Q 2731 1200 2731 1678 
Q 2731 2522 2075 2522 
Q 1772 2522 1580 2292 
Q 1388 2063 1388 1684 
z
" transform="scale(0.015625)"/>
      <path id="SegoeUI-Bold-6e" d="M 3506 0 
L 2522 0 
L 2522 1778 
Q 2522 2522 1991 2522 
Q 1734 2522 1568 2325 
Q 1403 2128 1403 1825 
L 1403 0 
L 416 0 
L 416 3200 
L 1403 3200 
L 1403 2694 
L 1416 2694 
Q 1769 3278 2444 3278 
Q 3506 3278 3506 1959 
L 3506 0 
z
" transform="scale(0.015625)"/>
      <path id="DejaVuSans-Oblique-66" d="M 3059 4863 
L 2969 4384 
L 2419 4384 
Q 2106 4384 1964 4261 
Q 1822 4138 1753 3809 
L 1691 3500 
L 2638 3500 
L 2553 3053 
L 1606 3053 
L 1013 0 
L 434 0 
L 1031 3053 
L 481 3053 
L 563 3500 
L 1113 3500 
L 1159 3744 
Q 1278 4363 1576 4613 
Q 1875 4863 2516 4863 
L 3059 4863 
z
" transform="scale(0.015625)"/>
      <path id="DejaVuSans-28" d="M 1984 4856 
Q 1566 4138 1362 3434 
Q 1159 2731 1159 2009 
Q 1159 1288 1364 580 
Q 1569 -128 1984 -844 
L 1484 -844 
Q 1016 -109 783 600 
Q 550 1309 550 2009 
Q 550 2706 781 3412 
Q 1013 4119 1484 4856 
L 1984 4856 
z
" transform="scale(0.015625)"/>
      <path id="DejaVuSans-29" d="M 513 4856 
L 1013 4856 
Q 1481 4119 1714 3412 
Q 1947 2706 1947 2009 
Q 1947 1309 1714 600 
Q 1481 -109 1013 -844 
L 513 -844 
Q 928 -128 1133 580 
Q 1338 1288 1338 2009 
Q 1338 2731 1133 3434 
Q 928 4138 513 4856 
z
" transform="scale(0.015625)"/>
      <path id="SegoeUI-Bold-3a" d="M 856 2209 
Q 613 2209 450 2357 
Q 288 2506 288 2725 
Q 288 2950 455 3094 
Q 622 3238 872 3238 
Q 1125 3238 1286 3092 
Q 1447 2947 1447 2725 
Q 1447 2497 1283 2353 
Q 1119 2209 856 2209 
z
M 856 -78 
Q 613 -78 450 72 
Q 288 222 288 441 
Q 288 666 455 809 
Q 622 953 872 953 
Q 1125 953 1286 808 
Q 1447 663 1447 441 
Q 1447 213 1283 67 
Q 1119 -78 856 -78 
z
" transform="scale(0.015625)"/>
     </defs>
     <use xlink:href="#SegoeUI-Bold-43" transform="translate(0 0.015625)"/>
     <use xlink:href="#SegoeUI-Bold-75" transform="translate(62.402344 0.015625)"/>
     <use xlink:href="#SegoeUI-Bold-72" transform="translate(122.900391 0.015625)"/>
     <use xlink:href="#SegoeUI-Bold-76" transform="translate(162.695312 0.015625)"/>
     <use xlink:href="#SegoeUI-Bold-61" transform="translate(216.894531 0.015625)"/>
     <use xlink:href="#SegoeUI-Bold-20" transform="translate(270.703125 0.015625)"/>
     <use xlink:href="#SegoeUI-Bold-70" transform="translate(298.291016 0.015625)"/>
     <use xlink:href="#SegoeUI-Bold-6c" transform="translate(360.302734 0.015625)"/>
     <use xlink:href="#SegoeUI-Bold-61" transform="translate(388.720703 0.015625)"/>
     <use xlink:href="#SegoeUI-Bold-6e" transform="translate(442.529297 0.015625)"/>
     <use xlink:href="#SegoeUI-Bold-61" transform="translate(503.027344 0.015625)"/>
     <use xlink:href="#SegoeUI-Bold-20" transform="translate(556.835938 0.015625)"/>
     <use xlink:href="#DejaVuSans-Oblique-79" transform="translate(584.423828 0.015625)"/>
     <use xlink:href="#DejaVuSans-3d" transform="translate(663.085938 0.015625)"/>
     <use xlink:href="#DejaVuSans-Oblique-66" transform="translate(766.357422 0.015625)"/>
     <use xlink:href="#DejaVuSans-28" transform="translate(801.5625 0.015625)"/>
     <use xlink:href="#DejaVuSans-Oblique-78" transform="translate(840.576172 0.015625)"/>
     <use xlink:href="#DejaVuSans-29" transform="translate(899.755859 0.015625)"/>
     <use xlink:href="#SegoeUI-Bold-3a" transform="translate(938.769531 0.015625)"/>
    </g>
   </g>
   <g id="text_26">
    <!-- $\kappa = \frac{|y^{\prime\prime}|}{[1 + (y^\prime)^2]^{3/2}}$ -->
    <g style="fill: #2c2f33" transform="translate(767.809547 283.130434) scale(0.13 -0.13)">
     <defs>
      <path id="DejaVuSans-7c" d="M 1344 4891 
L 1344 -1509 
L 813 -1509 
L 813 4891 
L 1344 4891 
z
" transform="scale(0.015625)"/>
      <path id="DejaVuSans-5b" d="M 550 4863 
L 1875 4863 
L 1875 4416 
L 1125 4416 
L 1125 -397 
L 1875 -397 
L 1875 -844 
L 550 -844 
L 550 4863 
z
" transform="scale(0.015625)"/>
      <path id="DejaVuSans-31" d="M 794 531 
L 1825 531 
L 1825 4091 
L 703 3866 
L 703 4441 
L 1819 4666 
L 2450 4666 
L 2450 531 
L 3481 531 
L 3481 0 
L 794 0 
L 794 531 
z
" transform="scale(0.015625)"/>
      <path id="DejaVuSans-2b" d="M 2944 4013 
L 2944 2272 
L 4684 2272 
L 4684 1741 
L 2944 1741 
L 2944 0 
L 2419 0 
L 2419 1741 
L 678 1741 
L 678 2272 
L 2419 2272 
L 2419 4013 
L 2944 4013 
z
" transform="scale(0.015625)"/>
      <path id="DejaVuSans-32" d="M 1228 531 
L 3431 531 
L 3431 0 
L 469 0 
L 469 531 
Q 828 903 1448 1529 
Q 2069 2156 2228 2338 
Q 2531 2678 2651 2914 
Q 2772 3150 2772 3378 
Q 2772 3750 2511 3984 
Q 2250 4219 1831 4219 
Q 1534 4219 1204 4116 
Q 875 4013 500 3803 
L 500 4441 
Q 881 4594 1212 4672 
Q 1544 4750 1819 4750 
Q 2544 4750 2975 4387 
Q 3406 4025 3406 3419 
Q 3406 3131 3298 2873 
Q 3191 2616 2906 2266 
Q 2828 2175 2409 1742 
Q 1991 1309 1228 531 
z
" transform="scale(0.015625)"/>
      <path id="DejaVuSans-5d" d="M 1947 4863 
L 1947 -844 
L 622 -844 
L 622 -397 
L 1369 -397 
L 1369 4416 
L 622 4416 
L 622 4863 
L 1947 4863 
z
" transform="scale(0.015625)"/>
      <path id="DejaVuSans-2f" d="M 1625 4666 
L 2156 4666 
L 531 -594 
L 0 -594 
L 1625 4666 
z
" transform="scale(0.015625)"/>
     </defs>
     <use xlink:href="#DejaVuSans-Oblique-3ba" transform="translate(0 0.5075)"/>
     <use xlink:href="#DejaVuSans-3d" transform="translate(78.417969 0.5075)"/>
     <use xlink:href="#DejaVuSans-7c" transform="translate(327.689453 60.809062) scale(0.7)"/>
     <use xlink:href="#DejaVuSans-Oblique-79" transform="translate(351.273438 60.809062) scale(0.7)"/>
     <use xlink:href="#Cmsy10-30" transform="translate(395.825521 87.605937) scale(0.49)"/>
     <use xlink:href="#Cmsy10-30" transform="translate(409.295736 87.605937) scale(0.49)"/>
     <use xlink:href="#DejaVuSans-7c" transform="translate(424.680013 60.809062) scale(0.7)"/>
     <use xlink:href="#DejaVuSans-5b" transform="translate(181.689453 -50.109688) scale(0.7)"/>
     <use xlink:href="#DejaVuSans-31" transform="translate(208.999023 -50.109688) scale(0.7)"/>
     <use xlink:href="#DejaVuSans-2b" transform="translate(267.172852 -50.109688) scale(0.7)"/>
     <use xlink:href="#DejaVuSans-28" transform="translate(339.462891 -50.109688) scale(0.7)"/>
     <use xlink:href="#DejaVuSans-Oblique-79" transform="translate(366.772461 -50.109688) scale(0.7)"/>
     <use xlink:href="#Cmsy10-30" transform="translate(411.324544 -23.312813) scale(0.49)"/>
     <use xlink:href="#DejaVuSans-29" transform="translate(426.708822 -50.109688) scale(0.7)"/>
     <use xlink:href="#DejaVuSans-32" transform="translate(454.688314 -23.312813) scale(0.49)"/>
     <use xlink:href="#DejaVuSans-5d" transform="translate(487.777669 -50.109688) scale(0.7)"/>
     <use xlink:href="#DejaVuSans-33" transform="translate(515.757161 -23.312813) scale(0.49)"/>
     <use xlink:href="#DejaVuSans-2f" transform="translate(546.932454 -23.312813) scale(0.49)"/>
     <use xlink:href="#DejaVuSans-32" transform="translate(561.664993 -23.312813) scale(0.49)"/>
     <path d="M 181.689453 19.304375 
L 181.689453 25.554375 
L 594.754349 25.554375 
L 594.754349 19.304375 
L 181.689453 19.304375 
z
"/>
    </g>
   </g>
   <g id="text_27">
    <!-- RADIO DE CURVATURA -->
    <g style="fill: #f59e0b" transform="translate(752.810797 349.944569) scale(0.1 -0.1)">
     <defs>
      <path id="SegoeUI-Bold-44" d="M 513 0 
L 513 4481 
L 2100 4481 
Q 4488 4481 4488 2297 
Q 4488 1250 3836 625 
Q 3184 0 2100 0 
L 513 0 
z
M 1522 3659 
L 1522 819 
L 2022 819 
Q 2678 819 3051 1212 
Q 3425 1606 3425 2284 
Q 3425 2925 3054 3292 
Q 2684 3659 2016 3659 
L 1522 3659 
z
" transform="scale(0.015625)"/>
      <path id="SegoeUI-Bold-49" d="M 1522 0 
L 513 0 
L 513 4481 
L 1522 4481 
L 1522 0 
z
" transform="scale(0.015625)"/>
      <path id="SegoeUI-Bold-45" d="M 3200 0 
L 513 0 
L 513 4481 
L 3097 4481 
L 3097 3659 
L 1522 3659 
L 1522 2663 
L 2988 2663 
L 2988 1844 
L 1522 1844 
L 1522 819 
L 3200 819 
L 3200 0 
z
" transform="scale(0.015625)"/>
     </defs>
     <use xlink:href="#SegoeUI-Bold-52"/>
     <use xlink:href="#SegoeUI-Bold-41" x="65.283203"/>
     <use xlink:href="#SegoeUI-Bold-44" x="135.595703"/>
     <use xlink:href="#SegoeUI-Bold-49" x="209.326172"/>
     <use xlink:href="#SegoeUI-Bold-4f" x="241.015625"/>
     <use xlink:href="#SegoeUI-Bold-20" x="316.845703"/>
     <use xlink:href="#SegoeUI-Bold-44" x="344.433594"/>
     <use xlink:href="#SegoeUI-Bold-45" x="418.164062"/>
     <use xlink:href="#SegoeUI-Bold-20" x="471.386719"/>
     <use xlink:href="#SegoeUI-Bold-43" x="498.974609"/>
     <use xlink:href="#SegoeUI-Bold-55" x="561.376953"/>
     <use xlink:href="#SegoeUI-Bold-52" x="633.691406"/>
     <use xlink:href="#SegoeUI-Bold-56" x="698.974609"/>
     <use xlink:href="#SegoeUI-Bold-41" x="760.548828"/>
     <use xlink:href="#SegoeUI-Bold-54" x="823.861328"/>
     <use xlink:href="#SegoeUI-Bold-55" x="882.455078"/>
     <use xlink:href="#SegoeUI-Bold-52" x="954.769531"/>
     <use xlink:href="#SegoeUI-Bold-41" x="1020.052734"/>
    </g>
   </g>
   <g id="text_28">
    <!-- $\rho = \frac{1}{\kappa}$ -->
    <g style="fill: #2c2f33" transform="translate(790.249547 401.340057) scale(0.14 -0.14)">
     <use xlink:href="#DejaVuSans-Oblique-3c1" transform="translate(0 0.16875)"/>
     <use xlink:href="#DejaVuSans-3d" transform="translate(82.958984 0.16875)"/>
     <use xlink:href="#DejaVuSans-31" transform="translate(186.230469 43.965625) scale(0.7)"/>
     <use xlink:href="#DejaVuSans-Oblique-3ba" transform="translate(188.230469 -25.565625) scale(0.7)"/>
     <path d="M 186.230469 18.965625 
L 186.230469 25.215625 
L 230.766602 25.215625 
L 230.766602 18.965625 
L 186.230469 18.965625 
z
"/>
    </g>
   </g>
   <g id="text_29">
    <!-- CENTRO DE CURVATURA -->
    <g style="fill: #dc2626" transform="translate(748.986578 463.014644) scale(0.1 -0.1)">
     <defs>
      <path id="SegoeUI-Bold-4e" d="M 4544 0 
L 3525 0 
L 1678 2816 
Q 1516 3063 1453 3188 
L 1441 3188 
Q 1466 2950 1466 2463 
L 1466 0 
L 513 0 
L 513 4481 
L 1600 4481 
L 3378 1753 
Q 3500 1569 3603 1388 
L 3616 1388 
Q 3591 1544 3591 2003 
L 3591 4481 
L 4544 4481 
L 4544 0 
z
" transform="scale(0.015625)"/>
     </defs>
     <use xlink:href="#SegoeUI-Bold-43"/>
     <use xlink:href="#SegoeUI-Bold-45" x="62.402344"/>
     <use xlink:href="#SegoeUI-Bold-4e" x="115.625"/>
     <use xlink:href="#SegoeUI-Bold-54" x="194.628906"/>
     <use xlink:href="#SegoeUI-Bold-52" x="253.222656"/>
     <use xlink:href="#SegoeUI-Bold-4f" x="317.505859"/>
     <use xlink:href="#SegoeUI-Bold-20" x="393.335938"/>
     <use xlink:href="#SegoeUI-Bold-44" x="420.923828"/>
     <use xlink:href="#SegoeUI-Bold-45" x="494.654297"/>
     <use xlink:href="#SegoeUI-Bold-20" x="547.876953"/>
     <use xlink:href="#SegoeUI-Bold-43" x="575.464844"/>
     <use xlink:href="#SegoeUI-Bold-55" x="637.867188"/>
     <use xlink:href="#SegoeUI-Bold-52" x="710.181641"/>
     <use xlink:href="#SegoeUI-Bold-56" x="775.464844"/>
     <use xlink:href="#SegoeUI-Bold-41" x="837.039062"/>
     <use xlink:href="#SegoeUI-Bold-54" x="900.351562"/>
     <use xlink:href="#SegoeUI-Bold-55" x="958.945312"/>
     <use xlink:href="#SegoeUI-Bold-52" x="1031.259766"/>
     <use xlink:href="#SegoeUI-Bold-41" x="1096.542969"/>
    </g>
   </g>
   <g id="text_30">
    <!-- Centro $= \mathbf{r}(t) + \rho\mathbf{N}(t)$ -->
    <g style="fill: #2c2f33" transform="translate(752.219547 514.410133) scale(0.11 -0.11)">
     <defs>
      <path id="DejaVuSans-Oblique-74" d="M 2706 3500 
L 2619 3053 
L 1472 3053 
L 1100 1153 
Q 1081 1047 1072 975 
Q 1063 903 1063 863 
Q 1063 663 1183 572 
Q 1303 481 1569 481 
L 2150 481 
L 2053 0 
L 1503 0 
Q 991 0 739 200 
Q 488 400 488 806 
Q 488 878 497 964 
Q 506 1050 525 1153 
L 897 3053 
L 409 3053 
L 500 3500 
L 978 3500 
L 1172 4494 
L 1747 4494 
L 1556 3500 
L 2706 3500 
z
" transform="scale(0.015625)"/>
     </defs>
     <use xlink:href="#SegoeUI-43" transform="translate(0 0.125)"/>
     <use xlink:href="#SegoeUI-65" transform="translate(61.914062 0.125)"/>
     <use xlink:href="#SegoeUI-6e" transform="translate(114.208984 0.125)"/>
     <use xlink:href="#SegoeUI-74" transform="translate(170.800781 0.125)"/>
     <use xlink:href="#SegoeUI-72" transform="translate(204.6875 0.125)"/>
     <use xlink:href="#SegoeUI-6f" transform="translate(239.453125 0.125)"/>
     <use xlink:href="#SegoeUI-20" transform="translate(298.046875 0.125)"/>
     <use xlink:href="#DejaVuSans-3d" transform="translate(344.921875 0.125)"/>
     <use xlink:href="#DejaVuSans-Bold-72" transform="translate(448.193359 0.125)"/>
     <use xlink:href="#DejaVuSans-28" transform="translate(497.509766 0.125)"/>
     <use xlink:href="#DejaVuSans-Oblique-74" transform="translate(536.523438 0.125)"/>
     <use xlink:href="#DejaVuSans-29" transform="translate(575.732422 0.125)"/>
     <use xlink:href="#DejaVuSans-2b" transform="translate(634.228516 0.125)"/>
     <use xlink:href="#DejaVuSans-Oblique-3c1" transform="translate(737.5 0.125)"/>
     <use xlink:href="#DejaVuSans-Bold-4e" transform="translate(800.976562 0.125)"/>
     <use xlink:href="#DejaVuSans-28" transform="translate(884.667969 0.125)"/>
     <use xlink:href="#DejaVuSans-Oblique-74" transform="translate(923.681641 0.125)"/>
     <use xlink:href="#DejaVuSans-29" transform="translate(962.890625 0.125)"/>
    </g>
   </g>
  </g>
  <g id="text_31">
   <!-- Curvatura y Círculo Osculador -->
   <g style="fill: #2c2f33" transform="translate(407.508195 17.564375) scale(0.14 -0.14)">
    <use xlink:href="#SegoeUI-Bold-43"/>
    <use xlink:href="#SegoeUI-Bold-75" x="62.402344"/>
    <use xlink:href="#SegoeUI-Bold-72" x="122.900391"/>
    <use xlink:href="#SegoeUI-Bold-76" x="166.695312"/>
    <use xlink:href="#SegoeUI-Bold-61" x="219.394531"/>
    <use xlink:href="#SegoeUI-Bold-74" x="273.203125"/>
    <use xlink:href="#SegoeUI-Bold-75" x="312.119141"/>
    <use xlink:href="#SegoeUI-Bold-72" x="372.617188"/>
    <use xlink:href="#SegoeUI-Bold-61" x="412.412109"/>
    <use xlink:href="#SegoeUI-Bold-20" x="466.220703"/>
    <use xlink:href="#SegoeUI-Bold-79" x="493.808594"/>
    <use xlink:href="#SegoeUI-Bold-20" x="547.617188"/>
    <use xlink:href="#SegoeUI-Bold-43" x="575.205078"/>
    <use xlink:href="#SegoeUI-Bold-ed" x="637.607422"/>
    <use xlink:href="#SegoeUI-Bold-72" x="666.025391"/>
    <use xlink:href="#SegoeUI-Bold-63" x="705.445312"/>
    <use xlink:href="#SegoeUI-Bold-75" x="753.443359"/>
    <use xlink:href="#SegoeUI-Bold-6c" x="813.941406"/>
    <use xlink:href="#SegoeUI-Bold-6f" x="842.359375"/>
    <use xlink:href="#SegoeUI-Bold-20" x="903.492188"/>
    <use xlink:href="#SegoeUI-Bold-4f" x="931.080078"/>
    <use xlink:href="#SegoeUI-Bold-73" x="1006.910156"/>
    <use xlink:href="#SegoeUI-Bold-63" x="1050.904297"/>
    <use xlink:href="#SegoeUI-Bold-75" x="1098.902344"/>
    <use xlink:href="#SegoeUI-Bold-6c" x="1159.400391"/>
    <use xlink:href="#SegoeUI-Bold-61" x="1187.818359"/>
    <use xlink:href="#SegoeUI-Bold-64" x="1241.626953"/>
    <use xlink:href="#SegoeUI-Bold-6f" x="1303.541016"/>
    <use xlink:href="#SegoeUI-Bold-72" x="1364.673828"/>
   </g>
  </g>
 </g>
 <defs>
  <clipPath id="pc6264a9b24">
   <rect x="41.104688" y="36.432088" width="513.954887" height="513.954887"/>
  </clipPath>
  <clipPath id="p833f233d54">
   <rect x="607.83067" y="36.432088" width="398.997753" height="513.954887"/>
  </clipPath>
 </defs>
</svg>
