<?xml version="1.0" encoding="utf-8" standalone="no"?>
<!DOCTYPE svg PUBLIC "-//W3C//DTD SVG 1.1//EN"
  "http://www.w3.org/Graphics/SVG/1.1/DTD/svg11.dtd">
<svg xmlns:xlink="http://www.w3.org/1999/xlink" width="1016.39952pt" height="656.39952pt" viewBox="0 0 1016.39952 656.39952" xmlns="http://www.w3.org/2000/svg" version="1.1">
 <metadata>
  <rdf:RDF xmlns:dc="http://purl.org/dc/elements/1.1/" xmlns:cc="http://creativecommons.org/ns#" xmlns:rdf="http://www.w3.org/1999/02/22-rdf-syntax-ns#">
   <cc:Work>
    <dc:type rdf:resource="http://purl.org/dc/dcmitype/StillImage"/>
    <dc:date>2026-04-11T16:11:56.727508</dc:date>
    <dc:format>image/svg+xml</dc:format>
    <dc:creator>
     <cc:Agent>
      <dc:title>Matplotlib v3.8.4, https://matplotlib.org/</dc:title>
     </cc:Agent>
    </dc:creator>
   </cc:Work>
  </rdf:RDF>
 </metadata>
 <defs>
  <style type="text/css">*{stroke-linejoin: round; stroke-linecap: butt}</style>
 </defs>
 <g id="figure_1">
  <g id="patch_1">
   <path d="M 0 656.39952 
L 1016.39952 656.39952 
L 1016.39952 0 
L 0 0 
z
" style="fill: #ffffff"/>
  </g>
  <g id="patch_2">
   <path d="M 351.162239 359.003334 
L 665.237281 359.003334 
L 665.237281 44.928292 
L 351.162239 44.928292 
z
" style="fill: #ffffff"/>
  </g>
  <g id="pane3d_1">
   <g id="patch_3">
    <path d="M 500.590272 192.757831 
L 657.507403 248.349882 
L 662.110947 134.418893 
L 500.239659 84.924603 
" style="fill: none; opacity: 0.5; stroke: #f2f2f2; stroke-linejoin: miter"/>
   </g>
  </g>
  <g id="pane3d_2">
   <g id="patch_4">
    <path d="M 500.590272 192.757831 
L 365.387956 259.919934 
L 360.655007 144.745931 
L 500.239659 84.924603 
" style="fill: none; opacity: 0.5; stroke: #e6e6e6; stroke-linejoin: miter"/>
   </g>
  </g>
  <g id="pane3d_3">
   <g id="patch_5">
    <path d="M 500.590272 192.757831 
L 365.387956 259.919934 
L 526.302533 325.806813 
L 657.507403 248.349882 
" style="fill: none; opacity: 0.5; stroke: #ececec; stroke-linejoin: miter"/>
   </g>
  </g>
  <g id="grid3d_1">
   <g id="Line3DCollection_1">
    <path d="M 643.431887 256.659378 
L 486.007373 200.001923 
L 485.218009 91.362381 
" style="fill: none; stroke: #b0b0b0; stroke-width: 0.8"/>
    <path d="M 619.514085 270.779277 
L 461.27088 212.289841 
L 459.718551 102.290599 
" style="fill: none; stroke: #b0b0b0; stroke-width: 0.8"/>
    <path d="M 594.788801 285.375874 
L 435.756642 224.964106 
L 433.392644 113.573005 
" style="fill: none; stroke: #b0b0b0; stroke-width: 0.8"/>
    <path d="M 569.214442 300.473723 
L 409.427393 238.043229 
L 406.199448 125.227102 
" style="fill: none; stroke: #b0b0b0; stroke-width: 0.8"/>
    <path d="M 542.746507 316.099096 
L 382.243448 251.546924 
L 378.095389 137.271565 
" style="fill: none; stroke: #b0b0b0; stroke-width: 0.8"/>
   </g>
  </g>
  <g id="grid3d_2">
   <g id="Line3DCollection_2">
    <path d="M 517.879802 90.31831 
L 517.722435 198.827353 
L 382.862078 267.074758 
" style="fill: none; stroke: #b0b0b0; stroke-width: 0.8"/>
    <path d="M 547.701442 99.436671 
L 546.667532 209.081921 
L 412.437314 279.184412 
" style="fill: none; stroke: #b0b0b0; stroke-width: 0.8"/>
    <path d="M 578.328628 108.801339 
L 576.37127 219.605257 
L 442.856342 291.63956 
" style="fill: none; stroke: #b0b0b0; stroke-width: 0.8"/>
    <path d="M 609.794448 118.422431 
L 606.86387 230.408069 
L 474.155796 304.4552 
" style="fill: none; stroke: #b0b0b0; stroke-width: 0.8"/>
    <path d="M 642.133824 128.310623 
L 638.177182 241.501639 
L 506.374461 317.647214 
" style="fill: none; stroke: #b0b0b0; stroke-width: 0.8"/>
   </g>
  </g>
  <g id="grid3d_3">
   <g id="Line3DCollection_3">
    <path d="M 365.296191 257.686887 
L 500.583457 190.661919 
L 657.596697 246.13999 
" style="fill: none; stroke: #b0b0b0; stroke-width: 0.8"/>
    <path d="M 364.557931 239.721674 
L 500.528656 173.807474 
L 658.315025 228.362427 
" style="fill: none; stroke: #b0b0b0; stroke-width: 0.8"/>
    <path d="M 363.812225 221.575285 
L 500.473346 156.796555 
L 659.040498 210.408034 
" style="fill: none; stroke: #b0b0b0; stroke-width: 0.8"/>
    <path d="M 363.05896 203.244965 
L 500.41752 139.626974 
L 659.773222 192.274161 
" style="fill: none; stroke: #b0b0b0; stroke-width: 0.8"/>
    <path d="M 362.298022 184.727902 
L 500.361171 122.296501 
L 660.513309 173.958102 
" style="fill: none; stroke: #b0b0b0; stroke-width: 0.8"/>
    <path d="M 361.529292 166.021229 
L 500.304292 104.802863 
L 661.260868 155.457098 
" style="fill: none; stroke: #b0b0b0; stroke-width: 0.8"/>
    <path d="M 360.75265 147.122018 
L 500.246874 87.143745 
L 662.016014 136.768333 
" style="fill: none; stroke: #b0b0b0; stroke-width: 0.8"/>
   </g>
  </g>
  <g id="axis3d_1">
   <g id="line2d_1">
    <path d="M 657.507403 248.349882 
L 526.302533 325.806813 
" style="fill: none; stroke: #4b5563; stroke-width: 0.8; stroke-linecap: square"/>
   </g>
   <g id="xtick_1">
    <g id="line2d_2">
     <path d="M 642.083386 256.174049 
L 646.133512 257.631699 
" style="fill: none; stroke: #2c2f33; stroke-width: 0.8; stroke-linecap: square"/>
    </g>
    <g id="text_1">
     <!-- −2 -->
     <g style="fill: #2c2f33" transform="translate(648.920094 276.185831) scale(0.1 -0.1)">
      <defs>
       <path id="SegoeUI-2212" d="M 3663 1656 
L 725 1656 
L 725 2075 
L 3663 2075 
L 3663 1656 
z
" transform="scale(0.015625)"/>
       <path id="SegoeUI-32" d="M 2413 3306 
Q 2413 3513 2348 3666 
Q 2284 3819 2173 3920 
Q 2063 4022 1913 4072 
Q 1763 4122 1588 4122 
Q 1438 4122 1294 4081 
Q 1150 4041 1014 3969 
Q 878 3897 751 3797 
Q 625 3697 516 3575 
L 516 4125 
Q 731 4334 998 4445 
Q 1266 4556 1650 4556 
Q 1925 4556 2159 4476 
Q 2394 4397 2566 4244 
Q 2738 4091 2836 3866 
Q 2934 3641 2934 3350 
Q 2934 3084 2873 2868 
Q 2813 2653 2689 2462 
Q 2566 2272 2378 2097 
Q 2191 1922 1938 1741 
Q 1622 1516 1417 1356 
Q 1213 1197 1092 1058 
Q 972 919 923 780 
Q 875 641 875 459 
L 3106 459 
L 3106 0 
L 341 0 
L 341 222 
Q 341 509 403 728 
Q 466 947 609 1144 
Q 753 1341 986 1537 
Q 1219 1734 1556 1981 
Q 1800 2156 1964 2315 
Q 2128 2475 2228 2634 
Q 2328 2794 2370 2958 
Q 2413 3122 2413 3306 
z
" transform="scale(0.015625)"/>
      </defs>
      <use xlink:href="#SegoeUI-2212"/>
      <use xlink:href="#SegoeUI-32" x="68.408203"/>
     </g>
    </g>
   </g>
   <g id="xtick_2">
    <g id="line2d_3">
     <path d="M 618.157085 270.277706 
L 622.232815 271.784167 
" style="fill: none; stroke: #2c2f33; stroke-width: 0.8; stroke-linecap: square"/>
    </g>
    <g id="text_2">
     <!-- −1 -->
     <g style="fill: #2c2f33" transform="translate(625.126385 290.548346) scale(0.1 -0.1)">
      <defs>
       <path id="SegoeUI-31" d="M 2263 0 
L 1750 0 
L 1750 3872 
Q 1691 3813 1577 3736 
Q 1463 3659 1320 3584 
Q 1178 3509 1020 3443 
Q 863 3378 713 3341 
L 713 3859 
Q 881 3906 1070 3986 
Q 1259 4066 1442 4164 
Q 1625 4263 1787 4370 
Q 1950 4478 2069 4581 
L 2263 4581 
L 2263 0 
z
" transform="scale(0.015625)"/>
      </defs>
      <use xlink:href="#SegoeUI-2212"/>
      <use xlink:href="#SegoeUI-31" x="68.408203"/>
     </g>
    </g>
   </g>
   <g id="xtick_3">
    <g id="line2d_4">
     <path d="M 593.423492 284.857232 
L 597.524259 286.414996 
" style="fill: none; stroke: #2c2f33; stroke-width: 0.8; stroke-linecap: square"/>
    </g>
    <g id="text_3">
     <!-- 0 -->
     <g style="fill: #2c2f33" transform="translate(603.947337 305.397175) scale(0.1 -0.1)">
      <defs>
       <path id="SegoeUI-30" d="M 3188 2259 
Q 3188 1697 3086 1262 
Q 2984 828 2792 529 
Q 2600 231 2320 76 
Q 2041 -78 1684 -78 
Q 1347 -78 1083 70 
Q 819 219 637 503 
Q 456 788 362 1202 
Q 269 1616 269 2150 
Q 269 2738 367 3188 
Q 466 3638 656 3942 
Q 847 4247 1130 4401 
Q 1413 4556 1778 4556 
Q 3188 4556 3188 2259 
z
M 2663 2209 
Q 2663 4122 1753 4122 
Q 794 4122 794 2175 
Q 794 359 1734 359 
Q 2663 359 2663 2209 
z
" transform="scale(0.015625)"/>
      </defs>
      <use xlink:href="#SegoeUI-30"/>
     </g>
    </g>
   </g>
   <g id="xtick_4">
    <g id="line2d_5">
     <path d="M 567.841048 299.937123 
L 571.966183 301.548857 
" style="fill: none; stroke: #2c2f33; stroke-width: 0.8; stroke-linecap: square"/>
    </g>
    <g id="text_4">
     <!-- 1 -->
     <g style="fill: #2c2f33" transform="translate(578.500701 320.757442) scale(0.1 -0.1)">
      <use xlink:href="#SegoeUI-31"/>
     </g>
    </g>
   </g>
   <g id="xtick_5">
    <g id="line2d_6">
     <path d="M 541.365291 315.543589 
L 545.514007 317.212147 
" style="fill: none; stroke: #2c2f33; stroke-width: 0.8; stroke-linecap: square"/>
    </g>
    <g id="text_5">
     <!-- 2 -->
     <g style="fill: #2c2f33" transform="translate(552.162248 336.656032) scale(0.1 -0.1)">
      <use xlink:href="#SegoeUI-32"/>
     </g>
    </g>
   </g>
   <g id="text_6">
    <!-- X -->
    <g style="fill: #2c2f33" transform="translate(617.697987 315.453173) scale(0.1 -0.1)">
     <defs>
      <path id="SegoeUI-58" d="M 3681 0 
L 3041 0 
L 2009 1716 
Q 1963 1794 1906 1938 
L 1894 1938 
Q 1863 1866 1788 1716 
L 725 0 
L 81 0 
L 1581 2253 
L 200 4481 
L 844 4481 
L 1759 2906 
Q 1850 2750 1919 2594 
L 1931 2594 
Q 2031 2800 2106 2919 
L 3059 4481 
L 3663 4481 
L 2253 2259 
L 3681 0 
z
" transform="scale(0.015625)"/>
     </defs>
     <use xlink:href="#SegoeUI-58"/>
    </g>
   </g>
  </g>
  <g id="axis3d_2">
   <g id="line2d_7">
    <path d="M 365.387956 259.919934 
L 526.302533 325.806813 
" style="fill: none; stroke: #4b5563; stroke-width: 0.8; stroke-linecap: square"/>
   </g>
   <g id="xtick_6">
    <g id="line2d_8">
     <path d="M 384.033034 266.482184 
L 380.515321 268.262357 
" style="fill: none; stroke: #2c2f33; stroke-width: 0.8; stroke-linecap: square"/>
    </g>
    <g id="text_7">
     <!-- −2 -->
     <g style="fill: #2c2f33" transform="translate(366.697175 287.633746) scale(0.1 -0.1)">
      <use xlink:href="#SegoeUI-2212"/>
      <use xlink:href="#SegoeUI-32" x="68.408203"/>
     </g>
    </g>
   </g>
   <g id="xtick_7">
    <g id="line2d_9">
     <path d="M 413.604087 278.575059 
L 410.098873 280.405676 
" style="fill: none; stroke: #2c2f33; stroke-width: 0.8; stroke-linecap: square"/>
    </g>
    <g id="text_8">
     <!-- −1 -->
     <g style="fill: #2c2f33" transform="translate(396.246188 299.976516) scale(0.1 -0.1)">
      <use xlink:href="#SegoeUI-2212"/>
      <use xlink:href="#SegoeUI-31" x="68.408203"/>
     </g>
    </g>
   </g>
   <g id="xtick_8">
    <g id="line2d_10">
     <path d="M 444.018215 291.012703 
L 440.527652 292.895941 
" style="fill: none; stroke: #2c2f33; stroke-width: 0.8; stroke-linecap: square"/>
    </g>
    <g id="text_9">
     <!-- 0 -->
     <g style="fill: #2c2f33" transform="translate(430.061902 312.672828) scale(0.1 -0.1)">
      <use xlink:href="#SegoeUI-30"/>
     </g>
    </g>
   </g>
   <g id="xtick_9">
    <g id="line2d_11">
     <path d="M 475.311995 303.810076 
L 471.838406 305.748235 
" style="fill: none; stroke: #2c2f33; stroke-width: 0.8; stroke-linecap: square"/>
    </g>
    <g id="text_10">
     <!-- 1 -->
     <g style="fill: #2c2f33" transform="translate(461.340586 325.738091) scale(0.1 -0.1)">
      <use xlink:href="#SegoeUI-31"/>
     </g>
    </g>
   </g>
   <g id="xtick_10">
    <g id="line2d_12">
     <path d="M 507.52415 316.983011 
L 504.070046 318.978529 
" style="fill: none; stroke: #2c2f33; stroke-width: 0.8; stroke-linecap: square"/>
    </g>
    <g id="text_11">
     <!-- 2 -->
     <g style="fill: #2c2f33" transform="translate(493.541622 339.188625) scale(0.1 -0.1)">
      <use xlink:href="#SegoeUI-32"/>
     </g>
    </g>
   </g>
   <g id="text_12">
    <!-- Y -->
    <g style="fill: #2c2f33" transform="translate(418.034934 323.960501) scale(0.1 -0.1)">
     <defs>
      <path id="SegoeUI-59" d="M 3500 4481 
L 2022 1656 
L 2022 0 
L 1497 0 
L 1497 1644 
L 56 4481 
L 653 4481 
L 1656 2456 
Q 1675 2419 1766 2181 
L 1775 2181 
Q 1806 2288 1894 2456 
L 2944 4481 
L 3500 4481 
z
" transform="scale(0.015625)"/>
     </defs>
     <use xlink:href="#SegoeUI-59"/>
    </g>
   </g>
  </g>
  <g id="axis3d_3">
   <g id="line2d_13">
    <path d="M 365.387956 259.919934 
L 360.655007 144.745931 
" style="fill: none; stroke: #4b5563; stroke-width: 0.8; stroke-linecap: square"/>
   </g>
   <g id="xtick_11">
    <g id="line2d_14">
     <path d="M 366.470144 257.105279 
L 362.943466 258.852491 
" style="fill: none; stroke: #2c2f33; stroke-width: 0.8; stroke-linecap: square"/>
    </g>
    <g id="text_13">
     <!-- 0.0 -->
     <g style="fill: #2c2f33" transform="translate(337.969376 265.913732) scale(0.1 -0.1)">
      <defs>
       <path id="SegoeUI-2e" d="M 697 -69 
Q 553 -69 451 34 
Q 350 138 350 281 
Q 350 425 451 529 
Q 553 634 697 634 
Q 844 634 947 529 
Q 1050 425 1050 281 
Q 1050 138 947 34 
Q 844 -69 697 -69 
z
" transform="scale(0.015625)"/>
      </defs>
      <use xlink:href="#SegoeUI-30"/>
      <use xlink:href="#SegoeUI-2e" x="53.90625"/>
      <use xlink:href="#SegoeUI-30" x="75.585938"/>
     </g>
    </g>
   </g>
   <g id="xtick_12">
    <g id="line2d_15">
     <path d="M 365.738276 239.149481 
L 362.192369 240.868422 
" style="fill: none; stroke: #2c2f33; stroke-width: 0.8; stroke-linecap: square"/>
    </g>
    <g id="text_14">
     <!-- 0.5 -->
     <g style="fill: #2c2f33" transform="translate(337.12568 247.935192) scale(0.1 -0.1)">
      <defs>
       <path id="SegoeUI-35" d="M 3028 1369 
Q 3028 1041 2915 775 
Q 2803 509 2595 318 
Q 2388 128 2094 25 
Q 1800 -78 1441 -78 
Q 816 -78 513 109 
L 513 653 
Q 969 359 1447 359 
Q 1691 359 1886 431 
Q 2081 503 2218 631 
Q 2356 759 2429 940 
Q 2503 1122 2503 1338 
Q 2503 1775 2209 2023 
Q 1916 2272 1356 2272 
Q 1266 2272 1166 2269 
Q 1066 2266 966 2261 
Q 866 2256 770 2250 
Q 675 2244 597 2234 
L 750 4481 
L 2822 4481 
L 2822 4019 
L 1194 4019 
L 1103 2703 
Q 1203 2709 1315 2714 
Q 1428 2719 1516 2719 
Q 1872 2719 2153 2625 
Q 2434 2531 2629 2357 
Q 2825 2184 2926 1932 
Q 3028 1681 3028 1369 
z
" transform="scale(0.015625)"/>
      </defs>
      <use xlink:href="#SegoeUI-30"/>
      <use xlink:href="#SegoeUI-2e" x="53.90625"/>
      <use xlink:href="#SegoeUI-35" x="75.585938"/>
     </g>
    </g>
   </g>
   <g id="xtick_13">
    <g id="line2d_16">
     <path d="M 364.999032 221.012727 
L 361.433688 222.702736 
" style="fill: none; stroke: #2c2f33; stroke-width: 0.8; stroke-linecap: square"/>
    </g>
    <g id="text_15">
     <!-- 1.0 -->
     <g style="fill: #2c2f33" transform="translate(336.273467 229.775164) scale(0.1 -0.1)">
      <use xlink:href="#SegoeUI-31"/>
      <use xlink:href="#SegoeUI-2e" x="53.90625"/>
      <use xlink:href="#SegoeUI-30" x="75.585938"/>
     </g>
    </g>
   </g>
   <g id="xtick_14">
    <g id="line2d_17">
     <path d="M 364.252301 202.692266 
L 360.667305 204.352666 
" style="fill: none; stroke: #2c2f33; stroke-width: 0.8; stroke-linecap: square"/>
    </g>
    <g id="text_16">
     <!-- 1.5 -->
     <g style="fill: #2c2f33" transform="translate(335.412607 211.430886) scale(0.1 -0.1)">
      <use xlink:href="#SegoeUI-31"/>
      <use xlink:href="#SegoeUI-2e" x="53.90625"/>
      <use xlink:href="#SegoeUI-35" x="75.585938"/>
     </g>
    </g>
   </g>
   <g id="xtick_15">
    <g id="line2d_18">
     <path d="M 363.497967 184.185294 
L 359.893105 185.815393 
" style="fill: none; stroke: #2c2f33; stroke-width: 0.8; stroke-linecap: square"/>
    </g>
    <g id="text_17">
     <!-- 2.0 -->
     <g style="fill: #2c2f33" transform="translate(334.542968 192.899539) scale(0.1 -0.1)">
      <use xlink:href="#SegoeUI-32"/>
      <use xlink:href="#SegoeUI-2e" x="53.90625"/>
      <use xlink:href="#SegoeUI-30" x="75.585938"/>
     </g>
    </g>
   </g>
   <g id="xtick_16">
    <g id="line2d_19">
     <path d="M 362.735915 165.488947 
L 359.110965 167.088035 
" style="fill: none; stroke: #2c2f33; stroke-width: 0.8; stroke-linecap: square"/>
    </g>
    <g id="text_18">
     <!-- 2.5 -->
     <g style="fill: #2c2f33" transform="translate(333.664416 174.178247) scale(0.1 -0.1)">
      <use xlink:href="#SegoeUI-32"/>
      <use xlink:href="#SegoeUI-2e" x="53.90625"/>
      <use xlink:href="#SegoeUI-35" x="75.585938"/>
     </g>
    </g>
   </g>
   <g id="xtick_17">
    <g id="line2d_20">
     <path d="M 361.966024 146.600304 
L 358.320764 148.167655 
" style="fill: none; stroke: #2c2f33; stroke-width: 0.8; stroke-linecap: square"/>
    </g>
    <g id="text_19">
     <!-- 3.0 -->
     <g style="fill: #2c2f33" transform="translate(332.776812 155.264075) scale(0.1 -0.1)">
      <defs>
       <path id="SegoeUI-33" d="M 2978 1269 
Q 2978 966 2864 717 
Q 2750 469 2542 292 
Q 2334 116 2043 19 
Q 1753 -78 1403 -78 
Q 763 -78 384 166 
L 384 716 
Q 838 359 1422 359 
Q 1656 359 1845 418 
Q 2034 478 2170 590 
Q 2306 703 2379 862 
Q 2453 1022 2453 1222 
Q 2453 2100 1203 2100 
L 831 2100 
L 831 2534 
L 1184 2534 
Q 2291 2534 2291 3359 
Q 2291 4122 1447 4122 
Q 972 4122 556 3803 
L 556 4300 
Q 984 4556 1575 4556 
Q 1856 4556 2084 4478 
Q 2313 4400 2475 4259 
Q 2638 4119 2727 3922 
Q 2816 3725 2816 3488 
Q 2816 2603 1922 2350 
L 1922 2338 
Q 2150 2313 2344 2227 
Q 2538 2141 2678 2003 
Q 2819 1866 2898 1680 
Q 2978 1494 2978 1269 
z
" transform="scale(0.015625)"/>
      </defs>
      <use xlink:href="#SegoeUI-33"/>
      <use xlink:href="#SegoeUI-2e" x="53.90625"/>
      <use xlink:href="#SegoeUI-30" x="75.585938"/>
     </g>
    </g>
   </g>
   <g id="text_20">
    <!-- Z -->
    <g style="fill: #2c2f33" transform="translate(314.1296 207.500222) scale(0.1 -0.1)">
     <defs>
      <path id="SegoeUI-5a" d="M 3513 4356 
L 888 475 
L 3450 475 
L 3450 0 
L 103 0 
L 103 147 
L 2706 4006 
L 313 4006 
L 313 4481 
L 3513 4481 
L 3513 4356 
z
" transform="scale(0.015625)"/>
     </defs>
     <use xlink:href="#SegoeUI-5a"/>
    </g>
   </g>
  </g>
  <g id="axes_1">
   <g id="line2d_21">
    <path d="M 473.075067 273.058824 
L 476.067203 273.594888 
L 479.217191 274.040845 
L 482.511997 274.3921 
L 489.480155 274.794235 
L 496.853264 274.773324 
L 504.504073 274.3092 
L 508.392086 273.906902 
L 512.299168 273.390039 
L 516.208155 272.75849 
L 520.101866 272.012682 
L 523.963202 271.153587 
L 527.775236 270.182716 
L 531.521311 269.102111 
L 535.185125 267.914323 
L 538.750824 266.622403 
L 542.203082 265.229878 
L 545.527181 263.740724 
L 548.709085 262.159346 
L 551.735503 260.490543 
L 554.593957 258.739483 
L 557.272832 256.911665 
L 559.761424 255.012889 
L 562.049985 253.04922 
L 564.129748 251.026951 
L 565.992963 248.95257 
L 567.632909 246.832721 
L 569.043909 244.674169 
L 570.22134 242.483769 
L 571.161624 240.268424 
L 571.862231 238.03506 
L 572.321661 235.790586 
L 572.53943 233.541872 
L 572.51605 231.295711 
L 572.252999 229.058799 
L 571.752698 226.837706 
L 571.018474 224.638851 
L 570.054528 222.468483 
L 568.865898 220.332659 
L 567.458417 218.237226 
L 565.838678 216.187804 
L 564.01399 214.189773 
L 561.992336 212.248255 
L 559.782333 210.36811 
L 557.393187 208.553917 
L 554.834654 206.809972 
L 552.116997 205.140278 
L 549.250946 203.548538 
L 546.247657 202.03815 
L 543.118671 200.612202 
L 539.875878 199.273472 
L 536.531477 198.02442 
L 533.097942 196.86719 
L 526.014504 194.835169 
L 518.729431 193.188158 
L 511.348704 191.93177 
L 503.979326 191.066493 
L 496.728263 190.587713 
L 489.70137 190.485754 
L 483.002303 190.745938 
L 476.731391 191.348663 
L 470.984468 192.269516 
L 465.851644 193.479412 
L 461.416027 194.944796 
L 459.483402 195.761648 
L 457.752393 196.627895 
L 456.230824 197.538208 
L 454.925824 198.487043 
L 453.843789 199.468651 
L 452.990337 200.477098 
L 452.370273 201.506278 
L 451.987543 202.54994 
L 451.8452 203.601704 
L 451.945368 204.655084 
L 452.289213 205.703517 
L 452.876909 206.740385 
L 453.707615 207.759044 
L 454.779456 208.752853 
L 456.089506 209.715205 
L 457.633775 210.639558 
L 459.407207 211.519467 
L 461.403681 212.348617 
L 463.616018 213.120857 
L 466.035993 213.830234 
L 468.654361 214.471024 
L 471.460884 215.03777 
L 477.592696 215.928809 
L 484.331207 216.466173 
L 491.56336 216.61886 
L 499.165418 216.362841 
L 507.005489 215.681708 
L 514.946345 214.567116 
L 522.848431 213.019012 
L 526.741454 212.084647 
L 530.572976 211.045631 
L 534.326275 209.90425 
L 537.985056 208.663267 
L 541.533539 207.325903 
L 544.956535 205.895815 
L 548.239529 204.377072 
L 551.368746 202.774127 
L 554.33122 201.091787 
L 557.114847 199.335186 
L 559.70844 197.509752 
L 562.101772 195.621169 
L 564.285609 193.67535 
L 566.251743 191.678398 
L 567.993012 189.636577 
L 569.503313 187.556269 
L 570.777614 185.443951 
L 571.811952 183.306154 
L 572.603428 181.149434 
L 573.150201 178.980342 
L 573.451467 176.805394 
L 573.507439 174.631043 
L 573.319326 172.463651 
L 572.8893 170.309468 
L 572.220467 168.174603 
L 571.31683 166.065011 
L 570.183253 163.986466 
L 568.82542 161.944547 
L 567.249797 159.94462 
L 565.463589 157.991827 
L 563.474697 156.09107 
L 561.291677 154.246999 
L 558.923695 152.464007 
L 556.380485 150.746216 
L 553.672309 149.097473 
L 550.809909 147.521342 
L 550.809909 147.521342 
" clip-path="url(#p2d817aa0ee)" style="fill: none; stroke: #39c5bb; stroke-opacity: 0.8; stroke-width: 2.5; stroke-linecap: square"/>
   </g>
   <g id="Path3DCollection_1">
    <defs>
     <path id="m260221f5e1" d="M 0 5 
C 1.326016 5 2.597899 4.473168 3.535534 3.535534 
C 4.473168 2.597899 5 1.326016 5 0 
C 5 -1.326016 4.473168 -2.597899 3.535534 -3.535534 
C 2.597899 -4.473168 1.326016 -5 0 -5 
C -1.326016 -5 -2.597899 -4.473168 -3.535534 -3.535534 
C -4.473168 -2.597899 -5 -1.326016 -5 0 
C -5 1.326016 -4.473168 2.597899 -3.535534 3.535534 
C -2.597899 4.473168 -1.326016 5 0 5 
z
" style="stroke: #374151"/>
    </defs>
    <g clip-path="url(#p2d817aa0ee)">
     <use xlink:href="#m260221f5e1" x="453.180111" y="207.150406" style="fill: #374151; stroke: #374151"/>
    </g>
   </g>
   <g id="text_21">
    <!-- P -->
    <g style="fill: #374151" transform="translate(470.295603 195.437849) scale(0.12 -0.12)">
     <defs>
      <path id="SegoeUI-Bold-50" d="M 1522 1544 
L 1522 0 
L 513 0 
L 513 4481 
L 2094 4481 
Q 3788 4481 3788 3053 
Q 3788 2378 3302 1961 
Q 2816 1544 2003 1544 
L 1522 1544 
z
M 1522 3706 
L 1522 2309 
L 1919 2309 
Q 2725 2309 2725 3016 
Q 2725 3706 1919 3706 
L 1522 3706 
z
" transform="scale(0.015625)"/>
     </defs>
     <use xlink:href="#SegoeUI-Bold-50"/>
    </g>
   </g>
   <g id="text_22">
    <!-- $\mathbf{T}$ -->
    <g style="fill: #dc2626" transform="translate(462.240026 218.071215) scale(0.14 -0.14)">
     <defs>
      <path id="DejaVuSans-Bold-54" d="M 31 4666 
L 4331 4666 
L 4331 3756 
L 2784 3756 
L 2784 0 
L 1581 0 
L 1581 3756 
L 31 3756 
L 31 4666 
z
" transform="scale(0.015625)"/>
     </defs>
     <use xlink:href="#DejaVuSans-Bold-54" transform="translate(0 0.09375)"/>
    </g>
   </g>
   <g id="text_23">
    <!-- $\mathbf{N}$ -->
    <g style="fill: #10b981" transform="translate(500.650424 195.363957) scale(0.14 -0.14)">
     <defs>
      <path id="DejaVuSans-Bold-4e" d="M 588 4666 
L 1931 4666 
L 3628 1466 
L 3628 4666 
L 4769 4666 
L 4769 0 
L 3425 0 
L 1728 3200 
L 1728 0 
L 588 0 
L 588 4666 
z
" transform="scale(0.015625)"/>
     </defs>
     <use xlink:href="#DejaVuSans-Bold-4e" transform="translate(0 0.09375)"/>
    </g>
   </g>
   <g id="text_24">
    <!-- $\mathbf{B}$ -->
    <g style="fill: #3b82f6" transform="translate(452.919024 165.059816) scale(0.14 -0.14)">
     <defs>
      <path id="DejaVuSans-Bold-42" d="M 2456 2859 
Q 2741 2859 2887 2984 
Q 3034 3109 3034 3353 
Q 3034 3594 2887 3720 
Q 2741 3847 2456 3847 
L 1791 3847 
L 1791 2859 
L 2456 2859 
z
M 2497 819 
Q 2859 819 3042 972 
Q 3225 1125 3225 1434 
Q 3225 1738 3044 1889 
Q 2863 2041 2497 2041 
L 1791 2041 
L 1791 819 
L 2497 819 
z
M 3616 2497 
Q 4003 2384 4215 2081 
Q 4428 1778 4428 1338 
Q 4428 663 3972 331 
Q 3516 0 2584 0 
L 588 0 
L 588 4666 
L 2394 4666 
Q 3366 4666 3802 4372 
Q 4238 4078 4238 3431 
Q 4238 3091 4078 2852 
Q 3919 2613 3616 2497 
z
" transform="scale(0.015625)"/>
     </defs>
     <use xlink:href="#DejaVuSans-Bold-42" transform="translate(0 0.09375)"/>
    </g>
   </g>
   <g id="text_25">
    <!-- Plano -->
    <g style="fill: #f59e0b" transform="translate(404.235329 191.130376) scale(0.09 -0.09)">
     <defs>
      <path id="SegoeUI-50" d="M 1113 1694 
L 1113 0 
L 588 0 
L 588 4481 
L 1819 4481 
Q 2538 4481 2933 4131 
Q 3328 3781 3328 3144 
Q 3328 2506 2889 2100 
Q 2450 1694 1703 1694 
L 1113 1694 
z
M 1113 4006 
L 1113 2169 
L 1663 2169 
Q 2206 2169 2492 2417 
Q 2778 2666 2778 3119 
Q 2778 4006 1728 4006 
L 1113 4006 
z
" transform="scale(0.015625)"/>
      <path id="SegoeUI-6c" d="M 1031 0 
L 519 0 
L 519 4738 
L 1031 4738 
L 1031 0 
z
" transform="scale(0.015625)"/>
      <path id="SegoeUI-61" d="M 2809 0 
L 2297 0 
L 2297 500 
L 2284 500 
Q 1950 -75 1300 -75 
Q 822 -75 551 178 
Q 281 431 281 850 
Q 281 1747 1338 1894 
L 2297 2028 
Q 2297 2844 1638 2844 
Q 1059 2844 594 2450 
L 594 2975 
Q 1066 3275 1681 3275 
Q 2809 3275 2809 2081 
L 2809 0 
z
M 2297 1619 
L 1525 1513 
Q 1169 1463 987 1336 
Q 806 1209 806 888 
Q 806 653 973 504 
Q 1141 356 1419 356 
Q 1800 356 2048 623 
Q 2297 891 2297 1300 
L 2297 1619 
z
" transform="scale(0.015625)"/>
      <path id="SegoeUI-6e" d="M 3175 0 
L 2663 0 
L 2663 1825 
Q 2663 2844 1919 2844 
Q 1534 2844 1282 2555 
Q 1031 2266 1031 1825 
L 1031 0 
L 519 0 
L 519 3200 
L 1031 3200 
L 1031 2669 
L 1044 2669 
Q 1406 3275 2094 3275 
Q 2619 3275 2897 2936 
Q 3175 2597 3175 1956 
L 3175 0 
z
" transform="scale(0.015625)"/>
      <path id="SegoeUI-6f" d="M 1856 -75 
Q 1147 -75 723 373 
Q 300 822 300 1563 
Q 300 2369 740 2822 
Q 1181 3275 1931 3275 
Q 2647 3275 3048 2834 
Q 3450 2394 3450 1613 
Q 3450 847 3017 386 
Q 2584 -75 1856 -75 
z
M 1894 2844 
Q 1400 2844 1112 2508 
Q 825 2172 825 1581 
Q 825 1013 1115 684 
Q 1406 356 1894 356 
Q 2391 356 2658 678 
Q 2925 1000 2925 1594 
Q 2925 2194 2658 2519 
Q 2391 2844 1894 2844 
z
" transform="scale(0.015625)"/>
     </defs>
     <use xlink:href="#SegoeUI-50"/>
     <use xlink:href="#SegoeUI-6c" x="56.005859"/>
     <use xlink:href="#SegoeUI-61" x="80.224609"/>
     <use xlink:href="#SegoeUI-6e" x="131.103516"/>
     <use xlink:href="#SegoeUI-6f" x="187.695312"/>
    </g>
    <!-- osculador -->
    <g style="fill: #f59e0b" transform="translate(395.915954 201.195751) scale(0.09 -0.09)">
     <defs>
      <path id="SegoeUI-73" d="M 325 116 
L 325 666 
Q 744 356 1247 356 
Q 1922 356 1922 806 
Q 1922 934 1864 1023 
Q 1806 1113 1707 1181 
Q 1609 1250 1476 1304 
Q 1344 1359 1191 1419 
Q 978 1503 817 1589 
Q 656 1675 548 1783 
Q 441 1891 386 2028 
Q 331 2166 331 2350 
Q 331 2575 434 2748 
Q 538 2922 709 3039 
Q 881 3156 1101 3215 
Q 1322 3275 1556 3275 
Q 1972 3275 2300 3131 
L 2300 2613 
Q 1947 2844 1488 2844 
Q 1344 2844 1228 2811 
Q 1113 2778 1030 2718 
Q 947 2659 901 2576 
Q 856 2494 856 2394 
Q 856 2269 901 2184 
Q 947 2100 1034 2034 
Q 1122 1969 1247 1916 
Q 1372 1863 1531 1800 
Q 1744 1719 1912 1633 
Q 2081 1547 2200 1439 
Q 2319 1331 2383 1190 
Q 2447 1050 2447 856 
Q 2447 619 2342 444 
Q 2238 269 2063 153 
Q 1888 38 1659 -18 
Q 1431 -75 1181 -75 
Q 688 -75 325 116 
z
" transform="scale(0.015625)"/>
      <path id="SegoeUI-63" d="M 2700 147 
Q 2331 -75 1825 -75 
Q 1141 -75 720 370 
Q 300 816 300 1525 
Q 300 2316 753 2795 
Q 1206 3275 1963 3275 
Q 2384 3275 2706 3119 
L 2706 2594 
Q 2350 2844 1944 2844 
Q 1453 2844 1139 2492 
Q 825 2141 825 1569 
Q 825 1006 1120 681 
Q 1416 356 1913 356 
Q 2331 356 2700 634 
L 2700 147 
z
" transform="scale(0.015625)"/>
      <path id="SegoeUI-75" d="M 3106 0 
L 2594 0 
L 2594 506 
L 2581 506 
Q 2263 -75 1594 -75 
Q 450 -75 450 1288 
L 450 3200 
L 959 3200 
L 959 1369 
Q 959 356 1734 356 
Q 2109 356 2351 632 
Q 2594 909 2594 1356 
L 2594 3200 
L 3106 3200 
L 3106 0 
z
" transform="scale(0.015625)"/>
      <path id="SegoeUI-64" d="M 3250 0 
L 2738 0 
L 2738 544 
L 2725 544 
Q 2369 -75 1625 -75 
Q 1022 -75 661 354 
Q 300 784 300 1525 
Q 300 2319 700 2797 
Q 1100 3275 1766 3275 
Q 2425 3275 2725 2756 
L 2738 2756 
L 2738 4738 
L 3250 4738 
L 3250 0 
z
M 2738 1447 
L 2738 1919 
Q 2738 2306 2481 2575 
Q 2225 2844 1831 2844 
Q 1363 2844 1094 2500 
Q 825 2156 825 1550 
Q 825 997 1083 676 
Q 1341 356 1775 356 
Q 2203 356 2470 665 
Q 2738 975 2738 1447 
z
" transform="scale(0.015625)"/>
      <path id="SegoeUI-72" d="M 2188 2681 
Q 2053 2784 1800 2784 
Q 1472 2784 1251 2475 
Q 1031 2166 1031 1631 
L 1031 0 
L 519 0 
L 519 3200 
L 1031 3200 
L 1031 2541 
L 1044 2541 
Q 1153 2878 1378 3067 
Q 1603 3256 1881 3256 
Q 2081 3256 2188 3213 
L 2188 2681 
z
" transform="scale(0.015625)"/>
     </defs>
     <use xlink:href="#SegoeUI-6f"/>
     <use xlink:href="#SegoeUI-73" x="58.59375"/>
     <use xlink:href="#SegoeUI-63" x="101.025391"/>
     <use xlink:href="#SegoeUI-75" x="147.216797"/>
     <use xlink:href="#SegoeUI-6c" x="203.808594"/>
     <use xlink:href="#SegoeUI-61" x="228.027344"/>
     <use xlink:href="#SegoeUI-64" x="278.90625"/>
     <use xlink:href="#SegoeUI-6f" x="337.792969"/>
     <use xlink:href="#SegoeUI-72" x="396.386719"/>
    </g>
   </g>
   <g id="text_26">
    <!-- Marco de Frenet-Serret en una Hélice -->
    <g style="fill: #2c2f33" transform="translate(412.027104 34.928292) scale(0.11 -0.11)">
     <defs>
      <path id="SegoeUI-Bold-4d" d="M 5619 0 
L 4622 0 
L 4622 2681 
Q 4622 3116 4659 3641 
L 4634 3641 
Q 4556 3228 4494 3047 
L 3444 0 
L 2619 0 
L 1550 3016 
Q 1506 3138 1409 3641 
L 1381 3641 
Q 1422 2978 1422 2478 
L 1422 0 
L 513 0 
L 513 4481 
L 1991 4481 
L 2906 1825 
Q 3016 1506 3066 1184 
L 3084 1184 
Q 3169 1556 3263 1831 
L 4178 4481 
L 5619 4481 
L 5619 0 
z
" transform="scale(0.015625)"/>
      <path id="SegoeUI-Bold-61" d="M 3078 0 
L 2144 0 
L 2144 459 
L 2131 459 
Q 1809 -78 1178 -78 
Q 713 -78 445 186 
Q 178 450 178 891 
Q 178 1822 1281 1966 
L 2150 2081 
Q 2150 2606 1581 2606 
Q 1009 2606 494 2266 
L 494 3009 
Q 700 3116 1058 3197 
Q 1416 3278 1709 3278 
Q 3078 3278 3078 1913 
L 3078 0 
z
M 2150 1300 
L 2150 1516 
L 1569 1441 
Q 1088 1378 1088 1006 
Q 1088 838 1205 730 
Q 1322 622 1522 622 
Q 1800 622 1975 814 
Q 2150 1006 2150 1300 
z
" transform="scale(0.015625)"/>
      <path id="SegoeUI-Bold-72" d="M 2503 2309 
Q 2325 2406 2088 2406 
Q 1766 2406 1584 2170 
Q 1403 1934 1403 1528 
L 1403 0 
L 416 0 
L 416 3200 
L 1403 3200 
L 1403 2606 
L 1416 2606 
Q 1650 3256 2259 3256 
Q 2416 3256 2503 3219 
L 2503 2309 
z
" transform="scale(0.015625)"/>
      <path id="SegoeUI-Bold-63" d="M 2841 116 
Q 2506 -78 1875 -78 
Q 1138 -78 681 369 
Q 225 816 225 1522 
Q 225 2338 714 2808 
Q 1203 3278 2022 3278 
Q 2588 3278 2841 3128 
L 2841 2291 
Q 2531 2522 2150 2522 
Q 1725 2522 1476 2273 
Q 1228 2025 1228 1588 
Q 1228 1163 1465 920 
Q 1703 678 2119 678 
Q 2488 678 2841 909 
L 2841 116 
z
" transform="scale(0.015625)"/>
      <path id="SegoeUI-Bold-6f" d="M 1941 -78 
Q 1141 -78 683 370 
Q 225 819 225 1588 
Q 225 2381 700 2829 
Q 1175 3278 1984 3278 
Q 2781 3278 3234 2829 
Q 3688 2381 3688 1644 
Q 3688 847 3220 384 
Q 2753 -78 1941 -78 
z
M 1966 2522 
Q 1616 2522 1422 2281 
Q 1228 2041 1228 1600 
Q 1228 678 1972 678 
Q 2681 678 2681 1625 
Q 2681 2522 1966 2522 
z
" transform="scale(0.015625)"/>
      <path id="SegoeUI-Bold-20" transform="scale(0.015625)"/>
      <path id="SegoeUI-Bold-64" d="M 3547 0 
L 2559 0 
L 2559 441 
L 2547 441 
Q 2209 -78 1556 -78 
Q 956 -78 590 345 
Q 225 769 225 1528 
Q 225 2322 628 2800 
Q 1031 3278 1684 3278 
Q 2303 3278 2547 2834 
L 2559 2834 
L 2559 4738 
L 3547 4738 
L 3547 0 
z
M 2578 1556 
L 2578 1797 
Q 2578 2109 2397 2315 
Q 2216 2522 1925 2522 
Q 1597 2522 1412 2264 
Q 1228 2006 1228 1556 
Q 1228 1134 1406 906 
Q 1584 678 1900 678 
Q 2200 678 2389 918 
Q 2578 1159 2578 1556 
z
" transform="scale(0.015625)"/>
      <path id="SegoeUI-Bold-65" d="M 3291 1319 
L 1203 1319 
Q 1253 622 2081 622 
Q 2609 622 3009 872 
L 3009 159 
Q 2566 -78 1856 -78 
Q 1081 -78 653 351 
Q 225 781 225 1550 
Q 225 2347 687 2812 
Q 1150 3278 1825 3278 
Q 2525 3278 2908 2862 
Q 3291 2447 3291 1734 
L 3291 1319 
z
M 2375 1925 
Q 2375 2613 1819 2613 
Q 1581 2613 1407 2416 
Q 1234 2219 1197 1925 
L 2375 1925 
z
" transform="scale(0.015625)"/>
      <path id="SegoeUI-Bold-46" d="M 3103 3659 
L 1522 3659 
L 1522 2559 
L 2975 2559 
L 2975 1741 
L 1522 1741 
L 1522 0 
L 513 0 
L 513 4481 
L 3103 4481 
L 3103 3659 
z
" transform="scale(0.015625)"/>
      <path id="SegoeUI-Bold-6e" d="M 3506 0 
L 2522 0 
L 2522 1778 
Q 2522 2522 1991 2522 
Q 1734 2522 1568 2325 
Q 1403 2128 1403 1825 
L 1403 0 
L 416 0 
L 416 3200 
L 1403 3200 
L 1403 2694 
L 1416 2694 
Q 1769 3278 2444 3278 
Q 3506 3278 3506 1959 
L 3506 0 
z
" transform="scale(0.015625)"/>
      <path id="SegoeUI-Bold-74" d="M 2350 38 
Q 2131 -78 1691 -78 
Q 647 -78 647 1006 
L 647 2472 
L 128 2472 
L 128 3200 
L 647 3200 
L 647 3891 
L 1631 4172 
L 1631 3200 
L 2350 3200 
L 2350 2472 
L 1631 2472 
L 1631 1178 
Q 1631 678 2028 678 
Q 2184 678 2350 769 
L 2350 38 
z
" transform="scale(0.015625)"/>
      <path id="SegoeUI-Bold-2d" d="M 2156 1363 
L 447 1363 
L 447 2053 
L 2156 2053 
L 2156 1363 
z
" transform="scale(0.015625)"/>
      <path id="SegoeUI-Bold-53" d="M 306 172 
L 306 1172 
Q 578 944 897 830 
Q 1216 716 1541 716 
Q 1731 716 1873 750 
Q 2016 784 2111 845 
Q 2206 906 2253 989 
Q 2300 1072 2300 1169 
Q 2300 1300 2225 1403 
Q 2150 1506 2020 1593 
Q 1891 1681 1712 1762 
Q 1534 1844 1328 1928 
Q 803 2147 545 2462 
Q 288 2778 288 3225 
Q 288 3575 428 3826 
Q 569 4078 811 4240 
Q 1053 4403 1372 4479 
Q 1691 4556 2047 4556 
Q 2397 4556 2667 4514 
Q 2938 4472 3166 4384 
L 3166 3450 
Q 3053 3528 2920 3587 
Q 2788 3647 2647 3686 
Q 2506 3725 2367 3744 
Q 2228 3763 2103 3763 
Q 1931 3763 1790 3730 
Q 1650 3697 1553 3637 
Q 1456 3578 1403 3495 
Q 1350 3413 1350 3309 
Q 1350 3197 1409 3108 
Q 1469 3019 1578 2939 
Q 1688 2859 1844 2782 
Q 2000 2706 2197 2625 
Q 2466 2513 2680 2386 
Q 2894 2259 3047 2100 
Q 3200 1941 3281 1736 
Q 3363 1531 3363 1259 
Q 3363 884 3220 629 
Q 3078 375 2834 217 
Q 2591 59 2267 -9 
Q 1944 -78 1584 -78 
Q 1216 -78 883 -15 
Q 550 47 306 172 
z
" transform="scale(0.015625)"/>
      <path id="SegoeUI-Bold-75" d="M 3456 0 
L 2472 0 
L 2472 488 
L 2456 488 
Q 2091 -78 1478 -78 
Q 366 -78 366 1269 
L 366 3200 
L 1350 3200 
L 1350 1356 
Q 1350 678 1888 678 
Q 2153 678 2312 864 
Q 2472 1050 2472 1369 
L 2472 3200 
L 3456 3200 
L 3456 0 
z
" transform="scale(0.015625)"/>
      <path id="SegoeUI-Bold-48" d="M 4391 0 
L 3378 0 
L 3378 1825 
L 1522 1825 
L 1522 0 
L 513 0 
L 513 4481 
L 1522 4481 
L 1522 2694 
L 3378 2694 
L 3378 4481 
L 4391 4481 
L 4391 0 
z
" transform="scale(0.015625)"/>
      <path id="SegoeUI-Bold-e9" d="M 3291 1319 
L 1203 1319 
Q 1253 622 2081 622 
Q 2609 622 3009 872 
L 3009 159 
Q 2566 -78 1856 -78 
Q 1081 -78 653 351 
Q 225 781 225 1550 
Q 225 2347 687 2812 
Q 1150 3278 1825 3278 
Q 2525 3278 2908 2862 
Q 3291 2447 3291 1734 
L 3291 1319 
z
M 2375 1925 
Q 2375 2613 1819 2613 
Q 1581 2613 1407 2416 
Q 1234 2219 1197 1925 
L 2375 1925 
z
M 2879 4716 
L 1900 3706 
L 1188 3706 
L 2000 4716 
L 2879 4716 
z
" transform="scale(0.015625)"/>
      <path id="SegoeUI-Bold-6c" d="M 1403 0 
L 416 0 
L 416 4738 
L 1403 4738 
L 1403 0 
z
" transform="scale(0.015625)"/>
      <path id="SegoeUI-Bold-69" d="M 916 3706 
Q 666 3706 506 3854 
Q 347 4003 347 4219 
Q 347 4441 506 4581 
Q 666 4722 916 4722 
Q 1169 4722 1326 4581 
Q 1484 4441 1484 4219 
Q 1484 3994 1326 3850 
Q 1169 3706 916 3706 
z
M 1403 0 
L 416 0 
L 416 3200 
L 1403 3200 
L 1403 0 
z
" transform="scale(0.015625)"/>
     </defs>
     <use xlink:href="#SegoeUI-Bold-4d"/>
     <use xlink:href="#SegoeUI-Bold-61" x="95.703125"/>
     <use xlink:href="#SegoeUI-Bold-72" x="149.511719"/>
     <use xlink:href="#SegoeUI-Bold-63" x="188.931641"/>
     <use xlink:href="#SegoeUI-Bold-6f" x="236.929688"/>
     <use xlink:href="#SegoeUI-Bold-20" x="298.0625"/>
     <use xlink:href="#SegoeUI-Bold-64" x="325.650391"/>
     <use xlink:href="#SegoeUI-Bold-65" x="387.564453"/>
     <use xlink:href="#SegoeUI-Bold-20" x="441.666016"/>
     <use xlink:href="#SegoeUI-Bold-46" x="469.253906"/>
     <use xlink:href="#SegoeUI-Bold-72" x="521.255859"/>
     <use xlink:href="#SegoeUI-Bold-65" x="560.675781"/>
     <use xlink:href="#SegoeUI-Bold-6e" x="614.777344"/>
     <use xlink:href="#SegoeUI-Bold-65" x="675.275391"/>
     <use xlink:href="#SegoeUI-Bold-74" x="729.376953"/>
     <use xlink:href="#SegoeUI-Bold-2d" x="763.792969"/>
     <use xlink:href="#SegoeUI-Bold-53" x="804.222656"/>
     <use xlink:href="#SegoeUI-Bold-65" x="860.277344"/>
     <use xlink:href="#SegoeUI-Bold-72" x="914.378906"/>
     <use xlink:href="#SegoeUI-Bold-72" x="954.173828"/>
     <use xlink:href="#SegoeUI-Bold-65" x="993.59375"/>
     <use xlink:href="#SegoeUI-Bold-74" x="1047.695312"/>
     <use xlink:href="#SegoeUI-Bold-20" x="1086.611328"/>
     <use xlink:href="#SegoeUI-Bold-65" x="1114.199219"/>
     <use xlink:href="#SegoeUI-Bold-6e" x="1168.300781"/>
     <use xlink:href="#SegoeUI-Bold-20" x="1228.798828"/>
     <use xlink:href="#SegoeUI-Bold-75" x="1256.386719"/>
     <use xlink:href="#SegoeUI-Bold-6e" x="1316.884766"/>
     <use xlink:href="#SegoeUI-Bold-61" x="1377.382812"/>
     <use xlink:href="#SegoeUI-Bold-20" x="1431.191406"/>
     <use xlink:href="#SegoeUI-Bold-48" x="1458.779297"/>
     <use xlink:href="#SegoeUI-Bold-e9" x="1535.390625"/>
     <use xlink:href="#SegoeUI-Bold-6c" x="1589.492188"/>
     <use xlink:href="#SegoeUI-Bold-69" x="1617.910156"/>
     <use xlink:href="#SegoeUI-Bold-63" x="1646.328125"/>
     <use xlink:href="#SegoeUI-Bold-65" x="1694.326172"/>
    </g>
   </g>
   <g id="Line3DCollection_4">
    <path d="M 492.792724 202.959745 
L 453.180111 207.150406 
" clip-path="url(#p2d817aa0ee)" style="fill: none; stroke: #10b981; stroke-width: 3"/>
    <path d="M 492.792724 202.959745 
L 487.088924 204.987656 
" clip-path="url(#p2d817aa0ee)" style="fill: none; stroke: #10b981; stroke-width: 3"/>
    <path d="M 492.792724 202.959745 
L 487.06905 202.139642 
" clip-path="url(#p2d817aa0ee)" style="fill: none; stroke: #10b981; stroke-width: 3"/>
   </g>
   <g id="Line3DCollection_5">
    <path d="M 451.160414 167.808374 
L 453.180111 207.150406 
" clip-path="url(#p2d817aa0ee)" style="fill: none; stroke: #3b82f6; stroke-width: 3"/>
    <path d="M 451.160414 167.808374 
L 451.12913 173.15601 
" clip-path="url(#p2d817aa0ee)" style="fill: none; stroke: #3b82f6; stroke-width: 3"/>
    <path d="M 451.160414 167.808374 
L 451.78082 173.925885 
" clip-path="url(#p2d817aa0ee)" style="fill: none; stroke: #3b82f6; stroke-width: 3"/>
   </g>
   <g id="Poly3DCollection_1">
    <defs>
     <path id="mc5e60cdf81" d="M 492.283306 -444.055687 
L 427.46082 -437.117761 
L 415.139187 -454.301458 
L 477.783056 -460.853905 
z
" style="stroke: #f59e0b; stroke-opacity: 0.2"/>
    </defs>
    <g clip-path="url(#p2d817aa0ee)">
     <use xlink:href="#mc5e60cdf81" x="0" y="656.39952" style="fill: #f59e0b; fill-opacity: 0.2; stroke: #f59e0b; stroke-opacity: 0.2"/>
    </g>
   </g>
   <g id="Line3DCollection_6">
    <path d="M 461.75787 218.009514 
L 453.180111 207.150406 
" clip-path="url(#p2d817aa0ee)" style="fill: none; stroke: #dc2626; stroke-width: 3"/>
    <path d="M 461.75787 218.009514 
L 460.568214 217.949656 
" clip-path="url(#p2d817aa0ee)" style="fill: none; stroke: #dc2626; stroke-width: 3"/>
    <path d="M 461.75787 218.009514 
L 460.413145 214.860195 
" clip-path="url(#p2d817aa0ee)" style="fill: none; stroke: #dc2626; stroke-width: 3"/>
   </g>
  </g>
  <g id="axes_2">
   <g id="patch_6">
    <path d="M 20.415593 480.08219 
L 434.504167 480.08219 
L 434.504167 414.85122 
L 20.415593 414.85122 
z
" clip-path="url(#p5e2cd47d03)" style="fill: #fef2f2; stroke: #dc2626; stroke-width: 2; stroke-linejoin: miter"/>
   </g>
   <g id="patch_7">
    <path d="M 20.415593 557.392969 
L 434.504167 557.392969 
L 434.504167 489.746037 
L 20.415593 489.746037 
z
" clip-path="url(#p5e2cd47d03)" style="fill: #f0fdf4; stroke: #10b981; stroke-width: 2; stroke-linejoin: miter"/>
   </g>
   <g id="patch_8">
    <path d="M 20.415593 637.119711 
L 434.504167 637.119711 
L 434.504167 569.472779 
L 20.415593 569.472779 
z
" clip-path="url(#p5e2cd47d03)" style="fill: #eff6ff; stroke: #3b82f6; stroke-width: 2; stroke-linejoin: miter"/>
   </g>
   <g id="text_27">
    <!-- VECTOR TANGENTE UNITARIO -->
    <g style="fill: #dc2626" transform="translate(156.099724 426.931029) scale(0.1 -0.1)">
     <defs>
      <path id="SegoeUI-Bold-56" d="M 4244 4481 
L 2700 0 
L 1556 0 
L 31 4481 
L 1119 4481 
L 2053 1363 
Q 2128 1109 2144 916 
L 2163 916 
Q 2184 1125 2259 1375 
L 3188 4481 
L 4244 4481 
z
" transform="scale(0.015625)"/>
      <path id="SegoeUI-Bold-45" d="M 3200 0 
L 513 0 
L 513 4481 
L 3097 4481 
L 3097 3659 
L 1522 3659 
L 1522 2663 
L 2988 2663 
L 2988 1844 
L 1522 1844 
L 1522 819 
L 3200 819 
L 3200 0 
z
" transform="scale(0.015625)"/>
      <path id="SegoeUI-Bold-43" d="M 3725 159 
Q 3234 -78 2444 -78 
Q 1413 -78 822 528 
Q 231 1134 231 2144 
Q 231 3219 895 3887 
Q 1559 4556 2619 4556 
Q 3275 4556 3725 4391 
L 3725 3419 
Q 3275 3688 2700 3688 
Q 2069 3688 1681 3291 
Q 1294 2894 1294 2216 
Q 1294 1566 1659 1180 
Q 2025 794 2644 794 
Q 3234 794 3725 1081 
L 3725 159 
z
" transform="scale(0.015625)"/>
      <path id="SegoeUI-Bold-54" d="M 3659 3659 
L 2381 3659 
L 2381 0 
L 1369 0 
L 1369 3659 
L 97 3659 
L 97 4481 
L 3659 4481 
L 3659 3659 
z
" transform="scale(0.015625)"/>
      <path id="SegoeUI-Bold-4f" d="M 2406 -78 
Q 1444 -78 837 548 
Q 231 1175 231 2181 
Q 231 3244 847 3900 
Q 1463 4556 2478 4556 
Q 3438 4556 4030 3928 
Q 4622 3300 4622 2272 
Q 4622 1216 4008 569 
Q 3394 -78 2406 -78 
z
M 2450 3688 
Q 1919 3688 1606 3289 
Q 1294 2891 1294 2234 
Q 1294 1569 1606 1181 
Q 1919 794 2425 794 
Q 2947 794 3253 1170 
Q 3559 1547 3559 2216 
Q 3559 2913 3262 3300 
Q 2966 3688 2450 3688 
z
" transform="scale(0.015625)"/>
      <path id="SegoeUI-Bold-52" d="M 4272 0 
L 3113 0 
L 2416 1153 
Q 2338 1284 2266 1387 
Q 2194 1491 2120 1564 
Q 2047 1638 1967 1677 
Q 1888 1716 1794 1716 
L 1522 1716 
L 1522 0 
L 513 0 
L 513 4481 
L 2113 4481 
Q 3744 4481 3744 3263 
Q 3744 3028 3672 2829 
Q 3600 2631 3469 2472 
Q 3338 2313 3152 2197 
Q 2966 2081 2738 2016 
L 2738 2003 
Q 2838 1972 2931 1901 
Q 3025 1831 3112 1737 
Q 3200 1644 3279 1536 
Q 3359 1428 3425 1325 
L 4272 0 
z
M 1522 3725 
L 1522 2478 
L 1959 2478 
Q 2284 2478 2481 2666 
Q 2681 2856 2681 3138 
Q 2681 3725 1978 3725 
L 1522 3725 
z
" transform="scale(0.015625)"/>
      <path id="SegoeUI-Bold-41" d="M 4453 0 
L 3353 0 
L 3034 997 
L 1441 997 
L 1125 0 
L 31 0 
L 1663 4481 
L 2859 4481 
L 4453 0 
z
M 2803 1772 
L 2322 3278 
Q 2269 3447 2247 3681 
L 2222 3681 
Q 2206 3484 2144 3291 
L 1656 1772 
L 2803 1772 
z
" transform="scale(0.015625)"/>
      <path id="SegoeUI-Bold-4e" d="M 4544 0 
L 3525 0 
L 1678 2816 
Q 1516 3063 1453 3188 
L 1441 3188 
Q 1466 2950 1466 2463 
L 1466 0 
L 513 0 
L 513 4481 
L 1600 4481 
L 3378 1753 
Q 3500 1569 3603 1388 
L 3616 1388 
Q 3591 1544 3591 2003 
L 3591 4481 
L 4544 4481 
L 4544 0 
z
" transform="scale(0.015625)"/>
      <path id="SegoeUI-Bold-47" d="M 4191 300 
Q 3534 -78 2559 -78 
Q 1478 -78 854 520 
Q 231 1119 231 2169 
Q 231 3225 912 3890 
Q 1594 4556 2725 4556 
Q 3438 4556 3981 4359 
L 3981 3413 
Q 3463 3713 2713 3713 
Q 2084 3713 1689 3305 
Q 1294 2897 1294 2216 
Q 1294 1525 1648 1147 
Q 2003 769 2606 769 
Q 2969 769 3181 872 
L 3181 1747 
L 2284 1747 
L 2284 2553 
L 4191 2553 
L 4191 300 
z
" transform="scale(0.015625)"/>
      <path id="SegoeUI-Bold-55" d="M 4166 1941 
Q 4166 -78 2284 -78 
Q 459 -78 459 1894 
L 459 4481 
L 1472 4481 
L 1472 1881 
Q 1472 794 2322 794 
Q 3156 794 3156 1844 
L 3156 4481 
L 4166 4481 
L 4166 1941 
z
" transform="scale(0.015625)"/>
      <path id="SegoeUI-Bold-49" d="M 1522 0 
L 513 0 
L 513 4481 
L 1522 4481 
L 1522 0 
z
" transform="scale(0.015625)"/>
     </defs>
     <use xlink:href="#SegoeUI-Bold-56"/>
     <use xlink:href="#SegoeUI-Bold-45" x="66.699219"/>
     <use xlink:href="#SegoeUI-Bold-43" x="119.921875"/>
     <use xlink:href="#SegoeUI-Bold-54" x="182.324219"/>
     <use xlink:href="#SegoeUI-Bold-4f" x="237.167969"/>
     <use xlink:href="#SegoeUI-Bold-52" x="312.998047"/>
     <use xlink:href="#SegoeUI-Bold-20" x="378.28125"/>
     <use xlink:href="#SegoeUI-Bold-54" x="405.869141"/>
     <use xlink:href="#SegoeUI-Bold-41" x="457.462891"/>
     <use xlink:href="#SegoeUI-Bold-4e" x="527.775391"/>
     <use xlink:href="#SegoeUI-Bold-47" x="606.779297"/>
     <use xlink:href="#SegoeUI-Bold-45" x="677.873047"/>
     <use xlink:href="#SegoeUI-Bold-4e" x="731.095703"/>
     <use xlink:href="#SegoeUI-Bold-54" x="810.099609"/>
     <use xlink:href="#SegoeUI-Bold-45" x="868.693359"/>
     <use xlink:href="#SegoeUI-Bold-20" x="921.916016"/>
     <use xlink:href="#SegoeUI-Bold-55" x="949.503906"/>
     <use xlink:href="#SegoeUI-Bold-4e" x="1021.818359"/>
     <use xlink:href="#SegoeUI-Bold-49" x="1100.822266"/>
     <use xlink:href="#SegoeUI-Bold-54" x="1132.511719"/>
     <use xlink:href="#SegoeUI-Bold-41" x="1184.105469"/>
     <use xlink:href="#SegoeUI-Bold-52" x="1254.417969"/>
     <use xlink:href="#SegoeUI-Bold-49" x="1319.701172"/>
     <use xlink:href="#SegoeUI-Bold-4f" x="1351.390625"/>
    </g>
   </g>
   <g id="text_28">
    <!-- $\mathbf{T}(t) = \frac{\mathbf{r}'(t)}{\|\mathbf{r}'(t)\|}$ -->
    <g style="fill: #2c2f33" transform="translate(193.39988 455.922571) scale(0.13 -0.13)">
     <defs>
      <path id="DejaVuSans-28" d="M 1984 4856 
Q 1566 4138 1362 3434 
Q 1159 2731 1159 2009 
Q 1159 1288 1364 580 
Q 1569 -128 1984 -844 
L 1484 -844 
Q 1016 -109 783 600 
Q 550 1309 550 2009 
Q 550 2706 781 3412 
Q 1013 4119 1484 4856 
L 1984 4856 
z
" transform="scale(0.015625)"/>
      <path id="DejaVuSans-Oblique-74" d="M 2706 3500 
L 2619 3053 
L 1472 3053 
L 1100 1153 
Q 1081 1047 1072 975 
Q 1063 903 1063 863 
Q 1063 663 1183 572 
Q 1303 481 1569 481 
L 2150 481 
L 2053 0 
L 1503 0 
Q 991 0 739 200 
Q 488 400 488 806 
Q 488 878 497 964 
Q 506 1050 525 1153 
L 897 3053 
L 409 3053 
L 500 3500 
L 978 3500 
L 1172 4494 
L 1747 4494 
L 1556 3500 
L 2706 3500 
z
" transform="scale(0.015625)"/>
      <path id="DejaVuSans-29" d="M 513 4856 
L 1013 4856 
Q 1481 4119 1714 3412 
Q 1947 2706 1947 2009 
Q 1947 1309 1714 600 
Q 1481 -109 1013 -844 
L 513 -844 
Q 928 -128 1133 580 
Q 1338 1288 1338 2009 
Q 1338 2731 1133 3434 
Q 928 4138 513 4856 
z
" transform="scale(0.015625)"/>
      <path id="DejaVuSans-3d" d="M 678 2906 
L 4684 2906 
L 4684 2381 
L 678 2381 
L 678 2906 
z
M 678 1631 
L 4684 1631 
L 4684 1100 
L 678 1100 
L 678 1631 
z
" transform="scale(0.015625)"/>
      <path id="DejaVuSans-Bold-72" d="M 3138 2547 
Q 2991 2616 2845 2648 
Q 2700 2681 2553 2681 
Q 2122 2681 1889 2404 
Q 1656 2128 1656 1613 
L 1656 0 
L 538 0 
L 538 3500 
L 1656 3500 
L 1656 2925 
Q 1872 3269 2151 3426 
Q 2431 3584 2822 3584 
Q 2878 3584 2943 3579 
Q 3009 3575 3134 3559 
L 3138 2547 
z
" transform="scale(0.015625)"/>
      <path id="Cmsy10-30" d="M 225 347 
Q 184 359 184 409 
L 966 3316 
Q 1003 3434 1093 3506 
Q 1184 3578 1300 3578 
Q 1450 3578 1564 3479 
Q 1678 3381 1678 3231 
Q 1678 3166 1644 3084 
L 488 319 
Q 466 275 428 275 
Q 394 275 320 306 
Q 247 338 225 347 
z
" transform="scale(0.015625)"/>
      <path id="DejaVuSans-2016" d="M 1344 4891 
L 1344 -1509 
L 813 -1509 
L 813 4891 
L 1344 4891 
z
M 2376 4891 
L 2376 -1509 
L 1845 -1509 
L 1845 4891 
L 2376 4891 
z
" transform="scale(0.015625)"/>
     </defs>
     <use xlink:href="#DejaVuSans-Bold-54" transform="translate(0 0.780937)"/>
     <use xlink:href="#DejaVuSans-28" transform="translate(68.212891 0.780937)"/>
     <use xlink:href="#DejaVuSans-Oblique-74" transform="translate(107.226562 0.780937)"/>
     <use xlink:href="#DejaVuSans-29" transform="translate(146.435547 0.780937)"/>
     <use xlink:href="#DejaVuSans-3d" transform="translate(204.931641 0.780937)"/>
     <use xlink:href="#DejaVuSans-Bold-72" transform="translate(343.203125 53.809062) scale(0.7)"/>
     <use xlink:href="#Cmsy10-30" transform="translate(378.394531 80.605937) scale(0.49)"/>
     <use xlink:href="#DejaVuSans-28" transform="translate(393.778809 53.809062) scale(0.7)"/>
     <use xlink:href="#DejaVuSans-Oblique-74" transform="translate(421.088379 53.809062) scale(0.7)"/>
     <use xlink:href="#DejaVuSans-29" transform="translate(448.534668 53.809062) scale(0.7)"/>
     <use xlink:href="#DejaVuSans-2016" transform="translate(308.203125 -40.863125) scale(0.7)"/>
     <use xlink:href="#DejaVuSans-Bold-72" transform="translate(343.203125 -40.863125) scale(0.7)"/>
     <use xlink:href="#Cmsy10-30" transform="translate(378.394531 -14.06625) scale(0.49)"/>
     <use xlink:href="#DejaVuSans-28" transform="translate(393.778809 -40.863125) scale(0.7)"/>
     <use xlink:href="#DejaVuSans-Oblique-74" transform="translate(421.088379 -40.863125) scale(0.7)"/>
     <use xlink:href="#DejaVuSans-29" transform="translate(448.534668 -40.863125) scale(0.7)"/>
     <use xlink:href="#DejaVuSans-2016" transform="translate(475.844238 -40.863125) scale(0.7)"/>
     <path d="M 308.203125 19.577812 
L 308.203125 25.827812 
L 510.844238 25.827812 
L 510.844238 19.577812 
L 308.203125 19.577812 
z
"/>
    </g>
   </g>
   <g id="text_29">
    <!-- VECTOR NORMAL PRINCIPAL -->
    <g style="fill: #10b981" transform="translate(158.500505 501.825847) scale(0.1 -0.1)">
     <defs>
      <path id="SegoeUI-Bold-4c" d="M 3181 0 
L 513 0 
L 513 4481 
L 1522 4481 
L 1522 819 
L 3181 819 
L 3181 0 
z
" transform="scale(0.015625)"/>
     </defs>
     <use xlink:href="#SegoeUI-Bold-56"/>
     <use xlink:href="#SegoeUI-Bold-45" x="66.699219"/>
     <use xlink:href="#SegoeUI-Bold-43" x="119.921875"/>
     <use xlink:href="#SegoeUI-Bold-54" x="182.324219"/>
     <use xlink:href="#SegoeUI-Bold-4f" x="237.167969"/>
     <use xlink:href="#SegoeUI-Bold-52" x="312.998047"/>
     <use xlink:href="#SegoeUI-Bold-20" x="378.28125"/>
     <use xlink:href="#SegoeUI-Bold-4e" x="405.869141"/>
     <use xlink:href="#SegoeUI-Bold-4f" x="484.873047"/>
     <use xlink:href="#SegoeUI-Bold-52" x="560.703125"/>
     <use xlink:href="#SegoeUI-Bold-4d" x="625.986328"/>
     <use xlink:href="#SegoeUI-Bold-41" x="721.689453"/>
     <use xlink:href="#SegoeUI-Bold-4c" x="792.001953"/>
     <use xlink:href="#SegoeUI-Bold-20" x="843.125"/>
     <use xlink:href="#SegoeUI-Bold-50" x="870.712891"/>
     <use xlink:href="#SegoeUI-Bold-52" x="932.138672"/>
     <use xlink:href="#SegoeUI-Bold-49" x="997.421875"/>
     <use xlink:href="#SegoeUI-Bold-4e" x="1029.111328"/>
     <use xlink:href="#SegoeUI-Bold-43" x="1108.115234"/>
     <use xlink:href="#SegoeUI-Bold-49" x="1170.517578"/>
     <use xlink:href="#SegoeUI-Bold-50" x="1202.207031"/>
     <use xlink:href="#SegoeUI-Bold-41" x="1257.757812"/>
     <use xlink:href="#SegoeUI-Bold-4c" x="1328.070312"/>
    </g>
   </g>
   <g id="text_30">
    <!-- $\mathbf{N}(t) = \frac{\mathbf{T}'(t)}{\|\mathbf{T}'(t)\|}$ -->
    <g style="fill: #2c2f33" transform="translate(191.51488 533.233351) scale(0.13 -0.13)">
     <use xlink:href="#DejaVuSans-Bold-4e" transform="translate(0 0.780937)"/>
     <use xlink:href="#DejaVuSans-28" transform="translate(83.691406 0.780937)"/>
     <use xlink:href="#DejaVuSans-Oblique-74" transform="translate(122.705078 0.780937)"/>
     <use xlink:href="#DejaVuSans-29" transform="translate(161.914062 0.780937)"/>
     <use xlink:href="#DejaVuSans-3d" transform="translate(220.410156 0.780937)"/>
     <use xlink:href="#DejaVuSans-Bold-54" transform="translate(358.681641 53.809062) scale(0.7)"/>
     <use xlink:href="#Cmsy10-30" transform="translate(407.100586 80.605937) scale(0.49)"/>
     <use xlink:href="#DejaVuSans-28" transform="translate(422.484863 53.809062) scale(0.7)"/>
     <use xlink:href="#DejaVuSans-Oblique-74" transform="translate(449.794434 53.809062) scale(0.7)"/>
     <use xlink:href="#DejaVuSans-29" transform="translate(477.240723 53.809062) scale(0.7)"/>
     <use xlink:href="#DejaVuSans-2016" transform="translate(323.681641 -40.863125) scale(0.7)"/>
     <use xlink:href="#DejaVuSans-Bold-54" transform="translate(358.681641 -40.863125) scale(0.7)"/>
     <use xlink:href="#Cmsy10-30" transform="translate(407.100586 -14.06625) scale(0.49)"/>
     <use xlink:href="#DejaVuSans-28" transform="translate(422.484863 -40.863125) scale(0.7)"/>
     <use xlink:href="#DejaVuSans-Oblique-74" transform="translate(449.794434 -40.863125) scale(0.7)"/>
     <use xlink:href="#DejaVuSans-29" transform="translate(477.240723 -40.863125) scale(0.7)"/>
     <use xlink:href="#DejaVuSans-2016" transform="translate(504.550293 -40.863125) scale(0.7)"/>
     <path d="M 323.681641 19.577812 
L 323.681641 25.827812 
L 539.550293 25.827812 
L 539.550293 19.577812 
L 323.681641 19.577812 
z
"/>
    </g>
   </g>
   <g id="text_31">
    <!-- VECTOR BINORMAL -->
    <g style="fill: #3b82f6" transform="translate(180.513786 581.552588) scale(0.1 -0.1)">
     <defs>
      <path id="SegoeUI-Bold-42" d="M 513 0 
L 513 4481 
L 2144 4481 
Q 2894 4481 3297 4206 
Q 3700 3931 3700 3431 
Q 3700 3069 3454 2797 
Q 3209 2525 2828 2419 
L 2828 2406 
Q 3306 2347 3592 2053 
Q 3878 1759 3878 1338 
Q 3878 722 3437 361 
Q 2997 0 2234 0 
L 513 0 
z
M 1522 3738 
L 1522 2675 
L 1966 2675 
Q 2278 2675 2458 2826 
Q 2638 2978 2638 3244 
Q 2638 3738 1900 3738 
L 1522 3738 
z
M 1522 1925 
L 1522 744 
L 2069 744 
Q 2419 744 2617 906 
Q 2816 1069 2816 1350 
Q 2816 1619 2620 1772 
Q 2425 1925 2075 1925 
L 1522 1925 
z
" transform="scale(0.015625)"/>
     </defs>
     <use xlink:href="#SegoeUI-Bold-56"/>
     <use xlink:href="#SegoeUI-Bold-45" x="66.699219"/>
     <use xlink:href="#SegoeUI-Bold-43" x="119.921875"/>
     <use xlink:href="#SegoeUI-Bold-54" x="182.324219"/>
     <use xlink:href="#SegoeUI-Bold-4f" x="237.167969"/>
     <use xlink:href="#SegoeUI-Bold-52" x="312.998047"/>
     <use xlink:href="#SegoeUI-Bold-20" x="378.28125"/>
     <use xlink:href="#SegoeUI-Bold-42" x="405.869141"/>
     <use xlink:href="#SegoeUI-Bold-49" x="469.980469"/>
     <use xlink:href="#SegoeUI-Bold-4e" x="501.669922"/>
     <use xlink:href="#SegoeUI-Bold-4f" x="580.673828"/>
     <use xlink:href="#SegoeUI-Bold-52" x="656.503906"/>
     <use xlink:href="#SegoeUI-Bold-4d" x="721.787109"/>
     <use xlink:href="#SegoeUI-Bold-41" x="817.490234"/>
     <use xlink:href="#SegoeUI-Bold-4c" x="887.802734"/>
    </g>
   </g>
   <g id="text_32">
    <!-- $\mathbf{B}(t) = \mathbf{T}(t) \times \mathbf{N}(t)$ -->
    <g style="fill: #2c2f33" transform="translate(173.76988 612.960092) scale(0.13 -0.13)">
     <defs>
      <path id="DejaVuSans-d7" d="M 4488 3438 
L 3059 2003 
L 4488 575 
L 4116 197 
L 2681 1631 
L 1247 197 
L 878 575 
L 2303 2003 
L 878 3438 
L 1247 3816 
L 2681 2381 
L 4116 3816 
L 4488 3438 
z
" transform="scale(0.015625)"/>
     </defs>
     <use xlink:href="#DejaVuSans-Bold-42" transform="translate(0 0.125)"/>
     <use xlink:href="#DejaVuSans-28" transform="translate(76.220703 0.125)"/>
     <use xlink:href="#DejaVuSans-Oblique-74" transform="translate(115.234375 0.125)"/>
     <use xlink:href="#DejaVuSans-29" transform="translate(154.443359 0.125)"/>
     <use xlink:href="#DejaVuSans-3d" transform="translate(212.939453 0.125)"/>
     <use xlink:href="#DejaVuSans-Bold-54" transform="translate(316.210938 0.125)"/>
     <use xlink:href="#DejaVuSans-28" transform="translate(384.423828 0.125)"/>
     <use xlink:href="#DejaVuSans-Oblique-74" transform="translate(423.4375 0.125)"/>
     <use xlink:href="#DejaVuSans-29" transform="translate(462.646484 0.125)"/>
     <use xlink:href="#DejaVuSans-d7" transform="translate(521.142578 0.125)"/>
     <use xlink:href="#DejaVuSans-Bold-4e" transform="translate(624.414062 0.125)"/>
     <use xlink:href="#DejaVuSans-28" transform="translate(708.105469 0.125)"/>
     <use xlink:href="#DejaVuSans-Oblique-74" transform="translate(747.119141 0.125)"/>
     <use xlink:href="#DejaVuSans-29" transform="translate(786.328125 0.125)"/>
    </g>
   </g>
  </g>
  <g id="axes_3">
   <g id="patch_9">
    <path d="M 581.895353 465.586419 
L 995.983927 465.586419 
L 995.983927 407.603334 
L 581.895353 407.603334 
z
" clip-path="url(#p7fa37d0d76)" style="fill: #f59e0b; fill-opacity: 0.082353; stroke: #f59e0b; stroke-width: 1.5; stroke-linejoin: miter"/>
   </g>
   <g id="patch_10">
    <path d="M 581.895353 533.233351 
L 995.983927 533.233351 
L 995.983927 475.250266 
L 581.895353 475.250266 
z
" clip-path="url(#p7fa37d0d76)" style="fill: #8b5cf6; fill-opacity: 0.082353; stroke: #8b5cf6; stroke-width: 1.5; stroke-linejoin: miter"/>
   </g>
   <g id="patch_11">
    <path d="M 581.895353 600.880283 
L 995.983927 600.880283 
L 995.983927 542.897198 
L 581.895353 542.897198 
z
" clip-path="url(#p7fa37d0d76)" style="fill: #06b6d4; fill-opacity: 0.082353; stroke: #06b6d4; stroke-width: 1.5; stroke-linejoin: miter"/>
   </g>
   <g id="text_33">
    <!-- PLANOS ASOCIADOS -->
    <g style="fill: #374151" transform="translate(734.169093 419.683143) scale(0.11 -0.11)">
     <defs>
      <path id="SegoeUI-Bold-44" d="M 513 0 
L 513 4481 
L 2100 4481 
Q 4488 4481 4488 2297 
Q 4488 1250 3836 625 
Q 3184 0 2100 0 
L 513 0 
z
M 1522 3659 
L 1522 819 
L 2022 819 
Q 2678 819 3051 1212 
Q 3425 1606 3425 2284 
Q 3425 2925 3054 3292 
Q 2684 3659 2016 3659 
L 1522 3659 
z
" transform="scale(0.015625)"/>
     </defs>
     <use xlink:href="#SegoeUI-Bold-50"/>
     <use xlink:href="#SegoeUI-Bold-4c" x="61.425781"/>
     <use xlink:href="#SegoeUI-Bold-41" x="114.798828"/>
     <use xlink:href="#SegoeUI-Bold-4e" x="185.111328"/>
     <use xlink:href="#SegoeUI-Bold-4f" x="264.115234"/>
     <use xlink:href="#SegoeUI-Bold-53" x="339.945312"/>
     <use xlink:href="#SegoeUI-Bold-20" x="396"/>
     <use xlink:href="#SegoeUI-Bold-41" x="423.587891"/>
     <use xlink:href="#SegoeUI-Bold-53" x="493.900391"/>
     <use xlink:href="#SegoeUI-Bold-4f" x="549.955078"/>
     <use xlink:href="#SegoeUI-Bold-43" x="625.785156"/>
     <use xlink:href="#SegoeUI-Bold-49" x="688.1875"/>
     <use xlink:href="#SegoeUI-Bold-41" x="719.876953"/>
     <use xlink:href="#SegoeUI-Bold-44" x="790.189453"/>
     <use xlink:href="#SegoeUI-Bold-4f" x="863.919922"/>
     <use xlink:href="#SegoeUI-Bold-53" x="939.75"/>
    </g>
   </g>
   <g id="text_34">
    <!-- Plano Osculador -->
    <g style="fill: #f59e0b" transform="translate(750.624015 419.683143) scale(0.1 -0.1)">
     <defs>
      <path id="SegoeUI-Bold-73" d="M 206 84 
L 206 884 
Q 450 738 692 666 
Q 934 594 1150 594 
Q 1413 594 1564 666 
Q 1716 738 1716 884 
Q 1716 978 1647 1040 
Q 1578 1103 1470 1150 
Q 1363 1197 1234 1234 
Q 1106 1272 988 1319 
Q 797 1391 651 1473 
Q 506 1556 407 1665 
Q 309 1775 257 1919 
Q 206 2063 206 2259 
Q 206 2528 323 2722 
Q 441 2916 636 3039 
Q 831 3163 1082 3220 
Q 1334 3278 1606 3278 
Q 1819 3278 2037 3245 
Q 2256 3213 2469 3150 
L 2469 2388 
Q 2281 2497 2067 2551 
Q 1853 2606 1647 2606 
Q 1550 2606 1464 2589 
Q 1378 2572 1312 2539 
Q 1247 2506 1209 2454 
Q 1172 2403 1172 2338 
Q 1172 2250 1228 2187 
Q 1284 2125 1375 2079 
Q 1466 2034 1577 1998 
Q 1688 1963 1797 1925 
Q 1994 1856 2153 1775 
Q 2313 1694 2427 1584 
Q 2541 1475 2602 1328 
Q 2663 1181 2663 978 
Q 2663 694 2539 492 
Q 2416 291 2211 164 
Q 2006 38 1739 -20 
Q 1472 -78 1184 -78 
Q 656 -78 206 84 
z
" transform="scale(0.015625)"/>
     </defs>
     <use xlink:href="#SegoeUI-Bold-50"/>
     <use xlink:href="#SegoeUI-Bold-6c" x="61.425781"/>
     <use xlink:href="#SegoeUI-Bold-61" x="89.84375"/>
     <use xlink:href="#SegoeUI-Bold-6e" x="143.652344"/>
     <use xlink:href="#SegoeUI-Bold-6f" x="204.150391"/>
     <use xlink:href="#SegoeUI-Bold-20" x="265.283203"/>
     <use xlink:href="#SegoeUI-Bold-4f" x="292.871094"/>
     <use xlink:href="#SegoeUI-Bold-73" x="368.701172"/>
     <use xlink:href="#SegoeUI-Bold-63" x="412.695312"/>
     <use xlink:href="#SegoeUI-Bold-75" x="460.693359"/>
     <use xlink:href="#SegoeUI-Bold-6c" x="521.191406"/>
     <use xlink:href="#SegoeUI-Bold-61" x="549.609375"/>
     <use xlink:href="#SegoeUI-Bold-64" x="603.417969"/>
     <use xlink:href="#SegoeUI-Bold-6f" x="665.332031"/>
     <use xlink:href="#SegoeUI-Bold-72" x="726.464844"/>
    </g>
   </g>
   <g id="text_35">
    <!-- Generado por: $\mathbf{T}$ y $\mathbf{N}$ -->
    <g style="fill: #2c2f33" transform="translate(743.08964 441.4268) scale(0.1 -0.1)">
     <defs>
      <path id="SegoeUI-47" d="M 3938 306 
Q 3263 -75 2438 -75 
Q 1478 -75 886 544 
Q 294 1163 294 2181 
Q 294 3222 951 3889 
Q 1609 4556 2619 4556 
Q 3350 4556 3847 4319 
L 3847 3738 
Q 3303 4081 2559 4081 
Q 1806 4081 1325 3562 
Q 844 3044 844 2219 
Q 844 1369 1291 883 
Q 1738 397 2503 397 
Q 3028 397 3413 606 
L 3413 1863 
L 2431 1863 
L 2431 2338 
L 3938 2338 
L 3938 306 
z
" transform="scale(0.015625)"/>
      <path id="SegoeUI-65" d="M 3091 1472 
L 831 1472 
Q 844 938 1119 647 
Q 1394 356 1875 356 
Q 2416 356 2869 713 
L 2869 231 
Q 2447 -75 1753 -75 
Q 1075 -75 687 361 
Q 300 797 300 1588 
Q 300 2334 723 2804 
Q 1147 3275 1775 3275 
Q 2403 3275 2747 2869 
Q 3091 2463 3091 1741 
L 3091 1472 
z
M 2566 1906 
Q 2563 2350 2352 2597 
Q 2141 2844 1766 2844 
Q 1403 2844 1150 2584 
Q 897 2325 838 1906 
L 2566 1906 
z
" transform="scale(0.015625)"/>
      <path id="SegoeUI-20" transform="scale(0.015625)"/>
      <path id="SegoeUI-70" d="M 1044 463 
L 1031 463 
L 1031 -1472 
L 519 -1472 
L 519 3200 
L 1031 3200 
L 1031 2638 
L 1044 2638 
Q 1422 3275 2150 3275 
Q 2769 3275 3116 2845 
Q 3463 2416 3463 1694 
Q 3463 891 3072 408 
Q 2681 -75 2003 -75 
Q 1381 -75 1044 463 
z
M 1031 1753 
L 1031 1306 
Q 1031 909 1289 632 
Q 1547 356 1944 356 
Q 2409 356 2673 712 
Q 2938 1069 2938 1703 
Q 2938 2238 2691 2541 
Q 2444 2844 2022 2844 
Q 1575 2844 1303 2533 
Q 1031 2222 1031 1753 
z
" transform="scale(0.015625)"/>
      <path id="SegoeUI-3a" d="M 697 2575 
Q 553 2575 451 2678 
Q 350 2781 350 2925 
Q 350 3069 451 3169 
Q 553 3269 697 3269 
Q 844 3269 947 3169 
Q 1050 3069 1050 2925 
Q 1050 2781 947 2678 
Q 844 2575 697 2575 
z
M 697 -69 
Q 553 -69 451 34 
Q 350 138 350 281 
Q 350 425 451 529 
Q 553 634 697 634 
Q 844 634 947 529 
Q 1050 425 1050 281 
Q 1050 138 947 34 
Q 844 -69 697 -69 
z
" transform="scale(0.015625)"/>
      <path id="SegoeUI-79" d="M 3066 3200 
L 1594 -513 
Q 1200 -1506 488 -1506 
Q 288 -1506 153 -1466 
L 153 -1006 
Q 319 -1063 456 -1063 
Q 844 -1063 1038 -600 
L 1294 6 
L 44 3200 
L 613 3200 
L 1478 738 
Q 1494 691 1544 494 
L 1563 494 
Q 1578 569 1625 731 
L 2534 3200 
L 3066 3200 
z
" transform="scale(0.015625)"/>
     </defs>
     <use xlink:href="#SegoeUI-47" transform="translate(0 0.96875)"/>
     <use xlink:href="#SegoeUI-65" transform="translate(68.603516 0.96875)"/>
     <use xlink:href="#SegoeUI-6e" transform="translate(120.898438 0.96875)"/>
     <use xlink:href="#SegoeUI-65" transform="translate(177.490234 0.96875)"/>
     <use xlink:href="#SegoeUI-72" transform="translate(229.785156 0.96875)"/>
     <use xlink:href="#SegoeUI-61" transform="translate(264.550781 0.96875)"/>
     <use xlink:href="#SegoeUI-64" transform="translate(315.429688 0.96875)"/>
     <use xlink:href="#SegoeUI-6f" transform="translate(374.316406 0.96875)"/>
     <use xlink:href="#SegoeUI-20" transform="translate(432.910156 0.96875)"/>
     <use xlink:href="#SegoeUI-70" transform="translate(460.302734 0.96875)"/>
     <use xlink:href="#SegoeUI-6f" transform="translate(519.091797 0.96875)"/>
     <use xlink:href="#SegoeUI-72" transform="translate(577.685547 0.96875)"/>
     <use xlink:href="#SegoeUI-3a" transform="translate(612.451172 0.96875)"/>
     <use xlink:href="#SegoeUI-20" transform="translate(634.130859 0.96875)"/>
     <use xlink:href="#DejaVuSans-Bold-54" transform="translate(661.523438 0.96875)"/>
     <use xlink:href="#SegoeUI-20" transform="translate(729.736328 0.96875)"/>
     <use xlink:href="#SegoeUI-79" transform="translate(757.128906 0.96875)"/>
     <use xlink:href="#SegoeUI-20" transform="translate(805.517578 0.96875)"/>
     <use xlink:href="#DejaVuSans-Bold-4e" transform="translate(832.910156 0.96875)"/>
    </g>
   </g>
   <g id="text_36">
    <!-- Plano de mejor ajuste local -->
    <g style="fill: #6b7280" transform="translate(735.537999 460.754495) scale(0.09 -0.09)">
     <defs>
      <path id="SegoeUI-6d" d="M 5063 0 
L 4550 0 
L 4550 1838 
Q 4550 2369 4386 2606 
Q 4222 2844 3834 2844 
Q 3506 2844 3276 2544 
Q 3047 2244 3047 1825 
L 3047 0 
L 2534 0 
L 2534 1900 
Q 2534 2844 1806 2844 
Q 1469 2844 1250 2561 
Q 1031 2278 1031 1825 
L 1031 0 
L 519 0 
L 519 3200 
L 1031 3200 
L 1031 2694 
L 1044 2694 
Q 1384 3275 2038 3275 
Q 2366 3275 2609 3092 
Q 2853 2909 2944 2613 
Q 3300 3275 4006 3275 
Q 5063 3275 5063 1972 
L 5063 0 
z
" transform="scale(0.015625)"/>
      <path id="SegoeUI-6a" d="M 1031 134 
Q 1031 -653 714 -1079 
Q 397 -1506 -194 -1506 
Q -413 -1506 -619 -1406 
L -619 -928 
Q -388 -1069 -181 -1069 
Q 519 -1069 519 50 
L 519 3200 
L 1031 3200 
L 1031 134 
z
M 781 4013 
Q 644 4013 547 4106 
Q 450 4200 450 4344 
Q 450 4488 547 4583 
Q 644 4678 781 4678 
Q 922 4678 1020 4583 
Q 1119 4488 1119 4344 
Q 1119 4206 1020 4109 
Q 922 4013 781 4013 
z
" transform="scale(0.015625)"/>
      <path id="SegoeUI-74" d="M 2003 31 
Q 1822 -69 1525 -69 
Q 684 -69 684 869 
L 684 2763 
L 134 2763 
L 134 3200 
L 684 3200 
L 684 3981 
L 1197 4147 
L 1197 3200 
L 2003 3200 
L 2003 2763 
L 1197 2763 
L 1197 959 
Q 1197 638 1306 500 
Q 1416 363 1669 363 
Q 1863 363 2003 469 
L 2003 31 
z
" transform="scale(0.015625)"/>
     </defs>
     <use xlink:href="#SegoeUI-50"/>
     <use xlink:href="#SegoeUI-6c" x="56.005859"/>
     <use xlink:href="#SegoeUI-61" x="80.224609"/>
     <use xlink:href="#SegoeUI-6e" x="131.103516"/>
     <use xlink:href="#SegoeUI-6f" x="187.695312"/>
     <use xlink:href="#SegoeUI-20" x="246.289062"/>
     <use xlink:href="#SegoeUI-64" x="273.681641"/>
     <use xlink:href="#SegoeUI-65" x="332.568359"/>
     <use xlink:href="#SegoeUI-20" x="384.863281"/>
     <use xlink:href="#SegoeUI-6d" x="412.255859"/>
     <use xlink:href="#SegoeUI-65" x="498.388672"/>
     <use xlink:href="#SegoeUI-6a" x="550.683594"/>
     <use xlink:href="#SegoeUI-6f" x="574.902344"/>
     <use xlink:href="#SegoeUI-72" x="633.496094"/>
     <use xlink:href="#SegoeUI-20" x="668.261719"/>
     <use xlink:href="#SegoeUI-61" x="695.654297"/>
     <use xlink:href="#SegoeUI-6a" x="746.533203"/>
     <use xlink:href="#SegoeUI-75" x="770.751953"/>
     <use xlink:href="#SegoeUI-73" x="827.34375"/>
     <use xlink:href="#SegoeUI-74" x="869.775391"/>
     <use xlink:href="#SegoeUI-65" x="902.912109"/>
     <use xlink:href="#SegoeUI-20" x="955.207031"/>
     <use xlink:href="#SegoeUI-6c" x="982.599609"/>
     <use xlink:href="#SegoeUI-6f" x="1006.818359"/>
     <use xlink:href="#SegoeUI-63" x="1065.412109"/>
     <use xlink:href="#SegoeUI-61" x="1111.603516"/>
     <use xlink:href="#SegoeUI-6c" x="1162.482422"/>
    </g>
   </g>
   <g id="text_37">
    <!-- Plano Normal -->
    <g style="fill: #8b5cf6" transform="translate(756.593546 487.330075) scale(0.1 -0.1)">
     <defs>
      <path id="SegoeUI-Bold-6d" d="M 5497 0 
L 4513 0 
L 4513 1825 
Q 4513 2522 4000 2522 
Q 3756 2522 3603 2312 
Q 3450 2103 3450 1791 
L 3450 0 
L 2463 0 
L 2463 1844 
Q 2463 2522 1959 2522 
Q 1706 2522 1554 2322 
Q 1403 2122 1403 1778 
L 1403 0 
L 416 0 
L 416 3200 
L 1403 3200 
L 1403 2700 
L 1416 2700 
Q 1569 2956 1845 3117 
Q 2122 3278 2450 3278 
Q 3128 3278 3378 2681 
Q 3744 3278 4453 3278 
Q 5497 3278 5497 1991 
L 5497 0 
z
" transform="scale(0.015625)"/>
     </defs>
     <use xlink:href="#SegoeUI-Bold-50"/>
     <use xlink:href="#SegoeUI-Bold-6c" x="61.425781"/>
     <use xlink:href="#SegoeUI-Bold-61" x="89.84375"/>
     <use xlink:href="#SegoeUI-Bold-6e" x="143.652344"/>
     <use xlink:href="#SegoeUI-Bold-6f" x="204.150391"/>
     <use xlink:href="#SegoeUI-Bold-20" x="265.283203"/>
     <use xlink:href="#SegoeUI-Bold-4e" x="292.871094"/>
     <use xlink:href="#SegoeUI-Bold-6f" x="371.875"/>
     <use xlink:href="#SegoeUI-Bold-72" x="433.007812"/>
     <use xlink:href="#SegoeUI-Bold-6d" x="473.052734"/>
     <use xlink:href="#SegoeUI-Bold-61" x="564.654297"/>
     <use xlink:href="#SegoeUI-Bold-6c" x="618.462891"/>
    </g>
   </g>
   <g id="text_38">
    <!-- Generado por: $\mathbf{N}$ y $\mathbf{B}$ -->
    <g style="fill: #2c2f33" transform="translate(742.68964 509.073732) scale(0.1 -0.1)">
     <use xlink:href="#SegoeUI-47" transform="translate(0 0.96875)"/>
     <use xlink:href="#SegoeUI-65" transform="translate(68.603516 0.96875)"/>
     <use xlink:href="#SegoeUI-6e" transform="translate(120.898438 0.96875)"/>
     <use xlink:href="#SegoeUI-65" transform="translate(177.490234 0.96875)"/>
     <use xlink:href="#SegoeUI-72" transform="translate(229.785156 0.96875)"/>
     <use xlink:href="#SegoeUI-61" transform="translate(264.550781 0.96875)"/>
     <use xlink:href="#SegoeUI-64" transform="translate(315.429688 0.96875)"/>
     <use xlink:href="#SegoeUI-6f" transform="translate(374.316406 0.96875)"/>
     <use xlink:href="#SegoeUI-20" transform="translate(432.910156 0.96875)"/>
     <use xlink:href="#SegoeUI-70" transform="translate(460.302734 0.96875)"/>
     <use xlink:href="#SegoeUI-6f" transform="translate(519.091797 0.96875)"/>
     <use xlink:href="#SegoeUI-72" transform="translate(577.685547 0.96875)"/>
     <use xlink:href="#SegoeUI-3a" transform="translate(612.451172 0.96875)"/>
     <use xlink:href="#SegoeUI-20" transform="translate(634.130859 0.96875)"/>
     <use xlink:href="#DejaVuSans-Bold-4e" transform="translate(661.523438 0.96875)"/>
     <use xlink:href="#SegoeUI-20" transform="translate(745.214844 0.96875)"/>
     <use xlink:href="#SegoeUI-79" transform="translate(772.607422 0.96875)"/>
     <use xlink:href="#SegoeUI-20" transform="translate(820.996094 0.96875)"/>
     <use xlink:href="#DejaVuSans-Bold-42" transform="translate(848.388672 0.96875)"/>
    </g>
   </g>
   <g id="text_39">
    <!-- Perpendicular a la tangente -->
    <g style="fill: #6b7280" transform="translate(734.693546 528.401427) scale(0.09 -0.09)">
     <defs>
      <path id="SegoeUI-69" d="M 781 4013 
Q 644 4013 547 4106 
Q 450 4200 450 4344 
Q 450 4488 547 4583 
Q 644 4678 781 4678 
Q 922 4678 1020 4583 
Q 1119 4488 1119 4344 
Q 1119 4206 1020 4109 
Q 922 4013 781 4013 
z
M 1031 0 
L 519 0 
L 519 3200 
L 1031 3200 
L 1031 0 
z
" transform="scale(0.015625)"/>
      <path id="SegoeUI-67" d="M 3250 256 
Q 3250 -1506 1563 -1506 
Q 969 -1506 525 -1281 
L 525 -769 
Q 1066 -1069 1556 -1069 
Q 2738 -1069 2738 188 
L 2738 538 
L 2725 538 
Q 2359 -75 1625 -75 
Q 1028 -75 664 351 
Q 300 778 300 1497 
Q 300 2313 692 2794 
Q 1084 3275 1766 3275 
Q 2413 3275 2725 2756 
L 2738 2756 
L 2738 3200 
L 3250 3200 
L 3250 256 
z
M 2738 1447 
L 2738 1919 
Q 2738 2300 2480 2572 
Q 2222 2844 1838 2844 
Q 1363 2844 1094 2498 
Q 825 2153 825 1531 
Q 825 997 1083 676 
Q 1341 356 1766 356 
Q 2197 356 2467 662 
Q 2738 969 2738 1447 
z
" transform="scale(0.015625)"/>
     </defs>
     <use xlink:href="#SegoeUI-50"/>
     <use xlink:href="#SegoeUI-65" x="52.255859"/>
     <use xlink:href="#SegoeUI-72" x="104.550781"/>
     <use xlink:href="#SegoeUI-70" x="139.316406"/>
     <use xlink:href="#SegoeUI-65" x="198.105469"/>
     <use xlink:href="#SegoeUI-6e" x="250.400391"/>
     <use xlink:href="#SegoeUI-64" x="306.992188"/>
     <use xlink:href="#SegoeUI-69" x="365.878906"/>
     <use xlink:href="#SegoeUI-63" x="390.097656"/>
     <use xlink:href="#SegoeUI-75" x="436.289062"/>
     <use xlink:href="#SegoeUI-6c" x="492.880859"/>
     <use xlink:href="#SegoeUI-61" x="517.099609"/>
     <use xlink:href="#SegoeUI-72" x="567.978516"/>
     <use xlink:href="#SegoeUI-20" x="602.744141"/>
     <use xlink:href="#SegoeUI-61" x="630.136719"/>
     <use xlink:href="#SegoeUI-20" x="681.015625"/>
     <use xlink:href="#SegoeUI-6c" x="708.408203"/>
     <use xlink:href="#SegoeUI-61" x="732.626953"/>
     <use xlink:href="#SegoeUI-20" x="783.505859"/>
     <use xlink:href="#SegoeUI-74" x="810.898438"/>
     <use xlink:href="#SegoeUI-61" x="844.785156"/>
     <use xlink:href="#SegoeUI-6e" x="895.664062"/>
     <use xlink:href="#SegoeUI-67" x="952.255859"/>
     <use xlink:href="#SegoeUI-65" x="1011.142578"/>
     <use xlink:href="#SegoeUI-6e" x="1063.4375"/>
     <use xlink:href="#SegoeUI-74" x="1120.029297"/>
     <use xlink:href="#SegoeUI-65" x="1153.166016"/>
    </g>
   </g>
   <g id="text_40">
    <!-- Plano Rectificante -->
    <g style="fill: #06b6d4" transform="translate(746.597452 554.977008) scale(0.1 -0.1)">
     <defs>
      <path id="SegoeUI-Bold-66" d="M 2503 3981 
Q 2313 4056 2138 4056 
Q 1663 4056 1663 3541 
L 1663 3200 
L 2394 3200 
L 2394 2472 
L 1663 2472 
L 1663 0 
L 678 0 
L 678 2472 
L 141 2472 
L 141 3200 
L 678 3200 
L 678 3597 
Q 678 4144 1034 4478 
Q 1391 4813 2003 4813 
Q 2303 4813 2503 4750 
L 2503 3981 
z
" transform="scale(0.015625)"/>
     </defs>
     <use xlink:href="#SegoeUI-Bold-50"/>
     <use xlink:href="#SegoeUI-Bold-6c" x="61.425781"/>
     <use xlink:href="#SegoeUI-Bold-61" x="89.84375"/>
     <use xlink:href="#SegoeUI-Bold-6e" x="143.652344"/>
     <use xlink:href="#SegoeUI-Bold-6f" x="204.150391"/>
     <use xlink:href="#SegoeUI-Bold-20" x="265.283203"/>
     <use xlink:href="#SegoeUI-Bold-52" x="292.871094"/>
     <use xlink:href="#SegoeUI-Bold-65" x="355.654297"/>
     <use xlink:href="#SegoeUI-Bold-63" x="409.755859"/>
     <use xlink:href="#SegoeUI-Bold-74" x="457.753906"/>
     <use xlink:href="#SegoeUI-Bold-69" x="496.669922"/>
     <use xlink:href="#SegoeUI-Bold-66" x="525.087891"/>
     <use xlink:href="#SegoeUI-Bold-69" x="563.417969"/>
     <use xlink:href="#SegoeUI-Bold-63" x="591.835938"/>
     <use xlink:href="#SegoeUI-Bold-61" x="639.833984"/>
     <use xlink:href="#SegoeUI-Bold-6e" x="693.642578"/>
     <use xlink:href="#SegoeUI-Bold-74" x="754.140625"/>
     <use xlink:href="#SegoeUI-Bold-65" x="792.681641"/>
    </g>
   </g>
   <g id="text_41">
    <!-- Generado por: $\mathbf{T}$ y $\mathbf{B}$ -->
    <g style="fill: #2c2f33" transform="translate(743.43964 576.720664) scale(0.1 -0.1)">
     <use xlink:href="#SegoeUI-47" transform="translate(0 0.96875)"/>
     <use xlink:href="#SegoeUI-65" transform="translate(68.603516 0.96875)"/>
     <use xlink:href="#SegoeUI-6e" transform="translate(120.898438 0.96875)"/>
     <use xlink:href="#SegoeUI-65" transform="translate(177.490234 0.96875)"/>
     <use xlink:href="#SegoeUI-72" transform="translate(229.785156 0.96875)"/>
     <use xlink:href="#SegoeUI-61" transform="translate(264.550781 0.96875)"/>
     <use xlink:href="#SegoeUI-64" transform="translate(315.429688 0.96875)"/>
     <use xlink:href="#SegoeUI-6f" transform="translate(374.316406 0.96875)"/>
     <use xlink:href="#SegoeUI-20" transform="translate(432.910156 0.96875)"/>
     <use xlink:href="#SegoeUI-70" transform="translate(460.302734 0.96875)"/>
     <use xlink:href="#SegoeUI-6f" transform="translate(519.091797 0.96875)"/>
     <use xlink:href="#SegoeUI-72" transform="translate(577.685547 0.96875)"/>
     <use xlink:href="#SegoeUI-3a" transform="translate(612.451172 0.96875)"/>
     <use xlink:href="#SegoeUI-20" transform="translate(634.130859 0.96875)"/>
     <use xlink:href="#DejaVuSans-Bold-54" transform="translate(661.523438 0.96875)"/>
     <use xlink:href="#SegoeUI-20" transform="translate(729.736328 0.96875)"/>
     <use xlink:href="#SegoeUI-79" transform="translate(757.128906 0.96875)"/>
     <use xlink:href="#SegoeUI-20" transform="translate(805.517578 0.96875)"/>
     <use xlink:href="#DejaVuSans-Bold-42" transform="translate(832.910156 0.96875)"/>
    </g>
   </g>
   <g id="text_42">
    <!-- Perpendicular a la normal -->
    <g style="fill: #6b7280" transform="translate(738.457374 596.048359) scale(0.09 -0.09)">
     <use xlink:href="#SegoeUI-50"/>
     <use xlink:href="#SegoeUI-65" x="52.255859"/>
     <use xlink:href="#SegoeUI-72" x="104.550781"/>
     <use xlink:href="#SegoeUI-70" x="139.316406"/>
     <use xlink:href="#SegoeUI-65" x="198.105469"/>
     <use xlink:href="#SegoeUI-6e" x="250.400391"/>
     <use xlink:href="#SegoeUI-64" x="306.992188"/>
     <use xlink:href="#SegoeUI-69" x="365.878906"/>
     <use xlink:href="#SegoeUI-63" x="390.097656"/>
     <use xlink:href="#SegoeUI-75" x="436.289062"/>
     <use xlink:href="#SegoeUI-6c" x="492.880859"/>
     <use xlink:href="#SegoeUI-61" x="517.099609"/>
     <use xlink:href="#SegoeUI-72" x="567.978516"/>
     <use xlink:href="#SegoeUI-20" x="602.744141"/>
     <use xlink:href="#SegoeUI-61" x="630.136719"/>
     <use xlink:href="#SegoeUI-20" x="681.015625"/>
     <use xlink:href="#SegoeUI-6c" x="708.408203"/>
     <use xlink:href="#SegoeUI-61" x="732.626953"/>
     <use xlink:href="#SegoeUI-20" x="783.505859"/>
     <use xlink:href="#SegoeUI-6e" x="810.898438"/>
     <use xlink:href="#SegoeUI-6f" x="867.490234"/>
     <use xlink:href="#SegoeUI-72" x="926.083984"/>
     <use xlink:href="#SegoeUI-6d" x="960.599609"/>
     <use xlink:href="#SegoeUI-61" x="1046.732422"/>
     <use xlink:href="#SegoeUI-6c" x="1097.611328"/>
    </g>
   </g>
  </g>
  <g id="text_43">
   <!-- Marco de Frenet-Serret (TNB) -->
   <g style="fill: #2c2f33" transform="translate(410.909604 17.564375) scale(0.14 -0.14)">
    <defs>
     <path id="SegoeUI-Bold-28" d="M 2309 -1019 
L 1503 -1019 
Q 494 94 494 1716 
Q 494 3281 1503 4481 
L 2303 4481 
Q 1356 3225 1356 1716 
Q 1356 206 2309 -1019 
z
" transform="scale(0.015625)"/>
     <path id="SegoeUI-Bold-29" d="M 856 -1019 
L 56 -1019 
Q 1013 200 1013 1716 
Q 1013 3219 56 4481 
L 863 4481 
Q 1875 3278 1875 1716 
Q 1875 106 856 -1019 
z
" transform="scale(0.015625)"/>
    </defs>
    <use xlink:href="#SegoeUI-Bold-4d"/>
    <use xlink:href="#SegoeUI-Bold-61" x="95.703125"/>
    <use xlink:href="#SegoeUI-Bold-72" x="149.511719"/>
    <use xlink:href="#SegoeUI-Bold-63" x="188.931641"/>
    <use xlink:href="#SegoeUI-Bold-6f" x="236.929688"/>
    <use xlink:href="#SegoeUI-Bold-20" x="298.0625"/>
    <use xlink:href="#SegoeUI-Bold-64" x="325.650391"/>
    <use xlink:href="#SegoeUI-Bold-65" x="387.564453"/>
    <use xlink:href="#SegoeUI-Bold-20" x="441.666016"/>
    <use xlink:href="#SegoeUI-Bold-46" x="469.253906"/>
    <use xlink:href="#SegoeUI-Bold-72" x="521.255859"/>
    <use xlink:href="#SegoeUI-Bold-65" x="560.675781"/>
    <use xlink:href="#SegoeUI-Bold-6e" x="614.777344"/>
    <use xlink:href="#SegoeUI-Bold-65" x="675.275391"/>
    <use xlink:href="#SegoeUI-Bold-74" x="729.376953"/>
    <use xlink:href="#SegoeUI-Bold-2d" x="763.792969"/>
    <use xlink:href="#SegoeUI-Bold-53" x="804.222656"/>
    <use xlink:href="#SegoeUI-Bold-65" x="860.277344"/>
    <use xlink:href="#SegoeUI-Bold-72" x="914.378906"/>
    <use xlink:href="#SegoeUI-Bold-72" x="954.173828"/>
    <use xlink:href="#SegoeUI-Bold-65" x="993.59375"/>
    <use xlink:href="#SegoeUI-Bold-74" x="1047.695312"/>
    <use xlink:href="#SegoeUI-Bold-20" x="1086.611328"/>
    <use xlink:href="#SegoeUI-Bold-28" x="1114.199219"/>
    <use xlink:href="#SegoeUI-Bold-54" x="1151.113281"/>
    <use xlink:href="#SegoeUI-Bold-4e" x="1209.707031"/>
    <use xlink:href="#SegoeUI-Bold-42" x="1288.710938"/>
    <use xlink:href="#SegoeUI-Bold-29" x="1352.822266"/>
   </g>
  </g>
 </g>
 <defs>
  <clipPath id="p2d817aa0ee">
   <rect x="351.162239" y="44.928292" width="314.075042" height="314.075042"/>
  </clipPath>
  <clipPath id="p5e2cd47d03">
   <rect x="7.2" y="407.603334" width="440.51976" height="241.596186"/>
  </clipPath>
  <clipPath id="p7fa37d0d76">
   <rect x="568.67976" y="407.603334" width="440.51976" height="241.596186"/>
  </clipPath>
 </defs>
</svg>
