<?xml version="1.0" encoding="utf-8" standalone="no"?>
<!DOCTYPE svg PUBLIC "-//W3C//DTD SVG 1.1//EN"
  "http://www.w3.org/Graphics/SVG/1.1/DTD/svg11.dtd">
<svg xmlns:xlink="http://www.w3.org/1999/xlink" width="1016.39952pt" height="584.39952pt" viewBox="0 0 1016.39952 584.39952" xmlns="http://www.w3.org/2000/svg" version="1.1">
 <metadata>
  <rdf:RDF xmlns:dc="http://purl.org/dc/elements/1.1/" xmlns:cc="http://creativecommons.org/ns#" xmlns:rdf="http://www.w3.org/1999/02/22-rdf-syntax-ns#">
   <cc:Work>
    <dc:type rdf:resource="http://purl.org/dc/dcmitype/StillImage"/>
    <dc:date>2026-04-11T16:11:48.330222</dc:date>
    <dc:format>image/svg+xml</dc:format>
    <dc:creator>
     <cc:Agent>
      <dc:title>Matplotlib v3.8.4, https://matplotlib.org/</dc:title>
     </cc:Agent>
    </dc:creator>
   </cc:Work>
  </rdf:RDF>
 </metadata>
 <defs>
  <style type="text/css">*{stroke-linejoin: round; stroke-linecap: butt}</style>
 </defs>
 <g id="figure_1">
  <g id="patch_1">
   <path d="M 0 584.39952 
L 1016.39952 584.39952 
L 1016.39952 0 
L 0 0 
z
" style="fill: #ffffff"/>
  </g>
  <g id="axes_1">
   <g id="patch_2">
    <path d="M 41.104688 535.940928 
L 540.195335 535.940928 
L 540.195335 68.043447 
L 41.104688 68.043447 
z
" style="fill: #ffffff"/>
   </g>
   <g id="patch_3">
    <path d="M 446.615838 317.58877 
L 446.301829 307.696806 
L 445.361064 297.844673 
L 443.797333 288.072043 
L 441.616931 278.418267 
L 438.828639 268.922216 
L 435.443684 259.622128 
L 431.475696 250.555451 
L 426.940652 241.758694 
L 421.856814 233.267278 
L 416.244653 225.115395 
L 410.126766 217.335869 
L 403.527789 209.960026 
L 396.474293 203.017567 
L 388.994679 196.536445 
L 381.119067 190.542758 
L 372.879167 185.060641 
L 364.30816 180.112167 
L 355.440557 175.717264 
L 346.312066 171.893626 
L 336.959443 168.656652 
L 327.420349 166.019375 
L 317.733193 163.992414 
L 307.936983 162.583932 
L 298.071164 161.799599 
L 288.175463 161.642575 
L 278.289726 162.11349 
L 268.45376 163.21045 
L 258.70717 164.929037 
L 249.089202 167.262331 
L 239.638586 170.200936 
L 230.393374 173.73302 
L 221.390795 177.84436 
L 212.667097 182.518402 
L 204.25741 187.736324 
L 196.195595 193.477116 
L 188.514115 199.717663 
L 181.2439 206.432834 
L 174.414225 213.595591 
L 168.05259 221.177093 
L 162.184612 229.146809 
L 156.833918 237.472651 
L 152.022055 246.121092 
L 147.768398 255.057308 
L 144.090074 264.245316 
L 141.001896 273.648119 
L 138.516297 283.227856 
L 136.643288 292.945952 
L 135.390409 302.763276 
L 134.762706 312.640297 
L 134.762706 322.537244 
L 135.390409 332.414265 
L 136.643288 342.231589 
L 138.516297 351.949685 
L 141.001896 361.529422 
L 144.090074 370.932225 
L 147.768398 380.120233 
L 152.022055 389.056449 
L 156.833918 397.70489 
L 162.184612 406.030731 
L 168.05259 414.000448 
L 174.414225 421.581949 
L 181.2439 428.744706 
L 188.514115 435.459878 
L 196.195595 441.700424 
L 204.25741 447.441216 
L 212.667097 452.659139 
L 221.390795 457.33318 
L 230.393374 461.444521 
L 239.638586 464.976605 
L 249.089202 467.91521 
L 258.70717 470.248503 
L 268.45376 471.96709 
L 278.289726 473.06405 
L 288.175463 473.534966 
L 298.071164 473.377941 
L 307.936983 472.593609 
L 317.733193 471.185126 
L 327.420349 469.158165 
L 336.959443 466.520888 
L 346.312066 463.283914 
L 355.440557 459.460277 
L 364.30816 455.065373 
L 372.879167 450.1169 
L 381.119067 444.634782 
L 388.994679 438.641096 
L 396.474293 432.159974 
L 403.527789 425.217514 
L 410.126766 417.841672 
L 416.244653 410.062146 
L 421.856814 401.910263 
L 426.940652 393.418846 
L 431.475696 384.622089 
L 435.443684 375.555413 
L 438.828639 366.255325 
L 441.616931 356.759274 
L 443.797333 347.105497 
L 445.361064 337.332867 
L 446.301829 327.480734 
L 446.615838 317.58877 
z
" clip-path="url(#p9f17c66e7b)" style="fill: #39c5bb; opacity: 0.1; stroke: #39c5bb; stroke-linejoin: miter"/>
   </g>
   <g id="matplotlib.axis_1">
    <g id="xtick_1">
     <g id="line2d_1">
      <path d="M 41.104688 535.940928 
L 41.104688 68.043447 
" clip-path="url(#p9f17c66e7b)" style="fill: none; stroke-dasharray: 2.96,1.28; stroke-dashoffset: 0; stroke: #b0b0b0; stroke-opacity: 0.3; stroke-width: 0.8"/>
     </g>
     <g id="line2d_2">
      <defs>
       <path id="m3be9952faa" d="M 0 0 
L 0 3.5 
" style="stroke: #2c2f33; stroke-width: 0.8"/>
      </defs>
      <g>
       <use xlink:href="#m3be9952faa" x="41.104688" y="535.940928" style="fill: #2c2f33; stroke: #2c2f33; stroke-width: 0.8"/>
      </g>
     </g>
     <g id="text_1">
      <!-- −1 -->
      <g style="fill: #2c2f33" transform="translate(34.989063 550.344053) scale(0.1 -0.1)">
       <defs>
        <path id="SegoeUI-2212" d="M 3663 1656 
L 725 1656 
L 725 2075 
L 3663 2075 
L 3663 1656 
z
" transform="scale(0.015625)"/>
        <path id="SegoeUI-31" d="M 2263 0 
L 1750 0 
L 1750 3872 
Q 1691 3813 1577 3736 
Q 1463 3659 1320 3584 
Q 1178 3509 1020 3443 
Q 863 3378 713 3341 
L 713 3859 
Q 881 3906 1070 3986 
Q 1259 4066 1442 4164 
Q 1625 4263 1787 4370 
Q 1950 4478 2069 4581 
L 2263 4581 
L 2263 0 
z
" transform="scale(0.015625)"/>
       </defs>
       <use xlink:href="#SegoeUI-2212"/>
       <use xlink:href="#SegoeUI-31" x="68.408203"/>
      </g>
     </g>
    </g>
    <g id="xtick_2">
     <g id="line2d_3">
      <path d="M 103.491018 535.940928 
L 103.491018 68.043447 
" clip-path="url(#p9f17c66e7b)" style="fill: none; stroke-dasharray: 2.96,1.28; stroke-dashoffset: 0; stroke: #b0b0b0; stroke-opacity: 0.3; stroke-width: 0.8"/>
     </g>
     <g id="line2d_4">
      <g>
       <use xlink:href="#m3be9952faa" x="103.491018" y="535.940928" style="fill: #2c2f33; stroke: #2c2f33; stroke-width: 0.8"/>
      </g>
     </g>
     <g id="text_2">
      <!-- 0 -->
      <g style="fill: #2c2f33" transform="translate(100.795706 550.344053) scale(0.1 -0.1)">
       <defs>
        <path id="SegoeUI-30" d="M 3188 2259 
Q 3188 1697 3086 1262 
Q 2984 828 2792 529 
Q 2600 231 2320 76 
Q 2041 -78 1684 -78 
Q 1347 -78 1083 70 
Q 819 219 637 503 
Q 456 788 362 1202 
Q 269 1616 269 2150 
Q 269 2738 367 3188 
Q 466 3638 656 3942 
Q 847 4247 1130 4401 
Q 1413 4556 1778 4556 
Q 3188 4556 3188 2259 
z
M 2663 2209 
Q 2663 4122 1753 4122 
Q 794 4122 794 2175 
Q 794 359 1734 359 
Q 2663 359 2663 2209 
z
" transform="scale(0.015625)"/>
       </defs>
       <use xlink:href="#SegoeUI-30"/>
      </g>
     </g>
    </g>
    <g id="xtick_3">
     <g id="line2d_5">
      <path d="M 165.877349 535.940928 
L 165.877349 68.043447 
" clip-path="url(#p9f17c66e7b)" style="fill: none; stroke-dasharray: 2.96,1.28; stroke-dashoffset: 0; stroke: #b0b0b0; stroke-opacity: 0.3; stroke-width: 0.8"/>
     </g>
     <g id="line2d_6">
      <g>
       <use xlink:href="#m3be9952faa" x="165.877349" y="535.940928" style="fill: #2c2f33; stroke: #2c2f33; stroke-width: 0.8"/>
      </g>
     </g>
     <g id="text_3">
      <!-- 1 -->
      <g style="fill: #2c2f33" transform="translate(163.182037 550.344053) scale(0.1 -0.1)">
       <use xlink:href="#SegoeUI-31"/>
      </g>
     </g>
    </g>
    <g id="xtick_4">
     <g id="line2d_7">
      <path d="M 228.26368 535.940928 
L 228.26368 68.043447 
" clip-path="url(#p9f17c66e7b)" style="fill: none; stroke-dasharray: 2.96,1.28; stroke-dashoffset: 0; stroke: #b0b0b0; stroke-opacity: 0.3; stroke-width: 0.8"/>
     </g>
     <g id="line2d_8">
      <g>
       <use xlink:href="#m3be9952faa" x="228.26368" y="535.940928" style="fill: #2c2f33; stroke: #2c2f33; stroke-width: 0.8"/>
      </g>
     </g>
     <g id="text_4">
      <!-- 2 -->
      <g style="fill: #2c2f33" transform="translate(225.568368 550.344053) scale(0.1 -0.1)">
       <defs>
        <path id="SegoeUI-32" d="M 2413 3306 
Q 2413 3513 2348 3666 
Q 2284 3819 2173 3920 
Q 2063 4022 1913 4072 
Q 1763 4122 1588 4122 
Q 1438 4122 1294 4081 
Q 1150 4041 1014 3969 
Q 878 3897 751 3797 
Q 625 3697 516 3575 
L 516 4125 
Q 731 4334 998 4445 
Q 1266 4556 1650 4556 
Q 1925 4556 2159 4476 
Q 2394 4397 2566 4244 
Q 2738 4091 2836 3866 
Q 2934 3641 2934 3350 
Q 2934 3084 2873 2868 
Q 2813 2653 2689 2462 
Q 2566 2272 2378 2097 
Q 2191 1922 1938 1741 
Q 1622 1516 1417 1356 
Q 1213 1197 1092 1058 
Q 972 919 923 780 
Q 875 641 875 459 
L 3106 459 
L 3106 0 
L 341 0 
L 341 222 
Q 341 509 403 728 
Q 466 947 609 1144 
Q 753 1341 986 1537 
Q 1219 1734 1556 1981 
Q 1800 2156 1964 2315 
Q 2128 2475 2228 2634 
Q 2328 2794 2370 2958 
Q 2413 3122 2413 3306 
z
" transform="scale(0.015625)"/>
       </defs>
       <use xlink:href="#SegoeUI-32"/>
      </g>
     </g>
    </g>
    <g id="xtick_5">
     <g id="line2d_9">
      <path d="M 290.650011 535.940928 
L 290.650011 68.043447 
" clip-path="url(#p9f17c66e7b)" style="fill: none; stroke-dasharray: 2.96,1.28; stroke-dashoffset: 0; stroke: #b0b0b0; stroke-opacity: 0.3; stroke-width: 0.8"/>
     </g>
     <g id="line2d_10">
      <g>
       <use xlink:href="#m3be9952faa" x="290.650011" y="535.940928" style="fill: #2c2f33; stroke: #2c2f33; stroke-width: 0.8"/>
      </g>
     </g>
     <g id="text_5">
      <!-- 3 -->
      <g style="fill: #2c2f33" transform="translate(287.954699 550.344053) scale(0.1 -0.1)">
       <defs>
        <path id="SegoeUI-33" d="M 2978 1269 
Q 2978 966 2864 717 
Q 2750 469 2542 292 
Q 2334 116 2043 19 
Q 1753 -78 1403 -78 
Q 763 -78 384 166 
L 384 716 
Q 838 359 1422 359 
Q 1656 359 1845 418 
Q 2034 478 2170 590 
Q 2306 703 2379 862 
Q 2453 1022 2453 1222 
Q 2453 2100 1203 2100 
L 831 2100 
L 831 2534 
L 1184 2534 
Q 2291 2534 2291 3359 
Q 2291 4122 1447 4122 
Q 972 4122 556 3803 
L 556 4300 
Q 984 4556 1575 4556 
Q 1856 4556 2084 4478 
Q 2313 4400 2475 4259 
Q 2638 4119 2727 3922 
Q 2816 3725 2816 3488 
Q 2816 2603 1922 2350 
L 1922 2338 
Q 2150 2313 2344 2227 
Q 2538 2141 2678 2003 
Q 2819 1866 2898 1680 
Q 2978 1494 2978 1269 
z
" transform="scale(0.015625)"/>
       </defs>
       <use xlink:href="#SegoeUI-33"/>
      </g>
     </g>
    </g>
    <g id="xtick_6">
     <g id="line2d_11">
      <path d="M 353.036342 535.940928 
L 353.036342 68.043447 
" clip-path="url(#p9f17c66e7b)" style="fill: none; stroke-dasharray: 2.96,1.28; stroke-dashoffset: 0; stroke: #b0b0b0; stroke-opacity: 0.3; stroke-width: 0.8"/>
     </g>
     <g id="line2d_12">
      <g>
       <use xlink:href="#m3be9952faa" x="353.036342" y="535.940928" style="fill: #2c2f33; stroke: #2c2f33; stroke-width: 0.8"/>
      </g>
     </g>
     <g id="text_6">
      <!-- 4 -->
      <g style="fill: #2c2f33" transform="translate(350.34103 550.344053) scale(0.1 -0.1)">
       <defs>
        <path id="SegoeUI-34" d="M 2656 4481 
L 2656 1522 
L 3231 1522 
L 3231 1053 
L 2656 1053 
L 2656 0 
L 2150 0 
L 2150 1053 
L 44 1053 
L 44 1497 
Q 338 1828 638 2204 
Q 938 2581 1211 2968 
Q 1484 3356 1717 3742 
Q 1950 4128 2109 4481 
L 2656 4481 
z
M 622 1522 
L 2150 1522 
L 2150 3716 
Q 1916 3306 1706 2984 
Q 1497 2663 1308 2400 
Q 1119 2138 947 1925 
Q 775 1713 622 1522 
z
" transform="scale(0.015625)"/>
       </defs>
       <use xlink:href="#SegoeUI-34"/>
      </g>
     </g>
    </g>
    <g id="xtick_7">
     <g id="line2d_13">
      <path d="M 415.422673 535.940928 
L 415.422673 68.043447 
" clip-path="url(#p9f17c66e7b)" style="fill: none; stroke-dasharray: 2.96,1.28; stroke-dashoffset: 0; stroke: #b0b0b0; stroke-opacity: 0.3; stroke-width: 0.8"/>
     </g>
     <g id="line2d_14">
      <g>
       <use xlink:href="#m3be9952faa" x="415.422673" y="535.940928" style="fill: #2c2f33; stroke: #2c2f33; stroke-width: 0.8"/>
      </g>
     </g>
     <g id="text_7">
      <!-- 5 -->
      <g style="fill: #2c2f33" transform="translate(412.72736 550.344053) scale(0.1 -0.1)">
       <defs>
        <path id="SegoeUI-35" d="M 3028 1369 
Q 3028 1041 2915 775 
Q 2803 509 2595 318 
Q 2388 128 2094 25 
Q 1800 -78 1441 -78 
Q 816 -78 513 109 
L 513 653 
Q 969 359 1447 359 
Q 1691 359 1886 431 
Q 2081 503 2218 631 
Q 2356 759 2429 940 
Q 2503 1122 2503 1338 
Q 2503 1775 2209 2023 
Q 1916 2272 1356 2272 
Q 1266 2272 1166 2269 
Q 1066 2266 966 2261 
Q 866 2256 770 2250 
Q 675 2244 597 2234 
L 750 4481 
L 2822 4481 
L 2822 4019 
L 1194 4019 
L 1103 2703 
Q 1203 2709 1315 2714 
Q 1428 2719 1516 2719 
Q 1872 2719 2153 2625 
Q 2434 2531 2629 2357 
Q 2825 2184 2926 1932 
Q 3028 1681 3028 1369 
z
" transform="scale(0.015625)"/>
       </defs>
       <use xlink:href="#SegoeUI-35"/>
      </g>
     </g>
    </g>
    <g id="xtick_8">
     <g id="line2d_15">
      <path d="M 477.809004 535.940928 
L 477.809004 68.043447 
" clip-path="url(#p9f17c66e7b)" style="fill: none; stroke-dasharray: 2.96,1.28; stroke-dashoffset: 0; stroke: #b0b0b0; stroke-opacity: 0.3; stroke-width: 0.8"/>
     </g>
     <g id="line2d_16">
      <g>
       <use xlink:href="#m3be9952faa" x="477.809004" y="535.940928" style="fill: #2c2f33; stroke: #2c2f33; stroke-width: 0.8"/>
      </g>
     </g>
     <g id="text_8">
      <!-- 6 -->
      <g style="fill: #2c2f33" transform="translate(475.113691 550.344053) scale(0.1 -0.1)">
       <defs>
        <path id="SegoeUI-36" d="M 3194 1422 
Q 3194 1094 3087 819 
Q 2981 544 2793 344 
Q 2606 144 2347 33 
Q 2088 -78 1784 -78 
Q 1447 -78 1180 62 
Q 913 203 727 467 
Q 541 731 444 1112 
Q 347 1494 347 1972 
Q 347 2556 476 3032 
Q 606 3509 845 3848 
Q 1084 4188 1421 4372 
Q 1759 4556 2175 4556 
Q 2638 4556 2919 4428 
L 2919 3944 
Q 2572 4122 2188 4122 
Q 1888 4122 1647 3987 
Q 1406 3853 1234 3608 
Q 1063 3363 970 3016 
Q 878 2669 878 2244 
L 891 2244 
Q 1200 2803 1913 2803 
Q 2206 2803 2442 2703 
Q 2678 2603 2845 2420 
Q 3013 2238 3103 1984 
Q 3194 1731 3194 1422 
z
M 2669 1356 
Q 2669 1591 2609 1778 
Q 2550 1966 2439 2097 
Q 2328 2228 2165 2298 
Q 2003 2369 1797 2369 
Q 1606 2369 1443 2297 
Q 1281 2225 1162 2101 
Q 1044 1978 976 1814 
Q 909 1650 909 1466 
Q 909 1234 975 1032 
Q 1041 831 1159 681 
Q 1278 531 1442 445 
Q 1606 359 1806 359 
Q 2000 359 2159 432 
Q 2319 506 2431 637 
Q 2544 769 2606 951 
Q 2669 1134 2669 1356 
z
" transform="scale(0.015625)"/>
       </defs>
       <use xlink:href="#SegoeUI-36"/>
      </g>
     </g>
    </g>
    <g id="xtick_9">
     <g id="line2d_17">
      <path d="M 540.195335 535.940928 
L 540.195335 68.043447 
" clip-path="url(#p9f17c66e7b)" style="fill: none; stroke-dasharray: 2.96,1.28; stroke-dashoffset: 0; stroke: #b0b0b0; stroke-opacity: 0.3; stroke-width: 0.8"/>
     </g>
     <g id="line2d_18">
      <g>
       <use xlink:href="#m3be9952faa" x="540.195335" y="535.940928" style="fill: #2c2f33; stroke: #2c2f33; stroke-width: 0.8"/>
      </g>
     </g>
     <g id="text_9">
      <!-- 7 -->
      <g style="fill: #2c2f33" transform="translate(537.500022 550.344053) scale(0.1 -0.1)">
       <defs>
        <path id="SegoeUI-37" d="M 3156 4184 
Q 3053 4006 2908 3740 
Q 2763 3475 2600 3144 
Q 2438 2813 2269 2431 
Q 2100 2050 1953 1644 
Q 1806 1238 1695 820 
Q 1584 403 1534 0 
L 984 0 
Q 1041 400 1158 817 
Q 1275 1234 1423 1636 
Q 1572 2038 1737 2409 
Q 1903 2781 2059 3093 
Q 2216 3406 2345 3645 
Q 2475 3884 2553 4019 
L 306 4019 
L 306 4481 
L 3156 4481 
L 3156 4184 
z
" transform="scale(0.015625)"/>
       </defs>
       <use xlink:href="#SegoeUI-37"/>
      </g>
     </g>
    </g>
    <g id="text_10">
     <!-- x -->
     <g style="fill: #2c2f33" transform="translate(288.125167 564.787491) scale(0.11 -0.11)">
      <defs>
       <path id="SegoeUI-78" d="M 2856 3200 
L 1781 1581 
L 2838 0 
L 2241 0 
L 1613 1038 
Q 1553 1134 1472 1281 
L 1459 1281 
Q 1444 1253 1313 1038 
L 672 0 
L 81 0 
L 1172 1569 
L 128 3200 
L 725 3200 
L 1344 2106 
Q 1413 1984 1478 1856 
L 1491 1856 
L 2291 3200 
L 2856 3200 
z
" transform="scale(0.015625)"/>
      </defs>
      <use xlink:href="#SegoeUI-78"/>
     </g>
    </g>
   </g>
   <g id="matplotlib.axis_2">
    <g id="ytick_1">
     <g id="line2d_19">
      <path d="M 41.104688 504.747763 
L 540.195335 504.747763 
" clip-path="url(#p9f17c66e7b)" style="fill: none; stroke-dasharray: 2.96,1.28; stroke-dashoffset: 0; stroke: #b0b0b0; stroke-opacity: 0.3; stroke-width: 0.8"/>
     </g>
     <g id="line2d_20">
      <defs>
       <path id="m2eb36927a1" d="M 0 0 
L -3.5 0 
" style="stroke: #2c2f33; stroke-width: 0.8"/>
      </defs>
      <g>
       <use xlink:href="#m2eb36927a1" x="41.104688" y="504.747763" style="fill: #2c2f33; stroke: #2c2f33; stroke-width: 0.8"/>
      </g>
     </g>
     <g id="text_11">
      <!-- −1 -->
      <g style="fill: #2c2f33" transform="translate(21.873438 508.449325) scale(0.1 -0.1)">
       <use xlink:href="#SegoeUI-2212"/>
       <use xlink:href="#SegoeUI-31" x="68.408203"/>
      </g>
     </g>
    </g>
    <g id="ytick_2">
     <g id="line2d_21">
      <path d="M 41.104688 442.361432 
L 540.195335 442.361432 
" clip-path="url(#p9f17c66e7b)" style="fill: none; stroke-dasharray: 2.96,1.28; stroke-dashoffset: 0; stroke: #b0b0b0; stroke-opacity: 0.3; stroke-width: 0.8"/>
     </g>
     <g id="line2d_22">
      <g>
       <use xlink:href="#m2eb36927a1" x="41.104688" y="442.361432" style="fill: #2c2f33; stroke: #2c2f33; stroke-width: 0.8"/>
      </g>
     </g>
     <g id="text_12">
      <!-- 0 -->
      <g style="fill: #2c2f33" transform="translate(28.714063 446.062995) scale(0.1 -0.1)">
       <use xlink:href="#SegoeUI-30"/>
      </g>
     </g>
    </g>
    <g id="ytick_3">
     <g id="line2d_23">
      <path d="M 41.104688 379.975101 
L 540.195335 379.975101 
" clip-path="url(#p9f17c66e7b)" style="fill: none; stroke-dasharray: 2.96,1.28; stroke-dashoffset: 0; stroke: #b0b0b0; stroke-opacity: 0.3; stroke-width: 0.8"/>
     </g>
     <g id="line2d_24">
      <g>
       <use xlink:href="#m2eb36927a1" x="41.104688" y="379.975101" style="fill: #2c2f33; stroke: #2c2f33; stroke-width: 0.8"/>
      </g>
     </g>
     <g id="text_13">
      <!-- 1 -->
      <g style="fill: #2c2f33" transform="translate(28.714063 383.676664) scale(0.1 -0.1)">
       <use xlink:href="#SegoeUI-31"/>
      </g>
     </g>
    </g>
    <g id="ytick_4">
     <g id="line2d_25">
      <path d="M 41.104688 317.58877 
L 540.195335 317.58877 
" clip-path="url(#p9f17c66e7b)" style="fill: none; stroke-dasharray: 2.96,1.28; stroke-dashoffset: 0; stroke: #b0b0b0; stroke-opacity: 0.3; stroke-width: 0.8"/>
     </g>
     <g id="line2d_26">
      <g>
       <use xlink:href="#m2eb36927a1" x="41.104688" y="317.58877" style="fill: #2c2f33; stroke: #2c2f33; stroke-width: 0.8"/>
      </g>
     </g>
     <g id="text_14">
      <!-- 2 -->
      <g style="fill: #2c2f33" transform="translate(28.714063 321.290333) scale(0.1 -0.1)">
       <use xlink:href="#SegoeUI-32"/>
      </g>
     </g>
    </g>
    <g id="ytick_5">
     <g id="line2d_27">
      <path d="M 41.104688 255.202439 
L 540.195335 255.202439 
" clip-path="url(#p9f17c66e7b)" style="fill: none; stroke-dasharray: 2.96,1.28; stroke-dashoffset: 0; stroke: #b0b0b0; stroke-opacity: 0.3; stroke-width: 0.8"/>
     </g>
     <g id="line2d_28">
      <g>
       <use xlink:href="#m2eb36927a1" x="41.104688" y="255.202439" style="fill: #2c2f33; stroke: #2c2f33; stroke-width: 0.8"/>
      </g>
     </g>
     <g id="text_15">
      <!-- 3 -->
      <g style="fill: #2c2f33" transform="translate(28.714063 258.904002) scale(0.1 -0.1)">
       <use xlink:href="#SegoeUI-33"/>
      </g>
     </g>
    </g>
    <g id="ytick_6">
     <g id="line2d_29">
      <path d="M 41.104688 192.816108 
L 540.195335 192.816108 
" clip-path="url(#p9f17c66e7b)" style="fill: none; stroke-dasharray: 2.96,1.28; stroke-dashoffset: 0; stroke: #b0b0b0; stroke-opacity: 0.3; stroke-width: 0.8"/>
     </g>
     <g id="line2d_30">
      <g>
       <use xlink:href="#m2eb36927a1" x="41.104688" y="192.816108" style="fill: #2c2f33; stroke: #2c2f33; stroke-width: 0.8"/>
      </g>
     </g>
     <g id="text_16">
      <!-- 4 -->
      <g style="fill: #2c2f33" transform="translate(28.714063 196.517671) scale(0.1 -0.1)">
       <use xlink:href="#SegoeUI-34"/>
      </g>
     </g>
    </g>
    <g id="ytick_7">
     <g id="line2d_31">
      <path d="M 41.104688 130.429778 
L 540.195335 130.429778 
" clip-path="url(#p9f17c66e7b)" style="fill: none; stroke-dasharray: 2.96,1.28; stroke-dashoffset: 0; stroke: #b0b0b0; stroke-opacity: 0.3; stroke-width: 0.8"/>
     </g>
     <g id="line2d_32">
      <g>
       <use xlink:href="#m2eb36927a1" x="41.104688" y="130.429778" style="fill: #2c2f33; stroke: #2c2f33; stroke-width: 0.8"/>
      </g>
     </g>
     <g id="text_17">
      <!-- 5 -->
      <g style="fill: #2c2f33" transform="translate(28.714063 134.13134) scale(0.1 -0.1)">
       <use xlink:href="#SegoeUI-35"/>
      </g>
     </g>
    </g>
    <g id="ytick_8">
     <g id="line2d_33">
      <path d="M 41.104688 68.043447 
L 540.195335 68.043447 
" clip-path="url(#p9f17c66e7b)" style="fill: none; stroke-dasharray: 2.96,1.28; stroke-dashoffset: 0; stroke: #b0b0b0; stroke-opacity: 0.3; stroke-width: 0.8"/>
     </g>
     <g id="line2d_34">
      <g>
       <use xlink:href="#m2eb36927a1" x="41.104688" y="68.043447" style="fill: #2c2f33; stroke: #2c2f33; stroke-width: 0.8"/>
      </g>
     </g>
     <g id="text_18">
      <!-- 6 -->
      <g style="fill: #2c2f33" transform="translate(28.714063 71.745009) scale(0.1 -0.1)">
       <use xlink:href="#SegoeUI-36"/>
      </g>
     </g>
    </g>
    <g id="text_19">
     <!-- y -->
     <g style="fill: #2c2f33" transform="translate(15.285 304.653672) rotate(-90) scale(0.11 -0.11)">
      <defs>
       <path id="SegoeUI-79" d="M 3066 3200 
L 1594 -513 
Q 1200 -1506 488 -1506 
Q 288 -1506 153 -1466 
L 153 -1006 
Q 319 -1063 456 -1063 
Q 844 -1063 1038 -600 
L 1294 6 
L 44 3200 
L 613 3200 
L 1478 738 
Q 1494 691 1544 494 
L 1563 494 
Q 1578 569 1625 731 
L 2534 3200 
L 3066 3200 
z
" transform="scale(0.015625)"/>
      </defs>
      <use xlink:href="#SegoeUI-79"/>
     </g>
    </g>
   </g>
   <g id="line2d_35">
    <path d="M 41.104688 442.361432 
L 540.195335 442.361432 
" clip-path="url(#p9f17c66e7b)" style="fill: none; stroke: #9ca3af; stroke-linecap: square"/>
   </g>
   <g id="line2d_36">
    <path d="M 103.491018 535.940928 
L 103.491018 68.043447 
" clip-path="url(#p9f17c66e7b)" style="fill: none; stroke: #9ca3af; stroke-linecap: square"/>
   </g>
   <g id="line2d_37">
    <path d="M 446.615838 317.58877 
L 446.301829 307.696806 
L 445.361064 297.844673 
L 443.797333 288.072043 
L 441.616931 278.418267 
L 438.828639 268.922216 
L 435.443684 259.622128 
L 431.475696 250.555451 
L 426.940652 241.758694 
L 421.856814 233.267278 
L 416.244653 225.115395 
L 410.126766 217.335869 
L 403.527789 209.960026 
L 396.474293 203.017567 
L 388.994679 196.536445 
L 381.119067 190.542758 
L 372.879167 185.060641 
L 364.30816 180.112167 
L 355.440557 175.717264 
L 346.312066 171.893626 
L 336.959443 168.656652 
L 327.420349 166.019375 
L 317.733193 163.992414 
L 307.936983 162.583932 
L 298.071164 161.799599 
L 288.175463 161.642575 
L 278.289726 162.11349 
L 268.45376 163.21045 
L 258.70717 164.929037 
L 249.089202 167.262331 
L 239.638586 170.200936 
L 230.393374 173.73302 
L 221.390795 177.84436 
L 212.667097 182.518402 
L 204.25741 187.736324 
L 196.195595 193.477116 
L 188.514115 199.717663 
L 181.2439 206.432834 
L 174.414225 213.595591 
L 168.05259 221.177093 
L 162.184612 229.146809 
L 156.833918 237.472651 
L 152.022055 246.121092 
L 147.768398 255.057308 
L 144.090074 264.245316 
L 141.001896 273.648119 
L 138.516297 283.227856 
L 136.643288 292.945952 
L 135.390409 302.763276 
L 134.762706 312.640297 
L 134.762706 322.537244 
L 135.390409 332.414265 
L 136.643288 342.231589 
L 138.516297 351.949685 
L 141.001896 361.529422 
L 144.090074 370.932225 
L 147.768398 380.120233 
L 152.022055 389.056449 
L 156.833918 397.70489 
L 162.184612 406.030731 
L 168.05259 414.000448 
L 174.414225 421.581949 
L 181.2439 428.744706 
L 188.514115 435.459878 
L 196.195595 441.700424 
L 204.25741 447.441216 
L 212.667097 452.659139 
L 221.390795 457.33318 
L 230.393374 461.444521 
L 239.638586 464.976605 
L 249.089202 467.91521 
L 258.70717 470.248503 
L 268.45376 471.96709 
L 278.289726 473.06405 
L 288.175463 473.534966 
L 298.071164 473.377941 
L 307.936983 472.593609 
L 317.733193 471.185126 
L 327.420349 469.158165 
L 336.959443 466.520888 
L 346.312066 463.283914 
L 355.440557 459.460277 
L 364.30816 455.065373 
L 372.879167 450.1169 
L 381.119067 444.634782 
L 388.994679 438.641096 
L 396.474293 432.159974 
L 403.527789 425.217514 
L 410.126766 417.841672 
L 416.244653 410.062146 
L 421.856814 401.910263 
L 426.940652 393.418846 
L 431.475696 384.622089 
L 435.443684 375.555413 
L 438.828639 366.255325 
L 441.616931 356.759274 
L 443.797333 347.105497 
L 445.361064 337.332867 
L 446.301829 327.480734 
L 446.615838 317.58877 
" clip-path="url(#p9f17c66e7b)" style="fill: none; stroke: #39c5bb; stroke-width: 2.5; stroke-linecap: square"/>
   </g>
   <g id="line2d_38">
    <path d="M 290.650011 317.58877 
L 418.409737 228.130447 
" clip-path="url(#p9f17c66e7b)" style="fill: none; stroke: #f59e0b; stroke-width: 2.5; stroke-linecap: square"/>
   </g>
   <g id="line2d_39">
    <path d="M 134.684184 317.58877 
L 446.615838 317.58877 
" clip-path="url(#p9f17c66e7b)" style="fill: none; stroke-dasharray: 7.4,3.2; stroke-dashoffset: 0; stroke: #4b5563; stroke-width: 2"/>
   </g>
   <g id="line2d_40">
    <defs>
     <path id="m72328a0d2e" d="M -4 4 
L 4 4 
L 4 -4 
L -4 -4 
z
" style="stroke: #1f2937; stroke-linejoin: miter"/>
    </defs>
    <g clip-path="url(#p9f17c66e7b)">
     <use xlink:href="#m72328a0d2e" x="340.559076" y="348.781936" style="fill: #1f2937; stroke: #1f2937; stroke-linejoin: miter"/>
    </g>
   </g>
   <g id="line2d_41">
    <defs>
     <path id="mb00dcd86d5" d="M 0 -4 
L -4 4 
L 4 4 
z
" style="stroke: #dc2626; stroke-linejoin: miter"/>
    </defs>
    <g clip-path="url(#p9f17c66e7b)">
     <use xlink:href="#mb00dcd86d5" x="228.26368" y="99.236612" style="fill: #dc2626; stroke: #dc2626; stroke-linejoin: miter"/>
    </g>
   </g>
   <g id="patch_4">
    <path d="M 41.104688 535.940928 
L 41.104688 68.043447 
" style="fill: none; stroke: #4b5563; stroke-width: 0.8; stroke-linejoin: miter; stroke-linecap: square"/>
   </g>
   <g id="patch_5">
    <path d="M 41.104688 535.940928 
L 540.195335 535.940928 
" style="fill: none; stroke: #4b5563; stroke-width: 0.8; stroke-linejoin: miter; stroke-linecap: square"/>
   </g>
   <g id="text_20">
    <!-- C(h, k) -->
    <g style="fill: #39c5bb" transform="translate(303.127277 298.872871) scale(0.11 -0.11)">
     <defs>
      <path id="SegoeUI-Bold-43" d="M 3725 159 
Q 3234 -78 2444 -78 
Q 1413 -78 822 528 
Q 231 1134 231 2144 
Q 231 3219 895 3887 
Q 1559 4556 2619 4556 
Q 3275 4556 3725 4391 
L 3725 3419 
Q 3275 3688 2700 3688 
Q 2069 3688 1681 3291 
Q 1294 2894 1294 2216 
Q 1294 1566 1659 1180 
Q 2025 794 2644 794 
Q 3234 794 3725 1081 
L 3725 159 
z
" transform="scale(0.015625)"/>
      <path id="SegoeUI-Bold-28" d="M 2309 -1019 
L 1503 -1019 
Q 494 94 494 1716 
Q 494 3281 1503 4481 
L 2303 4481 
Q 1356 3225 1356 1716 
Q 1356 206 2309 -1019 
z
" transform="scale(0.015625)"/>
      <path id="SegoeUI-Bold-68" d="M 3488 0 
L 2503 0 
L 2503 1819 
Q 2503 2522 1991 2522 
Q 1728 2522 1565 2325 
Q 1403 2128 1403 1825 
L 1403 0 
L 416 0 
L 416 4738 
L 1403 4738 
L 1403 2725 
L 1416 2725 
Q 1778 3278 2400 3278 
Q 3488 3278 3488 1966 
L 3488 0 
z
" transform="scale(0.015625)"/>
      <path id="SegoeUI-Bold-2c" d="M 1350 788 
L 891 -794 
L 122 -794 
L 441 788 
L 1350 788 
z
" transform="scale(0.015625)"/>
      <path id="SegoeUI-Bold-20" transform="scale(0.015625)"/>
      <path id="SegoeUI-Bold-6b" d="M 3622 0 
L 2438 0 
L 1416 1588 
L 1403 1588 
L 1403 0 
L 416 0 
L 416 4738 
L 1403 4738 
L 1403 1722 
L 1416 1722 
L 2369 3200 
L 3541 3200 
L 2394 1697 
L 3622 0 
z
" transform="scale(0.015625)"/>
      <path id="SegoeUI-Bold-29" d="M 856 -1019 
L 56 -1019 
Q 1013 200 1013 1716 
Q 1013 3219 56 4481 
L 863 4481 
Q 1875 3278 1875 1716 
Q 1875 106 856 -1019 
z
" transform="scale(0.015625)"/>
     </defs>
     <use xlink:href="#SegoeUI-Bold-43"/>
     <use xlink:href="#SegoeUI-Bold-28" x="62.402344"/>
     <use xlink:href="#SegoeUI-Bold-68" x="99.316406"/>
     <use xlink:href="#SegoeUI-Bold-2c" x="159.521484"/>
     <use xlink:href="#SegoeUI-Bold-20" x="186.621094"/>
     <use xlink:href="#SegoeUI-Bold-6b" x="214.208984"/>
     <use xlink:href="#SegoeUI-Bold-29" x="270.117188"/>
    </g>
   </g>
   <g id="text_21">
    <!-- r -->
    <g style="fill: #f59e0b" transform="translate(342.052608 254.143709) scale(0.14 -0.14)">
     <defs>
      <path id="SegoeUI-Bold-72" d="M 2503 2309 
Q 2325 2406 2088 2406 
Q 1766 2406 1584 2170 
Q 1403 1934 1403 1528 
L 1403 0 
L 416 0 
L 416 3200 
L 1403 3200 
L 1403 2606 
L 1416 2606 
Q 1650 3256 2259 3256 
Q 2416 3256 2503 3219 
L 2503 2309 
z
" transform="scale(0.015625)"/>
     </defs>
     <use xlink:href="#SegoeUI-Bold-72"/>
    </g>
   </g>
   <g id="text_22">
    <!-- P(x, y) -->
    <g style="fill: #e12885" transform="translate(430.887004 215.653181) scale(0.1 -0.1)">
     <defs>
      <path id="SegoeUI-50" d="M 1113 1694 
L 1113 0 
L 588 0 
L 588 4481 
L 1819 4481 
Q 2538 4481 2933 4131 
Q 3328 3781 3328 3144 
Q 3328 2506 2889 2100 
Q 2450 1694 1703 1694 
L 1113 1694 
z
M 1113 4006 
L 1113 2169 
L 1663 2169 
Q 2206 2169 2492 2417 
Q 2778 2666 2778 3119 
Q 2778 4006 1728 4006 
L 1113 4006 
z
" transform="scale(0.015625)"/>
      <path id="SegoeUI-28" d="M 1863 -1019 
L 1406 -1019 
Q 438 88 438 1709 
Q 438 3338 1406 4481 
L 1869 4481 
Q 888 3294 888 1716 
Q 888 150 1863 -1019 
z
" transform="scale(0.015625)"/>
      <path id="SegoeUI-2c" d="M 988 713 
L 488 -825 
L 122 -825 
L 488 713 
L 988 713 
z
" transform="scale(0.015625)"/>
      <path id="SegoeUI-20" transform="scale(0.015625)"/>
      <path id="SegoeUI-29" d="M 531 -1019 
L 75 -1019 
Q 1050 150 1050 1716 
Q 1050 3294 69 4481 
L 531 4481 
Q 1506 3338 1506 1709 
Q 1506 88 531 -1019 
z
" transform="scale(0.015625)"/>
     </defs>
     <use xlink:href="#SegoeUI-50"/>
     <use xlink:href="#SegoeUI-28" x="56.005859"/>
     <use xlink:href="#SegoeUI-78" x="86.181641"/>
     <use xlink:href="#SegoeUI-2c" x="132.080078"/>
     <use xlink:href="#SegoeUI-20" x="153.759766"/>
     <use xlink:href="#SegoeUI-79" x="181.152344"/>
     <use xlink:href="#SegoeUI-29" x="229.541016"/>
    </g>
   </g>
   <g id="text_23">
    <!-- d = 2r -->
    <g style="fill: #4b5563" transform="translate(459.093105 317.58877) scale(0.1 -0.1)">
     <defs>
      <path id="SegoeUI-64" d="M 3250 0 
L 2738 0 
L 2738 544 
L 2725 544 
Q 2369 -75 1625 -75 
Q 1022 -75 661 354 
Q 300 784 300 1525 
Q 300 2319 700 2797 
Q 1100 3275 1766 3275 
Q 2425 3275 2725 2756 
L 2738 2756 
L 2738 4738 
L 3250 4738 
L 3250 0 
z
M 2738 1447 
L 2738 1919 
Q 2738 2306 2481 2575 
Q 2225 2844 1831 2844 
Q 1363 2844 1094 2500 
Q 825 2156 825 1550 
Q 825 997 1083 676 
Q 1341 356 1775 356 
Q 2203 356 2470 665 
Q 2738 975 2738 1447 
z
" transform="scale(0.015625)"/>
      <path id="SegoeUI-3d" d="M 3663 2325 
L 725 2325 
L 725 2738 
L 3663 2738 
L 3663 2325 
z
M 3663 994 
L 725 994 
L 725 1406 
L 3663 1406 
L 3663 994 
z
" transform="scale(0.015625)"/>
      <path id="SegoeUI-72" d="M 2188 2681 
Q 2053 2784 1800 2784 
Q 1472 2784 1251 2475 
Q 1031 2166 1031 1631 
L 1031 0 
L 519 0 
L 519 3200 
L 1031 3200 
L 1031 2541 
L 1044 2541 
Q 1153 2878 1378 3067 
Q 1603 3256 1881 3256 
Q 2081 3256 2188 3213 
L 2188 2681 
z
" transform="scale(0.015625)"/>
     </defs>
     <use xlink:href="#SegoeUI-64"/>
     <use xlink:href="#SegoeUI-20" x="58.886719"/>
     <use xlink:href="#SegoeUI-3d" x="86.279297"/>
     <use xlink:href="#SegoeUI-20" x="154.6875"/>
     <use xlink:href="#SegoeUI-32" x="182.080078"/>
     <use xlink:href="#SegoeUI-72" x="235.986328"/>
    </g>
   </g>
   <g id="text_24">
    <!-- interior -->
    <g style="fill: #1f2937" transform="translate(353.036342 361.259202) scale(0.09 -0.09)">
     <defs>
      <path id="SegoeUI-69" d="M 781 4013 
Q 644 4013 547 4106 
Q 450 4200 450 4344 
Q 450 4488 547 4583 
Q 644 4678 781 4678 
Q 922 4678 1020 4583 
Q 1119 4488 1119 4344 
Q 1119 4206 1020 4109 
Q 922 4013 781 4013 
z
M 1031 0 
L 519 0 
L 519 3200 
L 1031 3200 
L 1031 0 
z
" transform="scale(0.015625)"/>
      <path id="SegoeUI-6e" d="M 3175 0 
L 2663 0 
L 2663 1825 
Q 2663 2844 1919 2844 
Q 1534 2844 1282 2555 
Q 1031 2266 1031 1825 
L 1031 0 
L 519 0 
L 519 3200 
L 1031 3200 
L 1031 2669 
L 1044 2669 
Q 1406 3275 2094 3275 
Q 2619 3275 2897 2936 
Q 3175 2597 3175 1956 
L 3175 0 
z
" transform="scale(0.015625)"/>
      <path id="SegoeUI-74" d="M 2003 31 
Q 1822 -69 1525 -69 
Q 684 -69 684 869 
L 684 2763 
L 134 2763 
L 134 3200 
L 684 3200 
L 684 3981 
L 1197 4147 
L 1197 3200 
L 2003 3200 
L 2003 2763 
L 1197 2763 
L 1197 959 
Q 1197 638 1306 500 
Q 1416 363 1669 363 
Q 1863 363 2003 469 
L 2003 31 
z
" transform="scale(0.015625)"/>
      <path id="SegoeUI-65" d="M 3091 1472 
L 831 1472 
Q 844 938 1119 647 
Q 1394 356 1875 356 
Q 2416 356 2869 713 
L 2869 231 
Q 2447 -75 1753 -75 
Q 1075 -75 687 361 
Q 300 797 300 1588 
Q 300 2334 723 2804 
Q 1147 3275 1775 3275 
Q 2403 3275 2747 2869 
Q 3091 2463 3091 1741 
L 3091 1472 
z
M 2566 1906 
Q 2563 2350 2352 2597 
Q 2141 2844 1766 2844 
Q 1403 2844 1150 2584 
Q 897 2325 838 1906 
L 2566 1906 
z
" transform="scale(0.015625)"/>
      <path id="SegoeUI-6f" d="M 1856 -75 
Q 1147 -75 723 373 
Q 300 822 300 1563 
Q 300 2369 740 2822 
Q 1181 3275 1931 3275 
Q 2647 3275 3048 2834 
Q 3450 2394 3450 1613 
Q 3450 847 3017 386 
Q 2584 -75 1856 -75 
z
M 1894 2844 
Q 1400 2844 1112 2508 
Q 825 2172 825 1581 
Q 825 1013 1115 684 
Q 1406 356 1894 356 
Q 2391 356 2658 678 
Q 2925 1000 2925 1594 
Q 2925 2194 2658 2519 
Q 2391 2844 1894 2844 
z
" transform="scale(0.015625)"/>
     </defs>
     <use xlink:href="#SegoeUI-69"/>
     <use xlink:href="#SegoeUI-6e" x="24.21875"/>
     <use xlink:href="#SegoeUI-74" x="80.810547"/>
     <use xlink:href="#SegoeUI-65" x="113.947266"/>
     <use xlink:href="#SegoeUI-72" x="166.242188"/>
     <use xlink:href="#SegoeUI-69" x="201.007812"/>
     <use xlink:href="#SegoeUI-6f" x="225.226562"/>
     <use xlink:href="#SegoeUI-72" x="283.820312"/>
    </g>
   </g>
   <g id="text_25">
    <!-- exterior -->
    <g style="fill: #dc2626" transform="translate(240.740946 86.759346) scale(0.09 -0.09)">
     <use xlink:href="#SegoeUI-65"/>
     <use xlink:href="#SegoeUI-78" x="52.294922"/>
     <use xlink:href="#SegoeUI-74" x="98.193359"/>
     <use xlink:href="#SegoeUI-65" x="131.330078"/>
     <use xlink:href="#SegoeUI-72" x="183.625"/>
     <use xlink:href="#SegoeUI-69" x="218.390625"/>
     <use xlink:href="#SegoeUI-6f" x="242.609375"/>
     <use xlink:href="#SegoeUI-72" x="301.203125"/>
    </g>
   </g>
   <g id="text_26">
    <g id="patch_6">
     <path d="M 134.684184 106.796612 
L 263.924184 106.796612 
Q 268.724184 106.796612 268.724184 101.996612 
L 268.724184 88.556612 
Q 268.724184 83.756612 263.924184 83.756612 
L 134.684184 83.756612 
Q 129.884184 83.756612 129.884184 88.556612 
L 129.884184 101.996612 
Q 129.884184 106.796612 134.684184 106.796612 
z
" style="fill: #ffffff; stroke: #39c5bb; stroke-linejoin: miter"/>
    </g>
    <!-- $(x-h)^2 + (y-k)^2 = r^2$ -->
    <g style="fill: #2c2f33" transform="translate(134.684184 99.236612) scale(0.12 -0.12)">
     <defs>
      <path id="DejaVuSans-28" d="M 1984 4856 
Q 1566 4138 1362 3434 
Q 1159 2731 1159 2009 
Q 1159 1288 1364 580 
Q 1569 -128 1984 -844 
L 1484 -844 
Q 1016 -109 783 600 
Q 550 1309 550 2009 
Q 550 2706 781 3412 
Q 1013 4119 1484 4856 
L 1984 4856 
z
" transform="scale(0.015625)"/>
      <path id="DejaVuSans-Oblique-78" d="M 3841 3500 
L 2234 1784 
L 3219 0 
L 2559 0 
L 1819 1388 
L 531 0 
L -166 0 
L 1556 1844 
L 641 3500 
L 1300 3500 
L 1972 2234 
L 3144 3500 
L 3841 3500 
z
" transform="scale(0.015625)"/>
      <path id="DejaVuSans-2212" d="M 678 2272 
L 4684 2272 
L 4684 1741 
L 678 1741 
L 678 2272 
z
" transform="scale(0.015625)"/>
      <path id="DejaVuSans-Oblique-68" d="M 3566 2113 
L 3156 0 
L 2578 0 
L 2988 2091 
Q 3016 2238 3031 2350 
Q 3047 2463 3047 2528 
Q 3047 2791 2881 2937 
Q 2716 3084 2419 3084 
Q 1956 3084 1617 2771 
Q 1278 2459 1178 1941 
L 800 0 
L 225 0 
L 1172 4863 
L 1747 4863 
L 1375 2950 
Q 1594 3244 1934 3414 
Q 2275 3584 2650 3584 
Q 3113 3584 3367 3334 
Q 3622 3084 3622 2631 
Q 3622 2519 3608 2391 
Q 3594 2263 3566 2113 
z
" transform="scale(0.015625)"/>
      <path id="DejaVuSans-29" d="M 513 4856 
L 1013 4856 
Q 1481 4119 1714 3412 
Q 1947 2706 1947 2009 
Q 1947 1309 1714 600 
Q 1481 -109 1013 -844 
L 513 -844 
Q 928 -128 1133 580 
Q 1338 1288 1338 2009 
Q 1338 2731 1133 3434 
Q 928 4138 513 4856 
z
" transform="scale(0.015625)"/>
      <path id="DejaVuSans-32" d="M 1228 531 
L 3431 531 
L 3431 0 
L 469 0 
L 469 531 
Q 828 903 1448 1529 
Q 2069 2156 2228 2338 
Q 2531 2678 2651 2914 
Q 2772 3150 2772 3378 
Q 2772 3750 2511 3984 
Q 2250 4219 1831 4219 
Q 1534 4219 1204 4116 
Q 875 4013 500 3803 
L 500 4441 
Q 881 4594 1212 4672 
Q 1544 4750 1819 4750 
Q 2544 4750 2975 4387 
Q 3406 4025 3406 3419 
Q 3406 3131 3298 2873 
Q 3191 2616 2906 2266 
Q 2828 2175 2409 1742 
Q 1991 1309 1228 531 
z
" transform="scale(0.015625)"/>
      <path id="DejaVuSans-2b" d="M 2944 4013 
L 2944 2272 
L 4684 2272 
L 4684 1741 
L 2944 1741 
L 2944 0 
L 2419 0 
L 2419 1741 
L 678 1741 
L 678 2272 
L 2419 2272 
L 2419 4013 
L 2944 4013 
z
" transform="scale(0.015625)"/>
      <path id="DejaVuSans-Oblique-79" d="M 1588 -325 
Q 1188 -997 936 -1164 
Q 684 -1331 294 -1331 
L -159 -1331 
L -63 -850 
L 269 -850 
Q 509 -850 678 -719 
Q 847 -588 1056 -206 
L 1234 128 
L 459 3500 
L 1069 3500 
L 1650 819 
L 3256 3500 
L 3859 3500 
L 1588 -325 
z
" transform="scale(0.015625)"/>
      <path id="DejaVuSans-Oblique-6b" d="M 1172 4863 
L 1747 4863 
L 1197 2028 
L 3169 3500 
L 3916 3500 
L 1716 1825 
L 3322 0 
L 2625 0 
L 1131 1709 
L 800 0 
L 225 0 
L 1172 4863 
z
" transform="scale(0.015625)"/>
      <path id="DejaVuSans-3d" d="M 678 2906 
L 4684 2906 
L 4684 2381 
L 678 2381 
L 678 2906 
z
M 678 1631 
L 4684 1631 
L 4684 1100 
L 678 1100 
L 678 1631 
z
" transform="scale(0.015625)"/>
      <path id="DejaVuSans-Oblique-72" d="M 2853 2969 
Q 2766 3016 2653 3041 
Q 2541 3066 2413 3066 
Q 1953 3066 1609 2717 
Q 1266 2369 1153 1784 
L 800 0 
L 225 0 
L 909 3500 
L 1484 3500 
L 1375 2956 
Q 1603 3259 1920 3421 
Q 2238 3584 2597 3584 
Q 2691 3584 2781 3573 
Q 2872 3563 2963 3538 
L 2853 2969 
z
" transform="scale(0.015625)"/>
     </defs>
     <use xlink:href="#DejaVuSans-28" transform="translate(0 0.765625)"/>
     <use xlink:href="#DejaVuSans-Oblique-78" transform="translate(39.013672 0.765625)"/>
     <use xlink:href="#DejaVuSans-2212" transform="translate(117.675781 0.765625)"/>
     <use xlink:href="#DejaVuSans-Oblique-68" transform="translate(220.947266 0.765625)"/>
     <use xlink:href="#DejaVuSans-29" transform="translate(284.326172 0.765625)"/>
     <use xlink:href="#DejaVuSans-32" transform="translate(324.296875 39.046875) scale(0.7)"/>
     <use xlink:href="#DejaVuSans-2b" transform="translate(391.049805 0.765625)"/>
     <use xlink:href="#DejaVuSans-28" transform="translate(494.321289 0.765625)"/>
     <use xlink:href="#DejaVuSans-Oblique-79" transform="translate(533.334961 0.765625)"/>
     <use xlink:href="#DejaVuSans-2212" transform="translate(611.99707 0.765625)"/>
     <use xlink:href="#DejaVuSans-Oblique-6b" transform="translate(715.268555 0.765625)"/>
     <use xlink:href="#DejaVuSans-29" transform="translate(773.178711 0.765625)"/>
     <use xlink:href="#DejaVuSans-32" transform="translate(813.149414 39.046875) scale(0.7)"/>
     <use xlink:href="#DejaVuSans-3d" transform="translate(879.902344 0.765625)"/>
     <use xlink:href="#DejaVuSans-Oblique-72" transform="translate(983.173828 0.765625)"/>
     <use xlink:href="#DejaVuSans-32" transform="translate(1028.937005 39.046875) scale(0.7)"/>
    </g>
   </g>
   <g id="text_27">
    <!-- Circunferencia con Centro C(h, k) y Radio r -->
    <g style="fill: #2c2f33" transform="translate(180.711027 62.043447) scale(0.11 -0.11)">
     <defs>
      <path id="SegoeUI-Bold-69" d="M 916 3706 
Q 666 3706 506 3854 
Q 347 4003 347 4219 
Q 347 4441 506 4581 
Q 666 4722 916 4722 
Q 1169 4722 1326 4581 
Q 1484 4441 1484 4219 
Q 1484 3994 1326 3850 
Q 1169 3706 916 3706 
z
M 1403 0 
L 416 0 
L 416 3200 
L 1403 3200 
L 1403 0 
z
" transform="scale(0.015625)"/>
      <path id="SegoeUI-Bold-63" d="M 2841 116 
Q 2506 -78 1875 -78 
Q 1138 -78 681 369 
Q 225 816 225 1522 
Q 225 2338 714 2808 
Q 1203 3278 2022 3278 
Q 2588 3278 2841 3128 
L 2841 2291 
Q 2531 2522 2150 2522 
Q 1725 2522 1476 2273 
Q 1228 2025 1228 1588 
Q 1228 1163 1465 920 
Q 1703 678 2119 678 
Q 2488 678 2841 909 
L 2841 116 
z
" transform="scale(0.015625)"/>
      <path id="SegoeUI-Bold-75" d="M 3456 0 
L 2472 0 
L 2472 488 
L 2456 488 
Q 2091 -78 1478 -78 
Q 366 -78 366 1269 
L 366 3200 
L 1350 3200 
L 1350 1356 
Q 1350 678 1888 678 
Q 2153 678 2312 864 
Q 2472 1050 2472 1369 
L 2472 3200 
L 3456 3200 
L 3456 0 
z
" transform="scale(0.015625)"/>
      <path id="SegoeUI-Bold-6e" d="M 3506 0 
L 2522 0 
L 2522 1778 
Q 2522 2522 1991 2522 
Q 1734 2522 1568 2325 
Q 1403 2128 1403 1825 
L 1403 0 
L 416 0 
L 416 3200 
L 1403 3200 
L 1403 2694 
L 1416 2694 
Q 1769 3278 2444 3278 
Q 3506 3278 3506 1959 
L 3506 0 
z
" transform="scale(0.015625)"/>
      <path id="SegoeUI-Bold-66" d="M 2503 3981 
Q 2313 4056 2138 4056 
Q 1663 4056 1663 3541 
L 1663 3200 
L 2394 3200 
L 2394 2472 
L 1663 2472 
L 1663 0 
L 678 0 
L 678 2472 
L 141 2472 
L 141 3200 
L 678 3200 
L 678 3597 
Q 678 4144 1034 4478 
Q 1391 4813 2003 4813 
Q 2303 4813 2503 4750 
L 2503 3981 
z
" transform="scale(0.015625)"/>
      <path id="SegoeUI-Bold-65" d="M 3291 1319 
L 1203 1319 
Q 1253 622 2081 622 
Q 2609 622 3009 872 
L 3009 159 
Q 2566 -78 1856 -78 
Q 1081 -78 653 351 
Q 225 781 225 1550 
Q 225 2347 687 2812 
Q 1150 3278 1825 3278 
Q 2525 3278 2908 2862 
Q 3291 2447 3291 1734 
L 3291 1319 
z
M 2375 1925 
Q 2375 2613 1819 2613 
Q 1581 2613 1407 2416 
Q 1234 2219 1197 1925 
L 2375 1925 
z
" transform="scale(0.015625)"/>
      <path id="SegoeUI-Bold-61" d="M 3078 0 
L 2144 0 
L 2144 459 
L 2131 459 
Q 1809 -78 1178 -78 
Q 713 -78 445 186 
Q 178 450 178 891 
Q 178 1822 1281 1966 
L 2150 2081 
Q 2150 2606 1581 2606 
Q 1009 2606 494 2266 
L 494 3009 
Q 700 3116 1058 3197 
Q 1416 3278 1709 3278 
Q 3078 3278 3078 1913 
L 3078 0 
z
M 2150 1300 
L 2150 1516 
L 1569 1441 
Q 1088 1378 1088 1006 
Q 1088 838 1205 730 
Q 1322 622 1522 622 
Q 1800 622 1975 814 
Q 2150 1006 2150 1300 
z
" transform="scale(0.015625)"/>
      <path id="SegoeUI-Bold-6f" d="M 1941 -78 
Q 1141 -78 683 370 
Q 225 819 225 1588 
Q 225 2381 700 2829 
Q 1175 3278 1984 3278 
Q 2781 3278 3234 2829 
Q 3688 2381 3688 1644 
Q 3688 847 3220 384 
Q 2753 -78 1941 -78 
z
M 1966 2522 
Q 1616 2522 1422 2281 
Q 1228 2041 1228 1600 
Q 1228 678 1972 678 
Q 2681 678 2681 1625 
Q 2681 2522 1966 2522 
z
" transform="scale(0.015625)"/>
      <path id="SegoeUI-Bold-74" d="M 2350 38 
Q 2131 -78 1691 -78 
Q 647 -78 647 1006 
L 647 2472 
L 128 2472 
L 128 3200 
L 647 3200 
L 647 3891 
L 1631 4172 
L 1631 3200 
L 2350 3200 
L 2350 2472 
L 1631 2472 
L 1631 1178 
Q 1631 678 2028 678 
Q 2184 678 2350 769 
L 2350 38 
z
" transform="scale(0.015625)"/>
      <path id="SegoeUI-Bold-79" d="M 3463 3200 
L 2163 -256 
Q 1694 -1503 750 -1503 
Q 391 -1503 159 -1422 
L 159 -634 
Q 356 -750 588 -750 
Q 969 -750 1119 -391 
L 1288 6 
L -13 3200 
L 1081 3200 
L 1678 1253 
Q 1734 1072 1766 825 
L 1778 825 
Q 1806 1006 1881 1247 
L 2484 3200 
L 3463 3200 
z
" transform="scale(0.015625)"/>
      <path id="SegoeUI-Bold-52" d="M 4272 0 
L 3113 0 
L 2416 1153 
Q 2338 1284 2266 1387 
Q 2194 1491 2120 1564 
Q 2047 1638 1967 1677 
Q 1888 1716 1794 1716 
L 1522 1716 
L 1522 0 
L 513 0 
L 513 4481 
L 2113 4481 
Q 3744 4481 3744 3263 
Q 3744 3028 3672 2829 
Q 3600 2631 3469 2472 
Q 3338 2313 3152 2197 
Q 2966 2081 2738 2016 
L 2738 2003 
Q 2838 1972 2931 1901 
Q 3025 1831 3112 1737 
Q 3200 1644 3279 1536 
Q 3359 1428 3425 1325 
L 4272 0 
z
M 1522 3725 
L 1522 2478 
L 1959 2478 
Q 2284 2478 2481 2666 
Q 2681 2856 2681 3138 
Q 2681 3725 1978 3725 
L 1522 3725 
z
" transform="scale(0.015625)"/>
      <path id="SegoeUI-Bold-64" d="M 3547 0 
L 2559 0 
L 2559 441 
L 2547 441 
Q 2209 -78 1556 -78 
Q 956 -78 590 345 
Q 225 769 225 1528 
Q 225 2322 628 2800 
Q 1031 3278 1684 3278 
Q 2303 3278 2547 2834 
L 2559 2834 
L 2559 4738 
L 3547 4738 
L 3547 0 
z
M 2578 1556 
L 2578 1797 
Q 2578 2109 2397 2315 
Q 2216 2522 1925 2522 
Q 1597 2522 1412 2264 
Q 1228 2006 1228 1556 
Q 1228 1134 1406 906 
Q 1584 678 1900 678 
Q 2200 678 2389 918 
Q 2578 1159 2578 1556 
z
" transform="scale(0.015625)"/>
     </defs>
     <use xlink:href="#SegoeUI-Bold-43"/>
     <use xlink:href="#SegoeUI-Bold-69" x="62.402344"/>
     <use xlink:href="#SegoeUI-Bold-72" x="90.820312"/>
     <use xlink:href="#SegoeUI-Bold-63" x="130.240234"/>
     <use xlink:href="#SegoeUI-Bold-75" x="178.238281"/>
     <use xlink:href="#SegoeUI-Bold-6e" x="238.736328"/>
     <use xlink:href="#SegoeUI-Bold-66" x="299.234375"/>
     <use xlink:href="#SegoeUI-Bold-65" x="337.564453"/>
     <use xlink:href="#SegoeUI-Bold-72" x="391.666016"/>
     <use xlink:href="#SegoeUI-Bold-65" x="431.085938"/>
     <use xlink:href="#SegoeUI-Bold-6e" x="485.1875"/>
     <use xlink:href="#SegoeUI-Bold-63" x="545.685547"/>
     <use xlink:href="#SegoeUI-Bold-69" x="593.683594"/>
     <use xlink:href="#SegoeUI-Bold-61" x="622.101562"/>
     <use xlink:href="#SegoeUI-Bold-20" x="675.910156"/>
     <use xlink:href="#SegoeUI-Bold-63" x="703.498047"/>
     <use xlink:href="#SegoeUI-Bold-6f" x="751.496094"/>
     <use xlink:href="#SegoeUI-Bold-6e" x="812.628906"/>
     <use xlink:href="#SegoeUI-Bold-20" x="873.126953"/>
     <use xlink:href="#SegoeUI-Bold-43" x="900.714844"/>
     <use xlink:href="#SegoeUI-Bold-65" x="963.117188"/>
     <use xlink:href="#SegoeUI-Bold-6e" x="1017.21875"/>
     <use xlink:href="#SegoeUI-Bold-74" x="1077.716797"/>
     <use xlink:href="#SegoeUI-Bold-72" x="1116.632812"/>
     <use xlink:href="#SegoeUI-Bold-6f" x="1156.052734"/>
     <use xlink:href="#SegoeUI-Bold-20" x="1217.185547"/>
     <use xlink:href="#SegoeUI-Bold-43" x="1244.773438"/>
     <use xlink:href="#SegoeUI-Bold-28" x="1307.175781"/>
     <use xlink:href="#SegoeUI-Bold-68" x="1344.089844"/>
     <use xlink:href="#SegoeUI-Bold-2c" x="1404.294922"/>
     <use xlink:href="#SegoeUI-Bold-20" x="1431.394531"/>
     <use xlink:href="#SegoeUI-Bold-6b" x="1458.982422"/>
     <use xlink:href="#SegoeUI-Bold-29" x="1514.890625"/>
     <use xlink:href="#SegoeUI-Bold-20" x="1551.804688"/>
     <use xlink:href="#SegoeUI-Bold-79" x="1579.392578"/>
     <use xlink:href="#SegoeUI-Bold-20" x="1633.201172"/>
     <use xlink:href="#SegoeUI-Bold-52" x="1660.789062"/>
     <use xlink:href="#SegoeUI-Bold-61" x="1726.072266"/>
     <use xlink:href="#SegoeUI-Bold-64" x="1779.880859"/>
     <use xlink:href="#SegoeUI-Bold-69" x="1841.794922"/>
     <use xlink:href="#SegoeUI-Bold-6f" x="1870.212891"/>
     <use xlink:href="#SegoeUI-Bold-20" x="1931.345703"/>
     <use xlink:href="#SegoeUI-Bold-72" x="1958.933594"/>
    </g>
   </g>
   <g id="line2d_42">
    <defs>
     <path id="m269e7c7553" d="M 0 5 
C 1.326016 5 2.597899 4.473168 3.535534 3.535534 
C 4.473168 2.597899 5 1.326016 5 0 
C 5 -1.326016 4.473168 -2.597899 3.535534 -3.535534 
C 2.597899 -4.473168 1.326016 -5 0 -5 
C -1.326016 -5 -2.597899 -4.473168 -3.535534 -3.535534 
C -4.473168 -2.597899 -5 -1.326016 -5 0 
C -5 1.326016 -4.473168 2.597899 -3.535534 3.535534 
C -2.597899 4.473168 -1.326016 5 0 5 
z
" style="stroke: #39c5bb"/>
    </defs>
    <g clip-path="url(#p9f17c66e7b)">
     <use xlink:href="#m269e7c7553" x="290.650011" y="317.58877" style="fill: #39c5bb; stroke: #39c5bb"/>
    </g>
   </g>
   <g id="line2d_43">
    <defs>
     <path id="mf6382ab38e" d="M 0 4 
C 1.060812 4 2.078319 3.578535 2.828427 2.828427 
C 3.578535 2.078319 4 1.060812 4 0 
C 4 -1.060812 3.578535 -2.078319 2.828427 -2.828427 
C 2.078319 -3.578535 1.060812 -4 0 -4 
C -1.060812 -4 -2.078319 -3.578535 -2.828427 -2.828427 
C -3.578535 -2.078319 -4 -1.060812 -4 0 
C -4 1.060812 -3.578535 2.078319 -2.828427 2.828427 
C -2.078319 3.578535 -1.060812 4 0 4 
z
" style="stroke: #e12885"/>
    </defs>
    <g clip-path="url(#p9f17c66e7b)">
     <use xlink:href="#mf6382ab38e" x="418.409737" y="228.130447" style="fill: #e12885; stroke: #e12885"/>
    </g>
   </g>
  </g>
  <g id="axes_2">
   <g id="patch_7">
    <path d="M 605.767913 180.900961 
L 996.722254 180.900961 
L 996.722254 43.297295 
L 605.767913 43.297295 
z
" clip-path="url(#pe8bcc9b2e5)" style="fill: #fef3c7; stroke: #f59e0b; stroke-width: 2; stroke-linejoin: miter"/>
   </g>
   <g id="patch_8">
    <path d="M 605.767913 329.512921 
L 996.722254 329.512921 
L 996.722254 197.413401 
L 605.767913 197.413401 
z
" clip-path="url(#pe8bcc9b2e5)" style="fill: #eff6ff; stroke: #39c5bb; stroke-width: 1.5; stroke-linejoin: miter"/>
   </g>
   <g id="patch_9">
    <path d="M 605.767913 494.63732 
L 996.722254 494.63732 
L 996.722254 346.025361 
L 605.767913 346.025361 
z
" clip-path="url(#pe8bcc9b2e5)" style="fill: #f0fdf4; stroke: #1f2937; stroke-width: 1.5; stroke-linejoin: miter"/>
   </g>
   <g id="text_28">
    <!-- ECUACIÓN CANÓNICA -->
    <g style="fill: #f59e0b" transform="translate(742.841959 70.818028) scale(0.11 -0.11)">
     <defs>
      <path id="SegoeUI-Bold-45" d="M 3200 0 
L 513 0 
L 513 4481 
L 3097 4481 
L 3097 3659 
L 1522 3659 
L 1522 2663 
L 2988 2663 
L 2988 1844 
L 1522 1844 
L 1522 819 
L 3200 819 
L 3200 0 
z
" transform="scale(0.015625)"/>
      <path id="SegoeUI-Bold-55" d="M 4166 1941 
Q 4166 -78 2284 -78 
Q 459 -78 459 1894 
L 459 4481 
L 1472 4481 
L 1472 1881 
Q 1472 794 2322 794 
Q 3156 794 3156 1844 
L 3156 4481 
L 4166 4481 
L 4166 1941 
z
" transform="scale(0.015625)"/>
      <path id="SegoeUI-Bold-41" d="M 4453 0 
L 3353 0 
L 3034 997 
L 1441 997 
L 1125 0 
L 31 0 
L 1663 4481 
L 2859 4481 
L 4453 0 
z
M 2803 1772 
L 2322 3278 
Q 2269 3447 2247 3681 
L 2222 3681 
Q 2206 3484 2144 3291 
L 1656 1772 
L 2803 1772 
z
" transform="scale(0.015625)"/>
      <path id="SegoeUI-Bold-49" d="M 1522 0 
L 513 0 
L 513 4481 
L 1522 4481 
L 1522 0 
z
" transform="scale(0.015625)"/>
      <path id="SegoeUI-Bold-d3" d="M 2406 -78 
Q 1444 -78 837 548 
Q 231 1175 231 2181 
Q 231 3244 847 3900 
Q 1463 4556 2478 4556 
Q 3438 4556 4030 3928 
Q 4622 3300 4622 2272 
Q 4622 1216 4008 569 
Q 3394 -78 2406 -78 
z
M 2450 3688 
Q 1919 3688 1606 3289 
Q 1294 2891 1294 2234 
Q 1294 1569 1606 1181 
Q 1919 794 2425 794 
Q 2947 794 3253 1170 
Q 3559 1547 3559 2216 
Q 3559 2913 3262 3300 
Q 2966 3688 2450 3688 
z
M 3471 5932 
L 2492 4922 
L 1780 4922 
L 2592 5932 
L 3471 5932 
z
" transform="scale(0.015625)"/>
      <path id="SegoeUI-Bold-4e" d="M 4544 0 
L 3525 0 
L 1678 2816 
Q 1516 3063 1453 3188 
L 1441 3188 
Q 1466 2950 1466 2463 
L 1466 0 
L 513 0 
L 513 4481 
L 1600 4481 
L 3378 1753 
Q 3500 1569 3603 1388 
L 3616 1388 
Q 3591 1544 3591 2003 
L 3591 4481 
L 4544 4481 
L 4544 0 
z
" transform="scale(0.015625)"/>
     </defs>
     <use xlink:href="#SegoeUI-Bold-45"/>
     <use xlink:href="#SegoeUI-Bold-43" x="53.222656"/>
     <use xlink:href="#SegoeUI-Bold-55" x="115.625"/>
     <use xlink:href="#SegoeUI-Bold-41" x="185.689453"/>
     <use xlink:href="#SegoeUI-Bold-43" x="254.501953"/>
     <use xlink:href="#SegoeUI-Bold-49" x="316.904297"/>
     <use xlink:href="#SegoeUI-Bold-d3" x="348.59375"/>
     <use xlink:href="#SegoeUI-Bold-4e" x="424.375"/>
     <use xlink:href="#SegoeUI-Bold-20" x="503.378906"/>
     <use xlink:href="#SegoeUI-Bold-43" x="530.966797"/>
     <use xlink:href="#SegoeUI-Bold-41" x="593.369141"/>
     <use xlink:href="#SegoeUI-Bold-4e" x="663.681641"/>
     <use xlink:href="#SegoeUI-Bold-d3" x="742.685547"/>
     <use xlink:href="#SegoeUI-Bold-4e" x="818.466797"/>
     <use xlink:href="#SegoeUI-Bold-49" x="897.470703"/>
     <use xlink:href="#SegoeUI-Bold-43" x="929.160156"/>
     <use xlink:href="#SegoeUI-Bold-41" x="991.5625"/>
    </g>
   </g>
   <g id="text_29">
    <!-- $(x - h)^2 + (y - k)^2 = r^2$ -->
    <g style="fill: #2c2f33" transform="translate(731.240084 125.859495) scale(0.13 -0.13)">
     <use xlink:href="#DejaVuSans-28" transform="translate(0 0.765625)"/>
     <use xlink:href="#DejaVuSans-Oblique-78" transform="translate(39.013672 0.765625)"/>
     <use xlink:href="#DejaVuSans-2212" transform="translate(117.675781 0.765625)"/>
     <use xlink:href="#DejaVuSans-Oblique-68" transform="translate(220.947266 0.765625)"/>
     <use xlink:href="#DejaVuSans-29" transform="translate(284.326172 0.765625)"/>
     <use xlink:href="#DejaVuSans-32" transform="translate(324.296875 39.046875) scale(0.7)"/>
     <use xlink:href="#DejaVuSans-2b" transform="translate(391.049805 0.765625)"/>
     <use xlink:href="#DejaVuSans-28" transform="translate(494.321289 0.765625)"/>
     <use xlink:href="#DejaVuSans-Oblique-79" transform="translate(533.334961 0.765625)"/>
     <use xlink:href="#DejaVuSans-2212" transform="translate(611.99707 0.765625)"/>
     <use xlink:href="#DejaVuSans-Oblique-6b" transform="translate(715.268555 0.765625)"/>
     <use xlink:href="#DejaVuSans-29" transform="translate(773.178711 0.765625)"/>
     <use xlink:href="#DejaVuSans-32" transform="translate(813.149414 39.046875) scale(0.7)"/>
     <use xlink:href="#DejaVuSans-3d" transform="translate(879.902344 0.765625)"/>
     <use xlink:href="#DejaVuSans-Oblique-72" transform="translate(983.173828 0.765625)"/>
     <use xlink:href="#DejaVuSans-32" transform="translate(1028.937005 39.046875) scale(0.7)"/>
    </g>
   </g>
   <g id="text_30">
    <!-- Centro (h, k) y radio r -->
    <g style="fill: #6b7280" transform="translate(759.28399 169.892668) scale(0.09 -0.09)">
     <defs>
      <path id="SegoeUI-43" d="M 3638 188 
Q 3141 -75 2400 -75 
Q 1444 -75 869 540 
Q 294 1156 294 2156 
Q 294 3231 941 3893 
Q 1588 4556 2581 4556 
Q 3219 4556 3638 4372 
L 3638 3813 
Q 3156 4081 2575 4081 
Q 1803 4081 1323 3565 
Q 844 3050 844 2188 
Q 844 1369 1292 883 
Q 1741 397 2469 397 
Q 3144 397 3638 697 
L 3638 188 
z
" transform="scale(0.015625)"/>
      <path id="SegoeUI-68" d="M 3175 0 
L 2663 0 
L 2663 1844 
Q 2663 2844 1919 2844 
Q 1544 2844 1287 2555 
Q 1031 2266 1031 1813 
L 1031 0 
L 519 0 
L 519 4738 
L 1031 4738 
L 1031 2669 
L 1044 2669 
Q 1413 3275 2094 3275 
Q 3175 3275 3175 1972 
L 3175 0 
z
" transform="scale(0.015625)"/>
      <path id="SegoeUI-6b" d="M 3175 0 
L 2456 0 
L 1044 1538 
L 1031 1538 
L 1031 0 
L 519 0 
L 519 4738 
L 1031 4738 
L 1031 1734 
L 1044 1734 
L 2388 3200 
L 3059 3200 
L 1575 1656 
L 3175 0 
z
" transform="scale(0.015625)"/>
      <path id="SegoeUI-61" d="M 2809 0 
L 2297 0 
L 2297 500 
L 2284 500 
Q 1950 -75 1300 -75 
Q 822 -75 551 178 
Q 281 431 281 850 
Q 281 1747 1338 1894 
L 2297 2028 
Q 2297 2844 1638 2844 
Q 1059 2844 594 2450 
L 594 2975 
Q 1066 3275 1681 3275 
Q 2809 3275 2809 2081 
L 2809 0 
z
M 2297 1619 
L 1525 1513 
Q 1169 1463 987 1336 
Q 806 1209 806 888 
Q 806 653 973 504 
Q 1141 356 1419 356 
Q 1800 356 2048 623 
Q 2297 891 2297 1300 
L 2297 1619 
z
" transform="scale(0.015625)"/>
     </defs>
     <use xlink:href="#SegoeUI-43"/>
     <use xlink:href="#SegoeUI-65" x="61.914062"/>
     <use xlink:href="#SegoeUI-6e" x="114.208984"/>
     <use xlink:href="#SegoeUI-74" x="170.800781"/>
     <use xlink:href="#SegoeUI-72" x="204.6875"/>
     <use xlink:href="#SegoeUI-6f" x="238.078125"/>
     <use xlink:href="#SegoeUI-20" x="296.671875"/>
     <use xlink:href="#SegoeUI-28" x="324.064453"/>
     <use xlink:href="#SegoeUI-68" x="354.240234"/>
     <use xlink:href="#SegoeUI-2c" x="410.832031"/>
     <use xlink:href="#SegoeUI-20" x="432.511719"/>
     <use xlink:href="#SegoeUI-6b" x="459.904297"/>
     <use xlink:href="#SegoeUI-29" x="509.611328"/>
     <use xlink:href="#SegoeUI-20" x="539.787109"/>
     <use xlink:href="#SegoeUI-79" x="567.179688"/>
     <use xlink:href="#SegoeUI-20" x="615.568359"/>
     <use xlink:href="#SegoeUI-72" x="642.960938"/>
     <use xlink:href="#SegoeUI-61" x="677.726562"/>
     <use xlink:href="#SegoeUI-64" x="728.605469"/>
     <use xlink:href="#SegoeUI-69" x="787.492188"/>
     <use xlink:href="#SegoeUI-6f" x="811.710938"/>
     <use xlink:href="#SegoeUI-20" x="870.304688"/>
     <use xlink:href="#SegoeUI-72" x="897.697266"/>
    </g>
   </g>
   <g id="text_31">
    <!-- ECUACIÓN GENERAL -->
    <g style="fill: #39c5bb" transform="translate(747.663052 224.934134) scale(0.11 -0.11)">
     <defs>
      <path id="SegoeUI-Bold-47" d="M 4191 300 
Q 3534 -78 2559 -78 
Q 1478 -78 854 520 
Q 231 1119 231 2169 
Q 231 3225 912 3890 
Q 1594 4556 2725 4556 
Q 3438 4556 3981 4359 
L 3981 3413 
Q 3463 3713 2713 3713 
Q 2084 3713 1689 3305 
Q 1294 2897 1294 2216 
Q 1294 1525 1648 1147 
Q 2003 769 2606 769 
Q 2969 769 3181 872 
L 3181 1747 
L 2284 1747 
L 2284 2553 
L 4191 2553 
L 4191 300 
z
" transform="scale(0.015625)"/>
      <path id="SegoeUI-Bold-4c" d="M 3181 0 
L 513 0 
L 513 4481 
L 1522 4481 
L 1522 819 
L 3181 819 
L 3181 0 
z
" transform="scale(0.015625)"/>
     </defs>
     <use xlink:href="#SegoeUI-Bold-45"/>
     <use xlink:href="#SegoeUI-Bold-43" x="53.222656"/>
     <use xlink:href="#SegoeUI-Bold-55" x="115.625"/>
     <use xlink:href="#SegoeUI-Bold-41" x="185.689453"/>
     <use xlink:href="#SegoeUI-Bold-43" x="254.501953"/>
     <use xlink:href="#SegoeUI-Bold-49" x="316.904297"/>
     <use xlink:href="#SegoeUI-Bold-d3" x="348.59375"/>
     <use xlink:href="#SegoeUI-Bold-4e" x="424.375"/>
     <use xlink:href="#SegoeUI-Bold-20" x="503.378906"/>
     <use xlink:href="#SegoeUI-Bold-47" x="530.966797"/>
     <use xlink:href="#SegoeUI-Bold-45" x="602.060547"/>
     <use xlink:href="#SegoeUI-Bold-4e" x="655.283203"/>
     <use xlink:href="#SegoeUI-Bold-45" x="734.287109"/>
     <use xlink:href="#SegoeUI-Bold-52" x="787.509766"/>
     <use xlink:href="#SegoeUI-Bold-41" x="852.792969"/>
     <use xlink:href="#SegoeUI-Bold-4c" x="923.105469"/>
    </g>
   </g>
   <g id="text_32">
    <!-- $x^2 + y^2 + Dx + Ey + F = 0$ -->
    <g style="fill: #2c2f33" transform="translate(728.285084 274.471454) scale(0.12 -0.12)">
     <defs>
      <path id="DejaVuSans-Oblique-44" d="M 1081 4666 
L 2438 4666 
Q 3519 4666 4070 4208 
Q 4622 3750 4622 2847 
Q 4622 2250 4412 1698 
Q 4203 1147 3834 769 
Q 3463 381 2891 190 
Q 2319 0 1538 0 
L 172 0 
L 1081 4666 
z
M 1613 4147 
L 909 519 
L 1734 519 
Q 2794 519 3375 1128 
Q 3956 1738 3956 2847 
Q 3956 3519 3581 3833 
Q 3206 4147 2406 4147 
L 1613 4147 
z
" transform="scale(0.015625)"/>
      <path id="DejaVuSans-Oblique-45" d="M 1081 4666 
L 4031 4666 
L 3928 4134 
L 1606 4134 
L 1338 2753 
L 3566 2753 
L 3463 2222 
L 1234 2222 
L 909 531 
L 3284 531 
L 3181 0 
L 172 0 
L 1081 4666 
z
" transform="scale(0.015625)"/>
      <path id="DejaVuSans-Oblique-46" d="M 1081 4666 
L 3756 4666 
L 3653 4134 
L 1606 4134 
L 1338 2759 
L 3188 2759 
L 3084 2228 
L 1234 2228 
L 800 0 
L 172 0 
L 1081 4666 
z
" transform="scale(0.015625)"/>
      <path id="DejaVuSans-30" d="M 2034 4250 
Q 1547 4250 1301 3770 
Q 1056 3291 1056 2328 
Q 1056 1369 1301 889 
Q 1547 409 2034 409 
Q 2525 409 2770 889 
Q 3016 1369 3016 2328 
Q 3016 3291 2770 3770 
Q 2525 4250 2034 4250 
z
M 2034 4750 
Q 2819 4750 3233 4129 
Q 3647 3509 3647 2328 
Q 3647 1150 3233 529 
Q 2819 -91 2034 -91 
Q 1250 -91 836 529 
Q 422 1150 422 2328 
Q 422 3509 836 4129 
Q 1250 4750 2034 4750 
z
" transform="scale(0.015625)"/>
     </defs>
     <use xlink:href="#DejaVuSans-Oblique-78" transform="translate(0 0.765625)"/>
     <use xlink:href="#DejaVuSans-32" transform="translate(63.645833 39.046875) scale(0.7)"/>
     <use xlink:href="#DejaVuSans-2b" transform="translate(130.398763 0.765625)"/>
     <use xlink:href="#DejaVuSans-Oblique-79" transform="translate(233.670247 0.765625)"/>
     <use xlink:href="#DejaVuSans-32" transform="translate(297.316081 39.046875) scale(0.7)"/>
     <use xlink:href="#DejaVuSans-2b" transform="translate(364.06901 0.765625)"/>
     <use xlink:href="#DejaVuSans-Oblique-44" transform="translate(467.340495 0.765625)"/>
     <use xlink:href="#DejaVuSans-Oblique-78" transform="translate(544.342448 0.765625)"/>
     <use xlink:href="#DejaVuSans-2b" transform="translate(623.004557 0.765625)"/>
     <use xlink:href="#DejaVuSans-Oblique-45" transform="translate(726.276042 0.765625)"/>
     <use xlink:href="#DejaVuSans-Oblique-79" transform="translate(789.459635 0.765625)"/>
     <use xlink:href="#DejaVuSans-2b" transform="translate(868.121745 0.765625)"/>
     <use xlink:href="#DejaVuSans-Oblique-46" transform="translate(971.393229 0.765625)"/>
     <use xlink:href="#DejaVuSans-3d" transform="translate(1048.395182 0.765625)"/>
     <use xlink:href="#DejaVuSans-30" transform="translate(1151.666667 0.765625)"/>
    </g>
   </g>
   <g id="text_33">
    <!-- Centro: $(-D/2, -E/2)$  •  Radio: $r = \sqrt{\frac{D^2+E^2}{4}-F}$ -->
    <g style="fill: #6b7280" transform="translate(701.165084 318.504627) scale(0.09 -0.09)">
     <defs>
      <path id="SegoeUI-3a" d="M 697 2575 
Q 553 2575 451 2678 
Q 350 2781 350 2925 
Q 350 3069 451 3169 
Q 553 3269 697 3269 
Q 844 3269 947 3169 
Q 1050 3069 1050 2925 
Q 1050 2781 947 2678 
Q 844 2575 697 2575 
z
M 697 -69 
Q 553 -69 451 34 
Q 350 138 350 281 
Q 350 425 451 529 
Q 553 634 697 634 
Q 844 634 947 529 
Q 1050 425 1050 281 
Q 1050 138 947 34 
Q 844 -69 697 -69 
z
" transform="scale(0.015625)"/>
      <path id="DejaVuSans-2f" d="M 1625 4666 
L 2156 4666 
L 531 -594 
L 0 -594 
L 1625 4666 
z
" transform="scale(0.015625)"/>
      <path id="DejaVuSans-2c" d="M 750 794 
L 1409 794 
L 1409 256 
L 897 -744 
L 494 -744 
L 750 256 
L 750 794 
z
" transform="scale(0.015625)"/>
      <path id="DejaVuSansDisplay-2022" d="M 959 2381 
Q 959 2769 1229 3036 
Q 1500 3303 1894 3303 
Q 2281 3303 2548 3036 
Q 2816 2769 2816 2381 
Q 2816 1991 2547 1722 
Q 2278 1453 1888 1453 
Q 1497 1453 1228 1722 
Q 959 1991 959 2381 
z
" transform="scale(0.015625)"/>
      <path id="SegoeUI-52" d="M 3800 0 
L 3175 0 
L 2425 1256 
Q 2322 1431 2225 1554 
Q 2128 1678 2026 1756 
Q 1925 1834 1808 1870 
Q 1691 1906 1544 1906 
L 1113 1906 
L 1113 0 
L 588 0 
L 588 4481 
L 1925 4481 
Q 2219 4481 2467 4407 
Q 2716 4334 2898 4184 
Q 3081 4034 3184 3811 
Q 3288 3588 3288 3288 
Q 3288 3053 3217 2858 
Q 3147 2663 3017 2509 
Q 2888 2356 2705 2248 
Q 2522 2141 2294 2081 
L 2294 2069 
Q 2406 2019 2489 1955 
Q 2572 1891 2647 1803 
Q 2722 1716 2795 1605 
Q 2869 1494 2959 1347 
L 3800 0 
z
M 1113 4006 
L 1113 2381 
L 1825 2381 
Q 2022 2381 2189 2440 
Q 2356 2500 2478 2611 
Q 2600 2722 2669 2883 
Q 2738 3044 2738 3244 
Q 2738 3603 2505 3804 
Q 2272 4006 1831 4006 
L 1113 4006 
z
" transform="scale(0.015625)"/>
      <path id="STIXSizeOneSym-Regular-221a" d="M 6970 9933 
L 3373 -1888 
L 3104 -1888 
L 1626 2918 
Q 1555 3149 1465 3251 
Q 1376 3354 1229 3354 
Q 1011 3354 794 3181 
L 717 3309 
L 1766 4115 
L 1926 4115 
L 3379 -602 
L 3405 -602 
L 6605 9933 
L 6970 9933 
z
" transform="scale(0.015625)"/>
      <path id="DejaVuSans-34" d="M 2419 4116 
L 825 1625 
L 2419 1625 
L 2419 4116 
z
M 2253 4666 
L 3047 4666 
L 3047 1625 
L 3713 1625 
L 3713 1100 
L 3047 1100 
L 3047 0 
L 2419 0 
L 2419 1100 
L 313 1100 
L 313 1709 
L 2253 4666 
z
" transform="scale(0.015625)"/>
     </defs>
     <use xlink:href="#SegoeUI-43" transform="translate(0 0.190625)"/>
     <use xlink:href="#SegoeUI-65" transform="translate(61.914062 0.190625)"/>
     <use xlink:href="#SegoeUI-6e" transform="translate(114.208984 0.190625)"/>
     <use xlink:href="#SegoeUI-74" transform="translate(170.800781 0.190625)"/>
     <use xlink:href="#SegoeUI-72" transform="translate(204.6875 0.190625)"/>
     <use xlink:href="#SegoeUI-6f" transform="translate(239.453125 0.190625)"/>
     <use xlink:href="#SegoeUI-3a" transform="translate(298.046875 0.190625)"/>
     <use xlink:href="#SegoeUI-20" transform="translate(319.726562 0.190625)"/>
     <use xlink:href="#DejaVuSans-28" transform="translate(347.119141 0.190625)"/>
     <use xlink:href="#DejaVuSans-2212" transform="translate(386.132812 0.190625)"/>
     <use xlink:href="#DejaVuSans-Oblique-44" transform="translate(469.921875 0.190625)"/>
     <use xlink:href="#DejaVuSans-2f" transform="translate(546.923828 0.190625)"/>
     <use xlink:href="#DejaVuSans-32" transform="translate(576.990234 0.190625)"/>
     <use xlink:href="#DejaVuSans-2c" transform="translate(640.613281 0.190625)"/>
     <use xlink:href="#DejaVuSans-2212" transform="translate(711.365234 0.190625)"/>
     <use xlink:href="#DejaVuSans-Oblique-45" transform="translate(814.636719 0.190625)"/>
     <use xlink:href="#DejaVuSans-2f" transform="translate(877.820312 0.190625)"/>
     <use xlink:href="#DejaVuSans-32" transform="translate(907.886719 0.190625)"/>
     <use xlink:href="#DejaVuSans-29" transform="translate(971.509766 0.190625)"/>
     <use xlink:href="#SegoeUI-20" transform="translate(1010.523438 0.190625)"/>
     <use xlink:href="#SegoeUI-20" transform="translate(1037.916016 0.190625)"/>
     <use xlink:href="#DejaVuSansDisplay-2022" transform="translate(1065.308594 0.190625)"/>
     <use xlink:href="#SegoeUI-20" transform="translate(1124.292969 0.190625)"/>
     <use xlink:href="#SegoeUI-20" transform="translate(1151.685547 0.190625)"/>
     <use xlink:href="#SegoeUI-52" transform="translate(1179.078125 0.190625)"/>
     <use xlink:href="#SegoeUI-61" transform="translate(1238.892578 0.190625)"/>
     <use xlink:href="#SegoeUI-64" transform="translate(1289.771484 0.190625)"/>
     <use xlink:href="#SegoeUI-69" transform="translate(1348.658203 0.190625)"/>
     <use xlink:href="#SegoeUI-6f" transform="translate(1372.876953 0.190625)"/>
     <use xlink:href="#SegoeUI-3a" transform="translate(1431.470703 0.190625)"/>
     <use xlink:href="#SegoeUI-20" transform="translate(1453.150391 0.190625)"/>
     <use xlink:href="#DejaVuSans-Oblique-72" transform="translate(1480.542969 0.190625)"/>
     <use xlink:href="#DejaVuSans-3d" transform="translate(1541.138672 0.190625)"/>
     <use xlink:href="#STIXSizeOneSym-Regular-221a" transform="translate(1644.410156 -9.984375) scale(0.956662)"/>
     <use xlink:href="#DejaVuSans-Oblique-44" transform="translate(1757.985794 43.585938) scale(0.7)"/>
     <use xlink:href="#DejaVuSans-32" transform="translate(1816.798901 70.382812) scale(0.49)"/>
     <use xlink:href="#DejaVuSans-2b" transform="translate(1863.525952 43.585938) scale(0.7)"/>
     <use xlink:href="#DejaVuSans-Oblique-45" transform="translate(1935.815991 43.585938) scale(0.7)"/>
     <use xlink:href="#DejaVuSans-32" transform="translate(1984.956246 70.382812) scale(0.49)"/>
     <use xlink:href="#DejaVuSans-34" transform="translate(1865.985794 -38.698437) scale(0.7)"/>
     <use xlink:href="#DejaVuSans-2212" transform="translate(2050.028023 -0.210938)"/>
     <use xlink:href="#DejaVuSans-Oblique-46" transform="translate(2153.299508 -0.210938)"/>
     <path d="M 1745.485794 132.5 
L 1745.485794 138.75 
L 2223.319039 138.75 
L 2223.319039 132.5 
L 1745.485794 132.5 
z
"/>
     <path d="M 1757.985794 18.585938 
L 1757.985794 24.835938 
L 2018.045601 24.835938 
L 2018.045601 18.585938 
L 1757.985794 18.585938 
z
"/>
    </g>
   </g>
   <g id="text_34">
    <!-- Posición de un Punto P respecto al Centro -->
    <g style="fill: #1f2937" transform="translate(703.056021 368.041947) scale(0.1 -0.1)">
     <defs>
      <path id="SegoeUI-Bold-50" d="M 1522 1544 
L 1522 0 
L 513 0 
L 513 4481 
L 2094 4481 
Q 3788 4481 3788 3053 
Q 3788 2378 3302 1961 
Q 2816 1544 2003 1544 
L 1522 1544 
z
M 1522 3706 
L 1522 2309 
L 1919 2309 
Q 2725 2309 2725 3016 
Q 2725 3706 1919 3706 
L 1522 3706 
z
" transform="scale(0.015625)"/>
      <path id="SegoeUI-Bold-73" d="M 206 84 
L 206 884 
Q 450 738 692 666 
Q 934 594 1150 594 
Q 1413 594 1564 666 
Q 1716 738 1716 884 
Q 1716 978 1647 1040 
Q 1578 1103 1470 1150 
Q 1363 1197 1234 1234 
Q 1106 1272 988 1319 
Q 797 1391 651 1473 
Q 506 1556 407 1665 
Q 309 1775 257 1919 
Q 206 2063 206 2259 
Q 206 2528 323 2722 
Q 441 2916 636 3039 
Q 831 3163 1082 3220 
Q 1334 3278 1606 3278 
Q 1819 3278 2037 3245 
Q 2256 3213 2469 3150 
L 2469 2388 
Q 2281 2497 2067 2551 
Q 1853 2606 1647 2606 
Q 1550 2606 1464 2589 
Q 1378 2572 1312 2539 
Q 1247 2506 1209 2454 
Q 1172 2403 1172 2338 
Q 1172 2250 1228 2187 
Q 1284 2125 1375 2079 
Q 1466 2034 1577 1998 
Q 1688 1963 1797 1925 
Q 1994 1856 2153 1775 
Q 2313 1694 2427 1584 
Q 2541 1475 2602 1328 
Q 2663 1181 2663 978 
Q 2663 694 2539 492 
Q 2416 291 2211 164 
Q 2006 38 1739 -20 
Q 1472 -78 1184 -78 
Q 656 -78 206 84 
z
" transform="scale(0.015625)"/>
      <path id="SegoeUI-Bold-f3" d="M 1941 -78 
Q 1141 -78 683 370 
Q 225 819 225 1588 
Q 225 2381 700 2829 
Q 1175 3278 1984 3278 
Q 2781 3278 3234 2829 
Q 3688 2381 3688 1644 
Q 3688 847 3220 384 
Q 2753 -78 1941 -78 
z
M 1966 2522 
Q 1616 2522 1422 2281 
Q 1228 2041 1228 1600 
Q 1228 678 1972 678 
Q 2681 678 2681 1625 
Q 2681 2522 1966 2522 
z
M 3023 4716 
L 2044 3706 
L 1332 3706 
L 2144 4716 
L 3023 4716 
z
" transform="scale(0.015625)"/>
      <path id="SegoeUI-Bold-70" d="M 1416 372 
L 1403 372 
L 1403 -1472 
L 416 -1472 
L 416 3200 
L 1403 3200 
L 1403 2719 
L 1416 2719 
Q 1781 3278 2444 3278 
Q 3066 3278 3405 2851 
Q 3744 2425 3744 1691 
Q 3744 891 3348 406 
Q 2953 -78 2297 -78 
Q 1719 -78 1416 372 
z
M 1388 1684 
L 1388 1428 
Q 1388 1097 1563 887 
Q 1738 678 2022 678 
Q 2359 678 2545 939 
Q 2731 1200 2731 1678 
Q 2731 2522 2075 2522 
Q 1772 2522 1580 2292 
Q 1388 2063 1388 1684 
z
" transform="scale(0.015625)"/>
      <path id="SegoeUI-Bold-6c" d="M 1403 0 
L 416 0 
L 416 4738 
L 1403 4738 
L 1403 0 
z
" transform="scale(0.015625)"/>
     </defs>
     <use xlink:href="#SegoeUI-Bold-50"/>
     <use xlink:href="#SegoeUI-Bold-6f" x="58.425781"/>
     <use xlink:href="#SegoeUI-Bold-73" x="119.558594"/>
     <use xlink:href="#SegoeUI-Bold-69" x="163.552734"/>
     <use xlink:href="#SegoeUI-Bold-63" x="191.970703"/>
     <use xlink:href="#SegoeUI-Bold-69" x="239.96875"/>
     <use xlink:href="#SegoeUI-Bold-f3" x="268.386719"/>
     <use xlink:href="#SegoeUI-Bold-6e" x="329.470703"/>
     <use xlink:href="#SegoeUI-Bold-20" x="389.96875"/>
     <use xlink:href="#SegoeUI-Bold-64" x="417.556641"/>
     <use xlink:href="#SegoeUI-Bold-65" x="479.470703"/>
     <use xlink:href="#SegoeUI-Bold-20" x="533.572266"/>
     <use xlink:href="#SegoeUI-Bold-75" x="561.160156"/>
     <use xlink:href="#SegoeUI-Bold-6e" x="621.658203"/>
     <use xlink:href="#SegoeUI-Bold-20" x="682.15625"/>
     <use xlink:href="#SegoeUI-Bold-50" x="709.744141"/>
     <use xlink:href="#SegoeUI-Bold-75" x="771.169922"/>
     <use xlink:href="#SegoeUI-Bold-6e" x="831.667969"/>
     <use xlink:href="#SegoeUI-Bold-74" x="892.166016"/>
     <use xlink:href="#SegoeUI-Bold-6f" x="930.707031"/>
     <use xlink:href="#SegoeUI-Bold-20" x="991.839844"/>
     <use xlink:href="#SegoeUI-Bold-50" x="1019.427734"/>
     <use xlink:href="#SegoeUI-Bold-20" x="1080.853516"/>
     <use xlink:href="#SegoeUI-Bold-72" x="1108.441406"/>
     <use xlink:href="#SegoeUI-Bold-65" x="1147.861328"/>
     <use xlink:href="#SegoeUI-Bold-73" x="1201.962891"/>
     <use xlink:href="#SegoeUI-Bold-70" x="1245.957031"/>
     <use xlink:href="#SegoeUI-Bold-65" x="1307.96875"/>
     <use xlink:href="#SegoeUI-Bold-63" x="1362.070312"/>
     <use xlink:href="#SegoeUI-Bold-74" x="1410.068359"/>
     <use xlink:href="#SegoeUI-Bold-6f" x="1448.609375"/>
     <use xlink:href="#SegoeUI-Bold-20" x="1509.742188"/>
     <use xlink:href="#SegoeUI-Bold-61" x="1537.330078"/>
     <use xlink:href="#SegoeUI-Bold-6c" x="1591.138672"/>
     <use xlink:href="#SegoeUI-Bold-20" x="1619.556641"/>
     <use xlink:href="#SegoeUI-Bold-43" x="1647.144531"/>
     <use xlink:href="#SegoeUI-Bold-65" x="1709.546875"/>
     <use xlink:href="#SegoeUI-Bold-6e" x="1763.648438"/>
     <use xlink:href="#SegoeUI-Bold-74" x="1824.146484"/>
     <use xlink:href="#SegoeUI-Bold-72" x="1863.0625"/>
     <use xlink:href="#SegoeUI-Bold-6f" x="1902.482422"/>
    </g>
   </g>
   <g id="text_35">
    <!-- d &lt; r -->
    <g style="fill: #1f2937" transform="translate(655.676978 406.570974) scale(0.1 -0.1)">
     <defs>
      <path id="SegoeUI-Bold-3c" d="M 3725 197 
L 806 1528 
L 806 2034 
L 3725 3431 
L 3725 2688 
L 1644 1797 
L 1644 1778 
L 3725 941 
L 3725 197 
z
" transform="scale(0.015625)"/>
     </defs>
     <use xlink:href="#SegoeUI-Bold-64"/>
     <use xlink:href="#SegoeUI-Bold-20" x="61.914062"/>
     <use xlink:href="#SegoeUI-Bold-3c" x="89.501953"/>
     <use xlink:href="#SegoeUI-Bold-20" x="160.205078"/>
     <use xlink:href="#SegoeUI-Bold-72" x="187.792969"/>
    </g>
   </g>
   <g id="text_36">
    <!-- → -->
    <g style="fill: #6b7280" transform="translate(738.858753 406.570974) scale(0.1 -0.1)">
     <defs>
      <path id="SegoeUI-2192" d="M 722 2075 
L 4441 2075 
L 4056 2450 
L 4056 2913 
L 5056 1875 
L 5056 1863 
L 4056 825 
L 4056 1288 
L 4434 1656 
L 722 1656 
L 722 2075 
z
" transform="scale(0.015625)"/>
     </defs>
     <use xlink:href="#SegoeUI-2192"/>
    </g>
   </g>
   <g id="text_37">
    <!-- Punto interior -->
    <g style="fill: #374151" transform="translate(780.44964 406.570974) scale(0.1 -0.1)">
     <defs>
      <path id="SegoeUI-75" d="M 3106 0 
L 2594 0 
L 2594 506 
L 2581 506 
Q 2263 -75 1594 -75 
Q 450 -75 450 1288 
L 450 3200 
L 959 3200 
L 959 1369 
Q 959 356 1734 356 
Q 2109 356 2351 632 
Q 2594 909 2594 1356 
L 2594 3200 
L 3106 3200 
L 3106 0 
z
" transform="scale(0.015625)"/>
     </defs>
     <use xlink:href="#SegoeUI-50"/>
     <use xlink:href="#SegoeUI-75" x="56.005859"/>
     <use xlink:href="#SegoeUI-6e" x="112.597656"/>
     <use xlink:href="#SegoeUI-74" x="169.189453"/>
     <use xlink:href="#SegoeUI-6f" x="202.326172"/>
     <use xlink:href="#SegoeUI-20" x="260.919922"/>
     <use xlink:href="#SegoeUI-69" x="288.3125"/>
     <use xlink:href="#SegoeUI-6e" x="312.53125"/>
     <use xlink:href="#SegoeUI-74" x="369.123047"/>
     <use xlink:href="#SegoeUI-65" x="402.259766"/>
     <use xlink:href="#SegoeUI-72" x="454.554688"/>
     <use xlink:href="#SegoeUI-69" x="489.320312"/>
     <use xlink:href="#SegoeUI-6f" x="513.539062"/>
     <use xlink:href="#SegoeUI-72" x="572.132812"/>
    </g>
   </g>
   <g id="text_38">
    <!-- d = r -->
    <g style="fill: #e12885" transform="translate(655.676978 439.595854) scale(0.1 -0.1)">
     <defs>
      <path id="SegoeUI-Bold-3d" d="M 3788 2188 
L 744 2188 
L 744 2828 
L 3788 2828 
L 3788 2188 
z
M 3788 831 
L 744 831 
L 744 1466 
L 3788 1466 
L 3788 831 
z
" transform="scale(0.015625)"/>
     </defs>
     <use xlink:href="#SegoeUI-Bold-64"/>
     <use xlink:href="#SegoeUI-Bold-20" x="61.914062"/>
     <use xlink:href="#SegoeUI-Bold-3d" x="89.501953"/>
     <use xlink:href="#SegoeUI-Bold-20" x="160.205078"/>
     <use xlink:href="#SegoeUI-Bold-72" x="187.792969"/>
    </g>
   </g>
   <g id="text_39">
    <!-- → -->
    <g style="fill: #6b7280" transform="translate(738.858753 439.595854) scale(0.1 -0.1)">
     <use xlink:href="#SegoeUI-2192"/>
    </g>
   </g>
   <g id="text_40">
    <!-- Punto sobre la circunferencia -->
    <g style="fill: #374151" transform="translate(780.44964 439.595854) scale(0.1 -0.1)">
     <defs>
      <path id="SegoeUI-73" d="M 325 116 
L 325 666 
Q 744 356 1247 356 
Q 1922 356 1922 806 
Q 1922 934 1864 1023 
Q 1806 1113 1707 1181 
Q 1609 1250 1476 1304 
Q 1344 1359 1191 1419 
Q 978 1503 817 1589 
Q 656 1675 548 1783 
Q 441 1891 386 2028 
Q 331 2166 331 2350 
Q 331 2575 434 2748 
Q 538 2922 709 3039 
Q 881 3156 1101 3215 
Q 1322 3275 1556 3275 
Q 1972 3275 2300 3131 
L 2300 2613 
Q 1947 2844 1488 2844 
Q 1344 2844 1228 2811 
Q 1113 2778 1030 2718 
Q 947 2659 901 2576 
Q 856 2494 856 2394 
Q 856 2269 901 2184 
Q 947 2100 1034 2034 
Q 1122 1969 1247 1916 
Q 1372 1863 1531 1800 
Q 1744 1719 1912 1633 
Q 2081 1547 2200 1439 
Q 2319 1331 2383 1190 
Q 2447 1050 2447 856 
Q 2447 619 2342 444 
Q 2238 269 2063 153 
Q 1888 38 1659 -18 
Q 1431 -75 1181 -75 
Q 688 -75 325 116 
z
" transform="scale(0.015625)"/>
      <path id="SegoeUI-62" d="M 1044 463 
L 1031 463 
L 1031 0 
L 519 0 
L 519 4738 
L 1031 4738 
L 1031 2638 
L 1044 2638 
Q 1422 3275 2150 3275 
Q 2766 3275 3114 2845 
Q 3463 2416 3463 1694 
Q 3463 891 3072 408 
Q 2681 -75 2003 -75 
Q 1369 -75 1044 463 
z
M 1031 1753 
L 1031 1306 
Q 1031 909 1289 632 
Q 1547 356 1944 356 
Q 2409 356 2673 712 
Q 2938 1069 2938 1703 
Q 2938 2238 2691 2541 
Q 2444 2844 2022 2844 
Q 1575 2844 1303 2533 
Q 1031 2222 1031 1753 
z
" transform="scale(0.015625)"/>
      <path id="SegoeUI-6c" d="M 1031 0 
L 519 0 
L 519 4738 
L 1031 4738 
L 1031 0 
z
" transform="scale(0.015625)"/>
      <path id="SegoeUI-63" d="M 2700 147 
Q 2331 -75 1825 -75 
Q 1141 -75 720 370 
Q 300 816 300 1525 
Q 300 2316 753 2795 
Q 1206 3275 1963 3275 
Q 2384 3275 2706 3119 
L 2706 2594 
Q 2350 2844 1944 2844 
Q 1453 2844 1139 2492 
Q 825 2141 825 1569 
Q 825 1006 1120 681 
Q 1416 356 1913 356 
Q 2331 356 2700 634 
L 2700 147 
z
" transform="scale(0.015625)"/>
      <path id="SegoeUI-66" d="M 2100 4288 
Q 1950 4372 1759 4372 
Q 1222 4372 1222 3694 
L 1222 3200 
L 1972 3200 
L 1972 2763 
L 1222 2763 
L 1222 0 
L 713 0 
L 713 2763 
L 166 2763 
L 166 3200 
L 713 3200 
L 713 3719 
Q 713 4222 1003 4514 
Q 1294 4806 1728 4806 
Q 1963 4806 2100 4750 
L 2100 4288 
z
" transform="scale(0.015625)"/>
     </defs>
     <use xlink:href="#SegoeUI-50"/>
     <use xlink:href="#SegoeUI-75" x="56.005859"/>
     <use xlink:href="#SegoeUI-6e" x="112.597656"/>
     <use xlink:href="#SegoeUI-74" x="169.189453"/>
     <use xlink:href="#SegoeUI-6f" x="202.326172"/>
     <use xlink:href="#SegoeUI-20" x="260.919922"/>
     <use xlink:href="#SegoeUI-73" x="288.3125"/>
     <use xlink:href="#SegoeUI-6f" x="330.744141"/>
     <use xlink:href="#SegoeUI-62" x="389.337891"/>
     <use xlink:href="#SegoeUI-72" x="448.126953"/>
     <use xlink:href="#SegoeUI-65" x="481.517578"/>
     <use xlink:href="#SegoeUI-20" x="533.8125"/>
     <use xlink:href="#SegoeUI-6c" x="561.205078"/>
     <use xlink:href="#SegoeUI-61" x="585.423828"/>
     <use xlink:href="#SegoeUI-20" x="636.302734"/>
     <use xlink:href="#SegoeUI-63" x="663.695312"/>
     <use xlink:href="#SegoeUI-69" x="709.886719"/>
     <use xlink:href="#SegoeUI-72" x="734.105469"/>
     <use xlink:href="#SegoeUI-63" x="767.496094"/>
     <use xlink:href="#SegoeUI-75" x="813.6875"/>
     <use xlink:href="#SegoeUI-6e" x="870.279297"/>
     <use xlink:href="#SegoeUI-66" x="926.871094"/>
     <use xlink:href="#SegoeUI-65" x="958.169922"/>
     <use xlink:href="#SegoeUI-72" x="1010.464844"/>
     <use xlink:href="#SegoeUI-65" x="1043.855469"/>
     <use xlink:href="#SegoeUI-6e" x="1096.150391"/>
     <use xlink:href="#SegoeUI-63" x="1152.742188"/>
     <use xlink:href="#SegoeUI-69" x="1198.933594"/>
     <use xlink:href="#SegoeUI-61" x="1223.152344"/>
    </g>
   </g>
   <g id="text_41">
    <!-- d &gt; r -->
    <g style="fill: #dc2626" transform="translate(655.676978 472.620734) scale(0.1 -0.1)">
     <defs>
      <path id="SegoeUI-Bold-3e" d="M 3725 1569 
L 806 238 
L 806 978 
L 2894 1813 
L 2894 1825 
L 806 2719 
L 806 3463 
L 3725 2075 
L 3725 1569 
z
" transform="scale(0.015625)"/>
     </defs>
     <use xlink:href="#SegoeUI-Bold-64"/>
     <use xlink:href="#SegoeUI-Bold-20" x="61.914062"/>
     <use xlink:href="#SegoeUI-Bold-3e" x="89.501953"/>
     <use xlink:href="#SegoeUI-Bold-20" x="160.205078"/>
     <use xlink:href="#SegoeUI-Bold-72" x="187.792969"/>
    </g>
   </g>
   <g id="text_42">
    <!-- → -->
    <g style="fill: #6b7280" transform="translate(738.858753 472.620734) scale(0.1 -0.1)">
     <use xlink:href="#SegoeUI-2192"/>
    </g>
   </g>
   <g id="text_43">
    <!-- Punto exterior -->
    <g style="fill: #374151" transform="translate(780.44964 472.620734) scale(0.1 -0.1)">
     <use xlink:href="#SegoeUI-50"/>
     <use xlink:href="#SegoeUI-75" x="56.005859"/>
     <use xlink:href="#SegoeUI-6e" x="112.597656"/>
     <use xlink:href="#SegoeUI-74" x="169.189453"/>
     <use xlink:href="#SegoeUI-6f" x="202.326172"/>
     <use xlink:href="#SegoeUI-20" x="260.919922"/>
     <use xlink:href="#SegoeUI-65" x="288.3125"/>
     <use xlink:href="#SegoeUI-78" x="340.607422"/>
     <use xlink:href="#SegoeUI-74" x="386.505859"/>
     <use xlink:href="#SegoeUI-65" x="419.642578"/>
     <use xlink:href="#SegoeUI-72" x="471.9375"/>
     <use xlink:href="#SegoeUI-69" x="506.703125"/>
     <use xlink:href="#SegoeUI-6f" x="530.921875"/>
     <use xlink:href="#SegoeUI-72" x="589.515625"/>
    </g>
   </g>
   <g id="text_44">
    <!-- d = distancia del punto P al centro C -->
    <g style="fill: #9ca3af" transform="translate(730.183756 533.166347) scale(0.09 -0.09)">
     <defs>
      <path id="SegoeUI-Italic-64" d="M 2816 984 
Q 2794 884 2773 743 
Q 2753 603 2737 461 
Q 2722 319 2711 194 
Q 2700 69 2700 0 
L 2169 0 
Q 2169 53 2176 142 
Q 2184 231 2195 328 
Q 2206 425 2218 514 
Q 2231 603 2241 659 
L 2228 659 
Q 2116 478 2003 339 
Q 1891 200 1766 108 
Q 1641 16 1500 -31 
Q 1359 -78 1191 -78 
Q 972 -78 797 0 
Q 622 78 498 229 
Q 375 381 309 604 
Q 244 828 244 1119 
Q 244 1350 292 1600 
Q 341 1850 442 2090 
Q 544 2331 700 2547 
Q 856 2763 1072 2925 
Q 1288 3088 1566 3183 
Q 1844 3278 2188 3278 
Q 2363 3278 2513 3254 
Q 2663 3231 2772 3206 
L 3097 4738 
L 3603 4738 
L 2816 984 
z
M 2681 2766 
Q 2563 2800 2433 2820 
Q 2303 2841 2156 2841 
Q 1884 2841 1676 2756 
Q 1469 2672 1314 2531 
Q 1159 2391 1054 2211 
Q 950 2031 886 1842 
Q 822 1653 795 1470 
Q 769 1288 769 1141 
Q 769 966 798 822 
Q 828 678 895 575 
Q 963 472 1069 415 
Q 1175 359 1325 359 
Q 1481 359 1617 425 
Q 1753 491 1872 603 
Q 1991 716 2087 862 
Q 2184 1009 2262 1175 
Q 2341 1341 2395 1511 
Q 2450 1681 2484 1838 
L 2681 2766 
z
" transform="scale(0.015625)"/>
      <path id="SegoeUI-Italic-20" transform="scale(0.015625)"/>
      <path id="SegoeUI-Italic-3d" d="M 800 2322 
L 800 2741 
L 3738 2741 
L 3738 2322 
L 800 2322 
z
M 800 991 
L 800 1409 
L 3738 1409 
L 3738 991 
L 800 991 
z
" transform="scale(0.015625)"/>
      <path id="SegoeUI-Italic-69" d="M 1300 13 
Q 1222 -13 1123 -28 
Q 1025 -44 928 -44 
Q 613 -44 456 114 
Q 300 272 300 538 
Q 300 616 315 722 
Q 331 828 366 984 
L 831 3200 
L 1350 3200 
L 881 972 
Q 853 841 842 769 
Q 831 697 831 647 
Q 831 519 901 451 
Q 972 384 1125 384 
Q 1206 384 1267 393 
Q 1328 403 1381 422 
L 1300 13 
z
M 1666 4341 
Q 1666 4200 1570 4100 
Q 1475 4000 1334 4000 
Q 1197 4000 1095 4098 
Q 994 4197 994 4341 
Q 994 4484 1095 4575 
Q 1197 4666 1334 4666 
Q 1472 4666 1569 4573 
Q 1666 4481 1666 4341 
z
" transform="scale(0.015625)"/>
      <path id="SegoeUI-Italic-73" d="M 2266 2638 
Q 2125 2728 1950 2784 
Q 1775 2841 1600 2841 
Q 1306 2841 1145 2706 
Q 984 2572 984 2350 
Q 984 2259 1014 2184 
Q 1044 2109 1101 2042 
Q 1159 1975 1248 1912 
Q 1338 1850 1453 1778 
Q 1803 1575 1958 1361 
Q 2113 1147 2113 878 
Q 2113 697 2045 523 
Q 1978 350 1831 217 
Q 1684 84 1451 3 
Q 1219 -78 884 -78 
Q 791 -78 678 -65 
Q 566 -53 452 -28 
Q 338 -3 233 33 
Q 128 69 50 116 
L 153 603 
Q 216 559 308 515 
Q 400 472 508 437 
Q 616 403 733 381 
Q 850 359 966 359 
Q 1278 359 1433 484 
Q 1588 609 1588 831 
Q 1588 913 1564 981 
Q 1541 1050 1481 1119 
Q 1422 1188 1325 1258 
Q 1228 1328 1081 1416 
Q 763 1609 611 1820 
Q 459 2031 459 2297 
Q 459 2491 531 2667 
Q 603 2844 745 2980 
Q 888 3116 1103 3197 
Q 1319 3278 1606 3278 
Q 1831 3278 2032 3234 
Q 2234 3191 2375 3122 
L 2266 2638 
z
" transform="scale(0.015625)"/>
      <path id="SegoeUI-Italic-74" d="M 2156 2766 
L 1350 2766 
L 991 1069 
Q 972 972 953 859 
Q 934 747 934 678 
Q 934 519 1004 448 
Q 1075 378 1228 378 
Q 1266 378 1325 390 
Q 1384 403 1446 422 
Q 1509 441 1570 464 
Q 1631 488 1678 506 
L 1581 56 
Q 1472 9 1333 -23 
Q 1194 -56 1069 -56 
Q 891 -56 766 -11 
Q 641 34 561 118 
Q 481 203 445 323 
Q 409 444 409 594 
Q 409 684 426 804 
Q 444 925 469 1025 
L 838 2766 
L 306 2766 
L 403 3200 
L 928 3200 
L 1094 3981 
Q 1106 3988 1189 4011 
Q 1272 4034 1370 4064 
Q 1469 4094 1551 4119 
Q 1634 4144 1644 4147 
L 1447 3200 
L 2253 3200 
L 2156 2766 
z
" transform="scale(0.015625)"/>
      <path id="SegoeUI-Italic-61" d="M 2828 1025 
Q 2803 906 2779 757 
Q 2756 609 2739 464 
Q 2722 319 2711 194 
Q 2700 69 2700 0 
L 2169 0 
Q 2172 63 2178 150 
Q 2184 238 2195 331 
Q 2206 425 2217 515 
Q 2228 606 2241 672 
L 2228 672 
Q 2131 519 2031 383 
Q 1931 247 1809 144 
Q 1688 41 1538 -18 
Q 1388 -78 1184 -78 
Q 975 -78 801 -3 
Q 628 72 503 220 
Q 378 369 311 592 
Q 244 816 244 1113 
Q 244 1294 281 1525 
Q 319 1756 408 1997 
Q 497 2238 645 2467 
Q 794 2697 1014 2878 
Q 1234 3059 1534 3168 
Q 1834 3278 2228 3278 
Q 2478 3278 2743 3240 
Q 3009 3203 3272 3150 
L 2828 1025 
z
M 2681 2778 
Q 2572 2803 2425 2822 
Q 2278 2841 2150 2841 
Q 1878 2841 1670 2755 
Q 1463 2669 1309 2530 
Q 1156 2391 1051 2209 
Q 947 2028 884 1839 
Q 822 1650 795 1465 
Q 769 1281 769 1131 
Q 769 953 800 811 
Q 831 669 898 569 
Q 966 469 1070 414 
Q 1175 359 1319 359 
Q 1475 359 1611 423 
Q 1747 488 1865 597 
Q 1984 706 2081 850 
Q 2178 994 2256 1155 
Q 2334 1316 2389 1483 
Q 2444 1650 2478 1806 
L 2681 2778 
z
" transform="scale(0.015625)"/>
      <path id="SegoeUI-Italic-6e" d="M 3269 2400 
Q 3269 2353 3258 2272 
Q 3247 2191 3230 2097 
Q 3213 2003 3195 1911 
Q 3178 1819 3163 1753 
L 2791 0 
L 2272 0 
L 2663 1875 
Q 2675 1925 2687 1990 
Q 2700 2056 2709 2122 
Q 2719 2188 2725 2242 
Q 2731 2297 2731 2328 
Q 2731 2566 2617 2703 
Q 2503 2841 2278 2841 
Q 2072 2841 1869 2719 
Q 1666 2597 1494 2409 
Q 1322 2222 1198 1997 
Q 1075 1772 1031 1563 
L 697 0 
L 178 0 
L 672 2284 
Q 697 2406 722 2539 
Q 747 2672 769 2795 
Q 791 2919 806 3025 
Q 822 3131 831 3200 
L 1331 3200 
Q 1316 3078 1294 2945 
Q 1272 2813 1256 2700 
Q 1238 2569 1216 2444 
L 1228 2444 
Q 1338 2616 1470 2767 
Q 1603 2919 1758 3033 
Q 1913 3147 2086 3212 
Q 2259 3278 2450 3278 
Q 2663 3278 2816 3214 
Q 2969 3150 3070 3034 
Q 3172 2919 3220 2756 
Q 3269 2594 3269 2400 
z
" transform="scale(0.015625)"/>
      <path id="SegoeUI-Italic-63" d="M 2700 2566 
Q 2569 2681 2383 2761 
Q 2197 2841 1972 2841 
Q 1756 2841 1582 2766 
Q 1409 2691 1275 2566 
Q 1141 2441 1044 2278 
Q 947 2116 884 1941 
Q 822 1766 792 1592 
Q 763 1419 763 1269 
Q 763 822 959 590 
Q 1156 359 1497 359 
Q 1703 359 1925 445 
Q 2147 531 2344 666 
L 2234 153 
Q 2031 44 1829 -17 
Q 1628 -78 1403 -78 
Q 1109 -78 892 22 
Q 675 122 531 297 
Q 388 472 316 711 
Q 244 950 244 1228 
Q 244 1491 297 1745 
Q 350 2000 454 2226 
Q 559 2453 712 2647 
Q 866 2841 1064 2980 
Q 1263 3119 1506 3198 
Q 1750 3278 2034 3278 
Q 2169 3278 2291 3259 
Q 2413 3241 2513 3209 
Q 2613 3178 2691 3142 
Q 2769 3106 2816 3072 
L 2700 2566 
z
" transform="scale(0.015625)"/>
      <path id="SegoeUI-Italic-65" d="M 2994 2450 
Q 2994 2197 2881 1989 
Q 2769 1781 2509 1632 
Q 2250 1484 1825 1403 
Q 1400 1322 775 1319 
Q 769 1284 769 1247 
Q 769 1213 769 1184 
Q 769 1016 816 866 
Q 863 716 961 603 
Q 1059 491 1214 425 
Q 1369 359 1581 359 
Q 1797 359 2055 442 
Q 2313 525 2547 678 
L 2450 172 
Q 2278 72 2040 -3 
Q 1803 -78 1509 -78 
Q 1156 -78 914 31 
Q 672 141 523 323 
Q 375 506 309 745 
Q 244 984 244 1247 
Q 244 1528 306 1789 
Q 369 2050 483 2275 
Q 597 2500 756 2686 
Q 916 2872 1109 3003 
Q 1303 3134 1525 3206 
Q 1747 3278 1984 3278 
Q 2231 3278 2420 3212 
Q 2609 3147 2736 3033 
Q 2863 2919 2928 2769 
Q 2994 2619 2994 2450 
z
M 2472 2425 
Q 2472 2622 2326 2731 
Q 2181 2841 1941 2841 
Q 1750 2841 1572 2758 
Q 1394 2675 1244 2529 
Q 1094 2384 984 2182 
Q 875 1981 825 1747 
Q 1272 1747 1584 1792 
Q 1897 1838 2094 1925 
Q 2291 2013 2381 2139 
Q 2472 2266 2472 2425 
z
" transform="scale(0.015625)"/>
      <path id="SegoeUI-Italic-6c" d="M 1300 13 
Q 1222 -13 1123 -28 
Q 1025 -44 928 -44 
Q 613 -44 456 114 
Q 300 272 300 538 
Q 300 616 315 722 
Q 331 828 366 984 
L 1166 4741 
L 1684 4741 
L 881 972 
Q 853 841 842 769 
Q 831 697 831 647 
Q 831 519 901 451 
Q 972 384 1125 384 
Q 1206 384 1267 393 
Q 1328 403 1381 422 
L 1300 13 
z
" transform="scale(0.015625)"/>
      <path id="SegoeUI-Italic-70" d="M 3225 2081 
Q 3225 1850 3175 1601 
Q 3125 1353 3022 1112 
Q 2919 872 2764 656 
Q 2609 441 2400 277 
Q 2191 113 1925 17 
Q 1659 -78 1338 -78 
Q 1153 -78 973 -43 
Q 794 -9 659 38 
L 341 -1484 
L -178 -1484 
L 603 2216 
Q 625 2316 644 2456 
Q 663 2597 677 2739 
Q 691 2881 700 3006 
Q 709 3131 709 3200 
L 1234 3200 
Q 1234 3147 1226 3056 
Q 1219 2966 1206 2867 
Q 1194 2769 1181 2676 
Q 1169 2584 1159 2528 
L 1172 2528 
Q 1394 2906 1672 3092 
Q 1950 3278 2278 3278 
Q 2497 3278 2672 3203 
Q 2847 3128 2970 2978 
Q 3094 2828 3159 2603 
Q 3225 2378 3225 2081 
z
M 2700 2059 
Q 2700 2228 2670 2372 
Q 2641 2516 2572 2619 
Q 2503 2722 2395 2781 
Q 2288 2841 2131 2841 
Q 1969 2841 1826 2773 
Q 1684 2706 1562 2593 
Q 1441 2481 1341 2332 
Q 1241 2184 1162 2025 
Q 1084 1866 1029 1705 
Q 975 1544 947 1403 
L 750 475 
Q 806 450 884 429 
Q 963 409 1047 393 
Q 1131 378 1218 368 
Q 1306 359 1381 359 
Q 1597 359 1780 431 
Q 1963 503 2108 626 
Q 2253 750 2364 917 
Q 2475 1084 2550 1273 
Q 2625 1463 2662 1664 
Q 2700 1866 2700 2059 
z
" transform="scale(0.015625)"/>
      <path id="SegoeUI-Italic-75" d="M 2906 909 
Q 2878 788 2854 656 
Q 2831 525 2809 403 
Q 2788 281 2772 175 
Q 2756 69 2747 0 
L 2247 0 
Q 2263 122 2283 255 
Q 2303 388 2322 500 
Q 2344 631 2363 756 
L 2350 756 
Q 2241 584 2108 432 
Q 1975 281 1820 167 
Q 1666 53 1492 -12 
Q 1319 -78 1131 -78 
Q 925 -78 770 -14 
Q 616 50 512 165 
Q 409 281 357 443 
Q 306 606 306 806 
Q 306 847 318 928 
Q 331 1009 347 1103 
Q 363 1197 383 1289 
Q 403 1381 416 1447 
L 788 3200 
L 1306 3200 
L 909 1325 
Q 897 1275 884 1209 
Q 872 1144 861 1078 
Q 850 1013 844 958 
Q 838 903 838 872 
Q 838 638 952 498 
Q 1066 359 1294 359 
Q 1431 359 1568 415 
Q 1706 472 1836 567 
Q 1966 663 2081 789 
Q 2197 916 2290 1058 
Q 2384 1200 2450 1350 
Q 2516 1500 2547 1638 
L 2881 3200 
L 3397 3200 
L 2906 909 
z
" transform="scale(0.015625)"/>
      <path id="SegoeUI-Italic-6f" d="M 3181 2016 
Q 3181 1591 3061 1209 
Q 2941 828 2714 542 
Q 2488 256 2164 89 
Q 1841 -78 1434 -78 
Q 1159 -78 939 9 
Q 719 97 564 261 
Q 409 425 326 658 
Q 244 891 244 1184 
Q 244 1625 370 2008 
Q 497 2391 726 2673 
Q 956 2956 1276 3117 
Q 1597 3278 1984 3278 
Q 2256 3278 2476 3190 
Q 2697 3103 2853 2939 
Q 3009 2775 3095 2542 
Q 3181 2309 3181 2016 
z
M 2656 1991 
Q 2656 2194 2606 2351 
Q 2556 2509 2465 2617 
Q 2375 2725 2247 2783 
Q 2119 2841 1959 2841 
Q 1684 2841 1462 2700 
Q 1241 2559 1087 2329 
Q 934 2100 851 1808 
Q 769 1516 769 1209 
Q 769 1016 817 858 
Q 866 700 955 589 
Q 1044 478 1173 418 
Q 1303 359 1466 359 
Q 1744 359 1966 498 
Q 2188 638 2341 867 
Q 2494 1097 2575 1390 
Q 2656 1684 2656 1991 
z
" transform="scale(0.015625)"/>
      <path id="SegoeUI-Italic-50" d="M 3675 3303 
Q 3675 2972 3562 2680 
Q 3450 2388 3220 2169 
Q 2991 1950 2637 1823 
Q 2284 1697 1806 1697 
L 1125 1697 
L 769 0 
L 231 0 
L 1178 4481 
L 2338 4481 
Q 2697 4481 2951 4382 
Q 3206 4284 3367 4120 
Q 3528 3956 3601 3743 
Q 3675 3531 3675 3303 
z
M 3122 3256 
Q 3122 3425 3064 3564 
Q 3006 3703 2893 3801 
Q 2781 3900 2614 3953 
Q 2447 4006 2228 4006 
L 1619 4006 
L 1228 2169 
L 1856 2169 
Q 2188 2169 2427 2251 
Q 2666 2334 2820 2479 
Q 2975 2625 3048 2823 
Q 3122 3022 3122 3256 
z
" transform="scale(0.015625)"/>
      <path id="SegoeUI-Italic-72" d="M 2394 2656 
L 2381 2656 
Q 2319 2694 2217 2730 
Q 2116 2766 2016 2766 
Q 1834 2766 1668 2648 
Q 1503 2531 1367 2339 
Q 1231 2147 1129 1900 
Q 1028 1653 972 1394 
L 672 0 
L 159 0 
L 609 2125 
Q 638 2256 666 2400 
Q 694 2544 717 2687 
Q 741 2831 759 2962 
Q 778 3094 788 3200 
L 1294 3200 
Q 1284 3106 1271 3001 
Q 1259 2897 1246 2798 
Q 1234 2700 1221 2620 
Q 1209 2541 1203 2497 
L 1216 2497 
Q 1316 2675 1419 2819 
Q 1522 2963 1636 3064 
Q 1750 3166 1878 3222 
Q 2006 3278 2156 3278 
Q 2244 3278 2330 3261 
Q 2416 3244 2484 3225 
L 2394 2656 
z
" transform="scale(0.015625)"/>
      <path id="SegoeUI-Italic-43" d="M 4141 3738 
Q 4050 3797 3933 3859 
Q 3816 3922 3675 3972 
Q 3534 4022 3367 4053 
Q 3200 4084 3009 4084 
Q 2541 4084 2164 3918 
Q 1788 3753 1525 3462 
Q 1263 3172 1120 2780 
Q 978 2388 978 1931 
Q 978 1559 1081 1273 
Q 1184 988 1375 792 
Q 1566 597 1831 497 
Q 2097 397 2419 397 
Q 2625 397 2794 420 
Q 2963 444 3106 486 
Q 3250 528 3376 586 
Q 3503 644 3622 709 
L 3500 159 
Q 3247 44 2958 -17 
Q 2669 -78 2309 -78 
Q 1884 -78 1536 62 
Q 1188 203 942 461 
Q 697 719 562 1081 
Q 428 1444 428 1888 
Q 428 2475 614 2965 
Q 800 3456 1142 3809 
Q 1484 4163 1964 4359 
Q 2444 4556 3028 4556 
Q 3428 4556 3736 4470 
Q 4044 4384 4256 4275 
L 4141 3738 
z
" transform="scale(0.015625)"/>
     </defs>
     <use xlink:href="#SegoeUI-Italic-64"/>
     <use xlink:href="#SegoeUI-Italic-20" x="54.199219"/>
     <use xlink:href="#SegoeUI-Italic-3d" x="81.689453"/>
     <use xlink:href="#SegoeUI-Italic-20" x="150.195312"/>
     <use xlink:href="#SegoeUI-Italic-64" x="177.685547"/>
     <use xlink:href="#SegoeUI-Italic-69" x="231.884766"/>
     <use xlink:href="#SegoeUI-Italic-73" x="257.763672"/>
     <use xlink:href="#SegoeUI-Italic-74" x="297.265625"/>
     <use xlink:href="#SegoeUI-Italic-61" x="329.089844"/>
     <use xlink:href="#SegoeUI-Italic-6e" x="383.289062"/>
     <use xlink:href="#SegoeUI-Italic-63" x="439.490234"/>
     <use xlink:href="#SegoeUI-Italic-69" x="483.09375"/>
     <use xlink:href="#SegoeUI-Italic-61" x="508.972656"/>
     <use xlink:href="#SegoeUI-Italic-20" x="563.171875"/>
     <use xlink:href="#SegoeUI-Italic-64" x="590.662109"/>
     <use xlink:href="#SegoeUI-Italic-65" x="644.861328"/>
     <use xlink:href="#SegoeUI-Italic-6c" x="693.542969"/>
     <use xlink:href="#SegoeUI-Italic-20" x="719.421875"/>
     <use xlink:href="#SegoeUI-Italic-70" x="746.912109"/>
     <use xlink:href="#SegoeUI-Italic-75" x="801.111328"/>
     <use xlink:href="#SegoeUI-Italic-6e" x="856.921875"/>
     <use xlink:href="#SegoeUI-Italic-74" x="913.123047"/>
     <use xlink:href="#SegoeUI-Italic-6f" x="945.572266"/>
     <use xlink:href="#SegoeUI-Italic-20" x="999.087891"/>
     <use xlink:href="#SegoeUI-Italic-50" x="1026.578125"/>
     <use xlink:href="#SegoeUI-Italic-20" x="1084.097656"/>
     <use xlink:href="#SegoeUI-Italic-61" x="1111.587891"/>
     <use xlink:href="#SegoeUI-Italic-6c" x="1165.787109"/>
     <use xlink:href="#SegoeUI-Italic-20" x="1191.666016"/>
     <use xlink:href="#SegoeUI-Italic-63" x="1219.15625"/>
     <use xlink:href="#SegoeUI-Italic-65" x="1261.759766"/>
     <use xlink:href="#SegoeUI-Italic-6e" x="1310.441406"/>
     <use xlink:href="#SegoeUI-Italic-74" x="1366.642578"/>
     <use xlink:href="#SegoeUI-Italic-72" x="1398.966797"/>
     <use xlink:href="#SegoeUI-Italic-6f" x="1434.214844"/>
     <use xlink:href="#SegoeUI-Italic-20" x="1487.730469"/>
     <use xlink:href="#SegoeUI-Italic-43" x="1515.220703"/>
    </g>
   </g>
  </g>
  <g id="text_45">
   <!-- La Circunferencia -->
   <g style="fill: #2c2f33" transform="translate(451.605854 17.564375) scale(0.14 -0.14)">
    <use xlink:href="#SegoeUI-Bold-4c"/>
    <use xlink:href="#SegoeUI-Bold-61" x="51.123047"/>
    <use xlink:href="#SegoeUI-Bold-20" x="104.931641"/>
    <use xlink:href="#SegoeUI-Bold-43" x="132.519531"/>
    <use xlink:href="#SegoeUI-Bold-69" x="194.921875"/>
    <use xlink:href="#SegoeUI-Bold-72" x="223.339844"/>
    <use xlink:href="#SegoeUI-Bold-63" x="262.759766"/>
    <use xlink:href="#SegoeUI-Bold-75" x="310.757812"/>
    <use xlink:href="#SegoeUI-Bold-6e" x="371.255859"/>
    <use xlink:href="#SegoeUI-Bold-66" x="431.753906"/>
    <use xlink:href="#SegoeUI-Bold-65" x="470.083984"/>
    <use xlink:href="#SegoeUI-Bold-72" x="524.185547"/>
    <use xlink:href="#SegoeUI-Bold-65" x="563.605469"/>
    <use xlink:href="#SegoeUI-Bold-6e" x="617.707031"/>
    <use xlink:href="#SegoeUI-Bold-63" x="678.205078"/>
    <use xlink:href="#SegoeUI-Bold-69" x="726.203125"/>
    <use xlink:href="#SegoeUI-Bold-61" x="754.621094"/>
   </g>
  </g>
 </g>
 <defs>
  <clipPath id="p9f17c66e7b">
   <rect x="41.104688" y="68.043447" width="499.090647" height="467.897482"/>
  </clipPath>
  <clipPath id="pe8bcc9b2e5">
   <rect x="593.290647" y="26.784855" width="415.908873" height="550.414665"/>
  </clipPath>
 </defs>
</svg>
