<?xml version="1.0" encoding="utf-8" standalone="no"?>
<!DOCTYPE svg PUBLIC "-//W3C//DTD SVG 1.1//EN"
  "http://www.w3.org/Graphics/SVG/1.1/DTD/svg11.dtd">
<svg xmlns:xlink="http://www.w3.org/1999/xlink" width="1016.39952pt" height="584.39952pt" viewBox="0 0 1016.39952 584.39952" xmlns="http://www.w3.org/2000/svg" version="1.1">
 <metadata>
  <rdf:RDF xmlns:dc="http://purl.org/dc/elements/1.1/" xmlns:cc="http://creativecommons.org/ns#" xmlns:rdf="http://www.w3.org/1999/02/22-rdf-syntax-ns#">
   <cc:Work>
    <dc:type rdf:resource="http://purl.org/dc/dcmitype/StillImage"/>
    <dc:date>2026-04-11T16:11:49.925676</dc:date>
    <dc:format>image/svg+xml</dc:format>
    <dc:creator>
     <cc:Agent>
      <dc:title>Matplotlib v3.8.4, https://matplotlib.org/</dc:title>
     </cc:Agent>
    </dc:creator>
   </cc:Work>
  </rdf:RDF>
 </metadata>
 <defs>
  <style type="text/css">*{stroke-linejoin: round; stroke-linecap: butt}</style>
 </defs>
 <g id="figure_1">
  <g id="patch_1">
   <path d="M 0 584.39952 
L 1016.39952 584.39952 
L 1016.39952 0 
L 0 0 
z
" style="fill: #ffffff"/>
  </g>
  <g id="axes_1">
   <g id="patch_2">
    <path d="M 34.264063 523.825377 
L 537.08596 523.825377 
L 537.08596 80.158998 
L 34.264063 80.158998 
z
" style="fill: #ffffff"/>
   </g>
   <g id="matplotlib.axis_1">
    <g id="xtick_1">
     <g id="line2d_1">
      <path d="M 63.841821 523.825377 
L 63.841821 80.158998 
" clip-path="url(#p2f2138e790)" style="fill: none; stroke-dasharray: 2.96,1.28; stroke-dashoffset: 0; stroke: #9ca3af; stroke-opacity: 0.3; stroke-width: 0.8"/>
     </g>
     <g id="line2d_2">
      <defs>
       <path id="mcc96136c31" d="M 0 0 
L 0 3.5 
" style="stroke: #2c2f33; stroke-width: 0.8"/>
      </defs>
      <g>
       <use xlink:href="#mcc96136c31" x="63.841821" y="523.825377" style="fill: #2c2f33; stroke: #2c2f33; stroke-width: 0.8"/>
      </g>
     </g>
     <g id="text_1">
      <!-- 0 -->
      <g style="fill: #2c2f33" transform="translate(61.146509 538.228502) scale(0.1 -0.1)">
       <defs>
        <path id="SegoeUI-30" d="M 3188 2259 
Q 3188 1697 3086 1262 
Q 2984 828 2792 529 
Q 2600 231 2320 76 
Q 2041 -78 1684 -78 
Q 1347 -78 1083 70 
Q 819 219 637 503 
Q 456 788 362 1202 
Q 269 1616 269 2150 
Q 269 2738 367 3188 
Q 466 3638 656 3942 
Q 847 4247 1130 4401 
Q 1413 4556 1778 4556 
Q 3188 4556 3188 2259 
z
M 2663 2209 
Q 2663 4122 1753 4122 
Q 794 4122 794 2175 
Q 794 359 1734 359 
Q 2663 359 2663 2209 
z
" transform="scale(0.015625)"/>
       </defs>
       <use xlink:href="#SegoeUI-30"/>
      </g>
     </g>
    </g>
    <g id="xtick_2">
     <g id="line2d_3">
      <path d="M 122.997338 523.825377 
L 122.997338 80.158998 
" clip-path="url(#p2f2138e790)" style="fill: none; stroke-dasharray: 2.96,1.28; stroke-dashoffset: 0; stroke: #9ca3af; stroke-opacity: 0.3; stroke-width: 0.8"/>
     </g>
     <g id="line2d_4">
      <g>
       <use xlink:href="#mcc96136c31" x="122.997338" y="523.825377" style="fill: #2c2f33; stroke: #2c2f33; stroke-width: 0.8"/>
      </g>
     </g>
     <g id="text_2">
      <!-- 1 -->
      <g style="fill: #2c2f33" transform="translate(120.302026 538.228502) scale(0.1 -0.1)">
       <defs>
        <path id="SegoeUI-31" d="M 2263 0 
L 1750 0 
L 1750 3872 
Q 1691 3813 1577 3736 
Q 1463 3659 1320 3584 
Q 1178 3509 1020 3443 
Q 863 3378 713 3341 
L 713 3859 
Q 881 3906 1070 3986 
Q 1259 4066 1442 4164 
Q 1625 4263 1787 4370 
Q 1950 4478 2069 4581 
L 2263 4581 
L 2263 0 
z
" transform="scale(0.015625)"/>
       </defs>
       <use xlink:href="#SegoeUI-31"/>
      </g>
     </g>
    </g>
    <g id="xtick_3">
     <g id="line2d_5">
      <path d="M 182.152856 523.825377 
L 182.152856 80.158998 
" clip-path="url(#p2f2138e790)" style="fill: none; stroke-dasharray: 2.96,1.28; stroke-dashoffset: 0; stroke: #9ca3af; stroke-opacity: 0.3; stroke-width: 0.8"/>
     </g>
     <g id="line2d_6">
      <g>
       <use xlink:href="#mcc96136c31" x="182.152856" y="523.825377" style="fill: #2c2f33; stroke: #2c2f33; stroke-width: 0.8"/>
      </g>
     </g>
     <g id="text_3">
      <!-- 2 -->
      <g style="fill: #2c2f33" transform="translate(179.457543 538.228502) scale(0.1 -0.1)">
       <defs>
        <path id="SegoeUI-32" d="M 2413 3306 
Q 2413 3513 2348 3666 
Q 2284 3819 2173 3920 
Q 2063 4022 1913 4072 
Q 1763 4122 1588 4122 
Q 1438 4122 1294 4081 
Q 1150 4041 1014 3969 
Q 878 3897 751 3797 
Q 625 3697 516 3575 
L 516 4125 
Q 731 4334 998 4445 
Q 1266 4556 1650 4556 
Q 1925 4556 2159 4476 
Q 2394 4397 2566 4244 
Q 2738 4091 2836 3866 
Q 2934 3641 2934 3350 
Q 2934 3084 2873 2868 
Q 2813 2653 2689 2462 
Q 2566 2272 2378 2097 
Q 2191 1922 1938 1741 
Q 1622 1516 1417 1356 
Q 1213 1197 1092 1058 
Q 972 919 923 780 
Q 875 641 875 459 
L 3106 459 
L 3106 0 
L 341 0 
L 341 222 
Q 341 509 403 728 
Q 466 947 609 1144 
Q 753 1341 986 1537 
Q 1219 1734 1556 1981 
Q 1800 2156 1964 2315 
Q 2128 2475 2228 2634 
Q 2328 2794 2370 2958 
Q 2413 3122 2413 3306 
z
" transform="scale(0.015625)"/>
       </defs>
       <use xlink:href="#SegoeUI-32"/>
      </g>
     </g>
    </g>
    <g id="xtick_4">
     <g id="line2d_7">
      <path d="M 241.308373 523.825377 
L 241.308373 80.158998 
" clip-path="url(#p2f2138e790)" style="fill: none; stroke-dasharray: 2.96,1.28; stroke-dashoffset: 0; stroke: #9ca3af; stroke-opacity: 0.3; stroke-width: 0.8"/>
     </g>
     <g id="line2d_8">
      <g>
       <use xlink:href="#mcc96136c31" x="241.308373" y="523.825377" style="fill: #2c2f33; stroke: #2c2f33; stroke-width: 0.8"/>
      </g>
     </g>
     <g id="text_4">
      <!-- 3 -->
      <g style="fill: #2c2f33" transform="translate(238.613061 538.228502) scale(0.1 -0.1)">
       <defs>
        <path id="SegoeUI-33" d="M 2978 1269 
Q 2978 966 2864 717 
Q 2750 469 2542 292 
Q 2334 116 2043 19 
Q 1753 -78 1403 -78 
Q 763 -78 384 166 
L 384 716 
Q 838 359 1422 359 
Q 1656 359 1845 418 
Q 2034 478 2170 590 
Q 2306 703 2379 862 
Q 2453 1022 2453 1222 
Q 2453 2100 1203 2100 
L 831 2100 
L 831 2534 
L 1184 2534 
Q 2291 2534 2291 3359 
Q 2291 4122 1447 4122 
Q 972 4122 556 3803 
L 556 4300 
Q 984 4556 1575 4556 
Q 1856 4556 2084 4478 
Q 2313 4400 2475 4259 
Q 2638 4119 2727 3922 
Q 2816 3725 2816 3488 
Q 2816 2603 1922 2350 
L 1922 2338 
Q 2150 2313 2344 2227 
Q 2538 2141 2678 2003 
Q 2819 1866 2898 1680 
Q 2978 1494 2978 1269 
z
" transform="scale(0.015625)"/>
       </defs>
       <use xlink:href="#SegoeUI-33"/>
      </g>
     </g>
    </g>
    <g id="xtick_5">
     <g id="line2d_9">
      <path d="M 300.46389 523.825377 
L 300.46389 80.158998 
" clip-path="url(#p2f2138e790)" style="fill: none; stroke-dasharray: 2.96,1.28; stroke-dashoffset: 0; stroke: #9ca3af; stroke-opacity: 0.3; stroke-width: 0.8"/>
     </g>
     <g id="line2d_10">
      <g>
       <use xlink:href="#mcc96136c31" x="300.46389" y="523.825377" style="fill: #2c2f33; stroke: #2c2f33; stroke-width: 0.8"/>
      </g>
     </g>
     <g id="text_5">
      <!-- 4 -->
      <g style="fill: #2c2f33" transform="translate(297.768578 538.228502) scale(0.1 -0.1)">
       <defs>
        <path id="SegoeUI-34" d="M 2656 4481 
L 2656 1522 
L 3231 1522 
L 3231 1053 
L 2656 1053 
L 2656 0 
L 2150 0 
L 2150 1053 
L 44 1053 
L 44 1497 
Q 338 1828 638 2204 
Q 938 2581 1211 2968 
Q 1484 3356 1717 3742 
Q 1950 4128 2109 4481 
L 2656 4481 
z
M 622 1522 
L 2150 1522 
L 2150 3716 
Q 1916 3306 1706 2984 
Q 1497 2663 1308 2400 
Q 1119 2138 947 1925 
Q 775 1713 622 1522 
z
" transform="scale(0.015625)"/>
       </defs>
       <use xlink:href="#SegoeUI-34"/>
      </g>
     </g>
    </g>
    <g id="xtick_6">
     <g id="line2d_11">
      <path d="M 359.619408 523.825377 
L 359.619408 80.158998 
" clip-path="url(#p2f2138e790)" style="fill: none; stroke-dasharray: 2.96,1.28; stroke-dashoffset: 0; stroke: #9ca3af; stroke-opacity: 0.3; stroke-width: 0.8"/>
     </g>
     <g id="line2d_12">
      <g>
       <use xlink:href="#mcc96136c31" x="359.619408" y="523.825377" style="fill: #2c2f33; stroke: #2c2f33; stroke-width: 0.8"/>
      </g>
     </g>
     <g id="text_6">
      <!-- 5 -->
      <g style="fill: #2c2f33" transform="translate(356.924095 538.228502) scale(0.1 -0.1)">
       <defs>
        <path id="SegoeUI-35" d="M 3028 1369 
Q 3028 1041 2915 775 
Q 2803 509 2595 318 
Q 2388 128 2094 25 
Q 1800 -78 1441 -78 
Q 816 -78 513 109 
L 513 653 
Q 969 359 1447 359 
Q 1691 359 1886 431 
Q 2081 503 2218 631 
Q 2356 759 2429 940 
Q 2503 1122 2503 1338 
Q 2503 1775 2209 2023 
Q 1916 2272 1356 2272 
Q 1266 2272 1166 2269 
Q 1066 2266 966 2261 
Q 866 2256 770 2250 
Q 675 2244 597 2234 
L 750 4481 
L 2822 4481 
L 2822 4019 
L 1194 4019 
L 1103 2703 
Q 1203 2709 1315 2714 
Q 1428 2719 1516 2719 
Q 1872 2719 2153 2625 
Q 2434 2531 2629 2357 
Q 2825 2184 2926 1932 
Q 3028 1681 3028 1369 
z
" transform="scale(0.015625)"/>
       </defs>
       <use xlink:href="#SegoeUI-35"/>
      </g>
     </g>
    </g>
    <g id="xtick_7">
     <g id="line2d_13">
      <path d="M 418.774925 523.825377 
L 418.774925 80.158998 
" clip-path="url(#p2f2138e790)" style="fill: none; stroke-dasharray: 2.96,1.28; stroke-dashoffset: 0; stroke: #9ca3af; stroke-opacity: 0.3; stroke-width: 0.8"/>
     </g>
     <g id="line2d_14">
      <g>
       <use xlink:href="#mcc96136c31" x="418.774925" y="523.825377" style="fill: #2c2f33; stroke: #2c2f33; stroke-width: 0.8"/>
      </g>
     </g>
     <g id="text_7">
      <!-- 6 -->
      <g style="fill: #2c2f33" transform="translate(416.079613 538.228502) scale(0.1 -0.1)">
       <defs>
        <path id="SegoeUI-36" d="M 3194 1422 
Q 3194 1094 3087 819 
Q 2981 544 2793 344 
Q 2606 144 2347 33 
Q 2088 -78 1784 -78 
Q 1447 -78 1180 62 
Q 913 203 727 467 
Q 541 731 444 1112 
Q 347 1494 347 1972 
Q 347 2556 476 3032 
Q 606 3509 845 3848 
Q 1084 4188 1421 4372 
Q 1759 4556 2175 4556 
Q 2638 4556 2919 4428 
L 2919 3944 
Q 2572 4122 2188 4122 
Q 1888 4122 1647 3987 
Q 1406 3853 1234 3608 
Q 1063 3363 970 3016 
Q 878 2669 878 2244 
L 891 2244 
Q 1200 2803 1913 2803 
Q 2206 2803 2442 2703 
Q 2678 2603 2845 2420 
Q 3013 2238 3103 1984 
Q 3194 1731 3194 1422 
z
M 2669 1356 
Q 2669 1591 2609 1778 
Q 2550 1966 2439 2097 
Q 2328 2228 2165 2298 
Q 2003 2369 1797 2369 
Q 1606 2369 1443 2297 
Q 1281 2225 1162 2101 
Q 1044 1978 976 1814 
Q 909 1650 909 1466 
Q 909 1234 975 1032 
Q 1041 831 1159 681 
Q 1278 531 1442 445 
Q 1606 359 1806 359 
Q 2000 359 2159 432 
Q 2319 506 2431 637 
Q 2544 769 2606 951 
Q 2669 1134 2669 1356 
z
" transform="scale(0.015625)"/>
       </defs>
       <use xlink:href="#SegoeUI-36"/>
      </g>
     </g>
    </g>
    <g id="xtick_8">
     <g id="line2d_15">
      <path d="M 477.930442 523.825377 
L 477.930442 80.158998 
" clip-path="url(#p2f2138e790)" style="fill: none; stroke-dasharray: 2.96,1.28; stroke-dashoffset: 0; stroke: #9ca3af; stroke-opacity: 0.3; stroke-width: 0.8"/>
     </g>
     <g id="line2d_16">
      <g>
       <use xlink:href="#mcc96136c31" x="477.930442" y="523.825377" style="fill: #2c2f33; stroke: #2c2f33; stroke-width: 0.8"/>
      </g>
     </g>
     <g id="text_8">
      <!-- 7 -->
      <g style="fill: #2c2f33" transform="translate(475.23513 538.228502) scale(0.1 -0.1)">
       <defs>
        <path id="SegoeUI-37" d="M 3156 4184 
Q 3053 4006 2908 3740 
Q 2763 3475 2600 3144 
Q 2438 2813 2269 2431 
Q 2100 2050 1953 1644 
Q 1806 1238 1695 820 
Q 1584 403 1534 0 
L 984 0 
Q 1041 400 1158 817 
Q 1275 1234 1423 1636 
Q 1572 2038 1737 2409 
Q 1903 2781 2059 3093 
Q 2216 3406 2345 3645 
Q 2475 3884 2553 4019 
L 306 4019 
L 306 4481 
L 3156 4481 
L 3156 4184 
z
" transform="scale(0.015625)"/>
       </defs>
       <use xlink:href="#SegoeUI-37"/>
      </g>
     </g>
    </g>
    <g id="xtick_9">
     <g id="line2d_17">
      <path d="M 537.08596 523.825377 
L 537.08596 80.158998 
" clip-path="url(#p2f2138e790)" style="fill: none; stroke-dasharray: 2.96,1.28; stroke-dashoffset: 0; stroke: #9ca3af; stroke-opacity: 0.3; stroke-width: 0.8"/>
     </g>
     <g id="line2d_18">
      <g>
       <use xlink:href="#mcc96136c31" x="537.08596" y="523.825377" style="fill: #2c2f33; stroke: #2c2f33; stroke-width: 0.8"/>
      </g>
     </g>
     <g id="text_9">
      <!-- 8 -->
      <g style="fill: #2c2f33" transform="translate(534.390647 538.228502) scale(0.1 -0.1)">
       <defs>
        <path id="SegoeUI-38" d="M 281 1250 
Q 281 1428 337 1608 
Q 394 1788 498 1944 
Q 603 2100 758 2228 
Q 913 2356 1109 2431 
Q 819 2594 647 2848 
Q 475 3103 475 3413 
Q 475 3659 570 3868 
Q 666 4078 834 4231 
Q 1003 4384 1234 4470 
Q 1466 4556 1734 4556 
Q 2006 4556 2237 4468 
Q 2469 4381 2637 4228 
Q 2806 4075 2900 3865 
Q 2994 3656 2994 3413 
Q 2994 3103 2822 2848 
Q 2650 2594 2366 2431 
Q 2559 2356 2712 2228 
Q 2866 2100 2970 1944 
Q 3075 1788 3131 1608 
Q 3188 1428 3188 1250 
Q 3188 956 3081 712 
Q 2975 469 2783 295 
Q 2591 122 2323 25 
Q 2056 -72 1734 -72 
Q 1416 -72 1150 25 
Q 884 122 690 295 
Q 497 469 389 712 
Q 281 956 281 1250 
z
M 838 1294 
Q 838 1084 902 915 
Q 966 747 1083 628 
Q 1200 509 1367 445 
Q 1534 381 1738 381 
Q 1934 381 2100 447 
Q 2266 513 2386 631 
Q 2506 750 2573 919 
Q 2641 1088 2641 1294 
Q 2641 1481 2577 1645 
Q 2513 1809 2394 1934 
Q 2275 2059 2109 2131 
Q 1944 2203 1738 2203 
Q 1544 2203 1380 2136 
Q 1216 2069 1095 1948 
Q 975 1828 906 1661 
Q 838 1494 838 1294 
z
M 997 3372 
Q 997 3213 1055 3077 
Q 1113 2941 1214 2839 
Q 1316 2738 1450 2680 
Q 1584 2622 1738 2622 
Q 1891 2622 2027 2681 
Q 2163 2741 2263 2842 
Q 2363 2944 2422 3080 
Q 2481 3216 2481 3372 
Q 2481 3534 2423 3671 
Q 2366 3809 2266 3909 
Q 2166 4009 2030 4067 
Q 1894 4125 1738 4125 
Q 1572 4125 1436 4065 
Q 1300 4006 1201 3904 
Q 1103 3803 1050 3665 
Q 997 3528 997 3372 
z
" transform="scale(0.015625)"/>
       </defs>
       <use xlink:href="#SegoeUI-38"/>
      </g>
     </g>
    </g>
    <g id="text_10">
     <!-- x -->
     <g style="fill: #2c2f33" transform="translate(283.150167 552.67194) scale(0.11 -0.11)">
      <defs>
       <path id="SegoeUI-78" d="M 2856 3200 
L 1781 1581 
L 2838 0 
L 2241 0 
L 1613 1038 
Q 1553 1134 1472 1281 
L 1459 1281 
Q 1444 1253 1313 1038 
L 672 0 
L 81 0 
L 1172 1569 
L 128 3200 
L 725 3200 
L 1344 2106 
Q 1413 1984 1478 1856 
L 1491 1856 
L 2291 3200 
L 2856 3200 
z
" transform="scale(0.015625)"/>
      </defs>
      <use xlink:href="#SegoeUI-78"/>
     </g>
    </g>
   </g>
   <g id="matplotlib.axis_2">
    <g id="ytick_1">
     <g id="line2d_19">
      <path d="M 34.264063 494.247619 
L 537.08596 494.247619 
" clip-path="url(#p2f2138e790)" style="fill: none; stroke-dasharray: 2.96,1.28; stroke-dashoffset: 0; stroke: #9ca3af; stroke-opacity: 0.3; stroke-width: 0.8"/>
     </g>
     <g id="line2d_20">
      <defs>
       <path id="m579ee3e73b" d="M 0 0 
L -3.5 0 
" style="stroke: #2c2f33; stroke-width: 0.8"/>
      </defs>
      <g>
       <use xlink:href="#m579ee3e73b" x="34.264063" y="494.247619" style="fill: #2c2f33; stroke: #2c2f33; stroke-width: 0.8"/>
      </g>
     </g>
     <g id="text_11">
      <!-- 0 -->
      <g style="fill: #2c2f33" transform="translate(21.873438 497.949181) scale(0.1 -0.1)">
       <use xlink:href="#SegoeUI-30"/>
      </g>
     </g>
    </g>
    <g id="ytick_2">
     <g id="line2d_21">
      <path d="M 34.264063 435.092101 
L 537.08596 435.092101 
" clip-path="url(#p2f2138e790)" style="fill: none; stroke-dasharray: 2.96,1.28; stroke-dashoffset: 0; stroke: #9ca3af; stroke-opacity: 0.3; stroke-width: 0.8"/>
     </g>
     <g id="line2d_22">
      <g>
       <use xlink:href="#m579ee3e73b" x="34.264063" y="435.092101" style="fill: #2c2f33; stroke: #2c2f33; stroke-width: 0.8"/>
      </g>
     </g>
     <g id="text_12">
      <!-- 1 -->
      <g style="fill: #2c2f33" transform="translate(21.873438 438.793664) scale(0.1 -0.1)">
       <use xlink:href="#SegoeUI-31"/>
      </g>
     </g>
    </g>
    <g id="ytick_3">
     <g id="line2d_23">
      <path d="M 34.264063 375.936584 
L 537.08596 375.936584 
" clip-path="url(#p2f2138e790)" style="fill: none; stroke-dasharray: 2.96,1.28; stroke-dashoffset: 0; stroke: #9ca3af; stroke-opacity: 0.3; stroke-width: 0.8"/>
     </g>
     <g id="line2d_24">
      <g>
       <use xlink:href="#m579ee3e73b" x="34.264063" y="375.936584" style="fill: #2c2f33; stroke: #2c2f33; stroke-width: 0.8"/>
      </g>
     </g>
     <g id="text_13">
      <!-- 2 -->
      <g style="fill: #2c2f33" transform="translate(21.873438 379.638147) scale(0.1 -0.1)">
       <use xlink:href="#SegoeUI-32"/>
      </g>
     </g>
    </g>
    <g id="ytick_4">
     <g id="line2d_25">
      <path d="M 34.264063 316.781067 
L 537.08596 316.781067 
" clip-path="url(#p2f2138e790)" style="fill: none; stroke-dasharray: 2.96,1.28; stroke-dashoffset: 0; stroke: #9ca3af; stroke-opacity: 0.3; stroke-width: 0.8"/>
     </g>
     <g id="line2d_26">
      <g>
       <use xlink:href="#m579ee3e73b" x="34.264063" y="316.781067" style="fill: #2c2f33; stroke: #2c2f33; stroke-width: 0.8"/>
      </g>
     </g>
     <g id="text_14">
      <!-- 3 -->
      <g style="fill: #2c2f33" transform="translate(21.873438 320.482629) scale(0.1 -0.1)">
       <use xlink:href="#SegoeUI-33"/>
      </g>
     </g>
    </g>
    <g id="ytick_5">
     <g id="line2d_27">
      <path d="M 34.264063 257.62555 
L 537.08596 257.62555 
" clip-path="url(#p2f2138e790)" style="fill: none; stroke-dasharray: 2.96,1.28; stroke-dashoffset: 0; stroke: #9ca3af; stroke-opacity: 0.3; stroke-width: 0.8"/>
     </g>
     <g id="line2d_28">
      <g>
       <use xlink:href="#m579ee3e73b" x="34.264063" y="257.62555" style="fill: #2c2f33; stroke: #2c2f33; stroke-width: 0.8"/>
      </g>
     </g>
     <g id="text_15">
      <!-- 4 -->
      <g style="fill: #2c2f33" transform="translate(21.873438 261.327112) scale(0.1 -0.1)">
       <use xlink:href="#SegoeUI-34"/>
      </g>
     </g>
    </g>
    <g id="ytick_6">
     <g id="line2d_29">
      <path d="M 34.264063 198.470032 
L 537.08596 198.470032 
" clip-path="url(#p2f2138e790)" style="fill: none; stroke-dasharray: 2.96,1.28; stroke-dashoffset: 0; stroke: #9ca3af; stroke-opacity: 0.3; stroke-width: 0.8"/>
     </g>
     <g id="line2d_30">
      <g>
       <use xlink:href="#m579ee3e73b" x="34.264063" y="198.470032" style="fill: #2c2f33; stroke: #2c2f33; stroke-width: 0.8"/>
      </g>
     </g>
     <g id="text_16">
      <!-- 5 -->
      <g style="fill: #2c2f33" transform="translate(21.873438 202.171595) scale(0.1 -0.1)">
       <use xlink:href="#SegoeUI-35"/>
      </g>
     </g>
    </g>
    <g id="ytick_7">
     <g id="line2d_31">
      <path d="M 34.264063 139.314515 
L 537.08596 139.314515 
" clip-path="url(#p2f2138e790)" style="fill: none; stroke-dasharray: 2.96,1.28; stroke-dashoffset: 0; stroke: #9ca3af; stroke-opacity: 0.3; stroke-width: 0.8"/>
     </g>
     <g id="line2d_32">
      <g>
       <use xlink:href="#m579ee3e73b" x="34.264063" y="139.314515" style="fill: #2c2f33; stroke: #2c2f33; stroke-width: 0.8"/>
      </g>
     </g>
     <g id="text_17">
      <!-- 6 -->
      <g style="fill: #2c2f33" transform="translate(21.873438 143.016077) scale(0.1 -0.1)">
       <use xlink:href="#SegoeUI-36"/>
      </g>
     </g>
    </g>
    <g id="ytick_8">
     <g id="line2d_33">
      <path d="M 34.264063 80.158998 
L 537.08596 80.158998 
" clip-path="url(#p2f2138e790)" style="fill: none; stroke-dasharray: 2.96,1.28; stroke-dashoffset: 0; stroke: #9ca3af; stroke-opacity: 0.3; stroke-width: 0.8"/>
     </g>
     <g id="line2d_34">
      <g>
       <use xlink:href="#m579ee3e73b" x="34.264063" y="80.158998" style="fill: #2c2f33; stroke: #2c2f33; stroke-width: 0.8"/>
      </g>
     </g>
     <g id="text_18">
      <!-- 7 -->
      <g style="fill: #2c2f33" transform="translate(21.873438 83.86056) scale(0.1 -0.1)">
       <use xlink:href="#SegoeUI-37"/>
      </g>
     </g>
    </g>
    <g id="text_19">
     <!-- y -->
     <g style="fill: #2c2f33" transform="translate(15.285 304.653672) rotate(-90) scale(0.11 -0.11)">
      <defs>
       <path id="SegoeUI-79" d="M 3066 3200 
L 1594 -513 
Q 1200 -1506 488 -1506 
Q 288 -1506 153 -1466 
L 153 -1006 
Q 319 -1063 456 -1063 
Q 844 -1063 1038 -600 
L 1294 6 
L 44 3200 
L 613 3200 
L 1478 738 
Q 1494 691 1544 494 
L 1563 494 
Q 1578 569 1625 731 
L 2534 3200 
L 3066 3200 
z
" transform="scale(0.015625)"/>
      </defs>
      <use xlink:href="#SegoeUI-79"/>
     </g>
    </g>
   </g>
   <g id="line2d_35">
    <path d="M 34.264063 494.247619 
L 537.08596 494.247619 
" clip-path="url(#p2f2138e790)" style="fill: none; stroke: #9ca3af; stroke-linecap: square"/>
   </g>
   <g id="line2d_36">
    <path d="M 63.841821 523.825377 
L 63.841821 80.158998 
" clip-path="url(#p2f2138e790)" style="fill: none; stroke: #9ca3af; stroke-linecap: square"/>
   </g>
   <g id="line2d_37">
    <path d="M 122.997338 435.092101 
L 418.774925 435.092101 
" clip-path="url(#p2f2138e790)" style="fill: none; stroke-dasharray: 7.4,3.2; stroke-dashoffset: 0; stroke: #4b5563; stroke-width: 2"/>
   </g>
   <g id="line2d_38">
    <path d="M 418.774925 435.092101 
L 418.774925 198.470032 
" clip-path="url(#p2f2138e790)" style="fill: none; stroke-dasharray: 7.4,3.2; stroke-dashoffset: 0; stroke: #e12885; stroke-width: 2"/>
   </g>
   <g id="line2d_39">
    <path d="M 401.02827 435.092101 
L 401.02827 417.345446 
L 418.774925 417.345446 
" clip-path="url(#p2f2138e790)" style="fill: none; stroke: #6b7280; stroke-linecap: square"/>
   </g>
   <g id="line2d_40">
    <path d="M 122.997338 494.247619 
L 122.997338 435.092101 
" clip-path="url(#p2f2138e790)" style="fill: none; stroke-dasharray: 1,1.65; stroke-dashoffset: 0; stroke: #d1d5db"/>
   </g>
   <g id="line2d_41">
    <path d="M 63.841821 435.092101 
L 122.997338 435.092101 
" clip-path="url(#p2f2138e790)" style="fill: none; stroke-dasharray: 1,1.65; stroke-dashoffset: 0; stroke: #d1d5db"/>
   </g>
   <g id="line2d_42">
    <path d="M 418.774925 494.247619 
L 418.774925 198.470032 
" clip-path="url(#p2f2138e790)" style="fill: none; stroke-dasharray: 1,1.65; stroke-dashoffset: 0; stroke: #d1d5db"/>
   </g>
   <g id="line2d_43">
    <path d="M 63.841821 198.470032 
L 418.774925 198.470032 
" clip-path="url(#p2f2138e790)" style="fill: none; stroke-dasharray: 1,1.65; stroke-dashoffset: 0; stroke: #d1d5db"/>
   </g>
   <g id="patch_3">
    <path d="M 34.264063 523.825377 
L 34.264063 80.158998 
" style="fill: none; stroke: #4b5563; stroke-width: 0.8; stroke-linejoin: miter; stroke-linecap: square"/>
   </g>
   <g id="patch_4">
    <path d="M 34.264063 523.825377 
L 537.08596 523.825377 
" style="fill: none; stroke: #4b5563; stroke-width: 0.8; stroke-linejoin: miter; stroke-linecap: square"/>
   </g>
   <g id="line2d_44">
    <path d="M 122.997338 435.092101 
L 418.774925 198.470032 
" clip-path="url(#p2f2138e790)" style="fill: none; stroke: #39c5bb; stroke-width: 3; stroke-linecap: square"/>
   </g>
   <g id="text_20">
    <!-- $P_1(x_1, y_1)$ -->
    <g style="fill: #39c5bb" transform="translate(99.335132 411.429895) scale(0.11 -0.11)">
     <defs>
      <path id="DejaVuSans-Oblique-50" d="M 1081 4666 
L 2541 4666 
Q 3178 4666 3512 4369 
Q 3847 4072 3847 3500 
Q 3847 2731 3353 2303 
Q 2859 1875 1966 1875 
L 1172 1875 
L 806 0 
L 172 0 
L 1081 4666 
z
M 1613 4147 
L 1275 2394 
L 2069 2394 
Q 2606 2394 2893 2669 
Q 3181 2944 3181 3456 
Q 3181 3784 2986 3965 
Q 2791 4147 2438 4147 
L 1613 4147 
z
" transform="scale(0.015625)"/>
      <path id="DejaVuSans-31" d="M 794 531 
L 1825 531 
L 1825 4091 
L 703 3866 
L 703 4441 
L 1819 4666 
L 2450 4666 
L 2450 531 
L 3481 531 
L 3481 0 
L 794 0 
L 794 531 
z
" transform="scale(0.015625)"/>
      <path id="DejaVuSans-28" d="M 1984 4856 
Q 1566 4138 1362 3434 
Q 1159 2731 1159 2009 
Q 1159 1288 1364 580 
Q 1569 -128 1984 -844 
L 1484 -844 
Q 1016 -109 783 600 
Q 550 1309 550 2009 
Q 550 2706 781 3412 
Q 1013 4119 1484 4856 
L 1984 4856 
z
" transform="scale(0.015625)"/>
      <path id="DejaVuSans-Oblique-78" d="M 3841 3500 
L 2234 1784 
L 3219 0 
L 2559 0 
L 1819 1388 
L 531 0 
L -166 0 
L 1556 1844 
L 641 3500 
L 1300 3500 
L 1972 2234 
L 3144 3500 
L 3841 3500 
z
" transform="scale(0.015625)"/>
      <path id="DejaVuSans-2c" d="M 750 794 
L 1409 794 
L 1409 256 
L 897 -744 
L 494 -744 
L 750 256 
L 750 794 
z
" transform="scale(0.015625)"/>
      <path id="DejaVuSans-Oblique-79" d="M 1588 -325 
Q 1188 -997 936 -1164 
Q 684 -1331 294 -1331 
L -159 -1331 
L -63 -850 
L 269 -850 
Q 509 -850 678 -719 
Q 847 -588 1056 -206 
L 1234 128 
L 459 3500 
L 1069 3500 
L 1650 819 
L 3256 3500 
L 3859 3500 
L 1588 -325 
z
" transform="scale(0.015625)"/>
      <path id="DejaVuSans-29" d="M 513 4856 
L 1013 4856 
Q 1481 4119 1714 3412 
Q 1947 2706 1947 2009 
Q 1947 1309 1714 600 
Q 1481 -109 1013 -844 
L 513 -844 
Q 928 -128 1133 580 
Q 1338 1288 1338 2009 
Q 1338 2731 1133 3434 
Q 928 4138 513 4856 
z
" transform="scale(0.015625)"/>
     </defs>
     <use xlink:href="#DejaVuSans-Oblique-50" transform="translate(0 0.125)"/>
     <use xlink:href="#DejaVuSans-31" transform="translate(60.302734 -16.28125) scale(0.7)"/>
     <use xlink:href="#DejaVuSans-28" transform="translate(107.573242 0.125)"/>
     <use xlink:href="#DejaVuSans-Oblique-78" transform="translate(146.586914 0.125)"/>
     <use xlink:href="#DejaVuSans-31" transform="translate(205.766602 -16.28125) scale(0.7)"/>
     <use xlink:href="#DejaVuSans-2c" transform="translate(253.037109 0.125)"/>
     <use xlink:href="#DejaVuSans-Oblique-79" transform="translate(304.306641 0.125)"/>
     <use xlink:href="#DejaVuSans-31" transform="translate(363.486328 -16.28125) scale(0.7)"/>
     <use xlink:href="#DejaVuSans-29" transform="translate(410.756836 0.125)"/>
    </g>
   </g>
   <g id="text_21">
    <!-- $P_2(x_2, y_2)$ -->
    <g style="fill: #39c5bb" transform="translate(430.606029 180.723377) scale(0.11 -0.11)">
     <defs>
      <path id="DejaVuSans-32" d="M 1228 531 
L 3431 531 
L 3431 0 
L 469 0 
L 469 531 
Q 828 903 1448 1529 
Q 2069 2156 2228 2338 
Q 2531 2678 2651 2914 
Q 2772 3150 2772 3378 
Q 2772 3750 2511 3984 
Q 2250 4219 1831 4219 
Q 1534 4219 1204 4116 
Q 875 4013 500 3803 
L 500 4441 
Q 881 4594 1212 4672 
Q 1544 4750 1819 4750 
Q 2544 4750 2975 4387 
Q 3406 4025 3406 3419 
Q 3406 3131 3298 2873 
Q 3191 2616 2906 2266 
Q 2828 2175 2409 1742 
Q 1991 1309 1228 531 
z
" transform="scale(0.015625)"/>
     </defs>
     <use xlink:href="#DejaVuSans-Oblique-50" transform="translate(0 0.125)"/>
     <use xlink:href="#DejaVuSans-32" transform="translate(60.302734 -16.28125) scale(0.7)"/>
     <use xlink:href="#DejaVuSans-28" transform="translate(107.573242 0.125)"/>
     <use xlink:href="#DejaVuSans-Oblique-78" transform="translate(146.586914 0.125)"/>
     <use xlink:href="#DejaVuSans-32" transform="translate(205.766602 -16.28125) scale(0.7)"/>
     <use xlink:href="#DejaVuSans-2c" transform="translate(253.037109 0.125)"/>
     <use xlink:href="#DejaVuSans-Oblique-79" transform="translate(304.306641 0.125)"/>
     <use xlink:href="#DejaVuSans-32" transform="translate(363.486328 -16.28125) scale(0.7)"/>
     <use xlink:href="#DejaVuSans-29" transform="translate(410.756836 0.125)"/>
    </g>
   </g>
   <g id="text_22">
    <!-- M (punto medio) -->
    <g style="fill: #f59e0b" transform="translate(282.717235 293.11886) scale(0.1 -0.1)">
     <defs>
      <path id="SegoeUI-Bold-4d" d="M 5619 0 
L 4622 0 
L 4622 2681 
Q 4622 3116 4659 3641 
L 4634 3641 
Q 4556 3228 4494 3047 
L 3444 0 
L 2619 0 
L 1550 3016 
Q 1506 3138 1409 3641 
L 1381 3641 
Q 1422 2978 1422 2478 
L 1422 0 
L 513 0 
L 513 4481 
L 1991 4481 
L 2906 1825 
Q 3016 1506 3066 1184 
L 3084 1184 
Q 3169 1556 3263 1831 
L 4178 4481 
L 5619 4481 
L 5619 0 
z
" transform="scale(0.015625)"/>
      <path id="SegoeUI-Bold-20" transform="scale(0.015625)"/>
      <path id="SegoeUI-Bold-28" d="M 2309 -1019 
L 1503 -1019 
Q 494 94 494 1716 
Q 494 3281 1503 4481 
L 2303 4481 
Q 1356 3225 1356 1716 
Q 1356 206 2309 -1019 
z
" transform="scale(0.015625)"/>
      <path id="SegoeUI-Bold-70" d="M 1416 372 
L 1403 372 
L 1403 -1472 
L 416 -1472 
L 416 3200 
L 1403 3200 
L 1403 2719 
L 1416 2719 
Q 1781 3278 2444 3278 
Q 3066 3278 3405 2851 
Q 3744 2425 3744 1691 
Q 3744 891 3348 406 
Q 2953 -78 2297 -78 
Q 1719 -78 1416 372 
z
M 1388 1684 
L 1388 1428 
Q 1388 1097 1563 887 
Q 1738 678 2022 678 
Q 2359 678 2545 939 
Q 2731 1200 2731 1678 
Q 2731 2522 2075 2522 
Q 1772 2522 1580 2292 
Q 1388 2063 1388 1684 
z
" transform="scale(0.015625)"/>
      <path id="SegoeUI-Bold-75" d="M 3456 0 
L 2472 0 
L 2472 488 
L 2456 488 
Q 2091 -78 1478 -78 
Q 366 -78 366 1269 
L 366 3200 
L 1350 3200 
L 1350 1356 
Q 1350 678 1888 678 
Q 2153 678 2312 864 
Q 2472 1050 2472 1369 
L 2472 3200 
L 3456 3200 
L 3456 0 
z
" transform="scale(0.015625)"/>
      <path id="SegoeUI-Bold-6e" d="M 3506 0 
L 2522 0 
L 2522 1778 
Q 2522 2522 1991 2522 
Q 1734 2522 1568 2325 
Q 1403 2128 1403 1825 
L 1403 0 
L 416 0 
L 416 3200 
L 1403 3200 
L 1403 2694 
L 1416 2694 
Q 1769 3278 2444 3278 
Q 3506 3278 3506 1959 
L 3506 0 
z
" transform="scale(0.015625)"/>
      <path id="SegoeUI-Bold-74" d="M 2350 38 
Q 2131 -78 1691 -78 
Q 647 -78 647 1006 
L 647 2472 
L 128 2472 
L 128 3200 
L 647 3200 
L 647 3891 
L 1631 4172 
L 1631 3200 
L 2350 3200 
L 2350 2472 
L 1631 2472 
L 1631 1178 
Q 1631 678 2028 678 
Q 2184 678 2350 769 
L 2350 38 
z
" transform="scale(0.015625)"/>
      <path id="SegoeUI-Bold-6f" d="M 1941 -78 
Q 1141 -78 683 370 
Q 225 819 225 1588 
Q 225 2381 700 2829 
Q 1175 3278 1984 3278 
Q 2781 3278 3234 2829 
Q 3688 2381 3688 1644 
Q 3688 847 3220 384 
Q 2753 -78 1941 -78 
z
M 1966 2522 
Q 1616 2522 1422 2281 
Q 1228 2041 1228 1600 
Q 1228 678 1972 678 
Q 2681 678 2681 1625 
Q 2681 2522 1966 2522 
z
" transform="scale(0.015625)"/>
      <path id="SegoeUI-Bold-6d" d="M 5497 0 
L 4513 0 
L 4513 1825 
Q 4513 2522 4000 2522 
Q 3756 2522 3603 2312 
Q 3450 2103 3450 1791 
L 3450 0 
L 2463 0 
L 2463 1844 
Q 2463 2522 1959 2522 
Q 1706 2522 1554 2322 
Q 1403 2122 1403 1778 
L 1403 0 
L 416 0 
L 416 3200 
L 1403 3200 
L 1403 2700 
L 1416 2700 
Q 1569 2956 1845 3117 
Q 2122 3278 2450 3278 
Q 3128 3278 3378 2681 
Q 3744 3278 4453 3278 
Q 5497 3278 5497 1991 
L 5497 0 
z
" transform="scale(0.015625)"/>
      <path id="SegoeUI-Bold-65" d="M 3291 1319 
L 1203 1319 
Q 1253 622 2081 622 
Q 2609 622 3009 872 
L 3009 159 
Q 2566 -78 1856 -78 
Q 1081 -78 653 351 
Q 225 781 225 1550 
Q 225 2347 687 2812 
Q 1150 3278 1825 3278 
Q 2525 3278 2908 2862 
Q 3291 2447 3291 1734 
L 3291 1319 
z
M 2375 1925 
Q 2375 2613 1819 2613 
Q 1581 2613 1407 2416 
Q 1234 2219 1197 1925 
L 2375 1925 
z
" transform="scale(0.015625)"/>
      <path id="SegoeUI-Bold-64" d="M 3547 0 
L 2559 0 
L 2559 441 
L 2547 441 
Q 2209 -78 1556 -78 
Q 956 -78 590 345 
Q 225 769 225 1528 
Q 225 2322 628 2800 
Q 1031 3278 1684 3278 
Q 2303 3278 2547 2834 
L 2559 2834 
L 2559 4738 
L 3547 4738 
L 3547 0 
z
M 2578 1556 
L 2578 1797 
Q 2578 2109 2397 2315 
Q 2216 2522 1925 2522 
Q 1597 2522 1412 2264 
Q 1228 2006 1228 1556 
Q 1228 1134 1406 906 
Q 1584 678 1900 678 
Q 2200 678 2389 918 
Q 2578 1159 2578 1556 
z
" transform="scale(0.015625)"/>
      <path id="SegoeUI-Bold-69" d="M 916 3706 
Q 666 3706 506 3854 
Q 347 4003 347 4219 
Q 347 4441 506 4581 
Q 666 4722 916 4722 
Q 1169 4722 1326 4581 
Q 1484 4441 1484 4219 
Q 1484 3994 1326 3850 
Q 1169 3706 916 3706 
z
M 1403 0 
L 416 0 
L 416 3200 
L 1403 3200 
L 1403 0 
z
" transform="scale(0.015625)"/>
      <path id="SegoeUI-Bold-29" d="M 856 -1019 
L 56 -1019 
Q 1013 200 1013 1716 
Q 1013 3219 56 4481 
L 863 4481 
Q 1875 3278 1875 1716 
Q 1875 106 856 -1019 
z
" transform="scale(0.015625)"/>
     </defs>
     <use xlink:href="#SegoeUI-Bold-4d"/>
     <use xlink:href="#SegoeUI-Bold-20" x="95.703125"/>
     <use xlink:href="#SegoeUI-Bold-28" x="123.291016"/>
     <use xlink:href="#SegoeUI-Bold-70" x="160.205078"/>
     <use xlink:href="#SegoeUI-Bold-75" x="222.216797"/>
     <use xlink:href="#SegoeUI-Bold-6e" x="282.714844"/>
     <use xlink:href="#SegoeUI-Bold-74" x="343.212891"/>
     <use xlink:href="#SegoeUI-Bold-6f" x="381.753906"/>
     <use xlink:href="#SegoeUI-Bold-20" x="442.886719"/>
     <use xlink:href="#SegoeUI-Bold-6d" x="470.474609"/>
     <use xlink:href="#SegoeUI-Bold-65" x="562.076172"/>
     <use xlink:href="#SegoeUI-Bold-64" x="616.177734"/>
     <use xlink:href="#SegoeUI-Bold-69" x="678.091797"/>
     <use xlink:href="#SegoeUI-Bold-6f" x="706.509766"/>
     <use xlink:href="#SegoeUI-Bold-29" x="767.642578"/>
    </g>
   </g>
   <g id="text_23">
    <!-- $\Delta x = x_2 - x_1$ -->
    <g style="fill: #4b5563" transform="translate(241.586132 464.66986) scale(0.1 -0.1)">
     <defs>
      <path id="DejaVuSans-394" d="M 2188 4044 
L 906 525 
L 3472 525 
L 2188 4044 
z
M 50 0 
L 1831 4666 
L 2547 4666 
L 4325 0 
L 50 0 
z
" transform="scale(0.015625)"/>
      <path id="DejaVuSans-3d" d="M 678 2906 
L 4684 2906 
L 4684 2381 
L 678 2381 
L 678 2906 
z
M 678 1631 
L 4684 1631 
L 4684 1100 
L 678 1100 
L 678 1631 
z
" transform="scale(0.015625)"/>
      <path id="DejaVuSans-2212" d="M 678 2272 
L 4684 2272 
L 4684 1741 
L 678 1741 
L 678 2272 
z
" transform="scale(0.015625)"/>
     </defs>
     <use xlink:href="#DejaVuSans-394" transform="translate(0 0.09375)"/>
     <use xlink:href="#DejaVuSans-Oblique-78" transform="translate(68.408203 0.09375)"/>
     <use xlink:href="#DejaVuSans-3d" transform="translate(147.070312 0.09375)"/>
     <use xlink:href="#DejaVuSans-Oblique-78" transform="translate(250.341797 0.09375)"/>
     <use xlink:href="#DejaVuSans-32" transform="translate(309.521484 -16.3125) scale(0.7)"/>
     <use xlink:href="#DejaVuSans-2212" transform="translate(376.274414 0.09375)"/>
     <use xlink:href="#DejaVuSans-Oblique-78" transform="translate(479.545898 0.09375)"/>
     <use xlink:href="#DejaVuSans-31" transform="translate(538.725586 -16.3125) scale(0.7)"/>
    </g>
   </g>
   <g id="text_24">
    <!-- $\Delta y = y_2 - y_1$ -->
    <g style="fill: #e12885" transform="translate(436.52158 316.781067) scale(0.1 -0.1)">
     <use xlink:href="#DejaVuSans-394" transform="translate(0 0.09375)"/>
     <use xlink:href="#DejaVuSans-Oblique-79" transform="translate(68.408203 0.09375)"/>
     <use xlink:href="#DejaVuSans-3d" transform="translate(147.070312 0.09375)"/>
     <use xlink:href="#DejaVuSans-Oblique-79" transform="translate(250.341797 0.09375)"/>
     <use xlink:href="#DejaVuSans-32" transform="translate(309.521484 -16.3125) scale(0.7)"/>
     <use xlink:href="#DejaVuSans-2212" transform="translate(376.274414 0.09375)"/>
     <use xlink:href="#DejaVuSans-Oblique-79" transform="translate(479.545898 0.09375)"/>
     <use xlink:href="#DejaVuSans-31" transform="translate(538.725586 -16.3125) scale(0.7)"/>
    </g>
   </g>
   <g id="text_25">
    <!-- d -->
    <g style="fill: #39c5bb" transform="translate(223.561718 293.11886) scale(0.14 -0.14)">
     <use xlink:href="#SegoeUI-Bold-64"/>
    </g>
   </g>
   <g id="text_26">
    <!-- Distancia y Punto Medio -->
    <g style="fill: #2c2f33" transform="translate(222.445636 74.158998) scale(0.11 -0.11)">
     <defs>
      <path id="SegoeUI-Bold-44" d="M 513 0 
L 513 4481 
L 2100 4481 
Q 4488 4481 4488 2297 
Q 4488 1250 3836 625 
Q 3184 0 2100 0 
L 513 0 
z
M 1522 3659 
L 1522 819 
L 2022 819 
Q 2678 819 3051 1212 
Q 3425 1606 3425 2284 
Q 3425 2925 3054 3292 
Q 2684 3659 2016 3659 
L 1522 3659 
z
" transform="scale(0.015625)"/>
      <path id="SegoeUI-Bold-73" d="M 206 84 
L 206 884 
Q 450 738 692 666 
Q 934 594 1150 594 
Q 1413 594 1564 666 
Q 1716 738 1716 884 
Q 1716 978 1647 1040 
Q 1578 1103 1470 1150 
Q 1363 1197 1234 1234 
Q 1106 1272 988 1319 
Q 797 1391 651 1473 
Q 506 1556 407 1665 
Q 309 1775 257 1919 
Q 206 2063 206 2259 
Q 206 2528 323 2722 
Q 441 2916 636 3039 
Q 831 3163 1082 3220 
Q 1334 3278 1606 3278 
Q 1819 3278 2037 3245 
Q 2256 3213 2469 3150 
L 2469 2388 
Q 2281 2497 2067 2551 
Q 1853 2606 1647 2606 
Q 1550 2606 1464 2589 
Q 1378 2572 1312 2539 
Q 1247 2506 1209 2454 
Q 1172 2403 1172 2338 
Q 1172 2250 1228 2187 
Q 1284 2125 1375 2079 
Q 1466 2034 1577 1998 
Q 1688 1963 1797 1925 
Q 1994 1856 2153 1775 
Q 2313 1694 2427 1584 
Q 2541 1475 2602 1328 
Q 2663 1181 2663 978 
Q 2663 694 2539 492 
Q 2416 291 2211 164 
Q 2006 38 1739 -20 
Q 1472 -78 1184 -78 
Q 656 -78 206 84 
z
" transform="scale(0.015625)"/>
      <path id="SegoeUI-Bold-61" d="M 3078 0 
L 2144 0 
L 2144 459 
L 2131 459 
Q 1809 -78 1178 -78 
Q 713 -78 445 186 
Q 178 450 178 891 
Q 178 1822 1281 1966 
L 2150 2081 
Q 2150 2606 1581 2606 
Q 1009 2606 494 2266 
L 494 3009 
Q 700 3116 1058 3197 
Q 1416 3278 1709 3278 
Q 3078 3278 3078 1913 
L 3078 0 
z
M 2150 1300 
L 2150 1516 
L 1569 1441 
Q 1088 1378 1088 1006 
Q 1088 838 1205 730 
Q 1322 622 1522 622 
Q 1800 622 1975 814 
Q 2150 1006 2150 1300 
z
" transform="scale(0.015625)"/>
      <path id="SegoeUI-Bold-63" d="M 2841 116 
Q 2506 -78 1875 -78 
Q 1138 -78 681 369 
Q 225 816 225 1522 
Q 225 2338 714 2808 
Q 1203 3278 2022 3278 
Q 2588 3278 2841 3128 
L 2841 2291 
Q 2531 2522 2150 2522 
Q 1725 2522 1476 2273 
Q 1228 2025 1228 1588 
Q 1228 1163 1465 920 
Q 1703 678 2119 678 
Q 2488 678 2841 909 
L 2841 116 
z
" transform="scale(0.015625)"/>
      <path id="SegoeUI-Bold-79" d="M 3463 3200 
L 2163 -256 
Q 1694 -1503 750 -1503 
Q 391 -1503 159 -1422 
L 159 -634 
Q 356 -750 588 -750 
Q 969 -750 1119 -391 
L 1288 6 
L -13 3200 
L 1081 3200 
L 1678 1253 
Q 1734 1072 1766 825 
L 1778 825 
Q 1806 1006 1881 1247 
L 2484 3200 
L 3463 3200 
z
" transform="scale(0.015625)"/>
      <path id="SegoeUI-Bold-50" d="M 1522 1544 
L 1522 0 
L 513 0 
L 513 4481 
L 2094 4481 
Q 3788 4481 3788 3053 
Q 3788 2378 3302 1961 
Q 2816 1544 2003 1544 
L 1522 1544 
z
M 1522 3706 
L 1522 2309 
L 1919 2309 
Q 2725 2309 2725 3016 
Q 2725 3706 1919 3706 
L 1522 3706 
z
" transform="scale(0.015625)"/>
     </defs>
     <use xlink:href="#SegoeUI-Bold-44"/>
     <use xlink:href="#SegoeUI-Bold-69" x="73.730469"/>
     <use xlink:href="#SegoeUI-Bold-73" x="102.148438"/>
     <use xlink:href="#SegoeUI-Bold-74" x="146.142578"/>
     <use xlink:href="#SegoeUI-Bold-61" x="185.058594"/>
     <use xlink:href="#SegoeUI-Bold-6e" x="238.867188"/>
     <use xlink:href="#SegoeUI-Bold-63" x="299.365234"/>
     <use xlink:href="#SegoeUI-Bold-69" x="347.363281"/>
     <use xlink:href="#SegoeUI-Bold-61" x="375.78125"/>
     <use xlink:href="#SegoeUI-Bold-20" x="429.589844"/>
     <use xlink:href="#SegoeUI-Bold-79" x="457.177734"/>
     <use xlink:href="#SegoeUI-Bold-20" x="510.986328"/>
     <use xlink:href="#SegoeUI-Bold-50" x="538.574219"/>
     <use xlink:href="#SegoeUI-Bold-75" x="600"/>
     <use xlink:href="#SegoeUI-Bold-6e" x="660.498047"/>
     <use xlink:href="#SegoeUI-Bold-74" x="720.996094"/>
     <use xlink:href="#SegoeUI-Bold-6f" x="759.537109"/>
     <use xlink:href="#SegoeUI-Bold-20" x="820.669922"/>
     <use xlink:href="#SegoeUI-Bold-4d" x="848.257812"/>
     <use xlink:href="#SegoeUI-Bold-65" x="943.960938"/>
     <use xlink:href="#SegoeUI-Bold-64" x="998.0625"/>
     <use xlink:href="#SegoeUI-Bold-69" x="1059.976562"/>
     <use xlink:href="#SegoeUI-Bold-6f" x="1088.394531"/>
    </g>
   </g>
   <g id="line2d_45">
    <defs>
     <path id="m09586b399b" d="M 0 6 
C 1.591219 6 3.117479 5.367802 4.242641 4.242641 
C 5.367802 3.117479 6 1.591219 6 0 
C 6 -1.591219 5.367802 -3.117479 4.242641 -4.242641 
C 3.117479 -5.367802 1.591219 -6 0 -6 
C -1.591219 -6 -3.117479 -5.367802 -4.242641 -4.242641 
C -5.367802 -3.117479 -6 -1.591219 -6 0 
C -6 1.591219 -5.367802 3.117479 -4.242641 4.242641 
C -3.117479 5.367802 -1.591219 6 0 6 
z
" style="stroke: #39c5bb"/>
    </defs>
    <g clip-path="url(#p2f2138e790)">
     <use xlink:href="#m09586b399b" x="122.997338" y="435.092101" style="fill: #39c5bb; stroke: #39c5bb"/>
    </g>
   </g>
   <g id="line2d_46">
    <g clip-path="url(#p2f2138e790)">
     <use xlink:href="#m09586b399b" x="418.774925" y="198.470032" style="fill: #39c5bb; stroke: #39c5bb"/>
    </g>
   </g>
   <g id="line2d_47">
    <defs>
     <path id="mcad1e70de5" d="M -6 6 
L 6 6 
L 6 -6 
L -6 -6 
z
" style="stroke: #f59e0b; stroke-linejoin: miter"/>
    </defs>
    <g clip-path="url(#p2f2138e790)">
     <use xlink:href="#mcad1e70de5" x="270.886132" y="316.781067" style="fill: #f59e0b; stroke: #f59e0b; stroke-linejoin: miter"/>
    </g>
   </g>
  </g>
  <g id="axes_2">
   <g id="patch_5">
    <path d="M 602.75182 235.942428 
L 996.628973 235.942428 
L 996.628973 43.297295 
L 602.75182 43.297295 
z
" clip-path="url(#p911a39fe78)" style="fill: #eff6ff; stroke: #39c5bb; stroke-width: 2; stroke-linejoin: miter"/>
   </g>
   <g id="patch_6">
    <path d="M 602.75182 423.083414 
L 996.628973 423.083414 
L 996.628973 257.959014 
L 602.75182 257.959014 
z
" clip-path="url(#p911a39fe78)" style="fill: #fef3c7; stroke: #f59e0b; stroke-width: 2; stroke-linejoin: miter"/>
   </g>
   <g id="patch_7">
    <path d="M 602.75182 560.68708 
L 996.628973 560.68708 
L 996.628973 439.595854 
L 602.75182 439.595854 
z
" clip-path="url(#p911a39fe78)" style="fill: #f0fdf4; stroke: #1f2937; stroke-width: 1.5; stroke-linejoin: miter"/>
   </g>
   <g id="text_27">
    <!-- DISTANCIA ENTRE DOS PUNTOS -->
    <g style="fill: #39c5bb" transform="translate(715.871256 70.818028) scale(0.11 -0.11)">
     <defs>
      <path id="SegoeUI-Bold-49" d="M 1522 0 
L 513 0 
L 513 4481 
L 1522 4481 
L 1522 0 
z
" transform="scale(0.015625)"/>
      <path id="SegoeUI-Bold-53" d="M 306 172 
L 306 1172 
Q 578 944 897 830 
Q 1216 716 1541 716 
Q 1731 716 1873 750 
Q 2016 784 2111 845 
Q 2206 906 2253 989 
Q 2300 1072 2300 1169 
Q 2300 1300 2225 1403 
Q 2150 1506 2020 1593 
Q 1891 1681 1712 1762 
Q 1534 1844 1328 1928 
Q 803 2147 545 2462 
Q 288 2778 288 3225 
Q 288 3575 428 3826 
Q 569 4078 811 4240 
Q 1053 4403 1372 4479 
Q 1691 4556 2047 4556 
Q 2397 4556 2667 4514 
Q 2938 4472 3166 4384 
L 3166 3450 
Q 3053 3528 2920 3587 
Q 2788 3647 2647 3686 
Q 2506 3725 2367 3744 
Q 2228 3763 2103 3763 
Q 1931 3763 1790 3730 
Q 1650 3697 1553 3637 
Q 1456 3578 1403 3495 
Q 1350 3413 1350 3309 
Q 1350 3197 1409 3108 
Q 1469 3019 1578 2939 
Q 1688 2859 1844 2782 
Q 2000 2706 2197 2625 
Q 2466 2513 2680 2386 
Q 2894 2259 3047 2100 
Q 3200 1941 3281 1736 
Q 3363 1531 3363 1259 
Q 3363 884 3220 629 
Q 3078 375 2834 217 
Q 2591 59 2267 -9 
Q 1944 -78 1584 -78 
Q 1216 -78 883 -15 
Q 550 47 306 172 
z
" transform="scale(0.015625)"/>
      <path id="SegoeUI-Bold-54" d="M 3659 3659 
L 2381 3659 
L 2381 0 
L 1369 0 
L 1369 3659 
L 97 3659 
L 97 4481 
L 3659 4481 
L 3659 3659 
z
" transform="scale(0.015625)"/>
      <path id="SegoeUI-Bold-41" d="M 4453 0 
L 3353 0 
L 3034 997 
L 1441 997 
L 1125 0 
L 31 0 
L 1663 4481 
L 2859 4481 
L 4453 0 
z
M 2803 1772 
L 2322 3278 
Q 2269 3447 2247 3681 
L 2222 3681 
Q 2206 3484 2144 3291 
L 1656 1772 
L 2803 1772 
z
" transform="scale(0.015625)"/>
      <path id="SegoeUI-Bold-4e" d="M 4544 0 
L 3525 0 
L 1678 2816 
Q 1516 3063 1453 3188 
L 1441 3188 
Q 1466 2950 1466 2463 
L 1466 0 
L 513 0 
L 513 4481 
L 1600 4481 
L 3378 1753 
Q 3500 1569 3603 1388 
L 3616 1388 
Q 3591 1544 3591 2003 
L 3591 4481 
L 4544 4481 
L 4544 0 
z
" transform="scale(0.015625)"/>
      <path id="SegoeUI-Bold-43" d="M 3725 159 
Q 3234 -78 2444 -78 
Q 1413 -78 822 528 
Q 231 1134 231 2144 
Q 231 3219 895 3887 
Q 1559 4556 2619 4556 
Q 3275 4556 3725 4391 
L 3725 3419 
Q 3275 3688 2700 3688 
Q 2069 3688 1681 3291 
Q 1294 2894 1294 2216 
Q 1294 1566 1659 1180 
Q 2025 794 2644 794 
Q 3234 794 3725 1081 
L 3725 159 
z
" transform="scale(0.015625)"/>
      <path id="SegoeUI-Bold-45" d="M 3200 0 
L 513 0 
L 513 4481 
L 3097 4481 
L 3097 3659 
L 1522 3659 
L 1522 2663 
L 2988 2663 
L 2988 1844 
L 1522 1844 
L 1522 819 
L 3200 819 
L 3200 0 
z
" transform="scale(0.015625)"/>
      <path id="SegoeUI-Bold-52" d="M 4272 0 
L 3113 0 
L 2416 1153 
Q 2338 1284 2266 1387 
Q 2194 1491 2120 1564 
Q 2047 1638 1967 1677 
Q 1888 1716 1794 1716 
L 1522 1716 
L 1522 0 
L 513 0 
L 513 4481 
L 2113 4481 
Q 3744 4481 3744 3263 
Q 3744 3028 3672 2829 
Q 3600 2631 3469 2472 
Q 3338 2313 3152 2197 
Q 2966 2081 2738 2016 
L 2738 2003 
Q 2838 1972 2931 1901 
Q 3025 1831 3112 1737 
Q 3200 1644 3279 1536 
Q 3359 1428 3425 1325 
L 4272 0 
z
M 1522 3725 
L 1522 2478 
L 1959 2478 
Q 2284 2478 2481 2666 
Q 2681 2856 2681 3138 
Q 2681 3725 1978 3725 
L 1522 3725 
z
" transform="scale(0.015625)"/>
      <path id="SegoeUI-Bold-4f" d="M 2406 -78 
Q 1444 -78 837 548 
Q 231 1175 231 2181 
Q 231 3244 847 3900 
Q 1463 4556 2478 4556 
Q 3438 4556 4030 3928 
Q 4622 3300 4622 2272 
Q 4622 1216 4008 569 
Q 3394 -78 2406 -78 
z
M 2450 3688 
Q 1919 3688 1606 3289 
Q 1294 2891 1294 2234 
Q 1294 1569 1606 1181 
Q 1919 794 2425 794 
Q 2947 794 3253 1170 
Q 3559 1547 3559 2216 
Q 3559 2913 3262 3300 
Q 2966 3688 2450 3688 
z
" transform="scale(0.015625)"/>
      <path id="SegoeUI-Bold-55" d="M 4166 1941 
Q 4166 -78 2284 -78 
Q 459 -78 459 1894 
L 459 4481 
L 1472 4481 
L 1472 1881 
Q 1472 794 2322 794 
Q 3156 794 3156 1844 
L 3156 4481 
L 4166 4481 
L 4166 1941 
z
" transform="scale(0.015625)"/>
     </defs>
     <use xlink:href="#SegoeUI-Bold-44"/>
     <use xlink:href="#SegoeUI-Bold-49" x="73.730469"/>
     <use xlink:href="#SegoeUI-Bold-53" x="105.419922"/>
     <use xlink:href="#SegoeUI-Bold-54" x="161.474609"/>
     <use xlink:href="#SegoeUI-Bold-41" x="213.068359"/>
     <use xlink:href="#SegoeUI-Bold-4e" x="283.380859"/>
     <use xlink:href="#SegoeUI-Bold-43" x="362.384766"/>
     <use xlink:href="#SegoeUI-Bold-49" x="424.787109"/>
     <use xlink:href="#SegoeUI-Bold-41" x="456.476562"/>
     <use xlink:href="#SegoeUI-Bold-20" x="526.789062"/>
     <use xlink:href="#SegoeUI-Bold-45" x="554.376953"/>
     <use xlink:href="#SegoeUI-Bold-4e" x="607.599609"/>
     <use xlink:href="#SegoeUI-Bold-54" x="686.603516"/>
     <use xlink:href="#SegoeUI-Bold-52" x="745.197266"/>
     <use xlink:href="#SegoeUI-Bold-45" x="810.480469"/>
     <use xlink:href="#SegoeUI-Bold-20" x="863.703125"/>
     <use xlink:href="#SegoeUI-Bold-44" x="891.291016"/>
     <use xlink:href="#SegoeUI-Bold-4f" x="965.021484"/>
     <use xlink:href="#SegoeUI-Bold-53" x="1040.851562"/>
     <use xlink:href="#SegoeUI-Bold-20" x="1096.90625"/>
     <use xlink:href="#SegoeUI-Bold-50" x="1124.494141"/>
     <use xlink:href="#SegoeUI-Bold-55" x="1185.919922"/>
     <use xlink:href="#SegoeUI-Bold-4e" x="1258.234375"/>
     <use xlink:href="#SegoeUI-Bold-54" x="1337.238281"/>
     <use xlink:href="#SegoeUI-Bold-4f" x="1392.082031"/>
     <use xlink:href="#SegoeUI-Bold-53" x="1467.912109"/>
    </g>
   </g>
   <g id="text_28">
    <!-- $d = \sqrt{(x_2-x_1)^2 + (y_2-y_1)^2}$ -->
    <g style="fill: #2c2f33" transform="translate(705.890396 136.867788) scale(0.14 -0.14)">
     <defs>
      <path id="DejaVuSans-Oblique-64" d="M 2675 525 
Q 2444 222 2128 65 
Q 1813 -91 1428 -91 
Q 903 -91 598 267 
Q 294 625 294 1247 
Q 294 1766 478 2236 
Q 663 2706 1013 3078 
Q 1244 3325 1534 3454 
Q 1825 3584 2144 3584 
Q 2481 3584 2739 3421 
Q 2997 3259 3138 2956 
L 3513 4863 
L 4091 4863 
L 3144 0 
L 2566 0 
L 2675 525 
z
M 891 1350 
Q 891 897 1095 644 
Q 1300 391 1663 391 
Q 1931 391 2161 520 
Q 2391 650 2566 903 
Q 2750 1166 2856 1509 
Q 2963 1853 2963 2188 
Q 2963 2622 2758 2865 
Q 2553 3109 2194 3109 
Q 1922 3109 1687 2981 
Q 1453 2853 1288 2613 
Q 1106 2353 998 2009 
Q 891 1666 891 1350 
z
" transform="scale(0.015625)"/>
      <path id="STIXSizeOneSym-Regular-221a" d="M 6970 9933 
L 3373 -1888 
L 3104 -1888 
L 1626 2918 
Q 1555 3149 1465 3251 
Q 1376 3354 1229 3354 
Q 1011 3354 794 3181 
L 717 3309 
L 1766 4115 
L 1926 4115 
L 3379 -602 
L 3405 -602 
L 6605 9933 
L 6970 9933 
z
" transform="scale(0.015625)"/>
      <path id="DejaVuSans-2b" d="M 2944 4013 
L 2944 2272 
L 4684 2272 
L 4684 1741 
L 2944 1741 
L 2944 0 
L 2419 0 
L 2419 1741 
L 678 1741 
L 678 2272 
L 2419 2272 
L 2419 4013 
L 2944 4013 
z
" transform="scale(0.015625)"/>
     </defs>
     <use xlink:href="#DejaVuSans-Oblique-64" transform="translate(0 0.578125)"/>
     <use xlink:href="#DejaVuSans-3d" transform="translate(82.958984 0.578125)"/>
     <use xlink:href="#STIXSizeOneSym-Regular-221a" transform="translate(186.230469 2.5) scale(0.770324)"/>
     <use xlink:href="#DejaVuSans-28" transform="translate(280.119461 0.515625)"/>
     <use xlink:href="#DejaVuSans-Oblique-78" transform="translate(319.133133 0.515625)"/>
     <use xlink:href="#DejaVuSans-32" transform="translate(378.31282 -15.890625) scale(0.7)"/>
     <use xlink:href="#DejaVuSans-2212" transform="translate(445.06575 0.515625)"/>
     <use xlink:href="#DejaVuSans-Oblique-78" transform="translate(548.337234 0.515625)"/>
     <use xlink:href="#DejaVuSans-31" transform="translate(607.516922 -15.890625) scale(0.7)"/>
     <use xlink:href="#DejaVuSans-29" transform="translate(654.78743 0.515625)"/>
     <use xlink:href="#DejaVuSans-32" transform="translate(694.758133 38.796875) scale(0.7)"/>
     <use xlink:href="#DejaVuSans-2b" transform="translate(761.511063 0.515625)"/>
     <use xlink:href="#DejaVuSans-28" transform="translate(864.782547 0.515625)"/>
     <use xlink:href="#DejaVuSans-Oblique-79" transform="translate(903.796219 0.515625)"/>
     <use xlink:href="#DejaVuSans-32" transform="translate(962.975906 -15.890625) scale(0.7)"/>
     <use xlink:href="#DejaVuSans-2212" transform="translate(1029.728836 0.515625)"/>
     <use xlink:href="#DejaVuSans-Oblique-79" transform="translate(1133.00032 0.515625)"/>
     <use xlink:href="#DejaVuSans-31" transform="translate(1192.180008 -15.890625) scale(0.7)"/>
     <use xlink:href="#DejaVuSans-29" transform="translate(1239.450516 0.515625)"/>
     <use xlink:href="#DejaVuSans-32" transform="translate(1279.421219 38.796875) scale(0.7)"/>
     <path d="M 267.619461 115.5 
L 267.619461 121.75 
L 1339.191727 121.75 
L 1339.191727 115.5 
L 267.619461 115.5 
z
"/>
    </g>
   </g>
   <g id="text_29">
    <!-- Derivada del Teorema de Pitágoras: -->
    <g style="fill: #6b7280" transform="translate(730.840396 202.917548) scale(0.09 -0.09)">
     <defs>
      <path id="SegoeUI-Italic-44" d="M 4378 2669 
Q 4378 2338 4311 2009 
Q 4244 1681 4105 1384 
Q 3966 1088 3747 834 
Q 3528 581 3225 395 
Q 2922 209 2530 104 
Q 2138 0 1650 0 
L 231 0 
L 1184 4481 
L 2431 4481 
Q 2869 4481 3228 4357 
Q 3588 4234 3842 4000 
Q 4097 3766 4237 3430 
Q 4378 3094 4378 2669 
z
M 3828 2631 
Q 3828 3288 3443 3647 
Q 3059 4006 2303 4006 
L 1619 4006 
L 863 475 
L 1697 475 
Q 2225 475 2623 644 
Q 3022 813 3289 1106 
Q 3556 1400 3692 1792 
Q 3828 2184 3828 2631 
z
" transform="scale(0.015625)"/>
      <path id="SegoeUI-Italic-65" d="M 2994 2450 
Q 2994 2197 2881 1989 
Q 2769 1781 2509 1632 
Q 2250 1484 1825 1403 
Q 1400 1322 775 1319 
Q 769 1284 769 1247 
Q 769 1213 769 1184 
Q 769 1016 816 866 
Q 863 716 961 603 
Q 1059 491 1214 425 
Q 1369 359 1581 359 
Q 1797 359 2055 442 
Q 2313 525 2547 678 
L 2450 172 
Q 2278 72 2040 -3 
Q 1803 -78 1509 -78 
Q 1156 -78 914 31 
Q 672 141 523 323 
Q 375 506 309 745 
Q 244 984 244 1247 
Q 244 1528 306 1789 
Q 369 2050 483 2275 
Q 597 2500 756 2686 
Q 916 2872 1109 3003 
Q 1303 3134 1525 3206 
Q 1747 3278 1984 3278 
Q 2231 3278 2420 3212 
Q 2609 3147 2736 3033 
Q 2863 2919 2928 2769 
Q 2994 2619 2994 2450 
z
M 2472 2425 
Q 2472 2622 2326 2731 
Q 2181 2841 1941 2841 
Q 1750 2841 1572 2758 
Q 1394 2675 1244 2529 
Q 1094 2384 984 2182 
Q 875 1981 825 1747 
Q 1272 1747 1584 1792 
Q 1897 1838 2094 1925 
Q 2291 2013 2381 2139 
Q 2472 2266 2472 2425 
z
" transform="scale(0.015625)"/>
      <path id="SegoeUI-Italic-72" d="M 2394 2656 
L 2381 2656 
Q 2319 2694 2217 2730 
Q 2116 2766 2016 2766 
Q 1834 2766 1668 2648 
Q 1503 2531 1367 2339 
Q 1231 2147 1129 1900 
Q 1028 1653 972 1394 
L 672 0 
L 159 0 
L 609 2125 
Q 638 2256 666 2400 
Q 694 2544 717 2687 
Q 741 2831 759 2962 
Q 778 3094 788 3200 
L 1294 3200 
Q 1284 3106 1271 3001 
Q 1259 2897 1246 2798 
Q 1234 2700 1221 2620 
Q 1209 2541 1203 2497 
L 1216 2497 
Q 1316 2675 1419 2819 
Q 1522 2963 1636 3064 
Q 1750 3166 1878 3222 
Q 2006 3278 2156 3278 
Q 2244 3278 2330 3261 
Q 2416 3244 2484 3225 
L 2394 2656 
z
" transform="scale(0.015625)"/>
      <path id="SegoeUI-Italic-69" d="M 1300 13 
Q 1222 -13 1123 -28 
Q 1025 -44 928 -44 
Q 613 -44 456 114 
Q 300 272 300 538 
Q 300 616 315 722 
Q 331 828 366 984 
L 831 3200 
L 1350 3200 
L 881 972 
Q 853 841 842 769 
Q 831 697 831 647 
Q 831 519 901 451 
Q 972 384 1125 384 
Q 1206 384 1267 393 
Q 1328 403 1381 422 
L 1300 13 
z
M 1666 4341 
Q 1666 4200 1570 4100 
Q 1475 4000 1334 4000 
Q 1197 4000 1095 4098 
Q 994 4197 994 4341 
Q 994 4484 1095 4575 
Q 1197 4666 1334 4666 
Q 1472 4666 1569 4573 
Q 1666 4481 1666 4341 
z
" transform="scale(0.015625)"/>
      <path id="SegoeUI-Italic-76" d="M 1369 0 
L 934 0 
L 428 3200 
L 947 3200 
L 1228 1184 
Q 1238 1125 1245 1050 
Q 1253 975 1261 897 
Q 1269 819 1272 744 
Q 1275 669 1275 609 
L 1288 609 
Q 1313 666 1345 737 
Q 1378 809 1418 886 
Q 1459 963 1501 1041 
Q 1544 1119 1581 1184 
L 2725 3200 
L 3309 3200 
L 1369 0 
z
" transform="scale(0.015625)"/>
      <path id="SegoeUI-Italic-61" d="M 2828 1025 
Q 2803 906 2779 757 
Q 2756 609 2739 464 
Q 2722 319 2711 194 
Q 2700 69 2700 0 
L 2169 0 
Q 2172 63 2178 150 
Q 2184 238 2195 331 
Q 2206 425 2217 515 
Q 2228 606 2241 672 
L 2228 672 
Q 2131 519 2031 383 
Q 1931 247 1809 144 
Q 1688 41 1538 -18 
Q 1388 -78 1184 -78 
Q 975 -78 801 -3 
Q 628 72 503 220 
Q 378 369 311 592 
Q 244 816 244 1113 
Q 244 1294 281 1525 
Q 319 1756 408 1997 
Q 497 2238 645 2467 
Q 794 2697 1014 2878 
Q 1234 3059 1534 3168 
Q 1834 3278 2228 3278 
Q 2478 3278 2743 3240 
Q 3009 3203 3272 3150 
L 2828 1025 
z
M 2681 2778 
Q 2572 2803 2425 2822 
Q 2278 2841 2150 2841 
Q 1878 2841 1670 2755 
Q 1463 2669 1309 2530 
Q 1156 2391 1051 2209 
Q 947 2028 884 1839 
Q 822 1650 795 1465 
Q 769 1281 769 1131 
Q 769 953 800 811 
Q 831 669 898 569 
Q 966 469 1070 414 
Q 1175 359 1319 359 
Q 1475 359 1611 423 
Q 1747 488 1865 597 
Q 1984 706 2081 850 
Q 2178 994 2256 1155 
Q 2334 1316 2389 1483 
Q 2444 1650 2478 1806 
L 2681 2778 
z
" transform="scale(0.015625)"/>
      <path id="SegoeUI-Italic-64" d="M 2816 984 
Q 2794 884 2773 743 
Q 2753 603 2737 461 
Q 2722 319 2711 194 
Q 2700 69 2700 0 
L 2169 0 
Q 2169 53 2176 142 
Q 2184 231 2195 328 
Q 2206 425 2218 514 
Q 2231 603 2241 659 
L 2228 659 
Q 2116 478 2003 339 
Q 1891 200 1766 108 
Q 1641 16 1500 -31 
Q 1359 -78 1191 -78 
Q 972 -78 797 0 
Q 622 78 498 229 
Q 375 381 309 604 
Q 244 828 244 1119 
Q 244 1350 292 1600 
Q 341 1850 442 2090 
Q 544 2331 700 2547 
Q 856 2763 1072 2925 
Q 1288 3088 1566 3183 
Q 1844 3278 2188 3278 
Q 2363 3278 2513 3254 
Q 2663 3231 2772 3206 
L 3097 4738 
L 3603 4738 
L 2816 984 
z
M 2681 2766 
Q 2563 2800 2433 2820 
Q 2303 2841 2156 2841 
Q 1884 2841 1676 2756 
Q 1469 2672 1314 2531 
Q 1159 2391 1054 2211 
Q 950 2031 886 1842 
Q 822 1653 795 1470 
Q 769 1288 769 1141 
Q 769 966 798 822 
Q 828 678 895 575 
Q 963 472 1069 415 
Q 1175 359 1325 359 
Q 1481 359 1617 425 
Q 1753 491 1872 603 
Q 1991 716 2087 862 
Q 2184 1009 2262 1175 
Q 2341 1341 2395 1511 
Q 2450 1681 2484 1838 
L 2681 2766 
z
" transform="scale(0.015625)"/>
      <path id="SegoeUI-Italic-20" transform="scale(0.015625)"/>
      <path id="SegoeUI-Italic-6c" d="M 1300 13 
Q 1222 -13 1123 -28 
Q 1025 -44 928 -44 
Q 613 -44 456 114 
Q 300 272 300 538 
Q 300 616 315 722 
Q 331 828 366 984 
L 1166 4741 
L 1684 4741 
L 881 972 
Q 853 841 842 769 
Q 831 697 831 647 
Q 831 519 901 451 
Q 972 384 1125 384 
Q 1206 384 1267 393 
Q 1328 403 1381 422 
L 1300 13 
z
" transform="scale(0.015625)"/>
      <path id="SegoeUI-Italic-54" d="M 3719 4006 
L 2444 4006 
L 1600 0 
L 1063 0 
L 1913 4006 
L 609 4006 
L 709 4481 
L 3822 4481 
L 3719 4006 
z
" transform="scale(0.015625)"/>
      <path id="SegoeUI-Italic-6f" d="M 3181 2016 
Q 3181 1591 3061 1209 
Q 2941 828 2714 542 
Q 2488 256 2164 89 
Q 1841 -78 1434 -78 
Q 1159 -78 939 9 
Q 719 97 564 261 
Q 409 425 326 658 
Q 244 891 244 1184 
Q 244 1625 370 2008 
Q 497 2391 726 2673 
Q 956 2956 1276 3117 
Q 1597 3278 1984 3278 
Q 2256 3278 2476 3190 
Q 2697 3103 2853 2939 
Q 3009 2775 3095 2542 
Q 3181 2309 3181 2016 
z
M 2656 1991 
Q 2656 2194 2606 2351 
Q 2556 2509 2465 2617 
Q 2375 2725 2247 2783 
Q 2119 2841 1959 2841 
Q 1684 2841 1462 2700 
Q 1241 2559 1087 2329 
Q 934 2100 851 1808 
Q 769 1516 769 1209 
Q 769 1016 817 858 
Q 866 700 955 589 
Q 1044 478 1173 418 
Q 1303 359 1466 359 
Q 1744 359 1966 498 
Q 2188 638 2341 867 
Q 2494 1097 2575 1390 
Q 2656 1684 2656 1991 
z
" transform="scale(0.015625)"/>
      <path id="SegoeUI-Italic-6d" d="M 5166 2394 
Q 5166 2353 5155 2270 
Q 5144 2188 5126 2094 
Q 5109 2000 5092 1908 
Q 5075 1816 5063 1753 
L 4684 0 
L 4172 0 
L 4563 1875 
Q 4575 1928 4587 1993 
Q 4600 2059 4611 2123 
Q 4622 2188 4628 2242 
Q 4634 2297 4634 2328 
Q 4634 2575 4528 2708 
Q 4422 2841 4197 2841 
Q 4078 2841 3951 2786 
Q 3825 2731 3704 2637 
Q 3584 2544 3473 2419 
Q 3363 2294 3270 2151 
Q 3178 2009 3112 1861 
Q 3047 1713 3016 1569 
L 2681 0 
L 2163 0 
L 2559 1875 
Q 2572 1928 2584 1993 
Q 2597 2059 2608 2123 
Q 2619 2188 2625 2242 
Q 2631 2297 2631 2328 
Q 2631 2575 2522 2708 
Q 2413 2841 2194 2841 
Q 2072 2841 1944 2786 
Q 1816 2731 1694 2636 
Q 1572 2541 1461 2414 
Q 1350 2288 1258 2145 
Q 1166 2003 1102 1854 
Q 1038 1706 1006 1563 
L 672 0 
L 153 0 
L 647 2284 
Q 672 2406 697 2539 
Q 722 2672 744 2795 
Q 766 2919 781 3025 
Q 797 3131 806 3200 
L 1306 3200 
Q 1291 3078 1269 2945 
Q 1247 2813 1231 2700 
Q 1213 2569 1191 2444 
L 1203 2444 
Q 1316 2625 1447 2778 
Q 1578 2931 1725 3042 
Q 1872 3153 2031 3215 
Q 2191 3278 2363 3278 
Q 2563 3278 2706 3218 
Q 2850 3159 2945 3051 
Q 3041 2944 3091 2791 
Q 3141 2638 3150 2450 
Q 3266 2625 3398 2776 
Q 3531 2928 3682 3039 
Q 3834 3150 4004 3214 
Q 4175 3278 4366 3278 
Q 4766 3278 4966 3045 
Q 5166 2813 5166 2394 
z
" transform="scale(0.015625)"/>
      <path id="SegoeUI-Italic-50" d="M 3675 3303 
Q 3675 2972 3562 2680 
Q 3450 2388 3220 2169 
Q 2991 1950 2637 1823 
Q 2284 1697 1806 1697 
L 1125 1697 
L 769 0 
L 231 0 
L 1178 4481 
L 2338 4481 
Q 2697 4481 2951 4382 
Q 3206 4284 3367 4120 
Q 3528 3956 3601 3743 
Q 3675 3531 3675 3303 
z
M 3122 3256 
Q 3122 3425 3064 3564 
Q 3006 3703 2893 3801 
Q 2781 3900 2614 3953 
Q 2447 4006 2228 4006 
L 1619 4006 
L 1228 2169 
L 1856 2169 
Q 2188 2169 2427 2251 
Q 2666 2334 2820 2479 
Q 2975 2625 3048 2823 
Q 3122 3022 3122 3256 
z
" transform="scale(0.015625)"/>
      <path id="SegoeUI-Italic-74" d="M 2156 2766 
L 1350 2766 
L 991 1069 
Q 972 972 953 859 
Q 934 747 934 678 
Q 934 519 1004 448 
Q 1075 378 1228 378 
Q 1266 378 1325 390 
Q 1384 403 1446 422 
Q 1509 441 1570 464 
Q 1631 488 1678 506 
L 1581 56 
Q 1472 9 1333 -23 
Q 1194 -56 1069 -56 
Q 891 -56 766 -11 
Q 641 34 561 118 
Q 481 203 445 323 
Q 409 444 409 594 
Q 409 684 426 804 
Q 444 925 469 1025 
L 838 2766 
L 306 2766 
L 403 3200 
L 928 3200 
L 1094 3981 
Q 1106 3988 1189 4011 
Q 1272 4034 1370 4064 
Q 1469 4094 1551 4119 
Q 1634 4144 1644 4147 
L 1447 3200 
L 2253 3200 
L 2156 2766 
z
" transform="scale(0.015625)"/>
      <path id="SegoeUI-Italic-e1" d="M 2828 1025 
Q 2803 906 2779 757 
Q 2756 609 2739 464 
Q 2722 319 2711 194 
Q 2700 69 2700 0 
L 2169 0 
Q 2172 63 2178 150 
Q 2184 238 2195 331 
Q 2206 425 2217 515 
Q 2228 606 2241 672 
L 2228 672 
Q 2131 519 2031 383 
Q 1931 247 1809 144 
Q 1688 41 1538 -18 
Q 1388 -78 1184 -78 
Q 975 -78 801 -3 
Q 628 72 503 220 
Q 378 369 311 592 
Q 244 816 244 1113 
Q 244 1294 281 1525 
Q 319 1756 408 1997 
Q 497 2238 645 2467 
Q 794 2697 1014 2878 
Q 1234 3059 1534 3168 
Q 1834 3278 2228 3278 
Q 2478 3278 2743 3240 
Q 3009 3203 3272 3150 
L 2828 1025 
z
M 2681 2778 
Q 2572 2803 2425 2822 
Q 2278 2841 2150 2841 
Q 1878 2841 1670 2755 
Q 1463 2669 1309 2530 
Q 1156 2391 1051 2209 
Q 947 2028 884 1839 
Q 822 1650 795 1465 
Q 769 1281 769 1131 
Q 769 953 800 811 
Q 831 669 898 569 
Q 966 469 1070 414 
Q 1175 359 1319 359 
Q 1475 359 1611 423 
Q 1747 488 1865 597 
Q 1984 706 2081 850 
Q 2178 994 2256 1155 
Q 2334 1316 2389 1483 
Q 2444 1650 2478 1806 
L 2681 2778 
z
M 2182 3809 
L 1798 3809 
L 2701 4831 
L 3204 4831 
L 2182 3809 
z
" transform="scale(0.015625)"/>
      <path id="SegoeUI-Italic-67" d="M 2656 231 
Q 2578 -144 2450 -461 
Q 2322 -778 2111 -1011 
Q 1900 -1244 1590 -1373 
Q 1281 -1503 838 -1503 
Q 531 -1503 304 -1431 
Q 78 -1359 -109 -1259 
L -13 -781 
Q 184 -900 406 -981 
Q 628 -1063 884 -1063 
Q 1163 -1063 1367 -981 
Q 1572 -900 1720 -742 
Q 1869 -584 1967 -356 
Q 2066 -128 2131 166 
L 2241 666 
L 2228 666 
Q 2109 475 1995 336 
Q 1881 197 1756 105 
Q 1631 13 1493 -32 
Q 1356 -78 1191 -78 
Q 975 -78 800 -1 
Q 625 75 501 225 
Q 378 375 311 600 
Q 244 825 244 1119 
Q 244 1397 305 1665 
Q 366 1934 481 2175 
Q 597 2416 764 2617 
Q 931 2819 1143 2966 
Q 1356 3113 1611 3195 
Q 1866 3278 2156 3278 
Q 2447 3278 2737 3240 
Q 3028 3203 3272 3156 
L 2656 231 
z
M 2681 2778 
Q 2575 2803 2423 2822 
Q 2272 2841 2100 2841 
Q 1806 2841 1562 2705 
Q 1319 2569 1142 2336 
Q 966 2103 867 1793 
Q 769 1484 769 1141 
Q 769 972 798 828 
Q 828 684 892 581 
Q 956 478 1057 418 
Q 1159 359 1306 359 
Q 1478 359 1623 431 
Q 1769 503 1891 622 
Q 2013 741 2108 892 
Q 2203 1044 2276 1203 
Q 2350 1363 2400 1517 
Q 2450 1672 2478 1797 
L 2681 2778 
z
" transform="scale(0.015625)"/>
      <path id="SegoeUI-Italic-73" d="M 2266 2638 
Q 2125 2728 1950 2784 
Q 1775 2841 1600 2841 
Q 1306 2841 1145 2706 
Q 984 2572 984 2350 
Q 984 2259 1014 2184 
Q 1044 2109 1101 2042 
Q 1159 1975 1248 1912 
Q 1338 1850 1453 1778 
Q 1803 1575 1958 1361 
Q 2113 1147 2113 878 
Q 2113 697 2045 523 
Q 1978 350 1831 217 
Q 1684 84 1451 3 
Q 1219 -78 884 -78 
Q 791 -78 678 -65 
Q 566 -53 452 -28 
Q 338 -3 233 33 
Q 128 69 50 116 
L 153 603 
Q 216 559 308 515 
Q 400 472 508 437 
Q 616 403 733 381 
Q 850 359 966 359 
Q 1278 359 1433 484 
Q 1588 609 1588 831 
Q 1588 913 1564 981 
Q 1541 1050 1481 1119 
Q 1422 1188 1325 1258 
Q 1228 1328 1081 1416 
Q 763 1609 611 1820 
Q 459 2031 459 2297 
Q 459 2491 531 2667 
Q 603 2844 745 2980 
Q 888 3116 1103 3197 
Q 1319 3278 1606 3278 
Q 1831 3278 2032 3234 
Q 2234 3191 2375 3122 
L 2266 2638 
z
" transform="scale(0.015625)"/>
      <path id="SegoeUI-Italic-3a" d="M 1319 2925 
Q 1319 2853 1291 2789 
Q 1263 2725 1216 2678 
Q 1169 2631 1106 2604 
Q 1044 2578 972 2578 
Q 900 2578 837 2604 
Q 775 2631 728 2678 
Q 681 2725 654 2789 
Q 628 2853 628 2925 
Q 628 2994 654 3056 
Q 681 3119 728 3167 
Q 775 3216 837 3244 
Q 900 3272 972 3272 
Q 1044 3272 1108 3244 
Q 1172 3216 1219 3167 
Q 1266 3119 1292 3056 
Q 1319 2994 1319 2925 
z
M 763 275 
Q 763 203 736 140 
Q 709 78 662 31 
Q 616 -16 552 -44 
Q 488 -72 416 -72 
Q 344 -72 281 -44 
Q 219 -16 172 31 
Q 125 78 98 140 
Q 72 203 72 275 
Q 72 347 98 411 
Q 125 475 172 522 
Q 219 569 281 595 
Q 344 622 416 622 
Q 488 622 552 595 
Q 616 569 662 522 
Q 709 475 736 411 
Q 763 347 763 275 
z
" transform="scale(0.015625)"/>
     </defs>
     <use xlink:href="#SegoeUI-Italic-44"/>
     <use xlink:href="#SegoeUI-Italic-65" x="71.191406"/>
     <use xlink:href="#SegoeUI-Italic-72" x="119.873047"/>
     <use xlink:href="#SegoeUI-Italic-69" x="155.496094"/>
     <use xlink:href="#SegoeUI-Italic-76" x="181.375"/>
     <use xlink:href="#SegoeUI-Italic-61" x="228.189453"/>
     <use xlink:href="#SegoeUI-Italic-64" x="282.388672"/>
     <use xlink:href="#SegoeUI-Italic-61" x="336.587891"/>
     <use xlink:href="#SegoeUI-Italic-20" x="390.787109"/>
     <use xlink:href="#SegoeUI-Italic-64" x="418.277344"/>
     <use xlink:href="#SegoeUI-Italic-65" x="472.476562"/>
     <use xlink:href="#SegoeUI-Italic-6c" x="521.158203"/>
     <use xlink:href="#SegoeUI-Italic-20" x="547.037109"/>
     <use xlink:href="#SegoeUI-Italic-54" x="574.527344"/>
     <use xlink:href="#SegoeUI-Italic-65" x="618.115234"/>
     <use xlink:href="#SegoeUI-Italic-6f" x="666.796875"/>
     <use xlink:href="#SegoeUI-Italic-72" x="720.3125"/>
     <use xlink:href="#SegoeUI-Italic-65" x="755.935547"/>
     <use xlink:href="#SegoeUI-Italic-6d" x="804.617188"/>
     <use xlink:href="#SegoeUI-Italic-61" x="890.408203"/>
     <use xlink:href="#SegoeUI-Italic-20" x="944.607422"/>
     <use xlink:href="#SegoeUI-Italic-64" x="972.097656"/>
     <use xlink:href="#SegoeUI-Italic-65" x="1026.296875"/>
     <use xlink:href="#SegoeUI-Italic-20" x="1074.978516"/>
     <use xlink:href="#SegoeUI-Italic-50" x="1102.46875"/>
     <use xlink:href="#SegoeUI-Italic-69" x="1159.988281"/>
     <use xlink:href="#SegoeUI-Italic-74" x="1185.867188"/>
     <use xlink:href="#SegoeUI-Italic-e1" x="1217.691406"/>
     <use xlink:href="#SegoeUI-Italic-67" x="1271.890625"/>
     <use xlink:href="#SegoeUI-Italic-6f" x="1326.089844"/>
     <use xlink:href="#SegoeUI-Italic-72" x="1379.605469"/>
     <use xlink:href="#SegoeUI-Italic-61" x="1414.478516"/>
     <use xlink:href="#SegoeUI-Italic-73" x="1468.677734"/>
     <use xlink:href="#SegoeUI-Italic-3a" x="1508.179688"/>
    </g>
   </g>
   <g id="text_30">
    <!-- $d^2 = (\Delta x)^2 + (\Delta y)^2$ -->
    <g style="fill: #6b7280" transform="translate(756.090396 224.934134) scale(0.1 -0.1)">
     <use xlink:href="#DejaVuSans-Oblique-64" transform="translate(0 0.765625)"/>
     <use xlink:href="#DejaVuSans-32" transform="translate(70.924271 39.046875) scale(0.7)"/>
     <use xlink:href="#DejaVuSans-3d" transform="translate(137.677201 0.765625)"/>
     <use xlink:href="#DejaVuSans-28" transform="translate(240.948685 0.765625)"/>
     <use xlink:href="#DejaVuSans-394" transform="translate(279.962357 0.765625)"/>
     <use xlink:href="#DejaVuSans-Oblique-78" transform="translate(348.37056 0.765625)"/>
     <use xlink:href="#DejaVuSans-29" transform="translate(407.550247 0.765625)"/>
     <use xlink:href="#DejaVuSans-32" transform="translate(447.520951 39.046875) scale(0.7)"/>
     <use xlink:href="#DejaVuSans-2b" transform="translate(514.27388 0.765625)"/>
     <use xlink:href="#DejaVuSans-28" transform="translate(617.545365 0.765625)"/>
     <use xlink:href="#DejaVuSans-394" transform="translate(656.559036 0.765625)"/>
     <use xlink:href="#DejaVuSans-Oblique-79" transform="translate(724.96724 0.765625)"/>
     <use xlink:href="#DejaVuSans-29" transform="translate(784.146927 0.765625)"/>
     <use xlink:href="#DejaVuSans-32" transform="translate(824.11763 39.046875) scale(0.7)"/>
    </g>
   </g>
   <g id="text_31">
    <!-- PUNTO MEDIO -->
    <g style="fill: #f59e0b" transform="translate(761.125943 285.479748) scale(0.11 -0.11)">
     <use xlink:href="#SegoeUI-Bold-50"/>
     <use xlink:href="#SegoeUI-Bold-55" x="61.425781"/>
     <use xlink:href="#SegoeUI-Bold-4e" x="133.740234"/>
     <use xlink:href="#SegoeUI-Bold-54" x="212.744141"/>
     <use xlink:href="#SegoeUI-Bold-4f" x="267.587891"/>
     <use xlink:href="#SegoeUI-Bold-20" x="343.417969"/>
     <use xlink:href="#SegoeUI-Bold-4d" x="371.005859"/>
     <use xlink:href="#SegoeUI-Bold-45" x="466.708984"/>
     <use xlink:href="#SegoeUI-Bold-44" x="519.931641"/>
     <use xlink:href="#SegoeUI-Bold-49" x="593.662109"/>
     <use xlink:href="#SegoeUI-Bold-4f" x="625.351562"/>
    </g>
   </g>
   <g id="text_32">
    <!-- $M = \left(\frac{x_1+x_2}{2}, \frac{y_1+y_2}{2}\right)$ -->
    <g style="fill: #2c2f33" transform="translate(740.330396 346.025361) scale(0.14 -0.14)">
     <defs>
      <path id="DejaVuSans-Oblique-4d" d="M 1081 4666 
L 2028 4666 
L 2572 1522 
L 4378 4666 
L 5350 4666 
L 4441 0 
L 3828 0 
L 4622 4091 
L 2791 897 
L 2175 897 
L 1581 4103 
L 788 0 
L 172 0 
L 1081 4666 
z
" transform="scale(0.015625)"/>
      <path id="STIXSizeTwoSym-Regular-28" d="M 3219 -1555 
L 3219 -1786 
Q 2144 -774 1517 730 
Q 890 2234 890 4115 
Q 890 6003 1533 7593 
Q 2176 9184 3219 10022 
L 3219 9811 
Q 2490 9062 1994 7606 
Q 1498 6150 1498 4115 
Q 1498 563 3219 -1555 
z
" transform="scale(0.015625)"/>
      <path id="STIXSizeTwoSym-Regular-29" d="M 730 9792 
L 730 10022 
Q 1805 9011 2432 7507 
Q 3059 6003 3059 4115 
Q 3059 2234 2416 643 
Q 1773 -947 730 -1786 
L 730 -1574 
Q 1459 -826 1955 633 
Q 2451 2093 2451 4115 
Q 2451 7674 730 9792 
z
" transform="scale(0.015625)"/>
     </defs>
     <use xlink:href="#DejaVuSans-Oblique-4d" transform="translate(0 0.34375)"/>
     <use xlink:href="#DejaVuSans-3d" transform="translate(105.761719 0.34375)"/>
     <use xlink:href="#STIXSizeTwoSym-Regular-28" transform="translate(209.033203 -17.578125) scale(0.767768)"/>
     <use xlink:href="#DejaVuSans-Oblique-78" transform="translate(254.238953 55.625) scale(0.7)"/>
     <use xlink:href="#DejaVuSans-31" transform="translate(295.664734 44.140625) scale(0.49)"/>
     <use xlink:href="#DejaVuSans-2b" transform="translate(342.391785 55.625) scale(0.7)"/>
     <use xlink:href="#DejaVuSans-Oblique-78" transform="translate(414.681824 55.625) scale(0.7)"/>
     <use xlink:href="#DejaVuSans-32" transform="translate(456.107605 44.140625) scale(0.49)"/>
     <use xlink:href="#DejaVuSans-32" transform="translate(349.238953 -39.0625) scale(0.7)"/>
     <use xlink:href="#DejaVuSans-2c" transform="translate(501.69696 0.34375)"/>
     <use xlink:href="#DejaVuSans-Oblique-79" transform="translate(552.966492 58.698437) scale(0.7)"/>
     <use xlink:href="#DejaVuSans-31" transform="translate(594.392273 47.214062) scale(0.49)"/>
     <use xlink:href="#DejaVuSans-2b" transform="translate(641.119324 58.698437) scale(0.7)"/>
     <use xlink:href="#DejaVuSans-Oblique-79" transform="translate(713.409363 58.698437) scale(0.7)"/>
     <use xlink:href="#DejaVuSans-32" transform="translate(754.835144 47.214062) scale(0.49)"/>
     <use xlink:href="#DejaVuSans-32" transform="translate(647.966492 -39.0625) scale(0.7)"/>
     <use xlink:href="#STIXSizeTwoSym-Regular-29" transform="translate(800.4245 -17.578125) scale(0.767768)"/>
     <path d="M 254.238953 19.140625 
L 254.238953 25.390625 
L 489.19696 25.390625 
L 489.19696 19.140625 
L 254.238953 19.140625 
z
"/>
     <path d="M 552.966492 19.140625 
L 552.966492 25.390625 
L 787.9245 25.390625 
L 787.9245 19.140625 
L 552.966492 19.140625 
z
"/>
    </g>
   </g>
   <g id="text_33">
    <!-- El promedio de las coordenadas -->
    <g style="fill: #6b7280" transform="translate(738.245006 401.066827) scale(0.09 -0.09)">
     <defs>
      <path id="SegoeUI-Italic-45" d="M 3347 4006 
L 1619 4006 
L 1294 2478 
L 2894 2478 
L 2791 2003 
L 1191 2003 
L 863 475 
L 2700 475 
L 2606 0 
L 231 0 
L 1178 4481 
L 3450 4481 
L 3347 4006 
z
" transform="scale(0.015625)"/>
      <path id="SegoeUI-Italic-70" d="M 3225 2081 
Q 3225 1850 3175 1601 
Q 3125 1353 3022 1112 
Q 2919 872 2764 656 
Q 2609 441 2400 277 
Q 2191 113 1925 17 
Q 1659 -78 1338 -78 
Q 1153 -78 973 -43 
Q 794 -9 659 38 
L 341 -1484 
L -178 -1484 
L 603 2216 
Q 625 2316 644 2456 
Q 663 2597 677 2739 
Q 691 2881 700 3006 
Q 709 3131 709 3200 
L 1234 3200 
Q 1234 3147 1226 3056 
Q 1219 2966 1206 2867 
Q 1194 2769 1181 2676 
Q 1169 2584 1159 2528 
L 1172 2528 
Q 1394 2906 1672 3092 
Q 1950 3278 2278 3278 
Q 2497 3278 2672 3203 
Q 2847 3128 2970 2978 
Q 3094 2828 3159 2603 
Q 3225 2378 3225 2081 
z
M 2700 2059 
Q 2700 2228 2670 2372 
Q 2641 2516 2572 2619 
Q 2503 2722 2395 2781 
Q 2288 2841 2131 2841 
Q 1969 2841 1826 2773 
Q 1684 2706 1562 2593 
Q 1441 2481 1341 2332 
Q 1241 2184 1162 2025 
Q 1084 1866 1029 1705 
Q 975 1544 947 1403 
L 750 475 
Q 806 450 884 429 
Q 963 409 1047 393 
Q 1131 378 1218 368 
Q 1306 359 1381 359 
Q 1597 359 1780 431 
Q 1963 503 2108 626 
Q 2253 750 2364 917 
Q 2475 1084 2550 1273 
Q 2625 1463 2662 1664 
Q 2700 1866 2700 2059 
z
" transform="scale(0.015625)"/>
      <path id="SegoeUI-Italic-63" d="M 2700 2566 
Q 2569 2681 2383 2761 
Q 2197 2841 1972 2841 
Q 1756 2841 1582 2766 
Q 1409 2691 1275 2566 
Q 1141 2441 1044 2278 
Q 947 2116 884 1941 
Q 822 1766 792 1592 
Q 763 1419 763 1269 
Q 763 822 959 590 
Q 1156 359 1497 359 
Q 1703 359 1925 445 
Q 2147 531 2344 666 
L 2234 153 
Q 2031 44 1829 -17 
Q 1628 -78 1403 -78 
Q 1109 -78 892 22 
Q 675 122 531 297 
Q 388 472 316 711 
Q 244 950 244 1228 
Q 244 1491 297 1745 
Q 350 2000 454 2226 
Q 559 2453 712 2647 
Q 866 2841 1064 2980 
Q 1263 3119 1506 3198 
Q 1750 3278 2034 3278 
Q 2169 3278 2291 3259 
Q 2413 3241 2513 3209 
Q 2613 3178 2691 3142 
Q 2769 3106 2816 3072 
L 2700 2566 
z
" transform="scale(0.015625)"/>
      <path id="SegoeUI-Italic-6e" d="M 3269 2400 
Q 3269 2353 3258 2272 
Q 3247 2191 3230 2097 
Q 3213 2003 3195 1911 
Q 3178 1819 3163 1753 
L 2791 0 
L 2272 0 
L 2663 1875 
Q 2675 1925 2687 1990 
Q 2700 2056 2709 2122 
Q 2719 2188 2725 2242 
Q 2731 2297 2731 2328 
Q 2731 2566 2617 2703 
Q 2503 2841 2278 2841 
Q 2072 2841 1869 2719 
Q 1666 2597 1494 2409 
Q 1322 2222 1198 1997 
Q 1075 1772 1031 1563 
L 697 0 
L 178 0 
L 672 2284 
Q 697 2406 722 2539 
Q 747 2672 769 2795 
Q 791 2919 806 3025 
Q 822 3131 831 3200 
L 1331 3200 
Q 1316 3078 1294 2945 
Q 1272 2813 1256 2700 
Q 1238 2569 1216 2444 
L 1228 2444 
Q 1338 2616 1470 2767 
Q 1603 2919 1758 3033 
Q 1913 3147 2086 3212 
Q 2259 3278 2450 3278 
Q 2663 3278 2816 3214 
Q 2969 3150 3070 3034 
Q 3172 2919 3220 2756 
Q 3269 2594 3269 2400 
z
" transform="scale(0.015625)"/>
     </defs>
     <use xlink:href="#SegoeUI-Italic-45"/>
     <use xlink:href="#SegoeUI-Italic-6c" x="49.902344"/>
     <use xlink:href="#SegoeUI-Italic-20" x="75.78125"/>
     <use xlink:href="#SegoeUI-Italic-70" x="103.271484"/>
     <use xlink:href="#SegoeUI-Italic-72" x="157.470703"/>
     <use xlink:href="#SegoeUI-Italic-6f" x="192.71875"/>
     <use xlink:href="#SegoeUI-Italic-6d" x="246.234375"/>
     <use xlink:href="#SegoeUI-Italic-65" x="332.025391"/>
     <use xlink:href="#SegoeUI-Italic-64" x="380.707031"/>
     <use xlink:href="#SegoeUI-Italic-69" x="434.90625"/>
     <use xlink:href="#SegoeUI-Italic-6f" x="460.785156"/>
     <use xlink:href="#SegoeUI-Italic-20" x="514.300781"/>
     <use xlink:href="#SegoeUI-Italic-64" x="541.791016"/>
     <use xlink:href="#SegoeUI-Italic-65" x="595.990234"/>
     <use xlink:href="#SegoeUI-Italic-20" x="644.671875"/>
     <use xlink:href="#SegoeUI-Italic-6c" x="672.162109"/>
     <use xlink:href="#SegoeUI-Italic-61" x="698.041016"/>
     <use xlink:href="#SegoeUI-Italic-73" x="752.240234"/>
     <use xlink:href="#SegoeUI-Italic-20" x="791.742188"/>
     <use xlink:href="#SegoeUI-Italic-63" x="819.232422"/>
     <use xlink:href="#SegoeUI-Italic-6f" x="861.960938"/>
     <use xlink:href="#SegoeUI-Italic-6f" x="915.476562"/>
     <use xlink:href="#SegoeUI-Italic-72" x="968.992188"/>
     <use xlink:href="#SegoeUI-Italic-64" x="1004.240234"/>
     <use xlink:href="#SegoeUI-Italic-65" x="1058.439453"/>
     <use xlink:href="#SegoeUI-Italic-6e" x="1107.121094"/>
     <use xlink:href="#SegoeUI-Italic-61" x="1163.322266"/>
     <use xlink:href="#SegoeUI-Italic-64" x="1217.521484"/>
     <use xlink:href="#SegoeUI-Italic-61" x="1271.720703"/>
     <use xlink:href="#SegoeUI-Italic-73" x="1325.919922"/>
    </g>
   </g>
   <g id="text_34">
    <!-- Ejemplo: P₁(1,1) y P₂(6,5) -->
    <g style="fill: #1f2937" transform="translate(740.827896 461.61244) scale(0.1 -0.1)">
     <defs>
      <path id="SegoeUI-Bold-6a" d="M 916 3706 
Q 666 3706 506 3854 
Q 347 4003 347 4219 
Q 347 4441 506 4581 
Q 666 4722 916 4722 
Q 1169 4722 1326 4581 
Q 1484 4441 1484 4219 
Q 1484 3994 1326 3850 
Q 1169 3706 916 3706 
z
M 1403 56 
Q 1403 -653 1056 -1078 
Q 709 -1503 56 -1503 
Q -159 -1503 -416 -1409 
L -416 -634 
Q -209 -750 -50 -750 
Q 416 -750 416 -19 
L 416 3200 
L 1403 3200 
L 1403 56 
z
" transform="scale(0.015625)"/>
      <path id="SegoeUI-Bold-6c" d="M 1403 0 
L 416 0 
L 416 4738 
L 1403 4738 
L 1403 0 
z
" transform="scale(0.015625)"/>
      <path id="SegoeUI-Bold-3a" d="M 856 2209 
Q 613 2209 450 2357 
Q 288 2506 288 2725 
Q 288 2950 455 3094 
Q 622 3238 872 3238 
Q 1125 3238 1286 3092 
Q 1447 2947 1447 2725 
Q 1447 2497 1283 2353 
Q 1119 2209 856 2209 
z
M 856 -78 
Q 613 -78 450 72 
Q 288 222 288 441 
Q 288 666 455 809 
Q 622 953 872 953 
Q 1125 953 1286 808 
Q 1447 663 1447 441 
Q 1447 213 1283 67 
Q 1119 -78 856 -78 
z
" transform="scale(0.015625)"/>
      <path id="SegoeUI-Bold-2081" d="M 1044 -735 
L 1044 1246 
Q 956 1178 859 1124 
Q 763 1071 673 1033 
Q 584 996 512 971 
Q 441 946 400 937 
L 400 1509 
Q 531 1537 665 1593 
Q 800 1649 925 1716 
Q 1050 1784 1158 1854 
Q 1266 1924 1341 1984 
L 1716 1984 
L 1716 -735 
L 1044 -735 
z
" transform="scale(0.015625)"/>
      <path id="SegoeUI-Bold-31" d="M 2600 4581 
L 2600 0 
L 1616 0 
L 1616 3469 
Q 1534 3397 1423 3333 
Q 1313 3269 1188 3217 
Q 1063 3166 928 3130 
Q 794 3094 663 3078 
L 663 3909 
Q 1047 4022 1387 4197 
Q 1728 4372 2003 4581 
L 2600 4581 
z
" transform="scale(0.015625)"/>
      <path id="SegoeUI-Bold-2c" d="M 1350 788 
L 891 -794 
L 122 -794 
L 441 788 
L 1350 788 
z
" transform="scale(0.015625)"/>
      <path id="SegoeUI-Bold-2082" d="M 2253 -735 
L 366 -735 
L 366 -472 
Q 366 -247 450 -78 
Q 534 90 659 219 
Q 784 349 931 457 
Q 1078 565 1203 669 
Q 1328 774 1412 888 
Q 1497 1003 1497 1153 
Q 1497 1284 1409 1354 
Q 1322 1424 1172 1424 
Q 1097 1424 1006 1405 
Q 916 1387 827 1352 
Q 738 1318 655 1271 
Q 572 1224 513 1165 
L 513 1771 
Q 700 1893 894 1938 
Q 1088 1984 1294 1984 
Q 1488 1984 1656 1932 
Q 1825 1881 1948 1777 
Q 2072 1674 2144 1524 
Q 2216 1374 2216 1178 
Q 2216 1003 2136 846 
Q 2056 690 1937 552 
Q 1819 415 1681 299 
Q 1544 184 1425 93 
Q 1306 3 1226 -63 
Q 1147 -129 1147 -166 
L 1147 -179 
L 2253 -179 
L 2253 -735 
z
" transform="scale(0.015625)"/>
      <path id="SegoeUI-Bold-36" d="M 3469 1491 
Q 3469 1159 3353 871 
Q 3238 584 3031 373 
Q 2825 163 2540 42 
Q 2256 -78 1919 -78 
Q 1541 -78 1242 62 
Q 944 203 737 470 
Q 531 738 422 1125 
Q 313 1513 313 2003 
Q 313 2581 455 3051 
Q 597 3522 861 3856 
Q 1125 4191 1500 4373 
Q 1875 4556 2344 4556 
Q 2863 4556 3150 4434 
L 3150 3609 
Q 2809 3803 2406 3803 
Q 2156 3803 1953 3706 
Q 1750 3609 1604 3431 
Q 1459 3253 1376 3001 
Q 1294 2750 1288 2441 
L 1306 2441 
Q 1625 2881 2247 2881 
Q 2525 2881 2750 2781 
Q 2975 2681 3134 2498 
Q 3294 2316 3381 2059 
Q 3469 1803 3469 1491 
z
M 2503 1428 
Q 2503 2150 1913 2150 
Q 1778 2150 1668 2100 
Q 1559 2050 1481 1959 
Q 1403 1869 1361 1745 
Q 1319 1622 1319 1472 
Q 1319 1306 1362 1162 
Q 1406 1019 1486 911 
Q 1566 803 1675 740 
Q 1784 678 1919 678 
Q 2053 678 2161 733 
Q 2269 788 2345 886 
Q 2422 984 2462 1123 
Q 2503 1263 2503 1428 
z
" transform="scale(0.015625)"/>
      <path id="SegoeUI-Bold-35" d="M 444 116 
L 444 959 
Q 903 678 1422 678 
Q 1813 678 2033 864 
Q 2253 1050 2253 1369 
Q 2253 2034 1313 2034 
Q 966 2034 513 1981 
L 681 4481 
L 3053 4481 
L 3053 3675 
L 1434 3675 
L 1372 2778 
Q 1613 2797 1788 2797 
Q 2478 2797 2868 2434 
Q 3259 2072 3259 1459 
Q 3259 781 2793 351 
Q 2328 -78 1531 -78 
Q 884 -78 444 116 
z
" transform="scale(0.015625)"/>
     </defs>
     <use xlink:href="#SegoeUI-Bold-45"/>
     <use xlink:href="#SegoeUI-Bold-6a" x="53.222656"/>
     <use xlink:href="#SegoeUI-Bold-65" x="81.640625"/>
     <use xlink:href="#SegoeUI-Bold-6d" x="135.742188"/>
     <use xlink:href="#SegoeUI-Bold-70" x="227.34375"/>
     <use xlink:href="#SegoeUI-Bold-6c" x="289.355469"/>
     <use xlink:href="#SegoeUI-Bold-6f" x="317.773438"/>
     <use xlink:href="#SegoeUI-Bold-3a" x="378.90625"/>
     <use xlink:href="#SegoeUI-Bold-20" x="406.005859"/>
     <use xlink:href="#SegoeUI-Bold-50" x="433.59375"/>
     <use xlink:href="#SegoeUI-Bold-2081" x="495.019531"/>
     <use xlink:href="#SegoeUI-Bold-28" x="534.423828"/>
     <use xlink:href="#SegoeUI-Bold-31" x="571.337891"/>
     <use xlink:href="#SegoeUI-Bold-2c" x="628.857422"/>
     <use xlink:href="#SegoeUI-Bold-31" x="655.957031"/>
     <use xlink:href="#SegoeUI-Bold-29" x="713.476562"/>
     <use xlink:href="#SegoeUI-Bold-20" x="750.390625"/>
     <use xlink:href="#SegoeUI-Bold-79" x="777.978516"/>
     <use xlink:href="#SegoeUI-Bold-20" x="831.787109"/>
     <use xlink:href="#SegoeUI-Bold-50" x="859.375"/>
     <use xlink:href="#SegoeUI-Bold-2082" x="920.800781"/>
     <use xlink:href="#SegoeUI-Bold-28" x="961.230469"/>
     <use xlink:href="#SegoeUI-Bold-36" x="998.144531"/>
     <use xlink:href="#SegoeUI-Bold-2c" x="1055.664062"/>
     <use xlink:href="#SegoeUI-Bold-35" x="1082.763672"/>
     <use xlink:href="#SegoeUI-Bold-29" x="1140.283203"/>
    </g>
   </g>
   <g id="text_35">
    <!-- $d = \sqrt{(6-1)^2 + (5-1)^2} = \sqrt{25+16} = \sqrt{41}$ -->
    <g style="fill: #374151" transform="translate(705.865396 505.645614) scale(0.09 -0.09)">
     <defs>
      <path id="DejaVuSans-36" d="M 2113 2584 
Q 1688 2584 1439 2293 
Q 1191 2003 1191 1497 
Q 1191 994 1439 701 
Q 1688 409 2113 409 
Q 2538 409 2786 701 
Q 3034 994 3034 1497 
Q 3034 2003 2786 2293 
Q 2538 2584 2113 2584 
z
M 3366 4563 
L 3366 3988 
Q 3128 4100 2886 4159 
Q 2644 4219 2406 4219 
Q 1781 4219 1451 3797 
Q 1122 3375 1075 2522 
Q 1259 2794 1537 2939 
Q 1816 3084 2150 3084 
Q 2853 3084 3261 2657 
Q 3669 2231 3669 1497 
Q 3669 778 3244 343 
Q 2819 -91 2113 -91 
Q 1303 -91 875 529 
Q 447 1150 447 2328 
Q 447 3434 972 4092 
Q 1497 4750 2381 4750 
Q 2619 4750 2861 4703 
Q 3103 4656 3366 4563 
z
" transform="scale(0.015625)"/>
      <path id="DejaVuSans-35" d="M 691 4666 
L 3169 4666 
L 3169 4134 
L 1269 4134 
L 1269 2991 
Q 1406 3038 1543 3061 
Q 1681 3084 1819 3084 
Q 2600 3084 3056 2656 
Q 3513 2228 3513 1497 
Q 3513 744 3044 326 
Q 2575 -91 1722 -91 
Q 1428 -91 1123 -41 
Q 819 9 494 109 
L 494 744 
Q 775 591 1075 516 
Q 1375 441 1709 441 
Q 2250 441 2565 725 
Q 2881 1009 2881 1497 
Q 2881 1984 2565 2268 
Q 2250 2553 1709 2553 
Q 1456 2553 1204 2497 
Q 953 2441 691 2322 
L 691 4666 
z
" transform="scale(0.015625)"/>
      <path id="DejaVuSans-34" d="M 2419 4116 
L 825 1625 
L 2419 1625 
L 2419 4116 
z
M 2253 4666 
L 3047 4666 
L 3047 1625 
L 3713 1625 
L 3713 1100 
L 3047 1100 
L 3047 0 
L 2419 0 
L 2419 1100 
L 313 1100 
L 313 1709 
L 2253 4666 
z
" transform="scale(0.015625)"/>
     </defs>
     <use xlink:href="#DejaVuSans-Oblique-64" transform="translate(0 0.359375)"/>
     <use xlink:href="#DejaVuSans-3d" transform="translate(82.958984 0.359375)"/>
     <use xlink:href="#STIXSizeOneSym-Regular-221a" transform="translate(186.230469 8.703125) scale(0.729126)"/>
     <use xlink:href="#DejaVuSans-28" transform="translate(275.759323 0.515625)"/>
     <use xlink:href="#DejaVuSans-36" transform="translate(314.772995 0.515625)"/>
     <use xlink:href="#DejaVuSans-2212" transform="translate(397.878464 0.515625)"/>
     <use xlink:href="#DejaVuSans-31" transform="translate(501.149948 0.515625)"/>
     <use xlink:href="#DejaVuSans-29" transform="translate(564.772995 0.515625)"/>
     <use xlink:href="#DejaVuSans-32" transform="translate(604.743698 38.796875) scale(0.7)"/>
     <use xlink:href="#DejaVuSans-2b" transform="translate(671.496628 0.515625)"/>
     <use xlink:href="#DejaVuSans-28" transform="translate(774.768112 0.515625)"/>
     <use xlink:href="#DejaVuSans-35" transform="translate(813.781784 0.515625)"/>
     <use xlink:href="#DejaVuSans-2212" transform="translate(896.887253 0.515625)"/>
     <use xlink:href="#DejaVuSans-31" transform="translate(1000.158737 0.515625)"/>
     <use xlink:href="#DejaVuSans-29" transform="translate(1063.781784 0.515625)"/>
     <use xlink:href="#DejaVuSans-32" transform="translate(1103.752487 38.796875) scale(0.7)"/>
     <use xlink:href="#DejaVuSans-3d" transform="translate(1183.005417 0.359375)"/>
     <use xlink:href="#STIXSizeOneSym-Regular-221a" transform="translate(1286.276901 16.046875) scale(0.578716)"/>
     <use xlink:href="#DejaVuSans-32" transform="translate(1359.950775 0.59375)"/>
     <use xlink:href="#DejaVuSans-35" transform="translate(1423.573822 0.59375)"/>
     <use xlink:href="#DejaVuSans-2b" transform="translate(1506.679291 0.59375)"/>
     <use xlink:href="#DejaVuSans-31" transform="translate(1609.950775 0.59375)"/>
     <use xlink:href="#DejaVuSans-36" transform="translate(1673.573822 0.59375)"/>
     <use xlink:href="#DejaVuSans-3d" transform="translate(1769.179291 0.359375)"/>
     <use xlink:href="#STIXSizeOneSym-Regular-221a" transform="translate(1872.450775 16.875) scale(0.563912)"/>
     <use xlink:href="#DejaVuSans-34" transform="translate(1944.539139 0.625)"/>
     <use xlink:href="#DejaVuSans-31" transform="translate(2008.162186 0.625)"/>
     <path d="M 263.259323 115.5 
L 263.259323 121.75 
L 1163.522995 121.75 
L 1163.522995 115.5 
L 263.259323 115.5 
z
"/>
     <path d="M 1347.450775 99.5625 
L 1347.450775 105.8125 
L 1749.696869 105.8125 
L 1749.696869 99.5625 
L 1347.450775 99.5625 
z
"/>
     <path d="M 1932.039139 97.28125 
L 1932.039139 103.53125 
L 2084.285233 103.53125 
L 2084.285233 97.28125 
L 1932.039139 97.28125 
z
"/>
    </g>
   </g>
   <g id="text_36">
    <!-- $M = \left(\frac{1+6}{2}, \frac{1+5}{2}\right) = (3.5, 3)$ -->
    <g style="fill: #374151" transform="translate(745.735396 544.17464) scale(0.09 -0.09)">
     <defs>
      <path id="DejaVuSans-33" d="M 2597 2516 
Q 3050 2419 3304 2112 
Q 3559 1806 3559 1356 
Q 3559 666 3084 287 
Q 2609 -91 1734 -91 
Q 1441 -91 1130 -33 
Q 819 25 488 141 
L 488 750 
Q 750 597 1062 519 
Q 1375 441 1716 441 
Q 2309 441 2620 675 
Q 2931 909 2931 1356 
Q 2931 1769 2642 2001 
Q 2353 2234 1838 2234 
L 1294 2234 
L 1294 2753 
L 1863 2753 
Q 2328 2753 2575 2939 
Q 2822 3125 2822 3475 
Q 2822 3834 2567 4026 
Q 2313 4219 1838 4219 
Q 1578 4219 1281 4162 
Q 984 4106 628 3988 
L 628 4550 
Q 988 4650 1302 4700 
Q 1616 4750 1894 4750 
Q 2613 4750 3031 4423 
Q 3450 4097 3450 3541 
Q 3450 3153 3228 2886 
Q 3006 2619 2597 2516 
z
" transform="scale(0.015625)"/>
      <path id="DejaVuSans-2e" d="M 684 794 
L 1344 794 
L 1344 0 
L 684 0 
L 684 794 
z
" transform="scale(0.015625)"/>
     </defs>
     <use xlink:href="#DejaVuSans-Oblique-4d" transform="translate(0 0.875)"/>
     <use xlink:href="#DejaVuSans-3d" transform="translate(105.761719 0.875)"/>
     <use xlink:href="#STIXSizeTwoSym-Regular-28" transform="translate(209.033203 -17.890625) scale(0.737949)"/>
     <use xlink:href="#DejaVuSans-31" transform="translate(252.471939 45.667188) scale(0.7)"/>
     <use xlink:href="#DejaVuSans-2b" transform="translate(310.645767 45.667188) scale(0.7)"/>
     <use xlink:href="#DejaVuSans-36" transform="translate(382.935806 45.667188) scale(0.7)"/>
     <use xlink:href="#DejaVuSans-32" transform="translate(317.471939 -38.53125) scale(0.7)"/>
     <use xlink:href="#DejaVuSans-2c" transform="translate(439.971939 0.875)"/>
     <use xlink:href="#DejaVuSans-31" transform="translate(491.24147 45.667187) scale(0.7)"/>
     <use xlink:href="#DejaVuSans-2b" transform="translate(549.415298 45.667187) scale(0.7)"/>
     <use xlink:href="#DejaVuSans-35" transform="translate(621.705338 45.667187) scale(0.7)"/>
     <use xlink:href="#DejaVuSans-32" transform="translate(556.24147 -38.53125) scale(0.7)"/>
     <use xlink:href="#STIXSizeTwoSym-Regular-29" transform="translate(678.74147 -17.890625) scale(0.737949)"/>
     <use xlink:href="#DejaVuSans-3d" transform="translate(743.063873 0.875)"/>
     <use xlink:href="#DejaVuSans-28" transform="translate(846.335358 0.875)"/>
     <use xlink:href="#DejaVuSans-33" transform="translate(885.34903 0.875)"/>
     <use xlink:href="#DejaVuSans-2e" transform="translate(948.972076 0.875)"/>
     <use xlink:href="#DejaVuSans-35" transform="translate(980.759186 0.875)"/>
     <use xlink:href="#DejaVuSans-2c" transform="translate(1044.382233 0.875)"/>
     <use xlink:href="#DejaVuSans-33" transform="translate(1095.651764 0.875)"/>
     <use xlink:href="#DejaVuSans-29" transform="translate(1159.274811 0.875)"/>
     <path d="M 252.471939 19.671875 
L 252.471939 25.921875 
L 427.471939 25.921875 
L 427.471939 19.671875 
L 252.471939 19.671875 
z
"/>
     <path d="M 491.24147 19.671875 
L 491.24147 25.921875 
L 666.24147 25.921875 
L 666.24147 19.671875 
L 491.24147 19.671875 
z
"/>
    </g>
   </g>
  </g>
  <g id="text_37">
   <!-- Fórmulas Fundamentales de Geometría Analítica -->
   <g style="fill: #2c2f33" transform="translate(348.898354 17.564375) scale(0.14 -0.14)">
    <defs>
     <path id="SegoeUI-Bold-46" d="M 3103 3659 
L 1522 3659 
L 1522 2559 
L 2975 2559 
L 2975 1741 
L 1522 1741 
L 1522 0 
L 513 0 
L 513 4481 
L 3103 4481 
L 3103 3659 
z
" transform="scale(0.015625)"/>
     <path id="SegoeUI-Bold-f3" d="M 1941 -78 
Q 1141 -78 683 370 
Q 225 819 225 1588 
Q 225 2381 700 2829 
Q 1175 3278 1984 3278 
Q 2781 3278 3234 2829 
Q 3688 2381 3688 1644 
Q 3688 847 3220 384 
Q 2753 -78 1941 -78 
z
M 1966 2522 
Q 1616 2522 1422 2281 
Q 1228 2041 1228 1600 
Q 1228 678 1972 678 
Q 2681 678 2681 1625 
Q 2681 2522 1966 2522 
z
M 3023 4716 
L 2044 3706 
L 1332 3706 
L 2144 4716 
L 3023 4716 
z
" transform="scale(0.015625)"/>
     <path id="SegoeUI-Bold-72" d="M 2503 2309 
Q 2325 2406 2088 2406 
Q 1766 2406 1584 2170 
Q 1403 1934 1403 1528 
L 1403 0 
L 416 0 
L 416 3200 
L 1403 3200 
L 1403 2606 
L 1416 2606 
Q 1650 3256 2259 3256 
Q 2416 3256 2503 3219 
L 2503 2309 
z
" transform="scale(0.015625)"/>
     <path id="SegoeUI-Bold-47" d="M 4191 300 
Q 3534 -78 2559 -78 
Q 1478 -78 854 520 
Q 231 1119 231 2169 
Q 231 3225 912 3890 
Q 1594 4556 2725 4556 
Q 3438 4556 3981 4359 
L 3981 3413 
Q 3463 3713 2713 3713 
Q 2084 3713 1689 3305 
Q 1294 2897 1294 2216 
Q 1294 1525 1648 1147 
Q 2003 769 2606 769 
Q 2969 769 3181 872 
L 3181 1747 
L 2284 1747 
L 2284 2553 
L 4191 2553 
L 4191 300 
z
" transform="scale(0.015625)"/>
     <path id="SegoeUI-Bold-ed" d="M 1403 0 
L 416 0 
L 416 3200 
L 1403 3200 
L 1403 0 
z
M 1911 4716 
L 932 3706 
L 220 3706 
L 1032 4716 
L 1911 4716 
z
" transform="scale(0.015625)"/>
    </defs>
    <use xlink:href="#SegoeUI-Bold-46"/>
    <use xlink:href="#SegoeUI-Bold-f3" x="52.001953"/>
    <use xlink:href="#SegoeUI-Bold-72" x="113.085938"/>
    <use xlink:href="#SegoeUI-Bold-6d" x="153.130859"/>
    <use xlink:href="#SegoeUI-Bold-75" x="244.732422"/>
    <use xlink:href="#SegoeUI-Bold-6c" x="305.230469"/>
    <use xlink:href="#SegoeUI-Bold-61" x="333.648438"/>
    <use xlink:href="#SegoeUI-Bold-73" x="387.457031"/>
    <use xlink:href="#SegoeUI-Bold-20" x="431.451172"/>
    <use xlink:href="#SegoeUI-Bold-46" x="459.039062"/>
    <use xlink:href="#SegoeUI-Bold-75" x="511.041016"/>
    <use xlink:href="#SegoeUI-Bold-6e" x="571.539062"/>
    <use xlink:href="#SegoeUI-Bold-64" x="632.037109"/>
    <use xlink:href="#SegoeUI-Bold-61" x="693.951172"/>
    <use xlink:href="#SegoeUI-Bold-6d" x="747.759766"/>
    <use xlink:href="#SegoeUI-Bold-65" x="839.361328"/>
    <use xlink:href="#SegoeUI-Bold-6e" x="893.462891"/>
    <use xlink:href="#SegoeUI-Bold-74" x="953.960938"/>
    <use xlink:href="#SegoeUI-Bold-61" x="992.876953"/>
    <use xlink:href="#SegoeUI-Bold-6c" x="1046.685547"/>
    <use xlink:href="#SegoeUI-Bold-65" x="1075.103516"/>
    <use xlink:href="#SegoeUI-Bold-73" x="1129.205078"/>
    <use xlink:href="#SegoeUI-Bold-20" x="1173.199219"/>
    <use xlink:href="#SegoeUI-Bold-64" x="1200.787109"/>
    <use xlink:href="#SegoeUI-Bold-65" x="1262.701172"/>
    <use xlink:href="#SegoeUI-Bold-20" x="1316.802734"/>
    <use xlink:href="#SegoeUI-Bold-47" x="1344.390625"/>
    <use xlink:href="#SegoeUI-Bold-65" x="1415.484375"/>
    <use xlink:href="#SegoeUI-Bold-6f" x="1469.585938"/>
    <use xlink:href="#SegoeUI-Bold-6d" x="1530.71875"/>
    <use xlink:href="#SegoeUI-Bold-65" x="1622.320312"/>
    <use xlink:href="#SegoeUI-Bold-74" x="1676.421875"/>
    <use xlink:href="#SegoeUI-Bold-72" x="1715.337891"/>
    <use xlink:href="#SegoeUI-Bold-ed" x="1755.132812"/>
    <use xlink:href="#SegoeUI-Bold-61" x="1783.550781"/>
    <use xlink:href="#SegoeUI-Bold-20" x="1837.359375"/>
    <use xlink:href="#SegoeUI-Bold-41" x="1864.947266"/>
    <use xlink:href="#SegoeUI-Bold-6e" x="1935.259766"/>
    <use xlink:href="#SegoeUI-Bold-61" x="1995.757812"/>
    <use xlink:href="#SegoeUI-Bold-6c" x="2049.566406"/>
    <use xlink:href="#SegoeUI-Bold-ed" x="2077.984375"/>
    <use xlink:href="#SegoeUI-Bold-74" x="2106.402344"/>
    <use xlink:href="#SegoeUI-Bold-69" x="2145.318359"/>
    <use xlink:href="#SegoeUI-Bold-63" x="2173.736328"/>
    <use xlink:href="#SegoeUI-Bold-61" x="2221.734375"/>
   </g>
  </g>
 </g>
 <defs>
  <clipPath id="p2f2138e790">
   <rect x="34.264063" y="80.158998" width="502.821897" height="443.66638"/>
  </clipPath>
  <clipPath id="p911a39fe78">
   <rect x="590.181272" y="26.784855" width="419.018248" height="550.414665"/>
  </clipPath>
 </defs>
</svg>
