<?xml version="1.0" encoding="utf-8" standalone="no"?>
<!DOCTYPE svg PUBLIC "-//W3C//DTD SVG 1.1//EN"
  "http://www.w3.org/Graphics/SVG/1.1/DTD/svg11.dtd">
<svg xmlns:xlink="http://www.w3.org/1999/xlink" width="1016.39952pt" height="656.39952pt" viewBox="0 0 1016.39952 656.39952" xmlns="http://www.w3.org/2000/svg" version="1.1">
 <metadata>
  <rdf:RDF xmlns:dc="http://purl.org/dc/elements/1.1/" xmlns:cc="http://creativecommons.org/ns#" xmlns:rdf="http://www.w3.org/1999/02/22-rdf-syntax-ns#">
   <cc:Work>
    <dc:type rdf:resource="http://purl.org/dc/dcmitype/StillImage"/>
    <dc:date>2026-04-11T16:11:50.414418</dc:date>
    <dc:format>image/svg+xml</dc:format>
    <dc:creator>
     <cc:Agent>
      <dc:title>Matplotlib v3.8.4, https://matplotlib.org/</dc:title>
     </cc:Agent>
    </dc:creator>
   </cc:Work>
  </rdf:RDF>
 </metadata>
 <defs>
  <style type="text/css">*{stroke-linejoin: round; stroke-linecap: butt}</style>
 </defs>
 <g id="figure_1">
  <g id="patch_1">
   <path d="M 0 656.39952 
L 1016.39952 656.39952 
L 1016.39952 0 
L 0 0 
z
" style="fill: #ffffff"/>
  </g>
  <g id="axes_1">
   <g id="patch_2">
    <path d="M 289.858199 338.666785 
L 726.541321 338.666785 
L 726.541321 40.928292 
L 289.858199 40.928292 
z
" style="fill: #ffffff"/>
   </g>
   <g id="patch_3">
    <path d="M 666.993623 179.872922 
L 666.914478 176.739865 
L 666.677123 173.609931 
L 666.281795 170.486239 
L 665.728887 167.371905 
L 665.01895 164.270032 
L 664.152693 161.183712 
L 663.130978 158.116022 
L 661.954824 155.07002 
L 660.625405 152.048741 
L 659.144043 149.055199 
L 657.512218 146.092376 
L 655.731554 143.163227 
L 653.803828 140.27067 
L 651.73096 137.41759 
L 649.515017 134.60683 
L 647.158209 131.841193 
L 644.662883 129.123434 
L 642.031528 126.456264 
L 639.266766 123.842341 
L 636.371354 121.28427 
L 633.348178 118.784602 
L 630.200251 116.345828 
L 626.930712 113.970379 
L 623.542819 111.660623 
L 620.039949 109.418862 
L 616.425595 107.247332 
L 612.703358 105.148196 
L 608.876951 103.123548 
L 604.950186 101.175405 
L 600.926978 99.30571 
L 596.811338 97.516326 
L 592.607367 95.809036 
L 588.319258 94.185543 
L 583.951283 92.647466 
L 579.507798 91.196336 
L 574.993231 89.833601 
L 570.412083 88.56062 
L 565.768921 87.37866 
L 561.068372 86.288901 
L 556.315123 85.292429 
L 551.513911 84.390236 
L 546.669523 83.583222 
L 541.786788 82.872193 
L 536.870572 82.257855 
L 531.925776 81.740823 
L 526.95733 81.32161 
L 521.970186 81.000636 
L 516.969315 80.77822 
L 511.959702 80.654583 
L 506.946342 80.62985 
L 501.934231 80.704044 
L 496.928365 80.877092 
L 491.933735 81.148821 
L 486.95532 81.518961 
L 481.998081 81.987141 
L 477.066961 82.552897 
L 472.166875 83.215663 
L 467.302707 83.974779 
L 462.479306 84.829489 
L 457.70148 85.77894 
L 452.973992 86.822186 
L 448.301554 87.958187 
L 443.688824 89.18581 
L 439.1404 90.503832 
L 434.660816 91.91094 
L 430.254537 93.40573 
L 425.925955 94.986712 
L 421.679386 96.652311 
L 417.519063 98.400865 
L 413.449131 100.230633 
L 409.47365 102.13979 
L 405.59658 104.126433 
L 401.821788 106.188582 
L 398.153035 108.324181 
L 394.59398 110.531102 
L 391.148169 112.807143 
L 387.819038 115.150038 
L 384.609905 117.55745 
L 381.523969 120.026979 
L 378.564306 122.556163 
L 375.733866 125.142483 
L 373.035472 127.783358 
L 370.471812 130.476158 
L 368.045442 133.218198 
L 365.758782 136.006744 
L 363.614109 138.839017 
L 361.613563 141.712193 
L 359.759137 144.623409 
L 358.052679 147.569762 
L 356.495892 150.548316 
L 355.090326 153.556101 
L 353.837384 156.590119 
L 352.738313 159.647347 
L 351.794209 162.724735 
L 351.006014 165.819217 
L 350.374513 168.927708 
L 349.900335 172.04711 
L 349.583954 175.174312 
L 349.425685 178.306198 
L 349.425685 181.439646 
L 349.583954 184.571533 
L 349.900335 187.698735 
L 350.374513 190.818137 
L 351.006014 193.926628 
L 351.794209 197.02111 
L 352.738313 200.098498 
L 353.837384 203.155725 
L 355.090326 206.189744 
L 356.495892 209.197529 
L 358.052679 212.176083 
L 359.759137 215.122436 
L 361.613563 218.033652 
L 363.614109 220.906828 
L 365.758782 223.739101 
L 368.045442 226.527647 
L 370.471812 229.269687 
L 373.035472 231.962486 
L 375.733866 234.603362 
L 378.564306 237.189682 
L 381.523969 239.718866 
L 384.609905 242.188395 
L 387.819038 244.595807 
L 391.148169 246.938701 
L 394.59398 249.214743 
L 398.153035 251.421664 
L 401.821788 253.557263 
L 405.59658 255.619411 
L 409.47365 257.606055 
L 413.449131 259.515212 
L 417.519063 261.344979 
L 421.679386 263.093534 
L 425.925955 264.759133 
L 430.254537 266.340115 
L 434.660816 267.834905 
L 439.1404 269.242012 
L 443.688824 270.560035 
L 448.301554 271.787658 
L 452.973992 272.923659 
L 457.70148 273.966905 
L 462.479306 274.916356 
L 467.302707 275.771066 
L 472.166875 276.530182 
L 477.066961 277.192948 
L 481.998081 277.758703 
L 486.95532 278.226884 
L 491.933735 278.597024 
L 496.928365 278.868753 
L 501.934231 279.041801 
L 506.946342 279.115995 
L 511.959702 279.091261 
L 516.969315 278.967625 
L 521.970186 278.745209 
L 526.95733 278.424234 
L 531.925776 278.005022 
L 536.870572 277.48799 
L 541.786788 276.873652 
L 546.669523 276.162622 
L 551.513911 275.355609 
L 556.315123 274.453416 
L 561.068372 273.456944 
L 565.768921 272.367184 
L 570.412083 271.185225 
L 574.993231 269.912243 
L 579.507798 268.549509 
L 583.951283 267.098379 
L 588.319258 265.560302 
L 592.607367 263.936809 
L 596.811338 262.229519 
L 600.926978 260.440135 
L 604.950186 258.57044 
L 608.876951 256.622297 
L 612.703358 254.597648 
L 616.425595 252.498513 
L 620.039949 250.326983 
L 623.542819 248.085222 
L 626.930712 245.775466 
L 630.200251 243.400017 
L 633.348178 240.961243 
L 636.371354 238.461575 
L 639.266766 235.903504 
L 642.031528 233.289581 
L 644.662883 230.62241 
L 647.158209 227.904652 
L 649.515017 225.139014 
L 651.73096 222.328255 
L 653.803828 219.475175 
L 655.731554 216.582618 
L 657.512218 213.653469 
L 659.144043 210.690646 
L 660.625405 207.697104 
L 661.954824 204.675825 
L 663.130978 201.629823 
L 664.152693 198.562133 
L 665.01895 195.475813 
L 665.728887 192.37394 
L 666.281795 189.259606 
L 666.677123 186.135914 
L 666.914478 183.00598 
L 666.993623 179.872922 
z
" clip-path="url(#pee1542abc5)" style="fill: #39c5bb; opacity: 0.1; stroke: #39c5bb; stroke-linejoin: miter"/>
   </g>
   <g id="matplotlib.axis_1">
    <g id="xtick_1">
     <g id="line2d_1">
      <path d="M 349.405897 338.666785 
L 349.405897 40.928292 
" clip-path="url(#pee1542abc5)" style="fill: none; stroke-dasharray: 2.96,1.28; stroke-dashoffset: 0; stroke: #b0b0b0; stroke-opacity: 0.3; stroke-width: 0.8"/>
     </g>
     <g id="line2d_2">
      <defs>
       <path id="ma0a76701f3" d="M 0 0 
L 0 3.5 
" style="stroke: #2c2f33; stroke-width: 0.8"/>
      </defs>
      <g>
       <use xlink:href="#ma0a76701f3" x="349.405897" y="338.666785" style="fill: #2c2f33; stroke: #2c2f33; stroke-width: 0.8"/>
      </g>
     </g>
     <g id="text_1">
      <!-- −4 -->
      <g style="fill: #2c2f33" transform="translate(343.290272 353.06991) scale(0.1 -0.1)">
       <defs>
        <path id="SegoeUI-2212" d="M 3663 1656 
L 725 1656 
L 725 2075 
L 3663 2075 
L 3663 1656 
z
" transform="scale(0.015625)"/>
        <path id="SegoeUI-34" d="M 2656 4481 
L 2656 1522 
L 3231 1522 
L 3231 1053 
L 2656 1053 
L 2656 0 
L 2150 0 
L 2150 1053 
L 44 1053 
L 44 1497 
Q 338 1828 638 2204 
Q 938 2581 1211 2968 
Q 1484 3356 1717 3742 
Q 1950 4128 2109 4481 
L 2656 4481 
z
M 622 1522 
L 2150 1522 
L 2150 3716 
Q 1916 3306 1706 2984 
Q 1497 2663 1308 2400 
Q 1119 2138 947 1925 
Q 775 1713 622 1522 
z
" transform="scale(0.015625)"/>
       </defs>
       <use xlink:href="#SegoeUI-2212"/>
       <use xlink:href="#SegoeUI-34" x="68.408203"/>
      </g>
     </g>
    </g>
    <g id="xtick_2">
     <g id="line2d_3">
      <path d="M 428.802829 338.666785 
L 428.802829 40.928292 
" clip-path="url(#pee1542abc5)" style="fill: none; stroke-dasharray: 2.96,1.28; stroke-dashoffset: 0; stroke: #b0b0b0; stroke-opacity: 0.3; stroke-width: 0.8"/>
     </g>
     <g id="line2d_4">
      <g>
       <use xlink:href="#ma0a76701f3" x="428.802829" y="338.666785" style="fill: #2c2f33; stroke: #2c2f33; stroke-width: 0.8"/>
      </g>
     </g>
     <g id="text_2">
      <!-- −2 -->
      <g style="fill: #2c2f33" transform="translate(422.687204 353.06991) scale(0.1 -0.1)">
       <defs>
        <path id="SegoeUI-32" d="M 2413 3306 
Q 2413 3513 2348 3666 
Q 2284 3819 2173 3920 
Q 2063 4022 1913 4072 
Q 1763 4122 1588 4122 
Q 1438 4122 1294 4081 
Q 1150 4041 1014 3969 
Q 878 3897 751 3797 
Q 625 3697 516 3575 
L 516 4125 
Q 731 4334 998 4445 
Q 1266 4556 1650 4556 
Q 1925 4556 2159 4476 
Q 2394 4397 2566 4244 
Q 2738 4091 2836 3866 
Q 2934 3641 2934 3350 
Q 2934 3084 2873 2868 
Q 2813 2653 2689 2462 
Q 2566 2272 2378 2097 
Q 2191 1922 1938 1741 
Q 1622 1516 1417 1356 
Q 1213 1197 1092 1058 
Q 972 919 923 780 
Q 875 641 875 459 
L 3106 459 
L 3106 0 
L 341 0 
L 341 222 
Q 341 509 403 728 
Q 466 947 609 1144 
Q 753 1341 986 1537 
Q 1219 1734 1556 1981 
Q 1800 2156 1964 2315 
Q 2128 2475 2228 2634 
Q 2328 2794 2370 2958 
Q 2413 3122 2413 3306 
z
" transform="scale(0.015625)"/>
       </defs>
       <use xlink:href="#SegoeUI-2212"/>
       <use xlink:href="#SegoeUI-32" x="68.408203"/>
      </g>
     </g>
    </g>
    <g id="xtick_3">
     <g id="line2d_5">
      <path d="M 508.19976 338.666785 
L 508.19976 40.928292 
" clip-path="url(#pee1542abc5)" style="fill: none; stroke-dasharray: 2.96,1.28; stroke-dashoffset: 0; stroke: #b0b0b0; stroke-opacity: 0.3; stroke-width: 0.8"/>
     </g>
     <g id="line2d_6">
      <g>
       <use xlink:href="#ma0a76701f3" x="508.19976" y="338.666785" style="fill: #2c2f33; stroke: #2c2f33; stroke-width: 0.8"/>
      </g>
     </g>
     <g id="text_3">
      <!-- 0 -->
      <g style="fill: #2c2f33" transform="translate(505.504447 353.06991) scale(0.1 -0.1)">
       <defs>
        <path id="SegoeUI-30" d="M 3188 2259 
Q 3188 1697 3086 1262 
Q 2984 828 2792 529 
Q 2600 231 2320 76 
Q 2041 -78 1684 -78 
Q 1347 -78 1083 70 
Q 819 219 637 503 
Q 456 788 362 1202 
Q 269 1616 269 2150 
Q 269 2738 367 3188 
Q 466 3638 656 3942 
Q 847 4247 1130 4401 
Q 1413 4556 1778 4556 
Q 3188 4556 3188 2259 
z
M 2663 2209 
Q 2663 4122 1753 4122 
Q 794 4122 794 2175 
Q 794 359 1734 359 
Q 2663 359 2663 2209 
z
" transform="scale(0.015625)"/>
       </defs>
       <use xlink:href="#SegoeUI-30"/>
      </g>
     </g>
    </g>
    <g id="xtick_4">
     <g id="line2d_7">
      <path d="M 587.596691 338.666785 
L 587.596691 40.928292 
" clip-path="url(#pee1542abc5)" style="fill: none; stroke-dasharray: 2.96,1.28; stroke-dashoffset: 0; stroke: #b0b0b0; stroke-opacity: 0.3; stroke-width: 0.8"/>
     </g>
     <g id="line2d_8">
      <g>
       <use xlink:href="#ma0a76701f3" x="587.596691" y="338.666785" style="fill: #2c2f33; stroke: #2c2f33; stroke-width: 0.8"/>
      </g>
     </g>
     <g id="text_4">
      <!-- 2 -->
      <g style="fill: #2c2f33" transform="translate(584.901379 353.06991) scale(0.1 -0.1)">
       <use xlink:href="#SegoeUI-32"/>
      </g>
     </g>
    </g>
    <g id="xtick_5">
     <g id="line2d_9">
      <path d="M 666.993623 338.666785 
L 666.993623 40.928292 
" clip-path="url(#pee1542abc5)" style="fill: none; stroke-dasharray: 2.96,1.28; stroke-dashoffset: 0; stroke: #b0b0b0; stroke-opacity: 0.3; stroke-width: 0.8"/>
     </g>
     <g id="line2d_10">
      <g>
       <use xlink:href="#ma0a76701f3" x="666.993623" y="338.666785" style="fill: #2c2f33; stroke: #2c2f33; stroke-width: 0.8"/>
      </g>
     </g>
     <g id="text_5">
      <!-- 4 -->
      <g style="fill: #2c2f33" transform="translate(664.29831 353.06991) scale(0.1 -0.1)">
       <use xlink:href="#SegoeUI-34"/>
      </g>
     </g>
    </g>
   </g>
   <g id="matplotlib.axis_2">
    <g id="ytick_1">
     <g id="line2d_11">
      <path d="M 289.858199 338.666785 
L 726.541321 338.666785 
" clip-path="url(#pee1542abc5)" style="fill: none; stroke-dasharray: 2.96,1.28; stroke-dashoffset: 0; stroke: #b0b0b0; stroke-opacity: 0.3; stroke-width: 0.8"/>
     </g>
     <g id="line2d_12">
      <defs>
       <path id="m5486a71ad4" d="M 0 0 
L -3.5 0 
" style="stroke: #2c2f33; stroke-width: 0.8"/>
      </defs>
      <g>
       <use xlink:href="#m5486a71ad4" x="289.858199" y="338.666785" style="fill: #2c2f33; stroke: #2c2f33; stroke-width: 0.8"/>
      </g>
     </g>
     <g id="text_6">
      <!-- −4 -->
      <g style="fill: #2c2f33" transform="translate(270.626949 342.368348) scale(0.1 -0.1)">
       <use xlink:href="#SegoeUI-2212"/>
       <use xlink:href="#SegoeUI-34" x="68.408203"/>
      </g>
     </g>
    </g>
    <g id="ytick_2">
     <g id="line2d_13">
      <path d="M 289.858199 298.96832 
L 726.541321 298.96832 
" clip-path="url(#pee1542abc5)" style="fill: none; stroke-dasharray: 2.96,1.28; stroke-dashoffset: 0; stroke: #b0b0b0; stroke-opacity: 0.3; stroke-width: 0.8"/>
     </g>
     <g id="line2d_14">
      <g>
       <use xlink:href="#m5486a71ad4" x="289.858199" y="298.96832" style="fill: #2c2f33; stroke: #2c2f33; stroke-width: 0.8"/>
      </g>
     </g>
     <g id="text_7">
      <!-- −3 -->
      <g style="fill: #2c2f33" transform="translate(270.626949 302.669882) scale(0.1 -0.1)">
       <defs>
        <path id="SegoeUI-33" d="M 2978 1269 
Q 2978 966 2864 717 
Q 2750 469 2542 292 
Q 2334 116 2043 19 
Q 1753 -78 1403 -78 
Q 763 -78 384 166 
L 384 716 
Q 838 359 1422 359 
Q 1656 359 1845 418 
Q 2034 478 2170 590 
Q 2306 703 2379 862 
Q 2453 1022 2453 1222 
Q 2453 2100 1203 2100 
L 831 2100 
L 831 2534 
L 1184 2534 
Q 2291 2534 2291 3359 
Q 2291 4122 1447 4122 
Q 972 4122 556 3803 
L 556 4300 
Q 984 4556 1575 4556 
Q 1856 4556 2084 4478 
Q 2313 4400 2475 4259 
Q 2638 4119 2727 3922 
Q 2816 3725 2816 3488 
Q 2816 2603 1922 2350 
L 1922 2338 
Q 2150 2313 2344 2227 
Q 2538 2141 2678 2003 
Q 2819 1866 2898 1680 
Q 2978 1494 2978 1269 
z
" transform="scale(0.015625)"/>
       </defs>
       <use xlink:href="#SegoeUI-2212"/>
       <use xlink:href="#SegoeUI-33" x="68.408203"/>
      </g>
     </g>
    </g>
    <g id="ytick_3">
     <g id="line2d_15">
      <path d="M 289.858199 259.269854 
L 726.541321 259.269854 
" clip-path="url(#pee1542abc5)" style="fill: none; stroke-dasharray: 2.96,1.28; stroke-dashoffset: 0; stroke: #b0b0b0; stroke-opacity: 0.3; stroke-width: 0.8"/>
     </g>
     <g id="line2d_16">
      <g>
       <use xlink:href="#m5486a71ad4" x="289.858199" y="259.269854" style="fill: #2c2f33; stroke: #2c2f33; stroke-width: 0.8"/>
      </g>
     </g>
     <g id="text_8">
      <!-- −2 -->
      <g style="fill: #2c2f33" transform="translate(270.626949 262.971416) scale(0.1 -0.1)">
       <use xlink:href="#SegoeUI-2212"/>
       <use xlink:href="#SegoeUI-32" x="68.408203"/>
      </g>
     </g>
    </g>
    <g id="ytick_4">
     <g id="line2d_17">
      <path d="M 289.858199 219.571388 
L 726.541321 219.571388 
" clip-path="url(#pee1542abc5)" style="fill: none; stroke-dasharray: 2.96,1.28; stroke-dashoffset: 0; stroke: #b0b0b0; stroke-opacity: 0.3; stroke-width: 0.8"/>
     </g>
     <g id="line2d_18">
      <g>
       <use xlink:href="#m5486a71ad4" x="289.858199" y="219.571388" style="fill: #2c2f33; stroke: #2c2f33; stroke-width: 0.8"/>
      </g>
     </g>
     <g id="text_9">
      <!-- −1 -->
      <g style="fill: #2c2f33" transform="translate(270.626949 223.272951) scale(0.1 -0.1)">
       <defs>
        <path id="SegoeUI-31" d="M 2263 0 
L 1750 0 
L 1750 3872 
Q 1691 3813 1577 3736 
Q 1463 3659 1320 3584 
Q 1178 3509 1020 3443 
Q 863 3378 713 3341 
L 713 3859 
Q 881 3906 1070 3986 
Q 1259 4066 1442 4164 
Q 1625 4263 1787 4370 
Q 1950 4478 2069 4581 
L 2263 4581 
L 2263 0 
z
" transform="scale(0.015625)"/>
       </defs>
       <use xlink:href="#SegoeUI-2212"/>
       <use xlink:href="#SegoeUI-31" x="68.408203"/>
      </g>
     </g>
    </g>
    <g id="ytick_5">
     <g id="line2d_19">
      <path d="M 289.858199 179.872922 
L 726.541321 179.872922 
" clip-path="url(#pee1542abc5)" style="fill: none; stroke-dasharray: 2.96,1.28; stroke-dashoffset: 0; stroke: #b0b0b0; stroke-opacity: 0.3; stroke-width: 0.8"/>
     </g>
     <g id="line2d_20">
      <g>
       <use xlink:href="#m5486a71ad4" x="289.858199" y="179.872922" style="fill: #2c2f33; stroke: #2c2f33; stroke-width: 0.8"/>
      </g>
     </g>
     <g id="text_10">
      <!-- 0 -->
      <g style="fill: #2c2f33" transform="translate(277.467574 183.574485) scale(0.1 -0.1)">
       <use xlink:href="#SegoeUI-30"/>
      </g>
     </g>
    </g>
    <g id="ytick_6">
     <g id="line2d_21">
      <path d="M 289.858199 140.174457 
L 726.541321 140.174457 
" clip-path="url(#pee1542abc5)" style="fill: none; stroke-dasharray: 2.96,1.28; stroke-dashoffset: 0; stroke: #b0b0b0; stroke-opacity: 0.3; stroke-width: 0.8"/>
     </g>
     <g id="line2d_22">
      <g>
       <use xlink:href="#m5486a71ad4" x="289.858199" y="140.174457" style="fill: #2c2f33; stroke: #2c2f33; stroke-width: 0.8"/>
      </g>
     </g>
     <g id="text_11">
      <!-- 1 -->
      <g style="fill: #2c2f33" transform="translate(277.467574 143.876019) scale(0.1 -0.1)">
       <use xlink:href="#SegoeUI-31"/>
      </g>
     </g>
    </g>
    <g id="ytick_7">
     <g id="line2d_23">
      <path d="M 289.858199 100.475991 
L 726.541321 100.475991 
" clip-path="url(#pee1542abc5)" style="fill: none; stroke-dasharray: 2.96,1.28; stroke-dashoffset: 0; stroke: #b0b0b0; stroke-opacity: 0.3; stroke-width: 0.8"/>
     </g>
     <g id="line2d_24">
      <g>
       <use xlink:href="#m5486a71ad4" x="289.858199" y="100.475991" style="fill: #2c2f33; stroke: #2c2f33; stroke-width: 0.8"/>
      </g>
     </g>
     <g id="text_12">
      <!-- 2 -->
      <g style="fill: #2c2f33" transform="translate(277.467574 104.177554) scale(0.1 -0.1)">
       <use xlink:href="#SegoeUI-32"/>
      </g>
     </g>
    </g>
    <g id="ytick_8">
     <g id="line2d_25">
      <path d="M 289.858199 60.777525 
L 726.541321 60.777525 
" clip-path="url(#pee1542abc5)" style="fill: none; stroke-dasharray: 2.96,1.28; stroke-dashoffset: 0; stroke: #b0b0b0; stroke-opacity: 0.3; stroke-width: 0.8"/>
     </g>
     <g id="line2d_26">
      <g>
       <use xlink:href="#m5486a71ad4" x="289.858199" y="60.777525" style="fill: #2c2f33; stroke: #2c2f33; stroke-width: 0.8"/>
      </g>
     </g>
     <g id="text_13">
      <!-- 3 -->
      <g style="fill: #2c2f33" transform="translate(277.467574 64.479088) scale(0.1 -0.1)">
       <use xlink:href="#SegoeUI-33"/>
      </g>
     </g>
    </g>
   </g>
   <g id="line2d_27">
    <path d="M 289.858199 179.872922 
L 726.541321 179.872922 
" clip-path="url(#pee1542abc5)" style="fill: none; stroke: #9ca3af; stroke-linecap: square"/>
   </g>
   <g id="line2d_28">
    <path d="M 508.19976 338.666785 
L 508.19976 40.928292 
" clip-path="url(#pee1542abc5)" style="fill: none; stroke: #9ca3af; stroke-linecap: square"/>
   </g>
   <g id="line2d_29">
    <path d="M 666.993623 179.872922 
L 666.914478 176.739865 
L 666.677123 173.609931 
L 666.281795 170.486239 
L 665.728887 167.371905 
L 665.01895 164.270032 
L 664.152693 161.183712 
L 663.130978 158.116022 
L 661.954824 155.07002 
L 660.625405 152.048741 
L 659.144043 149.055199 
L 657.512218 146.092376 
L 655.731554 143.163227 
L 653.803828 140.27067 
L 651.73096 137.41759 
L 649.515017 134.60683 
L 647.158209 131.841193 
L 644.662883 129.123434 
L 642.031528 126.456264 
L 639.266766 123.842341 
L 636.371354 121.28427 
L 633.348178 118.784602 
L 630.200251 116.345828 
L 626.930712 113.970379 
L 623.542819 111.660623 
L 620.039949 109.418862 
L 616.425595 107.247332 
L 612.703358 105.148196 
L 608.876951 103.123548 
L 604.950186 101.175405 
L 600.926978 99.30571 
L 592.607367 95.809036 
L 583.951283 92.647466 
L 574.993231 89.833601 
L 565.768921 87.37866 
L 556.315123 85.292429 
L 546.669523 83.583222 
L 536.870572 82.257855 
L 526.95733 81.32161 
L 516.969315 80.77822 
L 506.946342 80.62985 
L 496.928365 80.877092 
L 486.95532 81.518961 
L 477.066961 82.552897 
L 467.302707 83.974779 
L 457.70148 85.77894 
L 448.301554 87.958187 
L 439.1404 90.503832 
L 430.254537 93.40573 
L 421.679386 96.652311 
L 413.449131 100.230633 
L 409.47365 102.13979 
L 405.59658 104.126433 
L 401.821788 106.188582 
L 398.153035 108.324181 
L 394.59398 110.531102 
L 391.148169 112.807143 
L 387.819038 115.150038 
L 384.609905 117.55745 
L 381.523969 120.026979 
L 378.564306 122.556163 
L 375.733866 125.142483 
L 373.035472 127.783358 
L 370.471812 130.476158 
L 368.045442 133.218198 
L 365.758782 136.006744 
L 363.614109 138.839017 
L 361.613563 141.712193 
L 359.759137 144.623409 
L 358.052679 147.569762 
L 356.495892 150.548316 
L 355.090326 153.556101 
L 353.837384 156.590119 
L 352.738313 159.647347 
L 351.794209 162.724735 
L 351.006014 165.819217 
L 350.374513 168.927708 
L 349.900335 172.04711 
L 349.583954 175.174312 
L 349.425685 178.306198 
L 349.425685 181.439646 
L 349.583954 184.571533 
L 349.900335 187.698735 
L 350.374513 190.818137 
L 351.006014 193.926628 
L 351.794209 197.02111 
L 352.738313 200.098498 
L 353.837384 203.155725 
L 355.090326 206.189744 
L 356.495892 209.197529 
L 358.052679 212.176083 
L 359.759137 215.122436 
L 361.613563 218.033652 
L 363.614109 220.906828 
L 365.758782 223.739101 
L 368.045442 226.527647 
L 370.471812 229.269687 
L 373.035472 231.962486 
L 375.733866 234.603362 
L 378.564306 237.189682 
L 381.523969 239.718866 
L 384.609905 242.188395 
L 387.819038 244.595807 
L 391.148169 246.938701 
L 394.59398 249.214743 
L 398.153035 251.421664 
L 401.821788 253.557263 
L 405.59658 255.619411 
L 409.47365 257.606055 
L 413.449131 259.515212 
L 417.519063 261.344979 
L 425.925955 264.759133 
L 434.660816 267.834905 
L 443.688824 270.560035 
L 452.973992 272.923659 
L 462.479306 274.916356 
L 472.166875 276.530182 
L 481.998081 277.758703 
L 491.933735 278.597024 
L 501.934231 279.041801 
L 511.959702 279.091261 
L 521.970186 278.745209 
L 531.925776 278.005022 
L 541.786788 276.873652 
L 551.513911 275.355609 
L 561.068372 273.456944 
L 570.412083 271.185225 
L 579.507798 268.549509 
L 588.319258 265.560302 
L 596.811338 262.229519 
L 604.950186 258.57044 
L 608.876951 256.622297 
L 612.703358 254.597648 
L 616.425595 252.498513 
L 620.039949 250.326983 
L 623.542819 248.085222 
L 626.930712 245.775466 
L 630.200251 243.400017 
L 633.348178 240.961243 
L 636.371354 238.461575 
L 639.266766 235.903504 
L 642.031528 233.289581 
L 644.662883 230.62241 
L 647.158209 227.904652 
L 649.515017 225.139014 
L 651.73096 222.328255 
L 653.803828 219.475175 
L 655.731554 216.582618 
L 657.512218 213.653469 
L 659.144043 210.690646 
L 660.625405 207.697104 
L 661.954824 204.675825 
L 663.130978 201.629823 
L 664.152693 198.562133 
L 665.01895 195.475813 
L 665.728887 192.37394 
L 666.281795 189.259606 
L 666.677123 186.135914 
L 666.914478 183.00598 
L 666.993623 179.872922 
L 666.993623 179.872922 
" clip-path="url(#pee1542abc5)" style="fill: none; stroke: #39c5bb; stroke-width: 2.5; stroke-linecap: square"/>
   </g>
   <g id="line2d_30">
    <path d="M 508.19976 179.872922 
L 666.993623 179.872922 
" clip-path="url(#pee1542abc5)" style="fill: none; stroke: #e12885; stroke-width: 2.5; stroke-linecap: square"/>
   </g>
   <g id="line2d_31">
    <path d="M 508.19976 179.872922 
L 508.19976 80.626758 
" clip-path="url(#pee1542abc5)" style="fill: none; stroke: #4b5563; stroke-width: 2.5; stroke-linecap: square"/>
   </g>
   <g id="line2d_32">
    <path d="M 508.19976 156.053843 
L 632.158179 156.053843 
" clip-path="url(#pee1542abc5)" style="fill: none; stroke: #f59e0b; stroke-width: 2; stroke-linecap: square"/>
   </g>
   <g id="line2d_33">
    <path d="M 587.596691 93.923223 
L 384.241341 179.872922 
" clip-path="url(#pee1542abc5)" style="fill: none; stroke-dasharray: 5.55,2.4; stroke-dashoffset: 0; stroke: #1f2937; stroke-opacity: 0.7; stroke-width: 1.5"/>
   </g>
   <g id="line2d_34">
    <path d="M 587.596691 93.923223 
L 632.158179 179.872922 
" clip-path="url(#pee1542abc5)" style="fill: none; stroke-dasharray: 5.55,2.4; stroke-dashoffset: 0; stroke: #1f2937; stroke-opacity: 0.7; stroke-width: 1.5"/>
   </g>
   <g id="patch_4">
    <path d="M 289.858199 338.666785 
L 289.858199 40.928292 
" style="fill: none; stroke: #4b5563; stroke-width: 0.8; stroke-linejoin: miter; stroke-linecap: square"/>
   </g>
   <g id="patch_5">
    <path d="M 289.858199 338.666785 
L 726.541321 338.666785 
" style="fill: none; stroke: #4b5563; stroke-width: 0.8; stroke-linejoin: miter; stroke-linecap: square"/>
   </g>
   <g id="text_14">
    <!-- C -->
    <g style="fill: #39c5bb" transform="translate(516.139453 167.963383) scale(0.11 -0.11)">
     <defs>
      <path id="SegoeUI-Bold-43" d="M 3725 159 
Q 3234 -78 2444 -78 
Q 1413 -78 822 528 
Q 231 1134 231 2144 
Q 231 3219 895 3887 
Q 1559 4556 2619 4556 
Q 3275 4556 3725 4391 
L 3725 3419 
Q 3275 3688 2700 3688 
Q 2069 3688 1681 3291 
Q 1294 2894 1294 2216 
Q 1294 1566 1659 1180 
Q 2025 794 2644 794 
Q 3234 794 3725 1081 
L 3725 159 
z
" transform="scale(0.015625)"/>
     </defs>
     <use xlink:href="#SegoeUI-Bold-43"/>
    </g>
   </g>
   <g id="text_15">
    <!-- $F_2$ -->
    <g style="fill: #f59e0b" transform="translate(640.097873 167.963383) scale(0.11 -0.11)">
     <defs>
      <path id="DejaVuSans-Oblique-46" d="M 1081 4666 
L 3756 4666 
L 3653 4134 
L 1606 4134 
L 1338 2759 
L 3188 2759 
L 3084 2228 
L 1234 2228 
L 800 0 
L 172 0 
L 1081 4666 
z
" transform="scale(0.015625)"/>
      <path id="DejaVuSans-32" d="M 1228 531 
L 3431 531 
L 3431 0 
L 469 0 
L 469 531 
Q 828 903 1448 1529 
Q 2069 2156 2228 2338 
Q 2531 2678 2651 2914 
Q 2772 3150 2772 3378 
Q 2772 3750 2511 3984 
Q 2250 4219 1831 4219 
Q 1534 4219 1204 4116 
Q 875 4013 500 3803 
L 500 4441 
Q 881 4594 1212 4672 
Q 1544 4750 1819 4750 
Q 2544 4750 2975 4387 
Q 3406 4025 3406 3419 
Q 3406 3131 3298 2873 
Q 3191 2616 2906 2266 
Q 2828 2175 2409 1742 
Q 1991 1309 1228 531 
z
" transform="scale(0.015625)"/>
     </defs>
     <use xlink:href="#DejaVuSans-Oblique-46" transform="translate(0 0.09375)"/>
     <use xlink:href="#DejaVuSans-32" transform="translate(57.519531 -16.3125) scale(0.7)"/>
    </g>
   </g>
   <g id="text_16">
    <!-- $F_1$ -->
    <g style="fill: #f59e0b" transform="translate(364.392108 167.963383) scale(0.11 -0.11)">
     <defs>
      <path id="DejaVuSans-31" d="M 794 531 
L 1825 531 
L 1825 4091 
L 703 3866 
L 703 4441 
L 1819 4666 
L 2450 4666 
L 2450 531 
L 3481 531 
L 3481 0 
L 794 0 
L 794 531 
z
" transform="scale(0.015625)"/>
     </defs>
     <use xlink:href="#DejaVuSans-Oblique-46" transform="translate(0 0.09375)"/>
     <use xlink:href="#DejaVuSans-31" transform="translate(57.519531 -16.3125) scale(0.7)"/>
    </g>
   </g>
   <g id="text_17">
    <!-- $V_2$ -->
    <g style="fill: #e12885" transform="translate(674.933316 195.752309) scale(0.1 -0.1)">
     <defs>
      <path id="DejaVuSans-Oblique-56" d="M 1319 0 
L 500 4666 
L 1119 4666 
L 1797 653 
L 4063 4666 
L 4750 4666 
L 2053 0 
L 1319 0 
z
" transform="scale(0.015625)"/>
     </defs>
     <use xlink:href="#DejaVuSans-Oblique-56" transform="translate(0 0.09375)"/>
     <use xlink:href="#DejaVuSans-32" transform="translate(68.408203 -16.3125) scale(0.7)"/>
    </g>
   </g>
   <g id="text_18">
    <!-- $V_1$ -->
    <g style="fill: #e12885" transform="translate(329.556664 195.752309) scale(0.1 -0.1)">
     <use xlink:href="#DejaVuSans-Oblique-56" transform="translate(0 0.09375)"/>
     <use xlink:href="#DejaVuSans-31" transform="translate(68.408203 -16.3125) scale(0.7)"/>
    </g>
   </g>
   <g id="text_19">
    <!-- $B_1$ -->
    <g style="fill: #4b5563" transform="translate(516.139453 72.687065) scale(0.1 -0.1)">
     <defs>
      <path id="DejaVuSans-Oblique-42" d="M 1081 4666 
L 2694 4666 
Q 3350 4666 3675 4422 
Q 4000 4178 4000 3688 
Q 4000 3238 3720 2911 
Q 3441 2584 2988 2516 
Q 3375 2428 3569 2181 
Q 3763 1934 3763 1522 
Q 3763 819 3242 409 
Q 2722 0 1819 0 
L 172 0 
L 1081 4666 
z
M 1234 2228 
L 903 519 
L 1919 519 
Q 2491 519 2800 781 
Q 3109 1044 3109 1522 
Q 3109 1891 2904 2059 
Q 2700 2228 2247 2228 
L 1234 2228 
z
M 1606 4147 
L 1331 2741 
L 2272 2741 
Q 2775 2741 3058 2959 
Q 3341 3178 3341 3566 
Q 3341 3869 3150 4008 
Q 2959 4147 2541 4147 
L 1606 4147 
z
" transform="scale(0.015625)"/>
     </defs>
     <use xlink:href="#DejaVuSans-Oblique-42" transform="translate(0 0.09375)"/>
     <use xlink:href="#DejaVuSans-31" transform="translate(68.603516 -16.3125) scale(0.7)"/>
    </g>
   </g>
   <g id="text_20">
    <!-- $B_2$ -->
    <g style="fill: #4b5563" transform="translate(516.139453 294.998473) scale(0.1 -0.1)">
     <use xlink:href="#DejaVuSans-Oblique-42" transform="translate(0 0.09375)"/>
     <use xlink:href="#DejaVuSans-32" transform="translate(68.603516 -16.3125) scale(0.7)"/>
    </g>
   </g>
   <g id="text_21">
    <!-- a -->
    <g style="fill: #e12885" transform="translate(583.829816 199.722155) scale(0.14 -0.14)">
     <defs>
      <path id="SegoeUI-Bold-61" d="M 3078 0 
L 2144 0 
L 2144 459 
L 2131 459 
Q 1809 -78 1178 -78 
Q 713 -78 445 186 
Q 178 450 178 891 
Q 178 1822 1281 1966 
L 2150 2081 
Q 2150 2606 1581 2606 
Q 1009 2606 494 2266 
L 494 3009 
Q 700 3116 1058 3197 
Q 1416 3278 1709 3278 
Q 3078 3278 3078 1913 
L 3078 0 
z
M 2150 1300 
L 2150 1516 
L 1569 1441 
Q 1088 1378 1088 1006 
Q 1088 838 1205 730 
Q 1322 622 1522 622 
Q 1800 622 1975 814 
Q 2150 1006 2150 1300 
z
" transform="scale(0.015625)"/>
     </defs>
     <use xlink:href="#SegoeUI-Bold-61"/>
    </g>
   </g>
   <g id="text_22">
    <!-- b -->
    <g style="fill: #4b5563" transform="translate(520.1093 130.24984) scale(0.14 -0.14)">
     <defs>
      <path id="SegoeUI-Bold-62" d="M 1416 372 
L 1403 372 
L 1403 0 
L 416 0 
L 416 4738 
L 1403 4738 
L 1403 2719 
L 1416 2719 
Q 1781 3278 2456 3278 
Q 3075 3278 3409 2853 
Q 3744 2428 3744 1691 
Q 3744 891 3353 406 
Q 2963 -78 2309 -78 
Q 1719 -78 1416 372 
z
M 1388 1722 
L 1388 1394 
Q 1388 1084 1566 881 
Q 1744 678 2022 678 
Q 2359 678 2545 939 
Q 2731 1200 2731 1678 
Q 2731 2075 2561 2298 
Q 2391 2522 2075 2522 
Q 1778 2522 1583 2300 
Q 1388 2078 1388 1722 
z
" transform="scale(0.015625)"/>
     </defs>
     <use xlink:href="#SegoeUI-Bold-62"/>
    </g>
   </g>
   <g id="text_23">
    <!-- c -->
    <g style="fill: #f59e0b" transform="translate(567.29897 144.144303) scale(0.12 -0.12)">
     <defs>
      <path id="SegoeUI-Bold-63" d="M 2841 116 
Q 2506 -78 1875 -78 
Q 1138 -78 681 369 
Q 225 816 225 1522 
Q 225 2338 714 2808 
Q 1203 3278 2022 3278 
Q 2588 3278 2841 3128 
L 2841 2291 
Q 2531 2522 2150 2522 
Q 1725 2522 1476 2273 
Q 1228 2025 1228 1588 
Q 1228 1163 1465 920 
Q 1703 678 2119 678 
Q 2488 678 2841 909 
L 2841 116 
z
" transform="scale(0.015625)"/>
     </defs>
     <use xlink:href="#SegoeUI-Bold-63"/>
    </g>
   </g>
   <g id="text_24">
    <!-- P -->
    <g style="fill: #1f2937" transform="translate(595.536385 82.013683) scale(0.11 -0.11)">
     <defs>
      <path id="SegoeUI-Bold-50" d="M 1522 1544 
L 1522 0 
L 513 0 
L 513 4481 
L 2094 4481 
Q 3788 4481 3788 3053 
Q 3788 2378 3302 1961 
Q 2816 1544 2003 1544 
L 1522 1544 
z
M 1522 3706 
L 1522 2309 
L 1919 2309 
Q 2725 2309 2725 3016 
Q 2725 3706 1919 3706 
L 1522 3706 
z
" transform="scale(0.015625)"/>
     </defs>
     <use xlink:href="#SegoeUI-Bold-50"/>
    </g>
   </g>
   <g id="text_25">
    <!-- $d_1$ -->
    <g style="fill: #1f2937" transform="translate(468.501294 117.04884) scale(0.1 -0.1)">
     <defs>
      <path id="DejaVuSans-Oblique-64" d="M 2675 525 
Q 2444 222 2128 65 
Q 1813 -91 1428 -91 
Q 903 -91 598 267 
Q 294 625 294 1247 
Q 294 1766 478 2236 
Q 663 2706 1013 3078 
Q 1244 3325 1534 3454 
Q 1825 3584 2144 3584 
Q 2481 3584 2739 3421 
Q 2997 3259 3138 2956 
L 3513 4863 
L 4091 4863 
L 3144 0 
L 2566 0 
L 2675 525 
z
M 891 1350 
Q 891 897 1095 644 
Q 1300 391 1663 391 
Q 1931 391 2161 520 
Q 2391 650 2566 903 
Q 2750 1166 2856 1509 
Q 2963 1853 2963 2188 
Q 2963 2622 2758 2865 
Q 2553 3109 2194 3109 
Q 1922 3109 1687 2981 
Q 1453 2853 1288 2613 
Q 1106 2353 998 2009 
Q 891 1666 891 1350 
z
" transform="scale(0.015625)"/>
     </defs>
     <use xlink:href="#DejaVuSans-Oblique-64" transform="translate(0 0.015625)"/>
     <use xlink:href="#DejaVuSans-31" transform="translate(63.476562 -16.390625) scale(0.7)"/>
    </g>
   </g>
   <g id="text_26">
    <!-- $d_2$ -->
    <g style="fill: #1f2937" transform="translate(567.747459 136.898073) scale(0.1 -0.1)">
     <use xlink:href="#DejaVuSans-Oblique-64" transform="translate(0 0.015625)"/>
     <use xlink:href="#DejaVuSans-32" transform="translate(63.476562 -16.390625) scale(0.7)"/>
    </g>
   </g>
   <g id="text_27">
    <g id="patch_6">
     <path d="M 416.21976 318.437859 
L 600.17976 318.437859 
Q 604.97976 318.437859 604.97976 313.637859 
L 604.97976 301.757859 
Q 604.97976 296.957859 600.17976 296.957859 
L 416.21976 296.957859 
Q 411.41976 296.957859 411.41976 301.757859 
L 411.41976 313.637859 
Q 411.41976 318.437859 416.21976 318.437859 
z
" style="fill: #ffffff; stroke: #39c5bb; stroke-linejoin: miter"/>
    </g>
    <!-- $d_1 + d_2 = 2a$ (definición de elipse) -->
    <g style="fill: #2c2f33" transform="translate(416.21976 310.877859) scale(0.12 -0.12)">
     <defs>
      <path id="DejaVuSans-2b" d="M 2944 4013 
L 2944 2272 
L 4684 2272 
L 4684 1741 
L 2944 1741 
L 2944 0 
L 2419 0 
L 2419 1741 
L 678 1741 
L 678 2272 
L 2419 2272 
L 2419 4013 
L 2944 4013 
z
" transform="scale(0.015625)"/>
      <path id="DejaVuSans-3d" d="M 678 2906 
L 4684 2906 
L 4684 2381 
L 678 2381 
L 678 2906 
z
M 678 1631 
L 4684 1631 
L 4684 1100 
L 678 1100 
L 678 1631 
z
" transform="scale(0.015625)"/>
      <path id="DejaVuSans-Oblique-61" d="M 3438 1997 
L 3047 0 
L 2472 0 
L 2578 531 
Q 2325 219 2001 64 
Q 1678 -91 1281 -91 
Q 834 -91 548 182 
Q 263 456 263 884 
Q 263 1497 752 1853 
Q 1241 2209 2100 2209 
L 2900 2209 
L 2931 2363 
Q 2938 2388 2941 2417 
Q 2944 2447 2944 2509 
Q 2944 2788 2717 2942 
Q 2491 3097 2081 3097 
Q 1800 3097 1504 3025 
Q 1209 2953 897 2809 
L 997 3341 
Q 1322 3463 1633 3523 
Q 1944 3584 2234 3584 
Q 2853 3584 3176 3315 
Q 3500 3047 3500 2534 
Q 3500 2431 3484 2292 
Q 3469 2153 3438 1997 
z
M 2816 1759 
L 2241 1759 
Q 1534 1759 1195 1570 
Q 856 1381 856 984 
Q 856 709 1029 553 
Q 1203 397 1509 397 
Q 1978 397 2328 733 
Q 2678 1069 2791 1631 
L 2816 1759 
z
" transform="scale(0.015625)"/>
      <path id="SegoeUI-20" transform="scale(0.015625)"/>
      <path id="SegoeUI-28" d="M 1863 -1019 
L 1406 -1019 
Q 438 88 438 1709 
Q 438 3338 1406 4481 
L 1869 4481 
Q 888 3294 888 1716 
Q 888 150 1863 -1019 
z
" transform="scale(0.015625)"/>
      <path id="SegoeUI-64" d="M 3250 0 
L 2738 0 
L 2738 544 
L 2725 544 
Q 2369 -75 1625 -75 
Q 1022 -75 661 354 
Q 300 784 300 1525 
Q 300 2319 700 2797 
Q 1100 3275 1766 3275 
Q 2425 3275 2725 2756 
L 2738 2756 
L 2738 4738 
L 3250 4738 
L 3250 0 
z
M 2738 1447 
L 2738 1919 
Q 2738 2306 2481 2575 
Q 2225 2844 1831 2844 
Q 1363 2844 1094 2500 
Q 825 2156 825 1550 
Q 825 997 1083 676 
Q 1341 356 1775 356 
Q 2203 356 2470 665 
Q 2738 975 2738 1447 
z
" transform="scale(0.015625)"/>
      <path id="SegoeUI-65" d="M 3091 1472 
L 831 1472 
Q 844 938 1119 647 
Q 1394 356 1875 356 
Q 2416 356 2869 713 
L 2869 231 
Q 2447 -75 1753 -75 
Q 1075 -75 687 361 
Q 300 797 300 1588 
Q 300 2334 723 2804 
Q 1147 3275 1775 3275 
Q 2403 3275 2747 2869 
Q 3091 2463 3091 1741 
L 3091 1472 
z
M 2566 1906 
Q 2563 2350 2352 2597 
Q 2141 2844 1766 2844 
Q 1403 2844 1150 2584 
Q 897 2325 838 1906 
L 2566 1906 
z
" transform="scale(0.015625)"/>
      <path id="SegoeUI-66" d="M 2100 4288 
Q 1950 4372 1759 4372 
Q 1222 4372 1222 3694 
L 1222 3200 
L 1972 3200 
L 1972 2763 
L 1222 2763 
L 1222 0 
L 713 0 
L 713 2763 
L 166 2763 
L 166 3200 
L 713 3200 
L 713 3719 
Q 713 4222 1003 4514 
Q 1294 4806 1728 4806 
Q 1963 4806 2100 4750 
L 2100 4288 
z
" transform="scale(0.015625)"/>
      <path id="SegoeUI-69" d="M 781 4013 
Q 644 4013 547 4106 
Q 450 4200 450 4344 
Q 450 4488 547 4583 
Q 644 4678 781 4678 
Q 922 4678 1020 4583 
Q 1119 4488 1119 4344 
Q 1119 4206 1020 4109 
Q 922 4013 781 4013 
z
M 1031 0 
L 519 0 
L 519 3200 
L 1031 3200 
L 1031 0 
z
" transform="scale(0.015625)"/>
      <path id="SegoeUI-6e" d="M 3175 0 
L 2663 0 
L 2663 1825 
Q 2663 2844 1919 2844 
Q 1534 2844 1282 2555 
Q 1031 2266 1031 1825 
L 1031 0 
L 519 0 
L 519 3200 
L 1031 3200 
L 1031 2669 
L 1044 2669 
Q 1406 3275 2094 3275 
Q 2619 3275 2897 2936 
Q 3175 2597 3175 1956 
L 3175 0 
z
" transform="scale(0.015625)"/>
      <path id="SegoeUI-63" d="M 2700 147 
Q 2331 -75 1825 -75 
Q 1141 -75 720 370 
Q 300 816 300 1525 
Q 300 2316 753 2795 
Q 1206 3275 1963 3275 
Q 2384 3275 2706 3119 
L 2706 2594 
Q 2350 2844 1944 2844 
Q 1453 2844 1139 2492 
Q 825 2141 825 1569 
Q 825 1006 1120 681 
Q 1416 356 1913 356 
Q 2331 356 2700 634 
L 2700 147 
z
" transform="scale(0.015625)"/>
      <path id="SegoeUI-f3" d="M 1856 -75 
Q 1147 -75 723 373 
Q 300 822 300 1563 
Q 300 2369 740 2822 
Q 1181 3275 1931 3275 
Q 2647 3275 3048 2834 
Q 3450 2394 3450 1613 
Q 3450 847 3017 386 
Q 2584 -75 1856 -75 
z
M 1894 2844 
Q 1400 2844 1112 2508 
Q 825 2172 825 1581 
Q 825 1013 1115 684 
Q 1406 356 1894 356 
Q 2391 356 2658 678 
Q 2925 1000 2925 1594 
Q 2925 2194 2658 2519 
Q 2391 2844 1894 2844 
z
M 2646 4831 
L 1827 3806 
L 1430 3806 
L 2127 4831 
L 2646 4831 
z
" transform="scale(0.015625)"/>
      <path id="SegoeUI-6c" d="M 1031 0 
L 519 0 
L 519 4738 
L 1031 4738 
L 1031 0 
z
" transform="scale(0.015625)"/>
      <path id="SegoeUI-70" d="M 1044 463 
L 1031 463 
L 1031 -1472 
L 519 -1472 
L 519 3200 
L 1031 3200 
L 1031 2638 
L 1044 2638 
Q 1422 3275 2150 3275 
Q 2769 3275 3116 2845 
Q 3463 2416 3463 1694 
Q 3463 891 3072 408 
Q 2681 -75 2003 -75 
Q 1381 -75 1044 463 
z
M 1031 1753 
L 1031 1306 
Q 1031 909 1289 632 
Q 1547 356 1944 356 
Q 2409 356 2673 712 
Q 2938 1069 2938 1703 
Q 2938 2238 2691 2541 
Q 2444 2844 2022 2844 
Q 1575 2844 1303 2533 
Q 1031 2222 1031 1753 
z
" transform="scale(0.015625)"/>
      <path id="SegoeUI-73" d="M 325 116 
L 325 666 
Q 744 356 1247 356 
Q 1922 356 1922 806 
Q 1922 934 1864 1023 
Q 1806 1113 1707 1181 
Q 1609 1250 1476 1304 
Q 1344 1359 1191 1419 
Q 978 1503 817 1589 
Q 656 1675 548 1783 
Q 441 1891 386 2028 
Q 331 2166 331 2350 
Q 331 2575 434 2748 
Q 538 2922 709 3039 
Q 881 3156 1101 3215 
Q 1322 3275 1556 3275 
Q 1972 3275 2300 3131 
L 2300 2613 
Q 1947 2844 1488 2844 
Q 1344 2844 1228 2811 
Q 1113 2778 1030 2718 
Q 947 2659 901 2576 
Q 856 2494 856 2394 
Q 856 2269 901 2184 
Q 947 2100 1034 2034 
Q 1122 1969 1247 1916 
Q 1372 1863 1531 1800 
Q 1744 1719 1912 1633 
Q 2081 1547 2200 1439 
Q 2319 1331 2383 1190 
Q 2447 1050 2447 856 
Q 2447 619 2342 444 
Q 2238 269 2063 153 
Q 1888 38 1659 -18 
Q 1431 -75 1181 -75 
Q 688 -75 325 116 
z
" transform="scale(0.015625)"/>
      <path id="SegoeUI-29" d="M 531 -1019 
L 75 -1019 
Q 1050 150 1050 1716 
Q 1050 3294 69 4481 
L 531 4481 
Q 1506 3338 1506 1709 
Q 1506 88 531 -1019 
z
" transform="scale(0.015625)"/>
     </defs>
     <use xlink:href="#DejaVuSans-Oblique-64" transform="translate(0 0.015625)"/>
     <use xlink:href="#DejaVuSans-31" transform="translate(63.476562 -16.390625) scale(0.7)"/>
     <use xlink:href="#DejaVuSans-2b" transform="translate(130.229492 0.015625)"/>
     <use xlink:href="#DejaVuSans-Oblique-64" transform="translate(233.500977 0.015625)"/>
     <use xlink:href="#DejaVuSans-32" transform="translate(296.977539 -16.390625) scale(0.7)"/>
     <use xlink:href="#DejaVuSans-3d" transform="translate(363.730469 0.015625)"/>
     <use xlink:href="#DejaVuSans-32" transform="translate(467.001953 0.015625)"/>
     <use xlink:href="#DejaVuSans-Oblique-61" transform="translate(530.625 0.015625)"/>
     <use xlink:href="#SegoeUI-20" transform="translate(591.904297 0.015625)"/>
     <use xlink:href="#SegoeUI-28" transform="translate(619.296875 0.015625)"/>
     <use xlink:href="#SegoeUI-64" transform="translate(649.472656 0.015625)"/>
     <use xlink:href="#SegoeUI-65" transform="translate(708.359375 0.015625)"/>
     <use xlink:href="#SegoeUI-66" transform="translate(760.654297 0.015625)"/>
     <use xlink:href="#SegoeUI-69" transform="translate(791.953125 0.015625)"/>
     <use xlink:href="#SegoeUI-6e" transform="translate(816.171875 0.015625)"/>
     <use xlink:href="#SegoeUI-69" transform="translate(872.763672 0.015625)"/>
     <use xlink:href="#SegoeUI-63" transform="translate(896.982422 0.015625)"/>
     <use xlink:href="#SegoeUI-69" transform="translate(943.173828 0.015625)"/>
     <use xlink:href="#SegoeUI-f3" transform="translate(967.392578 0.015625)"/>
     <use xlink:href="#SegoeUI-6e" transform="translate(1025.986328 0.015625)"/>
     <use xlink:href="#SegoeUI-20" transform="translate(1082.578125 0.015625)"/>
     <use xlink:href="#SegoeUI-64" transform="translate(1109.970703 0.015625)"/>
     <use xlink:href="#SegoeUI-65" transform="translate(1168.857422 0.015625)"/>
     <use xlink:href="#SegoeUI-20" transform="translate(1221.152344 0.015625)"/>
     <use xlink:href="#SegoeUI-65" transform="translate(1248.544922 0.015625)"/>
     <use xlink:href="#SegoeUI-6c" transform="translate(1300.839844 0.015625)"/>
     <use xlink:href="#SegoeUI-69" transform="translate(1325.058594 0.015625)"/>
     <use xlink:href="#SegoeUI-70" transform="translate(1349.277344 0.015625)"/>
     <use xlink:href="#SegoeUI-73" transform="translate(1408.066406 0.015625)"/>
     <use xlink:href="#SegoeUI-65" transform="translate(1450.498047 0.015625)"/>
     <use xlink:href="#SegoeUI-29" transform="translate(1502.792969 0.015625)"/>
    </g>
   </g>
   <g id="text_28">
    <!-- Elipse con Eje Mayor Horizontal -->
    <g style="fill: #2c2f33" transform="translate(426.455151 34.928292) scale(0.11 -0.11)">
     <defs>
      <path id="SegoeUI-Bold-45" d="M 3200 0 
L 513 0 
L 513 4481 
L 3097 4481 
L 3097 3659 
L 1522 3659 
L 1522 2663 
L 2988 2663 
L 2988 1844 
L 1522 1844 
L 1522 819 
L 3200 819 
L 3200 0 
z
" transform="scale(0.015625)"/>
      <path id="SegoeUI-Bold-6c" d="M 1403 0 
L 416 0 
L 416 4738 
L 1403 4738 
L 1403 0 
z
" transform="scale(0.015625)"/>
      <path id="SegoeUI-Bold-69" d="M 916 3706 
Q 666 3706 506 3854 
Q 347 4003 347 4219 
Q 347 4441 506 4581 
Q 666 4722 916 4722 
Q 1169 4722 1326 4581 
Q 1484 4441 1484 4219 
Q 1484 3994 1326 3850 
Q 1169 3706 916 3706 
z
M 1403 0 
L 416 0 
L 416 3200 
L 1403 3200 
L 1403 0 
z
" transform="scale(0.015625)"/>
      <path id="SegoeUI-Bold-70" d="M 1416 372 
L 1403 372 
L 1403 -1472 
L 416 -1472 
L 416 3200 
L 1403 3200 
L 1403 2719 
L 1416 2719 
Q 1781 3278 2444 3278 
Q 3066 3278 3405 2851 
Q 3744 2425 3744 1691 
Q 3744 891 3348 406 
Q 2953 -78 2297 -78 
Q 1719 -78 1416 372 
z
M 1388 1684 
L 1388 1428 
Q 1388 1097 1563 887 
Q 1738 678 2022 678 
Q 2359 678 2545 939 
Q 2731 1200 2731 1678 
Q 2731 2522 2075 2522 
Q 1772 2522 1580 2292 
Q 1388 2063 1388 1684 
z
" transform="scale(0.015625)"/>
      <path id="SegoeUI-Bold-73" d="M 206 84 
L 206 884 
Q 450 738 692 666 
Q 934 594 1150 594 
Q 1413 594 1564 666 
Q 1716 738 1716 884 
Q 1716 978 1647 1040 
Q 1578 1103 1470 1150 
Q 1363 1197 1234 1234 
Q 1106 1272 988 1319 
Q 797 1391 651 1473 
Q 506 1556 407 1665 
Q 309 1775 257 1919 
Q 206 2063 206 2259 
Q 206 2528 323 2722 
Q 441 2916 636 3039 
Q 831 3163 1082 3220 
Q 1334 3278 1606 3278 
Q 1819 3278 2037 3245 
Q 2256 3213 2469 3150 
L 2469 2388 
Q 2281 2497 2067 2551 
Q 1853 2606 1647 2606 
Q 1550 2606 1464 2589 
Q 1378 2572 1312 2539 
Q 1247 2506 1209 2454 
Q 1172 2403 1172 2338 
Q 1172 2250 1228 2187 
Q 1284 2125 1375 2079 
Q 1466 2034 1577 1998 
Q 1688 1963 1797 1925 
Q 1994 1856 2153 1775 
Q 2313 1694 2427 1584 
Q 2541 1475 2602 1328 
Q 2663 1181 2663 978 
Q 2663 694 2539 492 
Q 2416 291 2211 164 
Q 2006 38 1739 -20 
Q 1472 -78 1184 -78 
Q 656 -78 206 84 
z
" transform="scale(0.015625)"/>
      <path id="SegoeUI-Bold-65" d="M 3291 1319 
L 1203 1319 
Q 1253 622 2081 622 
Q 2609 622 3009 872 
L 3009 159 
Q 2566 -78 1856 -78 
Q 1081 -78 653 351 
Q 225 781 225 1550 
Q 225 2347 687 2812 
Q 1150 3278 1825 3278 
Q 2525 3278 2908 2862 
Q 3291 2447 3291 1734 
L 3291 1319 
z
M 2375 1925 
Q 2375 2613 1819 2613 
Q 1581 2613 1407 2416 
Q 1234 2219 1197 1925 
L 2375 1925 
z
" transform="scale(0.015625)"/>
      <path id="SegoeUI-Bold-20" transform="scale(0.015625)"/>
      <path id="SegoeUI-Bold-6f" d="M 1941 -78 
Q 1141 -78 683 370 
Q 225 819 225 1588 
Q 225 2381 700 2829 
Q 1175 3278 1984 3278 
Q 2781 3278 3234 2829 
Q 3688 2381 3688 1644 
Q 3688 847 3220 384 
Q 2753 -78 1941 -78 
z
M 1966 2522 
Q 1616 2522 1422 2281 
Q 1228 2041 1228 1600 
Q 1228 678 1972 678 
Q 2681 678 2681 1625 
Q 2681 2522 1966 2522 
z
" transform="scale(0.015625)"/>
      <path id="SegoeUI-Bold-6e" d="M 3506 0 
L 2522 0 
L 2522 1778 
Q 2522 2522 1991 2522 
Q 1734 2522 1568 2325 
Q 1403 2128 1403 1825 
L 1403 0 
L 416 0 
L 416 3200 
L 1403 3200 
L 1403 2694 
L 1416 2694 
Q 1769 3278 2444 3278 
Q 3506 3278 3506 1959 
L 3506 0 
z
" transform="scale(0.015625)"/>
      <path id="SegoeUI-Bold-6a" d="M 916 3706 
Q 666 3706 506 3854 
Q 347 4003 347 4219 
Q 347 4441 506 4581 
Q 666 4722 916 4722 
Q 1169 4722 1326 4581 
Q 1484 4441 1484 4219 
Q 1484 3994 1326 3850 
Q 1169 3706 916 3706 
z
M 1403 56 
Q 1403 -653 1056 -1078 
Q 709 -1503 56 -1503 
Q -159 -1503 -416 -1409 
L -416 -634 
Q -209 -750 -50 -750 
Q 416 -750 416 -19 
L 416 3200 
L 1403 3200 
L 1403 56 
z
" transform="scale(0.015625)"/>
      <path id="SegoeUI-Bold-4d" d="M 5619 0 
L 4622 0 
L 4622 2681 
Q 4622 3116 4659 3641 
L 4634 3641 
Q 4556 3228 4494 3047 
L 3444 0 
L 2619 0 
L 1550 3016 
Q 1506 3138 1409 3641 
L 1381 3641 
Q 1422 2978 1422 2478 
L 1422 0 
L 513 0 
L 513 4481 
L 1991 4481 
L 2906 1825 
Q 3016 1506 3066 1184 
L 3084 1184 
Q 3169 1556 3263 1831 
L 4178 4481 
L 5619 4481 
L 5619 0 
z
" transform="scale(0.015625)"/>
      <path id="SegoeUI-Bold-79" d="M 3463 3200 
L 2163 -256 
Q 1694 -1503 750 -1503 
Q 391 -1503 159 -1422 
L 159 -634 
Q 356 -750 588 -750 
Q 969 -750 1119 -391 
L 1288 6 
L -13 3200 
L 1081 3200 
L 1678 1253 
Q 1734 1072 1766 825 
L 1778 825 
Q 1806 1006 1881 1247 
L 2484 3200 
L 3463 3200 
z
" transform="scale(0.015625)"/>
      <path id="SegoeUI-Bold-72" d="M 2503 2309 
Q 2325 2406 2088 2406 
Q 1766 2406 1584 2170 
Q 1403 1934 1403 1528 
L 1403 0 
L 416 0 
L 416 3200 
L 1403 3200 
L 1403 2606 
L 1416 2606 
Q 1650 3256 2259 3256 
Q 2416 3256 2503 3219 
L 2503 2309 
z
" transform="scale(0.015625)"/>
      <path id="SegoeUI-Bold-48" d="M 4391 0 
L 3378 0 
L 3378 1825 
L 1522 1825 
L 1522 0 
L 513 0 
L 513 4481 
L 1522 4481 
L 1522 2694 
L 3378 2694 
L 3378 4481 
L 4391 4481 
L 4391 0 
z
" transform="scale(0.015625)"/>
      <path id="SegoeUI-Bold-7a" d="M 2950 0 
L 78 0 
L 78 409 
L 1684 2472 
L 238 2472 
L 238 3200 
L 2938 3200 
L 2938 2713 
L 1416 728 
L 2950 728 
L 2950 0 
z
" transform="scale(0.015625)"/>
      <path id="SegoeUI-Bold-74" d="M 2350 38 
Q 2131 -78 1691 -78 
Q 647 -78 647 1006 
L 647 2472 
L 128 2472 
L 128 3200 
L 647 3200 
L 647 3891 
L 1631 4172 
L 1631 3200 
L 2350 3200 
L 2350 2472 
L 1631 2472 
L 1631 1178 
Q 1631 678 2028 678 
Q 2184 678 2350 769 
L 2350 38 
z
" transform="scale(0.015625)"/>
     </defs>
     <use xlink:href="#SegoeUI-Bold-45"/>
     <use xlink:href="#SegoeUI-Bold-6c" x="53.222656"/>
     <use xlink:href="#SegoeUI-Bold-69" x="81.640625"/>
     <use xlink:href="#SegoeUI-Bold-70" x="110.058594"/>
     <use xlink:href="#SegoeUI-Bold-73" x="172.070312"/>
     <use xlink:href="#SegoeUI-Bold-65" x="216.064453"/>
     <use xlink:href="#SegoeUI-Bold-20" x="270.166016"/>
     <use xlink:href="#SegoeUI-Bold-63" x="297.753906"/>
     <use xlink:href="#SegoeUI-Bold-6f" x="345.751953"/>
     <use xlink:href="#SegoeUI-Bold-6e" x="406.884766"/>
     <use xlink:href="#SegoeUI-Bold-20" x="467.382812"/>
     <use xlink:href="#SegoeUI-Bold-45" x="494.970703"/>
     <use xlink:href="#SegoeUI-Bold-6a" x="548.193359"/>
     <use xlink:href="#SegoeUI-Bold-65" x="576.611328"/>
     <use xlink:href="#SegoeUI-Bold-20" x="630.712891"/>
     <use xlink:href="#SegoeUI-Bold-4d" x="658.300781"/>
     <use xlink:href="#SegoeUI-Bold-61" x="754.003906"/>
     <use xlink:href="#SegoeUI-Bold-79" x="807.8125"/>
     <use xlink:href="#SegoeUI-Bold-6f" x="860.621094"/>
     <use xlink:href="#SegoeUI-Bold-72" x="921.753906"/>
     <use xlink:href="#SegoeUI-Bold-20" x="961.548828"/>
     <use xlink:href="#SegoeUI-Bold-48" x="989.136719"/>
     <use xlink:href="#SegoeUI-Bold-6f" x="1065.748047"/>
     <use xlink:href="#SegoeUI-Bold-72" x="1126.880859"/>
     <use xlink:href="#SegoeUI-Bold-69" x="1167.050781"/>
     <use xlink:href="#SegoeUI-Bold-7a" x="1195.46875"/>
     <use xlink:href="#SegoeUI-Bold-6f" x="1243.369141"/>
     <use xlink:href="#SegoeUI-Bold-6e" x="1304.501953"/>
     <use xlink:href="#SegoeUI-Bold-74" x="1365"/>
     <use xlink:href="#SegoeUI-Bold-61" x="1403.916016"/>
     <use xlink:href="#SegoeUI-Bold-6c" x="1457.724609"/>
    </g>
   </g>
   <g id="line2d_35">
    <defs>
     <path id="mc1df6584c7" d="M 0 4 
C 1.060812 4 2.078319 3.578535 2.828427 2.828427 
C 3.578535 2.078319 4 1.060812 4 0 
C 4 -1.060812 3.578535 -2.078319 2.828427 -2.828427 
C 2.078319 -3.578535 1.060812 -4 0 -4 
C -1.060812 -4 -2.078319 -3.578535 -2.828427 -2.828427 
C -3.578535 -2.078319 -4 -1.060812 -4 0 
C -4 1.060812 -3.578535 2.078319 -2.828427 2.828427 
C -2.078319 3.578535 -1.060812 4 0 4 
z
" style="stroke: #39c5bb"/>
    </defs>
    <g clip-path="url(#pee1542abc5)">
     <use xlink:href="#mc1df6584c7" x="508.19976" y="179.872922" style="fill: #39c5bb; stroke: #39c5bb"/>
    </g>
   </g>
   <g id="line2d_36">
    <defs>
     <path id="mb252f3f30e" d="M 0 -7.5 
L -1.683855 -2.317627 
L -7.132924 -2.317627 
L -2.724534 0.885255 
L -4.408389 6.067627 
L -0 2.864745 
L 4.408389 6.067627 
L 2.724534 0.885255 
L 7.132924 -2.317627 
L 1.683855 -2.317627 
z
" style="stroke: #f59e0b; stroke-linejoin: bevel"/>
    </defs>
    <g clip-path="url(#pee1542abc5)">
     <use xlink:href="#mb252f3f30e" x="632.158179" y="179.872922" style="fill: #f59e0b; stroke: #f59e0b; stroke-linejoin: bevel"/>
    </g>
   </g>
   <g id="line2d_37">
    <g clip-path="url(#pee1542abc5)">
     <use xlink:href="#mb252f3f30e" x="384.241341" y="179.872922" style="fill: #f59e0b; stroke: #f59e0b; stroke-linejoin: bevel"/>
    </g>
   </g>
   <g id="line2d_38">
    <defs>
     <path id="m6bc79adcd1" d="M 0 4 
C 1.060812 4 2.078319 3.578535 2.828427 2.828427 
C 3.578535 2.078319 4 1.060812 4 0 
C 4 -1.060812 3.578535 -2.078319 2.828427 -2.828427 
C 2.078319 -3.578535 1.060812 -4 0 -4 
C -1.060812 -4 -2.078319 -3.578535 -2.828427 -2.828427 
C -3.578535 -2.078319 -4 -1.060812 -4 0 
C -4 1.060812 -3.578535 2.078319 -2.828427 2.828427 
C -2.078319 3.578535 -1.060812 4 0 4 
z
" style="stroke: #e12885"/>
    </defs>
    <g clip-path="url(#pee1542abc5)">
     <use xlink:href="#m6bc79adcd1" x="666.993623" y="179.872922" style="fill: #e12885; stroke: #e12885"/>
    </g>
   </g>
   <g id="line2d_39">
    <g clip-path="url(#pee1542abc5)">
     <use xlink:href="#m6bc79adcd1" x="349.405897" y="179.872922" style="fill: #e12885; stroke: #e12885"/>
    </g>
   </g>
   <g id="line2d_40">
    <defs>
     <path id="mf6cef8c223" d="M 0 4 
C 1.060812 4 2.078319 3.578535 2.828427 2.828427 
C 3.578535 2.078319 4 1.060812 4 0 
C 4 -1.060812 3.578535 -2.078319 2.828427 -2.828427 
C 2.078319 -3.578535 1.060812 -4 0 -4 
C -1.060812 -4 -2.078319 -3.578535 -2.828427 -2.828427 
C -3.578535 -2.078319 -4 -1.060812 -4 0 
C -4 1.060812 -3.578535 2.078319 -2.828427 2.828427 
C -2.078319 3.578535 -1.060812 4 0 4 
z
" style="stroke: #4b5563"/>
    </defs>
    <g clip-path="url(#pee1542abc5)">
     <use xlink:href="#mf6cef8c223" x="508.19976" y="80.626758" style="fill: #4b5563; stroke: #4b5563"/>
    </g>
   </g>
   <g id="line2d_41">
    <g clip-path="url(#pee1542abc5)">
     <use xlink:href="#mf6cef8c223" x="508.19976" y="279.119087" style="fill: #4b5563; stroke: #4b5563"/>
    </g>
   </g>
   <g id="line2d_42">
    <defs>
     <path id="m14b2929dc7" d="M 0 5 
C 1.326016 5 2.597899 4.473168 3.535534 3.535534 
C 4.473168 2.597899 5 1.326016 5 0 
C 5 -1.326016 4.473168 -2.597899 3.535534 -3.535534 
C 2.597899 -4.473168 1.326016 -5 0 -5 
C -1.326016 -5 -2.597899 -4.473168 -3.535534 -3.535534 
C -4.473168 -2.597899 -5 -1.326016 -5 0 
C -5 1.326016 -4.473168 2.597899 -3.535534 3.535534 
C -2.597899 4.473168 -1.326016 5 0 5 
z
" style="stroke: #1f2937"/>
    </defs>
    <g clip-path="url(#pee1542abc5)">
     <use xlink:href="#m14b2929dc7" x="587.596691" y="93.923223" style="fill: #1f2937; stroke: #1f2937"/>
    </g>
   </g>
  </g>
  <g id="axes_2">
   <g id="patch_7">
    <path d="M 19.961993 523.233235 
L 419.837767 523.233235 
L 419.837767 443.072871 
L 19.961993 443.072871 
z
" clip-path="url(#p7139d6ca74)" style="fill: #eff6ff; stroke: #e12885; stroke-width: 1.5; stroke-linejoin: miter"/>
   </g>
   <g id="patch_8">
    <path d="M 19.961993 621.715967 
L 419.837767 621.715967 
L 419.837767 534.684715 
L 19.961993 534.684715 
z
" clip-path="url(#p7139d6ca74)" style="fill: #f0fdf4; stroke: #4b5563; stroke-width: 1.5; stroke-linejoin: miter"/>
   </g>
   <g id="text_29">
    <!-- ECUACIONES CANÓNICAS -->
    <g style="fill: #39c5bb" transform="translate(152.400271 431.621391) scale(0.11 -0.11)">
     <defs>
      <path id="SegoeUI-Bold-55" d="M 4166 1941 
Q 4166 -78 2284 -78 
Q 459 -78 459 1894 
L 459 4481 
L 1472 4481 
L 1472 1881 
Q 1472 794 2322 794 
Q 3156 794 3156 1844 
L 3156 4481 
L 4166 4481 
L 4166 1941 
z
" transform="scale(0.015625)"/>
      <path id="SegoeUI-Bold-41" d="M 4453 0 
L 3353 0 
L 3034 997 
L 1441 997 
L 1125 0 
L 31 0 
L 1663 4481 
L 2859 4481 
L 4453 0 
z
M 2803 1772 
L 2322 3278 
Q 2269 3447 2247 3681 
L 2222 3681 
Q 2206 3484 2144 3291 
L 1656 1772 
L 2803 1772 
z
" transform="scale(0.015625)"/>
      <path id="SegoeUI-Bold-49" d="M 1522 0 
L 513 0 
L 513 4481 
L 1522 4481 
L 1522 0 
z
" transform="scale(0.015625)"/>
      <path id="SegoeUI-Bold-4f" d="M 2406 -78 
Q 1444 -78 837 548 
Q 231 1175 231 2181 
Q 231 3244 847 3900 
Q 1463 4556 2478 4556 
Q 3438 4556 4030 3928 
Q 4622 3300 4622 2272 
Q 4622 1216 4008 569 
Q 3394 -78 2406 -78 
z
M 2450 3688 
Q 1919 3688 1606 3289 
Q 1294 2891 1294 2234 
Q 1294 1569 1606 1181 
Q 1919 794 2425 794 
Q 2947 794 3253 1170 
Q 3559 1547 3559 2216 
Q 3559 2913 3262 3300 
Q 2966 3688 2450 3688 
z
" transform="scale(0.015625)"/>
      <path id="SegoeUI-Bold-4e" d="M 4544 0 
L 3525 0 
L 1678 2816 
Q 1516 3063 1453 3188 
L 1441 3188 
Q 1466 2950 1466 2463 
L 1466 0 
L 513 0 
L 513 4481 
L 1600 4481 
L 3378 1753 
Q 3500 1569 3603 1388 
L 3616 1388 
Q 3591 1544 3591 2003 
L 3591 4481 
L 4544 4481 
L 4544 0 
z
" transform="scale(0.015625)"/>
      <path id="SegoeUI-Bold-53" d="M 306 172 
L 306 1172 
Q 578 944 897 830 
Q 1216 716 1541 716 
Q 1731 716 1873 750 
Q 2016 784 2111 845 
Q 2206 906 2253 989 
Q 2300 1072 2300 1169 
Q 2300 1300 2225 1403 
Q 2150 1506 2020 1593 
Q 1891 1681 1712 1762 
Q 1534 1844 1328 1928 
Q 803 2147 545 2462 
Q 288 2778 288 3225 
Q 288 3575 428 3826 
Q 569 4078 811 4240 
Q 1053 4403 1372 4479 
Q 1691 4556 2047 4556 
Q 2397 4556 2667 4514 
Q 2938 4472 3166 4384 
L 3166 3450 
Q 3053 3528 2920 3587 
Q 2788 3647 2647 3686 
Q 2506 3725 2367 3744 
Q 2228 3763 2103 3763 
Q 1931 3763 1790 3730 
Q 1650 3697 1553 3637 
Q 1456 3578 1403 3495 
Q 1350 3413 1350 3309 
Q 1350 3197 1409 3108 
Q 1469 3019 1578 2939 
Q 1688 2859 1844 2782 
Q 2000 2706 2197 2625 
Q 2466 2513 2680 2386 
Q 2894 2259 3047 2100 
Q 3200 1941 3281 1736 
Q 3363 1531 3363 1259 
Q 3363 884 3220 629 
Q 3078 375 2834 217 
Q 2591 59 2267 -9 
Q 1944 -78 1584 -78 
Q 1216 -78 883 -15 
Q 550 47 306 172 
z
" transform="scale(0.015625)"/>
      <path id="SegoeUI-Bold-d3" d="M 2406 -78 
Q 1444 -78 837 548 
Q 231 1175 231 2181 
Q 231 3244 847 3900 
Q 1463 4556 2478 4556 
Q 3438 4556 4030 3928 
Q 4622 3300 4622 2272 
Q 4622 1216 4008 569 
Q 3394 -78 2406 -78 
z
M 2450 3688 
Q 1919 3688 1606 3289 
Q 1294 2891 1294 2234 
Q 1294 1569 1606 1181 
Q 1919 794 2425 794 
Q 2947 794 3253 1170 
Q 3559 1547 3559 2216 
Q 3559 2913 3262 3300 
Q 2966 3688 2450 3688 
z
M 3471 5932 
L 2492 4922 
L 1780 4922 
L 2592 5932 
L 3471 5932 
z
" transform="scale(0.015625)"/>
     </defs>
     <use xlink:href="#SegoeUI-Bold-45"/>
     <use xlink:href="#SegoeUI-Bold-43" x="53.222656"/>
     <use xlink:href="#SegoeUI-Bold-55" x="115.625"/>
     <use xlink:href="#SegoeUI-Bold-41" x="185.689453"/>
     <use xlink:href="#SegoeUI-Bold-43" x="254.501953"/>
     <use xlink:href="#SegoeUI-Bold-49" x="316.904297"/>
     <use xlink:href="#SegoeUI-Bold-4f" x="348.59375"/>
     <use xlink:href="#SegoeUI-Bold-4e" x="424.423828"/>
     <use xlink:href="#SegoeUI-Bold-45" x="503.427734"/>
     <use xlink:href="#SegoeUI-Bold-53" x="556.650391"/>
     <use xlink:href="#SegoeUI-Bold-20" x="612.705078"/>
     <use xlink:href="#SegoeUI-Bold-43" x="640.292969"/>
     <use xlink:href="#SegoeUI-Bold-41" x="702.695312"/>
     <use xlink:href="#SegoeUI-Bold-4e" x="773.007812"/>
     <use xlink:href="#SegoeUI-Bold-d3" x="852.011719"/>
     <use xlink:href="#SegoeUI-Bold-4e" x="927.792969"/>
     <use xlink:href="#SegoeUI-Bold-49" x="1006.796875"/>
     <use xlink:href="#SegoeUI-Bold-43" x="1038.486328"/>
     <use xlink:href="#SegoeUI-Bold-41" x="1100.888672"/>
     <use xlink:href="#SegoeUI-Bold-53" x="1171.201172"/>
    </g>
   </g>
   <g id="text_30">
    <!-- Eje mayor horizontal (a &gt; b) -->
    <g style="fill: #e12885" transform="translate(154.204568 456.814648) scale(0.1 -0.1)">
     <defs>
      <path id="SegoeUI-Bold-6d" d="M 5497 0 
L 4513 0 
L 4513 1825 
Q 4513 2522 4000 2522 
Q 3756 2522 3603 2312 
Q 3450 2103 3450 1791 
L 3450 0 
L 2463 0 
L 2463 1844 
Q 2463 2522 1959 2522 
Q 1706 2522 1554 2322 
Q 1403 2122 1403 1778 
L 1403 0 
L 416 0 
L 416 3200 
L 1403 3200 
L 1403 2700 
L 1416 2700 
Q 1569 2956 1845 3117 
Q 2122 3278 2450 3278 
Q 3128 3278 3378 2681 
Q 3744 3278 4453 3278 
Q 5497 3278 5497 1991 
L 5497 0 
z
" transform="scale(0.015625)"/>
      <path id="SegoeUI-Bold-68" d="M 3488 0 
L 2503 0 
L 2503 1819 
Q 2503 2522 1991 2522 
Q 1728 2522 1565 2325 
Q 1403 2128 1403 1825 
L 1403 0 
L 416 0 
L 416 4738 
L 1403 4738 
L 1403 2725 
L 1416 2725 
Q 1778 3278 2400 3278 
Q 3488 3278 3488 1966 
L 3488 0 
z
" transform="scale(0.015625)"/>
      <path id="SegoeUI-Bold-28" d="M 2309 -1019 
L 1503 -1019 
Q 494 94 494 1716 
Q 494 3281 1503 4481 
L 2303 4481 
Q 1356 3225 1356 1716 
Q 1356 206 2309 -1019 
z
" transform="scale(0.015625)"/>
      <path id="SegoeUI-Bold-3e" d="M 3725 1569 
L 806 238 
L 806 978 
L 2894 1813 
L 2894 1825 
L 806 2719 
L 806 3463 
L 3725 2075 
L 3725 1569 
z
" transform="scale(0.015625)"/>
      <path id="SegoeUI-Bold-29" d="M 856 -1019 
L 56 -1019 
Q 1013 200 1013 1716 
Q 1013 3219 56 4481 
L 863 4481 
Q 1875 3278 1875 1716 
Q 1875 106 856 -1019 
z
" transform="scale(0.015625)"/>
     </defs>
     <use xlink:href="#SegoeUI-Bold-45"/>
     <use xlink:href="#SegoeUI-Bold-6a" x="53.222656"/>
     <use xlink:href="#SegoeUI-Bold-65" x="81.640625"/>
     <use xlink:href="#SegoeUI-Bold-20" x="135.742188"/>
     <use xlink:href="#SegoeUI-Bold-6d" x="163.330078"/>
     <use xlink:href="#SegoeUI-Bold-61" x="254.931641"/>
     <use xlink:href="#SegoeUI-Bold-79" x="308.740234"/>
     <use xlink:href="#SegoeUI-Bold-6f" x="361.548828"/>
     <use xlink:href="#SegoeUI-Bold-72" x="422.681641"/>
     <use xlink:href="#SegoeUI-Bold-20" x="462.476562"/>
     <use xlink:href="#SegoeUI-Bold-68" x="490.064453"/>
     <use xlink:href="#SegoeUI-Bold-6f" x="550.269531"/>
     <use xlink:href="#SegoeUI-Bold-72" x="611.402344"/>
     <use xlink:href="#SegoeUI-Bold-69" x="651.572266"/>
     <use xlink:href="#SegoeUI-Bold-7a" x="679.990234"/>
     <use xlink:href="#SegoeUI-Bold-6f" x="727.890625"/>
     <use xlink:href="#SegoeUI-Bold-6e" x="789.023438"/>
     <use xlink:href="#SegoeUI-Bold-74" x="849.521484"/>
     <use xlink:href="#SegoeUI-Bold-61" x="888.4375"/>
     <use xlink:href="#SegoeUI-Bold-6c" x="942.246094"/>
     <use xlink:href="#SegoeUI-Bold-20" x="970.664062"/>
     <use xlink:href="#SegoeUI-Bold-28" x="998.251953"/>
     <use xlink:href="#SegoeUI-Bold-61" x="1035.166016"/>
     <use xlink:href="#SegoeUI-Bold-20" x="1088.974609"/>
     <use xlink:href="#SegoeUI-Bold-3e" x="1116.5625"/>
     <use xlink:href="#SegoeUI-Bold-20" x="1187.265625"/>
     <use xlink:href="#SegoeUI-Bold-62" x="1214.853516"/>
     <use xlink:href="#SegoeUI-Bold-29" x="1276.865234"/>
    </g>
   </g>
   <g id="text_31">
    <!-- $\frac{x^2}{a^2} + \frac{y^2}{b^2} = 1$ -->
    <g style="fill: #2c2f33" transform="translate(187.59488 484.298201) scale(0.13 -0.13)">
     <defs>
      <path id="DejaVuSans-Oblique-78" d="M 3841 3500 
L 2234 1784 
L 3219 0 
L 2559 0 
L 1819 1388 
L 531 0 
L -166 0 
L 1556 1844 
L 641 3500 
L 1300 3500 
L 1972 2234 
L 3144 3500 
L 3841 3500 
z
" transform="scale(0.015625)"/>
      <path id="DejaVuSans-Oblique-79" d="M 1588 -325 
Q 1188 -997 936 -1164 
Q 684 -1331 294 -1331 
L -159 -1331 
L -63 -850 
L 269 -850 
Q 509 -850 678 -719 
Q 847 -588 1056 -206 
L 1234 128 
L 459 3500 
L 1069 3500 
L 1650 819 
L 3256 3500 
L 3859 3500 
L 1588 -325 
z
" transform="scale(0.015625)"/>
      <path id="DejaVuSans-Oblique-62" d="M 3169 2138 
Q 3169 2591 2961 2847 
Q 2753 3103 2388 3103 
Q 2122 3103 1889 2973 
Q 1656 2844 1484 2597 
Q 1303 2338 1198 1995 
Q 1094 1653 1094 1313 
Q 1094 881 1298 636 
Q 1503 391 1863 391 
Q 2134 391 2365 517 
Q 2597 644 2772 891 
Q 2950 1147 3059 1487 
Q 3169 1828 3169 2138 
z
M 1381 2969 
Q 1594 3256 1914 3420 
Q 2234 3584 2584 3584 
Q 3122 3584 3439 3221 
Q 3756 2859 3756 2241 
Q 3756 1734 3570 1259 
Q 3384 784 3041 416 
Q 2816 172 2522 40 
Q 2228 -91 1906 -91 
Q 1566 -91 1316 65 
Q 1066 222 909 531 
L 806 0 
L 231 0 
L 1178 4863 
L 1753 4863 
L 1381 2969 
z
" transform="scale(0.015625)"/>
     </defs>
     <use xlink:href="#DejaVuSans-Oblique-78" transform="translate(1 44.278125) scale(0.7)"/>
     <use xlink:href="#DejaVuSans-32" transform="translate(45.552083 71.075) scale(0.49)"/>
     <use xlink:href="#DejaVuSans-Oblique-61" transform="translate(0 -50.135938) scale(0.7)"/>
     <use xlink:href="#DejaVuSans-32" transform="translate(46.150435 -23.339063) scale(0.49)"/>
     <use xlink:href="#DejaVuSans-2b" transform="translate(111.222212 0.48125)"/>
     <use xlink:href="#DejaVuSans-Oblique-79" transform="translate(217.493697 58.835938) scale(0.7)"/>
     <use xlink:href="#DejaVuSans-32" transform="translate(262.04578 85.632812) scale(0.49)"/>
     <use xlink:href="#DejaVuSans-Oblique-62" transform="translate(214.493697 -50.135937) scale(0.7)"/>
     <use xlink:href="#DejaVuSans-32" transform="translate(264.140686 -23.339062) scale(0.49)"/>
     <use xlink:href="#DejaVuSans-3d" transform="translate(329.212464 0.48125)"/>
     <use xlink:href="#DejaVuSans-31" transform="translate(432.483948 0.48125)"/>
     <path d="M 0 19.278125 
L 0 25.528125 
L 79.23979 25.528125 
L 79.23979 19.278125 
L 0 19.278125 
z
"/>
     <path d="M 214.493697 19.278125 
L 214.493697 25.528125 
L 297.230042 25.528125 
L 297.230042 19.278125 
L 214.493697 19.278125 
z
"/>
    </g>
   </g>
   <g id="text_32">
    <!-- Focos: $(\pm c, 0)$  •  Vértices: $(\pm a, 0)$ -->
    <g style="fill: #6b7280" transform="translate(150.59988 511.781754) scale(0.09 -0.09)">
     <defs>
      <path id="SegoeUI-46" d="M 2863 4006 
L 1113 4006 
L 1113 2456 
L 2731 2456 
L 2731 1984 
L 1113 1984 
L 1113 0 
L 588 0 
L 588 4481 
L 2863 4481 
L 2863 4006 
z
" transform="scale(0.015625)"/>
      <path id="SegoeUI-6f" d="M 1856 -75 
Q 1147 -75 723 373 
Q 300 822 300 1563 
Q 300 2369 740 2822 
Q 1181 3275 1931 3275 
Q 2647 3275 3048 2834 
Q 3450 2394 3450 1613 
Q 3450 847 3017 386 
Q 2584 -75 1856 -75 
z
M 1894 2844 
Q 1400 2844 1112 2508 
Q 825 2172 825 1581 
Q 825 1013 1115 684 
Q 1406 356 1894 356 
Q 2391 356 2658 678 
Q 2925 1000 2925 1594 
Q 2925 2194 2658 2519 
Q 2391 2844 1894 2844 
z
" transform="scale(0.015625)"/>
      <path id="SegoeUI-3a" d="M 697 2575 
Q 553 2575 451 2678 
Q 350 2781 350 2925 
Q 350 3069 451 3169 
Q 553 3269 697 3269 
Q 844 3269 947 3169 
Q 1050 3069 1050 2925 
Q 1050 2781 947 2678 
Q 844 2575 697 2575 
z
M 697 -69 
Q 553 -69 451 34 
Q 350 138 350 281 
Q 350 425 451 529 
Q 553 634 697 634 
Q 844 634 947 529 
Q 1050 425 1050 281 
Q 1050 138 947 34 
Q 844 -69 697 -69 
z
" transform="scale(0.015625)"/>
      <path id="DejaVuSans-28" d="M 1984 4856 
Q 1566 4138 1362 3434 
Q 1159 2731 1159 2009 
Q 1159 1288 1364 580 
Q 1569 -128 1984 -844 
L 1484 -844 
Q 1016 -109 783 600 
Q 550 1309 550 2009 
Q 550 2706 781 3412 
Q 1013 4119 1484 4856 
L 1984 4856 
z
" transform="scale(0.015625)"/>
      <path id="DejaVuSans-b1" d="M 2944 4013 
L 2944 2803 
L 4684 2803 
L 4684 2272 
L 2944 2272 
L 2944 1063 
L 2419 1063 
L 2419 2272 
L 678 2272 
L 678 2803 
L 2419 2803 
L 2419 4013 
L 2944 4013 
z
M 678 531 
L 4684 531 
L 4684 0 
L 678 0 
L 678 531 
z
" transform="scale(0.015625)"/>
      <path id="DejaVuSans-Oblique-63" d="M 3431 3366 
L 3316 2797 
Q 3109 2947 2876 3022 
Q 2644 3097 2394 3097 
Q 2119 3097 1870 3000 
Q 1622 2903 1453 2725 
Q 1184 2453 1037 2087 
Q 891 1722 891 1331 
Q 891 859 1127 628 
Q 1363 397 1844 397 
Q 2081 397 2348 469 
Q 2616 541 2906 684 
L 2797 116 
Q 2547 13 2283 -39 
Q 2019 -91 1741 -91 
Q 1044 -91 669 257 
Q 294 606 294 1253 
Q 294 1797 489 2255 
Q 684 2713 1069 3078 
Q 1331 3328 1684 3456 
Q 2038 3584 2456 3584 
Q 2700 3584 2940 3529 
Q 3181 3475 3431 3366 
z
" transform="scale(0.015625)"/>
      <path id="DejaVuSans-2c" d="M 750 794 
L 1409 794 
L 1409 256 
L 897 -744 
L 494 -744 
L 750 256 
L 750 794 
z
" transform="scale(0.015625)"/>
      <path id="DejaVuSans-30" d="M 2034 4250 
Q 1547 4250 1301 3770 
Q 1056 3291 1056 2328 
Q 1056 1369 1301 889 
Q 1547 409 2034 409 
Q 2525 409 2770 889 
Q 3016 1369 3016 2328 
Q 3016 3291 2770 3770 
Q 2525 4250 2034 4250 
z
M 2034 4750 
Q 2819 4750 3233 4129 
Q 3647 3509 3647 2328 
Q 3647 1150 3233 529 
Q 2819 -91 2034 -91 
Q 1250 -91 836 529 
Q 422 1150 422 2328 
Q 422 3509 836 4129 
Q 1250 4750 2034 4750 
z
" transform="scale(0.015625)"/>
      <path id="DejaVuSans-29" d="M 513 4856 
L 1013 4856 
Q 1481 4119 1714 3412 
Q 1947 2706 1947 2009 
Q 1947 1309 1714 600 
Q 1481 -109 1013 -844 
L 513 -844 
Q 928 -128 1133 580 
Q 1338 1288 1338 2009 
Q 1338 2731 1133 3434 
Q 928 4138 513 4856 
z
" transform="scale(0.015625)"/>
      <path id="DejaVuSansDisplay-2022" d="M 959 2381 
Q 959 2769 1229 3036 
Q 1500 3303 1894 3303 
Q 2281 3303 2548 3036 
Q 2816 2769 2816 2381 
Q 2816 1991 2547 1722 
Q 2278 1453 1888 1453 
Q 1497 1453 1228 1722 
Q 959 1991 959 2381 
z
" transform="scale(0.015625)"/>
      <path id="SegoeUI-56" d="M 3919 4481 
L 2259 0 
L 1681 0 
L 56 4481 
L 641 4481 
L 1881 928 
Q 1941 756 1972 531 
L 1984 531 
Q 2009 719 2088 934 
L 3353 4481 
L 3919 4481 
z
" transform="scale(0.015625)"/>
      <path id="SegoeUI-e9" d="M 3091 1472 
L 831 1472 
Q 844 938 1119 647 
Q 1394 356 1875 356 
Q 2416 356 2869 713 
L 2869 231 
Q 2447 -75 1753 -75 
Q 1075 -75 687 361 
Q 300 797 300 1588 
Q 300 2334 723 2804 
Q 1147 3275 1775 3275 
Q 2403 3275 2747 2869 
Q 3091 2463 3091 1741 
L 3091 1472 
z
M 2566 1906 
Q 2563 2350 2352 2597 
Q 2141 2844 1766 2844 
Q 1403 2844 1150 2584 
Q 897 2325 838 1906 
L 2566 1906 
z
M 2486 4831 
L 1667 3806 
L 1270 3806 
L 1967 4831 
L 2486 4831 
z
" transform="scale(0.015625)"/>
      <path id="SegoeUI-72" d="M 2188 2681 
Q 2053 2784 1800 2784 
Q 1472 2784 1251 2475 
Q 1031 2166 1031 1631 
L 1031 0 
L 519 0 
L 519 3200 
L 1031 3200 
L 1031 2541 
L 1044 2541 
Q 1153 2878 1378 3067 
Q 1603 3256 1881 3256 
Q 2081 3256 2188 3213 
L 2188 2681 
z
" transform="scale(0.015625)"/>
      <path id="SegoeUI-74" d="M 2003 31 
Q 1822 -69 1525 -69 
Q 684 -69 684 869 
L 684 2763 
L 134 2763 
L 134 3200 
L 684 3200 
L 684 3981 
L 1197 4147 
L 1197 3200 
L 2003 3200 
L 2003 2763 
L 1197 2763 
L 1197 959 
Q 1197 638 1306 500 
Q 1416 363 1669 363 
Q 1863 363 2003 469 
L 2003 31 
z
" transform="scale(0.015625)"/>
     </defs>
     <use xlink:href="#SegoeUI-46" transform="translate(0 0.125)"/>
     <use xlink:href="#SegoeUI-6f" transform="translate(48.828125 0.125)"/>
     <use xlink:href="#SegoeUI-63" transform="translate(107.421875 0.125)"/>
     <use xlink:href="#SegoeUI-6f" transform="translate(153.613281 0.125)"/>
     <use xlink:href="#SegoeUI-73" transform="translate(212.207031 0.125)"/>
     <use xlink:href="#SegoeUI-3a" transform="translate(254.638672 0.125)"/>
     <use xlink:href="#SegoeUI-20" transform="translate(276.318359 0.125)"/>
     <use xlink:href="#DejaVuSans-28" transform="translate(303.710938 0.125)"/>
     <use xlink:href="#DejaVuSans-b1" transform="translate(342.724609 0.125)"/>
     <use xlink:href="#DejaVuSans-Oblique-63" transform="translate(426.513672 0.125)"/>
     <use xlink:href="#DejaVuSans-2c" transform="translate(481.494141 0.125)"/>
     <use xlink:href="#DejaVuSans-30" transform="translate(532.763672 0.125)"/>
     <use xlink:href="#DejaVuSans-29" transform="translate(596.386719 0.125)"/>
     <use xlink:href="#SegoeUI-20" transform="translate(635.400391 0.125)"/>
     <use xlink:href="#SegoeUI-20" transform="translate(662.792969 0.125)"/>
     <use xlink:href="#DejaVuSansDisplay-2022" transform="translate(690.185547 0.125)"/>
     <use xlink:href="#SegoeUI-20" transform="translate(749.169922 0.125)"/>
     <use xlink:href="#SegoeUI-20" transform="translate(776.5625 0.125)"/>
     <use xlink:href="#SegoeUI-56" transform="translate(803.955078 0.125)"/>
     <use xlink:href="#SegoeUI-e9" transform="translate(866.064453 0.125)"/>
     <use xlink:href="#SegoeUI-72" transform="translate(918.359375 0.125)"/>
     <use xlink:href="#SegoeUI-74" transform="translate(953.125 0.125)"/>
     <use xlink:href="#SegoeUI-69" transform="translate(987.011719 0.125)"/>
     <use xlink:href="#SegoeUI-63" transform="translate(1011.230469 0.125)"/>
     <use xlink:href="#SegoeUI-65" transform="translate(1057.421875 0.125)"/>
     <use xlink:href="#SegoeUI-73" transform="translate(1109.716797 0.125)"/>
     <use xlink:href="#SegoeUI-3a" transform="translate(1152.148438 0.125)"/>
     <use xlink:href="#SegoeUI-20" transform="translate(1173.828125 0.125)"/>
     <use xlink:href="#DejaVuSans-28" transform="translate(1201.220703 0.125)"/>
     <use xlink:href="#DejaVuSans-b1" transform="translate(1240.234375 0.125)"/>
     <use xlink:href="#DejaVuSans-Oblique-61" transform="translate(1324.023438 0.125)"/>
     <use xlink:href="#DejaVuSans-2c" transform="translate(1385.302734 0.125)"/>
     <use xlink:href="#DejaVuSans-30" transform="translate(1436.572266 0.125)"/>
     <use xlink:href="#DejaVuSans-29" transform="translate(1500.195312 0.125)"/>
    </g>
   </g>
   <g id="text_33">
    <!-- Eje mayor vertical (a &gt; b) -->
    <g style="fill: #4b5563" transform="translate(160.858474 548.426492) scale(0.1 -0.1)">
     <defs>
      <path id="SegoeUI-Bold-76" d="M 3463 3200 
L 2272 0 
L 1147 0 
L 13 3200 
L 1069 3200 
L 1625 1228 
Q 1719 894 1734 659 
L 1747 659 
Q 1769 881 1863 1209 
L 2431 3200 
L 3463 3200 
z
" transform="scale(0.015625)"/>
     </defs>
     <use xlink:href="#SegoeUI-Bold-45"/>
     <use xlink:href="#SegoeUI-Bold-6a" x="53.222656"/>
     <use xlink:href="#SegoeUI-Bold-65" x="81.640625"/>
     <use xlink:href="#SegoeUI-Bold-20" x="135.742188"/>
     <use xlink:href="#SegoeUI-Bold-6d" x="163.330078"/>
     <use xlink:href="#SegoeUI-Bold-61" x="254.931641"/>
     <use xlink:href="#SegoeUI-Bold-79" x="308.740234"/>
     <use xlink:href="#SegoeUI-Bold-6f" x="361.548828"/>
     <use xlink:href="#SegoeUI-Bold-72" x="422.681641"/>
     <use xlink:href="#SegoeUI-Bold-20" x="462.476562"/>
     <use xlink:href="#SegoeUI-Bold-76" x="490.064453"/>
     <use xlink:href="#SegoeUI-Bold-65" x="543.263672"/>
     <use xlink:href="#SegoeUI-Bold-72" x="597.365234"/>
     <use xlink:href="#SegoeUI-Bold-74" x="640.035156"/>
     <use xlink:href="#SegoeUI-Bold-69" x="678.951172"/>
     <use xlink:href="#SegoeUI-Bold-63" x="707.369141"/>
     <use xlink:href="#SegoeUI-Bold-61" x="755.367188"/>
     <use xlink:href="#SegoeUI-Bold-6c" x="809.175781"/>
     <use xlink:href="#SegoeUI-Bold-20" x="837.59375"/>
     <use xlink:href="#SegoeUI-Bold-28" x="865.181641"/>
     <use xlink:href="#SegoeUI-Bold-61" x="902.095703"/>
     <use xlink:href="#SegoeUI-Bold-20" x="955.904297"/>
     <use xlink:href="#SegoeUI-Bold-3e" x="983.492188"/>
     <use xlink:href="#SegoeUI-Bold-20" x="1054.195312"/>
     <use xlink:href="#SegoeUI-Bold-62" x="1081.783203"/>
     <use xlink:href="#SegoeUI-Bold-29" x="1143.794922"/>
    </g>
   </g>
   <g id="text_34">
    <!-- $\frac{x^2}{b^2} + \frac{y^2}{a^2} = 1$ -->
    <g style="fill: #2c2f33" transform="translate(187.59488 575.910045) scale(0.13 -0.13)">
     <use xlink:href="#DejaVuSans-Oblique-78" transform="translate(3 44.278125) scale(0.7)"/>
     <use xlink:href="#DejaVuSans-32" transform="translate(47.552083 71.075) scale(0.49)"/>
     <use xlink:href="#DejaVuSans-Oblique-62" transform="translate(0 -50.135938) scale(0.7)"/>
     <use xlink:href="#DejaVuSans-32" transform="translate(49.64699 -23.339063) scale(0.49)"/>
     <use xlink:href="#DejaVuSans-2b" transform="translate(114.718767 0.48125)"/>
     <use xlink:href="#DejaVuSans-Oblique-79" transform="translate(218.990251 58.835938) scale(0.7)"/>
     <use xlink:href="#DejaVuSans-32" transform="translate(263.542335 85.632812) scale(0.49)"/>
     <use xlink:href="#DejaVuSans-Oblique-61" transform="translate(217.990251 -50.135937) scale(0.7)"/>
     <use xlink:href="#DejaVuSans-32" transform="translate(264.140686 -23.339062) scale(0.49)"/>
     <use xlink:href="#DejaVuSans-3d" transform="translate(329.212464 0.48125)"/>
     <use xlink:href="#DejaVuSans-31" transform="translate(432.483948 0.48125)"/>
     <path d="M 0 19.278125 
L 0 25.528125 
L 82.736345 25.528125 
L 82.736345 19.278125 
L 0 19.278125 
z
"/>
     <path d="M 217.990251 19.278125 
L 217.990251 25.528125 
L 297.230042 25.528125 
L 297.230042 19.278125 
L 217.990251 19.278125 
z
"/>
    </g>
   </g>
   <g id="text_35">
    <!-- Focos: $(0, \pm c)$  •  Vértices: $(0, \pm a)$ -->
    <g style="fill: #6b7280" transform="translate(147.08988 603.393598) scale(0.09 -0.09)">
     <use xlink:href="#SegoeUI-46" transform="translate(0 0.125)"/>
     <use xlink:href="#SegoeUI-6f" transform="translate(48.828125 0.125)"/>
     <use xlink:href="#SegoeUI-63" transform="translate(107.421875 0.125)"/>
     <use xlink:href="#SegoeUI-6f" transform="translate(153.613281 0.125)"/>
     <use xlink:href="#SegoeUI-73" transform="translate(212.207031 0.125)"/>
     <use xlink:href="#SegoeUI-3a" transform="translate(254.638672 0.125)"/>
     <use xlink:href="#SegoeUI-20" transform="translate(276.318359 0.125)"/>
     <use xlink:href="#DejaVuSans-28" transform="translate(303.710938 0.125)"/>
     <use xlink:href="#DejaVuSans-30" transform="translate(342.724609 0.125)"/>
     <use xlink:href="#DejaVuSans-2c" transform="translate(406.347656 0.125)"/>
     <use xlink:href="#DejaVuSans-b1" transform="translate(477.099609 0.125)"/>
     <use xlink:href="#DejaVuSans-Oblique-63" transform="translate(580.371094 0.125)"/>
     <use xlink:href="#DejaVuSans-29" transform="translate(635.351562 0.125)"/>
     <use xlink:href="#SegoeUI-20" transform="translate(674.365234 0.125)"/>
     <use xlink:href="#SegoeUI-20" transform="translate(701.757812 0.125)"/>
     <use xlink:href="#DejaVuSansDisplay-2022" transform="translate(729.150391 0.125)"/>
     <use xlink:href="#SegoeUI-20" transform="translate(788.134766 0.125)"/>
     <use xlink:href="#SegoeUI-20" transform="translate(815.527344 0.125)"/>
     <use xlink:href="#SegoeUI-56" transform="translate(842.919922 0.125)"/>
     <use xlink:href="#SegoeUI-e9" transform="translate(905.029297 0.125)"/>
     <use xlink:href="#SegoeUI-72" transform="translate(957.324219 0.125)"/>
     <use xlink:href="#SegoeUI-74" transform="translate(992.089844 0.125)"/>
     <use xlink:href="#SegoeUI-69" transform="translate(1025.976562 0.125)"/>
     <use xlink:href="#SegoeUI-63" transform="translate(1050.195312 0.125)"/>
     <use xlink:href="#SegoeUI-65" transform="translate(1096.386719 0.125)"/>
     <use xlink:href="#SegoeUI-73" transform="translate(1148.681641 0.125)"/>
     <use xlink:href="#SegoeUI-3a" transform="translate(1191.113281 0.125)"/>
     <use xlink:href="#SegoeUI-20" transform="translate(1212.792969 0.125)"/>
     <use xlink:href="#DejaVuSans-28" transform="translate(1240.185547 0.125)"/>
     <use xlink:href="#DejaVuSans-30" transform="translate(1279.199219 0.125)"/>
     <use xlink:href="#DejaVuSans-2c" transform="translate(1342.822266 0.125)"/>
     <use xlink:href="#DejaVuSans-b1" transform="translate(1413.574219 0.125)"/>
     <use xlink:href="#DejaVuSans-Oblique-61" transform="translate(1516.845703 0.125)"/>
     <use xlink:href="#DejaVuSans-29" transform="translate(1578.125 0.125)"/>
    </g>
   </g>
  </g>
  <g id="axes_3">
   <g id="patch_9">
    <path d="M 596.561753 500.330274 
L 996.437527 500.330274 
L 996.437527 443.072871 
L 596.561753 443.072871 
z
" clip-path="url(#pb11afb6af7)" style="fill: #fef3c7; stroke: #f59e0b; stroke-width: 2; stroke-linejoin: miter"/>
   </g>
   <g id="patch_10">
    <path d="M 596.561753 580.490637 
L 996.437527 580.490637 
L 996.437527 511.781754 
L 596.561753 511.781754 
z
" clip-path="url(#pb11afb6af7)" style="fill: #fce7f3; stroke: #ec4899; stroke-width: 1.5; stroke-linejoin: miter"/>
   </g>
   <g id="text_36">
    <!-- RELACIONES Y PROPIEDADES -->
    <g style="fill: #f59e0b" transform="translate(720.149328 431.621391) scale(0.11 -0.11)">
     <defs>
      <path id="SegoeUI-Bold-52" d="M 4272 0 
L 3113 0 
L 2416 1153 
Q 2338 1284 2266 1387 
Q 2194 1491 2120 1564 
Q 2047 1638 1967 1677 
Q 1888 1716 1794 1716 
L 1522 1716 
L 1522 0 
L 513 0 
L 513 4481 
L 2113 4481 
Q 3744 4481 3744 3263 
Q 3744 3028 3672 2829 
Q 3600 2631 3469 2472 
Q 3338 2313 3152 2197 
Q 2966 2081 2738 2016 
L 2738 2003 
Q 2838 1972 2931 1901 
Q 3025 1831 3112 1737 
Q 3200 1644 3279 1536 
Q 3359 1428 3425 1325 
L 4272 0 
z
M 1522 3725 
L 1522 2478 
L 1959 2478 
Q 2284 2478 2481 2666 
Q 2681 2856 2681 3138 
Q 2681 3725 1978 3725 
L 1522 3725 
z
" transform="scale(0.015625)"/>
      <path id="SegoeUI-Bold-4c" d="M 3181 0 
L 513 0 
L 513 4481 
L 1522 4481 
L 1522 819 
L 3181 819 
L 3181 0 
z
" transform="scale(0.015625)"/>
      <path id="SegoeUI-Bold-59" d="M 3891 4481 
L 2431 1594 
L 2431 0 
L 1422 0 
L 1422 1575 
L 0 4481 
L 1153 4481 
L 1875 2809 
Q 1894 2763 1978 2444 
L 1991 2444 
Q 2031 2669 2088 2797 
L 2822 4481 
L 3891 4481 
z
" transform="scale(0.015625)"/>
      <path id="SegoeUI-Bold-44" d="M 513 0 
L 513 4481 
L 2100 4481 
Q 4488 4481 4488 2297 
Q 4488 1250 3836 625 
Q 3184 0 2100 0 
L 513 0 
z
M 1522 3659 
L 1522 819 
L 2022 819 
Q 2678 819 3051 1212 
Q 3425 1606 3425 2284 
Q 3425 2925 3054 3292 
Q 2684 3659 2016 3659 
L 1522 3659 
z
" transform="scale(0.015625)"/>
     </defs>
     <use xlink:href="#SegoeUI-Bold-52"/>
     <use xlink:href="#SegoeUI-Bold-45" x="65.283203"/>
     <use xlink:href="#SegoeUI-Bold-4c" x="118.505859"/>
     <use xlink:href="#SegoeUI-Bold-41" x="171.878906"/>
     <use xlink:href="#SegoeUI-Bold-43" x="240.691406"/>
     <use xlink:href="#SegoeUI-Bold-49" x="303.09375"/>
     <use xlink:href="#SegoeUI-Bold-4f" x="334.783203"/>
     <use xlink:href="#SegoeUI-Bold-4e" x="410.613281"/>
     <use xlink:href="#SegoeUI-Bold-45" x="489.617188"/>
     <use xlink:href="#SegoeUI-Bold-53" x="542.839844"/>
     <use xlink:href="#SegoeUI-Bold-20" x="598.894531"/>
     <use xlink:href="#SegoeUI-Bold-59" x="626.482422"/>
     <use xlink:href="#SegoeUI-Bold-20" x="687.175781"/>
     <use xlink:href="#SegoeUI-Bold-50" x="714.763672"/>
     <use xlink:href="#SegoeUI-Bold-52" x="776.189453"/>
     <use xlink:href="#SegoeUI-Bold-4f" x="840.472656"/>
     <use xlink:href="#SegoeUI-Bold-50" x="916.302734"/>
     <use xlink:href="#SegoeUI-Bold-49" x="977.728516"/>
     <use xlink:href="#SegoeUI-Bold-45" x="1009.417969"/>
     <use xlink:href="#SegoeUI-Bold-44" x="1062.640625"/>
     <use xlink:href="#SegoeUI-Bold-41" x="1134.871094"/>
     <use xlink:href="#SegoeUI-Bold-44" x="1205.183594"/>
     <use xlink:href="#SegoeUI-Bold-45" x="1278.914062"/>
     <use xlink:href="#SegoeUI-Bold-53" x="1332.136719"/>
    </g>
   </g>
   <g id="text_37">
    <!-- Relación Fundamental -->
    <g style="fill: #f59e0b" transform="translate(744.458234 456.814648) scale(0.1 -0.1)">
     <defs>
      <path id="SegoeUI-Bold-f3" d="M 1941 -78 
Q 1141 -78 683 370 
Q 225 819 225 1588 
Q 225 2381 700 2829 
Q 1175 3278 1984 3278 
Q 2781 3278 3234 2829 
Q 3688 2381 3688 1644 
Q 3688 847 3220 384 
Q 2753 -78 1941 -78 
z
M 1966 2522 
Q 1616 2522 1422 2281 
Q 1228 2041 1228 1600 
Q 1228 678 1972 678 
Q 2681 678 2681 1625 
Q 2681 2522 1966 2522 
z
M 3023 4716 
L 2044 3706 
L 1332 3706 
L 2144 4716 
L 3023 4716 
z
" transform="scale(0.015625)"/>
      <path id="SegoeUI-Bold-46" d="M 3103 3659 
L 1522 3659 
L 1522 2559 
L 2975 2559 
L 2975 1741 
L 1522 1741 
L 1522 0 
L 513 0 
L 513 4481 
L 3103 4481 
L 3103 3659 
z
" transform="scale(0.015625)"/>
      <path id="SegoeUI-Bold-75" d="M 3456 0 
L 2472 0 
L 2472 488 
L 2456 488 
Q 2091 -78 1478 -78 
Q 366 -78 366 1269 
L 366 3200 
L 1350 3200 
L 1350 1356 
Q 1350 678 1888 678 
Q 2153 678 2312 864 
Q 2472 1050 2472 1369 
L 2472 3200 
L 3456 3200 
L 3456 0 
z
" transform="scale(0.015625)"/>
      <path id="SegoeUI-Bold-64" d="M 3547 0 
L 2559 0 
L 2559 441 
L 2547 441 
Q 2209 -78 1556 -78 
Q 956 -78 590 345 
Q 225 769 225 1528 
Q 225 2322 628 2800 
Q 1031 3278 1684 3278 
Q 2303 3278 2547 2834 
L 2559 2834 
L 2559 4738 
L 3547 4738 
L 3547 0 
z
M 2578 1556 
L 2578 1797 
Q 2578 2109 2397 2315 
Q 2216 2522 1925 2522 
Q 1597 2522 1412 2264 
Q 1228 2006 1228 1556 
Q 1228 1134 1406 906 
Q 1584 678 1900 678 
Q 2200 678 2389 918 
Q 2578 1159 2578 1556 
z
" transform="scale(0.015625)"/>
     </defs>
     <use xlink:href="#SegoeUI-Bold-52"/>
     <use xlink:href="#SegoeUI-Bold-65" x="62.783203"/>
     <use xlink:href="#SegoeUI-Bold-6c" x="116.884766"/>
     <use xlink:href="#SegoeUI-Bold-61" x="145.302734"/>
     <use xlink:href="#SegoeUI-Bold-63" x="199.111328"/>
     <use xlink:href="#SegoeUI-Bold-69" x="247.109375"/>
     <use xlink:href="#SegoeUI-Bold-f3" x="275.527344"/>
     <use xlink:href="#SegoeUI-Bold-6e" x="336.611328"/>
     <use xlink:href="#SegoeUI-Bold-20" x="397.109375"/>
     <use xlink:href="#SegoeUI-Bold-46" x="424.697266"/>
     <use xlink:href="#SegoeUI-Bold-75" x="476.699219"/>
     <use xlink:href="#SegoeUI-Bold-6e" x="537.197266"/>
     <use xlink:href="#SegoeUI-Bold-64" x="597.695312"/>
     <use xlink:href="#SegoeUI-Bold-61" x="659.609375"/>
     <use xlink:href="#SegoeUI-Bold-6d" x="713.417969"/>
     <use xlink:href="#SegoeUI-Bold-65" x="805.019531"/>
     <use xlink:href="#SegoeUI-Bold-6e" x="859.121094"/>
     <use xlink:href="#SegoeUI-Bold-74" x="919.619141"/>
     <use xlink:href="#SegoeUI-Bold-61" x="958.535156"/>
     <use xlink:href="#SegoeUI-Bold-6c" x="1012.34375"/>
    </g>
   </g>
   <g id="text_38">
    <!-- $c^2 = a^2 - b^2$  o  $a^2 = b^2 + c^2$ -->
    <g style="fill: #2c2f33" transform="translate(716.33964 484.298201) scale(0.12 -0.12)">
     <defs>
      <path id="DejaVuSans-2212" d="M 678 2272 
L 4684 2272 
L 4684 1741 
L 678 1741 
L 678 2272 
z
" transform="scale(0.015625)"/>
     </defs>
     <use xlink:href="#DejaVuSans-Oblique-63" transform="translate(0 0.765625)"/>
     <use xlink:href="#DejaVuSans-32" transform="translate(59.630365 39.046875) scale(0.7)"/>
     <use xlink:href="#DejaVuSans-3d" transform="translate(126.383294 0.765625)"/>
     <use xlink:href="#DejaVuSans-Oblique-61" transform="translate(229.654779 0.765625)"/>
     <use xlink:href="#DejaVuSans-32" transform="translate(295.583971 39.046875) scale(0.7)"/>
     <use xlink:href="#DejaVuSans-2212" transform="translate(362.336901 0.765625)"/>
     <use xlink:href="#DejaVuSans-Oblique-62" transform="translate(465.608385 0.765625)"/>
     <use xlink:href="#DejaVuSans-32" transform="translate(536.532656 39.046875) scale(0.7)"/>
     <use xlink:href="#SegoeUI-20" transform="translate(583.803164 0.765625)"/>
     <use xlink:href="#SegoeUI-20" transform="translate(611.195742 0.765625)"/>
     <use xlink:href="#SegoeUI-6f" transform="translate(638.58832 0.765625)"/>
     <use xlink:href="#SegoeUI-20" transform="translate(697.18207 0.765625)"/>
     <use xlink:href="#SegoeUI-20" transform="translate(724.574648 0.765625)"/>
     <use xlink:href="#DejaVuSans-Oblique-61" transform="translate(751.967227 0.765625)"/>
     <use xlink:href="#DejaVuSans-32" transform="translate(817.896419 39.046875) scale(0.7)"/>
     <use xlink:href="#DejaVuSans-3d" transform="translate(884.649349 0.765625)"/>
     <use xlink:href="#DejaVuSans-Oblique-62" transform="translate(987.920833 0.765625)"/>
     <use xlink:href="#DejaVuSans-32" transform="translate(1058.845104 39.046875) scale(0.7)"/>
     <use xlink:href="#DejaVuSans-2b" transform="translate(1125.598034 0.765625)"/>
     <use xlink:href="#DejaVuSans-Oblique-63" transform="translate(1228.869518 0.765625)"/>
     <use xlink:href="#DejaVuSans-32" transform="translate(1288.499883 39.046875) scale(0.7)"/>
    </g>
   </g>
   <g id="text_39">
    <!-- Excentricidad -->
    <g style="fill: #ec4899" transform="translate(764.955109 525.523531) scale(0.1 -0.1)">
     <defs>
      <path id="SegoeUI-Bold-78" d="M 3506 3200 
L 2450 1650 
L 3500 0 
L 2363 0 
L 1900 863 
Q 1844 966 1766 1153 
L 1753 1153 
Q 1706 1022 1625 872 
L 1159 0 
L 25 0 
L 1106 1594 
L 91 3200 
L 1234 3200 
L 1691 2303 
Q 1781 2125 1819 2003 
L 1831 2003 
Q 1881 2150 1966 2309 
L 2431 3200 
L 3506 3200 
z
" transform="scale(0.015625)"/>
     </defs>
     <use xlink:href="#SegoeUI-Bold-45"/>
     <use xlink:href="#SegoeUI-Bold-78" x="53.222656"/>
     <use xlink:href="#SegoeUI-Bold-63" x="106.697266"/>
     <use xlink:href="#SegoeUI-Bold-65" x="154.695312"/>
     <use xlink:href="#SegoeUI-Bold-6e" x="208.796875"/>
     <use xlink:href="#SegoeUI-Bold-74" x="269.294922"/>
     <use xlink:href="#SegoeUI-Bold-72" x="308.210938"/>
     <use xlink:href="#SegoeUI-Bold-69" x="348.380859"/>
     <use xlink:href="#SegoeUI-Bold-63" x="376.798828"/>
     <use xlink:href="#SegoeUI-Bold-69" x="424.796875"/>
     <use xlink:href="#SegoeUI-Bold-64" x="453.214844"/>
     <use xlink:href="#SegoeUI-Bold-61" x="515.128906"/>
     <use xlink:href="#SegoeUI-Bold-64" x="568.9375"/>
    </g>
   </g>
   <g id="text_40">
    <!-- $e = \frac{c}{a} = \sqrt{1 - \frac{b^2}{a^2}}$ -->
    <g style="fill: #2c2f33" transform="translate(749.75964 548.426492) scale(0.12 -0.12)">
     <defs>
      <path id="DejaVuSans-Oblique-65" d="M 3078 2063 
Q 3088 2113 3092 2166 
Q 3097 2219 3097 2272 
Q 3097 2653 2873 2875 
Q 2650 3097 2266 3097 
Q 1838 3097 1509 2826 
Q 1181 2556 1013 2059 
L 3078 2063 
z
M 3578 1613 
L 903 1613 
Q 884 1494 878 1425 
Q 872 1356 872 1306 
Q 872 872 1139 634 
Q 1406 397 1894 397 
Q 2269 397 2603 481 
Q 2938 566 3225 728 
L 3116 159 
Q 2806 34 2476 -28 
Q 2147 -91 1806 -91 
Q 1078 -91 686 257 
Q 294 606 294 1247 
Q 294 1794 489 2264 
Q 684 2734 1063 3103 
Q 1306 3334 1642 3459 
Q 1978 3584 2356 3584 
Q 2950 3584 3301 3228 
Q 3653 2872 3653 2272 
Q 3653 2128 3634 1964 
Q 3616 1800 3578 1613 
z
" transform="scale(0.015625)"/>
      <path id="STIXSizeOneSym-Regular-221a" d="M 6970 9933 
L 3373 -1888 
L 3104 -1888 
L 1626 2918 
Q 1555 3149 1465 3251 
Q 1376 3354 1229 3354 
Q 1011 3354 794 3181 
L 717 3309 
L 1766 4115 
L 1926 4115 
L 3379 -602 
L 3405 -602 
L 6605 9933 
L 6970 9933 
z
" transform="scale(0.015625)"/>
     </defs>
     <use xlink:href="#DejaVuSans-Oblique-65" transform="translate(0 0.3625)"/>
     <use xlink:href="#DejaVuSans-3d" transform="translate(81.005859 0.3625)"/>
     <use xlink:href="#DejaVuSans-Oblique-63" transform="translate(186.277344 45.154687) scale(0.7)"/>
     <use xlink:href="#DejaVuSans-Oblique-61" transform="translate(184.277344 -26.290625) scale(0.7)"/>
     <use xlink:href="#DejaVuSans-3d" transform="translate(259.155273 0.3625)"/>
     <use xlink:href="#STIXSizeOneSym-Regular-221a" transform="translate(362.426758 -20.859375) scale(1.033111)"/>
     <use xlink:href="#DejaVuSans-31" transform="translate(484.061996 0.79375)"/>
     <use xlink:href="#DejaVuSans-2212" transform="translate(567.167465 0.79375)"/>
     <use xlink:href="#DejaVuSans-Oblique-62" transform="translate(670.43895 45.585938) scale(0.7)"/>
     <use xlink:href="#DejaVuSans-32" transform="translate(720.085939 72.382812) scale(0.49)"/>
     <use xlink:href="#DejaVuSans-Oblique-61" transform="translate(672.43895 -49.823437) scale(0.7)"/>
     <use xlink:href="#DejaVuSans-32" transform="translate(718.589384 -23.026562) scale(0.49)"/>
     <path d="M 184.277344 19.159375 
L 184.277344 25.409375 
L 227.172852 25.409375 
L 227.172852 19.159375 
L 184.277344 19.159375 
z
"/>
     <path d="M 471.561996 132.5 
L 471.561996 138.75 
L 778.175295 138.75 
L 778.175295 132.5 
L 471.561996 132.5 
z
"/>
     <path d="M 670.43895 19.590625 
L 670.43895 25.840625 
L 753.175295 25.840625 
L 753.175295 19.590625 
L 670.43895 19.590625 
z
"/>
    </g>
   </g>
   <g id="text_41">
    <!-- $0 &lt; e &lt; 1$ (elipse) -->
    <g style="fill: #6b7280" transform="translate(757.64964 571.329453) scale(0.1 -0.1)">
     <defs>
      <path id="DejaVuSans-3c" d="M 4684 3150 
L 1459 2003 
L 4684 863 
L 4684 294 
L 678 1747 
L 678 2266 
L 4684 3719 
L 4684 3150 
z
" transform="scale(0.015625)"/>
     </defs>
     <use xlink:href="#DejaVuSans-30" transform="translate(0 0.78125)"/>
     <use xlink:href="#DejaVuSans-3c" transform="translate(83.105469 0.78125)"/>
     <use xlink:href="#DejaVuSans-Oblique-65" transform="translate(186.376953 0.78125)"/>
     <use xlink:href="#DejaVuSans-3c" transform="translate(267.382812 0.78125)"/>
     <use xlink:href="#DejaVuSans-31" transform="translate(370.654297 0.78125)"/>
     <use xlink:href="#SegoeUI-20" transform="translate(434.277344 0.78125)"/>
     <use xlink:href="#SegoeUI-28" transform="translate(461.669922 0.78125)"/>
     <use xlink:href="#SegoeUI-65" transform="translate(491.845703 0.78125)"/>
     <use xlink:href="#SegoeUI-6c" transform="translate(544.140625 0.78125)"/>
     <use xlink:href="#SegoeUI-69" transform="translate(568.359375 0.78125)"/>
     <use xlink:href="#SegoeUI-70" transform="translate(592.578125 0.78125)"/>
     <use xlink:href="#SegoeUI-73" transform="translate(651.367188 0.78125)"/>
     <use xlink:href="#SegoeUI-65" transform="translate(693.798828 0.78125)"/>
     <use xlink:href="#SegoeUI-29" transform="translate(746.09375 0.78125)"/>
    </g>
   </g>
   <g id="text_42">
    <!-- Interpretación: -->
    <g style="fill: #374151" transform="translate(765.088937 603.393598) scale(0.09 -0.09)">
     <defs>
      <path id="SegoeUI-Bold-3a" d="M 856 2209 
Q 613 2209 450 2357 
Q 288 2506 288 2725 
Q 288 2950 455 3094 
Q 622 3238 872 3238 
Q 1125 3238 1286 3092 
Q 1447 2947 1447 2725 
Q 1447 2497 1283 2353 
Q 1119 2209 856 2209 
z
M 856 -78 
Q 613 -78 450 72 
Q 288 222 288 441 
Q 288 666 455 809 
Q 622 953 872 953 
Q 1125 953 1286 808 
Q 1447 663 1447 441 
Q 1447 213 1283 67 
Q 1119 -78 856 -78 
z
" transform="scale(0.015625)"/>
     </defs>
     <use xlink:href="#SegoeUI-Bold-49"/>
     <use xlink:href="#SegoeUI-Bold-6e" x="31.689453"/>
     <use xlink:href="#SegoeUI-Bold-74" x="92.1875"/>
     <use xlink:href="#SegoeUI-Bold-65" x="130.728516"/>
     <use xlink:href="#SegoeUI-Bold-72" x="184.830078"/>
     <use xlink:href="#SegoeUI-Bold-70" x="224.625"/>
     <use xlink:href="#SegoeUI-Bold-72" x="286.636719"/>
     <use xlink:href="#SegoeUI-Bold-65" x="326.056641"/>
     <use xlink:href="#SegoeUI-Bold-74" x="380.158203"/>
     <use xlink:href="#SegoeUI-Bold-61" x="419.074219"/>
     <use xlink:href="#SegoeUI-Bold-63" x="472.882812"/>
     <use xlink:href="#SegoeUI-Bold-69" x="520.880859"/>
     <use xlink:href="#SegoeUI-Bold-f3" x="549.298828"/>
     <use xlink:href="#SegoeUI-Bold-6e" x="610.382812"/>
     <use xlink:href="#SegoeUI-Bold-3a" x="670.880859"/>
    </g>
   </g>
   <g id="text_43">
    <!-- $e \approx 0$: casi circular -->
    <g style="fill: #6b7280" transform="translate(760.22964 621.715967) scale(0.09 -0.09)">
     <defs>
      <path id="DejaVuSans-2248" d="M 4684 1947 
L 4684 1388 
Q 4356 1144 4076 1036 
Q 3797 928 3494 928 
Q 3150 928 2694 1113 
Q 2663 1125 2641 1134 
Q 2622 1141 2575 1159 
Q 2091 1350 1797 1350 
Q 1522 1350 1253 1231 
Q 984 1113 678 850 
L 678 1409 
Q 1006 1653 1286 1761 
Q 1566 1869 1869 1869 
Q 2213 1869 2672 1684 
Q 2706 1669 2722 1663 
Q 2741 1656 2788 1638 
Q 3272 1447 3566 1447 
Q 3834 1447 4098 1564 
Q 4363 1681 4684 1947 
z
M 4684 3163 
L 4684 2606 
Q 4356 2359 4076 2251 
Q 3797 2144 3494 2144 
Q 3150 2144 2694 2328 
Q 2663 2341 2641 2350 
Q 2622 2356 2575 2375 
Q 2091 2566 1797 2566 
Q 1522 2566 1253 2447 
Q 984 2328 678 2069 
L 678 2625 
Q 1006 2869 1286 2976 
Q 1566 3084 1869 3084 
Q 2213 3084 2672 2900 
Q 2703 2888 2719 2881 
Q 2741 2872 2788 2853 
Q 3272 2663 3566 2663 
Q 3834 2663 4098 2780 
Q 4363 2897 4684 3163 
z
" transform="scale(0.015625)"/>
      <path id="SegoeUI-61" d="M 2809 0 
L 2297 0 
L 2297 500 
L 2284 500 
Q 1950 -75 1300 -75 
Q 822 -75 551 178 
Q 281 431 281 850 
Q 281 1747 1338 1894 
L 2297 2028 
Q 2297 2844 1638 2844 
Q 1059 2844 594 2450 
L 594 2975 
Q 1066 3275 1681 3275 
Q 2809 3275 2809 2081 
L 2809 0 
z
M 2297 1619 
L 1525 1513 
Q 1169 1463 987 1336 
Q 806 1209 806 888 
Q 806 653 973 504 
Q 1141 356 1419 356 
Q 1800 356 2048 623 
Q 2297 891 2297 1300 
L 2297 1619 
z
" transform="scale(0.015625)"/>
      <path id="SegoeUI-75" d="M 3106 0 
L 2594 0 
L 2594 506 
L 2581 506 
Q 2263 -75 1594 -75 
Q 450 -75 450 1288 
L 450 3200 
L 959 3200 
L 959 1369 
Q 959 356 1734 356 
Q 2109 356 2351 632 
Q 2594 909 2594 1356 
L 2594 3200 
L 3106 3200 
L 3106 0 
z
" transform="scale(0.015625)"/>
     </defs>
     <use xlink:href="#DejaVuSans-Oblique-65" transform="translate(0 0.78125)"/>
     <use xlink:href="#DejaVuSans-2248" transform="translate(81.005859 0.78125)"/>
     <use xlink:href="#DejaVuSans-30" transform="translate(184.277344 0.78125)"/>
     <use xlink:href="#SegoeUI-3a" transform="translate(247.900391 0.78125)"/>
     <use xlink:href="#SegoeUI-20" transform="translate(269.580078 0.78125)"/>
     <use xlink:href="#SegoeUI-63" transform="translate(296.972656 0.78125)"/>
     <use xlink:href="#SegoeUI-61" transform="translate(343.164062 0.78125)"/>
     <use xlink:href="#SegoeUI-73" transform="translate(394.042969 0.78125)"/>
     <use xlink:href="#SegoeUI-69" transform="translate(436.474609 0.78125)"/>
     <use xlink:href="#SegoeUI-20" transform="translate(460.693359 0.78125)"/>
     <use xlink:href="#SegoeUI-63" transform="translate(488.085938 0.78125)"/>
     <use xlink:href="#SegoeUI-69" transform="translate(534.277344 0.78125)"/>
     <use xlink:href="#SegoeUI-72" transform="translate(558.496094 0.78125)"/>
     <use xlink:href="#SegoeUI-63" transform="translate(593.261719 0.78125)"/>
     <use xlink:href="#SegoeUI-75" transform="translate(639.453125 0.78125)"/>
     <use xlink:href="#SegoeUI-6c" transform="translate(696.044922 0.78125)"/>
     <use xlink:href="#SegoeUI-61" transform="translate(720.263672 0.78125)"/>
     <use xlink:href="#SegoeUI-72" transform="translate(771.142578 0.78125)"/>
    </g>
   </g>
   <g id="text_44">
    <!-- $e \approx 1$: muy alargada -->
    <g style="fill: #6b7280" transform="translate(756.17964 637.74804) scale(0.09 -0.09)">
     <defs>
      <path id="SegoeUI-6d" d="M 5063 0 
L 4550 0 
L 4550 1838 
Q 4550 2369 4386 2606 
Q 4222 2844 3834 2844 
Q 3506 2844 3276 2544 
Q 3047 2244 3047 1825 
L 3047 0 
L 2534 0 
L 2534 1900 
Q 2534 2844 1806 2844 
Q 1469 2844 1250 2561 
Q 1031 2278 1031 1825 
L 1031 0 
L 519 0 
L 519 3200 
L 1031 3200 
L 1031 2694 
L 1044 2694 
Q 1384 3275 2038 3275 
Q 2366 3275 2609 3092 
Q 2853 2909 2944 2613 
Q 3300 3275 4006 3275 
Q 5063 3275 5063 1972 
L 5063 0 
z
" transform="scale(0.015625)"/>
      <path id="SegoeUI-79" d="M 3066 3200 
L 1594 -513 
Q 1200 -1506 488 -1506 
Q 288 -1506 153 -1466 
L 153 -1006 
Q 319 -1063 456 -1063 
Q 844 -1063 1038 -600 
L 1294 6 
L 44 3200 
L 613 3200 
L 1478 738 
Q 1494 691 1544 494 
L 1563 494 
Q 1578 569 1625 731 
L 2534 3200 
L 3066 3200 
z
" transform="scale(0.015625)"/>
      <path id="SegoeUI-67" d="M 3250 256 
Q 3250 -1506 1563 -1506 
Q 969 -1506 525 -1281 
L 525 -769 
Q 1066 -1069 1556 -1069 
Q 2738 -1069 2738 188 
L 2738 538 
L 2725 538 
Q 2359 -75 1625 -75 
Q 1028 -75 664 351 
Q 300 778 300 1497 
Q 300 2313 692 2794 
Q 1084 3275 1766 3275 
Q 2413 3275 2725 2756 
L 2738 2756 
L 2738 3200 
L 3250 3200 
L 3250 256 
z
M 2738 1447 
L 2738 1919 
Q 2738 2300 2480 2572 
Q 2222 2844 1838 2844 
Q 1363 2844 1094 2498 
Q 825 2153 825 1531 
Q 825 997 1083 676 
Q 1341 356 1766 356 
Q 2197 356 2467 662 
Q 2738 969 2738 1447 
z
" transform="scale(0.015625)"/>
     </defs>
     <use xlink:href="#DejaVuSans-Oblique-65" transform="translate(0 0.96875)"/>
     <use xlink:href="#DejaVuSans-2248" transform="translate(81.005859 0.96875)"/>
     <use xlink:href="#DejaVuSans-31" transform="translate(184.277344 0.96875)"/>
     <use xlink:href="#SegoeUI-3a" transform="translate(247.900391 0.96875)"/>
     <use xlink:href="#SegoeUI-20" transform="translate(269.580078 0.96875)"/>
     <use xlink:href="#SegoeUI-6d" transform="translate(296.972656 0.96875)"/>
     <use xlink:href="#SegoeUI-75" transform="translate(383.105469 0.96875)"/>
     <use xlink:href="#SegoeUI-79" transform="translate(439.697266 0.96875)"/>
     <use xlink:href="#SegoeUI-20" transform="translate(488.085938 0.96875)"/>
     <use xlink:href="#SegoeUI-61" transform="translate(515.478516 0.96875)"/>
     <use xlink:href="#SegoeUI-6c" transform="translate(566.357422 0.96875)"/>
     <use xlink:href="#SegoeUI-61" transform="translate(590.576172 0.96875)"/>
     <use xlink:href="#SegoeUI-72" transform="translate(641.455078 0.96875)"/>
     <use xlink:href="#SegoeUI-67" transform="translate(676.220703 0.96875)"/>
     <use xlink:href="#SegoeUI-61" transform="translate(735.107422 0.96875)"/>
     <use xlink:href="#SegoeUI-64" transform="translate(785.986328 0.96875)"/>
     <use xlink:href="#SegoeUI-61" transform="translate(844.873047 0.96875)"/>
    </g>
   </g>
  </g>
  <g id="text_45">
   <!-- La Elipse -->
   <g style="fill: #2c2f33" transform="translate(480.009448 17.564375) scale(0.14 -0.14)">
    <use xlink:href="#SegoeUI-Bold-4c"/>
    <use xlink:href="#SegoeUI-Bold-61" x="51.123047"/>
    <use xlink:href="#SegoeUI-Bold-20" x="104.931641"/>
    <use xlink:href="#SegoeUI-Bold-45" x="132.519531"/>
    <use xlink:href="#SegoeUI-Bold-6c" x="185.742188"/>
    <use xlink:href="#SegoeUI-Bold-69" x="214.160156"/>
    <use xlink:href="#SegoeUI-Bold-70" x="242.578125"/>
    <use xlink:href="#SegoeUI-Bold-73" x="304.589844"/>
    <use xlink:href="#SegoeUI-Bold-65" x="348.583984"/>
   </g>
  </g>
 </g>
 <defs>
  <clipPath id="pee1542abc5">
   <rect x="289.858199" y="40.928292" width="436.683123" height="297.738493"/>
  </clipPath>
  <clipPath id="p7139d6ca74">
   <rect x="7.2" y="420.16991" width="425.39976" height="229.02961"/>
  </clipPath>
  <clipPath id="pb11afb6af7">
   <rect x="583.79976" y="420.16991" width="425.39976" height="229.02961"/>
  </clipPath>
 </defs>
</svg>
