<?xml version="1.0" encoding="utf-8" standalone="no"?>
<!DOCTYPE svg PUBLIC "-//W3C//DTD SVG 1.1//EN"
  "http://www.w3.org/Graphics/SVG/1.1/DTD/svg11.dtd">
<svg xmlns:xlink="http://www.w3.org/1999/xlink" width="1016.39952pt" height="656.39952pt" viewBox="0 0 1016.39952 656.39952" xmlns="http://www.w3.org/2000/svg" version="1.1">
 <metadata>
  <rdf:RDF xmlns:dc="http://purl.org/dc/elements/1.1/" xmlns:cc="http://creativecommons.org/ns#" xmlns:rdf="http://www.w3.org/1999/02/22-rdf-syntax-ns#">
   <cc:Work>
    <dc:type rdf:resource="http://purl.org/dc/dcmitype/StillImage"/>
    <dc:date>2026-04-11T16:11:50.861834</dc:date>
    <dc:format>image/svg+xml</dc:format>
    <dc:creator>
     <cc:Agent>
      <dc:title>Matplotlib v3.8.4, https://matplotlib.org/</dc:title>
     </cc:Agent>
    </dc:creator>
   </cc:Work>
  </rdf:RDF>
 </metadata>
 <defs>
  <style type="text/css">*{stroke-linejoin: round; stroke-linecap: butt}</style>
 </defs>
 <g id="figure_1">
  <g id="patch_1">
   <path d="M 0 656.39952 
L 1016.39952 656.39952 
L 1016.39952 0 
L 0 0 
z
" style="fill: #ffffff"/>
  </g>
  <g id="axes_1">
   <g id="patch_2">
    <path d="M 295.529408 338.666785 
L 720.870112 338.666785 
L 720.870112 40.928292 
L 295.529408 40.928292 
z
" style="fill: #ffffff"/>
   </g>
   <g id="matplotlib.axis_1">
    <g id="xtick_1">
     <g id="line2d_1">
      <path d="M 338.063478 338.666785 
L 338.063478 40.928292 
" clip-path="url(#pab810cd858)" style="fill: none; stroke-dasharray: 2.96,1.28; stroke-dashoffset: 0; stroke: #b0b0b0; stroke-opacity: 0.3; stroke-width: 0.8"/>
     </g>
     <g id="line2d_2">
      <defs>
       <path id="m872cd6849b" d="M 0 0 
L 0 3.5 
" style="stroke: #2c2f33; stroke-width: 0.8"/>
      </defs>
      <g>
       <use xlink:href="#m872cd6849b" x="338.063478" y="338.666785" style="fill: #2c2f33; stroke: #2c2f33; stroke-width: 0.8"/>
      </g>
     </g>
     <g id="text_1">
      <!-- −4 -->
      <g style="fill: #2c2f33" transform="translate(331.947853 353.06991) scale(0.1 -0.1)">
       <defs>
        <path id="SegoeUI-2212" d="M 3663 1656 
L 725 1656 
L 725 2075 
L 3663 2075 
L 3663 1656 
z
" transform="scale(0.015625)"/>
        <path id="SegoeUI-34" d="M 2656 4481 
L 2656 1522 
L 3231 1522 
L 3231 1053 
L 2656 1053 
L 2656 0 
L 2150 0 
L 2150 1053 
L 44 1053 
L 44 1497 
Q 338 1828 638 2204 
Q 938 2581 1211 2968 
Q 1484 3356 1717 3742 
Q 1950 4128 2109 4481 
L 2656 4481 
z
M 622 1522 
L 2150 1522 
L 2150 3716 
Q 1916 3306 1706 2984 
Q 1497 2663 1308 2400 
Q 1119 2138 947 1925 
Q 775 1713 622 1522 
z
" transform="scale(0.015625)"/>
       </defs>
       <use xlink:href="#SegoeUI-2212"/>
       <use xlink:href="#SegoeUI-34" x="68.408203"/>
      </g>
     </g>
    </g>
    <g id="xtick_2">
     <g id="line2d_3">
      <path d="M 423.131619 338.666785 
L 423.131619 40.928292 
" clip-path="url(#pab810cd858)" style="fill: none; stroke-dasharray: 2.96,1.28; stroke-dashoffset: 0; stroke: #b0b0b0; stroke-opacity: 0.3; stroke-width: 0.8"/>
     </g>
     <g id="line2d_4">
      <g>
       <use xlink:href="#m872cd6849b" x="423.131619" y="338.666785" style="fill: #2c2f33; stroke: #2c2f33; stroke-width: 0.8"/>
      </g>
     </g>
     <g id="text_2">
      <!-- −2 -->
      <g style="fill: #2c2f33" transform="translate(417.015994 353.06991) scale(0.1 -0.1)">
       <defs>
        <path id="SegoeUI-32" d="M 2413 3306 
Q 2413 3513 2348 3666 
Q 2284 3819 2173 3920 
Q 2063 4022 1913 4072 
Q 1763 4122 1588 4122 
Q 1438 4122 1294 4081 
Q 1150 4041 1014 3969 
Q 878 3897 751 3797 
Q 625 3697 516 3575 
L 516 4125 
Q 731 4334 998 4445 
Q 1266 4556 1650 4556 
Q 1925 4556 2159 4476 
Q 2394 4397 2566 4244 
Q 2738 4091 2836 3866 
Q 2934 3641 2934 3350 
Q 2934 3084 2873 2868 
Q 2813 2653 2689 2462 
Q 2566 2272 2378 2097 
Q 2191 1922 1938 1741 
Q 1622 1516 1417 1356 
Q 1213 1197 1092 1058 
Q 972 919 923 780 
Q 875 641 875 459 
L 3106 459 
L 3106 0 
L 341 0 
L 341 222 
Q 341 509 403 728 
Q 466 947 609 1144 
Q 753 1341 986 1537 
Q 1219 1734 1556 1981 
Q 1800 2156 1964 2315 
Q 2128 2475 2228 2634 
Q 2328 2794 2370 2958 
Q 2413 3122 2413 3306 
z
" transform="scale(0.015625)"/>
       </defs>
       <use xlink:href="#SegoeUI-2212"/>
       <use xlink:href="#SegoeUI-32" x="68.408203"/>
      </g>
     </g>
    </g>
    <g id="xtick_3">
     <g id="line2d_5">
      <path d="M 508.19976 338.666785 
L 508.19976 40.928292 
" clip-path="url(#pab810cd858)" style="fill: none; stroke-dasharray: 2.96,1.28; stroke-dashoffset: 0; stroke: #b0b0b0; stroke-opacity: 0.3; stroke-width: 0.8"/>
     </g>
     <g id="line2d_6">
      <g>
       <use xlink:href="#m872cd6849b" x="508.19976" y="338.666785" style="fill: #2c2f33; stroke: #2c2f33; stroke-width: 0.8"/>
      </g>
     </g>
     <g id="text_3">
      <!-- 0 -->
      <g style="fill: #2c2f33" transform="translate(505.504447 353.06991) scale(0.1 -0.1)">
       <defs>
        <path id="SegoeUI-30" d="M 3188 2259 
Q 3188 1697 3086 1262 
Q 2984 828 2792 529 
Q 2600 231 2320 76 
Q 2041 -78 1684 -78 
Q 1347 -78 1083 70 
Q 819 219 637 503 
Q 456 788 362 1202 
Q 269 1616 269 2150 
Q 269 2738 367 3188 
Q 466 3638 656 3942 
Q 847 4247 1130 4401 
Q 1413 4556 1778 4556 
Q 3188 4556 3188 2259 
z
M 2663 2209 
Q 2663 4122 1753 4122 
Q 794 4122 794 2175 
Q 794 359 1734 359 
Q 2663 359 2663 2209 
z
" transform="scale(0.015625)"/>
       </defs>
       <use xlink:href="#SegoeUI-30"/>
      </g>
     </g>
    </g>
    <g id="xtick_4">
     <g id="line2d_7">
      <path d="M 593.267901 338.666785 
L 593.267901 40.928292 
" clip-path="url(#pab810cd858)" style="fill: none; stroke-dasharray: 2.96,1.28; stroke-dashoffset: 0; stroke: #b0b0b0; stroke-opacity: 0.3; stroke-width: 0.8"/>
     </g>
     <g id="line2d_8">
      <g>
       <use xlink:href="#m872cd6849b" x="593.267901" y="338.666785" style="fill: #2c2f33; stroke: #2c2f33; stroke-width: 0.8"/>
      </g>
     </g>
     <g id="text_4">
      <!-- 2 -->
      <g style="fill: #2c2f33" transform="translate(590.572588 353.06991) scale(0.1 -0.1)">
       <use xlink:href="#SegoeUI-32"/>
      </g>
     </g>
    </g>
    <g id="xtick_5">
     <g id="line2d_9">
      <path d="M 678.336042 338.666785 
L 678.336042 40.928292 
" clip-path="url(#pab810cd858)" style="fill: none; stroke-dasharray: 2.96,1.28; stroke-dashoffset: 0; stroke: #b0b0b0; stroke-opacity: 0.3; stroke-width: 0.8"/>
     </g>
     <g id="line2d_10">
      <g>
       <use xlink:href="#m872cd6849b" x="678.336042" y="338.666785" style="fill: #2c2f33; stroke: #2c2f33; stroke-width: 0.8"/>
      </g>
     </g>
     <g id="text_5">
      <!-- 4 -->
      <g style="fill: #2c2f33" transform="translate(675.640729 353.06991) scale(0.1 -0.1)">
       <use xlink:href="#SegoeUI-34"/>
      </g>
     </g>
    </g>
   </g>
   <g id="matplotlib.axis_2">
    <g id="ytick_1">
     <g id="line2d_11">
      <path d="M 295.529408 317.39975 
L 720.870112 317.39975 
" clip-path="url(#pab810cd858)" style="fill: none; stroke-dasharray: 2.96,1.28; stroke-dashoffset: 0; stroke: #b0b0b0; stroke-opacity: 0.3; stroke-width: 0.8"/>
     </g>
     <g id="line2d_12">
      <defs>
       <path id="med70040244" d="M 0 0 
L -3.5 0 
" style="stroke: #2c2f33; stroke-width: 0.8"/>
      </defs>
      <g>
       <use xlink:href="#med70040244" x="295.529408" y="317.39975" style="fill: #2c2f33; stroke: #2c2f33; stroke-width: 0.8"/>
      </g>
     </g>
     <g id="text_6">
      <!-- −3 -->
      <g style="fill: #2c2f33" transform="translate(276.298158 321.101313) scale(0.1 -0.1)">
       <defs>
        <path id="SegoeUI-33" d="M 2978 1269 
Q 2978 966 2864 717 
Q 2750 469 2542 292 
Q 2334 116 2043 19 
Q 1753 -78 1403 -78 
Q 763 -78 384 166 
L 384 716 
Q 838 359 1422 359 
Q 1656 359 1845 418 
Q 2034 478 2170 590 
Q 2306 703 2379 862 
Q 2453 1022 2453 1222 
Q 2453 2100 1203 2100 
L 831 2100 
L 831 2534 
L 1184 2534 
Q 2291 2534 2291 3359 
Q 2291 4122 1447 4122 
Q 972 4122 556 3803 
L 556 4300 
Q 984 4556 1575 4556 
Q 1856 4556 2084 4478 
Q 2313 4400 2475 4259 
Q 2638 4119 2727 3922 
Q 2816 3725 2816 3488 
Q 2816 2603 1922 2350 
L 1922 2338 
Q 2150 2313 2344 2227 
Q 2538 2141 2678 2003 
Q 2819 1866 2898 1680 
Q 2978 1494 2978 1269 
z
" transform="scale(0.015625)"/>
       </defs>
       <use xlink:href="#SegoeUI-2212"/>
       <use xlink:href="#SegoeUI-33" x="68.408203"/>
      </g>
     </g>
    </g>
    <g id="ytick_2">
     <g id="line2d_13">
      <path d="M 295.529408 274.86568 
L 720.870112 274.86568 
" clip-path="url(#pab810cd858)" style="fill: none; stroke-dasharray: 2.96,1.28; stroke-dashoffset: 0; stroke: #b0b0b0; stroke-opacity: 0.3; stroke-width: 0.8"/>
     </g>
     <g id="line2d_14">
      <g>
       <use xlink:href="#med70040244" x="295.529408" y="274.86568" style="fill: #2c2f33; stroke: #2c2f33; stroke-width: 0.8"/>
      </g>
     </g>
     <g id="text_7">
      <!-- −2 -->
      <g style="fill: #2c2f33" transform="translate(276.298158 278.567242) scale(0.1 -0.1)">
       <use xlink:href="#SegoeUI-2212"/>
       <use xlink:href="#SegoeUI-32" x="68.408203"/>
      </g>
     </g>
    </g>
    <g id="ytick_3">
     <g id="line2d_15">
      <path d="M 295.529408 232.331609 
L 720.870112 232.331609 
" clip-path="url(#pab810cd858)" style="fill: none; stroke-dasharray: 2.96,1.28; stroke-dashoffset: 0; stroke: #b0b0b0; stroke-opacity: 0.3; stroke-width: 0.8"/>
     </g>
     <g id="line2d_16">
      <g>
       <use xlink:href="#med70040244" x="295.529408" y="232.331609" style="fill: #2c2f33; stroke: #2c2f33; stroke-width: 0.8"/>
      </g>
     </g>
     <g id="text_8">
      <!-- −1 -->
      <g style="fill: #2c2f33" transform="translate(276.298158 236.033172) scale(0.1 -0.1)">
       <defs>
        <path id="SegoeUI-31" d="M 2263 0 
L 1750 0 
L 1750 3872 
Q 1691 3813 1577 3736 
Q 1463 3659 1320 3584 
Q 1178 3509 1020 3443 
Q 863 3378 713 3341 
L 713 3859 
Q 881 3906 1070 3986 
Q 1259 4066 1442 4164 
Q 1625 4263 1787 4370 
Q 1950 4478 2069 4581 
L 2263 4581 
L 2263 0 
z
" transform="scale(0.015625)"/>
       </defs>
       <use xlink:href="#SegoeUI-2212"/>
       <use xlink:href="#SegoeUI-31" x="68.408203"/>
      </g>
     </g>
    </g>
    <g id="ytick_4">
     <g id="line2d_17">
      <path d="M 295.529408 189.797539 
L 720.870112 189.797539 
" clip-path="url(#pab810cd858)" style="fill: none; stroke-dasharray: 2.96,1.28; stroke-dashoffset: 0; stroke: #b0b0b0; stroke-opacity: 0.3; stroke-width: 0.8"/>
     </g>
     <g id="line2d_18">
      <g>
       <use xlink:href="#med70040244" x="295.529408" y="189.797539" style="fill: #2c2f33; stroke: #2c2f33; stroke-width: 0.8"/>
      </g>
     </g>
     <g id="text_9">
      <!-- 0 -->
      <g style="fill: #2c2f33" transform="translate(283.138783 193.499101) scale(0.1 -0.1)">
       <use xlink:href="#SegoeUI-30"/>
      </g>
     </g>
    </g>
    <g id="ytick_5">
     <g id="line2d_19">
      <path d="M 295.529408 147.263468 
L 720.870112 147.263468 
" clip-path="url(#pab810cd858)" style="fill: none; stroke-dasharray: 2.96,1.28; stroke-dashoffset: 0; stroke: #b0b0b0; stroke-opacity: 0.3; stroke-width: 0.8"/>
     </g>
     <g id="line2d_20">
      <g>
       <use xlink:href="#med70040244" x="295.529408" y="147.263468" style="fill: #2c2f33; stroke: #2c2f33; stroke-width: 0.8"/>
      </g>
     </g>
     <g id="text_10">
      <!-- 1 -->
      <g style="fill: #2c2f33" transform="translate(283.138783 150.965031) scale(0.1 -0.1)">
       <use xlink:href="#SegoeUI-31"/>
      </g>
     </g>
    </g>
    <g id="ytick_6">
     <g id="line2d_21">
      <path d="M 295.529408 104.729398 
L 720.870112 104.729398 
" clip-path="url(#pab810cd858)" style="fill: none; stroke-dasharray: 2.96,1.28; stroke-dashoffset: 0; stroke: #b0b0b0; stroke-opacity: 0.3; stroke-width: 0.8"/>
     </g>
     <g id="line2d_22">
      <g>
       <use xlink:href="#med70040244" x="295.529408" y="104.729398" style="fill: #2c2f33; stroke: #2c2f33; stroke-width: 0.8"/>
      </g>
     </g>
     <g id="text_11">
      <!-- 2 -->
      <g style="fill: #2c2f33" transform="translate(283.138783 108.430961) scale(0.1 -0.1)">
       <use xlink:href="#SegoeUI-32"/>
      </g>
     </g>
    </g>
    <g id="ytick_7">
     <g id="line2d_23">
      <path d="M 295.529408 62.195328 
L 720.870112 62.195328 
" clip-path="url(#pab810cd858)" style="fill: none; stroke-dasharray: 2.96,1.28; stroke-dashoffset: 0; stroke: #b0b0b0; stroke-opacity: 0.3; stroke-width: 0.8"/>
     </g>
     <g id="line2d_24">
      <g>
       <use xlink:href="#med70040244" x="295.529408" y="62.195328" style="fill: #2c2f33; stroke: #2c2f33; stroke-width: 0.8"/>
      </g>
     </g>
     <g id="text_12">
      <!-- 3 -->
      <g style="fill: #2c2f33" transform="translate(283.138783 65.89689) scale(0.1 -0.1)">
       <use xlink:href="#SegoeUI-33"/>
      </g>
     </g>
    </g>
   </g>
   <g id="line2d_25">
    <path d="M 295.529408 189.797539 
L 720.870112 189.797539 
" clip-path="url(#pab810cd858)" style="fill: none; stroke: #9ca3af; stroke-linecap: square"/>
   </g>
   <g id="line2d_26">
    <path d="M 508.19976 338.666785 
L 508.19976 40.928292 
" clip-path="url(#pab810cd858)" style="fill: none; stroke: #9ca3af; stroke-linecap: square"/>
   </g>
   <g id="line2d_27">
    <path d="M 828.242753 421.195243 
L 793.273152 393.861293 
L 762.454997 369.499068 
L 735.339492 347.753787 
L 715.285281 331.402275 
L 697.324552 316.482282 
L 681.275735 302.842978 
L 669.703625 292.760575 
L 659.176116 283.344133 
L 649.625117 274.532747 
L 640.988853 266.269425 
L 633.211464 258.500722 
L 626.242646 251.176388 
L 620.037326 244.24905 
L 615.860059 239.287034 
L 612.074392 234.50503 
L 608.666557 229.885644 
L 605.624157 225.412073 
L 602.936125 221.068045 
L 600.592685 216.83776 
L 598.585313 212.70583 
L 596.906707 208.657227 
L 595.550761 204.677223 
L 594.512544 200.751342 
L 593.788278 196.865304 
L 593.37533 193.004974 
L 593.272197 189.156311 
L 593.478504 185.305315 
L 593.995003 181.43798 
L 594.82357 177.540238 
L 595.967221 173.597911 
L 597.430114 169.59666 
L 599.217572 165.521931 
L 601.336096 161.358903 
L 603.793391 157.092433 
L 606.598396 152.707002 
L 609.761314 148.186659 
L 613.293649 143.514961 
L 617.20825 138.674917 
L 621.519355 133.64892 
L 626.242646 128.41869 
L 633.211464 121.094356 
L 640.988853 113.325652 
L 649.625117 105.062331 
L 659.176116 96.250945 
L 669.703625 86.834503 
L 681.275735 76.7521 
L 697.324552 63.112796 
L 715.285281 48.192803 
L 735.339492 31.84129 
L 757.689917 13.892958 
L 776.443523 -1 
L 776.443523 -1 
" clip-path="url(#pab810cd858)" style="fill: none; stroke: #39c5bb; stroke-width: 2.5; stroke-linecap: square"/>
   </g>
   <g id="line2d_28">
    <path d="M 188.156767 421.195243 
L 223.126368 393.861293 
L 253.944523 369.499068 
L 281.060028 347.753787 
L 301.114239 331.402275 
L 319.074968 316.482282 
L 335.123785 302.842978 
L 346.695895 292.760575 
L 357.223404 283.344133 
L 366.774403 274.532747 
L 375.410667 266.269425 
L 383.188056 258.500722 
L 390.156874 251.176388 
L 396.362194 244.24905 
L 400.539461 239.287034 
L 404.325128 234.50503 
L 407.732963 229.885644 
L 410.775363 225.412073 
L 413.463395 221.068045 
L 415.806835 216.83776 
L 417.814207 212.70583 
L 419.492813 208.657227 
L 420.848759 204.677223 
L 421.886976 200.751342 
L 422.611242 196.865304 
L 423.02419 193.004974 
L 423.127323 189.156311 
L 422.921016 185.305315 
L 422.404517 181.43798 
L 421.57595 177.540238 
L 420.432299 173.597911 
L 418.969406 169.59666 
L 417.181948 165.521931 
L 415.063424 161.358903 
L 412.606129 157.092433 
L 409.801124 152.707002 
L 406.638206 148.186659 
L 403.105871 143.514961 
L 399.19127 138.674917 
L 394.880165 133.64892 
L 390.156874 128.41869 
L 383.188056 121.094356 
L 375.410667 113.325652 
L 366.774403 105.062331 
L 357.223404 96.250945 
L 346.695895 86.834503 
L 335.123785 76.7521 
L 319.074968 63.112796 
L 301.114239 48.192803 
L 281.060028 31.84129 
L 258.709603 13.892958 
L 239.955997 -1 
L 239.955997 -1 
" clip-path="url(#pab810cd858)" style="fill: none; stroke: #39c5bb; stroke-width: 2.5; stroke-linecap: square"/>
   </g>
   <g id="line2d_29">
    <path d="M 295.529408 349.300303 
L 299.825779 346.078025 
L 304.12215 342.855747 
L 308.41852 339.633469 
L 312.714891 336.411191 
L 317.011262 333.188913 
L 321.307633 329.966634 
L 325.604003 326.744356 
L 329.900374 323.522078 
L 334.196745 320.2998 
L 338.493116 317.077522 
L 342.789486 313.855244 
L 347.085857 310.632966 
L 351.382228 307.410688 
L 355.678599 304.18841 
L 359.974969 300.966132 
L 364.27134 297.743854 
L 368.567711 294.521576 
L 372.864081 291.299298 
L 377.160452 288.07702 
L 381.456823 284.854742 
L 385.753194 281.632464 
L 390.049564 278.410186 
L 394.345935 275.187907 
L 398.642306 271.965629 
L 402.938677 268.743351 
L 407.235047 265.521073 
L 411.531418 262.298795 
L 415.827789 259.076517 
L 420.12416 255.854239 
L 424.42053 252.631961 
L 428.716901 249.409683 
L 433.013272 246.187405 
L 437.309643 242.965127 
L 441.606013 239.742849 
L 445.902384 236.520571 
L 450.198755 233.298293 
L 454.495126 230.076015 
L 458.791496 226.853737 
L 463.087867 223.631458 
L 467.384238 220.40918 
L 471.680609 217.186902 
L 475.976979 213.964624 
L 480.27335 210.742346 
L 484.569721 207.520068 
L 488.866092 204.29779 
L 493.162462 201.075512 
L 497.458833 197.853234 
L 501.755204 194.630956 
L 506.051575 191.408678 
L 510.347945 188.1864 
L 514.644316 184.964122 
L 518.940687 181.741844 
L 523.237058 178.519566 
L 527.533428 175.297288 
L 531.829799 172.07501 
L 536.12617 168.852731 
L 540.422541 165.630453 
L 544.718911 162.408175 
L 549.015282 159.185897 
L 553.311653 155.963619 
L 557.608024 152.741341 
L 561.904394 149.519063 
L 566.200765 146.296785 
L 570.497136 143.074507 
L 574.793507 139.852229 
L 579.089877 136.629951 
L 583.386248 133.407673 
L 587.682619 130.185395 
L 591.97899 126.963117 
L 596.27536 123.740839 
L 600.571731 120.518561 
L 604.868102 117.296283 
L 609.164473 114.074004 
L 613.460843 110.851726 
L 617.757214 107.629448 
L 622.053585 104.40717 
L 626.349956 101.184892 
L 630.646326 97.962614 
L 634.942697 94.740336 
L 639.239068 91.518058 
L 643.535439 88.29578 
L 647.831809 85.073502 
L 652.12818 81.851224 
L 656.424551 78.628946 
L 660.720921 75.406668 
L 665.017292 72.18439 
L 669.313663 68.962112 
L 673.610034 65.739834 
L 677.906404 62.517556 
L 682.202775 59.295277 
L 686.499146 56.072999 
L 690.795517 52.850721 
L 695.091887 49.628443 
L 699.388258 46.406165 
L 703.684629 43.183887 
L 707.981 39.961609 
L 712.27737 36.739331 
L 716.573741 33.517053 
L 720.870112 30.294775 
" clip-path="url(#pab810cd858)" style="fill: none; stroke-dasharray: 7.4,3.2; stroke-dashoffset: 0; stroke: #dc2626; stroke-width: 2"/>
   </g>
   <g id="line2d_30">
    <path d="M 295.529408 30.294775 
L 299.825779 33.517053 
L 304.12215 36.739331 
L 308.41852 39.961609 
L 312.714891 43.183887 
L 317.011262 46.406165 
L 321.307633 49.628443 
L 325.604003 52.850721 
L 329.900374 56.072999 
L 334.196745 59.295277 
L 338.493116 62.517556 
L 342.789486 65.739834 
L 347.085857 68.962112 
L 351.382228 72.18439 
L 355.678599 75.406668 
L 359.974969 78.628946 
L 364.27134 81.851224 
L 368.567711 85.073502 
L 372.864081 88.29578 
L 377.160452 91.518058 
L 381.456823 94.740336 
L 385.753194 97.962614 
L 390.049564 101.184892 
L 394.345935 104.40717 
L 398.642306 107.629448 
L 402.938677 110.851726 
L 407.235047 114.074004 
L 411.531418 117.296283 
L 415.827789 120.518561 
L 420.12416 123.740839 
L 424.42053 126.963117 
L 428.716901 130.185395 
L 433.013272 133.407673 
L 437.309643 136.629951 
L 441.606013 139.852229 
L 445.902384 143.074507 
L 450.198755 146.296785 
L 454.495126 149.519063 
L 458.791496 152.741341 
L 463.087867 155.963619 
L 467.384238 159.185897 
L 471.680609 162.408175 
L 475.976979 165.630453 
L 480.27335 168.852731 
L 484.569721 172.07501 
L 488.866092 175.297288 
L 493.162462 178.519566 
L 497.458833 181.741844 
L 501.755204 184.964122 
L 506.051575 188.1864 
L 510.347945 191.408678 
L 514.644316 194.630956 
L 518.940687 197.853234 
L 523.237058 201.075512 
L 527.533428 204.29779 
L 531.829799 207.520068 
L 536.12617 210.742346 
L 540.422541 213.964624 
L 544.718911 217.186902 
L 549.015282 220.40918 
L 553.311653 223.631458 
L 557.608024 226.853737 
L 561.904394 230.076015 
L 566.200765 233.298293 
L 570.497136 236.520571 
L 574.793507 239.742849 
L 579.089877 242.965127 
L 583.386248 246.187405 
L 587.682619 249.409683 
L 591.97899 252.631961 
L 596.27536 255.854239 
L 600.571731 259.076517 
L 604.868102 262.298795 
L 609.164473 265.521073 
L 613.460843 268.743351 
L 617.757214 271.965629 
L 622.053585 275.187907 
L 626.349956 278.410186 
L 630.646326 281.632464 
L 634.942697 284.854742 
L 639.239068 288.07702 
L 643.535439 291.299298 
L 647.831809 294.521576 
L 652.12818 297.743854 
L 656.424551 300.966132 
L 660.720921 304.18841 
L 665.017292 307.410688 
L 669.313663 310.632966 
L 673.610034 313.855244 
L 677.906404 317.077522 
L 682.202775 320.2998 
L 686.499146 323.522078 
L 690.795517 326.744356 
L 695.091887 329.966634 
L 699.388258 333.188913 
L 703.684629 336.411191 
L 707.981 339.633469 
L 712.27737 342.855747 
L 716.573741 346.078025 
L 720.870112 349.300303 
" clip-path="url(#pab810cd858)" style="fill: none; stroke-dasharray: 7.4,3.2; stroke-dashoffset: 0; stroke: #dc2626; stroke-width: 2"/>
   </g>
   <g id="line2d_31">
    <path d="M 508.19976 189.797539 
L 593.267901 189.797539 
" clip-path="url(#pab810cd858)" style="fill: none; stroke: #e12885; stroke-width: 2.5; stroke-linecap: square"/>
   </g>
   <g id="line2d_32">
    <path d="M 423.131619 253.598644 
L 593.267901 253.598644 
L 593.267901 125.996433 
L 423.131619 125.996433 
L 423.131619 253.598644 
" clip-path="url(#pab810cd858)" style="fill: none; stroke-dasharray: 1.5,2.475; stroke-dashoffset: 0; stroke: #9ca3af; stroke-width: 1.5"/>
   </g>
   <g id="line2d_33">
    <path d="M 508.19976 189.797539 
L 508.19976 125.996433 
" clip-path="url(#pab810cd858)" style="fill: none; stroke: #4b5563; stroke-width: 2.5; stroke-linecap: square"/>
   </g>
   <g id="line2d_34">
    <path d="M 621.972864 133.135395 
L 401.864584 189.797539 
" clip-path="url(#pab810cd858)" style="fill: none; stroke-dasharray: 1.5,2.475; stroke-dashoffset: 0; stroke: #1f2937; stroke-opacity: 0.7; stroke-width: 1.5"/>
   </g>
   <g id="line2d_35">
    <path d="M 621.972864 133.135395 
L 614.534936 189.797539 
" clip-path="url(#pab810cd858)" style="fill: none; stroke-dasharray: 1.5,2.475; stroke-dashoffset: 0; stroke: #1f2937; stroke-opacity: 0.7; stroke-width: 1.5"/>
   </g>
   <g id="patch_3">
    <path d="M 295.529408 338.666785 
L 295.529408 40.928292 
" style="fill: none; stroke: #4b5563; stroke-width: 0.8; stroke-linejoin: miter; stroke-linecap: square"/>
   </g>
   <g id="patch_4">
    <path d="M 295.529408 338.666785 
L 720.870112 338.666785 
" style="fill: none; stroke: #4b5563; stroke-width: 0.8; stroke-linejoin: miter; stroke-linecap: square"/>
   </g>
   <g id="text_13">
    <!-- C -->
    <g style="fill: #39c5bb" transform="translate(516.706574 177.037318) scale(0.11 -0.11)">
     <defs>
      <path id="SegoeUI-Bold-43" d="M 3725 159 
Q 3234 -78 2444 -78 
Q 1413 -78 822 528 
Q 231 1134 231 2144 
Q 231 3219 895 3887 
Q 1559 4556 2619 4556 
Q 3275 4556 3725 4391 
L 3725 3419 
Q 3275 3688 2700 3688 
Q 2069 3688 1681 3291 
Q 1294 2894 1294 2216 
Q 1294 1566 1659 1180 
Q 2025 794 2644 794 
Q 3234 794 3725 1081 
L 3725 159 
z
" transform="scale(0.015625)"/>
     </defs>
     <use xlink:href="#SegoeUI-Bold-43"/>
    </g>
   </g>
   <g id="text_14">
    <!-- $F_2$ -->
    <g style="fill: #f59e0b" transform="translate(623.04175 177.037318) scale(0.11 -0.11)">
     <defs>
      <path id="DejaVuSans-Oblique-46" d="M 1081 4666 
L 3756 4666 
L 3653 4134 
L 1606 4134 
L 1338 2759 
L 3188 2759 
L 3084 2228 
L 1234 2228 
L 800 0 
L 172 0 
L 1081 4666 
z
" transform="scale(0.015625)"/>
      <path id="DejaVuSans-32" d="M 1228 531 
L 3431 531 
L 3431 0 
L 469 0 
L 469 531 
Q 828 903 1448 1529 
Q 2069 2156 2228 2338 
Q 2531 2678 2651 2914 
Q 2772 3150 2772 3378 
Q 2772 3750 2511 3984 
Q 2250 4219 1831 4219 
Q 1534 4219 1204 4116 
Q 875 4013 500 3803 
L 500 4441 
Q 881 4594 1212 4672 
Q 1544 4750 1819 4750 
Q 2544 4750 2975 4387 
Q 3406 4025 3406 3419 
Q 3406 3131 3298 2873 
Q 3191 2616 2906 2266 
Q 2828 2175 2409 1742 
Q 1991 1309 1228 531 
z
" transform="scale(0.015625)"/>
     </defs>
     <use xlink:href="#DejaVuSans-Oblique-46" transform="translate(0 0.09375)"/>
     <use xlink:href="#DejaVuSans-32" transform="translate(57.519531 -16.3125) scale(0.7)"/>
    </g>
   </g>
   <g id="text_15">
    <!-- $F_1$ -->
    <g style="fill: #f59e0b" transform="translate(380.597549 177.037318) scale(0.11 -0.11)">
     <defs>
      <path id="DejaVuSans-31" d="M 794 531 
L 1825 531 
L 1825 4091 
L 703 3866 
L 703 4441 
L 1819 4666 
L 2450 4666 
L 2450 531 
L 3481 531 
L 3481 0 
L 794 0 
L 794 531 
z
" transform="scale(0.015625)"/>
     </defs>
     <use xlink:href="#DejaVuSans-Oblique-46" transform="translate(0 0.09375)"/>
     <use xlink:href="#DejaVuSans-31" transform="translate(57.519531 -16.3125) scale(0.7)"/>
    </g>
   </g>
   <g id="text_16">
    <!-- $V_2$ -->
    <g style="fill: #e12885" transform="translate(601.774715 211.064574) scale(0.1 -0.1)">
     <defs>
      <path id="DejaVuSans-Oblique-56" d="M 1319 0 
L 500 4666 
L 1119 4666 
L 1797 653 
L 4063 4666 
L 4750 4666 
L 2053 0 
L 1319 0 
z
" transform="scale(0.015625)"/>
     </defs>
     <use xlink:href="#DejaVuSans-Oblique-56" transform="translate(0 0.09375)"/>
     <use xlink:href="#DejaVuSans-32" transform="translate(68.408203 -16.3125) scale(0.7)"/>
    </g>
   </g>
   <g id="text_17">
    <!-- $V_1$ -->
    <g style="fill: #e12885" transform="translate(401.864584 211.064574) scale(0.1 -0.1)">
     <use xlink:href="#DejaVuSans-Oblique-56" transform="translate(0 0.09375)"/>
     <use xlink:href="#DejaVuSans-31" transform="translate(68.408203 -16.3125) scale(0.7)"/>
    </g>
   </g>
   <g id="text_18">
    <!-- a -->
    <g style="fill: #e12885" transform="translate(546.966955 215.317981) scale(0.14 -0.14)">
     <defs>
      <path id="SegoeUI-Bold-61" d="M 3078 0 
L 2144 0 
L 2144 459 
L 2131 459 
Q 1809 -78 1178 -78 
Q 713 -78 445 186 
Q 178 450 178 891 
Q 178 1822 1281 1966 
L 2150 2081 
Q 2150 2606 1581 2606 
Q 1009 2606 494 2266 
L 494 3009 
Q 700 3116 1058 3197 
Q 1416 3278 1709 3278 
Q 3078 3278 3078 1913 
L 3078 0 
z
M 2150 1300 
L 2150 1516 
L 1569 1441 
Q 1088 1378 1088 1006 
Q 1088 838 1205 730 
Q 1322 622 1522 622 
Q 1800 622 1975 814 
Q 2150 1006 2150 1300 
z
" transform="scale(0.015625)"/>
     </defs>
     <use xlink:href="#SegoeUI-Bold-61"/>
    </g>
   </g>
   <g id="text_19">
    <!-- b -->
    <g style="fill: #4b5563" transform="translate(516.706574 157.896986) scale(0.14 -0.14)">
     <defs>
      <path id="SegoeUI-Bold-62" d="M 1416 372 
L 1403 372 
L 1403 0 
L 416 0 
L 416 4738 
L 1403 4738 
L 1403 2719 
L 1416 2719 
Q 1781 3278 2456 3278 
Q 3075 3278 3409 2853 
Q 3744 2428 3744 1691 
Q 3744 891 3353 406 
Q 2963 -78 2309 -78 
Q 1719 -78 1416 372 
z
M 1388 1722 
L 1388 1394 
Q 1388 1084 1566 881 
Q 1744 678 2022 678 
Q 2359 678 2545 939 
Q 2731 1200 2731 1678 
Q 2731 2075 2561 2298 
Q 2391 2522 2075 2522 
Q 1778 2522 1583 2300 
Q 1388 2078 1388 1722 
z
" transform="scale(0.015625)"/>
     </defs>
     <use xlink:href="#SegoeUI-Bold-62"/>
    </g>
   </g>
   <g id="text_20">
    <!-- P -->
    <g style="fill: #1f2937" transform="translate(630.479678 124.628581) scale(0.11 -0.11)">
     <defs>
      <path id="SegoeUI-Bold-50" d="M 1522 1544 
L 1522 0 
L 513 0 
L 513 4481 
L 2094 4481 
Q 3788 4481 3788 3053 
Q 3788 2378 3302 1961 
Q 2816 1544 2003 1544 
L 1522 1544 
z
M 1522 3706 
L 1522 2309 
L 1919 2309 
Q 2725 2309 2725 3016 
Q 2725 3706 1919 3706 
L 1522 3706 
z
" transform="scale(0.015625)"/>
     </defs>
     <use xlink:href="#SegoeUI-Bold-50"/>
    </g>
   </g>
   <g id="text_21">
    <g id="patch_5">
     <path d="M 411.06976 323.33975 
L 605.32976 323.33975 
Q 608.62976 323.33975 608.62976 320.03975 
L 608.62976 308.92975 
Q 608.62976 305.62975 605.32976 305.62975 
L 411.06976 305.62975 
Q 407.76976 305.62975 407.76976 308.92975 
L 407.76976 320.03975 
Q 407.76976 323.33975 411.06976 323.33975 
z
" style="fill: #ffffff; stroke: #39c5bb; stroke-linejoin: miter"/>
    </g>
    <!-- $|d_1 - d_2| = 2a$ (definición de hipérbola) -->
    <g style="fill: #2c2f33" transform="translate(411.06976 317.39975) scale(0.11 -0.11)">
     <defs>
      <path id="DejaVuSans-7c" d="M 1344 4891 
L 1344 -1509 
L 813 -1509 
L 813 4891 
L 1344 4891 
z
" transform="scale(0.015625)"/>
      <path id="DejaVuSans-Oblique-64" d="M 2675 525 
Q 2444 222 2128 65 
Q 1813 -91 1428 -91 
Q 903 -91 598 267 
Q 294 625 294 1247 
Q 294 1766 478 2236 
Q 663 2706 1013 3078 
Q 1244 3325 1534 3454 
Q 1825 3584 2144 3584 
Q 2481 3584 2739 3421 
Q 2997 3259 3138 2956 
L 3513 4863 
L 4091 4863 
L 3144 0 
L 2566 0 
L 2675 525 
z
M 891 1350 
Q 891 897 1095 644 
Q 1300 391 1663 391 
Q 1931 391 2161 520 
Q 2391 650 2566 903 
Q 2750 1166 2856 1509 
Q 2963 1853 2963 2188 
Q 2963 2622 2758 2865 
Q 2553 3109 2194 3109 
Q 1922 3109 1687 2981 
Q 1453 2853 1288 2613 
Q 1106 2353 998 2009 
Q 891 1666 891 1350 
z
" transform="scale(0.015625)"/>
      <path id="DejaVuSans-2212" d="M 678 2272 
L 4684 2272 
L 4684 1741 
L 678 1741 
L 678 2272 
z
" transform="scale(0.015625)"/>
      <path id="DejaVuSans-3d" d="M 678 2906 
L 4684 2906 
L 4684 2381 
L 678 2381 
L 678 2906 
z
M 678 1631 
L 4684 1631 
L 4684 1100 
L 678 1100 
L 678 1631 
z
" transform="scale(0.015625)"/>
      <path id="DejaVuSans-Oblique-61" d="M 3438 1997 
L 3047 0 
L 2472 0 
L 2578 531 
Q 2325 219 2001 64 
Q 1678 -91 1281 -91 
Q 834 -91 548 182 
Q 263 456 263 884 
Q 263 1497 752 1853 
Q 1241 2209 2100 2209 
L 2900 2209 
L 2931 2363 
Q 2938 2388 2941 2417 
Q 2944 2447 2944 2509 
Q 2944 2788 2717 2942 
Q 2491 3097 2081 3097 
Q 1800 3097 1504 3025 
Q 1209 2953 897 2809 
L 997 3341 
Q 1322 3463 1633 3523 
Q 1944 3584 2234 3584 
Q 2853 3584 3176 3315 
Q 3500 3047 3500 2534 
Q 3500 2431 3484 2292 
Q 3469 2153 3438 1997 
z
M 2816 1759 
L 2241 1759 
Q 1534 1759 1195 1570 
Q 856 1381 856 984 
Q 856 709 1029 553 
Q 1203 397 1509 397 
Q 1978 397 2328 733 
Q 2678 1069 2791 1631 
L 2816 1759 
z
" transform="scale(0.015625)"/>
      <path id="SegoeUI-20" transform="scale(0.015625)"/>
      <path id="SegoeUI-28" d="M 1863 -1019 
L 1406 -1019 
Q 438 88 438 1709 
Q 438 3338 1406 4481 
L 1869 4481 
Q 888 3294 888 1716 
Q 888 150 1863 -1019 
z
" transform="scale(0.015625)"/>
      <path id="SegoeUI-64" d="M 3250 0 
L 2738 0 
L 2738 544 
L 2725 544 
Q 2369 -75 1625 -75 
Q 1022 -75 661 354 
Q 300 784 300 1525 
Q 300 2319 700 2797 
Q 1100 3275 1766 3275 
Q 2425 3275 2725 2756 
L 2738 2756 
L 2738 4738 
L 3250 4738 
L 3250 0 
z
M 2738 1447 
L 2738 1919 
Q 2738 2306 2481 2575 
Q 2225 2844 1831 2844 
Q 1363 2844 1094 2500 
Q 825 2156 825 1550 
Q 825 997 1083 676 
Q 1341 356 1775 356 
Q 2203 356 2470 665 
Q 2738 975 2738 1447 
z
" transform="scale(0.015625)"/>
      <path id="SegoeUI-65" d="M 3091 1472 
L 831 1472 
Q 844 938 1119 647 
Q 1394 356 1875 356 
Q 2416 356 2869 713 
L 2869 231 
Q 2447 -75 1753 -75 
Q 1075 -75 687 361 
Q 300 797 300 1588 
Q 300 2334 723 2804 
Q 1147 3275 1775 3275 
Q 2403 3275 2747 2869 
Q 3091 2463 3091 1741 
L 3091 1472 
z
M 2566 1906 
Q 2563 2350 2352 2597 
Q 2141 2844 1766 2844 
Q 1403 2844 1150 2584 
Q 897 2325 838 1906 
L 2566 1906 
z
" transform="scale(0.015625)"/>
      <path id="SegoeUI-66" d="M 2100 4288 
Q 1950 4372 1759 4372 
Q 1222 4372 1222 3694 
L 1222 3200 
L 1972 3200 
L 1972 2763 
L 1222 2763 
L 1222 0 
L 713 0 
L 713 2763 
L 166 2763 
L 166 3200 
L 713 3200 
L 713 3719 
Q 713 4222 1003 4514 
Q 1294 4806 1728 4806 
Q 1963 4806 2100 4750 
L 2100 4288 
z
" transform="scale(0.015625)"/>
      <path id="SegoeUI-69" d="M 781 4013 
Q 644 4013 547 4106 
Q 450 4200 450 4344 
Q 450 4488 547 4583 
Q 644 4678 781 4678 
Q 922 4678 1020 4583 
Q 1119 4488 1119 4344 
Q 1119 4206 1020 4109 
Q 922 4013 781 4013 
z
M 1031 0 
L 519 0 
L 519 3200 
L 1031 3200 
L 1031 0 
z
" transform="scale(0.015625)"/>
      <path id="SegoeUI-6e" d="M 3175 0 
L 2663 0 
L 2663 1825 
Q 2663 2844 1919 2844 
Q 1534 2844 1282 2555 
Q 1031 2266 1031 1825 
L 1031 0 
L 519 0 
L 519 3200 
L 1031 3200 
L 1031 2669 
L 1044 2669 
Q 1406 3275 2094 3275 
Q 2619 3275 2897 2936 
Q 3175 2597 3175 1956 
L 3175 0 
z
" transform="scale(0.015625)"/>
      <path id="SegoeUI-63" d="M 2700 147 
Q 2331 -75 1825 -75 
Q 1141 -75 720 370 
Q 300 816 300 1525 
Q 300 2316 753 2795 
Q 1206 3275 1963 3275 
Q 2384 3275 2706 3119 
L 2706 2594 
Q 2350 2844 1944 2844 
Q 1453 2844 1139 2492 
Q 825 2141 825 1569 
Q 825 1006 1120 681 
Q 1416 356 1913 356 
Q 2331 356 2700 634 
L 2700 147 
z
" transform="scale(0.015625)"/>
      <path id="SegoeUI-f3" d="M 1856 -75 
Q 1147 -75 723 373 
Q 300 822 300 1563 
Q 300 2369 740 2822 
Q 1181 3275 1931 3275 
Q 2647 3275 3048 2834 
Q 3450 2394 3450 1613 
Q 3450 847 3017 386 
Q 2584 -75 1856 -75 
z
M 1894 2844 
Q 1400 2844 1112 2508 
Q 825 2172 825 1581 
Q 825 1013 1115 684 
Q 1406 356 1894 356 
Q 2391 356 2658 678 
Q 2925 1000 2925 1594 
Q 2925 2194 2658 2519 
Q 2391 2844 1894 2844 
z
M 2646 4831 
L 1827 3806 
L 1430 3806 
L 2127 4831 
L 2646 4831 
z
" transform="scale(0.015625)"/>
      <path id="SegoeUI-68" d="M 3175 0 
L 2663 0 
L 2663 1844 
Q 2663 2844 1919 2844 
Q 1544 2844 1287 2555 
Q 1031 2266 1031 1813 
L 1031 0 
L 519 0 
L 519 4738 
L 1031 4738 
L 1031 2669 
L 1044 2669 
Q 1413 3275 2094 3275 
Q 3175 3275 3175 1972 
L 3175 0 
z
" transform="scale(0.015625)"/>
      <path id="SegoeUI-70" d="M 1044 463 
L 1031 463 
L 1031 -1472 
L 519 -1472 
L 519 3200 
L 1031 3200 
L 1031 2638 
L 1044 2638 
Q 1422 3275 2150 3275 
Q 2769 3275 3116 2845 
Q 3463 2416 3463 1694 
Q 3463 891 3072 408 
Q 2681 -75 2003 -75 
Q 1381 -75 1044 463 
z
M 1031 1753 
L 1031 1306 
Q 1031 909 1289 632 
Q 1547 356 1944 356 
Q 2409 356 2673 712 
Q 2938 1069 2938 1703 
Q 2938 2238 2691 2541 
Q 2444 2844 2022 2844 
Q 1575 2844 1303 2533 
Q 1031 2222 1031 1753 
z
" transform="scale(0.015625)"/>
      <path id="SegoeUI-e9" d="M 3091 1472 
L 831 1472 
Q 844 938 1119 647 
Q 1394 356 1875 356 
Q 2416 356 2869 713 
L 2869 231 
Q 2447 -75 1753 -75 
Q 1075 -75 687 361 
Q 300 797 300 1588 
Q 300 2334 723 2804 
Q 1147 3275 1775 3275 
Q 2403 3275 2747 2869 
Q 3091 2463 3091 1741 
L 3091 1472 
z
M 2566 1906 
Q 2563 2350 2352 2597 
Q 2141 2844 1766 2844 
Q 1403 2844 1150 2584 
Q 897 2325 838 1906 
L 2566 1906 
z
M 2486 4831 
L 1667 3806 
L 1270 3806 
L 1967 4831 
L 2486 4831 
z
" transform="scale(0.015625)"/>
      <path id="SegoeUI-72" d="M 2188 2681 
Q 2053 2784 1800 2784 
Q 1472 2784 1251 2475 
Q 1031 2166 1031 1631 
L 1031 0 
L 519 0 
L 519 3200 
L 1031 3200 
L 1031 2541 
L 1044 2541 
Q 1153 2878 1378 3067 
Q 1603 3256 1881 3256 
Q 2081 3256 2188 3213 
L 2188 2681 
z
" transform="scale(0.015625)"/>
      <path id="SegoeUI-62" d="M 1044 463 
L 1031 463 
L 1031 0 
L 519 0 
L 519 4738 
L 1031 4738 
L 1031 2638 
L 1044 2638 
Q 1422 3275 2150 3275 
Q 2766 3275 3114 2845 
Q 3463 2416 3463 1694 
Q 3463 891 3072 408 
Q 2681 -75 2003 -75 
Q 1369 -75 1044 463 
z
M 1031 1753 
L 1031 1306 
Q 1031 909 1289 632 
Q 1547 356 1944 356 
Q 2409 356 2673 712 
Q 2938 1069 2938 1703 
Q 2938 2238 2691 2541 
Q 2444 2844 2022 2844 
Q 1575 2844 1303 2533 
Q 1031 2222 1031 1753 
z
" transform="scale(0.015625)"/>
      <path id="SegoeUI-6f" d="M 1856 -75 
Q 1147 -75 723 373 
Q 300 822 300 1563 
Q 300 2369 740 2822 
Q 1181 3275 1931 3275 
Q 2647 3275 3048 2834 
Q 3450 2394 3450 1613 
Q 3450 847 3017 386 
Q 2584 -75 1856 -75 
z
M 1894 2844 
Q 1400 2844 1112 2508 
Q 825 2172 825 1581 
Q 825 1013 1115 684 
Q 1406 356 1894 356 
Q 2391 356 2658 678 
Q 2925 1000 2925 1594 
Q 2925 2194 2658 2519 
Q 2391 2844 1894 2844 
z
" transform="scale(0.015625)"/>
      <path id="SegoeUI-6c" d="M 1031 0 
L 519 0 
L 519 4738 
L 1031 4738 
L 1031 0 
z
" transform="scale(0.015625)"/>
      <path id="SegoeUI-61" d="M 2809 0 
L 2297 0 
L 2297 500 
L 2284 500 
Q 1950 -75 1300 -75 
Q 822 -75 551 178 
Q 281 431 281 850 
Q 281 1747 1338 1894 
L 2297 2028 
Q 2297 2844 1638 2844 
Q 1059 2844 594 2450 
L 594 2975 
Q 1066 3275 1681 3275 
Q 2809 3275 2809 2081 
L 2809 0 
z
M 2297 1619 
L 1525 1513 
Q 1169 1463 987 1336 
Q 806 1209 806 888 
Q 806 653 973 504 
Q 1141 356 1419 356 
Q 1800 356 2048 623 
Q 2297 891 2297 1300 
L 2297 1619 
z
" transform="scale(0.015625)"/>
      <path id="SegoeUI-29" d="M 531 -1019 
L 75 -1019 
Q 1050 150 1050 1716 
Q 1050 3294 69 4481 
L 531 4481 
Q 1506 3338 1506 1709 
Q 1506 88 531 -1019 
z
" transform="scale(0.015625)"/>
     </defs>
     <use xlink:href="#DejaVuSans-7c" transform="translate(0 0.578125)"/>
     <use xlink:href="#DejaVuSans-Oblique-64" transform="translate(33.691406 0.578125)"/>
     <use xlink:href="#DejaVuSans-31" transform="translate(97.167969 -15.828125) scale(0.7)"/>
     <use xlink:href="#DejaVuSans-2212" transform="translate(163.920898 0.578125)"/>
     <use xlink:href="#DejaVuSans-Oblique-64" transform="translate(267.192383 0.578125)"/>
     <use xlink:href="#DejaVuSans-32" transform="translate(330.668945 -15.828125) scale(0.7)"/>
     <use xlink:href="#DejaVuSans-7c" transform="translate(377.939453 0.578125)"/>
     <use xlink:href="#DejaVuSans-3d" transform="translate(431.113281 0.578125)"/>
     <use xlink:href="#DejaVuSans-32" transform="translate(534.384766 0.578125)"/>
     <use xlink:href="#DejaVuSans-Oblique-61" transform="translate(598.007812 0.578125)"/>
     <use xlink:href="#SegoeUI-20" transform="translate(659.287109 0.578125)"/>
     <use xlink:href="#SegoeUI-28" transform="translate(686.679688 0.578125)"/>
     <use xlink:href="#SegoeUI-64" transform="translate(716.855469 0.578125)"/>
     <use xlink:href="#SegoeUI-65" transform="translate(775.742188 0.578125)"/>
     <use xlink:href="#SegoeUI-66" transform="translate(828.037109 0.578125)"/>
     <use xlink:href="#SegoeUI-69" transform="translate(859.335938 0.578125)"/>
     <use xlink:href="#SegoeUI-6e" transform="translate(883.554688 0.578125)"/>
     <use xlink:href="#SegoeUI-69" transform="translate(940.146484 0.578125)"/>
     <use xlink:href="#SegoeUI-63" transform="translate(964.365234 0.578125)"/>
     <use xlink:href="#SegoeUI-69" transform="translate(1010.556641 0.578125)"/>
     <use xlink:href="#SegoeUI-f3" transform="translate(1034.775391 0.578125)"/>
     <use xlink:href="#SegoeUI-6e" transform="translate(1093.369141 0.578125)"/>
     <use xlink:href="#SegoeUI-20" transform="translate(1149.960938 0.578125)"/>
     <use xlink:href="#SegoeUI-64" transform="translate(1177.353516 0.578125)"/>
     <use xlink:href="#SegoeUI-65" transform="translate(1236.240234 0.578125)"/>
     <use xlink:href="#SegoeUI-20" transform="translate(1288.535156 0.578125)"/>
     <use xlink:href="#SegoeUI-68" transform="translate(1315.927734 0.578125)"/>
     <use xlink:href="#SegoeUI-69" transform="translate(1372.519531 0.578125)"/>
     <use xlink:href="#SegoeUI-70" transform="translate(1396.738281 0.578125)"/>
     <use xlink:href="#SegoeUI-e9" transform="translate(1455.527344 0.578125)"/>
     <use xlink:href="#SegoeUI-72" transform="translate(1507.822266 0.578125)"/>
     <use xlink:href="#SegoeUI-62" transform="translate(1542.587891 0.578125)"/>
     <use xlink:href="#SegoeUI-6f" transform="translate(1601.376953 0.578125)"/>
     <use xlink:href="#SegoeUI-6c" transform="translate(1659.970703 0.578125)"/>
     <use xlink:href="#SegoeUI-61" transform="translate(1684.189453 0.578125)"/>
     <use xlink:href="#SegoeUI-29" transform="translate(1735.068359 0.578125)"/>
    </g>
   </g>
   <g id="text_22">
    <!-- Hipérbola con Eje Transverso Horizontal -->
    <g style="fill: #2c2f33" transform="translate(404.731869 34.928292) scale(0.11 -0.11)">
     <defs>
      <path id="SegoeUI-Bold-48" d="M 4391 0 
L 3378 0 
L 3378 1825 
L 1522 1825 
L 1522 0 
L 513 0 
L 513 4481 
L 1522 4481 
L 1522 2694 
L 3378 2694 
L 3378 4481 
L 4391 4481 
L 4391 0 
z
" transform="scale(0.015625)"/>
      <path id="SegoeUI-Bold-69" d="M 916 3706 
Q 666 3706 506 3854 
Q 347 4003 347 4219 
Q 347 4441 506 4581 
Q 666 4722 916 4722 
Q 1169 4722 1326 4581 
Q 1484 4441 1484 4219 
Q 1484 3994 1326 3850 
Q 1169 3706 916 3706 
z
M 1403 0 
L 416 0 
L 416 3200 
L 1403 3200 
L 1403 0 
z
" transform="scale(0.015625)"/>
      <path id="SegoeUI-Bold-70" d="M 1416 372 
L 1403 372 
L 1403 -1472 
L 416 -1472 
L 416 3200 
L 1403 3200 
L 1403 2719 
L 1416 2719 
Q 1781 3278 2444 3278 
Q 3066 3278 3405 2851 
Q 3744 2425 3744 1691 
Q 3744 891 3348 406 
Q 2953 -78 2297 -78 
Q 1719 -78 1416 372 
z
M 1388 1684 
L 1388 1428 
Q 1388 1097 1563 887 
Q 1738 678 2022 678 
Q 2359 678 2545 939 
Q 2731 1200 2731 1678 
Q 2731 2522 2075 2522 
Q 1772 2522 1580 2292 
Q 1388 2063 1388 1684 
z
" transform="scale(0.015625)"/>
      <path id="SegoeUI-Bold-e9" d="M 3291 1319 
L 1203 1319 
Q 1253 622 2081 622 
Q 2609 622 3009 872 
L 3009 159 
Q 2566 -78 1856 -78 
Q 1081 -78 653 351 
Q 225 781 225 1550 
Q 225 2347 687 2812 
Q 1150 3278 1825 3278 
Q 2525 3278 2908 2862 
Q 3291 2447 3291 1734 
L 3291 1319 
z
M 2375 1925 
Q 2375 2613 1819 2613 
Q 1581 2613 1407 2416 
Q 1234 2219 1197 1925 
L 2375 1925 
z
M 2879 4716 
L 1900 3706 
L 1188 3706 
L 2000 4716 
L 2879 4716 
z
" transform="scale(0.015625)"/>
      <path id="SegoeUI-Bold-72" d="M 2503 2309 
Q 2325 2406 2088 2406 
Q 1766 2406 1584 2170 
Q 1403 1934 1403 1528 
L 1403 0 
L 416 0 
L 416 3200 
L 1403 3200 
L 1403 2606 
L 1416 2606 
Q 1650 3256 2259 3256 
Q 2416 3256 2503 3219 
L 2503 2309 
z
" transform="scale(0.015625)"/>
      <path id="SegoeUI-Bold-6f" d="M 1941 -78 
Q 1141 -78 683 370 
Q 225 819 225 1588 
Q 225 2381 700 2829 
Q 1175 3278 1984 3278 
Q 2781 3278 3234 2829 
Q 3688 2381 3688 1644 
Q 3688 847 3220 384 
Q 2753 -78 1941 -78 
z
M 1966 2522 
Q 1616 2522 1422 2281 
Q 1228 2041 1228 1600 
Q 1228 678 1972 678 
Q 2681 678 2681 1625 
Q 2681 2522 1966 2522 
z
" transform="scale(0.015625)"/>
      <path id="SegoeUI-Bold-6c" d="M 1403 0 
L 416 0 
L 416 4738 
L 1403 4738 
L 1403 0 
z
" transform="scale(0.015625)"/>
      <path id="SegoeUI-Bold-20" transform="scale(0.015625)"/>
      <path id="SegoeUI-Bold-63" d="M 2841 116 
Q 2506 -78 1875 -78 
Q 1138 -78 681 369 
Q 225 816 225 1522 
Q 225 2338 714 2808 
Q 1203 3278 2022 3278 
Q 2588 3278 2841 3128 
L 2841 2291 
Q 2531 2522 2150 2522 
Q 1725 2522 1476 2273 
Q 1228 2025 1228 1588 
Q 1228 1163 1465 920 
Q 1703 678 2119 678 
Q 2488 678 2841 909 
L 2841 116 
z
" transform="scale(0.015625)"/>
      <path id="SegoeUI-Bold-6e" d="M 3506 0 
L 2522 0 
L 2522 1778 
Q 2522 2522 1991 2522 
Q 1734 2522 1568 2325 
Q 1403 2128 1403 1825 
L 1403 0 
L 416 0 
L 416 3200 
L 1403 3200 
L 1403 2694 
L 1416 2694 
Q 1769 3278 2444 3278 
Q 3506 3278 3506 1959 
L 3506 0 
z
" transform="scale(0.015625)"/>
      <path id="SegoeUI-Bold-45" d="M 3200 0 
L 513 0 
L 513 4481 
L 3097 4481 
L 3097 3659 
L 1522 3659 
L 1522 2663 
L 2988 2663 
L 2988 1844 
L 1522 1844 
L 1522 819 
L 3200 819 
L 3200 0 
z
" transform="scale(0.015625)"/>
      <path id="SegoeUI-Bold-6a" d="M 916 3706 
Q 666 3706 506 3854 
Q 347 4003 347 4219 
Q 347 4441 506 4581 
Q 666 4722 916 4722 
Q 1169 4722 1326 4581 
Q 1484 4441 1484 4219 
Q 1484 3994 1326 3850 
Q 1169 3706 916 3706 
z
M 1403 56 
Q 1403 -653 1056 -1078 
Q 709 -1503 56 -1503 
Q -159 -1503 -416 -1409 
L -416 -634 
Q -209 -750 -50 -750 
Q 416 -750 416 -19 
L 416 3200 
L 1403 3200 
L 1403 56 
z
" transform="scale(0.015625)"/>
      <path id="SegoeUI-Bold-65" d="M 3291 1319 
L 1203 1319 
Q 1253 622 2081 622 
Q 2609 622 3009 872 
L 3009 159 
Q 2566 -78 1856 -78 
Q 1081 -78 653 351 
Q 225 781 225 1550 
Q 225 2347 687 2812 
Q 1150 3278 1825 3278 
Q 2525 3278 2908 2862 
Q 3291 2447 3291 1734 
L 3291 1319 
z
M 2375 1925 
Q 2375 2613 1819 2613 
Q 1581 2613 1407 2416 
Q 1234 2219 1197 1925 
L 2375 1925 
z
" transform="scale(0.015625)"/>
      <path id="SegoeUI-Bold-54" d="M 3659 3659 
L 2381 3659 
L 2381 0 
L 1369 0 
L 1369 3659 
L 97 3659 
L 97 4481 
L 3659 4481 
L 3659 3659 
z
" transform="scale(0.015625)"/>
      <path id="SegoeUI-Bold-73" d="M 206 84 
L 206 884 
Q 450 738 692 666 
Q 934 594 1150 594 
Q 1413 594 1564 666 
Q 1716 738 1716 884 
Q 1716 978 1647 1040 
Q 1578 1103 1470 1150 
Q 1363 1197 1234 1234 
Q 1106 1272 988 1319 
Q 797 1391 651 1473 
Q 506 1556 407 1665 
Q 309 1775 257 1919 
Q 206 2063 206 2259 
Q 206 2528 323 2722 
Q 441 2916 636 3039 
Q 831 3163 1082 3220 
Q 1334 3278 1606 3278 
Q 1819 3278 2037 3245 
Q 2256 3213 2469 3150 
L 2469 2388 
Q 2281 2497 2067 2551 
Q 1853 2606 1647 2606 
Q 1550 2606 1464 2589 
Q 1378 2572 1312 2539 
Q 1247 2506 1209 2454 
Q 1172 2403 1172 2338 
Q 1172 2250 1228 2187 
Q 1284 2125 1375 2079 
Q 1466 2034 1577 1998 
Q 1688 1963 1797 1925 
Q 1994 1856 2153 1775 
Q 2313 1694 2427 1584 
Q 2541 1475 2602 1328 
Q 2663 1181 2663 978 
Q 2663 694 2539 492 
Q 2416 291 2211 164 
Q 2006 38 1739 -20 
Q 1472 -78 1184 -78 
Q 656 -78 206 84 
z
" transform="scale(0.015625)"/>
      <path id="SegoeUI-Bold-76" d="M 3463 3200 
L 2272 0 
L 1147 0 
L 13 3200 
L 1069 3200 
L 1625 1228 
Q 1719 894 1734 659 
L 1747 659 
Q 1769 881 1863 1209 
L 2431 3200 
L 3463 3200 
z
" transform="scale(0.015625)"/>
      <path id="SegoeUI-Bold-7a" d="M 2950 0 
L 78 0 
L 78 409 
L 1684 2472 
L 238 2472 
L 238 3200 
L 2938 3200 
L 2938 2713 
L 1416 728 
L 2950 728 
L 2950 0 
z
" transform="scale(0.015625)"/>
      <path id="SegoeUI-Bold-74" d="M 2350 38 
Q 2131 -78 1691 -78 
Q 647 -78 647 1006 
L 647 2472 
L 128 2472 
L 128 3200 
L 647 3200 
L 647 3891 
L 1631 4172 
L 1631 3200 
L 2350 3200 
L 2350 2472 
L 1631 2472 
L 1631 1178 
Q 1631 678 2028 678 
Q 2184 678 2350 769 
L 2350 38 
z
" transform="scale(0.015625)"/>
     </defs>
     <use xlink:href="#SegoeUI-Bold-48"/>
     <use xlink:href="#SegoeUI-Bold-69" x="76.611328"/>
     <use xlink:href="#SegoeUI-Bold-70" x="105.029297"/>
     <use xlink:href="#SegoeUI-Bold-e9" x="167.041016"/>
     <use xlink:href="#SegoeUI-Bold-72" x="221.142578"/>
     <use xlink:href="#SegoeUI-Bold-62" x="260.9375"/>
     <use xlink:href="#SegoeUI-Bold-6f" x="322.949219"/>
     <use xlink:href="#SegoeUI-Bold-6c" x="384.082031"/>
     <use xlink:href="#SegoeUI-Bold-61" x="412.5"/>
     <use xlink:href="#SegoeUI-Bold-20" x="466.308594"/>
     <use xlink:href="#SegoeUI-Bold-63" x="493.896484"/>
     <use xlink:href="#SegoeUI-Bold-6f" x="541.894531"/>
     <use xlink:href="#SegoeUI-Bold-6e" x="603.027344"/>
     <use xlink:href="#SegoeUI-Bold-20" x="663.525391"/>
     <use xlink:href="#SegoeUI-Bold-45" x="691.113281"/>
     <use xlink:href="#SegoeUI-Bold-6a" x="744.335938"/>
     <use xlink:href="#SegoeUI-Bold-65" x="772.753906"/>
     <use xlink:href="#SegoeUI-Bold-20" x="826.855469"/>
     <use xlink:href="#SegoeUI-Bold-54" x="854.443359"/>
     <use xlink:href="#SegoeUI-Bold-72" x="905.537109"/>
     <use xlink:href="#SegoeUI-Bold-61" x="945.332031"/>
     <use xlink:href="#SegoeUI-Bold-6e" x="999.140625"/>
     <use xlink:href="#SegoeUI-Bold-73" x="1059.638672"/>
     <use xlink:href="#SegoeUI-Bold-76" x="1103.632812"/>
     <use xlink:href="#SegoeUI-Bold-65" x="1156.832031"/>
     <use xlink:href="#SegoeUI-Bold-72" x="1210.933594"/>
     <use xlink:href="#SegoeUI-Bold-73" x="1251.353516"/>
     <use xlink:href="#SegoeUI-Bold-6f" x="1295.347656"/>
     <use xlink:href="#SegoeUI-Bold-20" x="1356.480469"/>
     <use xlink:href="#SegoeUI-Bold-48" x="1384.068359"/>
     <use xlink:href="#SegoeUI-Bold-6f" x="1460.679688"/>
     <use xlink:href="#SegoeUI-Bold-72" x="1521.8125"/>
     <use xlink:href="#SegoeUI-Bold-69" x="1561.982422"/>
     <use xlink:href="#SegoeUI-Bold-7a" x="1590.400391"/>
     <use xlink:href="#SegoeUI-Bold-6f" x="1638.300781"/>
     <use xlink:href="#SegoeUI-Bold-6e" x="1699.433594"/>
     <use xlink:href="#SegoeUI-Bold-74" x="1759.931641"/>
     <use xlink:href="#SegoeUI-Bold-61" x="1798.847656"/>
     <use xlink:href="#SegoeUI-Bold-6c" x="1852.65625"/>
    </g>
   </g>
   <g id="line2d_36">
    <defs>
     <path id="me43cc2ecc4" d="M 0 4 
C 1.060812 4 2.078319 3.578535 2.828427 2.828427 
C 3.578535 2.078319 4 1.060812 4 0 
C 4 -1.060812 3.578535 -2.078319 2.828427 -2.828427 
C 2.078319 -3.578535 1.060812 -4 0 -4 
C -1.060812 -4 -2.078319 -3.578535 -2.828427 -2.828427 
C -3.578535 -2.078319 -4 -1.060812 -4 0 
C -4 1.060812 -3.578535 2.078319 -2.828427 2.828427 
C -2.078319 3.578535 -1.060812 4 0 4 
z
" style="stroke: #39c5bb"/>
    </defs>
    <g clip-path="url(#pab810cd858)">
     <use xlink:href="#me43cc2ecc4" x="508.19976" y="189.797539" style="fill: #39c5bb; stroke: #39c5bb"/>
    </g>
   </g>
   <g id="line2d_37">
    <defs>
     <path id="mab51a587db" d="M 0 -7.5 
L -1.683855 -2.317627 
L -7.132924 -2.317627 
L -2.724534 0.885255 
L -4.408389 6.067627 
L -0 2.864745 
L 4.408389 6.067627 
L 2.724534 0.885255 
L 7.132924 -2.317627 
L 1.683855 -2.317627 
z
" style="stroke: #f59e0b; stroke-linejoin: bevel"/>
    </defs>
    <g clip-path="url(#pab810cd858)">
     <use xlink:href="#mab51a587db" x="614.534936" y="189.797539" style="fill: #f59e0b; stroke: #f59e0b; stroke-linejoin: bevel"/>
    </g>
   </g>
   <g id="line2d_38">
    <g clip-path="url(#pab810cd858)">
     <use xlink:href="#mab51a587db" x="401.864584" y="189.797539" style="fill: #f59e0b; stroke: #f59e0b; stroke-linejoin: bevel"/>
    </g>
   </g>
   <g id="line2d_39">
    <defs>
     <path id="mde8031d3c4" d="M 0 4 
C 1.060812 4 2.078319 3.578535 2.828427 2.828427 
C 3.578535 2.078319 4 1.060812 4 0 
C 4 -1.060812 3.578535 -2.078319 2.828427 -2.828427 
C 2.078319 -3.578535 1.060812 -4 0 -4 
C -1.060812 -4 -2.078319 -3.578535 -2.828427 -2.828427 
C -3.578535 -2.078319 -4 -1.060812 -4 0 
C -4 1.060812 -3.578535 2.078319 -2.828427 2.828427 
C -2.078319 3.578535 -1.060812 4 0 4 
z
" style="stroke: #e12885"/>
    </defs>
    <g clip-path="url(#pab810cd858)">
     <use xlink:href="#mde8031d3c4" x="593.267901" y="189.797539" style="fill: #e12885; stroke: #e12885"/>
    </g>
   </g>
   <g id="line2d_40">
    <g clip-path="url(#pab810cd858)">
     <use xlink:href="#mde8031d3c4" x="423.131619" y="189.797539" style="fill: #e12885; stroke: #e12885"/>
    </g>
   </g>
   <g id="line2d_41">
    <defs>
     <path id="m70a682d200" d="M 0 5 
C 1.326016 5 2.597899 4.473168 3.535534 3.535534 
C 4.473168 2.597899 5 1.326016 5 0 
C 5 -1.326016 4.473168 -2.597899 3.535534 -3.535534 
C 2.597899 -4.473168 1.326016 -5 0 -5 
C -1.326016 -5 -2.597899 -4.473168 -3.535534 -3.535534 
C -4.473168 -2.597899 -5 -1.326016 -5 0 
C -5 1.326016 -4.473168 2.597899 -3.535534 3.535534 
C -2.597899 4.473168 -1.326016 5 0 5 
z
" style="stroke: #1f2937"/>
    </defs>
    <g clip-path="url(#pab810cd858)">
     <use xlink:href="#m70a682d200" x="621.972864" y="133.135395" style="fill: #1f2937; stroke: #1f2937"/>
    </g>
   </g>
   <g id="legend_1">
    <g id="patch_6">
     <path d="M 606.930112 63.968292 
L 714.570112 63.968292 
Q 716.370112 63.968292 716.370112 62.168293 
L 716.370112 47.228292 
Q 716.370112 45.428292 714.570112 45.428292 
L 606.930112 45.428292 
Q 605.130112 45.428292 605.130112 47.228292 
L 605.130112 62.168293 
Q 605.130112 63.968292 606.930112 63.968292 
z
" style="fill: #ffffff; opacity: 0.8; stroke: #cccccc; stroke-linejoin: miter"/>
    </g>
    <g id="line2d_42">
     <path d="M 608.730112 54.698292 
L 617.730112 54.698292 
L 626.730112 54.698292 
" style="fill: none; stroke-dasharray: 7.4,3.2; stroke-dashoffset: 0; stroke: #dc2626; stroke-width: 2"/>
    </g>
    <g id="text_23">
     <!-- Asíntotas: $y = \pm\frac{b}{a}x$ -->
     <g style="fill: #2c2f33" transform="translate(633.930112 57.848292) scale(0.09 -0.09)">
      <defs>
       <path id="SegoeUI-41" d="M 4056 0 
L 3475 0 
L 3000 1256 
L 1100 1256 
L 653 0 
L 69 0 
L 1788 4481 
L 2331 4481 
L 4056 0 
z
M 2828 1728 
L 2125 3638 
Q 2091 3731 2056 3938 
L 2044 3938 
Q 2013 3747 1972 3638 
L 1275 1728 
L 2828 1728 
z
" transform="scale(0.015625)"/>
       <path id="SegoeUI-73" d="M 325 116 
L 325 666 
Q 744 356 1247 356 
Q 1922 356 1922 806 
Q 1922 934 1864 1023 
Q 1806 1113 1707 1181 
Q 1609 1250 1476 1304 
Q 1344 1359 1191 1419 
Q 978 1503 817 1589 
Q 656 1675 548 1783 
Q 441 1891 386 2028 
Q 331 2166 331 2350 
Q 331 2575 434 2748 
Q 538 2922 709 3039 
Q 881 3156 1101 3215 
Q 1322 3275 1556 3275 
Q 1972 3275 2300 3131 
L 2300 2613 
Q 1947 2844 1488 2844 
Q 1344 2844 1228 2811 
Q 1113 2778 1030 2718 
Q 947 2659 901 2576 
Q 856 2494 856 2394 
Q 856 2269 901 2184 
Q 947 2100 1034 2034 
Q 1122 1969 1247 1916 
Q 1372 1863 1531 1800 
Q 1744 1719 1912 1633 
Q 2081 1547 2200 1439 
Q 2319 1331 2383 1190 
Q 2447 1050 2447 856 
Q 2447 619 2342 444 
Q 2238 269 2063 153 
Q 1888 38 1659 -18 
Q 1431 -75 1181 -75 
Q 688 -75 325 116 
z
" transform="scale(0.015625)"/>
       <path id="SegoeUI-ed" d="M 1031 0 
L 519 0 
L 519 3200 
L 1031 3200 
L 1031 0 
z
M 1494 4831 
L 675 3806 
L 278 3806 
L 975 4831 
L 1494 4831 
z
" transform="scale(0.015625)"/>
       <path id="SegoeUI-74" d="M 2003 31 
Q 1822 -69 1525 -69 
Q 684 -69 684 869 
L 684 2763 
L 134 2763 
L 134 3200 
L 684 3200 
L 684 3981 
L 1197 4147 
L 1197 3200 
L 2003 3200 
L 2003 2763 
L 1197 2763 
L 1197 959 
Q 1197 638 1306 500 
Q 1416 363 1669 363 
Q 1863 363 2003 469 
L 2003 31 
z
" transform="scale(0.015625)"/>
       <path id="SegoeUI-3a" d="M 697 2575 
Q 553 2575 451 2678 
Q 350 2781 350 2925 
Q 350 3069 451 3169 
Q 553 3269 697 3269 
Q 844 3269 947 3169 
Q 1050 3069 1050 2925 
Q 1050 2781 947 2678 
Q 844 2575 697 2575 
z
M 697 -69 
Q 553 -69 451 34 
Q 350 138 350 281 
Q 350 425 451 529 
Q 553 634 697 634 
Q 844 634 947 529 
Q 1050 425 1050 281 
Q 1050 138 947 34 
Q 844 -69 697 -69 
z
" transform="scale(0.015625)"/>
       <path id="DejaVuSans-Oblique-79" d="M 1588 -325 
Q 1188 -997 936 -1164 
Q 684 -1331 294 -1331 
L -159 -1331 
L -63 -850 
L 269 -850 
Q 509 -850 678 -719 
Q 847 -588 1056 -206 
L 1234 128 
L 459 3500 
L 1069 3500 
L 1650 819 
L 3256 3500 
L 3859 3500 
L 1588 -325 
z
" transform="scale(0.015625)"/>
       <path id="DejaVuSans-b1" d="M 2944 4013 
L 2944 2803 
L 4684 2803 
L 4684 2272 
L 2944 2272 
L 2944 1063 
L 2419 1063 
L 2419 2272 
L 678 2272 
L 678 2803 
L 2419 2803 
L 2419 4013 
L 2944 4013 
z
M 678 531 
L 4684 531 
L 4684 0 
L 678 0 
L 678 531 
z
" transform="scale(0.015625)"/>
       <path id="DejaVuSans-Oblique-62" d="M 3169 2138 
Q 3169 2591 2961 2847 
Q 2753 3103 2388 3103 
Q 2122 3103 1889 2973 
Q 1656 2844 1484 2597 
Q 1303 2338 1198 1995 
Q 1094 1653 1094 1313 
Q 1094 881 1298 636 
Q 1503 391 1863 391 
Q 2134 391 2365 517 
Q 2597 644 2772 891 
Q 2950 1147 3059 1487 
Q 3169 1828 3169 2138 
z
M 1381 2969 
Q 1594 3256 1914 3420 
Q 2234 3584 2584 3584 
Q 3122 3584 3439 3221 
Q 3756 2859 3756 2241 
Q 3756 1734 3570 1259 
Q 3384 784 3041 416 
Q 2816 172 2522 40 
Q 2228 -91 1906 -91 
Q 1566 -91 1316 65 
Q 1066 222 909 531 
L 806 0 
L 231 0 
L 1178 4863 
L 1753 4863 
L 1381 2969 
z
" transform="scale(0.015625)"/>
       <path id="DejaVuSans-Oblique-78" d="M 3841 3500 
L 2234 1784 
L 3219 0 
L 2559 0 
L 1819 1388 
L 531 0 
L -166 0 
L 1556 1844 
L 641 3500 
L 1300 3500 
L 1972 2234 
L 3144 3500 
L 3841 3500 
z
" transform="scale(0.015625)"/>
      </defs>
      <use xlink:href="#SegoeUI-41" transform="translate(0 0.01875)"/>
      <use xlink:href="#SegoeUI-73" transform="translate(64.501953 0.01875)"/>
      <use xlink:href="#SegoeUI-ed" transform="translate(106.933594 0.01875)"/>
      <use xlink:href="#SegoeUI-6e" transform="translate(129.777344 0.01875)"/>
      <use xlink:href="#SegoeUI-74" transform="translate(186.369141 0.01875)"/>
      <use xlink:href="#SegoeUI-6f" transform="translate(220.255859 0.01875)"/>
      <use xlink:href="#SegoeUI-74" transform="translate(278.849609 0.01875)"/>
      <use xlink:href="#SegoeUI-61" transform="translate(312.736328 0.01875)"/>
      <use xlink:href="#SegoeUI-73" transform="translate(363.615234 0.01875)"/>
      <use xlink:href="#SegoeUI-3a" transform="translate(406.046875 0.01875)"/>
      <use xlink:href="#SegoeUI-20" transform="translate(427.726562 0.01875)"/>
      <use xlink:href="#DejaVuSans-Oblique-79" transform="translate(455.119141 0.01875)"/>
      <use xlink:href="#DejaVuSans-3d" transform="translate(533.78125 0.01875)"/>
      <use xlink:href="#DejaVuSans-b1" transform="translate(656.535156 0.01875)"/>
      <use xlink:href="#DejaVuSans-Oblique-62" transform="translate(759.806641 44.810938) scale(0.7)"/>
      <use xlink:href="#DejaVuSans-Oblique-61" transform="translate(760.806641 -26.634375) scale(0.7)"/>
      <use xlink:href="#DejaVuSans-Oblique-78" transform="translate(816.740234 0.01875)"/>
      <path d="M 759.806641 18.815625 
L 759.806641 25.065625 
L 804.240234 25.065625 
L 804.240234 18.815625 
L 759.806641 18.815625 
z
"/>
     </g>
    </g>
   </g>
  </g>
  <g id="axes_2">
   <g id="patch_7">
    <path d="M 19.961993 523.233235 
L 419.837767 523.233235 
L 419.837767 443.072871 
L 19.961993 443.072871 
z
" clip-path="url(#p2a9e5ddecd)" style="fill: #eff6ff; stroke: #e12885; stroke-width: 1.5; stroke-linejoin: miter"/>
   </g>
   <g id="patch_8">
    <path d="M 19.961993 621.715967 
L 419.837767 621.715967 
L 419.837767 534.684715 
L 19.961993 534.684715 
z
" clip-path="url(#p2a9e5ddecd)" style="fill: #f0fdf4; stroke: #4b5563; stroke-width: 1.5; stroke-linejoin: miter"/>
   </g>
   <g id="text_24">
    <!-- ECUACIONES CANÓNICAS -->
    <g style="fill: #39c5bb" transform="translate(152.400271 431.621391) scale(0.11 -0.11)">
     <defs>
      <path id="SegoeUI-Bold-55" d="M 4166 1941 
Q 4166 -78 2284 -78 
Q 459 -78 459 1894 
L 459 4481 
L 1472 4481 
L 1472 1881 
Q 1472 794 2322 794 
Q 3156 794 3156 1844 
L 3156 4481 
L 4166 4481 
L 4166 1941 
z
" transform="scale(0.015625)"/>
      <path id="SegoeUI-Bold-41" d="M 4453 0 
L 3353 0 
L 3034 997 
L 1441 997 
L 1125 0 
L 31 0 
L 1663 4481 
L 2859 4481 
L 4453 0 
z
M 2803 1772 
L 2322 3278 
Q 2269 3447 2247 3681 
L 2222 3681 
Q 2206 3484 2144 3291 
L 1656 1772 
L 2803 1772 
z
" transform="scale(0.015625)"/>
      <path id="SegoeUI-Bold-49" d="M 1522 0 
L 513 0 
L 513 4481 
L 1522 4481 
L 1522 0 
z
" transform="scale(0.015625)"/>
      <path id="SegoeUI-Bold-4f" d="M 2406 -78 
Q 1444 -78 837 548 
Q 231 1175 231 2181 
Q 231 3244 847 3900 
Q 1463 4556 2478 4556 
Q 3438 4556 4030 3928 
Q 4622 3300 4622 2272 
Q 4622 1216 4008 569 
Q 3394 -78 2406 -78 
z
M 2450 3688 
Q 1919 3688 1606 3289 
Q 1294 2891 1294 2234 
Q 1294 1569 1606 1181 
Q 1919 794 2425 794 
Q 2947 794 3253 1170 
Q 3559 1547 3559 2216 
Q 3559 2913 3262 3300 
Q 2966 3688 2450 3688 
z
" transform="scale(0.015625)"/>
      <path id="SegoeUI-Bold-4e" d="M 4544 0 
L 3525 0 
L 1678 2816 
Q 1516 3063 1453 3188 
L 1441 3188 
Q 1466 2950 1466 2463 
L 1466 0 
L 513 0 
L 513 4481 
L 1600 4481 
L 3378 1753 
Q 3500 1569 3603 1388 
L 3616 1388 
Q 3591 1544 3591 2003 
L 3591 4481 
L 4544 4481 
L 4544 0 
z
" transform="scale(0.015625)"/>
      <path id="SegoeUI-Bold-53" d="M 306 172 
L 306 1172 
Q 578 944 897 830 
Q 1216 716 1541 716 
Q 1731 716 1873 750 
Q 2016 784 2111 845 
Q 2206 906 2253 989 
Q 2300 1072 2300 1169 
Q 2300 1300 2225 1403 
Q 2150 1506 2020 1593 
Q 1891 1681 1712 1762 
Q 1534 1844 1328 1928 
Q 803 2147 545 2462 
Q 288 2778 288 3225 
Q 288 3575 428 3826 
Q 569 4078 811 4240 
Q 1053 4403 1372 4479 
Q 1691 4556 2047 4556 
Q 2397 4556 2667 4514 
Q 2938 4472 3166 4384 
L 3166 3450 
Q 3053 3528 2920 3587 
Q 2788 3647 2647 3686 
Q 2506 3725 2367 3744 
Q 2228 3763 2103 3763 
Q 1931 3763 1790 3730 
Q 1650 3697 1553 3637 
Q 1456 3578 1403 3495 
Q 1350 3413 1350 3309 
Q 1350 3197 1409 3108 
Q 1469 3019 1578 2939 
Q 1688 2859 1844 2782 
Q 2000 2706 2197 2625 
Q 2466 2513 2680 2386 
Q 2894 2259 3047 2100 
Q 3200 1941 3281 1736 
Q 3363 1531 3363 1259 
Q 3363 884 3220 629 
Q 3078 375 2834 217 
Q 2591 59 2267 -9 
Q 1944 -78 1584 -78 
Q 1216 -78 883 -15 
Q 550 47 306 172 
z
" transform="scale(0.015625)"/>
      <path id="SegoeUI-Bold-d3" d="M 2406 -78 
Q 1444 -78 837 548 
Q 231 1175 231 2181 
Q 231 3244 847 3900 
Q 1463 4556 2478 4556 
Q 3438 4556 4030 3928 
Q 4622 3300 4622 2272 
Q 4622 1216 4008 569 
Q 3394 -78 2406 -78 
z
M 2450 3688 
Q 1919 3688 1606 3289 
Q 1294 2891 1294 2234 
Q 1294 1569 1606 1181 
Q 1919 794 2425 794 
Q 2947 794 3253 1170 
Q 3559 1547 3559 2216 
Q 3559 2913 3262 3300 
Q 2966 3688 2450 3688 
z
M 3471 5932 
L 2492 4922 
L 1780 4922 
L 2592 5932 
L 3471 5932 
z
" transform="scale(0.015625)"/>
     </defs>
     <use xlink:href="#SegoeUI-Bold-45"/>
     <use xlink:href="#SegoeUI-Bold-43" x="53.222656"/>
     <use xlink:href="#SegoeUI-Bold-55" x="115.625"/>
     <use xlink:href="#SegoeUI-Bold-41" x="185.689453"/>
     <use xlink:href="#SegoeUI-Bold-43" x="254.501953"/>
     <use xlink:href="#SegoeUI-Bold-49" x="316.904297"/>
     <use xlink:href="#SegoeUI-Bold-4f" x="348.59375"/>
     <use xlink:href="#SegoeUI-Bold-4e" x="424.423828"/>
     <use xlink:href="#SegoeUI-Bold-45" x="503.427734"/>
     <use xlink:href="#SegoeUI-Bold-53" x="556.650391"/>
     <use xlink:href="#SegoeUI-Bold-20" x="612.705078"/>
     <use xlink:href="#SegoeUI-Bold-43" x="640.292969"/>
     <use xlink:href="#SegoeUI-Bold-41" x="702.695312"/>
     <use xlink:href="#SegoeUI-Bold-4e" x="773.007812"/>
     <use xlink:href="#SegoeUI-Bold-d3" x="852.011719"/>
     <use xlink:href="#SegoeUI-Bold-4e" x="927.792969"/>
     <use xlink:href="#SegoeUI-Bold-49" x="1006.796875"/>
     <use xlink:href="#SegoeUI-Bold-43" x="1038.486328"/>
     <use xlink:href="#SegoeUI-Bold-41" x="1100.888672"/>
     <use xlink:href="#SegoeUI-Bold-53" x="1171.201172"/>
    </g>
   </g>
   <g id="text_25">
    <!-- Eje transverso horizontal -->
    <g style="fill: #e12885" transform="translate(161.825661 456.814648) scale(0.1 -0.1)">
     <defs>
      <path id="SegoeUI-Bold-68" d="M 3488 0 
L 2503 0 
L 2503 1819 
Q 2503 2522 1991 2522 
Q 1728 2522 1565 2325 
Q 1403 2128 1403 1825 
L 1403 0 
L 416 0 
L 416 4738 
L 1403 4738 
L 1403 2725 
L 1416 2725 
Q 1778 3278 2400 3278 
Q 3488 3278 3488 1966 
L 3488 0 
z
" transform="scale(0.015625)"/>
     </defs>
     <use xlink:href="#SegoeUI-Bold-45"/>
     <use xlink:href="#SegoeUI-Bold-6a" x="53.222656"/>
     <use xlink:href="#SegoeUI-Bold-65" x="81.640625"/>
     <use xlink:href="#SegoeUI-Bold-20" x="135.742188"/>
     <use xlink:href="#SegoeUI-Bold-74" x="163.330078"/>
     <use xlink:href="#SegoeUI-Bold-72" x="202.246094"/>
     <use xlink:href="#SegoeUI-Bold-61" x="242.041016"/>
     <use xlink:href="#SegoeUI-Bold-6e" x="295.849609"/>
     <use xlink:href="#SegoeUI-Bold-73" x="356.347656"/>
     <use xlink:href="#SegoeUI-Bold-76" x="400.341797"/>
     <use xlink:href="#SegoeUI-Bold-65" x="453.541016"/>
     <use xlink:href="#SegoeUI-Bold-72" x="507.642578"/>
     <use xlink:href="#SegoeUI-Bold-73" x="548.0625"/>
     <use xlink:href="#SegoeUI-Bold-6f" x="592.056641"/>
     <use xlink:href="#SegoeUI-Bold-20" x="653.189453"/>
     <use xlink:href="#SegoeUI-Bold-68" x="680.777344"/>
     <use xlink:href="#SegoeUI-Bold-6f" x="740.982422"/>
     <use xlink:href="#SegoeUI-Bold-72" x="802.115234"/>
     <use xlink:href="#SegoeUI-Bold-69" x="842.285156"/>
     <use xlink:href="#SegoeUI-Bold-7a" x="870.703125"/>
     <use xlink:href="#SegoeUI-Bold-6f" x="918.603516"/>
     <use xlink:href="#SegoeUI-Bold-6e" x="979.736328"/>
     <use xlink:href="#SegoeUI-Bold-74" x="1040.234375"/>
     <use xlink:href="#SegoeUI-Bold-61" x="1079.150391"/>
     <use xlink:href="#SegoeUI-Bold-6c" x="1132.958984"/>
    </g>
   </g>
   <g id="text_26">
    <!-- $\frac{x^2}{a^2} - \frac{y^2}{b^2} = 1$ -->
    <g style="fill: #2c2f33" transform="translate(187.59488 484.298201) scale(0.13 -0.13)">
     <use xlink:href="#DejaVuSans-Oblique-78" transform="translate(1 44.278125) scale(0.7)"/>
     <use xlink:href="#DejaVuSans-32" transform="translate(45.552083 71.075) scale(0.49)"/>
     <use xlink:href="#DejaVuSans-Oblique-61" transform="translate(0 -50.135938) scale(0.7)"/>
     <use xlink:href="#DejaVuSans-32" transform="translate(46.150435 -23.339063) scale(0.49)"/>
     <use xlink:href="#DejaVuSans-2212" transform="translate(111.222212 0.48125)"/>
     <use xlink:href="#DejaVuSans-Oblique-79" transform="translate(217.493697 58.835938) scale(0.7)"/>
     <use xlink:href="#DejaVuSans-32" transform="translate(262.04578 85.632812) scale(0.49)"/>
     <use xlink:href="#DejaVuSans-Oblique-62" transform="translate(214.493697 -50.135937) scale(0.7)"/>
     <use xlink:href="#DejaVuSans-32" transform="translate(264.140686 -23.339062) scale(0.49)"/>
     <use xlink:href="#DejaVuSans-3d" transform="translate(329.212464 0.48125)"/>
     <use xlink:href="#DejaVuSans-31" transform="translate(432.483948 0.48125)"/>
     <path d="M 0 19.278125 
L 0 25.528125 
L 79.23979 25.528125 
L 79.23979 19.278125 
L 0 19.278125 
z
"/>
     <path d="M 214.493697 19.278125 
L 214.493697 25.528125 
L 297.230042 25.528125 
L 297.230042 19.278125 
L 214.493697 19.278125 
z
"/>
    </g>
   </g>
   <g id="text_27">
    <!-- Asíntotas: $y = \pm\frac{b}{a}x$ -->
    <g style="fill: #6b7280" transform="translate(176.09988 511.781754) scale(0.1 -0.1)">
     <use xlink:href="#SegoeUI-41" transform="translate(0 0.01875)"/>
     <use xlink:href="#SegoeUI-73" transform="translate(64.501953 0.01875)"/>
     <use xlink:href="#SegoeUI-ed" transform="translate(106.933594 0.01875)"/>
     <use xlink:href="#SegoeUI-6e" transform="translate(129.777344 0.01875)"/>
     <use xlink:href="#SegoeUI-74" transform="translate(186.369141 0.01875)"/>
     <use xlink:href="#SegoeUI-6f" transform="translate(220.255859 0.01875)"/>
     <use xlink:href="#SegoeUI-74" transform="translate(278.849609 0.01875)"/>
     <use xlink:href="#SegoeUI-61" transform="translate(312.736328 0.01875)"/>
     <use xlink:href="#SegoeUI-73" transform="translate(363.615234 0.01875)"/>
     <use xlink:href="#SegoeUI-3a" transform="translate(406.046875 0.01875)"/>
     <use xlink:href="#SegoeUI-20" transform="translate(427.726562 0.01875)"/>
     <use xlink:href="#DejaVuSans-Oblique-79" transform="translate(455.119141 0.01875)"/>
     <use xlink:href="#DejaVuSans-3d" transform="translate(533.78125 0.01875)"/>
     <use xlink:href="#DejaVuSans-b1" transform="translate(656.535156 0.01875)"/>
     <use xlink:href="#DejaVuSans-Oblique-62" transform="translate(759.806641 44.810938) scale(0.7)"/>
     <use xlink:href="#DejaVuSans-Oblique-61" transform="translate(760.806641 -26.634375) scale(0.7)"/>
     <use xlink:href="#DejaVuSans-Oblique-78" transform="translate(816.740234 0.01875)"/>
     <path d="M 759.806641 18.815625 
L 759.806641 25.065625 
L 804.240234 25.065625 
L 804.240234 18.815625 
L 759.806641 18.815625 
z
"/>
    </g>
   </g>
   <g id="text_28">
    <!-- Eje transverso vertical -->
    <g style="fill: #4b5563" transform="translate(168.479568 548.426492) scale(0.1 -0.1)">
     <use xlink:href="#SegoeUI-Bold-45"/>
     <use xlink:href="#SegoeUI-Bold-6a" x="53.222656"/>
     <use xlink:href="#SegoeUI-Bold-65" x="81.640625"/>
     <use xlink:href="#SegoeUI-Bold-20" x="135.742188"/>
     <use xlink:href="#SegoeUI-Bold-74" x="163.330078"/>
     <use xlink:href="#SegoeUI-Bold-72" x="202.246094"/>
     <use xlink:href="#SegoeUI-Bold-61" x="242.041016"/>
     <use xlink:href="#SegoeUI-Bold-6e" x="295.849609"/>
     <use xlink:href="#SegoeUI-Bold-73" x="356.347656"/>
     <use xlink:href="#SegoeUI-Bold-76" x="400.341797"/>
     <use xlink:href="#SegoeUI-Bold-65" x="453.541016"/>
     <use xlink:href="#SegoeUI-Bold-72" x="507.642578"/>
     <use xlink:href="#SegoeUI-Bold-73" x="548.0625"/>
     <use xlink:href="#SegoeUI-Bold-6f" x="592.056641"/>
     <use xlink:href="#SegoeUI-Bold-20" x="653.189453"/>
     <use xlink:href="#SegoeUI-Bold-76" x="680.777344"/>
     <use xlink:href="#SegoeUI-Bold-65" x="733.976562"/>
     <use xlink:href="#SegoeUI-Bold-72" x="788.078125"/>
     <use xlink:href="#SegoeUI-Bold-74" x="830.748047"/>
     <use xlink:href="#SegoeUI-Bold-69" x="869.664062"/>
     <use xlink:href="#SegoeUI-Bold-63" x="898.082031"/>
     <use xlink:href="#SegoeUI-Bold-61" x="946.080078"/>
     <use xlink:href="#SegoeUI-Bold-6c" x="999.888672"/>
    </g>
   </g>
   <g id="text_29">
    <!-- $\frac{y^2}{a^2} - \frac{x^2}{b^2} = 1$ -->
    <g style="fill: #2c2f33" transform="translate(187.59488 575.910045) scale(0.13 -0.13)">
     <use xlink:href="#DejaVuSans-Oblique-79" transform="translate(1 58.835938) scale(0.7)"/>
     <use xlink:href="#DejaVuSans-32" transform="translate(45.552083 85.632812) scale(0.49)"/>
     <use xlink:href="#DejaVuSans-Oblique-61" transform="translate(0 -50.135937) scale(0.7)"/>
     <use xlink:href="#DejaVuSans-32" transform="translate(46.150435 -23.339062) scale(0.49)"/>
     <use xlink:href="#DejaVuSans-2212" transform="translate(111.222212 0.48125)"/>
     <use xlink:href="#DejaVuSans-Oblique-78" transform="translate(217.493697 44.278125) scale(0.7)"/>
     <use xlink:href="#DejaVuSans-32" transform="translate(262.04578 71.075) scale(0.49)"/>
     <use xlink:href="#DejaVuSans-Oblique-62" transform="translate(214.493697 -50.135938) scale(0.7)"/>
     <use xlink:href="#DejaVuSans-32" transform="translate(264.140686 -23.339063) scale(0.49)"/>
     <use xlink:href="#DejaVuSans-3d" transform="translate(329.212464 0.48125)"/>
     <use xlink:href="#DejaVuSans-31" transform="translate(432.483948 0.48125)"/>
     <path d="M 0 19.278125 
L 0 25.528125 
L 79.23979 25.528125 
L 79.23979 19.278125 
L 0 19.278125 
z
"/>
     <path d="M 214.493697 19.278125 
L 214.493697 25.528125 
L 297.230042 25.528125 
L 297.230042 19.278125 
L 214.493697 19.278125 
z
"/>
    </g>
   </g>
   <g id="text_30">
    <!-- Asíntotas: $y = \pm\frac{a}{b}x$ -->
    <g style="fill: #6b7280" transform="translate(176.09988 603.393598) scale(0.1 -0.1)">
     <use xlink:href="#SegoeUI-41" transform="translate(0 0.007812)"/>
     <use xlink:href="#SegoeUI-73" transform="translate(64.501953 0.007812)"/>
     <use xlink:href="#SegoeUI-ed" transform="translate(106.933594 0.007812)"/>
     <use xlink:href="#SegoeUI-6e" transform="translate(129.777344 0.007812)"/>
     <use xlink:href="#SegoeUI-74" transform="translate(186.369141 0.007812)"/>
     <use xlink:href="#SegoeUI-6f" transform="translate(220.255859 0.007812)"/>
     <use xlink:href="#SegoeUI-74" transform="translate(278.849609 0.007812)"/>
     <use xlink:href="#SegoeUI-61" transform="translate(312.736328 0.007812)"/>
     <use xlink:href="#SegoeUI-73" transform="translate(363.615234 0.007812)"/>
     <use xlink:href="#SegoeUI-3a" transform="translate(406.046875 0.007812)"/>
     <use xlink:href="#SegoeUI-20" transform="translate(427.726562 0.007812)"/>
     <use xlink:href="#DejaVuSans-Oblique-79" transform="translate(455.119141 0.007812)"/>
     <use xlink:href="#DejaVuSans-3d" transform="translate(533.78125 0.007812)"/>
     <use xlink:href="#DejaVuSans-b1" transform="translate(656.535156 0.007812)"/>
     <use xlink:href="#DejaVuSans-Oblique-61" transform="translate(760.806641 44.8) scale(0.7)"/>
     <use xlink:href="#DejaVuSans-Oblique-62" transform="translate(759.806641 -40.634375) scale(0.7)"/>
     <use xlink:href="#DejaVuSans-Oblique-78" transform="translate(816.740234 0.007812)"/>
     <path d="M 759.806641 18.804688 
L 759.806641 25.054688 
L 804.240234 25.054688 
L 804.240234 18.804688 
L 759.806641 18.804688 
z
"/>
    </g>
   </g>
  </g>
  <g id="axes_3">
   <g id="patch_9">
    <path d="M 596.561753 500.330274 
L 996.437527 500.330274 
L 996.437527 443.072871 
L 596.561753 443.072871 
z
" clip-path="url(#pdc4ddbe0ed)" style="fill: #fef3c7; stroke: #f59e0b; stroke-width: 2; stroke-linejoin: miter"/>
   </g>
   <g id="patch_10">
    <path d="M 596.561753 580.490637 
L 996.437527 580.490637 
L 996.437527 511.781754 
L 596.561753 511.781754 
z
" clip-path="url(#pdc4ddbe0ed)" style="fill: #fce7f3; stroke: #ec4899; stroke-width: 1.5; stroke-linejoin: miter"/>
   </g>
   <g id="text_31">
    <!-- RELACIONES Y PROPIEDADES -->
    <g style="fill: #f59e0b" transform="translate(720.149328 431.621391) scale(0.11 -0.11)">
     <defs>
      <path id="SegoeUI-Bold-52" d="M 4272 0 
L 3113 0 
L 2416 1153 
Q 2338 1284 2266 1387 
Q 2194 1491 2120 1564 
Q 2047 1638 1967 1677 
Q 1888 1716 1794 1716 
L 1522 1716 
L 1522 0 
L 513 0 
L 513 4481 
L 2113 4481 
Q 3744 4481 3744 3263 
Q 3744 3028 3672 2829 
Q 3600 2631 3469 2472 
Q 3338 2313 3152 2197 
Q 2966 2081 2738 2016 
L 2738 2003 
Q 2838 1972 2931 1901 
Q 3025 1831 3112 1737 
Q 3200 1644 3279 1536 
Q 3359 1428 3425 1325 
L 4272 0 
z
M 1522 3725 
L 1522 2478 
L 1959 2478 
Q 2284 2478 2481 2666 
Q 2681 2856 2681 3138 
Q 2681 3725 1978 3725 
L 1522 3725 
z
" transform="scale(0.015625)"/>
      <path id="SegoeUI-Bold-4c" d="M 3181 0 
L 513 0 
L 513 4481 
L 1522 4481 
L 1522 819 
L 3181 819 
L 3181 0 
z
" transform="scale(0.015625)"/>
      <path id="SegoeUI-Bold-59" d="M 3891 4481 
L 2431 1594 
L 2431 0 
L 1422 0 
L 1422 1575 
L 0 4481 
L 1153 4481 
L 1875 2809 
Q 1894 2763 1978 2444 
L 1991 2444 
Q 2031 2669 2088 2797 
L 2822 4481 
L 3891 4481 
z
" transform="scale(0.015625)"/>
      <path id="SegoeUI-Bold-44" d="M 513 0 
L 513 4481 
L 2100 4481 
Q 4488 4481 4488 2297 
Q 4488 1250 3836 625 
Q 3184 0 2100 0 
L 513 0 
z
M 1522 3659 
L 1522 819 
L 2022 819 
Q 2678 819 3051 1212 
Q 3425 1606 3425 2284 
Q 3425 2925 3054 3292 
Q 2684 3659 2016 3659 
L 1522 3659 
z
" transform="scale(0.015625)"/>
     </defs>
     <use xlink:href="#SegoeUI-Bold-52"/>
     <use xlink:href="#SegoeUI-Bold-45" x="65.283203"/>
     <use xlink:href="#SegoeUI-Bold-4c" x="118.505859"/>
     <use xlink:href="#SegoeUI-Bold-41" x="171.878906"/>
     <use xlink:href="#SegoeUI-Bold-43" x="240.691406"/>
     <use xlink:href="#SegoeUI-Bold-49" x="303.09375"/>
     <use xlink:href="#SegoeUI-Bold-4f" x="334.783203"/>
     <use xlink:href="#SegoeUI-Bold-4e" x="410.613281"/>
     <use xlink:href="#SegoeUI-Bold-45" x="489.617188"/>
     <use xlink:href="#SegoeUI-Bold-53" x="542.839844"/>
     <use xlink:href="#SegoeUI-Bold-20" x="598.894531"/>
     <use xlink:href="#SegoeUI-Bold-59" x="626.482422"/>
     <use xlink:href="#SegoeUI-Bold-20" x="687.175781"/>
     <use xlink:href="#SegoeUI-Bold-50" x="714.763672"/>
     <use xlink:href="#SegoeUI-Bold-52" x="776.189453"/>
     <use xlink:href="#SegoeUI-Bold-4f" x="840.472656"/>
     <use xlink:href="#SegoeUI-Bold-50" x="916.302734"/>
     <use xlink:href="#SegoeUI-Bold-49" x="977.728516"/>
     <use xlink:href="#SegoeUI-Bold-45" x="1009.417969"/>
     <use xlink:href="#SegoeUI-Bold-44" x="1062.640625"/>
     <use xlink:href="#SegoeUI-Bold-41" x="1134.871094"/>
     <use xlink:href="#SegoeUI-Bold-44" x="1205.183594"/>
     <use xlink:href="#SegoeUI-Bold-45" x="1278.914062"/>
     <use xlink:href="#SegoeUI-Bold-53" x="1332.136719"/>
    </g>
   </g>
   <g id="text_32">
    <!-- Relación Fundamental -->
    <g style="fill: #f59e0b" transform="translate(744.458234 456.814648) scale(0.1 -0.1)">
     <defs>
      <path id="SegoeUI-Bold-f3" d="M 1941 -78 
Q 1141 -78 683 370 
Q 225 819 225 1588 
Q 225 2381 700 2829 
Q 1175 3278 1984 3278 
Q 2781 3278 3234 2829 
Q 3688 2381 3688 1644 
Q 3688 847 3220 384 
Q 2753 -78 1941 -78 
z
M 1966 2522 
Q 1616 2522 1422 2281 
Q 1228 2041 1228 1600 
Q 1228 678 1972 678 
Q 2681 678 2681 1625 
Q 2681 2522 1966 2522 
z
M 3023 4716 
L 2044 3706 
L 1332 3706 
L 2144 4716 
L 3023 4716 
z
" transform="scale(0.015625)"/>
      <path id="SegoeUI-Bold-46" d="M 3103 3659 
L 1522 3659 
L 1522 2559 
L 2975 2559 
L 2975 1741 
L 1522 1741 
L 1522 0 
L 513 0 
L 513 4481 
L 3103 4481 
L 3103 3659 
z
" transform="scale(0.015625)"/>
      <path id="SegoeUI-Bold-75" d="M 3456 0 
L 2472 0 
L 2472 488 
L 2456 488 
Q 2091 -78 1478 -78 
Q 366 -78 366 1269 
L 366 3200 
L 1350 3200 
L 1350 1356 
Q 1350 678 1888 678 
Q 2153 678 2312 864 
Q 2472 1050 2472 1369 
L 2472 3200 
L 3456 3200 
L 3456 0 
z
" transform="scale(0.015625)"/>
      <path id="SegoeUI-Bold-64" d="M 3547 0 
L 2559 0 
L 2559 441 
L 2547 441 
Q 2209 -78 1556 -78 
Q 956 -78 590 345 
Q 225 769 225 1528 
Q 225 2322 628 2800 
Q 1031 3278 1684 3278 
Q 2303 3278 2547 2834 
L 2559 2834 
L 2559 4738 
L 3547 4738 
L 3547 0 
z
M 2578 1556 
L 2578 1797 
Q 2578 2109 2397 2315 
Q 2216 2522 1925 2522 
Q 1597 2522 1412 2264 
Q 1228 2006 1228 1556 
Q 1228 1134 1406 906 
Q 1584 678 1900 678 
Q 2200 678 2389 918 
Q 2578 1159 2578 1556 
z
" transform="scale(0.015625)"/>
      <path id="SegoeUI-Bold-6d" d="M 5497 0 
L 4513 0 
L 4513 1825 
Q 4513 2522 4000 2522 
Q 3756 2522 3603 2312 
Q 3450 2103 3450 1791 
L 3450 0 
L 2463 0 
L 2463 1844 
Q 2463 2522 1959 2522 
Q 1706 2522 1554 2322 
Q 1403 2122 1403 1778 
L 1403 0 
L 416 0 
L 416 3200 
L 1403 3200 
L 1403 2700 
L 1416 2700 
Q 1569 2956 1845 3117 
Q 2122 3278 2450 3278 
Q 3128 3278 3378 2681 
Q 3744 3278 4453 3278 
Q 5497 3278 5497 1991 
L 5497 0 
z
" transform="scale(0.015625)"/>
     </defs>
     <use xlink:href="#SegoeUI-Bold-52"/>
     <use xlink:href="#SegoeUI-Bold-65" x="62.783203"/>
     <use xlink:href="#SegoeUI-Bold-6c" x="116.884766"/>
     <use xlink:href="#SegoeUI-Bold-61" x="145.302734"/>
     <use xlink:href="#SegoeUI-Bold-63" x="199.111328"/>
     <use xlink:href="#SegoeUI-Bold-69" x="247.109375"/>
     <use xlink:href="#SegoeUI-Bold-f3" x="275.527344"/>
     <use xlink:href="#SegoeUI-Bold-6e" x="336.611328"/>
     <use xlink:href="#SegoeUI-Bold-20" x="397.109375"/>
     <use xlink:href="#SegoeUI-Bold-46" x="424.697266"/>
     <use xlink:href="#SegoeUI-Bold-75" x="476.699219"/>
     <use xlink:href="#SegoeUI-Bold-6e" x="537.197266"/>
     <use xlink:href="#SegoeUI-Bold-64" x="597.695312"/>
     <use xlink:href="#SegoeUI-Bold-61" x="659.609375"/>
     <use xlink:href="#SegoeUI-Bold-6d" x="713.417969"/>
     <use xlink:href="#SegoeUI-Bold-65" x="805.019531"/>
     <use xlink:href="#SegoeUI-Bold-6e" x="859.121094"/>
     <use xlink:href="#SegoeUI-Bold-74" x="919.619141"/>
     <use xlink:href="#SegoeUI-Bold-61" x="958.535156"/>
     <use xlink:href="#SegoeUI-Bold-6c" x="1012.34375"/>
    </g>
   </g>
   <g id="text_33">
    <!-- $c^2 = a^2 + b^2$ -->
    <g style="fill: #2c2f33" transform="translate(758.53964 484.298201) scale(0.13 -0.13)">
     <defs>
      <path id="DejaVuSans-Oblique-63" d="M 3431 3366 
L 3316 2797 
Q 3109 2947 2876 3022 
Q 2644 3097 2394 3097 
Q 2119 3097 1870 3000 
Q 1622 2903 1453 2725 
Q 1184 2453 1037 2087 
Q 891 1722 891 1331 
Q 891 859 1127 628 
Q 1363 397 1844 397 
Q 2081 397 2348 469 
Q 2616 541 2906 684 
L 2797 116 
Q 2547 13 2283 -39 
Q 2019 -91 1741 -91 
Q 1044 -91 669 257 
Q 294 606 294 1253 
Q 294 1797 489 2255 
Q 684 2713 1069 3078 
Q 1331 3328 1684 3456 
Q 2038 3584 2456 3584 
Q 2700 3584 2940 3529 
Q 3181 3475 3431 3366 
z
" transform="scale(0.015625)"/>
      <path id="DejaVuSans-2b" d="M 2944 4013 
L 2944 2272 
L 4684 2272 
L 4684 1741 
L 2944 1741 
L 2944 0 
L 2419 0 
L 2419 1741 
L 678 1741 
L 678 2272 
L 2419 2272 
L 2419 4013 
L 2944 4013 
z
" transform="scale(0.015625)"/>
     </defs>
     <use xlink:href="#DejaVuSans-Oblique-63" transform="translate(0 0.765625)"/>
     <use xlink:href="#DejaVuSans-32" transform="translate(59.630365 39.046875) scale(0.7)"/>
     <use xlink:href="#DejaVuSans-3d" transform="translate(126.383294 0.765625)"/>
     <use xlink:href="#DejaVuSans-Oblique-61" transform="translate(229.654779 0.765625)"/>
     <use xlink:href="#DejaVuSans-32" transform="translate(295.583971 39.046875) scale(0.7)"/>
     <use xlink:href="#DejaVuSans-2b" transform="translate(362.336901 0.765625)"/>
     <use xlink:href="#DejaVuSans-Oblique-62" transform="translate(465.608385 0.765625)"/>
     <use xlink:href="#DejaVuSans-32" transform="translate(536.532656 39.046875) scale(0.7)"/>
    </g>
   </g>
   <g id="text_34">
    <!-- Excentricidad -->
    <g style="fill: #ec4899" transform="translate(764.955109 525.523531) scale(0.1 -0.1)">
     <defs>
      <path id="SegoeUI-Bold-78" d="M 3506 3200 
L 2450 1650 
L 3500 0 
L 2363 0 
L 1900 863 
Q 1844 966 1766 1153 
L 1753 1153 
Q 1706 1022 1625 872 
L 1159 0 
L 25 0 
L 1106 1594 
L 91 3200 
L 1234 3200 
L 1691 2303 
Q 1781 2125 1819 2003 
L 1831 2003 
Q 1881 2150 1966 2309 
L 2431 3200 
L 3506 3200 
z
" transform="scale(0.015625)"/>
     </defs>
     <use xlink:href="#SegoeUI-Bold-45"/>
     <use xlink:href="#SegoeUI-Bold-78" x="53.222656"/>
     <use xlink:href="#SegoeUI-Bold-63" x="106.697266"/>
     <use xlink:href="#SegoeUI-Bold-65" x="154.695312"/>
     <use xlink:href="#SegoeUI-Bold-6e" x="208.796875"/>
     <use xlink:href="#SegoeUI-Bold-74" x="269.294922"/>
     <use xlink:href="#SegoeUI-Bold-72" x="308.210938"/>
     <use xlink:href="#SegoeUI-Bold-69" x="348.380859"/>
     <use xlink:href="#SegoeUI-Bold-63" x="376.798828"/>
     <use xlink:href="#SegoeUI-Bold-69" x="424.796875"/>
     <use xlink:href="#SegoeUI-Bold-64" x="453.214844"/>
     <use xlink:href="#SegoeUI-Bold-61" x="515.128906"/>
     <use xlink:href="#SegoeUI-Bold-64" x="568.9375"/>
    </g>
   </g>
   <g id="text_35">
    <!-- $e = \frac{c}{a} = \sqrt{1 + \frac{b^2}{a^2}}$ -->
    <g style="fill: #2c2f33" transform="translate(749.75964 548.426492) scale(0.12 -0.12)">
     <defs>
      <path id="DejaVuSans-Oblique-65" d="M 3078 2063 
Q 3088 2113 3092 2166 
Q 3097 2219 3097 2272 
Q 3097 2653 2873 2875 
Q 2650 3097 2266 3097 
Q 1838 3097 1509 2826 
Q 1181 2556 1013 2059 
L 3078 2063 
z
M 3578 1613 
L 903 1613 
Q 884 1494 878 1425 
Q 872 1356 872 1306 
Q 872 872 1139 634 
Q 1406 397 1894 397 
Q 2269 397 2603 481 
Q 2938 566 3225 728 
L 3116 159 
Q 2806 34 2476 -28 
Q 2147 -91 1806 -91 
Q 1078 -91 686 257 
Q 294 606 294 1247 
Q 294 1794 489 2264 
Q 684 2734 1063 3103 
Q 1306 3334 1642 3459 
Q 1978 3584 2356 3584 
Q 2950 3584 3301 3228 
Q 3653 2872 3653 2272 
Q 3653 2128 3634 1964 
Q 3616 1800 3578 1613 
z
" transform="scale(0.015625)"/>
      <path id="STIXSizeOneSym-Regular-221a" d="M 6970 9933 
L 3373 -1888 
L 3104 -1888 
L 1626 2918 
Q 1555 3149 1465 3251 
Q 1376 3354 1229 3354 
Q 1011 3354 794 3181 
L 717 3309 
L 1766 4115 
L 1926 4115 
L 3379 -602 
L 3405 -602 
L 6605 9933 
L 6970 9933 
z
" transform="scale(0.015625)"/>
     </defs>
     <use xlink:href="#DejaVuSans-Oblique-65" transform="translate(0 0.3625)"/>
     <use xlink:href="#DejaVuSans-3d" transform="translate(81.005859 0.3625)"/>
     <use xlink:href="#DejaVuSans-Oblique-63" transform="translate(186.277344 45.154687) scale(0.7)"/>
     <use xlink:href="#DejaVuSans-Oblique-61" transform="translate(184.277344 -26.290625) scale(0.7)"/>
     <use xlink:href="#DejaVuSans-3d" transform="translate(259.155273 0.3625)"/>
     <use xlink:href="#STIXSizeOneSym-Regular-221a" transform="translate(362.426758 -20.859375) scale(1.033111)"/>
     <use xlink:href="#DejaVuSans-31" transform="translate(484.061996 0.79375)"/>
     <use xlink:href="#DejaVuSans-2b" transform="translate(567.167465 0.79375)"/>
     <use xlink:href="#DejaVuSans-Oblique-62" transform="translate(670.43895 45.585938) scale(0.7)"/>
     <use xlink:href="#DejaVuSans-32" transform="translate(720.085939 72.382812) scale(0.49)"/>
     <use xlink:href="#DejaVuSans-Oblique-61" transform="translate(672.43895 -49.823437) scale(0.7)"/>
     <use xlink:href="#DejaVuSans-32" transform="translate(718.589384 -23.026562) scale(0.49)"/>
     <path d="M 184.277344 19.159375 
L 184.277344 25.409375 
L 227.172852 25.409375 
L 227.172852 19.159375 
L 184.277344 19.159375 
z
"/>
     <path d="M 471.561996 132.5 
L 471.561996 138.75 
L 778.175295 138.75 
L 778.175295 132.5 
L 471.561996 132.5 
z
"/>
     <path d="M 670.43895 19.590625 
L 670.43895 25.840625 
L 753.175295 25.840625 
L 753.175295 19.590625 
L 670.43895 19.590625 
z
"/>
    </g>
   </g>
   <g id="text_36">
    <!-- $e &gt; 1$ (hipérbola) -->
    <g style="fill: #6b7280" transform="translate(758.74964 571.329453) scale(0.1 -0.1)">
     <defs>
      <path id="DejaVuSans-3e" d="M 678 3150 
L 678 3719 
L 4684 2266 
L 4684 1747 
L 678 294 
L 678 863 
L 3897 2003 
L 678 3150 
z
" transform="scale(0.015625)"/>
     </defs>
     <use xlink:href="#DejaVuSans-Oblique-65" transform="translate(0 0.515625)"/>
     <use xlink:href="#DejaVuSans-3e" transform="translate(81.005859 0.515625)"/>
     <use xlink:href="#DejaVuSans-31" transform="translate(184.277344 0.515625)"/>
     <use xlink:href="#SegoeUI-20" transform="translate(247.900391 0.515625)"/>
     <use xlink:href="#SegoeUI-28" transform="translate(275.292969 0.515625)"/>
     <use xlink:href="#SegoeUI-68" transform="translate(305.46875 0.515625)"/>
     <use xlink:href="#SegoeUI-69" transform="translate(362.060547 0.515625)"/>
     <use xlink:href="#SegoeUI-70" transform="translate(386.279297 0.515625)"/>
     <use xlink:href="#SegoeUI-e9" transform="translate(445.068359 0.515625)"/>
     <use xlink:href="#SegoeUI-72" transform="translate(497.363281 0.515625)"/>
     <use xlink:href="#SegoeUI-62" transform="translate(532.128906 0.515625)"/>
     <use xlink:href="#SegoeUI-6f" transform="translate(590.917969 0.515625)"/>
     <use xlink:href="#SegoeUI-6c" transform="translate(649.511719 0.515625)"/>
     <use xlink:href="#SegoeUI-61" transform="translate(673.730469 0.515625)"/>
     <use xlink:href="#SegoeUI-29" transform="translate(724.609375 0.515625)"/>
    </g>
   </g>
   <g id="text_37">
    <!-- Hipérbola equilátera (a = b): -->
    <g style="fill: #374151" transform="translate(736.305812 603.393598) scale(0.09 -0.09)">
     <defs>
      <path id="SegoeUI-Bold-71" d="M 3547 -1472 
L 2559 -1472 
L 2559 441 
L 2547 441 
Q 2213 -78 1563 -78 
Q 959 -78 592 342 
Q 225 763 225 1522 
Q 225 2322 628 2800 
Q 1031 3278 1678 3278 
Q 2266 3278 2547 2828 
L 2559 2828 
L 2559 3200 
L 3547 3200 
L 3547 -1472 
z
M 2578 1528 
L 2578 1784 
Q 2578 2097 2397 2309 
Q 2216 2522 1931 2522 
Q 1603 2522 1415 2264 
Q 1228 2006 1228 1550 
Q 1228 1141 1411 909 
Q 1594 678 1888 678 
Q 2200 678 2389 912 
Q 2578 1147 2578 1528 
z
" transform="scale(0.015625)"/>
      <path id="SegoeUI-Bold-e1" d="M 3078 0 
L 2144 0 
L 2144 459 
L 2131 459 
Q 1809 -78 1178 -78 
Q 713 -78 445 186 
Q 178 450 178 891 
Q 178 1822 1281 1966 
L 2150 2081 
Q 2150 2606 1581 2606 
Q 1009 2606 494 2266 
L 494 3009 
Q 700 3116 1058 3197 
Q 1416 3278 1709 3278 
Q 3078 3278 3078 1913 
L 3078 0 
z
M 2150 1300 
L 2150 1516 
L 1569 1441 
Q 1088 1378 1088 1006 
Q 1088 838 1205 730 
Q 1322 622 1522 622 
Q 1800 622 1975 814 
Q 2150 1006 2150 1300 
z
M 2783 4716 
L 1804 3706 
L 1092 3706 
L 1904 4716 
L 2783 4716 
z
" transform="scale(0.015625)"/>
      <path id="SegoeUI-Bold-28" d="M 2309 -1019 
L 1503 -1019 
Q 494 94 494 1716 
Q 494 3281 1503 4481 
L 2303 4481 
Q 1356 3225 1356 1716 
Q 1356 206 2309 -1019 
z
" transform="scale(0.015625)"/>
      <path id="SegoeUI-Bold-3d" d="M 3788 2188 
L 744 2188 
L 744 2828 
L 3788 2828 
L 3788 2188 
z
M 3788 831 
L 744 831 
L 744 1466 
L 3788 1466 
L 3788 831 
z
" transform="scale(0.015625)"/>
      <path id="SegoeUI-Bold-29" d="M 856 -1019 
L 56 -1019 
Q 1013 200 1013 1716 
Q 1013 3219 56 4481 
L 863 4481 
Q 1875 3278 1875 1716 
Q 1875 106 856 -1019 
z
" transform="scale(0.015625)"/>
      <path id="SegoeUI-Bold-3a" d="M 856 2209 
Q 613 2209 450 2357 
Q 288 2506 288 2725 
Q 288 2950 455 3094 
Q 622 3238 872 3238 
Q 1125 3238 1286 3092 
Q 1447 2947 1447 2725 
Q 1447 2497 1283 2353 
Q 1119 2209 856 2209 
z
M 856 -78 
Q 613 -78 450 72 
Q 288 222 288 441 
Q 288 666 455 809 
Q 622 953 872 953 
Q 1125 953 1286 808 
Q 1447 663 1447 441 
Q 1447 213 1283 67 
Q 1119 -78 856 -78 
z
" transform="scale(0.015625)"/>
     </defs>
     <use xlink:href="#SegoeUI-Bold-48"/>
     <use xlink:href="#SegoeUI-Bold-69" x="76.611328"/>
     <use xlink:href="#SegoeUI-Bold-70" x="105.029297"/>
     <use xlink:href="#SegoeUI-Bold-e9" x="167.041016"/>
     <use xlink:href="#SegoeUI-Bold-72" x="221.142578"/>
     <use xlink:href="#SegoeUI-Bold-62" x="260.9375"/>
     <use xlink:href="#SegoeUI-Bold-6f" x="322.949219"/>
     <use xlink:href="#SegoeUI-Bold-6c" x="384.082031"/>
     <use xlink:href="#SegoeUI-Bold-61" x="412.5"/>
     <use xlink:href="#SegoeUI-Bold-20" x="466.308594"/>
     <use xlink:href="#SegoeUI-Bold-65" x="493.896484"/>
     <use xlink:href="#SegoeUI-Bold-71" x="547.998047"/>
     <use xlink:href="#SegoeUI-Bold-75" x="609.912109"/>
     <use xlink:href="#SegoeUI-Bold-69" x="670.410156"/>
     <use xlink:href="#SegoeUI-Bold-6c" x="698.828125"/>
     <use xlink:href="#SegoeUI-Bold-e1" x="727.246094"/>
     <use xlink:href="#SegoeUI-Bold-74" x="781.054688"/>
     <use xlink:href="#SegoeUI-Bold-65" x="819.595703"/>
     <use xlink:href="#SegoeUI-Bold-72" x="873.697266"/>
     <use xlink:href="#SegoeUI-Bold-61" x="913.492188"/>
     <use xlink:href="#SegoeUI-Bold-20" x="967.300781"/>
     <use xlink:href="#SegoeUI-Bold-28" x="994.888672"/>
     <use xlink:href="#SegoeUI-Bold-61" x="1031.802734"/>
     <use xlink:href="#SegoeUI-Bold-20" x="1085.611328"/>
     <use xlink:href="#SegoeUI-Bold-3d" x="1113.199219"/>
     <use xlink:href="#SegoeUI-Bold-20" x="1183.902344"/>
     <use xlink:href="#SegoeUI-Bold-62" x="1211.490234"/>
     <use xlink:href="#SegoeUI-Bold-29" x="1273.501953"/>
     <use xlink:href="#SegoeUI-Bold-3a" x="1310.416016"/>
    </g>
   </g>
   <g id="text_38">
    <!-- $x^2 - y^2 = a^2$ -->
    <g style="fill: #6b7280" transform="translate(767.44964 621.715967) scale(0.1 -0.1)">
     <use xlink:href="#DejaVuSans-Oblique-78" transform="translate(0 0.765625)"/>
     <use xlink:href="#DejaVuSans-32" transform="translate(63.645833 39.046875) scale(0.7)"/>
     <use xlink:href="#DejaVuSans-2212" transform="translate(130.398763 0.765625)"/>
     <use xlink:href="#DejaVuSans-Oblique-79" transform="translate(233.670247 0.765625)"/>
     <use xlink:href="#DejaVuSans-32" transform="translate(297.316081 39.046875) scale(0.7)"/>
     <use xlink:href="#DejaVuSans-3d" transform="translate(364.06901 0.765625)"/>
     <use xlink:href="#DejaVuSans-Oblique-61" transform="translate(467.340495 0.765625)"/>
     <use xlink:href="#DejaVuSans-32" transform="translate(533.269688 39.046875) scale(0.7)"/>
    </g>
   </g>
   <g id="text_39">
    <!-- Asíntotas: $y = \pm x$  •  $e = \sqrt{2}$ -->
    <g style="fill: #6b7280" transform="translate(737.05464 637.74804) scale(0.09 -0.09)">
     <defs>
      <path id="DejaVuSansDisplay-2022" d="M 959 2381 
Q 959 2769 1229 3036 
Q 1500 3303 1894 3303 
Q 2281 3303 2548 3036 
Q 2816 2769 2816 2381 
Q 2816 1991 2547 1722 
Q 2278 1453 1888 1453 
Q 1497 1453 1228 1722 
Q 959 1991 959 2381 
z
" transform="scale(0.015625)"/>
     </defs>
     <use xlink:href="#SegoeUI-41" transform="translate(0 0.71875)"/>
     <use xlink:href="#SegoeUI-73" transform="translate(64.501953 0.71875)"/>
     <use xlink:href="#SegoeUI-ed" transform="translate(106.933594 0.71875)"/>
     <use xlink:href="#SegoeUI-6e" transform="translate(129.777344 0.71875)"/>
     <use xlink:href="#SegoeUI-74" transform="translate(186.369141 0.71875)"/>
     <use xlink:href="#SegoeUI-6f" transform="translate(220.255859 0.71875)"/>
     <use xlink:href="#SegoeUI-74" transform="translate(278.849609 0.71875)"/>
     <use xlink:href="#SegoeUI-61" transform="translate(312.736328 0.71875)"/>
     <use xlink:href="#SegoeUI-73" transform="translate(363.615234 0.71875)"/>
     <use xlink:href="#SegoeUI-3a" transform="translate(406.046875 0.71875)"/>
     <use xlink:href="#SegoeUI-20" transform="translate(427.726562 0.71875)"/>
     <use xlink:href="#DejaVuSans-Oblique-79" transform="translate(455.119141 0.71875)"/>
     <use xlink:href="#DejaVuSans-3d" transform="translate(533.78125 0.71875)"/>
     <use xlink:href="#DejaVuSans-b1" transform="translate(656.535156 0.71875)"/>
     <use xlink:href="#DejaVuSans-Oblique-78" transform="translate(759.806641 0.71875)"/>
     <use xlink:href="#SegoeUI-20" transform="translate(818.986328 0.71875)"/>
     <use xlink:href="#SegoeUI-20" transform="translate(846.378906 0.71875)"/>
     <use xlink:href="#DejaVuSansDisplay-2022" transform="translate(873.771484 0.71875)"/>
     <use xlink:href="#SegoeUI-20" transform="translate(932.755859 0.71875)"/>
     <use xlink:href="#SegoeUI-20" transform="translate(960.148438 0.71875)"/>
     <use xlink:href="#DejaVuSans-Oblique-65" transform="translate(987.541016 0.71875)"/>
     <use xlink:href="#DejaVuSans-3d" transform="translate(1068.546875 0.71875)"/>
     <use xlink:href="#STIXSizeOneSym-Regular-221a" transform="translate(1171.818359 17.53125) scale(0.571018)"/>
     <use xlink:href="#DejaVuSans-32" transform="translate(1244.699478 0.53125)"/>
     <path d="M 1232.199478 99.5 
L 1232.199478 105.75 
L 1320.822525 105.75 
L 1320.822525 99.5 
L 1232.199478 99.5 
z
"/>
    </g>
   </g>
  </g>
  <g id="text_40">
   <!-- La Hipérbola -->
   <g style="fill: #2c2f33" transform="translate(466.27851 17.564375) scale(0.14 -0.14)">
    <use xlink:href="#SegoeUI-Bold-4c"/>
    <use xlink:href="#SegoeUI-Bold-61" x="51.123047"/>
    <use xlink:href="#SegoeUI-Bold-20" x="104.931641"/>
    <use xlink:href="#SegoeUI-Bold-48" x="132.519531"/>
    <use xlink:href="#SegoeUI-Bold-69" x="209.130859"/>
    <use xlink:href="#SegoeUI-Bold-70" x="237.548828"/>
    <use xlink:href="#SegoeUI-Bold-e9" x="299.560547"/>
    <use xlink:href="#SegoeUI-Bold-72" x="353.662109"/>
    <use xlink:href="#SegoeUI-Bold-62" x="393.457031"/>
    <use xlink:href="#SegoeUI-Bold-6f" x="455.46875"/>
    <use xlink:href="#SegoeUI-Bold-6c" x="516.601562"/>
    <use xlink:href="#SegoeUI-Bold-61" x="545.019531"/>
   </g>
  </g>
 </g>
 <defs>
  <clipPath id="pab810cd858">
   <rect x="295.529408" y="40.928292" width="425.340704" height="297.738493"/>
  </clipPath>
  <clipPath id="p2a9e5ddecd">
   <rect x="7.2" y="420.16991" width="425.39976" height="229.02961"/>
  </clipPath>
  <clipPath id="pdc4ddbe0ed">
   <rect x="583.79976" y="420.16991" width="425.39976" height="229.02961"/>
  </clipPath>
 </defs>
</svg>
