<?xml version="1.0" encoding="utf-8" standalone="no"?>
<!DOCTYPE svg PUBLIC "-//W3C//DTD SVG 1.1//EN"
  "http://www.w3.org/Graphics/SVG/1.1/DTD/svg11.dtd">
<svg xmlns:xlink="http://www.w3.org/1999/xlink" width="872.39952pt" height="728.39952pt" viewBox="0 0 872.39952 728.39952" xmlns="http://www.w3.org/2000/svg" version="1.1">
 <metadata>
  <rdf:RDF xmlns:dc="http://purl.org/dc/elements/1.1/" xmlns:cc="http://creativecommons.org/ns#" xmlns:rdf="http://www.w3.org/1999/02/22-rdf-syntax-ns#">
   <cc:Work>
    <dc:type rdf:resource="http://purl.org/dc/dcmitype/StillImage"/>
    <dc:date>2026-04-11T16:11:52.323833</dc:date>
    <dc:format>image/svg+xml</dc:format>
    <dc:creator>
     <cc:Agent>
      <dc:title>Matplotlib v3.8.4, https://matplotlib.org/</dc:title>
     </cc:Agent>
    </dc:creator>
   </cc:Work>
  </rdf:RDF>
 </metadata>
 <defs>
  <style type="text/css">*{stroke-linejoin: round; stroke-linecap: butt}</style>
 </defs>
 <g id="figure_1">
  <g id="patch_1">
   <path d="M 0 728.39952 
L 872.39952 728.39952 
L 872.39952 0 
L 0 0 
z
" style="fill: #ffffff"/>
  </g>
  <g id="axes_1">
   <g id="patch_2">
    <path d="M 25.208125 599.172364 
L 475.568479 599.172364 
L 475.568479 148.812011 
L 25.208125 148.812011 
z
" style="fill: #ffffff"/>
   </g>
   <g id="matplotlib.axis_1">
    <g id="xtick_1">
     <g id="line2d_1">
      <path d="M 42.138965 599.172364 
L 42.138965 148.812011 
" clip-path="url(#p261dd951e6)" style="fill: none; stroke-dasharray: 2.96,1.28; stroke-dashoffset: 0; stroke: #9ca3af; stroke-opacity: 0.3; stroke-width: 0.8"/>
     </g>
     <g id="line2d_2">
      <defs>
       <path id="mb124428de7" d="M 0 0 
L 0 3.5 
" style="stroke: #2c2f33; stroke-width: 0.8"/>
      </defs>
      <g>
       <use xlink:href="#mb124428de7" x="42.138965" y="599.172364" style="fill: #2c2f33; stroke: #2c2f33; stroke-width: 0.8"/>
      </g>
     </g>
     <g id="text_1">
      <!-- −6 -->
      <g style="fill: #2c2f33" transform="translate(36.634903 612.835177) scale(0.09 -0.09)">
       <defs>
        <path id="SegoeUI-2212" d="M 3663 1656 
L 725 1656 
L 725 2075 
L 3663 2075 
L 3663 1656 
z
" transform="scale(0.015625)"/>
        <path id="SegoeUI-36" d="M 3194 1422 
Q 3194 1094 3087 819 
Q 2981 544 2793 344 
Q 2606 144 2347 33 
Q 2088 -78 1784 -78 
Q 1447 -78 1180 62 
Q 913 203 727 467 
Q 541 731 444 1112 
Q 347 1494 347 1972 
Q 347 2556 476 3032 
Q 606 3509 845 3848 
Q 1084 4188 1421 4372 
Q 1759 4556 2175 4556 
Q 2638 4556 2919 4428 
L 2919 3944 
Q 2572 4122 2188 4122 
Q 1888 4122 1647 3987 
Q 1406 3853 1234 3608 
Q 1063 3363 970 3016 
Q 878 2669 878 2244 
L 891 2244 
Q 1200 2803 1913 2803 
Q 2206 2803 2442 2703 
Q 2678 2603 2845 2420 
Q 3013 2238 3103 1984 
Q 3194 1731 3194 1422 
z
M 2669 1356 
Q 2669 1591 2609 1778 
Q 2550 1966 2439 2097 
Q 2328 2228 2165 2298 
Q 2003 2369 1797 2369 
Q 1606 2369 1443 2297 
Q 1281 2225 1162 2101 
Q 1044 1978 976 1814 
Q 909 1650 909 1466 
Q 909 1234 975 1032 
Q 1041 831 1159 681 
Q 1278 531 1442 445 
Q 1606 359 1806 359 
Q 2000 359 2159 432 
Q 2319 506 2431 637 
Q 2544 769 2606 951 
Q 2669 1134 2669 1356 
z
" transform="scale(0.015625)"/>
       </defs>
       <use xlink:href="#SegoeUI-2212"/>
       <use xlink:href="#SegoeUI-36" x="68.408203"/>
      </g>
     </g>
    </g>
    <g id="xtick_2">
     <g id="line2d_3">
      <path d="M 76.000646 599.172364 
L 76.000646 148.812011 
" clip-path="url(#p261dd951e6)" style="fill: none; stroke-dasharray: 2.96,1.28; stroke-dashoffset: 0; stroke: #9ca3af; stroke-opacity: 0.3; stroke-width: 0.8"/>
     </g>
     <g id="line2d_4">
      <g>
       <use xlink:href="#mb124428de7" x="76.000646" y="599.172364" style="fill: #2c2f33; stroke: #2c2f33; stroke-width: 0.8"/>
      </g>
     </g>
     <g id="text_2">
      <!-- −5 -->
      <g style="fill: #2c2f33" transform="translate(70.496584 612.835177) scale(0.09 -0.09)">
       <defs>
        <path id="SegoeUI-35" d="M 3028 1369 
Q 3028 1041 2915 775 
Q 2803 509 2595 318 
Q 2388 128 2094 25 
Q 1800 -78 1441 -78 
Q 816 -78 513 109 
L 513 653 
Q 969 359 1447 359 
Q 1691 359 1886 431 
Q 2081 503 2218 631 
Q 2356 759 2429 940 
Q 2503 1122 2503 1338 
Q 2503 1775 2209 2023 
Q 1916 2272 1356 2272 
Q 1266 2272 1166 2269 
Q 1066 2266 966 2261 
Q 866 2256 770 2250 
Q 675 2244 597 2234 
L 750 4481 
L 2822 4481 
L 2822 4019 
L 1194 4019 
L 1103 2703 
Q 1203 2709 1315 2714 
Q 1428 2719 1516 2719 
Q 1872 2719 2153 2625 
Q 2434 2531 2629 2357 
Q 2825 2184 2926 1932 
Q 3028 1681 3028 1369 
z
" transform="scale(0.015625)"/>
       </defs>
       <use xlink:href="#SegoeUI-2212"/>
       <use xlink:href="#SegoeUI-35" x="68.408203"/>
      </g>
     </g>
    </g>
    <g id="xtick_3">
     <g id="line2d_5">
      <path d="M 109.862327 599.172364 
L 109.862327 148.812011 
" clip-path="url(#p261dd951e6)" style="fill: none; stroke-dasharray: 2.96,1.28; stroke-dashoffset: 0; stroke: #9ca3af; stroke-opacity: 0.3; stroke-width: 0.8"/>
     </g>
     <g id="line2d_6">
      <g>
       <use xlink:href="#mb124428de7" x="109.862327" y="599.172364" style="fill: #2c2f33; stroke: #2c2f33; stroke-width: 0.8"/>
      </g>
     </g>
     <g id="text_3">
      <!-- −4 -->
      <g style="fill: #2c2f33" transform="translate(104.358264 612.835177) scale(0.09 -0.09)">
       <defs>
        <path id="SegoeUI-34" d="M 2656 4481 
L 2656 1522 
L 3231 1522 
L 3231 1053 
L 2656 1053 
L 2656 0 
L 2150 0 
L 2150 1053 
L 44 1053 
L 44 1497 
Q 338 1828 638 2204 
Q 938 2581 1211 2968 
Q 1484 3356 1717 3742 
Q 1950 4128 2109 4481 
L 2656 4481 
z
M 622 1522 
L 2150 1522 
L 2150 3716 
Q 1916 3306 1706 2984 
Q 1497 2663 1308 2400 
Q 1119 2138 947 1925 
Q 775 1713 622 1522 
z
" transform="scale(0.015625)"/>
       </defs>
       <use xlink:href="#SegoeUI-2212"/>
       <use xlink:href="#SegoeUI-34" x="68.408203"/>
      </g>
     </g>
    </g>
    <g id="xtick_4">
     <g id="line2d_7">
      <path d="M 143.724008 599.172364 
L 143.724008 148.812011 
" clip-path="url(#p261dd951e6)" style="fill: none; stroke-dasharray: 2.96,1.28; stroke-dashoffset: 0; stroke: #9ca3af; stroke-opacity: 0.3; stroke-width: 0.8"/>
     </g>
     <g id="line2d_8">
      <g>
       <use xlink:href="#mb124428de7" x="143.724008" y="599.172364" style="fill: #2c2f33; stroke: #2c2f33; stroke-width: 0.8"/>
      </g>
     </g>
     <g id="text_4">
      <!-- −3 -->
      <g style="fill: #2c2f33" transform="translate(138.219945 612.835177) scale(0.09 -0.09)">
       <defs>
        <path id="SegoeUI-33" d="M 2978 1269 
Q 2978 966 2864 717 
Q 2750 469 2542 292 
Q 2334 116 2043 19 
Q 1753 -78 1403 -78 
Q 763 -78 384 166 
L 384 716 
Q 838 359 1422 359 
Q 1656 359 1845 418 
Q 2034 478 2170 590 
Q 2306 703 2379 862 
Q 2453 1022 2453 1222 
Q 2453 2100 1203 2100 
L 831 2100 
L 831 2534 
L 1184 2534 
Q 2291 2534 2291 3359 
Q 2291 4122 1447 4122 
Q 972 4122 556 3803 
L 556 4300 
Q 984 4556 1575 4556 
Q 1856 4556 2084 4478 
Q 2313 4400 2475 4259 
Q 2638 4119 2727 3922 
Q 2816 3725 2816 3488 
Q 2816 2603 1922 2350 
L 1922 2338 
Q 2150 2313 2344 2227 
Q 2538 2141 2678 2003 
Q 2819 1866 2898 1680 
Q 2978 1494 2978 1269 
z
" transform="scale(0.015625)"/>
       </defs>
       <use xlink:href="#SegoeUI-2212"/>
       <use xlink:href="#SegoeUI-33" x="68.408203"/>
      </g>
     </g>
    </g>
    <g id="xtick_5">
     <g id="line2d_9">
      <path d="M 177.585688 599.172364 
L 177.585688 148.812011 
" clip-path="url(#p261dd951e6)" style="fill: none; stroke-dasharray: 2.96,1.28; stroke-dashoffset: 0; stroke: #9ca3af; stroke-opacity: 0.3; stroke-width: 0.8"/>
     </g>
     <g id="line2d_10">
      <g>
       <use xlink:href="#mb124428de7" x="177.585688" y="599.172364" style="fill: #2c2f33; stroke: #2c2f33; stroke-width: 0.8"/>
      </g>
     </g>
     <g id="text_5">
      <!-- −2 -->
      <g style="fill: #2c2f33" transform="translate(172.081626 612.835177) scale(0.09 -0.09)">
       <defs>
        <path id="SegoeUI-32" d="M 2413 3306 
Q 2413 3513 2348 3666 
Q 2284 3819 2173 3920 
Q 2063 4022 1913 4072 
Q 1763 4122 1588 4122 
Q 1438 4122 1294 4081 
Q 1150 4041 1014 3969 
Q 878 3897 751 3797 
Q 625 3697 516 3575 
L 516 4125 
Q 731 4334 998 4445 
Q 1266 4556 1650 4556 
Q 1925 4556 2159 4476 
Q 2394 4397 2566 4244 
Q 2738 4091 2836 3866 
Q 2934 3641 2934 3350 
Q 2934 3084 2873 2868 
Q 2813 2653 2689 2462 
Q 2566 2272 2378 2097 
Q 2191 1922 1938 1741 
Q 1622 1516 1417 1356 
Q 1213 1197 1092 1058 
Q 972 919 923 780 
Q 875 641 875 459 
L 3106 459 
L 3106 0 
L 341 0 
L 341 222 
Q 341 509 403 728 
Q 466 947 609 1144 
Q 753 1341 986 1537 
Q 1219 1734 1556 1981 
Q 1800 2156 1964 2315 
Q 2128 2475 2228 2634 
Q 2328 2794 2370 2958 
Q 2413 3122 2413 3306 
z
" transform="scale(0.015625)"/>
       </defs>
       <use xlink:href="#SegoeUI-2212"/>
       <use xlink:href="#SegoeUI-32" x="68.408203"/>
      </g>
     </g>
    </g>
    <g id="xtick_6">
     <g id="line2d_11">
      <path d="M 211.447369 599.172364 
L 211.447369 148.812011 
" clip-path="url(#p261dd951e6)" style="fill: none; stroke-dasharray: 2.96,1.28; stroke-dashoffset: 0; stroke: #9ca3af; stroke-opacity: 0.3; stroke-width: 0.8"/>
     </g>
     <g id="line2d_12">
      <g>
       <use xlink:href="#mb124428de7" x="211.447369" y="599.172364" style="fill: #2c2f33; stroke: #2c2f33; stroke-width: 0.8"/>
      </g>
     </g>
     <g id="text_6">
      <!-- −1 -->
      <g style="fill: #2c2f33" transform="translate(205.943307 612.835177) scale(0.09 -0.09)">
       <defs>
        <path id="SegoeUI-31" d="M 2263 0 
L 1750 0 
L 1750 3872 
Q 1691 3813 1577 3736 
Q 1463 3659 1320 3584 
Q 1178 3509 1020 3443 
Q 863 3378 713 3341 
L 713 3859 
Q 881 3906 1070 3986 
Q 1259 4066 1442 4164 
Q 1625 4263 1787 4370 
Q 1950 4478 2069 4581 
L 2263 4581 
L 2263 0 
z
" transform="scale(0.015625)"/>
       </defs>
       <use xlink:href="#SegoeUI-2212"/>
       <use xlink:href="#SegoeUI-31" x="68.408203"/>
      </g>
     </g>
    </g>
    <g id="xtick_7">
     <g id="line2d_13">
      <path d="M 245.30905 599.172364 
L 245.30905 148.812011 
" clip-path="url(#p261dd951e6)" style="fill: none; stroke-dasharray: 2.96,1.28; stroke-dashoffset: 0; stroke: #9ca3af; stroke-opacity: 0.3; stroke-width: 0.8"/>
     </g>
     <g id="line2d_14">
      <g>
       <use xlink:href="#mb124428de7" x="245.30905" y="599.172364" style="fill: #2c2f33; stroke: #2c2f33; stroke-width: 0.8"/>
      </g>
     </g>
     <g id="text_7">
      <!-- 0 -->
      <g style="fill: #2c2f33" transform="translate(242.883268 612.835177) scale(0.09 -0.09)">
       <defs>
        <path id="SegoeUI-30" d="M 3188 2259 
Q 3188 1697 3086 1262 
Q 2984 828 2792 529 
Q 2600 231 2320 76 
Q 2041 -78 1684 -78 
Q 1347 -78 1083 70 
Q 819 219 637 503 
Q 456 788 362 1202 
Q 269 1616 269 2150 
Q 269 2738 367 3188 
Q 466 3638 656 3942 
Q 847 4247 1130 4401 
Q 1413 4556 1778 4556 
Q 3188 4556 3188 2259 
z
M 2663 2209 
Q 2663 4122 1753 4122 
Q 794 4122 794 2175 
Q 794 359 1734 359 
Q 2663 359 2663 2209 
z
" transform="scale(0.015625)"/>
       </defs>
       <use xlink:href="#SegoeUI-30"/>
      </g>
     </g>
    </g>
    <g id="xtick_8">
     <g id="line2d_15">
      <path d="M 279.17073 599.172364 
L 279.17073 148.812011 
" clip-path="url(#p261dd951e6)" style="fill: none; stroke-dasharray: 2.96,1.28; stroke-dashoffset: 0; stroke: #9ca3af; stroke-opacity: 0.3; stroke-width: 0.8"/>
     </g>
     <g id="line2d_16">
      <g>
       <use xlink:href="#mb124428de7" x="279.17073" y="599.172364" style="fill: #2c2f33; stroke: #2c2f33; stroke-width: 0.8"/>
      </g>
     </g>
     <g id="text_8">
      <!-- 1 -->
      <g style="fill: #2c2f33" transform="translate(276.744949 612.835177) scale(0.09 -0.09)">
       <use xlink:href="#SegoeUI-31"/>
      </g>
     </g>
    </g>
    <g id="xtick_9">
     <g id="line2d_17">
      <path d="M 313.032411 599.172364 
L 313.032411 148.812011 
" clip-path="url(#p261dd951e6)" style="fill: none; stroke-dasharray: 2.96,1.28; stroke-dashoffset: 0; stroke: #9ca3af; stroke-opacity: 0.3; stroke-width: 0.8"/>
     </g>
     <g id="line2d_18">
      <g>
       <use xlink:href="#mb124428de7" x="313.032411" y="599.172364" style="fill: #2c2f33; stroke: #2c2f33; stroke-width: 0.8"/>
      </g>
     </g>
     <g id="text_9">
      <!-- 2 -->
      <g style="fill: #2c2f33" transform="translate(310.60663 612.835177) scale(0.09 -0.09)">
       <use xlink:href="#SegoeUI-32"/>
      </g>
     </g>
    </g>
    <g id="xtick_10">
     <g id="line2d_19">
      <path d="M 346.894092 599.172364 
L 346.894092 148.812011 
" clip-path="url(#p261dd951e6)" style="fill: none; stroke-dasharray: 2.96,1.28; stroke-dashoffset: 0; stroke: #9ca3af; stroke-opacity: 0.3; stroke-width: 0.8"/>
     </g>
     <g id="line2d_20">
      <g>
       <use xlink:href="#mb124428de7" x="346.894092" y="599.172364" style="fill: #2c2f33; stroke: #2c2f33; stroke-width: 0.8"/>
      </g>
     </g>
     <g id="text_10">
      <!-- 3 -->
      <g style="fill: #2c2f33" transform="translate(344.468311 612.835177) scale(0.09 -0.09)">
       <use xlink:href="#SegoeUI-33"/>
      </g>
     </g>
    </g>
    <g id="xtick_11">
     <g id="line2d_21">
      <path d="M 380.755773 599.172364 
L 380.755773 148.812011 
" clip-path="url(#p261dd951e6)" style="fill: none; stroke-dasharray: 2.96,1.28; stroke-dashoffset: 0; stroke: #9ca3af; stroke-opacity: 0.3; stroke-width: 0.8"/>
     </g>
     <g id="line2d_22">
      <g>
       <use xlink:href="#mb124428de7" x="380.755773" y="599.172364" style="fill: #2c2f33; stroke: #2c2f33; stroke-width: 0.8"/>
      </g>
     </g>
     <g id="text_11">
      <!-- 4 -->
      <g style="fill: #2c2f33" transform="translate(378.329991 612.835177) scale(0.09 -0.09)">
       <use xlink:href="#SegoeUI-34"/>
      </g>
     </g>
    </g>
    <g id="xtick_12">
     <g id="line2d_23">
      <path d="M 414.617453 599.172364 
L 414.617453 148.812011 
" clip-path="url(#p261dd951e6)" style="fill: none; stroke-dasharray: 2.96,1.28; stroke-dashoffset: 0; stroke: #9ca3af; stroke-opacity: 0.3; stroke-width: 0.8"/>
     </g>
     <g id="line2d_24">
      <g>
       <use xlink:href="#mb124428de7" x="414.617453" y="599.172364" style="fill: #2c2f33; stroke: #2c2f33; stroke-width: 0.8"/>
      </g>
     </g>
     <g id="text_12">
      <!-- 5 -->
      <g style="fill: #2c2f33" transform="translate(412.191672 612.835177) scale(0.09 -0.09)">
       <use xlink:href="#SegoeUI-35"/>
      </g>
     </g>
    </g>
    <g id="xtick_13">
     <g id="line2d_25">
      <path d="M 448.479134 599.172364 
L 448.479134 148.812011 
" clip-path="url(#p261dd951e6)" style="fill: none; stroke-dasharray: 2.96,1.28; stroke-dashoffset: 0; stroke: #9ca3af; stroke-opacity: 0.3; stroke-width: 0.8"/>
     </g>
     <g id="line2d_26">
      <g>
       <use xlink:href="#mb124428de7" x="448.479134" y="599.172364" style="fill: #2c2f33; stroke: #2c2f33; stroke-width: 0.8"/>
      </g>
     </g>
     <g id="text_13">
      <!-- 6 -->
      <g style="fill: #2c2f33" transform="translate(446.053353 612.835177) scale(0.09 -0.09)">
       <use xlink:href="#SegoeUI-36"/>
      </g>
     </g>
    </g>
   </g>
   <g id="matplotlib.axis_2">
    <g id="ytick_1">
     <g id="line2d_27">
      <path d="M 25.208125 582.241524 
L 475.568479 582.241524 
" clip-path="url(#p261dd951e6)" style="fill: none; stroke-dasharray: 2.96,1.28; stroke-dashoffset: 0; stroke: #9ca3af; stroke-opacity: 0.3; stroke-width: 0.8"/>
     </g>
     <g id="line2d_28">
      <defs>
       <path id="m70e5dac922" d="M 0 0 
L -3.5 0 
" style="stroke: #2c2f33; stroke-width: 0.8"/>
      </defs>
      <g>
       <use xlink:href="#m70e5dac922" x="25.208125" y="582.241524" style="fill: #2c2f33; stroke: #2c2f33; stroke-width: 0.8"/>
      </g>
     </g>
     <g id="text_14">
      <!-- −6 -->
      <g style="fill: #2c2f33" transform="translate(7.2 585.57293) scale(0.09 -0.09)">
       <use xlink:href="#SegoeUI-2212"/>
       <use xlink:href="#SegoeUI-36" x="68.408203"/>
      </g>
     </g>
    </g>
    <g id="ytick_2">
     <g id="line2d_29">
      <path d="M 25.208125 548.379843 
L 475.568479 548.379843 
" clip-path="url(#p261dd951e6)" style="fill: none; stroke-dasharray: 2.96,1.28; stroke-dashoffset: 0; stroke: #9ca3af; stroke-opacity: 0.3; stroke-width: 0.8"/>
     </g>
     <g id="line2d_30">
      <g>
       <use xlink:href="#m70e5dac922" x="25.208125" y="548.379843" style="fill: #2c2f33; stroke: #2c2f33; stroke-width: 0.8"/>
      </g>
     </g>
     <g id="text_15">
      <!-- −5 -->
      <g style="fill: #2c2f33" transform="translate(7.2 551.71125) scale(0.09 -0.09)">
       <use xlink:href="#SegoeUI-2212"/>
       <use xlink:href="#SegoeUI-35" x="68.408203"/>
      </g>
     </g>
    </g>
    <g id="ytick_3">
     <g id="line2d_31">
      <path d="M 25.208125 514.518163 
L 475.568479 514.518163 
" clip-path="url(#p261dd951e6)" style="fill: none; stroke-dasharray: 2.96,1.28; stroke-dashoffset: 0; stroke: #9ca3af; stroke-opacity: 0.3; stroke-width: 0.8"/>
     </g>
     <g id="line2d_32">
      <g>
       <use xlink:href="#m70e5dac922" x="25.208125" y="514.518163" style="fill: #2c2f33; stroke: #2c2f33; stroke-width: 0.8"/>
      </g>
     </g>
     <g id="text_16">
      <!-- −4 -->
      <g style="fill: #2c2f33" transform="translate(7.2 517.849569) scale(0.09 -0.09)">
       <use xlink:href="#SegoeUI-2212"/>
       <use xlink:href="#SegoeUI-34" x="68.408203"/>
      </g>
     </g>
    </g>
    <g id="ytick_4">
     <g id="line2d_33">
      <path d="M 25.208125 480.656482 
L 475.568479 480.656482 
" clip-path="url(#p261dd951e6)" style="fill: none; stroke-dasharray: 2.96,1.28; stroke-dashoffset: 0; stroke: #9ca3af; stroke-opacity: 0.3; stroke-width: 0.8"/>
     </g>
     <g id="line2d_34">
      <g>
       <use xlink:href="#m70e5dac922" x="25.208125" y="480.656482" style="fill: #2c2f33; stroke: #2c2f33; stroke-width: 0.8"/>
      </g>
     </g>
     <g id="text_17">
      <!-- −3 -->
      <g style="fill: #2c2f33" transform="translate(7.2 483.987888) scale(0.09 -0.09)">
       <use xlink:href="#SegoeUI-2212"/>
       <use xlink:href="#SegoeUI-33" x="68.408203"/>
      </g>
     </g>
    </g>
    <g id="ytick_5">
     <g id="line2d_35">
      <path d="M 25.208125 446.794801 
L 475.568479 446.794801 
" clip-path="url(#p261dd951e6)" style="fill: none; stroke-dasharray: 2.96,1.28; stroke-dashoffset: 0; stroke: #9ca3af; stroke-opacity: 0.3; stroke-width: 0.8"/>
     </g>
     <g id="line2d_36">
      <g>
       <use xlink:href="#m70e5dac922" x="25.208125" y="446.794801" style="fill: #2c2f33; stroke: #2c2f33; stroke-width: 0.8"/>
      </g>
     </g>
     <g id="text_18">
      <!-- −2 -->
      <g style="fill: #2c2f33" transform="translate(7.2 450.126207) scale(0.09 -0.09)">
       <use xlink:href="#SegoeUI-2212"/>
       <use xlink:href="#SegoeUI-32" x="68.408203"/>
      </g>
     </g>
    </g>
    <g id="ytick_6">
     <g id="line2d_37">
      <path d="M 25.208125 412.93312 
L 475.568479 412.93312 
" clip-path="url(#p261dd951e6)" style="fill: none; stroke-dasharray: 2.96,1.28; stroke-dashoffset: 0; stroke: #9ca3af; stroke-opacity: 0.3; stroke-width: 0.8"/>
     </g>
     <g id="line2d_38">
      <g>
       <use xlink:href="#m70e5dac922" x="25.208125" y="412.93312" style="fill: #2c2f33; stroke: #2c2f33; stroke-width: 0.8"/>
      </g>
     </g>
     <g id="text_19">
      <!-- −1 -->
      <g style="fill: #2c2f33" transform="translate(7.2 416.264527) scale(0.09 -0.09)">
       <use xlink:href="#SegoeUI-2212"/>
       <use xlink:href="#SegoeUI-31" x="68.408203"/>
      </g>
     </g>
    </g>
    <g id="ytick_7">
     <g id="line2d_39">
      <path d="M 25.208125 379.07144 
L 475.568479 379.07144 
" clip-path="url(#p261dd951e6)" style="fill: none; stroke-dasharray: 2.96,1.28; stroke-dashoffset: 0; stroke: #9ca3af; stroke-opacity: 0.3; stroke-width: 0.8"/>
     </g>
     <g id="line2d_40">
      <g>
       <use xlink:href="#m70e5dac922" x="25.208125" y="379.07144" style="fill: #2c2f33; stroke: #2c2f33; stroke-width: 0.8"/>
      </g>
     </g>
     <g id="text_20">
      <!-- 0 -->
      <g style="fill: #2c2f33" transform="translate(13.356562 382.402846) scale(0.09 -0.09)">
       <use xlink:href="#SegoeUI-30"/>
      </g>
     </g>
    </g>
    <g id="ytick_8">
     <g id="line2d_41">
      <path d="M 25.208125 345.209759 
L 475.568479 345.209759 
" clip-path="url(#p261dd951e6)" style="fill: none; stroke-dasharray: 2.96,1.28; stroke-dashoffset: 0; stroke: #9ca3af; stroke-opacity: 0.3; stroke-width: 0.8"/>
     </g>
     <g id="line2d_42">
      <g>
       <use xlink:href="#m70e5dac922" x="25.208125" y="345.209759" style="fill: #2c2f33; stroke: #2c2f33; stroke-width: 0.8"/>
      </g>
     </g>
     <g id="text_21">
      <!-- 1 -->
      <g style="fill: #2c2f33" transform="translate(13.356562 348.541165) scale(0.09 -0.09)">
       <use xlink:href="#SegoeUI-31"/>
      </g>
     </g>
    </g>
    <g id="ytick_9">
     <g id="line2d_43">
      <path d="M 25.208125 311.348078 
L 475.568479 311.348078 
" clip-path="url(#p261dd951e6)" style="fill: none; stroke-dasharray: 2.96,1.28; stroke-dashoffset: 0; stroke: #9ca3af; stroke-opacity: 0.3; stroke-width: 0.8"/>
     </g>
     <g id="line2d_44">
      <g>
       <use xlink:href="#m70e5dac922" x="25.208125" y="311.348078" style="fill: #2c2f33; stroke: #2c2f33; stroke-width: 0.8"/>
      </g>
     </g>
     <g id="text_22">
      <!-- 2 -->
      <g style="fill: #2c2f33" transform="translate(13.356562 314.679484) scale(0.09 -0.09)">
       <use xlink:href="#SegoeUI-32"/>
      </g>
     </g>
    </g>
    <g id="ytick_10">
     <g id="line2d_45">
      <path d="M 25.208125 277.486397 
L 475.568479 277.486397 
" clip-path="url(#p261dd951e6)" style="fill: none; stroke-dasharray: 2.96,1.28; stroke-dashoffset: 0; stroke: #9ca3af; stroke-opacity: 0.3; stroke-width: 0.8"/>
     </g>
     <g id="line2d_46">
      <g>
       <use xlink:href="#m70e5dac922" x="25.208125" y="277.486397" style="fill: #2c2f33; stroke: #2c2f33; stroke-width: 0.8"/>
      </g>
     </g>
     <g id="text_23">
      <!-- 3 -->
      <g style="fill: #2c2f33" transform="translate(13.356562 280.817804) scale(0.09 -0.09)">
       <use xlink:href="#SegoeUI-33"/>
      </g>
     </g>
    </g>
    <g id="ytick_11">
     <g id="line2d_47">
      <path d="M 25.208125 243.624717 
L 475.568479 243.624717 
" clip-path="url(#p261dd951e6)" style="fill: none; stroke-dasharray: 2.96,1.28; stroke-dashoffset: 0; stroke: #9ca3af; stroke-opacity: 0.3; stroke-width: 0.8"/>
     </g>
     <g id="line2d_48">
      <g>
       <use xlink:href="#m70e5dac922" x="25.208125" y="243.624717" style="fill: #2c2f33; stroke: #2c2f33; stroke-width: 0.8"/>
      </g>
     </g>
     <g id="text_24">
      <!-- 4 -->
      <g style="fill: #2c2f33" transform="translate(13.356562 246.956123) scale(0.09 -0.09)">
       <use xlink:href="#SegoeUI-34"/>
      </g>
     </g>
    </g>
    <g id="ytick_12">
     <g id="line2d_49">
      <path d="M 25.208125 209.763036 
L 475.568479 209.763036 
" clip-path="url(#p261dd951e6)" style="fill: none; stroke-dasharray: 2.96,1.28; stroke-dashoffset: 0; stroke: #9ca3af; stroke-opacity: 0.3; stroke-width: 0.8"/>
     </g>
     <g id="line2d_50">
      <g>
       <use xlink:href="#m70e5dac922" x="25.208125" y="209.763036" style="fill: #2c2f33; stroke: #2c2f33; stroke-width: 0.8"/>
      </g>
     </g>
     <g id="text_25">
      <!-- 5 -->
      <g style="fill: #2c2f33" transform="translate(13.356562 213.094442) scale(0.09 -0.09)">
       <use xlink:href="#SegoeUI-35"/>
      </g>
     </g>
    </g>
    <g id="ytick_13">
     <g id="line2d_51">
      <path d="M 25.208125 175.901355 
L 475.568479 175.901355 
" clip-path="url(#p261dd951e6)" style="fill: none; stroke-dasharray: 2.96,1.28; stroke-dashoffset: 0; stroke: #9ca3af; stroke-opacity: 0.3; stroke-width: 0.8"/>
     </g>
     <g id="line2d_52">
      <g>
       <use xlink:href="#m70e5dac922" x="25.208125" y="175.901355" style="fill: #2c2f33; stroke: #2c2f33; stroke-width: 0.8"/>
      </g>
     </g>
     <g id="text_26">
      <!-- 6 -->
      <g style="fill: #2c2f33" transform="translate(13.356562 179.232761) scale(0.09 -0.09)">
       <use xlink:href="#SegoeUI-36"/>
      </g>
     </g>
    </g>
   </g>
   <g id="line2d_53">
    <path d="M 25.208125 379.07144 
L 475.568479 379.07144 
" clip-path="url(#p261dd951e6)" style="fill: none; stroke: #374151; stroke-width: 2; stroke-linecap: square"/>
   </g>
   <g id="line2d_54">
    <path d="M 245.30905 599.172364 
L 245.30905 148.812011 
" clip-path="url(#p261dd951e6)" style="fill: none; stroke: #374151; stroke-width: 2; stroke-linecap: square"/>
   </g>
   <g id="line2d_55">
    <path d="M 346.894092 379.07144 
L 346.894092 243.624717 
" clip-path="url(#p261dd951e6)" style="fill: none; stroke-dasharray: 3.7,1.6; stroke-dashoffset: 0; stroke: #e12885; stroke-opacity: 0.5"/>
   </g>
   <g id="line2d_56">
    <path d="M 245.30905 243.624717 
L 346.894092 243.624717 
" clip-path="url(#p261dd951e6)" style="fill: none; stroke-dasharray: 3.7,1.6; stroke-dashoffset: 0; stroke: #e12885; stroke-opacity: 0.5"/>
   </g>
   <g id="line2d_57">
    <path d="M 109.862327 379.07144 
L 109.862327 277.486397 
" clip-path="url(#p261dd951e6)" style="fill: none; stroke-dasharray: 3.7,1.6; stroke-dashoffset: 0; stroke: #4b5563; stroke-opacity: 0.5"/>
   </g>
   <g id="line2d_58">
    <path d="M 245.30905 277.486397 
L 109.862327 277.486397 
" clip-path="url(#p261dd951e6)" style="fill: none; stroke-dasharray: 3.7,1.6; stroke-dashoffset: 0; stroke: #4b5563; stroke-opacity: 0.5"/>
   </g>
   <g id="line2d_59">
    <path d="M 143.724008 379.07144 
L 143.724008 446.794801 
" clip-path="url(#p261dd951e6)" style="fill: none; stroke-dasharray: 3.7,1.6; stroke-dashoffset: 0; stroke: #f59e0b; stroke-opacity: 0.5"/>
   </g>
   <g id="line2d_60">
    <path d="M 245.30905 446.794801 
L 143.724008 446.794801 
" clip-path="url(#p261dd951e6)" style="fill: none; stroke-dasharray: 3.7,1.6; stroke-dashoffset: 0; stroke: #f59e0b; stroke-opacity: 0.5"/>
   </g>
   <g id="line2d_61">
    <path d="M 380.755773 379.07144 
L 380.755773 480.656482 
" clip-path="url(#p261dd951e6)" style="fill: none; stroke-dasharray: 3.7,1.6; stroke-dashoffset: 0; stroke: #ec4899; stroke-opacity: 0.5"/>
   </g>
   <g id="line2d_62">
    <path d="M 245.30905 480.656482 
L 380.755773 480.656482 
" clip-path="url(#p261dd951e6)" style="fill: none; stroke-dasharray: 3.7,1.6; stroke-dashoffset: 0; stroke: #ec4899; stroke-opacity: 0.5"/>
   </g>
   <g id="patch_3">
    <path d="M 450.479751 379.07144 
Q 451.866066 379.07144 451.016313 379.07144 
" style="fill: none; stroke: #374151; stroke-width: 2; stroke-linecap: round"/>
    <path d="M 447.016313 377.07144 
L 451.016313 379.07144 
L 447.016313 381.07144 
" style="fill: none; stroke: #374151; stroke-width: 2; stroke-linecap: round"/>
   </g>
   <g id="patch_4">
    <path d="M 245.30905 173.900738 
Q 245.30905 172.514423 245.30905 173.364176 
" style="fill: none; stroke: #374151; stroke-width: 2; stroke-linecap: round"/>
    <path d="M 243.30905 177.364176 
L 245.30905 173.364176 
L 247.30905 177.364176 
" style="fill: none; stroke: #374151; stroke-width: 2; stroke-linecap: round"/>
   </g>
   <g id="text_27">
    <!-- x -->
    <g style="fill: #374151" transform="translate(458.637638 368.912935) scale(0.14 -0.14)">
     <defs>
      <path id="SegoeUI-Bold-78" d="M 3506 3200 
L 2450 1650 
L 3500 0 
L 2363 0 
L 1900 863 
Q 1844 966 1766 1153 
L 1753 1153 
Q 1706 1022 1625 872 
L 1159 0 
L 25 0 
L 1106 1594 
L 91 3200 
L 1234 3200 
L 1691 2303 
Q 1781 2125 1819 2003 
L 1831 2003 
Q 1881 2150 1966 2309 
L 2431 3200 
L 3506 3200 
z
" transform="scale(0.015625)"/>
     </defs>
     <use xlink:href="#SegoeUI-Bold-78"/>
    </g>
   </g>
   <g id="text_28">
    <!-- y -->
    <g style="fill: #374151" transform="translate(255.467554 165.742851) scale(0.14 -0.14)">
     <defs>
      <path id="SegoeUI-Bold-79" d="M 3463 3200 
L 2163 -256 
Q 1694 -1503 750 -1503 
Q 391 -1503 159 -1422 
L 159 -634 
Q 356 -750 588 -750 
Q 969 -750 1119 -391 
L 1288 6 
L -13 3200 
L 1081 3200 
L 1678 1253 
Q 1734 1072 1766 825 
L 1778 825 
Q 1806 1006 1881 1247 
L 2484 3200 
L 3463 3200 
z
" transform="scale(0.015625)"/>
     </defs>
     <use xlink:href="#SegoeUI-Bold-79"/>
    </g>
   </g>
   <g id="text_29">
    <!-- O -->
    <g style="fill: #374151" transform="translate(228.378209 396.00228) scale(0.12 -0.12)">
     <defs>
      <path id="SegoeUI-Bold-4f" d="M 2406 -78 
Q 1444 -78 837 548 
Q 231 1175 231 2181 
Q 231 3244 847 3900 
Q 1463 4556 2478 4556 
Q 3438 4556 4030 3928 
Q 4622 3300 4622 2272 
Q 4622 1216 4008 569 
Q 3394 -78 2406 -78 
z
M 2450 3688 
Q 1919 3688 1606 3289 
Q 1294 2891 1294 2234 
Q 1294 1569 1606 1181 
Q 1919 794 2425 794 
Q 2947 794 3253 1170 
Q 3559 1547 3559 2216 
Q 3559 2913 3262 3300 
Q 2966 3688 2450 3688 
z
" transform="scale(0.015625)"/>
     </defs>
     <use xlink:href="#SegoeUI-Bold-4f"/>
    </g>
   </g>
   <g id="text_30">
    <!-- P(3, 4) -->
    <g style="fill: #e12885" transform="translate(357.052596 230.080044) scale(0.1 -0.1)">
     <defs>
      <path id="SegoeUI-Bold-50" d="M 1522 1544 
L 1522 0 
L 513 0 
L 513 4481 
L 2094 4481 
Q 3788 4481 3788 3053 
Q 3788 2378 3302 1961 
Q 2816 1544 2003 1544 
L 1522 1544 
z
M 1522 3706 
L 1522 2309 
L 1919 2309 
Q 2725 2309 2725 3016 
Q 2725 3706 1919 3706 
L 1522 3706 
z
" transform="scale(0.015625)"/>
      <path id="SegoeUI-Bold-28" d="M 2309 -1019 
L 1503 -1019 
Q 494 94 494 1716 
Q 494 3281 1503 4481 
L 2303 4481 
Q 1356 3225 1356 1716 
Q 1356 206 2309 -1019 
z
" transform="scale(0.015625)"/>
      <path id="SegoeUI-Bold-33" d="M 366 147 
L 366 1006 
Q 816 678 1416 678 
Q 1794 678 2005 840 
Q 2216 1003 2216 1294 
Q 2216 1594 1955 1756 
Q 1694 1919 1238 1919 
L 822 1919 
L 822 2675 
L 1206 2675 
Q 2081 2675 2081 3256 
Q 2081 3803 1409 3803 
Q 959 3803 534 3513 
L 534 4319 
Q 1006 4556 1634 4556 
Q 2322 4556 2705 4247 
Q 3088 3938 3088 3444 
Q 3088 2566 2197 2344 
L 2197 2328 
Q 2672 2269 2947 1983 
Q 3222 1697 3222 1281 
Q 3222 653 2762 287 
Q 2303 -78 1494 -78 
Q 800 -78 366 147 
z
" transform="scale(0.015625)"/>
      <path id="SegoeUI-Bold-2c" d="M 1350 788 
L 891 -794 
L 122 -794 
L 441 788 
L 1350 788 
z
" transform="scale(0.015625)"/>
      <path id="SegoeUI-Bold-20" transform="scale(0.015625)"/>
      <path id="SegoeUI-Bold-34" d="M 2975 4481 
L 2975 1656 
L 3513 1656 
L 3513 919 
L 2975 919 
L 2975 0 
L 2075 0 
L 2075 919 
L 122 919 
L 122 1691 
Q 381 1981 659 2326 
Q 938 2672 1197 3037 
Q 1456 3403 1679 3773 
Q 1903 4144 2059 4481 
L 2975 4481 
z
M 1006 1656 
L 2075 1656 
L 2075 3222 
Q 1966 3019 1837 2811 
Q 1709 2603 1568 2401 
Q 1428 2200 1284 2011 
Q 1141 1822 1006 1656 
z
" transform="scale(0.015625)"/>
      <path id="SegoeUI-Bold-29" d="M 856 -1019 
L 56 -1019 
Q 1013 200 1013 1716 
Q 1013 3219 56 4481 
L 863 4481 
Q 1875 3278 1875 1716 
Q 1875 106 856 -1019 
z
" transform="scale(0.015625)"/>
     </defs>
     <use xlink:href="#SegoeUI-Bold-50"/>
     <use xlink:href="#SegoeUI-Bold-28" x="61.425781"/>
     <use xlink:href="#SegoeUI-Bold-33" x="98.339844"/>
     <use xlink:href="#SegoeUI-Bold-2c" x="155.859375"/>
     <use xlink:href="#SegoeUI-Bold-20" x="182.958984"/>
     <use xlink:href="#SegoeUI-Bold-34" x="210.546875"/>
     <use xlink:href="#SegoeUI-Bold-29" x="268.066406"/>
    </g>
   </g>
   <g id="text_31">
    <!-- Q(-4, 3) -->
    <g style="fill: #4b5563" transform="translate(63.72101 263.941725) scale(0.1 -0.1)">
     <defs>
      <path id="SegoeUI-Bold-51" d="M 2406 -78 
Q 1444 -78 838 547 
Q 231 1178 231 2181 
Q 231 3241 847 3900 
Q 1459 4556 2478 4556 
Q 3438 4556 4028 3928 
Q 4622 3303 4622 2272 
Q 4622 1219 4006 569 
Q 3984 547 3965 526 
Q 3947 506 3925 488 
L 5059 -603 
L 3647 -603 
L 3053 0 
Q 2759 -78 2406 -78 
z
M 2450 3688 
Q 1922 3688 1606 3288 
Q 1294 2891 1294 2234 
Q 1294 1569 1606 1181 
Q 1919 794 2425 794 
Q 2947 794 3253 1169 
Q 3559 1550 3559 2216 
Q 3559 2909 3263 3300 
Q 2969 3688 2450 3688 
z
" transform="scale(0.015625)"/>
      <path id="SegoeUI-Bold-2d" d="M 2156 1363 
L 447 1363 
L 447 2053 
L 2156 2053 
L 2156 1363 
z
" transform="scale(0.015625)"/>
     </defs>
     <use xlink:href="#SegoeUI-Bold-51"/>
     <use xlink:href="#SegoeUI-Bold-28" x="75.830078"/>
     <use xlink:href="#SegoeUI-Bold-2d" x="112.744141"/>
     <use xlink:href="#SegoeUI-Bold-34" x="153.173828"/>
     <use xlink:href="#SegoeUI-Bold-2c" x="210.693359"/>
     <use xlink:href="#SegoeUI-Bold-20" x="237.792969"/>
     <use xlink:href="#SegoeUI-Bold-33" x="265.380859"/>
     <use xlink:href="#SegoeUI-Bold-29" x="322.900391"/>
    </g>
   </g>
   <g id="text_32">
    <!-- R(-3, -2) -->
    <g style="fill: #f59e0b" transform="translate(94.593628 433.250129) scale(0.1 -0.1)">
     <defs>
      <path id="SegoeUI-Bold-52" d="M 4272 0 
L 3113 0 
L 2416 1153 
Q 2338 1284 2266 1387 
Q 2194 1491 2120 1564 
Q 2047 1638 1967 1677 
Q 1888 1716 1794 1716 
L 1522 1716 
L 1522 0 
L 513 0 
L 513 4481 
L 2113 4481 
Q 3744 4481 3744 3263 
Q 3744 3028 3672 2829 
Q 3600 2631 3469 2472 
Q 3338 2313 3152 2197 
Q 2966 2081 2738 2016 
L 2738 2003 
Q 2838 1972 2931 1901 
Q 3025 1831 3112 1737 
Q 3200 1644 3279 1536 
Q 3359 1428 3425 1325 
L 4272 0 
z
M 1522 3725 
L 1522 2478 
L 1959 2478 
Q 2284 2478 2481 2666 
Q 2681 2856 2681 3138 
Q 2681 3725 1978 3725 
L 1522 3725 
z
" transform="scale(0.015625)"/>
      <path id="SegoeUI-Bold-32" d="M 1341 819 
L 3241 819 
L 3241 0 
L 259 0 
L 259 338 
Q 259 681 375 954 
Q 491 1228 666 1445 
Q 841 1663 1048 1830 
Q 1256 1997 1444 2131 
Q 1641 2272 1789 2400 
Q 1938 2528 2039 2654 
Q 2141 2781 2191 2911 
Q 2241 3041 2241 3188 
Q 2241 3475 2078 3622 
Q 1916 3769 1581 3769 
Q 1003 3769 475 3309 
L 475 4178 
Q 1059 4556 1794 4556 
Q 2134 4556 2404 4467 
Q 2675 4378 2862 4212 
Q 3050 4047 3148 3811 
Q 3247 3575 3247 3284 
Q 3247 2975 3151 2734 
Q 3056 2494 2898 2297 
Q 2741 2100 2534 1936 
Q 2328 1772 2106 1619 
Q 1956 1513 1817 1408 
Q 1678 1303 1572 1201 
Q 1466 1100 1403 1003 
Q 1341 906 1341 819 
z
" transform="scale(0.015625)"/>
     </defs>
     <use xlink:href="#SegoeUI-Bold-52"/>
     <use xlink:href="#SegoeUI-Bold-28" x="65.283203"/>
     <use xlink:href="#SegoeUI-Bold-2d" x="102.197266"/>
     <use xlink:href="#SegoeUI-Bold-33" x="142.626953"/>
     <use xlink:href="#SegoeUI-Bold-2c" x="200.146484"/>
     <use xlink:href="#SegoeUI-Bold-20" x="227.246094"/>
     <use xlink:href="#SegoeUI-Bold-2d" x="254.833984"/>
     <use xlink:href="#SegoeUI-Bold-32" x="295.263672"/>
     <use xlink:href="#SegoeUI-Bold-29" x="352.783203"/>
    </g>
   </g>
   <g id="text_33">
    <!-- S(4, -3) -->
    <g style="fill: #ec4899" transform="translate(390.914277 467.11181) scale(0.1 -0.1)">
     <defs>
      <path id="SegoeUI-Bold-53" d="M 306 172 
L 306 1172 
Q 578 944 897 830 
Q 1216 716 1541 716 
Q 1731 716 1873 750 
Q 2016 784 2111 845 
Q 2206 906 2253 989 
Q 2300 1072 2300 1169 
Q 2300 1300 2225 1403 
Q 2150 1506 2020 1593 
Q 1891 1681 1712 1762 
Q 1534 1844 1328 1928 
Q 803 2147 545 2462 
Q 288 2778 288 3225 
Q 288 3575 428 3826 
Q 569 4078 811 4240 
Q 1053 4403 1372 4479 
Q 1691 4556 2047 4556 
Q 2397 4556 2667 4514 
Q 2938 4472 3166 4384 
L 3166 3450 
Q 3053 3528 2920 3587 
Q 2788 3647 2647 3686 
Q 2506 3725 2367 3744 
Q 2228 3763 2103 3763 
Q 1931 3763 1790 3730 
Q 1650 3697 1553 3637 
Q 1456 3578 1403 3495 
Q 1350 3413 1350 3309 
Q 1350 3197 1409 3108 
Q 1469 3019 1578 2939 
Q 1688 2859 1844 2782 
Q 2000 2706 2197 2625 
Q 2466 2513 2680 2386 
Q 2894 2259 3047 2100 
Q 3200 1941 3281 1736 
Q 3363 1531 3363 1259 
Q 3363 884 3220 629 
Q 3078 375 2834 217 
Q 2591 59 2267 -9 
Q 1944 -78 1584 -78 
Q 1216 -78 883 -15 
Q 550 47 306 172 
z
" transform="scale(0.015625)"/>
     </defs>
     <use xlink:href="#SegoeUI-Bold-53"/>
     <use xlink:href="#SegoeUI-Bold-28" x="56.054688"/>
     <use xlink:href="#SegoeUI-Bold-34" x="92.96875"/>
     <use xlink:href="#SegoeUI-Bold-2c" x="150.488281"/>
     <use xlink:href="#SegoeUI-Bold-20" x="177.587891"/>
     <use xlink:href="#SegoeUI-Bold-2d" x="205.175781"/>
     <use xlink:href="#SegoeUI-Bold-33" x="245.605469"/>
     <use xlink:href="#SegoeUI-Bold-29" x="303.125"/>
    </g>
   </g>
   <g id="text_34">
    <g id="patch_5">
     <path d="M 312.976279 209.4807 
L 380.811904 209.4807 
L 380.811904 190.887262 
L 312.976279 190.887262 
z
" style="fill: #ffffff; opacity: 0.8"/>
    </g>
    <!-- Cuadrante I -->
    <g style="fill: #e12885" transform="translate(316.936279 202.9907) scale(0.11 -0.11)">
     <defs>
      <path id="SegoeUI-Bold-43" d="M 3725 159 
Q 3234 -78 2444 -78 
Q 1413 -78 822 528 
Q 231 1134 231 2144 
Q 231 3219 895 3887 
Q 1559 4556 2619 4556 
Q 3275 4556 3725 4391 
L 3725 3419 
Q 3275 3688 2700 3688 
Q 2069 3688 1681 3291 
Q 1294 2894 1294 2216 
Q 1294 1566 1659 1180 
Q 2025 794 2644 794 
Q 3234 794 3725 1081 
L 3725 159 
z
" transform="scale(0.015625)"/>
      <path id="SegoeUI-Bold-75" d="M 3456 0 
L 2472 0 
L 2472 488 
L 2456 488 
Q 2091 -78 1478 -78 
Q 366 -78 366 1269 
L 366 3200 
L 1350 3200 
L 1350 1356 
Q 1350 678 1888 678 
Q 2153 678 2312 864 
Q 2472 1050 2472 1369 
L 2472 3200 
L 3456 3200 
L 3456 0 
z
" transform="scale(0.015625)"/>
      <path id="SegoeUI-Bold-61" d="M 3078 0 
L 2144 0 
L 2144 459 
L 2131 459 
Q 1809 -78 1178 -78 
Q 713 -78 445 186 
Q 178 450 178 891 
Q 178 1822 1281 1966 
L 2150 2081 
Q 2150 2606 1581 2606 
Q 1009 2606 494 2266 
L 494 3009 
Q 700 3116 1058 3197 
Q 1416 3278 1709 3278 
Q 3078 3278 3078 1913 
L 3078 0 
z
M 2150 1300 
L 2150 1516 
L 1569 1441 
Q 1088 1378 1088 1006 
Q 1088 838 1205 730 
Q 1322 622 1522 622 
Q 1800 622 1975 814 
Q 2150 1006 2150 1300 
z
" transform="scale(0.015625)"/>
      <path id="SegoeUI-Bold-64" d="M 3547 0 
L 2559 0 
L 2559 441 
L 2547 441 
Q 2209 -78 1556 -78 
Q 956 -78 590 345 
Q 225 769 225 1528 
Q 225 2322 628 2800 
Q 1031 3278 1684 3278 
Q 2303 3278 2547 2834 
L 2559 2834 
L 2559 4738 
L 3547 4738 
L 3547 0 
z
M 2578 1556 
L 2578 1797 
Q 2578 2109 2397 2315 
Q 2216 2522 1925 2522 
Q 1597 2522 1412 2264 
Q 1228 2006 1228 1556 
Q 1228 1134 1406 906 
Q 1584 678 1900 678 
Q 2200 678 2389 918 
Q 2578 1159 2578 1556 
z
" transform="scale(0.015625)"/>
      <path id="SegoeUI-Bold-72" d="M 2503 2309 
Q 2325 2406 2088 2406 
Q 1766 2406 1584 2170 
Q 1403 1934 1403 1528 
L 1403 0 
L 416 0 
L 416 3200 
L 1403 3200 
L 1403 2606 
L 1416 2606 
Q 1650 3256 2259 3256 
Q 2416 3256 2503 3219 
L 2503 2309 
z
" transform="scale(0.015625)"/>
      <path id="SegoeUI-Bold-6e" d="M 3506 0 
L 2522 0 
L 2522 1778 
Q 2522 2522 1991 2522 
Q 1734 2522 1568 2325 
Q 1403 2128 1403 1825 
L 1403 0 
L 416 0 
L 416 3200 
L 1403 3200 
L 1403 2694 
L 1416 2694 
Q 1769 3278 2444 3278 
Q 3506 3278 3506 1959 
L 3506 0 
z
" transform="scale(0.015625)"/>
      <path id="SegoeUI-Bold-74" d="M 2350 38 
Q 2131 -78 1691 -78 
Q 647 -78 647 1006 
L 647 2472 
L 128 2472 
L 128 3200 
L 647 3200 
L 647 3891 
L 1631 4172 
L 1631 3200 
L 2350 3200 
L 2350 2472 
L 1631 2472 
L 1631 1178 
Q 1631 678 2028 678 
Q 2184 678 2350 769 
L 2350 38 
z
" transform="scale(0.015625)"/>
      <path id="SegoeUI-Bold-65" d="M 3291 1319 
L 1203 1319 
Q 1253 622 2081 622 
Q 2609 622 3009 872 
L 3009 159 
Q 2566 -78 1856 -78 
Q 1081 -78 653 351 
Q 225 781 225 1550 
Q 225 2347 687 2812 
Q 1150 3278 1825 3278 
Q 2525 3278 2908 2862 
Q 3291 2447 3291 1734 
L 3291 1319 
z
M 2375 1925 
Q 2375 2613 1819 2613 
Q 1581 2613 1407 2416 
Q 1234 2219 1197 1925 
L 2375 1925 
z
" transform="scale(0.015625)"/>
      <path id="SegoeUI-Bold-49" d="M 1522 0 
L 513 0 
L 513 4481 
L 1522 4481 
L 1522 0 
z
" transform="scale(0.015625)"/>
     </defs>
     <use xlink:href="#SegoeUI-Bold-43"/>
     <use xlink:href="#SegoeUI-Bold-75" x="62.402344"/>
     <use xlink:href="#SegoeUI-Bold-61" x="122.900391"/>
     <use xlink:href="#SegoeUI-Bold-64" x="176.708984"/>
     <use xlink:href="#SegoeUI-Bold-72" x="238.623047"/>
     <use xlink:href="#SegoeUI-Bold-61" x="278.417969"/>
     <use xlink:href="#SegoeUI-Bold-6e" x="332.226562"/>
     <use xlink:href="#SegoeUI-Bold-74" x="392.724609"/>
     <use xlink:href="#SegoeUI-Bold-65" x="431.265625"/>
     <use xlink:href="#SegoeUI-Bold-20" x="485.367188"/>
     <use xlink:href="#SegoeUI-Bold-49" x="512.955078"/>
    </g>
   </g>
   <g id="text_35">
    <g id="patch_6">
     <path d="M 108.063383 209.4807 
L 179.384633 209.4807 
L 179.384633 190.887262 
L 108.063383 190.887262 
z
" style="fill: #ffffff; opacity: 0.8"/>
    </g>
    <!-- Cuadrante II -->
    <g style="fill: #4b5563" transform="translate(112.023383 202.9907) scale(0.11 -0.11)">
     <use xlink:href="#SegoeUI-Bold-43"/>
     <use xlink:href="#SegoeUI-Bold-75" x="62.402344"/>
     <use xlink:href="#SegoeUI-Bold-61" x="122.900391"/>
     <use xlink:href="#SegoeUI-Bold-64" x="176.708984"/>
     <use xlink:href="#SegoeUI-Bold-72" x="238.623047"/>
     <use xlink:href="#SegoeUI-Bold-61" x="278.417969"/>
     <use xlink:href="#SegoeUI-Bold-6e" x="332.226562"/>
     <use xlink:href="#SegoeUI-Bold-74" x="392.724609"/>
     <use xlink:href="#SegoeUI-Bold-65" x="431.265625"/>
     <use xlink:href="#SegoeUI-Bold-20" x="485.367188"/>
     <use xlink:href="#SegoeUI-Bold-49" x="512.955078"/>
     <use xlink:href="#SegoeUI-Bold-49" x="544.644531"/>
    </g>
   </g>
   <g id="text_36">
    <g id="patch_7">
     <path d="M 106.32057 561.642179 
L 181.127445 561.642179 
L 181.127445 543.048742 
L 106.32057 543.048742 
z
" style="fill: #ffffff; opacity: 0.8"/>
    </g>
    <!-- Cuadrante III -->
    <g style="fill: #f59e0b" transform="translate(110.28057 555.152179) scale(0.11 -0.11)">
     <use xlink:href="#SegoeUI-Bold-43"/>
     <use xlink:href="#SegoeUI-Bold-75" x="62.402344"/>
     <use xlink:href="#SegoeUI-Bold-61" x="122.900391"/>
     <use xlink:href="#SegoeUI-Bold-64" x="176.708984"/>
     <use xlink:href="#SegoeUI-Bold-72" x="238.623047"/>
     <use xlink:href="#SegoeUI-Bold-61" x="278.417969"/>
     <use xlink:href="#SegoeUI-Bold-6e" x="332.226562"/>
     <use xlink:href="#SegoeUI-Bold-74" x="392.724609"/>
     <use xlink:href="#SegoeUI-Bold-65" x="431.265625"/>
     <use xlink:href="#SegoeUI-Bold-20" x="485.367188"/>
     <use xlink:href="#SegoeUI-Bold-49" x="512.955078"/>
     <use xlink:href="#SegoeUI-Bold-49" x="544.644531"/>
     <use xlink:href="#SegoeUI-Bold-49" x="576.333984"/>
    </g>
   </g>
   <g id="text_37">
    <g id="patch_8">
     <path d="M 309.307608 561.642179 
L 384.480576 561.642179 
L 384.480576 543.048742 
L 309.307608 543.048742 
z
" style="fill: #ffffff; opacity: 0.8"/>
    </g>
    <!-- Cuadrante IV -->
    <g style="fill: #ec4899" transform="translate(313.267608 555.152179) scale(0.11 -0.11)">
     <defs>
      <path id="SegoeUI-Bold-56" d="M 4244 4481 
L 2700 0 
L 1556 0 
L 31 4481 
L 1119 4481 
L 2053 1363 
Q 2128 1109 2144 916 
L 2163 916 
Q 2184 1125 2259 1375 
L 3188 4481 
L 4244 4481 
z
" transform="scale(0.015625)"/>
     </defs>
     <use xlink:href="#SegoeUI-Bold-43"/>
     <use xlink:href="#SegoeUI-Bold-75" x="62.402344"/>
     <use xlink:href="#SegoeUI-Bold-61" x="122.900391"/>
     <use xlink:href="#SegoeUI-Bold-64" x="176.708984"/>
     <use xlink:href="#SegoeUI-Bold-72" x="238.623047"/>
     <use xlink:href="#SegoeUI-Bold-61" x="278.417969"/>
     <use xlink:href="#SegoeUI-Bold-6e" x="332.226562"/>
     <use xlink:href="#SegoeUI-Bold-74" x="392.724609"/>
     <use xlink:href="#SegoeUI-Bold-65" x="431.265625"/>
     <use xlink:href="#SegoeUI-Bold-20" x="485.367188"/>
     <use xlink:href="#SegoeUI-Bold-49" x="512.955078"/>
     <use xlink:href="#SegoeUI-Bold-56" x="544.644531"/>
    </g>
   </g>
   <g id="text_38">
    <!-- (+, +) -->
    <g style="fill: #6b7280" transform="translate(385.374894 226.693876) scale(0.1 -0.1)">
     <defs>
      <path id="SegoeUI-28" d="M 1863 -1019 
L 1406 -1019 
Q 438 88 438 1709 
Q 438 3338 1406 4481 
L 1869 4481 
Q 888 3294 888 1716 
Q 888 150 1863 -1019 
z
" transform="scale(0.015625)"/>
      <path id="SegoeUI-2b" d="M 3663 1656 
L 2400 1656 
L 2400 397 
L 1984 397 
L 1984 1656 
L 725 1656 
L 725 2075 
L 1984 2075 
L 1984 3334 
L 2400 3334 
L 2400 2075 
L 3663 2075 
L 3663 1656 
z
" transform="scale(0.015625)"/>
      <path id="SegoeUI-2c" d="M 988 713 
L 488 -825 
L 122 -825 
L 488 713 
L 988 713 
z
" transform="scale(0.015625)"/>
      <path id="SegoeUI-20" transform="scale(0.015625)"/>
      <path id="SegoeUI-29" d="M 531 -1019 
L 75 -1019 
Q 1050 150 1050 1716 
Q 1050 3294 69 4481 
L 531 4481 
Q 1506 3338 1506 1709 
Q 1506 88 531 -1019 
z
" transform="scale(0.015625)"/>
     </defs>
     <use xlink:href="#SegoeUI-28"/>
     <use xlink:href="#SegoeUI-2b" x="30.175781"/>
     <use xlink:href="#SegoeUI-2c" x="98.583984"/>
     <use xlink:href="#SegoeUI-20" x="120.263672"/>
     <use xlink:href="#SegoeUI-2b" x="147.65625"/>
     <use xlink:href="#SegoeUI-29" x="216.064453"/>
    </g>
   </g>
   <g id="text_39">
    <!-- (−, +) -->
    <g style="fill: #6b7280" transform="translate(80.619768 226.693876) scale(0.1 -0.1)">
     <use xlink:href="#SegoeUI-28"/>
     <use xlink:href="#SegoeUI-2212" x="30.175781"/>
     <use xlink:href="#SegoeUI-2c" x="98.583984"/>
     <use xlink:href="#SegoeUI-20" x="120.263672"/>
     <use xlink:href="#SegoeUI-2b" x="147.65625"/>
     <use xlink:href="#SegoeUI-29" x="216.064453"/>
    </g>
   </g>
   <g id="text_40">
    <!-- (−, −) -->
    <g style="fill: #6b7280" transform="translate(80.619768 531.449003) scale(0.1 -0.1)">
     <use xlink:href="#SegoeUI-28"/>
     <use xlink:href="#SegoeUI-2212" x="30.175781"/>
     <use xlink:href="#SegoeUI-2c" x="98.583984"/>
     <use xlink:href="#SegoeUI-20" x="120.263672"/>
     <use xlink:href="#SegoeUI-2212" x="147.65625"/>
     <use xlink:href="#SegoeUI-29" x="216.064453"/>
    </g>
   </g>
   <g id="text_41">
    <!-- (+, −) -->
    <g style="fill: #6b7280" transform="translate(385.374894 531.449003) scale(0.1 -0.1)">
     <use xlink:href="#SegoeUI-28"/>
     <use xlink:href="#SegoeUI-2b" x="30.175781"/>
     <use xlink:href="#SegoeUI-2c" x="98.583984"/>
     <use xlink:href="#SegoeUI-20" x="120.263672"/>
     <use xlink:href="#SegoeUI-2212" x="147.65625"/>
     <use xlink:href="#SegoeUI-29" x="216.064453"/>
    </g>
   </g>
   <g id="line2d_63">
    <defs>
     <path id="m388303695c" d="M 0 5 
C 1.326016 5 2.597899 4.473168 3.535534 3.535534 
C 4.473168 2.597899 5 1.326016 5 0 
C 5 -1.326016 4.473168 -2.597899 3.535534 -3.535534 
C 2.597899 -4.473168 1.326016 -5 0 -5 
C -1.326016 -5 -2.597899 -4.473168 -3.535534 -3.535534 
C -4.473168 -2.597899 -5 -1.326016 -5 0 
C -5 1.326016 -4.473168 2.597899 -3.535534 3.535534 
C -2.597899 4.473168 -1.326016 5 0 5 
z
" style="stroke: #e12885"/>
    </defs>
    <g clip-path="url(#p261dd951e6)">
     <use xlink:href="#m388303695c" x="346.894092" y="243.624717" style="fill: #e12885; stroke: #e12885"/>
    </g>
   </g>
   <g id="line2d_64">
    <defs>
     <path id="me1a1e22fa7" d="M 0 5 
C 1.326016 5 2.597899 4.473168 3.535534 3.535534 
C 4.473168 2.597899 5 1.326016 5 0 
C 5 -1.326016 4.473168 -2.597899 3.535534 -3.535534 
C 2.597899 -4.473168 1.326016 -5 0 -5 
C -1.326016 -5 -2.597899 -4.473168 -3.535534 -3.535534 
C -4.473168 -2.597899 -5 -1.326016 -5 0 
C -5 1.326016 -4.473168 2.597899 -3.535534 3.535534 
C -2.597899 4.473168 -1.326016 5 0 5 
z
" style="stroke: #4b5563"/>
    </defs>
    <g clip-path="url(#p261dd951e6)">
     <use xlink:href="#me1a1e22fa7" x="109.862327" y="277.486397" style="fill: #4b5563; stroke: #4b5563"/>
    </g>
   </g>
   <g id="line2d_65">
    <defs>
     <path id="m2f3cc03a82" d="M 0 5 
C 1.326016 5 2.597899 4.473168 3.535534 3.535534 
C 4.473168 2.597899 5 1.326016 5 0 
C 5 -1.326016 4.473168 -2.597899 3.535534 -3.535534 
C 2.597899 -4.473168 1.326016 -5 0 -5 
C -1.326016 -5 -2.597899 -4.473168 -3.535534 -3.535534 
C -4.473168 -2.597899 -5 -1.326016 -5 0 
C -5 1.326016 -4.473168 2.597899 -3.535534 3.535534 
C -2.597899 4.473168 -1.326016 5 0 5 
z
" style="stroke: #f59e0b"/>
    </defs>
    <g clip-path="url(#p261dd951e6)">
     <use xlink:href="#m2f3cc03a82" x="143.724008" y="446.794801" style="fill: #f59e0b; stroke: #f59e0b"/>
    </g>
   </g>
   <g id="line2d_66">
    <defs>
     <path id="m4396688d7e" d="M 0 5 
C 1.326016 5 2.597899 4.473168 3.535534 3.535534 
C 4.473168 2.597899 5 1.326016 5 0 
C 5 -1.326016 4.473168 -2.597899 3.535534 -3.535534 
C 2.597899 -4.473168 1.326016 -5 0 -5 
C -1.326016 -5 -2.597899 -4.473168 -3.535534 -3.535534 
C -4.473168 -2.597899 -5 -1.326016 -5 0 
C -5 1.326016 -4.473168 2.597899 -3.535534 3.535534 
C -2.597899 4.473168 -1.326016 5 0 5 
z
" style="stroke: #ec4899"/>
    </defs>
    <g clip-path="url(#p261dd951e6)">
     <use xlink:href="#m4396688d7e" x="380.755773" y="480.656482" style="fill: #ec4899; stroke: #ec4899"/>
    </g>
   </g>
  </g>
  <g id="axes_2">
   <g id="patch_9">
    <path d="M 529.16141 269.829988 
L 854.806589 269.829988 
L 854.806589 47.617295 
L 529.16141 47.617295 
z
" clip-path="url(#pd53328533f)" style="fill: #eff6ff; stroke: #39c5bb; stroke-width: 1.5; stroke-linejoin: miter"/>
   </g>
   <g id="patch_10">
    <path d="M 529.16141 547.595854 
L 854.806589 547.595854 
L 854.806589 297.606574 
L 529.16141 297.606574 
z
" clip-path="url(#pd53328533f)" style="fill: #fef3c7; stroke: #f59e0b; stroke-width: 1.5; stroke-linejoin: miter"/>
   </g>
   <g id="patch_11">
    <path d="M 529.16141 700.36708 
L 854.806589 700.36708 
L 854.806589 575.37244 
L 529.16141 575.37244 
z
" clip-path="url(#pd53328533f)" style="fill: #f0fdf4; stroke: #1f2937; stroke-width: 1.5; stroke-linejoin: miter"/>
   </g>
   <g id="text_42">
    <!-- Elementos del Plano Cartesiano -->
    <g style="fill: #39c5bb" transform="translate(610.715484 82.338028) scale(0.11 -0.11)">
     <defs>
      <path id="SegoeUI-Bold-45" d="M 3200 0 
L 513 0 
L 513 4481 
L 3097 4481 
L 3097 3659 
L 1522 3659 
L 1522 2663 
L 2988 2663 
L 2988 1844 
L 1522 1844 
L 1522 819 
L 3200 819 
L 3200 0 
z
" transform="scale(0.015625)"/>
      <path id="SegoeUI-Bold-6c" d="M 1403 0 
L 416 0 
L 416 4738 
L 1403 4738 
L 1403 0 
z
" transform="scale(0.015625)"/>
      <path id="SegoeUI-Bold-6d" d="M 5497 0 
L 4513 0 
L 4513 1825 
Q 4513 2522 4000 2522 
Q 3756 2522 3603 2312 
Q 3450 2103 3450 1791 
L 3450 0 
L 2463 0 
L 2463 1844 
Q 2463 2522 1959 2522 
Q 1706 2522 1554 2322 
Q 1403 2122 1403 1778 
L 1403 0 
L 416 0 
L 416 3200 
L 1403 3200 
L 1403 2700 
L 1416 2700 
Q 1569 2956 1845 3117 
Q 2122 3278 2450 3278 
Q 3128 3278 3378 2681 
Q 3744 3278 4453 3278 
Q 5497 3278 5497 1991 
L 5497 0 
z
" transform="scale(0.015625)"/>
      <path id="SegoeUI-Bold-6f" d="M 1941 -78 
Q 1141 -78 683 370 
Q 225 819 225 1588 
Q 225 2381 700 2829 
Q 1175 3278 1984 3278 
Q 2781 3278 3234 2829 
Q 3688 2381 3688 1644 
Q 3688 847 3220 384 
Q 2753 -78 1941 -78 
z
M 1966 2522 
Q 1616 2522 1422 2281 
Q 1228 2041 1228 1600 
Q 1228 678 1972 678 
Q 2681 678 2681 1625 
Q 2681 2522 1966 2522 
z
" transform="scale(0.015625)"/>
      <path id="SegoeUI-Bold-73" d="M 206 84 
L 206 884 
Q 450 738 692 666 
Q 934 594 1150 594 
Q 1413 594 1564 666 
Q 1716 738 1716 884 
Q 1716 978 1647 1040 
Q 1578 1103 1470 1150 
Q 1363 1197 1234 1234 
Q 1106 1272 988 1319 
Q 797 1391 651 1473 
Q 506 1556 407 1665 
Q 309 1775 257 1919 
Q 206 2063 206 2259 
Q 206 2528 323 2722 
Q 441 2916 636 3039 
Q 831 3163 1082 3220 
Q 1334 3278 1606 3278 
Q 1819 3278 2037 3245 
Q 2256 3213 2469 3150 
L 2469 2388 
Q 2281 2497 2067 2551 
Q 1853 2606 1647 2606 
Q 1550 2606 1464 2589 
Q 1378 2572 1312 2539 
Q 1247 2506 1209 2454 
Q 1172 2403 1172 2338 
Q 1172 2250 1228 2187 
Q 1284 2125 1375 2079 
Q 1466 2034 1577 1998 
Q 1688 1963 1797 1925 
Q 1994 1856 2153 1775 
Q 2313 1694 2427 1584 
Q 2541 1475 2602 1328 
Q 2663 1181 2663 978 
Q 2663 694 2539 492 
Q 2416 291 2211 164 
Q 2006 38 1739 -20 
Q 1472 -78 1184 -78 
Q 656 -78 206 84 
z
" transform="scale(0.015625)"/>
      <path id="SegoeUI-Bold-69" d="M 916 3706 
Q 666 3706 506 3854 
Q 347 4003 347 4219 
Q 347 4441 506 4581 
Q 666 4722 916 4722 
Q 1169 4722 1326 4581 
Q 1484 4441 1484 4219 
Q 1484 3994 1326 3850 
Q 1169 3706 916 3706 
z
M 1403 0 
L 416 0 
L 416 3200 
L 1403 3200 
L 1403 0 
z
" transform="scale(0.015625)"/>
     </defs>
     <use xlink:href="#SegoeUI-Bold-45"/>
     <use xlink:href="#SegoeUI-Bold-6c" x="53.222656"/>
     <use xlink:href="#SegoeUI-Bold-65" x="81.640625"/>
     <use xlink:href="#SegoeUI-Bold-6d" x="135.742188"/>
     <use xlink:href="#SegoeUI-Bold-65" x="227.34375"/>
     <use xlink:href="#SegoeUI-Bold-6e" x="281.445312"/>
     <use xlink:href="#SegoeUI-Bold-74" x="341.943359"/>
     <use xlink:href="#SegoeUI-Bold-6f" x="380.484375"/>
     <use xlink:href="#SegoeUI-Bold-73" x="441.617188"/>
     <use xlink:href="#SegoeUI-Bold-20" x="485.611328"/>
     <use xlink:href="#SegoeUI-Bold-64" x="513.199219"/>
     <use xlink:href="#SegoeUI-Bold-65" x="575.113281"/>
     <use xlink:href="#SegoeUI-Bold-6c" x="629.214844"/>
     <use xlink:href="#SegoeUI-Bold-20" x="657.632812"/>
     <use xlink:href="#SegoeUI-Bold-50" x="685.220703"/>
     <use xlink:href="#SegoeUI-Bold-6c" x="746.646484"/>
     <use xlink:href="#SegoeUI-Bold-61" x="775.064453"/>
     <use xlink:href="#SegoeUI-Bold-6e" x="828.873047"/>
     <use xlink:href="#SegoeUI-Bold-6f" x="889.371094"/>
     <use xlink:href="#SegoeUI-Bold-20" x="950.503906"/>
     <use xlink:href="#SegoeUI-Bold-43" x="978.091797"/>
     <use xlink:href="#SegoeUI-Bold-61" x="1040.494141"/>
     <use xlink:href="#SegoeUI-Bold-72" x="1094.302734"/>
     <use xlink:href="#SegoeUI-Bold-74" x="1136.972656"/>
     <use xlink:href="#SegoeUI-Bold-65" x="1175.513672"/>
     <use xlink:href="#SegoeUI-Bold-73" x="1229.615234"/>
     <use xlink:href="#SegoeUI-Bold-69" x="1273.609375"/>
     <use xlink:href="#SegoeUI-Bold-61" x="1302.027344"/>
     <use xlink:href="#SegoeUI-Bold-6e" x="1355.835938"/>
     <use xlink:href="#SegoeUI-Bold-6f" x="1416.333984"/>
    </g>
   </g>
   <g id="text_43">
    <!-- Eje x (abscisas): -->
    <g style="fill: #374151" transform="translate(546.482962 130.947055) scale(0.09 -0.09)">
     <defs>
      <path id="SegoeUI-Bold-6a" d="M 916 3706 
Q 666 3706 506 3854 
Q 347 4003 347 4219 
Q 347 4441 506 4581 
Q 666 4722 916 4722 
Q 1169 4722 1326 4581 
Q 1484 4441 1484 4219 
Q 1484 3994 1326 3850 
Q 1169 3706 916 3706 
z
M 1403 56 
Q 1403 -653 1056 -1078 
Q 709 -1503 56 -1503 
Q -159 -1503 -416 -1409 
L -416 -634 
Q -209 -750 -50 -750 
Q 416 -750 416 -19 
L 416 3200 
L 1403 3200 
L 1403 56 
z
" transform="scale(0.015625)"/>
      <path id="SegoeUI-Bold-62" d="M 1416 372 
L 1403 372 
L 1403 0 
L 416 0 
L 416 4738 
L 1403 4738 
L 1403 2719 
L 1416 2719 
Q 1781 3278 2456 3278 
Q 3075 3278 3409 2853 
Q 3744 2428 3744 1691 
Q 3744 891 3353 406 
Q 2963 -78 2309 -78 
Q 1719 -78 1416 372 
z
M 1388 1722 
L 1388 1394 
Q 1388 1084 1566 881 
Q 1744 678 2022 678 
Q 2359 678 2545 939 
Q 2731 1200 2731 1678 
Q 2731 2075 2561 2298 
Q 2391 2522 2075 2522 
Q 1778 2522 1583 2300 
Q 1388 2078 1388 1722 
z
" transform="scale(0.015625)"/>
      <path id="SegoeUI-Bold-63" d="M 2841 116 
Q 2506 -78 1875 -78 
Q 1138 -78 681 369 
Q 225 816 225 1522 
Q 225 2338 714 2808 
Q 1203 3278 2022 3278 
Q 2588 3278 2841 3128 
L 2841 2291 
Q 2531 2522 2150 2522 
Q 1725 2522 1476 2273 
Q 1228 2025 1228 1588 
Q 1228 1163 1465 920 
Q 1703 678 2119 678 
Q 2488 678 2841 909 
L 2841 116 
z
" transform="scale(0.015625)"/>
      <path id="SegoeUI-Bold-3a" d="M 856 2209 
Q 613 2209 450 2357 
Q 288 2506 288 2725 
Q 288 2950 455 3094 
Q 622 3238 872 3238 
Q 1125 3238 1286 3092 
Q 1447 2947 1447 2725 
Q 1447 2497 1283 2353 
Q 1119 2209 856 2209 
z
M 856 -78 
Q 613 -78 450 72 
Q 288 222 288 441 
Q 288 666 455 809 
Q 622 953 872 953 
Q 1125 953 1286 808 
Q 1447 663 1447 441 
Q 1447 213 1283 67 
Q 1119 -78 856 -78 
z
" transform="scale(0.015625)"/>
     </defs>
     <use xlink:href="#SegoeUI-Bold-45"/>
     <use xlink:href="#SegoeUI-Bold-6a" x="53.222656"/>
     <use xlink:href="#SegoeUI-Bold-65" x="81.640625"/>
     <use xlink:href="#SegoeUI-Bold-20" x="135.742188"/>
     <use xlink:href="#SegoeUI-Bold-78" x="163.330078"/>
     <use xlink:href="#SegoeUI-Bold-20" x="218.554688"/>
     <use xlink:href="#SegoeUI-Bold-28" x="246.142578"/>
     <use xlink:href="#SegoeUI-Bold-61" x="283.056641"/>
     <use xlink:href="#SegoeUI-Bold-62" x="336.865234"/>
     <use xlink:href="#SegoeUI-Bold-73" x="398.876953"/>
     <use xlink:href="#SegoeUI-Bold-63" x="442.871094"/>
     <use xlink:href="#SegoeUI-Bold-69" x="490.869141"/>
     <use xlink:href="#SegoeUI-Bold-73" x="519.287109"/>
     <use xlink:href="#SegoeUI-Bold-61" x="563.28125"/>
     <use xlink:href="#SegoeUI-Bold-73" x="617.089844"/>
     <use xlink:href="#SegoeUI-Bold-29" x="661.083984"/>
     <use xlink:href="#SegoeUI-Bold-3a" x="697.998047"/>
    </g>
   </g>
   <g id="text_44">
    <!-- Recta horizontal -->
    <g style="fill: #6b7280" transform="translate(674.662447 130.947055) scale(0.09 -0.09)">
     <defs>
      <path id="SegoeUI-52" d="M 3800 0 
L 3175 0 
L 2425 1256 
Q 2322 1431 2225 1554 
Q 2128 1678 2026 1756 
Q 1925 1834 1808 1870 
Q 1691 1906 1544 1906 
L 1113 1906 
L 1113 0 
L 588 0 
L 588 4481 
L 1925 4481 
Q 2219 4481 2467 4407 
Q 2716 4334 2898 4184 
Q 3081 4034 3184 3811 
Q 3288 3588 3288 3288 
Q 3288 3053 3217 2858 
Q 3147 2663 3017 2509 
Q 2888 2356 2705 2248 
Q 2522 2141 2294 2081 
L 2294 2069 
Q 2406 2019 2489 1955 
Q 2572 1891 2647 1803 
Q 2722 1716 2795 1605 
Q 2869 1494 2959 1347 
L 3800 0 
z
M 1113 4006 
L 1113 2381 
L 1825 2381 
Q 2022 2381 2189 2440 
Q 2356 2500 2478 2611 
Q 2600 2722 2669 2883 
Q 2738 3044 2738 3244 
Q 2738 3603 2505 3804 
Q 2272 4006 1831 4006 
L 1113 4006 
z
" transform="scale(0.015625)"/>
      <path id="SegoeUI-65" d="M 3091 1472 
L 831 1472 
Q 844 938 1119 647 
Q 1394 356 1875 356 
Q 2416 356 2869 713 
L 2869 231 
Q 2447 -75 1753 -75 
Q 1075 -75 687 361 
Q 300 797 300 1588 
Q 300 2334 723 2804 
Q 1147 3275 1775 3275 
Q 2403 3275 2747 2869 
Q 3091 2463 3091 1741 
L 3091 1472 
z
M 2566 1906 
Q 2563 2350 2352 2597 
Q 2141 2844 1766 2844 
Q 1403 2844 1150 2584 
Q 897 2325 838 1906 
L 2566 1906 
z
" transform="scale(0.015625)"/>
      <path id="SegoeUI-63" d="M 2700 147 
Q 2331 -75 1825 -75 
Q 1141 -75 720 370 
Q 300 816 300 1525 
Q 300 2316 753 2795 
Q 1206 3275 1963 3275 
Q 2384 3275 2706 3119 
L 2706 2594 
Q 2350 2844 1944 2844 
Q 1453 2844 1139 2492 
Q 825 2141 825 1569 
Q 825 1006 1120 681 
Q 1416 356 1913 356 
Q 2331 356 2700 634 
L 2700 147 
z
" transform="scale(0.015625)"/>
      <path id="SegoeUI-74" d="M 2003 31 
Q 1822 -69 1525 -69 
Q 684 -69 684 869 
L 684 2763 
L 134 2763 
L 134 3200 
L 684 3200 
L 684 3981 
L 1197 4147 
L 1197 3200 
L 2003 3200 
L 2003 2763 
L 1197 2763 
L 1197 959 
Q 1197 638 1306 500 
Q 1416 363 1669 363 
Q 1863 363 2003 469 
L 2003 31 
z
" transform="scale(0.015625)"/>
      <path id="SegoeUI-61" d="M 2809 0 
L 2297 0 
L 2297 500 
L 2284 500 
Q 1950 -75 1300 -75 
Q 822 -75 551 178 
Q 281 431 281 850 
Q 281 1747 1338 1894 
L 2297 2028 
Q 2297 2844 1638 2844 
Q 1059 2844 594 2450 
L 594 2975 
Q 1066 3275 1681 3275 
Q 2809 3275 2809 2081 
L 2809 0 
z
M 2297 1619 
L 1525 1513 
Q 1169 1463 987 1336 
Q 806 1209 806 888 
Q 806 653 973 504 
Q 1141 356 1419 356 
Q 1800 356 2048 623 
Q 2297 891 2297 1300 
L 2297 1619 
z
" transform="scale(0.015625)"/>
      <path id="SegoeUI-68" d="M 3175 0 
L 2663 0 
L 2663 1844 
Q 2663 2844 1919 2844 
Q 1544 2844 1287 2555 
Q 1031 2266 1031 1813 
L 1031 0 
L 519 0 
L 519 4738 
L 1031 4738 
L 1031 2669 
L 1044 2669 
Q 1413 3275 2094 3275 
Q 3175 3275 3175 1972 
L 3175 0 
z
" transform="scale(0.015625)"/>
      <path id="SegoeUI-6f" d="M 1856 -75 
Q 1147 -75 723 373 
Q 300 822 300 1563 
Q 300 2369 740 2822 
Q 1181 3275 1931 3275 
Q 2647 3275 3048 2834 
Q 3450 2394 3450 1613 
Q 3450 847 3017 386 
Q 2584 -75 1856 -75 
z
M 1894 2844 
Q 1400 2844 1112 2508 
Q 825 2172 825 1581 
Q 825 1013 1115 684 
Q 1406 356 1894 356 
Q 2391 356 2658 678 
Q 2925 1000 2925 1594 
Q 2925 2194 2658 2519 
Q 2391 2844 1894 2844 
z
" transform="scale(0.015625)"/>
      <path id="SegoeUI-72" d="M 2188 2681 
Q 2053 2784 1800 2784 
Q 1472 2784 1251 2475 
Q 1031 2166 1031 1631 
L 1031 0 
L 519 0 
L 519 3200 
L 1031 3200 
L 1031 2541 
L 1044 2541 
Q 1153 2878 1378 3067 
Q 1603 3256 1881 3256 
Q 2081 3256 2188 3213 
L 2188 2681 
z
" transform="scale(0.015625)"/>
      <path id="SegoeUI-69" d="M 781 4013 
Q 644 4013 547 4106 
Q 450 4200 450 4344 
Q 450 4488 547 4583 
Q 644 4678 781 4678 
Q 922 4678 1020 4583 
Q 1119 4488 1119 4344 
Q 1119 4206 1020 4109 
Q 922 4013 781 4013 
z
M 1031 0 
L 519 0 
L 519 3200 
L 1031 3200 
L 1031 0 
z
" transform="scale(0.015625)"/>
      <path id="SegoeUI-7a" d="M 2750 3053 
L 856 438 
L 2731 438 
L 2731 0 
L 103 0 
L 103 159 
L 1997 2763 
L 281 2763 
L 281 3200 
L 2750 3200 
L 2750 3053 
z
" transform="scale(0.015625)"/>
      <path id="SegoeUI-6e" d="M 3175 0 
L 2663 0 
L 2663 1825 
Q 2663 2844 1919 2844 
Q 1534 2844 1282 2555 
Q 1031 2266 1031 1825 
L 1031 0 
L 519 0 
L 519 3200 
L 1031 3200 
L 1031 2669 
L 1044 2669 
Q 1406 3275 2094 3275 
Q 2619 3275 2897 2936 
Q 3175 2597 3175 1956 
L 3175 0 
z
" transform="scale(0.015625)"/>
      <path id="SegoeUI-6c" d="M 1031 0 
L 519 0 
L 519 4738 
L 1031 4738 
L 1031 0 
z
" transform="scale(0.015625)"/>
     </defs>
     <use xlink:href="#SegoeUI-52"/>
     <use xlink:href="#SegoeUI-65" x="57.064453"/>
     <use xlink:href="#SegoeUI-63" x="109.359375"/>
     <use xlink:href="#SegoeUI-74" x="155.550781"/>
     <use xlink:href="#SegoeUI-61" x="189.4375"/>
     <use xlink:href="#SegoeUI-20" x="240.316406"/>
     <use xlink:href="#SegoeUI-68" x="267.708984"/>
     <use xlink:href="#SegoeUI-6f" x="324.300781"/>
     <use xlink:href="#SegoeUI-72" x="382.894531"/>
     <use xlink:href="#SegoeUI-69" x="417.660156"/>
     <use xlink:href="#SegoeUI-7a" x="441.878906"/>
     <use xlink:href="#SegoeUI-6f" x="487.09375"/>
     <use xlink:href="#SegoeUI-6e" x="545.6875"/>
     <use xlink:href="#SegoeUI-74" x="602.279297"/>
     <use xlink:href="#SegoeUI-61" x="636.166016"/>
     <use xlink:href="#SegoeUI-6c" x="687.044922"/>
    </g>
   </g>
   <g id="text_45">
    <!-- Eje y (ordenadas): -->
    <g style="fill: #374151" transform="translate(546.482962 169.139861) scale(0.09 -0.09)">
     <use xlink:href="#SegoeUI-Bold-45"/>
     <use xlink:href="#SegoeUI-Bold-6a" x="53.222656"/>
     <use xlink:href="#SegoeUI-Bold-65" x="81.640625"/>
     <use xlink:href="#SegoeUI-Bold-20" x="135.742188"/>
     <use xlink:href="#SegoeUI-Bold-79" x="163.330078"/>
     <use xlink:href="#SegoeUI-Bold-20" x="217.138672"/>
     <use xlink:href="#SegoeUI-Bold-28" x="244.726562"/>
     <use xlink:href="#SegoeUI-Bold-6f" x="281.640625"/>
     <use xlink:href="#SegoeUI-Bold-72" x="342.773438"/>
     <use xlink:href="#SegoeUI-Bold-64" x="382.193359"/>
     <use xlink:href="#SegoeUI-Bold-65" x="444.107422"/>
     <use xlink:href="#SegoeUI-Bold-6e" x="498.208984"/>
     <use xlink:href="#SegoeUI-Bold-61" x="558.707031"/>
     <use xlink:href="#SegoeUI-Bold-64" x="612.515625"/>
     <use xlink:href="#SegoeUI-Bold-61" x="674.429688"/>
     <use xlink:href="#SegoeUI-Bold-73" x="728.238281"/>
     <use xlink:href="#SegoeUI-Bold-29" x="772.232422"/>
     <use xlink:href="#SegoeUI-Bold-3a" x="809.146484"/>
    </g>
   </g>
   <g id="text_46">
    <!-- Recta vertical -->
    <g style="fill: #6b7280" transform="translate(674.662447 169.139861) scale(0.09 -0.09)">
     <defs>
      <path id="SegoeUI-76" d="M 3034 3200 
L 1759 0 
L 1256 0 
L 44 3200 
L 606 3200 
L 1419 875 
Q 1509 619 1531 428 
L 1544 428 
Q 1575 669 1644 863 
L 2494 3200 
L 3034 3200 
z
" transform="scale(0.015625)"/>
     </defs>
     <use xlink:href="#SegoeUI-52"/>
     <use xlink:href="#SegoeUI-65" x="57.064453"/>
     <use xlink:href="#SegoeUI-63" x="109.359375"/>
     <use xlink:href="#SegoeUI-74" x="155.550781"/>
     <use xlink:href="#SegoeUI-61" x="189.4375"/>
     <use xlink:href="#SegoeUI-20" x="240.316406"/>
     <use xlink:href="#SegoeUI-76" x="267.708984"/>
     <use xlink:href="#SegoeUI-65" x="314.984375"/>
     <use xlink:href="#SegoeUI-72" x="367.279297"/>
     <use xlink:href="#SegoeUI-74" x="404.919922"/>
     <use xlink:href="#SegoeUI-69" x="438.806641"/>
     <use xlink:href="#SegoeUI-63" x="463.025391"/>
     <use xlink:href="#SegoeUI-61" x="509.216797"/>
     <use xlink:href="#SegoeUI-6c" x="560.095703"/>
    </g>
   </g>
   <g id="text_47">
    <!-- Origen O: -->
    <g style="fill: #374151" transform="translate(546.482962 207.332668) scale(0.09 -0.09)">
     <defs>
      <path id="SegoeUI-Bold-67" d="M 3553 366 
Q 3553 -525 3037 -1014 
Q 2522 -1503 1544 -1503 
Q 897 -1503 519 -1319 
L 519 -488 
Q 1013 -775 1516 -775 
Q 2016 -775 2291 -511 
Q 2566 -247 2566 206 
L 2566 459 
L 2553 459 
Q 2216 -78 1556 -78 
Q 944 -78 584 353 
Q 225 784 225 1509 
Q 225 2322 625 2800 
Q 1025 3278 1678 3278 
Q 2263 3278 2553 2828 
L 2566 2828 
L 2566 3200 
L 3553 3200 
L 3553 366 
z
M 2578 1538 
L 2578 1791 
Q 2578 2094 2398 2308 
Q 2219 2522 1931 2522 
Q 1603 2522 1415 2265 
Q 1228 2009 1228 1544 
Q 1228 1144 1406 911 
Q 1584 678 1894 678 
Q 2200 678 2389 914 
Q 2578 1150 2578 1538 
z
" transform="scale(0.015625)"/>
     </defs>
     <use xlink:href="#SegoeUI-Bold-4f"/>
     <use xlink:href="#SegoeUI-Bold-72" x="75.830078"/>
     <use xlink:href="#SegoeUI-Bold-69" x="116"/>
     <use xlink:href="#SegoeUI-Bold-67" x="144.417969"/>
     <use xlink:href="#SegoeUI-Bold-65" x="206.332031"/>
     <use xlink:href="#SegoeUI-Bold-6e" x="260.433594"/>
     <use xlink:href="#SegoeUI-Bold-20" x="320.931641"/>
     <use xlink:href="#SegoeUI-Bold-4f" x="348.519531"/>
     <use xlink:href="#SegoeUI-Bold-3a" x="424.349609"/>
    </g>
   </g>
   <g id="text_48">
    <!-- Punto de intersección (0, 0) -->
    <g style="fill: #6b7280" transform="translate(674.662447 207.332668) scale(0.09 -0.09)">
     <defs>
      <path id="SegoeUI-50" d="M 1113 1694 
L 1113 0 
L 588 0 
L 588 4481 
L 1819 4481 
Q 2538 4481 2933 4131 
Q 3328 3781 3328 3144 
Q 3328 2506 2889 2100 
Q 2450 1694 1703 1694 
L 1113 1694 
z
M 1113 4006 
L 1113 2169 
L 1663 2169 
Q 2206 2169 2492 2417 
Q 2778 2666 2778 3119 
Q 2778 4006 1728 4006 
L 1113 4006 
z
" transform="scale(0.015625)"/>
      <path id="SegoeUI-75" d="M 3106 0 
L 2594 0 
L 2594 506 
L 2581 506 
Q 2263 -75 1594 -75 
Q 450 -75 450 1288 
L 450 3200 
L 959 3200 
L 959 1369 
Q 959 356 1734 356 
Q 2109 356 2351 632 
Q 2594 909 2594 1356 
L 2594 3200 
L 3106 3200 
L 3106 0 
z
" transform="scale(0.015625)"/>
      <path id="SegoeUI-64" d="M 3250 0 
L 2738 0 
L 2738 544 
L 2725 544 
Q 2369 -75 1625 -75 
Q 1022 -75 661 354 
Q 300 784 300 1525 
Q 300 2319 700 2797 
Q 1100 3275 1766 3275 
Q 2425 3275 2725 2756 
L 2738 2756 
L 2738 4738 
L 3250 4738 
L 3250 0 
z
M 2738 1447 
L 2738 1919 
Q 2738 2306 2481 2575 
Q 2225 2844 1831 2844 
Q 1363 2844 1094 2500 
Q 825 2156 825 1550 
Q 825 997 1083 676 
Q 1341 356 1775 356 
Q 2203 356 2470 665 
Q 2738 975 2738 1447 
z
" transform="scale(0.015625)"/>
      <path id="SegoeUI-73" d="M 325 116 
L 325 666 
Q 744 356 1247 356 
Q 1922 356 1922 806 
Q 1922 934 1864 1023 
Q 1806 1113 1707 1181 
Q 1609 1250 1476 1304 
Q 1344 1359 1191 1419 
Q 978 1503 817 1589 
Q 656 1675 548 1783 
Q 441 1891 386 2028 
Q 331 2166 331 2350 
Q 331 2575 434 2748 
Q 538 2922 709 3039 
Q 881 3156 1101 3215 
Q 1322 3275 1556 3275 
Q 1972 3275 2300 3131 
L 2300 2613 
Q 1947 2844 1488 2844 
Q 1344 2844 1228 2811 
Q 1113 2778 1030 2718 
Q 947 2659 901 2576 
Q 856 2494 856 2394 
Q 856 2269 901 2184 
Q 947 2100 1034 2034 
Q 1122 1969 1247 1916 
Q 1372 1863 1531 1800 
Q 1744 1719 1912 1633 
Q 2081 1547 2200 1439 
Q 2319 1331 2383 1190 
Q 2447 1050 2447 856 
Q 2447 619 2342 444 
Q 2238 269 2063 153 
Q 1888 38 1659 -18 
Q 1431 -75 1181 -75 
Q 688 -75 325 116 
z
" transform="scale(0.015625)"/>
      <path id="SegoeUI-f3" d="M 1856 -75 
Q 1147 -75 723 373 
Q 300 822 300 1563 
Q 300 2369 740 2822 
Q 1181 3275 1931 3275 
Q 2647 3275 3048 2834 
Q 3450 2394 3450 1613 
Q 3450 847 3017 386 
Q 2584 -75 1856 -75 
z
M 1894 2844 
Q 1400 2844 1112 2508 
Q 825 2172 825 1581 
Q 825 1013 1115 684 
Q 1406 356 1894 356 
Q 2391 356 2658 678 
Q 2925 1000 2925 1594 
Q 2925 2194 2658 2519 
Q 2391 2844 1894 2844 
z
M 2646 4831 
L 1827 3806 
L 1430 3806 
L 2127 4831 
L 2646 4831 
z
" transform="scale(0.015625)"/>
     </defs>
     <use xlink:href="#SegoeUI-50"/>
     <use xlink:href="#SegoeUI-75" x="56.005859"/>
     <use xlink:href="#SegoeUI-6e" x="112.597656"/>
     <use xlink:href="#SegoeUI-74" x="169.189453"/>
     <use xlink:href="#SegoeUI-6f" x="202.326172"/>
     <use xlink:href="#SegoeUI-20" x="260.919922"/>
     <use xlink:href="#SegoeUI-64" x="288.3125"/>
     <use xlink:href="#SegoeUI-65" x="347.199219"/>
     <use xlink:href="#SegoeUI-20" x="399.494141"/>
     <use xlink:href="#SegoeUI-69" x="426.886719"/>
     <use xlink:href="#SegoeUI-6e" x="451.105469"/>
     <use xlink:href="#SegoeUI-74" x="507.697266"/>
     <use xlink:href="#SegoeUI-65" x="540.833984"/>
     <use xlink:href="#SegoeUI-72" x="593.128906"/>
     <use xlink:href="#SegoeUI-73" x="628.519531"/>
     <use xlink:href="#SegoeUI-65" x="670.951172"/>
     <use xlink:href="#SegoeUI-63" x="723.246094"/>
     <use xlink:href="#SegoeUI-63" x="769.4375"/>
     <use xlink:href="#SegoeUI-69" x="815.628906"/>
     <use xlink:href="#SegoeUI-f3" x="839.847656"/>
     <use xlink:href="#SegoeUI-6e" x="898.441406"/>
     <use xlink:href="#SegoeUI-20" x="955.033203"/>
     <use xlink:href="#SegoeUI-28" x="982.425781"/>
     <use xlink:href="#SegoeUI-30" x="1012.601562"/>
     <use xlink:href="#SegoeUI-2c" x="1066.507812"/>
     <use xlink:href="#SegoeUI-20" x="1088.1875"/>
     <use xlink:href="#SegoeUI-30" x="1115.580078"/>
     <use xlink:href="#SegoeUI-29" x="1169.486328"/>
    </g>
   </g>
   <g id="text_49">
    <!-- Coordenadas P(x, y): -->
    <g style="fill: #374151" transform="translate(546.482962 245.525474) scale(0.09 -0.09)">
     <use xlink:href="#SegoeUI-Bold-43"/>
     <use xlink:href="#SegoeUI-Bold-6f" x="62.402344"/>
     <use xlink:href="#SegoeUI-Bold-6f" x="123.535156"/>
     <use xlink:href="#SegoeUI-Bold-72" x="184.667969"/>
     <use xlink:href="#SegoeUI-Bold-64" x="224.087891"/>
     <use xlink:href="#SegoeUI-Bold-65" x="286.001953"/>
     <use xlink:href="#SegoeUI-Bold-6e" x="340.103516"/>
     <use xlink:href="#SegoeUI-Bold-61" x="400.601562"/>
     <use xlink:href="#SegoeUI-Bold-64" x="454.410156"/>
     <use xlink:href="#SegoeUI-Bold-61" x="516.324219"/>
     <use xlink:href="#SegoeUI-Bold-73" x="570.132812"/>
     <use xlink:href="#SegoeUI-Bold-20" x="614.126953"/>
     <use xlink:href="#SegoeUI-Bold-50" x="641.714844"/>
     <use xlink:href="#SegoeUI-Bold-28" x="703.140625"/>
     <use xlink:href="#SegoeUI-Bold-78" x="740.054688"/>
     <use xlink:href="#SegoeUI-Bold-2c" x="795.279297"/>
     <use xlink:href="#SegoeUI-Bold-20" x="822.378906"/>
     <use xlink:href="#SegoeUI-Bold-79" x="849.966797"/>
     <use xlink:href="#SegoeUI-Bold-29" x="903.775391"/>
     <use xlink:href="#SegoeUI-Bold-3a" x="940.689453"/>
    </g>
   </g>
   <g id="text_50">
    <!-- Par ordenado -->
    <g style="fill: #6b7280" transform="translate(674.662447 245.525474) scale(0.09 -0.09)">
     <use xlink:href="#SegoeUI-50"/>
     <use xlink:href="#SegoeUI-61" x="52.755859"/>
     <use xlink:href="#SegoeUI-72" x="103.634766"/>
     <use xlink:href="#SegoeUI-20" x="138.400391"/>
     <use xlink:href="#SegoeUI-6f" x="165.792969"/>
     <use xlink:href="#SegoeUI-72" x="224.386719"/>
     <use xlink:href="#SegoeUI-64" x="257.777344"/>
     <use xlink:href="#SegoeUI-65" x="316.664062"/>
     <use xlink:href="#SegoeUI-6e" x="368.958984"/>
     <use xlink:href="#SegoeUI-61" x="425.550781"/>
     <use xlink:href="#SegoeUI-64" x="476.429688"/>
     <use xlink:href="#SegoeUI-6f" x="535.316406"/>
    </g>
   </g>
   <g id="text_51">
    <!-- Signos por Cuadrante -->
    <g style="fill: #f59e0b" transform="translate(636.126343 332.327308) scale(0.11 -0.11)">
     <defs>
      <path id="SegoeUI-Bold-70" d="M 1416 372 
L 1403 372 
L 1403 -1472 
L 416 -1472 
L 416 3200 
L 1403 3200 
L 1403 2719 
L 1416 2719 
Q 1781 3278 2444 3278 
Q 3066 3278 3405 2851 
Q 3744 2425 3744 1691 
Q 3744 891 3348 406 
Q 2953 -78 2297 -78 
Q 1719 -78 1416 372 
z
M 1388 1684 
L 1388 1428 
Q 1388 1097 1563 887 
Q 1738 678 2022 678 
Q 2359 678 2545 939 
Q 2731 1200 2731 1678 
Q 2731 2522 2075 2522 
Q 1772 2522 1580 2292 
Q 1388 2063 1388 1684 
z
" transform="scale(0.015625)"/>
     </defs>
     <use xlink:href="#SegoeUI-Bold-53"/>
     <use xlink:href="#SegoeUI-Bold-69" x="56.054688"/>
     <use xlink:href="#SegoeUI-Bold-67" x="84.472656"/>
     <use xlink:href="#SegoeUI-Bold-6e" x="146.386719"/>
     <use xlink:href="#SegoeUI-Bold-6f" x="206.884766"/>
     <use xlink:href="#SegoeUI-Bold-73" x="268.017578"/>
     <use xlink:href="#SegoeUI-Bold-20" x="312.011719"/>
     <use xlink:href="#SegoeUI-Bold-70" x="339.599609"/>
     <use xlink:href="#SegoeUI-Bold-6f" x="401.611328"/>
     <use xlink:href="#SegoeUI-Bold-72" x="462.744141"/>
     <use xlink:href="#SegoeUI-Bold-20" x="502.539062"/>
     <use xlink:href="#SegoeUI-Bold-43" x="530.126953"/>
     <use xlink:href="#SegoeUI-Bold-75" x="592.529297"/>
     <use xlink:href="#SegoeUI-Bold-61" x="653.027344"/>
     <use xlink:href="#SegoeUI-Bold-64" x="706.835938"/>
     <use xlink:href="#SegoeUI-Bold-72" x="768.75"/>
     <use xlink:href="#SegoeUI-Bold-61" x="808.544922"/>
     <use xlink:href="#SegoeUI-Bold-6e" x="862.353516"/>
     <use xlink:href="#SegoeUI-Bold-74" x="922.851562"/>
     <use xlink:href="#SegoeUI-Bold-65" x="961.392578"/>
    </g>
   </g>
   <g id="text_52">
    <!-- I: -->
    <g style="fill: #e12885" transform="translate(553.411583 387.880481) scale(0.1 -0.1)">
     <use xlink:href="#SegoeUI-Bold-49"/>
     <use xlink:href="#SegoeUI-Bold-3a" x="31.689453"/>
    </g>
   </g>
   <g id="text_53">
    <!-- (+, +) -->
    <g style="fill: #374151" transform="translate(605.376239 387.880481) scale(0.1 -0.1)">
     <use xlink:href="#SegoeUI-28"/>
     <use xlink:href="#SegoeUI-2b" x="30.175781"/>
     <use xlink:href="#SegoeUI-2c" x="98.583984"/>
     <use xlink:href="#SegoeUI-20" x="120.263672"/>
     <use xlink:href="#SegoeUI-2b" x="147.65625"/>
     <use xlink:href="#SegoeUI-29" x="216.064453"/>
    </g>
   </g>
   <g id="text_54">
    <!-- x &gt; 0, y &gt; 0 -->
    <g style="fill: #6b7280" transform="translate(691.983999 387.880481) scale(0.09 -0.09)">
     <defs>
      <path id="SegoeUI-78" d="M 2856 3200 
L 1781 1581 
L 2838 0 
L 2241 0 
L 1613 1038 
Q 1553 1134 1472 1281 
L 1459 1281 
Q 1444 1253 1313 1038 
L 672 0 
L 81 0 
L 1172 1569 
L 128 3200 
L 725 3200 
L 1344 2106 
Q 1413 1984 1478 1856 
L 1491 1856 
L 2291 3200 
L 2856 3200 
z
" transform="scale(0.015625)"/>
      <path id="SegoeUI-3e" d="M 3538 1747 
L 850 397 
L 850 863 
L 2863 1838 
L 2863 1856 
L 850 2969 
L 850 3438 
L 3538 1931 
L 3538 1747 
z
" transform="scale(0.015625)"/>
      <path id="SegoeUI-79" d="M 3066 3200 
L 1594 -513 
Q 1200 -1506 488 -1506 
Q 288 -1506 153 -1466 
L 153 -1006 
Q 319 -1063 456 -1063 
Q 844 -1063 1038 -600 
L 1294 6 
L 44 3200 
L 613 3200 
L 1478 738 
Q 1494 691 1544 494 
L 1563 494 
Q 1578 569 1625 731 
L 2534 3200 
L 3066 3200 
z
" transform="scale(0.015625)"/>
     </defs>
     <use xlink:href="#SegoeUI-78"/>
     <use xlink:href="#SegoeUI-20" x="45.898438"/>
     <use xlink:href="#SegoeUI-3e" x="73.291016"/>
     <use xlink:href="#SegoeUI-20" x="141.699219"/>
     <use xlink:href="#SegoeUI-30" x="169.091797"/>
     <use xlink:href="#SegoeUI-2c" x="222.998047"/>
     <use xlink:href="#SegoeUI-20" x="244.677734"/>
     <use xlink:href="#SegoeUI-79" x="272.070312"/>
     <use xlink:href="#SegoeUI-20" x="320.458984"/>
     <use xlink:href="#SegoeUI-3e" x="347.851562"/>
     <use xlink:href="#SegoeUI-20" x="416.259766"/>
     <use xlink:href="#SegoeUI-30" x="443.652344"/>
    </g>
   </g>
   <g id="text_55">
    <!-- II: -->
    <g style="fill: #4b5563" transform="translate(553.411583 426.073287) scale(0.1 -0.1)">
     <use xlink:href="#SegoeUI-Bold-49"/>
     <use xlink:href="#SegoeUI-Bold-49" x="31.689453"/>
     <use xlink:href="#SegoeUI-Bold-3a" x="63.378906"/>
    </g>
   </g>
   <g id="text_56">
    <!-- (−, +) -->
    <g style="fill: #374151" transform="translate(605.376239 426.073287) scale(0.1 -0.1)">
     <use xlink:href="#SegoeUI-28"/>
     <use xlink:href="#SegoeUI-2212" x="30.175781"/>
     <use xlink:href="#SegoeUI-2c" x="98.583984"/>
     <use xlink:href="#SegoeUI-20" x="120.263672"/>
     <use xlink:href="#SegoeUI-2b" x="147.65625"/>
     <use xlink:href="#SegoeUI-29" x="216.064453"/>
    </g>
   </g>
   <g id="text_57">
    <!-- x &lt; 0, y &gt; 0 -->
    <g style="fill: #6b7280" transform="translate(691.983999 426.073287) scale(0.09 -0.09)">
     <defs>
      <path id="SegoeUI-3c" d="M 3538 397 
L 850 1747 
L 850 1931 
L 3538 3438 
L 3538 2969 
L 1531 1856 
L 1531 1844 
L 3538 863 
L 3538 397 
z
" transform="scale(0.015625)"/>
     </defs>
     <use xlink:href="#SegoeUI-78"/>
     <use xlink:href="#SegoeUI-20" x="45.898438"/>
     <use xlink:href="#SegoeUI-3c" x="73.291016"/>
     <use xlink:href="#SegoeUI-20" x="141.699219"/>
     <use xlink:href="#SegoeUI-30" x="169.091797"/>
     <use xlink:href="#SegoeUI-2c" x="222.998047"/>
     <use xlink:href="#SegoeUI-20" x="244.677734"/>
     <use xlink:href="#SegoeUI-79" x="272.070312"/>
     <use xlink:href="#SegoeUI-20" x="320.458984"/>
     <use xlink:href="#SegoeUI-3e" x="347.851562"/>
     <use xlink:href="#SegoeUI-20" x="416.259766"/>
     <use xlink:href="#SegoeUI-30" x="443.652344"/>
    </g>
   </g>
   <g id="text_58">
    <!-- III: -->
    <g style="fill: #f59e0b" transform="translate(553.411583 464.266094) scale(0.1 -0.1)">
     <use xlink:href="#SegoeUI-Bold-49"/>
     <use xlink:href="#SegoeUI-Bold-49" x="31.689453"/>
     <use xlink:href="#SegoeUI-Bold-49" x="63.378906"/>
     <use xlink:href="#SegoeUI-Bold-3a" x="95.068359"/>
    </g>
   </g>
   <g id="text_59">
    <!-- (−, −) -->
    <g style="fill: #374151" transform="translate(605.376239 464.266094) scale(0.1 -0.1)">
     <use xlink:href="#SegoeUI-28"/>
     <use xlink:href="#SegoeUI-2212" x="30.175781"/>
     <use xlink:href="#SegoeUI-2c" x="98.583984"/>
     <use xlink:href="#SegoeUI-20" x="120.263672"/>
     <use xlink:href="#SegoeUI-2212" x="147.65625"/>
     <use xlink:href="#SegoeUI-29" x="216.064453"/>
    </g>
   </g>
   <g id="text_60">
    <!-- x &lt; 0, y &lt; 0 -->
    <g style="fill: #6b7280" transform="translate(691.983999 464.266094) scale(0.09 -0.09)">
     <use xlink:href="#SegoeUI-78"/>
     <use xlink:href="#SegoeUI-20" x="45.898438"/>
     <use xlink:href="#SegoeUI-3c" x="73.291016"/>
     <use xlink:href="#SegoeUI-20" x="141.699219"/>
     <use xlink:href="#SegoeUI-30" x="169.091797"/>
     <use xlink:href="#SegoeUI-2c" x="222.998047"/>
     <use xlink:href="#SegoeUI-20" x="244.677734"/>
     <use xlink:href="#SegoeUI-79" x="272.070312"/>
     <use xlink:href="#SegoeUI-20" x="320.458984"/>
     <use xlink:href="#SegoeUI-3c" x="347.851562"/>
     <use xlink:href="#SegoeUI-20" x="416.259766"/>
     <use xlink:href="#SegoeUI-30" x="443.652344"/>
    </g>
   </g>
   <g id="text_61">
    <!-- IV: -->
    <g style="fill: #ec4899" transform="translate(553.411583 502.458901) scale(0.1 -0.1)">
     <use xlink:href="#SegoeUI-Bold-49"/>
     <use xlink:href="#SegoeUI-Bold-56" x="31.689453"/>
     <use xlink:href="#SegoeUI-Bold-3a" x="96.388672"/>
    </g>
   </g>
   <g id="text_62">
    <!-- (+, −) -->
    <g style="fill: #374151" transform="translate(605.376239 502.458901) scale(0.1 -0.1)">
     <use xlink:href="#SegoeUI-28"/>
     <use xlink:href="#SegoeUI-2b" x="30.175781"/>
     <use xlink:href="#SegoeUI-2c" x="98.583984"/>
     <use xlink:href="#SegoeUI-20" x="120.263672"/>
     <use xlink:href="#SegoeUI-2212" x="147.65625"/>
     <use xlink:href="#SegoeUI-29" x="216.064453"/>
    </g>
   </g>
   <g id="text_63">
    <!-- x &gt; 0, y &lt; 0 -->
    <g style="fill: #6b7280" transform="translate(691.983999 502.458901) scale(0.09 -0.09)">
     <use xlink:href="#SegoeUI-78"/>
     <use xlink:href="#SegoeUI-20" x="45.898438"/>
     <use xlink:href="#SegoeUI-3e" x="73.291016"/>
     <use xlink:href="#SegoeUI-20" x="141.699219"/>
     <use xlink:href="#SegoeUI-30" x="169.091797"/>
     <use xlink:href="#SegoeUI-2c" x="222.998047"/>
     <use xlink:href="#SegoeUI-20" x="244.677734"/>
     <use xlink:href="#SegoeUI-79" x="272.070312"/>
     <use xlink:href="#SegoeUI-20" x="320.458984"/>
     <use xlink:href="#SegoeUI-3c" x="347.851562"/>
     <use xlink:href="#SegoeUI-20" x="416.259766"/>
     <use xlink:href="#SegoeUI-30" x="443.652344"/>
    </g>
   </g>
   <g id="text_64">
    <!-- Para un punto P(x, y) -->
    <g style="fill: #1f2937" transform="translate(642.393374 603.149027) scale(0.1 -0.1)">
     <use xlink:href="#SegoeUI-Bold-50"/>
     <use xlink:href="#SegoeUI-Bold-61" x="58.925781"/>
     <use xlink:href="#SegoeUI-Bold-72" x="112.734375"/>
     <use xlink:href="#SegoeUI-Bold-61" x="152.529297"/>
     <use xlink:href="#SegoeUI-Bold-20" x="206.337891"/>
     <use xlink:href="#SegoeUI-Bold-75" x="233.925781"/>
     <use xlink:href="#SegoeUI-Bold-6e" x="294.423828"/>
     <use xlink:href="#SegoeUI-Bold-20" x="354.921875"/>
     <use xlink:href="#SegoeUI-Bold-70" x="382.509766"/>
     <use xlink:href="#SegoeUI-Bold-75" x="444.521484"/>
     <use xlink:href="#SegoeUI-Bold-6e" x="505.019531"/>
     <use xlink:href="#SegoeUI-Bold-74" x="565.517578"/>
     <use xlink:href="#SegoeUI-Bold-6f" x="604.058594"/>
     <use xlink:href="#SegoeUI-Bold-20" x="665.191406"/>
     <use xlink:href="#SegoeUI-Bold-50" x="692.779297"/>
     <use xlink:href="#SegoeUI-Bold-28" x="754.205078"/>
     <use xlink:href="#SegoeUI-Bold-78" x="791.119141"/>
     <use xlink:href="#SegoeUI-Bold-2c" x="846.34375"/>
     <use xlink:href="#SegoeUI-Bold-20" x="873.443359"/>
     <use xlink:href="#SegoeUI-Bold-79" x="901.03125"/>
     <use xlink:href="#SegoeUI-Bold-29" x="954.839844"/>
    </g>
   </g>
   <g id="text_65">
    <!-- x = abscisa (distancia horizontal) -->
    <g style="fill: #374151" transform="translate(627.55314 651.758053) scale(0.09 -0.09)">
     <defs>
      <path id="SegoeUI-3d" d="M 3663 2325 
L 725 2325 
L 725 2738 
L 3663 2738 
L 3663 2325 
z
M 3663 994 
L 725 994 
L 725 1406 
L 3663 1406 
L 3663 994 
z
" transform="scale(0.015625)"/>
      <path id="SegoeUI-62" d="M 1044 463 
L 1031 463 
L 1031 0 
L 519 0 
L 519 4738 
L 1031 4738 
L 1031 2638 
L 1044 2638 
Q 1422 3275 2150 3275 
Q 2766 3275 3114 2845 
Q 3463 2416 3463 1694 
Q 3463 891 3072 408 
Q 2681 -75 2003 -75 
Q 1369 -75 1044 463 
z
M 1031 1753 
L 1031 1306 
Q 1031 909 1289 632 
Q 1547 356 1944 356 
Q 2409 356 2673 712 
Q 2938 1069 2938 1703 
Q 2938 2238 2691 2541 
Q 2444 2844 2022 2844 
Q 1575 2844 1303 2533 
Q 1031 2222 1031 1753 
z
" transform="scale(0.015625)"/>
     </defs>
     <use xlink:href="#SegoeUI-78"/>
     <use xlink:href="#SegoeUI-20" x="45.898438"/>
     <use xlink:href="#SegoeUI-3d" x="73.291016"/>
     <use xlink:href="#SegoeUI-20" x="141.699219"/>
     <use xlink:href="#SegoeUI-61" x="169.091797"/>
     <use xlink:href="#SegoeUI-62" x="219.970703"/>
     <use xlink:href="#SegoeUI-73" x="278.759766"/>
     <use xlink:href="#SegoeUI-63" x="321.191406"/>
     <use xlink:href="#SegoeUI-69" x="367.382812"/>
     <use xlink:href="#SegoeUI-73" x="391.601562"/>
     <use xlink:href="#SegoeUI-61" x="434.033203"/>
     <use xlink:href="#SegoeUI-20" x="484.912109"/>
     <use xlink:href="#SegoeUI-28" x="512.304688"/>
     <use xlink:href="#SegoeUI-64" x="542.480469"/>
     <use xlink:href="#SegoeUI-69" x="601.367188"/>
     <use xlink:href="#SegoeUI-73" x="625.585938"/>
     <use xlink:href="#SegoeUI-74" x="668.017578"/>
     <use xlink:href="#SegoeUI-61" x="701.904297"/>
     <use xlink:href="#SegoeUI-6e" x="752.783203"/>
     <use xlink:href="#SegoeUI-63" x="809.375"/>
     <use xlink:href="#SegoeUI-69" x="855.566406"/>
     <use xlink:href="#SegoeUI-61" x="879.785156"/>
     <use xlink:href="#SegoeUI-20" x="930.664062"/>
     <use xlink:href="#SegoeUI-68" x="958.056641"/>
     <use xlink:href="#SegoeUI-6f" x="1014.648438"/>
     <use xlink:href="#SegoeUI-72" x="1073.242188"/>
     <use xlink:href="#SegoeUI-69" x="1108.007812"/>
     <use xlink:href="#SegoeUI-7a" x="1132.226562"/>
     <use xlink:href="#SegoeUI-6f" x="1177.441406"/>
     <use xlink:href="#SegoeUI-6e" x="1236.035156"/>
     <use xlink:href="#SegoeUI-74" x="1292.626953"/>
     <use xlink:href="#SegoeUI-61" x="1326.513672"/>
     <use xlink:href="#SegoeUI-6c" x="1377.392578"/>
     <use xlink:href="#SegoeUI-29" x="1401.611328"/>
    </g>
   </g>
   <g id="text_66">
    <!-- y = ordenada (distancia vertical) -->
    <g style="fill: #374151" transform="translate(628.448218 686.478787) scale(0.09 -0.09)">
     <use xlink:href="#SegoeUI-79"/>
     <use xlink:href="#SegoeUI-20" x="48.388672"/>
     <use xlink:href="#SegoeUI-3d" x="75.78125"/>
     <use xlink:href="#SegoeUI-20" x="144.189453"/>
     <use xlink:href="#SegoeUI-6f" x="171.582031"/>
     <use xlink:href="#SegoeUI-72" x="230.175781"/>
     <use xlink:href="#SegoeUI-64" x="263.566406"/>
     <use xlink:href="#SegoeUI-65" x="322.453125"/>
     <use xlink:href="#SegoeUI-6e" x="374.748047"/>
     <use xlink:href="#SegoeUI-61" x="431.339844"/>
     <use xlink:href="#SegoeUI-64" x="482.21875"/>
     <use xlink:href="#SegoeUI-61" x="541.105469"/>
     <use xlink:href="#SegoeUI-20" x="591.984375"/>
     <use xlink:href="#SegoeUI-28" x="619.376953"/>
     <use xlink:href="#SegoeUI-64" x="649.552734"/>
     <use xlink:href="#SegoeUI-69" x="708.439453"/>
     <use xlink:href="#SegoeUI-73" x="732.658203"/>
     <use xlink:href="#SegoeUI-74" x="775.089844"/>
     <use xlink:href="#SegoeUI-61" x="808.976562"/>
     <use xlink:href="#SegoeUI-6e" x="859.855469"/>
     <use xlink:href="#SegoeUI-63" x="916.447266"/>
     <use xlink:href="#SegoeUI-69" x="962.638672"/>
     <use xlink:href="#SegoeUI-61" x="986.857422"/>
     <use xlink:href="#SegoeUI-20" x="1037.736328"/>
     <use xlink:href="#SegoeUI-76" x="1065.128906"/>
     <use xlink:href="#SegoeUI-65" x="1112.404297"/>
     <use xlink:href="#SegoeUI-72" x="1164.699219"/>
     <use xlink:href="#SegoeUI-74" x="1202.339844"/>
     <use xlink:href="#SegoeUI-69" x="1236.226562"/>
     <use xlink:href="#SegoeUI-63" x="1260.445312"/>
     <use xlink:href="#SegoeUI-61" x="1306.636719"/>
     <use xlink:href="#SegoeUI-6c" x="1357.515625"/>
     <use xlink:href="#SegoeUI-29" x="1381.734375"/>
    </g>
   </g>
  </g>
  <g id="text_67">
   <!-- Sistema de Coordenadas Cartesianas -->
   <g style="fill: #2c2f33" transform="translate(316.103823 17.564375) scale(0.14 -0.14)">
    <use xlink:href="#SegoeUI-Bold-53"/>
    <use xlink:href="#SegoeUI-Bold-69" x="56.054688"/>
    <use xlink:href="#SegoeUI-Bold-73" x="84.472656"/>
    <use xlink:href="#SegoeUI-Bold-74" x="128.466797"/>
    <use xlink:href="#SegoeUI-Bold-65" x="167.007812"/>
    <use xlink:href="#SegoeUI-Bold-6d" x="221.109375"/>
    <use xlink:href="#SegoeUI-Bold-61" x="312.710938"/>
    <use xlink:href="#SegoeUI-Bold-20" x="366.519531"/>
    <use xlink:href="#SegoeUI-Bold-64" x="394.107422"/>
    <use xlink:href="#SegoeUI-Bold-65" x="456.021484"/>
    <use xlink:href="#SegoeUI-Bold-20" x="510.123047"/>
    <use xlink:href="#SegoeUI-Bold-43" x="537.710938"/>
    <use xlink:href="#SegoeUI-Bold-6f" x="600.113281"/>
    <use xlink:href="#SegoeUI-Bold-6f" x="661.246094"/>
    <use xlink:href="#SegoeUI-Bold-72" x="722.378906"/>
    <use xlink:href="#SegoeUI-Bold-64" x="761.798828"/>
    <use xlink:href="#SegoeUI-Bold-65" x="823.712891"/>
    <use xlink:href="#SegoeUI-Bold-6e" x="877.814453"/>
    <use xlink:href="#SegoeUI-Bold-61" x="938.3125"/>
    <use xlink:href="#SegoeUI-Bold-64" x="992.121094"/>
    <use xlink:href="#SegoeUI-Bold-61" x="1054.035156"/>
    <use xlink:href="#SegoeUI-Bold-73" x="1107.84375"/>
    <use xlink:href="#SegoeUI-Bold-20" x="1151.837891"/>
    <use xlink:href="#SegoeUI-Bold-43" x="1179.425781"/>
    <use xlink:href="#SegoeUI-Bold-61" x="1241.828125"/>
    <use xlink:href="#SegoeUI-Bold-72" x="1295.636719"/>
    <use xlink:href="#SegoeUI-Bold-74" x="1338.306641"/>
    <use xlink:href="#SegoeUI-Bold-65" x="1376.847656"/>
    <use xlink:href="#SegoeUI-Bold-73" x="1430.949219"/>
    <use xlink:href="#SegoeUI-Bold-69" x="1474.943359"/>
    <use xlink:href="#SegoeUI-Bold-61" x="1503.361328"/>
    <use xlink:href="#SegoeUI-Bold-6e" x="1557.169922"/>
    <use xlink:href="#SegoeUI-Bold-61" x="1617.667969"/>
    <use xlink:href="#SegoeUI-Bold-73" x="1671.476562"/>
   </g>
  </g>
 </g>
 <defs>
  <clipPath id="p261dd951e6">
   <rect x="25.208125" y="148.812011" width="450.360354" height="450.360354"/>
  </clipPath>
  <clipPath id="pd53328533f">
   <rect x="518.768479" y="26.784855" width="346.431041" height="694.414665"/>
  </clipPath>
 </defs>
</svg>
