<?xml version="1.0" encoding="utf-8" standalone="no"?>
<!DOCTYPE svg PUBLIC "-//W3C//DTD SVG 1.1//EN"
  "http://www.w3.org/Graphics/SVG/1.1/DTD/svg11.dtd">
<svg xmlns:xlink="http://www.w3.org/1999/xlink" width="1002.045274pt" height="584.565892pt" viewBox="0 0 1002.045274 584.565892" xmlns="http://www.w3.org/2000/svg" version="1.1">
 <metadata>
  <rdf:RDF xmlns:dc="http://purl.org/dc/elements/1.1/" xmlns:cc="http://creativecommons.org/ns#" xmlns:rdf="http://www.w3.org/1999/02/22-rdf-syntax-ns#">
   <cc:Work>
    <dc:type rdf:resource="http://purl.org/dc/dcmitype/StillImage"/>
    <dc:date>2026-04-11T16:11:53.434564</dc:date>
    <dc:format>image/svg+xml</dc:format>
    <dc:creator>
     <cc:Agent>
      <dc:title>Matplotlib v3.8.4, https://matplotlib.org/</dc:title>
     </cc:Agent>
    </dc:creator>
   </cc:Work>
  </rdf:RDF>
 </metadata>
 <defs>
  <style type="text/css">*{stroke-linejoin: round; stroke-linecap: butt}</style>
 </defs>
 <g id="figure_1">
  <g id="patch_1">
   <path d="M 0 584.565892 
L 1002.045274 584.565892 
L 1002.045274 0 
L 0 0 
z
" style="fill: #ffffff"/>
  </g>
  <g id="patch_2">
   <path d="M 7.2 577.19952 
L 539.471227 577.19952 
L 539.471227 44.928292 
L 7.2 44.928292 
z
" style="fill: #ffffff"/>
  </g>
  <g id="pane3d_1">
   <g id="patch_3">
    <path d="M 244.95615 349.893007 
L 493.412188 426.53968 
L 503.421144 142.215547 
L 243.375113 77.706241 
" style="fill: none; opacity: 0.5; stroke: #f2f2f2; stroke-linejoin: miter"/>
   </g>
  </g>
  <g id="pane3d_2">
   <g id="patch_4">
    <path d="M 244.95615 349.893007 
L 62.488404 462.007144 
L 51.976743 172.174149 
L 243.375113 77.706241 
" style="fill: none; opacity: 0.5; stroke: #e6e6e6; stroke-linejoin: miter"/>
   </g>
  </g>
  <g id="pane3d_3">
   <g id="patch_5">
    <path d="M 244.95615 349.893007 
L 62.488404 462.007144 
L 321.280246 551.940653 
L 493.412188 426.53968 
" style="fill: none; opacity: 0.5; stroke: #ececec; stroke-linejoin: miter"/>
   </g>
  </g>
  <g id="grid3d_1">
   <g id="Line3DCollection_1">
    <path d="M 490.236105 428.853509 
L 241.574544 351.970776 
L 239.840501 79.450809 
" style="fill: none; stroke: #b0b0b0; stroke-width: 0.8"/>
    <path d="M 468.183892 444.918912 
L 218.110758 366.387692 
L 215.302099 91.562153 
" style="fill: none; stroke: #b0b0b0; stroke-width: 0.8"/>
    <path d="M 445.643206 461.340175 
L 194.155048 381.106862 
L 190.225839 103.938966 
" style="fill: none; stroke: #b0b0b0; stroke-width: 0.8"/>
    <path d="M 422.597634 478.129256 
L 169.69178 396.137892 
L 164.593843 116.590071 
" style="fill: none; stroke: #b0b0b0; stroke-width: 0.8"/>
    <path d="M 399.030021 495.298653 
L 144.704651 411.490799 
L 138.38743 129.52469 
" style="fill: none; stroke: #b0b0b0; stroke-width: 0.8"/>
    <path d="M 374.922427 512.861435 
L 119.176651 427.176035 
L 111.587071 142.752461 
" style="fill: none; stroke: #b0b0b0; stroke-width: 0.8"/>
    <path d="M 350.256077 530.83128 
L 93.090028 443.204507 
L 84.172343 156.283465 
" style="fill: none; stroke: #b0b0b0; stroke-width: 0.8"/>
    <path d="M 325.011317 549.222506 
L 66.426241 459.587608 
L 56.121876 170.128248 
" style="fill: none; stroke: #b0b0b0; stroke-width: 0.8"/>
   </g>
  </g>
  <g id="grid3d_2">
   <g id="Line3DCollection_2">
    <path d="M 248.297081 78.927228 
L 249.670104 351.347224 
L 67.376961 463.705981 
" style="fill: none; stroke: #b0b0b0; stroke-width: 0.8"/>
    <path d="M 282.340185 87.37226 
L 282.262449 361.401698 
L 101.199179 475.459639 
" style="fill: none; stroke: #b0b0b0; stroke-width: 0.8"/>
    <path d="M 316.902119 95.945997 
L 315.330045 371.602783 
L 135.555103 487.398766 
" style="fill: none; stroke: #b0b0b0; stroke-width: 0.8"/>
    <path d="M 351.994834 104.651405 
L 348.883364 381.95371 
L 170.457466 499.527788 
" style="fill: none; stroke: #b0b0b0; stroke-width: 0.8"/>
    <path d="M 387.630652 113.491539 
L 382.933187 392.457804 
L 205.919409 511.851272 
" style="fill: none; stroke: #b0b0b0; stroke-width: 0.8"/>
    <path d="M 423.82228 122.469553 
L 417.490616 403.118491 
L 241.954499 524.373931 
" style="fill: none; stroke: #b0b0b0; stroke-width: 0.8"/>
    <path d="M 460.582823 131.588697 
L 452.567088 413.939298 
L 278.576744 537.100635 
" style="fill: none; stroke: #b0b0b0; stroke-width: 0.8"/>
    <path d="M 497.925802 140.852324 
L 488.174385 424.92386 
L 315.800612 550.03641 
" style="fill: none; stroke: #b0b0b0; stroke-width: 0.8"/>
   </g>
  </g>
  <g id="grid3d_3">
   <g id="Line3DCollection_3">
    <path d="M 62.287655 456.471995 
L 244.925849 344.676487 
L 493.60355 421.103666 
" style="fill: none; stroke: #b0b0b0; stroke-width: 0.8"/>
    <path d="M 60.901071 418.240375 
L 244.716672 308.66525 
L 494.925071 383.563237 
" style="fill: none; stroke: #b0b0b0; stroke-width: 0.8"/>
    <path d="M 59.496755 379.519843 
L 244.505023 272.228357 
L 496.263088 345.554239 
" style="fill: none; stroke: #b0b0b0; stroke-width: 0.8"/>
    <path d="M 58.074365 340.30096 
L 244.290858 235.358218 
L 497.61791 307.067846 
" style="fill: none; stroke: #b0b0b0; stroke-width: 0.8"/>
    <path d="M 56.633549 300.574042 
L 244.07413 198.047057 
L 498.989856 268.095006 
" style="fill: none; stroke: #b0b0b0; stroke-width: 0.8"/>
    <path d="M 55.173948 260.329154 
L 243.854795 160.286916 
L 500.379254 228.626437 
" style="fill: none; stroke: #b0b0b0; stroke-width: 0.8"/>
    <path d="M 53.695191 219.556099 
L 243.632804 122.06964 
L 501.786437 188.65262 
" style="fill: none; stroke: #b0b0b0; stroke-width: 0.8"/>
    <path d="M 52.196899 178.244411 
L 243.40811 83.386878 
L 503.21175 148.163793 
" style="fill: none; stroke: #b0b0b0; stroke-width: 0.8"/>
   </g>
  </g>
  <g id="axis3d_1">
   <g id="line2d_1">
    <path d="M 493.412188 426.53968 
L 321.280246 551.940653 
" style="fill: none; stroke: #4b5563; stroke-width: 0.8; stroke-linecap: square"/>
   </g>
   <g id="xtick_1">
    <g id="line2d_2">
     <path d="M 488.137689 428.204708 
L 494.438513 430.152836 
" style="fill: none; stroke: #2c2f33; stroke-width: 0.8; stroke-linecap: square"/>
    </g>
    <g id="text_1">
     <!-- 0.0 -->
     <g style="fill: #2c2f33" transform="translate(494.26014 450.907017) scale(0.1 -0.1)">
      <defs>
       <path id="SegoeUI-30" d="M 3188 2259 
Q 3188 1697 3086 1262 
Q 2984 828 2792 529 
Q 2600 231 2320 76 
Q 2041 -78 1684 -78 
Q 1347 -78 1083 70 
Q 819 219 637 503 
Q 456 788 362 1202 
Q 269 1616 269 2150 
Q 269 2738 367 3188 
Q 466 3638 656 3942 
Q 847 4247 1130 4401 
Q 1413 4556 1778 4556 
Q 3188 4556 3188 2259 
z
M 2663 2209 
Q 2663 4122 1753 4122 
Q 794 4122 794 2175 
Q 794 359 1734 359 
Q 2663 359 2663 2209 
z
" transform="scale(0.015625)"/>
       <path id="SegoeUI-2e" d="M 697 -69 
Q 553 -69 451 34 
Q 350 138 350 281 
Q 350 425 451 529 
Q 553 634 697 634 
Q 844 634 947 529 
Q 1050 425 1050 281 
Q 1050 138 947 34 
Q 844 -69 697 -69 
z
" transform="scale(0.015625)"/>
      </defs>
      <use xlink:href="#SegoeUI-30"/>
      <use xlink:href="#SegoeUI-2e" x="53.90625"/>
      <use xlink:href="#SegoeUI-30" x="75.585938"/>
     </g>
    </g>
   </g>
   <g id="xtick_2">
    <g id="line2d_3">
     <path d="M 466.072363 444.255822 
L 472.412623 446.246873 
" style="fill: none; stroke: #2c2f33; stroke-width: 0.8; stroke-linecap: square"/>
    </g>
    <g id="text_2">
     <!-- 0.5 -->
     <g style="fill: #2c2f33" transform="translate(472.313412 467.139944) scale(0.1 -0.1)">
      <defs>
       <path id="SegoeUI-35" d="M 3028 1369 
Q 3028 1041 2915 775 
Q 2803 509 2595 318 
Q 2388 128 2094 25 
Q 1800 -78 1441 -78 
Q 816 -78 513 109 
L 513 653 
Q 969 359 1447 359 
Q 1691 359 1886 431 
Q 2081 503 2218 631 
Q 2356 759 2429 940 
Q 2503 1122 2503 1338 
Q 2503 1775 2209 2023 
Q 1916 2272 1356 2272 
Q 1266 2272 1166 2269 
Q 1066 2266 966 2261 
Q 866 2256 770 2250 
Q 675 2244 597 2234 
L 750 4481 
L 2822 4481 
L 2822 4019 
L 1194 4019 
L 1103 2703 
Q 1203 2709 1315 2714 
Q 1428 2719 1516 2719 
Q 1872 2719 2153 2625 
Q 2434 2531 2629 2357 
Q 2825 2184 2926 1932 
Q 3028 1681 3028 1369 
z
" transform="scale(0.015625)"/>
      </defs>
      <use xlink:href="#SegoeUI-30"/>
      <use xlink:href="#SegoeUI-2e" x="53.90625"/>
      <use xlink:href="#SegoeUI-35" x="75.585938"/>
     </g>
    </g>
   </g>
   <g id="xtick_3">
    <g id="line2d_4">
     <path d="M 443.518494 460.66232 
L 449.898402 462.697728 
" style="fill: none; stroke: #2c2f33; stroke-width: 0.8; stroke-linecap: square"/>
    </g>
    <g id="text_3">
     <!-- 1.0 -->
     <g style="fill: #2c2f33" transform="translate(449.880334 483.732601) scale(0.1 -0.1)">
      <defs>
       <path id="SegoeUI-31" d="M 2263 0 
L 1750 0 
L 1750 3872 
Q 1691 3813 1577 3736 
Q 1463 3659 1320 3584 
Q 1178 3509 1020 3443 
Q 863 3378 713 3341 
L 713 3859 
Q 881 3906 1070 3986 
Q 1259 4066 1442 4164 
Q 1625 4263 1787 4370 
Q 1950 4478 2069 4581 
L 2263 4581 
L 2263 0 
z
" transform="scale(0.015625)"/>
      </defs>
      <use xlink:href="#SegoeUI-31"/>
      <use xlink:href="#SegoeUI-2e" x="53.90625"/>
      <use xlink:href="#SegoeUI-30" x="75.585938"/>
     </g>
    </g>
   </g>
   <g id="xtick_4">
    <g id="line2d_5">
     <path d="M 420.459674 477.436136 
L 426.879426 479.517401 
" style="fill: none; stroke: #2c2f33; stroke-width: 0.8; stroke-linecap: square"/>
    </g>
    <g id="text_4">
     <!-- 1.5 -->
     <g style="fill: #2c2f33" transform="translate(426.944557 500.697079) scale(0.1 -0.1)">
      <use xlink:href="#SegoeUI-31"/>
      <use xlink:href="#SegoeUI-2e" x="53.90625"/>
      <use xlink:href="#SegoeUI-35" x="75.585938"/>
     </g>
    </g>
   </g>
   <g id="xtick_5">
    <g id="line2d_6">
     <path d="M 396.878756 494.589746 
L 403.338529 496.718436 
" style="fill: none; stroke: #2c2f33; stroke-width: 0.8; stroke-linecap: square"/>
    </g>
    <g id="text_5">
     <!-- 2.0 -->
     <g style="fill: #2c2f33" transform="translate(403.488994 518.046018) scale(0.1 -0.1)">
      <defs>
       <path id="SegoeUI-32" d="M 2413 3306 
Q 2413 3513 2348 3666 
Q 2284 3819 2173 3920 
Q 2063 4022 1913 4072 
Q 1763 4122 1588 4122 
Q 1438 4122 1294 4081 
Q 1150 4041 1014 3969 
Q 878 3897 751 3797 
Q 625 3697 516 3575 
L 516 4125 
Q 731 4334 998 4445 
Q 1266 4556 1650 4556 
Q 1925 4556 2159 4476 
Q 2394 4397 2566 4244 
Q 2738 4091 2836 3866 
Q 2934 3641 2934 3350 
Q 2934 3084 2873 2868 
Q 2813 2653 2689 2462 
Q 2566 2272 2378 2097 
Q 2191 1922 1938 1741 
Q 1622 1516 1417 1356 
Q 1213 1197 1092 1058 
Q 972 919 923 780 
Q 875 641 875 459 
L 3106 459 
L 3106 0 
L 341 0 
L 341 222 
Q 341 509 403 728 
Q 466 947 609 1144 
Q 753 1341 986 1537 
Q 1219 1734 1556 1981 
Q 1800 2156 1964 2315 
Q 2128 2475 2228 2634 
Q 2328 2794 2370 2958 
Q 2413 3122 2413 3306 
z
" transform="scale(0.015625)"/>
      </defs>
      <use xlink:href="#SegoeUI-32"/>
      <use xlink:href="#SegoeUI-2e" x="53.90625"/>
      <use xlink:href="#SegoeUI-30" x="75.585938"/>
     </g>
    </g>
   </g>
   <g id="xtick_6">
    <g id="line2d_7">
     <path d="M 372.757803 512.136197 
L 379.257757 514.31395 
" style="fill: none; stroke: #2c2f33; stroke-width: 0.8; stroke-linecap: square"/>
    </g>
    <g id="text_6">
     <!-- 2.5 -->
     <g style="fill: #2c2f33" transform="translate(379.495772 535.792637) scale(0.1 -0.1)">
      <use xlink:href="#SegoeUI-32"/>
      <use xlink:href="#SegoeUI-2e" x="53.90625"/>
      <use xlink:href="#SegoeUI-35" x="75.585938"/>
     </g>
    </g>
   </g>
   <g id="xtick_7">
    <g id="line2d_8">
     <path d="M 348.07805 530.089139 
L 354.618322 532.317672 
" style="fill: none; stroke: #2c2f33; stroke-width: 0.8; stroke-linecap: square"/>
    </g>
    <g id="text_7">
     <!-- 3.0 -->
     <g style="fill: #2c2f33" transform="translate(354.94619 553.950769) scale(0.1 -0.1)">
      <defs>
       <path id="SegoeUI-33" d="M 2978 1269 
Q 2978 966 2864 717 
Q 2750 469 2542 292 
Q 2334 116 2043 19 
Q 1753 -78 1403 -78 
Q 763 -78 384 166 
L 384 716 
Q 838 359 1422 359 
Q 1656 359 1845 418 
Q 2034 478 2170 590 
Q 2306 703 2379 862 
Q 2453 1022 2453 1222 
Q 2453 2100 1203 2100 
L 831 2100 
L 831 2534 
L 1184 2534 
Q 2291 2534 2291 3359 
Q 2291 4122 1447 4122 
Q 972 4122 556 3803 
L 556 4300 
Q 984 4556 1575 4556 
Q 1856 4556 2084 4478 
Q 2313 4400 2475 4259 
Q 2638 4119 2727 3922 
Q 2816 3725 2816 3488 
Q 2816 2603 1922 2350 
L 1922 2338 
Q 2150 2313 2344 2227 
Q 2538 2141 2678 2003 
Q 2819 1866 2898 1680 
Q 2978 1494 2978 1269 
z
" transform="scale(0.015625)"/>
      </defs>
      <use xlink:href="#SegoeUI-33"/>
      <use xlink:href="#SegoeUI-2e" x="53.90625"/>
      <use xlink:href="#SegoeUI-30" x="75.585938"/>
     </g>
    </g>
   </g>
   <g id="xtick_8">
    <g id="line2d_9">
     <path d="M 322.81985 548.462865 
L 329.400555 550.743974 
" style="fill: none; stroke: #2c2f33; stroke-width: 0.8; stroke-linecap: square"/>
    </g>
    <g id="text_8">
     <!-- 3.5 -->
     <g style="fill: #2c2f33" transform="translate(329.820669 572.534894) scale(0.1 -0.1)">
      <use xlink:href="#SegoeUI-33"/>
      <use xlink:href="#SegoeUI-2e" x="53.90625"/>
      <use xlink:href="#SegoeUI-35" x="75.585938"/>
     </g>
    </g>
   </g>
   <g id="text_9">
    <!-- X -->
    <g style="fill: #2c2f33" transform="translate(432.537788 523.723764) scale(0.1 -0.1)">
     <defs>
      <path id="SegoeUI-58" d="M 3681 0 
L 3041 0 
L 2009 1716 
Q 1963 1794 1906 1938 
L 1894 1938 
Q 1863 1866 1788 1716 
L 725 0 
L 81 0 
L 1581 2253 
L 200 4481 
L 844 4481 
L 1759 2906 
Q 1850 2750 1919 2594 
L 1931 2594 
Q 2031 2800 2106 2919 
L 3059 4481 
L 3663 4481 
L 2253 2259 
L 3681 0 
z
" transform="scale(0.015625)"/>
     </defs>
     <use xlink:href="#SegoeUI-58"/>
    </g>
   </g>
  </g>
  <g id="axis3d_2">
   <g id="line2d_10">
    <path d="M 62.488404 462.007144 
L 321.280246 551.940653 
" style="fill: none; stroke: #4b5563; stroke-width: 0.8; stroke-linecap: square"/>
   </g>
   <g id="xtick_9">
    <g id="line2d_11">
     <path d="M 68.952246 462.735034 
L 64.220268 465.65165 
" style="fill: none; stroke: #2c2f33; stroke-width: 0.8; stroke-linecap: square"/>
    </g>
    <g id="text_10">
     <!-- 0.0 -->
     <g style="fill: #2c2f33" transform="translate(53.124199 487.650758) scale(0.1 -0.1)">
      <use xlink:href="#SegoeUI-30"/>
      <use xlink:href="#SegoeUI-2e" x="53.90625"/>
      <use xlink:href="#SegoeUI-30" x="75.585938"/>
     </g>
    </g>
   </g>
   <g id="xtick_10">
    <g id="line2d_12">
     <path d="M 102.764745 474.473435 
L 98.061914 477.435909 
" style="fill: none; stroke: #2c2f33; stroke-width: 0.8; stroke-linecap: square"/>
    </g>
    <g id="text_11">
     <!-- 0.5 -->
     <g style="fill: #2c2f33" transform="translate(86.934781 499.55124) scale(0.1 -0.1)">
      <use xlink:href="#SegoeUI-30"/>
      <use xlink:href="#SegoeUI-2e" x="53.90625"/>
      <use xlink:href="#SegoeUI-35" x="75.585938"/>
     </g>
    </g>
   </g>
   <g id="xtick_11">
    <g id="line2d_13">
     <path d="M 137.110445 486.396945 
L 132.438276 489.406365 
" style="fill: none; stroke: #2c2f33; stroke-width: 0.8; stroke-linecap: square"/>
    </g>
    <g id="text_12">
     <!-- 1.0 -->
     <g style="fill: #2c2f33" transform="translate(121.279669 511.639784) scale(0.1 -0.1)">
      <use xlink:href="#SegoeUI-31"/>
      <use xlink:href="#SegoeUI-2e" x="53.90625"/>
      <use xlink:href="#SegoeUI-30" x="75.585938"/>
     </g>
    </g>
   </g>
   <g id="xtick_12">
    <g id="line2d_14">
     <path d="M 172.002061 498.509975 
L 167.362128 501.567467 
" style="fill: none; stroke: #2c2f33; stroke-width: 0.8; stroke-linecap: square"/>
    </g>
    <g id="text_13">
     <!-- 1.5 -->
     <g style="fill: #2c2f33" transform="translate(156.17163 523.920885) scale(0.1 -0.1)">
      <use xlink:href="#SegoeUI-31"/>
      <use xlink:href="#SegoeUI-2e" x="53.90625"/>
      <use xlink:href="#SegoeUI-35" x="75.585938"/>
     </g>
    </g>
   </g>
   <g id="xtick_13">
    <g id="line2d_15">
     <path d="M 207.452711 510.81708 
L 202.846653 513.923805 
" style="fill: none; stroke: #2c2f33; stroke-width: 0.8; stroke-linecap: square"/>
    </g>
    <g id="text_14">
     <!-- 2.0 -->
     <g style="fill: #2c2f33" transform="translate(191.62384 536.39918) scale(0.1 -0.1)">
      <use xlink:href="#SegoeUI-32"/>
      <use xlink:href="#SegoeUI-2e" x="53.90625"/>
      <use xlink:href="#SegoeUI-30" x="75.585938"/>
     </g>
    </g>
   </g>
   <g id="xtick_14">
    <g id="line2d_16">
     <path d="M 243.47594 523.322963 
L 238.905464 526.48012 
" style="fill: none; stroke: #2c2f33; stroke-width: 0.8; stroke-linecap: square"/>
    </g>
    <g id="text_15">
     <!-- 2.5 -->
     <g style="fill: #2c2f33" transform="translate(227.649903 549.079456) scale(0.1 -0.1)">
      <use xlink:href="#SegoeUI-32"/>
      <use xlink:href="#SegoeUI-2e" x="53.90625"/>
      <use xlink:href="#SegoeUI-35" x="75.585938"/>
     </g>
    </g>
   </g>
   <g id="xtick_15">
    <g id="line2d_17">
     <path d="M 280.085732 536.032478 
L 275.552614 539.241305 
" style="fill: none; stroke: #2c2f33; stroke-width: 0.8; stroke-linecap: square"/>
    </g>
    <g id="text_16">
     <!-- 3.0 -->
     <g style="fill: #2c2f33" transform="translate(264.263865 561.966658) scale(0.1 -0.1)">
      <use xlink:href="#SegoeUI-33"/>
      <use xlink:href="#SegoeUI-2e" x="53.90625"/>
      <use xlink:href="#SegoeUI-30" x="75.585938"/>
     </g>
    </g>
   </g>
   <g id="xtick_16">
    <g id="line2d_18">
     <path d="M 317.296532 548.950639 
L 312.802621 552.212415 
" style="fill: none; stroke: #2c2f33; stroke-width: 0.8; stroke-linecap: square"/>
    </g>
    <g id="text_17">
     <!-- 3.5 -->
     <g style="fill: #2c2f33" transform="translate(301.480234 575.065892) scale(0.1 -0.1)">
      <use xlink:href="#SegoeUI-33"/>
      <use xlink:href="#SegoeUI-2e" x="53.90625"/>
      <use xlink:href="#SegoeUI-35" x="75.585938"/>
     </g>
    </g>
   </g>
   <g id="text_18">
    <!-- Y -->
    <g style="fill: #2c2f33" transform="translate(167.649899 546.87535) scale(0.1 -0.1)">
     <defs>
      <path id="SegoeUI-59" d="M 3500 4481 
L 2022 1656 
L 2022 0 
L 1497 0 
L 1497 1644 
L 56 4481 
L 653 4481 
L 1656 2456 
Q 1675 2419 1766 2181 
L 1775 2181 
Q 1806 2288 1894 2456 
L 2944 4481 
L 3500 4481 
z
" transform="scale(0.015625)"/>
     </defs>
     <use xlink:href="#SegoeUI-59"/>
    </g>
   </g>
  </g>
  <g id="axis3d_3">
   <g id="line2d_19">
    <path d="M 62.488404 462.007144 
L 51.976743 172.174149 
" style="fill: none; stroke: #4b5563; stroke-width: 0.8; stroke-linecap: square"/>
   </g>
   <g id="xtick_17">
    <g id="line2d_20">
     <path d="M 63.865897 455.50593 
L 59.125037 458.40788 
" style="fill: none; stroke: #2c2f33; stroke-width: 0.8; stroke-linecap: square"/>
    </g>
    <g id="text_19">
     <!-- 0.0 -->
     <g style="fill: #2c2f33" transform="translate(37.468326 465.379373) scale(0.1 -0.1)">
      <use xlink:href="#SegoeUI-30"/>
      <use xlink:href="#SegoeUI-2e" x="53.90625"/>
      <use xlink:href="#SegoeUI-30" x="75.585938"/>
     </g>
    </g>
   </g>
   <g id="xtick_18">
    <g id="line2d_21">
     <path d="M 62.490235 417.293051 
L 57.716526 420.138729 
" style="fill: none; stroke: #2c2f33; stroke-width: 0.8; stroke-linecap: square"/>
    </g>
    <g id="text_20">
     <!-- 0.5 -->
     <g style="fill: #2c2f33" transform="translate(35.963669 427.118588) scale(0.1 -0.1)">
      <use xlink:href="#SegoeUI-30"/>
      <use xlink:href="#SegoeUI-2e" x="53.90625"/>
      <use xlink:href="#SegoeUI-35" x="75.585938"/>
     </g>
    </g>
   </g>
   <g id="xtick_19">
    <g id="line2d_22">
     <path d="M 61.096994 378.59182 
L 56.289978 381.379543 
" style="fill: none; stroke: #2c2f33; stroke-width: 0.8; stroke-linecap: square"/>
    </g>
    <g id="text_21">
     <!-- 1.0 -->
     <g style="fill: #2c2f33" transform="translate(34.43975 388.368018) scale(0.1 -0.1)">
      <use xlink:href="#SegoeUI-31"/>
      <use xlink:href="#SegoeUI-2e" x="53.90625"/>
      <use xlink:href="#SegoeUI-30" x="75.585938"/>
     </g>
    </g>
   </g>
   <g id="xtick_20">
    <g id="line2d_23">
     <path d="M 59.685832 339.392814 
L 54.845046 342.12085 
" style="fill: none; stroke: #2c2f33; stroke-width: 0.8; stroke-linecap: square"/>
    </g>
    <g id="text_22">
     <!-- 1.5 -->
     <g style="fill: #2c2f33" transform="translate(32.896198 349.118198) scale(0.1 -0.1)">
      <use xlink:href="#SegoeUI-31"/>
      <use xlink:href="#SegoeUI-2e" x="53.90625"/>
      <use xlink:href="#SegoeUI-35" x="75.585938"/>
     </g>
    </g>
   </g>
   <g id="xtick_21">
    <g id="line2d_24">
     <path d="M 58.256402 299.686368 
L 53.381371 302.352931 
" style="fill: none; stroke: #2c2f33; stroke-width: 0.8; stroke-linecap: square"/>
    </g>
    <g id="text_23">
     <!-- 2.0 -->
     <g style="fill: #2c2f33" transform="translate(31.332631 309.359419) scale(0.1 -0.1)">
      <use xlink:href="#SegoeUI-32"/>
      <use xlink:href="#SegoeUI-2e" x="53.90625"/>
      <use xlink:href="#SegoeUI-30" x="75.585938"/>
     </g>
    </g>
   </g>
   <g id="xtick_22">
    <g id="line2d_25">
     <path d="M 56.808348 259.462564 
L 51.898588 262.065814 
" style="fill: none; stroke: #2c2f33; stroke-width: 0.8; stroke-linecap: square"/>
    </g>
    <g id="text_24">
     <!-- 2.5 -->
     <g style="fill: #2c2f33" transform="translate(29.748656 269.081714) scale(0.1 -0.1)">
      <use xlink:href="#SegoeUI-32"/>
      <use xlink:href="#SegoeUI-2e" x="53.90625"/>
      <use xlink:href="#SegoeUI-35" x="75.585938"/>
     </g>
    </g>
   </g>
   <g id="xtick_23">
    <g id="line2d_26">
     <path d="M 55.341302 218.711224 
L 50.396318 221.249263 
" style="fill: none; stroke: #2c2f33; stroke-width: 0.8; stroke-linecap: square"/>
    </g>
    <g id="text_25">
     <!-- 3.0 -->
     <g style="fill: #2c2f33" transform="translate(28.143872 228.274859) scale(0.1 -0.1)">
      <use xlink:href="#SegoeUI-33"/>
      <use xlink:href="#SegoeUI-2e" x="53.90625"/>
      <use xlink:href="#SegoeUI-30" x="75.585938"/>
     </g>
    </g>
   </g>
   <g id="xtick_24">
    <g id="line2d_27">
     <path d="M 53.854889 177.421902 
L 48.874175 179.892774 
" style="fill: none; stroke: #2c2f33; stroke-width: 0.8; stroke-linecap: square"/>
    </g>
    <g id="text_26">
     <!-- 3.5 -->
     <g style="fill: #2c2f33" transform="translate(26.517865 186.928357) scale(0.1 -0.1)">
      <use xlink:href="#SegoeUI-33"/>
      <use xlink:href="#SegoeUI-2e" x="53.90625"/>
      <use xlink:href="#SegoeUI-35" x="75.585938"/>
     </g>
    </g>
   </g>
   <g id="text_27">
    <!-- Z -->
    <g style="fill: #2c2f33" transform="translate(12.025852 326.218666) scale(0.1 -0.1)">
     <defs>
      <path id="SegoeUI-5a" d="M 3513 4356 
L 888 475 
L 3450 475 
L 3450 0 
L 103 0 
L 103 147 
L 2706 4006 
L 313 4006 
L 313 4481 
L 3513 4481 
L 3513 4356 
z
" transform="scale(0.015625)"/>
     </defs>
     <use xlink:href="#SegoeUI-5a"/>
    </g>
   </g>
  </g>
  <g id="axes_1">
   <g id="line2d_28">
    <path d="M 246.262778 348.202548 
L 246.262778 348.202548 
" clip-path="url(#p46bcb977b3)" style="fill: none; stroke: #e5e7eb; stroke-width: 0.5; stroke-linecap: square"/>
   </g>
   <g id="line2d_29">
    <path d="M 246.262778 348.202548 
L 246.262778 348.202548 
" clip-path="url(#p46bcb977b3)" style="fill: none; stroke: #e5e7eb; stroke-width: 0.5; stroke-linecap: square"/>
   </g>
   <g id="line2d_30">
    <path d="M 246.262778 348.202548 
L 246.262778 348.202548 
" clip-path="url(#p46bcb977b3)" style="fill: none; stroke: #e5e7eb; stroke-width: 0.5; stroke-linecap: square"/>
   </g>
   <g id="line2d_31">
    <path d="M 198.849559 377.316131 
L 198.849559 377.316131 
" clip-path="url(#p46bcb977b3)" style="fill: none; stroke: #e5e7eb; stroke-width: 0.5; stroke-linecap: square"/>
   </g>
   <g id="line2d_32">
    <path d="M 312.029749 368.460525 
L 312.029749 368.460525 
" clip-path="url(#p46bcb977b3)" style="fill: none; stroke: #e5e7eb; stroke-width: 0.5; stroke-linecap: square"/>
   </g>
   <g id="line2d_33">
    <path d="M 245.856709 275.609227 
L 245.856709 275.609227 
" clip-path="url(#p46bcb977b3)" style="fill: none; stroke: #e5e7eb; stroke-width: 0.5; stroke-linecap: square"/>
   </g>
   <g id="line2d_34">
    <path d="M 149.401675 407.679078 
L 149.401675 407.679078 
" clip-path="url(#p46bcb977b3)" style="fill: none; stroke: #e5e7eb; stroke-width: 0.5; stroke-linecap: square"/>
   </g>
   <g id="line2d_35">
    <path d="M 379.747806 389.319488 
L 379.747806 389.319488 
" clip-path="url(#p46bcb977b3)" style="fill: none; stroke: #e5e7eb; stroke-width: 0.5; stroke-linecap: square"/>
   </g>
   <g id="line2d_36">
    <path d="M 245.440901 201.274727 
L 245.440901 201.274727 
" clip-path="url(#p46bcb977b3)" style="fill: none; stroke: #e5e7eb; stroke-width: 0.5; stroke-linecap: square"/>
   </g>
   <g id="line2d_37">
    <path d="M 97.785283 439.373575 
L 97.785283 439.373575 
" clip-path="url(#p46bcb977b3)" style="fill: none; stroke: #e5e7eb; stroke-width: 0.5; stroke-linecap: square"/>
   </g>
   <g id="line2d_38">
    <path d="M 449.50508 410.806584 
L 449.50508 410.806584 
" clip-path="url(#p46bcb977b3)" style="fill: none; stroke: #e5e7eb; stroke-width: 0.5; stroke-linecap: square"/>
   </g>
   <g id="line2d_39">
    <path d="M 245.014999 125.135643 
L 245.014999 125.135643 
" clip-path="url(#p46bcb977b3)" style="fill: none; stroke: #e5e7eb; stroke-width: 0.5; stroke-linecap: square"/>
   </g>
   <g id="Path3DCollection_1">
    <defs>
     <path id="m6926ac68a3" d="M 0 3.872983 
C 1.027127 3.872983 2.012324 3.464901 2.738613 2.738613 
C 3.464901 2.012324 3.872983 1.027127 3.872983 0 
C 3.872983 -1.027127 3.464901 -2.012324 2.738613 -2.738613 
C 2.012324 -3.464901 1.027127 -3.872983 0 -3.872983 
C -1.027127 -3.872983 -2.012324 -3.464901 -2.738613 -2.738613 
C -3.464901 -2.012324 -3.872983 -1.027127 -3.872983 0 
C -3.872983 1.027127 -3.464901 2.012324 -2.738613 2.738613 
C -2.012324 3.464901 -1.027127 3.872983 0 3.872983 
z
" style="stroke: #374151"/>
    </defs>
    <g clip-path="url(#p46bcb977b3)">
     <use xlink:href="#m6926ac68a3" x="246.262778" y="348.202548" style="fill: #374151; stroke: #374151"/>
    </g>
   </g>
   <g id="text_28">
    <!-- $\mathbf{u}$ -->
    <g style="fill: #39c5bb" transform="translate(229.17238 314.846774) scale(0.14 -0.14)">
     <defs>
      <path id="DejaVuSans-Bold-75" d="M 500 1363 
L 500 3500 
L 1625 3500 
L 1625 3150 
Q 1625 2866 1622 2436 
Q 1619 2006 1619 1863 
Q 1619 1441 1641 1255 
Q 1663 1069 1716 984 
Q 1784 875 1895 815 
Q 2006 756 2150 756 
Q 2500 756 2700 1025 
Q 2900 1294 2900 1772 
L 2900 3500 
L 4019 3500 
L 4019 0 
L 2900 0 
L 2900 506 
Q 2647 200 2364 54 
Q 2081 -91 1741 -91 
Q 1134 -91 817 281 
Q 500 653 500 1363 
z
" transform="scale(0.015625)"/>
     </defs>
     <use xlink:href="#DejaVuSans-Bold-75" transform="translate(0 0.3125)"/>
    </g>
   </g>
   <g id="text_29">
    <!-- $\mathbf{v}$ -->
    <g style="fill: #e12885" transform="translate(304.920583 330.562955) scale(0.14 -0.14)">
     <defs>
      <path id="DejaVuSans-Bold-76" d="M 97 3500 
L 1216 3500 
L 2088 1081 
L 2956 3500 
L 4078 3500 
L 2700 0 
L 1472 0 
L 97 3500 
z
" transform="scale(0.015625)"/>
     </defs>
     <use xlink:href="#DejaVuSans-Bold-76" transform="translate(0 0.3125)"/>
    </g>
   </g>
   <g id="text_30">
    <!-- $\mathbf{u}+\mathbf{v}$ -->
    <g style="fill: #1f2937" transform="translate(255.333421 310.830961) scale(0.12 -0.12)">
     <defs>
      <path id="DejaVuSans-2b" d="M 2944 4013 
L 2944 2272 
L 4684 2272 
L 4684 1741 
L 2944 1741 
L 2944 0 
L 2419 0 
L 2419 1741 
L 678 1741 
L 678 2272 
L 2419 2272 
L 2419 4013 
L 2944 4013 
z
" transform="scale(0.015625)"/>
     </defs>
     <use xlink:href="#DejaVuSans-Bold-75" transform="translate(0 0.296875)"/>
     <use xlink:href="#DejaVuSans-2b" transform="translate(90.673828 0.296875)"/>
     <use xlink:href="#DejaVuSans-Bold-76" transform="translate(193.945312 0.296875)"/>
    </g>
   </g>
   <g id="text_31">
    <!-- O -->
    <g style="fill: #374151" transform="translate(242.656008 345.70114) scale(0.1 -0.1)">
     <defs>
      <path id="SegoeUI-4f" d="M 2394 -75 
Q 1441 -75 867 553 
Q 294 1181 294 2188 
Q 294 3269 878 3912 
Q 1463 4556 2469 4556 
Q 3397 4556 3964 3931 
Q 4531 3306 4531 2297 
Q 4531 1200 3950 562 
Q 3369 -75 2394 -75 
z
M 2431 4081 
Q 1725 4081 1284 3572 
Q 844 3063 844 2234 
Q 844 1406 1273 901 
Q 1703 397 2394 397 
Q 3131 397 3556 878 
Q 3981 1359 3981 2225 
Q 3981 3113 3568 3597 
Q 3156 4081 2431 4081 
z
" transform="scale(0.015625)"/>
     </defs>
     <use xlink:href="#SegoeUI-4f"/>
    </g>
   </g>
   <g id="text_32">
    <!-- Regla del Paralelogramo -->
    <g style="fill: #2c2f33" transform="translate(210.22827 34.928292) scale(0.11 -0.11)">
     <defs>
      <path id="SegoeUI-Bold-52" d="M 4272 0 
L 3113 0 
L 2416 1153 
Q 2338 1284 2266 1387 
Q 2194 1491 2120 1564 
Q 2047 1638 1967 1677 
Q 1888 1716 1794 1716 
L 1522 1716 
L 1522 0 
L 513 0 
L 513 4481 
L 2113 4481 
Q 3744 4481 3744 3263 
Q 3744 3028 3672 2829 
Q 3600 2631 3469 2472 
Q 3338 2313 3152 2197 
Q 2966 2081 2738 2016 
L 2738 2003 
Q 2838 1972 2931 1901 
Q 3025 1831 3112 1737 
Q 3200 1644 3279 1536 
Q 3359 1428 3425 1325 
L 4272 0 
z
M 1522 3725 
L 1522 2478 
L 1959 2478 
Q 2284 2478 2481 2666 
Q 2681 2856 2681 3138 
Q 2681 3725 1978 3725 
L 1522 3725 
z
" transform="scale(0.015625)"/>
      <path id="SegoeUI-Bold-65" d="M 3291 1319 
L 1203 1319 
Q 1253 622 2081 622 
Q 2609 622 3009 872 
L 3009 159 
Q 2566 -78 1856 -78 
Q 1081 -78 653 351 
Q 225 781 225 1550 
Q 225 2347 687 2812 
Q 1150 3278 1825 3278 
Q 2525 3278 2908 2862 
Q 3291 2447 3291 1734 
L 3291 1319 
z
M 2375 1925 
Q 2375 2613 1819 2613 
Q 1581 2613 1407 2416 
Q 1234 2219 1197 1925 
L 2375 1925 
z
" transform="scale(0.015625)"/>
      <path id="SegoeUI-Bold-67" d="M 3553 366 
Q 3553 -525 3037 -1014 
Q 2522 -1503 1544 -1503 
Q 897 -1503 519 -1319 
L 519 -488 
Q 1013 -775 1516 -775 
Q 2016 -775 2291 -511 
Q 2566 -247 2566 206 
L 2566 459 
L 2553 459 
Q 2216 -78 1556 -78 
Q 944 -78 584 353 
Q 225 784 225 1509 
Q 225 2322 625 2800 
Q 1025 3278 1678 3278 
Q 2263 3278 2553 2828 
L 2566 2828 
L 2566 3200 
L 3553 3200 
L 3553 366 
z
M 2578 1538 
L 2578 1791 
Q 2578 2094 2398 2308 
Q 2219 2522 1931 2522 
Q 1603 2522 1415 2265 
Q 1228 2009 1228 1544 
Q 1228 1144 1406 911 
Q 1584 678 1894 678 
Q 2200 678 2389 914 
Q 2578 1150 2578 1538 
z
" transform="scale(0.015625)"/>
      <path id="SegoeUI-Bold-6c" d="M 1403 0 
L 416 0 
L 416 4738 
L 1403 4738 
L 1403 0 
z
" transform="scale(0.015625)"/>
      <path id="SegoeUI-Bold-61" d="M 3078 0 
L 2144 0 
L 2144 459 
L 2131 459 
Q 1809 -78 1178 -78 
Q 713 -78 445 186 
Q 178 450 178 891 
Q 178 1822 1281 1966 
L 2150 2081 
Q 2150 2606 1581 2606 
Q 1009 2606 494 2266 
L 494 3009 
Q 700 3116 1058 3197 
Q 1416 3278 1709 3278 
Q 3078 3278 3078 1913 
L 3078 0 
z
M 2150 1300 
L 2150 1516 
L 1569 1441 
Q 1088 1378 1088 1006 
Q 1088 838 1205 730 
Q 1322 622 1522 622 
Q 1800 622 1975 814 
Q 2150 1006 2150 1300 
z
" transform="scale(0.015625)"/>
      <path id="SegoeUI-Bold-20" transform="scale(0.015625)"/>
      <path id="SegoeUI-Bold-64" d="M 3547 0 
L 2559 0 
L 2559 441 
L 2547 441 
Q 2209 -78 1556 -78 
Q 956 -78 590 345 
Q 225 769 225 1528 
Q 225 2322 628 2800 
Q 1031 3278 1684 3278 
Q 2303 3278 2547 2834 
L 2559 2834 
L 2559 4738 
L 3547 4738 
L 3547 0 
z
M 2578 1556 
L 2578 1797 
Q 2578 2109 2397 2315 
Q 2216 2522 1925 2522 
Q 1597 2522 1412 2264 
Q 1228 2006 1228 1556 
Q 1228 1134 1406 906 
Q 1584 678 1900 678 
Q 2200 678 2389 918 
Q 2578 1159 2578 1556 
z
" transform="scale(0.015625)"/>
      <path id="SegoeUI-Bold-50" d="M 1522 1544 
L 1522 0 
L 513 0 
L 513 4481 
L 2094 4481 
Q 3788 4481 3788 3053 
Q 3788 2378 3302 1961 
Q 2816 1544 2003 1544 
L 1522 1544 
z
M 1522 3706 
L 1522 2309 
L 1919 2309 
Q 2725 2309 2725 3016 
Q 2725 3706 1919 3706 
L 1522 3706 
z
" transform="scale(0.015625)"/>
      <path id="SegoeUI-Bold-72" d="M 2503 2309 
Q 2325 2406 2088 2406 
Q 1766 2406 1584 2170 
Q 1403 1934 1403 1528 
L 1403 0 
L 416 0 
L 416 3200 
L 1403 3200 
L 1403 2606 
L 1416 2606 
Q 1650 3256 2259 3256 
Q 2416 3256 2503 3219 
L 2503 2309 
z
" transform="scale(0.015625)"/>
      <path id="SegoeUI-Bold-6f" d="M 1941 -78 
Q 1141 -78 683 370 
Q 225 819 225 1588 
Q 225 2381 700 2829 
Q 1175 3278 1984 3278 
Q 2781 3278 3234 2829 
Q 3688 2381 3688 1644 
Q 3688 847 3220 384 
Q 2753 -78 1941 -78 
z
M 1966 2522 
Q 1616 2522 1422 2281 
Q 1228 2041 1228 1600 
Q 1228 678 1972 678 
Q 2681 678 2681 1625 
Q 2681 2522 1966 2522 
z
" transform="scale(0.015625)"/>
      <path id="SegoeUI-Bold-6d" d="M 5497 0 
L 4513 0 
L 4513 1825 
Q 4513 2522 4000 2522 
Q 3756 2522 3603 2312 
Q 3450 2103 3450 1791 
L 3450 0 
L 2463 0 
L 2463 1844 
Q 2463 2522 1959 2522 
Q 1706 2522 1554 2322 
Q 1403 2122 1403 1778 
L 1403 0 
L 416 0 
L 416 3200 
L 1403 3200 
L 1403 2700 
L 1416 2700 
Q 1569 2956 1845 3117 
Q 2122 3278 2450 3278 
Q 3128 3278 3378 2681 
Q 3744 3278 4453 3278 
Q 5497 3278 5497 1991 
L 5497 0 
z
" transform="scale(0.015625)"/>
     </defs>
     <use xlink:href="#SegoeUI-Bold-52"/>
     <use xlink:href="#SegoeUI-Bold-65" x="62.783203"/>
     <use xlink:href="#SegoeUI-Bold-67" x="116.884766"/>
     <use xlink:href="#SegoeUI-Bold-6c" x="178.798828"/>
     <use xlink:href="#SegoeUI-Bold-61" x="207.216797"/>
     <use xlink:href="#SegoeUI-Bold-20" x="261.025391"/>
     <use xlink:href="#SegoeUI-Bold-64" x="288.613281"/>
     <use xlink:href="#SegoeUI-Bold-65" x="350.527344"/>
     <use xlink:href="#SegoeUI-Bold-6c" x="404.628906"/>
     <use xlink:href="#SegoeUI-Bold-20" x="433.046875"/>
     <use xlink:href="#SegoeUI-Bold-50" x="460.634766"/>
     <use xlink:href="#SegoeUI-Bold-61" x="519.560547"/>
     <use xlink:href="#SegoeUI-Bold-72" x="573.369141"/>
     <use xlink:href="#SegoeUI-Bold-61" x="613.164062"/>
     <use xlink:href="#SegoeUI-Bold-6c" x="666.972656"/>
     <use xlink:href="#SegoeUI-Bold-65" x="695.390625"/>
     <use xlink:href="#SegoeUI-Bold-6c" x="749.492188"/>
     <use xlink:href="#SegoeUI-Bold-6f" x="777.910156"/>
     <use xlink:href="#SegoeUI-Bold-67" x="839.042969"/>
     <use xlink:href="#SegoeUI-Bold-72" x="900.957031"/>
     <use xlink:href="#SegoeUI-Bold-61" x="940.751953"/>
     <use xlink:href="#SegoeUI-Bold-6d" x="994.560547"/>
     <use xlink:href="#SegoeUI-Bold-6f" x="1086.162109"/>
    </g>
   </g>
   <g id="Line3DCollection_4">
    <path d="M 358.437558 291.568177 
L 246.262778 348.202548 
" clip-path="url(#p46bcb977b3)" style="fill: none; stroke: #e12885; stroke-width: 3"/>
    <path d="M 358.437558 291.568177 
L 351.010764 300.274281 
" clip-path="url(#p46bcb977b3)" style="fill: none; stroke: #e12885; stroke-width: 3"/>
    <path d="M 358.437558 291.568177 
L 347.571781 292.098489 
" clip-path="url(#p46bcb977b3)" style="fill: none; stroke: #e12885; stroke-width: 3"/>
   </g>
   <g id="Line3DCollection_5">
    <path d="M 181.506308 343.169403 
L 246.262778 348.202548 
" clip-path="url(#p46bcb977b3)" style="fill: none; stroke: #39c5bb; stroke-width: 3"/>
    <path d="M 181.506308 343.169403 
L 186.180019 347.535775 
" clip-path="url(#p46bcb977b3)" style="fill: none; stroke: #39c5bb; stroke-width: 3"/>
    <path d="M 181.506308 343.169403 
L 187.427804 339.626414 
" clip-path="url(#p46bcb977b3)" style="fill: none; stroke: #39c5bb; stroke-width: 3"/>
   </g>
   <g id="Line3DCollection_6">
    <path d="M 297.154503 282.360993 
L 246.262778 348.202548 
" clip-path="url(#p46bcb977b3)" style="fill: none; stroke: #1f2937; stroke-width: 3.5"/>
    <path d="M 297.154503 282.360993 
L 294.897635 290.861635 
" clip-path="url(#p46bcb977b3)" style="fill: none; stroke: #1f2937; stroke-width: 3.5"/>
    <path d="M 297.154503 282.360993 
L 293.881564 281.017902 
" clip-path="url(#p46bcb977b3)" style="fill: none; stroke: #1f2937; stroke-width: 3.5"/>
   </g>
   <g id="Line3DCollection_7">
    <path d="M 297.154503 282.360993 
L 181.506308 343.169403 
" clip-path="url(#p46bcb977b3)" style="fill: none; stroke-dasharray: 7.4,3.2; stroke-dashoffset: 0; stroke: #e12885; stroke-opacity: 0.6; stroke-width: 2"/>
    <path d="M 297.154503 282.360993 
L 289.521319 291.700751 
" clip-path="url(#p46bcb977b3)" style="fill: none; stroke-dasharray: 7.4,3.2; stroke-dashoffset: 0; stroke: #e12885; stroke-opacity: 0.6; stroke-width: 2"/>
    <path d="M 297.154503 282.360993 
L 285.862008 282.973524 
" clip-path="url(#p46bcb977b3)" style="fill: none; stroke-dasharray: 7.4,3.2; stroke-dashoffset: 0; stroke: #e12885; stroke-opacity: 0.6; stroke-width: 2"/>
   </g>
   <g id="Line3DCollection_8">
    <path d="M 297.154503 282.360993 
L 358.437558 291.568177 
" clip-path="url(#p46bcb977b3)" style="fill: none; stroke-dasharray: 7.4,3.2; stroke-dashoffset: 0; stroke: #39c5bb; stroke-opacity: 0.6; stroke-width: 2"/>
    <path d="M 297.154503 282.360993 
L 301.520119 287.324853 
" clip-path="url(#p46bcb977b3)" style="fill: none; stroke-dasharray: 7.4,3.2; stroke-dashoffset: 0; stroke: #39c5bb; stroke-opacity: 0.6; stroke-width: 2"/>
    <path d="M 297.154503 282.360993 
L 302.851257 278.908768 
" clip-path="url(#p46bcb977b3)" style="fill: none; stroke-dasharray: 7.4,3.2; stroke-dashoffset: 0; stroke: #39c5bb; stroke-opacity: 0.6; stroke-width: 2"/>
   </g>
  </g>
  <g id="axes_2">
   <g id="patch_6">
    <path d="M 606.166468 177.996099 
L 982.82428 177.996099 
L 982.82428 60.896429 
L 606.166468 60.896429 
z
" clip-path="url(#p833067e767)" style="fill: #eff6ff; stroke: #39c5bb; stroke-width: 2; stroke-linejoin: miter"/>
   </g>
   <g id="patch_7">
    <path d="M 606.166468 300.418482 
L 982.82428 300.418482 
L 982.82428 193.964236 
L 606.166468 193.964236 
z
" clip-path="url(#p833067e767)" style="fill: #f0fdf4; stroke: #e12885; stroke-width: 1.5; stroke-linejoin: miter"/>
   </g>
   <g id="patch_8">
    <path d="M 606.166468 433.486289 
L 982.82428 433.486289 
L 982.82428 316.386619 
L 606.166468 316.386619 
z
" clip-path="url(#p833067e767)" style="fill: #fef3c7; stroke: #f59e0b; stroke-width: 1.5; stroke-linejoin: miter"/>
   </g>
   <g id="text_33">
    <!-- SUMA DE VECTORES -->
    <g style="fill: #39c5bb" transform="translate(746.290686 87.509991) scale(0.1 -0.1)">
     <defs>
      <path id="SegoeUI-Bold-53" d="M 306 172 
L 306 1172 
Q 578 944 897 830 
Q 1216 716 1541 716 
Q 1731 716 1873 750 
Q 2016 784 2111 845 
Q 2206 906 2253 989 
Q 2300 1072 2300 1169 
Q 2300 1300 2225 1403 
Q 2150 1506 2020 1593 
Q 1891 1681 1712 1762 
Q 1534 1844 1328 1928 
Q 803 2147 545 2462 
Q 288 2778 288 3225 
Q 288 3575 428 3826 
Q 569 4078 811 4240 
Q 1053 4403 1372 4479 
Q 1691 4556 2047 4556 
Q 2397 4556 2667 4514 
Q 2938 4472 3166 4384 
L 3166 3450 
Q 3053 3528 2920 3587 
Q 2788 3647 2647 3686 
Q 2506 3725 2367 3744 
Q 2228 3763 2103 3763 
Q 1931 3763 1790 3730 
Q 1650 3697 1553 3637 
Q 1456 3578 1403 3495 
Q 1350 3413 1350 3309 
Q 1350 3197 1409 3108 
Q 1469 3019 1578 2939 
Q 1688 2859 1844 2782 
Q 2000 2706 2197 2625 
Q 2466 2513 2680 2386 
Q 2894 2259 3047 2100 
Q 3200 1941 3281 1736 
Q 3363 1531 3363 1259 
Q 3363 884 3220 629 
Q 3078 375 2834 217 
Q 2591 59 2267 -9 
Q 1944 -78 1584 -78 
Q 1216 -78 883 -15 
Q 550 47 306 172 
z
" transform="scale(0.015625)"/>
      <path id="SegoeUI-Bold-55" d="M 4166 1941 
Q 4166 -78 2284 -78 
Q 459 -78 459 1894 
L 459 4481 
L 1472 4481 
L 1472 1881 
Q 1472 794 2322 794 
Q 3156 794 3156 1844 
L 3156 4481 
L 4166 4481 
L 4166 1941 
z
" transform="scale(0.015625)"/>
      <path id="SegoeUI-Bold-4d" d="M 5619 0 
L 4622 0 
L 4622 2681 
Q 4622 3116 4659 3641 
L 4634 3641 
Q 4556 3228 4494 3047 
L 3444 0 
L 2619 0 
L 1550 3016 
Q 1506 3138 1409 3641 
L 1381 3641 
Q 1422 2978 1422 2478 
L 1422 0 
L 513 0 
L 513 4481 
L 1991 4481 
L 2906 1825 
Q 3016 1506 3066 1184 
L 3084 1184 
Q 3169 1556 3263 1831 
L 4178 4481 
L 5619 4481 
L 5619 0 
z
" transform="scale(0.015625)"/>
      <path id="SegoeUI-Bold-41" d="M 4453 0 
L 3353 0 
L 3034 997 
L 1441 997 
L 1125 0 
L 31 0 
L 1663 4481 
L 2859 4481 
L 4453 0 
z
M 2803 1772 
L 2322 3278 
Q 2269 3447 2247 3681 
L 2222 3681 
Q 2206 3484 2144 3291 
L 1656 1772 
L 2803 1772 
z
" transform="scale(0.015625)"/>
      <path id="SegoeUI-Bold-44" d="M 513 0 
L 513 4481 
L 2100 4481 
Q 4488 4481 4488 2297 
Q 4488 1250 3836 625 
Q 3184 0 2100 0 
L 513 0 
z
M 1522 3659 
L 1522 819 
L 2022 819 
Q 2678 819 3051 1212 
Q 3425 1606 3425 2284 
Q 3425 2925 3054 3292 
Q 2684 3659 2016 3659 
L 1522 3659 
z
" transform="scale(0.015625)"/>
      <path id="SegoeUI-Bold-45" d="M 3200 0 
L 513 0 
L 513 4481 
L 3097 4481 
L 3097 3659 
L 1522 3659 
L 1522 2663 
L 2988 2663 
L 2988 1844 
L 1522 1844 
L 1522 819 
L 3200 819 
L 3200 0 
z
" transform="scale(0.015625)"/>
      <path id="SegoeUI-Bold-56" d="M 4244 4481 
L 2700 0 
L 1556 0 
L 31 4481 
L 1119 4481 
L 2053 1363 
Q 2128 1109 2144 916 
L 2163 916 
Q 2184 1125 2259 1375 
L 3188 4481 
L 4244 4481 
z
" transform="scale(0.015625)"/>
      <path id="SegoeUI-Bold-43" d="M 3725 159 
Q 3234 -78 2444 -78 
Q 1413 -78 822 528 
Q 231 1134 231 2144 
Q 231 3219 895 3887 
Q 1559 4556 2619 4556 
Q 3275 4556 3725 4391 
L 3725 3419 
Q 3275 3688 2700 3688 
Q 2069 3688 1681 3291 
Q 1294 2894 1294 2216 
Q 1294 1566 1659 1180 
Q 2025 794 2644 794 
Q 3234 794 3725 1081 
L 3725 159 
z
" transform="scale(0.015625)"/>
      <path id="SegoeUI-Bold-54" d="M 3659 3659 
L 2381 3659 
L 2381 0 
L 1369 0 
L 1369 3659 
L 97 3659 
L 97 4481 
L 3659 4481 
L 3659 3659 
z
" transform="scale(0.015625)"/>
      <path id="SegoeUI-Bold-4f" d="M 2406 -78 
Q 1444 -78 837 548 
Q 231 1175 231 2181 
Q 231 3244 847 3900 
Q 1463 4556 2478 4556 
Q 3438 4556 4030 3928 
Q 4622 3300 4622 2272 
Q 4622 1216 4008 569 
Q 3394 -78 2406 -78 
z
M 2450 3688 
Q 1919 3688 1606 3289 
Q 1294 2891 1294 2234 
Q 1294 1569 1606 1181 
Q 1919 794 2425 794 
Q 2947 794 3253 1170 
Q 3559 1547 3559 2216 
Q 3559 2913 3262 3300 
Q 2966 3688 2450 3688 
z
" transform="scale(0.015625)"/>
     </defs>
     <use xlink:href="#SegoeUI-Bold-53"/>
     <use xlink:href="#SegoeUI-Bold-55" x="56.054688"/>
     <use xlink:href="#SegoeUI-Bold-4d" x="128.369141"/>
     <use xlink:href="#SegoeUI-Bold-41" x="224.072266"/>
     <use xlink:href="#SegoeUI-Bold-20" x="294.384766"/>
     <use xlink:href="#SegoeUI-Bold-44" x="321.972656"/>
     <use xlink:href="#SegoeUI-Bold-45" x="395.703125"/>
     <use xlink:href="#SegoeUI-Bold-20" x="448.925781"/>
     <use xlink:href="#SegoeUI-Bold-56" x="476.513672"/>
     <use xlink:href="#SegoeUI-Bold-45" x="543.212891"/>
     <use xlink:href="#SegoeUI-Bold-43" x="596.435547"/>
     <use xlink:href="#SegoeUI-Bold-54" x="658.837891"/>
     <use xlink:href="#SegoeUI-Bold-4f" x="713.681641"/>
     <use xlink:href="#SegoeUI-Bold-52" x="789.511719"/>
     <use xlink:href="#SegoeUI-Bold-45" x="854.794922"/>
     <use xlink:href="#SegoeUI-Bold-53" x="908.017578"/>
    </g>
   </g>
   <g id="text_34">
    <!-- $\mathbf{u} + \mathbf{v} = \langle u_x + v_x, u_y + v_y, u_z + v_z \rangle$ -->
    <g style="fill: #2c2f33" transform="translate(701.255374 140.737113) scale(0.12 -0.12)">
     <defs>
      <path id="DejaVuSans-3d" d="M 678 2906 
L 4684 2906 
L 4684 2381 
L 678 2381 
L 678 2906 
z
M 678 1631 
L 4684 1631 
L 4684 1100 
L 678 1100 
L 678 1631 
z
" transform="scale(0.015625)"/>
      <path id="DejaVuSans-27e8" d="M 572 2006 
L 1453 4856 
L 1984 4856 
L 1103 2006 
L 1984 -844 
L 1453 -844 
L 572 2006 
z
" transform="scale(0.015625)"/>
      <path id="DejaVuSans-Oblique-75" d="M 428 1388 
L 838 3500 
L 1416 3500 
L 1006 1409 
Q 975 1256 961 1147 
Q 947 1038 947 966 
Q 947 700 1109 554 
Q 1272 409 1569 409 
Q 2031 409 2368 721 
Q 2706 1034 2809 1563 
L 3194 3500 
L 3769 3500 
L 3091 0 
L 2516 0 
L 2631 550 
Q 2388 244 2052 76 
Q 1716 -91 1338 -91 
Q 878 -91 622 161 
Q 366 413 366 863 
Q 366 956 381 1097 
Q 397 1238 428 1388 
z
" transform="scale(0.015625)"/>
      <path id="DejaVuSans-Oblique-78" d="M 3841 3500 
L 2234 1784 
L 3219 0 
L 2559 0 
L 1819 1388 
L 531 0 
L -166 0 
L 1556 1844 
L 641 3500 
L 1300 3500 
L 1972 2234 
L 3144 3500 
L 3841 3500 
z
" transform="scale(0.015625)"/>
      <path id="DejaVuSans-Oblique-76" d="M 459 3500 
L 1069 3500 
L 1581 525 
L 3256 3500 
L 3866 3500 
L 1875 0 
L 1100 0 
L 459 3500 
z
" transform="scale(0.015625)"/>
      <path id="DejaVuSans-2c" d="M 750 794 
L 1409 794 
L 1409 256 
L 897 -744 
L 494 -744 
L 750 256 
L 750 794 
z
" transform="scale(0.015625)"/>
      <path id="DejaVuSans-Oblique-79" d="M 1588 -325 
Q 1188 -997 936 -1164 
Q 684 -1331 294 -1331 
L -159 -1331 
L -63 -850 
L 269 -850 
Q 509 -850 678 -719 
Q 847 -588 1056 -206 
L 1234 128 
L 459 3500 
L 1069 3500 
L 1650 819 
L 3256 3500 
L 3859 3500 
L 1588 -325 
z
" transform="scale(0.015625)"/>
      <path id="DejaVuSans-Oblique-7a" d="M 744 3500 
L 3475 3500 
L 3372 2975 
L 738 459 
L 2913 459 
L 2822 0 
L -19 0 
L 84 525 
L 2719 3041 
L 653 3041 
L 744 3500 
z
" transform="scale(0.015625)"/>
      <path id="DejaVuSans-27e9" d="M 1925 2006 
L 1044 -844 
L 513 -844 
L 1394 2006 
L 513 4856 
L 1044 4856 
L 1925 2006 
z
" transform="scale(0.015625)"/>
     </defs>
     <use xlink:href="#DejaVuSans-Bold-75" transform="translate(0 0.125)"/>
     <use xlink:href="#DejaVuSans-2b" transform="translate(90.673828 0.125)"/>
     <use xlink:href="#DejaVuSans-Bold-76" transform="translate(193.945312 0.125)"/>
     <use xlink:href="#DejaVuSans-3d" transform="translate(278.613281 0.125)"/>
     <use xlink:href="#DejaVuSans-27e8" transform="translate(381.884766 0.125)"/>
     <use xlink:href="#DejaVuSans-Oblique-75" transform="translate(420.898438 0.125)"/>
     <use xlink:href="#DejaVuSans-Oblique-78" transform="translate(484.277344 -16.28125) scale(0.7)"/>
     <use xlink:href="#DejaVuSans-2b" transform="translate(547.919922 0.125)"/>
     <use xlink:href="#DejaVuSans-Oblique-76" transform="translate(651.191406 0.125)"/>
     <use xlink:href="#DejaVuSans-Oblique-78" transform="translate(710.371094 -16.28125) scale(0.7)"/>
     <use xlink:href="#DejaVuSans-2c" transform="translate(754.53125 0.125)"/>
     <use xlink:href="#DejaVuSans-Oblique-75" transform="translate(805.800781 0.125)"/>
     <use xlink:href="#DejaVuSans-Oblique-79" transform="translate(869.179688 -16.28125) scale(0.7)"/>
     <use xlink:href="#DejaVuSans-2b" transform="translate(932.822266 0.125)"/>
     <use xlink:href="#DejaVuSans-Oblique-76" transform="translate(1036.09375 0.125)"/>
     <use xlink:href="#DejaVuSans-Oblique-79" transform="translate(1095.273438 -16.28125) scale(0.7)"/>
     <use xlink:href="#DejaVuSans-2c" transform="translate(1139.433594 0.125)"/>
     <use xlink:href="#DejaVuSans-Oblique-75" transform="translate(1190.703125 0.125)"/>
     <use xlink:href="#DejaVuSans-Oblique-7a" transform="translate(1254.082031 -16.28125) scale(0.7)"/>
     <use xlink:href="#DejaVuSans-2b" transform="translate(1313.041992 0.125)"/>
     <use xlink:href="#DejaVuSans-Oblique-76" transform="translate(1416.313477 0.125)"/>
     <use xlink:href="#DejaVuSans-Oblique-7a" transform="translate(1475.493164 -16.28125) scale(0.7)"/>
     <use xlink:href="#DejaVuSans-27e9" transform="translate(1514.970703 0.125)"/>
    </g>
   </g>
   <g id="text_35">
    <!-- RESTA DE VECTORES -->
    <g style="fill: #e12885" transform="translate(746.18678 215.255085) scale(0.1 -0.1)">
     <use xlink:href="#SegoeUI-Bold-52"/>
     <use xlink:href="#SegoeUI-Bold-45" x="65.283203"/>
     <use xlink:href="#SegoeUI-Bold-53" x="118.505859"/>
     <use xlink:href="#SegoeUI-Bold-54" x="174.560547"/>
     <use xlink:href="#SegoeUI-Bold-41" x="226.154297"/>
     <use xlink:href="#SegoeUI-Bold-20" x="296.466797"/>
     <use xlink:href="#SegoeUI-Bold-44" x="324.054688"/>
     <use xlink:href="#SegoeUI-Bold-45" x="397.785156"/>
     <use xlink:href="#SegoeUI-Bold-20" x="451.007812"/>
     <use xlink:href="#SegoeUI-Bold-56" x="478.595703"/>
     <use xlink:href="#SegoeUI-Bold-45" x="545.294922"/>
     <use xlink:href="#SegoeUI-Bold-43" x="598.517578"/>
     <use xlink:href="#SegoeUI-Bold-54" x="660.919922"/>
     <use xlink:href="#SegoeUI-Bold-4f" x="715.763672"/>
     <use xlink:href="#SegoeUI-Bold-52" x="791.59375"/>
     <use xlink:href="#SegoeUI-Bold-45" x="856.876953"/>
     <use xlink:href="#SegoeUI-Bold-53" x="910.099609"/>
    </g>
   </g>
   <g id="text_36">
    <!-- $\mathbf{u} - \mathbf{v} = \mathbf{u} + (-\mathbf{v})$ -->
    <g style="fill: #2c2f33" transform="translate(746.315374 268.482208) scale(0.12 -0.12)">
     <defs>
      <path id="DejaVuSans-2212" d="M 678 2272 
L 4684 2272 
L 4684 1741 
L 678 1741 
L 678 2272 
z
" transform="scale(0.015625)"/>
      <path id="DejaVuSans-28" d="M 1984 4856 
Q 1566 4138 1362 3434 
Q 1159 2731 1159 2009 
Q 1159 1288 1364 580 
Q 1569 -128 1984 -844 
L 1484 -844 
Q 1016 -109 783 600 
Q 550 1309 550 2009 
Q 550 2706 781 3412 
Q 1013 4119 1484 4856 
L 1984 4856 
z
" transform="scale(0.015625)"/>
      <path id="DejaVuSans-29" d="M 513 4856 
L 1013 4856 
Q 1481 4119 1714 3412 
Q 1947 2706 1947 2009 
Q 1947 1309 1714 600 
Q 1481 -109 1013 -844 
L 513 -844 
Q 928 -128 1133 580 
Q 1338 1288 1338 2009 
Q 1338 2731 1133 3434 
Q 928 4138 513 4856 
z
" transform="scale(0.015625)"/>
     </defs>
     <use xlink:href="#DejaVuSans-Bold-75" transform="translate(0 0.125)"/>
     <use xlink:href="#DejaVuSans-2212" transform="translate(90.673828 0.125)"/>
     <use xlink:href="#DejaVuSans-Bold-76" transform="translate(193.945312 0.125)"/>
     <use xlink:href="#DejaVuSans-3d" transform="translate(278.613281 0.125)"/>
     <use xlink:href="#DejaVuSans-Bold-75" transform="translate(381.884766 0.125)"/>
     <use xlink:href="#DejaVuSans-2b" transform="translate(472.558594 0.125)"/>
     <use xlink:href="#DejaVuSans-28" transform="translate(575.830078 0.125)"/>
     <use xlink:href="#DejaVuSans-2212" transform="translate(614.84375 0.125)"/>
     <use xlink:href="#DejaVuSans-Bold-76" transform="translate(698.632812 0.125)"/>
     <use xlink:href="#DejaVuSans-29" transform="translate(763.818359 0.125)"/>
    </g>
   </g>
   <g id="text_37">
    <!-- MULTIPLICACIÓN POR ESCALAR -->
    <g style="fill: #f59e0b" transform="translate(718.704749 343.00018) scale(0.1 -0.1)">
     <defs>
      <path id="SegoeUI-Bold-4c" d="M 3181 0 
L 513 0 
L 513 4481 
L 1522 4481 
L 1522 819 
L 3181 819 
L 3181 0 
z
" transform="scale(0.015625)"/>
      <path id="SegoeUI-Bold-49" d="M 1522 0 
L 513 0 
L 513 4481 
L 1522 4481 
L 1522 0 
z
" transform="scale(0.015625)"/>
      <path id="SegoeUI-Bold-d3" d="M 2406 -78 
Q 1444 -78 837 548 
Q 231 1175 231 2181 
Q 231 3244 847 3900 
Q 1463 4556 2478 4556 
Q 3438 4556 4030 3928 
Q 4622 3300 4622 2272 
Q 4622 1216 4008 569 
Q 3394 -78 2406 -78 
z
M 2450 3688 
Q 1919 3688 1606 3289 
Q 1294 2891 1294 2234 
Q 1294 1569 1606 1181 
Q 1919 794 2425 794 
Q 2947 794 3253 1170 
Q 3559 1547 3559 2216 
Q 3559 2913 3262 3300 
Q 2966 3688 2450 3688 
z
M 3471 5932 
L 2492 4922 
L 1780 4922 
L 2592 5932 
L 3471 5932 
z
" transform="scale(0.015625)"/>
      <path id="SegoeUI-Bold-4e" d="M 4544 0 
L 3525 0 
L 1678 2816 
Q 1516 3063 1453 3188 
L 1441 3188 
Q 1466 2950 1466 2463 
L 1466 0 
L 513 0 
L 513 4481 
L 1600 4481 
L 3378 1753 
Q 3500 1569 3603 1388 
L 3616 1388 
Q 3591 1544 3591 2003 
L 3591 4481 
L 4544 4481 
L 4544 0 
z
" transform="scale(0.015625)"/>
     </defs>
     <use xlink:href="#SegoeUI-Bold-4d"/>
     <use xlink:href="#SegoeUI-Bold-55" x="95.703125"/>
     <use xlink:href="#SegoeUI-Bold-4c" x="168.017578"/>
     <use xlink:href="#SegoeUI-Bold-54" x="212.515625"/>
     <use xlink:href="#SegoeUI-Bold-49" x="271.109375"/>
     <use xlink:href="#SegoeUI-Bold-50" x="302.798828"/>
     <use xlink:href="#SegoeUI-Bold-4c" x="364.224609"/>
     <use xlink:href="#SegoeUI-Bold-49" x="415.347656"/>
     <use xlink:href="#SegoeUI-Bold-43" x="447.037109"/>
     <use xlink:href="#SegoeUI-Bold-41" x="509.439453"/>
     <use xlink:href="#SegoeUI-Bold-43" x="578.251953"/>
     <use xlink:href="#SegoeUI-Bold-49" x="640.654297"/>
     <use xlink:href="#SegoeUI-Bold-d3" x="672.34375"/>
     <use xlink:href="#SegoeUI-Bold-4e" x="748.125"/>
     <use xlink:href="#SegoeUI-Bold-20" x="827.128906"/>
     <use xlink:href="#SegoeUI-Bold-50" x="854.716797"/>
     <use xlink:href="#SegoeUI-Bold-4f" x="916.142578"/>
     <use xlink:href="#SegoeUI-Bold-52" x="991.972656"/>
     <use xlink:href="#SegoeUI-Bold-20" x="1057.255859"/>
     <use xlink:href="#SegoeUI-Bold-45" x="1084.84375"/>
     <use xlink:href="#SegoeUI-Bold-53" x="1138.066406"/>
     <use xlink:href="#SegoeUI-Bold-43" x="1194.121094"/>
     <use xlink:href="#SegoeUI-Bold-41" x="1256.523438"/>
     <use xlink:href="#SegoeUI-Bold-4c" x="1326.835938"/>
     <use xlink:href="#SegoeUI-Bold-41" x="1380.208984"/>
     <use xlink:href="#SegoeUI-Bold-52" x="1450.521484"/>
    </g>
   </g>
   <g id="text_38">
    <!-- $c\mathbf{v} = \langle cv_x, cv_y, cv_z \rangle$ -->
    <g style="fill: #2c2f33" transform="translate(740.855374 396.227303) scale(0.12 -0.12)">
     <defs>
      <path id="DejaVuSans-Oblique-63" d="M 3431 3366 
L 3316 2797 
Q 3109 2947 2876 3022 
Q 2644 3097 2394 3097 
Q 2119 3097 1870 3000 
Q 1622 2903 1453 2725 
Q 1184 2453 1037 2087 
Q 891 1722 891 1331 
Q 891 859 1127 628 
Q 1363 397 1844 397 
Q 2081 397 2348 469 
Q 2616 541 2906 684 
L 2797 116 
Q 2547 13 2283 -39 
Q 2019 -91 1741 -91 
Q 1044 -91 669 257 
Q 294 606 294 1253 
Q 294 1797 489 2255 
Q 684 2713 1069 3078 
Q 1331 3328 1684 3456 
Q 2038 3584 2456 3584 
Q 2700 3584 2940 3529 
Q 3181 3475 3431 3366 
z
" transform="scale(0.015625)"/>
     </defs>
     <use xlink:href="#DejaVuSans-Oblique-63" transform="translate(0 0.125)"/>
     <use xlink:href="#DejaVuSans-Bold-76" transform="translate(54.980469 0.125)"/>
     <use xlink:href="#DejaVuSans-3d" transform="translate(139.648438 0.125)"/>
     <use xlink:href="#DejaVuSans-27e8" transform="translate(242.919922 0.125)"/>
     <use xlink:href="#DejaVuSans-Oblique-63" transform="translate(281.933594 0.125)"/>
     <use xlink:href="#DejaVuSans-Oblique-76" transform="translate(336.914062 0.125)"/>
     <use xlink:href="#DejaVuSans-Oblique-78" transform="translate(396.09375 -16.28125) scale(0.7)"/>
     <use xlink:href="#DejaVuSans-2c" transform="translate(440.253906 0.125)"/>
     <use xlink:href="#DejaVuSans-Oblique-63" transform="translate(491.523438 0.125)"/>
     <use xlink:href="#DejaVuSans-Oblique-76" transform="translate(546.503906 0.125)"/>
     <use xlink:href="#DejaVuSans-Oblique-79" transform="translate(605.683594 -16.28125) scale(0.7)"/>
     <use xlink:href="#DejaVuSans-2c" transform="translate(649.84375 0.125)"/>
     <use xlink:href="#DejaVuSans-Oblique-63" transform="translate(701.113281 0.125)"/>
     <use xlink:href="#DejaVuSans-Oblique-76" transform="translate(756.09375 0.125)"/>
     <use xlink:href="#DejaVuSans-Oblique-7a" transform="translate(815.273438 -16.28125) scale(0.7)"/>
     <use xlink:href="#DejaVuSans-27e9" transform="translate(854.750977 0.125)"/>
    </g>
   </g>
   <g id="text_39">
    <!-- Propiedades -->
    <g style="fill: #374151" transform="translate(765.38053 470.745274) scale(0.1 -0.1)">
     <defs>
      <path id="SegoeUI-Bold-70" d="M 1416 372 
L 1403 372 
L 1403 -1472 
L 416 -1472 
L 416 3200 
L 1403 3200 
L 1403 2719 
L 1416 2719 
Q 1781 3278 2444 3278 
Q 3066 3278 3405 2851 
Q 3744 2425 3744 1691 
Q 3744 891 3348 406 
Q 2953 -78 2297 -78 
Q 1719 -78 1416 372 
z
M 1388 1684 
L 1388 1428 
Q 1388 1097 1563 887 
Q 1738 678 2022 678 
Q 2359 678 2545 939 
Q 2731 1200 2731 1678 
Q 2731 2522 2075 2522 
Q 1772 2522 1580 2292 
Q 1388 2063 1388 1684 
z
" transform="scale(0.015625)"/>
      <path id="SegoeUI-Bold-69" d="M 916 3706 
Q 666 3706 506 3854 
Q 347 4003 347 4219 
Q 347 4441 506 4581 
Q 666 4722 916 4722 
Q 1169 4722 1326 4581 
Q 1484 4441 1484 4219 
Q 1484 3994 1326 3850 
Q 1169 3706 916 3706 
z
M 1403 0 
L 416 0 
L 416 3200 
L 1403 3200 
L 1403 0 
z
" transform="scale(0.015625)"/>
      <path id="SegoeUI-Bold-73" d="M 206 84 
L 206 884 
Q 450 738 692 666 
Q 934 594 1150 594 
Q 1413 594 1564 666 
Q 1716 738 1716 884 
Q 1716 978 1647 1040 
Q 1578 1103 1470 1150 
Q 1363 1197 1234 1234 
Q 1106 1272 988 1319 
Q 797 1391 651 1473 
Q 506 1556 407 1665 
Q 309 1775 257 1919 
Q 206 2063 206 2259 
Q 206 2528 323 2722 
Q 441 2916 636 3039 
Q 831 3163 1082 3220 
Q 1334 3278 1606 3278 
Q 1819 3278 2037 3245 
Q 2256 3213 2469 3150 
L 2469 2388 
Q 2281 2497 2067 2551 
Q 1853 2606 1647 2606 
Q 1550 2606 1464 2589 
Q 1378 2572 1312 2539 
Q 1247 2506 1209 2454 
Q 1172 2403 1172 2338 
Q 1172 2250 1228 2187 
Q 1284 2125 1375 2079 
Q 1466 2034 1577 1998 
Q 1688 1963 1797 1925 
Q 1994 1856 2153 1775 
Q 2313 1694 2427 1584 
Q 2541 1475 2602 1328 
Q 2663 1181 2663 978 
Q 2663 694 2539 492 
Q 2416 291 2211 164 
Q 2006 38 1739 -20 
Q 1472 -78 1184 -78 
Q 656 -78 206 84 
z
" transform="scale(0.015625)"/>
     </defs>
     <use xlink:href="#SegoeUI-Bold-50"/>
     <use xlink:href="#SegoeUI-Bold-72" x="61.425781"/>
     <use xlink:href="#SegoeUI-Bold-6f" x="100.845703"/>
     <use xlink:href="#SegoeUI-Bold-70" x="161.978516"/>
     <use xlink:href="#SegoeUI-Bold-69" x="223.990234"/>
     <use xlink:href="#SegoeUI-Bold-65" x="252.408203"/>
     <use xlink:href="#SegoeUI-Bold-64" x="306.509766"/>
     <use xlink:href="#SegoeUI-Bold-61" x="368.423828"/>
     <use xlink:href="#SegoeUI-Bold-64" x="422.232422"/>
     <use xlink:href="#SegoeUI-Bold-65" x="484.146484"/>
     <use xlink:href="#SegoeUI-Bold-73" x="538.248047"/>
    </g>
   </g>
   <g id="text_40">
    <!-- $\mathbf{u} + \mathbf{v} = \mathbf{v} + \mathbf{u}$ (conmutativa) -->
    <g style="fill: #6b7280" transform="translate(737.075374 502.681548) scale(0.09 -0.09)">
     <defs>
      <path id="SegoeUI-20" transform="scale(0.015625)"/>
      <path id="SegoeUI-28" d="M 1863 -1019 
L 1406 -1019 
Q 438 88 438 1709 
Q 438 3338 1406 4481 
L 1869 4481 
Q 888 3294 888 1716 
Q 888 150 1863 -1019 
z
" transform="scale(0.015625)"/>
      <path id="SegoeUI-63" d="M 2700 147 
Q 2331 -75 1825 -75 
Q 1141 -75 720 370 
Q 300 816 300 1525 
Q 300 2316 753 2795 
Q 1206 3275 1963 3275 
Q 2384 3275 2706 3119 
L 2706 2594 
Q 2350 2844 1944 2844 
Q 1453 2844 1139 2492 
Q 825 2141 825 1569 
Q 825 1006 1120 681 
Q 1416 356 1913 356 
Q 2331 356 2700 634 
L 2700 147 
z
" transform="scale(0.015625)"/>
      <path id="SegoeUI-6f" d="M 1856 -75 
Q 1147 -75 723 373 
Q 300 822 300 1563 
Q 300 2369 740 2822 
Q 1181 3275 1931 3275 
Q 2647 3275 3048 2834 
Q 3450 2394 3450 1613 
Q 3450 847 3017 386 
Q 2584 -75 1856 -75 
z
M 1894 2844 
Q 1400 2844 1112 2508 
Q 825 2172 825 1581 
Q 825 1013 1115 684 
Q 1406 356 1894 356 
Q 2391 356 2658 678 
Q 2925 1000 2925 1594 
Q 2925 2194 2658 2519 
Q 2391 2844 1894 2844 
z
" transform="scale(0.015625)"/>
      <path id="SegoeUI-6e" d="M 3175 0 
L 2663 0 
L 2663 1825 
Q 2663 2844 1919 2844 
Q 1534 2844 1282 2555 
Q 1031 2266 1031 1825 
L 1031 0 
L 519 0 
L 519 3200 
L 1031 3200 
L 1031 2669 
L 1044 2669 
Q 1406 3275 2094 3275 
Q 2619 3275 2897 2936 
Q 3175 2597 3175 1956 
L 3175 0 
z
" transform="scale(0.015625)"/>
      <path id="SegoeUI-6d" d="M 5063 0 
L 4550 0 
L 4550 1838 
Q 4550 2369 4386 2606 
Q 4222 2844 3834 2844 
Q 3506 2844 3276 2544 
Q 3047 2244 3047 1825 
L 3047 0 
L 2534 0 
L 2534 1900 
Q 2534 2844 1806 2844 
Q 1469 2844 1250 2561 
Q 1031 2278 1031 1825 
L 1031 0 
L 519 0 
L 519 3200 
L 1031 3200 
L 1031 2694 
L 1044 2694 
Q 1384 3275 2038 3275 
Q 2366 3275 2609 3092 
Q 2853 2909 2944 2613 
Q 3300 3275 4006 3275 
Q 5063 3275 5063 1972 
L 5063 0 
z
" transform="scale(0.015625)"/>
      <path id="SegoeUI-75" d="M 3106 0 
L 2594 0 
L 2594 506 
L 2581 506 
Q 2263 -75 1594 -75 
Q 450 -75 450 1288 
L 450 3200 
L 959 3200 
L 959 1369 
Q 959 356 1734 356 
Q 2109 356 2351 632 
Q 2594 909 2594 1356 
L 2594 3200 
L 3106 3200 
L 3106 0 
z
" transform="scale(0.015625)"/>
      <path id="SegoeUI-74" d="M 2003 31 
Q 1822 -69 1525 -69 
Q 684 -69 684 869 
L 684 2763 
L 134 2763 
L 134 3200 
L 684 3200 
L 684 3981 
L 1197 4147 
L 1197 3200 
L 2003 3200 
L 2003 2763 
L 1197 2763 
L 1197 959 
Q 1197 638 1306 500 
Q 1416 363 1669 363 
Q 1863 363 2003 469 
L 2003 31 
z
" transform="scale(0.015625)"/>
      <path id="SegoeUI-61" d="M 2809 0 
L 2297 0 
L 2297 500 
L 2284 500 
Q 1950 -75 1300 -75 
Q 822 -75 551 178 
Q 281 431 281 850 
Q 281 1747 1338 1894 
L 2297 2028 
Q 2297 2844 1638 2844 
Q 1059 2844 594 2450 
L 594 2975 
Q 1066 3275 1681 3275 
Q 2809 3275 2809 2081 
L 2809 0 
z
M 2297 1619 
L 1525 1513 
Q 1169 1463 987 1336 
Q 806 1209 806 888 
Q 806 653 973 504 
Q 1141 356 1419 356 
Q 1800 356 2048 623 
Q 2297 891 2297 1300 
L 2297 1619 
z
" transform="scale(0.015625)"/>
      <path id="SegoeUI-69" d="M 781 4013 
Q 644 4013 547 4106 
Q 450 4200 450 4344 
Q 450 4488 547 4583 
Q 644 4678 781 4678 
Q 922 4678 1020 4583 
Q 1119 4488 1119 4344 
Q 1119 4206 1020 4109 
Q 922 4013 781 4013 
z
M 1031 0 
L 519 0 
L 519 3200 
L 1031 3200 
L 1031 0 
z
" transform="scale(0.015625)"/>
      <path id="SegoeUI-76" d="M 3034 3200 
L 1759 0 
L 1256 0 
L 44 3200 
L 606 3200 
L 1419 875 
Q 1509 619 1531 428 
L 1544 428 
Q 1575 669 1644 863 
L 2494 3200 
L 3034 3200 
z
" transform="scale(0.015625)"/>
      <path id="SegoeUI-29" d="M 531 -1019 
L 75 -1019 
Q 1050 150 1050 1716 
Q 1050 3294 69 4481 
L 531 4481 
Q 1506 3338 1506 1709 
Q 1506 88 531 -1019 
z
" transform="scale(0.015625)"/>
     </defs>
     <use xlink:href="#DejaVuSans-Bold-75" transform="translate(0 0.90625)"/>
     <use xlink:href="#DejaVuSans-2b" transform="translate(90.673828 0.90625)"/>
     <use xlink:href="#DejaVuSans-Bold-76" transform="translate(193.945312 0.90625)"/>
     <use xlink:href="#DejaVuSans-3d" transform="translate(278.613281 0.90625)"/>
     <use xlink:href="#DejaVuSans-Bold-76" transform="translate(381.884766 0.90625)"/>
     <use xlink:href="#DejaVuSans-2b" transform="translate(466.552734 0.90625)"/>
     <use xlink:href="#DejaVuSans-Bold-75" transform="translate(569.824219 0.90625)"/>
     <use xlink:href="#SegoeUI-20" transform="translate(641.015625 0.90625)"/>
     <use xlink:href="#SegoeUI-28" transform="translate(668.408203 0.90625)"/>
     <use xlink:href="#SegoeUI-63" transform="translate(699.083984 0.90625)"/>
     <use xlink:href="#SegoeUI-6f" transform="translate(745.275391 0.90625)"/>
     <use xlink:href="#SegoeUI-6e" transform="translate(803.869141 0.90625)"/>
     <use xlink:href="#SegoeUI-6d" transform="translate(860.460938 0.90625)"/>
     <use xlink:href="#SegoeUI-75" transform="translate(946.59375 0.90625)"/>
     <use xlink:href="#SegoeUI-74" transform="translate(1003.185547 0.90625)"/>
     <use xlink:href="#SegoeUI-61" transform="translate(1037.072266 0.90625)"/>
     <use xlink:href="#SegoeUI-74" transform="translate(1087.951172 0.90625)"/>
     <use xlink:href="#SegoeUI-69" transform="translate(1121.837891 0.90625)"/>
     <use xlink:href="#SegoeUI-76" transform="translate(1146.056641 0.90625)"/>
     <use xlink:href="#SegoeUI-61" transform="translate(1193.957031 0.90625)"/>
     <use xlink:href="#SegoeUI-29" transform="translate(1244.835938 0.90625)"/>
    </g>
   </g>
   <g id="text_41">
    <!-- $c(d\mathbf{v}) = (cd)\mathbf{v}$ (asociativa) -->
    <g style="fill: #6b7280" transform="translate(742.115374 529.29511) scale(0.09 -0.09)">
     <defs>
      <path id="DejaVuSans-Oblique-64" d="M 2675 525 
Q 2444 222 2128 65 
Q 1813 -91 1428 -91 
Q 903 -91 598 267 
Q 294 625 294 1247 
Q 294 1766 478 2236 
Q 663 2706 1013 3078 
Q 1244 3325 1534 3454 
Q 1825 3584 2144 3584 
Q 2481 3584 2739 3421 
Q 2997 3259 3138 2956 
L 3513 4863 
L 4091 4863 
L 3144 0 
L 2566 0 
L 2675 525 
z
M 891 1350 
Q 891 897 1095 644 
Q 1300 391 1663 391 
Q 1931 391 2161 520 
Q 2391 650 2566 903 
Q 2750 1166 2856 1509 
Q 2963 1853 2963 2188 
Q 2963 2622 2758 2865 
Q 2553 3109 2194 3109 
Q 1922 3109 1687 2981 
Q 1453 2853 1288 2613 
Q 1106 2353 998 2009 
Q 891 1666 891 1350 
z
" transform="scale(0.015625)"/>
      <path id="SegoeUI-73" d="M 325 116 
L 325 666 
Q 744 356 1247 356 
Q 1922 356 1922 806 
Q 1922 934 1864 1023 
Q 1806 1113 1707 1181 
Q 1609 1250 1476 1304 
Q 1344 1359 1191 1419 
Q 978 1503 817 1589 
Q 656 1675 548 1783 
Q 441 1891 386 2028 
Q 331 2166 331 2350 
Q 331 2575 434 2748 
Q 538 2922 709 3039 
Q 881 3156 1101 3215 
Q 1322 3275 1556 3275 
Q 1972 3275 2300 3131 
L 2300 2613 
Q 1947 2844 1488 2844 
Q 1344 2844 1228 2811 
Q 1113 2778 1030 2718 
Q 947 2659 901 2576 
Q 856 2494 856 2394 
Q 856 2269 901 2184 
Q 947 2100 1034 2034 
Q 1122 1969 1247 1916 
Q 1372 1863 1531 1800 
Q 1744 1719 1912 1633 
Q 2081 1547 2200 1439 
Q 2319 1331 2383 1190 
Q 2447 1050 2447 856 
Q 2447 619 2342 444 
Q 2238 269 2063 153 
Q 1888 38 1659 -18 
Q 1431 -75 1181 -75 
Q 688 -75 325 116 
z
" transform="scale(0.015625)"/>
     </defs>
     <use xlink:href="#DejaVuSans-Oblique-63" transform="translate(0 0.015625)"/>
     <use xlink:href="#DejaVuSans-28" transform="translate(54.980469 0.015625)"/>
     <use xlink:href="#DejaVuSans-Oblique-64" transform="translate(93.994141 0.015625)"/>
     <use xlink:href="#DejaVuSans-Bold-76" transform="translate(157.470703 0.015625)"/>
     <use xlink:href="#DejaVuSans-29" transform="translate(222.65625 0.015625)"/>
     <use xlink:href="#DejaVuSans-3d" transform="translate(281.152344 0.015625)"/>
     <use xlink:href="#DejaVuSans-28" transform="translate(384.423828 0.015625)"/>
     <use xlink:href="#DejaVuSans-Oblique-63" transform="translate(423.4375 0.015625)"/>
     <use xlink:href="#DejaVuSans-Oblique-64" transform="translate(478.417969 0.015625)"/>
     <use xlink:href="#DejaVuSans-29" transform="translate(541.894531 0.015625)"/>
     <use xlink:href="#DejaVuSans-Bold-76" transform="translate(580.908203 0.015625)"/>
     <use xlink:href="#SegoeUI-20" transform="translate(646.09375 0.015625)"/>
     <use xlink:href="#SegoeUI-28" transform="translate(673.486328 0.015625)"/>
     <use xlink:href="#SegoeUI-61" transform="translate(703.662109 0.015625)"/>
     <use xlink:href="#SegoeUI-73" transform="translate(754.541016 0.015625)"/>
     <use xlink:href="#SegoeUI-6f" transform="translate(796.972656 0.015625)"/>
     <use xlink:href="#SegoeUI-63" transform="translate(855.566406 0.015625)"/>
     <use xlink:href="#SegoeUI-69" transform="translate(901.757812 0.015625)"/>
     <use xlink:href="#SegoeUI-61" transform="translate(925.976562 0.015625)"/>
     <use xlink:href="#SegoeUI-74" transform="translate(976.855469 0.015625)"/>
     <use xlink:href="#SegoeUI-69" transform="translate(1010.742188 0.015625)"/>
     <use xlink:href="#SegoeUI-76" transform="translate(1034.960938 0.015625)"/>
     <use xlink:href="#SegoeUI-61" transform="translate(1082.861328 0.015625)"/>
     <use xlink:href="#SegoeUI-29" transform="translate(1133.740234 0.015625)"/>
    </g>
   </g>
   <g id="text_42">
    <!-- $c(\mathbf{u} + \mathbf{v}) = c\mathbf{u} + c\mathbf{v}$ (distributiva) -->
    <g style="fill: #6b7280" transform="translate(728.660374 555.908671) scale(0.09 -0.09)">
     <defs>
      <path id="SegoeUI-64" d="M 3250 0 
L 2738 0 
L 2738 544 
L 2725 544 
Q 2369 -75 1625 -75 
Q 1022 -75 661 354 
Q 300 784 300 1525 
Q 300 2319 700 2797 
Q 1100 3275 1766 3275 
Q 2425 3275 2725 2756 
L 2738 2756 
L 2738 4738 
L 3250 4738 
L 3250 0 
z
M 2738 1447 
L 2738 1919 
Q 2738 2306 2481 2575 
Q 2225 2844 1831 2844 
Q 1363 2844 1094 2500 
Q 825 2156 825 1550 
Q 825 997 1083 676 
Q 1341 356 1775 356 
Q 2203 356 2470 665 
Q 2738 975 2738 1447 
z
" transform="scale(0.015625)"/>
      <path id="SegoeUI-72" d="M 2188 2681 
Q 2053 2784 1800 2784 
Q 1472 2784 1251 2475 
Q 1031 2166 1031 1631 
L 1031 0 
L 519 0 
L 519 3200 
L 1031 3200 
L 1031 2541 
L 1044 2541 
Q 1153 2878 1378 3067 
Q 1603 3256 1881 3256 
Q 2081 3256 2188 3213 
L 2188 2681 
z
" transform="scale(0.015625)"/>
      <path id="SegoeUI-62" d="M 1044 463 
L 1031 463 
L 1031 0 
L 519 0 
L 519 4738 
L 1031 4738 
L 1031 2638 
L 1044 2638 
Q 1422 3275 2150 3275 
Q 2766 3275 3114 2845 
Q 3463 2416 3463 1694 
Q 3463 891 3072 408 
Q 2681 -75 2003 -75 
Q 1369 -75 1044 463 
z
M 1031 1753 
L 1031 1306 
Q 1031 909 1289 632 
Q 1547 356 1944 356 
Q 2409 356 2673 712 
Q 2938 1069 2938 1703 
Q 2938 2238 2691 2541 
Q 2444 2844 2022 2844 
Q 1575 2844 1303 2533 
Q 1031 2222 1031 1753 
z
" transform="scale(0.015625)"/>
     </defs>
     <use xlink:href="#DejaVuSans-Oblique-63" transform="translate(0 0.125)"/>
     <use xlink:href="#DejaVuSans-28" transform="translate(54.980469 0.125)"/>
     <use xlink:href="#DejaVuSans-Bold-75" transform="translate(93.994141 0.125)"/>
     <use xlink:href="#DejaVuSans-2b" transform="translate(184.667969 0.125)"/>
     <use xlink:href="#DejaVuSans-Bold-76" transform="translate(287.939453 0.125)"/>
     <use xlink:href="#DejaVuSans-29" transform="translate(353.125 0.125)"/>
     <use xlink:href="#DejaVuSans-3d" transform="translate(411.621094 0.125)"/>
     <use xlink:href="#DejaVuSans-Oblique-63" transform="translate(514.892578 0.125)"/>
     <use xlink:href="#DejaVuSans-Bold-75" transform="translate(569.873047 0.125)"/>
     <use xlink:href="#DejaVuSans-2b" transform="translate(660.546875 0.125)"/>
     <use xlink:href="#DejaVuSans-Oblique-63" transform="translate(763.818359 0.125)"/>
     <use xlink:href="#DejaVuSans-Bold-76" transform="translate(818.798828 0.125)"/>
     <use xlink:href="#SegoeUI-20" transform="translate(883.984375 0.125)"/>
     <use xlink:href="#SegoeUI-28" transform="translate(911.376953 0.125)"/>
     <use xlink:href="#SegoeUI-64" transform="translate(941.552734 0.125)"/>
     <use xlink:href="#SegoeUI-69" transform="translate(1000.439453 0.125)"/>
     <use xlink:href="#SegoeUI-73" transform="translate(1024.658203 0.125)"/>
     <use xlink:href="#SegoeUI-74" transform="translate(1067.089844 0.125)"/>
     <use xlink:href="#SegoeUI-72" transform="translate(1100.976562 0.125)"/>
     <use xlink:href="#SegoeUI-69" transform="translate(1135.742188 0.125)"/>
     <use xlink:href="#SegoeUI-62" transform="translate(1159.960938 0.125)"/>
     <use xlink:href="#SegoeUI-75" transform="translate(1218.75 0.125)"/>
     <use xlink:href="#SegoeUI-74" transform="translate(1275.341797 0.125)"/>
     <use xlink:href="#SegoeUI-69" transform="translate(1309.228516 0.125)"/>
     <use xlink:href="#SegoeUI-76" transform="translate(1333.447266 0.125)"/>
     <use xlink:href="#SegoeUI-61" transform="translate(1381.347656 0.125)"/>
     <use xlink:href="#SegoeUI-29" transform="translate(1432.226562 0.125)"/>
    </g>
   </g>
  </g>
  <g id="text_43">
   <!-- Operaciones con Vectores en el Espacio -->
   <g style="fill: #2c2f33" transform="translate(365.351764 17.564375) scale(0.14 -0.14)">
    <defs>
     <path id="SegoeUI-Bold-63" d="M 2841 116 
Q 2506 -78 1875 -78 
Q 1138 -78 681 369 
Q 225 816 225 1522 
Q 225 2338 714 2808 
Q 1203 3278 2022 3278 
Q 2588 3278 2841 3128 
L 2841 2291 
Q 2531 2522 2150 2522 
Q 1725 2522 1476 2273 
Q 1228 2025 1228 1588 
Q 1228 1163 1465 920 
Q 1703 678 2119 678 
Q 2488 678 2841 909 
L 2841 116 
z
" transform="scale(0.015625)"/>
     <path id="SegoeUI-Bold-6e" d="M 3506 0 
L 2522 0 
L 2522 1778 
Q 2522 2522 1991 2522 
Q 1734 2522 1568 2325 
Q 1403 2128 1403 1825 
L 1403 0 
L 416 0 
L 416 3200 
L 1403 3200 
L 1403 2694 
L 1416 2694 
Q 1769 3278 2444 3278 
Q 3506 3278 3506 1959 
L 3506 0 
z
" transform="scale(0.015625)"/>
     <path id="SegoeUI-Bold-74" d="M 2350 38 
Q 2131 -78 1691 -78 
Q 647 -78 647 1006 
L 647 2472 
L 128 2472 
L 128 3200 
L 647 3200 
L 647 3891 
L 1631 4172 
L 1631 3200 
L 2350 3200 
L 2350 2472 
L 1631 2472 
L 1631 1178 
Q 1631 678 2028 678 
Q 2184 678 2350 769 
L 2350 38 
z
" transform="scale(0.015625)"/>
    </defs>
    <use xlink:href="#SegoeUI-Bold-4f"/>
    <use xlink:href="#SegoeUI-Bold-70" x="75.830078"/>
    <use xlink:href="#SegoeUI-Bold-65" x="137.841797"/>
    <use xlink:href="#SegoeUI-Bold-72" x="191.943359"/>
    <use xlink:href="#SegoeUI-Bold-61" x="231.738281"/>
    <use xlink:href="#SegoeUI-Bold-63" x="285.546875"/>
    <use xlink:href="#SegoeUI-Bold-69" x="333.544922"/>
    <use xlink:href="#SegoeUI-Bold-6f" x="361.962891"/>
    <use xlink:href="#SegoeUI-Bold-6e" x="423.095703"/>
    <use xlink:href="#SegoeUI-Bold-65" x="483.59375"/>
    <use xlink:href="#SegoeUI-Bold-73" x="537.695312"/>
    <use xlink:href="#SegoeUI-Bold-20" x="581.689453"/>
    <use xlink:href="#SegoeUI-Bold-63" x="609.277344"/>
    <use xlink:href="#SegoeUI-Bold-6f" x="657.275391"/>
    <use xlink:href="#SegoeUI-Bold-6e" x="718.408203"/>
    <use xlink:href="#SegoeUI-Bold-20" x="778.90625"/>
    <use xlink:href="#SegoeUI-Bold-56" x="806.494141"/>
    <use xlink:href="#SegoeUI-Bold-65" x="866.693359"/>
    <use xlink:href="#SegoeUI-Bold-63" x="920.794922"/>
    <use xlink:href="#SegoeUI-Bold-74" x="968.792969"/>
    <use xlink:href="#SegoeUI-Bold-6f" x="1007.333984"/>
    <use xlink:href="#SegoeUI-Bold-72" x="1068.466797"/>
    <use xlink:href="#SegoeUI-Bold-65" x="1107.886719"/>
    <use xlink:href="#SegoeUI-Bold-73" x="1161.988281"/>
    <use xlink:href="#SegoeUI-Bold-20" x="1205.982422"/>
    <use xlink:href="#SegoeUI-Bold-65" x="1233.570312"/>
    <use xlink:href="#SegoeUI-Bold-6e" x="1287.671875"/>
    <use xlink:href="#SegoeUI-Bold-20" x="1348.169922"/>
    <use xlink:href="#SegoeUI-Bold-65" x="1375.757812"/>
    <use xlink:href="#SegoeUI-Bold-6c" x="1429.859375"/>
    <use xlink:href="#SegoeUI-Bold-20" x="1458.277344"/>
    <use xlink:href="#SegoeUI-Bold-45" x="1485.865234"/>
    <use xlink:href="#SegoeUI-Bold-73" x="1539.087891"/>
    <use xlink:href="#SegoeUI-Bold-70" x="1583.082031"/>
    <use xlink:href="#SegoeUI-Bold-61" x="1644.09375"/>
    <use xlink:href="#SegoeUI-Bold-63" x="1697.902344"/>
    <use xlink:href="#SegoeUI-Bold-69" x="1745.900391"/>
    <use xlink:href="#SegoeUI-Bold-6f" x="1774.318359"/>
   </g>
  </g>
 </g>
 <defs>
  <clipPath id="p46bcb977b3">
   <rect x="7.2" y="44.928292" width="532.271227" height="532.271228"/>
  </clipPath>
  <clipPath id="p833067e767">
   <rect x="594.145474" y="44.928292" width="400.6998" height="532.271228"/>
  </clipPath>
 </defs>
</svg>
