<?xml version="1.0" encoding="utf-8" standalone="no"?>
<!DOCTYPE svg PUBLIC "-//W3C//DTD SVG 1.1//EN"
  "http://www.w3.org/Graphics/SVG/1.1/DTD/svg11.dtd">
<svg xmlns:xlink="http://www.w3.org/1999/xlink" width="1064.16pt" height="850.32pt" viewBox="0 0 1064.16 850.32" xmlns="http://www.w3.org/2000/svg" version="1.1">
 <metadata>
  <rdf:RDF xmlns:dc="http://purl.org/dc/elements/1.1/" xmlns:cc="http://creativecommons.org/ns#" xmlns:rdf="http://www.w3.org/1999/02/22-rdf-syntax-ns#">
   <cc:Work>
    <dc:type rdf:resource="http://purl.org/dc/dcmitype/StillImage"/>
    <dc:date>2026-04-11T16:12:04.240539</dc:date>
    <dc:format>image/svg+xml</dc:format>
    <dc:creator>
     <cc:Agent>
      <dc:title>Matplotlib v3.8.4, https://matplotlib.org/</dc:title>
     </cc:Agent>
    </dc:creator>
   </cc:Work>
  </rdf:RDF>
 </metadata>
 <defs>
  <style type="text/css">*{stroke-linejoin: round; stroke-linecap: butt}</style>
 </defs>
 <g id="figure_1">
  <g id="patch_1">
   <path d="M 0 850.32 
L 1064.16 850.32 
L 1064.16 0 
L 0 0 
z
" style="fill: #ffffff"/>
  </g>
  <g id="axes_1">
   <g id="patch_2">
    <path d="M 304.632 122.868 
L 759.528 122.868 
Q 768.276 122.868 768.276 114.12 
L 768.276 55.8 
Q 768.276 47.052 759.528 47.052 
L 304.632 47.052 
Q 295.884 47.052 295.884 55.8 
L 295.884 114.12 
Q 295.884 122.868 304.632 122.868 
z
" clip-path="url(#pe7a4d6554c)" style="fill: #1e3a5f; opacity: 0.9; stroke: #1f2937; stroke-width: 2; stroke-linejoin: miter"/>
   </g>
   <g id="patch_3">
    <path d="M 202.572 239.508 
L 395.028 239.508 
Q 403.776 239.508 403.776 230.76 
L 403.776 172.44 
Q 403.776 163.692 395.028 163.692 
L 202.572 163.692 
Q 193.824 163.692 193.824 172.44 
L 193.824 230.76 
Q 193.824 239.508 202.572 239.508 
z
" clip-path="url(#pe7a4d6554c)" style="fill: #39c5bb; opacity: 0.9; stroke: #1f2937; stroke-width: 2; stroke-linejoin: miter"/>
   </g>
   <g id="patch_4">
    <path d="M 435.852 239.508 
L 628.308 239.508 
Q 637.056 239.508 637.056 230.76 
L 637.056 172.44 
Q 637.056 163.692 628.308 163.692 
L 435.852 163.692 
Q 427.104 163.692 427.104 172.44 
L 427.104 230.76 
Q 427.104 239.508 435.852 239.508 
z
" clip-path="url(#pe7a4d6554c)" style="fill: #1f2937; opacity: 0.9; stroke: #1f2937; stroke-width: 2; stroke-linejoin: miter"/>
   </g>
   <g id="patch_5">
    <path d="M 669.132 239.508 
L 861.588 239.508 
Q 870.336 239.508 870.336 230.76 
L 870.336 172.44 
Q 870.336 163.692 861.588 163.692 
L 669.132 163.692 
Q 660.384 163.692 660.384 172.44 
L 660.384 230.76 
Q 660.384 239.508 669.132 239.508 
z
" clip-path="url(#pe7a4d6554c)" style="fill: #e12885; opacity: 0.9; stroke: #1f2937; stroke-width: 2; stroke-linejoin: miter"/>
   </g>
   <g id="patch_6">
    <path d="M 217.152 347.4 
L 380.448 347.4 
Q 389.196 347.4 389.196 338.652 
L 389.196 297.828 
Q 389.196 289.08 380.448 289.08 
L 217.152 289.08 
Q 208.404 289.08 208.404 297.828 
L 208.404 338.652 
Q 208.404 347.4 217.152 347.4 
z
" clip-path="url(#pe7a4d6554c)" style="fill: #64748b; opacity: 0.9; stroke: #1f2937; stroke-width: 2; stroke-linejoin: miter"/>
   </g>
   <g id="patch_7">
    <path d="M 450.432 347.4 
L 613.728 347.4 
Q 622.476 347.4 622.476 338.652 
L 622.476 297.828 
Q 622.476 289.08 613.728 289.08 
L 450.432 289.08 
Q 441.684 289.08 441.684 297.828 
L 441.684 338.652 
Q 441.684 347.4 450.432 347.4 
z
" clip-path="url(#pe7a4d6554c)" style="fill: #64748b; opacity: 0.9; stroke: #1f2937; stroke-width: 2; stroke-linejoin: miter"/>
   </g>
   <g id="patch_8">
    <path d="M 765.36 277.416 
L 806.184 318.24 
L 765.36 359.064 
L 724.536 318.24 
z
" clip-path="url(#pe7a4d6554c)" style="fill: #f59e0b; opacity: 0.9; stroke: #1f2937; stroke-width: 2; stroke-linejoin: miter"/>
   </g>
   <g id="patch_9">
    <path d="M 590.4 417.384 
L 707.04 417.384 
Q 715.788 417.384 715.788 408.636 
L 715.788 367.812 
Q 715.788 359.064 707.04 359.064 
L 590.4 359.064 
Q 581.652 359.064 581.652 367.812 
L 581.652 408.636 
Q 581.652 417.384 590.4 417.384 
z
" clip-path="url(#pe7a4d6554c)" style="fill: #1f2937; opacity: 0.9; stroke: #1f2937; stroke-width: 2; stroke-linejoin: miter"/>
   </g>
   <g id="patch_10">
    <path d="M 814.932 417.384 
L 949.068 417.384 
Q 957.816 417.384 957.816 408.636 
L 957.816 367.812 
Q 957.816 359.064 949.068 359.064 
L 814.932 359.064 
Q 806.184 359.064 806.184 367.812 
L 806.184 408.636 
Q 806.184 417.384 814.932 417.384 
z
" clip-path="url(#pe7a4d6554c)" style="fill: #4b5563; opacity: 0.9; stroke: #1f2937; stroke-width: 2; stroke-linejoin: miter"/>
   </g>
   <g id="patch_11">
    <path d="M 246.312 525.276 
L 817.848 525.276 
Q 826.596 525.276 826.596 516.528 
L 826.596 469.872 
Q 826.596 461.124 817.848 461.124 
L 246.312 461.124 
Q 237.564 461.124 237.564 469.872 
L 237.564 516.528 
Q 237.564 525.276 246.312 525.276 
z
" clip-path="url(#pe7a4d6554c)" style="fill: #1e3a5f; opacity: 0.9; stroke: #1f2937; stroke-width: 2; stroke-linejoin: miter"/>
   </g>
   <g id="patch_12">
    <path d="M 153 641.916 
L 327.96 641.916 
Q 336.708 641.916 336.708 633.168 
L 336.708 563.184 
Q 336.708 554.436 327.96 554.436 
L 153 554.436 
Q 144.252 554.436 144.252 563.184 
L 144.252 633.168 
Q 144.252 641.916 153 641.916 
z
" clip-path="url(#pe7a4d6554c)" style="fill: #4b5563; opacity: 0.9; stroke: #1f2937; stroke-width: 2; stroke-linejoin: miter"/>
   </g>
   <g id="patch_13">
    <path d="M 357.12 641.916 
L 532.08 641.916 
Q 540.828 641.916 540.828 633.168 
L 540.828 563.184 
Q 540.828 554.436 532.08 554.436 
L 357.12 554.436 
Q 348.372 554.436 348.372 563.184 
L 348.372 633.168 
Q 348.372 641.916 357.12 641.916 
z
" clip-path="url(#pe7a4d6554c)" style="fill: #39c5bb; opacity: 0.9; stroke: #1f2937; stroke-width: 2; stroke-linejoin: miter"/>
   </g>
   <g id="patch_14">
    <path d="M 532.08 641.916 
L 707.04 641.916 
Q 715.788 641.916 715.788 633.168 
L 715.788 563.184 
Q 715.788 554.436 707.04 554.436 
L 532.08 554.436 
Q 523.332 554.436 523.332 563.184 
L 523.332 633.168 
Q 523.332 641.916 532.08 641.916 
z
" clip-path="url(#pe7a4d6554c)" style="fill: #1f2937; opacity: 0.9; stroke: #1f2937; stroke-width: 2; stroke-linejoin: miter"/>
   </g>
   <g id="patch_15">
    <path d="M 736.2 641.916 
L 911.16 641.916 
Q 919.908 641.916 919.908 633.168 
L 919.908 563.184 
Q 919.908 554.436 911.16 554.436 
L 736.2 554.436 
Q 727.452 554.436 727.452 563.184 
L 727.452 633.168 
Q 727.452 641.916 736.2 641.916 
z
" clip-path="url(#pe7a4d6554c)" style="fill: #e12885; opacity: 0.9; stroke: #1f2937; stroke-width: 2; stroke-linejoin: miter"/>
   </g>
   <g id="patch_16">
    <path d="M 164.664 743.976 
L 316.296 743.976 
Q 325.044 743.976 325.044 735.228 
L 325.044 694.404 
Q 325.044 685.656 316.296 685.656 
L 164.664 685.656 
Q 155.916 685.656 155.916 694.404 
L 155.916 735.228 
Q 155.916 743.976 164.664 743.976 
z
" clip-path="url(#pe7a4d6554c)" style="fill: #64748b; opacity: 0.9; stroke: #1f2937; stroke-width: 2; stroke-linejoin: miter"/>
   </g>
   <g id="patch_17">
    <path d="M 368.784 743.976 
L 520.416 743.976 
Q 529.164 743.976 529.164 735.228 
L 529.164 694.404 
Q 529.164 685.656 520.416 685.656 
L 368.784 685.656 
Q 360.036 685.656 360.036 694.404 
L 360.036 735.228 
Q 360.036 743.976 368.784 743.976 
z
" clip-path="url(#pe7a4d6554c)" style="fill: #64748b; opacity: 0.9; stroke: #1f2937; stroke-width: 2; stroke-linejoin: miter"/>
   </g>
   <g id="patch_18">
    <path d="M 543.744 743.976 
L 695.376 743.976 
Q 704.124 743.976 704.124 735.228 
L 704.124 694.404 
Q 704.124 685.656 695.376 685.656 
L 543.744 685.656 
Q 534.996 685.656 534.996 694.404 
L 534.996 735.228 
Q 534.996 743.976 543.744 743.976 
z
" clip-path="url(#pe7a4d6554c)" style="fill: #64748b; opacity: 0.9; stroke: #1f2937; stroke-width: 2; stroke-linejoin: miter"/>
   </g>
   <g id="patch_19">
    <path d="M 747.864 743.976 
L 899.496 743.976 
Q 908.244 743.976 908.244 735.228 
L 908.244 694.404 
Q 908.244 685.656 899.496 685.656 
L 747.864 685.656 
Q 739.116 685.656 739.116 694.404 
L 739.116 735.228 
Q 739.116 743.976 747.864 743.976 
z
" clip-path="url(#pe7a4d6554c)" style="fill: #64748b; opacity: 0.9; stroke: #1f2937; stroke-width: 2; stroke-linejoin: miter"/>
   </g>
   <g id="patch_20">
    <path d="M 211.32 803.4624 
L 234.648 803.4624 
Q 235.8144 803.4624 235.8144 802.296 
L 235.8144 778.968 
Q 235.8144 777.8016 234.648 777.8016 
L 211.32 777.8016 
Q 210.1536 777.8016 210.1536 778.968 
L 210.1536 802.296 
Q 210.1536 803.4624 211.32 803.4624 
z
" clip-path="url(#pe7a4d6554c)" style="fill: #39c5bb"/>
   </g>
   <g id="patch_21">
    <path d="M 415.44 803.4624 
L 438.768 803.4624 
Q 439.9344 803.4624 439.9344 802.296 
L 439.9344 778.968 
Q 439.9344 777.8016 438.768 777.8016 
L 415.44 777.8016 
Q 414.2736 777.8016 414.2736 778.968 
L 414.2736 802.296 
Q 414.2736 803.4624 415.44 803.4624 
z
" clip-path="url(#pe7a4d6554c)" style="fill: #1f2937"/>
   </g>
   <g id="patch_22">
    <path d="M 619.56 803.4624 
L 642.888 803.4624 
Q 644.0544 803.4624 644.0544 802.296 
L 644.0544 778.968 
Q 644.0544 777.8016 642.888 777.8016 
L 619.56 777.8016 
Q 618.3936 777.8016 618.3936 778.968 
L 618.3936 802.296 
Q 618.3936 803.4624 619.56 803.4624 
z
" clip-path="url(#pe7a4d6554c)" style="fill: #e12885"/>
   </g>
   <g id="patch_23">
    <path d="M 823.68 803.4624 
L 847.008 803.4624 
Q 848.1744 803.4624 848.1744 802.296 
L 848.1744 778.968 
Q 848.1744 777.8016 847.008 777.8016 
L 823.68 777.8016 
Q 822.5136 777.8016 822.5136 778.968 
L 822.5136 802.296 
Q 822.5136 803.4624 823.68 803.4624 
z
" clip-path="url(#pe7a4d6554c)" style="fill: #4b5563"/>
   </g>
   <g id="text_1">
    <!-- ¿Qué forma tiene la EDO? -->
    <g style="fill: #ffffff" transform="translate(431.311719 89.021094) scale(0.14 -0.14)">
     <defs>
      <path id="DejaVuSans-Bold-bf" d="M 1522 1919 
L 2650 1919 
L 2650 1766 
Q 2650 1513 2548 1316 
Q 2447 1119 2106 806 
L 1906 625 
Q 1731 466 1650 322 
Q 1569 178 1569 31 
Q 1569 -188 1719 -313 
Q 1869 -438 2138 -438 
Q 2391 -438 2686 -331 
Q 2981 -225 3297 -19 
L 3297 -1000 
Q 2925 -1131 2608 -1193 
Q 2291 -1256 2003 -1256 
Q 1241 -1256 841 -945 
Q 441 -634 441 -41 
Q 441 269 562 511 
Q 684 753 978 1028 
L 1178 1209 
Q 1391 1400 1456 1519 
Q 1522 1638 1522 1778 
L 1522 1919 
z
M 2650 2388 
L 1522 2388 
L 1522 3500 
L 2650 3500 
L 2650 2388 
z
" transform="scale(0.015625)"/>
      <path id="DejaVuSans-Bold-51" d="M 2847 -84 
L 2753 -84 
Q 1600 -84 959 553 
Q 319 1191 319 2328 
Q 319 3463 958 4106 
Q 1597 4750 2719 4750 
Q 3853 4750 4486 4112 
Q 5119 3475 5119 2328 
Q 5119 1541 4783 972 
Q 4447 403 3816 116 
L 4756 -934 
L 3609 -934 
L 2847 -84 
z
M 2719 3878 
Q 2169 3878 1866 3472 
Q 1563 3066 1563 2328 
Q 1563 1578 1859 1179 
Q 2156 781 2719 781 
Q 3272 781 3575 1187 
Q 3878 1594 3878 2328 
Q 3878 3066 3575 3472 
Q 3272 3878 2719 3878 
z
" transform="scale(0.015625)"/>
      <path id="DejaVuSans-Bold-75" d="M 500 1363 
L 500 3500 
L 1625 3500 
L 1625 3150 
Q 1625 2866 1622 2436 
Q 1619 2006 1619 1863 
Q 1619 1441 1641 1255 
Q 1663 1069 1716 984 
Q 1784 875 1895 815 
Q 2006 756 2150 756 
Q 2500 756 2700 1025 
Q 2900 1294 2900 1772 
L 2900 3500 
L 4019 3500 
L 4019 0 
L 2900 0 
L 2900 506 
Q 2647 200 2364 54 
Q 2081 -91 1741 -91 
Q 1134 -91 817 281 
Q 500 653 500 1363 
z
" transform="scale(0.015625)"/>
      <path id="DejaVuSans-Bold-e9" d="M 4031 1759 
L 4031 1441 
L 1416 1441 
Q 1456 1047 1700 850 
Q 1944 653 2381 653 
Q 2734 653 3104 758 
Q 3475 863 3866 1075 
L 3866 213 
Q 3469 63 3072 -14 
Q 2675 -91 2278 -91 
Q 1328 -91 801 392 
Q 275 875 275 1747 
Q 275 2603 792 3093 
Q 1309 3584 2216 3584 
Q 3041 3584 3536 3087 
Q 4031 2591 4031 1759 
z
M 2881 2131 
Q 2881 2450 2695 2645 
Q 2509 2841 2209 2841 
Q 1884 2841 1681 2658 
Q 1478 2475 1428 2131 
L 2881 2131 
z
M 2702 5119 
L 3586 5119 
L 2433 3944 
L 1821 3944 
L 2702 5119 
z
" transform="scale(0.015625)"/>
      <path id="DejaVuSans-Bold-20" transform="scale(0.015625)"/>
      <path id="DejaVuSans-Bold-66" d="M 2841 4863 
L 2841 4128 
L 2222 4128 
Q 1984 4128 1890 4042 
Q 1797 3956 1797 3744 
L 1797 3500 
L 2753 3500 
L 2753 2700 
L 1797 2700 
L 1797 0 
L 678 0 
L 678 2700 
L 122 2700 
L 122 3500 
L 678 3500 
L 678 3744 
Q 678 4316 997 4589 
Q 1316 4863 1984 4863 
L 2841 4863 
z
" transform="scale(0.015625)"/>
      <path id="DejaVuSans-Bold-6f" d="M 2203 2784 
Q 1831 2784 1636 2517 
Q 1441 2250 1441 1747 
Q 1441 1244 1636 976 
Q 1831 709 2203 709 
Q 2569 709 2762 976 
Q 2956 1244 2956 1747 
Q 2956 2250 2762 2517 
Q 2569 2784 2203 2784 
z
M 2203 3584 
Q 3106 3584 3614 3096 
Q 4122 2609 4122 1747 
Q 4122 884 3614 396 
Q 3106 -91 2203 -91 
Q 1297 -91 786 396 
Q 275 884 275 1747 
Q 275 2609 786 3096 
Q 1297 3584 2203 3584 
z
" transform="scale(0.015625)"/>
      <path id="DejaVuSans-Bold-72" d="M 3138 2547 
Q 2991 2616 2845 2648 
Q 2700 2681 2553 2681 
Q 2122 2681 1889 2404 
Q 1656 2128 1656 1613 
L 1656 0 
L 538 0 
L 538 3500 
L 1656 3500 
L 1656 2925 
Q 1872 3269 2151 3426 
Q 2431 3584 2822 3584 
Q 2878 3584 2943 3579 
Q 3009 3575 3134 3559 
L 3138 2547 
z
" transform="scale(0.015625)"/>
      <path id="DejaVuSans-Bold-6d" d="M 3781 2919 
Q 3994 3244 4286 3414 
Q 4578 3584 4928 3584 
Q 5531 3584 5847 3212 
Q 6163 2841 6163 2131 
L 6163 0 
L 5038 0 
L 5038 1825 
Q 5041 1866 5042 1909 
Q 5044 1953 5044 2034 
Q 5044 2406 4934 2573 
Q 4825 2741 4581 2741 
Q 4263 2741 4089 2478 
Q 3916 2216 3909 1719 
L 3909 0 
L 2784 0 
L 2784 1825 
Q 2784 2406 2684 2573 
Q 2584 2741 2328 2741 
Q 2006 2741 1831 2477 
Q 1656 2213 1656 1722 
L 1656 0 
L 531 0 
L 531 3500 
L 1656 3500 
L 1656 2988 
Q 1863 3284 2130 3434 
Q 2397 3584 2719 3584 
Q 3081 3584 3359 3409 
Q 3638 3234 3781 2919 
z
" transform="scale(0.015625)"/>
      <path id="DejaVuSans-Bold-61" d="M 2106 1575 
Q 1756 1575 1579 1456 
Q 1403 1338 1403 1106 
Q 1403 894 1545 773 
Q 1688 653 1941 653 
Q 2256 653 2472 879 
Q 2688 1106 2688 1447 
L 2688 1575 
L 2106 1575 
z
M 3816 1997 
L 3816 0 
L 2688 0 
L 2688 519 
Q 2463 200 2181 54 
Q 1900 -91 1497 -91 
Q 953 -91 614 226 
Q 275 544 275 1050 
Q 275 1666 698 1953 
Q 1122 2241 2028 2241 
L 2688 2241 
L 2688 2328 
Q 2688 2594 2478 2717 
Q 2269 2841 1825 2841 
Q 1466 2841 1156 2769 
Q 847 2697 581 2553 
L 581 3406 
Q 941 3494 1303 3539 
Q 1666 3584 2028 3584 
Q 2975 3584 3395 3211 
Q 3816 2838 3816 1997 
z
" transform="scale(0.015625)"/>
      <path id="DejaVuSans-Bold-74" d="M 1759 4494 
L 1759 3500 
L 2913 3500 
L 2913 2700 
L 1759 2700 
L 1759 1216 
Q 1759 972 1856 886 
Q 1953 800 2241 800 
L 2816 800 
L 2816 0 
L 1856 0 
Q 1194 0 917 276 
Q 641 553 641 1216 
L 641 2700 
L 84 2700 
L 84 3500 
L 641 3500 
L 641 4494 
L 1759 4494 
z
" transform="scale(0.015625)"/>
      <path id="DejaVuSans-Bold-69" d="M 538 3500 
L 1656 3500 
L 1656 0 
L 538 0 
L 538 3500 
z
M 538 4863 
L 1656 4863 
L 1656 3950 
L 538 3950 
L 538 4863 
z
" transform="scale(0.015625)"/>
      <path id="DejaVuSans-Bold-65" d="M 4031 1759 
L 4031 1441 
L 1416 1441 
Q 1456 1047 1700 850 
Q 1944 653 2381 653 
Q 2734 653 3104 758 
Q 3475 863 3866 1075 
L 3866 213 
Q 3469 63 3072 -14 
Q 2675 -91 2278 -91 
Q 1328 -91 801 392 
Q 275 875 275 1747 
Q 275 2603 792 3093 
Q 1309 3584 2216 3584 
Q 3041 3584 3536 3087 
Q 4031 2591 4031 1759 
z
M 2881 2131 
Q 2881 2450 2695 2645 
Q 2509 2841 2209 2841 
Q 1884 2841 1681 2658 
Q 1478 2475 1428 2131 
L 2881 2131 
z
" transform="scale(0.015625)"/>
      <path id="DejaVuSans-Bold-6e" d="M 4056 2131 
L 4056 0 
L 2931 0 
L 2931 347 
L 2931 1631 
Q 2931 2084 2911 2256 
Q 2891 2428 2841 2509 
Q 2775 2619 2662 2680 
Q 2550 2741 2406 2741 
Q 2056 2741 1856 2470 
Q 1656 2200 1656 1722 
L 1656 0 
L 538 0 
L 538 3500 
L 1656 3500 
L 1656 2988 
Q 1909 3294 2193 3439 
Q 2478 3584 2822 3584 
Q 3428 3584 3742 3212 
Q 4056 2841 4056 2131 
z
" transform="scale(0.015625)"/>
      <path id="DejaVuSans-Bold-6c" d="M 538 4863 
L 1656 4863 
L 1656 0 
L 538 0 
L 538 4863 
z
" transform="scale(0.015625)"/>
      <path id="DejaVuSans-Bold-45" d="M 588 4666 
L 3834 4666 
L 3834 3756 
L 1791 3756 
L 1791 2888 
L 3713 2888 
L 3713 1978 
L 1791 1978 
L 1791 909 
L 3903 909 
L 3903 0 
L 588 0 
L 588 4666 
z
" transform="scale(0.015625)"/>
      <path id="DejaVuSans-Bold-44" d="M 1791 3756 
L 1791 909 
L 2222 909 
Q 2959 909 3348 1275 
Q 3738 1641 3738 2338 
Q 3738 3031 3350 3393 
Q 2963 3756 2222 3756 
L 1791 3756 
z
M 588 4666 
L 1856 4666 
Q 2919 4666 3439 4514 
Q 3959 4363 4331 4000 
Q 4659 3684 4818 3271 
Q 4978 2859 4978 2338 
Q 4978 1809 4818 1395 
Q 4659 981 4331 666 
Q 3956 303 3431 151 
Q 2906 0 1856 0 
L 588 0 
L 588 4666 
z
" transform="scale(0.015625)"/>
      <path id="DejaVuSans-Bold-4f" d="M 2719 3878 
Q 2169 3878 1866 3472 
Q 1563 3066 1563 2328 
Q 1563 1594 1866 1187 
Q 2169 781 2719 781 
Q 3272 781 3575 1187 
Q 3878 1594 3878 2328 
Q 3878 3066 3575 3472 
Q 3272 3878 2719 3878 
z
M 2719 4750 
Q 3844 4750 4481 4106 
Q 5119 3463 5119 2328 
Q 5119 1197 4481 553 
Q 3844 -91 2719 -91 
Q 1597 -91 958 553 
Q 319 1197 319 2328 
Q 319 3463 958 4106 
Q 1597 4750 2719 4750 
z
" transform="scale(0.015625)"/>
      <path id="DejaVuSans-Bold-3f" d="M 2216 1575 
L 1088 1575 
L 1088 1728 
Q 1088 1984 1191 2182 
Q 1294 2381 1625 2688 
L 1825 2869 
Q 2003 3031 2086 3175 
Q 2169 3319 2169 3463 
Q 2169 3681 2019 3804 
Q 1869 3928 1600 3928 
Q 1347 3928 1053 3823 
Q 759 3719 441 3513 
L 441 4494 
Q 819 4625 1131 4687 
Q 1444 4750 1734 4750 
Q 2497 4750 2897 4439 
Q 3297 4128 3297 3531 
Q 3297 3225 3175 2983 
Q 3053 2741 2759 2463 
L 2559 2284 
Q 2347 2091 2281 1973 
Q 2216 1856 2216 1716 
L 2216 1575 
z
M 1088 1113 
L 2216 1113 
L 2216 0 
L 1088 0 
L 1088 1113 
z
" transform="scale(0.015625)"/>
     </defs>
     <use xlink:href="#DejaVuSans-Bold-bf"/>
     <use xlink:href="#DejaVuSans-Bold-51" x="58.007812"/>
     <use xlink:href="#DejaVuSans-Bold-75" x="143.017578"/>
     <use xlink:href="#DejaVuSans-Bold-e9" x="214.208984"/>
     <use xlink:href="#DejaVuSans-Bold-20" x="282.03125"/>
     <use xlink:href="#DejaVuSans-Bold-66" x="316.845703"/>
     <use xlink:href="#DejaVuSans-Bold-6f" x="360.351562"/>
     <use xlink:href="#DejaVuSans-Bold-72" x="429.052734"/>
     <use xlink:href="#DejaVuSans-Bold-6d" x="478.369141"/>
     <use xlink:href="#DejaVuSans-Bold-61" x="582.568359"/>
     <use xlink:href="#DejaVuSans-Bold-20" x="650.048828"/>
     <use xlink:href="#DejaVuSans-Bold-74" x="684.863281"/>
     <use xlink:href="#DejaVuSans-Bold-69" x="732.666016"/>
     <use xlink:href="#DejaVuSans-Bold-65" x="766.943359"/>
     <use xlink:href="#DejaVuSans-Bold-6e" x="834.765625"/>
     <use xlink:href="#DejaVuSans-Bold-65" x="905.957031"/>
     <use xlink:href="#DejaVuSans-Bold-20" x="973.779297"/>
     <use xlink:href="#DejaVuSans-Bold-6c" x="1008.59375"/>
     <use xlink:href="#DejaVuSans-Bold-61" x="1042.871094"/>
     <use xlink:href="#DejaVuSans-Bold-20" x="1110.351562"/>
     <use xlink:href="#DejaVuSans-Bold-45" x="1145.166016"/>
     <use xlink:href="#DejaVuSans-Bold-44" x="1213.476562"/>
     <use xlink:href="#DejaVuSans-Bold-4f" x="1296.484375"/>
     <use xlink:href="#DejaVuSans-Bold-3f" x="1381.494141"/>
    </g>
   </g>
   <g id="patch_24">
    <path d="M 298.8 121.953902 
Q 298.8 143.282066 298.8 162.374163 
" style="fill: none; stroke: #64748b; stroke-width: 2; stroke-linecap: round"/>
    <path d="M 300.8 158.374163 
L 298.8 162.374163 
L 296.8 158.374163 
" style="fill: none; stroke: #64748b; stroke-width: 2; stroke-linecap: round"/>
   </g>
   <g id="patch_25">
    <path d="M 532.08 121.953902 
Q 532.08 143.282066 532.08 162.374163 
" style="fill: none; stroke: #64748b; stroke-width: 2; stroke-linecap: round"/>
    <path d="M 534.08 158.374163 
L 532.08 162.374163 
L 530.08 158.374163 
" style="fill: none; stroke: #64748b; stroke-width: 2; stroke-linecap: round"/>
   </g>
   <g id="patch_26">
    <path d="M 765.36 121.953902 
Q 765.36 143.282066 765.36 162.374163 
" style="fill: none; stroke: #64748b; stroke-width: 2; stroke-linecap: round"/>
    <path d="M 767.36 158.374163 
L 765.36 162.374163 
L 763.36 158.374163 
" style="fill: none; stroke: #64748b; stroke-width: 2; stroke-linecap: round"/>
   </g>
   <g id="text_2">
    <!-- y' = g(x)·h(y) -->
    <g style="fill: #ffffff" transform="translate(261.676562 198.721406) scale(0.1 -0.1)">
     <defs>
      <path id="DejaVuSans-Bold-79" d="M 78 3500 
L 1197 3500 
L 2138 1125 
L 2938 3500 
L 4056 3500 
L 2584 -331 
Q 2363 -916 2067 -1148 
Q 1772 -1381 1288 -1381 
L 641 -1381 
L 641 -647 
L 991 -647 
Q 1275 -647 1404 -556 
Q 1534 -466 1606 -231 
L 1638 -134 
L 78 3500 
z
" transform="scale(0.015625)"/>
      <path id="DejaVuSans-Bold-27" d="M 1350 4666 
L 1350 2931 
L 609 2931 
L 609 4666 
L 1350 4666 
z
" transform="scale(0.015625)"/>
      <path id="DejaVuSans-Bold-3d" d="M 678 3084 
L 4684 3084 
L 4684 2350 
L 678 2350 
L 678 3084 
z
M 678 1663 
L 4684 1663 
L 4684 922 
L 678 922 
L 678 1663 
z
" transform="scale(0.015625)"/>
      <path id="DejaVuSans-Bold-67" d="M 2919 594 
Q 2688 288 2409 144 
Q 2131 0 1766 0 
Q 1125 0 706 504 
Q 288 1009 288 1791 
Q 288 2575 706 3076 
Q 1125 3578 1766 3578 
Q 2131 3578 2409 3434 
Q 2688 3291 2919 2981 
L 2919 3500 
L 4044 3500 
L 4044 353 
Q 4044 -491 3511 -936 
Q 2978 -1381 1966 -1381 
Q 1638 -1381 1331 -1331 
Q 1025 -1281 716 -1178 
L 716 -306 
Q 1009 -475 1290 -558 
Q 1572 -641 1856 -641 
Q 2406 -641 2662 -400 
Q 2919 -159 2919 353 
L 2919 594 
z
M 2181 2772 
Q 1834 2772 1640 2515 
Q 1447 2259 1447 1791 
Q 1447 1309 1634 1061 
Q 1822 813 2181 813 
Q 2531 813 2725 1069 
Q 2919 1325 2919 1791 
Q 2919 2259 2725 2515 
Q 2531 2772 2181 2772 
z
" transform="scale(0.015625)"/>
      <path id="DejaVuSans-Bold-28" d="M 2413 -844 
L 1484 -844 
Q 1006 -72 778 623 
Q 550 1319 550 2003 
Q 550 2688 779 3389 
Q 1009 4091 1484 4856 
L 2413 4856 
Q 2013 4116 1813 3408 
Q 1613 2700 1613 2009 
Q 1613 1319 1811 609 
Q 2009 -100 2413 -844 
z
" transform="scale(0.015625)"/>
      <path id="DejaVuSans-Bold-78" d="M 1422 1791 
L 159 3500 
L 1344 3500 
L 2059 2463 
L 2784 3500 
L 3969 3500 
L 2706 1797 
L 4031 0 
L 2847 0 
L 2059 1106 
L 1281 0 
L 97 0 
L 1422 1791 
z
" transform="scale(0.015625)"/>
      <path id="DejaVuSans-Bold-29" d="M 513 -844 
Q 913 -100 1113 609 
Q 1313 1319 1313 2009 
Q 1313 2700 1113 3408 
Q 913 4116 513 4856 
L 1441 4856 
Q 1916 4091 2145 3389 
Q 2375 2688 2375 2003 
Q 2375 1319 2147 623 
Q 1919 -72 1441 -844 
L 513 -844 
z
" transform="scale(0.015625)"/>
      <path id="DejaVuSans-Bold-b7" d="M 653 2828 
L 1778 2828 
L 1778 1619 
L 653 1619 
L 653 2828 
z
" transform="scale(0.015625)"/>
      <path id="DejaVuSans-Bold-68" d="M 4056 2131 
L 4056 0 
L 2931 0 
L 2931 347 
L 2931 1625 
Q 2931 2084 2911 2256 
Q 2891 2428 2841 2509 
Q 2775 2619 2662 2680 
Q 2550 2741 2406 2741 
Q 2056 2741 1856 2470 
Q 1656 2200 1656 1722 
L 1656 0 
L 538 0 
L 538 4863 
L 1656 4863 
L 1656 2988 
Q 1909 3294 2193 3439 
Q 2478 3584 2822 3584 
Q 3428 3584 3742 3212 
Q 4056 2841 4056 2131 
z
" transform="scale(0.015625)"/>
     </defs>
     <use xlink:href="#DejaVuSans-Bold-79"/>
     <use xlink:href="#DejaVuSans-Bold-27" x="65.185547"/>
     <use xlink:href="#DejaVuSans-Bold-20" x="95.800781"/>
     <use xlink:href="#DejaVuSans-Bold-3d" x="130.615234"/>
     <use xlink:href="#DejaVuSans-Bold-20" x="214.404297"/>
     <use xlink:href="#DejaVuSans-Bold-67" x="249.21875"/>
     <use xlink:href="#DejaVuSans-Bold-28" x="320.800781"/>
     <use xlink:href="#DejaVuSans-Bold-78" x="366.503906"/>
     <use xlink:href="#DejaVuSans-Bold-29" x="431.005859"/>
     <use xlink:href="#DejaVuSans-Bold-b7" x="476.708984"/>
     <use xlink:href="#DejaVuSans-Bold-68" x="514.697266"/>
     <use xlink:href="#DejaVuSans-Bold-28" x="585.888672"/>
     <use xlink:href="#DejaVuSans-Bold-79" x="631.591797"/>
     <use xlink:href="#DejaVuSans-Bold-29" x="696.777344"/>
    </g>
    <!-- SEPARABLE -->
    <g style="fill: #ffffff" transform="translate(266.573437 209.997344) scale(0.1 -0.1)">
     <defs>
      <path id="DejaVuSans-Bold-53" d="M 3834 4519 
L 3834 3531 
Q 3450 3703 3084 3790 
Q 2719 3878 2394 3878 
Q 1963 3878 1756 3759 
Q 1550 3641 1550 3391 
Q 1550 3203 1689 3098 
Q 1828 2994 2194 2919 
L 2706 2816 
Q 3484 2659 3812 2340 
Q 4141 2022 4141 1434 
Q 4141 663 3683 286 
Q 3225 -91 2284 -91 
Q 1841 -91 1394 -6 
Q 947 78 500 244 
L 500 1259 
Q 947 1022 1364 901 
Q 1781 781 2169 781 
Q 2563 781 2772 912 
Q 2981 1044 2981 1288 
Q 2981 1506 2839 1625 
Q 2697 1744 2272 1838 
L 1806 1941 
Q 1106 2091 782 2419 
Q 459 2747 459 3303 
Q 459 4000 909 4375 
Q 1359 4750 2203 4750 
Q 2588 4750 2994 4692 
Q 3400 4634 3834 4519 
z
" transform="scale(0.015625)"/>
      <path id="DejaVuSans-Bold-50" d="M 588 4666 
L 2584 4666 
Q 3475 4666 3951 4270 
Q 4428 3875 4428 3144 
Q 4428 2409 3951 2014 
Q 3475 1619 2584 1619 
L 1791 1619 
L 1791 0 
L 588 0 
L 588 4666 
z
M 1791 3794 
L 1791 2491 
L 2456 2491 
Q 2806 2491 2997 2661 
Q 3188 2831 3188 3144 
Q 3188 3456 2997 3625 
Q 2806 3794 2456 3794 
L 1791 3794 
z
" transform="scale(0.015625)"/>
      <path id="DejaVuSans-Bold-41" d="M 3419 850 
L 1538 850 
L 1241 0 
L 31 0 
L 1759 4666 
L 3194 4666 
L 4922 0 
L 3713 0 
L 3419 850 
z
M 1838 1716 
L 3116 1716 
L 2478 3572 
L 1838 1716 
z
" transform="scale(0.015625)"/>
      <path id="DejaVuSans-Bold-52" d="M 2297 2597 
Q 2675 2597 2839 2737 
Q 3003 2878 3003 3200 
Q 3003 3519 2839 3656 
Q 2675 3794 2297 3794 
L 1791 3794 
L 1791 2597 
L 2297 2597 
z
M 1791 1766 
L 1791 0 
L 588 0 
L 588 4666 
L 2425 4666 
Q 3347 4666 3776 4356 
Q 4206 4047 4206 3378 
Q 4206 2916 3982 2619 
Q 3759 2322 3309 2181 
Q 3556 2125 3751 1926 
Q 3947 1728 4147 1325 
L 4800 0 
L 3519 0 
L 2950 1159 
Q 2778 1509 2601 1637 
Q 2425 1766 2131 1766 
L 1791 1766 
z
" transform="scale(0.015625)"/>
      <path id="DejaVuSans-Bold-42" d="M 2456 2859 
Q 2741 2859 2887 2984 
Q 3034 3109 3034 3353 
Q 3034 3594 2887 3720 
Q 2741 3847 2456 3847 
L 1791 3847 
L 1791 2859 
L 2456 2859 
z
M 2497 819 
Q 2859 819 3042 972 
Q 3225 1125 3225 1434 
Q 3225 1738 3044 1889 
Q 2863 2041 2497 2041 
L 1791 2041 
L 1791 819 
L 2497 819 
z
M 3616 2497 
Q 4003 2384 4215 2081 
Q 4428 1778 4428 1338 
Q 4428 663 3972 331 
Q 3516 0 2584 0 
L 588 0 
L 588 4666 
L 2394 4666 
Q 3366 4666 3802 4372 
Q 4238 4078 4238 3431 
Q 4238 3091 4078 2852 
Q 3919 2613 3616 2497 
z
" transform="scale(0.015625)"/>
      <path id="DejaVuSans-Bold-4c" d="M 588 4666 
L 1791 4666 
L 1791 909 
L 3903 909 
L 3903 0 
L 588 0 
L 588 4666 
z
" transform="scale(0.015625)"/>
     </defs>
     <use xlink:href="#DejaVuSans-Bold-53"/>
     <use xlink:href="#DejaVuSans-Bold-45" x="72.021484"/>
     <use xlink:href="#DejaVuSans-Bold-50" x="140.332031"/>
     <use xlink:href="#DejaVuSans-Bold-41" x="204.498047"/>
     <use xlink:href="#DejaVuSans-Bold-52" x="281.890625"/>
     <use xlink:href="#DejaVuSans-Bold-41" x="358.892578"/>
     <use xlink:href="#DejaVuSans-Bold-42" x="436.285156"/>
     <use xlink:href="#DejaVuSans-Bold-4c" x="512.505859"/>
     <use xlink:href="#DejaVuSans-Bold-45" x="576.226562"/>
    </g>
   </g>
   <g id="text_3">
    <!-- y' + P(x)y = Q(x) -->
    <g style="fill: #ffffff" transform="translate(485.182344 198.715937) scale(0.1 -0.1)">
     <defs>
      <path id="DejaVuSans-Bold-2b" d="M 3053 4013 
L 3053 2375 
L 4684 2375 
L 4684 1638 
L 3053 1638 
L 3053 0 
L 2309 0 
L 2309 1638 
L 678 1638 
L 678 2375 
L 2309 2375 
L 2309 4013 
L 3053 4013 
z
" transform="scale(0.015625)"/>
     </defs>
     <use xlink:href="#DejaVuSans-Bold-79"/>
     <use xlink:href="#DejaVuSans-Bold-27" x="65.185547"/>
     <use xlink:href="#DejaVuSans-Bold-20" x="95.800781"/>
     <use xlink:href="#DejaVuSans-Bold-2b" x="130.615234"/>
     <use xlink:href="#DejaVuSans-Bold-20" x="214.404297"/>
     <use xlink:href="#DejaVuSans-Bold-50" x="249.21875"/>
     <use xlink:href="#DejaVuSans-Bold-28" x="322.509766"/>
     <use xlink:href="#DejaVuSans-Bold-78" x="368.212891"/>
     <use xlink:href="#DejaVuSans-Bold-29" x="432.714844"/>
     <use xlink:href="#DejaVuSans-Bold-79" x="478.417969"/>
     <use xlink:href="#DejaVuSans-Bold-20" x="543.603516"/>
     <use xlink:href="#DejaVuSans-Bold-3d" x="578.417969"/>
     <use xlink:href="#DejaVuSans-Bold-20" x="662.207031"/>
     <use xlink:href="#DejaVuSans-Bold-51" x="697.021484"/>
     <use xlink:href="#DejaVuSans-Bold-28" x="782.03125"/>
     <use xlink:href="#DejaVuSans-Bold-78" x="827.734375"/>
     <use xlink:href="#DejaVuSans-Bold-29" x="892.236328"/>
    </g>
    <!-- LINEAL -->
    <g style="fill: #ffffff" transform="translate(512.378437 209.991875) scale(0.1 -0.1)">
     <defs>
      <path id="DejaVuSans-Bold-49" d="M 588 4666 
L 1791 4666 
L 1791 0 
L 588 0 
L 588 4666 
z
" transform="scale(0.015625)"/>
      <path id="DejaVuSans-Bold-4e" d="M 588 4666 
L 1931 4666 
L 3628 1466 
L 3628 4666 
L 4769 4666 
L 4769 0 
L 3425 0 
L 1728 3200 
L 1728 0 
L 588 0 
L 588 4666 
z
" transform="scale(0.015625)"/>
     </defs>
     <use xlink:href="#DejaVuSans-Bold-4c"/>
     <use xlink:href="#DejaVuSans-Bold-49" x="63.720703"/>
     <use xlink:href="#DejaVuSans-Bold-4e" x="100.927734"/>
     <use xlink:href="#DejaVuSans-Bold-45" x="184.619141"/>
     <use xlink:href="#DejaVuSans-Bold-41" x="252.929688"/>
     <use xlink:href="#DejaVuSans-Bold-4c" x="330.322266"/>
    </g>
   </g>
   <g id="text_4">
    <!-- M dx + N dy = 0 -->
    <g style="fill: #ffffff" transform="translate(720.255312 198.721406) scale(0.1 -0.1)">
     <defs>
      <path id="DejaVuSans-Bold-4d" d="M 588 4666 
L 2119 4666 
L 3181 2169 
L 4250 4666 
L 5778 4666 
L 5778 0 
L 4641 0 
L 4641 3413 
L 3566 897 
L 2803 897 
L 1728 3413 
L 1728 0 
L 588 0 
L 588 4666 
z
" transform="scale(0.015625)"/>
      <path id="DejaVuSans-Bold-64" d="M 2919 2988 
L 2919 4863 
L 4044 4863 
L 4044 0 
L 2919 0 
L 2919 506 
Q 2688 197 2409 53 
Q 2131 -91 1766 -91 
Q 1119 -91 703 423 
Q 288 938 288 1747 
Q 288 2556 703 3070 
Q 1119 3584 1766 3584 
Q 2128 3584 2408 3439 
Q 2688 3294 2919 2988 
z
M 2181 722 
Q 2541 722 2730 984 
Q 2919 1247 2919 1747 
Q 2919 2247 2730 2509 
Q 2541 2772 2181 2772 
Q 1825 2772 1636 2509 
Q 1447 2247 1447 1747 
Q 1447 1247 1636 984 
Q 1825 722 2181 722 
z
" transform="scale(0.015625)"/>
      <path id="DejaVuSans-Bold-30" d="M 2944 2338 
Q 2944 3213 2780 3570 
Q 2616 3928 2228 3928 
Q 1841 3928 1675 3570 
Q 1509 3213 1509 2338 
Q 1509 1453 1675 1090 
Q 1841 728 2228 728 
Q 2613 728 2778 1090 
Q 2944 1453 2944 2338 
z
M 4147 2328 
Q 4147 1169 3647 539 
Q 3147 -91 2228 -91 
Q 1306 -91 806 539 
Q 306 1169 306 2328 
Q 306 3491 806 4120 
Q 1306 4750 2228 4750 
Q 3147 4750 3647 4120 
Q 4147 3491 4147 2328 
z
" transform="scale(0.015625)"/>
     </defs>
     <use xlink:href="#DejaVuSans-Bold-4d"/>
     <use xlink:href="#DejaVuSans-Bold-20" x="99.511719"/>
     <use xlink:href="#DejaVuSans-Bold-64" x="134.326172"/>
     <use xlink:href="#DejaVuSans-Bold-78" x="205.908203"/>
     <use xlink:href="#DejaVuSans-Bold-20" x="270.410156"/>
     <use xlink:href="#DejaVuSans-Bold-2b" x="305.224609"/>
     <use xlink:href="#DejaVuSans-Bold-20" x="389.013672"/>
     <use xlink:href="#DejaVuSans-Bold-4e" x="423.828125"/>
     <use xlink:href="#DejaVuSans-Bold-20" x="507.519531"/>
     <use xlink:href="#DejaVuSans-Bold-64" x="542.333984"/>
     <use xlink:href="#DejaVuSans-Bold-79" x="613.916016"/>
     <use xlink:href="#DejaVuSans-Bold-20" x="679.101562"/>
     <use xlink:href="#DejaVuSans-Bold-3d" x="713.916016"/>
     <use xlink:href="#DejaVuSans-Bold-20" x="797.705078"/>
     <use xlink:href="#DejaVuSans-Bold-30" x="832.519531"/>
    </g>
    <!-- DIFERENCIAL -->
    <g style="fill: #ffffff" transform="translate(728.482656 209.997344) scale(0.1 -0.1)">
     <defs>
      <path id="DejaVuSans-Bold-46" d="M 588 4666 
L 3834 4666 
L 3834 3756 
L 1791 3756 
L 1791 2888 
L 3713 2888 
L 3713 1978 
L 1791 1978 
L 1791 0 
L 588 0 
L 588 4666 
z
" transform="scale(0.015625)"/>
      <path id="DejaVuSans-Bold-43" d="M 4288 256 
Q 3956 84 3597 -3 
Q 3238 -91 2847 -91 
Q 1681 -91 1000 561 
Q 319 1213 319 2328 
Q 319 3447 1000 4098 
Q 1681 4750 2847 4750 
Q 3238 4750 3597 4662 
Q 3956 4575 4288 4403 
L 4288 3438 
Q 3953 3666 3628 3772 
Q 3303 3878 2944 3878 
Q 2300 3878 1931 3465 
Q 1563 3053 1563 2328 
Q 1563 1606 1931 1193 
Q 2300 781 2944 781 
Q 3303 781 3628 887 
Q 3953 994 4288 1222 
L 4288 256 
z
" transform="scale(0.015625)"/>
     </defs>
     <use xlink:href="#DejaVuSans-Bold-44"/>
     <use xlink:href="#DejaVuSans-Bold-49" x="83.007812"/>
     <use xlink:href="#DejaVuSans-Bold-46" x="120.214844"/>
     <use xlink:href="#DejaVuSans-Bold-45" x="188.525391"/>
     <use xlink:href="#DejaVuSans-Bold-52" x="256.835938"/>
     <use xlink:href="#DejaVuSans-Bold-45" x="333.837891"/>
     <use xlink:href="#DejaVuSans-Bold-4e" x="402.148438"/>
     <use xlink:href="#DejaVuSans-Bold-43" x="485.839844"/>
     <use xlink:href="#DejaVuSans-Bold-49" x="559.228516"/>
     <use xlink:href="#DejaVuSans-Bold-41" x="596.435547"/>
     <use xlink:href="#DejaVuSans-Bold-4c" x="673.828125"/>
    </g>
   </g>
   <g id="patch_27">
    <path d="M 298.8 238.593902 
Q 298.8 259.922066 298.8 279.014163 
" style="fill: none; stroke: #64748b; stroke-width: 2; stroke-linecap: round"/>
    <path d="M 300.8 275.014163 
L 298.8 279.014163 
L 296.8 275.014163 
" style="fill: none; stroke: #64748b; stroke-width: 2; stroke-linecap: round"/>
   </g>
   <g id="text_5">
    <!-- Separar e -->
    <g style="fill: #ffffff" transform="translate(274.155469 315.649266) scale(0.09 -0.09)">
     <defs>
      <path id="DejaVuSans-Bold-70" d="M 1656 506 
L 1656 -1331 
L 538 -1331 
L 538 3500 
L 1656 3500 
L 1656 2988 
Q 1888 3294 2169 3439 
Q 2450 3584 2816 3584 
Q 3463 3584 3878 3070 
Q 4294 2556 4294 1747 
Q 4294 938 3878 423 
Q 3463 -91 2816 -91 
Q 2450 -91 2169 54 
Q 1888 200 1656 506 
z
M 2400 2772 
Q 2041 2772 1848 2508 
Q 1656 2244 1656 1747 
Q 1656 1250 1848 986 
Q 2041 722 2400 722 
Q 2759 722 2948 984 
Q 3138 1247 3138 1747 
Q 3138 2247 2948 2509 
Q 2759 2772 2400 2772 
z
" transform="scale(0.015625)"/>
     </defs>
     <use xlink:href="#DejaVuSans-Bold-53"/>
     <use xlink:href="#DejaVuSans-Bold-65" x="72.021484"/>
     <use xlink:href="#DejaVuSans-Bold-70" x="139.84375"/>
     <use xlink:href="#DejaVuSans-Bold-61" x="211.425781"/>
     <use xlink:href="#DejaVuSans-Bold-72" x="278.90625"/>
     <use xlink:href="#DejaVuSans-Bold-61" x="328.222656"/>
     <use xlink:href="#DejaVuSans-Bold-72" x="395.703125"/>
     <use xlink:href="#DejaVuSans-Bold-20" x="445.019531"/>
     <use xlink:href="#DejaVuSans-Bold-65" x="479.833984"/>
    </g>
    <!-- integrar -->
    <g style="fill: #ffffff" transform="translate(278.154844 325.727297) scale(0.09 -0.09)">
     <use xlink:href="#DejaVuSans-Bold-69"/>
     <use xlink:href="#DejaVuSans-Bold-6e" x="34.277344"/>
     <use xlink:href="#DejaVuSans-Bold-74" x="105.46875"/>
     <use xlink:href="#DejaVuSans-Bold-65" x="153.271484"/>
     <use xlink:href="#DejaVuSans-Bold-67" x="221.09375"/>
     <use xlink:href="#DejaVuSans-Bold-72" x="292.675781"/>
     <use xlink:href="#DejaVuSans-Bold-61" x="341.992188"/>
     <use xlink:href="#DejaVuSans-Bold-72" x="409.472656"/>
    </g>
   </g>
   <g id="patch_28">
    <path d="M 532.08 238.593902 
Q 532.08 259.922066 532.08 279.014163 
" style="fill: none; stroke: #64748b; stroke-width: 2; stroke-linecap: round"/>
    <path d="M 534.08 275.014163 
L 532.08 279.014163 
L 530.08 275.014163 
" style="fill: none; stroke: #64748b; stroke-width: 2; stroke-linecap: round"/>
   </g>
   <g id="text_6">
    <!-- Factor integrante -->
    <g style="fill: #ffffff" transform="translate(487.705078 315.563484) scale(0.09 -0.09)">
     <defs>
      <path id="DejaVuSans-Bold-63" d="M 3366 3391 
L 3366 2478 
Q 3138 2634 2908 2709 
Q 2678 2784 2431 2784 
Q 1963 2784 1702 2511 
Q 1441 2238 1441 1747 
Q 1441 1256 1702 982 
Q 1963 709 2431 709 
Q 2694 709 2930 787 
Q 3166 866 3366 1019 
L 3366 103 
Q 3103 6 2833 -42 
Q 2563 -91 2291 -91 
Q 1344 -91 809 395 
Q 275 881 275 1747 
Q 275 2613 809 3098 
Q 1344 3584 2291 3584 
Q 2566 3584 2833 3536 
Q 3100 3488 3366 3391 
z
" transform="scale(0.015625)"/>
     </defs>
     <use xlink:href="#DejaVuSans-Bold-46"/>
     <use xlink:href="#DejaVuSans-Bold-61" x="62.435547"/>
     <use xlink:href="#DejaVuSans-Bold-63" x="129.916016"/>
     <use xlink:href="#DejaVuSans-Bold-74" x="189.193359"/>
     <use xlink:href="#DejaVuSans-Bold-6f" x="236.996094"/>
     <use xlink:href="#DejaVuSans-Bold-72" x="305.697266"/>
     <use xlink:href="#DejaVuSans-Bold-20" x="355.013672"/>
     <use xlink:href="#DejaVuSans-Bold-69" x="389.828125"/>
     <use xlink:href="#DejaVuSans-Bold-6e" x="424.105469"/>
     <use xlink:href="#DejaVuSans-Bold-74" x="495.296875"/>
     <use xlink:href="#DejaVuSans-Bold-65" x="543.099609"/>
     <use xlink:href="#DejaVuSans-Bold-67" x="610.921875"/>
     <use xlink:href="#DejaVuSans-Bold-72" x="682.503906"/>
     <use xlink:href="#DejaVuSans-Bold-61" x="731.820312"/>
     <use xlink:href="#DejaVuSans-Bold-6e" x="799.300781"/>
     <use xlink:href="#DejaVuSans-Bold-74" x="870.492188"/>
     <use xlink:href="#DejaVuSans-Bold-65" x="918.294922"/>
    </g>
    <!-- μ = e^∫P dx -->
    <g style="fill: #ffffff" transform="translate(501.309141 325.711828) scale(0.09 -0.09)">
     <defs>
      <path id="DejaVuSans-Bold-3bc" d="M 544 -1338 
L 544 3500 
L 1672 3500 
L 1672 1466 
Q 1672 1103 1828 926 
Q 1984 750 2303 750 
Q 2625 750 2781 926 
Q 2938 1103 2938 1466 
L 2938 3500 
L 4063 3500 
L 4063 1159 
Q 4063 938 4114 850 
Q 4166 763 4288 763 
Q 4344 763 4395 778 
Q 4447 794 4506 831 
L 4506 50 
Q 4341 -22 4195 -56 
Q 4050 -91 3909 -91 
Q 3631 -91 3454 26 
Q 3278 144 3169 403 
Q 3022 156 2811 32 
Q 2600 -91 2322 -91 
Q 2091 -91 1928 -17 
Q 1766 56 1672 206 
L 1672 -1338 
L 544 -1338 
z
" transform="scale(0.015625)"/>
      <path id="DejaVuSans-Bold-5e" d="M 3066 4666 
L 4716 2925 
L 3963 2925 
L 2681 3866 
L 1403 2925 
L 647 2925 
L 2297 4666 
L 3066 4666 
z
" transform="scale(0.015625)"/>
      <path id="DejaVuSans-Bold-222b" d="M 2034 -531 
Q 2000 -1013 1659 -1284 
Q 1447 -1453 1050 -1453 
Q 553 -1453 319 -1209 
Q 150 -1034 94 -594 
L 788 -525 
Q 844 -703 1031 -703 
Q 1234 -703 1256 -416 
Q 1256 -416 1566 3903 
Q 1600 4384 1941 4656 
Q 2153 4825 2550 4825 
Q 3047 4825 3281 4581 
Q 3450 4406 3506 3966 
L 2813 3897 
Q 2756 4075 2569 4075 
Q 2366 4075 2344 3788 
Q 2344 3788 2034 -531 
z
" transform="scale(0.015625)"/>
     </defs>
     <use xlink:href="#DejaVuSans-Bold-3bc"/>
     <use xlink:href="#DejaVuSans-Bold-20" x="73.583984"/>
     <use xlink:href="#DejaVuSans-Bold-3d" x="108.398438"/>
     <use xlink:href="#DejaVuSans-Bold-20" x="192.1875"/>
     <use xlink:href="#DejaVuSans-Bold-65" x="227.001953"/>
     <use xlink:href="#DejaVuSans-Bold-5e" x="294.824219"/>
     <use xlink:href="#DejaVuSans-Bold-222b" x="378.613281"/>
     <use xlink:href="#DejaVuSans-Bold-50" x="439.599609"/>
     <use xlink:href="#DejaVuSans-Bold-20" x="512.890625"/>
     <use xlink:href="#DejaVuSans-Bold-64" x="547.705078"/>
     <use xlink:href="#DejaVuSans-Bold-78" x="619.287109"/>
    </g>
   </g>
   <g id="patch_29">
    <path d="M 765.36 238.593902 
Q 765.36 259.922066 765.36 279.014163 
" style="fill: none; stroke: #64748b; stroke-width: 2; stroke-linecap: round"/>
    <path d="M 767.36 275.014163 
L 765.36 279.014163 
L 763.36 275.014163 
" style="fill: none; stroke: #64748b; stroke-width: 2; stroke-linecap: round"/>
   </g>
   <g id="text_7">
    <!-- ¿Mᵧ=Nₓ? -->
    <g style="fill: #ffffff" transform="translate(744.337266 320.723438) scale(0.09 -0.09)">
     <defs>
      <path id="DejaVuSans-Bold-1d67" d="M 1116 1347 
L 1434 591 
L 1981 1935 
L 2688 1935 
L 1784 -24 
L 1784 -771 
L 1081 -771 
L 1081 -24 
L 500 1291 
Q 431 1444 372 1472 
Q 269 1526 194 1526 
L 63 1526 
L 63 1935 
L 381 1935 
Q 516 1935 816 1804 
Q 944 1751 1116 1347 
z
" transform="scale(0.015625)"/>
      <path id="DejaVuSans-Bold-2093" d="M 909 979 
L 103 1935 
L 859 1935 
L 1319 1354 
L 1781 1935 
L 2541 1935 
L 1731 982 
L 2581 -24 
L 1822 -24 
L 1319 594 
L 819 -24 
L 63 -24 
L 909 979 
z
" transform="scale(0.015625)"/>
     </defs>
     <use xlink:href="#DejaVuSans-Bold-bf"/>
     <use xlink:href="#DejaVuSans-Bold-4d" x="58.007812"/>
     <use xlink:href="#DejaVuSans-Bold-1d67" x="157.519531"/>
     <use xlink:href="#DejaVuSans-Bold-3d" x="200.390625"/>
     <use xlink:href="#DejaVuSans-Bold-4e" x="284.179688"/>
     <use xlink:href="#DejaVuSans-Bold-2093" x="367.871094"/>
     <use xlink:href="#DejaVuSans-Bold-3f" x="409.130859"/>
    </g>
   </g>
   <g id="patch_30">
    <path d="M 722.848408 319.313922 
Q 692.460678 338.651568 663.959433 356.788724 
" style="fill: none; stroke: #64748b; stroke-width: 2; stroke-linecap: round"/>
    <path d="M 668.40783 356.328545 
L 663.959433 356.788724 
L 666.260328 352.9539 
" style="fill: none; stroke: #64748b; stroke-width: 2; stroke-linecap: round"/>
   </g>
   <g id="patch_31">
    <path d="M 807.871592 319.313922 
Q 838.259322 338.651568 866.760567 356.788724 
" style="fill: none; stroke: #64748b; stroke-width: 2; stroke-linecap: round"/>
    <path d="M 864.459672 352.9539 
L 866.760567 356.788724 
L 862.31217 356.328545 
" style="fill: none; stroke: #64748b; stroke-width: 2; stroke-linecap: round"/>
   </g>
   <g id="text_8">
    <!-- EXACTA -->
    <g style="fill: #ffffff" transform="translate(629.187891 385.668422) scale(0.09 -0.09)">
     <defs>
      <path id="DejaVuSans-Bold-58" d="M 3188 2381 
L 4806 0 
L 3553 0 
L 2463 1594 
L 1381 0 
L 122 0 
L 1741 2381 
L 184 4666 
L 1441 4666 
L 2463 3163 
L 3481 4666 
L 4744 4666 
L 3188 2381 
z
" transform="scale(0.015625)"/>
      <path id="DejaVuSans-Bold-54" d="M 31 4666 
L 4331 4666 
L 4331 3756 
L 2784 3756 
L 2784 0 
L 1581 0 
L 1581 3756 
L 31 3756 
L 31 4666 
z
" transform="scale(0.015625)"/>
     </defs>
     <use xlink:href="#DejaVuSans-Bold-45"/>
     <use xlink:href="#DejaVuSans-Bold-58" x="68.310547"/>
     <use xlink:href="#DejaVuSans-Bold-41" x="145.410156"/>
     <use xlink:href="#DejaVuSans-Bold-43" x="222.802734"/>
     <use xlink:href="#DejaVuSans-Bold-54" x="296.191406"/>
     <use xlink:href="#DejaVuSans-Bold-41" x="356.654297"/>
    </g>
    <!-- Buscar F -->
    <g style="fill: #ffffff" transform="translate(626.844375 395.746453) scale(0.09 -0.09)">
     <defs>
      <path id="DejaVuSans-Bold-73" d="M 3272 3391 
L 3272 2541 
Q 2913 2691 2578 2766 
Q 2244 2841 1947 2841 
Q 1628 2841 1473 2761 
Q 1319 2681 1319 2516 
Q 1319 2381 1436 2309 
Q 1553 2238 1856 2203 
L 2053 2175 
Q 2913 2066 3209 1816 
Q 3506 1566 3506 1031 
Q 3506 472 3093 190 
Q 2681 -91 1863 -91 
Q 1516 -91 1145 -36 
Q 775 19 384 128 
L 384 978 
Q 719 816 1070 734 
Q 1422 653 1784 653 
Q 2113 653 2278 743 
Q 2444 834 2444 1013 
Q 2444 1163 2330 1236 
Q 2216 1309 1875 1350 
L 1678 1375 
Q 931 1469 631 1722 
Q 331 1975 331 2491 
Q 331 3047 712 3315 
Q 1094 3584 1881 3584 
Q 2191 3584 2531 3537 
Q 2872 3491 3272 3391 
z
" transform="scale(0.015625)"/>
     </defs>
     <use xlink:href="#DejaVuSans-Bold-42"/>
     <use xlink:href="#DejaVuSans-Bold-75" x="76.220703"/>
     <use xlink:href="#DejaVuSans-Bold-73" x="147.412109"/>
     <use xlink:href="#DejaVuSans-Bold-63" x="206.933594"/>
     <use xlink:href="#DejaVuSans-Bold-61" x="266.210938"/>
     <use xlink:href="#DejaVuSans-Bold-72" x="333.691406"/>
     <use xlink:href="#DejaVuSans-Bold-20" x="383.007812"/>
     <use xlink:href="#DejaVuSans-Bold-46" x="417.822266"/>
    </g>
   </g>
   <g id="text_9">
    <!-- FACTOR -->
    <g style="fill: #ffffff" transform="translate(862.297734 385.668422) scale(0.09 -0.09)">
     <use xlink:href="#DejaVuSans-Bold-46"/>
     <use xlink:href="#DejaVuSans-Bold-41" x="56.810547"/>
     <use xlink:href="#DejaVuSans-Bold-43" x="134.203125"/>
     <use xlink:href="#DejaVuSans-Bold-54" x="207.591797"/>
     <use xlink:href="#DejaVuSans-Bold-4f" x="275.804688"/>
     <use xlink:href="#DejaVuSans-Bold-52" x="360.814453"/>
    </g>
    <!-- INTEGRANTE -->
    <g style="fill: #ffffff" transform="translate(849.865078 395.746453) scale(0.09 -0.09)">
     <defs>
      <path id="DejaVuSans-Bold-47" d="M 4781 347 
Q 4331 128 3847 18 
Q 3363 -91 2847 -91 
Q 1681 -91 1000 561 
Q 319 1213 319 2328 
Q 319 3456 1012 4103 
Q 1706 4750 2913 4750 
Q 3378 4750 3804 4662 
Q 4231 4575 4609 4403 
L 4609 3438 
Q 4219 3659 3833 3768 
Q 3447 3878 3059 3878 
Q 2341 3878 1952 3476 
Q 1563 3075 1563 2328 
Q 1563 1588 1938 1184 
Q 2313 781 3003 781 
Q 3191 781 3352 804 
Q 3513 828 3641 878 
L 3641 1784 
L 2906 1784 
L 2906 2591 
L 4781 2591 
L 4781 347 
z
" transform="scale(0.015625)"/>
     </defs>
     <use xlink:href="#DejaVuSans-Bold-49"/>
     <use xlink:href="#DejaVuSans-Bold-4e" x="37.207031"/>
     <use xlink:href="#DejaVuSans-Bold-54" x="120.898438"/>
     <use xlink:href="#DejaVuSans-Bold-45" x="189.111328"/>
     <use xlink:href="#DejaVuSans-Bold-47" x="257.421875"/>
     <use xlink:href="#DejaVuSans-Bold-52" x="339.501953"/>
     <use xlink:href="#DejaVuSans-Bold-41" x="416.503906"/>
     <use xlink:href="#DejaVuSans-Bold-4e" x="493.896484"/>
     <use xlink:href="#DejaVuSans-Bold-54" x="577.587891"/>
     <use xlink:href="#DejaVuSans-Bold-45" x="645.800781"/>
    </g>
   </g>
   <g id="text_10">
    <!-- Sí -->
    <g style="fill: #059669" transform="translate(677.88 329.904) scale(0.09 -0.09)">
     <defs>
      <path id="SegoeUI-Bold-53" d="M 306 172 
L 306 1172 
Q 578 944 897 830 
Q 1216 716 1541 716 
Q 1731 716 1873 750 
Q 2016 784 2111 845 
Q 2206 906 2253 989 
Q 2300 1072 2300 1169 
Q 2300 1300 2225 1403 
Q 2150 1506 2020 1593 
Q 1891 1681 1712 1762 
Q 1534 1844 1328 1928 
Q 803 2147 545 2462 
Q 288 2778 288 3225 
Q 288 3575 428 3826 
Q 569 4078 811 4240 
Q 1053 4403 1372 4479 
Q 1691 4556 2047 4556 
Q 2397 4556 2667 4514 
Q 2938 4472 3166 4384 
L 3166 3450 
Q 3053 3528 2920 3587 
Q 2788 3647 2647 3686 
Q 2506 3725 2367 3744 
Q 2228 3763 2103 3763 
Q 1931 3763 1790 3730 
Q 1650 3697 1553 3637 
Q 1456 3578 1403 3495 
Q 1350 3413 1350 3309 
Q 1350 3197 1409 3108 
Q 1469 3019 1578 2939 
Q 1688 2859 1844 2782 
Q 2000 2706 2197 2625 
Q 2466 2513 2680 2386 
Q 2894 2259 3047 2100 
Q 3200 1941 3281 1736 
Q 3363 1531 3363 1259 
Q 3363 884 3220 629 
Q 3078 375 2834 217 
Q 2591 59 2267 -9 
Q 1944 -78 1584 -78 
Q 1216 -78 883 -15 
Q 550 47 306 172 
z
" transform="scale(0.015625)"/>
      <path id="SegoeUI-Bold-ed" d="M 1403 0 
L 416 0 
L 416 3200 
L 1403 3200 
L 1403 0 
z
M 1911 4716 
L 932 3706 
L 220 3706 
L 1032 4716 
L 1911 4716 
z
" transform="scale(0.015625)"/>
     </defs>
     <use xlink:href="#SegoeUI-Bold-53"/>
     <use xlink:href="#SegoeUI-Bold-ed" x="56.054688"/>
    </g>
   </g>
   <g id="text_11">
    <!-- No -->
    <g style="fill: #dc2626" transform="translate(835.344 329.904) scale(0.09 -0.09)">
     <defs>
      <path id="SegoeUI-Bold-4e" d="M 4544 0 
L 3525 0 
L 1678 2816 
Q 1516 3063 1453 3188 
L 1441 3188 
Q 1466 2950 1466 2463 
L 1466 0 
L 513 0 
L 513 4481 
L 1600 4481 
L 3378 1753 
Q 3500 1569 3603 1388 
L 3616 1388 
Q 3591 1544 3591 2003 
L 3591 4481 
L 4544 4481 
L 4544 0 
z
" transform="scale(0.015625)"/>
      <path id="SegoeUI-Bold-6f" d="M 1941 -78 
Q 1141 -78 683 370 
Q 225 819 225 1588 
Q 225 2381 700 2829 
Q 1175 3278 1984 3278 
Q 2781 3278 3234 2829 
Q 3688 2381 3688 1644 
Q 3688 847 3220 384 
Q 2753 -78 1941 -78 
z
M 1966 2522 
Q 1616 2522 1422 2281 
Q 1228 2041 1228 1600 
Q 1228 678 1972 678 
Q 2681 678 2681 1625 
Q 2681 2522 1966 2522 
z
" transform="scale(0.015625)"/>
     </defs>
     <use xlink:href="#SegoeUI-Bold-4e"/>
     <use xlink:href="#SegoeUI-Bold-6f" x="79.003906"/>
    </g>
   </g>
   <g id="text_12">
    <!-- CASOS ESPECIALES -->
    <g style="fill: #ffffff" transform="translate(466.763437 496.51125) scale(0.12 -0.12)">
     <use xlink:href="#DejaVuSans-Bold-43"/>
     <use xlink:href="#DejaVuSans-Bold-41" x="73.388672"/>
     <use xlink:href="#DejaVuSans-Bold-53" x="150.78125"/>
     <use xlink:href="#DejaVuSans-Bold-4f" x="222.802734"/>
     <use xlink:href="#DejaVuSans-Bold-53" x="307.8125"/>
     <use xlink:href="#DejaVuSans-Bold-20" x="379.833984"/>
     <use xlink:href="#DejaVuSans-Bold-45" x="414.648438"/>
     <use xlink:href="#DejaVuSans-Bold-53" x="482.958984"/>
     <use xlink:href="#DejaVuSans-Bold-50" x="554.980469"/>
     <use xlink:href="#DejaVuSans-Bold-45" x="628.271484"/>
     <use xlink:href="#DejaVuSans-Bold-43" x="696.582031"/>
     <use xlink:href="#DejaVuSans-Bold-49" x="769.970703"/>
     <use xlink:href="#DejaVuSans-Bold-41" x="807.177734"/>
     <use xlink:href="#DejaVuSans-Bold-4c" x="884.570312"/>
     <use xlink:href="#DejaVuSans-Bold-45" x="948.291016"/>
     <use xlink:href="#DejaVuSans-Bold-53" x="1016.601562"/>
    </g>
   </g>
   <g id="patch_32">
    <path d="M 240.48 524.358343 
Q 240.48 542.773515 240.48 558.952619 
" style="fill: none; stroke: #64748b; stroke-width: 2; stroke-linecap: round"/>
    <path d="M 242.48 554.952619 
L 240.48 558.952619 
L 238.48 554.952619 
" style="fill: none; stroke: #64748b; stroke-width: 2; stroke-linecap: round"/>
   </g>
   <g id="patch_33">
    <path d="M 444.6 524.358343 
Q 444.6 542.773515 444.6 558.952619 
" style="fill: none; stroke: #64748b; stroke-width: 2; stroke-linecap: round"/>
    <path d="M 446.6 554.952619 
L 444.6 558.952619 
L 442.6 554.952619 
" style="fill: none; stroke: #64748b; stroke-width: 2; stroke-linecap: round"/>
   </g>
   <g id="patch_34">
    <path d="M 619.56 524.358343 
Q 619.56 542.773515 619.56 558.952619 
" style="fill: none; stroke: #64748b; stroke-width: 2; stroke-linecap: round"/>
    <path d="M 621.56 554.952619 
L 619.56 558.952619 
L 617.56 554.952619 
" style="fill: none; stroke: #64748b; stroke-width: 2; stroke-linecap: round"/>
   </g>
   <g id="patch_35">
    <path d="M 823.68 524.358343 
Q 823.68 542.773515 823.68 558.952619 
" style="fill: none; stroke: #64748b; stroke-width: 2; stroke-linecap: round"/>
    <path d="M 825.68 554.952619 
L 823.68 558.952619 
L 821.68 554.952619 
" style="fill: none; stroke: #64748b; stroke-width: 2; stroke-linecap: round"/>
   </g>
   <g id="text_13">
    <!-- y' + Py = Qyⁿ -->
    <g style="fill: #ffffff" transform="translate(203.541719 595.258344) scale(0.1 -0.1)">
     <defs>
      <path id="DejaVuSans-Bold-207f" d="M 2597 3281 
L 2597 2088 
L 1875 2088 
L 1875 2281 
L 1875 3000 
Q 1875 3256 1863 3350 
Q 1850 3447 1819 3494 
Q 1775 3553 1703 3587 
Q 1631 3622 1541 3622 
Q 1316 3622 1188 3472 
Q 1059 3319 1059 3053 
L 1059 2088 
L 344 2088 
L 344 4047 
L 1059 4047 
L 1059 3759 
Q 1222 3931 1403 4013 
Q 1588 4094 1806 4094 
Q 2194 4094 2394 3888 
Q 2597 3678 2597 3281 
z
" transform="scale(0.015625)"/>
     </defs>
     <use xlink:href="#DejaVuSans-Bold-79"/>
     <use xlink:href="#DejaVuSans-Bold-27" x="65.185547"/>
     <use xlink:href="#DejaVuSans-Bold-20" x="95.800781"/>
     <use xlink:href="#DejaVuSans-Bold-2b" x="130.615234"/>
     <use xlink:href="#DejaVuSans-Bold-20" x="214.404297"/>
     <use xlink:href="#DejaVuSans-Bold-50" x="249.21875"/>
     <use xlink:href="#DejaVuSans-Bold-79" x="324.384766"/>
     <use xlink:href="#DejaVuSans-Bold-20" x="389.570312"/>
     <use xlink:href="#DejaVuSans-Bold-3d" x="424.384766"/>
     <use xlink:href="#DejaVuSans-Bold-20" x="508.173828"/>
     <use xlink:href="#DejaVuSans-Bold-51" x="542.988281"/>
     <use xlink:href="#DejaVuSans-Bold-79" x="627.998047"/>
     <use xlink:href="#DejaVuSans-Bold-207f" x="693.183594"/>
    </g>
    <!-- BERNOULLI -->
    <g style="fill: #ffffff" transform="translate(208.676094 606.534281) scale(0.1 -0.1)">
     <defs>
      <path id="DejaVuSans-Bold-55" d="M 588 4666 
L 1791 4666 
L 1791 1869 
Q 1791 1291 1980 1042 
Q 2169 794 2597 794 
Q 3028 794 3217 1042 
Q 3406 1291 3406 1869 
L 3406 4666 
L 4609 4666 
L 4609 1869 
Q 4609 878 4112 393 
Q 3616 -91 2597 -91 
Q 1581 -91 1084 393 
Q 588 878 588 1869 
L 588 4666 
z
" transform="scale(0.015625)"/>
     </defs>
     <use xlink:href="#DejaVuSans-Bold-42"/>
     <use xlink:href="#DejaVuSans-Bold-45" x="76.220703"/>
     <use xlink:href="#DejaVuSans-Bold-52" x="144.53125"/>
     <use xlink:href="#DejaVuSans-Bold-4e" x="221.533203"/>
     <use xlink:href="#DejaVuSans-Bold-4f" x="305.224609"/>
     <use xlink:href="#DejaVuSans-Bold-55" x="390.234375"/>
     <use xlink:href="#DejaVuSans-Bold-4c" x="471.435547"/>
     <use xlink:href="#DejaVuSans-Bold-4c" x="535.15625"/>
     <use xlink:href="#DejaVuSans-Bold-49" x="598.876953"/>
    </g>
   </g>
   <g id="text_14">
    <!-- y' = F(y/x) -->
    <g style="fill: #ffffff" transform="translate(415.842187 595.291938) scale(0.1 -0.1)">
     <defs>
      <path id="DejaVuSans-Bold-2f" d="M 1644 4666 
L 2338 4666 
L 691 -594 
L 0 -594 
L 1644 4666 
z
" transform="scale(0.015625)"/>
     </defs>
     <use xlink:href="#DejaVuSans-Bold-79"/>
     <use xlink:href="#DejaVuSans-Bold-27" x="65.185547"/>
     <use xlink:href="#DejaVuSans-Bold-20" x="95.800781"/>
     <use xlink:href="#DejaVuSans-Bold-3d" x="130.615234"/>
     <use xlink:href="#DejaVuSans-Bold-20" x="214.404297"/>
     <use xlink:href="#DejaVuSans-Bold-46" x="249.21875"/>
     <use xlink:href="#DejaVuSans-Bold-28" x="317.529297"/>
     <use xlink:href="#DejaVuSans-Bold-79" x="363.232422"/>
     <use xlink:href="#DejaVuSans-Bold-2f" x="428.417969"/>
     <use xlink:href="#DejaVuSans-Bold-78" x="464.941406"/>
     <use xlink:href="#DejaVuSans-Bold-29" x="529.443359"/>
    </g>
    <!-- HOMOGÉNEA -->
    <g style="fill: #ffffff" transform="translate(407.949219 606.567875) scale(0.1 -0.1)">
     <defs>
      <path id="DejaVuSans-Bold-48" d="M 588 4666 
L 1791 4666 
L 1791 2888 
L 3566 2888 
L 3566 4666 
L 4769 4666 
L 4769 0 
L 3566 0 
L 3566 1978 
L 1791 1978 
L 1791 0 
L 588 0 
L 588 4666 
z
" transform="scale(0.015625)"/>
      <path id="DejaVuSans-Bold-c9" d="M 588 4666 
L 3834 4666 
L 3834 3756 
L 1791 3756 
L 1791 2888 
L 3713 2888 
L 3713 1978 
L 1791 1978 
L 1791 909 
L 3903 909 
L 3903 0 
L 588 0 
L 588 4666 
z
M 2319 5921 
L 3204 5921 
L 2313 5096 
L 1701 5096 
L 2319 5921 
z
" transform="scale(0.015625)"/>
     </defs>
     <use xlink:href="#DejaVuSans-Bold-48"/>
     <use xlink:href="#DejaVuSans-Bold-4f" x="83.691406"/>
     <use xlink:href="#DejaVuSans-Bold-4d" x="168.701172"/>
     <use xlink:href="#DejaVuSans-Bold-4f" x="268.212891"/>
     <use xlink:href="#DejaVuSans-Bold-47" x="353.222656"/>
     <use xlink:href="#DejaVuSans-Bold-c9" x="435.302734"/>
     <use xlink:href="#DejaVuSans-Bold-4e" x="503.613281"/>
     <use xlink:href="#DejaVuSans-Bold-45" x="587.304688"/>
     <use xlink:href="#DejaVuSans-Bold-41" x="655.615234"/>
    </g>
   </g>
   <g id="text_15">
    <!-- y' = f(ax+by+c) -->
    <g style="fill: #ffffff" transform="translate(575.5725 595.297406) scale(0.1 -0.1)">
     <defs>
      <path id="DejaVuSans-Bold-62" d="M 2400 722 
Q 2759 722 2948 984 
Q 3138 1247 3138 1747 
Q 3138 2247 2948 2509 
Q 2759 2772 2400 2772 
Q 2041 2772 1848 2508 
Q 1656 2244 1656 1747 
Q 1656 1250 1848 986 
Q 2041 722 2400 722 
z
M 1656 2988 
Q 1888 3294 2169 3439 
Q 2450 3584 2816 3584 
Q 3463 3584 3878 3070 
Q 4294 2556 4294 1747 
Q 4294 938 3878 423 
Q 3463 -91 2816 -91 
Q 2450 -91 2169 54 
Q 1888 200 1656 506 
L 1656 0 
L 538 0 
L 538 4863 
L 1656 4863 
L 1656 2988 
z
" transform="scale(0.015625)"/>
     </defs>
     <use xlink:href="#DejaVuSans-Bold-79"/>
     <use xlink:href="#DejaVuSans-Bold-27" x="65.185547"/>
     <use xlink:href="#DejaVuSans-Bold-20" x="95.800781"/>
     <use xlink:href="#DejaVuSans-Bold-3d" x="130.615234"/>
     <use xlink:href="#DejaVuSans-Bold-20" x="214.404297"/>
     <use xlink:href="#DejaVuSans-Bold-66" x="249.21875"/>
     <use xlink:href="#DejaVuSans-Bold-28" x="292.724609"/>
     <use xlink:href="#DejaVuSans-Bold-61" x="338.427734"/>
     <use xlink:href="#DejaVuSans-Bold-78" x="405.908203"/>
     <use xlink:href="#DejaVuSans-Bold-2b" x="470.410156"/>
     <use xlink:href="#DejaVuSans-Bold-62" x="554.199219"/>
     <use xlink:href="#DejaVuSans-Bold-79" x="625.78125"/>
     <use xlink:href="#DejaVuSans-Bold-2b" x="690.966797"/>
     <use xlink:href="#DejaVuSans-Bold-63" x="774.755859"/>
     <use xlink:href="#DejaVuSans-Bold-29" x="834.033203"/>
    </g>
    <!-- SUSTITUCIÓN -->
    <g style="fill: #ffffff" transform="translate(581.59125 606.573344) scale(0.1 -0.1)">
     <defs>
      <path id="DejaVuSans-Bold-d3" d="M 2719 3878 
Q 2169 3878 1866 3472 
Q 1563 3066 1563 2328 
Q 1563 1594 1866 1187 
Q 2169 781 2719 781 
Q 3272 781 3575 1187 
Q 3878 1594 3878 2328 
Q 3878 3066 3575 3472 
Q 3272 3878 2719 3878 
z
M 2719 4750 
Q 3844 4750 4481 4106 
Q 5119 3463 5119 2328 
Q 5119 1197 4481 553 
Q 3844 -91 2719 -91 
Q 1597 -91 958 553 
Q 319 1197 319 2328 
Q 319 3463 958 4106 
Q 1597 4750 2719 4750 
z
M 2799 5921 
L 3684 5921 
L 2793 5096 
L 2181 5096 
L 2799 5921 
z
" transform="scale(0.015625)"/>
     </defs>
     <use xlink:href="#DejaVuSans-Bold-53"/>
     <use xlink:href="#DejaVuSans-Bold-55" x="72.021484"/>
     <use xlink:href="#DejaVuSans-Bold-53" x="153.222656"/>
     <use xlink:href="#DejaVuSans-Bold-54" x="225.244141"/>
     <use xlink:href="#DejaVuSans-Bold-49" x="293.457031"/>
     <use xlink:href="#DejaVuSans-Bold-54" x="330.664062"/>
     <use xlink:href="#DejaVuSans-Bold-55" x="398.876953"/>
     <use xlink:href="#DejaVuSans-Bold-43" x="480.078125"/>
     <use xlink:href="#DejaVuSans-Bold-49" x="553.466797"/>
     <use xlink:href="#DejaVuSans-Bold-d3" x="590.673828"/>
     <use xlink:href="#DejaVuSans-Bold-4e" x="675.683594"/>
    </g>
   </g>
   <g id="text_16">
    <!-- y' = P+Qy+Ry² -->
    <g style="fill: #ffffff" transform="translate(782.590156 595.258344) scale(0.1 -0.1)">
     <defs>
      <path id="DejaVuSans-Bold-b2" d="M 1288 2613 
L 2444 2613 
L 2444 2088 
L 341 2088 
L 341 2566 
L 1319 3397 
Q 1509 3563 1590 3688 
Q 1672 3813 1672 3938 
Q 1672 4094 1558 4191 
Q 1444 4288 1259 4288 
Q 1066 4288 844 4217 
Q 622 4147 359 4000 
L 359 4581 
Q 631 4666 886 4708 
Q 1141 4750 1375 4750 
Q 1869 4750 2150 4548 
Q 2431 4347 2431 4000 
Q 2431 3775 2320 3586 
Q 2209 3397 1894 3128 
L 1288 2613 
z
" transform="scale(0.015625)"/>
     </defs>
     <use xlink:href="#DejaVuSans-Bold-79"/>
     <use xlink:href="#DejaVuSans-Bold-27" x="65.185547"/>
     <use xlink:href="#DejaVuSans-Bold-20" x="95.800781"/>
     <use xlink:href="#DejaVuSans-Bold-3d" x="130.615234"/>
     <use xlink:href="#DejaVuSans-Bold-20" x="214.404297"/>
     <use xlink:href="#DejaVuSans-Bold-50" x="249.21875"/>
     <use xlink:href="#DejaVuSans-Bold-2b" x="322.509766"/>
     <use xlink:href="#DejaVuSans-Bold-51" x="406.298828"/>
     <use xlink:href="#DejaVuSans-Bold-79" x="491.308594"/>
     <use xlink:href="#DejaVuSans-Bold-2b" x="556.494141"/>
     <use xlink:href="#DejaVuSans-Bold-52" x="640.283203"/>
     <use xlink:href="#DejaVuSans-Bold-79" x="712.785156"/>
     <use xlink:href="#DejaVuSans-Bold-b2" x="777.970703"/>
    </g>
    <!-- RICATTI -->
    <g style="fill: #ffffff" transform="translate(802.02375 606.534281) scale(0.1 -0.1)">
     <use xlink:href="#DejaVuSans-Bold-52"/>
     <use xlink:href="#DejaVuSans-Bold-49" x="77.001953"/>
     <use xlink:href="#DejaVuSans-Bold-43" x="114.208984"/>
     <use xlink:href="#DejaVuSans-Bold-41" x="187.597656"/>
     <use xlink:href="#DejaVuSans-Bold-54" x="257.240234"/>
     <use xlink:href="#DejaVuSans-Bold-54" x="327.703125"/>
     <use xlink:href="#DejaVuSans-Bold-49" x="395.916016"/>
    </g>
   </g>
   <g id="patch_36">
    <path d="M 240.48 640.998343 
Q 240.48 659.413515 240.48 675.592619 
" style="fill: none; stroke: #64748b; stroke-width: 2; stroke-linecap: round"/>
    <path d="M 242.48 671.592619 
L 240.48 675.592619 
L 238.48 671.592619 
" style="fill: none; stroke: #64748b; stroke-width: 2; stroke-linecap: round"/>
   </g>
   <g id="patch_37">
    <path d="M 444.6 640.998343 
Q 444.6 659.413515 444.6 675.592619 
" style="fill: none; stroke: #64748b; stroke-width: 2; stroke-linecap: round"/>
    <path d="M 446.6 671.592619 
L 444.6 675.592619 
L 442.6 671.592619 
" style="fill: none; stroke: #64748b; stroke-width: 2; stroke-linecap: round"/>
   </g>
   <g id="patch_38">
    <path d="M 619.56 640.998343 
Q 619.56 659.413515 619.56 675.592619 
" style="fill: none; stroke: #64748b; stroke-width: 2; stroke-linecap: round"/>
    <path d="M 621.56 671.592619 
L 619.56 675.592619 
L 617.56 671.592619 
" style="fill: none; stroke: #64748b; stroke-width: 2; stroke-linecap: round"/>
   </g>
   <g id="patch_39">
    <path d="M 823.68 640.998343 
Q 823.68 659.413515 823.68 675.592619 
" style="fill: none; stroke: #64748b; stroke-width: 2; stroke-linecap: round"/>
    <path d="M 825.68 671.592619 
L 823.68 675.592619 
L 821.68 671.592619 
" style="fill: none; stroke: #64748b; stroke-width: 2; stroke-linecap: round"/>
   </g>
   <g id="text_17">
    <!-- v = y^(1-n) -->
    <g style="fill: #ffffff" transform="translate(211.623047 717.259359) scale(0.09 -0.09)">
     <defs>
      <path id="DejaVuSans-Bold-76" d="M 97 3500 
L 1216 3500 
L 2088 1081 
L 2956 3500 
L 4078 3500 
L 2700 0 
L 1472 0 
L 97 3500 
z
" transform="scale(0.015625)"/>
      <path id="DejaVuSans-Bold-31" d="M 750 831 
L 1813 831 
L 1813 3847 
L 722 3622 
L 722 4441 
L 1806 4666 
L 2950 4666 
L 2950 831 
L 4013 831 
L 4013 0 
L 750 0 
L 750 831 
z
" transform="scale(0.015625)"/>
      <path id="DejaVuSans-Bold-2d" d="M 347 2297 
L 2309 2297 
L 2309 1388 
L 347 1388 
L 347 2297 
z
" transform="scale(0.015625)"/>
     </defs>
     <use xlink:href="#DejaVuSans-Bold-76"/>
     <use xlink:href="#DejaVuSans-Bold-20" x="65.185547"/>
     <use xlink:href="#DejaVuSans-Bold-3d" x="100"/>
     <use xlink:href="#DejaVuSans-Bold-20" x="183.789062"/>
     <use xlink:href="#DejaVuSans-Bold-79" x="218.603516"/>
     <use xlink:href="#DejaVuSans-Bold-5e" x="283.789062"/>
     <use xlink:href="#DejaVuSans-Bold-28" x="367.578125"/>
     <use xlink:href="#DejaVuSans-Bold-31" x="413.28125"/>
     <use xlink:href="#DejaVuSans-Bold-2d" x="482.861328"/>
     <use xlink:href="#DejaVuSans-Bold-6e" x="524.365234"/>
     <use xlink:href="#DejaVuSans-Bold-29" x="595.556641"/>
    </g>
   </g>
   <g id="text_18">
    <!-- v = y/x -->
    <g style="fill: #ffffff" transform="translate(427.282734 717.229125) scale(0.09 -0.09)">
     <use xlink:href="#DejaVuSans-Bold-76"/>
     <use xlink:href="#DejaVuSans-Bold-20" x="65.185547"/>
     <use xlink:href="#DejaVuSans-Bold-3d" x="100"/>
     <use xlink:href="#DejaVuSans-Bold-20" x="183.789062"/>
     <use xlink:href="#DejaVuSans-Bold-79" x="218.603516"/>
     <use xlink:href="#DejaVuSans-Bold-2f" x="283.789062"/>
     <use xlink:href="#DejaVuSans-Bold-78" x="320.3125"/>
    </g>
   </g>
   <g id="text_19">
    <!-- u = ax+by+c -->
    <g style="fill: #ffffff" transform="translate(587.149453 717.264281) scale(0.09 -0.09)">
     <use xlink:href="#DejaVuSans-Bold-75"/>
     <use xlink:href="#DejaVuSans-Bold-20" x="71.191406"/>
     <use xlink:href="#DejaVuSans-Bold-3d" x="106.005859"/>
     <use xlink:href="#DejaVuSans-Bold-20" x="189.794922"/>
     <use xlink:href="#DejaVuSans-Bold-61" x="224.609375"/>
     <use xlink:href="#DejaVuSans-Bold-78" x="292.089844"/>
     <use xlink:href="#DejaVuSans-Bold-2b" x="356.591797"/>
     <use xlink:href="#DejaVuSans-Bold-62" x="440.380859"/>
     <use xlink:href="#DejaVuSans-Bold-79" x="511.962891"/>
     <use xlink:href="#DejaVuSans-Bold-2b" x="577.148438"/>
     <use xlink:href="#DejaVuSans-Bold-63" x="660.9375"/>
    </g>
   </g>
   <g id="text_20">
    <!-- Conocer y₁ -->
    <g style="fill: #ffffff" transform="translate(796.580859 717.229125) scale(0.09 -0.09)">
     <defs>
      <path id="DejaVuSans-Bold-2081" d="M 441 466 
L 1088 466 
L 1088 2094 
L 384 1932 
L 384 2432 
L 1100 2585 
L 1806 2585 
L 1806 466 
L 2444 466 
L 2444 -24 
L 441 -24 
L 441 466 
z
" transform="scale(0.015625)"/>
     </defs>
     <use xlink:href="#DejaVuSans-Bold-43"/>
     <use xlink:href="#DejaVuSans-Bold-6f" x="73.388672"/>
     <use xlink:href="#DejaVuSans-Bold-6e" x="142.089844"/>
     <use xlink:href="#DejaVuSans-Bold-6f" x="213.28125"/>
     <use xlink:href="#DejaVuSans-Bold-63" x="281.982422"/>
     <use xlink:href="#DejaVuSans-Bold-65" x="341.259766"/>
     <use xlink:href="#DejaVuSans-Bold-72" x="409.082031"/>
     <use xlink:href="#DejaVuSans-Bold-20" x="458.398438"/>
     <use xlink:href="#DejaVuSans-Bold-79" x="493.212891"/>
     <use xlink:href="#DejaVuSans-Bold-2081" x="558.398438"/>
    </g>
   </g>
   <g id="text_21">
    <!-- Leyenda: -->
    <g style="fill: #1f2937" transform="translate(94.68 784.8) scale(0.1 -0.1)">
     <defs>
      <path id="SegoeUI-Bold-4c" d="M 3181 0 
L 513 0 
L 513 4481 
L 1522 4481 
L 1522 819 
L 3181 819 
L 3181 0 
z
" transform="scale(0.015625)"/>
      <path id="SegoeUI-Bold-65" d="M 3291 1319 
L 1203 1319 
Q 1253 622 2081 622 
Q 2609 622 3009 872 
L 3009 159 
Q 2566 -78 1856 -78 
Q 1081 -78 653 351 
Q 225 781 225 1550 
Q 225 2347 687 2812 
Q 1150 3278 1825 3278 
Q 2525 3278 2908 2862 
Q 3291 2447 3291 1734 
L 3291 1319 
z
M 2375 1925 
Q 2375 2613 1819 2613 
Q 1581 2613 1407 2416 
Q 1234 2219 1197 1925 
L 2375 1925 
z
" transform="scale(0.015625)"/>
      <path id="SegoeUI-Bold-79" d="M 3463 3200 
L 2163 -256 
Q 1694 -1503 750 -1503 
Q 391 -1503 159 -1422 
L 159 -634 
Q 356 -750 588 -750 
Q 969 -750 1119 -391 
L 1288 6 
L -13 3200 
L 1081 3200 
L 1678 1253 
Q 1734 1072 1766 825 
L 1778 825 
Q 1806 1006 1881 1247 
L 2484 3200 
L 3463 3200 
z
" transform="scale(0.015625)"/>
      <path id="SegoeUI-Bold-6e" d="M 3506 0 
L 2522 0 
L 2522 1778 
Q 2522 2522 1991 2522 
Q 1734 2522 1568 2325 
Q 1403 2128 1403 1825 
L 1403 0 
L 416 0 
L 416 3200 
L 1403 3200 
L 1403 2694 
L 1416 2694 
Q 1769 3278 2444 3278 
Q 3506 3278 3506 1959 
L 3506 0 
z
" transform="scale(0.015625)"/>
      <path id="SegoeUI-Bold-64" d="M 3547 0 
L 2559 0 
L 2559 441 
L 2547 441 
Q 2209 -78 1556 -78 
Q 956 -78 590 345 
Q 225 769 225 1528 
Q 225 2322 628 2800 
Q 1031 3278 1684 3278 
Q 2303 3278 2547 2834 
L 2559 2834 
L 2559 4738 
L 3547 4738 
L 3547 0 
z
M 2578 1556 
L 2578 1797 
Q 2578 2109 2397 2315 
Q 2216 2522 1925 2522 
Q 1597 2522 1412 2264 
Q 1228 2006 1228 1556 
Q 1228 1134 1406 906 
Q 1584 678 1900 678 
Q 2200 678 2389 918 
Q 2578 1159 2578 1556 
z
" transform="scale(0.015625)"/>
      <path id="SegoeUI-Bold-61" d="M 3078 0 
L 2144 0 
L 2144 459 
L 2131 459 
Q 1809 -78 1178 -78 
Q 713 -78 445 186 
Q 178 450 178 891 
Q 178 1822 1281 1966 
L 2150 2081 
Q 2150 2606 1581 2606 
Q 1009 2606 494 2266 
L 494 3009 
Q 700 3116 1058 3197 
Q 1416 3278 1709 3278 
Q 3078 3278 3078 1913 
L 3078 0 
z
M 2150 1300 
L 2150 1516 
L 1569 1441 
Q 1088 1378 1088 1006 
Q 1088 838 1205 730 
Q 1322 622 1522 622 
Q 1800 622 1975 814 
Q 2150 1006 2150 1300 
z
" transform="scale(0.015625)"/>
      <path id="SegoeUI-Bold-3a" d="M 856 2209 
Q 613 2209 450 2357 
Q 288 2506 288 2725 
Q 288 2950 455 3094 
Q 622 3238 872 3238 
Q 1125 3238 1286 3092 
Q 1447 2947 1447 2725 
Q 1447 2497 1283 2353 
Q 1119 2209 856 2209 
z
M 856 -78 
Q 613 -78 450 72 
Q 288 222 288 441 
Q 288 666 455 809 
Q 622 953 872 953 
Q 1125 953 1286 808 
Q 1447 663 1447 441 
Q 1447 213 1283 67 
Q 1119 -78 856 -78 
z
" transform="scale(0.015625)"/>
     </defs>
     <use xlink:href="#SegoeUI-Bold-4c"/>
     <use xlink:href="#SegoeUI-Bold-65" x="51.123047"/>
     <use xlink:href="#SegoeUI-Bold-79" x="105.224609"/>
     <use xlink:href="#SegoeUI-Bold-65" x="158.033203"/>
     <use xlink:href="#SegoeUI-Bold-6e" x="212.134766"/>
     <use xlink:href="#SegoeUI-Bold-64" x="272.632812"/>
     <use xlink:href="#SegoeUI-Bold-61" x="334.546875"/>
     <use xlink:href="#SegoeUI-Bold-3a" x="388.355469"/>
    </g>
   </g>
   <g id="text_22">
    <!-- Separable -->
    <g style="fill: #1f2937" transform="translate(246.312 792.928406) scale(0.09 -0.09)">
     <defs>
      <path id="SegoeUI-53" d="M 378 181 
L 378 800 
Q 484 706 632 631 
Q 781 556 945 504 
Q 1109 453 1275 425 
Q 1441 397 1581 397 
Q 2066 397 2305 576 
Q 2544 756 2544 1094 
Q 2544 1275 2464 1409 
Q 2384 1544 2243 1655 
Q 2103 1766 1911 1867 
Q 1719 1969 1497 2081 
Q 1263 2200 1059 2322 
Q 856 2444 706 2591 
Q 556 2738 470 2923 
Q 384 3109 384 3359 
Q 384 3666 518 3892 
Q 653 4119 872 4266 
Q 1091 4413 1370 4484 
Q 1650 4556 1941 4556 
Q 2603 4556 2906 4397 
L 2906 3806 
Q 2509 4081 1888 4081 
Q 1716 4081 1544 4045 
Q 1372 4009 1237 3928 
Q 1103 3847 1018 3719 
Q 934 3591 934 3406 
Q 934 3234 998 3109 
Q 1063 2984 1188 2881 
Q 1313 2778 1492 2681 
Q 1672 2584 1906 2469 
Q 2147 2350 2362 2219 
Q 2578 2088 2740 1928 
Q 2903 1769 2998 1575 
Q 3094 1381 3094 1131 
Q 3094 800 2964 570 
Q 2834 341 2614 197 
Q 2394 53 2106 -11 
Q 1819 -75 1500 -75 
Q 1394 -75 1237 -58 
Q 1081 -41 918 -8 
Q 756 25 611 73 
Q 466 122 378 181 
z
" transform="scale(0.015625)"/>
      <path id="SegoeUI-65" d="M 3091 1472 
L 831 1472 
Q 844 938 1119 647 
Q 1394 356 1875 356 
Q 2416 356 2869 713 
L 2869 231 
Q 2447 -75 1753 -75 
Q 1075 -75 687 361 
Q 300 797 300 1588 
Q 300 2334 723 2804 
Q 1147 3275 1775 3275 
Q 2403 3275 2747 2869 
Q 3091 2463 3091 1741 
L 3091 1472 
z
M 2566 1906 
Q 2563 2350 2352 2597 
Q 2141 2844 1766 2844 
Q 1403 2844 1150 2584 
Q 897 2325 838 1906 
L 2566 1906 
z
" transform="scale(0.015625)"/>
      <path id="SegoeUI-70" d="M 1044 463 
L 1031 463 
L 1031 -1472 
L 519 -1472 
L 519 3200 
L 1031 3200 
L 1031 2638 
L 1044 2638 
Q 1422 3275 2150 3275 
Q 2769 3275 3116 2845 
Q 3463 2416 3463 1694 
Q 3463 891 3072 408 
Q 2681 -75 2003 -75 
Q 1381 -75 1044 463 
z
M 1031 1753 
L 1031 1306 
Q 1031 909 1289 632 
Q 1547 356 1944 356 
Q 2409 356 2673 712 
Q 2938 1069 2938 1703 
Q 2938 2238 2691 2541 
Q 2444 2844 2022 2844 
Q 1575 2844 1303 2533 
Q 1031 2222 1031 1753 
z
" transform="scale(0.015625)"/>
      <path id="SegoeUI-61" d="M 2809 0 
L 2297 0 
L 2297 500 
L 2284 500 
Q 1950 -75 1300 -75 
Q 822 -75 551 178 
Q 281 431 281 850 
Q 281 1747 1338 1894 
L 2297 2028 
Q 2297 2844 1638 2844 
Q 1059 2844 594 2450 
L 594 2975 
Q 1066 3275 1681 3275 
Q 2809 3275 2809 2081 
L 2809 0 
z
M 2297 1619 
L 1525 1513 
Q 1169 1463 987 1336 
Q 806 1209 806 888 
Q 806 653 973 504 
Q 1141 356 1419 356 
Q 1800 356 2048 623 
Q 2297 891 2297 1300 
L 2297 1619 
z
" transform="scale(0.015625)"/>
      <path id="SegoeUI-72" d="M 2188 2681 
Q 2053 2784 1800 2784 
Q 1472 2784 1251 2475 
Q 1031 2166 1031 1631 
L 1031 0 
L 519 0 
L 519 3200 
L 1031 3200 
L 1031 2541 
L 1044 2541 
Q 1153 2878 1378 3067 
Q 1603 3256 1881 3256 
Q 2081 3256 2188 3213 
L 2188 2681 
z
" transform="scale(0.015625)"/>
      <path id="SegoeUI-62" d="M 1044 463 
L 1031 463 
L 1031 0 
L 519 0 
L 519 4738 
L 1031 4738 
L 1031 2638 
L 1044 2638 
Q 1422 3275 2150 3275 
Q 2766 3275 3114 2845 
Q 3463 2416 3463 1694 
Q 3463 891 3072 408 
Q 2681 -75 2003 -75 
Q 1369 -75 1044 463 
z
M 1031 1753 
L 1031 1306 
Q 1031 909 1289 632 
Q 1547 356 1944 356 
Q 2409 356 2673 712 
Q 2938 1069 2938 1703 
Q 2938 2238 2691 2541 
Q 2444 2844 2022 2844 
Q 1575 2844 1303 2533 
Q 1031 2222 1031 1753 
z
" transform="scale(0.015625)"/>
      <path id="SegoeUI-6c" d="M 1031 0 
L 519 0 
L 519 4738 
L 1031 4738 
L 1031 0 
z
" transform="scale(0.015625)"/>
     </defs>
     <use xlink:href="#SegoeUI-53"/>
     <use xlink:href="#SegoeUI-65" x="53.125"/>
     <use xlink:href="#SegoeUI-70" x="105.419922"/>
     <use xlink:href="#SegoeUI-61" x="162.833984"/>
     <use xlink:href="#SegoeUI-72" x="213.712891"/>
     <use xlink:href="#SegoeUI-61" x="248.478516"/>
     <use xlink:href="#SegoeUI-62" x="299.357422"/>
     <use xlink:href="#SegoeUI-6c" x="358.146484"/>
     <use xlink:href="#SegoeUI-65" x="382.365234"/>
    </g>
   </g>
   <g id="text_23">
    <!-- Lineal -->
    <g style="fill: #1f2937" transform="translate(450.432 792.928406) scale(0.09 -0.09)">
     <defs>
      <path id="SegoeUI-4c" d="M 2913 0 
L 588 0 
L 588 4481 
L 1113 4481 
L 1113 475 
L 2913 475 
L 2913 0 
z
" transform="scale(0.015625)"/>
      <path id="SegoeUI-69" d="M 781 4013 
Q 644 4013 547 4106 
Q 450 4200 450 4344 
Q 450 4488 547 4583 
Q 644 4678 781 4678 
Q 922 4678 1020 4583 
Q 1119 4488 1119 4344 
Q 1119 4206 1020 4109 
Q 922 4013 781 4013 
z
M 1031 0 
L 519 0 
L 519 3200 
L 1031 3200 
L 1031 0 
z
" transform="scale(0.015625)"/>
      <path id="SegoeUI-6e" d="M 3175 0 
L 2663 0 
L 2663 1825 
Q 2663 2844 1919 2844 
Q 1534 2844 1282 2555 
Q 1031 2266 1031 1825 
L 1031 0 
L 519 0 
L 519 3200 
L 1031 3200 
L 1031 2669 
L 1044 2669 
Q 1406 3275 2094 3275 
Q 2619 3275 2897 2936 
Q 3175 2597 3175 1956 
L 3175 0 
z
" transform="scale(0.015625)"/>
     </defs>
     <use xlink:href="#SegoeUI-4c"/>
     <use xlink:href="#SegoeUI-69" x="47.070312"/>
     <use xlink:href="#SegoeUI-6e" x="71.289062"/>
     <use xlink:href="#SegoeUI-65" x="127.880859"/>
     <use xlink:href="#SegoeUI-61" x="180.175781"/>
     <use xlink:href="#SegoeUI-6c" x="231.054688"/>
    </g>
   </g>
   <g id="text_24">
    <!-- Exacta/Diferencial -->
    <g style="fill: #1f2937" transform="translate(654.552 792.928406) scale(0.09 -0.09)">
     <defs>
      <path id="SegoeUI-45" d="M 2963 0 
L 588 0 
L 588 4481 
L 2863 4481 
L 2863 4006 
L 1113 4006 
L 1113 2516 
L 2731 2516 
L 2731 2044 
L 1113 2044 
L 1113 475 
L 2963 475 
L 2963 0 
z
" transform="scale(0.015625)"/>
      <path id="SegoeUI-78" d="M 2856 3200 
L 1781 1581 
L 2838 0 
L 2241 0 
L 1613 1038 
Q 1553 1134 1472 1281 
L 1459 1281 
Q 1444 1253 1313 1038 
L 672 0 
L 81 0 
L 1172 1569 
L 128 3200 
L 725 3200 
L 1344 2106 
Q 1413 1984 1478 1856 
L 1491 1856 
L 2291 3200 
L 2856 3200 
z
" transform="scale(0.015625)"/>
      <path id="SegoeUI-63" d="M 2700 147 
Q 2331 -75 1825 -75 
Q 1141 -75 720 370 
Q 300 816 300 1525 
Q 300 2316 753 2795 
Q 1206 3275 1963 3275 
Q 2384 3275 2706 3119 
L 2706 2594 
Q 2350 2844 1944 2844 
Q 1453 2844 1139 2492 
Q 825 2141 825 1569 
Q 825 1006 1120 681 
Q 1416 356 1913 356 
Q 2331 356 2700 634 
L 2700 147 
z
" transform="scale(0.015625)"/>
      <path id="SegoeUI-74" d="M 2003 31 
Q 1822 -69 1525 -69 
Q 684 -69 684 869 
L 684 2763 
L 134 2763 
L 134 3200 
L 684 3200 
L 684 3981 
L 1197 4147 
L 1197 3200 
L 2003 3200 
L 2003 2763 
L 1197 2763 
L 1197 959 
Q 1197 638 1306 500 
Q 1416 363 1669 363 
Q 1863 363 2003 469 
L 2003 31 
z
" transform="scale(0.015625)"/>
      <path id="SegoeUI-2f" d="M 2541 4481 
L 391 -744 
L -88 -744 
L 2056 4481 
L 2541 4481 
z
" transform="scale(0.015625)"/>
      <path id="SegoeUI-44" d="M 588 0 
L 588 4481 
L 1825 4481 
Q 4194 4481 4194 2297 
Q 4194 1259 3536 629 
Q 2878 0 1775 0 
L 588 0 
z
M 1113 4006 
L 1113 475 
L 1781 475 
Q 2663 475 3153 947 
Q 3644 1419 3644 2284 
Q 3644 4006 1813 4006 
L 1113 4006 
z
" transform="scale(0.015625)"/>
      <path id="SegoeUI-66" d="M 2100 4288 
Q 1950 4372 1759 4372 
Q 1222 4372 1222 3694 
L 1222 3200 
L 1972 3200 
L 1972 2763 
L 1222 2763 
L 1222 0 
L 713 0 
L 713 2763 
L 166 2763 
L 166 3200 
L 713 3200 
L 713 3719 
Q 713 4222 1003 4514 
Q 1294 4806 1728 4806 
Q 1963 4806 2100 4750 
L 2100 4288 
z
" transform="scale(0.015625)"/>
     </defs>
     <use xlink:href="#SegoeUI-45"/>
     <use xlink:href="#SegoeUI-78" x="50.585938"/>
     <use xlink:href="#SegoeUI-61" x="96.484375"/>
     <use xlink:href="#SegoeUI-63" x="147.363281"/>
     <use xlink:href="#SegoeUI-74" x="193.554688"/>
     <use xlink:href="#SegoeUI-61" x="227.441406"/>
     <use xlink:href="#SegoeUI-2f" x="278.320312"/>
     <use xlink:href="#SegoeUI-44" x="317.285156"/>
     <use xlink:href="#SegoeUI-69" x="387.402344"/>
     <use xlink:href="#SegoeUI-66" x="411.621094"/>
     <use xlink:href="#SegoeUI-65" x="442.919922"/>
     <use xlink:href="#SegoeUI-72" x="495.214844"/>
     <use xlink:href="#SegoeUI-65" x="528.605469"/>
     <use xlink:href="#SegoeUI-6e" x="580.900391"/>
     <use xlink:href="#SegoeUI-63" x="637.492188"/>
     <use xlink:href="#SegoeUI-69" x="683.683594"/>
     <use xlink:href="#SegoeUI-61" x="707.902344"/>
     <use xlink:href="#SegoeUI-6c" x="758.78125"/>
    </g>
   </g>
   <g id="text_25">
    <!-- Casos especiales -->
    <g style="fill: #1f2937" transform="translate(858.672 792.928406) scale(0.09 -0.09)">
     <defs>
      <path id="SegoeUI-43" d="M 3638 188 
Q 3141 -75 2400 -75 
Q 1444 -75 869 540 
Q 294 1156 294 2156 
Q 294 3231 941 3893 
Q 1588 4556 2581 4556 
Q 3219 4556 3638 4372 
L 3638 3813 
Q 3156 4081 2575 4081 
Q 1803 4081 1323 3565 
Q 844 3050 844 2188 
Q 844 1369 1292 883 
Q 1741 397 2469 397 
Q 3144 397 3638 697 
L 3638 188 
z
" transform="scale(0.015625)"/>
      <path id="SegoeUI-73" d="M 325 116 
L 325 666 
Q 744 356 1247 356 
Q 1922 356 1922 806 
Q 1922 934 1864 1023 
Q 1806 1113 1707 1181 
Q 1609 1250 1476 1304 
Q 1344 1359 1191 1419 
Q 978 1503 817 1589 
Q 656 1675 548 1783 
Q 441 1891 386 2028 
Q 331 2166 331 2350 
Q 331 2575 434 2748 
Q 538 2922 709 3039 
Q 881 3156 1101 3215 
Q 1322 3275 1556 3275 
Q 1972 3275 2300 3131 
L 2300 2613 
Q 1947 2844 1488 2844 
Q 1344 2844 1228 2811 
Q 1113 2778 1030 2718 
Q 947 2659 901 2576 
Q 856 2494 856 2394 
Q 856 2269 901 2184 
Q 947 2100 1034 2034 
Q 1122 1969 1247 1916 
Q 1372 1863 1531 1800 
Q 1744 1719 1912 1633 
Q 2081 1547 2200 1439 
Q 2319 1331 2383 1190 
Q 2447 1050 2447 856 
Q 2447 619 2342 444 
Q 2238 269 2063 153 
Q 1888 38 1659 -18 
Q 1431 -75 1181 -75 
Q 688 -75 325 116 
z
" transform="scale(0.015625)"/>
      <path id="SegoeUI-6f" d="M 1856 -75 
Q 1147 -75 723 373 
Q 300 822 300 1563 
Q 300 2369 740 2822 
Q 1181 3275 1931 3275 
Q 2647 3275 3048 2834 
Q 3450 2394 3450 1613 
Q 3450 847 3017 386 
Q 2584 -75 1856 -75 
z
M 1894 2844 
Q 1400 2844 1112 2508 
Q 825 2172 825 1581 
Q 825 1013 1115 684 
Q 1406 356 1894 356 
Q 2391 356 2658 678 
Q 2925 1000 2925 1594 
Q 2925 2194 2658 2519 
Q 2391 2844 1894 2844 
z
" transform="scale(0.015625)"/>
      <path id="SegoeUI-20" transform="scale(0.015625)"/>
     </defs>
     <use xlink:href="#SegoeUI-43"/>
     <use xlink:href="#SegoeUI-61" x="61.914062"/>
     <use xlink:href="#SegoeUI-73" x="112.792969"/>
     <use xlink:href="#SegoeUI-6f" x="155.224609"/>
     <use xlink:href="#SegoeUI-73" x="213.818359"/>
     <use xlink:href="#SegoeUI-20" x="256.25"/>
     <use xlink:href="#SegoeUI-65" x="283.642578"/>
     <use xlink:href="#SegoeUI-73" x="335.9375"/>
     <use xlink:href="#SegoeUI-70" x="378.369141"/>
     <use xlink:href="#SegoeUI-65" x="437.158203"/>
     <use xlink:href="#SegoeUI-63" x="489.453125"/>
     <use xlink:href="#SegoeUI-69" x="535.644531"/>
     <use xlink:href="#SegoeUI-61" x="559.863281"/>
     <use xlink:href="#SegoeUI-6c" x="610.742188"/>
     <use xlink:href="#SegoeUI-65" x="634.960938"/>
     <use xlink:href="#SegoeUI-73" x="687.255859"/>
    </g>
   </g>
  </g>
  <g id="text_26">
   <!-- Diagrama de Decisión: EDO de Primer Orden -->
   <g style="fill: #1f2937" transform="translate(364.88 19.045) scale(0.16 -0.16)">
    <defs>
     <path id="SegoeUI-Bold-44" d="M 513 0 
L 513 4481 
L 2100 4481 
Q 4488 4481 4488 2297 
Q 4488 1250 3836 625 
Q 3184 0 2100 0 
L 513 0 
z
M 1522 3659 
L 1522 819 
L 2022 819 
Q 2678 819 3051 1212 
Q 3425 1606 3425 2284 
Q 3425 2925 3054 3292 
Q 2684 3659 2016 3659 
L 1522 3659 
z
" transform="scale(0.015625)"/>
     <path id="SegoeUI-Bold-69" d="M 916 3706 
Q 666 3706 506 3854 
Q 347 4003 347 4219 
Q 347 4441 506 4581 
Q 666 4722 916 4722 
Q 1169 4722 1326 4581 
Q 1484 4441 1484 4219 
Q 1484 3994 1326 3850 
Q 1169 3706 916 3706 
z
M 1403 0 
L 416 0 
L 416 3200 
L 1403 3200 
L 1403 0 
z
" transform="scale(0.015625)"/>
     <path id="SegoeUI-Bold-67" d="M 3553 366 
Q 3553 -525 3037 -1014 
Q 2522 -1503 1544 -1503 
Q 897 -1503 519 -1319 
L 519 -488 
Q 1013 -775 1516 -775 
Q 2016 -775 2291 -511 
Q 2566 -247 2566 206 
L 2566 459 
L 2553 459 
Q 2216 -78 1556 -78 
Q 944 -78 584 353 
Q 225 784 225 1509 
Q 225 2322 625 2800 
Q 1025 3278 1678 3278 
Q 2263 3278 2553 2828 
L 2566 2828 
L 2566 3200 
L 3553 3200 
L 3553 366 
z
M 2578 1538 
L 2578 1791 
Q 2578 2094 2398 2308 
Q 2219 2522 1931 2522 
Q 1603 2522 1415 2265 
Q 1228 2009 1228 1544 
Q 1228 1144 1406 911 
Q 1584 678 1894 678 
Q 2200 678 2389 914 
Q 2578 1150 2578 1538 
z
" transform="scale(0.015625)"/>
     <path id="SegoeUI-Bold-72" d="M 2503 2309 
Q 2325 2406 2088 2406 
Q 1766 2406 1584 2170 
Q 1403 1934 1403 1528 
L 1403 0 
L 416 0 
L 416 3200 
L 1403 3200 
L 1403 2606 
L 1416 2606 
Q 1650 3256 2259 3256 
Q 2416 3256 2503 3219 
L 2503 2309 
z
" transform="scale(0.015625)"/>
     <path id="SegoeUI-Bold-6d" d="M 5497 0 
L 4513 0 
L 4513 1825 
Q 4513 2522 4000 2522 
Q 3756 2522 3603 2312 
Q 3450 2103 3450 1791 
L 3450 0 
L 2463 0 
L 2463 1844 
Q 2463 2522 1959 2522 
Q 1706 2522 1554 2322 
Q 1403 2122 1403 1778 
L 1403 0 
L 416 0 
L 416 3200 
L 1403 3200 
L 1403 2700 
L 1416 2700 
Q 1569 2956 1845 3117 
Q 2122 3278 2450 3278 
Q 3128 3278 3378 2681 
Q 3744 3278 4453 3278 
Q 5497 3278 5497 1991 
L 5497 0 
z
" transform="scale(0.015625)"/>
     <path id="SegoeUI-Bold-20" transform="scale(0.015625)"/>
     <path id="SegoeUI-Bold-63" d="M 2841 116 
Q 2506 -78 1875 -78 
Q 1138 -78 681 369 
Q 225 816 225 1522 
Q 225 2338 714 2808 
Q 1203 3278 2022 3278 
Q 2588 3278 2841 3128 
L 2841 2291 
Q 2531 2522 2150 2522 
Q 1725 2522 1476 2273 
Q 1228 2025 1228 1588 
Q 1228 1163 1465 920 
Q 1703 678 2119 678 
Q 2488 678 2841 909 
L 2841 116 
z
" transform="scale(0.015625)"/>
     <path id="SegoeUI-Bold-73" d="M 206 84 
L 206 884 
Q 450 738 692 666 
Q 934 594 1150 594 
Q 1413 594 1564 666 
Q 1716 738 1716 884 
Q 1716 978 1647 1040 
Q 1578 1103 1470 1150 
Q 1363 1197 1234 1234 
Q 1106 1272 988 1319 
Q 797 1391 651 1473 
Q 506 1556 407 1665 
Q 309 1775 257 1919 
Q 206 2063 206 2259 
Q 206 2528 323 2722 
Q 441 2916 636 3039 
Q 831 3163 1082 3220 
Q 1334 3278 1606 3278 
Q 1819 3278 2037 3245 
Q 2256 3213 2469 3150 
L 2469 2388 
Q 2281 2497 2067 2551 
Q 1853 2606 1647 2606 
Q 1550 2606 1464 2589 
Q 1378 2572 1312 2539 
Q 1247 2506 1209 2454 
Q 1172 2403 1172 2338 
Q 1172 2250 1228 2187 
Q 1284 2125 1375 2079 
Q 1466 2034 1577 1998 
Q 1688 1963 1797 1925 
Q 1994 1856 2153 1775 
Q 2313 1694 2427 1584 
Q 2541 1475 2602 1328 
Q 2663 1181 2663 978 
Q 2663 694 2539 492 
Q 2416 291 2211 164 
Q 2006 38 1739 -20 
Q 1472 -78 1184 -78 
Q 656 -78 206 84 
z
" transform="scale(0.015625)"/>
     <path id="SegoeUI-Bold-f3" d="M 1941 -78 
Q 1141 -78 683 370 
Q 225 819 225 1588 
Q 225 2381 700 2829 
Q 1175 3278 1984 3278 
Q 2781 3278 3234 2829 
Q 3688 2381 3688 1644 
Q 3688 847 3220 384 
Q 2753 -78 1941 -78 
z
M 1966 2522 
Q 1616 2522 1422 2281 
Q 1228 2041 1228 1600 
Q 1228 678 1972 678 
Q 2681 678 2681 1625 
Q 2681 2522 1966 2522 
z
M 3023 4716 
L 2044 3706 
L 1332 3706 
L 2144 4716 
L 3023 4716 
z
" transform="scale(0.015625)"/>
     <path id="SegoeUI-Bold-45" d="M 3200 0 
L 513 0 
L 513 4481 
L 3097 4481 
L 3097 3659 
L 1522 3659 
L 1522 2663 
L 2988 2663 
L 2988 1844 
L 1522 1844 
L 1522 819 
L 3200 819 
L 3200 0 
z
" transform="scale(0.015625)"/>
     <path id="SegoeUI-Bold-4f" d="M 2406 -78 
Q 1444 -78 837 548 
Q 231 1175 231 2181 
Q 231 3244 847 3900 
Q 1463 4556 2478 4556 
Q 3438 4556 4030 3928 
Q 4622 3300 4622 2272 
Q 4622 1216 4008 569 
Q 3394 -78 2406 -78 
z
M 2450 3688 
Q 1919 3688 1606 3289 
Q 1294 2891 1294 2234 
Q 1294 1569 1606 1181 
Q 1919 794 2425 794 
Q 2947 794 3253 1170 
Q 3559 1547 3559 2216 
Q 3559 2913 3262 3300 
Q 2966 3688 2450 3688 
z
" transform="scale(0.015625)"/>
     <path id="SegoeUI-Bold-50" d="M 1522 1544 
L 1522 0 
L 513 0 
L 513 4481 
L 2094 4481 
Q 3788 4481 3788 3053 
Q 3788 2378 3302 1961 
Q 2816 1544 2003 1544 
L 1522 1544 
z
M 1522 3706 
L 1522 2309 
L 1919 2309 
Q 2725 2309 2725 3016 
Q 2725 3706 1919 3706 
L 1522 3706 
z
" transform="scale(0.015625)"/>
    </defs>
    <use xlink:href="#SegoeUI-Bold-44"/>
    <use xlink:href="#SegoeUI-Bold-69" x="73.730469"/>
    <use xlink:href="#SegoeUI-Bold-61" x="102.148438"/>
    <use xlink:href="#SegoeUI-Bold-67" x="155.957031"/>
    <use xlink:href="#SegoeUI-Bold-72" x="217.871094"/>
    <use xlink:href="#SegoeUI-Bold-61" x="257.666016"/>
    <use xlink:href="#SegoeUI-Bold-6d" x="311.474609"/>
    <use xlink:href="#SegoeUI-Bold-61" x="403.076172"/>
    <use xlink:href="#SegoeUI-Bold-20" x="456.884766"/>
    <use xlink:href="#SegoeUI-Bold-64" x="484.472656"/>
    <use xlink:href="#SegoeUI-Bold-65" x="546.386719"/>
    <use xlink:href="#SegoeUI-Bold-20" x="600.488281"/>
    <use xlink:href="#SegoeUI-Bold-44" x="628.076172"/>
    <use xlink:href="#SegoeUI-Bold-65" x="701.806641"/>
    <use xlink:href="#SegoeUI-Bold-63" x="755.908203"/>
    <use xlink:href="#SegoeUI-Bold-69" x="803.90625"/>
    <use xlink:href="#SegoeUI-Bold-73" x="832.324219"/>
    <use xlink:href="#SegoeUI-Bold-69" x="876.318359"/>
    <use xlink:href="#SegoeUI-Bold-f3" x="904.736328"/>
    <use xlink:href="#SegoeUI-Bold-6e" x="965.820312"/>
    <use xlink:href="#SegoeUI-Bold-3a" x="1026.318359"/>
    <use xlink:href="#SegoeUI-Bold-20" x="1053.417969"/>
    <use xlink:href="#SegoeUI-Bold-45" x="1081.005859"/>
    <use xlink:href="#SegoeUI-Bold-44" x="1134.228516"/>
    <use xlink:href="#SegoeUI-Bold-4f" x="1207.958984"/>
    <use xlink:href="#SegoeUI-Bold-20" x="1283.789062"/>
    <use xlink:href="#SegoeUI-Bold-64" x="1311.376953"/>
    <use xlink:href="#SegoeUI-Bold-65" x="1373.291016"/>
    <use xlink:href="#SegoeUI-Bold-20" x="1427.392578"/>
    <use xlink:href="#SegoeUI-Bold-50" x="1454.980469"/>
    <use xlink:href="#SegoeUI-Bold-72" x="1516.40625"/>
    <use xlink:href="#SegoeUI-Bold-69" x="1556.576172"/>
    <use xlink:href="#SegoeUI-Bold-6d" x="1584.994141"/>
    <use xlink:href="#SegoeUI-Bold-65" x="1676.595703"/>
    <use xlink:href="#SegoeUI-Bold-72" x="1730.697266"/>
    <use xlink:href="#SegoeUI-Bold-20" x="1770.492188"/>
    <use xlink:href="#SegoeUI-Bold-4f" x="1798.080078"/>
    <use xlink:href="#SegoeUI-Bold-72" x="1873.910156"/>
    <use xlink:href="#SegoeUI-Bold-64" x="1913.330078"/>
    <use xlink:href="#SegoeUI-Bold-65" x="1975.244141"/>
    <use xlink:href="#SegoeUI-Bold-6e" x="2029.345703"/>
   </g>
  </g>
 </g>
 <defs>
  <clipPath id="pe7a4d6554c">
   <rect x="7.2" y="26.64" width="1049.76" height="816.48"/>
  </clipPath>
 </defs>
</svg>
