<?xml version="1.0" encoding="utf-8" standalone="no"?>
<!DOCTYPE svg PUBLIC "-//W3C//DTD SVG 1.1//EN"
  "http://www.w3.org/Graphics/SVG/1.1/DTD/svg11.dtd">
<svg xmlns:xlink="http://www.w3.org/1999/xlink" width="1016.39952pt" height="584.39952pt" viewBox="0 0 1016.39952 584.39952" xmlns="http://www.w3.org/2000/svg" version="1.1">
 <metadata>
  <rdf:RDF xmlns:dc="http://purl.org/dc/elements/1.1/" xmlns:cc="http://creativecommons.org/ns#" xmlns:rdf="http://www.w3.org/1999/02/22-rdf-syntax-ns#">
   <cc:Work>
    <dc:type rdf:resource="http://purl.org/dc/dcmitype/StillImage"/>
    <dc:date>2026-04-11T16:11:44.030753</dc:date>
    <dc:format>image/svg+xml</dc:format>
    <dc:creator>
     <cc:Agent>
      <dc:title>Matplotlib v3.8.4, https://matplotlib.org/</dc:title>
     </cc:Agent>
    </dc:creator>
   </cc:Work>
  </rdf:RDF>
 </metadata>
 <defs>
  <style type="text/css">*{stroke-linejoin: round; stroke-linecap: butt}</style>
 </defs>
 <g id="figure_1">
  <g id="patch_1">
   <path d="M 0 584.39952 
L 1016.39952 584.39952 
L 1016.39952 0 
L 0 0 
z
" style="fill: #ffffff"/>
  </g>
  <g id="axes_1">
   <g id="patch_2">
    <path d="M 18.07116 112.15643 
L 105.040438 112.15643 
L 105.040438 70.880416 
L 18.07116 70.880416 
z
" clip-path="url(#pc6190915ae)" style="fill: #39c5bb; stroke: #ffffff; stroke-width: 2; stroke-linejoin: miter"/>
   </g>
   <g id="patch_3">
    <path d="M 105.040438 112.15643 
L 181.138557 112.15643 
L 181.138557 70.880416 
L 105.040438 70.880416 
z
" clip-path="url(#pc6190915ae)" style="fill: #39c5bb; stroke: #ffffff; stroke-width: 2; stroke-linejoin: miter"/>
   </g>
   <g id="patch_4">
    <path d="M 181.138557 112.15643 
L 300.721314 112.15643 
L 300.721314 70.880416 
L 181.138557 70.880416 
z
" clip-path="url(#pc6190915ae)" style="fill: #39c5bb; stroke: #ffffff; stroke-width: 2; stroke-linejoin: miter"/>
   </g>
   <g id="patch_5">
    <path d="M 300.721314 112.15643 
L 420.304072 112.15643 
L 420.304072 70.880416 
L 300.721314 70.880416 
z
" clip-path="url(#pc6190915ae)" style="fill: #39c5bb; stroke: #ffffff; stroke-width: 2; stroke-linejoin: miter"/>
   </g>
   <g id="patch_6">
    <path d="M 420.304072 112.15643 
L 539.88683 112.15643 
L 539.88683 70.880416 
L 420.304072 70.880416 
z
" clip-path="url(#pc6190915ae)" style="fill: #39c5bb; stroke: #ffffff; stroke-width: 2; stroke-linejoin: miter"/>
   </g>
   <g id="patch_7">
    <path d="M 18.07116 153.432444 
L 105.040438 153.432444 
L 105.040438 112.15643 
L 18.07116 112.15643 
z
" clip-path="url(#pc6190915ae)" style="fill: #f3f4f6; stroke: #d1d5db; stroke-linejoin: miter"/>
   </g>
   <g id="patch_8">
    <path d="M 105.040438 153.432444 
L 181.138557 153.432444 
L 181.138557 112.15643 
L 105.040438 112.15643 
z
" clip-path="url(#pc6190915ae)" style="fill: #f3f4f6; stroke: #d1d5db; stroke-linejoin: miter"/>
   </g>
   <g id="patch_9">
    <path d="M 181.138557 153.432444 
L 300.721314 153.432444 
L 300.721314 112.15643 
L 181.138557 112.15643 
z
" clip-path="url(#pc6190915ae)" style="fill: #f3f4f6; stroke: #d1d5db; stroke-linejoin: miter"/>
   </g>
   <g id="patch_10">
    <path d="M 300.721314 153.432444 
L 420.304072 153.432444 
L 420.304072 112.15643 
L 300.721314 112.15643 
z
" clip-path="url(#pc6190915ae)" style="fill: #f3f4f6; stroke: #d1d5db; stroke-linejoin: miter"/>
   </g>
   <g id="patch_11">
    <path d="M 420.304072 153.432444 
L 539.88683 153.432444 
L 539.88683 112.15643 
L 420.304072 112.15643 
z
" clip-path="url(#pc6190915ae)" style="fill: #f3f4f6; stroke: #d1d5db; stroke-linejoin: miter"/>
   </g>
   <g id="patch_12">
    <path d="M 18.07116 194.708458 
L 105.040438 194.708458 
L 105.040438 153.432444 
L 18.07116 153.432444 
z
" clip-path="url(#pc6190915ae)" style="fill: #fef3c7; stroke: #d1d5db; stroke-linejoin: miter"/>
   </g>
   <g id="patch_13">
    <path d="M 105.040438 194.708458 
L 181.138557 194.708458 
L 181.138557 153.432444 
L 105.040438 153.432444 
z
" clip-path="url(#pc6190915ae)" style="fill: #fef3c7; stroke: #d1d5db; stroke-linejoin: miter"/>
   </g>
   <g id="patch_14">
    <path d="M 181.138557 194.708458 
L 300.721314 194.708458 
L 300.721314 153.432444 
L 181.138557 153.432444 
z
" clip-path="url(#pc6190915ae)" style="fill: #fef3c7; stroke: #d1d5db; stroke-linejoin: miter"/>
   </g>
   <g id="patch_15">
    <path d="M 300.721314 194.708458 
L 420.304072 194.708458 
L 420.304072 153.432444 
L 300.721314 153.432444 
z
" clip-path="url(#pc6190915ae)" style="fill: #fef3c7; stroke: #d1d5db; stroke-linejoin: miter"/>
   </g>
   <g id="patch_16">
    <path d="M 420.304072 194.708458 
L 539.88683 194.708458 
L 539.88683 153.432444 
L 420.304072 153.432444 
z
" clip-path="url(#pc6190915ae)" style="fill: #fef3c7; stroke: #d1d5db; stroke-linejoin: miter"/>
   </g>
   <g id="patch_17">
    <path d="M 18.07116 235.984471 
L 105.040438 235.984471 
L 105.040438 194.708458 
L 18.07116 194.708458 
z
" clip-path="url(#pc6190915ae)" style="fill: #fef3c7; stroke: #d1d5db; stroke-linejoin: miter"/>
   </g>
   <g id="patch_18">
    <path d="M 105.040438 235.984471 
L 181.138557 235.984471 
L 181.138557 194.708458 
L 105.040438 194.708458 
z
" clip-path="url(#pc6190915ae)" style="fill: #fef3c7; stroke: #d1d5db; stroke-linejoin: miter"/>
   </g>
   <g id="patch_19">
    <path d="M 181.138557 235.984471 
L 300.721314 235.984471 
L 300.721314 194.708458 
L 181.138557 194.708458 
z
" clip-path="url(#pc6190915ae)" style="fill: #fef3c7; stroke: #d1d5db; stroke-linejoin: miter"/>
   </g>
   <g id="patch_20">
    <path d="M 300.721314 235.984471 
L 420.304072 235.984471 
L 420.304072 194.708458 
L 300.721314 194.708458 
z
" clip-path="url(#pc6190915ae)" style="fill: #fef3c7; stroke: #d1d5db; stroke-linejoin: miter"/>
   </g>
   <g id="patch_21">
    <path d="M 420.304072 235.984471 
L 539.88683 235.984471 
L 539.88683 194.708458 
L 420.304072 194.708458 
z
" clip-path="url(#pc6190915ae)" style="fill: #fef3c7; stroke: #d1d5db; stroke-linejoin: miter"/>
   </g>
   <g id="patch_22">
    <path d="M 18.07116 277.260485 
L 105.040438 277.260485 
L 105.040438 235.984471 
L 18.07116 235.984471 
z
" clip-path="url(#pc6190915ae)" style="fill: #fef3c7; stroke: #d1d5db; stroke-linejoin: miter"/>
   </g>
   <g id="patch_23">
    <path d="M 105.040438 277.260485 
L 181.138557 277.260485 
L 181.138557 235.984471 
L 105.040438 235.984471 
z
" clip-path="url(#pc6190915ae)" style="fill: #fef3c7; stroke: #d1d5db; stroke-linejoin: miter"/>
   </g>
   <g id="patch_24">
    <path d="M 181.138557 277.260485 
L 300.721314 277.260485 
L 300.721314 235.984471 
L 181.138557 235.984471 
z
" clip-path="url(#pc6190915ae)" style="fill: #fef3c7; stroke: #d1d5db; stroke-linejoin: miter"/>
   </g>
   <g id="patch_25">
    <path d="M 300.721314 277.260485 
L 420.304072 277.260485 
L 420.304072 235.984471 
L 300.721314 235.984471 
z
" clip-path="url(#pc6190915ae)" style="fill: #fef3c7; stroke: #d1d5db; stroke-linejoin: miter"/>
   </g>
   <g id="patch_26">
    <path d="M 420.304072 277.260485 
L 539.88683 277.260485 
L 539.88683 235.984471 
L 420.304072 235.984471 
z
" clip-path="url(#pc6190915ae)" style="fill: #fef3c7; stroke: #d1d5db; stroke-linejoin: miter"/>
   </g>
   <g id="patch_27">
    <path d="M 18.07116 318.536499 
L 105.040438 318.536499 
L 105.040438 277.260485 
L 18.07116 277.260485 
z
" clip-path="url(#pc6190915ae)" style="fill: #f3f4f6; stroke: #d1d5db; stroke-linejoin: miter"/>
   </g>
   <g id="patch_28">
    <path d="M 105.040438 318.536499 
L 181.138557 318.536499 
L 181.138557 277.260485 
L 105.040438 277.260485 
z
" clip-path="url(#pc6190915ae)" style="fill: #f3f4f6; stroke: #d1d5db; stroke-linejoin: miter"/>
   </g>
   <g id="patch_29">
    <path d="M 181.138557 318.536499 
L 300.721314 318.536499 
L 300.721314 277.260485 
L 181.138557 277.260485 
z
" clip-path="url(#pc6190915ae)" style="fill: #f3f4f6; stroke: #d1d5db; stroke-linejoin: miter"/>
   </g>
   <g id="patch_30">
    <path d="M 300.721314 318.536499 
L 420.304072 318.536499 
L 420.304072 277.260485 
L 300.721314 277.260485 
z
" clip-path="url(#pc6190915ae)" style="fill: #f3f4f6; stroke: #d1d5db; stroke-linejoin: miter"/>
   </g>
   <g id="patch_31">
    <path d="M 420.304072 318.536499 
L 539.88683 318.536499 
L 539.88683 277.260485 
L 420.304072 277.260485 
z
" clip-path="url(#pc6190915ae)" style="fill: #f3f4f6; stroke: #d1d5db; stroke-linejoin: miter"/>
   </g>
   <g id="patch_32">
    <path d="M 18.07116 359.812513 
L 105.040438 359.812513 
L 105.040438 318.536499 
L 18.07116 318.536499 
z
" clip-path="url(#pc6190915ae)" style="fill: #ffffff; stroke: #d1d5db; stroke-linejoin: miter"/>
   </g>
   <g id="patch_33">
    <path d="M 105.040438 359.812513 
L 181.138557 359.812513 
L 181.138557 318.536499 
L 105.040438 318.536499 
z
" clip-path="url(#pc6190915ae)" style="fill: #ffffff; stroke: #d1d5db; stroke-linejoin: miter"/>
   </g>
   <g id="patch_34">
    <path d="M 181.138557 359.812513 
L 300.721314 359.812513 
L 300.721314 318.536499 
L 181.138557 318.536499 
z
" clip-path="url(#pc6190915ae)" style="fill: #ffffff; stroke: #d1d5db; stroke-linejoin: miter"/>
   </g>
   <g id="patch_35">
    <path d="M 300.721314 359.812513 
L 420.304072 359.812513 
L 420.304072 318.536499 
L 300.721314 318.536499 
z
" clip-path="url(#pc6190915ae)" style="fill: #ffffff; stroke: #d1d5db; stroke-linejoin: miter"/>
   </g>
   <g id="patch_36">
    <path d="M 420.304072 359.812513 
L 539.88683 359.812513 
L 539.88683 318.536499 
L 420.304072 318.536499 
z
" clip-path="url(#pc6190915ae)" style="fill: #ffffff; stroke: #d1d5db; stroke-linejoin: miter"/>
   </g>
   <g id="patch_37">
    <path d="M 18.07116 401.088527 
L 105.040438 401.088527 
L 105.040438 359.812513 
L 18.07116 359.812513 
z
" clip-path="url(#pc6190915ae)" style="fill: #f3f4f6; stroke: #d1d5db; stroke-linejoin: miter"/>
   </g>
   <g id="patch_38">
    <path d="M 105.040438 401.088527 
L 181.138557 401.088527 
L 181.138557 359.812513 
L 105.040438 359.812513 
z
" clip-path="url(#pc6190915ae)" style="fill: #f3f4f6; stroke: #d1d5db; stroke-linejoin: miter"/>
   </g>
   <g id="patch_39">
    <path d="M 181.138557 401.088527 
L 300.721314 401.088527 
L 300.721314 359.812513 
L 181.138557 359.812513 
z
" clip-path="url(#pc6190915ae)" style="fill: #f3f4f6; stroke: #d1d5db; stroke-linejoin: miter"/>
   </g>
   <g id="patch_40">
    <path d="M 300.721314 401.088527 
L 420.304072 401.088527 
L 420.304072 359.812513 
L 300.721314 359.812513 
z
" clip-path="url(#pc6190915ae)" style="fill: #f3f4f6; stroke: #d1d5db; stroke-linejoin: miter"/>
   </g>
   <g id="patch_41">
    <path d="M 420.304072 401.088527 
L 539.88683 401.088527 
L 539.88683 359.812513 
L 420.304072 359.812513 
z
" clip-path="url(#pc6190915ae)" style="fill: #f3f4f6; stroke: #d1d5db; stroke-linejoin: miter"/>
   </g>
   <g id="patch_42">
    <path d="M 18.07116 442.364541 
L 105.040438 442.364541 
L 105.040438 401.088527 
L 18.07116 401.088527 
z
" clip-path="url(#pc6190915ae)" style="fill: #ffffff; stroke: #d1d5db; stroke-linejoin: miter"/>
   </g>
   <g id="patch_43">
    <path d="M 105.040438 442.364541 
L 181.138557 442.364541 
L 181.138557 401.088527 
L 105.040438 401.088527 
z
" clip-path="url(#pc6190915ae)" style="fill: #ffffff; stroke: #d1d5db; stroke-linejoin: miter"/>
   </g>
   <g id="patch_44">
    <path d="M 181.138557 442.364541 
L 300.721314 442.364541 
L 300.721314 401.088527 
L 181.138557 401.088527 
z
" clip-path="url(#pc6190915ae)" style="fill: #ffffff; stroke: #d1d5db; stroke-linejoin: miter"/>
   </g>
   <g id="patch_45">
    <path d="M 300.721314 442.364541 
L 420.304072 442.364541 
L 420.304072 401.088527 
L 300.721314 401.088527 
z
" clip-path="url(#pc6190915ae)" style="fill: #ffffff; stroke: #d1d5db; stroke-linejoin: miter"/>
   </g>
   <g id="patch_46">
    <path d="M 420.304072 442.364541 
L 539.88683 442.364541 
L 539.88683 401.088527 
L 420.304072 401.088527 
z
" clip-path="url(#pc6190915ae)" style="fill: #ffffff; stroke: #d1d5db; stroke-linejoin: miter"/>
   </g>
   <g id="patch_47">
    <path d="M 18.07116 483.640555 
L 105.040438 483.640555 
L 105.040438 442.364541 
L 18.07116 442.364541 
z
" clip-path="url(#pc6190915ae)" style="fill: #f3f4f6; stroke: #d1d5db; stroke-linejoin: miter"/>
   </g>
   <g id="patch_48">
    <path d="M 105.040438 483.640555 
L 181.138557 483.640555 
L 181.138557 442.364541 
L 105.040438 442.364541 
z
" clip-path="url(#pc6190915ae)" style="fill: #f3f4f6; stroke: #d1d5db; stroke-linejoin: miter"/>
   </g>
   <g id="patch_49">
    <path d="M 181.138557 483.640555 
L 300.721314 483.640555 
L 300.721314 442.364541 
L 181.138557 442.364541 
z
" clip-path="url(#pc6190915ae)" style="fill: #f3f4f6; stroke: #d1d5db; stroke-linejoin: miter"/>
   </g>
   <g id="patch_50">
    <path d="M 300.721314 483.640555 
L 420.304072 483.640555 
L 420.304072 442.364541 
L 300.721314 442.364541 
z
" clip-path="url(#pc6190915ae)" style="fill: #f3f4f6; stroke: #d1d5db; stroke-linejoin: miter"/>
   </g>
   <g id="patch_51">
    <path d="M 420.304072 483.640555 
L 539.88683 483.640555 
L 539.88683 442.364541 
L 420.304072 442.364541 
z
" clip-path="url(#pc6190915ae)" style="fill: #f3f4f6; stroke: #d1d5db; stroke-linejoin: miter"/>
   </g>
   <g id="patch_52">
    <path d="M 18.07116 524.916569 
L 105.040438 524.916569 
L 105.040438 483.640555 
L 18.07116 483.640555 
z
" clip-path="url(#pc6190915ae)" style="fill: #ffffff; stroke: #d1d5db; stroke-linejoin: miter"/>
   </g>
   <g id="patch_53">
    <path d="M 105.040438 524.916569 
L 181.138557 524.916569 
L 181.138557 483.640555 
L 105.040438 483.640555 
z
" clip-path="url(#pc6190915ae)" style="fill: #ffffff; stroke: #d1d5db; stroke-linejoin: miter"/>
   </g>
   <g id="patch_54">
    <path d="M 181.138557 524.916569 
L 300.721314 524.916569 
L 300.721314 483.640555 
L 181.138557 483.640555 
z
" clip-path="url(#pc6190915ae)" style="fill: #ffffff; stroke: #d1d5db; stroke-linejoin: miter"/>
   </g>
   <g id="patch_55">
    <path d="M 300.721314 524.916569 
L 420.304072 524.916569 
L 420.304072 483.640555 
L 300.721314 483.640555 
z
" clip-path="url(#pc6190915ae)" style="fill: #ffffff; stroke: #d1d5db; stroke-linejoin: miter"/>
   </g>
   <g id="patch_56">
    <path d="M 420.304072 524.916569 
L 539.88683 524.916569 
L 539.88683 483.640555 
L 420.304072 483.640555 
z
" clip-path="url(#pc6190915ae)" style="fill: #ffffff; stroke: #d1d5db; stroke-linejoin: miter"/>
   </g>
   <g id="patch_57">
    <path d="M 18.07116 566.192583 
L 105.040438 566.192583 
L 105.040438 524.916569 
L 18.07116 524.916569 
z
" clip-path="url(#pc6190915ae)" style="fill: #f3f4f6; stroke: #d1d5db; stroke-linejoin: miter"/>
   </g>
   <g id="patch_58">
    <path d="M 105.040438 566.192583 
L 181.138557 566.192583 
L 181.138557 524.916569 
L 105.040438 524.916569 
z
" clip-path="url(#pc6190915ae)" style="fill: #f3f4f6; stroke: #d1d5db; stroke-linejoin: miter"/>
   </g>
   <g id="patch_59">
    <path d="M 181.138557 566.192583 
L 300.721314 566.192583 
L 300.721314 524.916569 
L 181.138557 524.916569 
z
" clip-path="url(#pc6190915ae)" style="fill: #f3f4f6; stroke: #d1d5db; stroke-linejoin: miter"/>
   </g>
   <g id="patch_60">
    <path d="M 300.721314 566.192583 
L 420.304072 566.192583 
L 420.304072 524.916569 
L 300.721314 524.916569 
z
" clip-path="url(#pc6190915ae)" style="fill: #f3f4f6; stroke: #d1d5db; stroke-linejoin: miter"/>
   </g>
   <g id="patch_61">
    <path d="M 420.304072 566.192583 
L 539.88683 566.192583 
L 539.88683 524.916569 
L 420.304072 524.916569 
z
" clip-path="url(#pc6190915ae)" style="fill: #f3f4f6; stroke: #d1d5db; stroke-linejoin: miter"/>
   </g>
   <g id="text_1">
    <!-- θ (grados) -->
    <g style="fill: #ffffff" transform="translate(37.294861 94.096548) scale(0.1 -0.1)">
     <defs>
      <path id="SegoeUI-Bold-3b8" d="M 1938 -78 
Q 1134 -78 679 564 
Q 225 1206 225 2359 
Q 225 3513 692 4158 
Q 1159 4803 1988 4803 
Q 2800 4803 3244 4165 
Q 3688 3528 3688 2425 
Q 3688 1247 3228 584 
Q 2769 -78 1938 -78 
z
M 2669 2744 
Q 2600 4041 1959 4041 
Q 1322 4041 1241 2744 
L 2669 2744 
z
M 2669 2031 
L 1238 2031 
Q 1303 684 1966 684 
Q 2606 684 2669 2031 
z
" transform="scale(0.015625)"/>
      <path id="SegoeUI-Bold-20" transform="scale(0.015625)"/>
      <path id="SegoeUI-Bold-28" d="M 2309 -1019 
L 1503 -1019 
Q 494 94 494 1716 
Q 494 3281 1503 4481 
L 2303 4481 
Q 1356 3225 1356 1716 
Q 1356 206 2309 -1019 
z
" transform="scale(0.015625)"/>
      <path id="SegoeUI-Bold-67" d="M 3553 366 
Q 3553 -525 3037 -1014 
Q 2522 -1503 1544 -1503 
Q 897 -1503 519 -1319 
L 519 -488 
Q 1013 -775 1516 -775 
Q 2016 -775 2291 -511 
Q 2566 -247 2566 206 
L 2566 459 
L 2553 459 
Q 2216 -78 1556 -78 
Q 944 -78 584 353 
Q 225 784 225 1509 
Q 225 2322 625 2800 
Q 1025 3278 1678 3278 
Q 2263 3278 2553 2828 
L 2566 2828 
L 2566 3200 
L 3553 3200 
L 3553 366 
z
M 2578 1538 
L 2578 1791 
Q 2578 2094 2398 2308 
Q 2219 2522 1931 2522 
Q 1603 2522 1415 2265 
Q 1228 2009 1228 1544 
Q 1228 1144 1406 911 
Q 1584 678 1894 678 
Q 2200 678 2389 914 
Q 2578 1150 2578 1538 
z
" transform="scale(0.015625)"/>
      <path id="SegoeUI-Bold-72" d="M 2503 2309 
Q 2325 2406 2088 2406 
Q 1766 2406 1584 2170 
Q 1403 1934 1403 1528 
L 1403 0 
L 416 0 
L 416 3200 
L 1403 3200 
L 1403 2606 
L 1416 2606 
Q 1650 3256 2259 3256 
Q 2416 3256 2503 3219 
L 2503 2309 
z
" transform="scale(0.015625)"/>
      <path id="SegoeUI-Bold-61" d="M 3078 0 
L 2144 0 
L 2144 459 
L 2131 459 
Q 1809 -78 1178 -78 
Q 713 -78 445 186 
Q 178 450 178 891 
Q 178 1822 1281 1966 
L 2150 2081 
Q 2150 2606 1581 2606 
Q 1009 2606 494 2266 
L 494 3009 
Q 700 3116 1058 3197 
Q 1416 3278 1709 3278 
Q 3078 3278 3078 1913 
L 3078 0 
z
M 2150 1300 
L 2150 1516 
L 1569 1441 
Q 1088 1378 1088 1006 
Q 1088 838 1205 730 
Q 1322 622 1522 622 
Q 1800 622 1975 814 
Q 2150 1006 2150 1300 
z
" transform="scale(0.015625)"/>
      <path id="SegoeUI-Bold-64" d="M 3547 0 
L 2559 0 
L 2559 441 
L 2547 441 
Q 2209 -78 1556 -78 
Q 956 -78 590 345 
Q 225 769 225 1528 
Q 225 2322 628 2800 
Q 1031 3278 1684 3278 
Q 2303 3278 2547 2834 
L 2559 2834 
L 2559 4738 
L 3547 4738 
L 3547 0 
z
M 2578 1556 
L 2578 1797 
Q 2578 2109 2397 2315 
Q 2216 2522 1925 2522 
Q 1597 2522 1412 2264 
Q 1228 2006 1228 1556 
Q 1228 1134 1406 906 
Q 1584 678 1900 678 
Q 2200 678 2389 918 
Q 2578 1159 2578 1556 
z
" transform="scale(0.015625)"/>
      <path id="SegoeUI-Bold-6f" d="M 1941 -78 
Q 1141 -78 683 370 
Q 225 819 225 1588 
Q 225 2381 700 2829 
Q 1175 3278 1984 3278 
Q 2781 3278 3234 2829 
Q 3688 2381 3688 1644 
Q 3688 847 3220 384 
Q 2753 -78 1941 -78 
z
M 1966 2522 
Q 1616 2522 1422 2281 
Q 1228 2041 1228 1600 
Q 1228 678 1972 678 
Q 2681 678 2681 1625 
Q 2681 2522 1966 2522 
z
" transform="scale(0.015625)"/>
      <path id="SegoeUI-Bold-73" d="M 206 84 
L 206 884 
Q 450 738 692 666 
Q 934 594 1150 594 
Q 1413 594 1564 666 
Q 1716 738 1716 884 
Q 1716 978 1647 1040 
Q 1578 1103 1470 1150 
Q 1363 1197 1234 1234 
Q 1106 1272 988 1319 
Q 797 1391 651 1473 
Q 506 1556 407 1665 
Q 309 1775 257 1919 
Q 206 2063 206 2259 
Q 206 2528 323 2722 
Q 441 2916 636 3039 
Q 831 3163 1082 3220 
Q 1334 3278 1606 3278 
Q 1819 3278 2037 3245 
Q 2256 3213 2469 3150 
L 2469 2388 
Q 2281 2497 2067 2551 
Q 1853 2606 1647 2606 
Q 1550 2606 1464 2589 
Q 1378 2572 1312 2539 
Q 1247 2506 1209 2454 
Q 1172 2403 1172 2338 
Q 1172 2250 1228 2187 
Q 1284 2125 1375 2079 
Q 1466 2034 1577 1998 
Q 1688 1963 1797 1925 
Q 1994 1856 2153 1775 
Q 2313 1694 2427 1584 
Q 2541 1475 2602 1328 
Q 2663 1181 2663 978 
Q 2663 694 2539 492 
Q 2416 291 2211 164 
Q 2006 38 1739 -20 
Q 1472 -78 1184 -78 
Q 656 -78 206 84 
z
" transform="scale(0.015625)"/>
      <path id="SegoeUI-Bold-29" d="M 856 -1019 
L 56 -1019 
Q 1013 200 1013 1716 
Q 1013 3219 56 4481 
L 863 4481 
Q 1875 3278 1875 1716 
Q 1875 106 856 -1019 
z
" transform="scale(0.015625)"/>
     </defs>
     <use xlink:href="#SegoeUI-Bold-3b8"/>
     <use xlink:href="#SegoeUI-Bold-20" x="61.181641"/>
     <use xlink:href="#SegoeUI-Bold-28" x="88.769531"/>
     <use xlink:href="#SegoeUI-Bold-67" x="125.683594"/>
     <use xlink:href="#SegoeUI-Bold-72" x="187.597656"/>
     <use xlink:href="#SegoeUI-Bold-61" x="227.392578"/>
     <use xlink:href="#SegoeUI-Bold-64" x="281.201172"/>
     <use xlink:href="#SegoeUI-Bold-6f" x="343.115234"/>
     <use xlink:href="#SegoeUI-Bold-73" x="404.248047"/>
     <use xlink:href="#SegoeUI-Bold-29" x="448.242188"/>
    </g>
   </g>
   <g id="text_2">
    <!-- θ (rad) -->
    <g style="fill: #ffffff" transform="translate(127.181685 94.069985) scale(0.1 -0.1)">
     <use xlink:href="#SegoeUI-Bold-3b8"/>
     <use xlink:href="#SegoeUI-Bold-20" x="61.181641"/>
     <use xlink:href="#SegoeUI-Bold-28" x="88.769531"/>
     <use xlink:href="#SegoeUI-Bold-72" x="125.683594"/>
     <use xlink:href="#SegoeUI-Bold-61" x="165.478516"/>
     <use xlink:href="#SegoeUI-Bold-64" x="219.287109"/>
     <use xlink:href="#SegoeUI-Bold-29" x="281.201172"/>
    </g>
   </g>
   <g id="text_3">
    <!-- sin θ -->
    <g style="fill: #ffffff" transform="translate(229.844779 94.069985) scale(0.1 -0.1)">
     <defs>
      <path id="SegoeUI-Bold-69" d="M 916 3706 
Q 666 3706 506 3854 
Q 347 4003 347 4219 
Q 347 4441 506 4581 
Q 666 4722 916 4722 
Q 1169 4722 1326 4581 
Q 1484 4441 1484 4219 
Q 1484 3994 1326 3850 
Q 1169 3706 916 3706 
z
M 1403 0 
L 416 0 
L 416 3200 
L 1403 3200 
L 1403 0 
z
" transform="scale(0.015625)"/>
      <path id="SegoeUI-Bold-6e" d="M 3506 0 
L 2522 0 
L 2522 1778 
Q 2522 2522 1991 2522 
Q 1734 2522 1568 2325 
Q 1403 2128 1403 1825 
L 1403 0 
L 416 0 
L 416 3200 
L 1403 3200 
L 1403 2694 
L 1416 2694 
Q 1769 3278 2444 3278 
Q 3506 3278 3506 1959 
L 3506 0 
z
" transform="scale(0.015625)"/>
     </defs>
     <use xlink:href="#SegoeUI-Bold-73"/>
     <use xlink:href="#SegoeUI-Bold-69" x="43.994141"/>
     <use xlink:href="#SegoeUI-Bold-6e" x="72.412109"/>
     <use xlink:href="#SegoeUI-Bold-20" x="132.910156"/>
     <use xlink:href="#SegoeUI-Bold-3b8" x="160.498047"/>
    </g>
   </g>
   <g id="text_4">
    <!-- cos θ -->
    <g style="fill: #ffffff" transform="translate(348.416599 94.069985) scale(0.1 -0.1)">
     <defs>
      <path id="SegoeUI-Bold-63" d="M 2841 116 
Q 2506 -78 1875 -78 
Q 1138 -78 681 369 
Q 225 816 225 1522 
Q 225 2338 714 2808 
Q 1203 3278 2022 3278 
Q 2588 3278 2841 3128 
L 2841 2291 
Q 2531 2522 2150 2522 
Q 1725 2522 1476 2273 
Q 1228 2025 1228 1588 
Q 1228 1163 1465 920 
Q 1703 678 2119 678 
Q 2488 678 2841 909 
L 2841 116 
z
" transform="scale(0.015625)"/>
     </defs>
     <use xlink:href="#SegoeUI-Bold-63"/>
     <use xlink:href="#SegoeUI-Bold-6f" x="47.998047"/>
     <use xlink:href="#SegoeUI-Bold-73" x="109.130859"/>
     <use xlink:href="#SegoeUI-Bold-20" x="153.125"/>
     <use xlink:href="#SegoeUI-Bold-3b8" x="180.712891"/>
    </g>
   </g>
   <g id="text_5">
    <!-- tan θ -->
    <g style="fill: #ffffff" transform="translate(467.99467 94.069985) scale(0.1 -0.1)">
     <defs>
      <path id="SegoeUI-Bold-74" d="M 2350 38 
Q 2131 -78 1691 -78 
Q 647 -78 647 1006 
L 647 2472 
L 128 2472 
L 128 3200 
L 647 3200 
L 647 3891 
L 1631 4172 
L 1631 3200 
L 2350 3200 
L 2350 2472 
L 1631 2472 
L 1631 1178 
Q 1631 678 2028 678 
Q 2184 678 2350 769 
L 2350 38 
z
" transform="scale(0.015625)"/>
     </defs>
     <use xlink:href="#SegoeUI-Bold-74"/>
     <use xlink:href="#SegoeUI-Bold-61" x="38.916016"/>
     <use xlink:href="#SegoeUI-Bold-6e" x="92.724609"/>
     <use xlink:href="#SegoeUI-Bold-20" x="153.222656"/>
     <use xlink:href="#SegoeUI-Bold-3b8" x="180.810547"/>
    </g>
   </g>
   <g id="text_6">
    <!-- 0° -->
    <g style="fill: #374151" transform="translate(57.433377 135.090843) scale(0.09 -0.09)">
     <defs>
      <path id="SegoeUI-30" d="M 3188 2259 
Q 3188 1697 3086 1262 
Q 2984 828 2792 529 
Q 2600 231 2320 76 
Q 2041 -78 1684 -78 
Q 1347 -78 1083 70 
Q 819 219 637 503 
Q 456 788 362 1202 
Q 269 1616 269 2150 
Q 269 2738 367 3188 
Q 466 3638 656 3942 
Q 847 4247 1130 4401 
Q 1413 4556 1778 4556 
Q 3188 4556 3188 2259 
z
M 2663 2209 
Q 2663 4122 1753 4122 
Q 794 4122 794 2175 
Q 794 359 1734 359 
Q 2663 359 2663 2209 
z
" transform="scale(0.015625)"/>
      <path id="SegoeUI-b0" d="M 1203 2803 
Q 844 2803 591 3058 
Q 338 3313 338 3675 
Q 338 4034 588 4282 
Q 838 4531 1197 4531 
Q 1559 4531 1814 4281 
Q 2069 4031 2069 3675 
Q 2069 3313 1816 3058 
Q 1563 2803 1203 2803 
z
M 1203 4166 
Q 1000 4166 856 4022 
Q 713 3878 713 3675 
Q 713 3466 853 3317 
Q 994 3169 1197 3169 
Q 1400 3169 1547 3319 
Q 1694 3469 1694 3675 
Q 1694 3881 1550 4023 
Q 1406 4166 1203 4166 
z
" transform="scale(0.015625)"/>
     </defs>
     <use xlink:href="#SegoeUI-30"/>
     <use xlink:href="#SegoeUI-b0" x="53.90625"/>
    </g>
   </g>
   <g id="text_7">
    <!-- 0 -->
    <g style="fill: #374151" transform="translate(140.663716 135.090843) scale(0.09 -0.09)">
     <use xlink:href="#SegoeUI-30"/>
    </g>
   </g>
   <g id="text_8">
    <!-- 0 -->
    <g style="fill: #374151" transform="translate(238.504154 135.090843) scale(0.09 -0.09)">
     <use xlink:href="#SegoeUI-30"/>
    </g>
   </g>
   <g id="text_9">
    <!-- 1 -->
    <g style="fill: #374151" transform="translate(358.086912 135.090843) scale(0.09 -0.09)">
     <defs>
      <path id="SegoeUI-31" d="M 2263 0 
L 1750 0 
L 1750 3872 
Q 1691 3813 1577 3736 
Q 1463 3659 1320 3584 
Q 1178 3509 1020 3443 
Q 863 3378 713 3341 
L 713 3859 
Q 881 3906 1070 3986 
Q 1259 4066 1442 4164 
Q 1625 4263 1787 4370 
Q 1950 4478 2069 4581 
L 2263 4581 
L 2263 0 
z
" transform="scale(0.015625)"/>
     </defs>
     <use xlink:href="#SegoeUI-31"/>
    </g>
   </g>
   <g id="text_10">
    <!-- 0 -->
    <g style="fill: #374151" transform="translate(477.66967 135.090843) scale(0.09 -0.09)">
     <use xlink:href="#SegoeUI-30"/>
    </g>
   </g>
   <g id="text_11">
    <!-- 30° -->
    <g style="fill: #374151" transform="translate(55.007596 176.366857) scale(0.09 -0.09)">
     <defs>
      <path id="SegoeUI-33" d="M 2978 1269 
Q 2978 966 2864 717 
Q 2750 469 2542 292 
Q 2334 116 2043 19 
Q 1753 -78 1403 -78 
Q 763 -78 384 166 
L 384 716 
Q 838 359 1422 359 
Q 1656 359 1845 418 
Q 2034 478 2170 590 
Q 2306 703 2379 862 
Q 2453 1022 2453 1222 
Q 2453 2100 1203 2100 
L 831 2100 
L 831 2534 
L 1184 2534 
Q 2291 2534 2291 3359 
Q 2291 4122 1447 4122 
Q 972 4122 556 3803 
L 556 4300 
Q 984 4556 1575 4556 
Q 1856 4556 2084 4478 
Q 2313 4400 2475 4259 
Q 2638 4119 2727 3922 
Q 2816 3725 2816 3488 
Q 2816 2603 1922 2350 
L 1922 2338 
Q 2150 2313 2344 2227 
Q 2538 2141 2678 2003 
Q 2819 1866 2898 1680 
Q 2978 1494 2978 1269 
z
" transform="scale(0.015625)"/>
     </defs>
     <use xlink:href="#SegoeUI-33"/>
     <use xlink:href="#SegoeUI-30" x="53.90625"/>
     <use xlink:href="#SegoeUI-b0" x="107.8125"/>
    </g>
   </g>
   <g id="text_12">
    <!-- π/6 -->
    <g style="fill: #374151" transform="translate(136.088482 176.366857) scale(0.09 -0.09)">
     <defs>
      <path id="SegoeUI-3c0" d="M 3747 2784 
L 3053 2784 
L 3053 850 
Q 3053 413 3369 413 
Q 3475 413 3644 472 
L 3644 34 
Q 3453 -38 3263 -38 
Q 2538 -38 2538 828 
L 2538 2784 
L 1322 2784 
L 1322 875 
Q 1322 275 1222 0 
L 700 0 
Q 813 272 813 875 
L 813 2784 
Q 428 2775 53 2506 
L 53 2975 
Q 288 3200 819 3200 
L 3747 3200 
L 3747 2784 
z
" transform="scale(0.015625)"/>
      <path id="SegoeUI-2f" d="M 2541 4481 
L 391 -744 
L -88 -744 
L 2056 4481 
L 2541 4481 
z
" transform="scale(0.015625)"/>
      <path id="SegoeUI-36" d="M 3194 1422 
Q 3194 1094 3087 819 
Q 2981 544 2793 344 
Q 2606 144 2347 33 
Q 2088 -78 1784 -78 
Q 1447 -78 1180 62 
Q 913 203 727 467 
Q 541 731 444 1112 
Q 347 1494 347 1972 
Q 347 2556 476 3032 
Q 606 3509 845 3848 
Q 1084 4188 1421 4372 
Q 1759 4556 2175 4556 
Q 2638 4556 2919 4428 
L 2919 3944 
Q 2572 4122 2188 4122 
Q 1888 4122 1647 3987 
Q 1406 3853 1234 3608 
Q 1063 3363 970 3016 
Q 878 2669 878 2244 
L 891 2244 
Q 1200 2803 1913 2803 
Q 2206 2803 2442 2703 
Q 2678 2603 2845 2420 
Q 3013 2238 3103 1984 
Q 3194 1731 3194 1422 
z
M 2669 1356 
Q 2669 1591 2609 1778 
Q 2550 1966 2439 2097 
Q 2328 2228 2165 2298 
Q 2003 2369 1797 2369 
Q 1606 2369 1443 2297 
Q 1281 2225 1162 2101 
Q 1044 1978 976 1814 
Q 909 1650 909 1466 
Q 909 1234 975 1032 
Q 1041 831 1159 681 
Q 1278 531 1442 445 
Q 1606 359 1806 359 
Q 2000 359 2159 432 
Q 2319 506 2431 637 
Q 2544 769 2606 951 
Q 2669 1134 2669 1356 
z
" transform="scale(0.015625)"/>
     </defs>
     <use xlink:href="#SegoeUI-3c0"/>
     <use xlink:href="#SegoeUI-2f" x="62.695312"/>
     <use xlink:href="#SegoeUI-36" x="101.660156"/>
    </g>
   </g>
   <g id="text_13">
    <!-- 1/2 -->
    <g style="fill: #374151" transform="translate(234.324779 176.366857) scale(0.09 -0.09)">
     <defs>
      <path id="SegoeUI-32" d="M 2413 3306 
Q 2413 3513 2348 3666 
Q 2284 3819 2173 3920 
Q 2063 4022 1913 4072 
Q 1763 4122 1588 4122 
Q 1438 4122 1294 4081 
Q 1150 4041 1014 3969 
Q 878 3897 751 3797 
Q 625 3697 516 3575 
L 516 4125 
Q 731 4334 998 4445 
Q 1266 4556 1650 4556 
Q 1925 4556 2159 4476 
Q 2394 4397 2566 4244 
Q 2738 4091 2836 3866 
Q 2934 3641 2934 3350 
Q 2934 3084 2873 2868 
Q 2813 2653 2689 2462 
Q 2566 2272 2378 2097 
Q 2191 1922 1938 1741 
Q 1622 1516 1417 1356 
Q 1213 1197 1092 1058 
Q 972 919 923 780 
Q 875 641 875 459 
L 3106 459 
L 3106 0 
L 341 0 
L 341 222 
Q 341 509 403 728 
Q 466 947 609 1144 
Q 753 1341 986 1537 
Q 1219 1734 1556 1981 
Q 1800 2156 1964 2315 
Q 2128 2475 2228 2634 
Q 2328 2794 2370 2958 
Q 2413 3122 2413 3306 
z
" transform="scale(0.015625)"/>
     </defs>
     <use xlink:href="#SegoeUI-31"/>
     <use xlink:href="#SegoeUI-2f" x="53.90625"/>
     <use xlink:href="#SegoeUI-32" x="92.871094"/>
    </g>
   </g>
   <g id="text_14">
    <!-- √3/2 -->
    <g style="fill: #374151" transform="translate(350.98324 176.366857) scale(0.09 -0.09)">
     <defs>
      <path id="SegoeUI-221a" d="M 3481 4738 
L 2266 0 
L 1913 0 
L 916 2344 
L 384 2344 
L 384 2719 
L 1209 2719 
L 2069 653 
L 3113 4738 
L 3481 4738 
z
" transform="scale(0.015625)"/>
     </defs>
     <use xlink:href="#SegoeUI-221a"/>
     <use xlink:href="#SegoeUI-33" x="64.990234"/>
     <use xlink:href="#SegoeUI-2f" x="118.896484"/>
     <use xlink:href="#SegoeUI-32" x="157.861328"/>
    </g>
   </g>
   <g id="text_15">
    <!-- √3/3 -->
    <g style="fill: #374151" transform="translate(470.565998 176.366857) scale(0.09 -0.09)">
     <use xlink:href="#SegoeUI-221a"/>
     <use xlink:href="#SegoeUI-33" x="64.990234"/>
     <use xlink:href="#SegoeUI-2f" x="118.896484"/>
     <use xlink:href="#SegoeUI-33" x="157.861328"/>
    </g>
   </g>
   <g id="text_16">
    <!-- 45° -->
    <g style="fill: #374151" transform="translate(55.007596 217.642871) scale(0.09 -0.09)">
     <defs>
      <path id="SegoeUI-34" d="M 2656 4481 
L 2656 1522 
L 3231 1522 
L 3231 1053 
L 2656 1053 
L 2656 0 
L 2150 0 
L 2150 1053 
L 44 1053 
L 44 1497 
Q 338 1828 638 2204 
Q 938 2581 1211 2968 
Q 1484 3356 1717 3742 
Q 1950 4128 2109 4481 
L 2656 4481 
z
M 622 1522 
L 2150 1522 
L 2150 3716 
Q 1916 3306 1706 2984 
Q 1497 2663 1308 2400 
Q 1119 2138 947 1925 
Q 775 1713 622 1522 
z
" transform="scale(0.015625)"/>
      <path id="SegoeUI-35" d="M 3028 1369 
Q 3028 1041 2915 775 
Q 2803 509 2595 318 
Q 2388 128 2094 25 
Q 1800 -78 1441 -78 
Q 816 -78 513 109 
L 513 653 
Q 969 359 1447 359 
Q 1691 359 1886 431 
Q 2081 503 2218 631 
Q 2356 759 2429 940 
Q 2503 1122 2503 1338 
Q 2503 1775 2209 2023 
Q 1916 2272 1356 2272 
Q 1266 2272 1166 2269 
Q 1066 2266 966 2261 
Q 866 2256 770 2250 
Q 675 2244 597 2234 
L 750 4481 
L 2822 4481 
L 2822 4019 
L 1194 4019 
L 1103 2703 
Q 1203 2709 1315 2714 
Q 1428 2719 1516 2719 
Q 1872 2719 2153 2625 
Q 2434 2531 2629 2357 
Q 2825 2184 2926 1932 
Q 3028 1681 3028 1369 
z
" transform="scale(0.015625)"/>
     </defs>
     <use xlink:href="#SegoeUI-34"/>
     <use xlink:href="#SegoeUI-35" x="53.90625"/>
     <use xlink:href="#SegoeUI-b0" x="107.8125"/>
    </g>
   </g>
   <g id="text_17">
    <!-- π/4 -->
    <g style="fill: #374151" transform="translate(136.088482 217.642871) scale(0.09 -0.09)">
     <use xlink:href="#SegoeUI-3c0"/>
     <use xlink:href="#SegoeUI-2f" x="62.695312"/>
     <use xlink:href="#SegoeUI-34" x="101.660156"/>
    </g>
   </g>
   <g id="text_18">
    <!-- √2/2 -->
    <g style="fill: #374151" transform="translate(231.400482 217.642871) scale(0.09 -0.09)">
     <use xlink:href="#SegoeUI-221a"/>
     <use xlink:href="#SegoeUI-32" x="64.990234"/>
     <use xlink:href="#SegoeUI-2f" x="118.896484"/>
     <use xlink:href="#SegoeUI-32" x="157.861328"/>
    </g>
   </g>
   <g id="text_19">
    <!-- √2/2 -->
    <g style="fill: #374151" transform="translate(350.98324 217.642871) scale(0.09 -0.09)">
     <use xlink:href="#SegoeUI-221a"/>
     <use xlink:href="#SegoeUI-32" x="64.990234"/>
     <use xlink:href="#SegoeUI-2f" x="118.896484"/>
     <use xlink:href="#SegoeUI-32" x="157.861328"/>
    </g>
   </g>
   <g id="text_20">
    <!-- 1 -->
    <g style="fill: #374151" transform="translate(477.66967 217.642871) scale(0.09 -0.09)">
     <use xlink:href="#SegoeUI-31"/>
    </g>
   </g>
   <g id="text_21">
    <!-- 60° -->
    <g style="fill: #374151" transform="translate(55.007596 258.918885) scale(0.09 -0.09)">
     <use xlink:href="#SegoeUI-36"/>
     <use xlink:href="#SegoeUI-30" x="53.90625"/>
     <use xlink:href="#SegoeUI-b0" x="107.8125"/>
    </g>
   </g>
   <g id="text_22">
    <!-- π/3 -->
    <g style="fill: #374151" transform="translate(136.088482 258.918885) scale(0.09 -0.09)">
     <use xlink:href="#SegoeUI-3c0"/>
     <use xlink:href="#SegoeUI-2f" x="62.695312"/>
     <use xlink:href="#SegoeUI-33" x="101.660156"/>
    </g>
   </g>
   <g id="text_23">
    <!-- √3/2 -->
    <g style="fill: #374151" transform="translate(231.400482 258.918885) scale(0.09 -0.09)">
     <use xlink:href="#SegoeUI-221a"/>
     <use xlink:href="#SegoeUI-33" x="64.990234"/>
     <use xlink:href="#SegoeUI-2f" x="118.896484"/>
     <use xlink:href="#SegoeUI-32" x="157.861328"/>
    </g>
   </g>
   <g id="text_24">
    <!-- 1/2 -->
    <g style="fill: #374151" transform="translate(353.907537 258.918885) scale(0.09 -0.09)">
     <use xlink:href="#SegoeUI-31"/>
     <use xlink:href="#SegoeUI-2f" x="53.90625"/>
     <use xlink:href="#SegoeUI-32" x="92.871094"/>
    </g>
   </g>
   <g id="text_25">
    <!-- √3 -->
    <g style="fill: #374151" transform="translate(474.745373 258.918885) scale(0.09 -0.09)">
     <use xlink:href="#SegoeUI-221a"/>
     <use xlink:href="#SegoeUI-33" x="64.990234"/>
    </g>
   </g>
   <g id="text_26">
    <!-- 90° -->
    <g style="fill: #374151" transform="translate(55.007596 300.194899) scale(0.09 -0.09)">
     <defs>
      <path id="SegoeUI-39" d="M 3138 2509 
Q 3138 1894 3016 1414 
Q 2894 934 2659 601 
Q 2425 269 2087 95 
Q 1750 -78 1319 -78 
Q 875 -78 538 78 
L 538 569 
Q 909 359 1331 359 
Q 1634 359 1873 484 
Q 2113 609 2278 848 
Q 2444 1088 2531 1438 
Q 2619 1788 2619 2241 
L 2606 2241 
Q 2319 1663 1606 1663 
Q 1319 1663 1078 1764 
Q 838 1866 663 2052 
Q 488 2238 391 2494 
Q 294 2750 294 3059 
Q 294 3391 401 3666 
Q 509 3941 701 4139 
Q 894 4338 1158 4447 
Q 1422 4556 1734 4556 
Q 2072 4556 2333 4420 
Q 2594 4284 2772 4023 
Q 2950 3763 3044 3381 
Q 3138 3000 3138 2509 
z
M 2584 2969 
Q 2584 3228 2517 3440 
Q 2450 3653 2331 3804 
Q 2213 3956 2048 4039 
Q 1884 4122 1691 4122 
Q 1506 4122 1347 4048 
Q 1188 3975 1070 3842 
Q 953 3709 886 3526 
Q 819 3344 819 3128 
Q 819 2891 883 2703 
Q 947 2516 1065 2386 
Q 1184 2256 1351 2187 
Q 1519 2119 1722 2119 
Q 1900 2119 2058 2186 
Q 2216 2253 2333 2367 
Q 2450 2481 2517 2636 
Q 2584 2791 2584 2969 
z
" transform="scale(0.015625)"/>
     </defs>
     <use xlink:href="#SegoeUI-39"/>
     <use xlink:href="#SegoeUI-30" x="53.90625"/>
     <use xlink:href="#SegoeUI-b0" x="107.8125"/>
    </g>
   </g>
   <g id="text_27">
    <!-- π/2 -->
    <g style="fill: #374151" transform="translate(136.088482 300.194899) scale(0.09 -0.09)">
     <use xlink:href="#SegoeUI-3c0"/>
     <use xlink:href="#SegoeUI-2f" x="62.695312"/>
     <use xlink:href="#SegoeUI-32" x="101.660156"/>
    </g>
   </g>
   <g id="text_28">
    <!-- 1 -->
    <g style="fill: #374151" transform="translate(238.504154 300.194899) scale(0.09 -0.09)">
     <use xlink:href="#SegoeUI-31"/>
    </g>
   </g>
   <g id="text_29">
    <!-- 0 -->
    <g style="fill: #374151" transform="translate(358.086912 300.194899) scale(0.09 -0.09)">
     <use xlink:href="#SegoeUI-30"/>
    </g>
   </g>
   <g id="text_30">
    <!-- ∞ -->
    <g style="fill: #dc2626" transform="translate(476.419513 300.194899) scale(0.09 -0.09)">
     <defs>
      <path id="SegoeUI-221e" d="M 2613 1506 
Q 2088 647 1419 647 
Q 903 647 579 980 
Q 256 1313 256 1850 
Q 256 2356 593 2717 
Q 931 3078 1419 3078 
Q 2156 3078 2625 2225 
Q 3138 3078 3813 3078 
Q 4331 3078 4656 2745 
Q 4981 2413 4981 1875 
Q 4981 1372 4643 1009 
Q 4306 647 3813 647 
Q 3106 647 2613 1506 
z
M 2816 1863 
Q 3225 1050 3813 1050 
Q 4153 1050 4358 1276 
Q 4563 1503 4563 1875 
Q 4563 2225 4350 2456 
Q 4138 2688 3813 2688 
Q 3272 2688 2816 1863 
z
M 2419 1869 
Q 2006 2688 1419 2688 
Q 1075 2688 870 2453 
Q 666 2219 666 1850 
Q 666 1506 877 1278 
Q 1088 1050 1419 1050 
Q 1969 1050 2419 1869 
z
" transform="scale(0.015625)"/>
     </defs>
     <use xlink:href="#SegoeUI-221e"/>
    </g>
   </g>
   <g id="text_31">
    <!-- 120° -->
    <g style="fill: #374151" transform="translate(52.581815 341.470913) scale(0.09 -0.09)">
     <use xlink:href="#SegoeUI-31"/>
     <use xlink:href="#SegoeUI-32" x="53.90625"/>
     <use xlink:href="#SegoeUI-30" x="107.8125"/>
     <use xlink:href="#SegoeUI-b0" x="161.71875"/>
    </g>
   </g>
   <g id="text_32">
    <!-- 2π/3 -->
    <g style="fill: #374151" transform="translate(133.662701 341.470913) scale(0.09 -0.09)">
     <use xlink:href="#SegoeUI-32"/>
     <use xlink:href="#SegoeUI-3c0" x="53.90625"/>
     <use xlink:href="#SegoeUI-2f" x="116.601562"/>
     <use xlink:href="#SegoeUI-33" x="155.566406"/>
    </g>
   </g>
   <g id="text_33">
    <!-- √3/2 -->
    <g style="fill: #374151" transform="translate(231.400482 341.470913) scale(0.09 -0.09)">
     <use xlink:href="#SegoeUI-221a"/>
     <use xlink:href="#SegoeUI-33" x="64.990234"/>
     <use xlink:href="#SegoeUI-2f" x="118.896484"/>
     <use xlink:href="#SegoeUI-32" x="157.861328"/>
    </g>
   </g>
   <g id="text_34">
    <!-- −1/2 -->
    <g style="fill: #dc2626" transform="translate(350.829256 341.470913) scale(0.09 -0.09)">
     <defs>
      <path id="SegoeUI-2212" d="M 3663 1656 
L 725 1656 
L 725 2075 
L 3663 2075 
L 3663 1656 
z
" transform="scale(0.015625)"/>
     </defs>
     <use xlink:href="#SegoeUI-2212"/>
     <use xlink:href="#SegoeUI-31" x="68.408203"/>
     <use xlink:href="#SegoeUI-2f" x="122.314453"/>
     <use xlink:href="#SegoeUI-32" x="161.279297"/>
    </g>
   </g>
   <g id="text_35">
    <!-- −√3 -->
    <g style="fill: #dc2626" transform="translate(471.667092 341.470913) scale(0.09 -0.09)">
     <use xlink:href="#SegoeUI-2212"/>
     <use xlink:href="#SegoeUI-221a" x="68.408203"/>
     <use xlink:href="#SegoeUI-33" x="133.398438"/>
    </g>
   </g>
   <g id="text_36">
    <!-- 135° -->
    <g style="fill: #374151" transform="translate(52.581815 382.746926) scale(0.09 -0.09)">
     <use xlink:href="#SegoeUI-31"/>
     <use xlink:href="#SegoeUI-33" x="53.90625"/>
     <use xlink:href="#SegoeUI-35" x="107.8125"/>
     <use xlink:href="#SegoeUI-b0" x="161.71875"/>
    </g>
   </g>
   <g id="text_37">
    <!-- 3π/4 -->
    <g style="fill: #374151" transform="translate(133.662701 382.746926) scale(0.09 -0.09)">
     <use xlink:href="#SegoeUI-33"/>
     <use xlink:href="#SegoeUI-3c0" x="53.90625"/>
     <use xlink:href="#SegoeUI-2f" x="116.601562"/>
     <use xlink:href="#SegoeUI-34" x="155.566406"/>
    </g>
   </g>
   <g id="text_38">
    <!-- √2/2 -->
    <g style="fill: #374151" transform="translate(231.400482 382.746926) scale(0.09 -0.09)">
     <use xlink:href="#SegoeUI-221a"/>
     <use xlink:href="#SegoeUI-32" x="64.990234"/>
     <use xlink:href="#SegoeUI-2f" x="118.896484"/>
     <use xlink:href="#SegoeUI-32" x="157.861328"/>
    </g>
   </g>
   <g id="text_39">
    <!-- −√2/2 -->
    <g style="fill: #dc2626" transform="translate(347.904959 382.746926) scale(0.09 -0.09)">
     <use xlink:href="#SegoeUI-2212"/>
     <use xlink:href="#SegoeUI-221a" x="68.408203"/>
     <use xlink:href="#SegoeUI-32" x="133.398438"/>
     <use xlink:href="#SegoeUI-2f" x="187.304688"/>
     <use xlink:href="#SegoeUI-32" x="226.269531"/>
    </g>
   </g>
   <g id="text_40">
    <!-- −1 -->
    <g style="fill: #dc2626" transform="translate(474.591388 382.746926) scale(0.09 -0.09)">
     <use xlink:href="#SegoeUI-2212"/>
     <use xlink:href="#SegoeUI-31" x="68.408203"/>
    </g>
   </g>
   <g id="text_41">
    <!-- 150° -->
    <g style="fill: #374151" transform="translate(52.581815 424.02294) scale(0.09 -0.09)">
     <use xlink:href="#SegoeUI-31"/>
     <use xlink:href="#SegoeUI-35" x="53.90625"/>
     <use xlink:href="#SegoeUI-30" x="107.8125"/>
     <use xlink:href="#SegoeUI-b0" x="161.71875"/>
    </g>
   </g>
   <g id="text_42">
    <!-- 5π/6 -->
    <g style="fill: #374151" transform="translate(133.662701 424.02294) scale(0.09 -0.09)">
     <use xlink:href="#SegoeUI-35"/>
     <use xlink:href="#SegoeUI-3c0" x="53.90625"/>
     <use xlink:href="#SegoeUI-2f" x="116.601562"/>
     <use xlink:href="#SegoeUI-36" x="155.566406"/>
    </g>
   </g>
   <g id="text_43">
    <!-- 1/2 -->
    <g style="fill: #374151" transform="translate(234.324779 424.02294) scale(0.09 -0.09)">
     <use xlink:href="#SegoeUI-31"/>
     <use xlink:href="#SegoeUI-2f" x="53.90625"/>
     <use xlink:href="#SegoeUI-32" x="92.871094"/>
    </g>
   </g>
   <g id="text_44">
    <!-- −√3/2 -->
    <g style="fill: #dc2626" transform="translate(347.904959 424.02294) scale(0.09 -0.09)">
     <use xlink:href="#SegoeUI-2212"/>
     <use xlink:href="#SegoeUI-221a" x="68.408203"/>
     <use xlink:href="#SegoeUI-33" x="133.398438"/>
     <use xlink:href="#SegoeUI-2f" x="187.304688"/>
     <use xlink:href="#SegoeUI-32" x="226.269531"/>
    </g>
   </g>
   <g id="text_45">
    <!-- −√3/3 -->
    <g style="fill: #dc2626" transform="translate(467.487717 424.02294) scale(0.09 -0.09)">
     <use xlink:href="#SegoeUI-2212"/>
     <use xlink:href="#SegoeUI-221a" x="68.408203"/>
     <use xlink:href="#SegoeUI-33" x="133.398438"/>
     <use xlink:href="#SegoeUI-2f" x="187.304688"/>
     <use xlink:href="#SegoeUI-33" x="226.269531"/>
    </g>
   </g>
   <g id="text_46">
    <!-- 180° -->
    <g style="fill: #374151" transform="translate(52.581815 465.298954) scale(0.09 -0.09)">
     <defs>
      <path id="SegoeUI-38" d="M 281 1250 
Q 281 1428 337 1608 
Q 394 1788 498 1944 
Q 603 2100 758 2228 
Q 913 2356 1109 2431 
Q 819 2594 647 2848 
Q 475 3103 475 3413 
Q 475 3659 570 3868 
Q 666 4078 834 4231 
Q 1003 4384 1234 4470 
Q 1466 4556 1734 4556 
Q 2006 4556 2237 4468 
Q 2469 4381 2637 4228 
Q 2806 4075 2900 3865 
Q 2994 3656 2994 3413 
Q 2994 3103 2822 2848 
Q 2650 2594 2366 2431 
Q 2559 2356 2712 2228 
Q 2866 2100 2970 1944 
Q 3075 1788 3131 1608 
Q 3188 1428 3188 1250 
Q 3188 956 3081 712 
Q 2975 469 2783 295 
Q 2591 122 2323 25 
Q 2056 -72 1734 -72 
Q 1416 -72 1150 25 
Q 884 122 690 295 
Q 497 469 389 712 
Q 281 956 281 1250 
z
M 838 1294 
Q 838 1084 902 915 
Q 966 747 1083 628 
Q 1200 509 1367 445 
Q 1534 381 1738 381 
Q 1934 381 2100 447 
Q 2266 513 2386 631 
Q 2506 750 2573 919 
Q 2641 1088 2641 1294 
Q 2641 1481 2577 1645 
Q 2513 1809 2394 1934 
Q 2275 2059 2109 2131 
Q 1944 2203 1738 2203 
Q 1544 2203 1380 2136 
Q 1216 2069 1095 1948 
Q 975 1828 906 1661 
Q 838 1494 838 1294 
z
M 997 3372 
Q 997 3213 1055 3077 
Q 1113 2941 1214 2839 
Q 1316 2738 1450 2680 
Q 1584 2622 1738 2622 
Q 1891 2622 2027 2681 
Q 2163 2741 2263 2842 
Q 2363 2944 2422 3080 
Q 2481 3216 2481 3372 
Q 2481 3534 2423 3671 
Q 2366 3809 2266 3909 
Q 2166 4009 2030 4067 
Q 1894 4125 1738 4125 
Q 1572 4125 1436 4065 
Q 1300 4006 1201 3904 
Q 1103 3803 1050 3665 
Q 997 3528 997 3372 
z
" transform="scale(0.015625)"/>
     </defs>
     <use xlink:href="#SegoeUI-31"/>
     <use xlink:href="#SegoeUI-38" x="53.90625"/>
     <use xlink:href="#SegoeUI-30" x="107.8125"/>
     <use xlink:href="#SegoeUI-b0" x="161.71875"/>
    </g>
   </g>
   <g id="text_47">
    <!-- π -->
    <g style="fill: #374151" transform="translate(140.267857 465.298954) scale(0.09 -0.09)">
     <use xlink:href="#SegoeUI-3c0"/>
    </g>
   </g>
   <g id="text_48">
    <!-- 0 -->
    <g style="fill: #374151" transform="translate(238.504154 465.298954) scale(0.09 -0.09)">
     <use xlink:href="#SegoeUI-30"/>
    </g>
   </g>
   <g id="text_49">
    <!-- −1 -->
    <g style="fill: #dc2626" transform="translate(355.008631 465.298954) scale(0.09 -0.09)">
     <use xlink:href="#SegoeUI-2212"/>
     <use xlink:href="#SegoeUI-31" x="68.408203"/>
    </g>
   </g>
   <g id="text_50">
    <!-- 0 -->
    <g style="fill: #374151" transform="translate(477.66967 465.298954) scale(0.09 -0.09)">
     <use xlink:href="#SegoeUI-30"/>
    </g>
   </g>
   <g id="text_51">
    <!-- 270° -->
    <g style="fill: #374151" transform="translate(52.581815 506.574968) scale(0.09 -0.09)">
     <defs>
      <path id="SegoeUI-37" d="M 3156 4184 
Q 3053 4006 2908 3740 
Q 2763 3475 2600 3144 
Q 2438 2813 2269 2431 
Q 2100 2050 1953 1644 
Q 1806 1238 1695 820 
Q 1584 403 1534 0 
L 984 0 
Q 1041 400 1158 817 
Q 1275 1234 1423 1636 
Q 1572 2038 1737 2409 
Q 1903 2781 2059 3093 
Q 2216 3406 2345 3645 
Q 2475 3884 2553 4019 
L 306 4019 
L 306 4481 
L 3156 4481 
L 3156 4184 
z
" transform="scale(0.015625)"/>
     </defs>
     <use xlink:href="#SegoeUI-32"/>
     <use xlink:href="#SegoeUI-37" x="53.90625"/>
     <use xlink:href="#SegoeUI-30" x="107.8125"/>
     <use xlink:href="#SegoeUI-b0" x="161.71875"/>
    </g>
   </g>
   <g id="text_52">
    <!-- 3π/2 -->
    <g style="fill: #374151" transform="translate(133.662701 506.574968) scale(0.09 -0.09)">
     <use xlink:href="#SegoeUI-33"/>
     <use xlink:href="#SegoeUI-3c0" x="53.90625"/>
     <use xlink:href="#SegoeUI-2f" x="116.601562"/>
     <use xlink:href="#SegoeUI-32" x="155.566406"/>
    </g>
   </g>
   <g id="text_53">
    <!-- −1 -->
    <g style="fill: #dc2626" transform="translate(235.425873 506.574968) scale(0.09 -0.09)">
     <use xlink:href="#SegoeUI-2212"/>
     <use xlink:href="#SegoeUI-31" x="68.408203"/>
    </g>
   </g>
   <g id="text_54">
    <!-- 0 -->
    <g style="fill: #374151" transform="translate(358.086912 506.574968) scale(0.09 -0.09)">
     <use xlink:href="#SegoeUI-30"/>
    </g>
   </g>
   <g id="text_55">
    <!-- ∞ -->
    <g style="fill: #dc2626" transform="translate(476.419513 506.574968) scale(0.09 -0.09)">
     <use xlink:href="#SegoeUI-221e"/>
    </g>
   </g>
   <g id="text_56">
    <!-- 360° -->
    <g style="fill: #374151" transform="translate(52.581815 547.850982) scale(0.09 -0.09)">
     <use xlink:href="#SegoeUI-33"/>
     <use xlink:href="#SegoeUI-36" x="53.90625"/>
     <use xlink:href="#SegoeUI-30" x="107.8125"/>
     <use xlink:href="#SegoeUI-b0" x="161.71875"/>
    </g>
   </g>
   <g id="text_57">
    <!-- 2π -->
    <g style="fill: #374151" transform="translate(137.842076 547.850982) scale(0.09 -0.09)">
     <use xlink:href="#SegoeUI-32"/>
     <use xlink:href="#SegoeUI-3c0" x="53.90625"/>
    </g>
   </g>
   <g id="text_58">
    <!-- 0 -->
    <g style="fill: #374151" transform="translate(238.504154 547.850982) scale(0.09 -0.09)">
     <use xlink:href="#SegoeUI-30"/>
    </g>
   </g>
   <g id="text_59">
    <!-- 1 -->
    <g style="fill: #374151" transform="translate(358.086912 547.850982) scale(0.09 -0.09)">
     <use xlink:href="#SegoeUI-31"/>
    </g>
   </g>
   <g id="text_60">
    <!-- 0 -->
    <g style="fill: #374151" transform="translate(477.66967 547.850982) scale(0.09 -0.09)">
     <use xlink:href="#SegoeUI-30"/>
    </g>
   </g>
   <g id="text_61">
    <!-- * Valores resaltados: ángulos más frecuentes -->
    <g style="fill: #9ca3af" transform="translate(193.06626 560.689114) scale(0.09 -0.09)">
     <defs>
      <path id="SegoeUI-Italic-2a" d="M 1875 3278 
L 2472 2516 
L 2125 2278 
L 1638 3103 
L 1147 2278 
L 800 2516 
L 1403 3278 
L 538 3450 
L 672 3841 
L 1491 3531 
L 1422 4481 
L 1850 4481 
L 1778 3531 
L 2597 3841 
L 2731 3450 
L 1875 3278 
z
" transform="scale(0.015625)"/>
      <path id="SegoeUI-Italic-20" transform="scale(0.015625)"/>
      <path id="SegoeUI-Italic-56" d="M 1863 0 
L 1338 0 
L 666 4481 
L 1209 4481 
L 1703 972 
Q 1719 884 1725 773 
Q 1731 663 1722 581 
L 1734 581 
Q 1750 622 1770 672 
Q 1791 722 1817 773 
Q 1844 825 1870 876 
Q 1897 928 1919 972 
L 3922 4481 
L 4525 4481 
L 1863 0 
z
" transform="scale(0.015625)"/>
      <path id="SegoeUI-Italic-61" d="M 2828 1025 
Q 2803 906 2779 757 
Q 2756 609 2739 464 
Q 2722 319 2711 194 
Q 2700 69 2700 0 
L 2169 0 
Q 2172 63 2178 150 
Q 2184 238 2195 331 
Q 2206 425 2217 515 
Q 2228 606 2241 672 
L 2228 672 
Q 2131 519 2031 383 
Q 1931 247 1809 144 
Q 1688 41 1538 -18 
Q 1388 -78 1184 -78 
Q 975 -78 801 -3 
Q 628 72 503 220 
Q 378 369 311 592 
Q 244 816 244 1113 
Q 244 1294 281 1525 
Q 319 1756 408 1997 
Q 497 2238 645 2467 
Q 794 2697 1014 2878 
Q 1234 3059 1534 3168 
Q 1834 3278 2228 3278 
Q 2478 3278 2743 3240 
Q 3009 3203 3272 3150 
L 2828 1025 
z
M 2681 2778 
Q 2572 2803 2425 2822 
Q 2278 2841 2150 2841 
Q 1878 2841 1670 2755 
Q 1463 2669 1309 2530 
Q 1156 2391 1051 2209 
Q 947 2028 884 1839 
Q 822 1650 795 1465 
Q 769 1281 769 1131 
Q 769 953 800 811 
Q 831 669 898 569 
Q 966 469 1070 414 
Q 1175 359 1319 359 
Q 1475 359 1611 423 
Q 1747 488 1865 597 
Q 1984 706 2081 850 
Q 2178 994 2256 1155 
Q 2334 1316 2389 1483 
Q 2444 1650 2478 1806 
L 2681 2778 
z
" transform="scale(0.015625)"/>
      <path id="SegoeUI-Italic-6c" d="M 1300 13 
Q 1222 -13 1123 -28 
Q 1025 -44 928 -44 
Q 613 -44 456 114 
Q 300 272 300 538 
Q 300 616 315 722 
Q 331 828 366 984 
L 1166 4741 
L 1684 4741 
L 881 972 
Q 853 841 842 769 
Q 831 697 831 647 
Q 831 519 901 451 
Q 972 384 1125 384 
Q 1206 384 1267 393 
Q 1328 403 1381 422 
L 1300 13 
z
" transform="scale(0.015625)"/>
      <path id="SegoeUI-Italic-6f" d="M 3181 2016 
Q 3181 1591 3061 1209 
Q 2941 828 2714 542 
Q 2488 256 2164 89 
Q 1841 -78 1434 -78 
Q 1159 -78 939 9 
Q 719 97 564 261 
Q 409 425 326 658 
Q 244 891 244 1184 
Q 244 1625 370 2008 
Q 497 2391 726 2673 
Q 956 2956 1276 3117 
Q 1597 3278 1984 3278 
Q 2256 3278 2476 3190 
Q 2697 3103 2853 2939 
Q 3009 2775 3095 2542 
Q 3181 2309 3181 2016 
z
M 2656 1991 
Q 2656 2194 2606 2351 
Q 2556 2509 2465 2617 
Q 2375 2725 2247 2783 
Q 2119 2841 1959 2841 
Q 1684 2841 1462 2700 
Q 1241 2559 1087 2329 
Q 934 2100 851 1808 
Q 769 1516 769 1209 
Q 769 1016 817 858 
Q 866 700 955 589 
Q 1044 478 1173 418 
Q 1303 359 1466 359 
Q 1744 359 1966 498 
Q 2188 638 2341 867 
Q 2494 1097 2575 1390 
Q 2656 1684 2656 1991 
z
" transform="scale(0.015625)"/>
      <path id="SegoeUI-Italic-72" d="M 2394 2656 
L 2381 2656 
Q 2319 2694 2217 2730 
Q 2116 2766 2016 2766 
Q 1834 2766 1668 2648 
Q 1503 2531 1367 2339 
Q 1231 2147 1129 1900 
Q 1028 1653 972 1394 
L 672 0 
L 159 0 
L 609 2125 
Q 638 2256 666 2400 
Q 694 2544 717 2687 
Q 741 2831 759 2962 
Q 778 3094 788 3200 
L 1294 3200 
Q 1284 3106 1271 3001 
Q 1259 2897 1246 2798 
Q 1234 2700 1221 2620 
Q 1209 2541 1203 2497 
L 1216 2497 
Q 1316 2675 1419 2819 
Q 1522 2963 1636 3064 
Q 1750 3166 1878 3222 
Q 2006 3278 2156 3278 
Q 2244 3278 2330 3261 
Q 2416 3244 2484 3225 
L 2394 2656 
z
" transform="scale(0.015625)"/>
      <path id="SegoeUI-Italic-65" d="M 2994 2450 
Q 2994 2197 2881 1989 
Q 2769 1781 2509 1632 
Q 2250 1484 1825 1403 
Q 1400 1322 775 1319 
Q 769 1284 769 1247 
Q 769 1213 769 1184 
Q 769 1016 816 866 
Q 863 716 961 603 
Q 1059 491 1214 425 
Q 1369 359 1581 359 
Q 1797 359 2055 442 
Q 2313 525 2547 678 
L 2450 172 
Q 2278 72 2040 -3 
Q 1803 -78 1509 -78 
Q 1156 -78 914 31 
Q 672 141 523 323 
Q 375 506 309 745 
Q 244 984 244 1247 
Q 244 1528 306 1789 
Q 369 2050 483 2275 
Q 597 2500 756 2686 
Q 916 2872 1109 3003 
Q 1303 3134 1525 3206 
Q 1747 3278 1984 3278 
Q 2231 3278 2420 3212 
Q 2609 3147 2736 3033 
Q 2863 2919 2928 2769 
Q 2994 2619 2994 2450 
z
M 2472 2425 
Q 2472 2622 2326 2731 
Q 2181 2841 1941 2841 
Q 1750 2841 1572 2758 
Q 1394 2675 1244 2529 
Q 1094 2384 984 2182 
Q 875 1981 825 1747 
Q 1272 1747 1584 1792 
Q 1897 1838 2094 1925 
Q 2291 2013 2381 2139 
Q 2472 2266 2472 2425 
z
" transform="scale(0.015625)"/>
      <path id="SegoeUI-Italic-73" d="M 2266 2638 
Q 2125 2728 1950 2784 
Q 1775 2841 1600 2841 
Q 1306 2841 1145 2706 
Q 984 2572 984 2350 
Q 984 2259 1014 2184 
Q 1044 2109 1101 2042 
Q 1159 1975 1248 1912 
Q 1338 1850 1453 1778 
Q 1803 1575 1958 1361 
Q 2113 1147 2113 878 
Q 2113 697 2045 523 
Q 1978 350 1831 217 
Q 1684 84 1451 3 
Q 1219 -78 884 -78 
Q 791 -78 678 -65 
Q 566 -53 452 -28 
Q 338 -3 233 33 
Q 128 69 50 116 
L 153 603 
Q 216 559 308 515 
Q 400 472 508 437 
Q 616 403 733 381 
Q 850 359 966 359 
Q 1278 359 1433 484 
Q 1588 609 1588 831 
Q 1588 913 1564 981 
Q 1541 1050 1481 1119 
Q 1422 1188 1325 1258 
Q 1228 1328 1081 1416 
Q 763 1609 611 1820 
Q 459 2031 459 2297 
Q 459 2491 531 2667 
Q 603 2844 745 2980 
Q 888 3116 1103 3197 
Q 1319 3278 1606 3278 
Q 1831 3278 2032 3234 
Q 2234 3191 2375 3122 
L 2266 2638 
z
" transform="scale(0.015625)"/>
      <path id="SegoeUI-Italic-74" d="M 2156 2766 
L 1350 2766 
L 991 1069 
Q 972 972 953 859 
Q 934 747 934 678 
Q 934 519 1004 448 
Q 1075 378 1228 378 
Q 1266 378 1325 390 
Q 1384 403 1446 422 
Q 1509 441 1570 464 
Q 1631 488 1678 506 
L 1581 56 
Q 1472 9 1333 -23 
Q 1194 -56 1069 -56 
Q 891 -56 766 -11 
Q 641 34 561 118 
Q 481 203 445 323 
Q 409 444 409 594 
Q 409 684 426 804 
Q 444 925 469 1025 
L 838 2766 
L 306 2766 
L 403 3200 
L 928 3200 
L 1094 3981 
Q 1106 3988 1189 4011 
Q 1272 4034 1370 4064 
Q 1469 4094 1551 4119 
Q 1634 4144 1644 4147 
L 1447 3200 
L 2253 3200 
L 2156 2766 
z
" transform="scale(0.015625)"/>
      <path id="SegoeUI-Italic-64" d="M 2816 984 
Q 2794 884 2773 743 
Q 2753 603 2737 461 
Q 2722 319 2711 194 
Q 2700 69 2700 0 
L 2169 0 
Q 2169 53 2176 142 
Q 2184 231 2195 328 
Q 2206 425 2218 514 
Q 2231 603 2241 659 
L 2228 659 
Q 2116 478 2003 339 
Q 1891 200 1766 108 
Q 1641 16 1500 -31 
Q 1359 -78 1191 -78 
Q 972 -78 797 0 
Q 622 78 498 229 
Q 375 381 309 604 
Q 244 828 244 1119 
Q 244 1350 292 1600 
Q 341 1850 442 2090 
Q 544 2331 700 2547 
Q 856 2763 1072 2925 
Q 1288 3088 1566 3183 
Q 1844 3278 2188 3278 
Q 2363 3278 2513 3254 
Q 2663 3231 2772 3206 
L 3097 4738 
L 3603 4738 
L 2816 984 
z
M 2681 2766 
Q 2563 2800 2433 2820 
Q 2303 2841 2156 2841 
Q 1884 2841 1676 2756 
Q 1469 2672 1314 2531 
Q 1159 2391 1054 2211 
Q 950 2031 886 1842 
Q 822 1653 795 1470 
Q 769 1288 769 1141 
Q 769 966 798 822 
Q 828 678 895 575 
Q 963 472 1069 415 
Q 1175 359 1325 359 
Q 1481 359 1617 425 
Q 1753 491 1872 603 
Q 1991 716 2087 862 
Q 2184 1009 2262 1175 
Q 2341 1341 2395 1511 
Q 2450 1681 2484 1838 
L 2681 2766 
z
" transform="scale(0.015625)"/>
      <path id="SegoeUI-Italic-3a" d="M 1319 2925 
Q 1319 2853 1291 2789 
Q 1263 2725 1216 2678 
Q 1169 2631 1106 2604 
Q 1044 2578 972 2578 
Q 900 2578 837 2604 
Q 775 2631 728 2678 
Q 681 2725 654 2789 
Q 628 2853 628 2925 
Q 628 2994 654 3056 
Q 681 3119 728 3167 
Q 775 3216 837 3244 
Q 900 3272 972 3272 
Q 1044 3272 1108 3244 
Q 1172 3216 1219 3167 
Q 1266 3119 1292 3056 
Q 1319 2994 1319 2925 
z
M 763 275 
Q 763 203 736 140 
Q 709 78 662 31 
Q 616 -16 552 -44 
Q 488 -72 416 -72 
Q 344 -72 281 -44 
Q 219 -16 172 31 
Q 125 78 98 140 
Q 72 203 72 275 
Q 72 347 98 411 
Q 125 475 172 522 
Q 219 569 281 595 
Q 344 622 416 622 
Q 488 622 552 595 
Q 616 569 662 522 
Q 709 475 736 411 
Q 763 347 763 275 
z
" transform="scale(0.015625)"/>
      <path id="SegoeUI-Italic-e1" d="M 2828 1025 
Q 2803 906 2779 757 
Q 2756 609 2739 464 
Q 2722 319 2711 194 
Q 2700 69 2700 0 
L 2169 0 
Q 2172 63 2178 150 
Q 2184 238 2195 331 
Q 2206 425 2217 515 
Q 2228 606 2241 672 
L 2228 672 
Q 2131 519 2031 383 
Q 1931 247 1809 144 
Q 1688 41 1538 -18 
Q 1388 -78 1184 -78 
Q 975 -78 801 -3 
Q 628 72 503 220 
Q 378 369 311 592 
Q 244 816 244 1113 
Q 244 1294 281 1525 
Q 319 1756 408 1997 
Q 497 2238 645 2467 
Q 794 2697 1014 2878 
Q 1234 3059 1534 3168 
Q 1834 3278 2228 3278 
Q 2478 3278 2743 3240 
Q 3009 3203 3272 3150 
L 2828 1025 
z
M 2681 2778 
Q 2572 2803 2425 2822 
Q 2278 2841 2150 2841 
Q 1878 2841 1670 2755 
Q 1463 2669 1309 2530 
Q 1156 2391 1051 2209 
Q 947 2028 884 1839 
Q 822 1650 795 1465 
Q 769 1281 769 1131 
Q 769 953 800 811 
Q 831 669 898 569 
Q 966 469 1070 414 
Q 1175 359 1319 359 
Q 1475 359 1611 423 
Q 1747 488 1865 597 
Q 1984 706 2081 850 
Q 2178 994 2256 1155 
Q 2334 1316 2389 1483 
Q 2444 1650 2478 1806 
L 2681 2778 
z
M 2182 3809 
L 1798 3809 
L 2701 4831 
L 3204 4831 
L 2182 3809 
z
" transform="scale(0.015625)"/>
      <path id="SegoeUI-Italic-6e" d="M 3269 2400 
Q 3269 2353 3258 2272 
Q 3247 2191 3230 2097 
Q 3213 2003 3195 1911 
Q 3178 1819 3163 1753 
L 2791 0 
L 2272 0 
L 2663 1875 
Q 2675 1925 2687 1990 
Q 2700 2056 2709 2122 
Q 2719 2188 2725 2242 
Q 2731 2297 2731 2328 
Q 2731 2566 2617 2703 
Q 2503 2841 2278 2841 
Q 2072 2841 1869 2719 
Q 1666 2597 1494 2409 
Q 1322 2222 1198 1997 
Q 1075 1772 1031 1563 
L 697 0 
L 178 0 
L 672 2284 
Q 697 2406 722 2539 
Q 747 2672 769 2795 
Q 791 2919 806 3025 
Q 822 3131 831 3200 
L 1331 3200 
Q 1316 3078 1294 2945 
Q 1272 2813 1256 2700 
Q 1238 2569 1216 2444 
L 1228 2444 
Q 1338 2616 1470 2767 
Q 1603 2919 1758 3033 
Q 1913 3147 2086 3212 
Q 2259 3278 2450 3278 
Q 2663 3278 2816 3214 
Q 2969 3150 3070 3034 
Q 3172 2919 3220 2756 
Q 3269 2594 3269 2400 
z
" transform="scale(0.015625)"/>
      <path id="SegoeUI-Italic-67" d="M 2656 231 
Q 2578 -144 2450 -461 
Q 2322 -778 2111 -1011 
Q 1900 -1244 1590 -1373 
Q 1281 -1503 838 -1503 
Q 531 -1503 304 -1431 
Q 78 -1359 -109 -1259 
L -13 -781 
Q 184 -900 406 -981 
Q 628 -1063 884 -1063 
Q 1163 -1063 1367 -981 
Q 1572 -900 1720 -742 
Q 1869 -584 1967 -356 
Q 2066 -128 2131 166 
L 2241 666 
L 2228 666 
Q 2109 475 1995 336 
Q 1881 197 1756 105 
Q 1631 13 1493 -32 
Q 1356 -78 1191 -78 
Q 975 -78 800 -1 
Q 625 75 501 225 
Q 378 375 311 600 
Q 244 825 244 1119 
Q 244 1397 305 1665 
Q 366 1934 481 2175 
Q 597 2416 764 2617 
Q 931 2819 1143 2966 
Q 1356 3113 1611 3195 
Q 1866 3278 2156 3278 
Q 2447 3278 2737 3240 
Q 3028 3203 3272 3156 
L 2656 231 
z
M 2681 2778 
Q 2575 2803 2423 2822 
Q 2272 2841 2100 2841 
Q 1806 2841 1562 2705 
Q 1319 2569 1142 2336 
Q 966 2103 867 1793 
Q 769 1484 769 1141 
Q 769 972 798 828 
Q 828 684 892 581 
Q 956 478 1057 418 
Q 1159 359 1306 359 
Q 1478 359 1623 431 
Q 1769 503 1891 622 
Q 2013 741 2108 892 
Q 2203 1044 2276 1203 
Q 2350 1363 2400 1517 
Q 2450 1672 2478 1797 
L 2681 2778 
z
" transform="scale(0.015625)"/>
      <path id="SegoeUI-Italic-75" d="M 2906 909 
Q 2878 788 2854 656 
Q 2831 525 2809 403 
Q 2788 281 2772 175 
Q 2756 69 2747 0 
L 2247 0 
Q 2263 122 2283 255 
Q 2303 388 2322 500 
Q 2344 631 2363 756 
L 2350 756 
Q 2241 584 2108 432 
Q 1975 281 1820 167 
Q 1666 53 1492 -12 
Q 1319 -78 1131 -78 
Q 925 -78 770 -14 
Q 616 50 512 165 
Q 409 281 357 443 
Q 306 606 306 806 
Q 306 847 318 928 
Q 331 1009 347 1103 
Q 363 1197 383 1289 
Q 403 1381 416 1447 
L 788 3200 
L 1306 3200 
L 909 1325 
Q 897 1275 884 1209 
Q 872 1144 861 1078 
Q 850 1013 844 958 
Q 838 903 838 872 
Q 838 638 952 498 
Q 1066 359 1294 359 
Q 1431 359 1568 415 
Q 1706 472 1836 567 
Q 1966 663 2081 789 
Q 2197 916 2290 1058 
Q 2384 1200 2450 1350 
Q 2516 1500 2547 1638 
L 2881 3200 
L 3397 3200 
L 2906 909 
z
" transform="scale(0.015625)"/>
      <path id="SegoeUI-Italic-6d" d="M 5166 2394 
Q 5166 2353 5155 2270 
Q 5144 2188 5126 2094 
Q 5109 2000 5092 1908 
Q 5075 1816 5063 1753 
L 4684 0 
L 4172 0 
L 4563 1875 
Q 4575 1928 4587 1993 
Q 4600 2059 4611 2123 
Q 4622 2188 4628 2242 
Q 4634 2297 4634 2328 
Q 4634 2575 4528 2708 
Q 4422 2841 4197 2841 
Q 4078 2841 3951 2786 
Q 3825 2731 3704 2637 
Q 3584 2544 3473 2419 
Q 3363 2294 3270 2151 
Q 3178 2009 3112 1861 
Q 3047 1713 3016 1569 
L 2681 0 
L 2163 0 
L 2559 1875 
Q 2572 1928 2584 1993 
Q 2597 2059 2608 2123 
Q 2619 2188 2625 2242 
Q 2631 2297 2631 2328 
Q 2631 2575 2522 2708 
Q 2413 2841 2194 2841 
Q 2072 2841 1944 2786 
Q 1816 2731 1694 2636 
Q 1572 2541 1461 2414 
Q 1350 2288 1258 2145 
Q 1166 2003 1102 1854 
Q 1038 1706 1006 1563 
L 672 0 
L 153 0 
L 647 2284 
Q 672 2406 697 2539 
Q 722 2672 744 2795 
Q 766 2919 781 3025 
Q 797 3131 806 3200 
L 1306 3200 
Q 1291 3078 1269 2945 
Q 1247 2813 1231 2700 
Q 1213 2569 1191 2444 
L 1203 2444 
Q 1316 2625 1447 2778 
Q 1578 2931 1725 3042 
Q 1872 3153 2031 3215 
Q 2191 3278 2363 3278 
Q 2563 3278 2706 3218 
Q 2850 3159 2945 3051 
Q 3041 2944 3091 2791 
Q 3141 2638 3150 2450 
Q 3266 2625 3398 2776 
Q 3531 2928 3682 3039 
Q 3834 3150 4004 3214 
Q 4175 3278 4366 3278 
Q 4766 3278 4966 3045 
Q 5166 2813 5166 2394 
z
" transform="scale(0.015625)"/>
      <path id="SegoeUI-Italic-66" d="M 2572 4294 
Q 2541 4309 2497 4323 
Q 2453 4338 2403 4350 
Q 2353 4363 2298 4370 
Q 2244 4378 2194 4378 
Q 1938 4378 1798 4211 
Q 1659 4044 1588 3713 
L 1472 3200 
L 2228 3200 
L 2125 2766 
L 1369 2766 
L 550 -1063 
L 31 -1063 
L 856 2766 
L 306 2766 
L 403 3200 
L 953 3200 
L 1081 3794 
Q 1141 4069 1247 4262 
Q 1353 4456 1500 4578 
Q 1647 4700 1833 4756 
Q 2019 4813 2241 4813 
Q 2356 4813 2467 4794 
Q 2578 4775 2656 4750 
L 2572 4294 
z
" transform="scale(0.015625)"/>
      <path id="SegoeUI-Italic-63" d="M 2700 2566 
Q 2569 2681 2383 2761 
Q 2197 2841 1972 2841 
Q 1756 2841 1582 2766 
Q 1409 2691 1275 2566 
Q 1141 2441 1044 2278 
Q 947 2116 884 1941 
Q 822 1766 792 1592 
Q 763 1419 763 1269 
Q 763 822 959 590 
Q 1156 359 1497 359 
Q 1703 359 1925 445 
Q 2147 531 2344 666 
L 2234 153 
Q 2031 44 1829 -17 
Q 1628 -78 1403 -78 
Q 1109 -78 892 22 
Q 675 122 531 297 
Q 388 472 316 711 
Q 244 950 244 1228 
Q 244 1491 297 1745 
Q 350 2000 454 2226 
Q 559 2453 712 2647 
Q 866 2841 1064 2980 
Q 1263 3119 1506 3198 
Q 1750 3278 2034 3278 
Q 2169 3278 2291 3259 
Q 2413 3241 2513 3209 
Q 2613 3178 2691 3142 
Q 2769 3106 2816 3072 
L 2700 2566 
z
" transform="scale(0.015625)"/>
     </defs>
     <use xlink:href="#SegoeUI-Italic-2a"/>
     <use xlink:href="#SegoeUI-Italic-20" x="41.796875"/>
     <use xlink:href="#SegoeUI-Italic-56" x="69.287109"/>
     <use xlink:href="#SegoeUI-Italic-61" x="126.330078"/>
     <use xlink:href="#SegoeUI-Italic-6c" x="180.529297"/>
     <use xlink:href="#SegoeUI-Italic-6f" x="206.408203"/>
     <use xlink:href="#SegoeUI-Italic-72" x="259.923828"/>
     <use xlink:href="#SegoeUI-Italic-65" x="295.546875"/>
     <use xlink:href="#SegoeUI-Italic-73" x="344.228516"/>
     <use xlink:href="#SegoeUI-Italic-20" x="383.730469"/>
     <use xlink:href="#SegoeUI-Italic-72" x="411.220703"/>
     <use xlink:href="#SegoeUI-Italic-65" x="446.84375"/>
     <use xlink:href="#SegoeUI-Italic-73" x="495.525391"/>
     <use xlink:href="#SegoeUI-Italic-61" x="534.027344"/>
     <use xlink:href="#SegoeUI-Italic-6c" x="588.226562"/>
     <use xlink:href="#SegoeUI-Italic-74" x="614.105469"/>
     <use xlink:href="#SegoeUI-Italic-61" x="645.929688"/>
     <use xlink:href="#SegoeUI-Italic-64" x="700.128906"/>
     <use xlink:href="#SegoeUI-Italic-6f" x="754.328125"/>
     <use xlink:href="#SegoeUI-Italic-73" x="807.84375"/>
     <use xlink:href="#SegoeUI-Italic-3a" x="847.345703"/>
     <use xlink:href="#SegoeUI-Italic-20" x="869.123047"/>
     <use xlink:href="#SegoeUI-Italic-e1" x="896.613281"/>
     <use xlink:href="#SegoeUI-Italic-6e" x="950.8125"/>
     <use xlink:href="#SegoeUI-Italic-67" x="1007.013672"/>
     <use xlink:href="#SegoeUI-Italic-75" x="1061.212891"/>
     <use xlink:href="#SegoeUI-Italic-6c" x="1117.023438"/>
     <use xlink:href="#SegoeUI-Italic-6f" x="1142.902344"/>
     <use xlink:href="#SegoeUI-Italic-73" x="1196.417969"/>
     <use xlink:href="#SegoeUI-Italic-20" x="1235.919922"/>
     <use xlink:href="#SegoeUI-Italic-6d" x="1263.410156"/>
     <use xlink:href="#SegoeUI-Italic-e1" x="1349.201172"/>
     <use xlink:href="#SegoeUI-Italic-73" x="1403.400391"/>
     <use xlink:href="#SegoeUI-Italic-20" x="1442.902344"/>
     <use xlink:href="#SegoeUI-Italic-66" x="1470.392578"/>
     <use xlink:href="#SegoeUI-Italic-72" x="1499.884766"/>
     <use xlink:href="#SegoeUI-Italic-65" x="1535.507812"/>
     <use xlink:href="#SegoeUI-Italic-63" x="1584.189453"/>
     <use xlink:href="#SegoeUI-Italic-75" x="1627.792969"/>
     <use xlink:href="#SegoeUI-Italic-65" x="1683.603516"/>
     <use xlink:href="#SegoeUI-Italic-6e" x="1732.285156"/>
     <use xlink:href="#SegoeUI-Italic-74" x="1788.486328"/>
     <use xlink:href="#SegoeUI-Italic-65" x="1820.935547"/>
     <use xlink:href="#SegoeUI-Italic-73" x="1869.617188"/>
    </g>
   </g>
  </g>
  <g id="axes_2">
   <g id="patch_62">
    <path d="M 611.984066 274.508751 
L 988.293443 274.508751 
L 988.293443 81.887353 
L 611.984066 81.887353 
z
" clip-path="url(#pd1d4ae0f51)" style="fill: #eff6ff; stroke: #39c5bb; stroke-width: 1.5; stroke-linejoin: miter"/>
   </g>
   <g id="patch_63">
    <path d="M 674.702296 246.991408 
L 779.232678 246.991408 
L 779.232678 120.411632 
z
" clip-path="url(#pd1d4ae0f51)" style="fill: #dbeafe; stroke: #39c5bb; stroke-width: 2; stroke-linejoin: miter"/>
   </g>
   <g id="patch_64">
    <path d="M 766.689032 246.991408 
L 779.232678 246.991408 
L 779.232678 230.481003 
L 766.689032 230.481003 
L 766.689032 246.991408 
z
" clip-path="url(#pd1d4ae0f51)" style="fill: none; stroke: #374151; stroke-linejoin: miter"/>
   </g>
   <g id="patch_65">
    <path d="M 611.984066 522.164835 
L 988.293443 522.164835 
L 988.293443 302.026094 
L 611.984066 302.026094 
z
" clip-path="url(#pd1d4ae0f51)" style="fill: #f0fdf4; stroke: #e12885; stroke-width: 1.5; stroke-linejoin: miter"/>
   </g>
   <g id="patch_66">
    <path d="M 653.796219 494.647492 
L 800.138755 494.647492 
L 800.138755 346.053842 
z
" clip-path="url(#pd1d4ae0f51)" style="fill: #dcfce7; stroke: #e12885; stroke-width: 2; stroke-linejoin: miter"/>
   </g>
   <g id="patch_67">
    <path d="M 787.595109 494.647492 
L 800.138755 494.647492 
L 800.138755 478.137087 
L 787.595109 478.137087 
L 787.595109 494.647492 
z
" clip-path="url(#pd1d4ae0f51)" style="fill: none; stroke: #374151; stroke-linejoin: miter"/>
   </g>
   <g id="text_62">
    <!-- Triángulos de Referencia -->
    <g style="fill: #2c2f33" transform="translate(736.624927 54.37001) scale(0.11 -0.11)">
     <defs>
      <path id="SegoeUI-Bold-54" d="M 3659 3659 
L 2381 3659 
L 2381 0 
L 1369 0 
L 1369 3659 
L 97 3659 
L 97 4481 
L 3659 4481 
L 3659 3659 
z
" transform="scale(0.015625)"/>
      <path id="SegoeUI-Bold-e1" d="M 3078 0 
L 2144 0 
L 2144 459 
L 2131 459 
Q 1809 -78 1178 -78 
Q 713 -78 445 186 
Q 178 450 178 891 
Q 178 1822 1281 1966 
L 2150 2081 
Q 2150 2606 1581 2606 
Q 1009 2606 494 2266 
L 494 3009 
Q 700 3116 1058 3197 
Q 1416 3278 1709 3278 
Q 3078 3278 3078 1913 
L 3078 0 
z
M 2150 1300 
L 2150 1516 
L 1569 1441 
Q 1088 1378 1088 1006 
Q 1088 838 1205 730 
Q 1322 622 1522 622 
Q 1800 622 1975 814 
Q 2150 1006 2150 1300 
z
M 2783 4716 
L 1804 3706 
L 1092 3706 
L 1904 4716 
L 2783 4716 
z
" transform="scale(0.015625)"/>
      <path id="SegoeUI-Bold-75" d="M 3456 0 
L 2472 0 
L 2472 488 
L 2456 488 
Q 2091 -78 1478 -78 
Q 366 -78 366 1269 
L 366 3200 
L 1350 3200 
L 1350 1356 
Q 1350 678 1888 678 
Q 2153 678 2312 864 
Q 2472 1050 2472 1369 
L 2472 3200 
L 3456 3200 
L 3456 0 
z
" transform="scale(0.015625)"/>
      <path id="SegoeUI-Bold-6c" d="M 1403 0 
L 416 0 
L 416 4738 
L 1403 4738 
L 1403 0 
z
" transform="scale(0.015625)"/>
      <path id="SegoeUI-Bold-65" d="M 3291 1319 
L 1203 1319 
Q 1253 622 2081 622 
Q 2609 622 3009 872 
L 3009 159 
Q 2566 -78 1856 -78 
Q 1081 -78 653 351 
Q 225 781 225 1550 
Q 225 2347 687 2812 
Q 1150 3278 1825 3278 
Q 2525 3278 2908 2862 
Q 3291 2447 3291 1734 
L 3291 1319 
z
M 2375 1925 
Q 2375 2613 1819 2613 
Q 1581 2613 1407 2416 
Q 1234 2219 1197 1925 
L 2375 1925 
z
" transform="scale(0.015625)"/>
      <path id="SegoeUI-Bold-52" d="M 4272 0 
L 3113 0 
L 2416 1153 
Q 2338 1284 2266 1387 
Q 2194 1491 2120 1564 
Q 2047 1638 1967 1677 
Q 1888 1716 1794 1716 
L 1522 1716 
L 1522 0 
L 513 0 
L 513 4481 
L 2113 4481 
Q 3744 4481 3744 3263 
Q 3744 3028 3672 2829 
Q 3600 2631 3469 2472 
Q 3338 2313 3152 2197 
Q 2966 2081 2738 2016 
L 2738 2003 
Q 2838 1972 2931 1901 
Q 3025 1831 3112 1737 
Q 3200 1644 3279 1536 
Q 3359 1428 3425 1325 
L 4272 0 
z
M 1522 3725 
L 1522 2478 
L 1959 2478 
Q 2284 2478 2481 2666 
Q 2681 2856 2681 3138 
Q 2681 3725 1978 3725 
L 1522 3725 
z
" transform="scale(0.015625)"/>
      <path id="SegoeUI-Bold-66" d="M 2503 3981 
Q 2313 4056 2138 4056 
Q 1663 4056 1663 3541 
L 1663 3200 
L 2394 3200 
L 2394 2472 
L 1663 2472 
L 1663 0 
L 678 0 
L 678 2472 
L 141 2472 
L 141 3200 
L 678 3200 
L 678 3597 
Q 678 4144 1034 4478 
Q 1391 4813 2003 4813 
Q 2303 4813 2503 4750 
L 2503 3981 
z
" transform="scale(0.015625)"/>
     </defs>
     <use xlink:href="#SegoeUI-Bold-54"/>
     <use xlink:href="#SegoeUI-Bold-72" x="51.09375"/>
     <use xlink:href="#SegoeUI-Bold-69" x="91.263672"/>
     <use xlink:href="#SegoeUI-Bold-e1" x="119.681641"/>
     <use xlink:href="#SegoeUI-Bold-6e" x="173.490234"/>
     <use xlink:href="#SegoeUI-Bold-67" x="233.988281"/>
     <use xlink:href="#SegoeUI-Bold-75" x="295.902344"/>
     <use xlink:href="#SegoeUI-Bold-6c" x="356.400391"/>
     <use xlink:href="#SegoeUI-Bold-6f" x="384.818359"/>
     <use xlink:href="#SegoeUI-Bold-73" x="445.951172"/>
     <use xlink:href="#SegoeUI-Bold-20" x="489.945312"/>
     <use xlink:href="#SegoeUI-Bold-64" x="517.533203"/>
     <use xlink:href="#SegoeUI-Bold-65" x="579.447266"/>
     <use xlink:href="#SegoeUI-Bold-20" x="633.548828"/>
     <use xlink:href="#SegoeUI-Bold-52" x="661.136719"/>
     <use xlink:href="#SegoeUI-Bold-65" x="723.919922"/>
     <use xlink:href="#SegoeUI-Bold-66" x="778.021484"/>
     <use xlink:href="#SegoeUI-Bold-65" x="816.351562"/>
     <use xlink:href="#SegoeUI-Bold-72" x="870.453125"/>
     <use xlink:href="#SegoeUI-Bold-65" x="909.873047"/>
     <use xlink:href="#SegoeUI-Bold-6e" x="963.974609"/>
     <use xlink:href="#SegoeUI-Bold-63" x="1024.472656"/>
     <use xlink:href="#SegoeUI-Bold-69" x="1072.470703"/>
     <use xlink:href="#SegoeUI-Bold-61" x="1100.888672"/>
    </g>
   </g>
   <g id="text_63">
    <!-- Triángulo 45°-45°-90° -->
    <g style="fill: #39c5bb" transform="translate(749.463755 103.901227) scale(0.1 -0.1)">
     <defs>
      <path id="SegoeUI-Bold-34" d="M 2975 4481 
L 2975 1656 
L 3513 1656 
L 3513 919 
L 2975 919 
L 2975 0 
L 2075 0 
L 2075 919 
L 122 919 
L 122 1691 
Q 381 1981 659 2326 
Q 938 2672 1197 3037 
Q 1456 3403 1679 3773 
Q 1903 4144 2059 4481 
L 2975 4481 
z
M 1006 1656 
L 2075 1656 
L 2075 3222 
Q 1966 3019 1837 2811 
Q 1709 2603 1568 2401 
Q 1428 2200 1284 2011 
Q 1141 1822 1006 1656 
z
" transform="scale(0.015625)"/>
      <path id="SegoeUI-Bold-35" d="M 444 116 
L 444 959 
Q 903 678 1422 678 
Q 1813 678 2033 864 
Q 2253 1050 2253 1369 
Q 2253 2034 1313 2034 
Q 966 2034 513 1981 
L 681 4481 
L 3053 4481 
L 3053 3675 
L 1434 3675 
L 1372 2778 
Q 1613 2797 1788 2797 
Q 2478 2797 2868 2434 
Q 3259 2072 3259 1459 
Q 3259 781 2793 351 
Q 2328 -78 1531 -78 
Q 884 -78 444 116 
z
" transform="scale(0.015625)"/>
      <path id="SegoeUI-Bold-b0" d="M 1247 2797 
Q 875 2797 617 3055 
Q 359 3313 359 3681 
Q 359 4050 617 4303 
Q 875 4556 1247 4556 
Q 1616 4556 1877 4303 
Q 2138 4050 2138 3681 
Q 2138 3313 1877 3055 
Q 1616 2797 1247 2797 
z
M 1247 4084 
Q 1078 4084 961 3967 
Q 844 3850 844 3681 
Q 844 3513 961 3392 
Q 1078 3272 1247 3272 
Q 1413 3272 1531 3392 
Q 1650 3513 1650 3681 
Q 1650 3850 1533 3967 
Q 1416 4084 1247 4084 
z
" transform="scale(0.015625)"/>
      <path id="SegoeUI-Bold-2d" d="M 2156 1363 
L 447 1363 
L 447 2053 
L 2156 2053 
L 2156 1363 
z
" transform="scale(0.015625)"/>
      <path id="SegoeUI-Bold-39" d="M 3397 2456 
Q 3397 1859 3265 1389 
Q 3134 919 2882 594 
Q 2631 269 2268 95 
Q 1906 -78 1447 -78 
Q 897 -78 500 97 
L 500 909 
Q 853 678 1350 678 
Q 1859 678 2146 1025 
Q 2434 1372 2438 2028 
L 2419 2034 
Q 2122 1594 1516 1594 
Q 1241 1594 1008 1697 
Q 775 1800 604 1983 
Q 434 2166 339 2419 
Q 244 2672 244 2975 
Q 244 3328 359 3618 
Q 475 3909 683 4118 
Q 891 4328 1181 4442 
Q 1472 4556 1825 4556 
Q 2191 4556 2481 4414 
Q 2772 4272 2976 4003 
Q 3181 3734 3289 3343 
Q 3397 2953 3397 2456 
z
M 2400 2981 
Q 2400 3153 2356 3304 
Q 2313 3456 2234 3565 
Q 2156 3675 2043 3739 
Q 1931 3803 1797 3803 
Q 1669 3803 1561 3747 
Q 1453 3691 1375 3592 
Q 1297 3494 1253 3356 
Q 1209 3219 1209 3059 
Q 1209 2884 1253 2748 
Q 1297 2613 1376 2519 
Q 1456 2425 1568 2376 
Q 1681 2328 1819 2328 
Q 1950 2328 2056 2379 
Q 2163 2431 2239 2518 
Q 2316 2606 2358 2725 
Q 2400 2844 2400 2981 
z
" transform="scale(0.015625)"/>
      <path id="SegoeUI-Bold-30" d="M 1816 -78 
Q 216 -78 216 2169 
Q 216 3334 648 3945 
Q 1081 4556 1903 4556 
Q 3466 4556 3466 2272 
Q 3466 1134 3039 528 
Q 2613 -78 1816 -78 
z
M 1859 3803 
Q 1219 3803 1219 2194 
Q 1219 678 1847 678 
Q 2459 678 2459 2241 
Q 2459 3803 1859 3803 
z
" transform="scale(0.015625)"/>
     </defs>
     <use xlink:href="#SegoeUI-Bold-54"/>
     <use xlink:href="#SegoeUI-Bold-72" x="51.09375"/>
     <use xlink:href="#SegoeUI-Bold-69" x="91.263672"/>
     <use xlink:href="#SegoeUI-Bold-e1" x="119.681641"/>
     <use xlink:href="#SegoeUI-Bold-6e" x="173.490234"/>
     <use xlink:href="#SegoeUI-Bold-67" x="233.988281"/>
     <use xlink:href="#SegoeUI-Bold-75" x="295.902344"/>
     <use xlink:href="#SegoeUI-Bold-6c" x="356.400391"/>
     <use xlink:href="#SegoeUI-Bold-6f" x="384.818359"/>
     <use xlink:href="#SegoeUI-Bold-20" x="445.951172"/>
     <use xlink:href="#SegoeUI-Bold-34" x="473.539062"/>
     <use xlink:href="#SegoeUI-Bold-35" x="531.058594"/>
     <use xlink:href="#SegoeUI-Bold-b0" x="588.578125"/>
     <use xlink:href="#SegoeUI-Bold-2d" x="626.566406"/>
     <use xlink:href="#SegoeUI-Bold-34" x="666.996094"/>
     <use xlink:href="#SegoeUI-Bold-35" x="724.515625"/>
     <use xlink:href="#SegoeUI-Bold-b0" x="782.035156"/>
     <use xlink:href="#SegoeUI-Bold-2d" x="820.023438"/>
     <use xlink:href="#SegoeUI-Bold-39" x="860.453125"/>
     <use xlink:href="#SegoeUI-Bold-30" x="917.972656"/>
     <use xlink:href="#SegoeUI-Bold-b0" x="975.492188"/>
    </g>
   </g>
   <g id="text_64">
    <!-- 1 -->
    <g style="fill: #374151" transform="translate(722.181567 263.501814) scale(0.1 -0.1)">
     <use xlink:href="#SegoeUI-31"/>
    </g>
   </g>
   <g id="text_65">
    <!-- 1 -->
    <g style="fill: #374151" transform="translate(791.776324 186.453255) scale(0.1 -0.1)">
     <use xlink:href="#SegoeUI-31"/>
    </g>
   </g>
   <g id="text_66">
    <!-- √2 -->
    <g style="fill: #39c5bb" transform="translate(709.806432 176.119972) rotate(-45) scale(0.1 -0.1)">
     <defs>
      <path id="SegoeUI-Bold-221a" d="M 3738 4738 
L 2463 0 
L 1850 0 
L 850 2278 
L 281 2278 
L 281 2803 
L 1375 2803 
L 2131 1031 
L 3122 4738 
L 3738 4738 
z
" transform="scale(0.015625)"/>
      <path id="SegoeUI-Bold-32" d="M 1341 819 
L 3241 819 
L 3241 0 
L 259 0 
L 259 338 
Q 259 681 375 954 
Q 491 1228 666 1445 
Q 841 1663 1048 1830 
Q 1256 1997 1444 2131 
Q 1641 2272 1789 2400 
Q 1938 2528 2039 2654 
Q 2141 2781 2191 2911 
Q 2241 3041 2241 3188 
Q 2241 3475 2078 3622 
Q 1916 3769 1581 3769 
Q 1003 3769 475 3309 
L 475 4178 
Q 1059 4556 1794 4556 
Q 2134 4556 2404 4467 
Q 2675 4378 2862 4212 
Q 3050 4047 3148 3811 
Q 3247 3575 3247 3284 
Q 3247 2975 3151 2734 
Q 3056 2494 2898 2297 
Q 2741 2100 2534 1936 
Q 2328 1772 2106 1619 
Q 1956 1513 1817 1408 
Q 1678 1303 1572 1201 
Q 1466 1100 1403 1003 
Q 1341 906 1341 819 
z
" transform="scale(0.015625)"/>
     </defs>
     <use xlink:href="#SegoeUI-Bold-221a"/>
     <use xlink:href="#SegoeUI-Bold-32" x="64.990234"/>
    </g>
   </g>
   <g id="text_67">
    <!-- 45° -->
    <g style="fill: #f59e0b" transform="translate(687.245942 235.984471) scale(0.09 -0.09)">
     <use xlink:href="#SegoeUI-34"/>
     <use xlink:href="#SegoeUI-35" x="53.90625"/>
     <use xlink:href="#SegoeUI-b0" x="107.8125"/>
    </g>
   </g>
   <g id="text_68">
    <!-- 45° -->
    <g style="fill: #f59e0b" transform="translate(766.689032 131.418569) scale(0.09 -0.09)">
     <use xlink:href="#SegoeUI-34"/>
     <use xlink:href="#SegoeUI-35" x="53.90625"/>
     <use xlink:href="#SegoeUI-b0" x="107.8125"/>
    </g>
   </g>
   <g id="text_69">
    <!-- Proporciones: -->
    <g style="fill: #374151" transform="translate(904.669137 169.942849) scale(0.09 -0.09)">
     <defs>
      <path id="SegoeUI-Bold-50" d="M 1522 1544 
L 1522 0 
L 513 0 
L 513 4481 
L 2094 4481 
Q 3788 4481 3788 3053 
Q 3788 2378 3302 1961 
Q 2816 1544 2003 1544 
L 1522 1544 
z
M 1522 3706 
L 1522 2309 
L 1919 2309 
Q 2725 2309 2725 3016 
Q 2725 3706 1919 3706 
L 1522 3706 
z
" transform="scale(0.015625)"/>
      <path id="SegoeUI-Bold-70" d="M 1416 372 
L 1403 372 
L 1403 -1472 
L 416 -1472 
L 416 3200 
L 1403 3200 
L 1403 2719 
L 1416 2719 
Q 1781 3278 2444 3278 
Q 3066 3278 3405 2851 
Q 3744 2425 3744 1691 
Q 3744 891 3348 406 
Q 2953 -78 2297 -78 
Q 1719 -78 1416 372 
z
M 1388 1684 
L 1388 1428 
Q 1388 1097 1563 887 
Q 1738 678 2022 678 
Q 2359 678 2545 939 
Q 2731 1200 2731 1678 
Q 2731 2522 2075 2522 
Q 1772 2522 1580 2292 
Q 1388 2063 1388 1684 
z
" transform="scale(0.015625)"/>
      <path id="SegoeUI-Bold-3a" d="M 856 2209 
Q 613 2209 450 2357 
Q 288 2506 288 2725 
Q 288 2950 455 3094 
Q 622 3238 872 3238 
Q 1125 3238 1286 3092 
Q 1447 2947 1447 2725 
Q 1447 2497 1283 2353 
Q 1119 2209 856 2209 
z
M 856 -78 
Q 613 -78 450 72 
Q 288 222 288 441 
Q 288 666 455 809 
Q 622 953 872 953 
Q 1125 953 1286 808 
Q 1447 663 1447 441 
Q 1447 213 1283 67 
Q 1119 -78 856 -78 
z
" transform="scale(0.015625)"/>
     </defs>
     <use xlink:href="#SegoeUI-Bold-50"/>
     <use xlink:href="#SegoeUI-Bold-72" x="61.425781"/>
     <use xlink:href="#SegoeUI-Bold-6f" x="100.845703"/>
     <use xlink:href="#SegoeUI-Bold-70" x="161.978516"/>
     <use xlink:href="#SegoeUI-Bold-6f" x="223.990234"/>
     <use xlink:href="#SegoeUI-Bold-72" x="285.123047"/>
     <use xlink:href="#SegoeUI-Bold-63" x="324.542969"/>
     <use xlink:href="#SegoeUI-Bold-69" x="372.541016"/>
     <use xlink:href="#SegoeUI-Bold-6f" x="400.958984"/>
     <use xlink:href="#SegoeUI-Bold-6e" x="462.091797"/>
     <use xlink:href="#SegoeUI-Bold-65" x="522.589844"/>
     <use xlink:href="#SegoeUI-Bold-73" x="576.691406"/>
     <use xlink:href="#SegoeUI-Bold-3a" x="620.685547"/>
    </g>
   </g>
   <g id="text_70">
    <!-- 1 : 1 : √2 -->
    <g style="fill: #39c5bb" transform="translate(904.669137 202.96366) scale(0.1 -0.1)">
     <defs>
      <path id="SegoeUI-20" transform="scale(0.015625)"/>
      <path id="SegoeUI-3a" d="M 697 2575 
Q 553 2575 451 2678 
Q 350 2781 350 2925 
Q 350 3069 451 3169 
Q 553 3269 697 3269 
Q 844 3269 947 3169 
Q 1050 3069 1050 2925 
Q 1050 2781 947 2678 
Q 844 2575 697 2575 
z
M 697 -69 
Q 553 -69 451 34 
Q 350 138 350 281 
Q 350 425 451 529 
Q 553 634 697 634 
Q 844 634 947 529 
Q 1050 425 1050 281 
Q 1050 138 947 34 
Q 844 -69 697 -69 
z
" transform="scale(0.015625)"/>
     </defs>
     <use xlink:href="#SegoeUI-31"/>
     <use xlink:href="#SegoeUI-20" x="53.90625"/>
     <use xlink:href="#SegoeUI-3a" x="81.298828"/>
     <use xlink:href="#SegoeUI-20" x="102.978516"/>
     <use xlink:href="#SegoeUI-31" x="130.371094"/>
     <use xlink:href="#SegoeUI-20" x="184.277344"/>
     <use xlink:href="#SegoeUI-3a" x="211.669922"/>
     <use xlink:href="#SegoeUI-20" x="233.349609"/>
     <use xlink:href="#SegoeUI-221a" x="260.742188"/>
     <use xlink:href="#SegoeUI-32" x="325.732422"/>
    </g>
   </g>
   <g id="text_71">
    <!-- Triángulo 30°-60°-90° -->
    <g style="fill: #e12885" transform="translate(749.463755 324.039968) scale(0.1 -0.1)">
     <defs>
      <path id="SegoeUI-Bold-33" d="M 366 147 
L 366 1006 
Q 816 678 1416 678 
Q 1794 678 2005 840 
Q 2216 1003 2216 1294 
Q 2216 1594 1955 1756 
Q 1694 1919 1238 1919 
L 822 1919 
L 822 2675 
L 1206 2675 
Q 2081 2675 2081 3256 
Q 2081 3803 1409 3803 
Q 959 3803 534 3513 
L 534 4319 
Q 1006 4556 1634 4556 
Q 2322 4556 2705 4247 
Q 3088 3938 3088 3444 
Q 3088 2566 2197 2344 
L 2197 2328 
Q 2672 2269 2947 1983 
Q 3222 1697 3222 1281 
Q 3222 653 2762 287 
Q 2303 -78 1494 -78 
Q 800 -78 366 147 
z
" transform="scale(0.015625)"/>
      <path id="SegoeUI-Bold-36" d="M 3469 1491 
Q 3469 1159 3353 871 
Q 3238 584 3031 373 
Q 2825 163 2540 42 
Q 2256 -78 1919 -78 
Q 1541 -78 1242 62 
Q 944 203 737 470 
Q 531 738 422 1125 
Q 313 1513 313 2003 
Q 313 2581 455 3051 
Q 597 3522 861 3856 
Q 1125 4191 1500 4373 
Q 1875 4556 2344 4556 
Q 2863 4556 3150 4434 
L 3150 3609 
Q 2809 3803 2406 3803 
Q 2156 3803 1953 3706 
Q 1750 3609 1604 3431 
Q 1459 3253 1376 3001 
Q 1294 2750 1288 2441 
L 1306 2441 
Q 1625 2881 2247 2881 
Q 2525 2881 2750 2781 
Q 2975 2681 3134 2498 
Q 3294 2316 3381 2059 
Q 3469 1803 3469 1491 
z
M 2503 1428 
Q 2503 2150 1913 2150 
Q 1778 2150 1668 2100 
Q 1559 2050 1481 1959 
Q 1403 1869 1361 1745 
Q 1319 1622 1319 1472 
Q 1319 1306 1362 1162 
Q 1406 1019 1486 911 
Q 1566 803 1675 740 
Q 1784 678 1919 678 
Q 2053 678 2161 733 
Q 2269 788 2345 886 
Q 2422 984 2462 1123 
Q 2503 1263 2503 1428 
z
" transform="scale(0.015625)"/>
     </defs>
     <use xlink:href="#SegoeUI-Bold-54"/>
     <use xlink:href="#SegoeUI-Bold-72" x="51.09375"/>
     <use xlink:href="#SegoeUI-Bold-69" x="91.263672"/>
     <use xlink:href="#SegoeUI-Bold-e1" x="119.681641"/>
     <use xlink:href="#SegoeUI-Bold-6e" x="173.490234"/>
     <use xlink:href="#SegoeUI-Bold-67" x="233.988281"/>
     <use xlink:href="#SegoeUI-Bold-75" x="295.902344"/>
     <use xlink:href="#SegoeUI-Bold-6c" x="356.400391"/>
     <use xlink:href="#SegoeUI-Bold-6f" x="384.818359"/>
     <use xlink:href="#SegoeUI-Bold-20" x="445.951172"/>
     <use xlink:href="#SegoeUI-Bold-33" x="473.539062"/>
     <use xlink:href="#SegoeUI-Bold-30" x="531.058594"/>
     <use xlink:href="#SegoeUI-Bold-b0" x="588.578125"/>
     <use xlink:href="#SegoeUI-Bold-2d" x="626.566406"/>
     <use xlink:href="#SegoeUI-Bold-36" x="666.996094"/>
     <use xlink:href="#SegoeUI-Bold-30" x="724.515625"/>
     <use xlink:href="#SegoeUI-Bold-b0" x="782.035156"/>
     <use xlink:href="#SegoeUI-Bold-2d" x="820.023438"/>
     <use xlink:href="#SegoeUI-Bold-39" x="860.453125"/>
     <use xlink:href="#SegoeUI-Bold-30" x="917.972656"/>
     <use xlink:href="#SegoeUI-Bold-b0" x="975.492188"/>
    </g>
   </g>
   <g id="text_72">
    <!-- √3 -->
    <g style="fill: #374151" transform="translate(718.932348 511.157898) scale(0.1 -0.1)">
     <use xlink:href="#SegoeUI-221a"/>
     <use xlink:href="#SegoeUI-33" x="64.990234"/>
    </g>
   </g>
   <g id="text_73">
    <!-- 1 -->
    <g style="fill: #374151" transform="translate(812.682401 423.102401) scale(0.1 -0.1)">
     <use xlink:href="#SegoeUI-31"/>
    </g>
   </g>
   <g id="text_74">
    <!-- 2 -->
    <g style="fill: #e12885" transform="translate(707.45677 407.079571) rotate(-38) scale(0.1 -0.1)">
     <use xlink:href="#SegoeUI-Bold-32"/>
    </g>
   </g>
   <g id="text_75">
    <!-- 30° -->
    <g style="fill: #f59e0b" transform="translate(670.52108 483.640555) scale(0.09 -0.09)">
     <use xlink:href="#SegoeUI-33"/>
     <use xlink:href="#SegoeUI-30" x="53.90625"/>
     <use xlink:href="#SegoeUI-b0" x="107.8125"/>
    </g>
   </g>
   <g id="text_76">
    <!-- 60° -->
    <g style="fill: #f59e0b" transform="translate(783.413894 362.564248) scale(0.09 -0.09)">
     <use xlink:href="#SegoeUI-36"/>
     <use xlink:href="#SegoeUI-30" x="53.90625"/>
     <use xlink:href="#SegoeUI-b0" x="107.8125"/>
    </g>
   </g>
   <g id="text_77">
    <!-- Proporciones: -->
    <g style="fill: #374151" transform="translate(862.856984 390.08159) scale(0.09 -0.09)">
     <use xlink:href="#SegoeUI-Bold-50"/>
     <use xlink:href="#SegoeUI-Bold-72" x="61.425781"/>
     <use xlink:href="#SegoeUI-Bold-6f" x="100.845703"/>
     <use xlink:href="#SegoeUI-Bold-70" x="161.978516"/>
     <use xlink:href="#SegoeUI-Bold-6f" x="223.990234"/>
     <use xlink:href="#SegoeUI-Bold-72" x="285.123047"/>
     <use xlink:href="#SegoeUI-Bold-63" x="324.542969"/>
     <use xlink:href="#SegoeUI-Bold-69" x="372.541016"/>
     <use xlink:href="#SegoeUI-Bold-6f" x="400.958984"/>
     <use xlink:href="#SegoeUI-Bold-6e" x="462.091797"/>
     <use xlink:href="#SegoeUI-Bold-65" x="522.589844"/>
     <use xlink:href="#SegoeUI-Bold-73" x="576.691406"/>
     <use xlink:href="#SegoeUI-Bold-3a" x="620.685547"/>
    </g>
   </g>
   <g id="text_78">
    <!-- 1 : √3 : 2 -->
    <g style="fill: #e12885" transform="translate(862.856984 423.102401) scale(0.1 -0.1)">
     <use xlink:href="#SegoeUI-31"/>
     <use xlink:href="#SegoeUI-20" x="53.90625"/>
     <use xlink:href="#SegoeUI-3a" x="81.298828"/>
     <use xlink:href="#SegoeUI-20" x="102.978516"/>
     <use xlink:href="#SegoeUI-221a" x="130.371094"/>
     <use xlink:href="#SegoeUI-33" x="195.361328"/>
     <use xlink:href="#SegoeUI-20" x="249.267578"/>
     <use xlink:href="#SegoeUI-3a" x="276.660156"/>
     <use xlink:href="#SegoeUI-20" x="298.339844"/>
     <use xlink:href="#SegoeUI-32" x="325.732422"/>
    </g>
   </g>
   <g id="text_79">
    <!-- (opuesto 30° : opuesto 60° -->
    <g style="fill: #6b7280" transform="translate(862.856984 467.130149) scale(0.08 -0.08)">
     <defs>
      <path id="SegoeUI-28" d="M 1863 -1019 
L 1406 -1019 
Q 438 88 438 1709 
Q 438 3338 1406 4481 
L 1869 4481 
Q 888 3294 888 1716 
Q 888 150 1863 -1019 
z
" transform="scale(0.015625)"/>
      <path id="SegoeUI-6f" d="M 1856 -75 
Q 1147 -75 723 373 
Q 300 822 300 1563 
Q 300 2369 740 2822 
Q 1181 3275 1931 3275 
Q 2647 3275 3048 2834 
Q 3450 2394 3450 1613 
Q 3450 847 3017 386 
Q 2584 -75 1856 -75 
z
M 1894 2844 
Q 1400 2844 1112 2508 
Q 825 2172 825 1581 
Q 825 1013 1115 684 
Q 1406 356 1894 356 
Q 2391 356 2658 678 
Q 2925 1000 2925 1594 
Q 2925 2194 2658 2519 
Q 2391 2844 1894 2844 
z
" transform="scale(0.015625)"/>
      <path id="SegoeUI-70" d="M 1044 463 
L 1031 463 
L 1031 -1472 
L 519 -1472 
L 519 3200 
L 1031 3200 
L 1031 2638 
L 1044 2638 
Q 1422 3275 2150 3275 
Q 2769 3275 3116 2845 
Q 3463 2416 3463 1694 
Q 3463 891 3072 408 
Q 2681 -75 2003 -75 
Q 1381 -75 1044 463 
z
M 1031 1753 
L 1031 1306 
Q 1031 909 1289 632 
Q 1547 356 1944 356 
Q 2409 356 2673 712 
Q 2938 1069 2938 1703 
Q 2938 2238 2691 2541 
Q 2444 2844 2022 2844 
Q 1575 2844 1303 2533 
Q 1031 2222 1031 1753 
z
" transform="scale(0.015625)"/>
      <path id="SegoeUI-75" d="M 3106 0 
L 2594 0 
L 2594 506 
L 2581 506 
Q 2263 -75 1594 -75 
Q 450 -75 450 1288 
L 450 3200 
L 959 3200 
L 959 1369 
Q 959 356 1734 356 
Q 2109 356 2351 632 
Q 2594 909 2594 1356 
L 2594 3200 
L 3106 3200 
L 3106 0 
z
" transform="scale(0.015625)"/>
      <path id="SegoeUI-65" d="M 3091 1472 
L 831 1472 
Q 844 938 1119 647 
Q 1394 356 1875 356 
Q 2416 356 2869 713 
L 2869 231 
Q 2447 -75 1753 -75 
Q 1075 -75 687 361 
Q 300 797 300 1588 
Q 300 2334 723 2804 
Q 1147 3275 1775 3275 
Q 2403 3275 2747 2869 
Q 3091 2463 3091 1741 
L 3091 1472 
z
M 2566 1906 
Q 2563 2350 2352 2597 
Q 2141 2844 1766 2844 
Q 1403 2844 1150 2584 
Q 897 2325 838 1906 
L 2566 1906 
z
" transform="scale(0.015625)"/>
      <path id="SegoeUI-73" d="M 325 116 
L 325 666 
Q 744 356 1247 356 
Q 1922 356 1922 806 
Q 1922 934 1864 1023 
Q 1806 1113 1707 1181 
Q 1609 1250 1476 1304 
Q 1344 1359 1191 1419 
Q 978 1503 817 1589 
Q 656 1675 548 1783 
Q 441 1891 386 2028 
Q 331 2166 331 2350 
Q 331 2575 434 2748 
Q 538 2922 709 3039 
Q 881 3156 1101 3215 
Q 1322 3275 1556 3275 
Q 1972 3275 2300 3131 
L 2300 2613 
Q 1947 2844 1488 2844 
Q 1344 2844 1228 2811 
Q 1113 2778 1030 2718 
Q 947 2659 901 2576 
Q 856 2494 856 2394 
Q 856 2269 901 2184 
Q 947 2100 1034 2034 
Q 1122 1969 1247 1916 
Q 1372 1863 1531 1800 
Q 1744 1719 1912 1633 
Q 2081 1547 2200 1439 
Q 2319 1331 2383 1190 
Q 2447 1050 2447 856 
Q 2447 619 2342 444 
Q 2238 269 2063 153 
Q 1888 38 1659 -18 
Q 1431 -75 1181 -75 
Q 688 -75 325 116 
z
" transform="scale(0.015625)"/>
      <path id="SegoeUI-74" d="M 2003 31 
Q 1822 -69 1525 -69 
Q 684 -69 684 869 
L 684 2763 
L 134 2763 
L 134 3200 
L 684 3200 
L 684 3981 
L 1197 4147 
L 1197 3200 
L 2003 3200 
L 2003 2763 
L 1197 2763 
L 1197 959 
Q 1197 638 1306 500 
Q 1416 363 1669 363 
Q 1863 363 2003 469 
L 2003 31 
z
" transform="scale(0.015625)"/>
     </defs>
     <use xlink:href="#SegoeUI-28"/>
     <use xlink:href="#SegoeUI-6f" x="30.175781"/>
     <use xlink:href="#SegoeUI-70" x="88.769531"/>
     <use xlink:href="#SegoeUI-75" x="147.558594"/>
     <use xlink:href="#SegoeUI-65" x="204.150391"/>
     <use xlink:href="#SegoeUI-73" x="256.445312"/>
     <use xlink:href="#SegoeUI-74" x="298.876953"/>
     <use xlink:href="#SegoeUI-6f" x="332.013672"/>
     <use xlink:href="#SegoeUI-20" x="390.607422"/>
     <use xlink:href="#SegoeUI-33" x="418"/>
     <use xlink:href="#SegoeUI-30" x="471.90625"/>
     <use xlink:href="#SegoeUI-b0" x="525.8125"/>
     <use xlink:href="#SegoeUI-20" x="563.507812"/>
     <use xlink:href="#SegoeUI-3a" x="590.900391"/>
     <use xlink:href="#SegoeUI-20" x="612.580078"/>
     <use xlink:href="#SegoeUI-6f" x="639.972656"/>
     <use xlink:href="#SegoeUI-70" x="698.566406"/>
     <use xlink:href="#SegoeUI-75" x="757.355469"/>
     <use xlink:href="#SegoeUI-65" x="813.947266"/>
     <use xlink:href="#SegoeUI-73" x="866.242188"/>
     <use xlink:href="#SegoeUI-74" x="908.673828"/>
     <use xlink:href="#SegoeUI-6f" x="941.810547"/>
     <use xlink:href="#SegoeUI-20" x="1000.404297"/>
     <use xlink:href="#SegoeUI-36" x="1027.796875"/>
     <use xlink:href="#SegoeUI-30" x="1081.703125"/>
     <use xlink:href="#SegoeUI-b0" x="1135.609375"/>
    </g>
   </g>
   <g id="text_80">
    <!--  : hipotenusa) -->
    <g style="fill: #6b7280" transform="translate(862.856984 494.647492) scale(0.08 -0.08)">
     <defs>
      <path id="SegoeUI-68" d="M 3175 0 
L 2663 0 
L 2663 1844 
Q 2663 2844 1919 2844 
Q 1544 2844 1287 2555 
Q 1031 2266 1031 1813 
L 1031 0 
L 519 0 
L 519 4738 
L 1031 4738 
L 1031 2669 
L 1044 2669 
Q 1413 3275 2094 3275 
Q 3175 3275 3175 1972 
L 3175 0 
z
" transform="scale(0.015625)"/>
      <path id="SegoeUI-69" d="M 781 4013 
Q 644 4013 547 4106 
Q 450 4200 450 4344 
Q 450 4488 547 4583 
Q 644 4678 781 4678 
Q 922 4678 1020 4583 
Q 1119 4488 1119 4344 
Q 1119 4206 1020 4109 
Q 922 4013 781 4013 
z
M 1031 0 
L 519 0 
L 519 3200 
L 1031 3200 
L 1031 0 
z
" transform="scale(0.015625)"/>
      <path id="SegoeUI-6e" d="M 3175 0 
L 2663 0 
L 2663 1825 
Q 2663 2844 1919 2844 
Q 1534 2844 1282 2555 
Q 1031 2266 1031 1825 
L 1031 0 
L 519 0 
L 519 3200 
L 1031 3200 
L 1031 2669 
L 1044 2669 
Q 1406 3275 2094 3275 
Q 2619 3275 2897 2936 
Q 3175 2597 3175 1956 
L 3175 0 
z
" transform="scale(0.015625)"/>
      <path id="SegoeUI-61" d="M 2809 0 
L 2297 0 
L 2297 500 
L 2284 500 
Q 1950 -75 1300 -75 
Q 822 -75 551 178 
Q 281 431 281 850 
Q 281 1747 1338 1894 
L 2297 2028 
Q 2297 2844 1638 2844 
Q 1059 2844 594 2450 
L 594 2975 
Q 1066 3275 1681 3275 
Q 2809 3275 2809 2081 
L 2809 0 
z
M 2297 1619 
L 1525 1513 
Q 1169 1463 987 1336 
Q 806 1209 806 888 
Q 806 653 973 504 
Q 1141 356 1419 356 
Q 1800 356 2048 623 
Q 2297 891 2297 1300 
L 2297 1619 
z
" transform="scale(0.015625)"/>
      <path id="SegoeUI-29" d="M 531 -1019 
L 75 -1019 
Q 1050 150 1050 1716 
Q 1050 3294 69 4481 
L 531 4481 
Q 1506 3338 1506 1709 
Q 1506 88 531 -1019 
z
" transform="scale(0.015625)"/>
     </defs>
     <use xlink:href="#SegoeUI-20"/>
     <use xlink:href="#SegoeUI-3a" x="27.392578"/>
     <use xlink:href="#SegoeUI-20" x="49.072266"/>
     <use xlink:href="#SegoeUI-68" x="76.464844"/>
     <use xlink:href="#SegoeUI-69" x="133.056641"/>
     <use xlink:href="#SegoeUI-70" x="157.275391"/>
     <use xlink:href="#SegoeUI-6f" x="216.064453"/>
     <use xlink:href="#SegoeUI-74" x="274.658203"/>
     <use xlink:href="#SegoeUI-65" x="307.794922"/>
     <use xlink:href="#SegoeUI-6e" x="360.089844"/>
     <use xlink:href="#SegoeUI-75" x="416.681641"/>
     <use xlink:href="#SegoeUI-73" x="473.273438"/>
     <use xlink:href="#SegoeUI-61" x="515.705078"/>
     <use xlink:href="#SegoeUI-29" x="566.583984"/>
    </g>
   </g>
  </g>
  <g id="text_81">
   <!-- Valores Exactos de las Funciones Trigonométricas -->
   <g style="fill: #2c2f33" transform="translate(346.717416 17.564375) scale(0.14 -0.14)">
    <defs>
     <path id="SegoeUI-Bold-56" d="M 4244 4481 
L 2700 0 
L 1556 0 
L 31 4481 
L 1119 4481 
L 2053 1363 
Q 2128 1109 2144 916 
L 2163 916 
Q 2184 1125 2259 1375 
L 3188 4481 
L 4244 4481 
z
" transform="scale(0.015625)"/>
     <path id="SegoeUI-Bold-45" d="M 3200 0 
L 513 0 
L 513 4481 
L 3097 4481 
L 3097 3659 
L 1522 3659 
L 1522 2663 
L 2988 2663 
L 2988 1844 
L 1522 1844 
L 1522 819 
L 3200 819 
L 3200 0 
z
" transform="scale(0.015625)"/>
     <path id="SegoeUI-Bold-78" d="M 3506 3200 
L 2450 1650 
L 3500 0 
L 2363 0 
L 1900 863 
Q 1844 966 1766 1153 
L 1753 1153 
Q 1706 1022 1625 872 
L 1159 0 
L 25 0 
L 1106 1594 
L 91 3200 
L 1234 3200 
L 1691 2303 
Q 1781 2125 1819 2003 
L 1831 2003 
Q 1881 2150 1966 2309 
L 2431 3200 
L 3506 3200 
z
" transform="scale(0.015625)"/>
     <path id="SegoeUI-Bold-46" d="M 3103 3659 
L 1522 3659 
L 1522 2559 
L 2975 2559 
L 2975 1741 
L 1522 1741 
L 1522 0 
L 513 0 
L 513 4481 
L 3103 4481 
L 3103 3659 
z
" transform="scale(0.015625)"/>
     <path id="SegoeUI-Bold-6d" d="M 5497 0 
L 4513 0 
L 4513 1825 
Q 4513 2522 4000 2522 
Q 3756 2522 3603 2312 
Q 3450 2103 3450 1791 
L 3450 0 
L 2463 0 
L 2463 1844 
Q 2463 2522 1959 2522 
Q 1706 2522 1554 2322 
Q 1403 2122 1403 1778 
L 1403 0 
L 416 0 
L 416 3200 
L 1403 3200 
L 1403 2700 
L 1416 2700 
Q 1569 2956 1845 3117 
Q 2122 3278 2450 3278 
Q 3128 3278 3378 2681 
Q 3744 3278 4453 3278 
Q 5497 3278 5497 1991 
L 5497 0 
z
" transform="scale(0.015625)"/>
     <path id="SegoeUI-Bold-e9" d="M 3291 1319 
L 1203 1319 
Q 1253 622 2081 622 
Q 2609 622 3009 872 
L 3009 159 
Q 2566 -78 1856 -78 
Q 1081 -78 653 351 
Q 225 781 225 1550 
Q 225 2347 687 2812 
Q 1150 3278 1825 3278 
Q 2525 3278 2908 2862 
Q 3291 2447 3291 1734 
L 3291 1319 
z
M 2375 1925 
Q 2375 2613 1819 2613 
Q 1581 2613 1407 2416 
Q 1234 2219 1197 1925 
L 2375 1925 
z
M 2879 4716 
L 1900 3706 
L 1188 3706 
L 2000 4716 
L 2879 4716 
z
" transform="scale(0.015625)"/>
    </defs>
    <use xlink:href="#SegoeUI-Bold-56"/>
    <use xlink:href="#SegoeUI-Bold-61" x="59.199219"/>
    <use xlink:href="#SegoeUI-Bold-6c" x="113.007812"/>
    <use xlink:href="#SegoeUI-Bold-6f" x="141.425781"/>
    <use xlink:href="#SegoeUI-Bold-72" x="202.558594"/>
    <use xlink:href="#SegoeUI-Bold-65" x="241.978516"/>
    <use xlink:href="#SegoeUI-Bold-73" x="296.080078"/>
    <use xlink:href="#SegoeUI-Bold-20" x="340.074219"/>
    <use xlink:href="#SegoeUI-Bold-45" x="367.662109"/>
    <use xlink:href="#SegoeUI-Bold-78" x="420.884766"/>
    <use xlink:href="#SegoeUI-Bold-61" x="476.109375"/>
    <use xlink:href="#SegoeUI-Bold-63" x="529.917969"/>
    <use xlink:href="#SegoeUI-Bold-74" x="577.916016"/>
    <use xlink:href="#SegoeUI-Bold-6f" x="616.457031"/>
    <use xlink:href="#SegoeUI-Bold-73" x="677.589844"/>
    <use xlink:href="#SegoeUI-Bold-20" x="721.583984"/>
    <use xlink:href="#SegoeUI-Bold-64" x="749.171875"/>
    <use xlink:href="#SegoeUI-Bold-65" x="811.085938"/>
    <use xlink:href="#SegoeUI-Bold-20" x="865.1875"/>
    <use xlink:href="#SegoeUI-Bold-6c" x="892.775391"/>
    <use xlink:href="#SegoeUI-Bold-61" x="921.193359"/>
    <use xlink:href="#SegoeUI-Bold-73" x="975.001953"/>
    <use xlink:href="#SegoeUI-Bold-20" x="1018.996094"/>
    <use xlink:href="#SegoeUI-Bold-46" x="1046.583984"/>
    <use xlink:href="#SegoeUI-Bold-75" x="1098.585938"/>
    <use xlink:href="#SegoeUI-Bold-6e" x="1159.083984"/>
    <use xlink:href="#SegoeUI-Bold-63" x="1219.582031"/>
    <use xlink:href="#SegoeUI-Bold-69" x="1267.580078"/>
    <use xlink:href="#SegoeUI-Bold-6f" x="1295.998047"/>
    <use xlink:href="#SegoeUI-Bold-6e" x="1357.130859"/>
    <use xlink:href="#SegoeUI-Bold-65" x="1417.628906"/>
    <use xlink:href="#SegoeUI-Bold-73" x="1471.730469"/>
    <use xlink:href="#SegoeUI-Bold-20" x="1515.724609"/>
    <use xlink:href="#SegoeUI-Bold-54" x="1543.3125"/>
    <use xlink:href="#SegoeUI-Bold-72" x="1594.40625"/>
    <use xlink:href="#SegoeUI-Bold-69" x="1634.576172"/>
    <use xlink:href="#SegoeUI-Bold-67" x="1662.994141"/>
    <use xlink:href="#SegoeUI-Bold-6f" x="1724.908203"/>
    <use xlink:href="#SegoeUI-Bold-6e" x="1786.041016"/>
    <use xlink:href="#SegoeUI-Bold-6f" x="1846.539062"/>
    <use xlink:href="#SegoeUI-Bold-6d" x="1907.671875"/>
    <use xlink:href="#SegoeUI-Bold-e9" x="1999.273438"/>
    <use xlink:href="#SegoeUI-Bold-74" x="2053.375"/>
    <use xlink:href="#SegoeUI-Bold-72" x="2092.291016"/>
    <use xlink:href="#SegoeUI-Bold-69" x="2132.460938"/>
    <use xlink:href="#SegoeUI-Bold-63" x="2160.878906"/>
    <use xlink:href="#SegoeUI-Bold-61" x="2208.876953"/>
    <use xlink:href="#SegoeUI-Bold-73" x="2262.685547"/>
   </g>
  </g>
 </g>
 <defs>
  <clipPath id="pc6190915ae">
   <rect x="7.2" y="26.852667" width="543.55799" height="550.346852"/>
  </clipPath>
  <clipPath id="pd1d4ae0f51">
   <rect x="591.07799" y="26.852667" width="418.12153" height="550.346852"/>
  </clipPath>
 </defs>
</svg>
