<?xml version="1.0" encoding="utf-8" standalone="no"?>
<!DOCTYPE svg PUBLIC "-//W3C//DTD SVG 1.1//EN"
  "http://www.w3.org/Graphics/SVG/1.1/DTD/svg11.dtd">
<svg xmlns:xlink="http://www.w3.org/1999/xlink" width="872.39952pt" height="728.39952pt" viewBox="0 0 872.39952 728.39952" xmlns="http://www.w3.org/2000/svg" version="1.1">
 <metadata>
  <rdf:RDF xmlns:dc="http://purl.org/dc/elements/1.1/" xmlns:cc="http://creativecommons.org/ns#" xmlns:rdf="http://www.w3.org/1999/02/22-rdf-syntax-ns#">
   <cc:Work>
    <dc:type rdf:resource="http://purl.org/dc/dcmitype/StillImage"/>
    <dc:date>2026-04-11T16:11:44.319777</dc:date>
    <dc:format>image/svg+xml</dc:format>
    <dc:creator>
     <cc:Agent>
      <dc:title>Matplotlib v3.8.4, https://matplotlib.org/</dc:title>
     </cc:Agent>
    </dc:creator>
   </cc:Work>
  </rdf:RDF>
 </metadata>
 <defs>
  <style type="text/css">*{stroke-linejoin: round; stroke-linecap: butt}</style>
 </defs>
 <g id="figure_1">
  <g id="patch_1">
   <path d="M 0 728.39952 
L 872.39952 728.39952 
L 872.39952 0 
L 0 0 
z
" style="fill: #ffffff"/>
  </g>
  <g id="axes_1">
   <g id="patch_2">
    <path d="M 185.175732 495.363041 
L 687.223788 495.363041 
L 687.223788 26.784855 
L 185.175732 26.784855 
z
" style="fill: #ffffff"/>
   </g>
   <g id="line2d_1">
    <path d="M 185.175732 261.073948 
L 687.223788 261.073948 
" clip-path="url(#p922d9c892e)" style="fill: none; stroke: #9ca3af; stroke-width: 1.5; stroke-linecap: square"/>
   </g>
   <g id="line2d_2">
    <path d="M 419.464825 495.363041 
L 419.464825 26.784855 
" clip-path="url(#p922d9c892e)" style="fill: none; stroke: #9ca3af; stroke-width: 1.5; stroke-linecap: square"/>
   </g>
   <g id="matplotlib.axis_1">
    <g id="text_1">
     <!-- x -->
     <g style="fill: #2c2f33" transform="translate(433.445385 508.246791) scale(0.12 -0.12)">
      <defs>
       <path id="SegoeUI-78" d="M 2856 3200 
L 1781 1581 
L 2838 0 
L 2241 0 
L 1613 1038 
Q 1553 1134 1472 1281 
L 1459 1281 
Q 1444 1253 1313 1038 
L 672 0 
L 81 0 
L 1172 1569 
L 128 3200 
L 725 3200 
L 1344 2106 
Q 1413 1984 1478 1856 
L 1491 1856 
L 2291 3200 
L 2856 3200 
z
" transform="scale(0.015625)"/>
      </defs>
      <use xlink:href="#SegoeUI-78"/>
     </g>
    </g>
   </g>
   <g id="matplotlib.axis_2">
    <g id="text_2">
     <!-- y -->
     <g style="fill: #2c2f33" transform="translate(178.351982 263.977386) rotate(-90) scale(0.12 -0.12)">
      <defs>
       <path id="SegoeUI-79" d="M 3066 3200 
L 1594 -513 
Q 1200 -1506 488 -1506 
Q 288 -1506 153 -1466 
L 153 -1006 
Q 319 -1063 456 -1063 
Q 844 -1063 1038 -600 
L 1294 6 
L 44 3200 
L 613 3200 
L 1478 738 
Q 1494 691 1544 494 
L 1563 494 
Q 1578 569 1625 731 
L 2534 3200 
L 3066 3200 
z
" transform="scale(0.015625)"/>
      </defs>
      <use xlink:href="#SegoeUI-79"/>
     </g>
    </g>
   </g>
   <g id="line2d_3">
    <path d="M 586.814177 261.073948 
L 586.477249 250.459996 
L 585.46782 239.888783 
L 583.789956 229.402875 
L 581.450413 219.044495 
L 578.458611 208.855353 
L 574.826597 198.876477 
L 570.568996 189.148048 
L 565.702952 179.709239 
L 560.248059 170.598058 
L 554.226281 161.85119 
L 547.661866 153.503858 
L 540.581247 145.589673 
L 533.012935 138.140502 
L 524.987405 131.18634 
L 516.536973 124.75519 
L 507.695665 118.872948 
L 498.499083 113.563299 
L 488.984258 108.847623 
L 479.189503 104.744909 
L 469.154257 101.271677 
L 458.91893 98.441912 
L 448.524735 96.267009 
L 438.013526 94.755725 
L 427.427628 93.914146 
L 416.809666 93.745661 
L 406.202396 94.250947 
L 395.648529 95.427971 
L 385.190562 97.271993 
L 374.870605 99.775587 
L 364.730213 102.928673 
L 354.810218 106.718554 
L 345.150565 111.12997 
L 335.790149 116.145158 
L 326.766661 121.743922 
L 318.116436 127.90372 
L 309.874305 134.599746 
L 302.073457 141.80504 
L 294.745302 149.490588 
L 287.919349 157.625442 
L 281.623082 166.176847 
L 275.881856 175.110369 
L 270.718788 184.390037 
L 266.154668 193.978483 
L 262.207873 203.837099 
L 258.894297 213.926187 
L 256.227282 224.205123 
L 254.217566 234.632517 
L 252.873243 245.166381 
L 252.199726 255.764299 
L 252.199726 266.383597 
L 252.873243 276.981515 
L 254.217566 287.515379 
L 256.227282 297.942773 
L 258.894297 308.221709 
L 262.207873 318.310798 
L 266.154668 328.169414 
L 270.718788 337.75786 
L 275.881856 347.037527 
L 281.623082 355.971049 
L 287.919349 364.522454 
L 294.745302 372.657308 
L 302.073457 380.342856 
L 309.874305 387.54815 
L 318.116436 394.244177 
L 326.766661 400.403974 
L 335.790149 406.002738 
L 345.150565 411.017926 
L 354.810218 415.429342 
L 364.730213 419.219223 
L 374.870605 422.372309 
L 385.190562 424.875903 
L 395.648529 426.719925 
L 406.202396 427.896949 
L 416.809666 428.402236 
L 427.427628 428.23375 
L 438.013526 427.392171 
L 448.524735 425.880888 
L 458.91893 423.705985 
L 469.154257 420.87622 
L 479.189503 417.402987 
L 488.984258 413.300273 
L 498.499083 408.584598 
L 507.695665 403.274948 
L 516.536973 397.392706 
L 524.987405 390.961556 
L 533.012935 384.007395 
L 540.581247 376.558224 
L 547.661866 368.644038 
L 554.226281 360.296706 
L 560.248059 351.549839 
L 565.702952 342.438657 
L 570.568996 332.999848 
L 574.826597 323.271419 
L 578.458611 313.292543 
L 581.450413 303.103401 
L 583.789956 292.745021 
L 585.46782 282.259113 
L 586.477249 271.6879 
L 586.814177 261.073948 
" clip-path="url(#p922d9c892e)" style="fill: none; stroke: #39c5bb; stroke-width: 2.5; stroke-linecap: square"/>
   </g>
   <g id="line2d_4">
    <path d="M 461.302163 261.073948 
L 461.283222 259.815174 
L 461.226416 258.557539 
L 461.131798 257.302183 
L 460.999452 256.050242 
L 460.829498 254.80285 
L 460.62209 253.561136 
L 460.377417 252.326225 
L 460.095699 251.099234 
L 459.777192 249.881275 
L 459.422183 248.67345 
L 459.030995 247.476853 
L 458.603982 246.292568 
L 458.141531 245.121667 
L 457.644059 243.965209 
L 457.112018 242.824243 
L 456.545889 241.699801 
L 455.946184 240.592902 
L 455.313448 239.504547 
L 454.648253 238.435722 
L 453.9512 237.387395 
L 453.222922 236.360516 
L 452.464077 235.356013 
L 451.675353 234.374796 
L 450.857464 233.417754 
L 450.01115 232.485754 
L 449.137178 231.579639 
L 448.23634 230.700229 
L 447.309449 229.848322 
L 446.357347 229.024688 
" clip-path="url(#p922d9c892e)" style="fill: none; stroke: #f59e0b; stroke-width: 2; stroke-linecap: square"/>
   </g>
   <g id="line2d_5">
    <defs>
     <path id="mf94dbe4447" d="M 0 3 
C 0.795609 3 1.55874 2.683901 2.12132 2.12132 
C 2.683901 1.55874 3 0.795609 3 0 
C 3 -0.795609 2.683901 -1.55874 2.12132 -2.12132 
C 1.55874 -2.683901 0.795609 -3 0 -3 
C -0.795609 -3 -1.55874 -2.683901 -2.12132 -2.12132 
C -2.683901 -1.55874 -3 -0.795609 -3 0 
C -3 0.795609 -2.683901 1.55874 -2.12132 2.12132 
C -1.55874 2.683901 -0.795609 3 0 3 
z
" style="stroke: #39c5bb"/>
    </defs>
    <g clip-path="url(#p922d9c892e)">
     <use xlink:href="#mf94dbe4447" x="586.814177" y="261.073948" style="fill: #39c5bb; stroke: #39c5bb"/>
    </g>
   </g>
   <g id="line2d_6">
    <g clip-path="url(#p922d9c892e)">
     <use xlink:href="#mf94dbe4447" x="252.115473" y="261.073948" style="fill: #39c5bb; stroke: #39c5bb"/>
    </g>
   </g>
   <g id="line2d_7">
    <g clip-path="url(#p922d9c892e)">
     <use xlink:href="#mf94dbe4447" x="419.464825" y="93.724596" style="fill: #39c5bb; stroke: #39c5bb"/>
    </g>
   </g>
   <g id="line2d_8">
    <g clip-path="url(#p922d9c892e)">
     <use xlink:href="#mf94dbe4447" x="419.464825" y="428.4233" style="fill: #39c5bb; stroke: #39c5bb"/>
    </g>
   </g>
   <g id="line2d_9">
    <defs>
     <path id="m79c257df66" d="M 0 1 
C 0.265203 1 0.51958 0.894634 0.707107 0.707107 
C 0.894634 0.51958 1 0.265203 1 0 
C 1 -0.265203 0.894634 -0.51958 0.707107 -0.707107 
C 0.51958 -0.894634 0.265203 -1 0 -1 
C -0.265203 -1 -0.51958 -0.894634 -0.707107 -0.707107 
C -0.894634 -0.51958 -1 -0.265203 -1 0 
C -1 0.265203 -0.894634 0.51958 -0.707107 0.707107 
C -0.51958 0.894634 -0.265203 1 0 1 
z
" style="stroke: #d1d5db"/>
    </defs>
    <g clip-path="url(#p922d9c892e)">
     <use xlink:href="#m79c257df66" x="564.393615" y="177.399272" style="fill: #d1d5db; stroke: #d1d5db"/>
    </g>
   </g>
   <g id="line2d_10">
    <g clip-path="url(#p922d9c892e)">
     <use xlink:href="#m79c257df66" x="537.798687" y="142.740086" style="fill: #d1d5db; stroke: #d1d5db"/>
    </g>
   </g>
   <g id="line2d_11">
    <g clip-path="url(#p922d9c892e)">
     <use xlink:href="#m79c257df66" x="503.139501" y="116.145158" style="fill: #d1d5db; stroke: #d1d5db"/>
    </g>
   </g>
   <g id="line2d_12">
    <g clip-path="url(#p922d9c892e)">
     <use xlink:href="#m79c257df66" x="419.464825" y="93.724596" style="fill: #d1d5db; stroke: #d1d5db"/>
    </g>
   </g>
   <g id="line2d_13">
    <g clip-path="url(#p922d9c892e)">
     <use xlink:href="#m79c257df66" x="335.790149" y="116.145158" style="fill: #d1d5db; stroke: #d1d5db"/>
    </g>
   </g>
   <g id="line2d_14">
    <g clip-path="url(#p922d9c892e)">
     <use xlink:href="#m79c257df66" x="301.130963" y="142.740086" style="fill: #d1d5db; stroke: #d1d5db"/>
    </g>
   </g>
   <g id="line2d_15">
    <g clip-path="url(#p922d9c892e)">
     <use xlink:href="#m79c257df66" x="274.536034" y="177.399272" style="fill: #d1d5db; stroke: #d1d5db"/>
    </g>
   </g>
   <g id="line2d_16">
    <g clip-path="url(#p922d9c892e)">
     <use xlink:href="#m79c257df66" x="252.115473" y="261.073948" style="fill: #d1d5db; stroke: #d1d5db"/>
    </g>
   </g>
   <g id="line2d_17">
    <g clip-path="url(#p922d9c892e)">
     <use xlink:href="#m79c257df66" x="274.536034" y="344.748624" style="fill: #d1d5db; stroke: #d1d5db"/>
    </g>
   </g>
   <g id="line2d_18">
    <g clip-path="url(#p922d9c892e)">
     <use xlink:href="#m79c257df66" x="301.130963" y="379.40781" style="fill: #d1d5db; stroke: #d1d5db"/>
    </g>
   </g>
   <g id="line2d_19">
    <g clip-path="url(#p922d9c892e)">
     <use xlink:href="#m79c257df66" x="335.790149" y="406.002738" style="fill: #d1d5db; stroke: #d1d5db"/>
    </g>
   </g>
   <g id="line2d_20">
    <g clip-path="url(#p922d9c892e)">
     <use xlink:href="#m79c257df66" x="419.464825" y="428.4233" style="fill: #d1d5db; stroke: #d1d5db"/>
    </g>
   </g>
   <g id="line2d_21">
    <g clip-path="url(#p922d9c892e)">
     <use xlink:href="#m79c257df66" x="503.139501" y="406.002738" style="fill: #d1d5db; stroke: #d1d5db"/>
    </g>
   </g>
   <g id="line2d_22">
    <g clip-path="url(#p922d9c892e)">
     <use xlink:href="#m79c257df66" x="537.798687" y="379.40781" style="fill: #d1d5db; stroke: #d1d5db"/>
    </g>
   </g>
   <g id="line2d_23">
    <g clip-path="url(#p922d9c892e)">
     <use xlink:href="#m79c257df66" x="564.393615" y="344.748624" style="fill: #d1d5db; stroke: #d1d5db"/>
    </g>
   </g>
   <g id="line2d_24">
    <path d="M 419.464825 261.073948 
L 527.034915 132.876907 
" clip-path="url(#p922d9c892e)" style="fill: none; stroke: #f59e0b; stroke-width: 2.5; stroke-linecap: square"/>
   </g>
   <g id="text_3">
    <!-- P(cos θ, sin θ) -->
    <g style="fill: #f59e0b" transform="translate(540.422863 119.488959) scale(0.11 -0.11)">
     <defs>
      <path id="SegoeUI-Bold-50" d="M 1522 1544 
L 1522 0 
L 513 0 
L 513 4481 
L 2094 4481 
Q 3788 4481 3788 3053 
Q 3788 2378 3302 1961 
Q 2816 1544 2003 1544 
L 1522 1544 
z
M 1522 3706 
L 1522 2309 
L 1919 2309 
Q 2725 2309 2725 3016 
Q 2725 3706 1919 3706 
L 1522 3706 
z
" transform="scale(0.015625)"/>
      <path id="SegoeUI-Bold-28" d="M 2309 -1019 
L 1503 -1019 
Q 494 94 494 1716 
Q 494 3281 1503 4481 
L 2303 4481 
Q 1356 3225 1356 1716 
Q 1356 206 2309 -1019 
z
" transform="scale(0.015625)"/>
      <path id="SegoeUI-Bold-63" d="M 2841 116 
Q 2506 -78 1875 -78 
Q 1138 -78 681 369 
Q 225 816 225 1522 
Q 225 2338 714 2808 
Q 1203 3278 2022 3278 
Q 2588 3278 2841 3128 
L 2841 2291 
Q 2531 2522 2150 2522 
Q 1725 2522 1476 2273 
Q 1228 2025 1228 1588 
Q 1228 1163 1465 920 
Q 1703 678 2119 678 
Q 2488 678 2841 909 
L 2841 116 
z
" transform="scale(0.015625)"/>
      <path id="SegoeUI-Bold-6f" d="M 1941 -78 
Q 1141 -78 683 370 
Q 225 819 225 1588 
Q 225 2381 700 2829 
Q 1175 3278 1984 3278 
Q 2781 3278 3234 2829 
Q 3688 2381 3688 1644 
Q 3688 847 3220 384 
Q 2753 -78 1941 -78 
z
M 1966 2522 
Q 1616 2522 1422 2281 
Q 1228 2041 1228 1600 
Q 1228 678 1972 678 
Q 2681 678 2681 1625 
Q 2681 2522 1966 2522 
z
" transform="scale(0.015625)"/>
      <path id="SegoeUI-Bold-73" d="M 206 84 
L 206 884 
Q 450 738 692 666 
Q 934 594 1150 594 
Q 1413 594 1564 666 
Q 1716 738 1716 884 
Q 1716 978 1647 1040 
Q 1578 1103 1470 1150 
Q 1363 1197 1234 1234 
Q 1106 1272 988 1319 
Q 797 1391 651 1473 
Q 506 1556 407 1665 
Q 309 1775 257 1919 
Q 206 2063 206 2259 
Q 206 2528 323 2722 
Q 441 2916 636 3039 
Q 831 3163 1082 3220 
Q 1334 3278 1606 3278 
Q 1819 3278 2037 3245 
Q 2256 3213 2469 3150 
L 2469 2388 
Q 2281 2497 2067 2551 
Q 1853 2606 1647 2606 
Q 1550 2606 1464 2589 
Q 1378 2572 1312 2539 
Q 1247 2506 1209 2454 
Q 1172 2403 1172 2338 
Q 1172 2250 1228 2187 
Q 1284 2125 1375 2079 
Q 1466 2034 1577 1998 
Q 1688 1963 1797 1925 
Q 1994 1856 2153 1775 
Q 2313 1694 2427 1584 
Q 2541 1475 2602 1328 
Q 2663 1181 2663 978 
Q 2663 694 2539 492 
Q 2416 291 2211 164 
Q 2006 38 1739 -20 
Q 1472 -78 1184 -78 
Q 656 -78 206 84 
z
" transform="scale(0.015625)"/>
      <path id="SegoeUI-Bold-20" transform="scale(0.015625)"/>
      <path id="SegoeUI-Bold-3b8" d="M 1938 -78 
Q 1134 -78 679 564 
Q 225 1206 225 2359 
Q 225 3513 692 4158 
Q 1159 4803 1988 4803 
Q 2800 4803 3244 4165 
Q 3688 3528 3688 2425 
Q 3688 1247 3228 584 
Q 2769 -78 1938 -78 
z
M 2669 2744 
Q 2600 4041 1959 4041 
Q 1322 4041 1241 2744 
L 2669 2744 
z
M 2669 2031 
L 1238 2031 
Q 1303 684 1966 684 
Q 2606 684 2669 2031 
z
" transform="scale(0.015625)"/>
      <path id="SegoeUI-Bold-2c" d="M 1350 788 
L 891 -794 
L 122 -794 
L 441 788 
L 1350 788 
z
" transform="scale(0.015625)"/>
      <path id="SegoeUI-Bold-69" d="M 916 3706 
Q 666 3706 506 3854 
Q 347 4003 347 4219 
Q 347 4441 506 4581 
Q 666 4722 916 4722 
Q 1169 4722 1326 4581 
Q 1484 4441 1484 4219 
Q 1484 3994 1326 3850 
Q 1169 3706 916 3706 
z
M 1403 0 
L 416 0 
L 416 3200 
L 1403 3200 
L 1403 0 
z
" transform="scale(0.015625)"/>
      <path id="SegoeUI-Bold-6e" d="M 3506 0 
L 2522 0 
L 2522 1778 
Q 2522 2522 1991 2522 
Q 1734 2522 1568 2325 
Q 1403 2128 1403 1825 
L 1403 0 
L 416 0 
L 416 3200 
L 1403 3200 
L 1403 2694 
L 1416 2694 
Q 1769 3278 2444 3278 
Q 3506 3278 3506 1959 
L 3506 0 
z
" transform="scale(0.015625)"/>
      <path id="SegoeUI-Bold-29" d="M 856 -1019 
L 56 -1019 
Q 1013 200 1013 1716 
Q 1013 3219 56 4481 
L 863 4481 
Q 1875 3278 1875 1716 
Q 1875 106 856 -1019 
z
" transform="scale(0.015625)"/>
     </defs>
     <use xlink:href="#SegoeUI-Bold-50"/>
     <use xlink:href="#SegoeUI-Bold-28" x="61.425781"/>
     <use xlink:href="#SegoeUI-Bold-63" x="98.339844"/>
     <use xlink:href="#SegoeUI-Bold-6f" x="146.337891"/>
     <use xlink:href="#SegoeUI-Bold-73" x="207.470703"/>
     <use xlink:href="#SegoeUI-Bold-20" x="251.464844"/>
     <use xlink:href="#SegoeUI-Bold-3b8" x="279.052734"/>
     <use xlink:href="#SegoeUI-Bold-2c" x="340.234375"/>
     <use xlink:href="#SegoeUI-Bold-20" x="367.333984"/>
     <use xlink:href="#SegoeUI-Bold-73" x="394.921875"/>
     <use xlink:href="#SegoeUI-Bold-69" x="438.916016"/>
     <use xlink:href="#SegoeUI-Bold-6e" x="467.333984"/>
     <use xlink:href="#SegoeUI-Bold-20" x="527.832031"/>
     <use xlink:href="#SegoeUI-Bold-3b8" x="555.419922"/>
     <use xlink:href="#SegoeUI-Bold-29" x="616.601562"/>
    </g>
   </g>
   <g id="line2d_25">
    <path d="M 527.034915 261.073948 
L 527.034915 132.876907 
" clip-path="url(#p922d9c892e)" style="fill: none; stroke-dasharray: 7.4,3.2; stroke-dashoffset: 0; stroke: #1f2937; stroke-width: 2"/>
   </g>
   <g id="text_4">
    <!-- cos θ -->
    <g style="fill: #4b5563" transform="translate(458.734557 281.15587) scale(0.12 -0.12)">
     <use xlink:href="#SegoeUI-Bold-63"/>
     <use xlink:href="#SegoeUI-Bold-6f" x="47.998047"/>
     <use xlink:href="#SegoeUI-Bold-73" x="109.130859"/>
     <use xlink:href="#SegoeUI-Bold-20" x="153.125"/>
     <use xlink:href="#SegoeUI-Bold-3b8" x="180.712891"/>
    </g>
   </g>
   <g id="line2d_26">
    <path d="M 419.464825 132.876907 
L 527.034915 132.876907 
" clip-path="url(#p922d9c892e)" style="fill: none; stroke-dasharray: 7.4,3.2; stroke-dashoffset: 0; stroke: #1f2937; stroke-width: 2"/>
   </g>
   <g id="text_5">
    <!-- sin θ -->
    <g style="fill: #e12885" transform="translate(397.424297 199.735427) rotate(-90) scale(0.12 -0.12)">
     <use xlink:href="#SegoeUI-Bold-73"/>
     <use xlink:href="#SegoeUI-Bold-69" x="43.994141"/>
     <use xlink:href="#SegoeUI-Bold-6e" x="72.412109"/>
     <use xlink:href="#SegoeUI-Bold-20" x="132.910156"/>
     <use xlink:href="#SegoeUI-Bold-3b8" x="160.498047"/>
    </g>
   </g>
   <g id="text_6">
    <!-- θ -->
    <g style="fill: #f59e0b" transform="translate(478.037098 240.992026) scale(0.14 -0.14)">
     <use xlink:href="#SegoeUI-Bold-3b8"/>
    </g>
   </g>
   <g id="text_7">
    <!-- O -->
    <g style="fill: #2c2f33" transform="translate(406.076877 281.15587) scale(0.12 -0.12)">
     <defs>
      <path id="SegoeUI-Bold-4f" d="M 2406 -78 
Q 1444 -78 837 548 
Q 231 1175 231 2181 
Q 231 3244 847 3900 
Q 1463 4556 2478 4556 
Q 3438 4556 4030 3928 
Q 4622 3300 4622 2272 
Q 4622 1216 4008 569 
Q 3394 -78 2406 -78 
z
M 2450 3688 
Q 1919 3688 1606 3289 
Q 1294 2891 1294 2234 
Q 1294 1569 1606 1181 
Q 1919 794 2425 794 
Q 2947 794 3253 1170 
Q 3559 1547 3559 2216 
Q 3559 2913 3262 3300 
Q 2966 3688 2450 3688 
z
" transform="scale(0.015625)"/>
     </defs>
     <use xlink:href="#SegoeUI-Bold-4f"/>
    </g>
   </g>
   <g id="text_8">
    <!-- (1, 0) -->
    <g style="fill: #6b7280" transform="translate(586.814177 274.461896) scale(0.1 -0.1)">
     <defs>
      <path id="SegoeUI-28" d="M 1863 -1019 
L 1406 -1019 
Q 438 88 438 1709 
Q 438 3338 1406 4481 
L 1869 4481 
Q 888 3294 888 1716 
Q 888 150 1863 -1019 
z
" transform="scale(0.015625)"/>
      <path id="SegoeUI-31" d="M 2263 0 
L 1750 0 
L 1750 3872 
Q 1691 3813 1577 3736 
Q 1463 3659 1320 3584 
Q 1178 3509 1020 3443 
Q 863 3378 713 3341 
L 713 3859 
Q 881 3906 1070 3986 
Q 1259 4066 1442 4164 
Q 1625 4263 1787 4370 
Q 1950 4478 2069 4581 
L 2263 4581 
L 2263 0 
z
" transform="scale(0.015625)"/>
      <path id="SegoeUI-2c" d="M 988 713 
L 488 -825 
L 122 -825 
L 488 713 
L 988 713 
z
" transform="scale(0.015625)"/>
      <path id="SegoeUI-20" transform="scale(0.015625)"/>
      <path id="SegoeUI-30" d="M 3188 2259 
Q 3188 1697 3086 1262 
Q 2984 828 2792 529 
Q 2600 231 2320 76 
Q 2041 -78 1684 -78 
Q 1347 -78 1083 70 
Q 819 219 637 503 
Q 456 788 362 1202 
Q 269 1616 269 2150 
Q 269 2738 367 3188 
Q 466 3638 656 3942 
Q 847 4247 1130 4401 
Q 1413 4556 1778 4556 
Q 3188 4556 3188 2259 
z
M 2663 2209 
Q 2663 4122 1753 4122 
Q 794 4122 794 2175 
Q 794 359 1734 359 
Q 2663 359 2663 2209 
z
" transform="scale(0.015625)"/>
      <path id="SegoeUI-29" d="M 531 -1019 
L 75 -1019 
Q 1050 150 1050 1716 
Q 1050 3294 69 4481 
L 531 4481 
Q 1506 3338 1506 1709 
Q 1506 88 531 -1019 
z
" transform="scale(0.015625)"/>
     </defs>
     <use xlink:href="#SegoeUI-28"/>
     <use xlink:href="#SegoeUI-31" x="30.175781"/>
     <use xlink:href="#SegoeUI-2c" x="84.082031"/>
     <use xlink:href="#SegoeUI-20" x="105.761719"/>
     <use xlink:href="#SegoeUI-30" x="133.154297"/>
     <use xlink:href="#SegoeUI-29" x="187.060547"/>
    </g>
   </g>
   <g id="text_9">
    <!-- (-1, 0) -->
    <g style="fill: #6b7280" transform="translate(226.393598 274.461896) scale(0.1 -0.1)">
     <defs>
      <path id="SegoeUI-2d" d="M 2156 1581 
L 450 1581 
L 450 1984 
L 2156 1984 
L 2156 1581 
z
" transform="scale(0.015625)"/>
     </defs>
     <use xlink:href="#SegoeUI-28"/>
     <use xlink:href="#SegoeUI-2d" x="30.175781"/>
     <use xlink:href="#SegoeUI-31" x="70.166016"/>
     <use xlink:href="#SegoeUI-2c" x="124.072266"/>
     <use xlink:href="#SegoeUI-20" x="145.751953"/>
     <use xlink:href="#SegoeUI-30" x="173.144531"/>
     <use xlink:href="#SegoeUI-29" x="227.050781"/>
    </g>
   </g>
   <g id="text_10">
    <!-- (0, 1) -->
    <g style="fill: #6b7280" transform="translate(408.603106 80.336648) scale(0.1 -0.1)">
     <use xlink:href="#SegoeUI-28"/>
     <use xlink:href="#SegoeUI-30" x="30.175781"/>
     <use xlink:href="#SegoeUI-2c" x="84.082031"/>
     <use xlink:href="#SegoeUI-20" x="105.761719"/>
     <use xlink:href="#SegoeUI-31" x="133.154297"/>
     <use xlink:href="#SegoeUI-29" x="187.060547"/>
    </g>
   </g>
   <g id="text_11">
    <!-- (0, -1) -->
    <g style="fill: #6b7280" transform="translate(406.603887 453.525703) scale(0.1 -0.1)">
     <use xlink:href="#SegoeUI-28"/>
     <use xlink:href="#SegoeUI-30" x="30.175781"/>
     <use xlink:href="#SegoeUI-2c" x="84.082031"/>
     <use xlink:href="#SegoeUI-20" x="105.761719"/>
     <use xlink:href="#SegoeUI-2d" x="133.154297"/>
     <use xlink:href="#SegoeUI-31" x="173.144531"/>
     <use xlink:href="#SegoeUI-29" x="227.050781"/>
    </g>
   </g>
   <g id="text_12">
    <!-- π/6 -->
    <g style="fill: #9ca3af" transform="translate(579.909809 166.889321) scale(0.08 -0.08)">
     <defs>
      <path id="SegoeUI-3c0" d="M 3747 2784 
L 3053 2784 
L 3053 850 
Q 3053 413 3369 413 
Q 3475 413 3644 472 
L 3644 34 
Q 3453 -38 3263 -38 
Q 2538 -38 2538 828 
L 2538 2784 
L 1322 2784 
L 1322 875 
Q 1322 275 1222 0 
L 700 0 
Q 813 272 813 875 
L 813 2784 
Q 428 2775 53 2506 
L 53 2975 
Q 288 3200 819 3200 
L 3747 3200 
L 3747 2784 
z
" transform="scale(0.015625)"/>
      <path id="SegoeUI-2f" d="M 2541 4481 
L 391 -744 
L -88 -744 
L 2056 4481 
L 2541 4481 
z
" transform="scale(0.015625)"/>
      <path id="SegoeUI-36" d="M 3194 1422 
Q 3194 1094 3087 819 
Q 2981 544 2793 344 
Q 2606 144 2347 33 
Q 2088 -78 1784 -78 
Q 1447 -78 1180 62 
Q 913 203 727 467 
Q 541 731 444 1112 
Q 347 1494 347 1972 
Q 347 2556 476 3032 
Q 606 3509 845 3848 
Q 1084 4188 1421 4372 
Q 1759 4556 2175 4556 
Q 2638 4556 2919 4428 
L 2919 3944 
Q 2572 4122 2188 4122 
Q 1888 4122 1647 3987 
Q 1406 3853 1234 3608 
Q 1063 3363 970 3016 
Q 878 2669 878 2244 
L 891 2244 
Q 1200 2803 1913 2803 
Q 2206 2803 2442 2703 
Q 2678 2603 2845 2420 
Q 3013 2238 3103 1984 
Q 3194 1731 3194 1422 
z
M 2669 1356 
Q 2669 1591 2609 1778 
Q 2550 1966 2439 2097 
Q 2328 2228 2165 2298 
Q 2003 2369 1797 2369 
Q 1606 2369 1443 2297 
Q 1281 2225 1162 2101 
Q 1044 1978 976 1814 
Q 909 1650 909 1466 
Q 909 1234 975 1032 
Q 1041 831 1159 681 
Q 1278 531 1442 445 
Q 1606 359 1806 359 
Q 2000 359 2159 432 
Q 2319 506 2431 637 
Q 2544 769 2606 951 
Q 2669 1134 2669 1356 
z
" transform="scale(0.015625)"/>
     </defs>
     <use xlink:href="#SegoeUI-3c0"/>
     <use xlink:href="#SegoeUI-2f" x="62.695312"/>
     <use xlink:href="#SegoeUI-36" x="101.660156"/>
    </g>
   </g>
   <g id="text_13">
    <!-- π/4 -->
    <g style="fill: #9ca3af" transform="translate(549.325641 127.031257) scale(0.08 -0.08)">
     <defs>
      <path id="SegoeUI-34" d="M 2656 4481 
L 2656 1522 
L 3231 1522 
L 3231 1053 
L 2656 1053 
L 2656 0 
L 2150 0 
L 2150 1053 
L 44 1053 
L 44 1497 
Q 338 1828 638 2204 
Q 938 2581 1211 2968 
Q 1484 3356 1717 3742 
Q 1950 4128 2109 4481 
L 2656 4481 
z
M 622 1522 
L 2150 1522 
L 2150 3716 
Q 1916 3306 1706 2984 
Q 1497 2663 1308 2400 
Q 1119 2138 947 1925 
Q 775 1713 622 1522 
z
" transform="scale(0.015625)"/>
     </defs>
     <use xlink:href="#SegoeUI-3c0"/>
     <use xlink:href="#SegoeUI-2f" x="62.695312"/>
     <use xlink:href="#SegoeUI-34" x="101.660156"/>
    </g>
   </g>
   <g id="text_14">
    <!-- π/3 -->
    <g style="fill: #9ca3af" transform="translate(509.467577 96.447089) scale(0.08 -0.08)">
     <defs>
      <path id="SegoeUI-33" d="M 2978 1269 
Q 2978 966 2864 717 
Q 2750 469 2542 292 
Q 2334 116 2043 19 
Q 1753 -78 1403 -78 
Q 763 -78 384 166 
L 384 716 
Q 838 359 1422 359 
Q 1656 359 1845 418 
Q 2034 478 2170 590 
Q 2306 703 2379 862 
Q 2453 1022 2453 1222 
Q 2453 2100 1203 2100 
L 831 2100 
L 831 2534 
L 1184 2534 
Q 2291 2534 2291 3359 
Q 2291 4122 1447 4122 
Q 972 4122 556 3803 
L 556 4300 
Q 984 4556 1575 4556 
Q 1856 4556 2084 4478 
Q 2313 4400 2475 4259 
Q 2638 4119 2727 3922 
Q 2816 3725 2816 3488 
Q 2816 2603 1922 2350 
L 1922 2338 
Q 2150 2313 2344 2227 
Q 2538 2141 2678 2003 
Q 2819 1866 2898 1680 
Q 2978 1494 2978 1269 
z
" transform="scale(0.015625)"/>
     </defs>
     <use xlink:href="#SegoeUI-3c0"/>
     <use xlink:href="#SegoeUI-2f" x="62.695312"/>
     <use xlink:href="#SegoeUI-33" x="101.660156"/>
    </g>
   </g>
   <g id="text_15">
    <!-- π/2 -->
    <g style="fill: #9ca3af" transform="translate(413.2417 70.663443) scale(0.08 -0.08)">
     <defs>
      <path id="SegoeUI-32" d="M 2413 3306 
Q 2413 3513 2348 3666 
Q 2284 3819 2173 3920 
Q 2063 4022 1913 4072 
Q 1763 4122 1588 4122 
Q 1438 4122 1294 4081 
Q 1150 4041 1014 3969 
Q 878 3897 751 3797 
Q 625 3697 516 3575 
L 516 4125 
Q 731 4334 998 4445 
Q 1266 4556 1650 4556 
Q 1925 4556 2159 4476 
Q 2394 4397 2566 4244 
Q 2738 4091 2836 3866 
Q 2934 3641 2934 3350 
Q 2934 3084 2873 2868 
Q 2813 2653 2689 2462 
Q 2566 2272 2378 2097 
Q 2191 1922 1938 1741 
Q 1622 1516 1417 1356 
Q 1213 1197 1092 1058 
Q 972 919 923 780 
Q 875 641 875 459 
L 3106 459 
L 3106 0 
L 341 0 
L 341 222 
Q 341 509 403 728 
Q 466 947 609 1144 
Q 753 1341 986 1537 
Q 1219 1734 1556 1981 
Q 1800 2156 1964 2315 
Q 2128 2475 2228 2634 
Q 2328 2794 2370 2958 
Q 2413 3122 2413 3306 
z
" transform="scale(0.015625)"/>
     </defs>
     <use xlink:href="#SegoeUI-3c0"/>
     <use xlink:href="#SegoeUI-2f" x="62.695312"/>
     <use xlink:href="#SegoeUI-32" x="101.660156"/>
    </g>
   </g>
   <g id="text_16">
    <!-- 2π/3 -->
    <g style="fill: #9ca3af" transform="translate(314.859572 96.447089) scale(0.08 -0.08)">
     <use xlink:href="#SegoeUI-32"/>
     <use xlink:href="#SegoeUI-3c0" x="53.90625"/>
     <use xlink:href="#SegoeUI-2f" x="116.601562"/>
     <use xlink:href="#SegoeUI-33" x="155.566406"/>
    </g>
   </g>
   <g id="text_17">
    <!-- 3π/4 -->
    <g style="fill: #9ca3af" transform="translate(275.001509 127.031257) scale(0.08 -0.08)">
     <use xlink:href="#SegoeUI-33"/>
     <use xlink:href="#SegoeUI-3c0" x="53.90625"/>
     <use xlink:href="#SegoeUI-2f" x="116.601562"/>
     <use xlink:href="#SegoeUI-34" x="155.566406"/>
    </g>
   </g>
   <g id="text_18">
    <!-- 5π/6 -->
    <g style="fill: #9ca3af" transform="translate(244.417341 166.889321) scale(0.08 -0.08)">
     <defs>
      <path id="SegoeUI-35" d="M 3028 1369 
Q 3028 1041 2915 775 
Q 2803 509 2595 318 
Q 2388 128 2094 25 
Q 1800 -78 1441 -78 
Q 816 -78 513 109 
L 513 653 
Q 969 359 1447 359 
Q 1691 359 1886 431 
Q 2081 503 2218 631 
Q 2356 759 2429 940 
Q 2503 1122 2503 1338 
Q 2503 1775 2209 2023 
Q 1916 2272 1356 2272 
Q 1266 2272 1166 2269 
Q 1066 2266 966 2261 
Q 866 2256 770 2250 
Q 675 2244 597 2234 
L 750 4481 
L 2822 4481 
L 2822 4019 
L 1194 4019 
L 1103 2703 
Q 1203 2709 1315 2714 
Q 1428 2719 1516 2719 
Q 1872 2719 2153 2625 
Q 2434 2531 2629 2357 
Q 2825 2184 2926 1932 
Q 3028 1681 3028 1369 
z
" transform="scale(0.015625)"/>
     </defs>
     <use xlink:href="#SegoeUI-35"/>
     <use xlink:href="#SegoeUI-3c0" x="53.90625"/>
     <use xlink:href="#SegoeUI-2f" x="116.601562"/>
     <use xlink:href="#SegoeUI-36" x="155.566406"/>
    </g>
   </g>
   <g id="text_19">
    <!-- π -->
    <g style="fill: #9ca3af" transform="translate(224.504945 263.115198) scale(0.08 -0.08)">
     <use xlink:href="#SegoeUI-3c0"/>
    </g>
   </g>
   <g id="text_20">
    <!-- 7π/6 -->
    <g style="fill: #9ca3af" transform="translate(244.417341 359.341076) scale(0.08 -0.08)">
     <defs>
      <path id="SegoeUI-37" d="M 3156 4184 
Q 3053 4006 2908 3740 
Q 2763 3475 2600 3144 
Q 2438 2813 2269 2431 
Q 2100 2050 1953 1644 
Q 1806 1238 1695 820 
Q 1584 403 1534 0 
L 984 0 
Q 1041 400 1158 817 
Q 1275 1234 1423 1636 
Q 1572 2038 1737 2409 
Q 1903 2781 2059 3093 
Q 2216 3406 2345 3645 
Q 2475 3884 2553 4019 
L 306 4019 
L 306 4481 
L 3156 4481 
L 3156 4184 
z
" transform="scale(0.015625)"/>
     </defs>
     <use xlink:href="#SegoeUI-37"/>
     <use xlink:href="#SegoeUI-3c0" x="53.90625"/>
     <use xlink:href="#SegoeUI-2f" x="116.601562"/>
     <use xlink:href="#SegoeUI-36" x="155.566406"/>
    </g>
   </g>
   <g id="text_21">
    <!-- 5π/4 -->
    <g style="fill: #9ca3af" transform="translate(275.001509 399.199139) scale(0.08 -0.08)">
     <use xlink:href="#SegoeUI-35"/>
     <use xlink:href="#SegoeUI-3c0" x="53.90625"/>
     <use xlink:href="#SegoeUI-2f" x="116.601562"/>
     <use xlink:href="#SegoeUI-34" x="155.566406"/>
    </g>
   </g>
   <g id="text_22">
    <!-- 4π/3 -->
    <g style="fill: #9ca3af" transform="translate(314.859572 429.783307) scale(0.08 -0.08)">
     <use xlink:href="#SegoeUI-34"/>
     <use xlink:href="#SegoeUI-3c0" x="53.90625"/>
     <use xlink:href="#SegoeUI-2f" x="116.601562"/>
     <use xlink:href="#SegoeUI-33" x="155.566406"/>
    </g>
   </g>
   <g id="text_23">
    <!-- 3π/2 -->
    <g style="fill: #9ca3af" transform="translate(411.08545 455.566953) scale(0.08 -0.08)">
     <use xlink:href="#SegoeUI-33"/>
     <use xlink:href="#SegoeUI-3c0" x="53.90625"/>
     <use xlink:href="#SegoeUI-2f" x="116.601562"/>
     <use xlink:href="#SegoeUI-32" x="155.566406"/>
    </g>
   </g>
   <g id="text_24">
    <!-- 5π/3 -->
    <g style="fill: #9ca3af" transform="translate(507.311327 429.783307) scale(0.08 -0.08)">
     <use xlink:href="#SegoeUI-35"/>
     <use xlink:href="#SegoeUI-3c0" x="53.90625"/>
     <use xlink:href="#SegoeUI-2f" x="116.601562"/>
     <use xlink:href="#SegoeUI-33" x="155.566406"/>
    </g>
   </g>
   <g id="text_25">
    <!-- 7π/4 -->
    <g style="fill: #9ca3af" transform="translate(547.169391 399.199139) scale(0.08 -0.08)">
     <use xlink:href="#SegoeUI-37"/>
     <use xlink:href="#SegoeUI-3c0" x="53.90625"/>
     <use xlink:href="#SegoeUI-2f" x="116.601562"/>
     <use xlink:href="#SegoeUI-34" x="155.566406"/>
    </g>
   </g>
   <g id="text_26">
    <!-- 11π/6 -->
    <g style="fill: #9ca3af" transform="translate(575.597309 359.341076) scale(0.08 -0.08)">
     <use xlink:href="#SegoeUI-31"/>
     <use xlink:href="#SegoeUI-31" x="53.90625"/>
     <use xlink:href="#SegoeUI-3c0" x="107.8125"/>
     <use xlink:href="#SegoeUI-2f" x="170.507812"/>
     <use xlink:href="#SegoeUI-36" x="209.472656"/>
    </g>
   </g>
   <g id="text_27">
    <!-- I -->
    <g style="fill: #d1d5db" transform="translate(519.874436 143.929402) scale(0.16 -0.16)">
     <defs>
      <path id="SegoeUI-Bold-49" d="M 1522 0 
L 513 0 
L 513 4481 
L 1522 4481 
L 1522 0 
z
" transform="scale(0.015625)"/>
     </defs>
     <use xlink:href="#SegoeUI-Bold-49"/>
    </g>
   </g>
   <g id="text_28">
    <!-- II -->
    <g style="fill: #d1d5db" transform="translate(302.320278 143.929402) scale(0.16 -0.16)">
     <use xlink:href="#SegoeUI-Bold-49"/>
     <use xlink:href="#SegoeUI-Bold-49" x="31.689453"/>
    </g>
   </g>
   <g id="text_29">
    <!-- III -->
    <g style="fill: #d1d5db" transform="translate(302.320278 378.218495) scale(0.16 -0.16)">
     <use xlink:href="#SegoeUI-Bold-49"/>
     <use xlink:href="#SegoeUI-Bold-49" x="31.689453"/>
     <use xlink:href="#SegoeUI-Bold-49" x="63.378906"/>
    </g>
   </g>
   <g id="text_30">
    <!-- IV -->
    <g style="fill: #d1d5db" transform="translate(519.874436 378.218495) scale(0.16 -0.16)">
     <defs>
      <path id="SegoeUI-Bold-56" d="M 4244 4481 
L 2700 0 
L 1556 0 
L 31 4481 
L 1119 4481 
L 2053 1363 
Q 2128 1109 2144 916 
L 2163 916 
Q 2184 1125 2259 1375 
L 3188 4481 
L 4244 4481 
z
" transform="scale(0.015625)"/>
     </defs>
     <use xlink:href="#SegoeUI-Bold-49"/>
     <use xlink:href="#SegoeUI-Bold-56" x="31.689453"/>
    </g>
   </g>
   <g id="text_31">
    <g id="patch_3">
     <path d="M 486.701523 185.508247 
L 506.772264 161.588868 
L 492.528865 149.637237 
L 472.458123 173.556616 
z
" style="fill: #ffffff; opacity: 0.8"/>
    </g>
    <!-- r = 1 -->
    <g style="fill: #f59e0b" transform="translate(484.275333 178.303019) rotate(-50) scale(0.11 -0.11)">
     <defs>
      <path id="SegoeUI-72" d="M 2188 2681 
Q 2053 2784 1800 2784 
Q 1472 2784 1251 2475 
Q 1031 2166 1031 1631 
L 1031 0 
L 519 0 
L 519 3200 
L 1031 3200 
L 1031 2541 
L 1044 2541 
Q 1153 2878 1378 3067 
Q 1603 3256 1881 3256 
Q 2081 3256 2188 3213 
L 2188 2681 
z
" transform="scale(0.015625)"/>
      <path id="SegoeUI-3d" d="M 3663 2325 
L 725 2325 
L 725 2738 
L 3663 2738 
L 3663 2325 
z
M 3663 994 
L 725 994 
L 725 1406 
L 3663 1406 
L 3663 994 
z
" transform="scale(0.015625)"/>
     </defs>
     <use xlink:href="#SegoeUI-72"/>
     <use xlink:href="#SegoeUI-20" x="34.765625"/>
     <use xlink:href="#SegoeUI-3d" x="62.158203"/>
     <use xlink:href="#SegoeUI-20" x="130.566406"/>
     <use xlink:href="#SegoeUI-31" x="157.958984"/>
    </g>
   </g>
   <g id="line2d_27">
    <path d="M 419.464825 261.073948 
L 527.034915 261.073948 
" clip-path="url(#p922d9c892e)" style="fill: none; stroke: #4b5563; stroke-width: 3; stroke-linecap: square"/>
   </g>
   <g id="line2d_28">
    <path d="M 419.464825 261.073948 
L 419.464825 132.876907 
" clip-path="url(#p922d9c892e)" style="fill: none; stroke: #e12885; stroke-width: 3; stroke-linecap: square"/>
   </g>
   <g id="line2d_29">
    <defs>
     <path id="m20a02b05aa" d="M 0 5 
C 1.326016 5 2.597899 4.473168 3.535534 3.535534 
C 4.473168 2.597899 5 1.326016 5 0 
C 5 -1.326016 4.473168 -2.597899 3.535534 -3.535534 
C 2.597899 -4.473168 1.326016 -5 0 -5 
C -1.326016 -5 -2.597899 -4.473168 -3.535534 -3.535534 
C -4.473168 -2.597899 -5 -1.326016 -5 0 
C -5 1.326016 -4.473168 2.597899 -3.535534 3.535534 
C -2.597899 4.473168 -1.326016 5 0 5 
z
" style="stroke: #f59e0b"/>
    </defs>
    <g clip-path="url(#p922d9c892e)">
     <use xlink:href="#m20a02b05aa" x="527.034915" y="132.876907" style="fill: #f59e0b; stroke: #f59e0b"/>
    </g>
   </g>
   <g id="line2d_30">
    <defs>
     <path id="m7fab3c698e" d="M 0 3 
C 0.795609 3 1.55874 2.683901 2.12132 2.12132 
C 2.683901 1.55874 3 0.795609 3 0 
C 3 -0.795609 2.683901 -1.55874 2.12132 -2.12132 
C 1.55874 -2.683901 0.795609 -3 0 -3 
C -0.795609 -3 -1.55874 -2.683901 -2.12132 -2.12132 
C -2.683901 -1.55874 -3 -0.795609 -3 0 
C -3 0.795609 -2.683901 1.55874 -2.12132 2.12132 
C -1.55874 2.683901 -0.795609 3 0 3 
z
" style="stroke: #2c2f33"/>
    </defs>
    <g clip-path="url(#p922d9c892e)">
     <use xlink:href="#m7fab3c698e" x="419.464825" y="261.073948" style="fill: #2c2f33; stroke: #2c2f33"/>
    </g>
   </g>
  </g>
  <g id="axes_2">
   <g id="patch_4">
    <path d="M 24.35999 697.770611 
L 410.459774 697.770611 
L 410.459774 580.626064 
L 24.35999 580.626064 
z
" clip-path="url(#p26881e87c1)" style="fill: #f0fdf4; stroke: #1f2937; stroke-width: 1.5; stroke-linejoin: miter"/>
   </g>
   <g id="patch_5">
    <path d="M 461.939746 697.770611 
L 848.03953 697.770611 
L 848.03953 580.626064 
L 461.939746 580.626064 
z
" clip-path="url(#p26881e87c1)" style="fill: #fef3c7; stroke: #f59e0b; stroke-width: 1.5; stroke-linejoin: miter"/>
   </g>
   <g id="text_32">
    <!-- Definición -->
    <g style="fill: #1f2937" transform="translate(195.216521 593.121482) scale(0.11 -0.11)">
     <defs>
      <path id="SegoeUI-Bold-44" d="M 513 0 
L 513 4481 
L 2100 4481 
Q 4488 4481 4488 2297 
Q 4488 1250 3836 625 
Q 3184 0 2100 0 
L 513 0 
z
M 1522 3659 
L 1522 819 
L 2022 819 
Q 2678 819 3051 1212 
Q 3425 1606 3425 2284 
Q 3425 2925 3054 3292 
Q 2684 3659 2016 3659 
L 1522 3659 
z
" transform="scale(0.015625)"/>
      <path id="SegoeUI-Bold-65" d="M 3291 1319 
L 1203 1319 
Q 1253 622 2081 622 
Q 2609 622 3009 872 
L 3009 159 
Q 2566 -78 1856 -78 
Q 1081 -78 653 351 
Q 225 781 225 1550 
Q 225 2347 687 2812 
Q 1150 3278 1825 3278 
Q 2525 3278 2908 2862 
Q 3291 2447 3291 1734 
L 3291 1319 
z
M 2375 1925 
Q 2375 2613 1819 2613 
Q 1581 2613 1407 2416 
Q 1234 2219 1197 1925 
L 2375 1925 
z
" transform="scale(0.015625)"/>
      <path id="SegoeUI-Bold-66" d="M 2503 3981 
Q 2313 4056 2138 4056 
Q 1663 4056 1663 3541 
L 1663 3200 
L 2394 3200 
L 2394 2472 
L 1663 2472 
L 1663 0 
L 678 0 
L 678 2472 
L 141 2472 
L 141 3200 
L 678 3200 
L 678 3597 
Q 678 4144 1034 4478 
Q 1391 4813 2003 4813 
Q 2303 4813 2503 4750 
L 2503 3981 
z
" transform="scale(0.015625)"/>
      <path id="SegoeUI-Bold-f3" d="M 1941 -78 
Q 1141 -78 683 370 
Q 225 819 225 1588 
Q 225 2381 700 2829 
Q 1175 3278 1984 3278 
Q 2781 3278 3234 2829 
Q 3688 2381 3688 1644 
Q 3688 847 3220 384 
Q 2753 -78 1941 -78 
z
M 1966 2522 
Q 1616 2522 1422 2281 
Q 1228 2041 1228 1600 
Q 1228 678 1972 678 
Q 2681 678 2681 1625 
Q 2681 2522 1966 2522 
z
M 3023 4716 
L 2044 3706 
L 1332 3706 
L 2144 4716 
L 3023 4716 
z
" transform="scale(0.015625)"/>
     </defs>
     <use xlink:href="#SegoeUI-Bold-44"/>
     <use xlink:href="#SegoeUI-Bold-65" x="73.730469"/>
     <use xlink:href="#SegoeUI-Bold-66" x="127.832031"/>
     <use xlink:href="#SegoeUI-Bold-69" x="166.162109"/>
     <use xlink:href="#SegoeUI-Bold-6e" x="194.580078"/>
     <use xlink:href="#SegoeUI-Bold-69" x="255.078125"/>
     <use xlink:href="#SegoeUI-Bold-63" x="283.496094"/>
     <use xlink:href="#SegoeUI-Bold-69" x="331.494141"/>
     <use xlink:href="#SegoeUI-Bold-f3" x="359.912109"/>
     <use xlink:href="#SegoeUI-Bold-6e" x="420.996094"/>
    </g>
   </g>
   <g id="text_33">
    <!-- $\cos\theta = x$ (coordenada x) -->
    <g style="fill: #374151" transform="translate(165.89988 614.988464) scale(0.1 -0.1)">
     <defs>
      <path id="DejaVuSans-63" d="M 3122 3366 
L 3122 2828 
Q 2878 2963 2633 3030 
Q 2388 3097 2138 3097 
Q 1578 3097 1268 2742 
Q 959 2388 959 1747 
Q 959 1106 1268 751 
Q 1578 397 2138 397 
Q 2388 397 2633 464 
Q 2878 531 3122 666 
L 3122 134 
Q 2881 22 2623 -34 
Q 2366 -91 2075 -91 
Q 1284 -91 818 406 
Q 353 903 353 1747 
Q 353 2603 823 3093 
Q 1294 3584 2113 3584 
Q 2378 3584 2631 3529 
Q 2884 3475 3122 3366 
z
" transform="scale(0.015625)"/>
      <path id="DejaVuSans-6f" d="M 1959 3097 
Q 1497 3097 1228 2736 
Q 959 2375 959 1747 
Q 959 1119 1226 758 
Q 1494 397 1959 397 
Q 2419 397 2687 759 
Q 2956 1122 2956 1747 
Q 2956 2369 2687 2733 
Q 2419 3097 1959 3097 
z
M 1959 3584 
Q 2709 3584 3137 3096 
Q 3566 2609 3566 1747 
Q 3566 888 3137 398 
Q 2709 -91 1959 -91 
Q 1206 -91 779 398 
Q 353 888 353 1747 
Q 353 2609 779 3096 
Q 1206 3584 1959 3584 
z
" transform="scale(0.015625)"/>
      <path id="DejaVuSans-73" d="M 2834 3397 
L 2834 2853 
Q 2591 2978 2328 3040 
Q 2066 3103 1784 3103 
Q 1356 3103 1142 2972 
Q 928 2841 928 2578 
Q 928 2378 1081 2264 
Q 1234 2150 1697 2047 
L 1894 2003 
Q 2506 1872 2764 1633 
Q 3022 1394 3022 966 
Q 3022 478 2636 193 
Q 2250 -91 1575 -91 
Q 1294 -91 989 -36 
Q 684 19 347 128 
L 347 722 
Q 666 556 975 473 
Q 1284 391 1588 391 
Q 1994 391 2212 530 
Q 2431 669 2431 922 
Q 2431 1156 2273 1281 
Q 2116 1406 1581 1522 
L 1381 1569 
Q 847 1681 609 1914 
Q 372 2147 372 2553 
Q 372 3047 722 3315 
Q 1072 3584 1716 3584 
Q 2034 3584 2315 3537 
Q 2597 3491 2834 3397 
z
" transform="scale(0.015625)"/>
      <path id="DejaVuSans-Oblique-3b8" d="M 2913 2219 
L 925 2219 
Q 791 1284 928 888 
Q 1100 400 1566 400 
Q 2034 400 2391 891 
Q 2703 1322 2913 2219 
z
M 3009 2750 
Q 3094 3638 2984 3950 
Q 2813 4444 2353 4444 
Q 1875 4444 1525 3956 
Q 1250 3563 1034 2750 
L 3009 2750 
z
M 2444 4913 
Q 3194 4913 3494 4250 
Q 3794 3591 3566 2422 
Q 3341 1256 2781 594 
Q 2225 -72 1475 -72 
Q 722 -72 425 594 
Q 128 1256 353 2422 
Q 581 3591 1134 4250 
Q 1691 4913 2444 4913 
z
" transform="scale(0.015625)"/>
      <path id="DejaVuSans-3d" d="M 678 2906 
L 4684 2906 
L 4684 2381 
L 678 2381 
L 678 2906 
z
M 678 1631 
L 4684 1631 
L 4684 1100 
L 678 1100 
L 678 1631 
z
" transform="scale(0.015625)"/>
      <path id="DejaVuSans-Oblique-78" d="M 3841 3500 
L 2234 1784 
L 3219 0 
L 2559 0 
L 1819 1388 
L 531 0 
L -166 0 
L 1556 1844 
L 641 3500 
L 1300 3500 
L 1972 2234 
L 3144 3500 
L 3841 3500 
z
" transform="scale(0.015625)"/>
      <path id="SegoeUI-63" d="M 2700 147 
Q 2331 -75 1825 -75 
Q 1141 -75 720 370 
Q 300 816 300 1525 
Q 300 2316 753 2795 
Q 1206 3275 1963 3275 
Q 2384 3275 2706 3119 
L 2706 2594 
Q 2350 2844 1944 2844 
Q 1453 2844 1139 2492 
Q 825 2141 825 1569 
Q 825 1006 1120 681 
Q 1416 356 1913 356 
Q 2331 356 2700 634 
L 2700 147 
z
" transform="scale(0.015625)"/>
      <path id="SegoeUI-6f" d="M 1856 -75 
Q 1147 -75 723 373 
Q 300 822 300 1563 
Q 300 2369 740 2822 
Q 1181 3275 1931 3275 
Q 2647 3275 3048 2834 
Q 3450 2394 3450 1613 
Q 3450 847 3017 386 
Q 2584 -75 1856 -75 
z
M 1894 2844 
Q 1400 2844 1112 2508 
Q 825 2172 825 1581 
Q 825 1013 1115 684 
Q 1406 356 1894 356 
Q 2391 356 2658 678 
Q 2925 1000 2925 1594 
Q 2925 2194 2658 2519 
Q 2391 2844 1894 2844 
z
" transform="scale(0.015625)"/>
      <path id="SegoeUI-64" d="M 3250 0 
L 2738 0 
L 2738 544 
L 2725 544 
Q 2369 -75 1625 -75 
Q 1022 -75 661 354 
Q 300 784 300 1525 
Q 300 2319 700 2797 
Q 1100 3275 1766 3275 
Q 2425 3275 2725 2756 
L 2738 2756 
L 2738 4738 
L 3250 4738 
L 3250 0 
z
M 2738 1447 
L 2738 1919 
Q 2738 2306 2481 2575 
Q 2225 2844 1831 2844 
Q 1363 2844 1094 2500 
Q 825 2156 825 1550 
Q 825 997 1083 676 
Q 1341 356 1775 356 
Q 2203 356 2470 665 
Q 2738 975 2738 1447 
z
" transform="scale(0.015625)"/>
      <path id="SegoeUI-65" d="M 3091 1472 
L 831 1472 
Q 844 938 1119 647 
Q 1394 356 1875 356 
Q 2416 356 2869 713 
L 2869 231 
Q 2447 -75 1753 -75 
Q 1075 -75 687 361 
Q 300 797 300 1588 
Q 300 2334 723 2804 
Q 1147 3275 1775 3275 
Q 2403 3275 2747 2869 
Q 3091 2463 3091 1741 
L 3091 1472 
z
M 2566 1906 
Q 2563 2350 2352 2597 
Q 2141 2844 1766 2844 
Q 1403 2844 1150 2584 
Q 897 2325 838 1906 
L 2566 1906 
z
" transform="scale(0.015625)"/>
      <path id="SegoeUI-6e" d="M 3175 0 
L 2663 0 
L 2663 1825 
Q 2663 2844 1919 2844 
Q 1534 2844 1282 2555 
Q 1031 2266 1031 1825 
L 1031 0 
L 519 0 
L 519 3200 
L 1031 3200 
L 1031 2669 
L 1044 2669 
Q 1406 3275 2094 3275 
Q 2619 3275 2897 2936 
Q 3175 2597 3175 1956 
L 3175 0 
z
" transform="scale(0.015625)"/>
      <path id="SegoeUI-61" d="M 2809 0 
L 2297 0 
L 2297 500 
L 2284 500 
Q 1950 -75 1300 -75 
Q 822 -75 551 178 
Q 281 431 281 850 
Q 281 1747 1338 1894 
L 2297 2028 
Q 2297 2844 1638 2844 
Q 1059 2844 594 2450 
L 594 2975 
Q 1066 3275 1681 3275 
Q 2809 3275 2809 2081 
L 2809 0 
z
M 2297 1619 
L 1525 1513 
Q 1169 1463 987 1336 
Q 806 1209 806 888 
Q 806 653 973 504 
Q 1141 356 1419 356 
Q 1800 356 2048 623 
Q 2297 891 2297 1300 
L 2297 1619 
z
" transform="scale(0.015625)"/>
     </defs>
     <use xlink:href="#DejaVuSans-63" transform="translate(0 0.234375)"/>
     <use xlink:href="#DejaVuSans-6f" transform="translate(54.980469 0.234375)"/>
     <use xlink:href="#DejaVuSans-73" transform="translate(116.162109 0.234375)"/>
     <use xlink:href="#DejaVuSans-Oblique-3b8" transform="translate(184.497395 0.234375)"/>
     <use xlink:href="#DejaVuSans-3d" transform="translate(265.161458 0.234375)"/>
     <use xlink:href="#DejaVuSans-Oblique-78" transform="translate(368.432942 0.234375)"/>
     <use xlink:href="#SegoeUI-20" transform="translate(427.612629 0.234375)"/>
     <use xlink:href="#SegoeUI-28" transform="translate(455.005208 0.234375)"/>
     <use xlink:href="#SegoeUI-63" transform="translate(485.680989 0.234375)"/>
     <use xlink:href="#SegoeUI-6f" transform="translate(531.872395 0.234375)"/>
     <use xlink:href="#SegoeUI-6f" transform="translate(590.466145 0.234375)"/>
     <use xlink:href="#SegoeUI-72" transform="translate(649.059895 0.234375)"/>
     <use xlink:href="#SegoeUI-64" transform="translate(683.82552 0.234375)"/>
     <use xlink:href="#SegoeUI-65" transform="translate(742.712239 0.234375)"/>
     <use xlink:href="#SegoeUI-6e" transform="translate(795.007161 0.234375)"/>
     <use xlink:href="#SegoeUI-61" transform="translate(851.598958 0.234375)"/>
     <use xlink:href="#SegoeUI-64" transform="translate(902.477864 0.234375)"/>
     <use xlink:href="#SegoeUI-61" transform="translate(961.364583 0.234375)"/>
     <use xlink:href="#SegoeUI-20" transform="translate(1012.243489 0.234375)"/>
     <use xlink:href="#SegoeUI-78" transform="translate(1039.636067 0.234375)"/>
     <use xlink:href="#SegoeUI-29" transform="translate(1085.534504 0.234375)"/>
    </g>
   </g>
   <g id="text_34">
    <!-- $\sin\theta = y$ (coordenada y) -->
    <g style="fill: #374151" transform="translate(166.99988 638.417374) scale(0.1 -0.1)">
     <defs>
      <path id="DejaVuSans-69" d="M 603 3500 
L 1178 3500 
L 1178 0 
L 603 0 
L 603 3500 
z
M 603 4863 
L 1178 4863 
L 1178 4134 
L 603 4134 
L 603 4863 
z
" transform="scale(0.015625)"/>
      <path id="DejaVuSans-6e" d="M 3513 2113 
L 3513 0 
L 2938 0 
L 2938 2094 
Q 2938 2591 2744 2837 
Q 2550 3084 2163 3084 
Q 1697 3084 1428 2787 
Q 1159 2491 1159 1978 
L 1159 0 
L 581 0 
L 581 3500 
L 1159 3500 
L 1159 2956 
Q 1366 3272 1645 3428 
Q 1925 3584 2291 3584 
Q 2894 3584 3203 3211 
Q 3513 2838 3513 2113 
z
" transform="scale(0.015625)"/>
      <path id="DejaVuSans-Oblique-79" d="M 1588 -325 
Q 1188 -997 936 -1164 
Q 684 -1331 294 -1331 
L -159 -1331 
L -63 -850 
L 269 -850 
Q 509 -850 678 -719 
Q 847 -588 1056 -206 
L 1234 128 
L 459 3500 
L 1069 3500 
L 1650 819 
L 3256 3500 
L 3859 3500 
L 1588 -325 
z
" transform="scale(0.015625)"/>
     </defs>
     <use xlink:href="#DejaVuSans-73" transform="translate(0 0.234375)"/>
     <use xlink:href="#DejaVuSans-69" transform="translate(52.099609 0.234375)"/>
     <use xlink:href="#DejaVuSans-6e" transform="translate(79.882812 0.234375)"/>
     <use xlink:href="#DejaVuSans-Oblique-3b8" transform="translate(159.497395 0.234375)"/>
     <use xlink:href="#DejaVuSans-3d" transform="translate(240.161458 0.234375)"/>
     <use xlink:href="#DejaVuSans-Oblique-79" transform="translate(343.432942 0.234375)"/>
     <use xlink:href="#SegoeUI-20" transform="translate(402.612629 0.234375)"/>
     <use xlink:href="#SegoeUI-28" transform="translate(430.005208 0.234375)"/>
     <use xlink:href="#SegoeUI-63" transform="translate(460.680989 0.234375)"/>
     <use xlink:href="#SegoeUI-6f" transform="translate(506.872395 0.234375)"/>
     <use xlink:href="#SegoeUI-6f" transform="translate(565.466145 0.234375)"/>
     <use xlink:href="#SegoeUI-72" transform="translate(624.059895 0.234375)"/>
     <use xlink:href="#SegoeUI-64" transform="translate(658.82552 0.234375)"/>
     <use xlink:href="#SegoeUI-65" transform="translate(717.712239 0.234375)"/>
     <use xlink:href="#SegoeUI-6e" transform="translate(770.007161 0.234375)"/>
     <use xlink:href="#SegoeUI-61" transform="translate(826.598958 0.234375)"/>
     <use xlink:href="#SegoeUI-64" transform="translate(877.477864 0.234375)"/>
     <use xlink:href="#SegoeUI-61" transform="translate(936.364583 0.234375)"/>
     <use xlink:href="#SegoeUI-20" transform="translate(987.243489 0.234375)"/>
     <use xlink:href="#SegoeUI-79" transform="translate(1014.636067 0.234375)"/>
     <use xlink:href="#SegoeUI-29" transform="translate(1063.024739 0.234375)"/>
    </g>
   </g>
   <g id="text_35">
    <!-- $\tan\theta = \frac{y}{x} = \frac{\sin\theta}{\cos\theta}$ -->
    <g style="fill: #374151" transform="translate(185.39988 661.846283) scale(0.1 -0.1)">
     <defs>
      <path id="DejaVuSans-74" d="M 1172 4494 
L 1172 3500 
L 2356 3500 
L 2356 3053 
L 1172 3053 
L 1172 1153 
Q 1172 725 1289 603 
Q 1406 481 1766 481 
L 2356 481 
L 2356 0 
L 1766 0 
Q 1100 0 847 248 
Q 594 497 594 1153 
L 594 3053 
L 172 3053 
L 172 3500 
L 594 3500 
L 594 4494 
L 1172 4494 
z
" transform="scale(0.015625)"/>
      <path id="DejaVuSans-61" d="M 2194 1759 
Q 1497 1759 1228 1600 
Q 959 1441 959 1056 
Q 959 750 1161 570 
Q 1363 391 1709 391 
Q 2188 391 2477 730 
Q 2766 1069 2766 1631 
L 2766 1759 
L 2194 1759 
z
M 3341 1997 
L 3341 0 
L 2766 0 
L 2766 531 
Q 2569 213 2275 61 
Q 1981 -91 1556 -91 
Q 1019 -91 701 211 
Q 384 513 384 1019 
Q 384 1609 779 1909 
Q 1175 2209 1959 2209 
L 2766 2209 
L 2766 2266 
Q 2766 2663 2505 2880 
Q 2244 3097 1772 3097 
Q 1472 3097 1187 3025 
Q 903 2953 641 2809 
L 641 3341 
Q 956 3463 1253 3523 
Q 1550 3584 1831 3584 
Q 2591 3584 2966 3190 
Q 3341 2797 3341 1997 
z
" transform="scale(0.015625)"/>
     </defs>
     <use xlink:href="#DejaVuSans-74" transform="translate(0 0.471875)"/>
     <use xlink:href="#DejaVuSans-61" transform="translate(39.208984 0.471875)"/>
     <use xlink:href="#DejaVuSans-6e" transform="translate(100.488281 0.471875)"/>
     <use xlink:href="#DejaVuSans-Oblique-3b8" transform="translate(180.102864 0.471875)"/>
     <use xlink:href="#DejaVuSans-3d" transform="translate(260.766926 0.471875)"/>
     <use xlink:href="#DejaVuSans-Oblique-79" transform="translate(364.038411 58.826563) scale(0.7)"/>
     <use xlink:href="#DejaVuSans-Oblique-78" transform="translate(364.038411 -25.2625) scale(0.7)"/>
     <use xlink:href="#DejaVuSans-3d" transform="translate(437.446614 0.471875)"/>
     <use xlink:href="#DejaVuSans-73" transform="translate(549.718098 45.264063) scale(0.7)"/>
     <use xlink:href="#DejaVuSans-69" transform="translate(586.187825 45.264063) scale(0.7)"/>
     <use xlink:href="#DejaVuSans-6e" transform="translate(605.636067 45.264063) scale(0.7)"/>
     <use xlink:href="#DejaVuSans-Oblique-3b8" transform="translate(661.366275 45.264063) scale(0.7)"/>
     <use xlink:href="#DejaVuSans-63" transform="translate(540.718098 -40.717187) scale(0.7)"/>
     <use xlink:href="#DejaVuSans-6f" transform="translate(579.204426 -40.717187) scale(0.7)"/>
     <use xlink:href="#DejaVuSans-73" transform="translate(622.031575 -40.717187) scale(0.7)"/>
     <use xlink:href="#DejaVuSans-Oblique-3b8" transform="translate(669.866275 -40.717187) scale(0.7)"/>
     <path d="M 364.038411 19.26875 
L 364.038411 25.51875 
L 405.464192 25.51875 
L 405.464192 19.26875 
L 364.038411 19.26875 
z
"/>
     <path d="M 540.718098 19.26875 
L 540.718098 25.51875 
L 712.693423 25.51875 
L 712.693423 19.26875 
L 540.718098 19.26875 
z
"/>
    </g>
   </g>
   <g id="text_36">
    <!-- Signos por Cuadrante -->
    <g style="fill: #f59e0b" transform="translate(594.841984 593.121482) scale(0.11 -0.11)">
     <defs>
      <path id="SegoeUI-Bold-53" d="M 306 172 
L 306 1172 
Q 578 944 897 830 
Q 1216 716 1541 716 
Q 1731 716 1873 750 
Q 2016 784 2111 845 
Q 2206 906 2253 989 
Q 2300 1072 2300 1169 
Q 2300 1300 2225 1403 
Q 2150 1506 2020 1593 
Q 1891 1681 1712 1762 
Q 1534 1844 1328 1928 
Q 803 2147 545 2462 
Q 288 2778 288 3225 
Q 288 3575 428 3826 
Q 569 4078 811 4240 
Q 1053 4403 1372 4479 
Q 1691 4556 2047 4556 
Q 2397 4556 2667 4514 
Q 2938 4472 3166 4384 
L 3166 3450 
Q 3053 3528 2920 3587 
Q 2788 3647 2647 3686 
Q 2506 3725 2367 3744 
Q 2228 3763 2103 3763 
Q 1931 3763 1790 3730 
Q 1650 3697 1553 3637 
Q 1456 3578 1403 3495 
Q 1350 3413 1350 3309 
Q 1350 3197 1409 3108 
Q 1469 3019 1578 2939 
Q 1688 2859 1844 2782 
Q 2000 2706 2197 2625 
Q 2466 2513 2680 2386 
Q 2894 2259 3047 2100 
Q 3200 1941 3281 1736 
Q 3363 1531 3363 1259 
Q 3363 884 3220 629 
Q 3078 375 2834 217 
Q 2591 59 2267 -9 
Q 1944 -78 1584 -78 
Q 1216 -78 883 -15 
Q 550 47 306 172 
z
" transform="scale(0.015625)"/>
      <path id="SegoeUI-Bold-67" d="M 3553 366 
Q 3553 -525 3037 -1014 
Q 2522 -1503 1544 -1503 
Q 897 -1503 519 -1319 
L 519 -488 
Q 1013 -775 1516 -775 
Q 2016 -775 2291 -511 
Q 2566 -247 2566 206 
L 2566 459 
L 2553 459 
Q 2216 -78 1556 -78 
Q 944 -78 584 353 
Q 225 784 225 1509 
Q 225 2322 625 2800 
Q 1025 3278 1678 3278 
Q 2263 3278 2553 2828 
L 2566 2828 
L 2566 3200 
L 3553 3200 
L 3553 366 
z
M 2578 1538 
L 2578 1791 
Q 2578 2094 2398 2308 
Q 2219 2522 1931 2522 
Q 1603 2522 1415 2265 
Q 1228 2009 1228 1544 
Q 1228 1144 1406 911 
Q 1584 678 1894 678 
Q 2200 678 2389 914 
Q 2578 1150 2578 1538 
z
" transform="scale(0.015625)"/>
      <path id="SegoeUI-Bold-70" d="M 1416 372 
L 1403 372 
L 1403 -1472 
L 416 -1472 
L 416 3200 
L 1403 3200 
L 1403 2719 
L 1416 2719 
Q 1781 3278 2444 3278 
Q 3066 3278 3405 2851 
Q 3744 2425 3744 1691 
Q 3744 891 3348 406 
Q 2953 -78 2297 -78 
Q 1719 -78 1416 372 
z
M 1388 1684 
L 1388 1428 
Q 1388 1097 1563 887 
Q 1738 678 2022 678 
Q 2359 678 2545 939 
Q 2731 1200 2731 1678 
Q 2731 2522 2075 2522 
Q 1772 2522 1580 2292 
Q 1388 2063 1388 1684 
z
" transform="scale(0.015625)"/>
      <path id="SegoeUI-Bold-72" d="M 2503 2309 
Q 2325 2406 2088 2406 
Q 1766 2406 1584 2170 
Q 1403 1934 1403 1528 
L 1403 0 
L 416 0 
L 416 3200 
L 1403 3200 
L 1403 2606 
L 1416 2606 
Q 1650 3256 2259 3256 
Q 2416 3256 2503 3219 
L 2503 2309 
z
" transform="scale(0.015625)"/>
      <path id="SegoeUI-Bold-43" d="M 3725 159 
Q 3234 -78 2444 -78 
Q 1413 -78 822 528 
Q 231 1134 231 2144 
Q 231 3219 895 3887 
Q 1559 4556 2619 4556 
Q 3275 4556 3725 4391 
L 3725 3419 
Q 3275 3688 2700 3688 
Q 2069 3688 1681 3291 
Q 1294 2894 1294 2216 
Q 1294 1566 1659 1180 
Q 2025 794 2644 794 
Q 3234 794 3725 1081 
L 3725 159 
z
" transform="scale(0.015625)"/>
      <path id="SegoeUI-Bold-75" d="M 3456 0 
L 2472 0 
L 2472 488 
L 2456 488 
Q 2091 -78 1478 -78 
Q 366 -78 366 1269 
L 366 3200 
L 1350 3200 
L 1350 1356 
Q 1350 678 1888 678 
Q 2153 678 2312 864 
Q 2472 1050 2472 1369 
L 2472 3200 
L 3456 3200 
L 3456 0 
z
" transform="scale(0.015625)"/>
      <path id="SegoeUI-Bold-61" d="M 3078 0 
L 2144 0 
L 2144 459 
L 2131 459 
Q 1809 -78 1178 -78 
Q 713 -78 445 186 
Q 178 450 178 891 
Q 178 1822 1281 1966 
L 2150 2081 
Q 2150 2606 1581 2606 
Q 1009 2606 494 2266 
L 494 3009 
Q 700 3116 1058 3197 
Q 1416 3278 1709 3278 
Q 3078 3278 3078 1913 
L 3078 0 
z
M 2150 1300 
L 2150 1516 
L 1569 1441 
Q 1088 1378 1088 1006 
Q 1088 838 1205 730 
Q 1322 622 1522 622 
Q 1800 622 1975 814 
Q 2150 1006 2150 1300 
z
" transform="scale(0.015625)"/>
      <path id="SegoeUI-Bold-64" d="M 3547 0 
L 2559 0 
L 2559 441 
L 2547 441 
Q 2209 -78 1556 -78 
Q 956 -78 590 345 
Q 225 769 225 1528 
Q 225 2322 628 2800 
Q 1031 3278 1684 3278 
Q 2303 3278 2547 2834 
L 2559 2834 
L 2559 4738 
L 3547 4738 
L 3547 0 
z
M 2578 1556 
L 2578 1797 
Q 2578 2109 2397 2315 
Q 2216 2522 1925 2522 
Q 1597 2522 1412 2264 
Q 1228 2006 1228 1556 
Q 1228 1134 1406 906 
Q 1584 678 1900 678 
Q 2200 678 2389 918 
Q 2578 1159 2578 1556 
z
" transform="scale(0.015625)"/>
      <path id="SegoeUI-Bold-74" d="M 2350 38 
Q 2131 -78 1691 -78 
Q 647 -78 647 1006 
L 647 2472 
L 128 2472 
L 128 3200 
L 647 3200 
L 647 3891 
L 1631 4172 
L 1631 3200 
L 2350 3200 
L 2350 2472 
L 1631 2472 
L 1631 1178 
Q 1631 678 2028 678 
Q 2184 678 2350 769 
L 2350 38 
z
" transform="scale(0.015625)"/>
     </defs>
     <use xlink:href="#SegoeUI-Bold-53"/>
     <use xlink:href="#SegoeUI-Bold-69" x="56.054688"/>
     <use xlink:href="#SegoeUI-Bold-67" x="84.472656"/>
     <use xlink:href="#SegoeUI-Bold-6e" x="146.386719"/>
     <use xlink:href="#SegoeUI-Bold-6f" x="206.884766"/>
     <use xlink:href="#SegoeUI-Bold-73" x="268.017578"/>
     <use xlink:href="#SegoeUI-Bold-20" x="312.011719"/>
     <use xlink:href="#SegoeUI-Bold-70" x="339.599609"/>
     <use xlink:href="#SegoeUI-Bold-6f" x="401.611328"/>
     <use xlink:href="#SegoeUI-Bold-72" x="462.744141"/>
     <use xlink:href="#SegoeUI-Bold-20" x="502.539062"/>
     <use xlink:href="#SegoeUI-Bold-43" x="530.126953"/>
     <use xlink:href="#SegoeUI-Bold-75" x="592.529297"/>
     <use xlink:href="#SegoeUI-Bold-61" x="653.027344"/>
     <use xlink:href="#SegoeUI-Bold-64" x="706.835938"/>
     <use xlink:href="#SegoeUI-Bold-72" x="768.75"/>
     <use xlink:href="#SegoeUI-Bold-61" x="808.544922"/>
     <use xlink:href="#SegoeUI-Bold-6e" x="862.353516"/>
     <use xlink:href="#SegoeUI-Bold-74" x="922.851562"/>
     <use xlink:href="#SegoeUI-Bold-65" x="961.392578"/>
    </g>
   </g>
   <g id="text_37">
    <!-- I (0°-90°): -->
    <g style="fill: #374151" transform="translate(504.839722 614.988464) scale(0.09 -0.09)">
     <defs>
      <path id="SegoeUI-Bold-30" d="M 1816 -78 
Q 216 -78 216 2169 
Q 216 3334 648 3945 
Q 1081 4556 1903 4556 
Q 3466 4556 3466 2272 
Q 3466 1134 3039 528 
Q 2613 -78 1816 -78 
z
M 1859 3803 
Q 1219 3803 1219 2194 
Q 1219 678 1847 678 
Q 2459 678 2459 2241 
Q 2459 3803 1859 3803 
z
" transform="scale(0.015625)"/>
      <path id="SegoeUI-Bold-b0" d="M 1247 2797 
Q 875 2797 617 3055 
Q 359 3313 359 3681 
Q 359 4050 617 4303 
Q 875 4556 1247 4556 
Q 1616 4556 1877 4303 
Q 2138 4050 2138 3681 
Q 2138 3313 1877 3055 
Q 1616 2797 1247 2797 
z
M 1247 4084 
Q 1078 4084 961 3967 
Q 844 3850 844 3681 
Q 844 3513 961 3392 
Q 1078 3272 1247 3272 
Q 1413 3272 1531 3392 
Q 1650 3513 1650 3681 
Q 1650 3850 1533 3967 
Q 1416 4084 1247 4084 
z
" transform="scale(0.015625)"/>
      <path id="SegoeUI-Bold-2d" d="M 2156 1363 
L 447 1363 
L 447 2053 
L 2156 2053 
L 2156 1363 
z
" transform="scale(0.015625)"/>
      <path id="SegoeUI-Bold-39" d="M 3397 2456 
Q 3397 1859 3265 1389 
Q 3134 919 2882 594 
Q 2631 269 2268 95 
Q 1906 -78 1447 -78 
Q 897 -78 500 97 
L 500 909 
Q 853 678 1350 678 
Q 1859 678 2146 1025 
Q 2434 1372 2438 2028 
L 2419 2034 
Q 2122 1594 1516 1594 
Q 1241 1594 1008 1697 
Q 775 1800 604 1983 
Q 434 2166 339 2419 
Q 244 2672 244 2975 
Q 244 3328 359 3618 
Q 475 3909 683 4118 
Q 891 4328 1181 4442 
Q 1472 4556 1825 4556 
Q 2191 4556 2481 4414 
Q 2772 4272 2976 4003 
Q 3181 3734 3289 3343 
Q 3397 2953 3397 2456 
z
M 2400 2981 
Q 2400 3153 2356 3304 
Q 2313 3456 2234 3565 
Q 2156 3675 2043 3739 
Q 1931 3803 1797 3803 
Q 1669 3803 1561 3747 
Q 1453 3691 1375 3592 
Q 1297 3494 1253 3356 
Q 1209 3219 1209 3059 
Q 1209 2884 1253 2748 
Q 1297 2613 1376 2519 
Q 1456 2425 1568 2376 
Q 1681 2328 1819 2328 
Q 1950 2328 2056 2379 
Q 2163 2431 2239 2518 
Q 2316 2606 2358 2725 
Q 2400 2844 2400 2981 
z
" transform="scale(0.015625)"/>
      <path id="SegoeUI-Bold-3a" d="M 856 2209 
Q 613 2209 450 2357 
Q 288 2506 288 2725 
Q 288 2950 455 3094 
Q 622 3238 872 3238 
Q 1125 3238 1286 3092 
Q 1447 2947 1447 2725 
Q 1447 2497 1283 2353 
Q 1119 2209 856 2209 
z
M 856 -78 
Q 613 -78 450 72 
Q 288 222 288 441 
Q 288 666 455 809 
Q 622 953 872 953 
Q 1125 953 1286 808 
Q 1447 663 1447 441 
Q 1447 213 1283 67 
Q 1119 -78 856 -78 
z
" transform="scale(0.015625)"/>
     </defs>
     <use xlink:href="#SegoeUI-Bold-49"/>
     <use xlink:href="#SegoeUI-Bold-20" x="31.689453"/>
     <use xlink:href="#SegoeUI-Bold-28" x="59.277344"/>
     <use xlink:href="#SegoeUI-Bold-30" x="96.191406"/>
     <use xlink:href="#SegoeUI-Bold-b0" x="153.710938"/>
     <use xlink:href="#SegoeUI-Bold-2d" x="191.699219"/>
     <use xlink:href="#SegoeUI-Bold-39" x="232.128906"/>
     <use xlink:href="#SegoeUI-Bold-30" x="289.648438"/>
     <use xlink:href="#SegoeUI-Bold-b0" x="347.167969"/>
     <use xlink:href="#SegoeUI-Bold-29" x="385.15625"/>
     <use xlink:href="#SegoeUI-Bold-3a" x="422.070312"/>
    </g>
   </g>
   <g id="text_38">
    <!-- sin+, cos+, tan+ -->
    <g style="fill: #6b7280" transform="translate(732.191277 614.988464) scale(0.09 -0.09)">
     <defs>
      <path id="SegoeUI-73" d="M 325 116 
L 325 666 
Q 744 356 1247 356 
Q 1922 356 1922 806 
Q 1922 934 1864 1023 
Q 1806 1113 1707 1181 
Q 1609 1250 1476 1304 
Q 1344 1359 1191 1419 
Q 978 1503 817 1589 
Q 656 1675 548 1783 
Q 441 1891 386 2028 
Q 331 2166 331 2350 
Q 331 2575 434 2748 
Q 538 2922 709 3039 
Q 881 3156 1101 3215 
Q 1322 3275 1556 3275 
Q 1972 3275 2300 3131 
L 2300 2613 
Q 1947 2844 1488 2844 
Q 1344 2844 1228 2811 
Q 1113 2778 1030 2718 
Q 947 2659 901 2576 
Q 856 2494 856 2394 
Q 856 2269 901 2184 
Q 947 2100 1034 2034 
Q 1122 1969 1247 1916 
Q 1372 1863 1531 1800 
Q 1744 1719 1912 1633 
Q 2081 1547 2200 1439 
Q 2319 1331 2383 1190 
Q 2447 1050 2447 856 
Q 2447 619 2342 444 
Q 2238 269 2063 153 
Q 1888 38 1659 -18 
Q 1431 -75 1181 -75 
Q 688 -75 325 116 
z
" transform="scale(0.015625)"/>
      <path id="SegoeUI-69" d="M 781 4013 
Q 644 4013 547 4106 
Q 450 4200 450 4344 
Q 450 4488 547 4583 
Q 644 4678 781 4678 
Q 922 4678 1020 4583 
Q 1119 4488 1119 4344 
Q 1119 4206 1020 4109 
Q 922 4013 781 4013 
z
M 1031 0 
L 519 0 
L 519 3200 
L 1031 3200 
L 1031 0 
z
" transform="scale(0.015625)"/>
      <path id="SegoeUI-2b" d="M 3663 1656 
L 2400 1656 
L 2400 397 
L 1984 397 
L 1984 1656 
L 725 1656 
L 725 2075 
L 1984 2075 
L 1984 3334 
L 2400 3334 
L 2400 2075 
L 3663 2075 
L 3663 1656 
z
" transform="scale(0.015625)"/>
      <path id="SegoeUI-74" d="M 2003 31 
Q 1822 -69 1525 -69 
Q 684 -69 684 869 
L 684 2763 
L 134 2763 
L 134 3200 
L 684 3200 
L 684 3981 
L 1197 4147 
L 1197 3200 
L 2003 3200 
L 2003 2763 
L 1197 2763 
L 1197 959 
Q 1197 638 1306 500 
Q 1416 363 1669 363 
Q 1863 363 2003 469 
L 2003 31 
z
" transform="scale(0.015625)"/>
     </defs>
     <use xlink:href="#SegoeUI-73"/>
     <use xlink:href="#SegoeUI-69" x="42.431641"/>
     <use xlink:href="#SegoeUI-6e" x="66.650391"/>
     <use xlink:href="#SegoeUI-2b" x="123.242188"/>
     <use xlink:href="#SegoeUI-2c" x="191.650391"/>
     <use xlink:href="#SegoeUI-20" x="213.330078"/>
     <use xlink:href="#SegoeUI-63" x="240.722656"/>
     <use xlink:href="#SegoeUI-6f" x="286.914062"/>
     <use xlink:href="#SegoeUI-73" x="345.507812"/>
     <use xlink:href="#SegoeUI-2b" x="387.939453"/>
     <use xlink:href="#SegoeUI-2c" x="456.347656"/>
     <use xlink:href="#SegoeUI-20" x="478.027344"/>
     <use xlink:href="#SegoeUI-74" x="505.419922"/>
     <use xlink:href="#SegoeUI-61" x="539.306641"/>
     <use xlink:href="#SegoeUI-6e" x="590.185547"/>
     <use xlink:href="#SegoeUI-2b" x="646.777344"/>
    </g>
   </g>
   <g id="text_39">
    <!-- II (90°-180°): -->
    <g style="fill: #374151" transform="translate(504.839722 635.293519) scale(0.09 -0.09)">
     <defs>
      <path id="SegoeUI-Bold-31" d="M 2600 4581 
L 2600 0 
L 1616 0 
L 1616 3469 
Q 1534 3397 1423 3333 
Q 1313 3269 1188 3217 
Q 1063 3166 928 3130 
Q 794 3094 663 3078 
L 663 3909 
Q 1047 4022 1387 4197 
Q 1728 4372 2003 4581 
L 2600 4581 
z
" transform="scale(0.015625)"/>
      <path id="SegoeUI-Bold-38" d="M 250 1206 
Q 250 1394 304 1567 
Q 359 1741 468 1889 
Q 578 2038 742 2155 
Q 906 2272 1128 2347 
Q 788 2516 600 2780 
Q 413 3044 413 3366 
Q 413 3622 520 3840 
Q 628 4059 818 4218 
Q 1009 4378 1273 4467 
Q 1538 4556 1850 4556 
Q 2169 4556 2434 4467 
Q 2700 4378 2892 4220 
Q 3084 4063 3190 3847 
Q 3297 3631 3297 3378 
Q 3297 3059 3097 2798 
Q 2897 2538 2544 2369 
Q 2763 2294 2928 2176 
Q 3094 2059 3206 1909 
Q 3319 1759 3375 1582 
Q 3431 1406 3431 1216 
Q 3431 928 3315 692 
Q 3200 456 2989 286 
Q 2778 116 2486 22 
Q 2194 -72 1841 -72 
Q 1494 -72 1201 20 
Q 909 113 698 281 
Q 488 450 369 686 
Q 250 922 250 1206 
z
M 1184 1291 
Q 1184 1138 1231 1016 
Q 1278 894 1365 809 
Q 1453 725 1573 679 
Q 1694 634 1844 634 
Q 1988 634 2108 681 
Q 2228 728 2315 812 
Q 2403 897 2453 1019 
Q 2503 1141 2503 1291 
Q 2503 1425 2456 1547 
Q 2409 1669 2321 1758 
Q 2234 1847 2114 1900 
Q 1994 1953 1844 1953 
Q 1703 1953 1581 1904 
Q 1459 1856 1371 1767 
Q 1284 1678 1234 1556 
Q 1184 1434 1184 1291 
z
M 1322 3275 
Q 1322 3156 1364 3051 
Q 1406 2947 1478 2870 
Q 1550 2794 1648 2750 
Q 1747 2706 1856 2706 
Q 1969 2706 2066 2750 
Q 2163 2794 2236 2872 
Q 2309 2950 2351 3053 
Q 2394 3156 2394 3275 
Q 2394 3397 2353 3501 
Q 2313 3606 2239 3682 
Q 2166 3759 2067 3803 
Q 1969 3847 1856 3847 
Q 1738 3847 1639 3801 
Q 1541 3756 1470 3679 
Q 1400 3603 1361 3498 
Q 1322 3394 1322 3275 
z
" transform="scale(0.015625)"/>
     </defs>
     <use xlink:href="#SegoeUI-Bold-49"/>
     <use xlink:href="#SegoeUI-Bold-49" x="31.689453"/>
     <use xlink:href="#SegoeUI-Bold-20" x="63.378906"/>
     <use xlink:href="#SegoeUI-Bold-28" x="90.966797"/>
     <use xlink:href="#SegoeUI-Bold-39" x="127.880859"/>
     <use xlink:href="#SegoeUI-Bold-30" x="185.400391"/>
     <use xlink:href="#SegoeUI-Bold-b0" x="242.919922"/>
     <use xlink:href="#SegoeUI-Bold-2d" x="280.908203"/>
     <use xlink:href="#SegoeUI-Bold-31" x="321.337891"/>
     <use xlink:href="#SegoeUI-Bold-38" x="378.857422"/>
     <use xlink:href="#SegoeUI-Bold-30" x="436.376953"/>
     <use xlink:href="#SegoeUI-Bold-b0" x="493.896484"/>
     <use xlink:href="#SegoeUI-Bold-29" x="531.884766"/>
     <use xlink:href="#SegoeUI-Bold-3a" x="568.798828"/>
    </g>
   </g>
   <g id="text_40">
    <!-- sin+, cos−, tan− -->
    <g style="fill: #6b7280" transform="translate(732.191277 635.293519) scale(0.09 -0.09)">
     <defs>
      <path id="SegoeUI-2212" d="M 3663 1656 
L 725 1656 
L 725 2075 
L 3663 2075 
L 3663 1656 
z
" transform="scale(0.015625)"/>
     </defs>
     <use xlink:href="#SegoeUI-73"/>
     <use xlink:href="#SegoeUI-69" x="42.431641"/>
     <use xlink:href="#SegoeUI-6e" x="66.650391"/>
     <use xlink:href="#SegoeUI-2b" x="123.242188"/>
     <use xlink:href="#SegoeUI-2c" x="191.650391"/>
     <use xlink:href="#SegoeUI-20" x="213.330078"/>
     <use xlink:href="#SegoeUI-63" x="240.722656"/>
     <use xlink:href="#SegoeUI-6f" x="286.914062"/>
     <use xlink:href="#SegoeUI-73" x="345.507812"/>
     <use xlink:href="#SegoeUI-2212" x="387.939453"/>
     <use xlink:href="#SegoeUI-2c" x="456.347656"/>
     <use xlink:href="#SegoeUI-20" x="478.027344"/>
     <use xlink:href="#SegoeUI-74" x="505.419922"/>
     <use xlink:href="#SegoeUI-61" x="539.306641"/>
     <use xlink:href="#SegoeUI-6e" x="590.185547"/>
     <use xlink:href="#SegoeUI-2212" x="646.777344"/>
    </g>
   </g>
   <g id="text_41">
    <!-- III (180°-270°): -->
    <g style="fill: #374151" transform="translate(504.839722 655.598574) scale(0.09 -0.09)">
     <defs>
      <path id="SegoeUI-Bold-32" d="M 1341 819 
L 3241 819 
L 3241 0 
L 259 0 
L 259 338 
Q 259 681 375 954 
Q 491 1228 666 1445 
Q 841 1663 1048 1830 
Q 1256 1997 1444 2131 
Q 1641 2272 1789 2400 
Q 1938 2528 2039 2654 
Q 2141 2781 2191 2911 
Q 2241 3041 2241 3188 
Q 2241 3475 2078 3622 
Q 1916 3769 1581 3769 
Q 1003 3769 475 3309 
L 475 4178 
Q 1059 4556 1794 4556 
Q 2134 4556 2404 4467 
Q 2675 4378 2862 4212 
Q 3050 4047 3148 3811 
Q 3247 3575 3247 3284 
Q 3247 2975 3151 2734 
Q 3056 2494 2898 2297 
Q 2741 2100 2534 1936 
Q 2328 1772 2106 1619 
Q 1956 1513 1817 1408 
Q 1678 1303 1572 1201 
Q 1466 1100 1403 1003 
Q 1341 906 1341 819 
z
" transform="scale(0.015625)"/>
      <path id="SegoeUI-Bold-37" d="M 3419 3913 
Q 3119 3372 2881 2898 
Q 2644 2425 2462 1964 
Q 2281 1503 2153 1026 
Q 2025 550 1944 0 
L 913 0 
Q 1000 522 1144 1006 
Q 1288 1491 1477 1945 
Q 1666 2400 1895 2831 
Q 2125 3263 2381 3675 
L 300 3675 
L 300 4481 
L 3419 4481 
L 3419 3913 
z
" transform="scale(0.015625)"/>
     </defs>
     <use xlink:href="#SegoeUI-Bold-49"/>
     <use xlink:href="#SegoeUI-Bold-49" x="31.689453"/>
     <use xlink:href="#SegoeUI-Bold-49" x="63.378906"/>
     <use xlink:href="#SegoeUI-Bold-20" x="95.068359"/>
     <use xlink:href="#SegoeUI-Bold-28" x="122.65625"/>
     <use xlink:href="#SegoeUI-Bold-31" x="159.570312"/>
     <use xlink:href="#SegoeUI-Bold-38" x="217.089844"/>
     <use xlink:href="#SegoeUI-Bold-30" x="274.609375"/>
     <use xlink:href="#SegoeUI-Bold-b0" x="332.128906"/>
     <use xlink:href="#SegoeUI-Bold-2d" x="370.117188"/>
     <use xlink:href="#SegoeUI-Bold-32" x="410.546875"/>
     <use xlink:href="#SegoeUI-Bold-37" x="468.066406"/>
     <use xlink:href="#SegoeUI-Bold-30" x="525.585938"/>
     <use xlink:href="#SegoeUI-Bold-b0" x="583.105469"/>
     <use xlink:href="#SegoeUI-Bold-29" x="621.09375"/>
     <use xlink:href="#SegoeUI-Bold-3a" x="658.007812"/>
    </g>
   </g>
   <g id="text_42">
    <!-- sin−, cos−, tan+ -->
    <g style="fill: #6b7280" transform="translate(732.191277 655.598574) scale(0.09 -0.09)">
     <use xlink:href="#SegoeUI-73"/>
     <use xlink:href="#SegoeUI-69" x="42.431641"/>
     <use xlink:href="#SegoeUI-6e" x="66.650391"/>
     <use xlink:href="#SegoeUI-2212" x="123.242188"/>
     <use xlink:href="#SegoeUI-2c" x="191.650391"/>
     <use xlink:href="#SegoeUI-20" x="213.330078"/>
     <use xlink:href="#SegoeUI-63" x="240.722656"/>
     <use xlink:href="#SegoeUI-6f" x="286.914062"/>
     <use xlink:href="#SegoeUI-73" x="345.507812"/>
     <use xlink:href="#SegoeUI-2212" x="387.939453"/>
     <use xlink:href="#SegoeUI-2c" x="456.347656"/>
     <use xlink:href="#SegoeUI-20" x="478.027344"/>
     <use xlink:href="#SegoeUI-74" x="505.419922"/>
     <use xlink:href="#SegoeUI-61" x="539.306641"/>
     <use xlink:href="#SegoeUI-6e" x="590.185547"/>
     <use xlink:href="#SegoeUI-2b" x="646.777344"/>
    </g>
   </g>
   <g id="text_43">
    <!-- IV (270°-360°): -->
    <g style="fill: #374151" transform="translate(504.839722 675.903629) scale(0.09 -0.09)">
     <defs>
      <path id="SegoeUI-Bold-33" d="M 366 147 
L 366 1006 
Q 816 678 1416 678 
Q 1794 678 2005 840 
Q 2216 1003 2216 1294 
Q 2216 1594 1955 1756 
Q 1694 1919 1238 1919 
L 822 1919 
L 822 2675 
L 1206 2675 
Q 2081 2675 2081 3256 
Q 2081 3803 1409 3803 
Q 959 3803 534 3513 
L 534 4319 
Q 1006 4556 1634 4556 
Q 2322 4556 2705 4247 
Q 3088 3938 3088 3444 
Q 3088 2566 2197 2344 
L 2197 2328 
Q 2672 2269 2947 1983 
Q 3222 1697 3222 1281 
Q 3222 653 2762 287 
Q 2303 -78 1494 -78 
Q 800 -78 366 147 
z
" transform="scale(0.015625)"/>
      <path id="SegoeUI-Bold-36" d="M 3469 1491 
Q 3469 1159 3353 871 
Q 3238 584 3031 373 
Q 2825 163 2540 42 
Q 2256 -78 1919 -78 
Q 1541 -78 1242 62 
Q 944 203 737 470 
Q 531 738 422 1125 
Q 313 1513 313 2003 
Q 313 2581 455 3051 
Q 597 3522 861 3856 
Q 1125 4191 1500 4373 
Q 1875 4556 2344 4556 
Q 2863 4556 3150 4434 
L 3150 3609 
Q 2809 3803 2406 3803 
Q 2156 3803 1953 3706 
Q 1750 3609 1604 3431 
Q 1459 3253 1376 3001 
Q 1294 2750 1288 2441 
L 1306 2441 
Q 1625 2881 2247 2881 
Q 2525 2881 2750 2781 
Q 2975 2681 3134 2498 
Q 3294 2316 3381 2059 
Q 3469 1803 3469 1491 
z
M 2503 1428 
Q 2503 2150 1913 2150 
Q 1778 2150 1668 2100 
Q 1559 2050 1481 1959 
Q 1403 1869 1361 1745 
Q 1319 1622 1319 1472 
Q 1319 1306 1362 1162 
Q 1406 1019 1486 911 
Q 1566 803 1675 740 
Q 1784 678 1919 678 
Q 2053 678 2161 733 
Q 2269 788 2345 886 
Q 2422 984 2462 1123 
Q 2503 1263 2503 1428 
z
" transform="scale(0.015625)"/>
     </defs>
     <use xlink:href="#SegoeUI-Bold-49"/>
     <use xlink:href="#SegoeUI-Bold-56" x="31.689453"/>
     <use xlink:href="#SegoeUI-Bold-20" x="98.388672"/>
     <use xlink:href="#SegoeUI-Bold-28" x="125.976562"/>
     <use xlink:href="#SegoeUI-Bold-32" x="162.890625"/>
     <use xlink:href="#SegoeUI-Bold-37" x="220.410156"/>
     <use xlink:href="#SegoeUI-Bold-30" x="277.929688"/>
     <use xlink:href="#SegoeUI-Bold-b0" x="335.449219"/>
     <use xlink:href="#SegoeUI-Bold-2d" x="373.4375"/>
     <use xlink:href="#SegoeUI-Bold-33" x="413.867188"/>
     <use xlink:href="#SegoeUI-Bold-36" x="471.386719"/>
     <use xlink:href="#SegoeUI-Bold-30" x="528.90625"/>
     <use xlink:href="#SegoeUI-Bold-b0" x="586.425781"/>
     <use xlink:href="#SegoeUI-Bold-29" x="624.414062"/>
     <use xlink:href="#SegoeUI-Bold-3a" x="661.328125"/>
    </g>
   </g>
   <g id="text_44">
    <!-- sin−, cos+, tan− -->
    <g style="fill: #6b7280" transform="translate(732.191277 675.903629) scale(0.09 -0.09)">
     <use xlink:href="#SegoeUI-73"/>
     <use xlink:href="#SegoeUI-69" x="42.431641"/>
     <use xlink:href="#SegoeUI-6e" x="66.650391"/>
     <use xlink:href="#SegoeUI-2212" x="123.242188"/>
     <use xlink:href="#SegoeUI-2c" x="191.650391"/>
     <use xlink:href="#SegoeUI-20" x="213.330078"/>
     <use xlink:href="#SegoeUI-63" x="240.722656"/>
     <use xlink:href="#SegoeUI-6f" x="286.914062"/>
     <use xlink:href="#SegoeUI-73" x="345.507812"/>
     <use xlink:href="#SegoeUI-2b" x="387.939453"/>
     <use xlink:href="#SegoeUI-2c" x="456.347656"/>
     <use xlink:href="#SegoeUI-20" x="478.027344"/>
     <use xlink:href="#SegoeUI-74" x="505.419922"/>
     <use xlink:href="#SegoeUI-61" x="539.306641"/>
     <use xlink:href="#SegoeUI-6e" x="590.185547"/>
     <use xlink:href="#SegoeUI-2212" x="646.777344"/>
    </g>
   </g>
  </g>
  <g id="text_45">
   <!-- El Círculo Unitario -->
   <g style="fill: #2c2f33" transform="translate(376.780698 17.564375) scale(0.14 -0.14)">
    <defs>
     <path id="SegoeUI-Bold-45" d="M 3200 0 
L 513 0 
L 513 4481 
L 3097 4481 
L 3097 3659 
L 1522 3659 
L 1522 2663 
L 2988 2663 
L 2988 1844 
L 1522 1844 
L 1522 819 
L 3200 819 
L 3200 0 
z
" transform="scale(0.015625)"/>
     <path id="SegoeUI-Bold-6c" d="M 1403 0 
L 416 0 
L 416 4738 
L 1403 4738 
L 1403 0 
z
" transform="scale(0.015625)"/>
     <path id="SegoeUI-Bold-ed" d="M 1403 0 
L 416 0 
L 416 3200 
L 1403 3200 
L 1403 0 
z
M 1911 4716 
L 932 3706 
L 220 3706 
L 1032 4716 
L 1911 4716 
z
" transform="scale(0.015625)"/>
     <path id="SegoeUI-Bold-55" d="M 4166 1941 
Q 4166 -78 2284 -78 
Q 459 -78 459 1894 
L 459 4481 
L 1472 4481 
L 1472 1881 
Q 1472 794 2322 794 
Q 3156 794 3156 1844 
L 3156 4481 
L 4166 4481 
L 4166 1941 
z
" transform="scale(0.015625)"/>
    </defs>
    <use xlink:href="#SegoeUI-Bold-45"/>
    <use xlink:href="#SegoeUI-Bold-6c" x="53.222656"/>
    <use xlink:href="#SegoeUI-Bold-20" x="81.640625"/>
    <use xlink:href="#SegoeUI-Bold-43" x="109.228516"/>
    <use xlink:href="#SegoeUI-Bold-ed" x="171.630859"/>
    <use xlink:href="#SegoeUI-Bold-72" x="200.048828"/>
    <use xlink:href="#SegoeUI-Bold-63" x="239.46875"/>
    <use xlink:href="#SegoeUI-Bold-75" x="287.466797"/>
    <use xlink:href="#SegoeUI-Bold-6c" x="347.964844"/>
    <use xlink:href="#SegoeUI-Bold-6f" x="376.382812"/>
    <use xlink:href="#SegoeUI-Bold-20" x="437.515625"/>
    <use xlink:href="#SegoeUI-Bold-55" x="465.103516"/>
    <use xlink:href="#SegoeUI-Bold-6e" x="537.417969"/>
    <use xlink:href="#SegoeUI-Bold-69" x="597.916016"/>
    <use xlink:href="#SegoeUI-Bold-74" x="626.333984"/>
    <use xlink:href="#SegoeUI-Bold-61" x="665.25"/>
    <use xlink:href="#SegoeUI-Bold-72" x="719.058594"/>
    <use xlink:href="#SegoeUI-Bold-69" x="759.228516"/>
    <use xlink:href="#SegoeUI-Bold-6f" x="787.646484"/>
   </g>
  </g>
 </g>
 <defs>
  <clipPath id="p922d9c892e">
   <rect x="185.175732" y="26.784855" width="502.048057" height="468.578186"/>
  </clipPath>
  <clipPath id="p26881e87c1">
   <rect x="7.2" y="565.006791" width="857.99952" height="156.192729"/>
  </clipPath>
 </defs>
</svg>
