<?xml version="1.0" encoding="utf-8" standalone="no"?>
<!DOCTYPE svg PUBLIC "-//W3C//DTD SVG 1.1//EN"
  "http://www.w3.org/Graphics/SVG/1.1/DTD/svg11.dtd">
<svg xmlns:xlink="http://www.w3.org/1999/xlink" width="1016.39952pt" height="656.39952pt" viewBox="0 0 1016.39952 656.39952" xmlns="http://www.w3.org/2000/svg" version="1.1">
 <metadata>
  <rdf:RDF xmlns:dc="http://purl.org/dc/elements/1.1/" xmlns:cc="http://creativecommons.org/ns#" xmlns:rdf="http://www.w3.org/1999/02/22-rdf-syntax-ns#">
   <cc:Work>
    <dc:type rdf:resource="http://purl.org/dc/dcmitype/StillImage"/>
    <dc:date>2026-04-11T16:11:44.653561</dc:date>
    <dc:format>image/svg+xml</dc:format>
    <dc:creator>
     <cc:Agent>
      <dc:title>Matplotlib v3.8.4, https://matplotlib.org/</dc:title>
     </cc:Agent>
    </dc:creator>
   </cc:Work>
  </rdf:RDF>
 </metadata>
 <defs>
  <style type="text/css">*{stroke-linejoin: round; stroke-linecap: butt}</style>
 </defs>
 <g id="figure_1">
  <g id="patch_1">
   <path d="M 0 656.39952 
L 1016.39952 656.39952 
L 1016.39952 0 
L 0 0 
z
" style="fill: #ffffff"/>
  </g>
  <g id="axes_1">
   <g id="patch_2">
    <path d="M 45.34625 364.439809 
L 251.59984 364.439809 
L 251.59984 42.497667 
L 45.34625 42.497667 
z
" style="fill: #ffffff"/>
   </g>
   <g id="matplotlib.axis_1">
    <g id="xtick_1">
     <g id="line2d_1">
      <defs>
       <path id="md5267ba778" d="M 0 0 
L 0 3.5 
" style="stroke: #2c2f33; stroke-width: 0.8"/>
      </defs>
      <g>
       <use xlink:href="#md5267ba778" x="69.144741" y="364.439809" style="fill: #2c2f33; stroke: #2c2f33; stroke-width: 0.8"/>
      </g>
     </g>
     <g id="text_1">
      <!-- −1 -->
      <g style="fill: #2c2f33" transform="translate(63.029116 378.842934) scale(0.1 -0.1)">
       <defs>
        <path id="SegoeUI-2212" d="M 3663 1656 
L 725 1656 
L 725 2075 
L 3663 2075 
L 3663 1656 
z
" transform="scale(0.015625)"/>
        <path id="SegoeUI-31" d="M 2263 0 
L 1750 0 
L 1750 3872 
Q 1691 3813 1577 3736 
Q 1463 3659 1320 3584 
Q 1178 3509 1020 3443 
Q 863 3378 713 3341 
L 713 3859 
Q 881 3906 1070 3986 
Q 1259 4066 1442 4164 
Q 1625 4263 1787 4370 
Q 1950 4478 2069 4581 
L 2263 4581 
L 2263 0 
z
" transform="scale(0.015625)"/>
       </defs>
       <use xlink:href="#SegoeUI-2212"/>
       <use xlink:href="#SegoeUI-31" x="68.408203"/>
      </g>
     </g>
    </g>
    <g id="xtick_2">
     <g id="line2d_2">
      <g>
       <use xlink:href="#md5267ba778" x="148.473045" y="364.439809" style="fill: #2c2f33; stroke: #2c2f33; stroke-width: 0.8"/>
      </g>
     </g>
     <g id="text_2">
      <!-- 0 -->
      <g style="fill: #2c2f33" transform="translate(145.777732 378.842934) scale(0.1 -0.1)">
       <defs>
        <path id="SegoeUI-30" d="M 3188 2259 
Q 3188 1697 3086 1262 
Q 2984 828 2792 529 
Q 2600 231 2320 76 
Q 2041 -78 1684 -78 
Q 1347 -78 1083 70 
Q 819 219 637 503 
Q 456 788 362 1202 
Q 269 1616 269 2150 
Q 269 2738 367 3188 
Q 466 3638 656 3942 
Q 847 4247 1130 4401 
Q 1413 4556 1778 4556 
Q 3188 4556 3188 2259 
z
M 2663 2209 
Q 2663 4122 1753 4122 
Q 794 4122 794 2175 
Q 794 359 1734 359 
Q 2663 359 2663 2209 
z
" transform="scale(0.015625)"/>
       </defs>
       <use xlink:href="#SegoeUI-30"/>
      </g>
     </g>
    </g>
    <g id="xtick_3">
     <g id="line2d_3">
      <g>
       <use xlink:href="#md5267ba778" x="227.801349" y="364.439809" style="fill: #2c2f33; stroke: #2c2f33; stroke-width: 0.8"/>
      </g>
     </g>
     <g id="text_3">
      <!-- 1 -->
      <g style="fill: #2c2f33" transform="translate(225.106036 378.842934) scale(0.1 -0.1)">
       <use xlink:href="#SegoeUI-31"/>
      </g>
     </g>
    </g>
    <g id="text_4">
     <!-- x -->
     <g style="fill: #2c2f33" transform="translate(146.177732 392.546059) scale(0.1 -0.1)">
      <defs>
       <path id="SegoeUI-78" d="M 2856 3200 
L 1781 1581 
L 2838 0 
L 2241 0 
L 1613 1038 
Q 1553 1134 1472 1281 
L 1459 1281 
Q 1444 1253 1313 1038 
L 672 0 
L 81 0 
L 1172 1569 
L 128 3200 
L 725 3200 
L 1344 2106 
Q 1413 1984 1478 1856 
L 1491 1856 
L 2291 3200 
L 2856 3200 
z
" transform="scale(0.015625)"/>
      </defs>
      <use xlink:href="#SegoeUI-78"/>
     </g>
    </g>
   </g>
   <g id="matplotlib.axis_2">
    <g id="ytick_1">
     <g id="line2d_4">
      <defs>
       <path id="m7842c9e9a3" d="M 0 0 
L -3.5 0 
" style="stroke: #2c2f33; stroke-width: 0.8"/>
      </defs>
      <g>
       <use xlink:href="#m7842c9e9a3" x="45.34625" y="329.895122" style="fill: #2c2f33; stroke: #2c2f33; stroke-width: 0.8"/>
      </g>
     </g>
     <g id="text_5">
      <!-- -π/2 -->
      <g style="fill: #2c2f33" transform="translate(20.903125 333.226528) scale(0.09 -0.09)">
       <defs>
        <path id="SegoeUI-2d" d="M 2156 1581 
L 450 1581 
L 450 1984 
L 2156 1984 
L 2156 1581 
z
" transform="scale(0.015625)"/>
        <path id="SegoeUI-3c0" d="M 3747 2784 
L 3053 2784 
L 3053 850 
Q 3053 413 3369 413 
Q 3475 413 3644 472 
L 3644 34 
Q 3453 -38 3263 -38 
Q 2538 -38 2538 828 
L 2538 2784 
L 1322 2784 
L 1322 875 
Q 1322 275 1222 0 
L 700 0 
Q 813 272 813 875 
L 813 2784 
Q 428 2775 53 2506 
L 53 2975 
Q 288 3200 819 3200 
L 3747 3200 
L 3747 2784 
z
" transform="scale(0.015625)"/>
        <path id="SegoeUI-2f" d="M 2541 4481 
L 391 -744 
L -88 -744 
L 2056 4481 
L 2541 4481 
z
" transform="scale(0.015625)"/>
        <path id="SegoeUI-32" d="M 2413 3306 
Q 2413 3513 2348 3666 
Q 2284 3819 2173 3920 
Q 2063 4022 1913 4072 
Q 1763 4122 1588 4122 
Q 1438 4122 1294 4081 
Q 1150 4041 1014 3969 
Q 878 3897 751 3797 
Q 625 3697 516 3575 
L 516 4125 
Q 731 4334 998 4445 
Q 1266 4556 1650 4556 
Q 1925 4556 2159 4476 
Q 2394 4397 2566 4244 
Q 2738 4091 2836 3866 
Q 2934 3641 2934 3350 
Q 2934 3084 2873 2868 
Q 2813 2653 2689 2462 
Q 2566 2272 2378 2097 
Q 2191 1922 1938 1741 
Q 1622 1516 1417 1356 
Q 1213 1197 1092 1058 
Q 972 919 923 780 
Q 875 641 875 459 
L 3106 459 
L 3106 0 
L 341 0 
L 341 222 
Q 341 509 403 728 
Q 466 947 609 1144 
Q 753 1341 986 1537 
Q 1219 1734 1556 1981 
Q 1800 2156 1964 2315 
Q 2128 2475 2228 2634 
Q 2328 2794 2370 2958 
Q 2413 3122 2413 3306 
z
" transform="scale(0.015625)"/>
       </defs>
       <use xlink:href="#SegoeUI-2d"/>
       <use xlink:href="#SegoeUI-3c0" x="38.240234"/>
       <use xlink:href="#SegoeUI-2f" x="100.935547"/>
       <use xlink:href="#SegoeUI-32" x="139.900391"/>
      </g>
     </g>
    </g>
    <g id="ytick_2">
     <g id="line2d_5">
      <g>
       <use xlink:href="#m7842c9e9a3" x="45.34625" y="203.468738" style="fill: #2c2f33; stroke: #2c2f33; stroke-width: 0.8"/>
      </g>
     </g>
     <g id="text_6">
      <!-- 0 -->
      <g style="fill: #2c2f33" transform="translate(33.494687 206.800145) scale(0.09 -0.09)">
       <use xlink:href="#SegoeUI-30"/>
      </g>
     </g>
    </g>
    <g id="ytick_3">
     <g id="line2d_6">
      <g>
       <use xlink:href="#m7842c9e9a3" x="45.34625" y="77.042355" style="fill: #2c2f33; stroke: #2c2f33; stroke-width: 0.8"/>
      </g>
     </g>
     <g id="text_7">
      <!-- π/2 -->
      <g style="fill: #2c2f33" transform="translate(24.344219 80.373761) scale(0.09 -0.09)">
       <use xlink:href="#SegoeUI-3c0"/>
       <use xlink:href="#SegoeUI-2f" x="62.695312"/>
       <use xlink:href="#SegoeUI-32" x="101.660156"/>
      </g>
     </g>
    </g>
    <g id="text_8">
     <!-- y -->
     <g style="fill: #2c2f33" transform="translate(14.55 205.88827) rotate(-90) scale(0.1 -0.1)">
      <defs>
       <path id="SegoeUI-79" d="M 3066 3200 
L 1594 -513 
Q 1200 -1506 488 -1506 
Q 288 -1506 153 -1466 
L 153 -1006 
Q 319 -1063 456 -1063 
Q 844 -1063 1038 -600 
L 1294 6 
L 44 3200 
L 613 3200 
L 1478 738 
Q 1494 691 1544 494 
L 1563 494 
Q 1578 569 1625 731 
L 2534 3200 
L 3066 3200 
z
" transform="scale(0.015625)"/>
      </defs>
      <use xlink:href="#SegoeUI-79"/>
     </g>
    </g>
   </g>
   <g id="line2d_7">
    <path d="M 45.34625 203.468738 
L 251.59984 203.468738 
" clip-path="url(#p1167c1ee48)" style="fill: none; stroke: #d1d5db; stroke-linecap: square"/>
   </g>
   <g id="line2d_8">
    <path d="M 148.473045 364.439809 
L 148.473045 42.497667 
" clip-path="url(#p1167c1ee48)" style="fill: none; stroke: #d1d5db; stroke-linecap: square"/>
   </g>
   <g id="line2d_9">
    <path d="M 45.34625 77.042355 
L 251.59984 77.042355 
" clip-path="url(#p1167c1ee48)" style="fill: none; stroke-dasharray: 3.7,1.6; stroke-dashoffset: 0; stroke: #e5e7eb"/>
   </g>
   <g id="line2d_10">
    <path d="M 45.34625 329.895122 
L 251.59984 329.895122 
" clip-path="url(#p1167c1ee48)" style="fill: none; stroke-dasharray: 3.7,1.6; stroke-dashoffset: 0; stroke: #e5e7eb"/>
   </g>
   <g id="line2d_11">
    <path d="M 69.144741 329.895122 
L 69.942011 318.474606 
L 70.73928 313.730466 
L 71.536549 310.080801 
L 73.131088 304.271416 
L 74.725627 299.524763 
L 76.320166 295.398878 
L 78.711974 289.958021 
L 81.103782 285.125825 
L 83.49559 280.721369 
L 86.684668 275.334363 
L 89.873745 270.362676 
L 93.860092 264.584548 
L 97.846439 259.176495 
L 102.630055 253.059114 
L 108.210941 246.313172 
L 114.589096 238.988821 
L 121.764521 231.106864 
L 130.534484 221.827779 
L 142.493525 209.541247 
L 168.006145 183.444762 
L 176.776108 174.105766 
L 183.951533 166.14978 
L 190.329688 158.733443 
L 195.910573 151.878242 
L 200.69419 145.636114 
L 204.680537 140.091937 
L 208.666884 134.133711 
L 211.855961 128.969553 
L 215.045039 123.320994 
L 217.436847 118.646729 
L 219.828655 113.436166 
L 221.423194 109.537614 
L 223.017733 105.135725 
L 224.612271 99.941383 
L 225.409541 96.856676 
L 226.20681 93.20701 
L 227.004079 88.46287 
L 227.801349 77.042355 
L 227.801349 77.042355 
" clip-path="url(#p1167c1ee48)" style="fill: none; stroke: #e12885; stroke-width: 2.5; stroke-linecap: square"/>
   </g>
   <g id="line2d_12">
    <defs>
     <path id="m744875ef0e" d="M 0 3 
C 0.795609 3 1.55874 2.683901 2.12132 2.12132 
C 2.683901 1.55874 3 0.795609 3 0 
C 3 -0.795609 2.683901 -1.55874 2.12132 -2.12132 
C 1.55874 -2.683901 0.795609 -3 0 -3 
C -0.795609 -3 -1.55874 -2.683901 -2.12132 -2.12132 
C -2.683901 -1.55874 -3 -0.795609 -3 0 
C -3 0.795609 -2.683901 1.55874 -2.12132 2.12132 
C -1.55874 2.683901 -0.795609 3 0 3 
z
" style="stroke: #e12885"/>
    </defs>
    <g clip-path="url(#p1167c1ee48)">
     <use xlink:href="#m744875ef0e" x="69.144741" y="329.895122" style="fill: #e12885; stroke: #e12885"/>
    </g>
   </g>
   <g id="line2d_13">
    <g clip-path="url(#p1167c1ee48)">
     <use xlink:href="#m744875ef0e" x="148.473045" y="203.468738" style="fill: #e12885; stroke: #e12885"/>
    </g>
   </g>
   <g id="line2d_14">
    <g clip-path="url(#p1167c1ee48)">
     <use xlink:href="#m744875ef0e" x="227.801349" y="77.042355" style="fill: #e12885; stroke: #e12885"/>
    </g>
   </g>
   <g id="patch_3">
    <path d="M 45.34625 364.439809 
L 45.34625 42.497667 
" style="fill: none; stroke: #4b5563; stroke-width: 0.8; stroke-linejoin: miter; stroke-linecap: square"/>
   </g>
   <g id="patch_4">
    <path d="M 45.34625 364.439809 
L 251.59984 364.439809 
" style="fill: none; stroke: #4b5563; stroke-width: 0.8; stroke-linejoin: miter; stroke-linecap: square"/>
   </g>
   <g id="text_9">
    <!-- D: [-1, 1] -->
    <g style="fill: #6b7280" transform="translate(200.036442 106.886096) scale(0.09 -0.09)">
     <defs>
      <path id="SegoeUI-44" d="M 588 0 
L 588 4481 
L 1825 4481 
Q 4194 4481 4194 2297 
Q 4194 1259 3536 629 
Q 2878 0 1775 0 
L 588 0 
z
M 1113 4006 
L 1113 475 
L 1781 475 
Q 2663 475 3153 947 
Q 3644 1419 3644 2284 
Q 3644 4006 1813 4006 
L 1113 4006 
z
" transform="scale(0.015625)"/>
      <path id="SegoeUI-3a" d="M 697 2575 
Q 553 2575 451 2678 
Q 350 2781 350 2925 
Q 350 3069 451 3169 
Q 553 3269 697 3269 
Q 844 3269 947 3169 
Q 1050 3069 1050 2925 
Q 1050 2781 947 2678 
Q 844 2575 697 2575 
z
M 697 -69 
Q 553 -69 451 34 
Q 350 138 350 281 
Q 350 425 451 529 
Q 553 634 697 634 
Q 844 634 947 529 
Q 1050 425 1050 281 
Q 1050 138 947 34 
Q 844 -69 697 -69 
z
" transform="scale(0.015625)"/>
      <path id="SegoeUI-20" transform="scale(0.015625)"/>
      <path id="SegoeUI-5b" d="M 1775 -1019 
L 625 -1019 
L 625 4481 
L 1775 4481 
L 1775 4109 
L 1081 4109 
L 1081 -647 
L 1775 -647 
L 1775 -1019 
z
" transform="scale(0.015625)"/>
      <path id="SegoeUI-2c" d="M 988 713 
L 488 -825 
L 122 -825 
L 488 713 
L 988 713 
z
" transform="scale(0.015625)"/>
      <path id="SegoeUI-5d" d="M 1313 -1019 
L 166 -1019 
L 166 -647 
L 856 -647 
L 856 4109 
L 166 4109 
L 166 4481 
L 1313 4481 
L 1313 -1019 
z
" transform="scale(0.015625)"/>
     </defs>
     <use xlink:href="#SegoeUI-44"/>
     <use xlink:href="#SegoeUI-3a" x="70.117188"/>
     <use xlink:href="#SegoeUI-20" x="91.796875"/>
     <use xlink:href="#SegoeUI-5b" x="119.189453"/>
     <use xlink:href="#SegoeUI-2d" x="149.365234"/>
     <use xlink:href="#SegoeUI-31" x="189.355469"/>
     <use xlink:href="#SegoeUI-2c" x="243.261719"/>
     <use xlink:href="#SegoeUI-20" x="264.941406"/>
     <use xlink:href="#SegoeUI-31" x="292.333984"/>
     <use xlink:href="#SegoeUI-5d" x="346.240234"/>
    </g>
   </g>
   <g id="text_10">
    <!-- R: [-π/2, π/2] -->
    <g style="fill: #6b7280" transform="translate(200.036442 127.00748) scale(0.09 -0.09)">
     <defs>
      <path id="SegoeUI-52" d="M 3800 0 
L 3175 0 
L 2425 1256 
Q 2322 1431 2225 1554 
Q 2128 1678 2026 1756 
Q 1925 1834 1808 1870 
Q 1691 1906 1544 1906 
L 1113 1906 
L 1113 0 
L 588 0 
L 588 4481 
L 1925 4481 
Q 2219 4481 2467 4407 
Q 2716 4334 2898 4184 
Q 3081 4034 3184 3811 
Q 3288 3588 3288 3288 
Q 3288 3053 3217 2858 
Q 3147 2663 3017 2509 
Q 2888 2356 2705 2248 
Q 2522 2141 2294 2081 
L 2294 2069 
Q 2406 2019 2489 1955 
Q 2572 1891 2647 1803 
Q 2722 1716 2795 1605 
Q 2869 1494 2959 1347 
L 3800 0 
z
M 1113 4006 
L 1113 2381 
L 1825 2381 
Q 2022 2381 2189 2440 
Q 2356 2500 2478 2611 
Q 2600 2722 2669 2883 
Q 2738 3044 2738 3244 
Q 2738 3603 2505 3804 
Q 2272 4006 1831 4006 
L 1113 4006 
z
" transform="scale(0.015625)"/>
     </defs>
     <use xlink:href="#SegoeUI-52"/>
     <use xlink:href="#SegoeUI-3a" x="59.814453"/>
     <use xlink:href="#SegoeUI-20" x="81.494141"/>
     <use xlink:href="#SegoeUI-5b" x="108.886719"/>
     <use xlink:href="#SegoeUI-2d" x="139.0625"/>
     <use xlink:href="#SegoeUI-3c0" x="177.302734"/>
     <use xlink:href="#SegoeUI-2f" x="239.998047"/>
     <use xlink:href="#SegoeUI-32" x="278.962891"/>
     <use xlink:href="#SegoeUI-2c" x="332.869141"/>
     <use xlink:href="#SegoeUI-20" x="354.548828"/>
     <use xlink:href="#SegoeUI-3c0" x="381.941406"/>
     <use xlink:href="#SegoeUI-2f" x="444.636719"/>
     <use xlink:href="#SegoeUI-32" x="483.601562"/>
     <use xlink:href="#SegoeUI-5d" x="537.507812"/>
    </g>
   </g>
   <g id="text_11">
    <!-- $y = \arcsin(x) = \sin^{-1}(x)$ -->
    <g style="fill: #e12885" transform="translate(85.388045 36.497667) scale(0.11 -0.11)">
     <defs>
      <path id="DejaVuSans-Oblique-79" d="M 1588 -325 
Q 1188 -997 936 -1164 
Q 684 -1331 294 -1331 
L -159 -1331 
L -63 -850 
L 269 -850 
Q 509 -850 678 -719 
Q 847 -588 1056 -206 
L 1234 128 
L 459 3500 
L 1069 3500 
L 1650 819 
L 3256 3500 
L 3859 3500 
L 1588 -325 
z
" transform="scale(0.015625)"/>
      <path id="DejaVuSans-3d" d="M 678 2906 
L 4684 2906 
L 4684 2381 
L 678 2381 
L 678 2906 
z
M 678 1631 
L 4684 1631 
L 4684 1100 
L 678 1100 
L 678 1631 
z
" transform="scale(0.015625)"/>
      <path id="DejaVuSans-61" d="M 2194 1759 
Q 1497 1759 1228 1600 
Q 959 1441 959 1056 
Q 959 750 1161 570 
Q 1363 391 1709 391 
Q 2188 391 2477 730 
Q 2766 1069 2766 1631 
L 2766 1759 
L 2194 1759 
z
M 3341 1997 
L 3341 0 
L 2766 0 
L 2766 531 
Q 2569 213 2275 61 
Q 1981 -91 1556 -91 
Q 1019 -91 701 211 
Q 384 513 384 1019 
Q 384 1609 779 1909 
Q 1175 2209 1959 2209 
L 2766 2209 
L 2766 2266 
Q 2766 2663 2505 2880 
Q 2244 3097 1772 3097 
Q 1472 3097 1187 3025 
Q 903 2953 641 2809 
L 641 3341 
Q 956 3463 1253 3523 
Q 1550 3584 1831 3584 
Q 2591 3584 2966 3190 
Q 3341 2797 3341 1997 
z
" transform="scale(0.015625)"/>
      <path id="DejaVuSans-72" d="M 2631 2963 
Q 2534 3019 2420 3045 
Q 2306 3072 2169 3072 
Q 1681 3072 1420 2755 
Q 1159 2438 1159 1844 
L 1159 0 
L 581 0 
L 581 3500 
L 1159 3500 
L 1159 2956 
Q 1341 3275 1631 3429 
Q 1922 3584 2338 3584 
Q 2397 3584 2469 3576 
Q 2541 3569 2628 3553 
L 2631 2963 
z
" transform="scale(0.015625)"/>
      <path id="DejaVuSans-63" d="M 3122 3366 
L 3122 2828 
Q 2878 2963 2633 3030 
Q 2388 3097 2138 3097 
Q 1578 3097 1268 2742 
Q 959 2388 959 1747 
Q 959 1106 1268 751 
Q 1578 397 2138 397 
Q 2388 397 2633 464 
Q 2878 531 3122 666 
L 3122 134 
Q 2881 22 2623 -34 
Q 2366 -91 2075 -91 
Q 1284 -91 818 406 
Q 353 903 353 1747 
Q 353 2603 823 3093 
Q 1294 3584 2113 3584 
Q 2378 3584 2631 3529 
Q 2884 3475 3122 3366 
z
" transform="scale(0.015625)"/>
      <path id="DejaVuSans-73" d="M 2834 3397 
L 2834 2853 
Q 2591 2978 2328 3040 
Q 2066 3103 1784 3103 
Q 1356 3103 1142 2972 
Q 928 2841 928 2578 
Q 928 2378 1081 2264 
Q 1234 2150 1697 2047 
L 1894 2003 
Q 2506 1872 2764 1633 
Q 3022 1394 3022 966 
Q 3022 478 2636 193 
Q 2250 -91 1575 -91 
Q 1294 -91 989 -36 
Q 684 19 347 128 
L 347 722 
Q 666 556 975 473 
Q 1284 391 1588 391 
Q 1994 391 2212 530 
Q 2431 669 2431 922 
Q 2431 1156 2273 1281 
Q 2116 1406 1581 1522 
L 1381 1569 
Q 847 1681 609 1914 
Q 372 2147 372 2553 
Q 372 3047 722 3315 
Q 1072 3584 1716 3584 
Q 2034 3584 2315 3537 
Q 2597 3491 2834 3397 
z
" transform="scale(0.015625)"/>
      <path id="DejaVuSans-69" d="M 603 3500 
L 1178 3500 
L 1178 0 
L 603 0 
L 603 3500 
z
M 603 4863 
L 1178 4863 
L 1178 4134 
L 603 4134 
L 603 4863 
z
" transform="scale(0.015625)"/>
      <path id="DejaVuSans-6e" d="M 3513 2113 
L 3513 0 
L 2938 0 
L 2938 2094 
Q 2938 2591 2744 2837 
Q 2550 3084 2163 3084 
Q 1697 3084 1428 2787 
Q 1159 2491 1159 1978 
L 1159 0 
L 581 0 
L 581 3500 
L 1159 3500 
L 1159 2956 
Q 1366 3272 1645 3428 
Q 1925 3584 2291 3584 
Q 2894 3584 3203 3211 
Q 3513 2838 3513 2113 
z
" transform="scale(0.015625)"/>
      <path id="DejaVuSans-28" d="M 1984 4856 
Q 1566 4138 1362 3434 
Q 1159 2731 1159 2009 
Q 1159 1288 1364 580 
Q 1569 -128 1984 -844 
L 1484 -844 
Q 1016 -109 783 600 
Q 550 1309 550 2009 
Q 550 2706 781 3412 
Q 1013 4119 1484 4856 
L 1984 4856 
z
" transform="scale(0.015625)"/>
      <path id="DejaVuSans-Oblique-78" d="M 3841 3500 
L 2234 1784 
L 3219 0 
L 2559 0 
L 1819 1388 
L 531 0 
L -166 0 
L 1556 1844 
L 641 3500 
L 1300 3500 
L 1972 2234 
L 3144 3500 
L 3841 3500 
z
" transform="scale(0.015625)"/>
      <path id="DejaVuSans-29" d="M 513 4856 
L 1013 4856 
Q 1481 4119 1714 3412 
Q 1947 2706 1947 2009 
Q 1947 1309 1714 600 
Q 1481 -109 1013 -844 
L 513 -844 
Q 928 -128 1133 580 
Q 1338 1288 1338 2009 
Q 1338 2731 1133 3434 
Q 928 4138 513 4856 
z
" transform="scale(0.015625)"/>
      <path id="DejaVuSans-2212" d="M 678 2272 
L 4684 2272 
L 4684 1741 
L 678 1741 
L 678 2272 
z
" transform="scale(0.015625)"/>
      <path id="DejaVuSans-31" d="M 794 531 
L 1825 531 
L 1825 4091 
L 703 3866 
L 703 4441 
L 1819 4666 
L 2450 4666 
L 2450 531 
L 3481 531 
L 3481 0 
L 794 0 
L 794 531 
z
" transform="scale(0.015625)"/>
     </defs>
     <use xlink:href="#DejaVuSans-Oblique-79" transform="translate(0 0.684375)"/>
     <use xlink:href="#DejaVuSans-3d" transform="translate(78.662109 0.684375)"/>
     <use xlink:href="#DejaVuSans-61" transform="translate(181.933594 0.684375)"/>
     <use xlink:href="#DejaVuSans-72" transform="translate(243.212891 0.684375)"/>
     <use xlink:href="#DejaVuSans-63" transform="translate(284.326172 0.684375)"/>
     <use xlink:href="#DejaVuSans-73" transform="translate(339.306641 0.684375)"/>
     <use xlink:href="#DejaVuSans-69" transform="translate(391.40625 0.684375)"/>
     <use xlink:href="#DejaVuSans-6e" transform="translate(419.189453 0.684375)"/>
     <use xlink:href="#DejaVuSans-28" transform="translate(482.568359 0.684375)"/>
     <use xlink:href="#DejaVuSans-Oblique-78" transform="translate(521.582031 0.684375)"/>
     <use xlink:href="#DejaVuSans-29" transform="translate(580.761719 0.684375)"/>
     <use xlink:href="#DejaVuSans-3d" transform="translate(639.257812 0.684375)"/>
     <use xlink:href="#DejaVuSans-73" transform="translate(742.529297 0.684375)"/>
     <use xlink:href="#DejaVuSans-69" transform="translate(794.628906 0.684375)"/>
     <use xlink:href="#DejaVuSans-6e" transform="translate(822.412109 0.684375)"/>
     <use xlink:href="#DejaVuSans-2212" transform="translate(886.748047 38.965625) scale(0.7)"/>
     <use xlink:href="#DejaVuSans-31" transform="translate(945.400391 38.965625) scale(0.7)"/>
     <use xlink:href="#DejaVuSans-28" transform="translate(1008.906575 0.684375)"/>
     <use xlink:href="#DejaVuSans-Oblique-78" transform="translate(1047.920247 0.684375)"/>
     <use xlink:href="#DejaVuSans-29" transform="translate(1107.099934 0.684375)"/>
    </g>
   </g>
  </g>
  <g id="axes_2">
   <g id="patch_5">
    <path d="M 424.14609 364.439809 
L 630.39968 364.439809 
L 630.39968 42.497667 
L 424.14609 42.497667 
z
" style="fill: #ffffff"/>
   </g>
   <g id="matplotlib.axis_3">
    <g id="xtick_4">
     <g id="line2d_15">
      <g>
       <use xlink:href="#md5267ba778" x="447.944581" y="364.439809" style="fill: #2c2f33; stroke: #2c2f33; stroke-width: 0.8"/>
      </g>
     </g>
     <g id="text_12">
      <!-- −1 -->
      <g style="fill: #2c2f33" transform="translate(441.828956 378.842934) scale(0.1 -0.1)">
       <use xlink:href="#SegoeUI-2212"/>
       <use xlink:href="#SegoeUI-31" x="68.408203"/>
      </g>
     </g>
    </g>
    <g id="xtick_5">
     <g id="line2d_16">
      <g>
       <use xlink:href="#md5267ba778" x="527.272885" y="364.439809" style="fill: #2c2f33; stroke: #2c2f33; stroke-width: 0.8"/>
      </g>
     </g>
     <g id="text_13">
      <!-- 0 -->
      <g style="fill: #2c2f33" transform="translate(524.577572 378.842934) scale(0.1 -0.1)">
       <use xlink:href="#SegoeUI-30"/>
      </g>
     </g>
    </g>
    <g id="xtick_6">
     <g id="line2d_17">
      <g>
       <use xlink:href="#md5267ba778" x="606.601189" y="364.439809" style="fill: #2c2f33; stroke: #2c2f33; stroke-width: 0.8"/>
      </g>
     </g>
     <g id="text_14">
      <!-- 1 -->
      <g style="fill: #2c2f33" transform="translate(603.905876 378.842934) scale(0.1 -0.1)">
       <use xlink:href="#SegoeUI-31"/>
      </g>
     </g>
    </g>
    <g id="text_15">
     <!-- x -->
     <g style="fill: #2c2f33" transform="translate(524.977572 392.546059) scale(0.1 -0.1)">
      <use xlink:href="#SegoeUI-78"/>
     </g>
    </g>
   </g>
   <g id="matplotlib.axis_4">
    <g id="ytick_4">
     <g id="line2d_18">
      <g>
       <use xlink:href="#m7842c9e9a3" x="424.14609" y="339.023324" style="fill: #2c2f33; stroke: #2c2f33; stroke-width: 0.8"/>
      </g>
     </g>
     <g id="text_16">
      <!-- 0 -->
      <g style="fill: #2c2f33" transform="translate(412.294527 342.354731) scale(0.09 -0.09)">
       <use xlink:href="#SegoeUI-30"/>
      </g>
     </g>
    </g>
    <g id="ytick_5">
     <g id="line2d_19">
      <g>
       <use xlink:href="#m7842c9e9a3" x="424.14609" y="205.942921" style="fill: #2c2f33; stroke: #2c2f33; stroke-width: 0.8"/>
      </g>
     </g>
     <g id="text_17">
      <!-- π/2 -->
      <g style="fill: #2c2f33" transform="translate(403.144059 209.274327) scale(0.09 -0.09)">
       <use xlink:href="#SegoeUI-3c0"/>
       <use xlink:href="#SegoeUI-2f" x="62.695312"/>
       <use xlink:href="#SegoeUI-32" x="101.660156"/>
      </g>
     </g>
    </g>
    <g id="ytick_6">
     <g id="line2d_20">
      <g>
       <use xlink:href="#m7842c9e9a3" x="424.14609" y="72.862517" style="fill: #2c2f33; stroke: #2c2f33; stroke-width: 0.8"/>
      </g>
     </g>
     <g id="text_18">
      <!-- π -->
      <g style="fill: #2c2f33" transform="translate(411.502809 76.193923) scale(0.09 -0.09)">
       <use xlink:href="#SegoeUI-3c0"/>
      </g>
     </g>
    </g>
    <g id="text_19">
     <!-- y -->
     <g style="fill: #2c2f33" transform="translate(396.790934 205.88827) rotate(-90) scale(0.1 -0.1)">
      <use xlink:href="#SegoeUI-79"/>
     </g>
    </g>
   </g>
   <g id="line2d_21">
    <path d="M 424.14609 339.023324 
L 630.39968 339.023324 
" clip-path="url(#paaba905a22)" style="fill: none; stroke: #d1d5db; stroke-linecap: square"/>
   </g>
   <g id="line2d_22">
    <path d="M 527.272885 364.439809 
L 527.272885 42.497667 
" clip-path="url(#paaba905a22)" style="fill: none; stroke: #d1d5db; stroke-linecap: square"/>
   </g>
   <g id="line2d_23">
    <path d="M 424.14609 72.862517 
L 630.39968 72.862517 
" clip-path="url(#paaba905a22)" style="fill: none; stroke-dasharray: 3.7,1.6; stroke-dashoffset: 0; stroke: #e5e7eb"/>
   </g>
   <g id="line2d_24">
    <path d="M 447.944581 72.862517 
L 448.741851 84.884112 
L 449.53912 89.877944 
L 450.336389 93.719697 
L 451.930928 99.834839 
L 453.525467 104.831316 
L 455.120006 109.174353 
L 457.511814 114.901571 
L 459.903622 119.988092 
L 462.29543 124.624362 
L 465.484508 130.294895 
L 468.673585 135.528249 
L 472.659932 141.61049 
L 476.646279 147.303177 
L 481.429895 153.742526 
L 487.010781 160.843517 
L 493.388936 168.55336 
L 500.564361 176.850157 
L 509.334324 186.617615 
L 521.293365 199.550806 
L 546.805985 227.020791 
L 555.575948 236.851312 
L 562.751373 245.226035 
L 569.129528 253.032705 
L 574.710413 260.248706 
L 579.49403 266.819368 
L 583.480377 272.655343 
L 587.466724 278.92716 
L 590.655801 284.363116 
L 593.844879 290.308968 
L 596.236687 295.229246 
L 598.628495 300.714049 
L 600.223034 304.817788 
L 601.817573 309.451356 
L 603.412111 314.919084 
L 604.209381 318.166144 
L 605.00665 322.007898 
L 605.803919 327.001729 
L 606.601189 339.023324 
L 606.601189 339.023324 
" clip-path="url(#paaba905a22)" style="fill: none; stroke: #4b5563; stroke-width: 2.5; stroke-linecap: square"/>
   </g>
   <g id="line2d_25">
    <defs>
     <path id="m39b68d807c" d="M 0 3 
C 0.795609 3 1.55874 2.683901 2.12132 2.12132 
C 2.683901 1.55874 3 0.795609 3 0 
C 3 -0.795609 2.683901 -1.55874 2.12132 -2.12132 
C 1.55874 -2.683901 0.795609 -3 0 -3 
C -0.795609 -3 -1.55874 -2.683901 -2.12132 -2.12132 
C -2.683901 -1.55874 -3 -0.795609 -3 0 
C -3 0.795609 -2.683901 1.55874 -2.12132 2.12132 
C -1.55874 2.683901 -0.795609 3 0 3 
z
" style="stroke: #4b5563"/>
    </defs>
    <g clip-path="url(#paaba905a22)">
     <use xlink:href="#m39b68d807c" x="447.944581" y="72.862517" style="fill: #4b5563; stroke: #4b5563"/>
    </g>
   </g>
   <g id="line2d_26">
    <g clip-path="url(#paaba905a22)">
     <use xlink:href="#m39b68d807c" x="527.272885" y="205.942921" style="fill: #4b5563; stroke: #4b5563"/>
    </g>
   </g>
   <g id="line2d_27">
    <g clip-path="url(#paaba905a22)">
     <use xlink:href="#m39b68d807c" x="606.601189" y="339.023324" style="fill: #4b5563; stroke: #4b5563"/>
    </g>
   </g>
   <g id="patch_6">
    <path d="M 424.14609 364.439809 
L 424.14609 42.497667 
" style="fill: none; stroke: #4b5563; stroke-width: 0.8; stroke-linejoin: miter; stroke-linecap: square"/>
   </g>
   <g id="patch_7">
    <path d="M 424.14609 364.439809 
L 630.39968 364.439809 
" style="fill: none; stroke: #4b5563; stroke-width: 0.8; stroke-linejoin: miter; stroke-linecap: square"/>
   </g>
   <g id="text_20">
    <!-- D: [-1, 1] -->
    <g style="fill: #6b7280" transform="translate(578.836282 101.802799) scale(0.09 -0.09)">
     <use xlink:href="#SegoeUI-44"/>
     <use xlink:href="#SegoeUI-3a" x="70.117188"/>
     <use xlink:href="#SegoeUI-20" x="91.796875"/>
     <use xlink:href="#SegoeUI-5b" x="119.189453"/>
     <use xlink:href="#SegoeUI-2d" x="149.365234"/>
     <use xlink:href="#SegoeUI-31" x="189.355469"/>
     <use xlink:href="#SegoeUI-2c" x="243.261719"/>
     <use xlink:href="#SegoeUI-20" x="264.941406"/>
     <use xlink:href="#SegoeUI-31" x="292.333984"/>
     <use xlink:href="#SegoeUI-5d" x="346.240234"/>
    </g>
   </g>
   <g id="text_21">
    <!-- R: [0, π] -->
    <g style="fill: #6b7280" transform="translate(578.836282 127.219284) scale(0.09 -0.09)">
     <use xlink:href="#SegoeUI-52"/>
     <use xlink:href="#SegoeUI-3a" x="59.814453"/>
     <use xlink:href="#SegoeUI-20" x="81.494141"/>
     <use xlink:href="#SegoeUI-5b" x="108.886719"/>
     <use xlink:href="#SegoeUI-30" x="139.0625"/>
     <use xlink:href="#SegoeUI-2c" x="192.96875"/>
     <use xlink:href="#SegoeUI-20" x="214.648438"/>
     <use xlink:href="#SegoeUI-3c0" x="242.041016"/>
     <use xlink:href="#SegoeUI-5d" x="304.736328"/>
    </g>
   </g>
   <g id="text_22">
    <!-- $y = \arccos(x) = \cos^{-1}(x)$ -->
    <g style="fill: #4b5563" transform="translate(461.437885 36.497667) scale(0.11 -0.11)">
     <defs>
      <path id="DejaVuSans-6f" d="M 1959 3097 
Q 1497 3097 1228 2736 
Q 959 2375 959 1747 
Q 959 1119 1226 758 
Q 1494 397 1959 397 
Q 2419 397 2687 759 
Q 2956 1122 2956 1747 
Q 2956 2369 2687 2733 
Q 2419 3097 1959 3097 
z
M 1959 3584 
Q 2709 3584 3137 3096 
Q 3566 2609 3566 1747 
Q 3566 888 3137 398 
Q 2709 -91 1959 -91 
Q 1206 -91 779 398 
Q 353 888 353 1747 
Q 353 2609 779 3096 
Q 1206 3584 1959 3584 
z
" transform="scale(0.015625)"/>
     </defs>
     <use xlink:href="#DejaVuSans-Oblique-79" transform="translate(0 0.684375)"/>
     <use xlink:href="#DejaVuSans-3d" transform="translate(78.662109 0.684375)"/>
     <use xlink:href="#DejaVuSans-61" transform="translate(181.933594 0.684375)"/>
     <use xlink:href="#DejaVuSans-72" transform="translate(243.212891 0.684375)"/>
     <use xlink:href="#DejaVuSans-63" transform="translate(284.326172 0.684375)"/>
     <use xlink:href="#DejaVuSans-63" transform="translate(339.306641 0.684375)"/>
     <use xlink:href="#DejaVuSans-6f" transform="translate(394.287109 0.684375)"/>
     <use xlink:href="#DejaVuSans-73" transform="translate(455.46875 0.684375)"/>
     <use xlink:href="#DejaVuSans-28" transform="translate(507.568359 0.684375)"/>
     <use xlink:href="#DejaVuSans-Oblique-78" transform="translate(546.582031 0.684375)"/>
     <use xlink:href="#DejaVuSans-29" transform="translate(605.761719 0.684375)"/>
     <use xlink:href="#DejaVuSans-3d" transform="translate(664.257812 0.684375)"/>
     <use xlink:href="#DejaVuSans-63" transform="translate(767.529297 0.684375)"/>
     <use xlink:href="#DejaVuSans-6f" transform="translate(822.509766 0.684375)"/>
     <use xlink:href="#DejaVuSans-73" transform="translate(883.691406 0.684375)"/>
     <use xlink:href="#DejaVuSans-2212" transform="translate(936.748047 38.965625) scale(0.7)"/>
     <use xlink:href="#DejaVuSans-31" transform="translate(995.400391 38.965625) scale(0.7)"/>
     <use xlink:href="#DejaVuSans-28" transform="translate(1058.906575 0.684375)"/>
     <use xlink:href="#DejaVuSans-Oblique-78" transform="translate(1097.920247 0.684375)"/>
     <use xlink:href="#DejaVuSans-29" transform="translate(1157.099934 0.684375)"/>
    </g>
   </g>
  </g>
  <g id="axes_3">
   <g id="patch_8">
    <path d="M 802.94593 364.439809 
L 1009.19952 364.439809 
L 1009.19952 42.497667 
L 802.94593 42.497667 
z
" style="fill: #ffffff"/>
   </g>
   <g id="matplotlib.axis_5">
    <g id="xtick_7">
     <g id="line2d_28">
      <g>
       <use xlink:href="#md5267ba778" x="823.571289" y="364.439809" style="fill: #2c2f33; stroke: #2c2f33; stroke-width: 0.8"/>
      </g>
     </g>
     <g id="text_23">
      <!-- −4 -->
      <g style="fill: #2c2f33" transform="translate(817.455664 378.842934) scale(0.1 -0.1)">
       <defs>
        <path id="SegoeUI-34" d="M 2656 4481 
L 2656 1522 
L 3231 1522 
L 3231 1053 
L 2656 1053 
L 2656 0 
L 2150 0 
L 2150 1053 
L 44 1053 
L 44 1497 
Q 338 1828 638 2204 
Q 938 2581 1211 2968 
Q 1484 3356 1717 3742 
Q 1950 4128 2109 4481 
L 2656 4481 
z
M 622 1522 
L 2150 1522 
L 2150 3716 
Q 1916 3306 1706 2984 
Q 1497 2663 1308 2400 
Q 1119 2138 947 1925 
Q 775 1713 622 1522 
z
" transform="scale(0.015625)"/>
       </defs>
       <use xlink:href="#SegoeUI-2212"/>
       <use xlink:href="#SegoeUI-34" x="68.408203"/>
      </g>
     </g>
    </g>
    <g id="xtick_8">
     <g id="line2d_29">
      <g>
       <use xlink:href="#md5267ba778" x="864.822007" y="364.439809" style="fill: #2c2f33; stroke: #2c2f33; stroke-width: 0.8"/>
      </g>
     </g>
     <g id="text_24">
      <!-- −2 -->
      <g style="fill: #2c2f33" transform="translate(858.706382 378.842934) scale(0.1 -0.1)">
       <use xlink:href="#SegoeUI-2212"/>
       <use xlink:href="#SegoeUI-32" x="68.408203"/>
      </g>
     </g>
    </g>
    <g id="xtick_9">
     <g id="line2d_30">
      <g>
       <use xlink:href="#md5267ba778" x="906.072725" y="364.439809" style="fill: #2c2f33; stroke: #2c2f33; stroke-width: 0.8"/>
      </g>
     </g>
     <g id="text_25">
      <!-- 0 -->
      <g style="fill: #2c2f33" transform="translate(903.377412 378.842934) scale(0.1 -0.1)">
       <use xlink:href="#SegoeUI-30"/>
      </g>
     </g>
    </g>
    <g id="xtick_10">
     <g id="line2d_31">
      <g>
       <use xlink:href="#md5267ba778" x="947.323443" y="364.439809" style="fill: #2c2f33; stroke: #2c2f33; stroke-width: 0.8"/>
      </g>
     </g>
     <g id="text_26">
      <!-- 2 -->
      <g style="fill: #2c2f33" transform="translate(944.62813 378.842934) scale(0.1 -0.1)">
       <use xlink:href="#SegoeUI-32"/>
      </g>
     </g>
    </g>
    <g id="xtick_11">
     <g id="line2d_32">
      <g>
       <use xlink:href="#md5267ba778" x="988.574161" y="364.439809" style="fill: #2c2f33; stroke: #2c2f33; stroke-width: 0.8"/>
      </g>
     </g>
     <g id="text_27">
      <!-- 4 -->
      <g style="fill: #2c2f33" transform="translate(985.878849 378.842934) scale(0.1 -0.1)">
       <use xlink:href="#SegoeUI-34"/>
      </g>
     </g>
    </g>
    <g id="text_28">
     <!-- x -->
     <g style="fill: #2c2f33" transform="translate(903.777412 392.546059) scale(0.1 -0.1)">
      <use xlink:href="#SegoeUI-78"/>
     </g>
    </g>
   </g>
   <g id="matplotlib.axis_6">
    <g id="ytick_7">
     <g id="line2d_33">
      <g>
       <use xlink:href="#m7842c9e9a3" x="802.94593" y="329.895122" style="fill: #2c2f33; stroke: #2c2f33; stroke-width: 0.8"/>
      </g>
     </g>
     <g id="text_29">
      <!-- -π/2 -->
      <g style="fill: #2c2f33" transform="translate(778.502805 333.226528) scale(0.09 -0.09)">
       <use xlink:href="#SegoeUI-2d"/>
       <use xlink:href="#SegoeUI-3c0" x="38.240234"/>
       <use xlink:href="#SegoeUI-2f" x="100.935547"/>
       <use xlink:href="#SegoeUI-32" x="139.900391"/>
      </g>
     </g>
    </g>
    <g id="ytick_8">
     <g id="line2d_34">
      <g>
       <use xlink:href="#m7842c9e9a3" x="802.94593" y="203.468738" style="fill: #2c2f33; stroke: #2c2f33; stroke-width: 0.8"/>
      </g>
     </g>
     <g id="text_30">
      <!-- 0 -->
      <g style="fill: #2c2f33" transform="translate(791.094367 206.800145) scale(0.09 -0.09)">
       <use xlink:href="#SegoeUI-30"/>
      </g>
     </g>
    </g>
    <g id="ytick_9">
     <g id="line2d_35">
      <g>
       <use xlink:href="#m7842c9e9a3" x="802.94593" y="77.042355" style="fill: #2c2f33; stroke: #2c2f33; stroke-width: 0.8"/>
      </g>
     </g>
     <g id="text_31">
      <!-- π/2 -->
      <g style="fill: #2c2f33" transform="translate(781.943899 80.373761) scale(0.09 -0.09)">
       <use xlink:href="#SegoeUI-3c0"/>
       <use xlink:href="#SegoeUI-2f" x="62.695312"/>
       <use xlink:href="#SegoeUI-32" x="101.660156"/>
      </g>
     </g>
    </g>
    <g id="text_32">
     <!-- y -->
     <g style="fill: #2c2f33" transform="translate(772.14968 205.88827) rotate(-90) scale(0.1 -0.1)">
      <use xlink:href="#SegoeUI-79"/>
     </g>
    </g>
   </g>
   <g id="line2d_36">
    <path d="M 802.94593 203.468738 
L 1009.19952 203.468738 
" clip-path="url(#pb3c4c66c0c)" style="fill: none; stroke: #d1d5db; stroke-linecap: square"/>
   </g>
   <g id="line2d_37">
    <path d="M 906.072725 364.439809 
L 906.072725 42.497667 
" clip-path="url(#pb3c4c66c0c)" style="fill: none; stroke: #d1d5db; stroke-linecap: square"/>
   </g>
   <g id="line2d_38">
    <path d="M 802.94593 77.042355 
L 1009.19952 77.042355 
" clip-path="url(#pb3c4c66c0c)" style="fill: none; stroke-dasharray: 3.7,1.6; stroke-dashoffset: 0; stroke: #e5e7eb"/>
   </g>
   <g id="line2d_39">
    <path d="M 802.94593 329.895122 
L 1009.19952 329.895122 
" clip-path="url(#pb3c4c66c0c)" style="fill: none; stroke-dasharray: 3.7,1.6; stroke-dashoffset: 0; stroke: #e5e7eb"/>
   </g>
   <g id="line2d_40">
    <path d="M 802.94593 314.007634 
L 811.625941 312.590307 
L 819.06595 311.161456 
L 825.679292 309.682085 
L 831.879299 308.071632 
L 837.252639 306.459242 
L 842.212646 304.751328 
L 846.759318 302.960175 
L 850.892656 301.105197 
L 854.612661 299.214147 
L 858.332666 297.072 
L 861.639336 294.917056 
L 864.946007 292.481186 
L 867.839344 290.077747 
L 870.732681 287.37521 
L 873.212684 284.781439 
L 875.692687 281.890973 
L 878.17269 278.658712 
L 880.652693 275.032734 
L 883.132696 270.954184 
L 885.199366 267.162914 
L 887.266035 262.972438 
L 889.332704 258.342828 
L 891.399373 253.237069 
L 893.879376 246.440828 
L 896.35938 238.893004 
L 898.839383 230.616472 
L 901.73272 220.161054 
L 905.866058 204.27518 
L 911.239398 183.713552 
L 914.132735 173.485118 
L 916.612738 165.445253 
L 919.092741 158.148135 
L 921.572744 151.598842 
L 924.052747 145.762008 
L 926.53275 140.57943 
L 929.012754 135.983292 
L 931.492757 131.904743 
L 933.97276 128.278764 
L 936.452763 125.046504 
L 938.932766 122.156037 
L 941.826103 119.156006 
L 944.71944 116.499169 
L 947.612777 114.13473 
L 950.919447 111.736665 
L 954.226118 109.61361 
L 957.946123 107.501619 
L 961.666128 105.635846 
L 965.799466 103.804381 
L 970.346138 102.034677 
L 975.306144 100.34603 
L 980.679485 98.750733 
L 986.879492 97.156262 
L 993.492834 95.690589 
L 1000.932843 94.274056 
L 1009.19952 92.929842 
L 1009.19952 92.929842 
" clip-path="url(#pb3c4c66c0c)" style="fill: none; stroke: #f59e0b; stroke-width: 2.5; stroke-linecap: square"/>
   </g>
   <g id="line2d_41">
    <defs>
     <path id="me1f8b28267" d="M 0 3 
C 0.795609 3 1.55874 2.683901 2.12132 2.12132 
C 2.683901 1.55874 3 0.795609 3 0 
C 3 -0.795609 2.683901 -1.55874 2.12132 -2.12132 
C 1.55874 -2.683901 0.795609 -3 0 -3 
C -0.795609 -3 -1.55874 -2.683901 -2.12132 -2.12132 
C -2.683901 -1.55874 -3 -0.795609 -3 0 
C -3 0.795609 -2.683901 1.55874 -2.12132 2.12132 
C -1.55874 2.683901 -0.795609 3 0 3 
z
" style="stroke: #f59e0b"/>
    </defs>
    <g clip-path="url(#pb3c4c66c0c)">
     <use xlink:href="#me1f8b28267" x="885.447366" y="266.68193" style="fill: #f59e0b; stroke: #f59e0b"/>
    </g>
   </g>
   <g id="line2d_42">
    <g clip-path="url(#pb3c4c66c0c)">
     <use xlink:href="#me1f8b28267" x="906.072725" y="203.468738" style="fill: #f59e0b; stroke: #f59e0b"/>
    </g>
   </g>
   <g id="line2d_43">
    <g clip-path="url(#pb3c4c66c0c)">
     <use xlink:href="#me1f8b28267" x="926.698084" y="140.255547" style="fill: #f59e0b; stroke: #f59e0b"/>
    </g>
   </g>
   <g id="patch_9">
    <path d="M 802.94593 364.439809 
L 802.94593 42.497667 
" style="fill: none; stroke: #4b5563; stroke-width: 0.8; stroke-linejoin: miter; stroke-linecap: square"/>
   </g>
   <g id="patch_10">
    <path d="M 802.94593 364.439809 
L 1009.19952 364.439809 
" style="fill: none; stroke: #4b5563; stroke-width: 0.8; stroke-linejoin: miter; stroke-linecap: square"/>
   </g>
   <g id="text_33">
    <!-- D: ℝ -->
    <g style="fill: #6b7280" transform="translate(957.636123 106.886096) scale(0.09 -0.09)">
     <defs>
      <path id="SegoeUI-211d" d="M 519 0 
L 519 4369 
L 3613 4369 
L 3613 0 
L 519 0 
z
M 981 463 
L 3150 463 
L 3150 3906 
L 981 3906 
L 981 463 
z
" transform="scale(0.015625)"/>
     </defs>
     <use xlink:href="#SegoeUI-44"/>
     <use xlink:href="#SegoeUI-3a" x="70.117188"/>
     <use xlink:href="#SegoeUI-20" x="91.796875"/>
     <use xlink:href="#SegoeUI-211d" x="119.189453"/>
    </g>
   </g>
   <g id="text_34">
    <!-- R: (-π/2, π/2) -->
    <g style="fill: #6b7280" transform="translate(957.636123 127.00748) scale(0.09 -0.09)">
     <defs>
      <path id="SegoeUI-28" d="M 1863 -1019 
L 1406 -1019 
Q 438 88 438 1709 
Q 438 3338 1406 4481 
L 1869 4481 
Q 888 3294 888 1716 
Q 888 150 1863 -1019 
z
" transform="scale(0.015625)"/>
      <path id="SegoeUI-29" d="M 531 -1019 
L 75 -1019 
Q 1050 150 1050 1716 
Q 1050 3294 69 4481 
L 531 4481 
Q 1506 3338 1506 1709 
Q 1506 88 531 -1019 
z
" transform="scale(0.015625)"/>
     </defs>
     <use xlink:href="#SegoeUI-52"/>
     <use xlink:href="#SegoeUI-3a" x="59.814453"/>
     <use xlink:href="#SegoeUI-20" x="81.494141"/>
     <use xlink:href="#SegoeUI-28" x="108.886719"/>
     <use xlink:href="#SegoeUI-2d" x="139.0625"/>
     <use xlink:href="#SegoeUI-3c0" x="177.302734"/>
     <use xlink:href="#SegoeUI-2f" x="239.998047"/>
     <use xlink:href="#SegoeUI-32" x="278.962891"/>
     <use xlink:href="#SegoeUI-2c" x="332.869141"/>
     <use xlink:href="#SegoeUI-20" x="354.548828"/>
     <use xlink:href="#SegoeUI-3c0" x="381.941406"/>
     <use xlink:href="#SegoeUI-2f" x="444.636719"/>
     <use xlink:href="#SegoeUI-32" x="483.601562"/>
     <use xlink:href="#SegoeUI-29" x="537.507812"/>
    </g>
   </g>
   <g id="text_35">
    <!-- asíntota -->
    <g style="fill: #9ca3af" transform="translate(813.258609 64.969525) scale(0.08 -0.08)">
     <defs>
      <path id="SegoeUI-61" d="M 2809 0 
L 2297 0 
L 2297 500 
L 2284 500 
Q 1950 -75 1300 -75 
Q 822 -75 551 178 
Q 281 431 281 850 
Q 281 1747 1338 1894 
L 2297 2028 
Q 2297 2844 1638 2844 
Q 1059 2844 594 2450 
L 594 2975 
Q 1066 3275 1681 3275 
Q 2809 3275 2809 2081 
L 2809 0 
z
M 2297 1619 
L 1525 1513 
Q 1169 1463 987 1336 
Q 806 1209 806 888 
Q 806 653 973 504 
Q 1141 356 1419 356 
Q 1800 356 2048 623 
Q 2297 891 2297 1300 
L 2297 1619 
z
" transform="scale(0.015625)"/>
      <path id="SegoeUI-73" d="M 325 116 
L 325 666 
Q 744 356 1247 356 
Q 1922 356 1922 806 
Q 1922 934 1864 1023 
Q 1806 1113 1707 1181 
Q 1609 1250 1476 1304 
Q 1344 1359 1191 1419 
Q 978 1503 817 1589 
Q 656 1675 548 1783 
Q 441 1891 386 2028 
Q 331 2166 331 2350 
Q 331 2575 434 2748 
Q 538 2922 709 3039 
Q 881 3156 1101 3215 
Q 1322 3275 1556 3275 
Q 1972 3275 2300 3131 
L 2300 2613 
Q 1947 2844 1488 2844 
Q 1344 2844 1228 2811 
Q 1113 2778 1030 2718 
Q 947 2659 901 2576 
Q 856 2494 856 2394 
Q 856 2269 901 2184 
Q 947 2100 1034 2034 
Q 1122 1969 1247 1916 
Q 1372 1863 1531 1800 
Q 1744 1719 1912 1633 
Q 2081 1547 2200 1439 
Q 2319 1331 2383 1190 
Q 2447 1050 2447 856 
Q 2447 619 2342 444 
Q 2238 269 2063 153 
Q 1888 38 1659 -18 
Q 1431 -75 1181 -75 
Q 688 -75 325 116 
z
" transform="scale(0.015625)"/>
      <path id="SegoeUI-ed" d="M 1031 0 
L 519 0 
L 519 3200 
L 1031 3200 
L 1031 0 
z
M 1494 4831 
L 675 3806 
L 278 3806 
L 975 4831 
L 1494 4831 
z
" transform="scale(0.015625)"/>
      <path id="SegoeUI-6e" d="M 3175 0 
L 2663 0 
L 2663 1825 
Q 2663 2844 1919 2844 
Q 1534 2844 1282 2555 
Q 1031 2266 1031 1825 
L 1031 0 
L 519 0 
L 519 3200 
L 1031 3200 
L 1031 2669 
L 1044 2669 
Q 1406 3275 2094 3275 
Q 2619 3275 2897 2936 
Q 3175 2597 3175 1956 
L 3175 0 
z
" transform="scale(0.015625)"/>
      <path id="SegoeUI-74" d="M 2003 31 
Q 1822 -69 1525 -69 
Q 684 -69 684 869 
L 684 2763 
L 134 2763 
L 134 3200 
L 684 3200 
L 684 3981 
L 1197 4147 
L 1197 3200 
L 2003 3200 
L 2003 2763 
L 1197 2763 
L 1197 959 
Q 1197 638 1306 500 
Q 1416 363 1669 363 
Q 1863 363 2003 469 
L 2003 31 
z
" transform="scale(0.015625)"/>
      <path id="SegoeUI-6f" d="M 1856 -75 
Q 1147 -75 723 373 
Q 300 822 300 1563 
Q 300 2369 740 2822 
Q 1181 3275 1931 3275 
Q 2647 3275 3048 2834 
Q 3450 2394 3450 1613 
Q 3450 847 3017 386 
Q 2584 -75 1856 -75 
z
M 1894 2844 
Q 1400 2844 1112 2508 
Q 825 2172 825 1581 
Q 825 1013 1115 684 
Q 1406 356 1894 356 
Q 2391 356 2658 678 
Q 2925 1000 2925 1594 
Q 2925 2194 2658 2519 
Q 2391 2844 1894 2844 
z
" transform="scale(0.015625)"/>
     </defs>
     <use xlink:href="#SegoeUI-61"/>
     <use xlink:href="#SegoeUI-73" x="50.878906"/>
     <use xlink:href="#SegoeUI-ed" x="93.310547"/>
     <use xlink:href="#SegoeUI-6e" x="117.529297"/>
     <use xlink:href="#SegoeUI-74" x="174.121094"/>
     <use xlink:href="#SegoeUI-6f" x="207.257812"/>
     <use xlink:href="#SegoeUI-74" x="265.851562"/>
     <use xlink:href="#SegoeUI-61" x="299.738281"/>
    </g>
   </g>
   <g id="text_36">
    <!-- asíntota -->
    <g style="fill: #9ca3af" transform="translate(813.258609 341.967952) scale(0.08 -0.08)">
     <use xlink:href="#SegoeUI-61"/>
     <use xlink:href="#SegoeUI-73" x="50.878906"/>
     <use xlink:href="#SegoeUI-ed" x="93.310547"/>
     <use xlink:href="#SegoeUI-6e" x="117.529297"/>
     <use xlink:href="#SegoeUI-74" x="174.121094"/>
     <use xlink:href="#SegoeUI-6f" x="207.257812"/>
     <use xlink:href="#SegoeUI-74" x="265.851562"/>
     <use xlink:href="#SegoeUI-61" x="299.738281"/>
    </g>
   </g>
   <g id="text_37">
    <!-- $y = \arctan(x) = \tan^{-1}(x)$ -->
    <g style="fill: #f59e0b" transform="translate(840.732725 36.497667) scale(0.11 -0.11)">
     <defs>
      <path id="DejaVuSans-74" d="M 1172 4494 
L 1172 3500 
L 2356 3500 
L 2356 3053 
L 1172 3053 
L 1172 1153 
Q 1172 725 1289 603 
Q 1406 481 1766 481 
L 2356 481 
L 2356 0 
L 1766 0 
Q 1100 0 847 248 
Q 594 497 594 1153 
L 594 3053 
L 172 3053 
L 172 3500 
L 594 3500 
L 594 4494 
L 1172 4494 
z
" transform="scale(0.015625)"/>
     </defs>
     <use xlink:href="#DejaVuSans-Oblique-79" transform="translate(0 0.684375)"/>
     <use xlink:href="#DejaVuSans-3d" transform="translate(78.662109 0.684375)"/>
     <use xlink:href="#DejaVuSans-61" transform="translate(181.933594 0.684375)"/>
     <use xlink:href="#DejaVuSans-72" transform="translate(243.212891 0.684375)"/>
     <use xlink:href="#DejaVuSans-63" transform="translate(284.326172 0.684375)"/>
     <use xlink:href="#DejaVuSans-74" transform="translate(339.306641 0.684375)"/>
     <use xlink:href="#DejaVuSans-61" transform="translate(378.515625 0.684375)"/>
     <use xlink:href="#DejaVuSans-6e" transform="translate(439.794922 0.684375)"/>
     <use xlink:href="#DejaVuSans-28" transform="translate(503.173828 0.684375)"/>
     <use xlink:href="#DejaVuSans-Oblique-78" transform="translate(542.1875 0.684375)"/>
     <use xlink:href="#DejaVuSans-29" transform="translate(601.367188 0.684375)"/>
     <use xlink:href="#DejaVuSans-3d" transform="translate(659.863281 0.684375)"/>
     <use xlink:href="#DejaVuSans-74" transform="translate(763.134766 0.684375)"/>
     <use xlink:href="#DejaVuSans-61" transform="translate(802.34375 0.684375)"/>
     <use xlink:href="#DejaVuSans-6e" transform="translate(863.623047 0.684375)"/>
     <use xlink:href="#DejaVuSans-2212" transform="translate(927.958984 38.965625) scale(0.7)"/>
     <use xlink:href="#DejaVuSans-31" transform="translate(986.611328 38.965625) scale(0.7)"/>
     <use xlink:href="#DejaVuSans-28" transform="translate(1050.117512 0.684375)"/>
     <use xlink:href="#DejaVuSans-Oblique-78" transform="translate(1089.131184 0.684375)"/>
     <use xlink:href="#DejaVuSans-29" transform="translate(1148.310872 0.684375)"/>
    </g>
   </g>
  </g>
  <g id="axes_4">
   <g id="patch_11">
    <path d="M 64.623315 640.531847 
L 989.922455 640.531847 
L 989.922455 484.513732 
L 64.623315 484.513732 
z
" clip-path="url(#pb33ff634d5)" style="fill: #f9fafb; stroke: #d1d5db; stroke-width: 1.5; stroke-linejoin: miter"/>
   </g>
   <g id="line2d_44">
    <path d="M 93.538914 527.852097 
L 961.006856 527.852097 
" clip-path="url(#pb33ff634d5)" style="fill: none; stroke: #d1d5db; stroke-linecap: square"/>
   </g>
   <g id="text_38">
    <!-- Resumen de Funciones Trigonométricas Inversas -->
    <g style="fill: #2c2f33" transform="translate(402.513119 496.648474) scale(0.11 -0.11)">
     <defs>
      <path id="SegoeUI-Bold-52" d="M 4272 0 
L 3113 0 
L 2416 1153 
Q 2338 1284 2266 1387 
Q 2194 1491 2120 1564 
Q 2047 1638 1967 1677 
Q 1888 1716 1794 1716 
L 1522 1716 
L 1522 0 
L 513 0 
L 513 4481 
L 2113 4481 
Q 3744 4481 3744 3263 
Q 3744 3028 3672 2829 
Q 3600 2631 3469 2472 
Q 3338 2313 3152 2197 
Q 2966 2081 2738 2016 
L 2738 2003 
Q 2838 1972 2931 1901 
Q 3025 1831 3112 1737 
Q 3200 1644 3279 1536 
Q 3359 1428 3425 1325 
L 4272 0 
z
M 1522 3725 
L 1522 2478 
L 1959 2478 
Q 2284 2478 2481 2666 
Q 2681 2856 2681 3138 
Q 2681 3725 1978 3725 
L 1522 3725 
z
" transform="scale(0.015625)"/>
      <path id="SegoeUI-Bold-65" d="M 3291 1319 
L 1203 1319 
Q 1253 622 2081 622 
Q 2609 622 3009 872 
L 3009 159 
Q 2566 -78 1856 -78 
Q 1081 -78 653 351 
Q 225 781 225 1550 
Q 225 2347 687 2812 
Q 1150 3278 1825 3278 
Q 2525 3278 2908 2862 
Q 3291 2447 3291 1734 
L 3291 1319 
z
M 2375 1925 
Q 2375 2613 1819 2613 
Q 1581 2613 1407 2416 
Q 1234 2219 1197 1925 
L 2375 1925 
z
" transform="scale(0.015625)"/>
      <path id="SegoeUI-Bold-73" d="M 206 84 
L 206 884 
Q 450 738 692 666 
Q 934 594 1150 594 
Q 1413 594 1564 666 
Q 1716 738 1716 884 
Q 1716 978 1647 1040 
Q 1578 1103 1470 1150 
Q 1363 1197 1234 1234 
Q 1106 1272 988 1319 
Q 797 1391 651 1473 
Q 506 1556 407 1665 
Q 309 1775 257 1919 
Q 206 2063 206 2259 
Q 206 2528 323 2722 
Q 441 2916 636 3039 
Q 831 3163 1082 3220 
Q 1334 3278 1606 3278 
Q 1819 3278 2037 3245 
Q 2256 3213 2469 3150 
L 2469 2388 
Q 2281 2497 2067 2551 
Q 1853 2606 1647 2606 
Q 1550 2606 1464 2589 
Q 1378 2572 1312 2539 
Q 1247 2506 1209 2454 
Q 1172 2403 1172 2338 
Q 1172 2250 1228 2187 
Q 1284 2125 1375 2079 
Q 1466 2034 1577 1998 
Q 1688 1963 1797 1925 
Q 1994 1856 2153 1775 
Q 2313 1694 2427 1584 
Q 2541 1475 2602 1328 
Q 2663 1181 2663 978 
Q 2663 694 2539 492 
Q 2416 291 2211 164 
Q 2006 38 1739 -20 
Q 1472 -78 1184 -78 
Q 656 -78 206 84 
z
" transform="scale(0.015625)"/>
      <path id="SegoeUI-Bold-75" d="M 3456 0 
L 2472 0 
L 2472 488 
L 2456 488 
Q 2091 -78 1478 -78 
Q 366 -78 366 1269 
L 366 3200 
L 1350 3200 
L 1350 1356 
Q 1350 678 1888 678 
Q 2153 678 2312 864 
Q 2472 1050 2472 1369 
L 2472 3200 
L 3456 3200 
L 3456 0 
z
" transform="scale(0.015625)"/>
      <path id="SegoeUI-Bold-6d" d="M 5497 0 
L 4513 0 
L 4513 1825 
Q 4513 2522 4000 2522 
Q 3756 2522 3603 2312 
Q 3450 2103 3450 1791 
L 3450 0 
L 2463 0 
L 2463 1844 
Q 2463 2522 1959 2522 
Q 1706 2522 1554 2322 
Q 1403 2122 1403 1778 
L 1403 0 
L 416 0 
L 416 3200 
L 1403 3200 
L 1403 2700 
L 1416 2700 
Q 1569 2956 1845 3117 
Q 2122 3278 2450 3278 
Q 3128 3278 3378 2681 
Q 3744 3278 4453 3278 
Q 5497 3278 5497 1991 
L 5497 0 
z
" transform="scale(0.015625)"/>
      <path id="SegoeUI-Bold-6e" d="M 3506 0 
L 2522 0 
L 2522 1778 
Q 2522 2522 1991 2522 
Q 1734 2522 1568 2325 
Q 1403 2128 1403 1825 
L 1403 0 
L 416 0 
L 416 3200 
L 1403 3200 
L 1403 2694 
L 1416 2694 
Q 1769 3278 2444 3278 
Q 3506 3278 3506 1959 
L 3506 0 
z
" transform="scale(0.015625)"/>
      <path id="SegoeUI-Bold-20" transform="scale(0.015625)"/>
      <path id="SegoeUI-Bold-64" d="M 3547 0 
L 2559 0 
L 2559 441 
L 2547 441 
Q 2209 -78 1556 -78 
Q 956 -78 590 345 
Q 225 769 225 1528 
Q 225 2322 628 2800 
Q 1031 3278 1684 3278 
Q 2303 3278 2547 2834 
L 2559 2834 
L 2559 4738 
L 3547 4738 
L 3547 0 
z
M 2578 1556 
L 2578 1797 
Q 2578 2109 2397 2315 
Q 2216 2522 1925 2522 
Q 1597 2522 1412 2264 
Q 1228 2006 1228 1556 
Q 1228 1134 1406 906 
Q 1584 678 1900 678 
Q 2200 678 2389 918 
Q 2578 1159 2578 1556 
z
" transform="scale(0.015625)"/>
      <path id="SegoeUI-Bold-46" d="M 3103 3659 
L 1522 3659 
L 1522 2559 
L 2975 2559 
L 2975 1741 
L 1522 1741 
L 1522 0 
L 513 0 
L 513 4481 
L 3103 4481 
L 3103 3659 
z
" transform="scale(0.015625)"/>
      <path id="SegoeUI-Bold-63" d="M 2841 116 
Q 2506 -78 1875 -78 
Q 1138 -78 681 369 
Q 225 816 225 1522 
Q 225 2338 714 2808 
Q 1203 3278 2022 3278 
Q 2588 3278 2841 3128 
L 2841 2291 
Q 2531 2522 2150 2522 
Q 1725 2522 1476 2273 
Q 1228 2025 1228 1588 
Q 1228 1163 1465 920 
Q 1703 678 2119 678 
Q 2488 678 2841 909 
L 2841 116 
z
" transform="scale(0.015625)"/>
      <path id="SegoeUI-Bold-69" d="M 916 3706 
Q 666 3706 506 3854 
Q 347 4003 347 4219 
Q 347 4441 506 4581 
Q 666 4722 916 4722 
Q 1169 4722 1326 4581 
Q 1484 4441 1484 4219 
Q 1484 3994 1326 3850 
Q 1169 3706 916 3706 
z
M 1403 0 
L 416 0 
L 416 3200 
L 1403 3200 
L 1403 0 
z
" transform="scale(0.015625)"/>
      <path id="SegoeUI-Bold-6f" d="M 1941 -78 
Q 1141 -78 683 370 
Q 225 819 225 1588 
Q 225 2381 700 2829 
Q 1175 3278 1984 3278 
Q 2781 3278 3234 2829 
Q 3688 2381 3688 1644 
Q 3688 847 3220 384 
Q 2753 -78 1941 -78 
z
M 1966 2522 
Q 1616 2522 1422 2281 
Q 1228 2041 1228 1600 
Q 1228 678 1972 678 
Q 2681 678 2681 1625 
Q 2681 2522 1966 2522 
z
" transform="scale(0.015625)"/>
      <path id="SegoeUI-Bold-54" d="M 3659 3659 
L 2381 3659 
L 2381 0 
L 1369 0 
L 1369 3659 
L 97 3659 
L 97 4481 
L 3659 4481 
L 3659 3659 
z
" transform="scale(0.015625)"/>
      <path id="SegoeUI-Bold-72" d="M 2503 2309 
Q 2325 2406 2088 2406 
Q 1766 2406 1584 2170 
Q 1403 1934 1403 1528 
L 1403 0 
L 416 0 
L 416 3200 
L 1403 3200 
L 1403 2606 
L 1416 2606 
Q 1650 3256 2259 3256 
Q 2416 3256 2503 3219 
L 2503 2309 
z
" transform="scale(0.015625)"/>
      <path id="SegoeUI-Bold-67" d="M 3553 366 
Q 3553 -525 3037 -1014 
Q 2522 -1503 1544 -1503 
Q 897 -1503 519 -1319 
L 519 -488 
Q 1013 -775 1516 -775 
Q 2016 -775 2291 -511 
Q 2566 -247 2566 206 
L 2566 459 
L 2553 459 
Q 2216 -78 1556 -78 
Q 944 -78 584 353 
Q 225 784 225 1509 
Q 225 2322 625 2800 
Q 1025 3278 1678 3278 
Q 2263 3278 2553 2828 
L 2566 2828 
L 2566 3200 
L 3553 3200 
L 3553 366 
z
M 2578 1538 
L 2578 1791 
Q 2578 2094 2398 2308 
Q 2219 2522 1931 2522 
Q 1603 2522 1415 2265 
Q 1228 2009 1228 1544 
Q 1228 1144 1406 911 
Q 1584 678 1894 678 
Q 2200 678 2389 914 
Q 2578 1150 2578 1538 
z
" transform="scale(0.015625)"/>
      <path id="SegoeUI-Bold-e9" d="M 3291 1319 
L 1203 1319 
Q 1253 622 2081 622 
Q 2609 622 3009 872 
L 3009 159 
Q 2566 -78 1856 -78 
Q 1081 -78 653 351 
Q 225 781 225 1550 
Q 225 2347 687 2812 
Q 1150 3278 1825 3278 
Q 2525 3278 2908 2862 
Q 3291 2447 3291 1734 
L 3291 1319 
z
M 2375 1925 
Q 2375 2613 1819 2613 
Q 1581 2613 1407 2416 
Q 1234 2219 1197 1925 
L 2375 1925 
z
M 2879 4716 
L 1900 3706 
L 1188 3706 
L 2000 4716 
L 2879 4716 
z
" transform="scale(0.015625)"/>
      <path id="SegoeUI-Bold-74" d="M 2350 38 
Q 2131 -78 1691 -78 
Q 647 -78 647 1006 
L 647 2472 
L 128 2472 
L 128 3200 
L 647 3200 
L 647 3891 
L 1631 4172 
L 1631 3200 
L 2350 3200 
L 2350 2472 
L 1631 2472 
L 1631 1178 
Q 1631 678 2028 678 
Q 2184 678 2350 769 
L 2350 38 
z
" transform="scale(0.015625)"/>
      <path id="SegoeUI-Bold-61" d="M 3078 0 
L 2144 0 
L 2144 459 
L 2131 459 
Q 1809 -78 1178 -78 
Q 713 -78 445 186 
Q 178 450 178 891 
Q 178 1822 1281 1966 
L 2150 2081 
Q 2150 2606 1581 2606 
Q 1009 2606 494 2266 
L 494 3009 
Q 700 3116 1058 3197 
Q 1416 3278 1709 3278 
Q 3078 3278 3078 1913 
L 3078 0 
z
M 2150 1300 
L 2150 1516 
L 1569 1441 
Q 1088 1378 1088 1006 
Q 1088 838 1205 730 
Q 1322 622 1522 622 
Q 1800 622 1975 814 
Q 2150 1006 2150 1300 
z
" transform="scale(0.015625)"/>
      <path id="SegoeUI-Bold-49" d="M 1522 0 
L 513 0 
L 513 4481 
L 1522 4481 
L 1522 0 
z
" transform="scale(0.015625)"/>
      <path id="SegoeUI-Bold-76" d="M 3463 3200 
L 2272 0 
L 1147 0 
L 13 3200 
L 1069 3200 
L 1625 1228 
Q 1719 894 1734 659 
L 1747 659 
Q 1769 881 1863 1209 
L 2431 3200 
L 3463 3200 
z
" transform="scale(0.015625)"/>
     </defs>
     <use xlink:href="#SegoeUI-Bold-52"/>
     <use xlink:href="#SegoeUI-Bold-65" x="62.783203"/>
     <use xlink:href="#SegoeUI-Bold-73" x="116.884766"/>
     <use xlink:href="#SegoeUI-Bold-75" x="160.878906"/>
     <use xlink:href="#SegoeUI-Bold-6d" x="221.376953"/>
     <use xlink:href="#SegoeUI-Bold-65" x="312.978516"/>
     <use xlink:href="#SegoeUI-Bold-6e" x="367.080078"/>
     <use xlink:href="#SegoeUI-Bold-20" x="427.578125"/>
     <use xlink:href="#SegoeUI-Bold-64" x="455.166016"/>
     <use xlink:href="#SegoeUI-Bold-65" x="517.080078"/>
     <use xlink:href="#SegoeUI-Bold-20" x="571.181641"/>
     <use xlink:href="#SegoeUI-Bold-46" x="598.769531"/>
     <use xlink:href="#SegoeUI-Bold-75" x="650.771484"/>
     <use xlink:href="#SegoeUI-Bold-6e" x="711.269531"/>
     <use xlink:href="#SegoeUI-Bold-63" x="771.767578"/>
     <use xlink:href="#SegoeUI-Bold-69" x="819.765625"/>
     <use xlink:href="#SegoeUI-Bold-6f" x="848.183594"/>
     <use xlink:href="#SegoeUI-Bold-6e" x="909.316406"/>
     <use xlink:href="#SegoeUI-Bold-65" x="969.814453"/>
     <use xlink:href="#SegoeUI-Bold-73" x="1023.916016"/>
     <use xlink:href="#SegoeUI-Bold-20" x="1067.910156"/>
     <use xlink:href="#SegoeUI-Bold-54" x="1095.498047"/>
     <use xlink:href="#SegoeUI-Bold-72" x="1146.591797"/>
     <use xlink:href="#SegoeUI-Bold-69" x="1186.761719"/>
     <use xlink:href="#SegoeUI-Bold-67" x="1215.179688"/>
     <use xlink:href="#SegoeUI-Bold-6f" x="1277.09375"/>
     <use xlink:href="#SegoeUI-Bold-6e" x="1338.226562"/>
     <use xlink:href="#SegoeUI-Bold-6f" x="1398.724609"/>
     <use xlink:href="#SegoeUI-Bold-6d" x="1459.857422"/>
     <use xlink:href="#SegoeUI-Bold-e9" x="1551.458984"/>
     <use xlink:href="#SegoeUI-Bold-74" x="1605.560547"/>
     <use xlink:href="#SegoeUI-Bold-72" x="1644.476562"/>
     <use xlink:href="#SegoeUI-Bold-69" x="1684.646484"/>
     <use xlink:href="#SegoeUI-Bold-63" x="1713.064453"/>
     <use xlink:href="#SegoeUI-Bold-61" x="1761.0625"/>
     <use xlink:href="#SegoeUI-Bold-73" x="1814.871094"/>
     <use xlink:href="#SegoeUI-Bold-20" x="1858.865234"/>
     <use xlink:href="#SegoeUI-Bold-49" x="1886.453125"/>
     <use xlink:href="#SegoeUI-Bold-6e" x="1918.142578"/>
     <use xlink:href="#SegoeUI-Bold-76" x="1978.640625"/>
     <use xlink:href="#SegoeUI-Bold-65" x="2031.839844"/>
     <use xlink:href="#SegoeUI-Bold-72" x="2085.941406"/>
     <use xlink:href="#SegoeUI-Bold-73" x="2126.361328"/>
     <use xlink:href="#SegoeUI-Bold-61" x="2170.355469"/>
     <use xlink:href="#SegoeUI-Bold-73" x="2224.164062"/>
    </g>
   </g>
   <g id="text_39">
    <!-- Función -->
    <g style="fill: #39c5bb" transform="translate(171.37424 519.184424) scale(0.1 -0.1)">
     <defs>
      <path id="SegoeUI-Bold-f3" d="M 1941 -78 
Q 1141 -78 683 370 
Q 225 819 225 1588 
Q 225 2381 700 2829 
Q 1175 3278 1984 3278 
Q 2781 3278 3234 2829 
Q 3688 2381 3688 1644 
Q 3688 847 3220 384 
Q 2753 -78 1941 -78 
z
M 1966 2522 
Q 1616 2522 1422 2281 
Q 1228 2041 1228 1600 
Q 1228 678 1972 678 
Q 2681 678 2681 1625 
Q 2681 2522 1966 2522 
z
M 3023 4716 
L 2044 3706 
L 1332 3706 
L 2144 4716 
L 3023 4716 
z
" transform="scale(0.015625)"/>
     </defs>
     <use xlink:href="#SegoeUI-Bold-46"/>
     <use xlink:href="#SegoeUI-Bold-75" x="52.001953"/>
     <use xlink:href="#SegoeUI-Bold-6e" x="112.5"/>
     <use xlink:href="#SegoeUI-Bold-63" x="172.998047"/>
     <use xlink:href="#SegoeUI-Bold-69" x="220.996094"/>
     <use xlink:href="#SegoeUI-Bold-f3" x="249.414062"/>
     <use xlink:href="#SegoeUI-Bold-6e" x="310.498047"/>
    </g>
   </g>
   <g id="text_40">
    <!-- Dominio -->
    <g style="fill: #39c5bb" transform="translate(362.446457 519.184424) scale(0.1 -0.1)">
     <defs>
      <path id="SegoeUI-Bold-44" d="M 513 0 
L 513 4481 
L 2100 4481 
Q 4488 4481 4488 2297 
Q 4488 1250 3836 625 
Q 3184 0 2100 0 
L 513 0 
z
M 1522 3659 
L 1522 819 
L 2022 819 
Q 2678 819 3051 1212 
Q 3425 1606 3425 2284 
Q 3425 2925 3054 3292 
Q 2684 3659 2016 3659 
L 1522 3659 
z
" transform="scale(0.015625)"/>
     </defs>
     <use xlink:href="#SegoeUI-Bold-44"/>
     <use xlink:href="#SegoeUI-Bold-6f" x="73.730469"/>
     <use xlink:href="#SegoeUI-Bold-6d" x="134.863281"/>
     <use xlink:href="#SegoeUI-Bold-69" x="226.464844"/>
     <use xlink:href="#SegoeUI-Bold-6e" x="254.882812"/>
     <use xlink:href="#SegoeUI-Bold-69" x="315.380859"/>
     <use xlink:href="#SegoeUI-Bold-6f" x="343.798828"/>
    </g>
   </g>
   <g id="text_41">
    <!-- Rango -->
    <g style="fill: #39c5bb" transform="translate(560.332736 519.184424) scale(0.1 -0.1)">
     <use xlink:href="#SegoeUI-Bold-52"/>
     <use xlink:href="#SegoeUI-Bold-61" x="65.283203"/>
     <use xlink:href="#SegoeUI-Bold-6e" x="119.091797"/>
     <use xlink:href="#SegoeUI-Bold-67" x="179.589844"/>
     <use xlink:href="#SegoeUI-Bold-6f" x="241.503906"/>
    </g>
   </g>
   <g id="text_42">
    <!-- Notación -->
    <g style="fill: #39c5bb" transform="translate(794.885116 519.184424) scale(0.1 -0.1)">
     <defs>
      <path id="SegoeUI-Bold-4e" d="M 4544 0 
L 3525 0 
L 1678 2816 
Q 1516 3063 1453 3188 
L 1441 3188 
Q 1466 2950 1466 2463 
L 1466 0 
L 513 0 
L 513 4481 
L 1600 4481 
L 3378 1753 
Q 3500 1569 3603 1388 
L 3616 1388 
Q 3591 1544 3591 2003 
L 3591 4481 
L 4544 4481 
L 4544 0 
z
" transform="scale(0.015625)"/>
     </defs>
     <use xlink:href="#SegoeUI-Bold-4e"/>
     <use xlink:href="#SegoeUI-Bold-6f" x="79.003906"/>
     <use xlink:href="#SegoeUI-Bold-74" x="140.136719"/>
     <use xlink:href="#SegoeUI-Bold-61" x="179.052734"/>
     <use xlink:href="#SegoeUI-Bold-63" x="232.861328"/>
     <use xlink:href="#SegoeUI-Bold-69" x="280.859375"/>
     <use xlink:href="#SegoeUI-Bold-f3" x="309.277344"/>
     <use xlink:href="#SegoeUI-Bold-6e" x="370.361328"/>
    </g>
   </g>
   <g id="text_43">
    <!-- Arcoseno -->
    <g style="fill: #e12885" transform="translate(170.186115 548.654513) scale(0.09 -0.09)">
     <defs>
      <path id="SegoeUI-Bold-41" d="M 4453 0 
L 3353 0 
L 3034 997 
L 1441 997 
L 1125 0 
L 31 0 
L 1663 4481 
L 2859 4481 
L 4453 0 
z
M 2803 1772 
L 2322 3278 
Q 2269 3447 2247 3681 
L 2222 3681 
Q 2206 3484 2144 3291 
L 1656 1772 
L 2803 1772 
z
" transform="scale(0.015625)"/>
     </defs>
     <use xlink:href="#SegoeUI-Bold-41"/>
     <use xlink:href="#SegoeUI-Bold-72" x="70.3125"/>
     <use xlink:href="#SegoeUI-Bold-63" x="109.732422"/>
     <use xlink:href="#SegoeUI-Bold-6f" x="157.730469"/>
     <use xlink:href="#SegoeUI-Bold-73" x="218.863281"/>
     <use xlink:href="#SegoeUI-Bold-65" x="262.857422"/>
     <use xlink:href="#SegoeUI-Bold-6e" x="316.958984"/>
     <use xlink:href="#SegoeUI-Bold-6f" x="377.457031"/>
    </g>
   </g>
   <g id="text_44">
    <!-- [-1, 1] -->
    <g style="fill: #374151" transform="translate(371.120051 548.654513) scale(0.09 -0.09)">
     <use xlink:href="#SegoeUI-5b"/>
     <use xlink:href="#SegoeUI-2d" x="30.175781"/>
     <use xlink:href="#SegoeUI-31" x="70.166016"/>
     <use xlink:href="#SegoeUI-2c" x="124.072266"/>
     <use xlink:href="#SegoeUI-20" x="145.751953"/>
     <use xlink:href="#SegoeUI-31" x="173.144531"/>
     <use xlink:href="#SegoeUI-5d" x="227.050781"/>
    </g>
   </g>
   <g id="text_45">
    <!-- [-π/2, π/2] -->
    <g style="fill: #374151" transform="translate(554.818986 548.654513) scale(0.09 -0.09)">
     <use xlink:href="#SegoeUI-5b"/>
     <use xlink:href="#SegoeUI-2d" x="30.175781"/>
     <use xlink:href="#SegoeUI-3c0" x="68.416016"/>
     <use xlink:href="#SegoeUI-2f" x="131.111328"/>
     <use xlink:href="#SegoeUI-32" x="170.076172"/>
     <use xlink:href="#SegoeUI-2c" x="223.982422"/>
     <use xlink:href="#SegoeUI-20" x="245.662109"/>
     <use xlink:href="#SegoeUI-3c0" x="273.054688"/>
     <use xlink:href="#SegoeUI-2f" x="335.75"/>
     <use xlink:href="#SegoeUI-32" x="374.714844"/>
     <use xlink:href="#SegoeUI-5d" x="428.621094"/>
    </g>
   </g>
   <g id="text_46">
    <!-- arcsin, sin⁻¹ -->
    <g style="fill: #6b7280" transform="translate(794.029413 548.654513) scale(0.09 -0.09)">
     <defs>
      <path id="SegoeUI-72" d="M 2188 2681 
Q 2053 2784 1800 2784 
Q 1472 2784 1251 2475 
Q 1031 2166 1031 1631 
L 1031 0 
L 519 0 
L 519 3200 
L 1031 3200 
L 1031 2541 
L 1044 2541 
Q 1153 2878 1378 3067 
Q 1603 3256 1881 3256 
Q 2081 3256 2188 3213 
L 2188 2681 
z
" transform="scale(0.015625)"/>
      <path id="SegoeUI-63" d="M 2700 147 
Q 2331 -75 1825 -75 
Q 1141 -75 720 370 
Q 300 816 300 1525 
Q 300 2316 753 2795 
Q 1206 3275 1963 3275 
Q 2384 3275 2706 3119 
L 2706 2594 
Q 2350 2844 1944 2844 
Q 1453 2844 1139 2492 
Q 825 2141 825 1569 
Q 825 1006 1120 681 
Q 1416 356 1913 356 
Q 2331 356 2700 634 
L 2700 147 
z
" transform="scale(0.015625)"/>
      <path id="SegoeUI-69" d="M 781 4013 
Q 644 4013 547 4106 
Q 450 4200 450 4344 
Q 450 4488 547 4583 
Q 644 4678 781 4678 
Q 922 4678 1020 4583 
Q 1119 4488 1119 4344 
Q 1119 4206 1020 4109 
Q 922 4013 781 4013 
z
M 1031 0 
L 519 0 
L 519 3200 
L 1031 3200 
L 1031 0 
z
" transform="scale(0.015625)"/>
      <path id="SegoeUI-207b" d="M 291 4232 
L 2053 4232 
L 2053 3919 
L 291 3919 
L 291 4232 
z
" transform="scale(0.015625)"/>
      <path id="SegoeUI-b9" d="M 1000 2785 
L 1000 4991 
Q 822 4848 634 4737 
Q 447 4626 250 4541 
L 250 4963 
Q 369 5004 478 5057 
Q 588 5110 700 5177 
Q 813 5244 931 5327 
Q 1050 5410 1188 5510 
L 1406 5510 
L 1406 2785 
L 1000 2785 
z
" transform="scale(0.015625)"/>
     </defs>
     <use xlink:href="#SegoeUI-61"/>
     <use xlink:href="#SegoeUI-72" x="50.878906"/>
     <use xlink:href="#SegoeUI-63" x="84.269531"/>
     <use xlink:href="#SegoeUI-73" x="130.460938"/>
     <use xlink:href="#SegoeUI-69" x="172.892578"/>
     <use xlink:href="#SegoeUI-6e" x="197.111328"/>
     <use xlink:href="#SegoeUI-2c" x="253.703125"/>
     <use xlink:href="#SegoeUI-20" x="275.382812"/>
     <use xlink:href="#SegoeUI-73" x="302.775391"/>
     <use xlink:href="#SegoeUI-69" x="345.207031"/>
     <use xlink:href="#SegoeUI-6e" x="369.425781"/>
     <use xlink:href="#SegoeUI-207b" x="426.017578"/>
     <use xlink:href="#SegoeUI-b9" x="462.638672"/>
    </g>
   </g>
   <g id="text_47">
    <!-- Arcocoseno -->
    <g style="fill: #4b5563" transform="translate(165.274787 574.657532) scale(0.09 -0.09)">
     <use xlink:href="#SegoeUI-Bold-41"/>
     <use xlink:href="#SegoeUI-Bold-72" x="70.3125"/>
     <use xlink:href="#SegoeUI-Bold-63" x="109.732422"/>
     <use xlink:href="#SegoeUI-Bold-6f" x="157.730469"/>
     <use xlink:href="#SegoeUI-Bold-63" x="218.863281"/>
     <use xlink:href="#SegoeUI-Bold-6f" x="266.861328"/>
     <use xlink:href="#SegoeUI-Bold-73" x="327.994141"/>
     <use xlink:href="#SegoeUI-Bold-65" x="371.988281"/>
     <use xlink:href="#SegoeUI-Bold-6e" x="426.089844"/>
     <use xlink:href="#SegoeUI-Bold-6f" x="486.587891"/>
    </g>
   </g>
   <g id="text_48">
    <!-- [-1, 1] -->
    <g style="fill: #374151" transform="translate(371.120051 574.657532) scale(0.09 -0.09)">
     <use xlink:href="#SegoeUI-5b"/>
     <use xlink:href="#SegoeUI-2d" x="30.175781"/>
     <use xlink:href="#SegoeUI-31" x="70.166016"/>
     <use xlink:href="#SegoeUI-2c" x="124.072266"/>
     <use xlink:href="#SegoeUI-20" x="145.751953"/>
     <use xlink:href="#SegoeUI-31" x="173.144531"/>
     <use xlink:href="#SegoeUI-5d" x="227.050781"/>
    </g>
   </g>
   <g id="text_49">
    <!-- [0, π] -->
    <g style="fill: #374151" transform="translate(565.294142 574.657532) scale(0.09 -0.09)">
     <use xlink:href="#SegoeUI-5b"/>
     <use xlink:href="#SegoeUI-30" x="30.175781"/>
     <use xlink:href="#SegoeUI-2c" x="84.082031"/>
     <use xlink:href="#SegoeUI-20" x="105.761719"/>
     <use xlink:href="#SegoeUI-3c0" x="133.154297"/>
     <use xlink:href="#SegoeUI-5d" x="195.849609"/>
    </g>
   </g>
   <g id="text_50">
    <!-- arccos, cos⁻¹ -->
    <g style="fill: #6b7280" transform="translate(791.872225 574.657532) scale(0.09 -0.09)">
     <use xlink:href="#SegoeUI-61"/>
     <use xlink:href="#SegoeUI-72" x="50.878906"/>
     <use xlink:href="#SegoeUI-63" x="84.269531"/>
     <use xlink:href="#SegoeUI-63" x="130.460938"/>
     <use xlink:href="#SegoeUI-6f" x="176.652344"/>
     <use xlink:href="#SegoeUI-73" x="235.246094"/>
     <use xlink:href="#SegoeUI-2c" x="277.677734"/>
     <use xlink:href="#SegoeUI-20" x="299.357422"/>
     <use xlink:href="#SegoeUI-63" x="326.75"/>
     <use xlink:href="#SegoeUI-6f" x="372.941406"/>
     <use xlink:href="#SegoeUI-73" x="431.535156"/>
     <use xlink:href="#SegoeUI-207b" x="473.966797"/>
     <use xlink:href="#SegoeUI-b9" x="510.587891"/>
    </g>
   </g>
   <g id="text_51">
    <!-- Arcotangente -->
    <g style="fill: #f59e0b" transform="translate(161.065881 600.660551) scale(0.09 -0.09)">
     <use xlink:href="#SegoeUI-Bold-41"/>
     <use xlink:href="#SegoeUI-Bold-72" x="70.3125"/>
     <use xlink:href="#SegoeUI-Bold-63" x="109.732422"/>
     <use xlink:href="#SegoeUI-Bold-6f" x="157.730469"/>
     <use xlink:href="#SegoeUI-Bold-74" x="218.863281"/>
     <use xlink:href="#SegoeUI-Bold-61" x="257.779297"/>
     <use xlink:href="#SegoeUI-Bold-6e" x="311.587891"/>
     <use xlink:href="#SegoeUI-Bold-67" x="372.085938"/>
     <use xlink:href="#SegoeUI-Bold-65" x="434"/>
     <use xlink:href="#SegoeUI-Bold-6e" x="488.101562"/>
     <use xlink:href="#SegoeUI-Bold-74" x="548.599609"/>
     <use xlink:href="#SegoeUI-Bold-65" x="587.140625"/>
    </g>
   </g>
   <g id="text_52">
    <!-- ℝ -->
    <g style="fill: #374151" transform="translate(379.790285 600.660551) scale(0.09 -0.09)">
     <use xlink:href="#SegoeUI-211d"/>
    </g>
   </g>
   <g id="text_53">
    <!-- (-π/2, π/2) -->
    <g style="fill: #374151" transform="translate(554.818986 600.660551) scale(0.09 -0.09)">
     <use xlink:href="#SegoeUI-28"/>
     <use xlink:href="#SegoeUI-2d" x="30.175781"/>
     <use xlink:href="#SegoeUI-3c0" x="68.416016"/>
     <use xlink:href="#SegoeUI-2f" x="131.111328"/>
     <use xlink:href="#SegoeUI-32" x="170.076172"/>
     <use xlink:href="#SegoeUI-2c" x="223.982422"/>
     <use xlink:href="#SegoeUI-20" x="245.662109"/>
     <use xlink:href="#SegoeUI-3c0" x="273.054688"/>
     <use xlink:href="#SegoeUI-2f" x="335.75"/>
     <use xlink:href="#SegoeUI-32" x="374.714844"/>
     <use xlink:href="#SegoeUI-29" x="428.621094"/>
    </g>
   </g>
   <g id="text_54">
    <!-- arctan, tan⁻¹ -->
    <g style="fill: #6b7280" transform="translate(792.399569 600.660551) scale(0.09 -0.09)">
     <use xlink:href="#SegoeUI-61"/>
     <use xlink:href="#SegoeUI-72" x="50.878906"/>
     <use xlink:href="#SegoeUI-63" x="84.269531"/>
     <use xlink:href="#SegoeUI-74" x="130.460938"/>
     <use xlink:href="#SegoeUI-61" x="164.347656"/>
     <use xlink:href="#SegoeUI-6e" x="215.226562"/>
     <use xlink:href="#SegoeUI-2c" x="271.818359"/>
     <use xlink:href="#SegoeUI-20" x="293.498047"/>
     <use xlink:href="#SegoeUI-74" x="320.890625"/>
     <use xlink:href="#SegoeUI-61" x="354.777344"/>
     <use xlink:href="#SegoeUI-6e" x="405.65625"/>
     <use xlink:href="#SegoeUI-207b" x="462.248047"/>
     <use xlink:href="#SegoeUI-b9" x="498.869141"/>
    </g>
   </g>
   <g id="text_55">
    <!-- ⚠️ Nota: sin⁻¹(x) ≠ 1/sin(x). La notación "⁻¹" indica función inversa. -->
    <g style="fill: #dc2626" transform="translate(397.474604 631.864174) scale(0.09 -0.09)">
     <defs>
      <path id="SegoeUI-Italic-26a0" d="M 519 0 
L 519 4369 
L 3613 4369 
L 3613 0 
L 519 0 
z
M 981 463 
L 3150 463 
L 3150 3906 
L 981 3906 
L 981 463 
z
" transform="scale(0.015625)"/>
      <path id="SegoeUI-Italic-fe0f" d="M 519 0 
L 519 4369 
L 3613 4369 
L 3613 0 
L 519 0 
z
M 981 463 
L 3150 463 
L 3150 3906 
L 981 3906 
L 981 463 
z
" transform="scale(0.015625)"/>
      <path id="SegoeUI-Italic-20" transform="scale(0.015625)"/>
      <path id="SegoeUI-Italic-4e" d="M 3878 0 
L 3297 0 
L 1644 3591 
Q 1634 3616 1621 3652 
Q 1609 3688 1596 3728 
Q 1584 3769 1575 3806 
Q 1566 3844 1563 3866 
L 1544 3866 
Q 1541 3834 1536 3789 
Q 1531 3744 1525 3697 
Q 1519 3650 1511 3604 
Q 1503 3559 1497 3525 
L 750 0 
L 231 0 
L 1178 4481 
L 1806 4481 
L 3391 966 
Q 3406 938 3422 898 
Q 3438 859 3453 817 
Q 3469 775 3483 734 
Q 3497 694 3506 666 
L 3519 666 
Q 3522 703 3528 753 
Q 3534 803 3540 858 
Q 3547 913 3556 966 
Q 3566 1019 3572 1056 
L 4300 4481 
L 4831 4481 
L 3878 0 
z
" transform="scale(0.015625)"/>
      <path id="SegoeUI-Italic-6f" d="M 3181 2016 
Q 3181 1591 3061 1209 
Q 2941 828 2714 542 
Q 2488 256 2164 89 
Q 1841 -78 1434 -78 
Q 1159 -78 939 9 
Q 719 97 564 261 
Q 409 425 326 658 
Q 244 891 244 1184 
Q 244 1625 370 2008 
Q 497 2391 726 2673 
Q 956 2956 1276 3117 
Q 1597 3278 1984 3278 
Q 2256 3278 2476 3190 
Q 2697 3103 2853 2939 
Q 3009 2775 3095 2542 
Q 3181 2309 3181 2016 
z
M 2656 1991 
Q 2656 2194 2606 2351 
Q 2556 2509 2465 2617 
Q 2375 2725 2247 2783 
Q 2119 2841 1959 2841 
Q 1684 2841 1462 2700 
Q 1241 2559 1087 2329 
Q 934 2100 851 1808 
Q 769 1516 769 1209 
Q 769 1016 817 858 
Q 866 700 955 589 
Q 1044 478 1173 418 
Q 1303 359 1466 359 
Q 1744 359 1966 498 
Q 2188 638 2341 867 
Q 2494 1097 2575 1390 
Q 2656 1684 2656 1991 
z
" transform="scale(0.015625)"/>
      <path id="SegoeUI-Italic-74" d="M 2156 2766 
L 1350 2766 
L 991 1069 
Q 972 972 953 859 
Q 934 747 934 678 
Q 934 519 1004 448 
Q 1075 378 1228 378 
Q 1266 378 1325 390 
Q 1384 403 1446 422 
Q 1509 441 1570 464 
Q 1631 488 1678 506 
L 1581 56 
Q 1472 9 1333 -23 
Q 1194 -56 1069 -56 
Q 891 -56 766 -11 
Q 641 34 561 118 
Q 481 203 445 323 
Q 409 444 409 594 
Q 409 684 426 804 
Q 444 925 469 1025 
L 838 2766 
L 306 2766 
L 403 3200 
L 928 3200 
L 1094 3981 
Q 1106 3988 1189 4011 
Q 1272 4034 1370 4064 
Q 1469 4094 1551 4119 
Q 1634 4144 1644 4147 
L 1447 3200 
L 2253 3200 
L 2156 2766 
z
" transform="scale(0.015625)"/>
      <path id="SegoeUI-Italic-61" d="M 2828 1025 
Q 2803 906 2779 757 
Q 2756 609 2739 464 
Q 2722 319 2711 194 
Q 2700 69 2700 0 
L 2169 0 
Q 2172 63 2178 150 
Q 2184 238 2195 331 
Q 2206 425 2217 515 
Q 2228 606 2241 672 
L 2228 672 
Q 2131 519 2031 383 
Q 1931 247 1809 144 
Q 1688 41 1538 -18 
Q 1388 -78 1184 -78 
Q 975 -78 801 -3 
Q 628 72 503 220 
Q 378 369 311 592 
Q 244 816 244 1113 
Q 244 1294 281 1525 
Q 319 1756 408 1997 
Q 497 2238 645 2467 
Q 794 2697 1014 2878 
Q 1234 3059 1534 3168 
Q 1834 3278 2228 3278 
Q 2478 3278 2743 3240 
Q 3009 3203 3272 3150 
L 2828 1025 
z
M 2681 2778 
Q 2572 2803 2425 2822 
Q 2278 2841 2150 2841 
Q 1878 2841 1670 2755 
Q 1463 2669 1309 2530 
Q 1156 2391 1051 2209 
Q 947 2028 884 1839 
Q 822 1650 795 1465 
Q 769 1281 769 1131 
Q 769 953 800 811 
Q 831 669 898 569 
Q 966 469 1070 414 
Q 1175 359 1319 359 
Q 1475 359 1611 423 
Q 1747 488 1865 597 
Q 1984 706 2081 850 
Q 2178 994 2256 1155 
Q 2334 1316 2389 1483 
Q 2444 1650 2478 1806 
L 2681 2778 
z
" transform="scale(0.015625)"/>
      <path id="SegoeUI-Italic-3a" d="M 1319 2925 
Q 1319 2853 1291 2789 
Q 1263 2725 1216 2678 
Q 1169 2631 1106 2604 
Q 1044 2578 972 2578 
Q 900 2578 837 2604 
Q 775 2631 728 2678 
Q 681 2725 654 2789 
Q 628 2853 628 2925 
Q 628 2994 654 3056 
Q 681 3119 728 3167 
Q 775 3216 837 3244 
Q 900 3272 972 3272 
Q 1044 3272 1108 3244 
Q 1172 3216 1219 3167 
Q 1266 3119 1292 3056 
Q 1319 2994 1319 2925 
z
M 763 275 
Q 763 203 736 140 
Q 709 78 662 31 
Q 616 -16 552 -44 
Q 488 -72 416 -72 
Q 344 -72 281 -44 
Q 219 -16 172 31 
Q 125 78 98 140 
Q 72 203 72 275 
Q 72 347 98 411 
Q 125 475 172 522 
Q 219 569 281 595 
Q 344 622 416 622 
Q 488 622 552 595 
Q 616 569 662 522 
Q 709 475 736 411 
Q 763 347 763 275 
z
" transform="scale(0.015625)"/>
      <path id="SegoeUI-Italic-73" d="M 2266 2638 
Q 2125 2728 1950 2784 
Q 1775 2841 1600 2841 
Q 1306 2841 1145 2706 
Q 984 2572 984 2350 
Q 984 2259 1014 2184 
Q 1044 2109 1101 2042 
Q 1159 1975 1248 1912 
Q 1338 1850 1453 1778 
Q 1803 1575 1958 1361 
Q 2113 1147 2113 878 
Q 2113 697 2045 523 
Q 1978 350 1831 217 
Q 1684 84 1451 3 
Q 1219 -78 884 -78 
Q 791 -78 678 -65 
Q 566 -53 452 -28 
Q 338 -3 233 33 
Q 128 69 50 116 
L 153 603 
Q 216 559 308 515 
Q 400 472 508 437 
Q 616 403 733 381 
Q 850 359 966 359 
Q 1278 359 1433 484 
Q 1588 609 1588 831 
Q 1588 913 1564 981 
Q 1541 1050 1481 1119 
Q 1422 1188 1325 1258 
Q 1228 1328 1081 1416 
Q 763 1609 611 1820 
Q 459 2031 459 2297 
Q 459 2491 531 2667 
Q 603 2844 745 2980 
Q 888 3116 1103 3197 
Q 1319 3278 1606 3278 
Q 1831 3278 2032 3234 
Q 2234 3191 2375 3122 
L 2266 2638 
z
" transform="scale(0.015625)"/>
      <path id="SegoeUI-Italic-69" d="M 1300 13 
Q 1222 -13 1123 -28 
Q 1025 -44 928 -44 
Q 613 -44 456 114 
Q 300 272 300 538 
Q 300 616 315 722 
Q 331 828 366 984 
L 831 3200 
L 1350 3200 
L 881 972 
Q 853 841 842 769 
Q 831 697 831 647 
Q 831 519 901 451 
Q 972 384 1125 384 
Q 1206 384 1267 393 
Q 1328 403 1381 422 
L 1300 13 
z
M 1666 4341 
Q 1666 4200 1570 4100 
Q 1475 4000 1334 4000 
Q 1197 4000 1095 4098 
Q 994 4197 994 4341 
Q 994 4484 1095 4575 
Q 1197 4666 1334 4666 
Q 1472 4666 1569 4573 
Q 1666 4481 1666 4341 
z
" transform="scale(0.015625)"/>
      <path id="SegoeUI-Italic-6e" d="M 3269 2400 
Q 3269 2353 3258 2272 
Q 3247 2191 3230 2097 
Q 3213 2003 3195 1911 
Q 3178 1819 3163 1753 
L 2791 0 
L 2272 0 
L 2663 1875 
Q 2675 1925 2687 1990 
Q 2700 2056 2709 2122 
Q 2719 2188 2725 2242 
Q 2731 2297 2731 2328 
Q 2731 2566 2617 2703 
Q 2503 2841 2278 2841 
Q 2072 2841 1869 2719 
Q 1666 2597 1494 2409 
Q 1322 2222 1198 1997 
Q 1075 1772 1031 1563 
L 697 0 
L 178 0 
L 672 2284 
Q 697 2406 722 2539 
Q 747 2672 769 2795 
Q 791 2919 806 3025 
Q 822 3131 831 3200 
L 1331 3200 
Q 1316 3078 1294 2945 
Q 1272 2813 1256 2700 
Q 1238 2569 1216 2444 
L 1228 2444 
Q 1338 2616 1470 2767 
Q 1603 2919 1758 3033 
Q 1913 3147 2086 3212 
Q 2259 3278 2450 3278 
Q 2663 3278 2816 3214 
Q 2969 3150 3070 3034 
Q 3172 2919 3220 2756 
Q 3269 2594 3269 2400 
z
" transform="scale(0.015625)"/>
      <path id="SegoeUI-Italic-207b" d="M 709 4232 
L 2472 4232 
L 2472 3919 
L 709 3919 
L 709 4232 
z
" transform="scale(0.015625)"/>
      <path id="SegoeUI-Italic-b9" d="M 1315 2785 
L 1775 4991 
Q 1568 4848 1355 4737 
Q 1143 4626 931 4541 
L 1018 4963 
Q 1147 5004 1267 5057 
Q 1387 5110 1513 5177 
Q 1640 5244 1776 5327 
Q 1912 5410 2072 5510 
L 2290 5510 
L 1722 2785 
L 1315 2785 
z
" transform="scale(0.015625)"/>
      <path id="SegoeUI-Italic-28" d="M 2541 4481 
Q 2153 4100 1842 3694 
Q 1531 3288 1312 2853 
Q 1094 2419 975 1951 
Q 856 1484 856 978 
Q 856 728 889 473 
Q 922 219 987 -26 
Q 1053 -272 1147 -503 
Q 1241 -734 1363 -934 
L 922 -934 
Q 791 -728 692 -495 
Q 594 -263 528 -19 
Q 463 225 430 472 
Q 397 719 397 953 
Q 397 1494 512 1973 
Q 628 2453 840 2887 
Q 1053 3322 1358 3717 
Q 1663 4113 2041 4481 
L 2541 4481 
z
" transform="scale(0.015625)"/>
      <path id="SegoeUI-Italic-78" d="M 1747 1563 
L 2484 0 
L 1919 -6 
L 1516 997 
Q 1497 1047 1464 1131 
Q 1431 1216 1403 1288 
L 1388 1288 
Q 1366 1256 1336 1217 
Q 1306 1178 1278 1140 
Q 1250 1103 1223 1070 
Q 1197 1038 1178 1013 
L 341 0 
L -269 0 
L 1172 1594 
L 453 3200 
L 1019 3200 
L 1403 2181 
Q 1431 2106 1459 2018 
Q 1488 1931 1503 1881 
L 1516 1881 
Q 1534 1903 1559 1936 
Q 1584 1969 1612 2006 
Q 1641 2044 1670 2081 
Q 1700 2119 1728 2150 
L 2597 3200 
L 3181 3200 
L 1747 1563 
z
" transform="scale(0.015625)"/>
      <path id="SegoeUI-Italic-29" d="M 1575 2591 
Q 1575 2053 1459 1572 
Q 1344 1091 1130 658 
Q 916 225 611 -170 
Q 306 -566 -72 -934 
L -575 -934 
Q -188 -553 125 -148 
Q 438 256 656 690 
Q 875 1125 994 1592 
Q 1113 2059 1113 2566 
Q 1113 2816 1080 3069 
Q 1047 3322 983 3569 
Q 919 3816 825 4047 
Q 731 4278 609 4481 
L 1044 4481 
Q 1175 4272 1275 4037 
Q 1375 3803 1440 3559 
Q 1506 3316 1540 3070 
Q 1575 2825 1575 2591 
z
" transform="scale(0.015625)"/>
      <path id="SegoeUI-Italic-2260" d="M 2034 991 
L 1528 0 
L 1088 0 
L 1600 991 
L 819 991 
L 819 1409 
L 1819 1409 
L 2284 2322 
L 819 2322 
L 819 2741 
L 2503 2741 
L 2994 3713 
L 3438 3713 
L 2938 2741 
L 3756 2741 
L 3756 2322 
L 2725 2322 
L 2253 1409 
L 3756 1409 
L 3756 991 
L 2034 991 
z
" transform="scale(0.015625)"/>
      <path id="SegoeUI-Italic-31" d="M 1438 0 
L 2272 3903 
L 1166 3603 
L 1275 4097 
L 2919 4556 
L 1956 0 
L 1438 0 
z
" transform="scale(0.015625)"/>
      <path id="SegoeUI-Italic-2f" d="M 13 -744 
L -513 -744 
L 2741 4481 
L 3263 4481 
L 13 -744 
z
" transform="scale(0.015625)"/>
      <path id="SegoeUI-Italic-2e" d="M 763 275 
Q 763 203 736 140 
Q 709 78 662 31 
Q 616 -16 552 -44 
Q 488 -72 416 -72 
Q 344 -72 281 -44 
Q 219 -16 172 31 
Q 125 78 98 140 
Q 72 203 72 275 
Q 72 347 98 411 
Q 125 475 172 522 
Q 219 569 281 595 
Q 344 622 416 622 
Q 488 622 552 595 
Q 616 569 662 522 
Q 709 475 736 411 
Q 763 347 763 275 
z
" transform="scale(0.015625)"/>
      <path id="SegoeUI-Italic-4c" d="M 2553 0 
L 231 0 
L 1178 4481 
L 1722 4481 
L 872 488 
L 2656 488 
L 2553 0 
z
" transform="scale(0.015625)"/>
      <path id="SegoeUI-Italic-63" d="M 2700 2566 
Q 2569 2681 2383 2761 
Q 2197 2841 1972 2841 
Q 1756 2841 1582 2766 
Q 1409 2691 1275 2566 
Q 1141 2441 1044 2278 
Q 947 2116 884 1941 
Q 822 1766 792 1592 
Q 763 1419 763 1269 
Q 763 822 959 590 
Q 1156 359 1497 359 
Q 1703 359 1925 445 
Q 2147 531 2344 666 
L 2234 153 
Q 2031 44 1829 -17 
Q 1628 -78 1403 -78 
Q 1109 -78 892 22 
Q 675 122 531 297 
Q 388 472 316 711 
Q 244 950 244 1228 
Q 244 1491 297 1745 
Q 350 2000 454 2226 
Q 559 2453 712 2647 
Q 866 2841 1064 2980 
Q 1263 3119 1506 3198 
Q 1750 3278 2034 3278 
Q 2169 3278 2291 3259 
Q 2413 3241 2513 3209 
Q 2613 3178 2691 3142 
Q 2769 3106 2816 3072 
L 2700 2566 
z
" transform="scale(0.015625)"/>
      <path id="SegoeUI-Italic-f3" d="M 3181 2016 
Q 3181 1591 3061 1209 
Q 2941 828 2714 542 
Q 2488 256 2164 89 
Q 1841 -78 1434 -78 
Q 1159 -78 939 9 
Q 719 97 564 261 
Q 409 425 326 658 
Q 244 891 244 1184 
Q 244 1625 370 2008 
Q 497 2391 726 2673 
Q 956 2956 1276 3117 
Q 1597 3278 1984 3278 
Q 2256 3278 2476 3190 
Q 2697 3103 2853 2939 
Q 3009 2775 3095 2542 
Q 3181 2309 3181 2016 
z
M 2656 1991 
Q 2656 2194 2606 2351 
Q 2556 2509 2465 2617 
Q 2375 2725 2247 2783 
Q 2119 2841 1959 2841 
Q 1684 2841 1462 2700 
Q 1241 2559 1087 2329 
Q 934 2100 851 1808 
Q 769 1516 769 1209 
Q 769 1016 817 858 
Q 866 700 955 589 
Q 1044 478 1173 418 
Q 1303 359 1466 359 
Q 1744 359 1966 498 
Q 2188 638 2341 867 
Q 2494 1097 2575 1390 
Q 2656 1684 2656 1991 
z
M 1998 3809 
L 1614 3809 
L 2517 4831 
L 3020 4831 
L 1998 3809 
z
" transform="scale(0.015625)"/>
      <path id="SegoeUI-Italic-22" d="M 2138 3084 
L 1766 3084 
L 1741 4481 
L 2169 4481 
L 2138 3084 
z
M 1253 3084 
L 891 3084 
L 856 4481 
L 1288 4481 
L 1253 3084 
z
" transform="scale(0.015625)"/>
      <path id="SegoeUI-Italic-64" d="M 2816 984 
Q 2794 884 2773 743 
Q 2753 603 2737 461 
Q 2722 319 2711 194 
Q 2700 69 2700 0 
L 2169 0 
Q 2169 53 2176 142 
Q 2184 231 2195 328 
Q 2206 425 2218 514 
Q 2231 603 2241 659 
L 2228 659 
Q 2116 478 2003 339 
Q 1891 200 1766 108 
Q 1641 16 1500 -31 
Q 1359 -78 1191 -78 
Q 972 -78 797 0 
Q 622 78 498 229 
Q 375 381 309 604 
Q 244 828 244 1119 
Q 244 1350 292 1600 
Q 341 1850 442 2090 
Q 544 2331 700 2547 
Q 856 2763 1072 2925 
Q 1288 3088 1566 3183 
Q 1844 3278 2188 3278 
Q 2363 3278 2513 3254 
Q 2663 3231 2772 3206 
L 3097 4738 
L 3603 4738 
L 2816 984 
z
M 2681 2766 
Q 2563 2800 2433 2820 
Q 2303 2841 2156 2841 
Q 1884 2841 1676 2756 
Q 1469 2672 1314 2531 
Q 1159 2391 1054 2211 
Q 950 2031 886 1842 
Q 822 1653 795 1470 
Q 769 1288 769 1141 
Q 769 966 798 822 
Q 828 678 895 575 
Q 963 472 1069 415 
Q 1175 359 1325 359 
Q 1481 359 1617 425 
Q 1753 491 1872 603 
Q 1991 716 2087 862 
Q 2184 1009 2262 1175 
Q 2341 1341 2395 1511 
Q 2450 1681 2484 1838 
L 2681 2766 
z
" transform="scale(0.015625)"/>
      <path id="SegoeUI-Italic-66" d="M 2572 4294 
Q 2541 4309 2497 4323 
Q 2453 4338 2403 4350 
Q 2353 4363 2298 4370 
Q 2244 4378 2194 4378 
Q 1938 4378 1798 4211 
Q 1659 4044 1588 3713 
L 1472 3200 
L 2228 3200 
L 2125 2766 
L 1369 2766 
L 550 -1063 
L 31 -1063 
L 856 2766 
L 306 2766 
L 403 3200 
L 953 3200 
L 1081 3794 
Q 1141 4069 1247 4262 
Q 1353 4456 1500 4578 
Q 1647 4700 1833 4756 
Q 2019 4813 2241 4813 
Q 2356 4813 2467 4794 
Q 2578 4775 2656 4750 
L 2572 4294 
z
" transform="scale(0.015625)"/>
      <path id="SegoeUI-Italic-75" d="M 2906 909 
Q 2878 788 2854 656 
Q 2831 525 2809 403 
Q 2788 281 2772 175 
Q 2756 69 2747 0 
L 2247 0 
Q 2263 122 2283 255 
Q 2303 388 2322 500 
Q 2344 631 2363 756 
L 2350 756 
Q 2241 584 2108 432 
Q 1975 281 1820 167 
Q 1666 53 1492 -12 
Q 1319 -78 1131 -78 
Q 925 -78 770 -14 
Q 616 50 512 165 
Q 409 281 357 443 
Q 306 606 306 806 
Q 306 847 318 928 
Q 331 1009 347 1103 
Q 363 1197 383 1289 
Q 403 1381 416 1447 
L 788 3200 
L 1306 3200 
L 909 1325 
Q 897 1275 884 1209 
Q 872 1144 861 1078 
Q 850 1013 844 958 
Q 838 903 838 872 
Q 838 638 952 498 
Q 1066 359 1294 359 
Q 1431 359 1568 415 
Q 1706 472 1836 567 
Q 1966 663 2081 789 
Q 2197 916 2290 1058 
Q 2384 1200 2450 1350 
Q 2516 1500 2547 1638 
L 2881 3200 
L 3397 3200 
L 2906 909 
z
" transform="scale(0.015625)"/>
      <path id="SegoeUI-Italic-76" d="M 1369 0 
L 934 0 
L 428 3200 
L 947 3200 
L 1228 1184 
Q 1238 1125 1245 1050 
Q 1253 975 1261 897 
Q 1269 819 1272 744 
Q 1275 669 1275 609 
L 1288 609 
Q 1313 666 1345 737 
Q 1378 809 1418 886 
Q 1459 963 1501 1041 
Q 1544 1119 1581 1184 
L 2725 3200 
L 3309 3200 
L 1369 0 
z
" transform="scale(0.015625)"/>
      <path id="SegoeUI-Italic-65" d="M 2994 2450 
Q 2994 2197 2881 1989 
Q 2769 1781 2509 1632 
Q 2250 1484 1825 1403 
Q 1400 1322 775 1319 
Q 769 1284 769 1247 
Q 769 1213 769 1184 
Q 769 1016 816 866 
Q 863 716 961 603 
Q 1059 491 1214 425 
Q 1369 359 1581 359 
Q 1797 359 2055 442 
Q 2313 525 2547 678 
L 2450 172 
Q 2278 72 2040 -3 
Q 1803 -78 1509 -78 
Q 1156 -78 914 31 
Q 672 141 523 323 
Q 375 506 309 745 
Q 244 984 244 1247 
Q 244 1528 306 1789 
Q 369 2050 483 2275 
Q 597 2500 756 2686 
Q 916 2872 1109 3003 
Q 1303 3134 1525 3206 
Q 1747 3278 1984 3278 
Q 2231 3278 2420 3212 
Q 2609 3147 2736 3033 
Q 2863 2919 2928 2769 
Q 2994 2619 2994 2450 
z
M 2472 2425 
Q 2472 2622 2326 2731 
Q 2181 2841 1941 2841 
Q 1750 2841 1572 2758 
Q 1394 2675 1244 2529 
Q 1094 2384 984 2182 
Q 875 1981 825 1747 
Q 1272 1747 1584 1792 
Q 1897 1838 2094 1925 
Q 2291 2013 2381 2139 
Q 2472 2266 2472 2425 
z
" transform="scale(0.015625)"/>
      <path id="SegoeUI-Italic-72" d="M 2394 2656 
L 2381 2656 
Q 2319 2694 2217 2730 
Q 2116 2766 2016 2766 
Q 1834 2766 1668 2648 
Q 1503 2531 1367 2339 
Q 1231 2147 1129 1900 
Q 1028 1653 972 1394 
L 672 0 
L 159 0 
L 609 2125 
Q 638 2256 666 2400 
Q 694 2544 717 2687 
Q 741 2831 759 2962 
Q 778 3094 788 3200 
L 1294 3200 
Q 1284 3106 1271 3001 
Q 1259 2897 1246 2798 
Q 1234 2700 1221 2620 
Q 1209 2541 1203 2497 
L 1216 2497 
Q 1316 2675 1419 2819 
Q 1522 2963 1636 3064 
Q 1750 3166 1878 3222 
Q 2006 3278 2156 3278 
Q 2244 3278 2330 3261 
Q 2416 3244 2484 3225 
L 2394 2656 
z
" transform="scale(0.015625)"/>
     </defs>
     <use xlink:href="#SegoeUI-Italic-26a0"/>
     <use xlink:href="#SegoeUI-Italic-fe0f" x="64.550781"/>
     <use xlink:href="#SegoeUI-Italic-20" x="129.101562"/>
     <use xlink:href="#SegoeUI-Italic-4e" x="156.591797"/>
     <use xlink:href="#SegoeUI-Italic-6f" x="231.689453"/>
     <use xlink:href="#SegoeUI-Italic-74" x="285.205078"/>
     <use xlink:href="#SegoeUI-Italic-61" x="317.029297"/>
     <use xlink:href="#SegoeUI-Italic-3a" x="371.228516"/>
     <use xlink:href="#SegoeUI-Italic-20" x="393.005859"/>
     <use xlink:href="#SegoeUI-Italic-73" x="420.496094"/>
     <use xlink:href="#SegoeUI-Italic-69" x="459.998047"/>
     <use xlink:href="#SegoeUI-Italic-6e" x="485.876953"/>
     <use xlink:href="#SegoeUI-Italic-207b" x="542.078125"/>
     <use xlink:href="#SegoeUI-Italic-b9" x="578.699219"/>
     <use xlink:href="#SegoeUI-Italic-28" x="615.320312"/>
     <use xlink:href="#SegoeUI-Italic-78" x="645.740234"/>
     <use xlink:href="#SegoeUI-Italic-29" x="691.248047"/>
     <use xlink:href="#SegoeUI-Italic-20" x="721.667969"/>
     <use xlink:href="#SegoeUI-Italic-2260" x="749.158203"/>
     <use xlink:href="#SegoeUI-Italic-20" x="817.664062"/>
     <use xlink:href="#SegoeUI-Italic-31" x="845.154297"/>
     <use xlink:href="#SegoeUI-Italic-2f" x="899.060547"/>
     <use xlink:href="#SegoeUI-Italic-73" x="938.660156"/>
     <use xlink:href="#SegoeUI-Italic-69" x="978.162109"/>
     <use xlink:href="#SegoeUI-Italic-6e" x="1004.041016"/>
     <use xlink:href="#SegoeUI-Italic-28" x="1060.242188"/>
     <use xlink:href="#SegoeUI-Italic-78" x="1090.662109"/>
     <use xlink:href="#SegoeUI-Italic-29" x="1136.169922"/>
     <use xlink:href="#SegoeUI-Italic-2e" x="1166.589844"/>
     <use xlink:href="#SegoeUI-Italic-20" x="1188.367188"/>
     <use xlink:href="#SegoeUI-Italic-4c" x="1215.857422"/>
     <use xlink:href="#SegoeUI-Italic-61" x="1261.146484"/>
     <use xlink:href="#SegoeUI-Italic-20" x="1315.345703"/>
     <use xlink:href="#SegoeUI-Italic-6e" x="1342.835938"/>
     <use xlink:href="#SegoeUI-Italic-6f" x="1399.037109"/>
     <use xlink:href="#SegoeUI-Italic-74" x="1452.552734"/>
     <use xlink:href="#SegoeUI-Italic-61" x="1484.376953"/>
     <use xlink:href="#SegoeUI-Italic-63" x="1538.576172"/>
     <use xlink:href="#SegoeUI-Italic-69" x="1582.179688"/>
     <use xlink:href="#SegoeUI-Italic-f3" x="1608.058594"/>
     <use xlink:href="#SegoeUI-Italic-6e" x="1661.574219"/>
     <use xlink:href="#SegoeUI-Italic-20" x="1717.775391"/>
     <use xlink:href="#SegoeUI-Italic-22" x="1745.265625"/>
     <use xlink:href="#SegoeUI-Italic-207b" x="1782.667969"/>
     <use xlink:href="#SegoeUI-Italic-b9" x="1819.289062"/>
     <use xlink:href="#SegoeUI-Italic-22" x="1855.910156"/>
     <use xlink:href="#SegoeUI-Italic-20" x="1893.3125"/>
     <use xlink:href="#SegoeUI-Italic-69" x="1920.802734"/>
     <use xlink:href="#SegoeUI-Italic-6e" x="1946.681641"/>
     <use xlink:href="#SegoeUI-Italic-64" x="2002.882812"/>
     <use xlink:href="#SegoeUI-Italic-69" x="2057.082031"/>
     <use xlink:href="#SegoeUI-Italic-63" x="2082.960938"/>
     <use xlink:href="#SegoeUI-Italic-61" x="2126.564453"/>
     <use xlink:href="#SegoeUI-Italic-20" x="2180.763672"/>
     <use xlink:href="#SegoeUI-Italic-66" x="2208.253906"/>
     <use xlink:href="#SegoeUI-Italic-75" x="2237.871094"/>
     <use xlink:href="#SegoeUI-Italic-6e" x="2293.681641"/>
     <use xlink:href="#SegoeUI-Italic-63" x="2349.882812"/>
     <use xlink:href="#SegoeUI-Italic-69" x="2393.486328"/>
     <use xlink:href="#SegoeUI-Italic-f3" x="2419.365234"/>
     <use xlink:href="#SegoeUI-Italic-6e" x="2472.880859"/>
     <use xlink:href="#SegoeUI-Italic-20" x="2529.082031"/>
     <use xlink:href="#SegoeUI-Italic-69" x="2556.572266"/>
     <use xlink:href="#SegoeUI-Italic-6e" x="2582.451172"/>
     <use xlink:href="#SegoeUI-Italic-76" x="2637.652344"/>
     <use xlink:href="#SegoeUI-Italic-65" x="2684.716797"/>
     <use xlink:href="#SegoeUI-Italic-72" x="2733.398438"/>
     <use xlink:href="#SegoeUI-Italic-73" x="2769.896484"/>
     <use xlink:href="#SegoeUI-Italic-61" x="2808.398438"/>
     <use xlink:href="#SegoeUI-Italic-2e" x="2862.597656"/>
    </g>
   </g>
  </g>
  <g id="text_56">
   <!-- Funciones Trigonométricas Inversas -->
   <g style="fill: #2c2f33" transform="translate(391.332573 17.529375) scale(0.14 -0.14)">
    <use xlink:href="#SegoeUI-Bold-46"/>
    <use xlink:href="#SegoeUI-Bold-75" x="52.001953"/>
    <use xlink:href="#SegoeUI-Bold-6e" x="112.5"/>
    <use xlink:href="#SegoeUI-Bold-63" x="172.998047"/>
    <use xlink:href="#SegoeUI-Bold-69" x="220.996094"/>
    <use xlink:href="#SegoeUI-Bold-6f" x="249.414062"/>
    <use xlink:href="#SegoeUI-Bold-6e" x="310.546875"/>
    <use xlink:href="#SegoeUI-Bold-65" x="371.044922"/>
    <use xlink:href="#SegoeUI-Bold-73" x="425.146484"/>
    <use xlink:href="#SegoeUI-Bold-20" x="469.140625"/>
    <use xlink:href="#SegoeUI-Bold-54" x="496.728516"/>
    <use xlink:href="#SegoeUI-Bold-72" x="547.822266"/>
    <use xlink:href="#SegoeUI-Bold-69" x="587.992188"/>
    <use xlink:href="#SegoeUI-Bold-67" x="616.410156"/>
    <use xlink:href="#SegoeUI-Bold-6f" x="678.324219"/>
    <use xlink:href="#SegoeUI-Bold-6e" x="739.457031"/>
    <use xlink:href="#SegoeUI-Bold-6f" x="799.955078"/>
    <use xlink:href="#SegoeUI-Bold-6d" x="861.087891"/>
    <use xlink:href="#SegoeUI-Bold-e9" x="952.689453"/>
    <use xlink:href="#SegoeUI-Bold-74" x="1006.791016"/>
    <use xlink:href="#SegoeUI-Bold-72" x="1045.707031"/>
    <use xlink:href="#SegoeUI-Bold-69" x="1085.876953"/>
    <use xlink:href="#SegoeUI-Bold-63" x="1114.294922"/>
    <use xlink:href="#SegoeUI-Bold-61" x="1162.292969"/>
    <use xlink:href="#SegoeUI-Bold-73" x="1216.101562"/>
    <use xlink:href="#SegoeUI-Bold-20" x="1260.095703"/>
    <use xlink:href="#SegoeUI-Bold-49" x="1287.683594"/>
    <use xlink:href="#SegoeUI-Bold-6e" x="1319.373047"/>
    <use xlink:href="#SegoeUI-Bold-76" x="1379.871094"/>
    <use xlink:href="#SegoeUI-Bold-65" x="1433.070312"/>
    <use xlink:href="#SegoeUI-Bold-72" x="1487.171875"/>
    <use xlink:href="#SegoeUI-Bold-73" x="1527.591797"/>
    <use xlink:href="#SegoeUI-Bold-61" x="1571.585938"/>
    <use xlink:href="#SegoeUI-Bold-73" x="1625.394531"/>
   </g>
  </g>
 </g>
 <defs>
  <clipPath id="p1167c1ee48">
   <rect x="45.34625" y="42.497667" width="206.25359" height="321.942142"/>
  </clipPath>
  <clipPath id="paaba905a22">
   <rect x="424.14609" y="42.497667" width="206.25359" height="321.942142"/>
  </clipPath>
  <clipPath id="pb3c4c66c0c">
   <rect x="802.94593" y="42.497667" width="206.25359" height="321.942142"/>
  </clipPath>
  <clipPath id="pb33ff634d5">
   <rect x="45.34625" y="475.846059" width="963.85327" height="173.353461"/>
  </clipPath>
 </defs>
</svg>
