<?xml version="1.0" encoding="utf-8" standalone="no"?>
<!DOCTYPE svg PUBLIC "-//W3C//DTD SVG 1.1//EN"
  "http://www.w3.org/Graphics/SVG/1.1/DTD/svg11.dtd">
<svg xmlns:xlink="http://www.w3.org/1999/xlink" width="1016.39952pt" height="656.39952pt" viewBox="0 0 1016.39952 656.39952" xmlns="http://www.w3.org/2000/svg" version="1.1">
 <metadata>
  <rdf:RDF xmlns:dc="http://purl.org/dc/elements/1.1/" xmlns:cc="http://creativecommons.org/ns#" xmlns:rdf="http://www.w3.org/1999/02/22-rdf-syntax-ns#">
   <cc:Work>
    <dc:type rdf:resource="http://purl.org/dc/dcmitype/StillImage"/>
    <dc:date>2026-04-11T16:11:45.035079</dc:date>
    <dc:format>image/svg+xml</dc:format>
    <dc:creator>
     <cc:Agent>
      <dc:title>Matplotlib v3.8.4, https://matplotlib.org/</dc:title>
     </cc:Agent>
    </dc:creator>
   </cc:Work>
  </rdf:RDF>
 </metadata>
 <defs>
  <style type="text/css">*{stroke-linejoin: round; stroke-linecap: butt}</style>
 </defs>
 <g id="figure_1">
  <g id="patch_1">
   <path d="M 0 656.39952 
L 1016.39952 656.39952 
L 1016.39952 0 
L 0 0 
z
" style="fill: #ffffff"/>
  </g>
  <g id="axes_1">
   <g id="patch_2">
    <path d="M 26.43125 222.926783 
L 1009.19952 222.926783 
L 1009.19952 41.132667 
L 26.43125 41.132667 
z
" style="fill: #ffffff"/>
   </g>
   <g id="line2d_1">
    <path d="M 26.43125 121.930052 
L 1009.19952 121.930052 
" clip-path="url(#p52657730a9)" style="fill: none; stroke: #d1d5db; stroke-linecap: square"/>
   </g>
   <g id="line2d_2">
    <path d="M 517.815385 222.926783 
L 517.815385 41.132667 
" clip-path="url(#p52657730a9)" style="fill: none; stroke: #d1d5db; stroke-linecap: square"/>
   </g>
   <g id="matplotlib.axis_1">
    <g id="xtick_1">
     <g id="line2d_3">
      <defs>
       <path id="m4ae91b25a9" d="M 0 0 
L 0 3.5 
" style="stroke: #2c2f33; stroke-width: 0.8"/>
      </defs>
      <g>
       <use xlink:href="#m4ae91b25a9" x="71.102535" y="222.926783" style="fill: #2c2f33; stroke: #2c2f33; stroke-width: 0.8"/>
      </g>
     </g>
     <g id="text_1">
      <!-- -2π -->
      <g style="fill: #2c2f33" transform="translate(64.055816 236.589596) scale(0.09 -0.09)">
       <defs>
        <path id="SegoeUI-2d" d="M 2156 1581 
L 450 1581 
L 450 1984 
L 2156 1984 
L 2156 1581 
z
" transform="scale(0.015625)"/>
        <path id="SegoeUI-32" d="M 2413 3306 
Q 2413 3513 2348 3666 
Q 2284 3819 2173 3920 
Q 2063 4022 1913 4072 
Q 1763 4122 1588 4122 
Q 1438 4122 1294 4081 
Q 1150 4041 1014 3969 
Q 878 3897 751 3797 
Q 625 3697 516 3575 
L 516 4125 
Q 731 4334 998 4445 
Q 1266 4556 1650 4556 
Q 1925 4556 2159 4476 
Q 2394 4397 2566 4244 
Q 2738 4091 2836 3866 
Q 2934 3641 2934 3350 
Q 2934 3084 2873 2868 
Q 2813 2653 2689 2462 
Q 2566 2272 2378 2097 
Q 2191 1922 1938 1741 
Q 1622 1516 1417 1356 
Q 1213 1197 1092 1058 
Q 972 919 923 780 
Q 875 641 875 459 
L 3106 459 
L 3106 0 
L 341 0 
L 341 222 
Q 341 509 403 728 
Q 466 947 609 1144 
Q 753 1341 986 1537 
Q 1219 1734 1556 1981 
Q 1800 2156 1964 2315 
Q 2128 2475 2228 2634 
Q 2328 2794 2370 2958 
Q 2413 3122 2413 3306 
z
" transform="scale(0.015625)"/>
        <path id="SegoeUI-3c0" d="M 3747 2784 
L 3053 2784 
L 3053 850 
Q 3053 413 3369 413 
Q 3475 413 3644 472 
L 3644 34 
Q 3453 -38 3263 -38 
Q 2538 -38 2538 828 
L 2538 2784 
L 1322 2784 
L 1322 875 
Q 1322 275 1222 0 
L 700 0 
Q 813 272 813 875 
L 813 2784 
Q 428 2775 53 2506 
L 53 2975 
Q 288 3200 819 3200 
L 3747 3200 
L 3747 2784 
z
" transform="scale(0.015625)"/>
       </defs>
       <use xlink:href="#SegoeUI-2d"/>
       <use xlink:href="#SegoeUI-32" x="39.990234"/>
       <use xlink:href="#SegoeUI-3c0" x="93.896484"/>
      </g>
     </g>
    </g>
    <g id="xtick_2">
     <g id="line2d_4">
      <g>
       <use xlink:href="#m4ae91b25a9" x="182.780748" y="222.926783" style="fill: #2c2f33; stroke: #2c2f33; stroke-width: 0.8"/>
      </g>
     </g>
     <g id="text_2">
      <!-- -3π/2 -->
      <g style="fill: #2c2f33" transform="translate(171.554654 236.589596) scale(0.09 -0.09)">
       <defs>
        <path id="SegoeUI-33" d="M 2978 1269 
Q 2978 966 2864 717 
Q 2750 469 2542 292 
Q 2334 116 2043 19 
Q 1753 -78 1403 -78 
Q 763 -78 384 166 
L 384 716 
Q 838 359 1422 359 
Q 1656 359 1845 418 
Q 2034 478 2170 590 
Q 2306 703 2379 862 
Q 2453 1022 2453 1222 
Q 2453 2100 1203 2100 
L 831 2100 
L 831 2534 
L 1184 2534 
Q 2291 2534 2291 3359 
Q 2291 4122 1447 4122 
Q 972 4122 556 3803 
L 556 4300 
Q 984 4556 1575 4556 
Q 1856 4556 2084 4478 
Q 2313 4400 2475 4259 
Q 2638 4119 2727 3922 
Q 2816 3725 2816 3488 
Q 2816 2603 1922 2350 
L 1922 2338 
Q 2150 2313 2344 2227 
Q 2538 2141 2678 2003 
Q 2819 1866 2898 1680 
Q 2978 1494 2978 1269 
z
" transform="scale(0.015625)"/>
        <path id="SegoeUI-2f" d="M 2541 4481 
L 391 -744 
L -88 -744 
L 2056 4481 
L 2541 4481 
z
" transform="scale(0.015625)"/>
       </defs>
       <use xlink:href="#SegoeUI-2d"/>
       <use xlink:href="#SegoeUI-33" x="39.990234"/>
       <use xlink:href="#SegoeUI-3c0" x="93.896484"/>
       <use xlink:href="#SegoeUI-2f" x="156.591797"/>
       <use xlink:href="#SegoeUI-32" x="195.556641"/>
      </g>
     </g>
    </g>
    <g id="xtick_3">
     <g id="line2d_5">
      <g>
       <use xlink:href="#m4ae91b25a9" x="294.45896" y="222.926783" style="fill: #2c2f33; stroke: #2c2f33; stroke-width: 0.8"/>
      </g>
     </g>
     <g id="text_3">
      <!-- -π -->
      <g style="fill: #2c2f33" transform="translate(289.916773 236.589596) scale(0.09 -0.09)">
       <use xlink:href="#SegoeUI-2d"/>
       <use xlink:href="#SegoeUI-3c0" x="38.240234"/>
      </g>
     </g>
    </g>
    <g id="xtick_4">
     <g id="line2d_6">
      <g>
       <use xlink:href="#m4ae91b25a9" x="406.137173" y="222.926783" style="fill: #2c2f33; stroke: #2c2f33; stroke-width: 0.8"/>
      </g>
     </g>
     <g id="text_4">
      <!-- -π/2 -->
      <g style="fill: #2c2f33" transform="translate(397.41561 236.589596) scale(0.09 -0.09)">
       <use xlink:href="#SegoeUI-2d"/>
       <use xlink:href="#SegoeUI-3c0" x="38.240234"/>
       <use xlink:href="#SegoeUI-2f" x="100.935547"/>
       <use xlink:href="#SegoeUI-32" x="139.900391"/>
      </g>
     </g>
    </g>
    <g id="xtick_5">
     <g id="line2d_7">
      <g>
       <use xlink:href="#m4ae91b25a9" x="517.815385" y="222.926783" style="fill: #2c2f33; stroke: #2c2f33; stroke-width: 0.8"/>
      </g>
     </g>
     <g id="text_5">
      <!-- 0 -->
      <g style="fill: #2c2f33" transform="translate(515.389604 236.589596) scale(0.09 -0.09)">
       <defs>
        <path id="SegoeUI-30" d="M 3188 2259 
Q 3188 1697 3086 1262 
Q 2984 828 2792 529 
Q 2600 231 2320 76 
Q 2041 -78 1684 -78 
Q 1347 -78 1083 70 
Q 819 219 637 503 
Q 456 788 362 1202 
Q 269 1616 269 2150 
Q 269 2738 367 3188 
Q 466 3638 656 3942 
Q 847 4247 1130 4401 
Q 1413 4556 1778 4556 
Q 3188 4556 3188 2259 
z
M 2663 2209 
Q 2663 4122 1753 4122 
Q 794 4122 794 2175 
Q 794 359 1734 359 
Q 2663 359 2663 2209 
z
" transform="scale(0.015625)"/>
       </defs>
       <use xlink:href="#SegoeUI-30"/>
      </g>
     </g>
    </g>
    <g id="xtick_6">
     <g id="line2d_8">
      <g>
       <use xlink:href="#m4ae91b25a9" x="629.493597" y="222.926783" style="fill: #2c2f33; stroke: #2c2f33; stroke-width: 0.8"/>
      </g>
     </g>
     <g id="text_6">
      <!-- π/2 -->
      <g style="fill: #2c2f33" transform="translate(622.492582 236.589596) scale(0.09 -0.09)">
       <use xlink:href="#SegoeUI-3c0"/>
       <use xlink:href="#SegoeUI-2f" x="62.695312"/>
       <use xlink:href="#SegoeUI-32" x="101.660156"/>
      </g>
     </g>
    </g>
    <g id="xtick_7">
     <g id="line2d_9">
      <g>
       <use xlink:href="#m4ae91b25a9" x="741.17181" y="222.926783" style="fill: #2c2f33; stroke: #2c2f33; stroke-width: 0.8"/>
      </g>
     </g>
     <g id="text_7">
      <!-- π -->
      <g style="fill: #2c2f33" transform="translate(738.350169 236.589596) scale(0.09 -0.09)">
       <use xlink:href="#SegoeUI-3c0"/>
      </g>
     </g>
    </g>
    <g id="xtick_8">
     <g id="line2d_10">
      <g>
       <use xlink:href="#m4ae91b25a9" x="852.850023" y="222.926783" style="fill: #2c2f33; stroke: #2c2f33; stroke-width: 0.8"/>
      </g>
     </g>
     <g id="text_8">
      <!-- 3π/2 -->
      <g style="fill: #2c2f33" transform="translate(843.423226 236.589596) scale(0.09 -0.09)">
       <use xlink:href="#SegoeUI-33"/>
       <use xlink:href="#SegoeUI-3c0" x="53.90625"/>
       <use xlink:href="#SegoeUI-2f" x="116.601562"/>
       <use xlink:href="#SegoeUI-32" x="155.566406"/>
      </g>
     </g>
    </g>
    <g id="xtick_9">
     <g id="line2d_11">
      <g>
       <use xlink:href="#m4ae91b25a9" x="964.528235" y="222.926783" style="fill: #2c2f33; stroke: #2c2f33; stroke-width: 0.8"/>
      </g>
     </g>
     <g id="text_9">
      <!-- 2π -->
      <g style="fill: #2c2f33" transform="translate(959.280813 236.589596) scale(0.09 -0.09)">
       <use xlink:href="#SegoeUI-32"/>
       <use xlink:href="#SegoeUI-3c0" x="53.90625"/>
      </g>
     </g>
    </g>
   </g>
   <g id="matplotlib.axis_2">
    <g id="ytick_1">
     <g id="line2d_12">
      <defs>
       <path id="m527f7c47ee" d="M 0 0 
L -3.5 0 
" style="stroke: #2c2f33; stroke-width: 0.8"/>
      </defs>
      <g>
       <use xlink:href="#m527f7c47ee" x="26.43125" y="172.428418" style="fill: #2c2f33; stroke: #2c2f33; stroke-width: 0.8"/>
      </g>
     </g>
     <g id="text_10">
      <!-- −1 -->
      <g style="fill: #2c2f33" transform="translate(7.2 176.12998) scale(0.1 -0.1)">
       <defs>
        <path id="SegoeUI-2212" d="M 3663 1656 
L 725 1656 
L 725 2075 
L 3663 2075 
L 3663 1656 
z
" transform="scale(0.015625)"/>
        <path id="SegoeUI-31" d="M 2263 0 
L 1750 0 
L 1750 3872 
Q 1691 3813 1577 3736 
Q 1463 3659 1320 3584 
Q 1178 3509 1020 3443 
Q 863 3378 713 3341 
L 713 3859 
Q 881 3906 1070 3986 
Q 1259 4066 1442 4164 
Q 1625 4263 1787 4370 
Q 1950 4478 2069 4581 
L 2263 4581 
L 2263 0 
z
" transform="scale(0.015625)"/>
       </defs>
       <use xlink:href="#SegoeUI-2212"/>
       <use xlink:href="#SegoeUI-31" x="68.408203"/>
      </g>
     </g>
    </g>
    <g id="ytick_2">
     <g id="line2d_13">
      <g>
       <use xlink:href="#m527f7c47ee" x="26.43125" y="121.930052" style="fill: #2c2f33; stroke: #2c2f33; stroke-width: 0.8"/>
      </g>
     </g>
     <g id="text_11">
      <!-- 0 -->
      <g style="fill: #2c2f33" transform="translate(14.040625 125.631615) scale(0.1 -0.1)">
       <use xlink:href="#SegoeUI-30"/>
      </g>
     </g>
    </g>
    <g id="ytick_3">
     <g id="line2d_14">
      <g>
       <use xlink:href="#m527f7c47ee" x="26.43125" y="71.431687" style="fill: #2c2f33; stroke: #2c2f33; stroke-width: 0.8"/>
      </g>
     </g>
     <g id="text_12">
      <!-- 1 -->
      <g style="fill: #2c2f33" transform="translate(14.040625 75.133249) scale(0.1 -0.1)">
       <use xlink:href="#SegoeUI-31"/>
      </g>
     </g>
    </g>
   </g>
   <g id="line2d_15">
    <path d="M 26.43125 71.431687 
L 1009.19952 71.431687 
" clip-path="url(#p52657730a9)" style="fill: none; stroke-dasharray: 3.7,1.6; stroke-dashoffset: 0; stroke: #e5e7eb"/>
   </g>
   <g id="line2d_16">
    <path d="M 26.43125 172.428418 
L 1009.19952 172.428418 
" clip-path="url(#p52657730a9)" style="fill: none; stroke-dasharray: 3.7,1.6; stroke-dashoffset: 0; stroke: #e5e7eb"/>
   </g>
   <g id="line2d_17">
    <path d="M 71.102535 121.930052 
L 89.006858 109.346986 
L 97.959019 103.304897 
L 106.91118 97.557715 
L 114.072909 93.233649 
L 121.234638 89.200519 
L 126.605935 86.391319 
L 131.977232 83.784867 
L 137.348529 81.396034 
L 142.719826 79.238446 
L 148.091122 77.324413 
L 153.462419 75.664854 
L 158.833716 74.269238 
L 164.205013 73.145527 
L 169.57631 72.30013 
L 174.947606 71.737871 
L 180.318903 71.461958 
L 185.6902 71.473965 
L 191.061497 71.773823 
L 196.432794 72.359821 
L 201.80409 73.228617 
L 207.175387 74.375254 
L 212.546684 75.793191 
L 217.917981 77.474337 
L 223.289277 79.409103 
L 228.660574 81.58645 
L 234.031871 83.993957 
L 239.403168 86.617889 
L 244.774465 89.443276 
L 251.936194 93.49582 
L 259.097923 97.836643 
L 266.259652 102.421736 
L 275.211813 108.42559 
L 285.954407 115.903845 
L 314.601323 136.046122 
L 323.553484 142.023296 
L 330.715213 146.580351 
L 337.876942 150.88749 
L 345.038671 154.901046 
L 350.409968 157.693947 
L 355.781265 160.282815 
L 361.152562 162.652881 
L 366.523859 164.790624 
L 371.895155 166.683848 
L 377.266452 168.321753 
L 382.637749 169.694993 
L 388.009046 170.795735 
L 393.380343 171.617699 
L 398.751639 172.156196 
L 404.122936 172.408153 
L 409.494233 172.372134 
L 414.86553 172.048343 
L 420.236827 171.438628 
L 425.608123 170.546467 
L 430.97942 169.37695 
L 436.350717 167.936749 
L 441.722014 166.234081 
L 447.093311 164.278659 
L 452.464607 162.081639 
L 457.835904 159.655554 
L 463.207201 157.014247 
L 468.578498 154.172784 
L 475.740227 150.100986 
L 482.901956 145.743579 
L 490.063685 141.144739 
L 499.015846 135.127902 
L 511.548872 126.375262 
L 536.614924 108.732203 
L 545.567085 102.715365 
L 552.728814 98.116526 
L 559.890543 93.759119 
L 567.052272 89.687321 
L 572.423569 86.845858 
L 577.794866 84.20455 
L 583.166163 81.778466 
L 588.537459 79.581446 
L 593.908756 77.626024 
L 599.280053 75.923355 
L 604.65135 74.483155 
L 610.022647 73.313638 
L 615.393943 72.421477 
L 620.76524 71.811762 
L 626.136537 71.487971 
L 631.507834 71.451952 
L 636.879131 71.703909 
L 642.250427 72.242406 
L 647.621724 73.06437 
L 652.993021 74.165112 
L 658.364318 75.538352 
L 663.735615 77.176256 
L 669.106911 79.06948 
L 674.478208 81.207224 
L 679.849505 83.57729 
L 685.220802 86.166158 
L 690.592099 88.959059 
L 697.753828 92.972614 
L 704.915557 97.279754 
L 712.077286 101.836809 
L 721.029447 107.813983 
L 731.772041 115.273031 
L 763.999821 137.867131 
L 772.951983 143.758596 
L 780.113712 148.227221 
L 787.275441 152.429233 
L 794.43717 156.322031 
L 799.808467 159.014836 
L 805.179763 161.496074 
L 810.55106 163.751587 
L 815.922357 165.76851 
L 821.293654 167.535334 
L 826.664951 169.041982 
L 832.036247 170.279856 
L 837.407544 171.241895 
L 842.778841 171.922611 
L 848.150138 172.31812 
L 853.521435 172.426166 
L 858.892731 172.246132 
L 864.264028 171.779046 
L 869.635325 171.027572 
L 875.006622 169.995998 
L 880.377919 168.690207 
L 885.749215 167.117651 
L 891.120512 165.2873 
L 896.491809 163.209597 
L 901.863106 160.896394 
L 907.234403 158.360889 
L 912.605699 155.617547 
L 919.767428 151.663665 
L 926.929157 147.40833 
L 934.090887 142.894685 
L 943.043048 136.959307 
L 953.785641 129.531286 
L 964.528235 121.930052 
L 964.528235 121.930052 
" clip-path="url(#p52657730a9)" style="fill: none; stroke: #e12885; stroke-width: 2.5; stroke-linecap: square"/>
   </g>
   <g id="patch_3">
    <path d="M 26.43125 222.926783 
L 26.43125 41.132667 
" style="fill: none; stroke: #4b5563; stroke-width: 0.8; stroke-linejoin: miter; stroke-linecap: square"/>
   </g>
   <g id="patch_4">
    <path d="M 26.43125 222.926783 
L 1009.19952 222.926783 
" style="fill: none; stroke: #4b5563; stroke-width: 0.8; stroke-linejoin: miter; stroke-linecap: square"/>
   </g>
   <g id="patch_5">
    <path d="M 661.144103 60.761486 
Q 646.267361 65.776819 632.450067 70.434985 
" style="fill: none; stroke: #e12885; stroke-linecap: round"/>
    <path d="M 636.436455 70.990607 
L 632.450067 70.434985 
L 635.286398 67.579248 
" style="fill: none; stroke: #e12885; stroke-linecap: round"/>
   </g>
   <g id="text_13">
    <!-- máx = 1 -->
    <g style="fill: #e12885" transform="translate(665.041877 56.282177) scale(0.09 -0.09)">
     <defs>
      <path id="SegoeUI-6d" d="M 5063 0 
L 4550 0 
L 4550 1838 
Q 4550 2369 4386 2606 
Q 4222 2844 3834 2844 
Q 3506 2844 3276 2544 
Q 3047 2244 3047 1825 
L 3047 0 
L 2534 0 
L 2534 1900 
Q 2534 2844 1806 2844 
Q 1469 2844 1250 2561 
Q 1031 2278 1031 1825 
L 1031 0 
L 519 0 
L 519 3200 
L 1031 3200 
L 1031 2694 
L 1044 2694 
Q 1384 3275 2038 3275 
Q 2366 3275 2609 3092 
Q 2853 2909 2944 2613 
Q 3300 3275 4006 3275 
Q 5063 3275 5063 1972 
L 5063 0 
z
" transform="scale(0.015625)"/>
      <path id="SegoeUI-e1" d="M 2809 0 
L 2297 0 
L 2297 500 
L 2284 500 
Q 1950 -75 1300 -75 
Q 822 -75 551 178 
Q 281 431 281 850 
Q 281 1747 1338 1894 
L 2297 2028 
Q 2297 2844 1638 2844 
Q 1059 2844 594 2450 
L 594 2975 
Q 1066 3275 1681 3275 
Q 2809 3275 2809 2081 
L 2809 0 
z
M 2297 1619 
L 1525 1513 
Q 1169 1463 987 1336 
Q 806 1209 806 888 
Q 806 653 973 504 
Q 1141 356 1419 356 
Q 1800 356 2048 623 
Q 2297 891 2297 1300 
L 2297 1619 
z
M 2366 4831 
L 1547 3806 
L 1150 3806 
L 1847 4831 
L 2366 4831 
z
" transform="scale(0.015625)"/>
      <path id="SegoeUI-78" d="M 2856 3200 
L 1781 1581 
L 2838 0 
L 2241 0 
L 1613 1038 
Q 1553 1134 1472 1281 
L 1459 1281 
Q 1444 1253 1313 1038 
L 672 0 
L 81 0 
L 1172 1569 
L 128 3200 
L 725 3200 
L 1344 2106 
Q 1413 1984 1478 1856 
L 1491 1856 
L 2291 3200 
L 2856 3200 
z
" transform="scale(0.015625)"/>
      <path id="SegoeUI-20" transform="scale(0.015625)"/>
      <path id="SegoeUI-3d" d="M 3663 2325 
L 725 2325 
L 725 2738 
L 3663 2738 
L 3663 2325 
z
M 3663 994 
L 725 994 
L 725 1406 
L 3663 1406 
L 3663 994 
z
" transform="scale(0.015625)"/>
     </defs>
     <use xlink:href="#SegoeUI-6d"/>
     <use xlink:href="#SegoeUI-e1" x="86.132812"/>
     <use xlink:href="#SegoeUI-78" x="137.011719"/>
     <use xlink:href="#SegoeUI-20" x="182.910156"/>
     <use xlink:href="#SegoeUI-3d" x="210.302734"/>
     <use xlink:href="#SegoeUI-20" x="278.710938"/>
     <use xlink:href="#SegoeUI-31" x="306.103516"/>
    </g>
   </g>
   <g id="patch_6">
    <path d="M 382.445615 183.140365 
Q 393.378956 178.196943 403.293557 173.714136 
" style="fill: none; stroke: #e12885; stroke-linecap: round"/>
    <path d="M 399.271697 173.557148 
L 403.293557 173.714136 
L 400.754851 176.837431 
" style="fill: none; stroke: #e12885; stroke-linecap: round"/>
   </g>
   <g id="text_14">
    <!-- mín = -1 -->
    <g style="fill: #e12885" transform="translate(349.259926 192.627764) scale(0.09 -0.09)">
     <defs>
      <path id="SegoeUI-ed" d="M 1031 0 
L 519 0 
L 519 3200 
L 1031 3200 
L 1031 0 
z
M 1494 4831 
L 675 3806 
L 278 3806 
L 975 4831 
L 1494 4831 
z
" transform="scale(0.015625)"/>
      <path id="SegoeUI-6e" d="M 3175 0 
L 2663 0 
L 2663 1825 
Q 2663 2844 1919 2844 
Q 1534 2844 1282 2555 
Q 1031 2266 1031 1825 
L 1031 0 
L 519 0 
L 519 3200 
L 1031 3200 
L 1031 2669 
L 1044 2669 
Q 1406 3275 2094 3275 
Q 2619 3275 2897 2936 
Q 3175 2597 3175 1956 
L 3175 0 
z
" transform="scale(0.015625)"/>
     </defs>
     <use xlink:href="#SegoeUI-6d"/>
     <use xlink:href="#SegoeUI-ed" x="86.132812"/>
     <use xlink:href="#SegoeUI-6e" x="110.351562"/>
     <use xlink:href="#SegoeUI-20" x="166.943359"/>
     <use xlink:href="#SegoeUI-3d" x="194.335938"/>
     <use xlink:href="#SegoeUI-20" x="262.744141"/>
     <use xlink:href="#SegoeUI-2d" x="290.136719"/>
     <use xlink:href="#SegoeUI-31" x="330.126953"/>
    </g>
   </g>
   <g id="patch_7">
    <path d="M 960.850601 202.727437 
Q 741.170723 202.727437 521.490845 202.727437 
" style="fill: none; stroke: #6b7280; stroke-width: 1.5; stroke-linecap: round"/>
    <path d="M 956.850601 200.727437 
L 960.850601 202.727437 
L 956.850601 204.727437 
" style="fill: none; stroke: #6b7280; stroke-width: 1.5; stroke-linecap: round"/>
    <path d="M 525.490845 204.727437 
L 521.490845 202.727437 
L 525.490845 200.727437 
" style="fill: none; stroke: #6b7280; stroke-width: 1.5; stroke-linecap: round"/>
   </g>
   <g id="text_15">
    <!-- Periodo = 2π -->
    <g style="fill: #6b7280" transform="translate(715.098529 210.302192) scale(0.09 -0.09)">
     <defs>
      <path id="SegoeUI-50" d="M 1113 1694 
L 1113 0 
L 588 0 
L 588 4481 
L 1819 4481 
Q 2538 4481 2933 4131 
Q 3328 3781 3328 3144 
Q 3328 2506 2889 2100 
Q 2450 1694 1703 1694 
L 1113 1694 
z
M 1113 4006 
L 1113 2169 
L 1663 2169 
Q 2206 2169 2492 2417 
Q 2778 2666 2778 3119 
Q 2778 4006 1728 4006 
L 1113 4006 
z
" transform="scale(0.015625)"/>
      <path id="SegoeUI-65" d="M 3091 1472 
L 831 1472 
Q 844 938 1119 647 
Q 1394 356 1875 356 
Q 2416 356 2869 713 
L 2869 231 
Q 2447 -75 1753 -75 
Q 1075 -75 687 361 
Q 300 797 300 1588 
Q 300 2334 723 2804 
Q 1147 3275 1775 3275 
Q 2403 3275 2747 2869 
Q 3091 2463 3091 1741 
L 3091 1472 
z
M 2566 1906 
Q 2563 2350 2352 2597 
Q 2141 2844 1766 2844 
Q 1403 2844 1150 2584 
Q 897 2325 838 1906 
L 2566 1906 
z
" transform="scale(0.015625)"/>
      <path id="SegoeUI-72" d="M 2188 2681 
Q 2053 2784 1800 2784 
Q 1472 2784 1251 2475 
Q 1031 2166 1031 1631 
L 1031 0 
L 519 0 
L 519 3200 
L 1031 3200 
L 1031 2541 
L 1044 2541 
Q 1153 2878 1378 3067 
Q 1603 3256 1881 3256 
Q 2081 3256 2188 3213 
L 2188 2681 
z
" transform="scale(0.015625)"/>
      <path id="SegoeUI-69" d="M 781 4013 
Q 644 4013 547 4106 
Q 450 4200 450 4344 
Q 450 4488 547 4583 
Q 644 4678 781 4678 
Q 922 4678 1020 4583 
Q 1119 4488 1119 4344 
Q 1119 4206 1020 4109 
Q 922 4013 781 4013 
z
M 1031 0 
L 519 0 
L 519 3200 
L 1031 3200 
L 1031 0 
z
" transform="scale(0.015625)"/>
      <path id="SegoeUI-6f" d="M 1856 -75 
Q 1147 -75 723 373 
Q 300 822 300 1563 
Q 300 2369 740 2822 
Q 1181 3275 1931 3275 
Q 2647 3275 3048 2834 
Q 3450 2394 3450 1613 
Q 3450 847 3017 386 
Q 2584 -75 1856 -75 
z
M 1894 2844 
Q 1400 2844 1112 2508 
Q 825 2172 825 1581 
Q 825 1013 1115 684 
Q 1406 356 1894 356 
Q 2391 356 2658 678 
Q 2925 1000 2925 1594 
Q 2925 2194 2658 2519 
Q 2391 2844 1894 2844 
z
" transform="scale(0.015625)"/>
      <path id="SegoeUI-64" d="M 3250 0 
L 2738 0 
L 2738 544 
L 2725 544 
Q 2369 -75 1625 -75 
Q 1022 -75 661 354 
Q 300 784 300 1525 
Q 300 2319 700 2797 
Q 1100 3275 1766 3275 
Q 2425 3275 2725 2756 
L 2738 2756 
L 2738 4738 
L 3250 4738 
L 3250 0 
z
M 2738 1447 
L 2738 1919 
Q 2738 2306 2481 2575 
Q 2225 2844 1831 2844 
Q 1363 2844 1094 2500 
Q 825 2156 825 1550 
Q 825 997 1083 676 
Q 1341 356 1775 356 
Q 2203 356 2470 665 
Q 2738 975 2738 1447 
z
" transform="scale(0.015625)"/>
     </defs>
     <use xlink:href="#SegoeUI-50"/>
     <use xlink:href="#SegoeUI-65" x="52.255859"/>
     <use xlink:href="#SegoeUI-72" x="104.550781"/>
     <use xlink:href="#SegoeUI-69" x="139.316406"/>
     <use xlink:href="#SegoeUI-6f" x="163.535156"/>
     <use xlink:href="#SegoeUI-64" x="222.128906"/>
     <use xlink:href="#SegoeUI-6f" x="281.015625"/>
     <use xlink:href="#SegoeUI-20" x="339.609375"/>
     <use xlink:href="#SegoeUI-3d" x="367.001953"/>
     <use xlink:href="#SegoeUI-20" x="435.410156"/>
     <use xlink:href="#SegoeUI-32" x="462.802734"/>
     <use xlink:href="#SegoeUI-3c0" x="516.708984"/>
    </g>
   </g>
   <g id="text_16">
    <!-- Función Seno: y = sin x -->
    <g style="fill: #e12885" transform="translate(458.386166 35.132667) scale(0.11 -0.11)">
     <defs>
      <path id="SegoeUI-Bold-46" d="M 3103 3659 
L 1522 3659 
L 1522 2559 
L 2975 2559 
L 2975 1741 
L 1522 1741 
L 1522 0 
L 513 0 
L 513 4481 
L 3103 4481 
L 3103 3659 
z
" transform="scale(0.015625)"/>
      <path id="SegoeUI-Bold-75" d="M 3456 0 
L 2472 0 
L 2472 488 
L 2456 488 
Q 2091 -78 1478 -78 
Q 366 -78 366 1269 
L 366 3200 
L 1350 3200 
L 1350 1356 
Q 1350 678 1888 678 
Q 2153 678 2312 864 
Q 2472 1050 2472 1369 
L 2472 3200 
L 3456 3200 
L 3456 0 
z
" transform="scale(0.015625)"/>
      <path id="SegoeUI-Bold-6e" d="M 3506 0 
L 2522 0 
L 2522 1778 
Q 2522 2522 1991 2522 
Q 1734 2522 1568 2325 
Q 1403 2128 1403 1825 
L 1403 0 
L 416 0 
L 416 3200 
L 1403 3200 
L 1403 2694 
L 1416 2694 
Q 1769 3278 2444 3278 
Q 3506 3278 3506 1959 
L 3506 0 
z
" transform="scale(0.015625)"/>
      <path id="SegoeUI-Bold-63" d="M 2841 116 
Q 2506 -78 1875 -78 
Q 1138 -78 681 369 
Q 225 816 225 1522 
Q 225 2338 714 2808 
Q 1203 3278 2022 3278 
Q 2588 3278 2841 3128 
L 2841 2291 
Q 2531 2522 2150 2522 
Q 1725 2522 1476 2273 
Q 1228 2025 1228 1588 
Q 1228 1163 1465 920 
Q 1703 678 2119 678 
Q 2488 678 2841 909 
L 2841 116 
z
" transform="scale(0.015625)"/>
      <path id="SegoeUI-Bold-69" d="M 916 3706 
Q 666 3706 506 3854 
Q 347 4003 347 4219 
Q 347 4441 506 4581 
Q 666 4722 916 4722 
Q 1169 4722 1326 4581 
Q 1484 4441 1484 4219 
Q 1484 3994 1326 3850 
Q 1169 3706 916 3706 
z
M 1403 0 
L 416 0 
L 416 3200 
L 1403 3200 
L 1403 0 
z
" transform="scale(0.015625)"/>
      <path id="SegoeUI-Bold-f3" d="M 1941 -78 
Q 1141 -78 683 370 
Q 225 819 225 1588 
Q 225 2381 700 2829 
Q 1175 3278 1984 3278 
Q 2781 3278 3234 2829 
Q 3688 2381 3688 1644 
Q 3688 847 3220 384 
Q 2753 -78 1941 -78 
z
M 1966 2522 
Q 1616 2522 1422 2281 
Q 1228 2041 1228 1600 
Q 1228 678 1972 678 
Q 2681 678 2681 1625 
Q 2681 2522 1966 2522 
z
M 3023 4716 
L 2044 3706 
L 1332 3706 
L 2144 4716 
L 3023 4716 
z
" transform="scale(0.015625)"/>
      <path id="SegoeUI-Bold-20" transform="scale(0.015625)"/>
      <path id="SegoeUI-Bold-53" d="M 306 172 
L 306 1172 
Q 578 944 897 830 
Q 1216 716 1541 716 
Q 1731 716 1873 750 
Q 2016 784 2111 845 
Q 2206 906 2253 989 
Q 2300 1072 2300 1169 
Q 2300 1300 2225 1403 
Q 2150 1506 2020 1593 
Q 1891 1681 1712 1762 
Q 1534 1844 1328 1928 
Q 803 2147 545 2462 
Q 288 2778 288 3225 
Q 288 3575 428 3826 
Q 569 4078 811 4240 
Q 1053 4403 1372 4479 
Q 1691 4556 2047 4556 
Q 2397 4556 2667 4514 
Q 2938 4472 3166 4384 
L 3166 3450 
Q 3053 3528 2920 3587 
Q 2788 3647 2647 3686 
Q 2506 3725 2367 3744 
Q 2228 3763 2103 3763 
Q 1931 3763 1790 3730 
Q 1650 3697 1553 3637 
Q 1456 3578 1403 3495 
Q 1350 3413 1350 3309 
Q 1350 3197 1409 3108 
Q 1469 3019 1578 2939 
Q 1688 2859 1844 2782 
Q 2000 2706 2197 2625 
Q 2466 2513 2680 2386 
Q 2894 2259 3047 2100 
Q 3200 1941 3281 1736 
Q 3363 1531 3363 1259 
Q 3363 884 3220 629 
Q 3078 375 2834 217 
Q 2591 59 2267 -9 
Q 1944 -78 1584 -78 
Q 1216 -78 883 -15 
Q 550 47 306 172 
z
" transform="scale(0.015625)"/>
      <path id="SegoeUI-Bold-65" d="M 3291 1319 
L 1203 1319 
Q 1253 622 2081 622 
Q 2609 622 3009 872 
L 3009 159 
Q 2566 -78 1856 -78 
Q 1081 -78 653 351 
Q 225 781 225 1550 
Q 225 2347 687 2812 
Q 1150 3278 1825 3278 
Q 2525 3278 2908 2862 
Q 3291 2447 3291 1734 
L 3291 1319 
z
M 2375 1925 
Q 2375 2613 1819 2613 
Q 1581 2613 1407 2416 
Q 1234 2219 1197 1925 
L 2375 1925 
z
" transform="scale(0.015625)"/>
      <path id="SegoeUI-Bold-6f" d="M 1941 -78 
Q 1141 -78 683 370 
Q 225 819 225 1588 
Q 225 2381 700 2829 
Q 1175 3278 1984 3278 
Q 2781 3278 3234 2829 
Q 3688 2381 3688 1644 
Q 3688 847 3220 384 
Q 2753 -78 1941 -78 
z
M 1966 2522 
Q 1616 2522 1422 2281 
Q 1228 2041 1228 1600 
Q 1228 678 1972 678 
Q 2681 678 2681 1625 
Q 2681 2522 1966 2522 
z
" transform="scale(0.015625)"/>
      <path id="SegoeUI-Bold-3a" d="M 856 2209 
Q 613 2209 450 2357 
Q 288 2506 288 2725 
Q 288 2950 455 3094 
Q 622 3238 872 3238 
Q 1125 3238 1286 3092 
Q 1447 2947 1447 2725 
Q 1447 2497 1283 2353 
Q 1119 2209 856 2209 
z
M 856 -78 
Q 613 -78 450 72 
Q 288 222 288 441 
Q 288 666 455 809 
Q 622 953 872 953 
Q 1125 953 1286 808 
Q 1447 663 1447 441 
Q 1447 213 1283 67 
Q 1119 -78 856 -78 
z
" transform="scale(0.015625)"/>
      <path id="SegoeUI-Bold-79" d="M 3463 3200 
L 2163 -256 
Q 1694 -1503 750 -1503 
Q 391 -1503 159 -1422 
L 159 -634 
Q 356 -750 588 -750 
Q 969 -750 1119 -391 
L 1288 6 
L -13 3200 
L 1081 3200 
L 1678 1253 
Q 1734 1072 1766 825 
L 1778 825 
Q 1806 1006 1881 1247 
L 2484 3200 
L 3463 3200 
z
" transform="scale(0.015625)"/>
      <path id="SegoeUI-Bold-3d" d="M 3788 2188 
L 744 2188 
L 744 2828 
L 3788 2828 
L 3788 2188 
z
M 3788 831 
L 744 831 
L 744 1466 
L 3788 1466 
L 3788 831 
z
" transform="scale(0.015625)"/>
      <path id="SegoeUI-Bold-73" d="M 206 84 
L 206 884 
Q 450 738 692 666 
Q 934 594 1150 594 
Q 1413 594 1564 666 
Q 1716 738 1716 884 
Q 1716 978 1647 1040 
Q 1578 1103 1470 1150 
Q 1363 1197 1234 1234 
Q 1106 1272 988 1319 
Q 797 1391 651 1473 
Q 506 1556 407 1665 
Q 309 1775 257 1919 
Q 206 2063 206 2259 
Q 206 2528 323 2722 
Q 441 2916 636 3039 
Q 831 3163 1082 3220 
Q 1334 3278 1606 3278 
Q 1819 3278 2037 3245 
Q 2256 3213 2469 3150 
L 2469 2388 
Q 2281 2497 2067 2551 
Q 1853 2606 1647 2606 
Q 1550 2606 1464 2589 
Q 1378 2572 1312 2539 
Q 1247 2506 1209 2454 
Q 1172 2403 1172 2338 
Q 1172 2250 1228 2187 
Q 1284 2125 1375 2079 
Q 1466 2034 1577 1998 
Q 1688 1963 1797 1925 
Q 1994 1856 2153 1775 
Q 2313 1694 2427 1584 
Q 2541 1475 2602 1328 
Q 2663 1181 2663 978 
Q 2663 694 2539 492 
Q 2416 291 2211 164 
Q 2006 38 1739 -20 
Q 1472 -78 1184 -78 
Q 656 -78 206 84 
z
" transform="scale(0.015625)"/>
      <path id="SegoeUI-Bold-78" d="M 3506 3200 
L 2450 1650 
L 3500 0 
L 2363 0 
L 1900 863 
Q 1844 966 1766 1153 
L 1753 1153 
Q 1706 1022 1625 872 
L 1159 0 
L 25 0 
L 1106 1594 
L 91 3200 
L 1234 3200 
L 1691 2303 
Q 1781 2125 1819 2003 
L 1831 2003 
Q 1881 2150 1966 2309 
L 2431 3200 
L 3506 3200 
z
" transform="scale(0.015625)"/>
     </defs>
     <use xlink:href="#SegoeUI-Bold-46"/>
     <use xlink:href="#SegoeUI-Bold-75" x="52.001953"/>
     <use xlink:href="#SegoeUI-Bold-6e" x="112.5"/>
     <use xlink:href="#SegoeUI-Bold-63" x="172.998047"/>
     <use xlink:href="#SegoeUI-Bold-69" x="220.996094"/>
     <use xlink:href="#SegoeUI-Bold-f3" x="249.414062"/>
     <use xlink:href="#SegoeUI-Bold-6e" x="310.498047"/>
     <use xlink:href="#SegoeUI-Bold-20" x="370.996094"/>
     <use xlink:href="#SegoeUI-Bold-53" x="398.583984"/>
     <use xlink:href="#SegoeUI-Bold-65" x="454.638672"/>
     <use xlink:href="#SegoeUI-Bold-6e" x="508.740234"/>
     <use xlink:href="#SegoeUI-Bold-6f" x="569.238281"/>
     <use xlink:href="#SegoeUI-Bold-3a" x="630.371094"/>
     <use xlink:href="#SegoeUI-Bold-20" x="657.470703"/>
     <use xlink:href="#SegoeUI-Bold-79" x="685.058594"/>
     <use xlink:href="#SegoeUI-Bold-20" x="738.867188"/>
     <use xlink:href="#SegoeUI-Bold-3d" x="766.455078"/>
     <use xlink:href="#SegoeUI-Bold-20" x="837.158203"/>
     <use xlink:href="#SegoeUI-Bold-73" x="864.746094"/>
     <use xlink:href="#SegoeUI-Bold-69" x="908.740234"/>
     <use xlink:href="#SegoeUI-Bold-6e" x="937.158203"/>
     <use xlink:href="#SegoeUI-Bold-20" x="997.65625"/>
     <use xlink:href="#SegoeUI-Bold-78" x="1025.244141"/>
    </g>
   </g>
   <g id="PathCollection_1">
    <defs>
     <path id="mbe46d56b34" d="M 0 3.535534 
C 0.937635 3.535534 1.836992 3.163008 2.5 2.5 
C 3.163008 1.836992 3.535534 0.937635 3.535534 0 
C 3.535534 -0.937635 3.163008 -1.836992 2.5 -2.5 
C 1.836992 -3.163008 0.937635 -3.535534 0 -3.535534 
C -0.937635 -3.535534 -1.836992 -3.163008 -2.5 -2.5 
C -3.163008 -1.836992 -3.535534 -0.937635 -3.535534 0 
C -3.535534 0.937635 -3.163008 1.836992 -2.5 2.5 
C -1.836992 3.163008 -0.937635 3.535534 0 3.535534 
z
" style="stroke: #e12885"/>
    </defs>
    <g clip-path="url(#p52657730a9)">
     <use xlink:href="#mbe46d56b34" x="71.102535" y="121.930052" style="fill: #e12885; stroke: #e12885"/>
     <use xlink:href="#mbe46d56b34" x="182.780748" y="71.431687" style="fill: #e12885; stroke: #e12885"/>
     <use xlink:href="#mbe46d56b34" x="294.45896" y="121.930052" style="fill: #e12885; stroke: #e12885"/>
     <use xlink:href="#mbe46d56b34" x="406.137173" y="172.428418" style="fill: #e12885; stroke: #e12885"/>
     <use xlink:href="#mbe46d56b34" x="517.815385" y="121.930052" style="fill: #e12885; stroke: #e12885"/>
     <use xlink:href="#mbe46d56b34" x="629.493597" y="71.431687" style="fill: #e12885; stroke: #e12885"/>
     <use xlink:href="#mbe46d56b34" x="741.17181" y="121.930052" style="fill: #e12885; stroke: #e12885"/>
     <use xlink:href="#mbe46d56b34" x="852.850023" y="172.428418" style="fill: #e12885; stroke: #e12885"/>
     <use xlink:href="#mbe46d56b34" x="964.528235" y="121.930052" style="fill: #e12885; stroke: #e12885"/>
    </g>
   </g>
   <g id="legend_1">
    <g id="patch_8">
     <path d="M 940.96827 61.613292 
L 1002.89952 61.613292 
Q 1004.69952 61.613292 1004.69952 59.813292 
L 1004.69952 47.432667 
Q 1004.69952 45.632667 1002.89952 45.632667 
L 940.96827 45.632667 
Q 939.16827 45.632667 939.16827 47.432667 
L 939.16827 59.813292 
Q 939.16827 61.613292 940.96827 61.613292 
z
" style="fill: #ffffff; opacity: 0.8; stroke: #cccccc; stroke-linejoin: miter"/>
    </g>
    <g id="line2d_18">
     <path d="M 942.76827 52.74548 
L 951.76827 52.74548 
L 960.76827 52.74548 
" style="fill: none; stroke: #e12885; stroke-width: 2.5; stroke-linecap: square"/>
    </g>
    <g id="text_17">
     <!-- y = sin x -->
     <g style="fill: #2c2f33" transform="translate(967.96827 55.89548) scale(0.09 -0.09)">
      <defs>
       <path id="SegoeUI-79" d="M 3066 3200 
L 1594 -513 
Q 1200 -1506 488 -1506 
Q 288 -1506 153 -1466 
L 153 -1006 
Q 319 -1063 456 -1063 
Q 844 -1063 1038 -600 
L 1294 6 
L 44 3200 
L 613 3200 
L 1478 738 
Q 1494 691 1544 494 
L 1563 494 
Q 1578 569 1625 731 
L 2534 3200 
L 3066 3200 
z
" transform="scale(0.015625)"/>
       <path id="SegoeUI-73" d="M 325 116 
L 325 666 
Q 744 356 1247 356 
Q 1922 356 1922 806 
Q 1922 934 1864 1023 
Q 1806 1113 1707 1181 
Q 1609 1250 1476 1304 
Q 1344 1359 1191 1419 
Q 978 1503 817 1589 
Q 656 1675 548 1783 
Q 441 1891 386 2028 
Q 331 2166 331 2350 
Q 331 2575 434 2748 
Q 538 2922 709 3039 
Q 881 3156 1101 3215 
Q 1322 3275 1556 3275 
Q 1972 3275 2300 3131 
L 2300 2613 
Q 1947 2844 1488 2844 
Q 1344 2844 1228 2811 
Q 1113 2778 1030 2718 
Q 947 2659 901 2576 
Q 856 2494 856 2394 
Q 856 2269 901 2184 
Q 947 2100 1034 2034 
Q 1122 1969 1247 1916 
Q 1372 1863 1531 1800 
Q 1744 1719 1912 1633 
Q 2081 1547 2200 1439 
Q 2319 1331 2383 1190 
Q 2447 1050 2447 856 
Q 2447 619 2342 444 
Q 2238 269 2063 153 
Q 1888 38 1659 -18 
Q 1431 -75 1181 -75 
Q 688 -75 325 116 
z
" transform="scale(0.015625)"/>
      </defs>
      <use xlink:href="#SegoeUI-79"/>
      <use xlink:href="#SegoeUI-20" x="48.388672"/>
      <use xlink:href="#SegoeUI-3d" x="75.78125"/>
      <use xlink:href="#SegoeUI-20" x="144.189453"/>
      <use xlink:href="#SegoeUI-73" x="171.582031"/>
      <use xlink:href="#SegoeUI-69" x="214.013672"/>
      <use xlink:href="#SegoeUI-6e" x="238.232422"/>
      <use xlink:href="#SegoeUI-20" x="294.824219"/>
      <use xlink:href="#SegoeUI-78" x="322.216797"/>
     </g>
    </g>
   </g>
  </g>
  <g id="axes_2">
   <g id="patch_9">
    <path d="M 26.43125 488.569649 
L 1009.19952 488.569649 
L 1009.19952 306.775533 
L 26.43125 306.775533 
z
" style="fill: #ffffff"/>
   </g>
   <g id="line2d_19">
    <path d="M 26.43125 387.572918 
L 1009.19952 387.572918 
" clip-path="url(#pb1b49cbd90)" style="fill: none; stroke: #d1d5db; stroke-linecap: square"/>
   </g>
   <g id="line2d_20">
    <path d="M 517.815385 488.569649 
L 517.815385 306.775533 
" clip-path="url(#pb1b49cbd90)" style="fill: none; stroke: #d1d5db; stroke-linecap: square"/>
   </g>
   <g id="matplotlib.axis_3">
    <g id="xtick_10">
     <g id="line2d_21">
      <g>
       <use xlink:href="#m4ae91b25a9" x="71.102535" y="488.569649" style="fill: #2c2f33; stroke: #2c2f33; stroke-width: 0.8"/>
      </g>
     </g>
     <g id="text_18">
      <!-- -2π -->
      <g style="fill: #2c2f33" transform="translate(64.055816 502.232462) scale(0.09 -0.09)">
       <use xlink:href="#SegoeUI-2d"/>
       <use xlink:href="#SegoeUI-32" x="39.990234"/>
       <use xlink:href="#SegoeUI-3c0" x="93.896484"/>
      </g>
     </g>
    </g>
    <g id="xtick_11">
     <g id="line2d_22">
      <g>
       <use xlink:href="#m4ae91b25a9" x="182.780748" y="488.569649" style="fill: #2c2f33; stroke: #2c2f33; stroke-width: 0.8"/>
      </g>
     </g>
     <g id="text_19">
      <!-- -3π/2 -->
      <g style="fill: #2c2f33" transform="translate(171.554654 502.232462) scale(0.09 -0.09)">
       <use xlink:href="#SegoeUI-2d"/>
       <use xlink:href="#SegoeUI-33" x="39.990234"/>
       <use xlink:href="#SegoeUI-3c0" x="93.896484"/>
       <use xlink:href="#SegoeUI-2f" x="156.591797"/>
       <use xlink:href="#SegoeUI-32" x="195.556641"/>
      </g>
     </g>
    </g>
    <g id="xtick_12">
     <g id="line2d_23">
      <g>
       <use xlink:href="#m4ae91b25a9" x="294.45896" y="488.569649" style="fill: #2c2f33; stroke: #2c2f33; stroke-width: 0.8"/>
      </g>
     </g>
     <g id="text_20">
      <!-- -π -->
      <g style="fill: #2c2f33" transform="translate(289.916773 502.232462) scale(0.09 -0.09)">
       <use xlink:href="#SegoeUI-2d"/>
       <use xlink:href="#SegoeUI-3c0" x="38.240234"/>
      </g>
     </g>
    </g>
    <g id="xtick_13">
     <g id="line2d_24">
      <g>
       <use xlink:href="#m4ae91b25a9" x="406.137173" y="488.569649" style="fill: #2c2f33; stroke: #2c2f33; stroke-width: 0.8"/>
      </g>
     </g>
     <g id="text_21">
      <!-- -π/2 -->
      <g style="fill: #2c2f33" transform="translate(397.41561 502.232462) scale(0.09 -0.09)">
       <use xlink:href="#SegoeUI-2d"/>
       <use xlink:href="#SegoeUI-3c0" x="38.240234"/>
       <use xlink:href="#SegoeUI-2f" x="100.935547"/>
       <use xlink:href="#SegoeUI-32" x="139.900391"/>
      </g>
     </g>
    </g>
    <g id="xtick_14">
     <g id="line2d_25">
      <g>
       <use xlink:href="#m4ae91b25a9" x="517.815385" y="488.569649" style="fill: #2c2f33; stroke: #2c2f33; stroke-width: 0.8"/>
      </g>
     </g>
     <g id="text_22">
      <!-- 0 -->
      <g style="fill: #2c2f33" transform="translate(515.389604 502.232462) scale(0.09 -0.09)">
       <use xlink:href="#SegoeUI-30"/>
      </g>
     </g>
    </g>
    <g id="xtick_15">
     <g id="line2d_26">
      <g>
       <use xlink:href="#m4ae91b25a9" x="629.493597" y="488.569649" style="fill: #2c2f33; stroke: #2c2f33; stroke-width: 0.8"/>
      </g>
     </g>
     <g id="text_23">
      <!-- π/2 -->
      <g style="fill: #2c2f33" transform="translate(622.492582 502.232462) scale(0.09 -0.09)">
       <use xlink:href="#SegoeUI-3c0"/>
       <use xlink:href="#SegoeUI-2f" x="62.695312"/>
       <use xlink:href="#SegoeUI-32" x="101.660156"/>
      </g>
     </g>
    </g>
    <g id="xtick_16">
     <g id="line2d_27">
      <g>
       <use xlink:href="#m4ae91b25a9" x="741.17181" y="488.569649" style="fill: #2c2f33; stroke: #2c2f33; stroke-width: 0.8"/>
      </g>
     </g>
     <g id="text_24">
      <!-- π -->
      <g style="fill: #2c2f33" transform="translate(738.350169 502.232462) scale(0.09 -0.09)">
       <use xlink:href="#SegoeUI-3c0"/>
      </g>
     </g>
    </g>
    <g id="xtick_17">
     <g id="line2d_28">
      <g>
       <use xlink:href="#m4ae91b25a9" x="852.850023" y="488.569649" style="fill: #2c2f33; stroke: #2c2f33; stroke-width: 0.8"/>
      </g>
     </g>
     <g id="text_25">
      <!-- 3π/2 -->
      <g style="fill: #2c2f33" transform="translate(843.423226 502.232462) scale(0.09 -0.09)">
       <use xlink:href="#SegoeUI-33"/>
       <use xlink:href="#SegoeUI-3c0" x="53.90625"/>
       <use xlink:href="#SegoeUI-2f" x="116.601562"/>
       <use xlink:href="#SegoeUI-32" x="155.566406"/>
      </g>
     </g>
    </g>
    <g id="xtick_18">
     <g id="line2d_29">
      <g>
       <use xlink:href="#m4ae91b25a9" x="964.528235" y="488.569649" style="fill: #2c2f33; stroke: #2c2f33; stroke-width: 0.8"/>
      </g>
     </g>
     <g id="text_26">
      <!-- 2π -->
      <g style="fill: #2c2f33" transform="translate(959.280813 502.232462) scale(0.09 -0.09)">
       <use xlink:href="#SegoeUI-32"/>
       <use xlink:href="#SegoeUI-3c0" x="53.90625"/>
      </g>
     </g>
    </g>
   </g>
   <g id="matplotlib.axis_4">
    <g id="ytick_4">
     <g id="line2d_30">
      <g>
       <use xlink:href="#m527f7c47ee" x="26.43125" y="438.071284" style="fill: #2c2f33; stroke: #2c2f33; stroke-width: 0.8"/>
      </g>
     </g>
     <g id="text_27">
      <!-- −1 -->
      <g style="fill: #2c2f33" transform="translate(7.2 441.772846) scale(0.1 -0.1)">
       <use xlink:href="#SegoeUI-2212"/>
       <use xlink:href="#SegoeUI-31" x="68.408203"/>
      </g>
     </g>
    </g>
    <g id="ytick_5">
     <g id="line2d_31">
      <g>
       <use xlink:href="#m527f7c47ee" x="26.43125" y="387.572918" style="fill: #2c2f33; stroke: #2c2f33; stroke-width: 0.8"/>
      </g>
     </g>
     <g id="text_28">
      <!-- 0 -->
      <g style="fill: #2c2f33" transform="translate(14.040625 391.274481) scale(0.1 -0.1)">
       <use xlink:href="#SegoeUI-30"/>
      </g>
     </g>
    </g>
    <g id="ytick_6">
     <g id="line2d_32">
      <g>
       <use xlink:href="#m527f7c47ee" x="26.43125" y="337.074553" style="fill: #2c2f33; stroke: #2c2f33; stroke-width: 0.8"/>
      </g>
     </g>
     <g id="text_29">
      <!-- 1 -->
      <g style="fill: #2c2f33" transform="translate(14.040625 340.776115) scale(0.1 -0.1)">
       <use xlink:href="#SegoeUI-31"/>
      </g>
     </g>
    </g>
   </g>
   <g id="line2d_33">
    <path d="M 26.43125 337.074553 
L 1009.19952 337.074553 
" clip-path="url(#pb1b49cbd90)" style="fill: none; stroke-dasharray: 3.7,1.6; stroke-dashoffset: 0; stroke: #e5e7eb"/>
   </g>
   <g id="line2d_34">
    <path d="M 26.43125 438.071284 
L 1009.19952 438.071284 
" clip-path="url(#pb1b49cbd90)" style="fill: none; stroke-dasharray: 3.7,1.6; stroke-dashoffset: 0; stroke: #e5e7eb"/>
   </g>
   <g id="line2d_35">
    <path d="M 71.102535 337.074553 
L 76.473832 337.218599 
L 81.845129 337.649916 
L 87.216425 338.366043 
L 92.587722 339.362894 
L 97.959019 340.634783 
L 103.330316 342.174454 
L 108.701613 343.973122 
L 114.072909 346.020526 
L 119.444206 348.304986 
L 124.815503 350.813469 
L 130.1868 353.531664 
L 137.348529 357.455179 
L 144.510258 361.684041 
L 151.671987 366.175376 
L 160.624148 372.089061 
L 171.366742 379.500575 
L 207.175387 404.561917 
L 216.127548 410.399495 
L 223.289277 414.813582 
L 230.451007 418.951492 
L 237.612736 422.771272 
L 242.984032 425.403905 
L 248.355329 427.820712 
L 253.726626 430.007907 
L 259.097923 431.95301 
L 264.46922 433.644926 
L 269.840516 435.074002 
L 275.211813 436.232084 
L 280.58311 437.112567 
L 285.954407 437.710427 
L 291.325704 438.022253 
L 296.697 438.046266 
L 302.068297 437.78233 
L 307.439594 437.231949 
L 312.810891 436.398265 
L 318.182188 435.286032 
L 323.553484 433.901597 
L 328.924781 432.252858 
L 334.296078 430.34922 
L 339.667375 428.201544 
L 345.038671 425.822082 
L 350.409968 423.224409 
L 355.781265 420.423345 
L 362.942994 416.399982 
L 370.104723 412.084358 
L 377.266452 407.520225 
L 386.218614 401.536292 
L 396.961207 394.072331 
L 427.398556 372.695497 
L 436.350717 366.753006 
L 443.512446 362.232014 
L 450.674175 357.967939 
L 457.835904 354.004013 
L 463.207201 351.252342 
L 468.578498 348.70788 
L 473.949795 346.385142 
L 479.321091 344.29738 
L 484.692388 342.456505 
L 490.063685 340.873018 
L 495.434982 339.555953 
L 500.806278 338.512824 
L 506.177575 337.749582 
L 511.548872 337.270582 
L 516.920169 337.078556 
L 522.291466 337.174599 
L 527.662762 337.558165 
L 533.034059 338.227063 
L 538.405356 339.177479 
L 543.776653 340.403991 
L 549.14795 341.8996 
L 554.519246 343.655775 
L 559.890543 345.662497 
L 565.26184 347.908317 
L 570.633137 350.380423 
L 576.004434 353.064712 
L 583.166163 356.947194 
L 590.327892 361.140172 
L 597.489621 365.601138 
L 606.441782 371.48508 
L 617.184376 378.873555 
L 638.669563 394.072331 
L 651.202589 402.753858 
L 660.15475 408.682064 
L 667.316479 413.188317 
L 674.478208 417.43487 
L 681.639937 421.378668 
L 687.011234 424.113655 
L 692.382531 426.640178 
L 697.753828 428.943823 
L 703.125124 431.011447 
L 708.496421 432.831254 
L 713.867718 434.392864 
L 719.239015 435.687367 
L 724.610312 436.707377 
L 729.981608 437.447076 
L 735.352905 437.902244 
L 740.724202 438.070283 
L 746.095499 437.950236 
L 751.466796 437.542787 
L 756.838092 436.85026 
L 762.209389 435.876607 
L 767.580686 434.627382 
L 772.951983 433.109712 
L 778.323279 431.332256 
L 783.694576 429.305152 
L 789.065873 427.039968 
L 794.43717 424.549624 
L 799.808467 421.848328 
L 806.970196 417.945253 
L 814.131925 413.734249 
L 821.293654 409.258009 
L 830.245815 403.359079 
L 840.988409 395.958938 
L 878.587486 369.68882 
L 887.539648 363.899688 
L 894.701377 359.534053 
L 901.863106 355.452689 
L 907.234403 352.603231 
L 912.605699 349.953274 
L 917.976996 347.517937 
L 923.348293 345.311113 
L 928.71959 343.345392 
L 934.090887 341.631988 
L 939.462183 340.180677 
L 944.83348 338.999737 
L 950.204777 338.095907 
L 955.576074 337.474343 
L 960.94737 337.13859 
L 964.528235 337.074553 
L 964.528235 337.074553 
" clip-path="url(#pb1b49cbd90)" style="fill: none; stroke: #4b5563; stroke-width: 2.5; stroke-linecap: square"/>
   </g>
   <g id="patch_10">
    <path d="M 26.43125 488.569649 
L 26.43125 306.775533 
" style="fill: none; stroke: #4b5563; stroke-width: 0.8; stroke-linejoin: miter; stroke-linecap: square"/>
   </g>
   <g id="patch_11">
    <path d="M 26.43125 488.569649 
L 1009.19952 488.569649 
" style="fill: none; stroke: #4b5563; stroke-width: 0.8; stroke-linejoin: miter; stroke-linecap: square"/>
   </g>
   <g id="patch_12">
    <path d="M 556.552955 325.592595 
Q 538.141733 331.049749 520.802449 336.189176 
" style="fill: none; stroke: #4b5563; stroke-linecap: round"/>
    <path d="M 524.765551 336.891904 
L 520.802449 336.189176 
L 523.742492 333.440331 
" style="fill: none; stroke: #4b5563; stroke-linecap: round"/>
   </g>
   <g id="text_30">
    <!-- máx = 1 -->
    <g style="fill: #4b5563" transform="translate(560.47332 321.925043) scale(0.09 -0.09)">
     <use xlink:href="#SegoeUI-6d"/>
     <use xlink:href="#SegoeUI-e1" x="86.132812"/>
     <use xlink:href="#SegoeUI-78" x="137.011719"/>
     <use xlink:href="#SegoeUI-20" x="182.910156"/>
     <use xlink:href="#SegoeUI-3d" x="210.302734"/>
     <use xlink:href="#SegoeUI-20" x="278.710938"/>
     <use xlink:href="#SegoeUI-31" x="306.103516"/>
    </g>
   </g>
   <g id="patch_13">
    <path d="M 773.321831 448.966293 
Q 758.194602 443.839973 744.126259 439.072488 
" style="fill: none; stroke: #4b5563; stroke-linecap: round"/>
    <path d="M 746.958089 441.932688 
L 744.126259 439.072488 
L 748.113516 438.523144 
" style="fill: none; stroke: #4b5563; stroke-linecap: round"/>
   </g>
   <g id="text_31">
    <!-- mín = -1 -->
    <g style="fill: #4b5563" transform="translate(776.720089 458.27063) scale(0.09 -0.09)">
     <use xlink:href="#SegoeUI-6d"/>
     <use xlink:href="#SegoeUI-ed" x="86.132812"/>
     <use xlink:href="#SegoeUI-6e" x="110.351562"/>
     <use xlink:href="#SegoeUI-20" x="166.943359"/>
     <use xlink:href="#SegoeUI-3d" x="194.335938"/>
     <use xlink:href="#SegoeUI-20" x="262.744141"/>
     <use xlink:href="#SegoeUI-2d" x="290.136719"/>
     <use xlink:href="#SegoeUI-31" x="330.126953"/>
    </g>
   </g>
   <g id="text_32">
    <!-- Función Coseno: y = cos x -->
    <g style="fill: #4b5563" transform="translate(451.142494 300.775533) scale(0.11 -0.11)">
     <defs>
      <path id="SegoeUI-Bold-43" d="M 3725 159 
Q 3234 -78 2444 -78 
Q 1413 -78 822 528 
Q 231 1134 231 2144 
Q 231 3219 895 3887 
Q 1559 4556 2619 4556 
Q 3275 4556 3725 4391 
L 3725 3419 
Q 3275 3688 2700 3688 
Q 2069 3688 1681 3291 
Q 1294 2894 1294 2216 
Q 1294 1566 1659 1180 
Q 2025 794 2644 794 
Q 3234 794 3725 1081 
L 3725 159 
z
" transform="scale(0.015625)"/>
     </defs>
     <use xlink:href="#SegoeUI-Bold-46"/>
     <use xlink:href="#SegoeUI-Bold-75" x="52.001953"/>
     <use xlink:href="#SegoeUI-Bold-6e" x="112.5"/>
     <use xlink:href="#SegoeUI-Bold-63" x="172.998047"/>
     <use xlink:href="#SegoeUI-Bold-69" x="220.996094"/>
     <use xlink:href="#SegoeUI-Bold-f3" x="249.414062"/>
     <use xlink:href="#SegoeUI-Bold-6e" x="310.498047"/>
     <use xlink:href="#SegoeUI-Bold-20" x="370.996094"/>
     <use xlink:href="#SegoeUI-Bold-43" x="398.583984"/>
     <use xlink:href="#SegoeUI-Bold-6f" x="460.986328"/>
     <use xlink:href="#SegoeUI-Bold-73" x="522.119141"/>
     <use xlink:href="#SegoeUI-Bold-65" x="566.113281"/>
     <use xlink:href="#SegoeUI-Bold-6e" x="620.214844"/>
     <use xlink:href="#SegoeUI-Bold-6f" x="680.712891"/>
     <use xlink:href="#SegoeUI-Bold-3a" x="741.845703"/>
     <use xlink:href="#SegoeUI-Bold-20" x="768.945312"/>
     <use xlink:href="#SegoeUI-Bold-79" x="796.533203"/>
     <use xlink:href="#SegoeUI-Bold-20" x="850.341797"/>
     <use xlink:href="#SegoeUI-Bold-3d" x="877.929688"/>
     <use xlink:href="#SegoeUI-Bold-20" x="948.632812"/>
     <use xlink:href="#SegoeUI-Bold-63" x="976.220703"/>
     <use xlink:href="#SegoeUI-Bold-6f" x="1024.21875"/>
     <use xlink:href="#SegoeUI-Bold-73" x="1085.351562"/>
     <use xlink:href="#SegoeUI-Bold-20" x="1129.345703"/>
     <use xlink:href="#SegoeUI-Bold-78" x="1156.933594"/>
    </g>
   </g>
   <g id="PathCollection_2">
    <defs>
     <path id="m7279292843" d="M 0 3.535534 
C 0.937635 3.535534 1.836992 3.163008 2.5 2.5 
C 3.163008 1.836992 3.535534 0.937635 3.535534 0 
C 3.535534 -0.937635 3.163008 -1.836992 2.5 -2.5 
C 1.836992 -3.163008 0.937635 -3.535534 0 -3.535534 
C -0.937635 -3.535534 -1.836992 -3.163008 -2.5 -2.5 
C -3.163008 -1.836992 -3.535534 -0.937635 -3.535534 0 
C -3.535534 0.937635 -3.163008 1.836992 -2.5 2.5 
C -1.836992 3.163008 -0.937635 3.535534 0 3.535534 
z
" style="stroke: #4b5563"/>
    </defs>
    <g clip-path="url(#pb1b49cbd90)">
     <use xlink:href="#m7279292843" x="71.102535" y="337.074553" style="fill: #4b5563; stroke: #4b5563"/>
     <use xlink:href="#m7279292843" x="182.780748" y="387.572918" style="fill: #4b5563; stroke: #4b5563"/>
     <use xlink:href="#m7279292843" x="294.45896" y="438.071284" style="fill: #4b5563; stroke: #4b5563"/>
     <use xlink:href="#m7279292843" x="406.137173" y="387.572918" style="fill: #4b5563; stroke: #4b5563"/>
     <use xlink:href="#m7279292843" x="517.815385" y="337.074553" style="fill: #4b5563; stroke: #4b5563"/>
     <use xlink:href="#m7279292843" x="629.493597" y="387.572918" style="fill: #4b5563; stroke: #4b5563"/>
     <use xlink:href="#m7279292843" x="741.17181" y="438.071284" style="fill: #4b5563; stroke: #4b5563"/>
     <use xlink:href="#m7279292843" x="852.850023" y="387.572918" style="fill: #4b5563; stroke: #4b5563"/>
     <use xlink:href="#m7279292843" x="964.528235" y="337.074553" style="fill: #4b5563; stroke: #4b5563"/>
    </g>
   </g>
   <g id="legend_2">
    <g id="patch_14">
     <path d="M 938.811082 327.256158 
L 1002.89952 327.256158 
Q 1004.69952 327.256158 1004.69952 325.456158 
L 1004.69952 313.075534 
Q 1004.69952 311.275533 1002.89952 311.275533 
L 938.811082 311.275533 
Q 937.011083 311.275533 937.011083 313.075534 
L 937.011083 325.456158 
Q 937.011083 327.256158 938.811082 327.256158 
z
" style="fill: #ffffff; opacity: 0.8; stroke: #cccccc; stroke-linejoin: miter"/>
    </g>
    <g id="line2d_36">
     <path d="M 940.611083 318.388346 
L 949.611083 318.388346 
L 958.611083 318.388346 
" style="fill: none; stroke: #4b5563; stroke-width: 2.5; stroke-linecap: square"/>
    </g>
    <g id="text_33">
     <!-- y = cos x -->
     <g style="fill: #2c2f33" transform="translate(965.811083 321.538346) scale(0.09 -0.09)">
      <defs>
       <path id="SegoeUI-63" d="M 2700 147 
Q 2331 -75 1825 -75 
Q 1141 -75 720 370 
Q 300 816 300 1525 
Q 300 2316 753 2795 
Q 1206 3275 1963 3275 
Q 2384 3275 2706 3119 
L 2706 2594 
Q 2350 2844 1944 2844 
Q 1453 2844 1139 2492 
Q 825 2141 825 1569 
Q 825 1006 1120 681 
Q 1416 356 1913 356 
Q 2331 356 2700 634 
L 2700 147 
z
" transform="scale(0.015625)"/>
      </defs>
      <use xlink:href="#SegoeUI-79"/>
      <use xlink:href="#SegoeUI-20" x="48.388672"/>
      <use xlink:href="#SegoeUI-3d" x="75.78125"/>
      <use xlink:href="#SegoeUI-20" x="144.189453"/>
      <use xlink:href="#SegoeUI-63" x="171.582031"/>
      <use xlink:href="#SegoeUI-6f" x="217.773438"/>
      <use xlink:href="#SegoeUI-73" x="276.367188"/>
      <use xlink:href="#SegoeUI-20" x="318.798828"/>
      <use xlink:href="#SegoeUI-78" x="346.191406"/>
     </g>
    </g>
   </g>
  </g>
  <g id="axes_3">
   <g id="patch_15">
    <path d="M 46.086615 640.109814 
L 498.16002 640.109814 
L 498.16002 567.392168 
L 46.086615 567.392168 
z
" clip-path="url(#peda0ce97d2)" style="fill: #f0fdf4; stroke: #e12885; stroke-width: 1.5; stroke-linejoin: miter"/>
   </g>
   <g id="patch_16">
    <path d="M 537.47075 640.109814 
L 989.544155 640.109814 
L 989.544155 567.392168 
L 537.47075 567.392168 
z
" clip-path="url(#peda0ce97d2)" style="fill: #eff6ff; stroke: #4b5563; stroke-width: 1.5; stroke-linejoin: miter"/>
   </g>
   <g id="text_34">
    <!-- Características de sin x -->
    <g style="fill: #e12885" transform="translate(218.982692 574.663932) scale(0.1 -0.1)">
     <defs>
      <path id="SegoeUI-Bold-61" d="M 3078 0 
L 2144 0 
L 2144 459 
L 2131 459 
Q 1809 -78 1178 -78 
Q 713 -78 445 186 
Q 178 450 178 891 
Q 178 1822 1281 1966 
L 2150 2081 
Q 2150 2606 1581 2606 
Q 1009 2606 494 2266 
L 494 3009 
Q 700 3116 1058 3197 
Q 1416 3278 1709 3278 
Q 3078 3278 3078 1913 
L 3078 0 
z
M 2150 1300 
L 2150 1516 
L 1569 1441 
Q 1088 1378 1088 1006 
Q 1088 838 1205 730 
Q 1322 622 1522 622 
Q 1800 622 1975 814 
Q 2150 1006 2150 1300 
z
" transform="scale(0.015625)"/>
      <path id="SegoeUI-Bold-72" d="M 2503 2309 
Q 2325 2406 2088 2406 
Q 1766 2406 1584 2170 
Q 1403 1934 1403 1528 
L 1403 0 
L 416 0 
L 416 3200 
L 1403 3200 
L 1403 2606 
L 1416 2606 
Q 1650 3256 2259 3256 
Q 2416 3256 2503 3219 
L 2503 2309 
z
" transform="scale(0.015625)"/>
      <path id="SegoeUI-Bold-74" d="M 2350 38 
Q 2131 -78 1691 -78 
Q 647 -78 647 1006 
L 647 2472 
L 128 2472 
L 128 3200 
L 647 3200 
L 647 3891 
L 1631 4172 
L 1631 3200 
L 2350 3200 
L 2350 2472 
L 1631 2472 
L 1631 1178 
Q 1631 678 2028 678 
Q 2184 678 2350 769 
L 2350 38 
z
" transform="scale(0.015625)"/>
      <path id="SegoeUI-Bold-ed" d="M 1403 0 
L 416 0 
L 416 3200 
L 1403 3200 
L 1403 0 
z
M 1911 4716 
L 932 3706 
L 220 3706 
L 1032 4716 
L 1911 4716 
z
" transform="scale(0.015625)"/>
      <path id="SegoeUI-Bold-64" d="M 3547 0 
L 2559 0 
L 2559 441 
L 2547 441 
Q 2209 -78 1556 -78 
Q 956 -78 590 345 
Q 225 769 225 1528 
Q 225 2322 628 2800 
Q 1031 3278 1684 3278 
Q 2303 3278 2547 2834 
L 2559 2834 
L 2559 4738 
L 3547 4738 
L 3547 0 
z
M 2578 1556 
L 2578 1797 
Q 2578 2109 2397 2315 
Q 2216 2522 1925 2522 
Q 1597 2522 1412 2264 
Q 1228 2006 1228 1556 
Q 1228 1134 1406 906 
Q 1584 678 1900 678 
Q 2200 678 2389 918 
Q 2578 1159 2578 1556 
z
" transform="scale(0.015625)"/>
     </defs>
     <use xlink:href="#SegoeUI-Bold-43"/>
     <use xlink:href="#SegoeUI-Bold-61" x="62.402344"/>
     <use xlink:href="#SegoeUI-Bold-72" x="116.210938"/>
     <use xlink:href="#SegoeUI-Bold-61" x="156.005859"/>
     <use xlink:href="#SegoeUI-Bold-63" x="209.814453"/>
     <use xlink:href="#SegoeUI-Bold-74" x="257.8125"/>
     <use xlink:href="#SegoeUI-Bold-65" x="296.353516"/>
     <use xlink:href="#SegoeUI-Bold-72" x="350.455078"/>
     <use xlink:href="#SegoeUI-Bold-ed" x="390.25"/>
     <use xlink:href="#SegoeUI-Bold-73" x="418.667969"/>
     <use xlink:href="#SegoeUI-Bold-74" x="462.662109"/>
     <use xlink:href="#SegoeUI-Bold-69" x="501.578125"/>
     <use xlink:href="#SegoeUI-Bold-63" x="529.996094"/>
     <use xlink:href="#SegoeUI-Bold-61" x="577.994141"/>
     <use xlink:href="#SegoeUI-Bold-73" x="631.802734"/>
     <use xlink:href="#SegoeUI-Bold-20" x="675.796875"/>
     <use xlink:href="#SegoeUI-Bold-64" x="703.384766"/>
     <use xlink:href="#SegoeUI-Bold-65" x="765.298828"/>
     <use xlink:href="#SegoeUI-Bold-20" x="819.400391"/>
     <use xlink:href="#SegoeUI-Bold-73" x="846.988281"/>
     <use xlink:href="#SegoeUI-Bold-69" x="890.982422"/>
     <use xlink:href="#SegoeUI-Bold-6e" x="919.400391"/>
     <use xlink:href="#SegoeUI-Bold-20" x="979.898438"/>
     <use xlink:href="#SegoeUI-Bold-78" x="1007.486328"/>
    </g>
   </g>
   <g id="text_35">
    <!-- • Dominio: ℝ (todos los reales) -->
    <g style="fill: #374151" transform="translate(75.569664 585.571579) scale(0.09 -0.09)">
     <defs>
      <path id="SegoeUI-2022" d="M 1306 1275 
Q 981 1275 747 1503 
Q 513 1731 513 2056 
Q 513 2378 747 2614 
Q 981 2850 1306 2850 
Q 1631 2850 1859 2615 
Q 2088 2381 2088 2056 
Q 2088 1731 1859 1503 
Q 1631 1275 1306 1275 
z
" transform="scale(0.015625)"/>
      <path id="SegoeUI-44" d="M 588 0 
L 588 4481 
L 1825 4481 
Q 4194 4481 4194 2297 
Q 4194 1259 3536 629 
Q 2878 0 1775 0 
L 588 0 
z
M 1113 4006 
L 1113 475 
L 1781 475 
Q 2663 475 3153 947 
Q 3644 1419 3644 2284 
Q 3644 4006 1813 4006 
L 1113 4006 
z
" transform="scale(0.015625)"/>
      <path id="SegoeUI-3a" d="M 697 2575 
Q 553 2575 451 2678 
Q 350 2781 350 2925 
Q 350 3069 451 3169 
Q 553 3269 697 3269 
Q 844 3269 947 3169 
Q 1050 3069 1050 2925 
Q 1050 2781 947 2678 
Q 844 2575 697 2575 
z
M 697 -69 
Q 553 -69 451 34 
Q 350 138 350 281 
Q 350 425 451 529 
Q 553 634 697 634 
Q 844 634 947 529 
Q 1050 425 1050 281 
Q 1050 138 947 34 
Q 844 -69 697 -69 
z
" transform="scale(0.015625)"/>
      <path id="SegoeUI-211d" d="M 519 0 
L 519 4369 
L 3613 4369 
L 3613 0 
L 519 0 
z
M 981 463 
L 3150 463 
L 3150 3906 
L 981 3906 
L 981 463 
z
" transform="scale(0.015625)"/>
      <path id="SegoeUI-28" d="M 1863 -1019 
L 1406 -1019 
Q 438 88 438 1709 
Q 438 3338 1406 4481 
L 1869 4481 
Q 888 3294 888 1716 
Q 888 150 1863 -1019 
z
" transform="scale(0.015625)"/>
      <path id="SegoeUI-74" d="M 2003 31 
Q 1822 -69 1525 -69 
Q 684 -69 684 869 
L 684 2763 
L 134 2763 
L 134 3200 
L 684 3200 
L 684 3981 
L 1197 4147 
L 1197 3200 
L 2003 3200 
L 2003 2763 
L 1197 2763 
L 1197 959 
Q 1197 638 1306 500 
Q 1416 363 1669 363 
Q 1863 363 2003 469 
L 2003 31 
z
" transform="scale(0.015625)"/>
      <path id="SegoeUI-6c" d="M 1031 0 
L 519 0 
L 519 4738 
L 1031 4738 
L 1031 0 
z
" transform="scale(0.015625)"/>
      <path id="SegoeUI-61" d="M 2809 0 
L 2297 0 
L 2297 500 
L 2284 500 
Q 1950 -75 1300 -75 
Q 822 -75 551 178 
Q 281 431 281 850 
Q 281 1747 1338 1894 
L 2297 2028 
Q 2297 2844 1638 2844 
Q 1059 2844 594 2450 
L 594 2975 
Q 1066 3275 1681 3275 
Q 2809 3275 2809 2081 
L 2809 0 
z
M 2297 1619 
L 1525 1513 
Q 1169 1463 987 1336 
Q 806 1209 806 888 
Q 806 653 973 504 
Q 1141 356 1419 356 
Q 1800 356 2048 623 
Q 2297 891 2297 1300 
L 2297 1619 
z
" transform="scale(0.015625)"/>
      <path id="SegoeUI-29" d="M 531 -1019 
L 75 -1019 
Q 1050 150 1050 1716 
Q 1050 3294 69 4481 
L 531 4481 
Q 1506 3338 1506 1709 
Q 1506 88 531 -1019 
z
" transform="scale(0.015625)"/>
     </defs>
     <use xlink:href="#SegoeUI-2022"/>
     <use xlink:href="#SegoeUI-20" x="40.625"/>
     <use xlink:href="#SegoeUI-44" x="68.017578"/>
     <use xlink:href="#SegoeUI-6f" x="138.134766"/>
     <use xlink:href="#SegoeUI-6d" x="196.728516"/>
     <use xlink:href="#SegoeUI-69" x="282.861328"/>
     <use xlink:href="#SegoeUI-6e" x="307.080078"/>
     <use xlink:href="#SegoeUI-69" x="363.671875"/>
     <use xlink:href="#SegoeUI-6f" x="387.890625"/>
     <use xlink:href="#SegoeUI-3a" x="446.484375"/>
     <use xlink:href="#SegoeUI-20" x="468.164062"/>
     <use xlink:href="#SegoeUI-211d" x="495.556641"/>
     <use xlink:href="#SegoeUI-20" x="560.107422"/>
     <use xlink:href="#SegoeUI-28" x="587.5"/>
     <use xlink:href="#SegoeUI-74" x="617.675781"/>
     <use xlink:href="#SegoeUI-6f" x="650.8125"/>
     <use xlink:href="#SegoeUI-64" x="709.40625"/>
     <use xlink:href="#SegoeUI-6f" x="768.292969"/>
     <use xlink:href="#SegoeUI-73" x="826.886719"/>
     <use xlink:href="#SegoeUI-20" x="869.318359"/>
     <use xlink:href="#SegoeUI-6c" x="896.710938"/>
     <use xlink:href="#SegoeUI-6f" x="920.929688"/>
     <use xlink:href="#SegoeUI-73" x="979.523438"/>
     <use xlink:href="#SegoeUI-20" x="1021.955078"/>
     <use xlink:href="#SegoeUI-72" x="1049.347656"/>
     <use xlink:href="#SegoeUI-65" x="1082.738281"/>
     <use xlink:href="#SegoeUI-61" x="1135.033203"/>
     <use xlink:href="#SegoeUI-6c" x="1185.912109"/>
     <use xlink:href="#SegoeUI-65" x="1210.130859"/>
     <use xlink:href="#SegoeUI-73" x="1262.425781"/>
     <use xlink:href="#SegoeUI-29" x="1304.857422"/>
    </g>
   </g>
   <g id="text_36">
    <!-- • Rango: [-1, 1] -->
    <g style="fill: #374151" transform="translate(75.569664 596.479226) scale(0.09 -0.09)">
     <defs>
      <path id="SegoeUI-52" d="M 3800 0 
L 3175 0 
L 2425 1256 
Q 2322 1431 2225 1554 
Q 2128 1678 2026 1756 
Q 1925 1834 1808 1870 
Q 1691 1906 1544 1906 
L 1113 1906 
L 1113 0 
L 588 0 
L 588 4481 
L 1925 4481 
Q 2219 4481 2467 4407 
Q 2716 4334 2898 4184 
Q 3081 4034 3184 3811 
Q 3288 3588 3288 3288 
Q 3288 3053 3217 2858 
Q 3147 2663 3017 2509 
Q 2888 2356 2705 2248 
Q 2522 2141 2294 2081 
L 2294 2069 
Q 2406 2019 2489 1955 
Q 2572 1891 2647 1803 
Q 2722 1716 2795 1605 
Q 2869 1494 2959 1347 
L 3800 0 
z
M 1113 4006 
L 1113 2381 
L 1825 2381 
Q 2022 2381 2189 2440 
Q 2356 2500 2478 2611 
Q 2600 2722 2669 2883 
Q 2738 3044 2738 3244 
Q 2738 3603 2505 3804 
Q 2272 4006 1831 4006 
L 1113 4006 
z
" transform="scale(0.015625)"/>
      <path id="SegoeUI-67" d="M 3250 256 
Q 3250 -1506 1563 -1506 
Q 969 -1506 525 -1281 
L 525 -769 
Q 1066 -1069 1556 -1069 
Q 2738 -1069 2738 188 
L 2738 538 
L 2725 538 
Q 2359 -75 1625 -75 
Q 1028 -75 664 351 
Q 300 778 300 1497 
Q 300 2313 692 2794 
Q 1084 3275 1766 3275 
Q 2413 3275 2725 2756 
L 2738 2756 
L 2738 3200 
L 3250 3200 
L 3250 256 
z
M 2738 1447 
L 2738 1919 
Q 2738 2300 2480 2572 
Q 2222 2844 1838 2844 
Q 1363 2844 1094 2498 
Q 825 2153 825 1531 
Q 825 997 1083 676 
Q 1341 356 1766 356 
Q 2197 356 2467 662 
Q 2738 969 2738 1447 
z
" transform="scale(0.015625)"/>
      <path id="SegoeUI-5b" d="M 1775 -1019 
L 625 -1019 
L 625 4481 
L 1775 4481 
L 1775 4109 
L 1081 4109 
L 1081 -647 
L 1775 -647 
L 1775 -1019 
z
" transform="scale(0.015625)"/>
      <path id="SegoeUI-2c" d="M 988 713 
L 488 -825 
L 122 -825 
L 488 713 
L 988 713 
z
" transform="scale(0.015625)"/>
      <path id="SegoeUI-5d" d="M 1313 -1019 
L 166 -1019 
L 166 -647 
L 856 -647 
L 856 4109 
L 166 4109 
L 166 4481 
L 1313 4481 
L 1313 -1019 
z
" transform="scale(0.015625)"/>
     </defs>
     <use xlink:href="#SegoeUI-2022"/>
     <use xlink:href="#SegoeUI-20" x="40.625"/>
     <use xlink:href="#SegoeUI-52" x="68.017578"/>
     <use xlink:href="#SegoeUI-61" x="127.832031"/>
     <use xlink:href="#SegoeUI-6e" x="178.710938"/>
     <use xlink:href="#SegoeUI-67" x="235.302734"/>
     <use xlink:href="#SegoeUI-6f" x="294.189453"/>
     <use xlink:href="#SegoeUI-3a" x="352.783203"/>
     <use xlink:href="#SegoeUI-20" x="374.462891"/>
     <use xlink:href="#SegoeUI-5b" x="401.855469"/>
     <use xlink:href="#SegoeUI-2d" x="432.03125"/>
     <use xlink:href="#SegoeUI-31" x="472.021484"/>
     <use xlink:href="#SegoeUI-2c" x="525.927734"/>
     <use xlink:href="#SegoeUI-20" x="547.607422"/>
     <use xlink:href="#SegoeUI-31" x="575"/>
     <use xlink:href="#SegoeUI-5d" x="628.90625"/>
    </g>
   </g>
   <g id="text_37">
    <!-- • Periodo: 2π -->
    <g style="fill: #374151" transform="translate(75.569664 607.386873) scale(0.09 -0.09)">
     <use xlink:href="#SegoeUI-2022"/>
     <use xlink:href="#SegoeUI-20" x="40.625"/>
     <use xlink:href="#SegoeUI-50" x="68.017578"/>
     <use xlink:href="#SegoeUI-65" x="120.273438"/>
     <use xlink:href="#SegoeUI-72" x="172.568359"/>
     <use xlink:href="#SegoeUI-69" x="207.333984"/>
     <use xlink:href="#SegoeUI-6f" x="231.552734"/>
     <use xlink:href="#SegoeUI-64" x="290.146484"/>
     <use xlink:href="#SegoeUI-6f" x="349.033203"/>
     <use xlink:href="#SegoeUI-3a" x="407.626953"/>
     <use xlink:href="#SegoeUI-20" x="429.306641"/>
     <use xlink:href="#SegoeUI-32" x="456.699219"/>
     <use xlink:href="#SegoeUI-3c0" x="510.605469"/>
    </g>
   </g>
   <g id="text_38">
    <!-- • Función impar: sin(-x) = -sin(x) -->
    <g style="fill: #374151" transform="translate(75.569664 618.29452) scale(0.09 -0.09)">
     <defs>
      <path id="SegoeUI-46" d="M 2863 4006 
L 1113 4006 
L 1113 2456 
L 2731 2456 
L 2731 1984 
L 1113 1984 
L 1113 0 
L 588 0 
L 588 4481 
L 2863 4481 
L 2863 4006 
z
" transform="scale(0.015625)"/>
      <path id="SegoeUI-75" d="M 3106 0 
L 2594 0 
L 2594 506 
L 2581 506 
Q 2263 -75 1594 -75 
Q 450 -75 450 1288 
L 450 3200 
L 959 3200 
L 959 1369 
Q 959 356 1734 356 
Q 2109 356 2351 632 
Q 2594 909 2594 1356 
L 2594 3200 
L 3106 3200 
L 3106 0 
z
" transform="scale(0.015625)"/>
      <path id="SegoeUI-f3" d="M 1856 -75 
Q 1147 -75 723 373 
Q 300 822 300 1563 
Q 300 2369 740 2822 
Q 1181 3275 1931 3275 
Q 2647 3275 3048 2834 
Q 3450 2394 3450 1613 
Q 3450 847 3017 386 
Q 2584 -75 1856 -75 
z
M 1894 2844 
Q 1400 2844 1112 2508 
Q 825 2172 825 1581 
Q 825 1013 1115 684 
Q 1406 356 1894 356 
Q 2391 356 2658 678 
Q 2925 1000 2925 1594 
Q 2925 2194 2658 2519 
Q 2391 2844 1894 2844 
z
M 2646 4831 
L 1827 3806 
L 1430 3806 
L 2127 4831 
L 2646 4831 
z
" transform="scale(0.015625)"/>
      <path id="SegoeUI-70" d="M 1044 463 
L 1031 463 
L 1031 -1472 
L 519 -1472 
L 519 3200 
L 1031 3200 
L 1031 2638 
L 1044 2638 
Q 1422 3275 2150 3275 
Q 2769 3275 3116 2845 
Q 3463 2416 3463 1694 
Q 3463 891 3072 408 
Q 2681 -75 2003 -75 
Q 1381 -75 1044 463 
z
M 1031 1753 
L 1031 1306 
Q 1031 909 1289 632 
Q 1547 356 1944 356 
Q 2409 356 2673 712 
Q 2938 1069 2938 1703 
Q 2938 2238 2691 2541 
Q 2444 2844 2022 2844 
Q 1575 2844 1303 2533 
Q 1031 2222 1031 1753 
z
" transform="scale(0.015625)"/>
     </defs>
     <use xlink:href="#SegoeUI-2022"/>
     <use xlink:href="#SegoeUI-20" x="40.625"/>
     <use xlink:href="#SegoeUI-46" x="68.017578"/>
     <use xlink:href="#SegoeUI-75" x="116.845703"/>
     <use xlink:href="#SegoeUI-6e" x="173.4375"/>
     <use xlink:href="#SegoeUI-63" x="230.029297"/>
     <use xlink:href="#SegoeUI-69" x="276.220703"/>
     <use xlink:href="#SegoeUI-f3" x="300.439453"/>
     <use xlink:href="#SegoeUI-6e" x="359.033203"/>
     <use xlink:href="#SegoeUI-20" x="415.625"/>
     <use xlink:href="#SegoeUI-69" x="443.017578"/>
     <use xlink:href="#SegoeUI-6d" x="467.236328"/>
     <use xlink:href="#SegoeUI-70" x="553.369141"/>
     <use xlink:href="#SegoeUI-61" x="610.783203"/>
     <use xlink:href="#SegoeUI-72" x="661.662109"/>
     <use xlink:href="#SegoeUI-3a" x="700.427734"/>
     <use xlink:href="#SegoeUI-20" x="722.107422"/>
     <use xlink:href="#SegoeUI-73" x="749.5"/>
     <use xlink:href="#SegoeUI-69" x="791.931641"/>
     <use xlink:href="#SegoeUI-6e" x="816.150391"/>
     <use xlink:href="#SegoeUI-28" x="872.742188"/>
     <use xlink:href="#SegoeUI-2d" x="902.917969"/>
     <use xlink:href="#SegoeUI-78" x="942.908203"/>
     <use xlink:href="#SegoeUI-29" x="988.806641"/>
     <use xlink:href="#SegoeUI-20" x="1018.982422"/>
     <use xlink:href="#SegoeUI-3d" x="1046.375"/>
     <use xlink:href="#SegoeUI-20" x="1114.783203"/>
     <use xlink:href="#SegoeUI-2d" x="1142.175781"/>
     <use xlink:href="#SegoeUI-73" x="1182.166016"/>
     <use xlink:href="#SegoeUI-69" x="1224.597656"/>
     <use xlink:href="#SegoeUI-6e" x="1248.816406"/>
     <use xlink:href="#SegoeUI-28" x="1305.408203"/>
     <use xlink:href="#SegoeUI-78" x="1335.583984"/>
     <use xlink:href="#SegoeUI-29" x="1381.482422"/>
    </g>
   </g>
   <g id="text_39">
    <!-- • Ceros: x = nπ, n ∈ ℤ -->
    <g style="fill: #374151" transform="translate(75.569664 629.202167) scale(0.09 -0.09)">
     <defs>
      <path id="SegoeUI-43" d="M 3638 188 
Q 3141 -75 2400 -75 
Q 1444 -75 869 540 
Q 294 1156 294 2156 
Q 294 3231 941 3893 
Q 1588 4556 2581 4556 
Q 3219 4556 3638 4372 
L 3638 3813 
Q 3156 4081 2575 4081 
Q 1803 4081 1323 3565 
Q 844 3050 844 2188 
Q 844 1369 1292 883 
Q 1741 397 2469 397 
Q 3144 397 3638 697 
L 3638 188 
z
" transform="scale(0.015625)"/>
      <path id="SegoeUI-2208" d="M 519 0 
L 519 4369 
L 3613 4369 
L 3613 0 
L 519 0 
z
M 981 463 
L 3150 463 
L 3150 3906 
L 981 3906 
L 981 463 
z
" transform="scale(0.015625)"/>
      <path id="SegoeUI-2124" d="M 519 0 
L 519 4369 
L 3613 4369 
L 3613 0 
L 519 0 
z
M 981 463 
L 3150 463 
L 3150 3906 
L 981 3906 
L 981 463 
z
" transform="scale(0.015625)"/>
     </defs>
     <use xlink:href="#SegoeUI-2022"/>
     <use xlink:href="#SegoeUI-20" x="40.625"/>
     <use xlink:href="#SegoeUI-43" x="68.017578"/>
     <use xlink:href="#SegoeUI-65" x="129.931641"/>
     <use xlink:href="#SegoeUI-72" x="182.226562"/>
     <use xlink:href="#SegoeUI-6f" x="215.617188"/>
     <use xlink:href="#SegoeUI-73" x="274.210938"/>
     <use xlink:href="#SegoeUI-3a" x="316.642578"/>
     <use xlink:href="#SegoeUI-20" x="338.322266"/>
     <use xlink:href="#SegoeUI-78" x="365.714844"/>
     <use xlink:href="#SegoeUI-20" x="411.613281"/>
     <use xlink:href="#SegoeUI-3d" x="439.005859"/>
     <use xlink:href="#SegoeUI-20" x="507.414062"/>
     <use xlink:href="#SegoeUI-6e" x="534.806641"/>
     <use xlink:href="#SegoeUI-3c0" x="591.398438"/>
     <use xlink:href="#SegoeUI-2c" x="654.09375"/>
     <use xlink:href="#SegoeUI-20" x="675.773438"/>
     <use xlink:href="#SegoeUI-6e" x="703.166016"/>
     <use xlink:href="#SegoeUI-20" x="759.757812"/>
     <use xlink:href="#SegoeUI-2208" x="787.150391"/>
     <use xlink:href="#SegoeUI-20" x="851.701172"/>
     <use xlink:href="#SegoeUI-2124" x="879.09375"/>
    </g>
   </g>
   <g id="text_40">
    <!-- Características de cos x -->
    <g style="fill: #4b5563" transform="translate(709.35589 574.663932) scale(0.1 -0.1)">
     <use xlink:href="#SegoeUI-Bold-43"/>
     <use xlink:href="#SegoeUI-Bold-61" x="62.402344"/>
     <use xlink:href="#SegoeUI-Bold-72" x="116.210938"/>
     <use xlink:href="#SegoeUI-Bold-61" x="156.005859"/>
     <use xlink:href="#SegoeUI-Bold-63" x="209.814453"/>
     <use xlink:href="#SegoeUI-Bold-74" x="257.8125"/>
     <use xlink:href="#SegoeUI-Bold-65" x="296.353516"/>
     <use xlink:href="#SegoeUI-Bold-72" x="350.455078"/>
     <use xlink:href="#SegoeUI-Bold-ed" x="390.25"/>
     <use xlink:href="#SegoeUI-Bold-73" x="418.667969"/>
     <use xlink:href="#SegoeUI-Bold-74" x="462.662109"/>
     <use xlink:href="#SegoeUI-Bold-69" x="501.578125"/>
     <use xlink:href="#SegoeUI-Bold-63" x="529.996094"/>
     <use xlink:href="#SegoeUI-Bold-61" x="577.994141"/>
     <use xlink:href="#SegoeUI-Bold-73" x="631.802734"/>
     <use xlink:href="#SegoeUI-Bold-20" x="675.796875"/>
     <use xlink:href="#SegoeUI-Bold-64" x="703.384766"/>
     <use xlink:href="#SegoeUI-Bold-65" x="765.298828"/>
     <use xlink:href="#SegoeUI-Bold-20" x="819.400391"/>
     <use xlink:href="#SegoeUI-Bold-63" x="846.988281"/>
     <use xlink:href="#SegoeUI-Bold-6f" x="894.986328"/>
     <use xlink:href="#SegoeUI-Bold-73" x="956.119141"/>
     <use xlink:href="#SegoeUI-Bold-20" x="1000.113281"/>
     <use xlink:href="#SegoeUI-Bold-78" x="1027.701172"/>
    </g>
   </g>
   <g id="text_41">
    <!-- • Dominio: ℝ (todos los reales) -->
    <g style="fill: #374151" transform="translate(566.953799 585.571579) scale(0.09 -0.09)">
     <use xlink:href="#SegoeUI-2022"/>
     <use xlink:href="#SegoeUI-20" x="40.625"/>
     <use xlink:href="#SegoeUI-44" x="68.017578"/>
     <use xlink:href="#SegoeUI-6f" x="138.134766"/>
     <use xlink:href="#SegoeUI-6d" x="196.728516"/>
     <use xlink:href="#SegoeUI-69" x="282.861328"/>
     <use xlink:href="#SegoeUI-6e" x="307.080078"/>
     <use xlink:href="#SegoeUI-69" x="363.671875"/>
     <use xlink:href="#SegoeUI-6f" x="387.890625"/>
     <use xlink:href="#SegoeUI-3a" x="446.484375"/>
     <use xlink:href="#SegoeUI-20" x="468.164062"/>
     <use xlink:href="#SegoeUI-211d" x="495.556641"/>
     <use xlink:href="#SegoeUI-20" x="560.107422"/>
     <use xlink:href="#SegoeUI-28" x="587.5"/>
     <use xlink:href="#SegoeUI-74" x="617.675781"/>
     <use xlink:href="#SegoeUI-6f" x="650.8125"/>
     <use xlink:href="#SegoeUI-64" x="709.40625"/>
     <use xlink:href="#SegoeUI-6f" x="768.292969"/>
     <use xlink:href="#SegoeUI-73" x="826.886719"/>
     <use xlink:href="#SegoeUI-20" x="869.318359"/>
     <use xlink:href="#SegoeUI-6c" x="896.710938"/>
     <use xlink:href="#SegoeUI-6f" x="920.929688"/>
     <use xlink:href="#SegoeUI-73" x="979.523438"/>
     <use xlink:href="#SegoeUI-20" x="1021.955078"/>
     <use xlink:href="#SegoeUI-72" x="1049.347656"/>
     <use xlink:href="#SegoeUI-65" x="1082.738281"/>
     <use xlink:href="#SegoeUI-61" x="1135.033203"/>
     <use xlink:href="#SegoeUI-6c" x="1185.912109"/>
     <use xlink:href="#SegoeUI-65" x="1210.130859"/>
     <use xlink:href="#SegoeUI-73" x="1262.425781"/>
     <use xlink:href="#SegoeUI-29" x="1304.857422"/>
    </g>
   </g>
   <g id="text_42">
    <!-- • Rango: [-1, 1] -->
    <g style="fill: #374151" transform="translate(566.953799 596.479226) scale(0.09 -0.09)">
     <use xlink:href="#SegoeUI-2022"/>
     <use xlink:href="#SegoeUI-20" x="40.625"/>
     <use xlink:href="#SegoeUI-52" x="68.017578"/>
     <use xlink:href="#SegoeUI-61" x="127.832031"/>
     <use xlink:href="#SegoeUI-6e" x="178.710938"/>
     <use xlink:href="#SegoeUI-67" x="235.302734"/>
     <use xlink:href="#SegoeUI-6f" x="294.189453"/>
     <use xlink:href="#SegoeUI-3a" x="352.783203"/>
     <use xlink:href="#SegoeUI-20" x="374.462891"/>
     <use xlink:href="#SegoeUI-5b" x="401.855469"/>
     <use xlink:href="#SegoeUI-2d" x="432.03125"/>
     <use xlink:href="#SegoeUI-31" x="472.021484"/>
     <use xlink:href="#SegoeUI-2c" x="525.927734"/>
     <use xlink:href="#SegoeUI-20" x="547.607422"/>
     <use xlink:href="#SegoeUI-31" x="575"/>
     <use xlink:href="#SegoeUI-5d" x="628.90625"/>
    </g>
   </g>
   <g id="text_43">
    <!-- • Periodo: 2π -->
    <g style="fill: #374151" transform="translate(566.953799 607.386873) scale(0.09 -0.09)">
     <use xlink:href="#SegoeUI-2022"/>
     <use xlink:href="#SegoeUI-20" x="40.625"/>
     <use xlink:href="#SegoeUI-50" x="68.017578"/>
     <use xlink:href="#SegoeUI-65" x="120.273438"/>
     <use xlink:href="#SegoeUI-72" x="172.568359"/>
     <use xlink:href="#SegoeUI-69" x="207.333984"/>
     <use xlink:href="#SegoeUI-6f" x="231.552734"/>
     <use xlink:href="#SegoeUI-64" x="290.146484"/>
     <use xlink:href="#SegoeUI-6f" x="349.033203"/>
     <use xlink:href="#SegoeUI-3a" x="407.626953"/>
     <use xlink:href="#SegoeUI-20" x="429.306641"/>
     <use xlink:href="#SegoeUI-32" x="456.699219"/>
     <use xlink:href="#SegoeUI-3c0" x="510.605469"/>
    </g>
   </g>
   <g id="text_44">
    <!-- • Función par: cos(-x) = cos(x) -->
    <g style="fill: #374151" transform="translate(566.953799 618.29452) scale(0.09 -0.09)">
     <use xlink:href="#SegoeUI-2022"/>
     <use xlink:href="#SegoeUI-20" x="40.625"/>
     <use xlink:href="#SegoeUI-46" x="68.017578"/>
     <use xlink:href="#SegoeUI-75" x="116.845703"/>
     <use xlink:href="#SegoeUI-6e" x="173.4375"/>
     <use xlink:href="#SegoeUI-63" x="230.029297"/>
     <use xlink:href="#SegoeUI-69" x="276.220703"/>
     <use xlink:href="#SegoeUI-f3" x="300.439453"/>
     <use xlink:href="#SegoeUI-6e" x="359.033203"/>
     <use xlink:href="#SegoeUI-20" x="415.625"/>
     <use xlink:href="#SegoeUI-70" x="443.017578"/>
     <use xlink:href="#SegoeUI-61" x="500.431641"/>
     <use xlink:href="#SegoeUI-72" x="551.310547"/>
     <use xlink:href="#SegoeUI-3a" x="590.076172"/>
     <use xlink:href="#SegoeUI-20" x="611.755859"/>
     <use xlink:href="#SegoeUI-63" x="639.148438"/>
     <use xlink:href="#SegoeUI-6f" x="685.339844"/>
     <use xlink:href="#SegoeUI-73" x="743.933594"/>
     <use xlink:href="#SegoeUI-28" x="786.365234"/>
     <use xlink:href="#SegoeUI-2d" x="816.541016"/>
     <use xlink:href="#SegoeUI-78" x="856.53125"/>
     <use xlink:href="#SegoeUI-29" x="902.429688"/>
     <use xlink:href="#SegoeUI-20" x="932.605469"/>
     <use xlink:href="#SegoeUI-3d" x="959.998047"/>
     <use xlink:href="#SegoeUI-20" x="1028.40625"/>
     <use xlink:href="#SegoeUI-63" x="1055.798828"/>
     <use xlink:href="#SegoeUI-6f" x="1101.990234"/>
     <use xlink:href="#SegoeUI-73" x="1160.583984"/>
     <use xlink:href="#SegoeUI-28" x="1203.015625"/>
     <use xlink:href="#SegoeUI-78" x="1233.191406"/>
     <use xlink:href="#SegoeUI-29" x="1279.089844"/>
    </g>
   </g>
   <g id="text_45">
    <!-- • Ceros: x = π/2 + nπ, n ∈ ℤ -->
    <g style="fill: #374151" transform="translate(566.953799 629.202167) scale(0.09 -0.09)">
     <defs>
      <path id="SegoeUI-2b" d="M 3663 1656 
L 2400 1656 
L 2400 397 
L 1984 397 
L 1984 1656 
L 725 1656 
L 725 2075 
L 1984 2075 
L 1984 3334 
L 2400 3334 
L 2400 2075 
L 3663 2075 
L 3663 1656 
z
" transform="scale(0.015625)"/>
     </defs>
     <use xlink:href="#SegoeUI-2022"/>
     <use xlink:href="#SegoeUI-20" x="40.625"/>
     <use xlink:href="#SegoeUI-43" x="68.017578"/>
     <use xlink:href="#SegoeUI-65" x="129.931641"/>
     <use xlink:href="#SegoeUI-72" x="182.226562"/>
     <use xlink:href="#SegoeUI-6f" x="215.617188"/>
     <use xlink:href="#SegoeUI-73" x="274.210938"/>
     <use xlink:href="#SegoeUI-3a" x="316.642578"/>
     <use xlink:href="#SegoeUI-20" x="338.322266"/>
     <use xlink:href="#SegoeUI-78" x="365.714844"/>
     <use xlink:href="#SegoeUI-20" x="411.613281"/>
     <use xlink:href="#SegoeUI-3d" x="439.005859"/>
     <use xlink:href="#SegoeUI-20" x="507.414062"/>
     <use xlink:href="#SegoeUI-3c0" x="534.806641"/>
     <use xlink:href="#SegoeUI-2f" x="597.501953"/>
     <use xlink:href="#SegoeUI-32" x="636.466797"/>
     <use xlink:href="#SegoeUI-20" x="690.373047"/>
     <use xlink:href="#SegoeUI-2b" x="717.765625"/>
     <use xlink:href="#SegoeUI-20" x="786.173828"/>
     <use xlink:href="#SegoeUI-6e" x="813.566406"/>
     <use xlink:href="#SegoeUI-3c0" x="870.158203"/>
     <use xlink:href="#SegoeUI-2c" x="932.853516"/>
     <use xlink:href="#SegoeUI-20" x="954.533203"/>
     <use xlink:href="#SegoeUI-6e" x="981.925781"/>
     <use xlink:href="#SegoeUI-20" x="1038.517578"/>
     <use xlink:href="#SegoeUI-2208" x="1065.910156"/>
     <use xlink:href="#SegoeUI-20" x="1130.460938"/>
     <use xlink:href="#SegoeUI-2124" x="1157.853516"/>
    </g>
   </g>
  </g>
  <g id="text_46">
   <!-- Gráficas de las Funciones Seno y Coseno -->
   <g style="fill: #2c2f33" transform="translate(376.376635 17.728437) scale(0.14 -0.14)">
    <defs>
     <path id="SegoeUI-Bold-47" d="M 4191 300 
Q 3534 -78 2559 -78 
Q 1478 -78 854 520 
Q 231 1119 231 2169 
Q 231 3225 912 3890 
Q 1594 4556 2725 4556 
Q 3438 4556 3981 4359 
L 3981 3413 
Q 3463 3713 2713 3713 
Q 2084 3713 1689 3305 
Q 1294 2897 1294 2216 
Q 1294 1525 1648 1147 
Q 2003 769 2606 769 
Q 2969 769 3181 872 
L 3181 1747 
L 2284 1747 
L 2284 2553 
L 4191 2553 
L 4191 300 
z
" transform="scale(0.015625)"/>
     <path id="SegoeUI-Bold-e1" d="M 3078 0 
L 2144 0 
L 2144 459 
L 2131 459 
Q 1809 -78 1178 -78 
Q 713 -78 445 186 
Q 178 450 178 891 
Q 178 1822 1281 1966 
L 2150 2081 
Q 2150 2606 1581 2606 
Q 1009 2606 494 2266 
L 494 3009 
Q 700 3116 1058 3197 
Q 1416 3278 1709 3278 
Q 3078 3278 3078 1913 
L 3078 0 
z
M 2150 1300 
L 2150 1516 
L 1569 1441 
Q 1088 1378 1088 1006 
Q 1088 838 1205 730 
Q 1322 622 1522 622 
Q 1800 622 1975 814 
Q 2150 1006 2150 1300 
z
M 2783 4716 
L 1804 3706 
L 1092 3706 
L 1904 4716 
L 2783 4716 
z
" transform="scale(0.015625)"/>
     <path id="SegoeUI-Bold-66" d="M 2503 3981 
Q 2313 4056 2138 4056 
Q 1663 4056 1663 3541 
L 1663 3200 
L 2394 3200 
L 2394 2472 
L 1663 2472 
L 1663 0 
L 678 0 
L 678 2472 
L 141 2472 
L 141 3200 
L 678 3200 
L 678 3597 
Q 678 4144 1034 4478 
Q 1391 4813 2003 4813 
Q 2303 4813 2503 4750 
L 2503 3981 
z
" transform="scale(0.015625)"/>
     <path id="SegoeUI-Bold-6c" d="M 1403 0 
L 416 0 
L 416 4738 
L 1403 4738 
L 1403 0 
z
" transform="scale(0.015625)"/>
    </defs>
    <use xlink:href="#SegoeUI-Bold-47"/>
    <use xlink:href="#SegoeUI-Bold-72" x="71.09375"/>
    <use xlink:href="#SegoeUI-Bold-e1" x="110.888672"/>
    <use xlink:href="#SegoeUI-Bold-66" x="164.697266"/>
    <use xlink:href="#SegoeUI-Bold-69" x="203.027344"/>
    <use xlink:href="#SegoeUI-Bold-63" x="231.445312"/>
    <use xlink:href="#SegoeUI-Bold-61" x="279.443359"/>
    <use xlink:href="#SegoeUI-Bold-73" x="333.251953"/>
    <use xlink:href="#SegoeUI-Bold-20" x="377.246094"/>
    <use xlink:href="#SegoeUI-Bold-64" x="404.833984"/>
    <use xlink:href="#SegoeUI-Bold-65" x="466.748047"/>
    <use xlink:href="#SegoeUI-Bold-20" x="520.849609"/>
    <use xlink:href="#SegoeUI-Bold-6c" x="548.4375"/>
    <use xlink:href="#SegoeUI-Bold-61" x="576.855469"/>
    <use xlink:href="#SegoeUI-Bold-73" x="630.664062"/>
    <use xlink:href="#SegoeUI-Bold-20" x="674.658203"/>
    <use xlink:href="#SegoeUI-Bold-46" x="702.246094"/>
    <use xlink:href="#SegoeUI-Bold-75" x="754.248047"/>
    <use xlink:href="#SegoeUI-Bold-6e" x="814.746094"/>
    <use xlink:href="#SegoeUI-Bold-63" x="875.244141"/>
    <use xlink:href="#SegoeUI-Bold-69" x="923.242188"/>
    <use xlink:href="#SegoeUI-Bold-6f" x="951.660156"/>
    <use xlink:href="#SegoeUI-Bold-6e" x="1012.792969"/>
    <use xlink:href="#SegoeUI-Bold-65" x="1073.291016"/>
    <use xlink:href="#SegoeUI-Bold-73" x="1127.392578"/>
    <use xlink:href="#SegoeUI-Bold-20" x="1171.386719"/>
    <use xlink:href="#SegoeUI-Bold-53" x="1198.974609"/>
    <use xlink:href="#SegoeUI-Bold-65" x="1255.029297"/>
    <use xlink:href="#SegoeUI-Bold-6e" x="1309.130859"/>
    <use xlink:href="#SegoeUI-Bold-6f" x="1369.628906"/>
    <use xlink:href="#SegoeUI-Bold-20" x="1430.761719"/>
    <use xlink:href="#SegoeUI-Bold-79" x="1458.349609"/>
    <use xlink:href="#SegoeUI-Bold-20" x="1512.158203"/>
    <use xlink:href="#SegoeUI-Bold-43" x="1539.746094"/>
    <use xlink:href="#SegoeUI-Bold-6f" x="1602.148438"/>
    <use xlink:href="#SegoeUI-Bold-73" x="1663.28125"/>
    <use xlink:href="#SegoeUI-Bold-65" x="1707.275391"/>
    <use xlink:href="#SegoeUI-Bold-6e" x="1761.376953"/>
    <use xlink:href="#SegoeUI-Bold-6f" x="1821.875"/>
   </g>
  </g>
 </g>
 <defs>
  <clipPath id="p52657730a9">
   <rect x="26.43125" y="41.132667" width="982.76827" height="181.794116"/>
  </clipPath>
  <clipPath id="pb1b49cbd90">
   <rect x="26.43125" y="306.775533" width="982.76827" height="181.794116"/>
  </clipPath>
  <clipPath id="peda0ce97d2">
   <rect x="26.43125" y="558.302462" width="982.76827" height="90.897058"/>
  </clipPath>
 </defs>
</svg>
