<?xml version="1.0" encoding="utf-8" standalone="no"?>
<!DOCTYPE svg PUBLIC "-//W3C//DTD SVG 1.1//EN"
  "http://www.w3.org/Graphics/SVG/1.1/DTD/svg11.dtd">
<svg xmlns:xlink="http://www.w3.org/1999/xlink" width="1016.39952pt" height="728.39952pt" viewBox="0 0 1016.39952 728.39952" xmlns="http://www.w3.org/2000/svg" version="1.1">
 <metadata>
  <rdf:RDF xmlns:dc="http://purl.org/dc/elements/1.1/" xmlns:cc="http://creativecommons.org/ns#" xmlns:rdf="http://www.w3.org/1999/02/22-rdf-syntax-ns#">
   <cc:Work>
    <dc:type rdf:resource="http://purl.org/dc/dcmitype/StillImage"/>
    <dc:date>2026-04-11T16:11:45.478986</dc:date>
    <dc:format>image/svg+xml</dc:format>
    <dc:creator>
     <cc:Agent>
      <dc:title>Matplotlib v3.8.4, https://matplotlib.org/</dc:title>
     </cc:Agent>
    </dc:creator>
   </cc:Work>
  </rdf:RDF>
 </metadata>
 <defs>
  <style type="text/css">*{stroke-linejoin: round; stroke-linecap: butt}</style>
 </defs>
 <g id="figure_1">
  <g id="patch_1">
   <path d="M 0 728.39952 
L 1016.39952 728.39952 
L 1016.39952 0 
L 0 0 
z
" style="fill: #ffffff"/>
  </g>
  <g id="axes_1">
   <g id="patch_2">
    <path d="M 26.43125 313.440781 
L 465.152338 313.440781 
L 465.152338 43.597667 
L 26.43125 43.597667 
z
" style="fill: #ffffff"/>
   </g>
   <g id="matplotlib.axis_1">
    <g id="xtick_1">
     <g id="line2d_1">
      <defs>
       <path id="m4bba5a373e" d="M 0 0 
L 0 3.5 
" style="stroke: #2c2f33; stroke-width: 0.8"/>
      </defs>
      <g>
       <use xlink:href="#m4bba5a373e" x="26.43125" y="313.440781" style="fill: #2c2f33; stroke: #2c2f33; stroke-width: 0.8"/>
      </g>
     </g>
     <g id="text_1">
      <!-- -2π -->
      <g style="fill: #2c2f33" transform="translate(19.384531 327.103594) scale(0.09 -0.09)">
       <defs>
        <path id="SegoeUI-2d" d="M 2156 1581 
L 450 1581 
L 450 1984 
L 2156 1984 
L 2156 1581 
z
" transform="scale(0.015625)"/>
        <path id="SegoeUI-32" d="M 2413 3306 
Q 2413 3513 2348 3666 
Q 2284 3819 2173 3920 
Q 2063 4022 1913 4072 
Q 1763 4122 1588 4122 
Q 1438 4122 1294 4081 
Q 1150 4041 1014 3969 
Q 878 3897 751 3797 
Q 625 3697 516 3575 
L 516 4125 
Q 731 4334 998 4445 
Q 1266 4556 1650 4556 
Q 1925 4556 2159 4476 
Q 2394 4397 2566 4244 
Q 2738 4091 2836 3866 
Q 2934 3641 2934 3350 
Q 2934 3084 2873 2868 
Q 2813 2653 2689 2462 
Q 2566 2272 2378 2097 
Q 2191 1922 1938 1741 
Q 1622 1516 1417 1356 
Q 1213 1197 1092 1058 
Q 972 919 923 780 
Q 875 641 875 459 
L 3106 459 
L 3106 0 
L 341 0 
L 341 222 
Q 341 509 403 728 
Q 466 947 609 1144 
Q 753 1341 986 1537 
Q 1219 1734 1556 1981 
Q 1800 2156 1964 2315 
Q 2128 2475 2228 2634 
Q 2328 2794 2370 2958 
Q 2413 3122 2413 3306 
z
" transform="scale(0.015625)"/>
        <path id="SegoeUI-3c0" d="M 3747 2784 
L 3053 2784 
L 3053 850 
Q 3053 413 3369 413 
Q 3475 413 3644 472 
L 3644 34 
Q 3453 -38 3263 -38 
Q 2538 -38 2538 828 
L 2538 2784 
L 1322 2784 
L 1322 875 
Q 1322 275 1222 0 
L 700 0 
Q 813 272 813 875 
L 813 2784 
Q 428 2775 53 2506 
L 53 2975 
Q 288 3200 819 3200 
L 3747 3200 
L 3747 2784 
z
" transform="scale(0.015625)"/>
       </defs>
       <use xlink:href="#SegoeUI-2d"/>
       <use xlink:href="#SegoeUI-32" x="39.990234"/>
       <use xlink:href="#SegoeUI-3c0" x="93.896484"/>
      </g>
     </g>
    </g>
    <g id="xtick_2">
     <g id="line2d_2">
      <g>
       <use xlink:href="#m4bba5a373e" x="136.111522" y="313.440781" style="fill: #2c2f33; stroke: #2c2f33; stroke-width: 0.8"/>
      </g>
     </g>
     <g id="text_2">
      <!-- -π -->
      <g style="fill: #2c2f33" transform="translate(131.569335 327.103594) scale(0.09 -0.09)">
       <use xlink:href="#SegoeUI-2d"/>
       <use xlink:href="#SegoeUI-3c0" x="38.240234"/>
      </g>
     </g>
    </g>
    <g id="xtick_3">
     <g id="line2d_3">
      <g>
       <use xlink:href="#m4bba5a373e" x="245.791794" y="313.440781" style="fill: #2c2f33; stroke: #2c2f33; stroke-width: 0.8"/>
      </g>
     </g>
     <g id="text_3">
      <!-- 0 -->
      <g style="fill: #2c2f33" transform="translate(243.366013 327.103594) scale(0.09 -0.09)">
       <defs>
        <path id="SegoeUI-30" d="M 3188 2259 
Q 3188 1697 3086 1262 
Q 2984 828 2792 529 
Q 2600 231 2320 76 
Q 2041 -78 1684 -78 
Q 1347 -78 1083 70 
Q 819 219 637 503 
Q 456 788 362 1202 
Q 269 1616 269 2150 
Q 269 2738 367 3188 
Q 466 3638 656 3942 
Q 847 4247 1130 4401 
Q 1413 4556 1778 4556 
Q 3188 4556 3188 2259 
z
M 2663 2209 
Q 2663 4122 1753 4122 
Q 794 4122 794 2175 
Q 794 359 1734 359 
Q 2663 359 2663 2209 
z
" transform="scale(0.015625)"/>
       </defs>
       <use xlink:href="#SegoeUI-30"/>
      </g>
     </g>
    </g>
    <g id="xtick_4">
     <g id="line2d_4">
      <g>
       <use xlink:href="#m4bba5a373e" x="355.472066" y="313.440781" style="fill: #2c2f33; stroke: #2c2f33; stroke-width: 0.8"/>
      </g>
     </g>
     <g id="text_4">
      <!-- π -->
      <g style="fill: #2c2f33" transform="translate(352.650425 327.103594) scale(0.09 -0.09)">
       <use xlink:href="#SegoeUI-3c0"/>
      </g>
     </g>
    </g>
    <g id="xtick_5">
     <g id="line2d_5">
      <g>
       <use xlink:href="#m4bba5a373e" x="465.152338" y="313.440781" style="fill: #2c2f33; stroke: #2c2f33; stroke-width: 0.8"/>
      </g>
     </g>
     <g id="text_5">
      <!-- 2π -->
      <g style="fill: #2c2f33" transform="translate(459.904916 327.103594) scale(0.09 -0.09)">
       <use xlink:href="#SegoeUI-32"/>
       <use xlink:href="#SegoeUI-3c0" x="53.90625"/>
      </g>
     </g>
    </g>
   </g>
   <g id="matplotlib.axis_2">
    <g id="ytick_1">
     <g id="line2d_6">
      <defs>
       <path id="m37e6d16def" d="M 0 0 
L -3.5 0 
" style="stroke: #2c2f33; stroke-width: 0.8"/>
      </defs>
      <g>
       <use xlink:href="#m37e6d16def" x="26.43125" y="286.45647" style="fill: #2c2f33; stroke: #2c2f33; stroke-width: 0.8"/>
      </g>
     </g>
     <g id="text_6">
      <!-- −4 -->
      <g style="fill: #2c2f33" transform="translate(7.2 290.158032) scale(0.1 -0.1)">
       <defs>
        <path id="SegoeUI-2212" d="M 3663 1656 
L 725 1656 
L 725 2075 
L 3663 2075 
L 3663 1656 
z
" transform="scale(0.015625)"/>
        <path id="SegoeUI-34" d="M 2656 4481 
L 2656 1522 
L 3231 1522 
L 3231 1053 
L 2656 1053 
L 2656 0 
L 2150 0 
L 2150 1053 
L 44 1053 
L 44 1497 
Q 338 1828 638 2204 
Q 938 2581 1211 2968 
Q 1484 3356 1717 3742 
Q 1950 4128 2109 4481 
L 2656 4481 
z
M 622 1522 
L 2150 1522 
L 2150 3716 
Q 1916 3306 1706 2984 
Q 1497 2663 1308 2400 
Q 1119 2138 947 1925 
Q 775 1713 622 1522 
z
" transform="scale(0.015625)"/>
       </defs>
       <use xlink:href="#SegoeUI-2212"/>
       <use xlink:href="#SegoeUI-34" x="68.408203"/>
      </g>
     </g>
    </g>
    <g id="ytick_2">
     <g id="line2d_7">
      <g>
       <use xlink:href="#m37e6d16def" x="26.43125" y="232.487847" style="fill: #2c2f33; stroke: #2c2f33; stroke-width: 0.8"/>
      </g>
     </g>
     <g id="text_7">
      <!-- −2 -->
      <g style="fill: #2c2f33" transform="translate(7.2 236.18941) scale(0.1 -0.1)">
       <use xlink:href="#SegoeUI-2212"/>
       <use xlink:href="#SegoeUI-32" x="68.408203"/>
      </g>
     </g>
    </g>
    <g id="ytick_3">
     <g id="line2d_8">
      <g>
       <use xlink:href="#m37e6d16def" x="26.43125" y="178.519224" style="fill: #2c2f33; stroke: #2c2f33; stroke-width: 0.8"/>
      </g>
     </g>
     <g id="text_8">
      <!-- 0 -->
      <g style="fill: #2c2f33" transform="translate(14.040625 182.220787) scale(0.1 -0.1)">
       <use xlink:href="#SegoeUI-30"/>
      </g>
     </g>
    </g>
    <g id="ytick_4">
     <g id="line2d_9">
      <g>
       <use xlink:href="#m37e6d16def" x="26.43125" y="124.550602" style="fill: #2c2f33; stroke: #2c2f33; stroke-width: 0.8"/>
      </g>
     </g>
     <g id="text_9">
      <!-- 2 -->
      <g style="fill: #2c2f33" transform="translate(14.040625 128.252164) scale(0.1 -0.1)">
       <use xlink:href="#SegoeUI-32"/>
      </g>
     </g>
    </g>
    <g id="ytick_5">
     <g id="line2d_10">
      <g>
       <use xlink:href="#m37e6d16def" x="26.43125" y="70.581979" style="fill: #2c2f33; stroke: #2c2f33; stroke-width: 0.8"/>
      </g>
     </g>
     <g id="text_10">
      <!-- 4 -->
      <g style="fill: #2c2f33" transform="translate(14.040625 74.283541) scale(0.1 -0.1)">
       <use xlink:href="#SegoeUI-34"/>
      </g>
     </g>
    </g>
   </g>
   <g id="line2d_11">
    <path d="M -1 205.524034 
L 0.965601 202.63966 
L 3.156194 199.751862 
L 5.894436 196.518013 
L 8.632678 193.606327 
L 11.918568 190.430431 
L 15.752107 187.040759 
L 20.680942 183.004365 
L 38.753338 168.579061 
L 42.586877 165.057377 
L 45.872767 161.718964 
L 48.611009 158.624709 
L 51.349251 155.149813 
L 53.539844 152.012154 
L 55.730438 148.461727 
L 57.921031 144.376964 
L 59.563976 140.862333 
L 61.206922 136.853242 
L 62.849867 132.21537 
L 64.492812 126.762016 
L 66.135757 120.225648 
L 67.231054 115.077707 
L 68.32635 109.109586 
L 69.421647 102.093309 
L 70.516944 93.70808 
L 71.612241 83.487657 
L 72.707537 70.727335 
L 73.802834 54.309092 
L 74.898131 32.346422 
L 75.445779 18.308476 
L 76.056254 -1 
L 76.056254 -1 
" clip-path="url(#pe81d207746)" style="fill: none; stroke: #e12885; stroke-width: 2; stroke-linecap: square"/>
   </g>
   <g id="line2d_12">
    <path d="M 83.023957 729.39952 
L 83.263454 650.923798 
L 83.811103 548.805565 
L 84.358751 482.865399 
L 84.906399 436.751575 
L 85.454048 402.676283 
L 86.001696 376.458218 
L 87.096993 338.729972 
L 88.19229 312.853086 
L 89.287586 293.969253 
L 90.382883 279.556188 
L 91.47818 268.174225 
L 92.573477 258.94173 
L 93.668773 251.288588 
L 94.76407 244.829765 
L 96.407015 236.8128 
L 98.04996 230.276433 
L 99.692905 224.823078 
L 101.335851 220.185207 
L 102.978796 216.176116 
L 104.621741 212.661485 
L 106.812334 208.576721 
L 109.002928 205.026294 
L 111.193521 201.888635 
L 113.931763 198.41374 
L 116.670005 195.319485 
L 119.955895 191.981072 
L 123.789434 188.459388 
L 128.170621 184.76496 
L 134.194753 180.002218 
L 144.600072 171.825863 
L 148.981259 168.095503 
L 152.814797 164.52453 
L 156.100688 161.125759 
L 158.838929 157.963643 
L 161.029523 155.149813 
L 163.220116 152.012154 
L 165.41071 148.461727 
L 167.601303 144.376964 
L 169.244248 140.862333 
L 170.887194 136.853242 
L 172.530139 132.21537 
L 174.173084 126.762016 
L 175.816029 120.225648 
L 176.911326 115.077707 
L 178.006622 109.109586 
L 179.101919 102.093309 
L 180.197216 93.70808 
L 181.292513 83.487657 
L 182.387809 70.727335 
L 183.483106 54.309092 
L 184.578403 32.346422 
L 185.126051 18.308476 
L 185.736526 -1 
L 185.736526 -1 
" clip-path="url(#pe81d207746)" style="fill: none; stroke: #e12885; stroke-width: 2; stroke-linecap: square"/>
   </g>
   <g id="line2d_13">
    <path d="M 192.704229 729.39952 
L 192.943726 650.923798 
L 193.491375 548.805565 
L 194.039023 482.865399 
L 194.586671 436.751575 
L 195.13432 402.676283 
L 195.681968 376.458218 
L 196.777265 338.729972 
L 197.872562 312.853086 
L 198.967858 293.969253 
L 200.063155 279.556188 
L 201.158452 268.174225 
L 202.253749 258.94173 
L 203.349045 251.288588 
L 204.444342 244.829765 
L 206.087287 236.8128 
L 207.730232 230.276433 
L 209.373177 224.823078 
L 211.016123 220.185207 
L 212.659068 216.176116 
L 214.302013 212.661485 
L 216.492606 208.576721 
L 218.6832 205.026294 
L 220.873793 201.888635 
L 223.612035 198.41374 
L 226.350277 195.319485 
L 229.636167 191.981072 
L 233.469706 188.459388 
L 237.850893 184.76496 
L 243.875025 180.002218 
L 254.280344 171.825863 
L 258.661531 168.095503 
L 262.495069 164.52453 
L 265.78096 161.125759 
L 268.519201 157.963643 
L 270.709795 155.149813 
L 272.900388 152.012154 
L 275.090982 148.461727 
L 277.281575 144.376964 
L 278.92452 140.862333 
L 280.567466 136.853242 
L 282.210411 132.21537 
L 283.853356 126.762016 
L 285.496301 120.225648 
L 286.591598 115.077707 
L 287.686894 109.109586 
L 288.782191 102.093309 
L 289.877488 93.70808 
L 290.972785 83.487657 
L 292.068081 70.727335 
L 293.163378 54.309092 
L 294.258675 32.346422 
L 294.806323 18.308476 
L 295.416798 -1 
L 295.416798 -1 
" clip-path="url(#pe81d207746)" style="fill: none; stroke: #e12885; stroke-width: 2; stroke-linecap: square"/>
   </g>
   <g id="line2d_14">
    <path d="M 302.384501 729.39952 
L 302.623998 650.923798 
L 303.171647 548.805565 
L 303.719295 482.865399 
L 304.266943 436.751575 
L 304.814592 402.676283 
L 305.36224 376.458218 
L 306.457537 338.729972 
L 307.552834 312.853086 
L 308.64813 293.969253 
L 309.743427 279.556188 
L 310.838724 268.174225 
L 311.934021 258.94173 
L 313.029317 251.288588 
L 314.124614 244.829765 
L 315.767559 236.8128 
L 317.410504 230.276433 
L 319.053449 224.823078 
L 320.696395 220.185207 
L 322.33934 216.176116 
L 323.982285 212.661485 
L 326.172878 208.576721 
L 328.363472 205.026294 
L 330.554065 201.888635 
L 333.292307 198.41374 
L 336.030549 195.319485 
L 339.316439 191.981072 
L 343.149978 188.459388 
L 347.531165 184.76496 
L 353.555297 180.002218 
L 363.960616 171.825863 
L 368.341803 168.095503 
L 372.175341 164.52453 
L 375.461232 161.125759 
L 378.199473 157.963643 
L 380.390067 155.149813 
L 382.58066 152.012154 
L 384.771254 148.461727 
L 386.961847 144.376964 
L 388.604793 140.862333 
L 390.247738 136.853242 
L 391.890683 132.21537 
L 393.533628 126.762016 
L 395.176573 120.225648 
L 396.27187 115.077707 
L 397.367166 109.109586 
L 398.462463 102.093309 
L 399.55776 93.70808 
L 400.653057 83.487657 
L 401.748353 70.727335 
L 402.84365 54.309092 
L 403.938947 32.346422 
L 404.486595 18.308476 
L 405.09707 -1 
L 405.09707 -1 
" clip-path="url(#pe81d207746)" style="fill: none; stroke: #e12885; stroke-width: 2; stroke-linecap: square"/>
   </g>
   <g id="line2d_15">
    <path d="M 412.064773 729.39952 
L 412.30427 650.923798 
L 412.851919 548.805565 
L 413.399567 482.865399 
L 413.947215 436.751575 
L 414.494864 402.676283 
L 415.042512 376.458218 
L 416.137809 338.729972 
L 417.233106 312.853086 
L 418.328402 293.969253 
L 419.423699 279.556188 
L 420.518996 268.174225 
L 421.614293 258.94173 
L 422.709589 251.288588 
L 423.804886 244.829765 
L 425.447831 236.8128 
L 427.090776 230.276433 
L 428.733721 224.823078 
L 430.376667 220.185207 
L 432.019612 216.176116 
L 433.662557 212.661485 
L 435.85315 208.576721 
L 438.043744 205.026294 
L 440.234337 201.888635 
L 442.972579 198.41374 
L 445.710821 195.319485 
L 448.996711 191.981072 
L 452.83025 188.459388 
L 457.211437 184.76496 
L 463.235569 180.002218 
L 473.640888 171.825863 
L 478.022075 168.095503 
L 481.855613 164.52453 
L 485.141504 161.125759 
L 487.879746 157.963643 
L 490.070339 155.149813 
L 492.260932 152.012154 
L 494.451526 148.461727 
L 496.642119 144.376964 
L 498.285065 140.862333 
L 499.92801 136.853242 
L 501.570955 132.21537 
L 503.2139 126.762016 
L 504.856845 120.225648 
L 505.952142 115.077707 
L 507.047438 109.109586 
L 508.142735 102.093309 
L 509.238032 93.70808 
L 510.333329 83.487657 
L 511.428625 70.727335 
L 512.523922 54.309092 
L 513.619219 32.346422 
L 514.166867 18.308476 
L 514.777342 -1 
L 514.777342 -1 
" clip-path="url(#pe81d207746)" style="fill: none; stroke: #e12885; stroke-width: 2; stroke-linecap: square"/>
   </g>
   <g id="line2d_16">
    <path d="M 81.271386 313.440781 
L 81.271386 43.597667 
" clip-path="url(#pe81d207746)" style="fill: none; stroke-dasharray: 3.7,1.6; stroke-dashoffset: 0; stroke: #d1d5db"/>
   </g>
   <g id="line2d_17">
    <path d="M 190.951658 313.440781 
L 190.951658 43.597667 
" clip-path="url(#pe81d207746)" style="fill: none; stroke-dasharray: 3.7,1.6; stroke-dashoffset: 0; stroke: #d1d5db"/>
   </g>
   <g id="line2d_18">
    <path d="M 300.63193 313.440781 
L 300.63193 43.597667 
" clip-path="url(#pe81d207746)" style="fill: none; stroke-dasharray: 3.7,1.6; stroke-dashoffset: 0; stroke: #d1d5db"/>
   </g>
   <g id="line2d_19">
    <path d="M 410.312202 313.440781 
L 410.312202 43.597667 
" clip-path="url(#pe81d207746)" style="fill: none; stroke-dasharray: 3.7,1.6; stroke-dashoffset: 0; stroke: #d1d5db"/>
   </g>
   <g id="line2d_20">
    <path d="M 519.992474 313.440781 
L 519.992474 43.597667 
" clip-path="url(#pe81d207746)" style="fill: none; stroke-dasharray: 3.7,1.6; stroke-dashoffset: 0; stroke: #d1d5db"/>
   </g>
   <g id="line2d_21">
    <path d="M 26.43125 178.519224 
L 465.152338 178.519224 
" clip-path="url(#pe81d207746)" style="fill: none; stroke: #9ca3af; stroke-linecap: square"/>
   </g>
   <g id="line2d_22">
    <path d="M 245.791794 313.440781 
L 245.791794 43.597667 
" clip-path="url(#pe81d207746)" style="fill: none; stroke: #9ca3af; stroke-linecap: square"/>
   </g>
   <g id="patch_3">
    <path d="M 26.43125 313.440781 
L 26.43125 43.597667 
" style="fill: none; stroke: #4b5563; stroke-width: 0.8; stroke-linejoin: miter; stroke-linecap: square"/>
   </g>
   <g id="patch_4">
    <path d="M 26.43125 313.440781 
L 465.152338 313.440781 
" style="fill: none; stroke: #4b5563; stroke-width: 0.8; stroke-linejoin: miter; stroke-linecap: square"/>
   </g>
   <g id="text_11">
    <!-- Periodo: π -->
    <g style="fill: #6b7280" transform="translate(402.591127 63.752636) scale(0.09 -0.09)">
     <defs>
      <path id="SegoeUI-50" d="M 1113 1694 
L 1113 0 
L 588 0 
L 588 4481 
L 1819 4481 
Q 2538 4481 2933 4131 
Q 3328 3781 3328 3144 
Q 3328 2506 2889 2100 
Q 2450 1694 1703 1694 
L 1113 1694 
z
M 1113 4006 
L 1113 2169 
L 1663 2169 
Q 2206 2169 2492 2417 
Q 2778 2666 2778 3119 
Q 2778 4006 1728 4006 
L 1113 4006 
z
" transform="scale(0.015625)"/>
      <path id="SegoeUI-65" d="M 3091 1472 
L 831 1472 
Q 844 938 1119 647 
Q 1394 356 1875 356 
Q 2416 356 2869 713 
L 2869 231 
Q 2447 -75 1753 -75 
Q 1075 -75 687 361 
Q 300 797 300 1588 
Q 300 2334 723 2804 
Q 1147 3275 1775 3275 
Q 2403 3275 2747 2869 
Q 3091 2463 3091 1741 
L 3091 1472 
z
M 2566 1906 
Q 2563 2350 2352 2597 
Q 2141 2844 1766 2844 
Q 1403 2844 1150 2584 
Q 897 2325 838 1906 
L 2566 1906 
z
" transform="scale(0.015625)"/>
      <path id="SegoeUI-72" d="M 2188 2681 
Q 2053 2784 1800 2784 
Q 1472 2784 1251 2475 
Q 1031 2166 1031 1631 
L 1031 0 
L 519 0 
L 519 3200 
L 1031 3200 
L 1031 2541 
L 1044 2541 
Q 1153 2878 1378 3067 
Q 1603 3256 1881 3256 
Q 2081 3256 2188 3213 
L 2188 2681 
z
" transform="scale(0.015625)"/>
      <path id="SegoeUI-69" d="M 781 4013 
Q 644 4013 547 4106 
Q 450 4200 450 4344 
Q 450 4488 547 4583 
Q 644 4678 781 4678 
Q 922 4678 1020 4583 
Q 1119 4488 1119 4344 
Q 1119 4206 1020 4109 
Q 922 4013 781 4013 
z
M 1031 0 
L 519 0 
L 519 3200 
L 1031 3200 
L 1031 0 
z
" transform="scale(0.015625)"/>
      <path id="SegoeUI-6f" d="M 1856 -75 
Q 1147 -75 723 373 
Q 300 822 300 1563 
Q 300 2369 740 2822 
Q 1181 3275 1931 3275 
Q 2647 3275 3048 2834 
Q 3450 2394 3450 1613 
Q 3450 847 3017 386 
Q 2584 -75 1856 -75 
z
M 1894 2844 
Q 1400 2844 1112 2508 
Q 825 2172 825 1581 
Q 825 1013 1115 684 
Q 1406 356 1894 356 
Q 2391 356 2658 678 
Q 2925 1000 2925 1594 
Q 2925 2194 2658 2519 
Q 2391 2844 1894 2844 
z
" transform="scale(0.015625)"/>
      <path id="SegoeUI-64" d="M 3250 0 
L 2738 0 
L 2738 544 
L 2725 544 
Q 2369 -75 1625 -75 
Q 1022 -75 661 354 
Q 300 784 300 1525 
Q 300 2319 700 2797 
Q 1100 3275 1766 3275 
Q 2425 3275 2725 2756 
L 2738 2756 
L 2738 4738 
L 3250 4738 
L 3250 0 
z
M 2738 1447 
L 2738 1919 
Q 2738 2306 2481 2575 
Q 2225 2844 1831 2844 
Q 1363 2844 1094 2500 
Q 825 2156 825 1550 
Q 825 997 1083 676 
Q 1341 356 1775 356 
Q 2203 356 2470 665 
Q 2738 975 2738 1447 
z
" transform="scale(0.015625)"/>
      <path id="SegoeUI-3a" d="M 697 2575 
Q 553 2575 451 2678 
Q 350 2781 350 2925 
Q 350 3069 451 3169 
Q 553 3269 697 3269 
Q 844 3269 947 3169 
Q 1050 3069 1050 2925 
Q 1050 2781 947 2678 
Q 844 2575 697 2575 
z
M 697 -69 
Q 553 -69 451 34 
Q 350 138 350 281 
Q 350 425 451 529 
Q 553 634 697 634 
Q 844 634 947 529 
Q 1050 425 1050 281 
Q 1050 138 947 34 
Q 844 -69 697 -69 
z
" transform="scale(0.015625)"/>
      <path id="SegoeUI-20" transform="scale(0.015625)"/>
     </defs>
     <use xlink:href="#SegoeUI-50"/>
     <use xlink:href="#SegoeUI-65" x="52.255859"/>
     <use xlink:href="#SegoeUI-72" x="104.550781"/>
     <use xlink:href="#SegoeUI-69" x="139.316406"/>
     <use xlink:href="#SegoeUI-6f" x="163.535156"/>
     <use xlink:href="#SegoeUI-64" x="222.128906"/>
     <use xlink:href="#SegoeUI-6f" x="281.015625"/>
     <use xlink:href="#SegoeUI-3a" x="339.609375"/>
     <use xlink:href="#SegoeUI-20" x="361.289062"/>
     <use xlink:href="#SegoeUI-3c0" x="388.681641"/>
    </g>
   </g>
   <g id="text_12">
    <!-- Asíntotas: x = π/2 + nπ -->
    <g style="fill: #6b7280" transform="translate(351.153315 82.641654) scale(0.09 -0.09)">
     <defs>
      <path id="SegoeUI-41" d="M 4056 0 
L 3475 0 
L 3000 1256 
L 1100 1256 
L 653 0 
L 69 0 
L 1788 4481 
L 2331 4481 
L 4056 0 
z
M 2828 1728 
L 2125 3638 
Q 2091 3731 2056 3938 
L 2044 3938 
Q 2013 3747 1972 3638 
L 1275 1728 
L 2828 1728 
z
" transform="scale(0.015625)"/>
      <path id="SegoeUI-73" d="M 325 116 
L 325 666 
Q 744 356 1247 356 
Q 1922 356 1922 806 
Q 1922 934 1864 1023 
Q 1806 1113 1707 1181 
Q 1609 1250 1476 1304 
Q 1344 1359 1191 1419 
Q 978 1503 817 1589 
Q 656 1675 548 1783 
Q 441 1891 386 2028 
Q 331 2166 331 2350 
Q 331 2575 434 2748 
Q 538 2922 709 3039 
Q 881 3156 1101 3215 
Q 1322 3275 1556 3275 
Q 1972 3275 2300 3131 
L 2300 2613 
Q 1947 2844 1488 2844 
Q 1344 2844 1228 2811 
Q 1113 2778 1030 2718 
Q 947 2659 901 2576 
Q 856 2494 856 2394 
Q 856 2269 901 2184 
Q 947 2100 1034 2034 
Q 1122 1969 1247 1916 
Q 1372 1863 1531 1800 
Q 1744 1719 1912 1633 
Q 2081 1547 2200 1439 
Q 2319 1331 2383 1190 
Q 2447 1050 2447 856 
Q 2447 619 2342 444 
Q 2238 269 2063 153 
Q 1888 38 1659 -18 
Q 1431 -75 1181 -75 
Q 688 -75 325 116 
z
" transform="scale(0.015625)"/>
      <path id="SegoeUI-ed" d="M 1031 0 
L 519 0 
L 519 3200 
L 1031 3200 
L 1031 0 
z
M 1494 4831 
L 675 3806 
L 278 3806 
L 975 4831 
L 1494 4831 
z
" transform="scale(0.015625)"/>
      <path id="SegoeUI-6e" d="M 3175 0 
L 2663 0 
L 2663 1825 
Q 2663 2844 1919 2844 
Q 1534 2844 1282 2555 
Q 1031 2266 1031 1825 
L 1031 0 
L 519 0 
L 519 3200 
L 1031 3200 
L 1031 2669 
L 1044 2669 
Q 1406 3275 2094 3275 
Q 2619 3275 2897 2936 
Q 3175 2597 3175 1956 
L 3175 0 
z
" transform="scale(0.015625)"/>
      <path id="SegoeUI-74" d="M 2003 31 
Q 1822 -69 1525 -69 
Q 684 -69 684 869 
L 684 2763 
L 134 2763 
L 134 3200 
L 684 3200 
L 684 3981 
L 1197 4147 
L 1197 3200 
L 2003 3200 
L 2003 2763 
L 1197 2763 
L 1197 959 
Q 1197 638 1306 500 
Q 1416 363 1669 363 
Q 1863 363 2003 469 
L 2003 31 
z
" transform="scale(0.015625)"/>
      <path id="SegoeUI-61" d="M 2809 0 
L 2297 0 
L 2297 500 
L 2284 500 
Q 1950 -75 1300 -75 
Q 822 -75 551 178 
Q 281 431 281 850 
Q 281 1747 1338 1894 
L 2297 2028 
Q 2297 2844 1638 2844 
Q 1059 2844 594 2450 
L 594 2975 
Q 1066 3275 1681 3275 
Q 2809 3275 2809 2081 
L 2809 0 
z
M 2297 1619 
L 1525 1513 
Q 1169 1463 987 1336 
Q 806 1209 806 888 
Q 806 653 973 504 
Q 1141 356 1419 356 
Q 1800 356 2048 623 
Q 2297 891 2297 1300 
L 2297 1619 
z
" transform="scale(0.015625)"/>
      <path id="SegoeUI-78" d="M 2856 3200 
L 1781 1581 
L 2838 0 
L 2241 0 
L 1613 1038 
Q 1553 1134 1472 1281 
L 1459 1281 
Q 1444 1253 1313 1038 
L 672 0 
L 81 0 
L 1172 1569 
L 128 3200 
L 725 3200 
L 1344 2106 
Q 1413 1984 1478 1856 
L 1491 1856 
L 2291 3200 
L 2856 3200 
z
" transform="scale(0.015625)"/>
      <path id="SegoeUI-3d" d="M 3663 2325 
L 725 2325 
L 725 2738 
L 3663 2738 
L 3663 2325 
z
M 3663 994 
L 725 994 
L 725 1406 
L 3663 1406 
L 3663 994 
z
" transform="scale(0.015625)"/>
      <path id="SegoeUI-2f" d="M 2541 4481 
L 391 -744 
L -88 -744 
L 2056 4481 
L 2541 4481 
z
" transform="scale(0.015625)"/>
      <path id="SegoeUI-2b" d="M 3663 1656 
L 2400 1656 
L 2400 397 
L 1984 397 
L 1984 1656 
L 725 1656 
L 725 2075 
L 1984 2075 
L 1984 3334 
L 2400 3334 
L 2400 2075 
L 3663 2075 
L 3663 1656 
z
" transform="scale(0.015625)"/>
     </defs>
     <use xlink:href="#SegoeUI-41"/>
     <use xlink:href="#SegoeUI-73" x="64.501953"/>
     <use xlink:href="#SegoeUI-ed" x="106.933594"/>
     <use xlink:href="#SegoeUI-6e" x="131.152344"/>
     <use xlink:href="#SegoeUI-74" x="187.744141"/>
     <use xlink:href="#SegoeUI-6f" x="220.880859"/>
     <use xlink:href="#SegoeUI-74" x="279.474609"/>
     <use xlink:href="#SegoeUI-61" x="313.361328"/>
     <use xlink:href="#SegoeUI-73" x="364.240234"/>
     <use xlink:href="#SegoeUI-3a" x="406.671875"/>
     <use xlink:href="#SegoeUI-20" x="428.351562"/>
     <use xlink:href="#SegoeUI-78" x="455.744141"/>
     <use xlink:href="#SegoeUI-20" x="501.642578"/>
     <use xlink:href="#SegoeUI-3d" x="529.035156"/>
     <use xlink:href="#SegoeUI-20" x="597.443359"/>
     <use xlink:href="#SegoeUI-3c0" x="624.835938"/>
     <use xlink:href="#SegoeUI-2f" x="687.53125"/>
     <use xlink:href="#SegoeUI-32" x="726.496094"/>
     <use xlink:href="#SegoeUI-20" x="780.402344"/>
     <use xlink:href="#SegoeUI-2b" x="807.794922"/>
     <use xlink:href="#SegoeUI-20" x="876.203125"/>
     <use xlink:href="#SegoeUI-6e" x="903.595703"/>
     <use xlink:href="#SegoeUI-3c0" x="960.1875"/>
    </g>
   </g>
   <g id="text_13">
    <!-- $y = \tan(x) = \frac{\sin x}{\cos x}$ -->
    <g style="fill: #e12885" transform="translate(202.396794 37.597667) scale(0.11 -0.11)">
     <defs>
      <path id="DejaVuSans-Oblique-79" d="M 1588 -325 
Q 1188 -997 936 -1164 
Q 684 -1331 294 -1331 
L -159 -1331 
L -63 -850 
L 269 -850 
Q 509 -850 678 -719 
Q 847 -588 1056 -206 
L 1234 128 
L 459 3500 
L 1069 3500 
L 1650 819 
L 3256 3500 
L 3859 3500 
L 1588 -325 
z
" transform="scale(0.015625)"/>
      <path id="DejaVuSans-3d" d="M 678 2906 
L 4684 2906 
L 4684 2381 
L 678 2381 
L 678 2906 
z
M 678 1631 
L 4684 1631 
L 4684 1100 
L 678 1100 
L 678 1631 
z
" transform="scale(0.015625)"/>
      <path id="DejaVuSans-74" d="M 1172 4494 
L 1172 3500 
L 2356 3500 
L 2356 3053 
L 1172 3053 
L 1172 1153 
Q 1172 725 1289 603 
Q 1406 481 1766 481 
L 2356 481 
L 2356 0 
L 1766 0 
Q 1100 0 847 248 
Q 594 497 594 1153 
L 594 3053 
L 172 3053 
L 172 3500 
L 594 3500 
L 594 4494 
L 1172 4494 
z
" transform="scale(0.015625)"/>
      <path id="DejaVuSans-61" d="M 2194 1759 
Q 1497 1759 1228 1600 
Q 959 1441 959 1056 
Q 959 750 1161 570 
Q 1363 391 1709 391 
Q 2188 391 2477 730 
Q 2766 1069 2766 1631 
L 2766 1759 
L 2194 1759 
z
M 3341 1997 
L 3341 0 
L 2766 0 
L 2766 531 
Q 2569 213 2275 61 
Q 1981 -91 1556 -91 
Q 1019 -91 701 211 
Q 384 513 384 1019 
Q 384 1609 779 1909 
Q 1175 2209 1959 2209 
L 2766 2209 
L 2766 2266 
Q 2766 2663 2505 2880 
Q 2244 3097 1772 3097 
Q 1472 3097 1187 3025 
Q 903 2953 641 2809 
L 641 3341 
Q 956 3463 1253 3523 
Q 1550 3584 1831 3584 
Q 2591 3584 2966 3190 
Q 3341 2797 3341 1997 
z
" transform="scale(0.015625)"/>
      <path id="DejaVuSans-6e" d="M 3513 2113 
L 3513 0 
L 2938 0 
L 2938 2094 
Q 2938 2591 2744 2837 
Q 2550 3084 2163 3084 
Q 1697 3084 1428 2787 
Q 1159 2491 1159 1978 
L 1159 0 
L 581 0 
L 581 3500 
L 1159 3500 
L 1159 2956 
Q 1366 3272 1645 3428 
Q 1925 3584 2291 3584 
Q 2894 3584 3203 3211 
Q 3513 2838 3513 2113 
z
" transform="scale(0.015625)"/>
      <path id="DejaVuSans-28" d="M 1984 4856 
Q 1566 4138 1362 3434 
Q 1159 2731 1159 2009 
Q 1159 1288 1364 580 
Q 1569 -128 1984 -844 
L 1484 -844 
Q 1016 -109 783 600 
Q 550 1309 550 2009 
Q 550 2706 781 3412 
Q 1013 4119 1484 4856 
L 1984 4856 
z
" transform="scale(0.015625)"/>
      <path id="DejaVuSans-Oblique-78" d="M 3841 3500 
L 2234 1784 
L 3219 0 
L 2559 0 
L 1819 1388 
L 531 0 
L -166 0 
L 1556 1844 
L 641 3500 
L 1300 3500 
L 1972 2234 
L 3144 3500 
L 3841 3500 
z
" transform="scale(0.015625)"/>
      <path id="DejaVuSans-29" d="M 513 4856 
L 1013 4856 
Q 1481 4119 1714 3412 
Q 1947 2706 1947 2009 
Q 1947 1309 1714 600 
Q 1481 -109 1013 -844 
L 513 -844 
Q 928 -128 1133 580 
Q 1338 1288 1338 2009 
Q 1338 2731 1133 3434 
Q 928 4138 513 4856 
z
" transform="scale(0.015625)"/>
      <path id="DejaVuSans-73" d="M 2834 3397 
L 2834 2853 
Q 2591 2978 2328 3040 
Q 2066 3103 1784 3103 
Q 1356 3103 1142 2972 
Q 928 2841 928 2578 
Q 928 2378 1081 2264 
Q 1234 2150 1697 2047 
L 1894 2003 
Q 2506 1872 2764 1633 
Q 3022 1394 3022 966 
Q 3022 478 2636 193 
Q 2250 -91 1575 -91 
Q 1294 -91 989 -36 
Q 684 19 347 128 
L 347 722 
Q 666 556 975 473 
Q 1284 391 1588 391 
Q 1994 391 2212 530 
Q 2431 669 2431 922 
Q 2431 1156 2273 1281 
Q 2116 1406 1581 1522 
L 1381 1569 
Q 847 1681 609 1914 
Q 372 2147 372 2553 
Q 372 3047 722 3315 
Q 1072 3584 1716 3584 
Q 2034 3584 2315 3537 
Q 2597 3491 2834 3397 
z
" transform="scale(0.015625)"/>
      <path id="DejaVuSans-69" d="M 603 3500 
L 1178 3500 
L 1178 0 
L 603 0 
L 603 3500 
z
M 603 4863 
L 1178 4863 
L 1178 4134 
L 603 4134 
L 603 4863 
z
" transform="scale(0.015625)"/>
      <path id="DejaVuSans-63" d="M 3122 3366 
L 3122 2828 
Q 2878 2963 2633 3030 
Q 2388 3097 2138 3097 
Q 1578 3097 1268 2742 
Q 959 2388 959 1747 
Q 959 1106 1268 751 
Q 1578 397 2138 397 
Q 2388 397 2633 464 
Q 2878 531 3122 666 
L 3122 134 
Q 2881 22 2623 -34 
Q 2366 -91 2075 -91 
Q 1284 -91 818 406 
Q 353 903 353 1747 
Q 353 2603 823 3093 
Q 1294 3584 2113 3584 
Q 2378 3584 2631 3529 
Q 2884 3475 3122 3366 
z
" transform="scale(0.015625)"/>
      <path id="DejaVuSans-6f" d="M 1959 3097 
Q 1497 3097 1228 2736 
Q 959 2375 959 1747 
Q 959 1119 1226 758 
Q 1494 397 1959 397 
Q 2419 397 2687 759 
Q 2956 1122 2956 1747 
Q 2956 2369 2687 2733 
Q 2419 3097 1959 3097 
z
M 1959 3584 
Q 2709 3584 3137 3096 
Q 3566 2609 3566 1747 
Q 3566 888 3137 398 
Q 2709 -91 1959 -91 
Q 1206 -91 779 398 
Q 353 888 353 1747 
Q 353 2609 779 3096 
Q 1206 3584 1959 3584 
z
" transform="scale(0.015625)"/>
     </defs>
     <use xlink:href="#DejaVuSans-Oblique-79" transform="translate(0 0.01875)"/>
     <use xlink:href="#DejaVuSans-3d" transform="translate(78.662109 0.01875)"/>
     <use xlink:href="#DejaVuSans-74" transform="translate(181.933594 0.01875)"/>
     <use xlink:href="#DejaVuSans-61" transform="translate(221.142578 0.01875)"/>
     <use xlink:href="#DejaVuSans-6e" transform="translate(282.421875 0.01875)"/>
     <use xlink:href="#DejaVuSans-28" transform="translate(345.800781 0.01875)"/>
     <use xlink:href="#DejaVuSans-Oblique-78" transform="translate(384.814453 0.01875)"/>
     <use xlink:href="#DejaVuSans-29" transform="translate(443.994141 0.01875)"/>
     <use xlink:href="#DejaVuSans-3d" transform="translate(502.490234 0.01875)"/>
     <use xlink:href="#DejaVuSans-73" transform="translate(614.761719 44.810938) scale(0.7)"/>
     <use xlink:href="#DejaVuSans-69" transform="translate(651.231445 44.810938) scale(0.7)"/>
     <use xlink:href="#DejaVuSans-6e" transform="translate(670.679688 44.810938) scale(0.7)"/>
     <use xlink:href="#DejaVuSans-Oblique-78" transform="translate(726.409895 44.810938) scale(0.7)"/>
     <use xlink:href="#DejaVuSans-63" transform="translate(605.761719 -26.634375) scale(0.7)"/>
     <use xlink:href="#DejaVuSans-6f" transform="translate(644.248047 -26.634375) scale(0.7)"/>
     <use xlink:href="#DejaVuSans-73" transform="translate(687.075195 -26.634375) scale(0.7)"/>
     <use xlink:href="#DejaVuSans-Oblique-78" transform="translate(734.909895 -26.634375) scale(0.7)"/>
     <path d="M 605.761719 18.815625 
L 605.761719 25.065625 
L 776.335677 25.065625 
L 776.335677 18.815625 
L 605.761719 18.815625 
z
"/>
    </g>
   </g>
  </g>
  <g id="axes_2">
   <g id="patch_5">
    <path d="M 565.23101 313.440781 
L 1003.952098 313.440781 
L 1003.952098 43.597667 
L 565.23101 43.597667 
z
" style="fill: #ffffff"/>
   </g>
   <g id="matplotlib.axis_3">
    <g id="xtick_6">
     <g id="line2d_23">
      <g>
       <use xlink:href="#m4bba5a373e" x="565.23101" y="313.440781" style="fill: #2c2f33; stroke: #2c2f33; stroke-width: 0.8"/>
      </g>
     </g>
     <g id="text_14">
      <!-- -2π -->
      <g style="fill: #2c2f33" transform="translate(558.184291 327.103594) scale(0.09 -0.09)">
       <use xlink:href="#SegoeUI-2d"/>
       <use xlink:href="#SegoeUI-32" x="39.990234"/>
       <use xlink:href="#SegoeUI-3c0" x="93.896484"/>
      </g>
     </g>
    </g>
    <g id="xtick_7">
     <g id="line2d_24">
      <g>
       <use xlink:href="#m4bba5a373e" x="674.911282" y="313.440781" style="fill: #2c2f33; stroke: #2c2f33; stroke-width: 0.8"/>
      </g>
     </g>
     <g id="text_15">
      <!-- -π -->
      <g style="fill: #2c2f33" transform="translate(670.369095 327.103594) scale(0.09 -0.09)">
       <use xlink:href="#SegoeUI-2d"/>
       <use xlink:href="#SegoeUI-3c0" x="38.240234"/>
      </g>
     </g>
    </g>
    <g id="xtick_8">
     <g id="line2d_25">
      <g>
       <use xlink:href="#m4bba5a373e" x="784.591554" y="313.440781" style="fill: #2c2f33; stroke: #2c2f33; stroke-width: 0.8"/>
      </g>
     </g>
     <g id="text_16">
      <!-- 0 -->
      <g style="fill: #2c2f33" transform="translate(782.165773 327.103594) scale(0.09 -0.09)">
       <use xlink:href="#SegoeUI-30"/>
      </g>
     </g>
    </g>
    <g id="xtick_9">
     <g id="line2d_26">
      <g>
       <use xlink:href="#m4bba5a373e" x="894.271826" y="313.440781" style="fill: #2c2f33; stroke: #2c2f33; stroke-width: 0.8"/>
      </g>
     </g>
     <g id="text_17">
      <!-- π -->
      <g style="fill: #2c2f33" transform="translate(891.450185 327.103594) scale(0.09 -0.09)">
       <use xlink:href="#SegoeUI-3c0"/>
      </g>
     </g>
    </g>
    <g id="xtick_10">
     <g id="line2d_27">
      <g>
       <use xlink:href="#m4bba5a373e" x="1003.952098" y="313.440781" style="fill: #2c2f33; stroke: #2c2f33; stroke-width: 0.8"/>
      </g>
     </g>
     <g id="text_18">
      <!-- 2π -->
      <g style="fill: #2c2f33" transform="translate(998.704676 327.103594) scale(0.09 -0.09)">
       <use xlink:href="#SegoeUI-32"/>
       <use xlink:href="#SegoeUI-3c0" x="53.90625"/>
      </g>
     </g>
    </g>
   </g>
   <g id="matplotlib.axis_4">
    <g id="ytick_6">
     <g id="line2d_28">
      <g>
       <use xlink:href="#m37e6d16def" x="565.23101" y="286.45647" style="fill: #2c2f33; stroke: #2c2f33; stroke-width: 0.8"/>
      </g>
     </g>
     <g id="text_19">
      <!-- −4 -->
      <g style="fill: #2c2f33" transform="translate(545.99976 290.158032) scale(0.1 -0.1)">
       <use xlink:href="#SegoeUI-2212"/>
       <use xlink:href="#SegoeUI-34" x="68.408203"/>
      </g>
     </g>
    </g>
    <g id="ytick_7">
     <g id="line2d_29">
      <g>
       <use xlink:href="#m37e6d16def" x="565.23101" y="232.487847" style="fill: #2c2f33; stroke: #2c2f33; stroke-width: 0.8"/>
      </g>
     </g>
     <g id="text_20">
      <!-- −2 -->
      <g style="fill: #2c2f33" transform="translate(545.99976 236.18941) scale(0.1 -0.1)">
       <use xlink:href="#SegoeUI-2212"/>
       <use xlink:href="#SegoeUI-32" x="68.408203"/>
      </g>
     </g>
    </g>
    <g id="ytick_8">
     <g id="line2d_30">
      <g>
       <use xlink:href="#m37e6d16def" x="565.23101" y="178.519224" style="fill: #2c2f33; stroke: #2c2f33; stroke-width: 0.8"/>
      </g>
     </g>
     <g id="text_21">
      <!-- 0 -->
      <g style="fill: #2c2f33" transform="translate(552.840385 182.220787) scale(0.1 -0.1)">
       <use xlink:href="#SegoeUI-30"/>
      </g>
     </g>
    </g>
    <g id="ytick_9">
     <g id="line2d_31">
      <g>
       <use xlink:href="#m37e6d16def" x="565.23101" y="124.550602" style="fill: #2c2f33; stroke: #2c2f33; stroke-width: 0.8"/>
      </g>
     </g>
     <g id="text_22">
      <!-- 2 -->
      <g style="fill: #2c2f33" transform="translate(552.840385 128.252164) scale(0.1 -0.1)">
       <use xlink:href="#SegoeUI-32"/>
      </g>
     </g>
    </g>
    <g id="ytick_10">
     <g id="line2d_32">
      <g>
       <use xlink:href="#m37e6d16def" x="565.23101" y="70.581979" style="fill: #2c2f33; stroke: #2c2f33; stroke-width: 0.8"/>
      </g>
     </g>
     <g id="text_23">
      <!-- 4 -->
      <g style="fill: #2c2f33" transform="translate(552.840385 74.283541) scale(0.1 -0.1)">
       <use xlink:href="#SegoeUI-34"/>
      </g>
     </g>
    </g>
   </g>
   <g id="line2d_33">
    <path d="M 570.446142 -1 
L 571.056617 18.308476 
L 572.151914 44.185363 
L 573.24721 63.069196 
L 574.342507 77.482261 
L 575.437804 88.864223 
L 576.533101 98.096719 
L 577.628397 105.749861 
L 578.723694 112.208683 
L 580.366639 120.225648 
L 582.009584 126.762016 
L 583.652529 132.21537 
L 585.295474 136.853242 
L 586.93842 140.862333 
L 588.581365 144.376964 
L 590.771958 148.461727 
L 592.962552 152.012154 
L 595.153145 155.149813 
L 597.891387 158.624709 
L 600.629629 161.718964 
L 603.915519 165.057377 
L 607.749058 168.579061 
L 612.130245 172.273489 
L 618.154377 177.036231 
L 628.559696 185.212585 
L 632.940883 188.942946 
L 636.774421 192.513919 
L 640.060312 195.912689 
L 642.798553 199.074805 
L 644.989147 201.888635 
L 647.17974 205.026294 
L 649.370334 208.576721 
L 651.560927 212.661485 
L 653.203872 216.176116 
L 654.846818 220.185207 
L 656.489763 224.823078 
L 658.132708 230.276433 
L 659.775653 236.8128 
L 660.87095 241.960742 
L 661.966246 247.928863 
L 663.061543 254.94514 
L 664.15684 263.330369 
L 665.252137 273.550792 
L 666.347433 286.311114 
L 667.44273 302.729357 
L 668.538027 324.692027 
L 669.085675 338.729972 
L 669.633324 355.651503 
L 670.180972 376.458218 
L 670.72862 402.676283 
L 671.276269 436.751575 
L 671.823917 482.865399 
L 672.371565 548.805565 
L 672.919214 650.923798 
L 673.158711 729.39952 
L 673.158711 729.39952 
" clip-path="url(#p3d1f500a2c)" style="fill: none; stroke: #4b5563; stroke-width: 2; stroke-linecap: square"/>
   </g>
   <g id="line2d_34">
    <path d="M 680.126414 -1 
L 680.736889 18.308476 
L 681.832186 44.185363 
L 682.927482 63.069196 
L 684.022779 77.482261 
L 685.118076 88.864223 
L 686.213373 98.096719 
L 687.308669 105.749861 
L 688.403966 112.208683 
L 690.046911 120.225648 
L 691.689856 126.762016 
L 693.332801 132.21537 
L 694.975747 136.853242 
L 696.618692 140.862333 
L 698.261637 144.376964 
L 700.45223 148.461727 
L 702.642824 152.012154 
L 704.833417 155.149813 
L 707.571659 158.624709 
L 710.309901 161.718964 
L 713.595791 165.057377 
L 717.42933 168.579061 
L 721.810517 172.273489 
L 727.834649 177.036231 
L 738.239968 185.212585 
L 742.621155 188.942946 
L 746.454693 192.513919 
L 749.740584 195.912689 
L 752.478825 199.074805 
L 754.669419 201.888635 
L 756.860012 205.026294 
L 759.050606 208.576721 
L 761.241199 212.661485 
L 762.884144 216.176116 
L 764.52709 220.185207 
L 766.170035 224.823078 
L 767.81298 230.276433 
L 769.455925 236.8128 
L 770.551222 241.960742 
L 771.646518 247.928863 
L 772.741815 254.94514 
L 773.837112 263.330369 
L 774.932409 273.550792 
L 776.027705 286.311114 
L 777.123002 302.729357 
L 778.218299 324.692027 
L 778.765947 338.729972 
L 779.313596 355.651503 
L 779.861244 376.458218 
L 780.408892 402.676283 
L 780.956541 436.751575 
L 781.504189 482.865399 
L 782.051837 548.805565 
L 782.599486 650.923798 
L 782.838983 729.39952 
L 782.838983 729.39952 
" clip-path="url(#p3d1f500a2c)" style="fill: none; stroke: #4b5563; stroke-width: 2; stroke-linecap: square"/>
   </g>
   <g id="line2d_35">
    <path d="M 789.806686 -1 
L 790.417161 18.308476 
L 791.512458 44.185363 
L 792.607754 63.069196 
L 793.703051 77.482261 
L 794.798348 88.864223 
L 795.893645 98.096719 
L 796.988941 105.749861 
L 798.084238 112.208683 
L 799.727183 120.225648 
L 801.370128 126.762016 
L 803.013073 132.21537 
L 804.656019 136.853242 
L 806.298964 140.862333 
L 807.941909 144.376964 
L 810.132502 148.461727 
L 812.323096 152.012154 
L 814.513689 155.149813 
L 817.251931 158.624709 
L 819.990173 161.718964 
L 823.276063 165.057377 
L 827.109602 168.579061 
L 831.490789 172.273489 
L 837.514921 177.036231 
L 847.92024 185.212585 
L 852.301427 188.942946 
L 856.134965 192.513919 
L 859.420856 195.912689 
L 862.159097 199.074805 
L 864.349691 201.888635 
L 866.540284 205.026294 
L 868.730878 208.576721 
L 870.921471 212.661485 
L 872.564416 216.176116 
L 874.207362 220.185207 
L 875.850307 224.823078 
L 877.493252 230.276433 
L 879.136197 236.8128 
L 880.231494 241.960742 
L 881.32679 247.928863 
L 882.422087 254.94514 
L 883.517384 263.330369 
L 884.612681 273.550792 
L 885.707977 286.311114 
L 886.803274 302.729357 
L 887.898571 324.692027 
L 888.446219 338.729972 
L 888.993868 355.651503 
L 889.541516 376.458218 
L 890.089164 402.676283 
L 890.636813 436.751575 
L 891.184461 482.865399 
L 891.732109 548.805565 
L 892.279758 650.923798 
L 892.519255 729.39952 
L 892.519255 729.39952 
" clip-path="url(#p3d1f500a2c)" style="fill: none; stroke: #4b5563; stroke-width: 2; stroke-linecap: square"/>
   </g>
   <g id="line2d_36">
    <path d="M 899.486958 -1 
L 900.097433 18.308476 
L 901.19273 44.185363 
L 902.288026 63.069196 
L 903.383323 77.482261 
L 904.47862 88.864223 
L 905.573917 98.096719 
L 906.669213 105.749861 
L 907.76451 112.208683 
L 909.407455 120.225648 
L 911.0504 126.762016 
L 912.693345 132.21537 
L 914.336291 136.853242 
L 915.979236 140.862333 
L 917.622181 144.376964 
L 919.812774 148.461727 
L 922.003368 152.012154 
L 924.193961 155.149813 
L 926.932203 158.624709 
L 929.670445 161.718964 
L 932.956335 165.057377 
L 936.789874 168.579061 
L 941.171061 172.273489 
L 947.195193 177.036231 
L 957.600512 185.212585 
L 961.981699 188.942946 
L 965.815237 192.513919 
L 969.101128 195.912689 
L 971.839369 199.074805 
L 974.029963 201.888635 
L 976.220556 205.026294 
L 978.41115 208.576721 
L 980.601743 212.661485 
L 982.244689 216.176116 
L 983.887634 220.185207 
L 985.530579 224.823078 
L 987.173524 230.276433 
L 988.816469 236.8128 
L 989.911766 241.960742 
L 991.007062 247.928863 
L 992.102359 254.94514 
L 993.197656 263.330369 
L 994.292953 273.550792 
L 995.388249 286.311114 
L 996.483546 302.729357 
L 997.578843 324.692027 
L 998.126491 338.729972 
L 998.67414 355.651503 
L 999.221788 376.458218 
L 999.769436 402.676283 
L 1000.317085 436.751575 
L 1000.864733 482.865399 
L 1001.412381 548.805565 
L 1001.96003 650.923798 
L 1002.199528 729.39952 
L 1002.199528 729.39952 
" clip-path="url(#p3d1f500a2c)" style="fill: none; stroke: #4b5563; stroke-width: 2; stroke-linecap: square"/>
   </g>
   <g id="line2d_37">
    <path d="M 1009.16723 -1 
L 1009.777705 18.308476 
L 1010.873002 44.185363 
L 1011.968298 63.069196 
L 1013.063595 77.482261 
L 1014.158892 88.864223 
L 1015.254189 98.096719 
L 1016.349485 105.749861 
L 1017.39952 111.952549 
L 1017.39952 111.952549 
" clip-path="url(#p3d1f500a2c)" style="fill: none; stroke: #4b5563; stroke-width: 2; stroke-linecap: square"/>
   </g>
   <g id="line2d_38">
    <path d="M 565.23101 313.440781 
L 565.23101 43.597667 
" clip-path="url(#p3d1f500a2c)" style="fill: none; stroke-dasharray: 3.7,1.6; stroke-dashoffset: 0; stroke: #d1d5db"/>
   </g>
   <g id="line2d_39">
    <path d="M 674.911282 313.440781 
L 674.911282 43.597667 
" clip-path="url(#p3d1f500a2c)" style="fill: none; stroke-dasharray: 3.7,1.6; stroke-dashoffset: 0; stroke: #d1d5db"/>
   </g>
   <g id="line2d_40">
    <path d="M 784.591554 313.440781 
L 784.591554 43.597667 
" clip-path="url(#p3d1f500a2c)" style="fill: none; stroke-dasharray: 3.7,1.6; stroke-dashoffset: 0; stroke: #d1d5db"/>
   </g>
   <g id="line2d_41">
    <path d="M 894.271826 313.440781 
L 894.271826 43.597667 
" clip-path="url(#p3d1f500a2c)" style="fill: none; stroke-dasharray: 3.7,1.6; stroke-dashoffset: 0; stroke: #d1d5db"/>
   </g>
   <g id="line2d_42">
    <path d="M 1003.952098 313.440781 
L 1003.952098 43.597667 
" clip-path="url(#p3d1f500a2c)" style="fill: none; stroke-dasharray: 3.7,1.6; stroke-dashoffset: 0; stroke: #d1d5db"/>
   </g>
   <g id="line2d_43">
    <path d="M 565.23101 178.519224 
L 1003.952098 178.519224 
" clip-path="url(#p3d1f500a2c)" style="fill: none; stroke: #9ca3af; stroke-linecap: square"/>
   </g>
   <g id="line2d_44">
    <path d="M 784.591554 313.440781 
L 784.591554 43.597667 
" clip-path="url(#p3d1f500a2c)" style="fill: none; stroke-dasharray: 3.7,1.6; stroke-dashoffset: 0; stroke: #d1d5db"/>
   </g>
   <g id="patch_6">
    <path d="M 565.23101 313.440781 
L 565.23101 43.597667 
" style="fill: none; stroke: #4b5563; stroke-width: 0.8; stroke-linejoin: miter; stroke-linecap: square"/>
   </g>
   <g id="patch_7">
    <path d="M 565.23101 313.440781 
L 1003.952098 313.440781 
" style="fill: none; stroke: #4b5563; stroke-width: 0.8; stroke-linejoin: miter; stroke-linecap: square"/>
   </g>
   <g id="text_24">
    <!-- Periodo: π -->
    <g style="fill: #6b7280" transform="translate(941.390887 63.752636) scale(0.09 -0.09)">
     <use xlink:href="#SegoeUI-50"/>
     <use xlink:href="#SegoeUI-65" x="52.255859"/>
     <use xlink:href="#SegoeUI-72" x="104.550781"/>
     <use xlink:href="#SegoeUI-69" x="139.316406"/>
     <use xlink:href="#SegoeUI-6f" x="163.535156"/>
     <use xlink:href="#SegoeUI-64" x="222.128906"/>
     <use xlink:href="#SegoeUI-6f" x="281.015625"/>
     <use xlink:href="#SegoeUI-3a" x="339.609375"/>
     <use xlink:href="#SegoeUI-20" x="361.289062"/>
     <use xlink:href="#SegoeUI-3c0" x="388.681641"/>
    </g>
   </g>
   <g id="text_25">
    <!-- Asíntotas: x = nπ -->
    <g style="fill: #6b7280" transform="translate(915.041981 82.641654) scale(0.09 -0.09)">
     <use xlink:href="#SegoeUI-41"/>
     <use xlink:href="#SegoeUI-73" x="64.501953"/>
     <use xlink:href="#SegoeUI-ed" x="106.933594"/>
     <use xlink:href="#SegoeUI-6e" x="131.152344"/>
     <use xlink:href="#SegoeUI-74" x="187.744141"/>
     <use xlink:href="#SegoeUI-6f" x="220.880859"/>
     <use xlink:href="#SegoeUI-74" x="279.474609"/>
     <use xlink:href="#SegoeUI-61" x="313.361328"/>
     <use xlink:href="#SegoeUI-73" x="364.240234"/>
     <use xlink:href="#SegoeUI-3a" x="406.671875"/>
     <use xlink:href="#SegoeUI-20" x="428.351562"/>
     <use xlink:href="#SegoeUI-78" x="455.744141"/>
     <use xlink:href="#SegoeUI-20" x="501.642578"/>
     <use xlink:href="#SegoeUI-3d" x="529.035156"/>
     <use xlink:href="#SegoeUI-20" x="597.443359"/>
     <use xlink:href="#SegoeUI-6e" x="624.835938"/>
     <use xlink:href="#SegoeUI-3c0" x="681.427734"/>
    </g>
   </g>
   <g id="text_26">
    <!-- $y = \cot(x) = \frac{\cos x}{\sin x}$ -->
    <g style="fill: #4b5563" transform="translate(741.636554 37.597667) scale(0.11 -0.11)">
     <use xlink:href="#DejaVuSans-Oblique-79" transform="translate(0 0.007812)"/>
     <use xlink:href="#DejaVuSans-3d" transform="translate(78.662109 0.007812)"/>
     <use xlink:href="#DejaVuSans-63" transform="translate(181.933594 0.007812)"/>
     <use xlink:href="#DejaVuSans-6f" transform="translate(236.914062 0.007812)"/>
     <use xlink:href="#DejaVuSans-74" transform="translate(298.095703 0.007812)"/>
     <use xlink:href="#DejaVuSans-28" transform="translate(337.304688 0.007812)"/>
     <use xlink:href="#DejaVuSans-Oblique-78" transform="translate(376.318359 0.007812)"/>
     <use xlink:href="#DejaVuSans-29" transform="translate(435.498047 0.007812)"/>
     <use xlink:href="#DejaVuSans-3d" transform="translate(493.994141 0.007812)"/>
     <use xlink:href="#DejaVuSans-63" transform="translate(597.265625 44.8) scale(0.7)"/>
     <use xlink:href="#DejaVuSans-6f" transform="translate(635.751953 44.8) scale(0.7)"/>
     <use xlink:href="#DejaVuSans-73" transform="translate(678.579102 44.8) scale(0.7)"/>
     <use xlink:href="#DejaVuSans-Oblique-78" transform="translate(726.413802 44.8) scale(0.7)"/>
     <use xlink:href="#DejaVuSans-73" transform="translate(606.265625 -40.634375) scale(0.7)"/>
     <use xlink:href="#DejaVuSans-69" transform="translate(642.735352 -40.634375) scale(0.7)"/>
     <use xlink:href="#DejaVuSans-6e" transform="translate(662.183594 -40.634375) scale(0.7)"/>
     <use xlink:href="#DejaVuSans-Oblique-78" transform="translate(717.913802 -40.634375) scale(0.7)"/>
     <path d="M 597.265625 18.804688 
L 597.265625 25.054688 
L 767.839583 25.054688 
L 767.839583 18.804688 
L 597.265625 18.804688 
z
"/>
    </g>
   </g>
  </g>
  <g id="axes_3">
   <g id="patch_8">
    <path d="M 26.43125 705.466707 
L 465.152338 705.466707 
L 465.152338 435.623594 
L 26.43125 435.623594 
z
" style="fill: #ffffff"/>
   </g>
   <g id="matplotlib.axis_5">
    <g id="xtick_11">
     <g id="line2d_45">
      <g>
       <use xlink:href="#m4bba5a373e" x="26.43125" y="705.466707" style="fill: #2c2f33; stroke: #2c2f33; stroke-width: 0.8"/>
      </g>
     </g>
     <g id="text_27">
      <!-- -2π -->
      <g style="fill: #2c2f33" transform="translate(19.384531 719.12952) scale(0.09 -0.09)">
       <use xlink:href="#SegoeUI-2d"/>
       <use xlink:href="#SegoeUI-32" x="39.990234"/>
       <use xlink:href="#SegoeUI-3c0" x="93.896484"/>
      </g>
     </g>
    </g>
    <g id="xtick_12">
     <g id="line2d_46">
      <g>
       <use xlink:href="#m4bba5a373e" x="136.111522" y="705.466707" style="fill: #2c2f33; stroke: #2c2f33; stroke-width: 0.8"/>
      </g>
     </g>
     <g id="text_28">
      <!-- -π -->
      <g style="fill: #2c2f33" transform="translate(131.569335 719.12952) scale(0.09 -0.09)">
       <use xlink:href="#SegoeUI-2d"/>
       <use xlink:href="#SegoeUI-3c0" x="38.240234"/>
      </g>
     </g>
    </g>
    <g id="xtick_13">
     <g id="line2d_47">
      <g>
       <use xlink:href="#m4bba5a373e" x="245.791794" y="705.466707" style="fill: #2c2f33; stroke: #2c2f33; stroke-width: 0.8"/>
      </g>
     </g>
     <g id="text_29">
      <!-- 0 -->
      <g style="fill: #2c2f33" transform="translate(243.366013 719.12952) scale(0.09 -0.09)">
       <use xlink:href="#SegoeUI-30"/>
      </g>
     </g>
    </g>
    <g id="xtick_14">
     <g id="line2d_48">
      <g>
       <use xlink:href="#m4bba5a373e" x="355.472066" y="705.466707" style="fill: #2c2f33; stroke: #2c2f33; stroke-width: 0.8"/>
      </g>
     </g>
     <g id="text_30">
      <!-- π -->
      <g style="fill: #2c2f33" transform="translate(352.650425 719.12952) scale(0.09 -0.09)">
       <use xlink:href="#SegoeUI-3c0"/>
      </g>
     </g>
    </g>
    <g id="xtick_15">
     <g id="line2d_49">
      <g>
       <use xlink:href="#m4bba5a373e" x="465.152338" y="705.466707" style="fill: #2c2f33; stroke: #2c2f33; stroke-width: 0.8"/>
      </g>
     </g>
     <g id="text_31">
      <!-- 2π -->
      <g style="fill: #2c2f33" transform="translate(459.904916 719.12952) scale(0.09 -0.09)">
       <use xlink:href="#SegoeUI-32"/>
       <use xlink:href="#SegoeUI-3c0" x="53.90625"/>
      </g>
     </g>
    </g>
   </g>
   <g id="matplotlib.axis_6">
    <g id="ytick_11">
     <g id="line2d_50">
      <g>
       <use xlink:href="#m37e6d16def" x="26.43125" y="678.482396" style="fill: #2c2f33; stroke: #2c2f33; stroke-width: 0.8"/>
      </g>
     </g>
     <g id="text_32">
      <!-- −4 -->
      <g style="fill: #2c2f33" transform="translate(7.2 682.183959) scale(0.1 -0.1)">
       <use xlink:href="#SegoeUI-2212"/>
       <use xlink:href="#SegoeUI-34" x="68.408203"/>
      </g>
     </g>
    </g>
    <g id="ytick_12">
     <g id="line2d_51">
      <g>
       <use xlink:href="#m37e6d16def" x="26.43125" y="624.513773" style="fill: #2c2f33; stroke: #2c2f33; stroke-width: 0.8"/>
      </g>
     </g>
     <g id="text_33">
      <!-- −2 -->
      <g style="fill: #2c2f33" transform="translate(7.2 628.215336) scale(0.1 -0.1)">
       <use xlink:href="#SegoeUI-2212"/>
       <use xlink:href="#SegoeUI-32" x="68.408203"/>
      </g>
     </g>
    </g>
    <g id="ytick_13">
     <g id="line2d_52">
      <g>
       <use xlink:href="#m37e6d16def" x="26.43125" y="570.545151" style="fill: #2c2f33; stroke: #2c2f33; stroke-width: 0.8"/>
      </g>
     </g>
     <g id="text_34">
      <!-- 0 -->
      <g style="fill: #2c2f33" transform="translate(14.040625 574.246713) scale(0.1 -0.1)">
       <use xlink:href="#SegoeUI-30"/>
      </g>
     </g>
    </g>
    <g id="ytick_14">
     <g id="line2d_53">
      <g>
       <use xlink:href="#m37e6d16def" x="26.43125" y="516.576528" style="fill: #2c2f33; stroke: #2c2f33; stroke-width: 0.8"/>
      </g>
     </g>
     <g id="text_35">
      <!-- 2 -->
      <g style="fill: #2c2f33" transform="translate(14.040625 520.27809) scale(0.1 -0.1)">
       <use xlink:href="#SegoeUI-32"/>
      </g>
     </g>
    </g>
    <g id="ytick_15">
     <g id="line2d_54">
      <g>
       <use xlink:href="#m37e6d16def" x="26.43125" y="462.607905" style="fill: #2c2f33; stroke: #2c2f33; stroke-width: 0.8"/>
      </g>
     </g>
     <g id="text_36">
      <!-- 4 -->
      <g style="fill: #2c2f33" transform="translate(14.040625 466.309468) scale(0.1 -0.1)">
       <use xlink:href="#SegoeUI-34"/>
      </g>
     </g>
    </g>
   </g>
   <g id="line2d_55">
    <path d="M -1 532.367941 
L 0.965601 534.351941 
L 3.156194 536.208902 
L 5.346788 537.761884 
L 7.537381 539.061919 
L 10.275623 540.389315 
L 13.013865 541.437583 
L 15.752107 542.247278 
L 18.490349 542.847456 
L 21.776239 543.319185 
L 25.062129 543.540076 
L 28.348019 543.520119 
L 31.63391 543.258419 
L 34.9198 542.743098 
L 37.658042 542.10289 
L 40.396283 541.248126 
L 43.134525 540.147708 
L 45.325119 539.061919 
L 47.515712 537.761884 
L 49.706306 536.208902 
L 51.896899 534.351941 
L 54.087493 532.122775 
L 55.730438 530.152005 
L 57.373383 527.868534 
L 59.016328 525.205012 
L 60.659273 522.072419 
L 62.302218 518.350688 
L 63.945163 513.874004 
L 65.04046 510.357762 
L 66.135757 506.308914 
L 67.231054 501.603297 
L 68.32635 496.07468 
L 69.421647 489.495329 
L 70.516944 481.544683 
L 71.612241 471.756731 
L 72.707537 459.426995 
L 73.802834 443.437676 
L 74.898131 421.902488 
L 75.445779 408.07781 
L 75.993428 391.369268 
L 76.541076 370.775287 
L 77.088724 344.769731 
L 77.636373 310.906748 
L 78.184021 265.00506 
L 78.731669 199.276882 
L 79.279318 97.370517 
L 79.579886 -1 
L 79.579886 -1 
" clip-path="url(#pe8d28849ff)" style="fill: none; stroke: #f59e0b; stroke-width: 2; stroke-linecap: square"/>
   </g>
   <g id="line2d_56">
    <path d="M 87.240116 729.39952 
L 88.19229 707.562446 
L 89.287586 689.106789 
L 90.382883 675.123452 
L 91.47818 664.17299 
L 92.573477 655.373993 
L 93.668773 648.156576 
L 94.76407 642.135938 
L 95.859367 637.042881 
L 96.954664 632.683441 
L 98.597609 627.216297 
L 100.240554 622.739613 
L 101.883499 619.017882 
L 103.526444 615.885289 
L 105.169389 613.221768 
L 106.812334 610.938296 
L 108.455279 608.967526 
L 110.645873 606.738361 
L 112.836466 604.881399 
L 115.02706 603.328417 
L 117.217653 602.028382 
L 119.955895 600.700986 
L 122.694137 599.652718 
L 125.432379 598.843024 
L 128.170621 598.242845 
L 131.456511 597.771116 
L 134.742401 597.550225 
L 138.028291 597.570182 
L 141.314182 597.831882 
L 144.600072 598.347203 
L 147.338314 598.987411 
L 150.076555 599.842175 
L 152.814797 600.942593 
L 155.005391 602.028382 
L 157.195984 603.328417 
L 159.386578 604.881399 
L 161.577171 606.738361 
L 163.767765 608.967526 
L 165.41071 610.938296 
L 167.053655 613.221768 
L 168.6966 615.885289 
L 170.339545 619.017882 
L 171.98249 622.739613 
L 173.625435 627.216297 
L 174.720732 630.732539 
L 175.816029 634.781387 
L 176.911326 639.487004 
L 178.006622 645.015621 
L 179.101919 651.594972 
L 180.197216 659.545618 
L 181.292513 669.333571 
L 182.387809 681.663306 
L 183.483106 697.652625 
L 184.578403 719.187814 
L 184.982928 729.39952 
L 184.982928 729.39952 
" clip-path="url(#pe8d28849ff)" style="fill: none; stroke: #f59e0b; stroke-width: 2; stroke-linecap: square"/>
   </g>
   <g id="line2d_57">
    <path d="M 192.643158 -1 
L 192.943726 97.370517 
L 193.491375 199.276882 
L 194.039023 265.00506 
L 194.586671 310.906748 
L 195.13432 344.769731 
L 195.681968 370.775287 
L 196.777265 408.07781 
L 197.872562 433.527855 
L 198.967858 451.983512 
L 200.063155 465.96685 
L 201.158452 476.917311 
L 202.253749 485.716308 
L 203.349045 492.933725 
L 204.444342 498.954363 
L 205.539639 504.04742 
L 206.634936 508.40686 
L 208.277881 513.874004 
L 209.920826 518.350688 
L 211.563771 522.072419 
L 213.206716 525.205012 
L 214.849661 527.868534 
L 216.492606 530.152005 
L 218.135551 532.122775 
L 220.326145 534.351941 
L 222.516738 536.208902 
L 224.707332 537.761884 
L 226.897925 539.061919 
L 229.636167 540.389315 
L 232.374409 541.437583 
L 235.112651 542.247278 
L 237.850893 542.847456 
L 241.136783 543.319185 
L 244.422673 543.540076 
L 247.708563 543.520119 
L 250.994454 543.258419 
L 254.280344 542.743098 
L 257.018586 542.10289 
L 259.756828 541.248126 
L 262.495069 540.147708 
L 264.685663 539.061919 
L 266.876256 537.761884 
L 269.06685 536.208902 
L 271.257443 534.351941 
L 273.448037 532.122775 
L 275.090982 530.152005 
L 276.733927 527.868534 
L 278.376872 525.205012 
L 280.019817 522.072419 
L 281.662762 518.350688 
L 283.305707 513.874004 
L 284.401004 510.357762 
L 285.496301 506.308914 
L 286.591598 501.603297 
L 287.686894 496.07468 
L 288.782191 489.495329 
L 289.877488 481.544683 
L 290.972785 471.756731 
L 292.068081 459.426995 
L 293.163378 443.437676 
L 294.258675 421.902488 
L 294.806323 408.07781 
L 295.353972 391.369268 
L 295.90162 370.775287 
L 296.449268 344.769731 
L 296.996917 310.906748 
L 297.544565 265.00506 
L 298.092213 199.276882 
L 298.639862 97.370517 
L 298.94043 -1 
L 298.94043 -1 
" clip-path="url(#pe8d28849ff)" style="fill: none; stroke: #f59e0b; stroke-width: 2; stroke-linecap: square"/>
   </g>
   <g id="line2d_58">
    <path d="M 306.600661 729.39952 
L 307.552834 707.562446 
L 308.64813 689.106789 
L 309.743427 675.123452 
L 310.838724 664.17299 
L 311.934021 655.373993 
L 313.029317 648.156576 
L 314.124614 642.135938 
L 315.219911 637.042881 
L 316.315208 632.683441 
L 317.958153 627.216297 
L 319.601098 622.739613 
L 321.244043 619.017882 
L 322.886988 615.885289 
L 324.529933 613.221768 
L 326.172878 610.938296 
L 327.815823 608.967526 
L 330.006417 606.738361 
L 332.19701 604.881399 
L 334.387604 603.328417 
L 336.578197 602.028382 
L 339.316439 600.700986 
L 342.054681 599.652718 
L 344.792923 598.843024 
L 347.531165 598.242845 
L 350.817055 597.771116 
L 354.102945 597.550225 
L 357.388835 597.570182 
L 360.674726 597.831882 
L 363.960616 598.347203 
L 366.698858 598.987411 
L 369.4371 599.842175 
L 372.175341 600.942593 
L 374.365935 602.028382 
L 376.556528 603.328417 
L 378.747122 604.881399 
L 380.937715 606.738361 
L 383.128309 608.967526 
L 384.771254 610.938296 
L 386.414199 613.221768 
L 388.057144 615.885289 
L 389.700089 619.017882 
L 391.343034 622.739613 
L 392.985979 627.216297 
L 394.081276 630.732539 
L 395.176573 634.781387 
L 396.27187 639.487004 
L 397.367166 645.015621 
L 398.462463 651.594972 
L 399.55776 659.545618 
L 400.653057 669.333571 
L 401.748353 681.663306 
L 402.84365 697.652625 
L 403.938947 719.187814 
L 404.343472 729.39952 
L 404.343472 729.39952 
" clip-path="url(#pe8d28849ff)" style="fill: none; stroke: #f59e0b; stroke-width: 2; stroke-linecap: square"/>
   </g>
   <g id="line2d_59">
    <path d="M 412.003702 -1 
L 412.30427 97.370517 
L 412.851919 199.276882 
L 413.399567 265.00506 
L 413.947215 310.906748 
L 414.494864 344.769731 
L 415.042512 370.775287 
L 416.137809 408.07781 
L 417.233106 433.527855 
L 418.328402 451.983512 
L 419.423699 465.96685 
L 420.518996 476.917311 
L 421.614293 485.716308 
L 422.709589 492.933725 
L 423.804886 498.954363 
L 424.900183 504.04742 
L 425.99548 508.40686 
L 427.638425 513.874004 
L 429.28137 518.350688 
L 430.924315 522.072419 
L 432.56726 525.205012 
L 434.210205 527.868534 
L 435.85315 530.152005 
L 437.496095 532.122775 
L 439.686689 534.351941 
L 441.877282 536.208902 
L 444.067876 537.761884 
L 446.258469 539.061919 
L 448.996711 540.389315 
L 451.734953 541.437583 
L 454.473195 542.247278 
L 457.211437 542.847456 
L 460.497327 543.319185 
L 463.783217 543.540076 
L 467.069107 543.520119 
L 470.354998 543.258419 
L 473.640888 542.743098 
L 476.37913 542.10289 
L 479.117372 541.248126 
L 481.855613 540.147708 
L 484.046207 539.061919 
L 486.2368 537.761884 
L 488.427394 536.208902 
L 490.617987 534.351941 
L 492.808581 532.122775 
L 494.451526 530.152005 
L 496.094471 527.868534 
L 497.737416 525.205012 
L 499.380361 522.072419 
L 501.023306 518.350688 
L 502.666252 513.874004 
L 503.761548 510.357762 
L 504.856845 506.308914 
L 505.952142 501.603297 
L 507.047438 496.07468 
L 508.142735 489.495329 
L 509.238032 481.544683 
L 510.333329 471.756731 
L 511.428625 459.426995 
L 512.523922 443.437676 
L 513.619219 421.902488 
L 514.166867 408.07781 
L 514.714516 391.369268 
L 515.262164 370.775287 
L 515.809812 344.769731 
L 516.357461 310.906748 
L 516.905109 265.00506 
L 517.452758 199.276882 
L 518.000406 97.370517 
L 518.300975 -1 
L 518.300975 -1 
" clip-path="url(#pe8d28849ff)" style="fill: none; stroke: #f59e0b; stroke-width: 2; stroke-linecap: square"/>
   </g>
   <g id="line2d_60">
    <path d="M 81.271386 705.466707 
L 81.271386 435.623594 
" clip-path="url(#pe8d28849ff)" style="fill: none; stroke-dasharray: 3.7,1.6; stroke-dashoffset: 0; stroke: #d1d5db"/>
   </g>
   <g id="line2d_61">
    <path d="M 190.951658 705.466707 
L 190.951658 435.623594 
" clip-path="url(#pe8d28849ff)" style="fill: none; stroke-dasharray: 3.7,1.6; stroke-dashoffset: 0; stroke: #d1d5db"/>
   </g>
   <g id="line2d_62">
    <path d="M 300.63193 705.466707 
L 300.63193 435.623594 
" clip-path="url(#pe8d28849ff)" style="fill: none; stroke-dasharray: 3.7,1.6; stroke-dashoffset: 0; stroke: #d1d5db"/>
   </g>
   <g id="line2d_63">
    <path d="M 410.312202 705.466707 
L 410.312202 435.623594 
" clip-path="url(#pe8d28849ff)" style="fill: none; stroke-dasharray: 3.7,1.6; stroke-dashoffset: 0; stroke: #d1d5db"/>
   </g>
   <g id="line2d_64">
    <path d="M 519.992474 705.466707 
L 519.992474 435.623594 
" clip-path="url(#pe8d28849ff)" style="fill: none; stroke-dasharray: 3.7,1.6; stroke-dashoffset: 0; stroke: #d1d5db"/>
   </g>
   <g id="line2d_65">
    <path d="M 26.43125 570.545151 
L 465.152338 570.545151 
" clip-path="url(#pe8d28849ff)" style="fill: none; stroke: #9ca3af; stroke-linecap: square"/>
   </g>
   <g id="line2d_66">
    <path d="M 26.43125 543.560839 
L 465.152338 543.560839 
" clip-path="url(#pe8d28849ff)" style="fill: none; stroke-dasharray: 1,1.65; stroke-dashoffset: 0; stroke: #e5e7eb"/>
   </g>
   <g id="line2d_67">
    <path d="M 26.43125 597.529462 
L 465.152338 597.529462 
" clip-path="url(#pe8d28849ff)" style="fill: none; stroke-dasharray: 1,1.65; stroke-dashoffset: 0; stroke: #e5e7eb"/>
   </g>
   <g id="line2d_68">
    <path d="M 245.791794 705.466707 
L 245.791794 435.623594 
" clip-path="url(#pe8d28849ff)" style="fill: none; stroke: #9ca3af; stroke-linecap: square"/>
   </g>
   <g id="patch_9">
    <path d="M 26.43125 705.466707 
L 26.43125 435.623594 
" style="fill: none; stroke: #4b5563; stroke-width: 0.8; stroke-linejoin: miter; stroke-linecap: square"/>
   </g>
   <g id="patch_10">
    <path d="M 26.43125 705.466707 
L 465.152338 705.466707 
" style="fill: none; stroke: #4b5563; stroke-width: 0.8; stroke-linejoin: miter; stroke-linecap: square"/>
   </g>
   <g id="text_37">
    <!-- Periodo: 2π -->
    <g style="fill: #6b7280" transform="translate(397.739565 455.778562) scale(0.09 -0.09)">
     <use xlink:href="#SegoeUI-50"/>
     <use xlink:href="#SegoeUI-65" x="52.255859"/>
     <use xlink:href="#SegoeUI-72" x="104.550781"/>
     <use xlink:href="#SegoeUI-69" x="139.316406"/>
     <use xlink:href="#SegoeUI-6f" x="163.535156"/>
     <use xlink:href="#SegoeUI-64" x="222.128906"/>
     <use xlink:href="#SegoeUI-6f" x="281.015625"/>
     <use xlink:href="#SegoeUI-3a" x="339.609375"/>
     <use xlink:href="#SegoeUI-20" x="361.289062"/>
     <use xlink:href="#SegoeUI-32" x="388.681641"/>
     <use xlink:href="#SegoeUI-3c0" x="442.587891"/>
    </g>
   </g>
   <g id="text_38">
    <!-- Rango: (-∞,-1] ∪ [1,∞) -->
    <g style="fill: #6b7280" transform="translate(356.061127 474.619767) scale(0.09 -0.09)">
     <defs>
      <path id="SegoeUI-52" d="M 3800 0 
L 3175 0 
L 2425 1256 
Q 2322 1431 2225 1554 
Q 2128 1678 2026 1756 
Q 1925 1834 1808 1870 
Q 1691 1906 1544 1906 
L 1113 1906 
L 1113 0 
L 588 0 
L 588 4481 
L 1925 4481 
Q 2219 4481 2467 4407 
Q 2716 4334 2898 4184 
Q 3081 4034 3184 3811 
Q 3288 3588 3288 3288 
Q 3288 3053 3217 2858 
Q 3147 2663 3017 2509 
Q 2888 2356 2705 2248 
Q 2522 2141 2294 2081 
L 2294 2069 
Q 2406 2019 2489 1955 
Q 2572 1891 2647 1803 
Q 2722 1716 2795 1605 
Q 2869 1494 2959 1347 
L 3800 0 
z
M 1113 4006 
L 1113 2381 
L 1825 2381 
Q 2022 2381 2189 2440 
Q 2356 2500 2478 2611 
Q 2600 2722 2669 2883 
Q 2738 3044 2738 3244 
Q 2738 3603 2505 3804 
Q 2272 4006 1831 4006 
L 1113 4006 
z
" transform="scale(0.015625)"/>
      <path id="SegoeUI-67" d="M 3250 256 
Q 3250 -1506 1563 -1506 
Q 969 -1506 525 -1281 
L 525 -769 
Q 1066 -1069 1556 -1069 
Q 2738 -1069 2738 188 
L 2738 538 
L 2725 538 
Q 2359 -75 1625 -75 
Q 1028 -75 664 351 
Q 300 778 300 1497 
Q 300 2313 692 2794 
Q 1084 3275 1766 3275 
Q 2413 3275 2725 2756 
L 2738 2756 
L 2738 3200 
L 3250 3200 
L 3250 256 
z
M 2738 1447 
L 2738 1919 
Q 2738 2300 2480 2572 
Q 2222 2844 1838 2844 
Q 1363 2844 1094 2498 
Q 825 2153 825 1531 
Q 825 997 1083 676 
Q 1341 356 1766 356 
Q 2197 356 2467 662 
Q 2738 969 2738 1447 
z
" transform="scale(0.015625)"/>
      <path id="SegoeUI-28" d="M 1863 -1019 
L 1406 -1019 
Q 438 88 438 1709 
Q 438 3338 1406 4481 
L 1869 4481 
Q 888 3294 888 1716 
Q 888 150 1863 -1019 
z
" transform="scale(0.015625)"/>
      <path id="SegoeUI-221e" d="M 2613 1506 
Q 2088 647 1419 647 
Q 903 647 579 980 
Q 256 1313 256 1850 
Q 256 2356 593 2717 
Q 931 3078 1419 3078 
Q 2156 3078 2625 2225 
Q 3138 3078 3813 3078 
Q 4331 3078 4656 2745 
Q 4981 2413 4981 1875 
Q 4981 1372 4643 1009 
Q 4306 647 3813 647 
Q 3106 647 2613 1506 
z
M 2816 1863 
Q 3225 1050 3813 1050 
Q 4153 1050 4358 1276 
Q 4563 1503 4563 1875 
Q 4563 2225 4350 2456 
Q 4138 2688 3813 2688 
Q 3272 2688 2816 1863 
z
M 2419 1869 
Q 2006 2688 1419 2688 
Q 1075 2688 870 2453 
Q 666 2219 666 1850 
Q 666 1506 877 1278 
Q 1088 1050 1419 1050 
Q 1969 1050 2419 1869 
z
" transform="scale(0.015625)"/>
      <path id="SegoeUI-2c" d="M 988 713 
L 488 -825 
L 122 -825 
L 488 713 
L 988 713 
z
" transform="scale(0.015625)"/>
      <path id="SegoeUI-31" d="M 2263 0 
L 1750 0 
L 1750 3872 
Q 1691 3813 1577 3736 
Q 1463 3659 1320 3584 
Q 1178 3509 1020 3443 
Q 863 3378 713 3341 
L 713 3859 
Q 881 3906 1070 3986 
Q 1259 4066 1442 4164 
Q 1625 4263 1787 4370 
Q 1950 4478 2069 4581 
L 2263 4581 
L 2263 0 
z
" transform="scale(0.015625)"/>
      <path id="SegoeUI-5d" d="M 1313 -1019 
L 166 -1019 
L 166 -647 
L 856 -647 
L 856 4109 
L 166 4109 
L 166 4481 
L 1313 4481 
L 1313 -1019 
z
" transform="scale(0.015625)"/>
      <path id="SegoeUI-222a" d="M 519 0 
L 519 4369 
L 3613 4369 
L 3613 0 
L 519 0 
z
M 981 463 
L 3150 463 
L 3150 3906 
L 981 3906 
L 981 463 
z
" transform="scale(0.015625)"/>
      <path id="SegoeUI-5b" d="M 1775 -1019 
L 625 -1019 
L 625 4481 
L 1775 4481 
L 1775 4109 
L 1081 4109 
L 1081 -647 
L 1775 -647 
L 1775 -1019 
z
" transform="scale(0.015625)"/>
      <path id="SegoeUI-29" d="M 531 -1019 
L 75 -1019 
Q 1050 150 1050 1716 
Q 1050 3294 69 4481 
L 531 4481 
Q 1506 3338 1506 1709 
Q 1506 88 531 -1019 
z
" transform="scale(0.015625)"/>
     </defs>
     <use xlink:href="#SegoeUI-52"/>
     <use xlink:href="#SegoeUI-61" x="59.814453"/>
     <use xlink:href="#SegoeUI-6e" x="110.693359"/>
     <use xlink:href="#SegoeUI-67" x="167.285156"/>
     <use xlink:href="#SegoeUI-6f" x="226.171875"/>
     <use xlink:href="#SegoeUI-3a" x="284.765625"/>
     <use xlink:href="#SegoeUI-20" x="306.445312"/>
     <use xlink:href="#SegoeUI-28" x="333.837891"/>
     <use xlink:href="#SegoeUI-2d" x="364.013672"/>
     <use xlink:href="#SegoeUI-221e" x="404.003906"/>
     <use xlink:href="#SegoeUI-2c" x="485.693359"/>
     <use xlink:href="#SegoeUI-2d" x="507.373047"/>
     <use xlink:href="#SegoeUI-31" x="547.363281"/>
     <use xlink:href="#SegoeUI-5d" x="601.269531"/>
     <use xlink:href="#SegoeUI-20" x="631.445312"/>
     <use xlink:href="#SegoeUI-222a" x="658.837891"/>
     <use xlink:href="#SegoeUI-20" x="723.388672"/>
     <use xlink:href="#SegoeUI-5b" x="750.78125"/>
     <use xlink:href="#SegoeUI-31" x="780.957031"/>
     <use xlink:href="#SegoeUI-2c" x="834.863281"/>
     <use xlink:href="#SegoeUI-221e" x="856.542969"/>
     <use xlink:href="#SegoeUI-29" x="938.232422"/>
    </g>
   </g>
   <g id="text_39">
    <!-- $y = \sec(x) = \frac{1}{\cos x}$ -->
    <g style="fill: #f59e0b" transform="translate(202.121794 429.623594) scale(0.11 -0.11)">
     <defs>
      <path id="DejaVuSans-65" d="M 3597 1894 
L 3597 1613 
L 953 1613 
Q 991 1019 1311 708 
Q 1631 397 2203 397 
Q 2534 397 2845 478 
Q 3156 559 3463 722 
L 3463 178 
Q 3153 47 2828 -22 
Q 2503 -91 2169 -91 
Q 1331 -91 842 396 
Q 353 884 353 1716 
Q 353 2575 817 3079 
Q 1281 3584 2069 3584 
Q 2775 3584 3186 3129 
Q 3597 2675 3597 1894 
z
M 3022 2063 
Q 3016 2534 2758 2815 
Q 2500 3097 2075 3097 
Q 1594 3097 1305 2825 
Q 1016 2553 972 2059 
L 3022 2063 
z
" transform="scale(0.015625)"/>
      <path id="DejaVuSans-31" d="M 794 531 
L 1825 531 
L 1825 4091 
L 703 3866 
L 703 4441 
L 1819 4666 
L 2450 4666 
L 2450 531 
L 3481 531 
L 3481 0 
L 794 0 
L 794 531 
z
" transform="scale(0.015625)"/>
     </defs>
     <use xlink:href="#DejaVuSans-Oblique-79" transform="translate(0 0.16875)"/>
     <use xlink:href="#DejaVuSans-3d" transform="translate(78.662109 0.16875)"/>
     <use xlink:href="#DejaVuSans-73" transform="translate(181.933594 0.16875)"/>
     <use xlink:href="#DejaVuSans-65" transform="translate(234.033203 0.16875)"/>
     <use xlink:href="#DejaVuSans-63" transform="translate(295.556641 0.16875)"/>
     <use xlink:href="#DejaVuSans-28" transform="translate(350.537109 0.16875)"/>
     <use xlink:href="#DejaVuSans-Oblique-78" transform="translate(389.550781 0.16875)"/>
     <use xlink:href="#DejaVuSans-29" transform="translate(448.730469 0.16875)"/>
     <use xlink:href="#DejaVuSans-3d" transform="translate(507.226562 0.16875)"/>
     <use xlink:href="#DejaVuSans-31" transform="translate(673.498047 43.965625) scale(0.7)"/>
     <use xlink:href="#DejaVuSans-63" transform="translate(610.498047 -26.484375) scale(0.7)"/>
     <use xlink:href="#DejaVuSans-6f" transform="translate(648.984375 -26.484375) scale(0.7)"/>
     <use xlink:href="#DejaVuSans-73" transform="translate(691.811523 -26.484375) scale(0.7)"/>
     <use xlink:href="#DejaVuSans-Oblique-78" transform="translate(739.646223 -26.484375) scale(0.7)"/>
     <path d="M 610.498047 18.965625 
L 610.498047 25.215625 
L 781.072005 25.215625 
L 781.072005 18.965625 
L 610.498047 18.965625 
z
"/>
    </g>
   </g>
  </g>
  <g id="axes_4">
   <g id="patch_11">
    <path d="M 565.23101 705.466707 
L 1003.952098 705.466707 
L 1003.952098 435.623594 
L 565.23101 435.623594 
z
" style="fill: #ffffff"/>
   </g>
   <g id="matplotlib.axis_7">
    <g id="xtick_16">
     <g id="line2d_69">
      <g>
       <use xlink:href="#m4bba5a373e" x="565.23101" y="705.466707" style="fill: #2c2f33; stroke: #2c2f33; stroke-width: 0.8"/>
      </g>
     </g>
     <g id="text_40">
      <!-- -2π -->
      <g style="fill: #2c2f33" transform="translate(558.184291 719.12952) scale(0.09 -0.09)">
       <use xlink:href="#SegoeUI-2d"/>
       <use xlink:href="#SegoeUI-32" x="39.990234"/>
       <use xlink:href="#SegoeUI-3c0" x="93.896484"/>
      </g>
     </g>
    </g>
    <g id="xtick_17">
     <g id="line2d_70">
      <g>
       <use xlink:href="#m4bba5a373e" x="674.911282" y="705.466707" style="fill: #2c2f33; stroke: #2c2f33; stroke-width: 0.8"/>
      </g>
     </g>
     <g id="text_41">
      <!-- -π -->
      <g style="fill: #2c2f33" transform="translate(670.369095 719.12952) scale(0.09 -0.09)">
       <use xlink:href="#SegoeUI-2d"/>
       <use xlink:href="#SegoeUI-3c0" x="38.240234"/>
      </g>
     </g>
    </g>
    <g id="xtick_18">
     <g id="line2d_71">
      <g>
       <use xlink:href="#m4bba5a373e" x="784.591554" y="705.466707" style="fill: #2c2f33; stroke: #2c2f33; stroke-width: 0.8"/>
      </g>
     </g>
     <g id="text_42">
      <!-- 0 -->
      <g style="fill: #2c2f33" transform="translate(782.165773 719.12952) scale(0.09 -0.09)">
       <use xlink:href="#SegoeUI-30"/>
      </g>
     </g>
    </g>
    <g id="xtick_19">
     <g id="line2d_72">
      <g>
       <use xlink:href="#m4bba5a373e" x="894.271826" y="705.466707" style="fill: #2c2f33; stroke: #2c2f33; stroke-width: 0.8"/>
      </g>
     </g>
     <g id="text_43">
      <!-- π -->
      <g style="fill: #2c2f33" transform="translate(891.450185 719.12952) scale(0.09 -0.09)">
       <use xlink:href="#SegoeUI-3c0"/>
      </g>
     </g>
    </g>
    <g id="xtick_20">
     <g id="line2d_73">
      <g>
       <use xlink:href="#m4bba5a373e" x="1003.952098" y="705.466707" style="fill: #2c2f33; stroke: #2c2f33; stroke-width: 0.8"/>
      </g>
     </g>
     <g id="text_44">
      <!-- 2π -->
      <g style="fill: #2c2f33" transform="translate(998.704676 719.12952) scale(0.09 -0.09)">
       <use xlink:href="#SegoeUI-32"/>
       <use xlink:href="#SegoeUI-3c0" x="53.90625"/>
      </g>
     </g>
    </g>
   </g>
   <g id="matplotlib.axis_8">
    <g id="ytick_16">
     <g id="line2d_74">
      <g>
       <use xlink:href="#m37e6d16def" x="565.23101" y="678.482396" style="fill: #2c2f33; stroke: #2c2f33; stroke-width: 0.8"/>
      </g>
     </g>
     <g id="text_45">
      <!-- −4 -->
      <g style="fill: #2c2f33" transform="translate(545.99976 682.183959) scale(0.1 -0.1)">
       <use xlink:href="#SegoeUI-2212"/>
       <use xlink:href="#SegoeUI-34" x="68.408203"/>
      </g>
     </g>
    </g>
    <g id="ytick_17">
     <g id="line2d_75">
      <g>
       <use xlink:href="#m37e6d16def" x="565.23101" y="624.513773" style="fill: #2c2f33; stroke: #2c2f33; stroke-width: 0.8"/>
      </g>
     </g>
     <g id="text_46">
      <!-- −2 -->
      <g style="fill: #2c2f33" transform="translate(545.99976 628.215336) scale(0.1 -0.1)">
       <use xlink:href="#SegoeUI-2212"/>
       <use xlink:href="#SegoeUI-32" x="68.408203"/>
      </g>
     </g>
    </g>
    <g id="ytick_18">
     <g id="line2d_76">
      <g>
       <use xlink:href="#m37e6d16def" x="565.23101" y="570.545151" style="fill: #2c2f33; stroke: #2c2f33; stroke-width: 0.8"/>
      </g>
     </g>
     <g id="text_47">
      <!-- 0 -->
      <g style="fill: #2c2f33" transform="translate(552.840385 574.246713) scale(0.1 -0.1)">
       <use xlink:href="#SegoeUI-30"/>
      </g>
     </g>
    </g>
    <g id="ytick_19">
     <g id="line2d_77">
      <g>
       <use xlink:href="#m37e6d16def" x="565.23101" y="516.576528" style="fill: #2c2f33; stroke: #2c2f33; stroke-width: 0.8"/>
      </g>
     </g>
     <g id="text_48">
      <!-- 2 -->
      <g style="fill: #2c2f33" transform="translate(552.840385 520.27809) scale(0.1 -0.1)">
       <use xlink:href="#SegoeUI-32"/>
      </g>
     </g>
    </g>
    <g id="ytick_20">
     <g id="line2d_78">
      <g>
       <use xlink:href="#m37e6d16def" x="565.23101" y="462.607905" style="fill: #2c2f33; stroke: #2c2f33; stroke-width: 0.8"/>
      </g>
     </g>
     <g id="text_49">
      <!-- 4 -->
      <g style="fill: #2c2f33" transform="translate(552.840385 466.309468) scale(0.1 -0.1)">
       <use xlink:href="#SegoeUI-34"/>
      </g>
     </g>
    </g>
   </g>
   <g id="line2d_79">
    <path d="M 566.92251 -1 
L 567.223078 97.370517 
L 567.770727 199.276882 
L 568.318375 265.00506 
L 568.866023 310.906748 
L 569.413672 344.769731 
L 569.96132 370.775287 
L 571.056617 408.07781 
L 572.151914 433.527855 
L 573.24721 451.983512 
L 574.342507 465.96685 
L 575.437804 476.917311 
L 576.533101 485.716308 
L 577.628397 492.933725 
L 578.723694 498.954363 
L 579.818991 504.04742 
L 580.914288 508.40686 
L 582.557233 513.874004 
L 584.200178 518.350688 
L 585.843123 522.072419 
L 587.486068 525.205012 
L 589.129013 527.868534 
L 590.771958 530.152005 
L 592.414903 532.122775 
L 594.605497 534.351941 
L 596.79609 536.208902 
L 598.986684 537.761884 
L 601.177277 539.061919 
L 603.915519 540.389315 
L 606.653761 541.437583 
L 609.392003 542.247278 
L 612.130245 542.847456 
L 615.416135 543.319185 
L 618.702025 543.540076 
L 621.987915 543.520119 
L 625.273806 543.258419 
L 628.559696 542.743098 
L 631.297938 542.10289 
L 634.036179 541.248126 
L 636.774421 540.147708 
L 638.965015 539.061919 
L 641.155608 537.761884 
L 643.346202 536.208902 
L 645.536795 534.351941 
L 647.727389 532.122775 
L 649.370334 530.152005 
L 651.013279 527.868534 
L 652.656224 525.205012 
L 654.299169 522.072419 
L 655.942114 518.350688 
L 657.585059 513.874004 
L 658.680356 510.357762 
L 659.775653 506.308914 
L 660.87095 501.603297 
L 661.966246 496.07468 
L 663.061543 489.495329 
L 664.15684 481.544683 
L 665.252137 471.756731 
L 666.347433 459.426995 
L 667.44273 443.437676 
L 668.538027 421.902488 
L 669.085675 408.07781 
L 669.633324 391.369268 
L 670.180972 370.775287 
L 670.72862 344.769731 
L 671.276269 310.906748 
L 671.823917 265.00506 
L 672.371565 199.276882 
L 672.919214 97.370517 
L 673.219782 -1 
L 673.219782 -1 
" clip-path="url(#pac311b8ae9)" style="fill: none; stroke: #ec4899; stroke-width: 2; stroke-linecap: square"/>
   </g>
   <g id="line2d_80">
    <path d="M 680.880013 729.39952 
L 681.832186 707.562446 
L 682.927482 689.106789 
L 684.022779 675.123452 
L 685.118076 664.17299 
L 686.213373 655.373993 
L 687.308669 648.156576 
L 688.403966 642.135938 
L 689.499263 637.042881 
L 690.59456 632.683441 
L 692.237505 627.216297 
L 693.88045 622.739613 
L 695.523395 619.017882 
L 697.16634 615.885289 
L 698.809285 613.221768 
L 700.45223 610.938296 
L 702.095175 608.967526 
L 704.285769 606.738361 
L 706.476362 604.881399 
L 708.666956 603.328417 
L 710.857549 602.028382 
L 713.595791 600.700986 
L 716.334033 599.652718 
L 719.072275 598.843024 
L 721.810517 598.242845 
L 725.096407 597.771116 
L 728.382297 597.550225 
L 731.668187 597.570182 
L 734.954078 597.831882 
L 738.239968 598.347203 
L 740.97821 598.987411 
L 743.716451 599.842175 
L 746.454693 600.942593 
L 748.645287 602.028382 
L 750.83588 603.328417 
L 753.026474 604.881399 
L 755.217067 606.738361 
L 757.407661 608.967526 
L 759.050606 610.938296 
L 760.693551 613.221768 
L 762.336496 615.885289 
L 763.979441 619.017882 
L 765.622386 622.739613 
L 767.265331 627.216297 
L 768.360628 630.732539 
L 769.455925 634.781387 
L 770.551222 639.487004 
L 771.646518 645.015621 
L 772.741815 651.594972 
L 773.837112 659.545618 
L 774.932409 669.333571 
L 776.027705 681.663306 
L 777.123002 697.652625 
L 778.218299 719.187814 
L 778.622824 729.39952 
L 778.622824 729.39952 
" clip-path="url(#pac311b8ae9)" style="fill: none; stroke: #ec4899; stroke-width: 2; stroke-linecap: square"/>
   </g>
   <g id="line2d_81">
    <path d="M 786.283054 -1 
L 786.583622 97.370517 
L 787.131271 199.276882 
L 787.678919 265.00506 
L 788.226567 310.906748 
L 788.774216 344.769731 
L 789.321864 370.775287 
L 790.417161 408.07781 
L 791.512458 433.527855 
L 792.607754 451.983512 
L 793.703051 465.96685 
L 794.798348 476.917311 
L 795.893645 485.716308 
L 796.988941 492.933725 
L 798.084238 498.954363 
L 799.179535 504.04742 
L 800.274832 508.40686 
L 801.917777 513.874004 
L 803.560722 518.350688 
L 805.203667 522.072419 
L 806.846612 525.205012 
L 808.489557 527.868534 
L 810.132502 530.152005 
L 811.775447 532.122775 
L 813.966041 534.351941 
L 816.156634 536.208902 
L 818.347228 537.761884 
L 820.537821 539.061919 
L 823.276063 540.389315 
L 826.014305 541.437583 
L 828.752547 542.247278 
L 831.490789 542.847456 
L 834.776679 543.319185 
L 838.062569 543.540076 
L 841.348459 543.520119 
L 844.63435 543.258419 
L 847.92024 542.743098 
L 850.658482 542.10289 
L 853.396724 541.248126 
L 856.134965 540.147708 
L 858.325559 539.061919 
L 860.516152 537.761884 
L 862.706746 536.208902 
L 864.897339 534.351941 
L 867.087933 532.122775 
L 868.730878 530.152005 
L 870.373823 527.868534 
L 872.016768 525.205012 
L 873.659713 522.072419 
L 875.302658 518.350688 
L 876.945603 513.874004 
L 878.0409 510.357762 
L 879.136197 506.308914 
L 880.231494 501.603297 
L 881.32679 496.07468 
L 882.422087 489.495329 
L 883.517384 481.544683 
L 884.612681 471.756731 
L 885.707977 459.426995 
L 886.803274 443.437676 
L 887.898571 421.902488 
L 888.446219 408.07781 
L 888.993868 391.369268 
L 889.541516 370.775287 
L 890.089164 344.769731 
L 890.636813 310.906748 
L 891.184461 265.00506 
L 891.732109 199.276882 
L 892.279758 97.370517 
L 892.580326 -1 
L 892.580326 -1 
" clip-path="url(#pac311b8ae9)" style="fill: none; stroke: #ec4899; stroke-width: 2; stroke-linecap: square"/>
   </g>
   <g id="line2d_82">
    <path d="M 900.240557 729.39952 
L 901.19273 707.562446 
L 902.288026 689.106789 
L 903.383323 675.123452 
L 904.47862 664.17299 
L 905.573917 655.373993 
L 906.669213 648.156576 
L 907.76451 642.135938 
L 908.859807 637.042881 
L 909.955104 632.683441 
L 911.598049 627.216297 
L 913.240994 622.739613 
L 914.883939 619.017882 
L 916.526884 615.885289 
L 918.169829 613.221768 
L 919.812774 610.938296 
L 921.455719 608.967526 
L 923.646313 606.738361 
L 925.836906 604.881399 
L 928.0275 603.328417 
L 930.218093 602.028382 
L 932.956335 600.700986 
L 935.694577 599.652718 
L 938.432819 598.843024 
L 941.171061 598.242845 
L 944.456951 597.771116 
L 947.742841 597.550225 
L 951.028731 597.570182 
L 954.314622 597.831882 
L 957.600512 598.347203 
L 960.338754 598.987411 
L 963.076996 599.842175 
L 965.815237 600.942593 
L 968.005831 602.028382 
L 970.196424 603.328417 
L 972.387018 604.881399 
L 974.577611 606.738361 
L 976.768205 608.967526 
L 978.41115 610.938296 
L 980.054095 613.221768 
L 981.69704 615.885289 
L 983.339985 619.017882 
L 984.98293 622.739613 
L 986.625875 627.216297 
L 987.721172 630.732539 
L 988.816469 634.781387 
L 989.911766 639.487004 
L 991.007062 645.015621 
L 992.102359 651.594972 
L 993.197656 659.545618 
L 994.292953 669.333571 
L 995.388249 681.663306 
L 996.483546 697.652625 
L 997.578843 719.187814 
L 997.983368 729.39952 
L 997.983368 729.39952 
" clip-path="url(#pac311b8ae9)" style="fill: none; stroke: #ec4899; stroke-width: 2; stroke-linecap: square"/>
   </g>
   <g id="line2d_83">
    <path d="M 1005.643598 -1 
L 1005.944166 97.370517 
L 1006.491815 199.276882 
L 1007.039463 265.00506 
L 1007.587111 310.906748 
L 1008.13476 344.769731 
L 1008.682408 370.775287 
L 1009.777705 408.07781 
L 1010.873002 433.527855 
L 1011.968298 451.983512 
L 1013.063595 465.96685 
L 1014.158892 476.917311 
L 1015.254189 485.716308 
L 1016.349485 492.933725 
L 1017.39952 498.716362 
L 1017.39952 498.716362 
" clip-path="url(#pac311b8ae9)" style="fill: none; stroke: #ec4899; stroke-width: 2; stroke-linecap: square"/>
   </g>
   <g id="line2d_84">
    <path d="M 565.23101 705.466707 
L 565.23101 435.623594 
" clip-path="url(#pac311b8ae9)" style="fill: none; stroke-dasharray: 3.7,1.6; stroke-dashoffset: 0; stroke: #d1d5db"/>
   </g>
   <g id="line2d_85">
    <path d="M 674.911282 705.466707 
L 674.911282 435.623594 
" clip-path="url(#pac311b8ae9)" style="fill: none; stroke-dasharray: 3.7,1.6; stroke-dashoffset: 0; stroke: #d1d5db"/>
   </g>
   <g id="line2d_86">
    <path d="M 784.591554 705.466707 
L 784.591554 435.623594 
" clip-path="url(#pac311b8ae9)" style="fill: none; stroke-dasharray: 3.7,1.6; stroke-dashoffset: 0; stroke: #d1d5db"/>
   </g>
   <g id="line2d_87">
    <path d="M 894.271826 705.466707 
L 894.271826 435.623594 
" clip-path="url(#pac311b8ae9)" style="fill: none; stroke-dasharray: 3.7,1.6; stroke-dashoffset: 0; stroke: #d1d5db"/>
   </g>
   <g id="line2d_88">
    <path d="M 1003.952098 705.466707 
L 1003.952098 435.623594 
" clip-path="url(#pac311b8ae9)" style="fill: none; stroke-dasharray: 3.7,1.6; stroke-dashoffset: 0; stroke: #d1d5db"/>
   </g>
   <g id="line2d_89">
    <path d="M 565.23101 570.545151 
L 1003.952098 570.545151 
" clip-path="url(#pac311b8ae9)" style="fill: none; stroke: #9ca3af; stroke-linecap: square"/>
   </g>
   <g id="line2d_90">
    <path d="M 565.23101 543.560839 
L 1003.952098 543.560839 
" clip-path="url(#pac311b8ae9)" style="fill: none; stroke-dasharray: 1,1.65; stroke-dashoffset: 0; stroke: #e5e7eb"/>
   </g>
   <g id="line2d_91">
    <path d="M 565.23101 597.529462 
L 1003.952098 597.529462 
" clip-path="url(#pac311b8ae9)" style="fill: none; stroke-dasharray: 1,1.65; stroke-dashoffset: 0; stroke: #e5e7eb"/>
   </g>
   <g id="line2d_92">
    <path d="M 784.591554 705.466707 
L 784.591554 435.623594 
" clip-path="url(#pac311b8ae9)" style="fill: none; stroke-dasharray: 3.7,1.6; stroke-dashoffset: 0; stroke: #d1d5db"/>
   </g>
   <g id="patch_12">
    <path d="M 565.23101 705.466707 
L 565.23101 435.623594 
" style="fill: none; stroke: #4b5563; stroke-width: 0.8; stroke-linejoin: miter; stroke-linecap: square"/>
   </g>
   <g id="patch_13">
    <path d="M 565.23101 705.466707 
L 1003.952098 705.466707 
" style="fill: none; stroke: #4b5563; stroke-width: 0.8; stroke-linejoin: miter; stroke-linecap: square"/>
   </g>
   <g id="text_50">
    <!-- Periodo: 2π -->
    <g style="fill: #6b7280" transform="translate(936.539325 455.778562) scale(0.09 -0.09)">
     <use xlink:href="#SegoeUI-50"/>
     <use xlink:href="#SegoeUI-65" x="52.255859"/>
     <use xlink:href="#SegoeUI-72" x="104.550781"/>
     <use xlink:href="#SegoeUI-69" x="139.316406"/>
     <use xlink:href="#SegoeUI-6f" x="163.535156"/>
     <use xlink:href="#SegoeUI-64" x="222.128906"/>
     <use xlink:href="#SegoeUI-6f" x="281.015625"/>
     <use xlink:href="#SegoeUI-3a" x="339.609375"/>
     <use xlink:href="#SegoeUI-20" x="361.289062"/>
     <use xlink:href="#SegoeUI-32" x="388.681641"/>
     <use xlink:href="#SegoeUI-3c0" x="442.587891"/>
    </g>
   </g>
   <g id="text_51">
    <!-- Rango: (-∞,-1] ∪ [1,∞) -->
    <g style="fill: #6b7280" transform="translate(894.860887 474.619767) scale(0.09 -0.09)">
     <use xlink:href="#SegoeUI-52"/>
     <use xlink:href="#SegoeUI-61" x="59.814453"/>
     <use xlink:href="#SegoeUI-6e" x="110.693359"/>
     <use xlink:href="#SegoeUI-67" x="167.285156"/>
     <use xlink:href="#SegoeUI-6f" x="226.171875"/>
     <use xlink:href="#SegoeUI-3a" x="284.765625"/>
     <use xlink:href="#SegoeUI-20" x="306.445312"/>
     <use xlink:href="#SegoeUI-28" x="333.837891"/>
     <use xlink:href="#SegoeUI-2d" x="364.013672"/>
     <use xlink:href="#SegoeUI-221e" x="404.003906"/>
     <use xlink:href="#SegoeUI-2c" x="485.693359"/>
     <use xlink:href="#SegoeUI-2d" x="507.373047"/>
     <use xlink:href="#SegoeUI-31" x="547.363281"/>
     <use xlink:href="#SegoeUI-5d" x="601.269531"/>
     <use xlink:href="#SegoeUI-20" x="631.445312"/>
     <use xlink:href="#SegoeUI-222a" x="658.837891"/>
     <use xlink:href="#SegoeUI-20" x="723.388672"/>
     <use xlink:href="#SegoeUI-5b" x="750.78125"/>
     <use xlink:href="#SegoeUI-31" x="780.957031"/>
     <use xlink:href="#SegoeUI-2c" x="834.863281"/>
     <use xlink:href="#SegoeUI-221e" x="856.542969"/>
     <use xlink:href="#SegoeUI-29" x="938.232422"/>
    </g>
   </g>
   <g id="text_52">
    <!-- $y = \csc(x) = \frac{1}{\sin x}$ -->
    <g style="fill: #ec4899" transform="translate(742.241554 429.623594) scale(0.11 -0.11)">
     <use xlink:href="#DejaVuSans-Oblique-79" transform="translate(0 0.16875)"/>
     <use xlink:href="#DejaVuSans-3d" transform="translate(78.662109 0.16875)"/>
     <use xlink:href="#DejaVuSans-63" transform="translate(181.933594 0.16875)"/>
     <use xlink:href="#DejaVuSans-73" transform="translate(236.914062 0.16875)"/>
     <use xlink:href="#DejaVuSans-63" transform="translate(289.013672 0.16875)"/>
     <use xlink:href="#DejaVuSans-28" transform="translate(343.994141 0.16875)"/>
     <use xlink:href="#DejaVuSans-Oblique-78" transform="translate(383.007812 0.16875)"/>
     <use xlink:href="#DejaVuSans-29" transform="translate(442.1875 0.16875)"/>
     <use xlink:href="#DejaVuSans-3d" transform="translate(500.683594 0.16875)"/>
     <use xlink:href="#DejaVuSans-31" transform="translate(657.955078 43.965625) scale(0.7)"/>
     <use xlink:href="#DejaVuSans-73" transform="translate(603.955078 -40.473437) scale(0.7)"/>
     <use xlink:href="#DejaVuSans-69" transform="translate(640.424805 -40.473437) scale(0.7)"/>
     <use xlink:href="#DejaVuSans-6e" transform="translate(659.873047 -40.473437) scale(0.7)"/>
     <use xlink:href="#DejaVuSans-Oblique-78" transform="translate(715.603255 -40.473437) scale(0.7)"/>
     <path d="M 603.955078 18.965625 
L 603.955078 25.215625 
L 757.029036 25.215625 
L 757.029036 18.965625 
L 603.955078 18.965625 
z
"/>
    </g>
   </g>
  </g>
  <g id="text_53">
   <!-- Las Otras Funciones Trigonométricas -->
   <g style="fill: #2c2f33" transform="translate(388.031635 17.529375) scale(0.14 -0.14)">
    <defs>
     <path id="SegoeUI-Bold-4c" d="M 3181 0 
L 513 0 
L 513 4481 
L 1522 4481 
L 1522 819 
L 3181 819 
L 3181 0 
z
" transform="scale(0.015625)"/>
     <path id="SegoeUI-Bold-61" d="M 3078 0 
L 2144 0 
L 2144 459 
L 2131 459 
Q 1809 -78 1178 -78 
Q 713 -78 445 186 
Q 178 450 178 891 
Q 178 1822 1281 1966 
L 2150 2081 
Q 2150 2606 1581 2606 
Q 1009 2606 494 2266 
L 494 3009 
Q 700 3116 1058 3197 
Q 1416 3278 1709 3278 
Q 3078 3278 3078 1913 
L 3078 0 
z
M 2150 1300 
L 2150 1516 
L 1569 1441 
Q 1088 1378 1088 1006 
Q 1088 838 1205 730 
Q 1322 622 1522 622 
Q 1800 622 1975 814 
Q 2150 1006 2150 1300 
z
" transform="scale(0.015625)"/>
     <path id="SegoeUI-Bold-73" d="M 206 84 
L 206 884 
Q 450 738 692 666 
Q 934 594 1150 594 
Q 1413 594 1564 666 
Q 1716 738 1716 884 
Q 1716 978 1647 1040 
Q 1578 1103 1470 1150 
Q 1363 1197 1234 1234 
Q 1106 1272 988 1319 
Q 797 1391 651 1473 
Q 506 1556 407 1665 
Q 309 1775 257 1919 
Q 206 2063 206 2259 
Q 206 2528 323 2722 
Q 441 2916 636 3039 
Q 831 3163 1082 3220 
Q 1334 3278 1606 3278 
Q 1819 3278 2037 3245 
Q 2256 3213 2469 3150 
L 2469 2388 
Q 2281 2497 2067 2551 
Q 1853 2606 1647 2606 
Q 1550 2606 1464 2589 
Q 1378 2572 1312 2539 
Q 1247 2506 1209 2454 
Q 1172 2403 1172 2338 
Q 1172 2250 1228 2187 
Q 1284 2125 1375 2079 
Q 1466 2034 1577 1998 
Q 1688 1963 1797 1925 
Q 1994 1856 2153 1775 
Q 2313 1694 2427 1584 
Q 2541 1475 2602 1328 
Q 2663 1181 2663 978 
Q 2663 694 2539 492 
Q 2416 291 2211 164 
Q 2006 38 1739 -20 
Q 1472 -78 1184 -78 
Q 656 -78 206 84 
z
" transform="scale(0.015625)"/>
     <path id="SegoeUI-Bold-20" transform="scale(0.015625)"/>
     <path id="SegoeUI-Bold-4f" d="M 2406 -78 
Q 1444 -78 837 548 
Q 231 1175 231 2181 
Q 231 3244 847 3900 
Q 1463 4556 2478 4556 
Q 3438 4556 4030 3928 
Q 4622 3300 4622 2272 
Q 4622 1216 4008 569 
Q 3394 -78 2406 -78 
z
M 2450 3688 
Q 1919 3688 1606 3289 
Q 1294 2891 1294 2234 
Q 1294 1569 1606 1181 
Q 1919 794 2425 794 
Q 2947 794 3253 1170 
Q 3559 1547 3559 2216 
Q 3559 2913 3262 3300 
Q 2966 3688 2450 3688 
z
" transform="scale(0.015625)"/>
     <path id="SegoeUI-Bold-74" d="M 2350 38 
Q 2131 -78 1691 -78 
Q 647 -78 647 1006 
L 647 2472 
L 128 2472 
L 128 3200 
L 647 3200 
L 647 3891 
L 1631 4172 
L 1631 3200 
L 2350 3200 
L 2350 2472 
L 1631 2472 
L 1631 1178 
Q 1631 678 2028 678 
Q 2184 678 2350 769 
L 2350 38 
z
" transform="scale(0.015625)"/>
     <path id="SegoeUI-Bold-72" d="M 2503 2309 
Q 2325 2406 2088 2406 
Q 1766 2406 1584 2170 
Q 1403 1934 1403 1528 
L 1403 0 
L 416 0 
L 416 3200 
L 1403 3200 
L 1403 2606 
L 1416 2606 
Q 1650 3256 2259 3256 
Q 2416 3256 2503 3219 
L 2503 2309 
z
" transform="scale(0.015625)"/>
     <path id="SegoeUI-Bold-46" d="M 3103 3659 
L 1522 3659 
L 1522 2559 
L 2975 2559 
L 2975 1741 
L 1522 1741 
L 1522 0 
L 513 0 
L 513 4481 
L 3103 4481 
L 3103 3659 
z
" transform="scale(0.015625)"/>
     <path id="SegoeUI-Bold-75" d="M 3456 0 
L 2472 0 
L 2472 488 
L 2456 488 
Q 2091 -78 1478 -78 
Q 366 -78 366 1269 
L 366 3200 
L 1350 3200 
L 1350 1356 
Q 1350 678 1888 678 
Q 2153 678 2312 864 
Q 2472 1050 2472 1369 
L 2472 3200 
L 3456 3200 
L 3456 0 
z
" transform="scale(0.015625)"/>
     <path id="SegoeUI-Bold-6e" d="M 3506 0 
L 2522 0 
L 2522 1778 
Q 2522 2522 1991 2522 
Q 1734 2522 1568 2325 
Q 1403 2128 1403 1825 
L 1403 0 
L 416 0 
L 416 3200 
L 1403 3200 
L 1403 2694 
L 1416 2694 
Q 1769 3278 2444 3278 
Q 3506 3278 3506 1959 
L 3506 0 
z
" transform="scale(0.015625)"/>
     <path id="SegoeUI-Bold-63" d="M 2841 116 
Q 2506 -78 1875 -78 
Q 1138 -78 681 369 
Q 225 816 225 1522 
Q 225 2338 714 2808 
Q 1203 3278 2022 3278 
Q 2588 3278 2841 3128 
L 2841 2291 
Q 2531 2522 2150 2522 
Q 1725 2522 1476 2273 
Q 1228 2025 1228 1588 
Q 1228 1163 1465 920 
Q 1703 678 2119 678 
Q 2488 678 2841 909 
L 2841 116 
z
" transform="scale(0.015625)"/>
     <path id="SegoeUI-Bold-69" d="M 916 3706 
Q 666 3706 506 3854 
Q 347 4003 347 4219 
Q 347 4441 506 4581 
Q 666 4722 916 4722 
Q 1169 4722 1326 4581 
Q 1484 4441 1484 4219 
Q 1484 3994 1326 3850 
Q 1169 3706 916 3706 
z
M 1403 0 
L 416 0 
L 416 3200 
L 1403 3200 
L 1403 0 
z
" transform="scale(0.015625)"/>
     <path id="SegoeUI-Bold-6f" d="M 1941 -78 
Q 1141 -78 683 370 
Q 225 819 225 1588 
Q 225 2381 700 2829 
Q 1175 3278 1984 3278 
Q 2781 3278 3234 2829 
Q 3688 2381 3688 1644 
Q 3688 847 3220 384 
Q 2753 -78 1941 -78 
z
M 1966 2522 
Q 1616 2522 1422 2281 
Q 1228 2041 1228 1600 
Q 1228 678 1972 678 
Q 2681 678 2681 1625 
Q 2681 2522 1966 2522 
z
" transform="scale(0.015625)"/>
     <path id="SegoeUI-Bold-65" d="M 3291 1319 
L 1203 1319 
Q 1253 622 2081 622 
Q 2609 622 3009 872 
L 3009 159 
Q 2566 -78 1856 -78 
Q 1081 -78 653 351 
Q 225 781 225 1550 
Q 225 2347 687 2812 
Q 1150 3278 1825 3278 
Q 2525 3278 2908 2862 
Q 3291 2447 3291 1734 
L 3291 1319 
z
M 2375 1925 
Q 2375 2613 1819 2613 
Q 1581 2613 1407 2416 
Q 1234 2219 1197 1925 
L 2375 1925 
z
" transform="scale(0.015625)"/>
     <path id="SegoeUI-Bold-54" d="M 3659 3659 
L 2381 3659 
L 2381 0 
L 1369 0 
L 1369 3659 
L 97 3659 
L 97 4481 
L 3659 4481 
L 3659 3659 
z
" transform="scale(0.015625)"/>
     <path id="SegoeUI-Bold-67" d="M 3553 366 
Q 3553 -525 3037 -1014 
Q 2522 -1503 1544 -1503 
Q 897 -1503 519 -1319 
L 519 -488 
Q 1013 -775 1516 -775 
Q 2016 -775 2291 -511 
Q 2566 -247 2566 206 
L 2566 459 
L 2553 459 
Q 2216 -78 1556 -78 
Q 944 -78 584 353 
Q 225 784 225 1509 
Q 225 2322 625 2800 
Q 1025 3278 1678 3278 
Q 2263 3278 2553 2828 
L 2566 2828 
L 2566 3200 
L 3553 3200 
L 3553 366 
z
M 2578 1538 
L 2578 1791 
Q 2578 2094 2398 2308 
Q 2219 2522 1931 2522 
Q 1603 2522 1415 2265 
Q 1228 2009 1228 1544 
Q 1228 1144 1406 911 
Q 1584 678 1894 678 
Q 2200 678 2389 914 
Q 2578 1150 2578 1538 
z
" transform="scale(0.015625)"/>
     <path id="SegoeUI-Bold-6d" d="M 5497 0 
L 4513 0 
L 4513 1825 
Q 4513 2522 4000 2522 
Q 3756 2522 3603 2312 
Q 3450 2103 3450 1791 
L 3450 0 
L 2463 0 
L 2463 1844 
Q 2463 2522 1959 2522 
Q 1706 2522 1554 2322 
Q 1403 2122 1403 1778 
L 1403 0 
L 416 0 
L 416 3200 
L 1403 3200 
L 1403 2700 
L 1416 2700 
Q 1569 2956 1845 3117 
Q 2122 3278 2450 3278 
Q 3128 3278 3378 2681 
Q 3744 3278 4453 3278 
Q 5497 3278 5497 1991 
L 5497 0 
z
" transform="scale(0.015625)"/>
     <path id="SegoeUI-Bold-e9" d="M 3291 1319 
L 1203 1319 
Q 1253 622 2081 622 
Q 2609 622 3009 872 
L 3009 159 
Q 2566 -78 1856 -78 
Q 1081 -78 653 351 
Q 225 781 225 1550 
Q 225 2347 687 2812 
Q 1150 3278 1825 3278 
Q 2525 3278 2908 2862 
Q 3291 2447 3291 1734 
L 3291 1319 
z
M 2375 1925 
Q 2375 2613 1819 2613 
Q 1581 2613 1407 2416 
Q 1234 2219 1197 1925 
L 2375 1925 
z
M 2879 4716 
L 1900 3706 
L 1188 3706 
L 2000 4716 
L 2879 4716 
z
" transform="scale(0.015625)"/>
    </defs>
    <use xlink:href="#SegoeUI-Bold-4c"/>
    <use xlink:href="#SegoeUI-Bold-61" x="51.123047"/>
    <use xlink:href="#SegoeUI-Bold-73" x="104.931641"/>
    <use xlink:href="#SegoeUI-Bold-20" x="148.925781"/>
    <use xlink:href="#SegoeUI-Bold-4f" x="176.513672"/>
    <use xlink:href="#SegoeUI-Bold-74" x="252.34375"/>
    <use xlink:href="#SegoeUI-Bold-72" x="291.259766"/>
    <use xlink:href="#SegoeUI-Bold-61" x="331.054688"/>
    <use xlink:href="#SegoeUI-Bold-73" x="384.863281"/>
    <use xlink:href="#SegoeUI-Bold-20" x="428.857422"/>
    <use xlink:href="#SegoeUI-Bold-46" x="456.445312"/>
    <use xlink:href="#SegoeUI-Bold-75" x="508.447266"/>
    <use xlink:href="#SegoeUI-Bold-6e" x="568.945312"/>
    <use xlink:href="#SegoeUI-Bold-63" x="629.443359"/>
    <use xlink:href="#SegoeUI-Bold-69" x="677.441406"/>
    <use xlink:href="#SegoeUI-Bold-6f" x="705.859375"/>
    <use xlink:href="#SegoeUI-Bold-6e" x="766.992188"/>
    <use xlink:href="#SegoeUI-Bold-65" x="827.490234"/>
    <use xlink:href="#SegoeUI-Bold-73" x="881.591797"/>
    <use xlink:href="#SegoeUI-Bold-20" x="925.585938"/>
    <use xlink:href="#SegoeUI-Bold-54" x="953.173828"/>
    <use xlink:href="#SegoeUI-Bold-72" x="1004.267578"/>
    <use xlink:href="#SegoeUI-Bold-69" x="1044.4375"/>
    <use xlink:href="#SegoeUI-Bold-67" x="1072.855469"/>
    <use xlink:href="#SegoeUI-Bold-6f" x="1134.769531"/>
    <use xlink:href="#SegoeUI-Bold-6e" x="1195.902344"/>
    <use xlink:href="#SegoeUI-Bold-6f" x="1256.400391"/>
    <use xlink:href="#SegoeUI-Bold-6d" x="1317.533203"/>
    <use xlink:href="#SegoeUI-Bold-e9" x="1409.134766"/>
    <use xlink:href="#SegoeUI-Bold-74" x="1463.236328"/>
    <use xlink:href="#SegoeUI-Bold-72" x="1502.152344"/>
    <use xlink:href="#SegoeUI-Bold-69" x="1542.322266"/>
    <use xlink:href="#SegoeUI-Bold-63" x="1570.740234"/>
    <use xlink:href="#SegoeUI-Bold-61" x="1618.738281"/>
    <use xlink:href="#SegoeUI-Bold-73" x="1672.546875"/>
   </g>
  </g>
 </g>
 <defs>
  <clipPath id="pe81d207746">
   <rect x="26.43125" y="43.597667" width="438.721088" height="269.843114"/>
  </clipPath>
  <clipPath id="p3d1f500a2c">
   <rect x="565.23101" y="43.597667" width="438.721088" height="269.843114"/>
  </clipPath>
  <clipPath id="pe8d28849ff">
   <rect x="26.43125" y="435.623594" width="438.721088" height="269.843114"/>
  </clipPath>
  <clipPath id="pac311b8ae9">
   <rect x="565.23101" y="435.623594" width="438.721088" height="269.843114"/>
  </clipPath>
 </defs>
</svg>
