<?xml version="1.0" encoding="utf-8" standalone="no"?>
<!DOCTYPE svg PUBLIC "-//W3C//DTD SVG 1.1//EN"
  "http://www.w3.org/Graphics/SVG/1.1/DTD/svg11.dtd">
<svg xmlns:xlink="http://www.w3.org/1999/xlink" width="1016.39952pt" height="656.39952pt" viewBox="0 0 1016.39952 656.39952" xmlns="http://www.w3.org/2000/svg" version="1.1">
 <metadata>
  <rdf:RDF xmlns:dc="http://purl.org/dc/elements/1.1/" xmlns:cc="http://creativecommons.org/ns#" xmlns:rdf="http://www.w3.org/1999/02/22-rdf-syntax-ns#">
   <cc:Work>
    <dc:type rdf:resource="http://purl.org/dc/dcmitype/StillImage"/>
    <dc:date>2026-04-11T16:11:46.222261</dc:date>
    <dc:format>image/svg+xml</dc:format>
    <dc:creator>
     <cc:Agent>
      <dc:title>Matplotlib v3.8.4, https://matplotlib.org/</dc:title>
     </cc:Agent>
    </dc:creator>
   </cc:Work>
  </rdf:RDF>
 </metadata>
 <defs>
  <style type="text/css">*{stroke-linejoin: round; stroke-linecap: butt}</style>
 </defs>
 <g id="figure_1">
  <g id="patch_1">
   <path d="M 0 656.39952 
L 1016.39952 656.39952 
L 1016.39952 0 
L 0 0 
z
" style="fill: #ffffff"/>
  </g>
  <g id="axes_1">
   <g id="line2d_1">
    <path d="M 69.706159 285.186686 
L 395.293601 285.186686 
" clip-path="url(#p110d284a62)" style="fill: none; stroke: #d1d5db; stroke-linecap: square"/>
   </g>
   <g id="line2d_2">
    <path d="M 130.753805 346.234331 
L 130.753805 40.996105 
" clip-path="url(#p110d284a62)" style="fill: none; stroke: #d1d5db; stroke-linecap: square"/>
   </g>
   <g id="patch_2">
    <path d="M 130.753805 285.186686 
L 247.472107 285.186686 
L 247.472107 118.495675 
z
" clip-path="url(#p110d284a62)" style="fill: #1f2937; opacity: 0.2; stroke: #1f2937; stroke-linejoin: miter"/>
   </g>
   <g id="line2d_3">
    <path d="M 334.245955 285.186686 
L 333.83626 272.280416 
L 332.608823 259.426115 
L 330.568587 246.675543 
L 327.723768 234.080042 
L 324.08582 221.690329 
L 319.669392 209.556294 
L 314.492268 197.726795 
L 308.575294 186.249466 
L 301.942295 175.170523 
L 294.619981 164.534576 
L 286.637836 154.384453 
L 278.028001 144.761024 
L 268.825144 135.703039 
L 259.066323 127.246973 
L 248.790833 119.426874 
L 238.040049 112.274231 
L 226.857261 105.817845 
L 215.287499 100.083715 
L 203.377349 95.094929 
L 191.17477 90.871575 
L 178.728897 87.43066 
L 166.089846 84.786038 
L 153.308508 82.948359 
L 140.436351 81.925023 
L 127.525205 81.720149 
L 114.62706 82.334564 
L 101.793852 83.765792 
L 89.077255 86.008071 
L 76.528475 89.052372 
L 64.198041 92.886437 
L 52.135604 97.494827 
L 40.389734 102.858986 
L 29.007729 108.957314 
L 18.035419 115.765256 
L 7.516987 123.255398 
L -1 130.174721 
M -1 440.198651 
L 7.516987 447.117975 
L 18.035419 454.608117 
L 29.007729 461.416058 
L 40.389734 467.514386 
L 52.135604 472.878545 
L 64.198041 477.486935 
L 76.528475 481.321 
L 89.077255 484.365301 
L 101.793852 486.60758 
L 114.62706 488.038809 
L 127.525205 488.653223 
L 140.436351 488.448349 
L 153.308508 487.425013 
L 166.089846 485.587334 
L 178.728897 482.942712 
L 191.17477 479.501797 
L 203.377349 475.278443 
L 215.287499 470.289657 
L 226.857261 464.555527 
L 238.040049 458.099142 
L 248.790833 450.946499 
L 259.066323 443.1264 
L 268.825144 434.670333 
L 278.028001 425.612348 
L 286.637836 415.988919 
L 294.619981 405.838796 
L 301.942295 395.202849 
L 308.575294 384.123906 
L 314.492268 372.646577 
L 319.669392 360.817079 
L 324.08582 348.683043 
L 327.723768 336.29333 
L 330.568587 323.697829 
L 332.608823 310.947257 
L 333.83626 298.092956 
L 334.245955 285.186686 
" clip-path="url(#p110d284a62)" style="fill: none; stroke: #39c5bb; stroke-width: 2; stroke-linecap: square"/>
   </g>
   <g id="line2d_4">
    <path d="M 171.452235 285.186686 
L 171.429941 283.83977 
L 171.363082 282.49433 
L 171.251733 281.15184 
L 171.096016 279.81377 
L 170.8961 278.481587 
L 170.652205 277.15675 
L 170.364598 275.84071 
L 170.033594 274.534909 
L 169.659556 273.240778 
L 169.242894 271.959735 
L 168.784063 270.693183 
L 168.283568 269.44251 
L 167.741956 268.209086 
L 167.15982 266.994262 
L 166.537798 265.79937 
L 165.876572 264.625718 
L 165.176866 263.474592 
L 164.439447 262.347253 
L 163.665123 261.244937 
L 162.854742 260.168851 
L 162.009191 259.120175 
L 161.129398 258.100056 
L 160.216326 257.109612 
L 159.270975 256.14993 
L 158.294381 255.222059 
L 157.287615 254.327018 
L 156.251778 253.465785 
L 155.188006 252.639305 
L 154.097465 251.848484 
" clip-path="url(#p110d284a62)" style="fill: none; stroke: #f59e0b; stroke-width: 2; stroke-linecap: square"/>
   </g>
   <g id="line2d_5">
    <path d="M 235.262578 285.186686 
L 235.262578 272.977157 
L 247.472107 272.977157 
" clip-path="url(#p110d284a62)" style="fill: none; stroke: #6b7280; stroke-linecap: square"/>
   </g>
   <g id="line2d_6">
    <path d="M 130.753805 285.186686 
L 247.472107 285.186686 
" clip-path="url(#p110d284a62)" style="fill: none; stroke: #4b5563; stroke-width: 3; stroke-linecap: square"/>
   </g>
   <g id="line2d_7">
    <path d="M 247.472107 285.186686 
L 247.472107 118.495675 
" clip-path="url(#p110d284a62)" style="fill: none; stroke: #e12885; stroke-width: 3; stroke-linecap: square"/>
   </g>
   <g id="line2d_8">
    <path d="M 130.753805 285.186686 
L 247.472107 118.495675 
" clip-path="url(#p110d284a62)" style="fill: none; stroke: #f59e0b; stroke-width: 3; stroke-linecap: square"/>
   </g>
   <g id="text_1">
    <!-- P -->
    <g style="fill: #f59e0b" transform="translate(257.646715 102.216303) scale(0.12 -0.12)">
     <defs>
      <path id="SegoeUI-Bold-50" d="M 1522 1544 
L 1522 0 
L 513 0 
L 513 4481 
L 2094 4481 
Q 3788 4481 3788 3053 
Q 3788 2378 3302 1961 
Q 2816 1544 2003 1544 
L 1522 1544 
z
M 1522 3706 
L 1522 2309 
L 1919 2309 
Q 2725 2309 2725 3016 
Q 2725 3706 1919 3706 
L 1522 3706 
z
" transform="scale(0.015625)"/>
     </defs>
     <use xlink:href="#SegoeUI-Bold-50"/>
    </g>
   </g>
   <g id="text_2">
    <!-- θ -->
    <g style="fill: #f59e0b" transform="translate(191.80145 260.767628) scale(0.12 -0.12)">
     <defs>
      <path id="SegoeUI-Bold-3b8" d="M 1938 -78 
Q 1134 -78 679 564 
Q 225 1206 225 2359 
Q 225 3513 692 4158 
Q 1159 4803 1988 4803 
Q 2800 4803 3244 4165 
Q 3688 3528 3688 2425 
Q 3688 1247 3228 584 
Q 2769 -78 1938 -78 
z
M 2669 2744 
Q 2600 4041 1959 4041 
Q 1322 4041 1241 2744 
L 2669 2744 
z
M 2669 2031 
L 1238 2031 
Q 1303 684 1966 684 
Q 2606 684 2669 2031 
z
" transform="scale(0.015625)"/>
     </defs>
     <use xlink:href="#SegoeUI-Bold-3b8"/>
    </g>
   </g>
   <g id="text_3">
    <!-- x = cos θ -->
    <g style="fill: #4b5563" transform="translate(167.961393 305.535901) scale(0.1 -0.1)">
     <defs>
      <path id="SegoeUI-Bold-78" d="M 3506 3200 
L 2450 1650 
L 3500 0 
L 2363 0 
L 1900 863 
Q 1844 966 1766 1153 
L 1753 1153 
Q 1706 1022 1625 872 
L 1159 0 
L 25 0 
L 1106 1594 
L 91 3200 
L 1234 3200 
L 1691 2303 
Q 1781 2125 1819 2003 
L 1831 2003 
Q 1881 2150 1966 2309 
L 2431 3200 
L 3506 3200 
z
" transform="scale(0.015625)"/>
      <path id="SegoeUI-Bold-20" transform="scale(0.015625)"/>
      <path id="SegoeUI-Bold-3d" d="M 3788 2188 
L 744 2188 
L 744 2828 
L 3788 2828 
L 3788 2188 
z
M 3788 831 
L 744 831 
L 744 1466 
L 3788 1466 
L 3788 831 
z
" transform="scale(0.015625)"/>
      <path id="SegoeUI-Bold-63" d="M 2841 116 
Q 2506 -78 1875 -78 
Q 1138 -78 681 369 
Q 225 816 225 1522 
Q 225 2338 714 2808 
Q 1203 3278 2022 3278 
Q 2588 3278 2841 3128 
L 2841 2291 
Q 2531 2522 2150 2522 
Q 1725 2522 1476 2273 
Q 1228 2025 1228 1588 
Q 1228 1163 1465 920 
Q 1703 678 2119 678 
Q 2488 678 2841 909 
L 2841 116 
z
" transform="scale(0.015625)"/>
      <path id="SegoeUI-Bold-6f" d="M 1941 -78 
Q 1141 -78 683 370 
Q 225 819 225 1588 
Q 225 2381 700 2829 
Q 1175 3278 1984 3278 
Q 2781 3278 3234 2829 
Q 3688 2381 3688 1644 
Q 3688 847 3220 384 
Q 2753 -78 1941 -78 
z
M 1966 2522 
Q 1616 2522 1422 2281 
Q 1228 2041 1228 1600 
Q 1228 678 1972 678 
Q 2681 678 2681 1625 
Q 2681 2522 1966 2522 
z
" transform="scale(0.015625)"/>
      <path id="SegoeUI-Bold-73" d="M 206 84 
L 206 884 
Q 450 738 692 666 
Q 934 594 1150 594 
Q 1413 594 1564 666 
Q 1716 738 1716 884 
Q 1716 978 1647 1040 
Q 1578 1103 1470 1150 
Q 1363 1197 1234 1234 
Q 1106 1272 988 1319 
Q 797 1391 651 1473 
Q 506 1556 407 1665 
Q 309 1775 257 1919 
Q 206 2063 206 2259 
Q 206 2528 323 2722 
Q 441 2916 636 3039 
Q 831 3163 1082 3220 
Q 1334 3278 1606 3278 
Q 1819 3278 2037 3245 
Q 2256 3213 2469 3150 
L 2469 2388 
Q 2281 2497 2067 2551 
Q 1853 2606 1647 2606 
Q 1550 2606 1464 2589 
Q 1378 2572 1312 2539 
Q 1247 2506 1209 2454 
Q 1172 2403 1172 2338 
Q 1172 2250 1228 2187 
Q 1284 2125 1375 2079 
Q 1466 2034 1577 1998 
Q 1688 1963 1797 1925 
Q 1994 1856 2153 1775 
Q 2313 1694 2427 1584 
Q 2541 1475 2602 1328 
Q 2663 1181 2663 978 
Q 2663 694 2539 492 
Q 2416 291 2211 164 
Q 2006 38 1739 -20 
Q 1472 -78 1184 -78 
Q 656 -78 206 84 
z
" transform="scale(0.015625)"/>
     </defs>
     <use xlink:href="#SegoeUI-Bold-78"/>
     <use xlink:href="#SegoeUI-Bold-20" x="55.224609"/>
     <use xlink:href="#SegoeUI-Bold-3d" x="82.8125"/>
     <use xlink:href="#SegoeUI-Bold-20" x="153.515625"/>
     <use xlink:href="#SegoeUI-Bold-63" x="181.103516"/>
     <use xlink:href="#SegoeUI-Bold-6f" x="229.101562"/>
     <use xlink:href="#SegoeUI-Bold-73" x="290.234375"/>
     <use xlink:href="#SegoeUI-Bold-20" x="334.228516"/>
     <use xlink:href="#SegoeUI-Bold-3b8" x="361.816406"/>
    </g>
   </g>
   <g id="text_4">
    <!-- y = sin θ -->
    <g style="fill: #e12885" transform="translate(263.751479 201.84118) scale(0.1 -0.1)">
     <defs>
      <path id="SegoeUI-Bold-79" d="M 3463 3200 
L 2163 -256 
Q 1694 -1503 750 -1503 
Q 391 -1503 159 -1422 
L 159 -634 
Q 356 -750 588 -750 
Q 969 -750 1119 -391 
L 1288 6 
L -13 3200 
L 1081 3200 
L 1678 1253 
Q 1734 1072 1766 825 
L 1778 825 
Q 1806 1006 1881 1247 
L 2484 3200 
L 3463 3200 
z
" transform="scale(0.015625)"/>
      <path id="SegoeUI-Bold-69" d="M 916 3706 
Q 666 3706 506 3854 
Q 347 4003 347 4219 
Q 347 4441 506 4581 
Q 666 4722 916 4722 
Q 1169 4722 1326 4581 
Q 1484 4441 1484 4219 
Q 1484 3994 1326 3850 
Q 1169 3706 916 3706 
z
M 1403 0 
L 416 0 
L 416 3200 
L 1403 3200 
L 1403 0 
z
" transform="scale(0.015625)"/>
      <path id="SegoeUI-Bold-6e" d="M 3506 0 
L 2522 0 
L 2522 1778 
Q 2522 2522 1991 2522 
Q 1734 2522 1568 2325 
Q 1403 2128 1403 1825 
L 1403 0 
L 416 0 
L 416 3200 
L 1403 3200 
L 1403 2694 
L 1416 2694 
Q 1769 3278 2444 3278 
Q 3506 3278 3506 1959 
L 3506 0 
z
" transform="scale(0.015625)"/>
     </defs>
     <use xlink:href="#SegoeUI-Bold-79"/>
     <use xlink:href="#SegoeUI-Bold-20" x="53.808594"/>
     <use xlink:href="#SegoeUI-Bold-3d" x="81.396484"/>
     <use xlink:href="#SegoeUI-Bold-20" x="152.099609"/>
     <use xlink:href="#SegoeUI-Bold-73" x="179.6875"/>
     <use xlink:href="#SegoeUI-Bold-69" x="223.681641"/>
     <use xlink:href="#SegoeUI-Bold-6e" x="252.099609"/>
     <use xlink:href="#SegoeUI-Bold-20" x="312.597656"/>
     <use xlink:href="#SegoeUI-Bold-3b8" x="340.185547"/>
    </g>
   </g>
   <g id="text_5">
    <!-- r = 1 -->
    <g style="fill: #f59e0b" transform="translate(170.758183 186.542583) rotate(-55) scale(0.1 -0.1)">
     <defs>
      <path id="SegoeUI-Bold-72" d="M 2503 2309 
Q 2325 2406 2088 2406 
Q 1766 2406 1584 2170 
Q 1403 1934 1403 1528 
L 1403 0 
L 416 0 
L 416 3200 
L 1403 3200 
L 1403 2606 
L 1416 2606 
Q 1650 3256 2259 3256 
Q 2416 3256 2503 3219 
L 2503 2309 
z
" transform="scale(0.015625)"/>
      <path id="SegoeUI-Bold-31" d="M 2600 4581 
L 2600 0 
L 1616 0 
L 1616 3469 
Q 1534 3397 1423 3333 
Q 1313 3269 1188 3217 
Q 1063 3166 928 3130 
Q 794 3094 663 3078 
L 663 3909 
Q 1047 4022 1387 4197 
Q 1728 4372 2003 4581 
L 2600 4581 
z
" transform="scale(0.015625)"/>
     </defs>
     <use xlink:href="#SegoeUI-Bold-72"/>
     <use xlink:href="#SegoeUI-Bold-20" x="39.794922"/>
     <use xlink:href="#SegoeUI-Bold-3d" x="67.382812"/>
     <use xlink:href="#SegoeUI-Bold-20" x="138.085938"/>
     <use xlink:href="#SegoeUI-Bold-31" x="165.673828"/>
    </g>
   </g>
   <g id="text_6">
    <!-- En el Círculo Unitario -->
    <g style="fill: #2c2f33" transform="translate(177.992302 34.996105) scale(0.11 -0.11)">
     <defs>
      <path id="SegoeUI-Bold-45" d="M 3200 0 
L 513 0 
L 513 4481 
L 3097 4481 
L 3097 3659 
L 1522 3659 
L 1522 2663 
L 2988 2663 
L 2988 1844 
L 1522 1844 
L 1522 819 
L 3200 819 
L 3200 0 
z
" transform="scale(0.015625)"/>
      <path id="SegoeUI-Bold-65" d="M 3291 1319 
L 1203 1319 
Q 1253 622 2081 622 
Q 2609 622 3009 872 
L 3009 159 
Q 2566 -78 1856 -78 
Q 1081 -78 653 351 
Q 225 781 225 1550 
Q 225 2347 687 2812 
Q 1150 3278 1825 3278 
Q 2525 3278 2908 2862 
Q 3291 2447 3291 1734 
L 3291 1319 
z
M 2375 1925 
Q 2375 2613 1819 2613 
Q 1581 2613 1407 2416 
Q 1234 2219 1197 1925 
L 2375 1925 
z
" transform="scale(0.015625)"/>
      <path id="SegoeUI-Bold-6c" d="M 1403 0 
L 416 0 
L 416 4738 
L 1403 4738 
L 1403 0 
z
" transform="scale(0.015625)"/>
      <path id="SegoeUI-Bold-43" d="M 3725 159 
Q 3234 -78 2444 -78 
Q 1413 -78 822 528 
Q 231 1134 231 2144 
Q 231 3219 895 3887 
Q 1559 4556 2619 4556 
Q 3275 4556 3725 4391 
L 3725 3419 
Q 3275 3688 2700 3688 
Q 2069 3688 1681 3291 
Q 1294 2894 1294 2216 
Q 1294 1566 1659 1180 
Q 2025 794 2644 794 
Q 3234 794 3725 1081 
L 3725 159 
z
" transform="scale(0.015625)"/>
      <path id="SegoeUI-Bold-ed" d="M 1403 0 
L 416 0 
L 416 3200 
L 1403 3200 
L 1403 0 
z
M 1911 4716 
L 932 3706 
L 220 3706 
L 1032 4716 
L 1911 4716 
z
" transform="scale(0.015625)"/>
      <path id="SegoeUI-Bold-75" d="M 3456 0 
L 2472 0 
L 2472 488 
L 2456 488 
Q 2091 -78 1478 -78 
Q 366 -78 366 1269 
L 366 3200 
L 1350 3200 
L 1350 1356 
Q 1350 678 1888 678 
Q 2153 678 2312 864 
Q 2472 1050 2472 1369 
L 2472 3200 
L 3456 3200 
L 3456 0 
z
" transform="scale(0.015625)"/>
      <path id="SegoeUI-Bold-55" d="M 4166 1941 
Q 4166 -78 2284 -78 
Q 459 -78 459 1894 
L 459 4481 
L 1472 4481 
L 1472 1881 
Q 1472 794 2322 794 
Q 3156 794 3156 1844 
L 3156 4481 
L 4166 4481 
L 4166 1941 
z
" transform="scale(0.015625)"/>
      <path id="SegoeUI-Bold-74" d="M 2350 38 
Q 2131 -78 1691 -78 
Q 647 -78 647 1006 
L 647 2472 
L 128 2472 
L 128 3200 
L 647 3200 
L 647 3891 
L 1631 4172 
L 1631 3200 
L 2350 3200 
L 2350 2472 
L 1631 2472 
L 1631 1178 
Q 1631 678 2028 678 
Q 2184 678 2350 769 
L 2350 38 
z
" transform="scale(0.015625)"/>
      <path id="SegoeUI-Bold-61" d="M 3078 0 
L 2144 0 
L 2144 459 
L 2131 459 
Q 1809 -78 1178 -78 
Q 713 -78 445 186 
Q 178 450 178 891 
Q 178 1822 1281 1966 
L 2150 2081 
Q 2150 2606 1581 2606 
Q 1009 2606 494 2266 
L 494 3009 
Q 700 3116 1058 3197 
Q 1416 3278 1709 3278 
Q 3078 3278 3078 1913 
L 3078 0 
z
M 2150 1300 
L 2150 1516 
L 1569 1441 
Q 1088 1378 1088 1006 
Q 1088 838 1205 730 
Q 1322 622 1522 622 
Q 1800 622 1975 814 
Q 2150 1006 2150 1300 
z
" transform="scale(0.015625)"/>
     </defs>
     <use xlink:href="#SegoeUI-Bold-45"/>
     <use xlink:href="#SegoeUI-Bold-6e" x="53.222656"/>
     <use xlink:href="#SegoeUI-Bold-20" x="113.720703"/>
     <use xlink:href="#SegoeUI-Bold-65" x="141.308594"/>
     <use xlink:href="#SegoeUI-Bold-6c" x="195.410156"/>
     <use xlink:href="#SegoeUI-Bold-20" x="223.828125"/>
     <use xlink:href="#SegoeUI-Bold-43" x="251.416016"/>
     <use xlink:href="#SegoeUI-Bold-ed" x="313.818359"/>
     <use xlink:href="#SegoeUI-Bold-72" x="342.236328"/>
     <use xlink:href="#SegoeUI-Bold-63" x="381.65625"/>
     <use xlink:href="#SegoeUI-Bold-75" x="429.654297"/>
     <use xlink:href="#SegoeUI-Bold-6c" x="490.152344"/>
     <use xlink:href="#SegoeUI-Bold-6f" x="518.570312"/>
     <use xlink:href="#SegoeUI-Bold-20" x="579.703125"/>
     <use xlink:href="#SegoeUI-Bold-55" x="607.291016"/>
     <use xlink:href="#SegoeUI-Bold-6e" x="679.605469"/>
     <use xlink:href="#SegoeUI-Bold-69" x="740.103516"/>
     <use xlink:href="#SegoeUI-Bold-74" x="768.521484"/>
     <use xlink:href="#SegoeUI-Bold-61" x="807.4375"/>
     <use xlink:href="#SegoeUI-Bold-72" x="861.246094"/>
     <use xlink:href="#SegoeUI-Bold-69" x="901.416016"/>
     <use xlink:href="#SegoeUI-Bold-6f" x="929.833984"/>
    </g>
   </g>
   <g id="line2d_9">
    <defs>
     <path id="maa7f48e4bd" d="M 0 5 
C 1.326016 5 2.597899 4.473168 3.535534 3.535534 
C 4.473168 2.597899 5 1.326016 5 0 
C 5 -1.326016 4.473168 -2.597899 3.535534 -3.535534 
C 2.597899 -4.473168 1.326016 -5 0 -5 
C -1.326016 -5 -2.597899 -4.473168 -3.535534 -3.535534 
C -4.473168 -2.597899 -5 -1.326016 -5 0 
C -5 1.326016 -4.473168 2.597899 -3.535534 3.535534 
C -2.597899 4.473168 -1.326016 5 0 5 
z
" style="stroke: #f59e0b"/>
    </defs>
    <g clip-path="url(#p110d284a62)">
     <use xlink:href="#maa7f48e4bd" x="247.472107" y="118.495675" style="fill: #f59e0b; stroke: #f59e0b"/>
    </g>
   </g>
  </g>
  <g id="axes_2">
   <g id="patch_3">
    <path d="M 581.129748 138.672337 
L 986.669532 138.672337 
L 986.669532 53.205634 
L 581.129748 53.205634 
z
" clip-path="url(#p8d531f6f1c)" style="fill: #fef3c7; stroke: #f59e0b; stroke-width: 2; stroke-linejoin: miter"/>
   </g>
   <g id="patch_4">
    <path d="M 581.129748 330.97242 
L 986.669532 330.97242 
L 986.669532 153.934249 
L 581.129748 153.934249 
z
" clip-path="url(#p8d531f6f1c)" style="fill: #f0fdf4; stroke: #1f2937; stroke-width: 1.5; stroke-linejoin: miter"/>
   </g>
   <g id="text_7">
    <!-- IDENTIDAD FUNDAMENTAL -->
    <g style="fill: #f59e0b" transform="translate(717.969171 77.624692) scale(0.1 -0.1)">
     <defs>
      <path id="SegoeUI-Bold-49" d="M 1522 0 
L 513 0 
L 513 4481 
L 1522 4481 
L 1522 0 
z
" transform="scale(0.015625)"/>
      <path id="SegoeUI-Bold-44" d="M 513 0 
L 513 4481 
L 2100 4481 
Q 4488 4481 4488 2297 
Q 4488 1250 3836 625 
Q 3184 0 2100 0 
L 513 0 
z
M 1522 3659 
L 1522 819 
L 2022 819 
Q 2678 819 3051 1212 
Q 3425 1606 3425 2284 
Q 3425 2925 3054 3292 
Q 2684 3659 2016 3659 
L 1522 3659 
z
" transform="scale(0.015625)"/>
      <path id="SegoeUI-Bold-4e" d="M 4544 0 
L 3525 0 
L 1678 2816 
Q 1516 3063 1453 3188 
L 1441 3188 
Q 1466 2950 1466 2463 
L 1466 0 
L 513 0 
L 513 4481 
L 1600 4481 
L 3378 1753 
Q 3500 1569 3603 1388 
L 3616 1388 
Q 3591 1544 3591 2003 
L 3591 4481 
L 4544 4481 
L 4544 0 
z
" transform="scale(0.015625)"/>
      <path id="SegoeUI-Bold-54" d="M 3659 3659 
L 2381 3659 
L 2381 0 
L 1369 0 
L 1369 3659 
L 97 3659 
L 97 4481 
L 3659 4481 
L 3659 3659 
z
" transform="scale(0.015625)"/>
      <path id="SegoeUI-Bold-41" d="M 4453 0 
L 3353 0 
L 3034 997 
L 1441 997 
L 1125 0 
L 31 0 
L 1663 4481 
L 2859 4481 
L 4453 0 
z
M 2803 1772 
L 2322 3278 
Q 2269 3447 2247 3681 
L 2222 3681 
Q 2206 3484 2144 3291 
L 1656 1772 
L 2803 1772 
z
" transform="scale(0.015625)"/>
      <path id="SegoeUI-Bold-46" d="M 3103 3659 
L 1522 3659 
L 1522 2559 
L 2975 2559 
L 2975 1741 
L 1522 1741 
L 1522 0 
L 513 0 
L 513 4481 
L 3103 4481 
L 3103 3659 
z
" transform="scale(0.015625)"/>
      <path id="SegoeUI-Bold-4d" d="M 5619 0 
L 4622 0 
L 4622 2681 
Q 4622 3116 4659 3641 
L 4634 3641 
Q 4556 3228 4494 3047 
L 3444 0 
L 2619 0 
L 1550 3016 
Q 1506 3138 1409 3641 
L 1381 3641 
Q 1422 2978 1422 2478 
L 1422 0 
L 513 0 
L 513 4481 
L 1991 4481 
L 2906 1825 
Q 3016 1506 3066 1184 
L 3084 1184 
Q 3169 1556 3263 1831 
L 4178 4481 
L 5619 4481 
L 5619 0 
z
" transform="scale(0.015625)"/>
      <path id="SegoeUI-Bold-4c" d="M 3181 0 
L 513 0 
L 513 4481 
L 1522 4481 
L 1522 819 
L 3181 819 
L 3181 0 
z
" transform="scale(0.015625)"/>
     </defs>
     <use xlink:href="#SegoeUI-Bold-49"/>
     <use xlink:href="#SegoeUI-Bold-44" x="31.689453"/>
     <use xlink:href="#SegoeUI-Bold-45" x="105.419922"/>
     <use xlink:href="#SegoeUI-Bold-4e" x="158.642578"/>
     <use xlink:href="#SegoeUI-Bold-54" x="237.646484"/>
     <use xlink:href="#SegoeUI-Bold-49" x="296.240234"/>
     <use xlink:href="#SegoeUI-Bold-44" x="327.929688"/>
     <use xlink:href="#SegoeUI-Bold-41" x="400.160156"/>
     <use xlink:href="#SegoeUI-Bold-44" x="470.472656"/>
     <use xlink:href="#SegoeUI-Bold-20" x="544.203125"/>
     <use xlink:href="#SegoeUI-Bold-46" x="571.791016"/>
     <use xlink:href="#SegoeUI-Bold-55" x="623.792969"/>
     <use xlink:href="#SegoeUI-Bold-4e" x="696.107422"/>
     <use xlink:href="#SegoeUI-Bold-44" x="775.111328"/>
     <use xlink:href="#SegoeUI-Bold-41" x="847.341797"/>
     <use xlink:href="#SegoeUI-Bold-4d" x="917.654297"/>
     <use xlink:href="#SegoeUI-Bold-45" x="1013.357422"/>
     <use xlink:href="#SegoeUI-Bold-4e" x="1066.580078"/>
     <use xlink:href="#SegoeUI-Bold-54" x="1145.583984"/>
     <use xlink:href="#SegoeUI-Bold-41" x="1197.177734"/>
     <use xlink:href="#SegoeUI-Bold-4c" x="1267.490234"/>
    </g>
   </g>
   <g id="text_8">
    <!-- $\sin^2\theta + \cos^2\theta = 1$ -->
    <g style="fill: #2c2f33" transform="translate(714.13964 114.253279) scale(0.16 -0.16)">
     <defs>
      <path id="DejaVuSans-73" d="M 2834 3397 
L 2834 2853 
Q 2591 2978 2328 3040 
Q 2066 3103 1784 3103 
Q 1356 3103 1142 2972 
Q 928 2841 928 2578 
Q 928 2378 1081 2264 
Q 1234 2150 1697 2047 
L 1894 2003 
Q 2506 1872 2764 1633 
Q 3022 1394 3022 966 
Q 3022 478 2636 193 
Q 2250 -91 1575 -91 
Q 1294 -91 989 -36 
Q 684 19 347 128 
L 347 722 
Q 666 556 975 473 
Q 1284 391 1588 391 
Q 1994 391 2212 530 
Q 2431 669 2431 922 
Q 2431 1156 2273 1281 
Q 2116 1406 1581 1522 
L 1381 1569 
Q 847 1681 609 1914 
Q 372 2147 372 2553 
Q 372 3047 722 3315 
Q 1072 3584 1716 3584 
Q 2034 3584 2315 3537 
Q 2597 3491 2834 3397 
z
" transform="scale(0.015625)"/>
      <path id="DejaVuSans-69" d="M 603 3500 
L 1178 3500 
L 1178 0 
L 603 0 
L 603 3500 
z
M 603 4863 
L 1178 4863 
L 1178 4134 
L 603 4134 
L 603 4863 
z
" transform="scale(0.015625)"/>
      <path id="DejaVuSans-6e" d="M 3513 2113 
L 3513 0 
L 2938 0 
L 2938 2094 
Q 2938 2591 2744 2837 
Q 2550 3084 2163 3084 
Q 1697 3084 1428 2787 
Q 1159 2491 1159 1978 
L 1159 0 
L 581 0 
L 581 3500 
L 1159 3500 
L 1159 2956 
Q 1366 3272 1645 3428 
Q 1925 3584 2291 3584 
Q 2894 3584 3203 3211 
Q 3513 2838 3513 2113 
z
" transform="scale(0.015625)"/>
      <path id="DejaVuSans-32" d="M 1228 531 
L 3431 531 
L 3431 0 
L 469 0 
L 469 531 
Q 828 903 1448 1529 
Q 2069 2156 2228 2338 
Q 2531 2678 2651 2914 
Q 2772 3150 2772 3378 
Q 2772 3750 2511 3984 
Q 2250 4219 1831 4219 
Q 1534 4219 1204 4116 
Q 875 4013 500 3803 
L 500 4441 
Q 881 4594 1212 4672 
Q 1544 4750 1819 4750 
Q 2544 4750 2975 4387 
Q 3406 4025 3406 3419 
Q 3406 3131 3298 2873 
Q 3191 2616 2906 2266 
Q 2828 2175 2409 1742 
Q 1991 1309 1228 531 
z
" transform="scale(0.015625)"/>
      <path id="DejaVuSans-Oblique-3b8" d="M 2913 2219 
L 925 2219 
Q 791 1284 928 888 
Q 1100 400 1566 400 
Q 2034 400 2391 891 
Q 2703 1322 2913 2219 
z
M 3009 2750 
Q 3094 3638 2984 3950 
Q 2813 4444 2353 4444 
Q 1875 4444 1525 3956 
Q 1250 3563 1034 2750 
L 3009 2750 
z
M 2444 4913 
Q 3194 4913 3494 4250 
Q 3794 3591 3566 2422 
Q 3341 1256 2781 594 
Q 2225 -72 1475 -72 
Q 722 -72 425 594 
Q 128 1256 353 2422 
Q 581 3591 1134 4250 
Q 1691 4913 2444 4913 
z
" transform="scale(0.015625)"/>
      <path id="DejaVuSans-2b" d="M 2944 4013 
L 2944 2272 
L 4684 2272 
L 4684 1741 
L 2944 1741 
L 2944 0 
L 2419 0 
L 2419 1741 
L 678 1741 
L 678 2272 
L 2419 2272 
L 2419 4013 
L 2944 4013 
z
" transform="scale(0.015625)"/>
      <path id="DejaVuSans-63" d="M 3122 3366 
L 3122 2828 
Q 2878 2963 2633 3030 
Q 2388 3097 2138 3097 
Q 1578 3097 1268 2742 
Q 959 2388 959 1747 
Q 959 1106 1268 751 
Q 1578 397 2138 397 
Q 2388 397 2633 464 
Q 2878 531 3122 666 
L 3122 134 
Q 2881 22 2623 -34 
Q 2366 -91 2075 -91 
Q 1284 -91 818 406 
Q 353 903 353 1747 
Q 353 2603 823 3093 
Q 1294 3584 2113 3584 
Q 2378 3584 2631 3529 
Q 2884 3475 3122 3366 
z
" transform="scale(0.015625)"/>
      <path id="DejaVuSans-6f" d="M 1959 3097 
Q 1497 3097 1228 2736 
Q 959 2375 959 1747 
Q 959 1119 1226 758 
Q 1494 397 1959 397 
Q 2419 397 2687 759 
Q 2956 1122 2956 1747 
Q 2956 2369 2687 2733 
Q 2419 3097 1959 3097 
z
M 1959 3584 
Q 2709 3584 3137 3096 
Q 3566 2609 3566 1747 
Q 3566 888 3137 398 
Q 2709 -91 1959 -91 
Q 1206 -91 779 398 
Q 353 888 353 1747 
Q 353 2609 779 3096 
Q 1206 3584 1959 3584 
z
" transform="scale(0.015625)"/>
      <path id="DejaVuSans-3d" d="M 678 2906 
L 4684 2906 
L 4684 2381 
L 678 2381 
L 678 2906 
z
M 678 1631 
L 4684 1631 
L 4684 1100 
L 678 1100 
L 678 1631 
z
" transform="scale(0.015625)"/>
      <path id="DejaVuSans-31" d="M 794 531 
L 1825 531 
L 1825 4091 
L 703 3866 
L 703 4441 
L 1819 4666 
L 2450 4666 
L 2450 531 
L 3481 531 
L 3481 0 
L 794 0 
L 794 531 
z
" transform="scale(0.015625)"/>
     </defs>
     <use xlink:href="#DejaVuSans-73" transform="translate(0 0.765625)"/>
     <use xlink:href="#DejaVuSans-69" transform="translate(52.099609 0.765625)"/>
     <use xlink:href="#DejaVuSans-6e" transform="translate(79.882812 0.765625)"/>
     <use xlink:href="#DejaVuSans-32" transform="translate(144.21875 39.046875) scale(0.7)"/>
     <use xlink:href="#DejaVuSans-Oblique-3b8" transform="translate(207.724934 0.765625)"/>
     <use xlink:href="#DejaVuSans-2b" transform="translate(288.388997 0.765625)"/>
     <use xlink:href="#DejaVuSans-63" transform="translate(391.660481 0.765625)"/>
     <use xlink:href="#DejaVuSans-6f" transform="translate(446.64095 0.765625)"/>
     <use xlink:href="#DejaVuSans-73" transform="translate(507.82259 0.765625)"/>
     <use xlink:href="#DejaVuSans-32" transform="translate(560.879231 39.046875) scale(0.7)"/>
     <use xlink:href="#DejaVuSans-Oblique-3b8" transform="translate(624.385415 0.765625)"/>
     <use xlink:href="#DejaVuSans-3d" transform="translate(705.049478 0.765625)"/>
     <use xlink:href="#DejaVuSans-31" transform="translate(808.320962 0.765625)"/>
    </g>
   </g>
   <g id="text_9">
    <!-- Identidades Derivadas -->
    <g style="fill: #1f2937" transform="translate(731.819171 175.300925) scale(0.1 -0.1)">
     <defs>
      <path id="SegoeUI-Bold-64" d="M 3547 0 
L 2559 0 
L 2559 441 
L 2547 441 
Q 2209 -78 1556 -78 
Q 956 -78 590 345 
Q 225 769 225 1528 
Q 225 2322 628 2800 
Q 1031 3278 1684 3278 
Q 2303 3278 2547 2834 
L 2559 2834 
L 2559 4738 
L 3547 4738 
L 3547 0 
z
M 2578 1556 
L 2578 1797 
Q 2578 2109 2397 2315 
Q 2216 2522 1925 2522 
Q 1597 2522 1412 2264 
Q 1228 2006 1228 1556 
Q 1228 1134 1406 906 
Q 1584 678 1900 678 
Q 2200 678 2389 918 
Q 2578 1159 2578 1556 
z
" transform="scale(0.015625)"/>
      <path id="SegoeUI-Bold-76" d="M 3463 3200 
L 2272 0 
L 1147 0 
L 13 3200 
L 1069 3200 
L 1625 1228 
Q 1719 894 1734 659 
L 1747 659 
Q 1769 881 1863 1209 
L 2431 3200 
L 3463 3200 
z
" transform="scale(0.015625)"/>
     </defs>
     <use xlink:href="#SegoeUI-Bold-49"/>
     <use xlink:href="#SegoeUI-Bold-64" x="31.689453"/>
     <use xlink:href="#SegoeUI-Bold-65" x="93.603516"/>
     <use xlink:href="#SegoeUI-Bold-6e" x="147.705078"/>
     <use xlink:href="#SegoeUI-Bold-74" x="208.203125"/>
     <use xlink:href="#SegoeUI-Bold-69" x="247.119141"/>
     <use xlink:href="#SegoeUI-Bold-64" x="275.537109"/>
     <use xlink:href="#SegoeUI-Bold-61" x="337.451172"/>
     <use xlink:href="#SegoeUI-Bold-64" x="391.259766"/>
     <use xlink:href="#SegoeUI-Bold-65" x="453.173828"/>
     <use xlink:href="#SegoeUI-Bold-73" x="507.275391"/>
     <use xlink:href="#SegoeUI-Bold-20" x="551.269531"/>
     <use xlink:href="#SegoeUI-Bold-44" x="578.857422"/>
     <use xlink:href="#SegoeUI-Bold-65" x="652.587891"/>
     <use xlink:href="#SegoeUI-Bold-72" x="706.689453"/>
     <use xlink:href="#SegoeUI-Bold-69" x="746.859375"/>
     <use xlink:href="#SegoeUI-Bold-76" x="775.277344"/>
     <use xlink:href="#SegoeUI-Bold-61" x="827.976562"/>
     <use xlink:href="#SegoeUI-Bold-64" x="881.785156"/>
     <use xlink:href="#SegoeUI-Bold-61" x="943.699219"/>
     <use xlink:href="#SegoeUI-Bold-73" x="997.507812"/>
    </g>
   </g>
   <g id="text_10">
    <!-- $1 + \tan^2\theta = \sec^2\theta$ -->
    <g style="fill: #2c2f33" transform="translate(725.85464 211.929512) scale(0.13 -0.13)">
     <defs>
      <path id="DejaVuSans-74" d="M 1172 4494 
L 1172 3500 
L 2356 3500 
L 2356 3053 
L 1172 3053 
L 1172 1153 
Q 1172 725 1289 603 
Q 1406 481 1766 481 
L 2356 481 
L 2356 0 
L 1766 0 
Q 1100 0 847 248 
Q 594 497 594 1153 
L 594 3053 
L 172 3053 
L 172 3500 
L 594 3500 
L 594 4494 
L 1172 4494 
z
" transform="scale(0.015625)"/>
      <path id="DejaVuSans-61" d="M 2194 1759 
Q 1497 1759 1228 1600 
Q 959 1441 959 1056 
Q 959 750 1161 570 
Q 1363 391 1709 391 
Q 2188 391 2477 730 
Q 2766 1069 2766 1631 
L 2766 1759 
L 2194 1759 
z
M 3341 1997 
L 3341 0 
L 2766 0 
L 2766 531 
Q 2569 213 2275 61 
Q 1981 -91 1556 -91 
Q 1019 -91 701 211 
Q 384 513 384 1019 
Q 384 1609 779 1909 
Q 1175 2209 1959 2209 
L 2766 2209 
L 2766 2266 
Q 2766 2663 2505 2880 
Q 2244 3097 1772 3097 
Q 1472 3097 1187 3025 
Q 903 2953 641 2809 
L 641 3341 
Q 956 3463 1253 3523 
Q 1550 3584 1831 3584 
Q 2591 3584 2966 3190 
Q 3341 2797 3341 1997 
z
" transform="scale(0.015625)"/>
      <path id="DejaVuSans-65" d="M 3597 1894 
L 3597 1613 
L 953 1613 
Q 991 1019 1311 708 
Q 1631 397 2203 397 
Q 2534 397 2845 478 
Q 3156 559 3463 722 
L 3463 178 
Q 3153 47 2828 -22 
Q 2503 -91 2169 -91 
Q 1331 -91 842 396 
Q 353 884 353 1716 
Q 353 2575 817 3079 
Q 1281 3584 2069 3584 
Q 2775 3584 3186 3129 
Q 3597 2675 3597 1894 
z
M 3022 2063 
Q 3016 2534 2758 2815 
Q 2500 3097 2075 3097 
Q 1594 3097 1305 2825 
Q 1016 2553 972 2059 
L 3022 2063 
z
" transform="scale(0.015625)"/>
     </defs>
     <use xlink:href="#DejaVuSans-31" transform="translate(0 0.765625)"/>
     <use xlink:href="#DejaVuSans-2b" transform="translate(83.105469 0.765625)"/>
     <use xlink:href="#DejaVuSans-74" transform="translate(186.376953 0.765625)"/>
     <use xlink:href="#DejaVuSans-61" transform="translate(225.585938 0.765625)"/>
     <use xlink:href="#DejaVuSans-6e" transform="translate(286.865234 0.765625)"/>
     <use xlink:href="#DejaVuSans-32" transform="translate(351.201172 39.046875) scale(0.7)"/>
     <use xlink:href="#DejaVuSans-Oblique-3b8" transform="translate(414.707356 0.765625)"/>
     <use xlink:href="#DejaVuSans-3d" transform="translate(495.371418 0.765625)"/>
     <use xlink:href="#DejaVuSans-73" transform="translate(598.642903 0.765625)"/>
     <use xlink:href="#DejaVuSans-65" transform="translate(650.742512 0.765625)"/>
     <use xlink:href="#DejaVuSans-63" transform="translate(712.26595 0.765625)"/>
     <use xlink:href="#DejaVuSans-32" transform="translate(768.20345 39.046875) scale(0.7)"/>
     <use xlink:href="#DejaVuSans-Oblique-3b8" transform="translate(831.709634 0.765625)"/>
    </g>
   </g>
   <g id="text_11">
    <!-- (dividiendo entre cos²θ) -->
    <g style="fill: #6b7280" transform="translate(738.321671 239.400952) scale(0.09 -0.09)">
     <defs>
      <path id="SegoeUI-Italic-28" d="M 2541 4481 
Q 2153 4100 1842 3694 
Q 1531 3288 1312 2853 
Q 1094 2419 975 1951 
Q 856 1484 856 978 
Q 856 728 889 473 
Q 922 219 987 -26 
Q 1053 -272 1147 -503 
Q 1241 -734 1363 -934 
L 922 -934 
Q 791 -728 692 -495 
Q 594 -263 528 -19 
Q 463 225 430 472 
Q 397 719 397 953 
Q 397 1494 512 1973 
Q 628 2453 840 2887 
Q 1053 3322 1358 3717 
Q 1663 4113 2041 4481 
L 2541 4481 
z
" transform="scale(0.015625)"/>
      <path id="SegoeUI-Italic-64" d="M 2816 984 
Q 2794 884 2773 743 
Q 2753 603 2737 461 
Q 2722 319 2711 194 
Q 2700 69 2700 0 
L 2169 0 
Q 2169 53 2176 142 
Q 2184 231 2195 328 
Q 2206 425 2218 514 
Q 2231 603 2241 659 
L 2228 659 
Q 2116 478 2003 339 
Q 1891 200 1766 108 
Q 1641 16 1500 -31 
Q 1359 -78 1191 -78 
Q 972 -78 797 0 
Q 622 78 498 229 
Q 375 381 309 604 
Q 244 828 244 1119 
Q 244 1350 292 1600 
Q 341 1850 442 2090 
Q 544 2331 700 2547 
Q 856 2763 1072 2925 
Q 1288 3088 1566 3183 
Q 1844 3278 2188 3278 
Q 2363 3278 2513 3254 
Q 2663 3231 2772 3206 
L 3097 4738 
L 3603 4738 
L 2816 984 
z
M 2681 2766 
Q 2563 2800 2433 2820 
Q 2303 2841 2156 2841 
Q 1884 2841 1676 2756 
Q 1469 2672 1314 2531 
Q 1159 2391 1054 2211 
Q 950 2031 886 1842 
Q 822 1653 795 1470 
Q 769 1288 769 1141 
Q 769 966 798 822 
Q 828 678 895 575 
Q 963 472 1069 415 
Q 1175 359 1325 359 
Q 1481 359 1617 425 
Q 1753 491 1872 603 
Q 1991 716 2087 862 
Q 2184 1009 2262 1175 
Q 2341 1341 2395 1511 
Q 2450 1681 2484 1838 
L 2681 2766 
z
" transform="scale(0.015625)"/>
      <path id="SegoeUI-Italic-69" d="M 1300 13 
Q 1222 -13 1123 -28 
Q 1025 -44 928 -44 
Q 613 -44 456 114 
Q 300 272 300 538 
Q 300 616 315 722 
Q 331 828 366 984 
L 831 3200 
L 1350 3200 
L 881 972 
Q 853 841 842 769 
Q 831 697 831 647 
Q 831 519 901 451 
Q 972 384 1125 384 
Q 1206 384 1267 393 
Q 1328 403 1381 422 
L 1300 13 
z
M 1666 4341 
Q 1666 4200 1570 4100 
Q 1475 4000 1334 4000 
Q 1197 4000 1095 4098 
Q 994 4197 994 4341 
Q 994 4484 1095 4575 
Q 1197 4666 1334 4666 
Q 1472 4666 1569 4573 
Q 1666 4481 1666 4341 
z
" transform="scale(0.015625)"/>
      <path id="SegoeUI-Italic-76" d="M 1369 0 
L 934 0 
L 428 3200 
L 947 3200 
L 1228 1184 
Q 1238 1125 1245 1050 
Q 1253 975 1261 897 
Q 1269 819 1272 744 
Q 1275 669 1275 609 
L 1288 609 
Q 1313 666 1345 737 
Q 1378 809 1418 886 
Q 1459 963 1501 1041 
Q 1544 1119 1581 1184 
L 2725 3200 
L 3309 3200 
L 1369 0 
z
" transform="scale(0.015625)"/>
      <path id="SegoeUI-Italic-65" d="M 2994 2450 
Q 2994 2197 2881 1989 
Q 2769 1781 2509 1632 
Q 2250 1484 1825 1403 
Q 1400 1322 775 1319 
Q 769 1284 769 1247 
Q 769 1213 769 1184 
Q 769 1016 816 866 
Q 863 716 961 603 
Q 1059 491 1214 425 
Q 1369 359 1581 359 
Q 1797 359 2055 442 
Q 2313 525 2547 678 
L 2450 172 
Q 2278 72 2040 -3 
Q 1803 -78 1509 -78 
Q 1156 -78 914 31 
Q 672 141 523 323 
Q 375 506 309 745 
Q 244 984 244 1247 
Q 244 1528 306 1789 
Q 369 2050 483 2275 
Q 597 2500 756 2686 
Q 916 2872 1109 3003 
Q 1303 3134 1525 3206 
Q 1747 3278 1984 3278 
Q 2231 3278 2420 3212 
Q 2609 3147 2736 3033 
Q 2863 2919 2928 2769 
Q 2994 2619 2994 2450 
z
M 2472 2425 
Q 2472 2622 2326 2731 
Q 2181 2841 1941 2841 
Q 1750 2841 1572 2758 
Q 1394 2675 1244 2529 
Q 1094 2384 984 2182 
Q 875 1981 825 1747 
Q 1272 1747 1584 1792 
Q 1897 1838 2094 1925 
Q 2291 2013 2381 2139 
Q 2472 2266 2472 2425 
z
" transform="scale(0.015625)"/>
      <path id="SegoeUI-Italic-6e" d="M 3269 2400 
Q 3269 2353 3258 2272 
Q 3247 2191 3230 2097 
Q 3213 2003 3195 1911 
Q 3178 1819 3163 1753 
L 2791 0 
L 2272 0 
L 2663 1875 
Q 2675 1925 2687 1990 
Q 2700 2056 2709 2122 
Q 2719 2188 2725 2242 
Q 2731 2297 2731 2328 
Q 2731 2566 2617 2703 
Q 2503 2841 2278 2841 
Q 2072 2841 1869 2719 
Q 1666 2597 1494 2409 
Q 1322 2222 1198 1997 
Q 1075 1772 1031 1563 
L 697 0 
L 178 0 
L 672 2284 
Q 697 2406 722 2539 
Q 747 2672 769 2795 
Q 791 2919 806 3025 
Q 822 3131 831 3200 
L 1331 3200 
Q 1316 3078 1294 2945 
Q 1272 2813 1256 2700 
Q 1238 2569 1216 2444 
L 1228 2444 
Q 1338 2616 1470 2767 
Q 1603 2919 1758 3033 
Q 1913 3147 2086 3212 
Q 2259 3278 2450 3278 
Q 2663 3278 2816 3214 
Q 2969 3150 3070 3034 
Q 3172 2919 3220 2756 
Q 3269 2594 3269 2400 
z
" transform="scale(0.015625)"/>
      <path id="SegoeUI-Italic-6f" d="M 3181 2016 
Q 3181 1591 3061 1209 
Q 2941 828 2714 542 
Q 2488 256 2164 89 
Q 1841 -78 1434 -78 
Q 1159 -78 939 9 
Q 719 97 564 261 
Q 409 425 326 658 
Q 244 891 244 1184 
Q 244 1625 370 2008 
Q 497 2391 726 2673 
Q 956 2956 1276 3117 
Q 1597 3278 1984 3278 
Q 2256 3278 2476 3190 
Q 2697 3103 2853 2939 
Q 3009 2775 3095 2542 
Q 3181 2309 3181 2016 
z
M 2656 1991 
Q 2656 2194 2606 2351 
Q 2556 2509 2465 2617 
Q 2375 2725 2247 2783 
Q 2119 2841 1959 2841 
Q 1684 2841 1462 2700 
Q 1241 2559 1087 2329 
Q 934 2100 851 1808 
Q 769 1516 769 1209 
Q 769 1016 817 858 
Q 866 700 955 589 
Q 1044 478 1173 418 
Q 1303 359 1466 359 
Q 1744 359 1966 498 
Q 2188 638 2341 867 
Q 2494 1097 2575 1390 
Q 2656 1684 2656 1991 
z
" transform="scale(0.015625)"/>
      <path id="SegoeUI-Italic-20" transform="scale(0.015625)"/>
      <path id="SegoeUI-Italic-74" d="M 2156 2766 
L 1350 2766 
L 991 1069 
Q 972 972 953 859 
Q 934 747 934 678 
Q 934 519 1004 448 
Q 1075 378 1228 378 
Q 1266 378 1325 390 
Q 1384 403 1446 422 
Q 1509 441 1570 464 
Q 1631 488 1678 506 
L 1581 56 
Q 1472 9 1333 -23 
Q 1194 -56 1069 -56 
Q 891 -56 766 -11 
Q 641 34 561 118 
Q 481 203 445 323 
Q 409 444 409 594 
Q 409 684 426 804 
Q 444 925 469 1025 
L 838 2766 
L 306 2766 
L 403 3200 
L 928 3200 
L 1094 3981 
Q 1106 3988 1189 4011 
Q 1272 4034 1370 4064 
Q 1469 4094 1551 4119 
Q 1634 4144 1644 4147 
L 1447 3200 
L 2253 3200 
L 2156 2766 
z
" transform="scale(0.015625)"/>
      <path id="SegoeUI-Italic-72" d="M 2394 2656 
L 2381 2656 
Q 2319 2694 2217 2730 
Q 2116 2766 2016 2766 
Q 1834 2766 1668 2648 
Q 1503 2531 1367 2339 
Q 1231 2147 1129 1900 
Q 1028 1653 972 1394 
L 672 0 
L 159 0 
L 609 2125 
Q 638 2256 666 2400 
Q 694 2544 717 2687 
Q 741 2831 759 2962 
Q 778 3094 788 3200 
L 1294 3200 
Q 1284 3106 1271 3001 
Q 1259 2897 1246 2798 
Q 1234 2700 1221 2620 
Q 1209 2541 1203 2497 
L 1216 2497 
Q 1316 2675 1419 2819 
Q 1522 2963 1636 3064 
Q 1750 3166 1878 3222 
Q 2006 3278 2156 3278 
Q 2244 3278 2330 3261 
Q 2416 3244 2484 3225 
L 2394 2656 
z
" transform="scale(0.015625)"/>
      <path id="SegoeUI-Italic-63" d="M 2700 2566 
Q 2569 2681 2383 2761 
Q 2197 2841 1972 2841 
Q 1756 2841 1582 2766 
Q 1409 2691 1275 2566 
Q 1141 2441 1044 2278 
Q 947 2116 884 1941 
Q 822 1766 792 1592 
Q 763 1419 763 1269 
Q 763 822 959 590 
Q 1156 359 1497 359 
Q 1703 359 1925 445 
Q 2147 531 2344 666 
L 2234 153 
Q 2031 44 1829 -17 
Q 1628 -78 1403 -78 
Q 1109 -78 892 22 
Q 675 122 531 297 
Q 388 472 316 711 
Q 244 950 244 1228 
Q 244 1491 297 1745 
Q 350 2000 454 2226 
Q 559 2453 712 2647 
Q 866 2841 1064 2980 
Q 1263 3119 1506 3198 
Q 1750 3278 2034 3278 
Q 2169 3278 2291 3259 
Q 2413 3241 2513 3209 
Q 2613 3178 2691 3142 
Q 2769 3106 2816 3072 
L 2700 2566 
z
" transform="scale(0.015625)"/>
      <path id="SegoeUI-Italic-73" d="M 2266 2638 
Q 2125 2728 1950 2784 
Q 1775 2841 1600 2841 
Q 1306 2841 1145 2706 
Q 984 2572 984 2350 
Q 984 2259 1014 2184 
Q 1044 2109 1101 2042 
Q 1159 1975 1248 1912 
Q 1338 1850 1453 1778 
Q 1803 1575 1958 1361 
Q 2113 1147 2113 878 
Q 2113 697 2045 523 
Q 1978 350 1831 217 
Q 1684 84 1451 3 
Q 1219 -78 884 -78 
Q 791 -78 678 -65 
Q 566 -53 452 -28 
Q 338 -3 233 33 
Q 128 69 50 116 
L 153 603 
Q 216 559 308 515 
Q 400 472 508 437 
Q 616 403 733 381 
Q 850 359 966 359 
Q 1278 359 1433 484 
Q 1588 609 1588 831 
Q 1588 913 1564 981 
Q 1541 1050 1481 1119 
Q 1422 1188 1325 1258 
Q 1228 1328 1081 1416 
Q 763 1609 611 1820 
Q 459 2031 459 2297 
Q 459 2491 531 2667 
Q 603 2844 745 2980 
Q 888 3116 1103 3197 
Q 1319 3278 1606 3278 
Q 1831 3278 2032 3234 
Q 2234 3191 2375 3122 
L 2266 2638 
z
" transform="scale(0.015625)"/>
      <path id="SegoeUI-Italic-b2" d="M 2325 2785 
L 594 2785 
L 647 3041 
Q 681 3204 767 3333 
Q 853 3463 973 3574 
Q 1094 3685 1236 3780 
Q 1378 3876 1520 3968 
Q 1663 4060 1795 4150 
Q 1928 4241 2031 4344 
Q 2134 4448 2196 4566 
Q 2259 4685 2259 4829 
Q 2259 4969 2164 5044 
Q 2069 5119 1900 5119 
Q 1525 5119 1156 4801 
L 1253 5266 
Q 1566 5504 2038 5504 
Q 2191 5504 2312 5458 
Q 2434 5413 2520 5333 
Q 2606 5254 2653 5141 
Q 2700 5029 2700 4898 
Q 2700 4648 2590 4451 
Q 2481 4254 2315 4094 
Q 2150 3935 1953 3808 
Q 1756 3682 1584 3577 
Q 1413 3473 1291 3380 
Q 1169 3288 1150 3201 
L 1144 3166 
L 2403 3166 
L 2325 2785 
z
" transform="scale(0.015625)"/>
      <path id="SegoeUI-Italic-3b8" d="M 3609 3413 
Q 3609 3316 3601 3189 
Q 3594 3063 3580 2922 
Q 3566 2781 3542 2632 
Q 3519 2484 3488 2338 
Q 3369 1763 3181 1314 
Q 2994 866 2744 556 
Q 2494 247 2186 84 
Q 1878 -78 1516 -78 
Q 1253 -78 1039 9 
Q 825 97 670 278 
Q 516 459 431 737 
Q 347 1016 347 1394 
Q 347 1491 353 1606 
Q 359 1722 373 1850 
Q 388 1978 408 2114 
Q 428 2250 453 2381 
Q 566 2941 755 3391 
Q 944 3841 1200 4156 
Q 1456 4472 1778 4642 
Q 2100 4813 2478 4813 
Q 2759 4813 2971 4714 
Q 3184 4616 3326 4433 
Q 3469 4250 3539 3992 
Q 3609 3734 3609 3413 
z
M 3103 3397 
Q 3103 3613 3067 3794 
Q 3031 3975 2950 4108 
Q 2869 4241 2742 4316 
Q 2616 4391 2431 4391 
Q 2178 4391 1961 4252 
Q 1744 4113 1567 3872 
Q 1391 3631 1259 3306 
Q 1128 2981 1050 2606 
L 3009 2606 
Q 3053 2813 3078 3014 
Q 3103 3216 3103 3397 
z
M 959 2194 
Q 916 1969 894 1773 
Q 872 1578 872 1409 
Q 872 875 1047 611 
Q 1222 347 1556 347 
Q 2016 347 2369 809 
Q 2722 1272 2919 2194 
L 959 2194 
z
" transform="scale(0.015625)"/>
      <path id="SegoeUI-Italic-29" d="M 1575 2591 
Q 1575 2053 1459 1572 
Q 1344 1091 1130 658 
Q 916 225 611 -170 
Q 306 -566 -72 -934 
L -575 -934 
Q -188 -553 125 -148 
Q 438 256 656 690 
Q 875 1125 994 1592 
Q 1113 2059 1113 2566 
Q 1113 2816 1080 3069 
Q 1047 3322 983 3569 
Q 919 3816 825 4047 
Q 731 4278 609 4481 
L 1044 4481 
Q 1175 4272 1275 4037 
Q 1375 3803 1440 3559 
Q 1506 3316 1540 3070 
Q 1575 2825 1575 2591 
z
" transform="scale(0.015625)"/>
     </defs>
     <use xlink:href="#SegoeUI-Italic-28"/>
     <use xlink:href="#SegoeUI-Italic-64" x="30.419922"/>
     <use xlink:href="#SegoeUI-Italic-69" x="84.619141"/>
     <use xlink:href="#SegoeUI-Italic-76" x="110.498047"/>
     <use xlink:href="#SegoeUI-Italic-69" x="157.8125"/>
     <use xlink:href="#SegoeUI-Italic-64" x="183.691406"/>
     <use xlink:href="#SegoeUI-Italic-69" x="237.890625"/>
     <use xlink:href="#SegoeUI-Italic-65" x="263.769531"/>
     <use xlink:href="#SegoeUI-Italic-6e" x="312.451172"/>
     <use xlink:href="#SegoeUI-Italic-64" x="368.652344"/>
     <use xlink:href="#SegoeUI-Italic-6f" x="422.851562"/>
     <use xlink:href="#SegoeUI-Italic-20" x="476.367188"/>
     <use xlink:href="#SegoeUI-Italic-65" x="503.857422"/>
     <use xlink:href="#SegoeUI-Italic-6e" x="552.539062"/>
     <use xlink:href="#SegoeUI-Italic-74" x="608.740234"/>
     <use xlink:href="#SegoeUI-Italic-72" x="641.064453"/>
     <use xlink:href="#SegoeUI-Italic-65" x="676.6875"/>
     <use xlink:href="#SegoeUI-Italic-20" x="725.369141"/>
     <use xlink:href="#SegoeUI-Italic-63" x="752.859375"/>
     <use xlink:href="#SegoeUI-Italic-6f" x="795.587891"/>
     <use xlink:href="#SegoeUI-Italic-73" x="849.103516"/>
     <use xlink:href="#SegoeUI-Italic-b2" x="888.605469"/>
     <use xlink:href="#SegoeUI-Italic-3b8" x="925.226562"/>
     <use xlink:href="#SegoeUI-Italic-29" x="982.404297"/>
    </g>
   </g>
   <g id="text_12">
    <!-- $1 + \cot^2\theta = \csc^2\theta$ -->
    <g style="fill: #2c2f33" transform="translate(726.82964 279.081922) scale(0.13 -0.13)">
     <use xlink:href="#DejaVuSans-31" transform="translate(0 0.765625)"/>
     <use xlink:href="#DejaVuSans-2b" transform="translate(83.105469 0.765625)"/>
     <use xlink:href="#DejaVuSans-63" transform="translate(186.376953 0.765625)"/>
     <use xlink:href="#DejaVuSans-6f" transform="translate(241.357422 0.765625)"/>
     <use xlink:href="#DejaVuSans-74" transform="translate(302.539062 0.765625)"/>
     <use xlink:href="#DejaVuSans-32" transform="translate(342.705078 39.046875) scale(0.7)"/>
     <use xlink:href="#DejaVuSans-Oblique-3b8" transform="translate(406.211262 0.765625)"/>
     <use xlink:href="#DejaVuSans-3d" transform="translate(486.875325 0.765625)"/>
     <use xlink:href="#DejaVuSans-63" transform="translate(590.146809 0.765625)"/>
     <use xlink:href="#DejaVuSans-73" transform="translate(645.127278 0.765625)"/>
     <use xlink:href="#DejaVuSans-63" transform="translate(697.226887 0.765625)"/>
     <use xlink:href="#DejaVuSans-32" transform="translate(753.164387 39.046875) scale(0.7)"/>
     <use xlink:href="#DejaVuSans-Oblique-3b8" transform="translate(816.670571 0.765625)"/>
    </g>
   </g>
   <g id="text_13">
    <!-- (dividiendo entre sin²θ) -->
    <g style="fill: #6b7280" transform="translate(738.959406 306.553362) scale(0.09 -0.09)">
     <use xlink:href="#SegoeUI-Italic-28"/>
     <use xlink:href="#SegoeUI-Italic-64" x="30.419922"/>
     <use xlink:href="#SegoeUI-Italic-69" x="84.619141"/>
     <use xlink:href="#SegoeUI-Italic-76" x="110.498047"/>
     <use xlink:href="#SegoeUI-Italic-69" x="157.8125"/>
     <use xlink:href="#SegoeUI-Italic-64" x="183.691406"/>
     <use xlink:href="#SegoeUI-Italic-69" x="237.890625"/>
     <use xlink:href="#SegoeUI-Italic-65" x="263.769531"/>
     <use xlink:href="#SegoeUI-Italic-6e" x="312.451172"/>
     <use xlink:href="#SegoeUI-Italic-64" x="368.652344"/>
     <use xlink:href="#SegoeUI-Italic-6f" x="422.851562"/>
     <use xlink:href="#SegoeUI-Italic-20" x="476.367188"/>
     <use xlink:href="#SegoeUI-Italic-65" x="503.857422"/>
     <use xlink:href="#SegoeUI-Italic-6e" x="552.539062"/>
     <use xlink:href="#SegoeUI-Italic-74" x="608.740234"/>
     <use xlink:href="#SegoeUI-Italic-72" x="641.064453"/>
     <use xlink:href="#SegoeUI-Italic-65" x="676.6875"/>
     <use xlink:href="#SegoeUI-Italic-20" x="725.369141"/>
     <use xlink:href="#SegoeUI-Italic-73" x="752.859375"/>
     <use xlink:href="#SegoeUI-Italic-69" x="792.361328"/>
     <use xlink:href="#SegoeUI-Italic-6e" x="818.240234"/>
     <use xlink:href="#SegoeUI-Italic-b2" x="874.441406"/>
     <use xlink:href="#SegoeUI-Italic-3b8" x="911.0625"/>
     <use xlink:href="#SegoeUI-Italic-29" x="968.240234"/>
    </g>
   </g>
   <g id="text_14">
    <!-- Las Tres Identidades Pitagóricas -->
    <g style="fill: #2c2f33" transform="translate(701.858546 34.996105) scale(0.11 -0.11)">
     <defs>
      <path id="SegoeUI-Bold-67" d="M 3553 366 
Q 3553 -525 3037 -1014 
Q 2522 -1503 1544 -1503 
Q 897 -1503 519 -1319 
L 519 -488 
Q 1013 -775 1516 -775 
Q 2016 -775 2291 -511 
Q 2566 -247 2566 206 
L 2566 459 
L 2553 459 
Q 2216 -78 1556 -78 
Q 944 -78 584 353 
Q 225 784 225 1509 
Q 225 2322 625 2800 
Q 1025 3278 1678 3278 
Q 2263 3278 2553 2828 
L 2566 2828 
L 2566 3200 
L 3553 3200 
L 3553 366 
z
M 2578 1538 
L 2578 1791 
Q 2578 2094 2398 2308 
Q 2219 2522 1931 2522 
Q 1603 2522 1415 2265 
Q 1228 2009 1228 1544 
Q 1228 1144 1406 911 
Q 1584 678 1894 678 
Q 2200 678 2389 914 
Q 2578 1150 2578 1538 
z
" transform="scale(0.015625)"/>
      <path id="SegoeUI-Bold-f3" d="M 1941 -78 
Q 1141 -78 683 370 
Q 225 819 225 1588 
Q 225 2381 700 2829 
Q 1175 3278 1984 3278 
Q 2781 3278 3234 2829 
Q 3688 2381 3688 1644 
Q 3688 847 3220 384 
Q 2753 -78 1941 -78 
z
M 1966 2522 
Q 1616 2522 1422 2281 
Q 1228 2041 1228 1600 
Q 1228 678 1972 678 
Q 2681 678 2681 1625 
Q 2681 2522 1966 2522 
z
M 3023 4716 
L 2044 3706 
L 1332 3706 
L 2144 4716 
L 3023 4716 
z
" transform="scale(0.015625)"/>
     </defs>
     <use xlink:href="#SegoeUI-Bold-4c"/>
     <use xlink:href="#SegoeUI-Bold-61" x="51.123047"/>
     <use xlink:href="#SegoeUI-Bold-73" x="104.931641"/>
     <use xlink:href="#SegoeUI-Bold-20" x="148.925781"/>
     <use xlink:href="#SegoeUI-Bold-54" x="176.513672"/>
     <use xlink:href="#SegoeUI-Bold-72" x="227.607422"/>
     <use xlink:href="#SegoeUI-Bold-65" x="267.027344"/>
     <use xlink:href="#SegoeUI-Bold-73" x="321.128906"/>
     <use xlink:href="#SegoeUI-Bold-20" x="365.123047"/>
     <use xlink:href="#SegoeUI-Bold-49" x="392.710938"/>
     <use xlink:href="#SegoeUI-Bold-64" x="424.400391"/>
     <use xlink:href="#SegoeUI-Bold-65" x="486.314453"/>
     <use xlink:href="#SegoeUI-Bold-6e" x="540.416016"/>
     <use xlink:href="#SegoeUI-Bold-74" x="600.914062"/>
     <use xlink:href="#SegoeUI-Bold-69" x="639.830078"/>
     <use xlink:href="#SegoeUI-Bold-64" x="668.248047"/>
     <use xlink:href="#SegoeUI-Bold-61" x="730.162109"/>
     <use xlink:href="#SegoeUI-Bold-64" x="783.970703"/>
     <use xlink:href="#SegoeUI-Bold-65" x="845.884766"/>
     <use xlink:href="#SegoeUI-Bold-73" x="899.986328"/>
     <use xlink:href="#SegoeUI-Bold-20" x="943.980469"/>
     <use xlink:href="#SegoeUI-Bold-50" x="971.568359"/>
     <use xlink:href="#SegoeUI-Bold-69" x="1032.994141"/>
     <use xlink:href="#SegoeUI-Bold-74" x="1061.412109"/>
     <use xlink:href="#SegoeUI-Bold-61" x="1100.328125"/>
     <use xlink:href="#SegoeUI-Bold-67" x="1154.136719"/>
     <use xlink:href="#SegoeUI-Bold-f3" x="1216.050781"/>
     <use xlink:href="#SegoeUI-Bold-72" x="1277.134766"/>
     <use xlink:href="#SegoeUI-Bold-69" x="1317.304688"/>
     <use xlink:href="#SegoeUI-Bold-63" x="1345.722656"/>
     <use xlink:href="#SegoeUI-Bold-61" x="1393.720703"/>
     <use xlink:href="#SegoeUI-Bold-73" x="1447.529297"/>
    </g>
   </g>
  </g>
  <g id="axes_3">
   <g id="patch_5">
    <path d="M 27.23999 636.481261 
L 989.15953 636.481261 
L 989.15953 412.639895 
L 27.23999 412.639895 
z
" clip-path="url(#p1346cc7b39)" style="fill: #eff6ff; stroke: #39c5bb; stroke-width: 1.5; stroke-linejoin: miter"/>
   </g>
   <g id="patch_6">
    <path d="M 257.69988 628.850305 
L 758.69964 628.850305 
L 758.69964 598.326482 
L 257.69988 598.326482 
z
" clip-path="url(#p1346cc7b39)" style="fill: #fef3c7; stroke: #f59e0b; stroke-width: 2; stroke-linejoin: miter"/>
   </g>
   <g id="text_15">
    <!-- Derivación desde el Teorema de Pitágoras -->
    <g style="fill: #39c5bb" transform="translate(400.367104 425.358154) scale(0.11 -0.11)">
     <defs>
      <path id="SegoeUI-Bold-6d" d="M 5497 0 
L 4513 0 
L 4513 1825 
Q 4513 2522 4000 2522 
Q 3756 2522 3603 2312 
Q 3450 2103 3450 1791 
L 3450 0 
L 2463 0 
L 2463 1844 
Q 2463 2522 1959 2522 
Q 1706 2522 1554 2322 
Q 1403 2122 1403 1778 
L 1403 0 
L 416 0 
L 416 3200 
L 1403 3200 
L 1403 2700 
L 1416 2700 
Q 1569 2956 1845 3117 
Q 2122 3278 2450 3278 
Q 3128 3278 3378 2681 
Q 3744 3278 4453 3278 
Q 5497 3278 5497 1991 
L 5497 0 
z
" transform="scale(0.015625)"/>
      <path id="SegoeUI-Bold-e1" d="M 3078 0 
L 2144 0 
L 2144 459 
L 2131 459 
Q 1809 -78 1178 -78 
Q 713 -78 445 186 
Q 178 450 178 891 
Q 178 1822 1281 1966 
L 2150 2081 
Q 2150 2606 1581 2606 
Q 1009 2606 494 2266 
L 494 3009 
Q 700 3116 1058 3197 
Q 1416 3278 1709 3278 
Q 3078 3278 3078 1913 
L 3078 0 
z
M 2150 1300 
L 2150 1516 
L 1569 1441 
Q 1088 1378 1088 1006 
Q 1088 838 1205 730 
Q 1322 622 1522 622 
Q 1800 622 1975 814 
Q 2150 1006 2150 1300 
z
M 2783 4716 
L 1804 3706 
L 1092 3706 
L 1904 4716 
L 2783 4716 
z
" transform="scale(0.015625)"/>
     </defs>
     <use xlink:href="#SegoeUI-Bold-44"/>
     <use xlink:href="#SegoeUI-Bold-65" x="73.730469"/>
     <use xlink:href="#SegoeUI-Bold-72" x="127.832031"/>
     <use xlink:href="#SegoeUI-Bold-69" x="168.001953"/>
     <use xlink:href="#SegoeUI-Bold-76" x="196.419922"/>
     <use xlink:href="#SegoeUI-Bold-61" x="249.119141"/>
     <use xlink:href="#SegoeUI-Bold-63" x="302.927734"/>
     <use xlink:href="#SegoeUI-Bold-69" x="350.925781"/>
     <use xlink:href="#SegoeUI-Bold-f3" x="379.34375"/>
     <use xlink:href="#SegoeUI-Bold-6e" x="440.427734"/>
     <use xlink:href="#SegoeUI-Bold-20" x="500.925781"/>
     <use xlink:href="#SegoeUI-Bold-64" x="528.513672"/>
     <use xlink:href="#SegoeUI-Bold-65" x="590.427734"/>
     <use xlink:href="#SegoeUI-Bold-73" x="644.529297"/>
     <use xlink:href="#SegoeUI-Bold-64" x="688.523438"/>
     <use xlink:href="#SegoeUI-Bold-65" x="750.4375"/>
     <use xlink:href="#SegoeUI-Bold-20" x="804.539062"/>
     <use xlink:href="#SegoeUI-Bold-65" x="832.126953"/>
     <use xlink:href="#SegoeUI-Bold-6c" x="886.228516"/>
     <use xlink:href="#SegoeUI-Bold-20" x="914.646484"/>
     <use xlink:href="#SegoeUI-Bold-54" x="942.234375"/>
     <use xlink:href="#SegoeUI-Bold-65" x="991.828125"/>
     <use xlink:href="#SegoeUI-Bold-6f" x="1045.929688"/>
     <use xlink:href="#SegoeUI-Bold-72" x="1107.0625"/>
     <use xlink:href="#SegoeUI-Bold-65" x="1146.482422"/>
     <use xlink:href="#SegoeUI-Bold-6d" x="1200.583984"/>
     <use xlink:href="#SegoeUI-Bold-61" x="1292.185547"/>
     <use xlink:href="#SegoeUI-Bold-20" x="1345.994141"/>
     <use xlink:href="#SegoeUI-Bold-64" x="1373.582031"/>
     <use xlink:href="#SegoeUI-Bold-65" x="1435.496094"/>
     <use xlink:href="#SegoeUI-Bold-20" x="1489.597656"/>
     <use xlink:href="#SegoeUI-Bold-50" x="1517.185547"/>
     <use xlink:href="#SegoeUI-Bold-69" x="1578.611328"/>
     <use xlink:href="#SegoeUI-Bold-74" x="1607.029297"/>
     <use xlink:href="#SegoeUI-Bold-e1" x="1645.945312"/>
     <use xlink:href="#SegoeUI-Bold-67" x="1699.753906"/>
     <use xlink:href="#SegoeUI-Bold-6f" x="1761.667969"/>
     <use xlink:href="#SegoeUI-Bold-72" x="1822.800781"/>
     <use xlink:href="#SegoeUI-Bold-61" x="1862.595703"/>
     <use xlink:href="#SegoeUI-Bold-73" x="1916.404297"/>
    </g>
   </g>
   <g id="text_16">
    <!-- Paso 1: -->
    <g style="fill: #39c5bb" transform="translate(57.299976 450.794673) scale(0.1 -0.1)">
     <defs>
      <path id="SegoeUI-Bold-3a" d="M 856 2209 
Q 613 2209 450 2357 
Q 288 2506 288 2725 
Q 288 2950 455 3094 
Q 622 3238 872 3238 
Q 1125 3238 1286 3092 
Q 1447 2947 1447 2725 
Q 1447 2497 1283 2353 
Q 1119 2209 856 2209 
z
M 856 -78 
Q 613 -78 450 72 
Q 288 222 288 441 
Q 288 666 455 809 
Q 622 953 872 953 
Q 1125 953 1286 808 
Q 1447 663 1447 441 
Q 1447 213 1283 67 
Q 1119 -78 856 -78 
z
" transform="scale(0.015625)"/>
     </defs>
     <use xlink:href="#SegoeUI-Bold-50"/>
     <use xlink:href="#SegoeUI-Bold-61" x="58.925781"/>
     <use xlink:href="#SegoeUI-Bold-73" x="112.734375"/>
     <use xlink:href="#SegoeUI-Bold-6f" x="156.728516"/>
     <use xlink:href="#SegoeUI-Bold-20" x="217.861328"/>
     <use xlink:href="#SegoeUI-Bold-31" x="245.449219"/>
     <use xlink:href="#SegoeUI-Bold-3a" x="302.96875"/>
    </g>
   </g>
   <g id="text_17">
    <!-- En un triángulo rectángulo:  -->
    <g style="fill: #374151" transform="translate(157.499928 450.794673) scale(0.1 -0.1)">
     <defs>
      <path id="SegoeUI-45" d="M 2963 0 
L 588 0 
L 588 4481 
L 2863 4481 
L 2863 4006 
L 1113 4006 
L 1113 2516 
L 2731 2516 
L 2731 2044 
L 1113 2044 
L 1113 475 
L 2963 475 
L 2963 0 
z
" transform="scale(0.015625)"/>
      <path id="SegoeUI-6e" d="M 3175 0 
L 2663 0 
L 2663 1825 
Q 2663 2844 1919 2844 
Q 1534 2844 1282 2555 
Q 1031 2266 1031 1825 
L 1031 0 
L 519 0 
L 519 3200 
L 1031 3200 
L 1031 2669 
L 1044 2669 
Q 1406 3275 2094 3275 
Q 2619 3275 2897 2936 
Q 3175 2597 3175 1956 
L 3175 0 
z
" transform="scale(0.015625)"/>
      <path id="SegoeUI-20" transform="scale(0.015625)"/>
      <path id="SegoeUI-75" d="M 3106 0 
L 2594 0 
L 2594 506 
L 2581 506 
Q 2263 -75 1594 -75 
Q 450 -75 450 1288 
L 450 3200 
L 959 3200 
L 959 1369 
Q 959 356 1734 356 
Q 2109 356 2351 632 
Q 2594 909 2594 1356 
L 2594 3200 
L 3106 3200 
L 3106 0 
z
" transform="scale(0.015625)"/>
      <path id="SegoeUI-74" d="M 2003 31 
Q 1822 -69 1525 -69 
Q 684 -69 684 869 
L 684 2763 
L 134 2763 
L 134 3200 
L 684 3200 
L 684 3981 
L 1197 4147 
L 1197 3200 
L 2003 3200 
L 2003 2763 
L 1197 2763 
L 1197 959 
Q 1197 638 1306 500 
Q 1416 363 1669 363 
Q 1863 363 2003 469 
L 2003 31 
z
" transform="scale(0.015625)"/>
      <path id="SegoeUI-72" d="M 2188 2681 
Q 2053 2784 1800 2784 
Q 1472 2784 1251 2475 
Q 1031 2166 1031 1631 
L 1031 0 
L 519 0 
L 519 3200 
L 1031 3200 
L 1031 2541 
L 1044 2541 
Q 1153 2878 1378 3067 
Q 1603 3256 1881 3256 
Q 2081 3256 2188 3213 
L 2188 2681 
z
" transform="scale(0.015625)"/>
      <path id="SegoeUI-69" d="M 781 4013 
Q 644 4013 547 4106 
Q 450 4200 450 4344 
Q 450 4488 547 4583 
Q 644 4678 781 4678 
Q 922 4678 1020 4583 
Q 1119 4488 1119 4344 
Q 1119 4206 1020 4109 
Q 922 4013 781 4013 
z
M 1031 0 
L 519 0 
L 519 3200 
L 1031 3200 
L 1031 0 
z
" transform="scale(0.015625)"/>
      <path id="SegoeUI-e1" d="M 2809 0 
L 2297 0 
L 2297 500 
L 2284 500 
Q 1950 -75 1300 -75 
Q 822 -75 551 178 
Q 281 431 281 850 
Q 281 1747 1338 1894 
L 2297 2028 
Q 2297 2844 1638 2844 
Q 1059 2844 594 2450 
L 594 2975 
Q 1066 3275 1681 3275 
Q 2809 3275 2809 2081 
L 2809 0 
z
M 2297 1619 
L 1525 1513 
Q 1169 1463 987 1336 
Q 806 1209 806 888 
Q 806 653 973 504 
Q 1141 356 1419 356 
Q 1800 356 2048 623 
Q 2297 891 2297 1300 
L 2297 1619 
z
M 2366 4831 
L 1547 3806 
L 1150 3806 
L 1847 4831 
L 2366 4831 
z
" transform="scale(0.015625)"/>
      <path id="SegoeUI-67" d="M 3250 256 
Q 3250 -1506 1563 -1506 
Q 969 -1506 525 -1281 
L 525 -769 
Q 1066 -1069 1556 -1069 
Q 2738 -1069 2738 188 
L 2738 538 
L 2725 538 
Q 2359 -75 1625 -75 
Q 1028 -75 664 351 
Q 300 778 300 1497 
Q 300 2313 692 2794 
Q 1084 3275 1766 3275 
Q 2413 3275 2725 2756 
L 2738 2756 
L 2738 3200 
L 3250 3200 
L 3250 256 
z
M 2738 1447 
L 2738 1919 
Q 2738 2300 2480 2572 
Q 2222 2844 1838 2844 
Q 1363 2844 1094 2498 
Q 825 2153 825 1531 
Q 825 997 1083 676 
Q 1341 356 1766 356 
Q 2197 356 2467 662 
Q 2738 969 2738 1447 
z
" transform="scale(0.015625)"/>
      <path id="SegoeUI-6c" d="M 1031 0 
L 519 0 
L 519 4738 
L 1031 4738 
L 1031 0 
z
" transform="scale(0.015625)"/>
      <path id="SegoeUI-6f" d="M 1856 -75 
Q 1147 -75 723 373 
Q 300 822 300 1563 
Q 300 2369 740 2822 
Q 1181 3275 1931 3275 
Q 2647 3275 3048 2834 
Q 3450 2394 3450 1613 
Q 3450 847 3017 386 
Q 2584 -75 1856 -75 
z
M 1894 2844 
Q 1400 2844 1112 2508 
Q 825 2172 825 1581 
Q 825 1013 1115 684 
Q 1406 356 1894 356 
Q 2391 356 2658 678 
Q 2925 1000 2925 1594 
Q 2925 2194 2658 2519 
Q 2391 2844 1894 2844 
z
" transform="scale(0.015625)"/>
      <path id="SegoeUI-65" d="M 3091 1472 
L 831 1472 
Q 844 938 1119 647 
Q 1394 356 1875 356 
Q 2416 356 2869 713 
L 2869 231 
Q 2447 -75 1753 -75 
Q 1075 -75 687 361 
Q 300 797 300 1588 
Q 300 2334 723 2804 
Q 1147 3275 1775 3275 
Q 2403 3275 2747 2869 
Q 3091 2463 3091 1741 
L 3091 1472 
z
M 2566 1906 
Q 2563 2350 2352 2597 
Q 2141 2844 1766 2844 
Q 1403 2844 1150 2584 
Q 897 2325 838 1906 
L 2566 1906 
z
" transform="scale(0.015625)"/>
      <path id="SegoeUI-63" d="M 2700 147 
Q 2331 -75 1825 -75 
Q 1141 -75 720 370 
Q 300 816 300 1525 
Q 300 2316 753 2795 
Q 1206 3275 1963 3275 
Q 2384 3275 2706 3119 
L 2706 2594 
Q 2350 2844 1944 2844 
Q 1453 2844 1139 2492 
Q 825 2141 825 1569 
Q 825 1006 1120 681 
Q 1416 356 1913 356 
Q 2331 356 2700 634 
L 2700 147 
z
" transform="scale(0.015625)"/>
      <path id="SegoeUI-3a" d="M 697 2575 
Q 553 2575 451 2678 
Q 350 2781 350 2925 
Q 350 3069 451 3169 
Q 553 3269 697 3269 
Q 844 3269 947 3169 
Q 1050 3069 1050 2925 
Q 1050 2781 947 2678 
Q 844 2575 697 2575 
z
M 697 -69 
Q 553 -69 451 34 
Q 350 138 350 281 
Q 350 425 451 529 
Q 553 634 697 634 
Q 844 634 947 529 
Q 1050 425 1050 281 
Q 1050 138 947 34 
Q 844 -69 697 -69 
z
" transform="scale(0.015625)"/>
     </defs>
     <use xlink:href="#SegoeUI-45"/>
     <use xlink:href="#SegoeUI-6e" x="50.585938"/>
     <use xlink:href="#SegoeUI-20" x="107.177734"/>
     <use xlink:href="#SegoeUI-75" x="134.570312"/>
     <use xlink:href="#SegoeUI-6e" x="191.162109"/>
     <use xlink:href="#SegoeUI-20" x="247.753906"/>
     <use xlink:href="#SegoeUI-74" x="275.146484"/>
     <use xlink:href="#SegoeUI-72" x="309.033203"/>
     <use xlink:href="#SegoeUI-69" x="343.798828"/>
     <use xlink:href="#SegoeUI-e1" x="368.017578"/>
     <use xlink:href="#SegoeUI-6e" x="418.896484"/>
     <use xlink:href="#SegoeUI-67" x="475.488281"/>
     <use xlink:href="#SegoeUI-75" x="534.375"/>
     <use xlink:href="#SegoeUI-6c" x="590.966797"/>
     <use xlink:href="#SegoeUI-6f" x="615.185547"/>
     <use xlink:href="#SegoeUI-20" x="673.779297"/>
     <use xlink:href="#SegoeUI-72" x="701.171875"/>
     <use xlink:href="#SegoeUI-65" x="734.5625"/>
     <use xlink:href="#SegoeUI-63" x="786.857422"/>
     <use xlink:href="#SegoeUI-74" x="833.048828"/>
     <use xlink:href="#SegoeUI-e1" x="866.935547"/>
     <use xlink:href="#SegoeUI-6e" x="917.814453"/>
     <use xlink:href="#SegoeUI-67" x="974.40625"/>
     <use xlink:href="#SegoeUI-75" x="1033.292969"/>
     <use xlink:href="#SegoeUI-6c" x="1089.884766"/>
     <use xlink:href="#SegoeUI-6f" x="1114.103516"/>
     <use xlink:href="#SegoeUI-3a" x="1172.697266"/>
     <use xlink:href="#SegoeUI-20" x="1194.376953"/>
    </g>
   </g>
   <g id="text_18">
    <g id="patch_7">
     <path d="M 673.559664 457.154673 
L 743.639664 457.154673 
Q 747.239664 457.154673 747.239664 453.554673 
L 747.239664 441.910923 
Q 747.239664 438.310923 743.639664 438.310923 
L 673.559664 438.310923 
Q 669.959664 438.310923 669.959664 441.910923 
L 669.959664 453.554673 
Q 669.959664 457.154673 673.559664 457.154673 
z
" style="fill: #ffffff; stroke: #e5e7eb; stroke-linejoin: miter"/>
    </g>
    <!-- $a^2 + b^2 = c^2$ -->
    <g style="fill: #1f2937" transform="translate(673.559664 450.794673) scale(0.12 -0.12)">
     <defs>
      <path id="DejaVuSans-Oblique-61" d="M 3438 1997 
L 3047 0 
L 2472 0 
L 2578 531 
Q 2325 219 2001 64 
Q 1678 -91 1281 -91 
Q 834 -91 548 182 
Q 263 456 263 884 
Q 263 1497 752 1853 
Q 1241 2209 2100 2209 
L 2900 2209 
L 2931 2363 
Q 2938 2388 2941 2417 
Q 2944 2447 2944 2509 
Q 2944 2788 2717 2942 
Q 2491 3097 2081 3097 
Q 1800 3097 1504 3025 
Q 1209 2953 897 2809 
L 997 3341 
Q 1322 3463 1633 3523 
Q 1944 3584 2234 3584 
Q 2853 3584 3176 3315 
Q 3500 3047 3500 2534 
Q 3500 2431 3484 2292 
Q 3469 2153 3438 1997 
z
M 2816 1759 
L 2241 1759 
Q 1534 1759 1195 1570 
Q 856 1381 856 984 
Q 856 709 1029 553 
Q 1203 397 1509 397 
Q 1978 397 2328 733 
Q 2678 1069 2791 1631 
L 2816 1759 
z
" transform="scale(0.015625)"/>
      <path id="DejaVuSans-Oblique-62" d="M 3169 2138 
Q 3169 2591 2961 2847 
Q 2753 3103 2388 3103 
Q 2122 3103 1889 2973 
Q 1656 2844 1484 2597 
Q 1303 2338 1198 1995 
Q 1094 1653 1094 1313 
Q 1094 881 1298 636 
Q 1503 391 1863 391 
Q 2134 391 2365 517 
Q 2597 644 2772 891 
Q 2950 1147 3059 1487 
Q 3169 1828 3169 2138 
z
M 1381 2969 
Q 1594 3256 1914 3420 
Q 2234 3584 2584 3584 
Q 3122 3584 3439 3221 
Q 3756 2859 3756 2241 
Q 3756 1734 3570 1259 
Q 3384 784 3041 416 
Q 2816 172 2522 40 
Q 2228 -91 1906 -91 
Q 1566 -91 1316 65 
Q 1066 222 909 531 
L 806 0 
L 231 0 
L 1178 4863 
L 1753 4863 
L 1381 2969 
z
" transform="scale(0.015625)"/>
      <path id="DejaVuSans-Oblique-63" d="M 3431 3366 
L 3316 2797 
Q 3109 2947 2876 3022 
Q 2644 3097 2394 3097 
Q 2119 3097 1870 3000 
Q 1622 2903 1453 2725 
Q 1184 2453 1037 2087 
Q 891 1722 891 1331 
Q 891 859 1127 628 
Q 1363 397 1844 397 
Q 2081 397 2348 469 
Q 2616 541 2906 684 
L 2797 116 
Q 2547 13 2283 -39 
Q 2019 -91 1741 -91 
Q 1044 -91 669 257 
Q 294 606 294 1253 
Q 294 1797 489 2255 
Q 684 2713 1069 3078 
Q 1331 3328 1684 3456 
Q 2038 3584 2456 3584 
Q 2700 3584 2940 3529 
Q 3181 3475 3431 3366 
z
" transform="scale(0.015625)"/>
     </defs>
     <use xlink:href="#DejaVuSans-Oblique-61" transform="translate(0 0.765625)"/>
     <use xlink:href="#DejaVuSans-32" transform="translate(65.929193 39.046875) scale(0.7)"/>
     <use xlink:href="#DejaVuSans-2b" transform="translate(132.682122 0.765625)"/>
     <use xlink:href="#DejaVuSans-Oblique-62" transform="translate(235.953607 0.765625)"/>
     <use xlink:href="#DejaVuSans-32" transform="translate(306.877878 39.046875) scale(0.7)"/>
     <use xlink:href="#DejaVuSans-3d" transform="translate(373.630807 0.765625)"/>
     <use xlink:href="#DejaVuSans-Oblique-63" transform="translate(476.902292 0.765625)"/>
     <use xlink:href="#DejaVuSans-32" transform="translate(536.532656 39.046875) scale(0.7)"/>
    </g>
   </g>
   <g id="text_19">
    <!-- Paso 2: -->
    <g style="fill: #39c5bb" transform="translate(57.299976 483.862147) scale(0.1 -0.1)">
     <defs>
      <path id="SegoeUI-Bold-32" d="M 1341 819 
L 3241 819 
L 3241 0 
L 259 0 
L 259 338 
Q 259 681 375 954 
Q 491 1228 666 1445 
Q 841 1663 1048 1830 
Q 1256 1997 1444 2131 
Q 1641 2272 1789 2400 
Q 1938 2528 2039 2654 
Q 2141 2781 2191 2911 
Q 2241 3041 2241 3188 
Q 2241 3475 2078 3622 
Q 1916 3769 1581 3769 
Q 1003 3769 475 3309 
L 475 4178 
Q 1059 4556 1794 4556 
Q 2134 4556 2404 4467 
Q 2675 4378 2862 4212 
Q 3050 4047 3148 3811 
Q 3247 3575 3247 3284 
Q 3247 2975 3151 2734 
Q 3056 2494 2898 2297 
Q 2741 2100 2534 1936 
Q 2328 1772 2106 1619 
Q 1956 1513 1817 1408 
Q 1678 1303 1572 1201 
Q 1466 1100 1403 1003 
Q 1341 906 1341 819 
z
" transform="scale(0.015625)"/>
     </defs>
     <use xlink:href="#SegoeUI-Bold-50"/>
     <use xlink:href="#SegoeUI-Bold-61" x="58.925781"/>
     <use xlink:href="#SegoeUI-Bold-73" x="112.734375"/>
     <use xlink:href="#SegoeUI-Bold-6f" x="156.728516"/>
     <use xlink:href="#SegoeUI-Bold-20" x="217.861328"/>
     <use xlink:href="#SegoeUI-Bold-32" x="245.449219"/>
     <use xlink:href="#SegoeUI-Bold-3a" x="302.96875"/>
    </g>
   </g>
   <g id="text_20">
    <!-- Con cateto opuesto = y, cateto adyacente = x, hipotenusa = r: -->
    <g style="fill: #374151" transform="translate(157.499928 483.862147) scale(0.1 -0.1)">
     <defs>
      <path id="SegoeUI-43" d="M 3638 188 
Q 3141 -75 2400 -75 
Q 1444 -75 869 540 
Q 294 1156 294 2156 
Q 294 3231 941 3893 
Q 1588 4556 2581 4556 
Q 3219 4556 3638 4372 
L 3638 3813 
Q 3156 4081 2575 4081 
Q 1803 4081 1323 3565 
Q 844 3050 844 2188 
Q 844 1369 1292 883 
Q 1741 397 2469 397 
Q 3144 397 3638 697 
L 3638 188 
z
" transform="scale(0.015625)"/>
      <path id="SegoeUI-61" d="M 2809 0 
L 2297 0 
L 2297 500 
L 2284 500 
Q 1950 -75 1300 -75 
Q 822 -75 551 178 
Q 281 431 281 850 
Q 281 1747 1338 1894 
L 2297 2028 
Q 2297 2844 1638 2844 
Q 1059 2844 594 2450 
L 594 2975 
Q 1066 3275 1681 3275 
Q 2809 3275 2809 2081 
L 2809 0 
z
M 2297 1619 
L 1525 1513 
Q 1169 1463 987 1336 
Q 806 1209 806 888 
Q 806 653 973 504 
Q 1141 356 1419 356 
Q 1800 356 2048 623 
Q 2297 891 2297 1300 
L 2297 1619 
z
" transform="scale(0.015625)"/>
      <path id="SegoeUI-70" d="M 1044 463 
L 1031 463 
L 1031 -1472 
L 519 -1472 
L 519 3200 
L 1031 3200 
L 1031 2638 
L 1044 2638 
Q 1422 3275 2150 3275 
Q 2769 3275 3116 2845 
Q 3463 2416 3463 1694 
Q 3463 891 3072 408 
Q 2681 -75 2003 -75 
Q 1381 -75 1044 463 
z
M 1031 1753 
L 1031 1306 
Q 1031 909 1289 632 
Q 1547 356 1944 356 
Q 2409 356 2673 712 
Q 2938 1069 2938 1703 
Q 2938 2238 2691 2541 
Q 2444 2844 2022 2844 
Q 1575 2844 1303 2533 
Q 1031 2222 1031 1753 
z
" transform="scale(0.015625)"/>
      <path id="SegoeUI-73" d="M 325 116 
L 325 666 
Q 744 356 1247 356 
Q 1922 356 1922 806 
Q 1922 934 1864 1023 
Q 1806 1113 1707 1181 
Q 1609 1250 1476 1304 
Q 1344 1359 1191 1419 
Q 978 1503 817 1589 
Q 656 1675 548 1783 
Q 441 1891 386 2028 
Q 331 2166 331 2350 
Q 331 2575 434 2748 
Q 538 2922 709 3039 
Q 881 3156 1101 3215 
Q 1322 3275 1556 3275 
Q 1972 3275 2300 3131 
L 2300 2613 
Q 1947 2844 1488 2844 
Q 1344 2844 1228 2811 
Q 1113 2778 1030 2718 
Q 947 2659 901 2576 
Q 856 2494 856 2394 
Q 856 2269 901 2184 
Q 947 2100 1034 2034 
Q 1122 1969 1247 1916 
Q 1372 1863 1531 1800 
Q 1744 1719 1912 1633 
Q 2081 1547 2200 1439 
Q 2319 1331 2383 1190 
Q 2447 1050 2447 856 
Q 2447 619 2342 444 
Q 2238 269 2063 153 
Q 1888 38 1659 -18 
Q 1431 -75 1181 -75 
Q 688 -75 325 116 
z
" transform="scale(0.015625)"/>
      <path id="SegoeUI-3d" d="M 3663 2325 
L 725 2325 
L 725 2738 
L 3663 2738 
L 3663 2325 
z
M 3663 994 
L 725 994 
L 725 1406 
L 3663 1406 
L 3663 994 
z
" transform="scale(0.015625)"/>
      <path id="SegoeUI-79" d="M 3066 3200 
L 1594 -513 
Q 1200 -1506 488 -1506 
Q 288 -1506 153 -1466 
L 153 -1006 
Q 319 -1063 456 -1063 
Q 844 -1063 1038 -600 
L 1294 6 
L 44 3200 
L 613 3200 
L 1478 738 
Q 1494 691 1544 494 
L 1563 494 
Q 1578 569 1625 731 
L 2534 3200 
L 3066 3200 
z
" transform="scale(0.015625)"/>
      <path id="SegoeUI-2c" d="M 988 713 
L 488 -825 
L 122 -825 
L 488 713 
L 988 713 
z
" transform="scale(0.015625)"/>
      <path id="SegoeUI-64" d="M 3250 0 
L 2738 0 
L 2738 544 
L 2725 544 
Q 2369 -75 1625 -75 
Q 1022 -75 661 354 
Q 300 784 300 1525 
Q 300 2319 700 2797 
Q 1100 3275 1766 3275 
Q 2425 3275 2725 2756 
L 2738 2756 
L 2738 4738 
L 3250 4738 
L 3250 0 
z
M 2738 1447 
L 2738 1919 
Q 2738 2306 2481 2575 
Q 2225 2844 1831 2844 
Q 1363 2844 1094 2500 
Q 825 2156 825 1550 
Q 825 997 1083 676 
Q 1341 356 1775 356 
Q 2203 356 2470 665 
Q 2738 975 2738 1447 
z
" transform="scale(0.015625)"/>
      <path id="SegoeUI-78" d="M 2856 3200 
L 1781 1581 
L 2838 0 
L 2241 0 
L 1613 1038 
Q 1553 1134 1472 1281 
L 1459 1281 
Q 1444 1253 1313 1038 
L 672 0 
L 81 0 
L 1172 1569 
L 128 3200 
L 725 3200 
L 1344 2106 
Q 1413 1984 1478 1856 
L 1491 1856 
L 2291 3200 
L 2856 3200 
z
" transform="scale(0.015625)"/>
      <path id="SegoeUI-68" d="M 3175 0 
L 2663 0 
L 2663 1844 
Q 2663 2844 1919 2844 
Q 1544 2844 1287 2555 
Q 1031 2266 1031 1813 
L 1031 0 
L 519 0 
L 519 4738 
L 1031 4738 
L 1031 2669 
L 1044 2669 
Q 1413 3275 2094 3275 
Q 3175 3275 3175 1972 
L 3175 0 
z
" transform="scale(0.015625)"/>
     </defs>
     <use xlink:href="#SegoeUI-43"/>
     <use xlink:href="#SegoeUI-6f" x="61.914062"/>
     <use xlink:href="#SegoeUI-6e" x="120.507812"/>
     <use xlink:href="#SegoeUI-20" x="177.099609"/>
     <use xlink:href="#SegoeUI-63" x="204.492188"/>
     <use xlink:href="#SegoeUI-61" x="250.683594"/>
     <use xlink:href="#SegoeUI-74" x="301.5625"/>
     <use xlink:href="#SegoeUI-65" x="334.699219"/>
     <use xlink:href="#SegoeUI-74" x="386.994141"/>
     <use xlink:href="#SegoeUI-6f" x="420.130859"/>
     <use xlink:href="#SegoeUI-20" x="478.724609"/>
     <use xlink:href="#SegoeUI-6f" x="506.117188"/>
     <use xlink:href="#SegoeUI-70" x="564.710938"/>
     <use xlink:href="#SegoeUI-75" x="623.5"/>
     <use xlink:href="#SegoeUI-65" x="680.091797"/>
     <use xlink:href="#SegoeUI-73" x="732.386719"/>
     <use xlink:href="#SegoeUI-74" x="774.818359"/>
     <use xlink:href="#SegoeUI-6f" x="807.955078"/>
     <use xlink:href="#SegoeUI-20" x="866.548828"/>
     <use xlink:href="#SegoeUI-3d" x="893.941406"/>
     <use xlink:href="#SegoeUI-20" x="962.349609"/>
     <use xlink:href="#SegoeUI-79" x="989.742188"/>
     <use xlink:href="#SegoeUI-2c" x="1033.130859"/>
     <use xlink:href="#SegoeUI-20" x="1054.810547"/>
     <use xlink:href="#SegoeUI-63" x="1082.203125"/>
     <use xlink:href="#SegoeUI-61" x="1128.394531"/>
     <use xlink:href="#SegoeUI-74" x="1179.273438"/>
     <use xlink:href="#SegoeUI-65" x="1212.410156"/>
     <use xlink:href="#SegoeUI-74" x="1264.705078"/>
     <use xlink:href="#SegoeUI-6f" x="1297.841797"/>
     <use xlink:href="#SegoeUI-20" x="1356.435547"/>
     <use xlink:href="#SegoeUI-61" x="1383.828125"/>
     <use xlink:href="#SegoeUI-64" x="1434.707031"/>
     <use xlink:href="#SegoeUI-79" x="1493.59375"/>
     <use xlink:href="#SegoeUI-61" x="1541.982422"/>
     <use xlink:href="#SegoeUI-63" x="1592.861328"/>
     <use xlink:href="#SegoeUI-65" x="1639.052734"/>
     <use xlink:href="#SegoeUI-6e" x="1691.347656"/>
     <use xlink:href="#SegoeUI-74" x="1747.939453"/>
     <use xlink:href="#SegoeUI-65" x="1781.076172"/>
     <use xlink:href="#SegoeUI-20" x="1833.371094"/>
     <use xlink:href="#SegoeUI-3d" x="1860.763672"/>
     <use xlink:href="#SegoeUI-20" x="1929.171875"/>
     <use xlink:href="#SegoeUI-78" x="1956.564453"/>
     <use xlink:href="#SegoeUI-2c" x="2002.462891"/>
     <use xlink:href="#SegoeUI-20" x="2024.142578"/>
     <use xlink:href="#SegoeUI-68" x="2051.535156"/>
     <use xlink:href="#SegoeUI-69" x="2108.126953"/>
     <use xlink:href="#SegoeUI-70" x="2132.345703"/>
     <use xlink:href="#SegoeUI-6f" x="2191.134766"/>
     <use xlink:href="#SegoeUI-74" x="2249.728516"/>
     <use xlink:href="#SegoeUI-65" x="2282.865234"/>
     <use xlink:href="#SegoeUI-6e" x="2335.160156"/>
     <use xlink:href="#SegoeUI-75" x="2391.751953"/>
     <use xlink:href="#SegoeUI-73" x="2448.34375"/>
     <use xlink:href="#SegoeUI-61" x="2490.775391"/>
     <use xlink:href="#SegoeUI-20" x="2541.654297"/>
     <use xlink:href="#SegoeUI-3d" x="2569.046875"/>
     <use xlink:href="#SegoeUI-20" x="2637.455078"/>
     <use xlink:href="#SegoeUI-72" x="2664.847656"/>
     <use xlink:href="#SegoeUI-3a" x="2703.613281"/>
    </g>
   </g>
   <g id="text_21">
    <g id="patch_8">
     <path d="M 674.939664 490.222147 
L 742.259664 490.222147 
Q 745.859664 490.222147 745.859664 486.622147 
L 745.859664 473.182147 
Q 745.859664 469.582147 742.259664 469.582147 
L 674.939664 469.582147 
Q 671.339664 469.582147 671.339664 473.182147 
L 671.339664 486.622147 
Q 671.339664 490.222147 674.939664 490.222147 
z
" style="fill: #ffffff; stroke: #e5e7eb; stroke-linejoin: miter"/>
    </g>
    <!-- $x^2 + y^2 = r^2$ -->
    <g style="fill: #1f2937" transform="translate(674.939664 483.862147) scale(0.12 -0.12)">
     <defs>
      <path id="DejaVuSans-Oblique-78" d="M 3841 3500 
L 2234 1784 
L 3219 0 
L 2559 0 
L 1819 1388 
L 531 0 
L -166 0 
L 1556 1844 
L 641 3500 
L 1300 3500 
L 1972 2234 
L 3144 3500 
L 3841 3500 
z
" transform="scale(0.015625)"/>
      <path id="DejaVuSans-Oblique-79" d="M 1588 -325 
Q 1188 -997 936 -1164 
Q 684 -1331 294 -1331 
L -159 -1331 
L -63 -850 
L 269 -850 
Q 509 -850 678 -719 
Q 847 -588 1056 -206 
L 1234 128 
L 459 3500 
L 1069 3500 
L 1650 819 
L 3256 3500 
L 3859 3500 
L 1588 -325 
z
" transform="scale(0.015625)"/>
      <path id="DejaVuSans-Oblique-72" d="M 2853 2969 
Q 2766 3016 2653 3041 
Q 2541 3066 2413 3066 
Q 1953 3066 1609 2717 
Q 1266 2369 1153 1784 
L 800 0 
L 225 0 
L 909 3500 
L 1484 3500 
L 1375 2956 
Q 1603 3259 1920 3421 
Q 2238 3584 2597 3584 
Q 2691 3584 2781 3573 
Q 2872 3563 2963 3538 
L 2853 2969 
z
" transform="scale(0.015625)"/>
     </defs>
     <use xlink:href="#DejaVuSans-Oblique-78" transform="translate(0 0.765625)"/>
     <use xlink:href="#DejaVuSans-32" transform="translate(63.645833 39.046875) scale(0.7)"/>
     <use xlink:href="#DejaVuSans-2b" transform="translate(130.398763 0.765625)"/>
     <use xlink:href="#DejaVuSans-Oblique-79" transform="translate(233.670247 0.765625)"/>
     <use xlink:href="#DejaVuSans-32" transform="translate(297.316081 39.046875) scale(0.7)"/>
     <use xlink:href="#DejaVuSans-3d" transform="translate(364.06901 0.765625)"/>
     <use xlink:href="#DejaVuSans-Oblique-72" transform="translate(467.340495 0.765625)"/>
     <use xlink:href="#DejaVuSans-32" transform="translate(513.103672 39.046875) scale(0.7)"/>
    </g>
   </g>
   <g id="text_22">
    <!-- Paso 3: -->
    <g style="fill: #39c5bb" transform="translate(57.299976 516.929622) scale(0.1 -0.1)">
     <defs>
      <path id="SegoeUI-Bold-33" d="M 366 147 
L 366 1006 
Q 816 678 1416 678 
Q 1794 678 2005 840 
Q 2216 1003 2216 1294 
Q 2216 1594 1955 1756 
Q 1694 1919 1238 1919 
L 822 1919 
L 822 2675 
L 1206 2675 
Q 2081 2675 2081 3256 
Q 2081 3803 1409 3803 
Q 959 3803 534 3513 
L 534 4319 
Q 1006 4556 1634 4556 
Q 2322 4556 2705 4247 
Q 3088 3938 3088 3444 
Q 3088 2566 2197 2344 
L 2197 2328 
Q 2672 2269 2947 1983 
Q 3222 1697 3222 1281 
Q 3222 653 2762 287 
Q 2303 -78 1494 -78 
Q 800 -78 366 147 
z
" transform="scale(0.015625)"/>
     </defs>
     <use xlink:href="#SegoeUI-Bold-50"/>
     <use xlink:href="#SegoeUI-Bold-61" x="58.925781"/>
     <use xlink:href="#SegoeUI-Bold-73" x="112.734375"/>
     <use xlink:href="#SegoeUI-Bold-6f" x="156.728516"/>
     <use xlink:href="#SegoeUI-Bold-20" x="217.861328"/>
     <use xlink:href="#SegoeUI-Bold-33" x="245.449219"/>
     <use xlink:href="#SegoeUI-Bold-3a" x="302.96875"/>
    </g>
   </g>
   <g id="text_23">
    <!-- En el círculo unitario r = 1, y sabemos que x = cos θ, y = sin θ: -->
    <g style="fill: #374151" transform="translate(157.499928 516.929622) scale(0.1 -0.1)">
     <defs>
      <path id="SegoeUI-ed" d="M 1031 0 
L 519 0 
L 519 3200 
L 1031 3200 
L 1031 0 
z
M 1494 4831 
L 675 3806 
L 278 3806 
L 975 4831 
L 1494 4831 
z
" transform="scale(0.015625)"/>
      <path id="SegoeUI-31" d="M 2263 0 
L 1750 0 
L 1750 3872 
Q 1691 3813 1577 3736 
Q 1463 3659 1320 3584 
Q 1178 3509 1020 3443 
Q 863 3378 713 3341 
L 713 3859 
Q 881 3906 1070 3986 
Q 1259 4066 1442 4164 
Q 1625 4263 1787 4370 
Q 1950 4478 2069 4581 
L 2263 4581 
L 2263 0 
z
" transform="scale(0.015625)"/>
      <path id="SegoeUI-62" d="M 1044 463 
L 1031 463 
L 1031 0 
L 519 0 
L 519 4738 
L 1031 4738 
L 1031 2638 
L 1044 2638 
Q 1422 3275 2150 3275 
Q 2766 3275 3114 2845 
Q 3463 2416 3463 1694 
Q 3463 891 3072 408 
Q 2681 -75 2003 -75 
Q 1369 -75 1044 463 
z
M 1031 1753 
L 1031 1306 
Q 1031 909 1289 632 
Q 1547 356 1944 356 
Q 2409 356 2673 712 
Q 2938 1069 2938 1703 
Q 2938 2238 2691 2541 
Q 2444 2844 2022 2844 
Q 1575 2844 1303 2533 
Q 1031 2222 1031 1753 
z
" transform="scale(0.015625)"/>
      <path id="SegoeUI-6d" d="M 5063 0 
L 4550 0 
L 4550 1838 
Q 4550 2369 4386 2606 
Q 4222 2844 3834 2844 
Q 3506 2844 3276 2544 
Q 3047 2244 3047 1825 
L 3047 0 
L 2534 0 
L 2534 1900 
Q 2534 2844 1806 2844 
Q 1469 2844 1250 2561 
Q 1031 2278 1031 1825 
L 1031 0 
L 519 0 
L 519 3200 
L 1031 3200 
L 1031 2694 
L 1044 2694 
Q 1384 3275 2038 3275 
Q 2366 3275 2609 3092 
Q 2853 2909 2944 2613 
Q 3300 3275 4006 3275 
Q 5063 3275 5063 1972 
L 5063 0 
z
" transform="scale(0.015625)"/>
      <path id="SegoeUI-71" d="M 3250 -1472 
L 2738 -1472 
L 2738 550 
L 2725 550 
Q 2391 -75 1631 -75 
Q 1028 -75 664 354 
Q 300 784 300 1525 
Q 300 2322 700 2798 
Q 1100 3275 1775 3275 
Q 2431 3275 2725 2756 
L 2738 2756 
L 2738 3200 
L 3250 3200 
L 3250 -1472 
z
M 2738 1441 
L 2738 1906 
Q 2738 2300 2480 2572 
Q 2222 2844 1825 2844 
Q 1363 2844 1094 2501 
Q 825 2159 825 1538 
Q 825 984 1084 670 
Q 1344 356 1753 356 
Q 2203 356 2470 664 
Q 2738 972 2738 1441 
z
" transform="scale(0.015625)"/>
      <path id="SegoeUI-3b8" d="M 1844 -75 
Q 1116 -75 709 553 
Q 303 1181 303 2319 
Q 303 3516 726 4155 
Q 1150 4794 1944 4794 
Q 3450 4794 3450 2397 
Q 3450 1216 3029 570 
Q 2609 -75 1844 -75 
z
M 2919 2613 
Q 2863 4356 1891 4356 
Q 1422 4356 1140 3882 
Q 859 3409 828 2613 
L 2919 2613 
z
M 2922 2200 
L 825 2200 
Q 841 1303 1119 833 
Q 1397 363 1888 363 
Q 2366 363 2636 839 
Q 2906 1316 2922 2200 
z
" transform="scale(0.015625)"/>
     </defs>
     <use xlink:href="#SegoeUI-45"/>
     <use xlink:href="#SegoeUI-6e" x="50.585938"/>
     <use xlink:href="#SegoeUI-20" x="107.177734"/>
     <use xlink:href="#SegoeUI-65" x="134.570312"/>
     <use xlink:href="#SegoeUI-6c" x="186.865234"/>
     <use xlink:href="#SegoeUI-20" x="211.083984"/>
     <use xlink:href="#SegoeUI-63" x="238.476562"/>
     <use xlink:href="#SegoeUI-ed" x="284.667969"/>
     <use xlink:href="#SegoeUI-72" x="308.886719"/>
     <use xlink:href="#SegoeUI-63" x="342.277344"/>
     <use xlink:href="#SegoeUI-75" x="388.46875"/>
     <use xlink:href="#SegoeUI-6c" x="445.060547"/>
     <use xlink:href="#SegoeUI-6f" x="469.279297"/>
     <use xlink:href="#SegoeUI-20" x="527.873047"/>
     <use xlink:href="#SegoeUI-75" x="555.265625"/>
     <use xlink:href="#SegoeUI-6e" x="611.857422"/>
     <use xlink:href="#SegoeUI-69" x="668.449219"/>
     <use xlink:href="#SegoeUI-74" x="692.667969"/>
     <use xlink:href="#SegoeUI-61" x="726.554688"/>
     <use xlink:href="#SegoeUI-72" x="777.433594"/>
     <use xlink:href="#SegoeUI-69" x="812.199219"/>
     <use xlink:href="#SegoeUI-6f" x="836.417969"/>
     <use xlink:href="#SegoeUI-20" x="895.011719"/>
     <use xlink:href="#SegoeUI-72" x="922.404297"/>
     <use xlink:href="#SegoeUI-20" x="957.169922"/>
     <use xlink:href="#SegoeUI-3d" x="984.5625"/>
     <use xlink:href="#SegoeUI-20" x="1052.970703"/>
     <use xlink:href="#SegoeUI-31" x="1080.363281"/>
     <use xlink:href="#SegoeUI-2c" x="1134.269531"/>
     <use xlink:href="#SegoeUI-20" x="1155.949219"/>
     <use xlink:href="#SegoeUI-79" x="1183.341797"/>
     <use xlink:href="#SegoeUI-20" x="1231.730469"/>
     <use xlink:href="#SegoeUI-73" x="1259.123047"/>
     <use xlink:href="#SegoeUI-61" x="1301.554688"/>
     <use xlink:href="#SegoeUI-62" x="1352.433594"/>
     <use xlink:href="#SegoeUI-65" x="1411.222656"/>
     <use xlink:href="#SegoeUI-6d" x="1463.517578"/>
     <use xlink:href="#SegoeUI-6f" x="1549.650391"/>
     <use xlink:href="#SegoeUI-73" x="1608.244141"/>
     <use xlink:href="#SegoeUI-20" x="1650.675781"/>
     <use xlink:href="#SegoeUI-71" x="1678.068359"/>
     <use xlink:href="#SegoeUI-75" x="1736.955078"/>
     <use xlink:href="#SegoeUI-65" x="1793.546875"/>
     <use xlink:href="#SegoeUI-20" x="1845.841797"/>
     <use xlink:href="#SegoeUI-78" x="1873.234375"/>
     <use xlink:href="#SegoeUI-20" x="1919.132812"/>
     <use xlink:href="#SegoeUI-3d" x="1946.525391"/>
     <use xlink:href="#SegoeUI-20" x="2014.933594"/>
     <use xlink:href="#SegoeUI-63" x="2042.326172"/>
     <use xlink:href="#SegoeUI-6f" x="2088.517578"/>
     <use xlink:href="#SegoeUI-73" x="2147.111328"/>
     <use xlink:href="#SegoeUI-20" x="2189.542969"/>
     <use xlink:href="#SegoeUI-3b8" x="2216.935547"/>
     <use xlink:href="#SegoeUI-2c" x="2275.578125"/>
     <use xlink:href="#SegoeUI-20" x="2297.257812"/>
     <use xlink:href="#SegoeUI-79" x="2324.650391"/>
     <use xlink:href="#SegoeUI-20" x="2373.039062"/>
     <use xlink:href="#SegoeUI-3d" x="2400.431641"/>
     <use xlink:href="#SegoeUI-20" x="2468.839844"/>
     <use xlink:href="#SegoeUI-73" x="2496.232422"/>
     <use xlink:href="#SegoeUI-69" x="2538.664062"/>
     <use xlink:href="#SegoeUI-6e" x="2562.882812"/>
     <use xlink:href="#SegoeUI-20" x="2619.474609"/>
     <use xlink:href="#SegoeUI-3b8" x="2646.867188"/>
     <use xlink:href="#SegoeUI-3a" x="2705.509766"/>
    </g>
   </g>
   <g id="text_24">
    <g id="patch_9">
     <path d="M 653.339664 548.726141 
L 763.859664 548.726141 
Q 767.459664 548.726141 767.459664 545.126141 
L 767.459664 533.482391 
Q 767.459664 529.882391 763.859664 529.882391 
L 653.339664 529.882391 
Q 649.739664 529.882391 649.739664 533.482391 
L 649.739664 545.126141 
Q 649.739664 548.726141 653.339664 548.726141 
z
" style="fill: #ffffff; stroke: #e5e7eb; stroke-linejoin: miter"/>
    </g>
    <!-- $\cos^2\theta + \sin^2\theta = 1^2$ -->
    <g style="fill: #1f2937" transform="translate(653.339664 542.366141) scale(0.12 -0.12)">
     <use xlink:href="#DejaVuSans-63" transform="translate(0 0.765625)"/>
     <use xlink:href="#DejaVuSans-6f" transform="translate(54.980469 0.765625)"/>
     <use xlink:href="#DejaVuSans-73" transform="translate(116.162109 0.765625)"/>
     <use xlink:href="#DejaVuSans-32" transform="translate(169.21875 39.046875) scale(0.7)"/>
     <use xlink:href="#DejaVuSans-Oblique-3b8" transform="translate(232.724934 0.765625)"/>
     <use xlink:href="#DejaVuSans-2b" transform="translate(313.388997 0.765625)"/>
     <use xlink:href="#DejaVuSans-73" transform="translate(416.660481 0.765625)"/>
     <use xlink:href="#DejaVuSans-69" transform="translate(468.76009 0.765625)"/>
     <use xlink:href="#DejaVuSans-6e" transform="translate(496.543293 0.765625)"/>
     <use xlink:href="#DejaVuSans-32" transform="translate(560.879231 39.046875) scale(0.7)"/>
     <use xlink:href="#DejaVuSans-Oblique-3b8" transform="translate(624.385415 0.765625)"/>
     <use xlink:href="#DejaVuSans-3d" transform="translate(705.049478 0.765625)"/>
     <use xlink:href="#DejaVuSans-31" transform="translate(808.320962 0.765625)"/>
     <use xlink:href="#DejaVuSans-32" transform="translate(872.90104 39.046875) scale(0.7)"/>
    </g>
   </g>
   <g id="text_25">
    <!-- Paso 4: -->
    <g style="fill: #39c5bb" transform="translate(57.299976 577.977267) scale(0.1 -0.1)">
     <defs>
      <path id="SegoeUI-Bold-34" d="M 2975 4481 
L 2975 1656 
L 3513 1656 
L 3513 919 
L 2975 919 
L 2975 0 
L 2075 0 
L 2075 919 
L 122 919 
L 122 1691 
Q 381 1981 659 2326 
Q 938 2672 1197 3037 
Q 1456 3403 1679 3773 
Q 1903 4144 2059 4481 
L 2975 4481 
z
M 1006 1656 
L 2075 1656 
L 2075 3222 
Q 1966 3019 1837 2811 
Q 1709 2603 1568 2401 
Q 1428 2200 1284 2011 
Q 1141 1822 1006 1656 
z
" transform="scale(0.015625)"/>
     </defs>
     <use xlink:href="#SegoeUI-Bold-50"/>
     <use xlink:href="#SegoeUI-Bold-61" x="58.925781"/>
     <use xlink:href="#SegoeUI-Bold-73" x="112.734375"/>
     <use xlink:href="#SegoeUI-Bold-6f" x="156.728516"/>
     <use xlink:href="#SegoeUI-Bold-20" x="217.861328"/>
     <use xlink:href="#SegoeUI-Bold-34" x="245.449219"/>
     <use xlink:href="#SegoeUI-Bold-3a" x="302.96875"/>
    </g>
   </g>
   <g id="text_26">
    <!-- Reordenando: -->
    <g style="fill: #374151" transform="translate(157.499928 577.977267) scale(0.1 -0.1)">
     <defs>
      <path id="SegoeUI-52" d="M 3800 0 
L 3175 0 
L 2425 1256 
Q 2322 1431 2225 1554 
Q 2128 1678 2026 1756 
Q 1925 1834 1808 1870 
Q 1691 1906 1544 1906 
L 1113 1906 
L 1113 0 
L 588 0 
L 588 4481 
L 1925 4481 
Q 2219 4481 2467 4407 
Q 2716 4334 2898 4184 
Q 3081 4034 3184 3811 
Q 3288 3588 3288 3288 
Q 3288 3053 3217 2858 
Q 3147 2663 3017 2509 
Q 2888 2356 2705 2248 
Q 2522 2141 2294 2081 
L 2294 2069 
Q 2406 2019 2489 1955 
Q 2572 1891 2647 1803 
Q 2722 1716 2795 1605 
Q 2869 1494 2959 1347 
L 3800 0 
z
M 1113 4006 
L 1113 2381 
L 1825 2381 
Q 2022 2381 2189 2440 
Q 2356 2500 2478 2611 
Q 2600 2722 2669 2883 
Q 2738 3044 2738 3244 
Q 2738 3603 2505 3804 
Q 2272 4006 1831 4006 
L 1113 4006 
z
" transform="scale(0.015625)"/>
     </defs>
     <use xlink:href="#SegoeUI-52"/>
     <use xlink:href="#SegoeUI-65" x="57.064453"/>
     <use xlink:href="#SegoeUI-6f" x="109.359375"/>
     <use xlink:href="#SegoeUI-72" x="167.953125"/>
     <use xlink:href="#SegoeUI-64" x="201.34375"/>
     <use xlink:href="#SegoeUI-65" x="260.230469"/>
     <use xlink:href="#SegoeUI-6e" x="312.525391"/>
     <use xlink:href="#SegoeUI-61" x="369.117188"/>
     <use xlink:href="#SegoeUI-6e" x="419.996094"/>
     <use xlink:href="#SegoeUI-64" x="476.587891"/>
     <use xlink:href="#SegoeUI-6f" x="535.474609"/>
     <use xlink:href="#SegoeUI-3a" x="594.068359"/>
    </g>
   </g>
   <g id="text_27">
    <g id="patch_10">
     <path d="M 656.279664 584.337267 
L 760.919664 584.337267 
Q 764.519664 584.337267 764.519664 580.737267 
L 764.519664 569.093517 
Q 764.519664 565.493517 760.919664 565.493517 
L 656.279664 565.493517 
Q 652.679664 565.493517 652.679664 569.093517 
L 652.679664 580.737267 
Q 652.679664 584.337267 656.279664 584.337267 
z
" style="fill: #ffffff; stroke: #e5e7eb; stroke-linejoin: miter"/>
    </g>
    <!-- $\sin^2\theta + \cos^2\theta = 1$ -->
    <g style="fill: #1f2937" transform="translate(656.279664 577.977267) scale(0.12 -0.12)">
     <use xlink:href="#DejaVuSans-73" transform="translate(0 0.765625)"/>
     <use xlink:href="#DejaVuSans-69" transform="translate(52.099609 0.765625)"/>
     <use xlink:href="#DejaVuSans-6e" transform="translate(79.882812 0.765625)"/>
     <use xlink:href="#DejaVuSans-32" transform="translate(144.21875 39.046875) scale(0.7)"/>
     <use xlink:href="#DejaVuSans-Oblique-3b8" transform="translate(207.724934 0.765625)"/>
     <use xlink:href="#DejaVuSans-2b" transform="translate(288.388997 0.765625)"/>
     <use xlink:href="#DejaVuSans-63" transform="translate(391.660481 0.765625)"/>
     <use xlink:href="#DejaVuSans-6f" transform="translate(446.64095 0.765625)"/>
     <use xlink:href="#DejaVuSans-73" transform="translate(507.82259 0.765625)"/>
     <use xlink:href="#DejaVuSans-32" transform="translate(560.879231 39.046875) scale(0.7)"/>
     <use xlink:href="#DejaVuSans-Oblique-3b8" transform="translate(624.385415 0.765625)"/>
     <use xlink:href="#DejaVuSans-3d" transform="translate(705.049478 0.765625)"/>
     <use xlink:href="#DejaVuSans-31" transform="translate(808.320962 0.765625)"/>
    </g>
   </g>
   <g id="text_28">
    <!-- $\sin^2\theta + \cos^2\theta = 1$ -->
    <g style="fill: #1f2937" transform="translate(447.15976 614.86022) scale(0.14 -0.14)">
     <use xlink:href="#DejaVuSans-73" transform="translate(0 0.765625)"/>
     <use xlink:href="#DejaVuSans-69" transform="translate(52.099609 0.765625)"/>
     <use xlink:href="#DejaVuSans-6e" transform="translate(79.882812 0.765625)"/>
     <use xlink:href="#DejaVuSans-32" transform="translate(144.21875 39.046875) scale(0.7)"/>
     <use xlink:href="#DejaVuSans-Oblique-3b8" transform="translate(207.724934 0.765625)"/>
     <use xlink:href="#DejaVuSans-2b" transform="translate(288.388997 0.765625)"/>
     <use xlink:href="#DejaVuSans-63" transform="translate(391.660481 0.765625)"/>
     <use xlink:href="#DejaVuSans-6f" transform="translate(446.64095 0.765625)"/>
     <use xlink:href="#DejaVuSans-73" transform="translate(507.82259 0.765625)"/>
     <use xlink:href="#DejaVuSans-32" transform="translate(560.879231 39.046875) scale(0.7)"/>
     <use xlink:href="#DejaVuSans-Oblique-3b8" transform="translate(624.385415 0.765625)"/>
     <use xlink:href="#DejaVuSans-3d" transform="translate(705.049478 0.765625)"/>
     <use xlink:href="#DejaVuSans-31" transform="translate(808.320962 0.765625)"/>
    </g>
   </g>
  </g>
  <g id="text_29">
   <!-- Identidades Pitagóricas -->
   <g style="fill: #2c2f33" transform="translate(431.276322 17.564375) scale(0.14 -0.14)">
    <use xlink:href="#SegoeUI-Bold-49"/>
    <use xlink:href="#SegoeUI-Bold-64" x="31.689453"/>
    <use xlink:href="#SegoeUI-Bold-65" x="93.603516"/>
    <use xlink:href="#SegoeUI-Bold-6e" x="147.705078"/>
    <use xlink:href="#SegoeUI-Bold-74" x="208.203125"/>
    <use xlink:href="#SegoeUI-Bold-69" x="247.119141"/>
    <use xlink:href="#SegoeUI-Bold-64" x="275.537109"/>
    <use xlink:href="#SegoeUI-Bold-61" x="337.451172"/>
    <use xlink:href="#SegoeUI-Bold-64" x="391.259766"/>
    <use xlink:href="#SegoeUI-Bold-65" x="453.173828"/>
    <use xlink:href="#SegoeUI-Bold-73" x="507.275391"/>
    <use xlink:href="#SegoeUI-Bold-20" x="551.269531"/>
    <use xlink:href="#SegoeUI-Bold-50" x="578.857422"/>
    <use xlink:href="#SegoeUI-Bold-69" x="640.283203"/>
    <use xlink:href="#SegoeUI-Bold-74" x="668.701172"/>
    <use xlink:href="#SegoeUI-Bold-61" x="707.617188"/>
    <use xlink:href="#SegoeUI-Bold-67" x="761.425781"/>
    <use xlink:href="#SegoeUI-Bold-f3" x="823.339844"/>
    <use xlink:href="#SegoeUI-Bold-72" x="884.423828"/>
    <use xlink:href="#SegoeUI-Bold-69" x="924.59375"/>
    <use xlink:href="#SegoeUI-Bold-63" x="953.011719"/>
    <use xlink:href="#SegoeUI-Bold-61" x="1001.009766"/>
    <use xlink:href="#SegoeUI-Bold-73" x="1054.818359"/>
   </g>
  </g>
 </g>
 <defs>
  <clipPath id="p110d284a62">
   <rect x="69.706159" y="40.996105" width="325.587441" height="305.238226"/>
  </clipPath>
  <clipPath id="p8d531f6f1c">
   <rect x="558.59976" y="40.996105" width="450.59976" height="305.238226"/>
  </clipPath>
  <clipPath id="p1346cc7b39">
   <rect x="7.2" y="394.834331" width="1001.99952" height="254.365189"/>
  </clipPath>
 </defs>
</svg>
