<?xml version="1.0" encoding="utf-8" standalone="no"?>
<!DOCTYPE svg PUBLIC "-//W3C//DTD SVG 1.1//EN"
  "http://www.w3.org/Graphics/SVG/1.1/DTD/svg11.dtd">
<svg xmlns:xlink="http://www.w3.org/1999/xlink" width="1016.39952pt" height="728.39952pt" viewBox="0 0 1016.39952 728.39952" xmlns="http://www.w3.org/2000/svg" version="1.1">
 <metadata>
  <rdf:RDF xmlns:dc="http://purl.org/dc/elements/1.1/" xmlns:cc="http://creativecommons.org/ns#" xmlns:rdf="http://www.w3.org/1999/02/22-rdf-syntax-ns#">
   <cc:Work>
    <dc:type rdf:resource="http://purl.org/dc/dcmitype/StillImage"/>
    <dc:date>2026-04-11T16:11:46.583446</dc:date>
    <dc:format>image/svg+xml</dc:format>
    <dc:creator>
     <cc:Agent>
      <dc:title>Matplotlib v3.8.4, https://matplotlib.org/</dc:title>
     </cc:Agent>
    </dc:creator>
   </cc:Work>
  </rdf:RDF>
 </metadata>
 <defs>
  <style type="text/css">*{stroke-linejoin: round; stroke-linecap: butt}</style>
 </defs>
 <g id="figure_1">
  <g id="patch_1">
   <path d="M 0 728.39952 
L 1016.39952 728.39952 
L 1016.39952 0 
L 0 0 
z
" style="fill: #ffffff"/>
  </g>
  <g id="axes_1">
   <g id="patch_2">
    <path d="M 365.518186 296.012984 
L 358.637929 299.453112 
L 358.637929 296.127655 
L 94.894736 296.127655 
L 94.894736 295.898313 
L 358.637929 295.898313 
L 358.637929 292.572855 
z
" clip-path="url(#p99caab1ded)" style="fill: #9ca3af; stroke: #9ca3af; stroke-linejoin: miter"/>
   </g>
   <g id="patch_3">
    <path d="M 94.894736 71.257915 
L 98.334865 78.138172 
L 95.009407 78.138172 
L 95.009407 296.012984 
L 94.780065 296.012984 
L 94.780065 78.138172 
L 91.454607 78.138172 
z
" clip-path="url(#p99caab1ded)" style="fill: #9ca3af; stroke: #9ca3af; stroke-linejoin: miter"/>
   </g>
   <g id="line2d_1">
    <path d="M 324.236643 296.012984 
L 324.118811 288.662214 
L 323.765435 281.318997 
L 323.17688 273.99088 
L 322.353749 266.685392 
L 321.296888 259.410039 
L 320.007385 252.172299 
L 318.486562 244.979608 
L 316.735984 237.839358 
L 314.757449 230.758884 
L 312.552991 223.745464 
L 310.124873 216.806304 
L 307.475592 209.948533 
L 304.60787 203.1792 
L 301.524654 196.50526 
L 298.229111 189.93357 
L 294.724629 183.470885 
L 291.014808 177.123844 
L 287.10346 170.898969 
L 282.994605 164.802658 
L 278.692464 158.841174 
L 274.201459 153.020644 
L 269.526204 147.347047 
L 264.671503 141.826216 
L 259.642346 136.463821 
L 254.443899 131.265374 
L 249.081504 126.236216 
L 243.560672 121.381516 
L 237.887076 116.706261 
L 232.066545 112.215256 
L 226.105062 107.913115 
L 220.00875 103.80426 
L 213.783876 99.892912 
L 207.436835 96.183091 
L 200.974149 92.678608 
L 194.40246 89.383066 
L 187.72852 86.299849 
L 180.959186 83.432127 
L 174.101416 80.782846 
L 167.162256 78.354729 
L 160.148835 76.15027 
L 153.068362 74.171735 
L 145.928111 72.421157 
L 138.73542 70.900335 
L 131.49768 69.610831 
L 124.222328 68.553971 
L 116.91684 67.73084 
L 109.588722 67.142284 
L 102.245506 66.788909 
L 94.894736 66.671077 
" clip-path="url(#p99caab1ded)" style="fill: none; stroke: #39c5bb; stroke-width: 2; stroke-linecap: square"/>
   </g>
   <g id="line2d_2">
    <path d="M 94.894736 296.012984 
L 209.565689 97.397066 
" clip-path="url(#p99caab1ded)" style="fill: none; stroke: #f59e0b; stroke-width: 2.5; stroke-linecap: square"/>
   </g>
   <g id="line2d_3">
    <defs>
     <path id="mf3bb226a84" d="M 0 4 
C 1.060812 4 2.078319 3.578535 2.828427 2.828427 
C 3.578535 2.078319 4 1.060812 4 0 
C 4 -1.060812 3.578535 -2.078319 2.828427 -2.828427 
C 2.078319 -3.578535 1.060812 -4 0 -4 
C -1.060812 -4 -2.078319 -3.578535 -2.828427 -2.828427 
C -3.578535 -2.078319 -4 -1.060812 -4 0 
C -4 1.060812 -3.578535 2.078319 -2.828427 2.828427 
C -2.078319 3.578535 -1.060812 4 0 4 
z
" style="stroke: #f59e0b"/>
    </defs>
    <g clip-path="url(#p99caab1ded)">
     <use xlink:href="#mf3bb226a84" x="209.565689" y="97.397066" style="fill: #f59e0b; stroke: #f59e0b"/>
    </g>
   </g>
   <g id="line2d_4">
    <path d="M 209.565689 296.012984 
L 209.565689 97.397066 
" clip-path="url(#p99caab1ded)" style="fill: none; stroke-dasharray: 5.55,2.4; stroke-dashoffset: 0; stroke: #e12885; stroke-width: 1.5"/>
   </g>
   <g id="line2d_5">
    <path d="M 94.894736 296.012984 
L 209.565689 296.012984 
" clip-path="url(#p99caab1ded)" style="fill: none; stroke: #4b5563; stroke-width: 3; stroke-linecap: square"/>
   </g>
   <g id="line2d_6">
    <path d="M 94.894736 296.012984 
L 94.894736 97.397066 
" clip-path="url(#p99caab1ded)" style="fill: none; stroke: #e12885; stroke-width: 3; stroke-linecap: square"/>
   </g>
   <g id="line2d_7">
    <path d="M 140.763117 296.012984 
L 140.739413 294.538532 
L 140.668324 293.065605 
L 140.549924 291.595724 
L 140.384336 290.130409 
L 140.171731 288.671174 
L 139.912327 287.219527 
L 139.606395 285.776969 
L 139.254249 284.344991 
L 138.856253 282.925073 
L 138.41282 281.518682 
L 137.924407 280.127272 
L 137.391519 278.752282 
L 136.814707 277.395132 
L 136.194568 276.057225 
L 135.531741 274.739944 
L 134.826913 273.44465 
L 134.080811 272.172683 
L 133.294207 270.925357 
L 132.467914 269.703961 
" clip-path="url(#p99caab1ded)" style="fill: none; stroke: #4b5563; stroke-width: 2; stroke-linecap: square"/>
   </g>
   <g id="line2d_8">
    <path d="M 141.861209 263.126705 
L 141.093662 262.056893 
L 140.301752 261.004988 
L 139.485896 259.971545 
L 138.646525 258.957109 
L 137.78408 257.962214 
L 136.899017 256.987386 
L 135.991803 256.033139 
L 135.062916 255.099976 
L 134.112845 254.188388 
L 133.142093 253.298857 
L 132.15117 252.431852 
L 131.1406 251.58783 
L 130.110915 250.767236 
L 129.062658 249.970503 
L 127.996382 249.198051 
L 126.91265 248.450288 
L 125.812033 247.727607 
L 124.695112 247.03039 
L 123.562474 246.359004 
" clip-path="url(#p99caab1ded)" style="fill: none; stroke: #e12885; stroke-width: 2; stroke-linecap: square"/>
   </g>
   <g id="text_1">
    <!-- P -->
    <g style="fill: #f59e0b" transform="translate(221.032785 85.929971) scale(0.11 -0.11)">
     <defs>
      <path id="SegoeUI-Bold-50" d="M 1522 1544 
L 1522 0 
L 513 0 
L 513 4481 
L 2094 4481 
Q 3788 4481 3788 3053 
Q 3788 2378 3302 1961 
Q 2816 1544 2003 1544 
L 1522 1544 
z
M 1522 3706 
L 1522 2309 
L 1919 2309 
Q 2725 2309 2725 3016 
Q 2725 3706 1919 3706 
L 1522 3706 
z
" transform="scale(0.015625)"/>
     </defs>
     <use xlink:href="#SegoeUI-Bold-50"/>
    </g>
   </g>
   <g id="text_2">
    <!-- cos(α+β) -->
    <g style="fill: #4b5563" transform="translate(134.582478 314.360336) scale(0.09 -0.09)">
     <defs>
      <path id="SegoeUI-63" d="M 2700 147 
Q 2331 -75 1825 -75 
Q 1141 -75 720 370 
Q 300 816 300 1525 
Q 300 2316 753 2795 
Q 1206 3275 1963 3275 
Q 2384 3275 2706 3119 
L 2706 2594 
Q 2350 2844 1944 2844 
Q 1453 2844 1139 2492 
Q 825 2141 825 1569 
Q 825 1006 1120 681 
Q 1416 356 1913 356 
Q 2331 356 2700 634 
L 2700 147 
z
" transform="scale(0.015625)"/>
      <path id="SegoeUI-6f" d="M 1856 -75 
Q 1147 -75 723 373 
Q 300 822 300 1563 
Q 300 2369 740 2822 
Q 1181 3275 1931 3275 
Q 2647 3275 3048 2834 
Q 3450 2394 3450 1613 
Q 3450 847 3017 386 
Q 2584 -75 1856 -75 
z
M 1894 2844 
Q 1400 2844 1112 2508 
Q 825 2172 825 1581 
Q 825 1013 1115 684 
Q 1406 356 1894 356 
Q 2391 356 2658 678 
Q 2925 1000 2925 1594 
Q 2925 2194 2658 2519 
Q 2391 2844 1894 2844 
z
" transform="scale(0.015625)"/>
      <path id="SegoeUI-73" d="M 325 116 
L 325 666 
Q 744 356 1247 356 
Q 1922 356 1922 806 
Q 1922 934 1864 1023 
Q 1806 1113 1707 1181 
Q 1609 1250 1476 1304 
Q 1344 1359 1191 1419 
Q 978 1503 817 1589 
Q 656 1675 548 1783 
Q 441 1891 386 2028 
Q 331 2166 331 2350 
Q 331 2575 434 2748 
Q 538 2922 709 3039 
Q 881 3156 1101 3215 
Q 1322 3275 1556 3275 
Q 1972 3275 2300 3131 
L 2300 2613 
Q 1947 2844 1488 2844 
Q 1344 2844 1228 2811 
Q 1113 2778 1030 2718 
Q 947 2659 901 2576 
Q 856 2494 856 2394 
Q 856 2269 901 2184 
Q 947 2100 1034 2034 
Q 1122 1969 1247 1916 
Q 1372 1863 1531 1800 
Q 1744 1719 1912 1633 
Q 2081 1547 2200 1439 
Q 2319 1331 2383 1190 
Q 2447 1050 2447 856 
Q 2447 619 2342 444 
Q 2238 269 2063 153 
Q 1888 38 1659 -18 
Q 1431 -75 1181 -75 
Q 688 -75 325 116 
z
" transform="scale(0.015625)"/>
      <path id="SegoeUI-28" d="M 1863 -1019 
L 1406 -1019 
Q 438 88 438 1709 
Q 438 3338 1406 4481 
L 1869 4481 
Q 888 3294 888 1716 
Q 888 150 1863 -1019 
z
" transform="scale(0.015625)"/>
      <path id="SegoeUI-3b1" d="M 3816 16 
Q 3650 -25 3519 -25 
Q 3038 -25 2869 891 
L 2856 891 
Q 2394 -75 1563 -75 
Q 981 -75 631 373 
Q 281 822 281 1506 
Q 281 2288 684 2781 
Q 1088 3275 1775 3275 
Q 2169 3275 2478 3040 
Q 2788 2806 2947 2381 
L 2959 2381 
L 3225 3200 
L 3763 3200 
L 3159 1631 
Q 3266 947 3384 701 
Q 3503 456 3691 456 
Q 3763 456 3816 472 
L 3816 16 
z
M 2728 1625 
Q 2609 2219 2365 2534 
Q 2122 2850 1778 2850 
Q 1334 2850 1070 2472 
Q 806 2094 806 1538 
Q 806 1044 1029 709 
Q 1253 375 1631 375 
Q 1963 375 2233 658 
Q 2503 941 2684 1491 
L 2728 1625 
z
" transform="scale(0.015625)"/>
      <path id="SegoeUI-2b" d="M 3663 1656 
L 2400 1656 
L 2400 397 
L 1984 397 
L 1984 1656 
L 725 1656 
L 725 2075 
L 1984 2075 
L 1984 3334 
L 2400 3334 
L 2400 2075 
L 3663 2075 
L 3663 1656 
z
" transform="scale(0.015625)"/>
      <path id="SegoeUI-3b2" d="M 1028 144 
L 1028 -1503 
L 522 -1503 
L 522 3484 
Q 522 4081 865 4434 
Q 1209 4788 1788 4788 
Q 2328 4788 2639 4505 
Q 2950 4222 2950 3722 
Q 2950 3347 2711 3020 
Q 2472 2694 2091 2572 
L 2091 2559 
Q 2656 2469 2961 2133 
Q 3266 1797 3266 1278 
Q 3266 675 2887 298 
Q 2509 -78 1894 -78 
Q 1419 -78 1028 144 
z
M 1553 2316 
L 1553 2725 
Q 1938 2778 2186 3048 
Q 2434 3319 2434 3659 
Q 2434 4350 1778 4350 
Q 1416 4350 1222 4109 
Q 1028 3869 1028 3431 
L 1028 631 
Q 1466 359 1884 359 
Q 2288 359 2514 592 
Q 2741 825 2741 1244 
Q 2741 2191 1553 2316 
z
" transform="scale(0.015625)"/>
      <path id="SegoeUI-29" d="M 531 -1019 
L 75 -1019 
Q 1050 150 1050 1716 
Q 1050 3294 69 4481 
L 531 4481 
Q 1506 3338 1506 1709 
Q 1506 88 531 -1019 
z
" transform="scale(0.015625)"/>
     </defs>
     <use xlink:href="#SegoeUI-63"/>
     <use xlink:href="#SegoeUI-6f" x="46.191406"/>
     <use xlink:href="#SegoeUI-73" x="104.785156"/>
     <use xlink:href="#SegoeUI-28" x="147.216797"/>
     <use xlink:href="#SegoeUI-3b1" x="177.392578"/>
     <use xlink:href="#SegoeUI-2b" x="238.818359"/>
     <use xlink:href="#SegoeUI-3b2" x="307.226562"/>
     <use xlink:href="#SegoeUI-29" x="362.011719"/>
    </g>
   </g>
   <g id="text_3">
    <!-- sin(α+β) -->
    <g style="fill: #e12885" transform="translate(69.683473 198.818619) rotate(-90) scale(0.09 -0.09)">
     <defs>
      <path id="SegoeUI-69" d="M 781 4013 
Q 644 4013 547 4106 
Q 450 4200 450 4344 
Q 450 4488 547 4583 
Q 644 4678 781 4678 
Q 922 4678 1020 4583 
Q 1119 4488 1119 4344 
Q 1119 4206 1020 4109 
Q 922 4013 781 4013 
z
M 1031 0 
L 519 0 
L 519 3200 
L 1031 3200 
L 1031 0 
z
" transform="scale(0.015625)"/>
      <path id="SegoeUI-6e" d="M 3175 0 
L 2663 0 
L 2663 1825 
Q 2663 2844 1919 2844 
Q 1534 2844 1282 2555 
Q 1031 2266 1031 1825 
L 1031 0 
L 519 0 
L 519 3200 
L 1031 3200 
L 1031 2669 
L 1044 2669 
Q 1406 3275 2094 3275 
Q 2619 3275 2897 2936 
Q 3175 2597 3175 1956 
L 3175 0 
z
" transform="scale(0.015625)"/>
     </defs>
     <use xlink:href="#SegoeUI-73"/>
     <use xlink:href="#SegoeUI-69" x="42.431641"/>
     <use xlink:href="#SegoeUI-6e" x="66.650391"/>
     <use xlink:href="#SegoeUI-28" x="123.242188"/>
     <use xlink:href="#SegoeUI-3b1" x="153.417969"/>
     <use xlink:href="#SegoeUI-2b" x="214.84375"/>
     <use xlink:href="#SegoeUI-3b2" x="283.251953"/>
     <use xlink:href="#SegoeUI-29" x="338.037109"/>
    </g>
   </g>
   <g id="text_4">
    <!-- α -->
    <g style="fill: #4b5563" transform="translate(159.11047 277.665631) scale(0.11 -0.11)">
     <defs>
      <path id="SegoeUI-Bold-3b1" d="M 2697 669 
Q 2313 -78 1538 -78 
Q 928 -78 578 362 
Q 228 803 228 1509 
Q 228 2275 634 2776 
Q 1041 3278 1725 3278 
Q 2497 3278 2769 2619 
L 2784 2619 
L 2959 3200 
L 3956 3200 
L 3266 1578 
Q 3384 1134 3511 939 
Q 3638 744 3803 744 
Q 3950 744 4050 794 
L 4038 38 
Q 3831 -47 3566 -47 
Q 3222 -47 3020 120 
Q 2819 288 2716 669 
L 2697 669 
z
M 2484 1644 
Q 2303 2528 1850 2528 
Q 1553 2528 1384 2253 
Q 1216 1978 1216 1569 
Q 1216 1178 1352 933 
Q 1488 688 1747 688 
Q 2191 688 2438 1497 
L 2484 1644 
z
" transform="scale(0.015625)"/>
     </defs>
     <use xlink:href="#SegoeUI-Bold-3b1"/>
    </g>
   </g>
   <g id="text_5">
    <!-- β -->
    <g style="fill: #e12885" transform="translate(168.284146 245.557764) scale(0.11 -0.11)">
     <defs>
      <path id="SegoeUI-Bold-3b2" d="M 1403 78 
L 1403 -1481 
L 416 -1481 
L 416 3275 
Q 416 3966 834 4383 
Q 1253 4800 1975 4800 
Q 2678 4800 3079 4470 
Q 3481 4141 3481 3588 
Q 3481 3213 3264 2928 
Q 3047 2644 2684 2528 
L 2684 2516 
Q 3188 2416 3475 2089 
Q 3763 1763 3763 1288 
Q 3763 678 3341 301 
Q 2919 -75 2222 -75 
Q 1800 -75 1403 78 
z
M 1759 2094 
L 1759 2784 
Q 2084 2806 2282 2997 
Q 2481 3188 2481 3494 
Q 2481 3750 2343 3897 
Q 2206 4044 1972 4044 
Q 1403 4044 1403 3306 
L 1403 888 
Q 1738 681 2084 681 
Q 2756 681 2756 1319 
Q 2756 2056 1759 2094 
z
" transform="scale(0.015625)"/>
     </defs>
     <use xlink:href="#SegoeUI-Bold-3b2"/>
    </g>
   </g>
   <g id="text_6">
    <!-- Suma de ángulos: α + β -->
    <g style="fill: #2c2f33" transform="translate(171.452458 37.736886) scale(0.11 -0.11)">
     <defs>
      <path id="SegoeUI-Bold-53" d="M 306 172 
L 306 1172 
Q 578 944 897 830 
Q 1216 716 1541 716 
Q 1731 716 1873 750 
Q 2016 784 2111 845 
Q 2206 906 2253 989 
Q 2300 1072 2300 1169 
Q 2300 1300 2225 1403 
Q 2150 1506 2020 1593 
Q 1891 1681 1712 1762 
Q 1534 1844 1328 1928 
Q 803 2147 545 2462 
Q 288 2778 288 3225 
Q 288 3575 428 3826 
Q 569 4078 811 4240 
Q 1053 4403 1372 4479 
Q 1691 4556 2047 4556 
Q 2397 4556 2667 4514 
Q 2938 4472 3166 4384 
L 3166 3450 
Q 3053 3528 2920 3587 
Q 2788 3647 2647 3686 
Q 2506 3725 2367 3744 
Q 2228 3763 2103 3763 
Q 1931 3763 1790 3730 
Q 1650 3697 1553 3637 
Q 1456 3578 1403 3495 
Q 1350 3413 1350 3309 
Q 1350 3197 1409 3108 
Q 1469 3019 1578 2939 
Q 1688 2859 1844 2782 
Q 2000 2706 2197 2625 
Q 2466 2513 2680 2386 
Q 2894 2259 3047 2100 
Q 3200 1941 3281 1736 
Q 3363 1531 3363 1259 
Q 3363 884 3220 629 
Q 3078 375 2834 217 
Q 2591 59 2267 -9 
Q 1944 -78 1584 -78 
Q 1216 -78 883 -15 
Q 550 47 306 172 
z
" transform="scale(0.015625)"/>
      <path id="SegoeUI-Bold-75" d="M 3456 0 
L 2472 0 
L 2472 488 
L 2456 488 
Q 2091 -78 1478 -78 
Q 366 -78 366 1269 
L 366 3200 
L 1350 3200 
L 1350 1356 
Q 1350 678 1888 678 
Q 2153 678 2312 864 
Q 2472 1050 2472 1369 
L 2472 3200 
L 3456 3200 
L 3456 0 
z
" transform="scale(0.015625)"/>
      <path id="SegoeUI-Bold-6d" d="M 5497 0 
L 4513 0 
L 4513 1825 
Q 4513 2522 4000 2522 
Q 3756 2522 3603 2312 
Q 3450 2103 3450 1791 
L 3450 0 
L 2463 0 
L 2463 1844 
Q 2463 2522 1959 2522 
Q 1706 2522 1554 2322 
Q 1403 2122 1403 1778 
L 1403 0 
L 416 0 
L 416 3200 
L 1403 3200 
L 1403 2700 
L 1416 2700 
Q 1569 2956 1845 3117 
Q 2122 3278 2450 3278 
Q 3128 3278 3378 2681 
Q 3744 3278 4453 3278 
Q 5497 3278 5497 1991 
L 5497 0 
z
" transform="scale(0.015625)"/>
      <path id="SegoeUI-Bold-61" d="M 3078 0 
L 2144 0 
L 2144 459 
L 2131 459 
Q 1809 -78 1178 -78 
Q 713 -78 445 186 
Q 178 450 178 891 
Q 178 1822 1281 1966 
L 2150 2081 
Q 2150 2606 1581 2606 
Q 1009 2606 494 2266 
L 494 3009 
Q 700 3116 1058 3197 
Q 1416 3278 1709 3278 
Q 3078 3278 3078 1913 
L 3078 0 
z
M 2150 1300 
L 2150 1516 
L 1569 1441 
Q 1088 1378 1088 1006 
Q 1088 838 1205 730 
Q 1322 622 1522 622 
Q 1800 622 1975 814 
Q 2150 1006 2150 1300 
z
" transform="scale(0.015625)"/>
      <path id="SegoeUI-Bold-20" transform="scale(0.015625)"/>
      <path id="SegoeUI-Bold-64" d="M 3547 0 
L 2559 0 
L 2559 441 
L 2547 441 
Q 2209 -78 1556 -78 
Q 956 -78 590 345 
Q 225 769 225 1528 
Q 225 2322 628 2800 
Q 1031 3278 1684 3278 
Q 2303 3278 2547 2834 
L 2559 2834 
L 2559 4738 
L 3547 4738 
L 3547 0 
z
M 2578 1556 
L 2578 1797 
Q 2578 2109 2397 2315 
Q 2216 2522 1925 2522 
Q 1597 2522 1412 2264 
Q 1228 2006 1228 1556 
Q 1228 1134 1406 906 
Q 1584 678 1900 678 
Q 2200 678 2389 918 
Q 2578 1159 2578 1556 
z
" transform="scale(0.015625)"/>
      <path id="SegoeUI-Bold-65" d="M 3291 1319 
L 1203 1319 
Q 1253 622 2081 622 
Q 2609 622 3009 872 
L 3009 159 
Q 2566 -78 1856 -78 
Q 1081 -78 653 351 
Q 225 781 225 1550 
Q 225 2347 687 2812 
Q 1150 3278 1825 3278 
Q 2525 3278 2908 2862 
Q 3291 2447 3291 1734 
L 3291 1319 
z
M 2375 1925 
Q 2375 2613 1819 2613 
Q 1581 2613 1407 2416 
Q 1234 2219 1197 1925 
L 2375 1925 
z
" transform="scale(0.015625)"/>
      <path id="SegoeUI-Bold-e1" d="M 3078 0 
L 2144 0 
L 2144 459 
L 2131 459 
Q 1809 -78 1178 -78 
Q 713 -78 445 186 
Q 178 450 178 891 
Q 178 1822 1281 1966 
L 2150 2081 
Q 2150 2606 1581 2606 
Q 1009 2606 494 2266 
L 494 3009 
Q 700 3116 1058 3197 
Q 1416 3278 1709 3278 
Q 3078 3278 3078 1913 
L 3078 0 
z
M 2150 1300 
L 2150 1516 
L 1569 1441 
Q 1088 1378 1088 1006 
Q 1088 838 1205 730 
Q 1322 622 1522 622 
Q 1800 622 1975 814 
Q 2150 1006 2150 1300 
z
M 2783 4716 
L 1804 3706 
L 1092 3706 
L 1904 4716 
L 2783 4716 
z
" transform="scale(0.015625)"/>
      <path id="SegoeUI-Bold-6e" d="M 3506 0 
L 2522 0 
L 2522 1778 
Q 2522 2522 1991 2522 
Q 1734 2522 1568 2325 
Q 1403 2128 1403 1825 
L 1403 0 
L 416 0 
L 416 3200 
L 1403 3200 
L 1403 2694 
L 1416 2694 
Q 1769 3278 2444 3278 
Q 3506 3278 3506 1959 
L 3506 0 
z
" transform="scale(0.015625)"/>
      <path id="SegoeUI-Bold-67" d="M 3553 366 
Q 3553 -525 3037 -1014 
Q 2522 -1503 1544 -1503 
Q 897 -1503 519 -1319 
L 519 -488 
Q 1013 -775 1516 -775 
Q 2016 -775 2291 -511 
Q 2566 -247 2566 206 
L 2566 459 
L 2553 459 
Q 2216 -78 1556 -78 
Q 944 -78 584 353 
Q 225 784 225 1509 
Q 225 2322 625 2800 
Q 1025 3278 1678 3278 
Q 2263 3278 2553 2828 
L 2566 2828 
L 2566 3200 
L 3553 3200 
L 3553 366 
z
M 2578 1538 
L 2578 1791 
Q 2578 2094 2398 2308 
Q 2219 2522 1931 2522 
Q 1603 2522 1415 2265 
Q 1228 2009 1228 1544 
Q 1228 1144 1406 911 
Q 1584 678 1894 678 
Q 2200 678 2389 914 
Q 2578 1150 2578 1538 
z
" transform="scale(0.015625)"/>
      <path id="SegoeUI-Bold-6c" d="M 1403 0 
L 416 0 
L 416 4738 
L 1403 4738 
L 1403 0 
z
" transform="scale(0.015625)"/>
      <path id="SegoeUI-Bold-6f" d="M 1941 -78 
Q 1141 -78 683 370 
Q 225 819 225 1588 
Q 225 2381 700 2829 
Q 1175 3278 1984 3278 
Q 2781 3278 3234 2829 
Q 3688 2381 3688 1644 
Q 3688 847 3220 384 
Q 2753 -78 1941 -78 
z
M 1966 2522 
Q 1616 2522 1422 2281 
Q 1228 2041 1228 1600 
Q 1228 678 1972 678 
Q 2681 678 2681 1625 
Q 2681 2522 1966 2522 
z
" transform="scale(0.015625)"/>
      <path id="SegoeUI-Bold-73" d="M 206 84 
L 206 884 
Q 450 738 692 666 
Q 934 594 1150 594 
Q 1413 594 1564 666 
Q 1716 738 1716 884 
Q 1716 978 1647 1040 
Q 1578 1103 1470 1150 
Q 1363 1197 1234 1234 
Q 1106 1272 988 1319 
Q 797 1391 651 1473 
Q 506 1556 407 1665 
Q 309 1775 257 1919 
Q 206 2063 206 2259 
Q 206 2528 323 2722 
Q 441 2916 636 3039 
Q 831 3163 1082 3220 
Q 1334 3278 1606 3278 
Q 1819 3278 2037 3245 
Q 2256 3213 2469 3150 
L 2469 2388 
Q 2281 2497 2067 2551 
Q 1853 2606 1647 2606 
Q 1550 2606 1464 2589 
Q 1378 2572 1312 2539 
Q 1247 2506 1209 2454 
Q 1172 2403 1172 2338 
Q 1172 2250 1228 2187 
Q 1284 2125 1375 2079 
Q 1466 2034 1577 1998 
Q 1688 1963 1797 1925 
Q 1994 1856 2153 1775 
Q 2313 1694 2427 1584 
Q 2541 1475 2602 1328 
Q 2663 1181 2663 978 
Q 2663 694 2539 492 
Q 2416 291 2211 164 
Q 2006 38 1739 -20 
Q 1472 -78 1184 -78 
Q 656 -78 206 84 
z
" transform="scale(0.015625)"/>
      <path id="SegoeUI-Bold-3a" d="M 856 2209 
Q 613 2209 450 2357 
Q 288 2506 288 2725 
Q 288 2950 455 3094 
Q 622 3238 872 3238 
Q 1125 3238 1286 3092 
Q 1447 2947 1447 2725 
Q 1447 2497 1283 2353 
Q 1119 2209 856 2209 
z
M 856 -78 
Q 613 -78 450 72 
Q 288 222 288 441 
Q 288 666 455 809 
Q 622 953 872 953 
Q 1125 953 1286 808 
Q 1447 663 1447 441 
Q 1447 213 1283 67 
Q 1119 -78 856 -78 
z
" transform="scale(0.015625)"/>
      <path id="SegoeUI-Bold-2b" d="M 3788 1516 
L 2584 1516 
L 2584 313 
L 1953 313 
L 1953 1516 
L 744 1516 
L 744 2150 
L 1953 2150 
L 1953 3359 
L 2584 3359 
L 2584 2150 
L 3788 2150 
L 3788 1516 
z
" transform="scale(0.015625)"/>
     </defs>
     <use xlink:href="#SegoeUI-Bold-53"/>
     <use xlink:href="#SegoeUI-Bold-75" x="56.054688"/>
     <use xlink:href="#SegoeUI-Bold-6d" x="116.552734"/>
     <use xlink:href="#SegoeUI-Bold-61" x="208.154297"/>
     <use xlink:href="#SegoeUI-Bold-20" x="261.962891"/>
     <use xlink:href="#SegoeUI-Bold-64" x="289.550781"/>
     <use xlink:href="#SegoeUI-Bold-65" x="351.464844"/>
     <use xlink:href="#SegoeUI-Bold-20" x="405.566406"/>
     <use xlink:href="#SegoeUI-Bold-e1" x="433.154297"/>
     <use xlink:href="#SegoeUI-Bold-6e" x="486.962891"/>
     <use xlink:href="#SegoeUI-Bold-67" x="547.460938"/>
     <use xlink:href="#SegoeUI-Bold-75" x="609.375"/>
     <use xlink:href="#SegoeUI-Bold-6c" x="669.873047"/>
     <use xlink:href="#SegoeUI-Bold-6f" x="698.291016"/>
     <use xlink:href="#SegoeUI-Bold-73" x="759.423828"/>
     <use xlink:href="#SegoeUI-Bold-3a" x="803.417969"/>
     <use xlink:href="#SegoeUI-Bold-20" x="830.517578"/>
     <use xlink:href="#SegoeUI-Bold-3b1" x="858.105469"/>
     <use xlink:href="#SegoeUI-Bold-20" x="921.777344"/>
     <use xlink:href="#SegoeUI-Bold-2b" x="949.365234"/>
     <use xlink:href="#SegoeUI-Bold-20" x="1020.068359"/>
     <use xlink:href="#SegoeUI-Bold-3b2" x="1047.65625"/>
    </g>
   </g>
  </g>
  <g id="axes_2">
   <g id="patch_4">
    <path d="M 897.915331 259.973541 
L 892.017967 262.922223 
L 892.017967 260.071831 
L 665.952374 260.071831 
L 665.952374 259.875252 
L 892.017967 259.875252 
L 892.017967 257.02486 
z
" clip-path="url(#p8e418beaf5)" style="fill: #9ca3af; stroke: #9ca3af; stroke-linejoin: miter"/>
   </g>
   <g id="patch_5">
    <path d="M 665.952374 67.32634 
L 668.901055 73.223703 
L 666.050663 73.223703 
L 666.050663 259.973541 
L 665.854084 259.973541 
L 665.854084 73.223703 
L 663.003692 73.223703 
z
" clip-path="url(#p8e418beaf5)" style="fill: #9ca3af; stroke: #9ca3af; stroke-linejoin: miter"/>
   </g>
   <g id="line2d_9">
    <path d="M 853.751253 318.066542 
L 855.831818 310.855878 
L 857.635635 303.571053 
L 859.160073 296.222685 
L 860.402912 288.821484 
L 861.362339 281.378237 
L 862.036957 273.903793 
L 862.425781 266.409045 
L 862.528246 258.904918 
L 862.344202 251.402348 
L 861.873917 243.91227 
L 861.118077 236.445602 
L 860.077783 229.013226 
L 858.754552 221.625975 
L 857.150311 214.294615 
L 855.2674 207.029832 
L 853.108563 199.842214 
L 850.676946 192.742237 
L 847.976093 185.740251 
L 845.00994 178.846459 
L 841.782812 172.070909 
L 838.299411 165.423478 
L 834.564814 158.913853 
L 830.584465 152.551523 
L 826.364165 146.34576 
L 821.910065 140.305609 
L 817.228657 134.439874 
L 812.326765 128.757104 
L 807.211531 123.265582 
L 801.890413 117.973312 
L 796.371165 112.888006 
L 790.661832 108.017078 
L 784.770735 103.367626 
L 778.70646 98.946427 
L 772.477847 94.759924 
L 766.093973 90.814221 
L 759.564143 87.115066 
L 752.897873 83.667853 
L 746.104881 80.477605 
L 739.195067 77.548972 
L 732.178501 74.886222 
L 725.065411 72.493237 
L 717.866164 70.373504 
L 710.591253 68.530113 
L 703.25128 66.965751 
L 695.856944 65.682697 
L 688.419023 64.682821 
L 680.948356 63.967582 
L 673.455833 63.538021 
L 665.952374 63.394764 
" clip-path="url(#p8e418beaf5)" style="fill: none; stroke: #39c5bb; stroke-width: 2; stroke-linecap: square"/>
   </g>
   <g id="line2d_10">
    <path d="M 665.952374 259.973541 
L 836.194589 161.684153 
" clip-path="url(#p8e418beaf5)" style="fill: none; stroke: #ec4899; stroke-width: 2.5; stroke-linecap: square"/>
   </g>
   <g id="line2d_11">
    <defs>
     <path id="mc596b990cb" d="M 0 4 
C 1.060812 4 2.078319 3.578535 2.828427 2.828427 
C 3.578535 2.078319 4 1.060812 4 0 
C 4 -1.060812 3.578535 -2.078319 2.828427 -2.828427 
C 2.078319 -3.578535 1.060812 -4 0 -4 
C -1.060812 -4 -2.078319 -3.578535 -2.828427 -2.828427 
C -3.578535 -2.078319 -4 -1.060812 -4 0 
C -4 1.060812 -3.578535 2.078319 -2.828427 2.828427 
C -2.078319 3.578535 -1.060812 4 0 4 
z
" style="stroke: #ec4899"/>
    </defs>
    <g clip-path="url(#p8e418beaf5)">
     <use xlink:href="#mc596b990cb" x="836.194589" y="161.684153" style="fill: #ec4899; stroke: #ec4899"/>
    </g>
   </g>
   <g id="line2d_12">
    <path d="M 836.194589 259.973541 
L 836.194589 161.684153 
" clip-path="url(#p8e418beaf5)" style="fill: none; stroke-dasharray: 5.55,2.4; stroke-dashoffset: 0; stroke: #e12885; stroke-width: 1.5"/>
   </g>
   <g id="line2d_13">
    <path d="M 665.952374 259.973541 
L 836.194589 259.973541 
" clip-path="url(#p8e418beaf5)" style="fill: none; stroke: #4b5563; stroke-width: 3; stroke-linecap: square"/>
   </g>
   <g id="line2d_14">
    <path d="M 665.952374 259.973541 
L 665.952374 161.684153 
" clip-path="url(#p8e418beaf5)" style="fill: none; stroke: #e12885; stroke-width: 3; stroke-linecap: square"/>
   </g>
   <g id="line2d_15">
    <path d="M 724.926007 259.973541 
L 724.863814 257.265851 
L 724.677367 254.563872 
L 724.36706 251.873303 
L 723.933546 249.199818 
L 723.37774 246.549058 
L 722.700814 243.926611 
L 721.904196 241.338011 
L 720.989566 238.788715 
L 719.958854 236.284103 
L 718.814233 233.829455 
L 717.558117 231.429949 
L 716.193156 229.090647 
L 714.722229 226.816482 
L 713.148438 224.61225 
L 711.475103 222.482602 
L 709.705753 220.432028 
L 707.844119 218.464854 
L 705.894129 216.585229 
L 703.859894 214.797117 
" clip-path="url(#p8e418beaf5)" style="fill: none; stroke-dasharray: 5.55,2.4; stroke-dashoffset: 0; stroke: #9ca3af; stroke-width: 1.5"/>
   </g>
   <g id="line2d_16">
    <path d="M 705.268129 259.973541 
L 705.253201 258.890221 
L 705.208429 257.807724 
L 705.133846 256.726872 
L 705.029509 255.648485 
L 704.895498 254.573382 
L 704.731913 253.502381 
L 704.538881 252.436293 
L 704.316546 251.375929 
L 704.065077 250.322094 
L 703.784667 249.275588 
L 703.475527 248.237206 
L 703.137893 247.207736 
L 702.772021 246.187961 
L 702.378188 245.178654 
L 701.956694 244.180582 
L 701.507859 243.194503 
L 701.032023 242.221166 
L 700.529549 241.26131 
L 700.000817 240.315663 
" clip-path="url(#p8e418beaf5)" style="fill: none; stroke: #ec4899; stroke-width: 2; stroke-linecap: square"/>
   </g>
   <g id="text_7">
    <!-- P -->
    <g style="fill: #ec4899" transform="translate(846.023527 151.855214) scale(0.11 -0.11)">
     <use xlink:href="#SegoeUI-Bold-50"/>
    </g>
   </g>
   <g id="text_8">
    <!-- cos(α−β) -->
    <g style="fill: #4b5563" transform="translate(733.425747 275.699843) scale(0.09 -0.09)">
     <defs>
      <path id="SegoeUI-2212" d="M 3663 1656 
L 725 1656 
L 725 2075 
L 3663 2075 
L 3663 1656 
z
" transform="scale(0.015625)"/>
     </defs>
     <use xlink:href="#SegoeUI-63"/>
     <use xlink:href="#SegoeUI-6f" x="46.191406"/>
     <use xlink:href="#SegoeUI-73" x="104.785156"/>
     <use xlink:href="#SegoeUI-28" x="147.216797"/>
     <use xlink:href="#SegoeUI-3b1" x="177.392578"/>
     <use xlink:href="#SegoeUI-2212" x="238.818359"/>
     <use xlink:href="#SegoeUI-3b2" x="307.226562"/>
     <use xlink:href="#SegoeUI-29" x="362.011719"/>
    </g>
   </g>
   <g id="text_9">
    <!-- sin(α−β) -->
    <g style="fill: #e12885" transform="translate(644.672686 212.942441) rotate(-90) scale(0.09 -0.09)">
     <use xlink:href="#SegoeUI-73"/>
     <use xlink:href="#SegoeUI-69" x="42.431641"/>
     <use xlink:href="#SegoeUI-6e" x="66.650391"/>
     <use xlink:href="#SegoeUI-28" x="123.242188"/>
     <use xlink:href="#SegoeUI-3b1" x="153.417969"/>
     <use xlink:href="#SegoeUI-2212" x="214.84375"/>
     <use xlink:href="#SegoeUI-3b2" x="283.251953"/>
     <use xlink:href="#SegoeUI-29" x="338.037109"/>
    </g>
   </g>
   <g id="text_10">
    <!-- α -->
    <g style="fill: #6b7280" transform="translate(740.652309 220.657786) scale(0.1 -0.1)">
     <use xlink:href="#SegoeUI-3b1"/>
    </g>
   </g>
   <g id="text_11">
    <!-- α−β -->
    <g style="fill: #ec4899" transform="translate(715.097068 240.315663) scale(0.1 -0.1)">
     <defs>
      <path id="SegoeUI-Bold-2212" d="M 3788 1516 
L 744 1516 
L 744 2150 
L 3788 2150 
L 3788 1516 
z
" transform="scale(0.015625)"/>
     </defs>
     <use xlink:href="#SegoeUI-Bold-3b1"/>
     <use xlink:href="#SegoeUI-Bold-2212" x="63.671875"/>
     <use xlink:href="#SegoeUI-Bold-3b2" x="134.375"/>
    </g>
   </g>
   <g id="text_12">
    <!-- Diferencia de ángulos: α − β -->
    <g style="fill: #2c2f33" transform="translate(710.924093 37.736886) scale(0.11 -0.11)">
     <defs>
      <path id="SegoeUI-Bold-44" d="M 513 0 
L 513 4481 
L 2100 4481 
Q 4488 4481 4488 2297 
Q 4488 1250 3836 625 
Q 3184 0 2100 0 
L 513 0 
z
M 1522 3659 
L 1522 819 
L 2022 819 
Q 2678 819 3051 1212 
Q 3425 1606 3425 2284 
Q 3425 2925 3054 3292 
Q 2684 3659 2016 3659 
L 1522 3659 
z
" transform="scale(0.015625)"/>
      <path id="SegoeUI-Bold-69" d="M 916 3706 
Q 666 3706 506 3854 
Q 347 4003 347 4219 
Q 347 4441 506 4581 
Q 666 4722 916 4722 
Q 1169 4722 1326 4581 
Q 1484 4441 1484 4219 
Q 1484 3994 1326 3850 
Q 1169 3706 916 3706 
z
M 1403 0 
L 416 0 
L 416 3200 
L 1403 3200 
L 1403 0 
z
" transform="scale(0.015625)"/>
      <path id="SegoeUI-Bold-66" d="M 2503 3981 
Q 2313 4056 2138 4056 
Q 1663 4056 1663 3541 
L 1663 3200 
L 2394 3200 
L 2394 2472 
L 1663 2472 
L 1663 0 
L 678 0 
L 678 2472 
L 141 2472 
L 141 3200 
L 678 3200 
L 678 3597 
Q 678 4144 1034 4478 
Q 1391 4813 2003 4813 
Q 2303 4813 2503 4750 
L 2503 3981 
z
" transform="scale(0.015625)"/>
      <path id="SegoeUI-Bold-72" d="M 2503 2309 
Q 2325 2406 2088 2406 
Q 1766 2406 1584 2170 
Q 1403 1934 1403 1528 
L 1403 0 
L 416 0 
L 416 3200 
L 1403 3200 
L 1403 2606 
L 1416 2606 
Q 1650 3256 2259 3256 
Q 2416 3256 2503 3219 
L 2503 2309 
z
" transform="scale(0.015625)"/>
      <path id="SegoeUI-Bold-63" d="M 2841 116 
Q 2506 -78 1875 -78 
Q 1138 -78 681 369 
Q 225 816 225 1522 
Q 225 2338 714 2808 
Q 1203 3278 2022 3278 
Q 2588 3278 2841 3128 
L 2841 2291 
Q 2531 2522 2150 2522 
Q 1725 2522 1476 2273 
Q 1228 2025 1228 1588 
Q 1228 1163 1465 920 
Q 1703 678 2119 678 
Q 2488 678 2841 909 
L 2841 116 
z
" transform="scale(0.015625)"/>
     </defs>
     <use xlink:href="#SegoeUI-Bold-44"/>
     <use xlink:href="#SegoeUI-Bold-69" x="73.730469"/>
     <use xlink:href="#SegoeUI-Bold-66" x="102.148438"/>
     <use xlink:href="#SegoeUI-Bold-65" x="140.478516"/>
     <use xlink:href="#SegoeUI-Bold-72" x="194.580078"/>
     <use xlink:href="#SegoeUI-Bold-65" x="234"/>
     <use xlink:href="#SegoeUI-Bold-6e" x="288.101562"/>
     <use xlink:href="#SegoeUI-Bold-63" x="348.599609"/>
     <use xlink:href="#SegoeUI-Bold-69" x="396.597656"/>
     <use xlink:href="#SegoeUI-Bold-61" x="425.015625"/>
     <use xlink:href="#SegoeUI-Bold-20" x="478.824219"/>
     <use xlink:href="#SegoeUI-Bold-64" x="506.412109"/>
     <use xlink:href="#SegoeUI-Bold-65" x="568.326172"/>
     <use xlink:href="#SegoeUI-Bold-20" x="622.427734"/>
     <use xlink:href="#SegoeUI-Bold-e1" x="650.015625"/>
     <use xlink:href="#SegoeUI-Bold-6e" x="703.824219"/>
     <use xlink:href="#SegoeUI-Bold-67" x="764.322266"/>
     <use xlink:href="#SegoeUI-Bold-75" x="826.236328"/>
     <use xlink:href="#SegoeUI-Bold-6c" x="886.734375"/>
     <use xlink:href="#SegoeUI-Bold-6f" x="915.152344"/>
     <use xlink:href="#SegoeUI-Bold-73" x="976.285156"/>
     <use xlink:href="#SegoeUI-Bold-3a" x="1020.279297"/>
     <use xlink:href="#SegoeUI-Bold-20" x="1047.378906"/>
     <use xlink:href="#SegoeUI-Bold-3b1" x="1074.966797"/>
     <use xlink:href="#SegoeUI-Bold-20" x="1138.638672"/>
     <use xlink:href="#SegoeUI-Bold-2212" x="1166.226562"/>
     <use xlink:href="#SegoeUI-Bold-20" x="1236.929688"/>
     <use xlink:href="#SegoeUI-Bold-3b2" x="1264.517578"/>
    </g>
   </g>
  </g>
  <g id="axes_3">
   <g id="patch_6">
    <path d="M 27.23999 539.56073 
L 498.179765 539.56073 
L 498.179765 400.854745 
L 27.23999 400.854745 
z
" clip-path="url(#p5c1d9e426b)" style="fill: #f0fdf4; stroke: #e12885; stroke-width: 2; stroke-linejoin: miter"/>
   </g>
   <g id="patch_7">
    <path d="M 518.219755 539.56073 
L 989.15953 539.56073 
L 989.15953 400.854745 
L 518.219755 400.854745 
z
" clip-path="url(#p5c1d9e426b)" style="fill: #eff6ff; stroke: #4b5563; stroke-width: 2; stroke-linejoin: miter"/>
   </g>
   <g id="patch_8">
    <path d="M 27.23999 694.779332 
L 989.15953 694.779332 
L 989.15953 556.073347 
L 27.23999 556.073347 
z
" clip-path="url(#p5c1d9e426b)" style="fill: #fef3c7; stroke: #f59e0b; stroke-width: 2; stroke-linejoin: miter"/>
   </g>
   <g id="text_13">
    <!-- SENO -->
    <g style="fill: #e12885" transform="translate(246.863315 417.367362) scale(0.12 -0.12)">
     <defs>
      <path id="SegoeUI-Bold-45" d="M 3200 0 
L 513 0 
L 513 4481 
L 3097 4481 
L 3097 3659 
L 1522 3659 
L 1522 2663 
L 2988 2663 
L 2988 1844 
L 1522 1844 
L 1522 819 
L 3200 819 
L 3200 0 
z
" transform="scale(0.015625)"/>
      <path id="SegoeUI-Bold-4e" d="M 4544 0 
L 3525 0 
L 1678 2816 
Q 1516 3063 1453 3188 
L 1441 3188 
Q 1466 2950 1466 2463 
L 1466 0 
L 513 0 
L 513 4481 
L 1600 4481 
L 3378 1753 
Q 3500 1569 3603 1388 
L 3616 1388 
Q 3591 1544 3591 2003 
L 3591 4481 
L 4544 4481 
L 4544 0 
z
" transform="scale(0.015625)"/>
      <path id="SegoeUI-Bold-4f" d="M 2406 -78 
Q 1444 -78 837 548 
Q 231 1175 231 2181 
Q 231 3244 847 3900 
Q 1463 4556 2478 4556 
Q 3438 4556 4030 3928 
Q 4622 3300 4622 2272 
Q 4622 1216 4008 569 
Q 3394 -78 2406 -78 
z
M 2450 3688 
Q 1919 3688 1606 3289 
Q 1294 2891 1294 2234 
Q 1294 1569 1606 1181 
Q 1919 794 2425 794 
Q 2947 794 3253 1170 
Q 3559 1547 3559 2216 
Q 3559 2913 3262 3300 
Q 2966 3688 2450 3688 
z
" transform="scale(0.015625)"/>
     </defs>
     <use xlink:href="#SegoeUI-Bold-53"/>
     <use xlink:href="#SegoeUI-Bold-45" x="56.054688"/>
     <use xlink:href="#SegoeUI-Bold-4e" x="109.277344"/>
     <use xlink:href="#SegoeUI-Bold-4f" x="188.28125"/>
    </g>
   </g>
   <g id="text_14">
    <!-- $\sin(\alpha + \beta) = \sin\alpha\cos\beta + \cos\alpha\sin\beta$ -->
    <g style="fill: #2c2f33" transform="translate(171.024878 456.997643) scale(0.11 -0.11)">
     <defs>
      <path id="DejaVuSans-73" d="M 2834 3397 
L 2834 2853 
Q 2591 2978 2328 3040 
Q 2066 3103 1784 3103 
Q 1356 3103 1142 2972 
Q 928 2841 928 2578 
Q 928 2378 1081 2264 
Q 1234 2150 1697 2047 
L 1894 2003 
Q 2506 1872 2764 1633 
Q 3022 1394 3022 966 
Q 3022 478 2636 193 
Q 2250 -91 1575 -91 
Q 1294 -91 989 -36 
Q 684 19 347 128 
L 347 722 
Q 666 556 975 473 
Q 1284 391 1588 391 
Q 1994 391 2212 530 
Q 2431 669 2431 922 
Q 2431 1156 2273 1281 
Q 2116 1406 1581 1522 
L 1381 1569 
Q 847 1681 609 1914 
Q 372 2147 372 2553 
Q 372 3047 722 3315 
Q 1072 3584 1716 3584 
Q 2034 3584 2315 3537 
Q 2597 3491 2834 3397 
z
" transform="scale(0.015625)"/>
      <path id="DejaVuSans-69" d="M 603 3500 
L 1178 3500 
L 1178 0 
L 603 0 
L 603 3500 
z
M 603 4863 
L 1178 4863 
L 1178 4134 
L 603 4134 
L 603 4863 
z
" transform="scale(0.015625)"/>
      <path id="DejaVuSans-6e" d="M 3513 2113 
L 3513 0 
L 2938 0 
L 2938 2094 
Q 2938 2591 2744 2837 
Q 2550 3084 2163 3084 
Q 1697 3084 1428 2787 
Q 1159 2491 1159 1978 
L 1159 0 
L 581 0 
L 581 3500 
L 1159 3500 
L 1159 2956 
Q 1366 3272 1645 3428 
Q 1925 3584 2291 3584 
Q 2894 3584 3203 3211 
Q 3513 2838 3513 2113 
z
" transform="scale(0.015625)"/>
      <path id="DejaVuSans-28" d="M 1984 4856 
Q 1566 4138 1362 3434 
Q 1159 2731 1159 2009 
Q 1159 1288 1364 580 
Q 1569 -128 1984 -844 
L 1484 -844 
Q 1016 -109 783 600 
Q 550 1309 550 2009 
Q 550 2706 781 3412 
Q 1013 4119 1484 4856 
L 1984 4856 
z
" transform="scale(0.015625)"/>
      <path id="DejaVuSans-Oblique-3b1" d="M 2619 1628 
L 2622 2350 
Q 2625 3088 2069 3091 
Q 1653 3094 1394 2747 
Q 1069 2319 959 1747 
Q 825 1059 994 731 
Q 1169 397 1547 397 
Q 1966 397 2319 1063 
L 2619 1628 
z
M 2166 3578 
Q 3141 3594 3128 2584 
Q 3128 2584 3616 3500 
L 4128 3500 
L 3119 1603 
L 3109 919 
Q 3109 766 3194 638 
Q 3291 488 3391 488 
L 3669 488 
L 3575 0 
L 3228 0 
Q 2934 0 2722 263 
Q 2622 394 2619 669 
Q 2416 334 2066 50 
Q 1900 -81 1453 -78 
Q 722 -72 456 397 
Q 184 884 353 1747 
Q 534 2675 1009 3097 
Q 1544 3569 2166 3578 
z
" transform="scale(0.015625)"/>
      <path id="DejaVuSans-2b" d="M 2944 4013 
L 2944 2272 
L 4684 2272 
L 4684 1741 
L 2944 1741 
L 2944 0 
L 2419 0 
L 2419 1741 
L 678 1741 
L 678 2272 
L 2419 2272 
L 2419 4013 
L 2944 4013 
z
" transform="scale(0.015625)"/>
      <path id="DejaVuSans-Oblique-3b2" d="M 872 216 
L 572 -1331 
L -6 -1331 
L 928 3478 
Q 1206 4903 2538 4903 
Q 3888 4903 3659 3700 
Q 3503 2844 2894 2531 
Q 3713 2250 3553 1416 
Q 3272 -69 1759 -66 
Q 1097 -63 872 216 
z
M 1019 966 
Q 1259 422 1875 425 
Q 2775 425 2966 1406 
Q 3138 2288 1675 2219 
L 1778 2750 
Q 2909 2731 3106 3750 
Q 3241 4438 2509 4434 
Q 1691 4434 1503 3459 
L 1019 966 
z
" transform="scale(0.015625)"/>
      <path id="DejaVuSans-29" d="M 513 4856 
L 1013 4856 
Q 1481 4119 1714 3412 
Q 1947 2706 1947 2009 
Q 1947 1309 1714 600 
Q 1481 -109 1013 -844 
L 513 -844 
Q 928 -128 1133 580 
Q 1338 1288 1338 2009 
Q 1338 2731 1133 3434 
Q 928 4138 513 4856 
z
" transform="scale(0.015625)"/>
      <path id="DejaVuSans-3d" d="M 678 2906 
L 4684 2906 
L 4684 2381 
L 678 2381 
L 678 2906 
z
M 678 1631 
L 4684 1631 
L 4684 1100 
L 678 1100 
L 678 1631 
z
" transform="scale(0.015625)"/>
      <path id="DejaVuSans-63" d="M 3122 3366 
L 3122 2828 
Q 2878 2963 2633 3030 
Q 2388 3097 2138 3097 
Q 1578 3097 1268 2742 
Q 959 2388 959 1747 
Q 959 1106 1268 751 
Q 1578 397 2138 397 
Q 2388 397 2633 464 
Q 2878 531 3122 666 
L 3122 134 
Q 2881 22 2623 -34 
Q 2366 -91 2075 -91 
Q 1284 -91 818 406 
Q 353 903 353 1747 
Q 353 2603 823 3093 
Q 1294 3584 2113 3584 
Q 2378 3584 2631 3529 
Q 2884 3475 3122 3366 
z
" transform="scale(0.015625)"/>
      <path id="DejaVuSans-6f" d="M 1959 3097 
Q 1497 3097 1228 2736 
Q 959 2375 959 1747 
Q 959 1119 1226 758 
Q 1494 397 1959 397 
Q 2419 397 2687 759 
Q 2956 1122 2956 1747 
Q 2956 2369 2687 2733 
Q 2419 3097 1959 3097 
z
M 1959 3584 
Q 2709 3584 3137 3096 
Q 3566 2609 3566 1747 
Q 3566 888 3137 398 
Q 2709 -91 1959 -91 
Q 1206 -91 779 398 
Q 353 888 353 1747 
Q 353 2609 779 3096 
Q 1206 3584 1959 3584 
z
" transform="scale(0.015625)"/>
     </defs>
     <use xlink:href="#DejaVuSans-73" transform="translate(0 0.390625)"/>
     <use xlink:href="#DejaVuSans-69" transform="translate(52.099609 0.390625)"/>
     <use xlink:href="#DejaVuSans-6e" transform="translate(79.882812 0.390625)"/>
     <use xlink:href="#DejaVuSans-28" transform="translate(143.261719 0.390625)"/>
     <use xlink:href="#DejaVuSans-Oblique-3b1" transform="translate(182.275391 0.390625)"/>
     <use xlink:href="#DejaVuSans-2b" transform="translate(267.675781 0.390625)"/>
     <use xlink:href="#DejaVuSans-Oblique-3b2" transform="translate(370.947266 0.390625)"/>
     <use xlink:href="#DejaVuSans-29" transform="translate(434.765625 0.390625)"/>
     <use xlink:href="#DejaVuSans-3d" transform="translate(493.261719 0.390625)"/>
     <use xlink:href="#DejaVuSans-73" transform="translate(596.533203 0.390625)"/>
     <use xlink:href="#DejaVuSans-69" transform="translate(648.632812 0.390625)"/>
     <use xlink:href="#DejaVuSans-6e" transform="translate(676.416016 0.390625)"/>
     <use xlink:href="#DejaVuSans-Oblique-3b1" transform="translate(756.030598 0.390625)"/>
     <use xlink:href="#DejaVuSans-63" transform="translate(821.948567 0.390625)"/>
     <use xlink:href="#DejaVuSans-6f" transform="translate(876.929036 0.390625)"/>
     <use xlink:href="#DejaVuSans-73" transform="translate(938.110676 0.390625)"/>
     <use xlink:href="#DejaVuSans-Oblique-3b2" transform="translate(1006.445962 0.390625)"/>
     <use xlink:href="#DejaVuSans-2b" transform="translate(1089.746743 0.390625)"/>
     <use xlink:href="#DejaVuSans-63" transform="translate(1193.018228 0.390625)"/>
     <use xlink:href="#DejaVuSans-6f" transform="translate(1247.998696 0.390625)"/>
     <use xlink:href="#DejaVuSans-73" transform="translate(1309.180337 0.390625)"/>
     <use xlink:href="#DejaVuSans-Oblique-3b1" transform="translate(1377.515623 0.390625)"/>
     <use xlink:href="#DejaVuSans-73" transform="translate(1443.433591 0.390625)"/>
     <use xlink:href="#DejaVuSans-69" transform="translate(1495.533201 0.390625)"/>
     <use xlink:href="#DejaVuSans-6e" transform="translate(1523.316404 0.390625)"/>
     <use xlink:href="#DejaVuSans-Oblique-3b2" transform="translate(1602.930986 0.390625)"/>
    </g>
   </g>
   <g id="text_15">
    <!-- $\sin(\alpha - \beta) = \sin\alpha\cos\beta - \cos\alpha\sin\beta$ -->
    <g style="fill: #2c2f33" transform="translate(171.024878 506.535495) scale(0.11 -0.11)">
     <defs>
      <path id="DejaVuSans-2212" d="M 678 2272 
L 4684 2272 
L 4684 1741 
L 678 1741 
L 678 2272 
z
" transform="scale(0.015625)"/>
     </defs>
     <use xlink:href="#DejaVuSans-73" transform="translate(0 0.390625)"/>
     <use xlink:href="#DejaVuSans-69" transform="translate(52.099609 0.390625)"/>
     <use xlink:href="#DejaVuSans-6e" transform="translate(79.882812 0.390625)"/>
     <use xlink:href="#DejaVuSans-28" transform="translate(143.261719 0.390625)"/>
     <use xlink:href="#DejaVuSans-Oblique-3b1" transform="translate(182.275391 0.390625)"/>
     <use xlink:href="#DejaVuSans-2212" transform="translate(267.675781 0.390625)"/>
     <use xlink:href="#DejaVuSans-Oblique-3b2" transform="translate(370.947266 0.390625)"/>
     <use xlink:href="#DejaVuSans-29" transform="translate(434.765625 0.390625)"/>
     <use xlink:href="#DejaVuSans-3d" transform="translate(493.261719 0.390625)"/>
     <use xlink:href="#DejaVuSans-73" transform="translate(596.533203 0.390625)"/>
     <use xlink:href="#DejaVuSans-69" transform="translate(648.632812 0.390625)"/>
     <use xlink:href="#DejaVuSans-6e" transform="translate(676.416016 0.390625)"/>
     <use xlink:href="#DejaVuSans-Oblique-3b1" transform="translate(756.030598 0.390625)"/>
     <use xlink:href="#DejaVuSans-63" transform="translate(821.948567 0.390625)"/>
     <use xlink:href="#DejaVuSans-6f" transform="translate(876.929036 0.390625)"/>
     <use xlink:href="#DejaVuSans-73" transform="translate(938.110676 0.390625)"/>
     <use xlink:href="#DejaVuSans-Oblique-3b2" transform="translate(1006.445962 0.390625)"/>
     <use xlink:href="#DejaVuSans-2212" transform="translate(1089.746743 0.390625)"/>
     <use xlink:href="#DejaVuSans-63" transform="translate(1193.018228 0.390625)"/>
     <use xlink:href="#DejaVuSans-6f" transform="translate(1247.998696 0.390625)"/>
     <use xlink:href="#DejaVuSans-73" transform="translate(1309.180337 0.390625)"/>
     <use xlink:href="#DejaVuSans-Oblique-3b1" transform="translate(1377.515623 0.390625)"/>
     <use xlink:href="#DejaVuSans-73" transform="translate(1443.433591 0.390625)"/>
     <use xlink:href="#DejaVuSans-69" transform="translate(1495.533201 0.390625)"/>
     <use xlink:href="#DejaVuSans-6e" transform="translate(1523.316404 0.390625)"/>
     <use xlink:href="#DejaVuSans-Oblique-3b2" transform="translate(1602.930986 0.390625)"/>
    </g>
   </g>
   <g id="text_16">
    <!-- COSENO -->
    <g style="fill: #4b5563" transform="translate(729.624017 417.367362) scale(0.12 -0.12)">
     <defs>
      <path id="SegoeUI-Bold-43" d="M 3725 159 
Q 3234 -78 2444 -78 
Q 1413 -78 822 528 
Q 231 1134 231 2144 
Q 231 3219 895 3887 
Q 1559 4556 2619 4556 
Q 3275 4556 3725 4391 
L 3725 3419 
Q 3275 3688 2700 3688 
Q 2069 3688 1681 3291 
Q 1294 2894 1294 2216 
Q 1294 1566 1659 1180 
Q 2025 794 2644 794 
Q 3234 794 3725 1081 
L 3725 159 
z
" transform="scale(0.015625)"/>
     </defs>
     <use xlink:href="#SegoeUI-Bold-43"/>
     <use xlink:href="#SegoeUI-Bold-4f" x="61.152344"/>
     <use xlink:href="#SegoeUI-Bold-53" x="136.982422"/>
     <use xlink:href="#SegoeUI-Bold-45" x="193.037109"/>
     <use xlink:href="#SegoeUI-Bold-4e" x="246.259766"/>
     <use xlink:href="#SegoeUI-Bold-4f" x="325.263672"/>
    </g>
   </g>
   <g id="text_17">
    <!-- $\cos(\alpha + \beta) = \cos\alpha\cos\beta - \sin\alpha\sin\beta$ -->
    <g style="fill: #2c2f33" transform="translate(660.629642 456.997643) scale(0.11 -0.11)">
     <use xlink:href="#DejaVuSans-63" transform="translate(0 0.390625)"/>
     <use xlink:href="#DejaVuSans-6f" transform="translate(54.980469 0.390625)"/>
     <use xlink:href="#DejaVuSans-73" transform="translate(116.162109 0.390625)"/>
     <use xlink:href="#DejaVuSans-28" transform="translate(168.261719 0.390625)"/>
     <use xlink:href="#DejaVuSans-Oblique-3b1" transform="translate(207.275391 0.390625)"/>
     <use xlink:href="#DejaVuSans-2b" transform="translate(292.675781 0.390625)"/>
     <use xlink:href="#DejaVuSans-Oblique-3b2" transform="translate(395.947266 0.390625)"/>
     <use xlink:href="#DejaVuSans-29" transform="translate(459.765625 0.390625)"/>
     <use xlink:href="#DejaVuSans-3d" transform="translate(518.261719 0.390625)"/>
     <use xlink:href="#DejaVuSans-63" transform="translate(621.533203 0.390625)"/>
     <use xlink:href="#DejaVuSans-6f" transform="translate(676.513672 0.390625)"/>
     <use xlink:href="#DejaVuSans-73" transform="translate(737.695312 0.390625)"/>
     <use xlink:href="#DejaVuSans-Oblique-3b1" transform="translate(806.030598 0.390625)"/>
     <use xlink:href="#DejaVuSans-63" transform="translate(871.948567 0.390625)"/>
     <use xlink:href="#DejaVuSans-6f" transform="translate(926.929036 0.390625)"/>
     <use xlink:href="#DejaVuSans-73" transform="translate(988.110676 0.390625)"/>
     <use xlink:href="#DejaVuSans-Oblique-3b2" transform="translate(1056.445962 0.390625)"/>
     <use xlink:href="#DejaVuSans-2212" transform="translate(1139.746743 0.390625)"/>
     <use xlink:href="#DejaVuSans-73" transform="translate(1243.018228 0.390625)"/>
     <use xlink:href="#DejaVuSans-69" transform="translate(1295.117837 0.390625)"/>
     <use xlink:href="#DejaVuSans-6e" transform="translate(1322.90104 0.390625)"/>
     <use xlink:href="#DejaVuSans-Oblique-3b1" transform="translate(1402.515623 0.390625)"/>
     <use xlink:href="#DejaVuSans-73" transform="translate(1468.433591 0.390625)"/>
     <use xlink:href="#DejaVuSans-69" transform="translate(1520.533201 0.390625)"/>
     <use xlink:href="#DejaVuSans-6e" transform="translate(1548.316404 0.390625)"/>
     <use xlink:href="#DejaVuSans-Oblique-3b2" transform="translate(1627.930986 0.390625)"/>
    </g>
   </g>
   <g id="text_18">
    <!-- $\cos(\alpha - \beta) = \cos\alpha\cos\beta + \sin\alpha\sin\beta$ -->
    <g style="fill: #2c2f33" transform="translate(660.629642 506.535495) scale(0.11 -0.11)">
     <use xlink:href="#DejaVuSans-63" transform="translate(0 0.390625)"/>
     <use xlink:href="#DejaVuSans-6f" transform="translate(54.980469 0.390625)"/>
     <use xlink:href="#DejaVuSans-73" transform="translate(116.162109 0.390625)"/>
     <use xlink:href="#DejaVuSans-28" transform="translate(168.261719 0.390625)"/>
     <use xlink:href="#DejaVuSans-Oblique-3b1" transform="translate(207.275391 0.390625)"/>
     <use xlink:href="#DejaVuSans-2212" transform="translate(292.675781 0.390625)"/>
     <use xlink:href="#DejaVuSans-Oblique-3b2" transform="translate(395.947266 0.390625)"/>
     <use xlink:href="#DejaVuSans-29" transform="translate(459.765625 0.390625)"/>
     <use xlink:href="#DejaVuSans-3d" transform="translate(518.261719 0.390625)"/>
     <use xlink:href="#DejaVuSans-63" transform="translate(621.533203 0.390625)"/>
     <use xlink:href="#DejaVuSans-6f" transform="translate(676.513672 0.390625)"/>
     <use xlink:href="#DejaVuSans-73" transform="translate(737.695312 0.390625)"/>
     <use xlink:href="#DejaVuSans-Oblique-3b1" transform="translate(806.030598 0.390625)"/>
     <use xlink:href="#DejaVuSans-63" transform="translate(871.948567 0.390625)"/>
     <use xlink:href="#DejaVuSans-6f" transform="translate(926.929036 0.390625)"/>
     <use xlink:href="#DejaVuSans-73" transform="translate(988.110676 0.390625)"/>
     <use xlink:href="#DejaVuSans-Oblique-3b2" transform="translate(1056.445962 0.390625)"/>
     <use xlink:href="#DejaVuSans-2b" transform="translate(1139.746743 0.390625)"/>
     <use xlink:href="#DejaVuSans-73" transform="translate(1243.018228 0.390625)"/>
     <use xlink:href="#DejaVuSans-69" transform="translate(1295.117837 0.390625)"/>
     <use xlink:href="#DejaVuSans-6e" transform="translate(1322.90104 0.390625)"/>
     <use xlink:href="#DejaVuSans-Oblique-3b1" transform="translate(1402.515623 0.390625)"/>
     <use xlink:href="#DejaVuSans-73" transform="translate(1468.433591 0.390625)"/>
     <use xlink:href="#DejaVuSans-69" transform="translate(1520.533201 0.390625)"/>
     <use xlink:href="#DejaVuSans-6e" transform="translate(1548.316404 0.390625)"/>
     <use xlink:href="#DejaVuSans-Oblique-3b2" transform="translate(1627.930986 0.390625)"/>
    </g>
   </g>
   <g id="text_19">
    <!-- TANGENTE -->
    <g style="fill: #f59e0b" transform="translate(477.237885 572.585964) scale(0.12 -0.12)">
     <defs>
      <path id="SegoeUI-Bold-54" d="M 3659 3659 
L 2381 3659 
L 2381 0 
L 1369 0 
L 1369 3659 
L 97 3659 
L 97 4481 
L 3659 4481 
L 3659 3659 
z
" transform="scale(0.015625)"/>
      <path id="SegoeUI-Bold-41" d="M 4453 0 
L 3353 0 
L 3034 997 
L 1441 997 
L 1125 0 
L 31 0 
L 1663 4481 
L 2859 4481 
L 4453 0 
z
M 2803 1772 
L 2322 3278 
Q 2269 3447 2247 3681 
L 2222 3681 
Q 2206 3484 2144 3291 
L 1656 1772 
L 2803 1772 
z
" transform="scale(0.015625)"/>
      <path id="SegoeUI-Bold-47" d="M 4191 300 
Q 3534 -78 2559 -78 
Q 1478 -78 854 520 
Q 231 1119 231 2169 
Q 231 3225 912 3890 
Q 1594 4556 2725 4556 
Q 3438 4556 3981 4359 
L 3981 3413 
Q 3463 3713 2713 3713 
Q 2084 3713 1689 3305 
Q 1294 2897 1294 2216 
Q 1294 1525 1648 1147 
Q 2003 769 2606 769 
Q 2969 769 3181 872 
L 3181 1747 
L 2284 1747 
L 2284 2553 
L 4191 2553 
L 4191 300 
z
" transform="scale(0.015625)"/>
     </defs>
     <use xlink:href="#SegoeUI-Bold-54"/>
     <use xlink:href="#SegoeUI-Bold-41" x="51.59375"/>
     <use xlink:href="#SegoeUI-Bold-4e" x="121.90625"/>
     <use xlink:href="#SegoeUI-Bold-47" x="200.910156"/>
     <use xlink:href="#SegoeUI-Bold-45" x="272.003906"/>
     <use xlink:href="#SegoeUI-Bold-4e" x="325.226562"/>
     <use xlink:href="#SegoeUI-Bold-54" x="404.230469"/>
     <use xlink:href="#SegoeUI-Bold-45" x="462.824219"/>
    </g>
   </g>
   <g id="text_20">
    <!-- $\tan(\alpha + \beta) = \frac{\tan\alpha + \tan\beta}{1 - \tan\alpha\tan\beta}$ -->
    <g style="fill: #2c2f33" transform="translate(441.95976 615.518769) scale(0.12 -0.12)">
     <defs>
      <path id="DejaVuSans-74" d="M 1172 4494 
L 1172 3500 
L 2356 3500 
L 2356 3053 
L 1172 3053 
L 1172 1153 
Q 1172 725 1289 603 
Q 1406 481 1766 481 
L 2356 481 
L 2356 0 
L 1766 0 
Q 1100 0 847 248 
Q 594 497 594 1153 
L 594 3053 
L 172 3053 
L 172 3500 
L 594 3500 
L 594 4494 
L 1172 4494 
z
" transform="scale(0.015625)"/>
      <path id="DejaVuSans-61" d="M 2194 1759 
Q 1497 1759 1228 1600 
Q 959 1441 959 1056 
Q 959 750 1161 570 
Q 1363 391 1709 391 
Q 2188 391 2477 730 
Q 2766 1069 2766 1631 
L 2766 1759 
L 2194 1759 
z
M 3341 1997 
L 3341 0 
L 2766 0 
L 2766 531 
Q 2569 213 2275 61 
Q 1981 -91 1556 -91 
Q 1019 -91 701 211 
Q 384 513 384 1019 
Q 384 1609 779 1909 
Q 1175 2209 1959 2209 
L 2766 2209 
L 2766 2266 
Q 2766 2663 2505 2880 
Q 2244 3097 1772 3097 
Q 1472 3097 1187 3025 
Q 903 2953 641 2809 
L 641 3341 
Q 956 3463 1253 3523 
Q 1550 3584 1831 3584 
Q 2591 3584 2966 3190 
Q 3341 2797 3341 1997 
z
" transform="scale(0.015625)"/>
      <path id="DejaVuSans-31" d="M 794 531 
L 1825 531 
L 1825 4091 
L 703 3866 
L 703 4441 
L 1819 4666 
L 2450 4666 
L 2450 531 
L 3481 531 
L 3481 0 
L 794 0 
L 794 531 
z
" transform="scale(0.015625)"/>
     </defs>
     <use xlink:href="#DejaVuSans-74" transform="translate(0 0.01875)"/>
     <use xlink:href="#DejaVuSans-61" transform="translate(39.208984 0.01875)"/>
     <use xlink:href="#DejaVuSans-6e" transform="translate(100.488281 0.01875)"/>
     <use xlink:href="#DejaVuSans-28" transform="translate(163.867188 0.01875)"/>
     <use xlink:href="#DejaVuSans-Oblique-3b1" transform="translate(202.880859 0.01875)"/>
     <use xlink:href="#DejaVuSans-2b" transform="translate(288.28125 0.01875)"/>
     <use xlink:href="#DejaVuSans-Oblique-3b2" transform="translate(391.552734 0.01875)"/>
     <use xlink:href="#DejaVuSans-29" transform="translate(455.371094 0.01875)"/>
     <use xlink:href="#DejaVuSans-3d" transform="translate(513.867188 0.01875)"/>
     <use xlink:href="#DejaVuSans-74" transform="translate(639.138672 58.373438) scale(0.7)"/>
     <use xlink:href="#DejaVuSans-61" transform="translate(666.584961 58.373438) scale(0.7)"/>
     <use xlink:href="#DejaVuSans-6e" transform="translate(709.480469 58.373438) scale(0.7)"/>
     <use xlink:href="#DejaVuSans-Oblique-3b1" transform="translate(765.210677 58.373438) scale(0.7)"/>
     <use xlink:href="#DejaVuSans-2b" transform="translate(824.99095 58.373438) scale(0.7)"/>
     <use xlink:href="#DejaVuSans-74" transform="translate(897.280989 58.373438) scale(0.7)"/>
     <use xlink:href="#DejaVuSans-61" transform="translate(924.727278 58.373438) scale(0.7)"/>
     <use xlink:href="#DejaVuSans-6e" transform="translate(967.622786 58.373438) scale(0.7)"/>
     <use xlink:href="#DejaVuSans-Oblique-3b2" transform="translate(1023.352994 58.373438) scale(0.7)"/>
     <use xlink:href="#DejaVuSans-31" transform="translate(617.138672 -41.060937) scale(0.7)"/>
     <use xlink:href="#DejaVuSans-2212" transform="translate(675.3125 -41.060937) scale(0.7)"/>
     <use xlink:href="#DejaVuSans-74" transform="translate(747.602539 -41.060937) scale(0.7)"/>
     <use xlink:href="#DejaVuSans-61" transform="translate(775.048828 -41.060937) scale(0.7)"/>
     <use xlink:href="#DejaVuSans-6e" transform="translate(817.944336 -41.060937) scale(0.7)"/>
     <use xlink:href="#DejaVuSans-Oblique-3b1" transform="translate(873.674544 -41.060937) scale(0.7)"/>
     <use xlink:href="#DejaVuSans-74" transform="translate(919.817122 -41.060937) scale(0.7)"/>
     <use xlink:href="#DejaVuSans-61" transform="translate(947.263411 -41.060937) scale(0.7)"/>
     <use xlink:href="#DejaVuSans-6e" transform="translate(990.158919 -41.060937) scale(0.7)"/>
     <use xlink:href="#DejaVuSans-Oblique-3b2" transform="translate(1045.889126 -41.060937) scale(0.7)"/>
     <path d="M 617.138672 18.815625 
L 617.138672 25.065625 
L 1090.561978 25.065625 
L 1090.561978 18.815625 
L 617.138672 18.815625 
z
"/>
    </g>
   </g>
   <g id="text_21">
    <!-- $\tan(\alpha - \beta) = \frac{\tan\alpha - \tan\beta}{1 + \tan\alpha\tan\beta}$ -->
    <g style="fill: #2c2f33" transform="translate(441.95976 665.056621) scale(0.12 -0.12)">
     <use xlink:href="#DejaVuSans-74" transform="translate(0 0.01875)"/>
     <use xlink:href="#DejaVuSans-61" transform="translate(39.208984 0.01875)"/>
     <use xlink:href="#DejaVuSans-6e" transform="translate(100.488281 0.01875)"/>
     <use xlink:href="#DejaVuSans-28" transform="translate(163.867188 0.01875)"/>
     <use xlink:href="#DejaVuSans-Oblique-3b1" transform="translate(202.880859 0.01875)"/>
     <use xlink:href="#DejaVuSans-2212" transform="translate(288.28125 0.01875)"/>
     <use xlink:href="#DejaVuSans-Oblique-3b2" transform="translate(391.552734 0.01875)"/>
     <use xlink:href="#DejaVuSans-29" transform="translate(455.371094 0.01875)"/>
     <use xlink:href="#DejaVuSans-3d" transform="translate(513.867188 0.01875)"/>
     <use xlink:href="#DejaVuSans-74" transform="translate(639.138672 58.373438) scale(0.7)"/>
     <use xlink:href="#DejaVuSans-61" transform="translate(666.584961 58.373438) scale(0.7)"/>
     <use xlink:href="#DejaVuSans-6e" transform="translate(709.480469 58.373438) scale(0.7)"/>
     <use xlink:href="#DejaVuSans-Oblique-3b1" transform="translate(765.210677 58.373438) scale(0.7)"/>
     <use xlink:href="#DejaVuSans-2212" transform="translate(824.99095 58.373438) scale(0.7)"/>
     <use xlink:href="#DejaVuSans-74" transform="translate(897.280989 58.373438) scale(0.7)"/>
     <use xlink:href="#DejaVuSans-61" transform="translate(924.727278 58.373438) scale(0.7)"/>
     <use xlink:href="#DejaVuSans-6e" transform="translate(967.622786 58.373438) scale(0.7)"/>
     <use xlink:href="#DejaVuSans-Oblique-3b2" transform="translate(1023.352994 58.373438) scale(0.7)"/>
     <use xlink:href="#DejaVuSans-31" transform="translate(617.138672 -41.060937) scale(0.7)"/>
     <use xlink:href="#DejaVuSans-2b" transform="translate(675.3125 -41.060937) scale(0.7)"/>
     <use xlink:href="#DejaVuSans-74" transform="translate(747.602539 -41.060937) scale(0.7)"/>
     <use xlink:href="#DejaVuSans-61" transform="translate(775.048828 -41.060937) scale(0.7)"/>
     <use xlink:href="#DejaVuSans-6e" transform="translate(817.944336 -41.060937) scale(0.7)"/>
     <use xlink:href="#DejaVuSans-Oblique-3b1" transform="translate(873.674544 -41.060937) scale(0.7)"/>
     <use xlink:href="#DejaVuSans-74" transform="translate(919.817122 -41.060937) scale(0.7)"/>
     <use xlink:href="#DejaVuSans-61" transform="translate(947.263411 -41.060937) scale(0.7)"/>
     <use xlink:href="#DejaVuSans-6e" transform="translate(990.158919 -41.060937) scale(0.7)"/>
     <use xlink:href="#DejaVuSans-Oblique-3b2" transform="translate(1045.889126 -41.060937) scale(0.7)"/>
     <path d="M 617.138672 18.815625 
L 617.138672 25.065625 
L 1090.561978 25.065625 
L 1090.561978 18.815625 
L 617.138672 18.815625 
z
"/>
    </g>
   </g>
  </g>
  <g id="text_22">
   <!-- Identidades de Suma y Diferencia de Ángulos -->
   <g style="fill: #2c2f33" transform="translate(359.071323 20.17625) scale(0.14 -0.14)">
    <defs>
     <path id="SegoeUI-Bold-49" d="M 1522 0 
L 513 0 
L 513 4481 
L 1522 4481 
L 1522 0 
z
" transform="scale(0.015625)"/>
     <path id="SegoeUI-Bold-74" d="M 2350 38 
Q 2131 -78 1691 -78 
Q 647 -78 647 1006 
L 647 2472 
L 128 2472 
L 128 3200 
L 647 3200 
L 647 3891 
L 1631 4172 
L 1631 3200 
L 2350 3200 
L 2350 2472 
L 1631 2472 
L 1631 1178 
Q 1631 678 2028 678 
Q 2184 678 2350 769 
L 2350 38 
z
" transform="scale(0.015625)"/>
     <path id="SegoeUI-Bold-79" d="M 3463 3200 
L 2163 -256 
Q 1694 -1503 750 -1503 
Q 391 -1503 159 -1422 
L 159 -634 
Q 356 -750 588 -750 
Q 969 -750 1119 -391 
L 1288 6 
L -13 3200 
L 1081 3200 
L 1678 1253 
Q 1734 1072 1766 825 
L 1778 825 
Q 1806 1006 1881 1247 
L 2484 3200 
L 3463 3200 
z
" transform="scale(0.015625)"/>
     <path id="SegoeUI-Bold-c1" d="M 4453 0 
L 3353 0 
L 3034 997 
L 1441 997 
L 1125 0 
L 31 0 
L 1663 4481 
L 2859 4481 
L 4453 0 
z
M 2803 1772 
L 2322 3278 
Q 2269 3447 2247 3681 
L 2222 3681 
Q 2206 3484 2144 3291 
L 1656 1772 
L 2803 1772 
z
M 3239 5932 
L 2260 4922 
L 1548 4922 
L 2360 5932 
L 3239 5932 
z
" transform="scale(0.015625)"/>
    </defs>
    <use xlink:href="#SegoeUI-Bold-49"/>
    <use xlink:href="#SegoeUI-Bold-64" x="31.689453"/>
    <use xlink:href="#SegoeUI-Bold-65" x="93.603516"/>
    <use xlink:href="#SegoeUI-Bold-6e" x="147.705078"/>
    <use xlink:href="#SegoeUI-Bold-74" x="208.203125"/>
    <use xlink:href="#SegoeUI-Bold-69" x="247.119141"/>
    <use xlink:href="#SegoeUI-Bold-64" x="275.537109"/>
    <use xlink:href="#SegoeUI-Bold-61" x="337.451172"/>
    <use xlink:href="#SegoeUI-Bold-64" x="391.259766"/>
    <use xlink:href="#SegoeUI-Bold-65" x="453.173828"/>
    <use xlink:href="#SegoeUI-Bold-73" x="507.275391"/>
    <use xlink:href="#SegoeUI-Bold-20" x="551.269531"/>
    <use xlink:href="#SegoeUI-Bold-64" x="578.857422"/>
    <use xlink:href="#SegoeUI-Bold-65" x="640.771484"/>
    <use xlink:href="#SegoeUI-Bold-20" x="694.873047"/>
    <use xlink:href="#SegoeUI-Bold-53" x="722.460938"/>
    <use xlink:href="#SegoeUI-Bold-75" x="778.515625"/>
    <use xlink:href="#SegoeUI-Bold-6d" x="839.013672"/>
    <use xlink:href="#SegoeUI-Bold-61" x="930.615234"/>
    <use xlink:href="#SegoeUI-Bold-20" x="984.423828"/>
    <use xlink:href="#SegoeUI-Bold-79" x="1012.011719"/>
    <use xlink:href="#SegoeUI-Bold-20" x="1065.820312"/>
    <use xlink:href="#SegoeUI-Bold-44" x="1093.408203"/>
    <use xlink:href="#SegoeUI-Bold-69" x="1167.138672"/>
    <use xlink:href="#SegoeUI-Bold-66" x="1195.556641"/>
    <use xlink:href="#SegoeUI-Bold-65" x="1233.886719"/>
    <use xlink:href="#SegoeUI-Bold-72" x="1287.988281"/>
    <use xlink:href="#SegoeUI-Bold-65" x="1327.408203"/>
    <use xlink:href="#SegoeUI-Bold-6e" x="1381.509766"/>
    <use xlink:href="#SegoeUI-Bold-63" x="1442.007812"/>
    <use xlink:href="#SegoeUI-Bold-69" x="1490.005859"/>
    <use xlink:href="#SegoeUI-Bold-61" x="1518.423828"/>
    <use xlink:href="#SegoeUI-Bold-20" x="1572.232422"/>
    <use xlink:href="#SegoeUI-Bold-64" x="1599.820312"/>
    <use xlink:href="#SegoeUI-Bold-65" x="1661.734375"/>
    <use xlink:href="#SegoeUI-Bold-20" x="1715.835938"/>
    <use xlink:href="#SegoeUI-Bold-c1" x="1743.423828"/>
    <use xlink:href="#SegoeUI-Bold-6e" x="1813.736328"/>
    <use xlink:href="#SegoeUI-Bold-67" x="1874.234375"/>
    <use xlink:href="#SegoeUI-Bold-75" x="1936.148438"/>
    <use xlink:href="#SegoeUI-Bold-6c" x="1996.646484"/>
    <use xlink:href="#SegoeUI-Bold-6f" x="2025.064453"/>
    <use xlink:href="#SegoeUI-Bold-73" x="2086.197266"/>
   </g>
  </g>
 </g>
 <defs>
  <clipPath id="p99caab1ded">
   <rect x="71.960545" y="43.736886" width="321.078669" height="275.210288"/>
  </clipPath>
  <clipPath id="p8e418beaf5">
   <rect x="646.294496" y="43.736886" width="275.210288" height="275.210288"/>
  </clipPath>
  <clipPath id="p5c1d9e426b">
   <rect x="7.2" y="390.947174" width="1001.99952" height="330.252346"/>
  </clipPath>
 </defs>
</svg>
