<?xml version="1.0" encoding="utf-8" standalone="no"?>
<!DOCTYPE svg PUBLIC "-//W3C//DTD SVG 1.1//EN"
  "http://www.w3.org/Graphics/SVG/1.1/DTD/svg11.dtd">
<svg xmlns:xlink="http://www.w3.org/1999/xlink" width="1016.39952pt" height="728.39952pt" viewBox="0 0 1016.39952 728.39952" xmlns="http://www.w3.org/2000/svg" version="1.1">
 <metadata>
  <rdf:RDF xmlns:dc="http://purl.org/dc/elements/1.1/" xmlns:cc="http://creativecommons.org/ns#" xmlns:rdf="http://www.w3.org/1999/02/22-rdf-syntax-ns#">
   <cc:Work>
    <dc:type rdf:resource="http://purl.org/dc/dcmitype/StillImage"/>
    <dc:date>2026-04-11T16:11:45.887209</dc:date>
    <dc:format>image/svg+xml</dc:format>
    <dc:creator>
     <cc:Agent>
      <dc:title>Matplotlib v3.8.4, https://matplotlib.org/</dc:title>
     </cc:Agent>
    </dc:creator>
   </cc:Work>
  </rdf:RDF>
 </metadata>
 <defs>
  <style type="text/css">*{stroke-linejoin: round; stroke-linecap: butt}</style>
 </defs>
 <g id="figure_1">
  <g id="patch_1">
   <path d="M 0 728.39952 
L 1016.39952 728.39952 
L 1016.39952 0 
L 0 0 
z
" style="fill: #ffffff"/>
  </g>
  <g id="axes_1">
   <g id="patch_2">
    <path d="M 27.23999 341.954681 
L 989.15953 341.954681 
L 989.15953 42.219242 
L 27.23999 42.219242 
z
" clip-path="url(#pfe57bdc5d2)" style="fill: #f9fafb; stroke: #d1d5db; stroke-width: 1.5; stroke-linejoin: miter"/>
   </g>
   <g id="patch_3">
    <path d="M 37.259986 131.502139 
L 337.859842 131.502139 
L 337.859842 67.728641 
L 37.259986 67.728641 
z
" clip-path="url(#pfe57bdc5d2)" style="fill: #f0fdf4; stroke: #e12885; stroke-width: 1.5; stroke-linejoin: miter"/>
   </g>
   <g id="patch_4">
    <path d="M 357.899832 204.841661 
L 658.499688 204.841661 
L 658.499688 67.728641 
L 357.899832 67.728641 
z
" clip-path="url(#pfe57bdc5d2)" style="fill: #eff6ff; stroke: #4b5563; stroke-width: 1.5; stroke-linejoin: miter"/>
   </g>
   <g id="patch_5">
    <path d="M 678.539678 131.502139 
L 979.139534 131.502139 
L 979.139534 67.728641 
L 678.539678 67.728641 
z
" clip-path="url(#pfe57bdc5d2)" style="fill: #fef3c7; stroke: #f59e0b; stroke-width: 1.5; stroke-linejoin: miter"/>
   </g>
   <g id="patch_6">
    <path d="M 37.259986 322.822632 
L 658.499688 322.822632 
L 658.499688 220.785036 
L 37.259986 220.785036 
z
" clip-path="url(#pfe57bdc5d2)" style="fill: #fef9c3; stroke: #ca8a04; stroke-width: 1.5; stroke-linejoin: miter"/>
   </g>
   <g id="patch_7">
    <path d="M 678.539678 322.822632 
L 979.139534 322.822632 
L 979.139534 220.785036 
L 678.539678 220.785036 
z
" clip-path="url(#pfe57bdc5d2)" style="fill: #fee2e2; stroke: #dc2626; stroke-width: 1.5; stroke-linejoin: miter"/>
   </g>
   <g id="text_1">
    <!-- IDENTIDADES DE ÁNGULO DOBLE -->
    <g style="fill: #39c5bb" transform="translate(404.303354 54.973942) scale(0.13 -0.13)">
     <defs>
      <path id="SegoeUI-Bold-49" d="M 1522 0 
L 513 0 
L 513 4481 
L 1522 4481 
L 1522 0 
z
" transform="scale(0.015625)"/>
      <path id="SegoeUI-Bold-44" d="M 513 0 
L 513 4481 
L 2100 4481 
Q 4488 4481 4488 2297 
Q 4488 1250 3836 625 
Q 3184 0 2100 0 
L 513 0 
z
M 1522 3659 
L 1522 819 
L 2022 819 
Q 2678 819 3051 1212 
Q 3425 1606 3425 2284 
Q 3425 2925 3054 3292 
Q 2684 3659 2016 3659 
L 1522 3659 
z
" transform="scale(0.015625)"/>
      <path id="SegoeUI-Bold-45" d="M 3200 0 
L 513 0 
L 513 4481 
L 3097 4481 
L 3097 3659 
L 1522 3659 
L 1522 2663 
L 2988 2663 
L 2988 1844 
L 1522 1844 
L 1522 819 
L 3200 819 
L 3200 0 
z
" transform="scale(0.015625)"/>
      <path id="SegoeUI-Bold-4e" d="M 4544 0 
L 3525 0 
L 1678 2816 
Q 1516 3063 1453 3188 
L 1441 3188 
Q 1466 2950 1466 2463 
L 1466 0 
L 513 0 
L 513 4481 
L 1600 4481 
L 3378 1753 
Q 3500 1569 3603 1388 
L 3616 1388 
Q 3591 1544 3591 2003 
L 3591 4481 
L 4544 4481 
L 4544 0 
z
" transform="scale(0.015625)"/>
      <path id="SegoeUI-Bold-54" d="M 3659 3659 
L 2381 3659 
L 2381 0 
L 1369 0 
L 1369 3659 
L 97 3659 
L 97 4481 
L 3659 4481 
L 3659 3659 
z
" transform="scale(0.015625)"/>
      <path id="SegoeUI-Bold-41" d="M 4453 0 
L 3353 0 
L 3034 997 
L 1441 997 
L 1125 0 
L 31 0 
L 1663 4481 
L 2859 4481 
L 4453 0 
z
M 2803 1772 
L 2322 3278 
Q 2269 3447 2247 3681 
L 2222 3681 
Q 2206 3484 2144 3291 
L 1656 1772 
L 2803 1772 
z
" transform="scale(0.015625)"/>
      <path id="SegoeUI-Bold-53" d="M 306 172 
L 306 1172 
Q 578 944 897 830 
Q 1216 716 1541 716 
Q 1731 716 1873 750 
Q 2016 784 2111 845 
Q 2206 906 2253 989 
Q 2300 1072 2300 1169 
Q 2300 1300 2225 1403 
Q 2150 1506 2020 1593 
Q 1891 1681 1712 1762 
Q 1534 1844 1328 1928 
Q 803 2147 545 2462 
Q 288 2778 288 3225 
Q 288 3575 428 3826 
Q 569 4078 811 4240 
Q 1053 4403 1372 4479 
Q 1691 4556 2047 4556 
Q 2397 4556 2667 4514 
Q 2938 4472 3166 4384 
L 3166 3450 
Q 3053 3528 2920 3587 
Q 2788 3647 2647 3686 
Q 2506 3725 2367 3744 
Q 2228 3763 2103 3763 
Q 1931 3763 1790 3730 
Q 1650 3697 1553 3637 
Q 1456 3578 1403 3495 
Q 1350 3413 1350 3309 
Q 1350 3197 1409 3108 
Q 1469 3019 1578 2939 
Q 1688 2859 1844 2782 
Q 2000 2706 2197 2625 
Q 2466 2513 2680 2386 
Q 2894 2259 3047 2100 
Q 3200 1941 3281 1736 
Q 3363 1531 3363 1259 
Q 3363 884 3220 629 
Q 3078 375 2834 217 
Q 2591 59 2267 -9 
Q 1944 -78 1584 -78 
Q 1216 -78 883 -15 
Q 550 47 306 172 
z
" transform="scale(0.015625)"/>
      <path id="SegoeUI-Bold-20" transform="scale(0.015625)"/>
      <path id="SegoeUI-Bold-c1" d="M 4453 0 
L 3353 0 
L 3034 997 
L 1441 997 
L 1125 0 
L 31 0 
L 1663 4481 
L 2859 4481 
L 4453 0 
z
M 2803 1772 
L 2322 3278 
Q 2269 3447 2247 3681 
L 2222 3681 
Q 2206 3484 2144 3291 
L 1656 1772 
L 2803 1772 
z
M 3239 5932 
L 2260 4922 
L 1548 4922 
L 2360 5932 
L 3239 5932 
z
" transform="scale(0.015625)"/>
      <path id="SegoeUI-Bold-47" d="M 4191 300 
Q 3534 -78 2559 -78 
Q 1478 -78 854 520 
Q 231 1119 231 2169 
Q 231 3225 912 3890 
Q 1594 4556 2725 4556 
Q 3438 4556 3981 4359 
L 3981 3413 
Q 3463 3713 2713 3713 
Q 2084 3713 1689 3305 
Q 1294 2897 1294 2216 
Q 1294 1525 1648 1147 
Q 2003 769 2606 769 
Q 2969 769 3181 872 
L 3181 1747 
L 2284 1747 
L 2284 2553 
L 4191 2553 
L 4191 300 
z
" transform="scale(0.015625)"/>
      <path id="SegoeUI-Bold-55" d="M 4166 1941 
Q 4166 -78 2284 -78 
Q 459 -78 459 1894 
L 459 4481 
L 1472 4481 
L 1472 1881 
Q 1472 794 2322 794 
Q 3156 794 3156 1844 
L 3156 4481 
L 4166 4481 
L 4166 1941 
z
" transform="scale(0.015625)"/>
      <path id="SegoeUI-Bold-4c" d="M 3181 0 
L 513 0 
L 513 4481 
L 1522 4481 
L 1522 819 
L 3181 819 
L 3181 0 
z
" transform="scale(0.015625)"/>
      <path id="SegoeUI-Bold-4f" d="M 2406 -78 
Q 1444 -78 837 548 
Q 231 1175 231 2181 
Q 231 3244 847 3900 
Q 1463 4556 2478 4556 
Q 3438 4556 4030 3928 
Q 4622 3300 4622 2272 
Q 4622 1216 4008 569 
Q 3394 -78 2406 -78 
z
M 2450 3688 
Q 1919 3688 1606 3289 
Q 1294 2891 1294 2234 
Q 1294 1569 1606 1181 
Q 1919 794 2425 794 
Q 2947 794 3253 1170 
Q 3559 1547 3559 2216 
Q 3559 2913 3262 3300 
Q 2966 3688 2450 3688 
z
" transform="scale(0.015625)"/>
      <path id="SegoeUI-Bold-42" d="M 513 0 
L 513 4481 
L 2144 4481 
Q 2894 4481 3297 4206 
Q 3700 3931 3700 3431 
Q 3700 3069 3454 2797 
Q 3209 2525 2828 2419 
L 2828 2406 
Q 3306 2347 3592 2053 
Q 3878 1759 3878 1338 
Q 3878 722 3437 361 
Q 2997 0 2234 0 
L 513 0 
z
M 1522 3738 
L 1522 2675 
L 1966 2675 
Q 2278 2675 2458 2826 
Q 2638 2978 2638 3244 
Q 2638 3738 1900 3738 
L 1522 3738 
z
M 1522 1925 
L 1522 744 
L 2069 744 
Q 2419 744 2617 906 
Q 2816 1069 2816 1350 
Q 2816 1619 2620 1772 
Q 2425 1925 2075 1925 
L 1522 1925 
z
" transform="scale(0.015625)"/>
     </defs>
     <use xlink:href="#SegoeUI-Bold-49"/>
     <use xlink:href="#SegoeUI-Bold-44" x="31.689453"/>
     <use xlink:href="#SegoeUI-Bold-45" x="105.419922"/>
     <use xlink:href="#SegoeUI-Bold-4e" x="158.642578"/>
     <use xlink:href="#SegoeUI-Bold-54" x="237.646484"/>
     <use xlink:href="#SegoeUI-Bold-49" x="296.240234"/>
     <use xlink:href="#SegoeUI-Bold-44" x="327.929688"/>
     <use xlink:href="#SegoeUI-Bold-41" x="400.160156"/>
     <use xlink:href="#SegoeUI-Bold-44" x="470.472656"/>
     <use xlink:href="#SegoeUI-Bold-45" x="544.203125"/>
     <use xlink:href="#SegoeUI-Bold-53" x="597.425781"/>
     <use xlink:href="#SegoeUI-Bold-20" x="653.480469"/>
     <use xlink:href="#SegoeUI-Bold-44" x="681.068359"/>
     <use xlink:href="#SegoeUI-Bold-45" x="754.798828"/>
     <use xlink:href="#SegoeUI-Bold-20" x="808.021484"/>
     <use xlink:href="#SegoeUI-Bold-c1" x="835.609375"/>
     <use xlink:href="#SegoeUI-Bold-4e" x="905.921875"/>
     <use xlink:href="#SegoeUI-Bold-47" x="984.925781"/>
     <use xlink:href="#SegoeUI-Bold-55" x="1056.019531"/>
     <use xlink:href="#SegoeUI-Bold-4c" x="1128.333984"/>
     <use xlink:href="#SegoeUI-Bold-4f" x="1176.957031"/>
     <use xlink:href="#SegoeUI-Bold-20" x="1252.787109"/>
     <use xlink:href="#SegoeUI-Bold-44" x="1280.375"/>
     <use xlink:href="#SegoeUI-Bold-4f" x="1354.105469"/>
     <use xlink:href="#SegoeUI-Bold-42" x="1429.935547"/>
     <use xlink:href="#SegoeUI-Bold-4c" x="1494.046875"/>
     <use xlink:href="#SegoeUI-Bold-45" x="1545.169922"/>
    </g>
   </g>
   <g id="text_2">
    <!-- sin(2θ) -->
    <g style="fill: #e12885" transform="translate(169.659132 80.483341) scale(0.11 -0.11)">
     <defs>
      <path id="SegoeUI-Bold-73" d="M 206 84 
L 206 884 
Q 450 738 692 666 
Q 934 594 1150 594 
Q 1413 594 1564 666 
Q 1716 738 1716 884 
Q 1716 978 1647 1040 
Q 1578 1103 1470 1150 
Q 1363 1197 1234 1234 
Q 1106 1272 988 1319 
Q 797 1391 651 1473 
Q 506 1556 407 1665 
Q 309 1775 257 1919 
Q 206 2063 206 2259 
Q 206 2528 323 2722 
Q 441 2916 636 3039 
Q 831 3163 1082 3220 
Q 1334 3278 1606 3278 
Q 1819 3278 2037 3245 
Q 2256 3213 2469 3150 
L 2469 2388 
Q 2281 2497 2067 2551 
Q 1853 2606 1647 2606 
Q 1550 2606 1464 2589 
Q 1378 2572 1312 2539 
Q 1247 2506 1209 2454 
Q 1172 2403 1172 2338 
Q 1172 2250 1228 2187 
Q 1284 2125 1375 2079 
Q 1466 2034 1577 1998 
Q 1688 1963 1797 1925 
Q 1994 1856 2153 1775 
Q 2313 1694 2427 1584 
Q 2541 1475 2602 1328 
Q 2663 1181 2663 978 
Q 2663 694 2539 492 
Q 2416 291 2211 164 
Q 2006 38 1739 -20 
Q 1472 -78 1184 -78 
Q 656 -78 206 84 
z
" transform="scale(0.015625)"/>
      <path id="SegoeUI-Bold-69" d="M 916 3706 
Q 666 3706 506 3854 
Q 347 4003 347 4219 
Q 347 4441 506 4581 
Q 666 4722 916 4722 
Q 1169 4722 1326 4581 
Q 1484 4441 1484 4219 
Q 1484 3994 1326 3850 
Q 1169 3706 916 3706 
z
M 1403 0 
L 416 0 
L 416 3200 
L 1403 3200 
L 1403 0 
z
" transform="scale(0.015625)"/>
      <path id="SegoeUI-Bold-6e" d="M 3506 0 
L 2522 0 
L 2522 1778 
Q 2522 2522 1991 2522 
Q 1734 2522 1568 2325 
Q 1403 2128 1403 1825 
L 1403 0 
L 416 0 
L 416 3200 
L 1403 3200 
L 1403 2694 
L 1416 2694 
Q 1769 3278 2444 3278 
Q 3506 3278 3506 1959 
L 3506 0 
z
" transform="scale(0.015625)"/>
      <path id="SegoeUI-Bold-28" d="M 2309 -1019 
L 1503 -1019 
Q 494 94 494 1716 
Q 494 3281 1503 4481 
L 2303 4481 
Q 1356 3225 1356 1716 
Q 1356 206 2309 -1019 
z
" transform="scale(0.015625)"/>
      <path id="SegoeUI-Bold-32" d="M 1341 819 
L 3241 819 
L 3241 0 
L 259 0 
L 259 338 
Q 259 681 375 954 
Q 491 1228 666 1445 
Q 841 1663 1048 1830 
Q 1256 1997 1444 2131 
Q 1641 2272 1789 2400 
Q 1938 2528 2039 2654 
Q 2141 2781 2191 2911 
Q 2241 3041 2241 3188 
Q 2241 3475 2078 3622 
Q 1916 3769 1581 3769 
Q 1003 3769 475 3309 
L 475 4178 
Q 1059 4556 1794 4556 
Q 2134 4556 2404 4467 
Q 2675 4378 2862 4212 
Q 3050 4047 3148 3811 
Q 3247 3575 3247 3284 
Q 3247 2975 3151 2734 
Q 3056 2494 2898 2297 
Q 2741 2100 2534 1936 
Q 2328 1772 2106 1619 
Q 1956 1513 1817 1408 
Q 1678 1303 1572 1201 
Q 1466 1100 1403 1003 
Q 1341 906 1341 819 
z
" transform="scale(0.015625)"/>
      <path id="SegoeUI-Bold-3b8" d="M 1938 -78 
Q 1134 -78 679 564 
Q 225 1206 225 2359 
Q 225 3513 692 4158 
Q 1159 4803 1988 4803 
Q 2800 4803 3244 4165 
Q 3688 3528 3688 2425 
Q 3688 1247 3228 584 
Q 2769 -78 1938 -78 
z
M 2669 2744 
Q 2600 4041 1959 4041 
Q 1322 4041 1241 2744 
L 2669 2744 
z
M 2669 2031 
L 1238 2031 
Q 1303 684 1966 684 
Q 2606 684 2669 2031 
z
" transform="scale(0.015625)"/>
      <path id="SegoeUI-Bold-29" d="M 856 -1019 
L 56 -1019 
Q 1013 200 1013 1716 
Q 1013 3219 56 4481 
L 863 4481 
Q 1875 3278 1875 1716 
Q 1875 106 856 -1019 
z
" transform="scale(0.015625)"/>
     </defs>
     <use xlink:href="#SegoeUI-Bold-73"/>
     <use xlink:href="#SegoeUI-Bold-69" x="43.994141"/>
     <use xlink:href="#SegoeUI-Bold-6e" x="72.412109"/>
     <use xlink:href="#SegoeUI-Bold-28" x="132.910156"/>
     <use xlink:href="#SegoeUI-Bold-32" x="169.824219"/>
     <use xlink:href="#SegoeUI-Bold-3b8" x="227.34375"/>
     <use xlink:href="#SegoeUI-Bold-29" x="288.525391"/>
    </g>
   </g>
   <g id="text_3">
    <!-- $\sin(2\theta) = 2\sin\theta\cos\theta$ -->
    <g style="fill: #2c2f33" transform="translate(137.609914 115.558764) scale(0.1 -0.1)">
     <defs>
      <path id="DejaVuSans-73" d="M 2834 3397 
L 2834 2853 
Q 2591 2978 2328 3040 
Q 2066 3103 1784 3103 
Q 1356 3103 1142 2972 
Q 928 2841 928 2578 
Q 928 2378 1081 2264 
Q 1234 2150 1697 2047 
L 1894 2003 
Q 2506 1872 2764 1633 
Q 3022 1394 3022 966 
Q 3022 478 2636 193 
Q 2250 -91 1575 -91 
Q 1294 -91 989 -36 
Q 684 19 347 128 
L 347 722 
Q 666 556 975 473 
Q 1284 391 1588 391 
Q 1994 391 2212 530 
Q 2431 669 2431 922 
Q 2431 1156 2273 1281 
Q 2116 1406 1581 1522 
L 1381 1569 
Q 847 1681 609 1914 
Q 372 2147 372 2553 
Q 372 3047 722 3315 
Q 1072 3584 1716 3584 
Q 2034 3584 2315 3537 
Q 2597 3491 2834 3397 
z
" transform="scale(0.015625)"/>
      <path id="DejaVuSans-69" d="M 603 3500 
L 1178 3500 
L 1178 0 
L 603 0 
L 603 3500 
z
M 603 4863 
L 1178 4863 
L 1178 4134 
L 603 4134 
L 603 4863 
z
" transform="scale(0.015625)"/>
      <path id="DejaVuSans-6e" d="M 3513 2113 
L 3513 0 
L 2938 0 
L 2938 2094 
Q 2938 2591 2744 2837 
Q 2550 3084 2163 3084 
Q 1697 3084 1428 2787 
Q 1159 2491 1159 1978 
L 1159 0 
L 581 0 
L 581 3500 
L 1159 3500 
L 1159 2956 
Q 1366 3272 1645 3428 
Q 1925 3584 2291 3584 
Q 2894 3584 3203 3211 
Q 3513 2838 3513 2113 
z
" transform="scale(0.015625)"/>
      <path id="DejaVuSans-28" d="M 1984 4856 
Q 1566 4138 1362 3434 
Q 1159 2731 1159 2009 
Q 1159 1288 1364 580 
Q 1569 -128 1984 -844 
L 1484 -844 
Q 1016 -109 783 600 
Q 550 1309 550 2009 
Q 550 2706 781 3412 
Q 1013 4119 1484 4856 
L 1984 4856 
z
" transform="scale(0.015625)"/>
      <path id="DejaVuSans-32" d="M 1228 531 
L 3431 531 
L 3431 0 
L 469 0 
L 469 531 
Q 828 903 1448 1529 
Q 2069 2156 2228 2338 
Q 2531 2678 2651 2914 
Q 2772 3150 2772 3378 
Q 2772 3750 2511 3984 
Q 2250 4219 1831 4219 
Q 1534 4219 1204 4116 
Q 875 4013 500 3803 
L 500 4441 
Q 881 4594 1212 4672 
Q 1544 4750 1819 4750 
Q 2544 4750 2975 4387 
Q 3406 4025 3406 3419 
Q 3406 3131 3298 2873 
Q 3191 2616 2906 2266 
Q 2828 2175 2409 1742 
Q 1991 1309 1228 531 
z
" transform="scale(0.015625)"/>
      <path id="DejaVuSans-Oblique-3b8" d="M 2913 2219 
L 925 2219 
Q 791 1284 928 888 
Q 1100 400 1566 400 
Q 2034 400 2391 891 
Q 2703 1322 2913 2219 
z
M 3009 2750 
Q 3094 3638 2984 3950 
Q 2813 4444 2353 4444 
Q 1875 4444 1525 3956 
Q 1250 3563 1034 2750 
L 3009 2750 
z
M 2444 4913 
Q 3194 4913 3494 4250 
Q 3794 3591 3566 2422 
Q 3341 1256 2781 594 
Q 2225 -72 1475 -72 
Q 722 -72 425 594 
Q 128 1256 353 2422 
Q 581 3591 1134 4250 
Q 1691 4913 2444 4913 
z
" transform="scale(0.015625)"/>
      <path id="DejaVuSans-29" d="M 513 4856 
L 1013 4856 
Q 1481 4119 1714 3412 
Q 1947 2706 1947 2009 
Q 1947 1309 1714 600 
Q 1481 -109 1013 -844 
L 513 -844 
Q 928 -128 1133 580 
Q 1338 1288 1338 2009 
Q 1338 2731 1133 3434 
Q 928 4138 513 4856 
z
" transform="scale(0.015625)"/>
      <path id="DejaVuSans-3d" d="M 678 2906 
L 4684 2906 
L 4684 2381 
L 678 2381 
L 678 2906 
z
M 678 1631 
L 4684 1631 
L 4684 1100 
L 678 1100 
L 678 1631 
z
" transform="scale(0.015625)"/>
      <path id="DejaVuSans-63" d="M 3122 3366 
L 3122 2828 
Q 2878 2963 2633 3030 
Q 2388 3097 2138 3097 
Q 1578 3097 1268 2742 
Q 959 2388 959 1747 
Q 959 1106 1268 751 
Q 1578 397 2138 397 
Q 2388 397 2633 464 
Q 2878 531 3122 666 
L 3122 134 
Q 2881 22 2623 -34 
Q 2366 -91 2075 -91 
Q 1284 -91 818 406 
Q 353 903 353 1747 
Q 353 2603 823 3093 
Q 1294 3584 2113 3584 
Q 2378 3584 2631 3529 
Q 2884 3475 3122 3366 
z
" transform="scale(0.015625)"/>
      <path id="DejaVuSans-6f" d="M 1959 3097 
Q 1497 3097 1228 2736 
Q 959 2375 959 1747 
Q 959 1119 1226 758 
Q 1494 397 1959 397 
Q 2419 397 2687 759 
Q 2956 1122 2956 1747 
Q 2956 2369 2687 2733 
Q 2419 3097 1959 3097 
z
M 1959 3584 
Q 2709 3584 3137 3096 
Q 3566 2609 3566 1747 
Q 3566 888 3137 398 
Q 2709 -91 1959 -91 
Q 1206 -91 779 398 
Q 353 888 353 1747 
Q 353 2609 779 3096 
Q 1206 3584 1959 3584 
z
" transform="scale(0.015625)"/>
     </defs>
     <use xlink:href="#DejaVuSans-73" transform="translate(0 0.234375)"/>
     <use xlink:href="#DejaVuSans-69" transform="translate(52.099609 0.234375)"/>
     <use xlink:href="#DejaVuSans-6e" transform="translate(79.882812 0.234375)"/>
     <use xlink:href="#DejaVuSans-28" transform="translate(143.261719 0.234375)"/>
     <use xlink:href="#DejaVuSans-32" transform="translate(182.275391 0.234375)"/>
     <use xlink:href="#DejaVuSans-Oblique-3b8" transform="translate(245.898438 0.234375)"/>
     <use xlink:href="#DejaVuSans-29" transform="translate(307.080078 0.234375)"/>
     <use xlink:href="#DejaVuSans-3d" transform="translate(365.576172 0.234375)"/>
     <use xlink:href="#DejaVuSans-32" transform="translate(468.847656 0.234375)"/>
     <use xlink:href="#DejaVuSans-73" transform="translate(532.470703 0.234375)"/>
     <use xlink:href="#DejaVuSans-69" transform="translate(584.570312 0.234375)"/>
     <use xlink:href="#DejaVuSans-6e" transform="translate(612.353516 0.234375)"/>
     <use xlink:href="#DejaVuSans-Oblique-3b8" transform="translate(691.968098 0.234375)"/>
     <use xlink:href="#DejaVuSans-63" transform="translate(753.149739 0.234375)"/>
     <use xlink:href="#DejaVuSans-6f" transform="translate(808.130208 0.234375)"/>
     <use xlink:href="#DejaVuSans-73" transform="translate(869.311848 0.234375)"/>
     <use xlink:href="#DejaVuSans-Oblique-3b8" transform="translate(937.647134 0.234375)"/>
    </g>
   </g>
   <g id="text_4">
    <!-- cos(2θ) -->
    <g style="fill: #4b5563" transform="translate(489.186947 80.483341) scale(0.11 -0.11)">
     <defs>
      <path id="SegoeUI-Bold-63" d="M 2841 116 
Q 2506 -78 1875 -78 
Q 1138 -78 681 369 
Q 225 816 225 1522 
Q 225 2338 714 2808 
Q 1203 3278 2022 3278 
Q 2588 3278 2841 3128 
L 2841 2291 
Q 2531 2522 2150 2522 
Q 1725 2522 1476 2273 
Q 1228 2025 1228 1588 
Q 1228 1163 1465 920 
Q 1703 678 2119 678 
Q 2488 678 2841 909 
L 2841 116 
z
" transform="scale(0.015625)"/>
      <path id="SegoeUI-Bold-6f" d="M 1941 -78 
Q 1141 -78 683 370 
Q 225 819 225 1588 
Q 225 2381 700 2829 
Q 1175 3278 1984 3278 
Q 2781 3278 3234 2829 
Q 3688 2381 3688 1644 
Q 3688 847 3220 384 
Q 2753 -78 1941 -78 
z
M 1966 2522 
Q 1616 2522 1422 2281 
Q 1228 2041 1228 1600 
Q 1228 678 1972 678 
Q 2681 678 2681 1625 
Q 2681 2522 1966 2522 
z
" transform="scale(0.015625)"/>
     </defs>
     <use xlink:href="#SegoeUI-Bold-63"/>
     <use xlink:href="#SegoeUI-Bold-6f" x="47.998047"/>
     <use xlink:href="#SegoeUI-Bold-73" x="109.130859"/>
     <use xlink:href="#SegoeUI-Bold-28" x="153.125"/>
     <use xlink:href="#SegoeUI-Bold-32" x="190.039062"/>
     <use xlink:href="#SegoeUI-Bold-3b8" x="247.558594"/>
     <use xlink:href="#SegoeUI-Bold-29" x="308.740234"/>
    </g>
   </g>
   <g id="text_5">
    <!-- $\cos(2\theta) = \cos^2\theta - \sin^2\theta$ -->
    <g style="fill: #2c2f33" transform="translate(449.19976 115.558764) scale(0.1 -0.1)">
     <defs>
      <path id="DejaVuSans-2212" d="M 678 2272 
L 4684 2272 
L 4684 1741 
L 678 1741 
L 678 2272 
z
" transform="scale(0.015625)"/>
     </defs>
     <use xlink:href="#DejaVuSans-63" transform="translate(0 0.765625)"/>
     <use xlink:href="#DejaVuSans-6f" transform="translate(54.980469 0.765625)"/>
     <use xlink:href="#DejaVuSans-73" transform="translate(116.162109 0.765625)"/>
     <use xlink:href="#DejaVuSans-28" transform="translate(168.261719 0.765625)"/>
     <use xlink:href="#DejaVuSans-32" transform="translate(207.275391 0.765625)"/>
     <use xlink:href="#DejaVuSans-Oblique-3b8" transform="translate(270.898438 0.765625)"/>
     <use xlink:href="#DejaVuSans-29" transform="translate(332.080078 0.765625)"/>
     <use xlink:href="#DejaVuSans-3d" transform="translate(390.576172 0.765625)"/>
     <use xlink:href="#DejaVuSans-63" transform="translate(493.847656 0.765625)"/>
     <use xlink:href="#DejaVuSans-6f" transform="translate(548.828125 0.765625)"/>
     <use xlink:href="#DejaVuSans-73" transform="translate(610.009766 0.765625)"/>
     <use xlink:href="#DejaVuSans-32" transform="translate(663.066406 39.046875) scale(0.7)"/>
     <use xlink:href="#DejaVuSans-Oblique-3b8" transform="translate(726.57259 0.765625)"/>
     <use xlink:href="#DejaVuSans-2212" transform="translate(807.236653 0.765625)"/>
     <use xlink:href="#DejaVuSans-73" transform="translate(910.508137 0.765625)"/>
     <use xlink:href="#DejaVuSans-69" transform="translate(962.607747 0.765625)"/>
     <use xlink:href="#DejaVuSans-6e" transform="translate(990.39095 0.765625)"/>
     <use xlink:href="#DejaVuSans-32" transform="translate(1054.726887 39.046875) scale(0.7)"/>
     <use xlink:href="#DejaVuSans-Oblique-3b8" transform="translate(1118.233071 0.765625)"/>
    </g>
   </g>
   <g id="text_6">
    <!-- $\cos(2\theta) = 2\cos^2\theta - 1$ -->
    <g style="fill: #2c2f33" transform="translate(456.29976 150.634188) scale(0.1 -0.1)">
     <defs>
      <path id="DejaVuSans-31" d="M 794 531 
L 1825 531 
L 1825 4091 
L 703 3866 
L 703 4441 
L 1819 4666 
L 2450 4666 
L 2450 531 
L 3481 531 
L 3481 0 
L 794 0 
L 794 531 
z
" transform="scale(0.015625)"/>
     </defs>
     <use xlink:href="#DejaVuSans-63" transform="translate(0 0.765625)"/>
     <use xlink:href="#DejaVuSans-6f" transform="translate(54.980469 0.765625)"/>
     <use xlink:href="#DejaVuSans-73" transform="translate(116.162109 0.765625)"/>
     <use xlink:href="#DejaVuSans-28" transform="translate(168.261719 0.765625)"/>
     <use xlink:href="#DejaVuSans-32" transform="translate(207.275391 0.765625)"/>
     <use xlink:href="#DejaVuSans-Oblique-3b8" transform="translate(270.898438 0.765625)"/>
     <use xlink:href="#DejaVuSans-29" transform="translate(332.080078 0.765625)"/>
     <use xlink:href="#DejaVuSans-3d" transform="translate(390.576172 0.765625)"/>
     <use xlink:href="#DejaVuSans-32" transform="translate(493.847656 0.765625)"/>
     <use xlink:href="#DejaVuSans-63" transform="translate(557.470703 0.765625)"/>
     <use xlink:href="#DejaVuSans-6f" transform="translate(612.451172 0.765625)"/>
     <use xlink:href="#DejaVuSans-73" transform="translate(673.632812 0.765625)"/>
     <use xlink:href="#DejaVuSans-32" transform="translate(726.689453 39.046875) scale(0.7)"/>
     <use xlink:href="#DejaVuSans-Oblique-3b8" transform="translate(790.195637 0.765625)"/>
     <use xlink:href="#DejaVuSans-2212" transform="translate(870.8597 0.765625)"/>
     <use xlink:href="#DejaVuSans-31" transform="translate(974.131184 0.765625)"/>
    </g>
   </g>
   <g id="text_7">
    <!-- $\cos(2\theta) = 1 - 2\sin^2\theta$ -->
    <g style="fill: #2c2f33" transform="translate(457.54976 185.709612) scale(0.1 -0.1)">
     <use xlink:href="#DejaVuSans-63" transform="translate(0 0.765625)"/>
     <use xlink:href="#DejaVuSans-6f" transform="translate(54.980469 0.765625)"/>
     <use xlink:href="#DejaVuSans-73" transform="translate(116.162109 0.765625)"/>
     <use xlink:href="#DejaVuSans-28" transform="translate(168.261719 0.765625)"/>
     <use xlink:href="#DejaVuSans-32" transform="translate(207.275391 0.765625)"/>
     <use xlink:href="#DejaVuSans-Oblique-3b8" transform="translate(270.898438 0.765625)"/>
     <use xlink:href="#DejaVuSans-29" transform="translate(332.080078 0.765625)"/>
     <use xlink:href="#DejaVuSans-3d" transform="translate(390.576172 0.765625)"/>
     <use xlink:href="#DejaVuSans-31" transform="translate(493.847656 0.765625)"/>
     <use xlink:href="#DejaVuSans-2212" transform="translate(576.953125 0.765625)"/>
     <use xlink:href="#DejaVuSans-32" transform="translate(680.224609 0.765625)"/>
     <use xlink:href="#DejaVuSans-73" transform="translate(743.847656 0.765625)"/>
     <use xlink:href="#DejaVuSans-69" transform="translate(795.947266 0.765625)"/>
     <use xlink:href="#DejaVuSans-6e" transform="translate(823.730469 0.765625)"/>
     <use xlink:href="#DejaVuSans-32" transform="translate(888.066406 39.046875) scale(0.7)"/>
     <use xlink:href="#DejaVuSans-Oblique-3b8" transform="translate(951.57259 0.765625)"/>
    </g>
   </g>
   <g id="text_8">
    <!-- tan(2θ) -->
    <g style="fill: #f59e0b" transform="translate(809.821638 80.483341) scale(0.11 -0.11)">
     <defs>
      <path id="SegoeUI-Bold-74" d="M 2350 38 
Q 2131 -78 1691 -78 
Q 647 -78 647 1006 
L 647 2472 
L 128 2472 
L 128 3200 
L 647 3200 
L 647 3891 
L 1631 4172 
L 1631 3200 
L 2350 3200 
L 2350 2472 
L 1631 2472 
L 1631 1178 
Q 1631 678 2028 678 
Q 2184 678 2350 769 
L 2350 38 
z
" transform="scale(0.015625)"/>
      <path id="SegoeUI-Bold-61" d="M 3078 0 
L 2144 0 
L 2144 459 
L 2131 459 
Q 1809 -78 1178 -78 
Q 713 -78 445 186 
Q 178 450 178 891 
Q 178 1822 1281 1966 
L 2150 2081 
Q 2150 2606 1581 2606 
Q 1009 2606 494 2266 
L 494 3009 
Q 700 3116 1058 3197 
Q 1416 3278 1709 3278 
Q 3078 3278 3078 1913 
L 3078 0 
z
M 2150 1300 
L 2150 1516 
L 1569 1441 
Q 1088 1378 1088 1006 
Q 1088 838 1205 730 
Q 1322 622 1522 622 
Q 1800 622 1975 814 
Q 2150 1006 2150 1300 
z
" transform="scale(0.015625)"/>
     </defs>
     <use xlink:href="#SegoeUI-Bold-74"/>
     <use xlink:href="#SegoeUI-Bold-61" x="38.916016"/>
     <use xlink:href="#SegoeUI-Bold-6e" x="92.724609"/>
     <use xlink:href="#SegoeUI-Bold-28" x="153.222656"/>
     <use xlink:href="#SegoeUI-Bold-32" x="190.136719"/>
     <use xlink:href="#SegoeUI-Bold-3b8" x="247.65625"/>
     <use xlink:href="#SegoeUI-Bold-29" x="308.837891"/>
    </g>
   </g>
   <g id="text_9">
    <!-- $\tan(2\theta) = \frac{2\tan\theta}{1-\tan^2\theta}$ -->
    <g style="fill: #2c2f33" transform="translate(787.039606 115.558764) scale(0.1 -0.1)">
     <defs>
      <path id="DejaVuSans-74" d="M 1172 4494 
L 1172 3500 
L 2356 3500 
L 2356 3053 
L 1172 3053 
L 1172 1153 
Q 1172 725 1289 603 
Q 1406 481 1766 481 
L 2356 481 
L 2356 0 
L 1766 0 
Q 1100 0 847 248 
Q 594 497 594 1153 
L 594 3053 
L 172 3053 
L 172 3500 
L 594 3500 
L 594 4494 
L 1172 4494 
z
" transform="scale(0.015625)"/>
      <path id="DejaVuSans-61" d="M 2194 1759 
Q 1497 1759 1228 1600 
Q 959 1441 959 1056 
Q 959 750 1161 570 
Q 1363 391 1709 391 
Q 2188 391 2477 730 
Q 2766 1069 2766 1631 
L 2766 1759 
L 2194 1759 
z
M 3341 1997 
L 3341 0 
L 2766 0 
L 2766 531 
Q 2569 213 2275 61 
Q 1981 -91 1556 -91 
Q 1019 -91 701 211 
Q 384 513 384 1019 
Q 384 1609 779 1909 
Q 1175 2209 1959 2209 
L 2766 2209 
L 2766 2266 
Q 2766 2663 2505 2880 
Q 2244 3097 1772 3097 
Q 1472 3097 1187 3025 
Q 903 2953 641 2809 
L 641 3341 
Q 956 3463 1253 3523 
Q 1550 3584 1831 3584 
Q 2591 3584 2966 3190 
Q 3341 2797 3341 1997 
z
" transform="scale(0.015625)"/>
     </defs>
     <use xlink:href="#DejaVuSans-74" transform="translate(0 0.471875)"/>
     <use xlink:href="#DejaVuSans-61" transform="translate(39.208984 0.471875)"/>
     <use xlink:href="#DejaVuSans-6e" transform="translate(100.488281 0.471875)"/>
     <use xlink:href="#DejaVuSans-28" transform="translate(163.867188 0.471875)"/>
     <use xlink:href="#DejaVuSans-32" transform="translate(202.880859 0.471875)"/>
     <use xlink:href="#DejaVuSans-Oblique-3b8" transform="translate(266.503906 0.471875)"/>
     <use xlink:href="#DejaVuSans-29" transform="translate(327.685547 0.471875)"/>
     <use xlink:href="#DejaVuSans-3d" transform="translate(386.181641 0.471875)"/>
     <use xlink:href="#DejaVuSans-32" transform="translate(549.453125 45.264063) scale(0.7)"/>
     <use xlink:href="#DejaVuSans-74" transform="translate(593.989258 45.264063) scale(0.7)"/>
     <use xlink:href="#DejaVuSans-61" transform="translate(621.435547 45.264063) scale(0.7)"/>
     <use xlink:href="#DejaVuSans-6e" transform="translate(664.331055 45.264063) scale(0.7)"/>
     <use xlink:href="#DejaVuSans-Oblique-3b8" transform="translate(720.061262 45.264063) scale(0.7)"/>
     <use xlink:href="#DejaVuSans-31" transform="translate(489.453125 -50.145312) scale(0.7)"/>
     <use xlink:href="#DejaVuSans-2212" transform="translate(547.626953 -50.145312) scale(0.7)"/>
     <use xlink:href="#DejaVuSans-74" transform="translate(619.916992 -50.145312) scale(0.7)"/>
     <use xlink:href="#DejaVuSans-61" transform="translate(647.363281 -50.145312) scale(0.7)"/>
     <use xlink:href="#DejaVuSans-6e" transform="translate(690.258789 -50.145312) scale(0.7)"/>
     <use xlink:href="#DejaVuSans-32" transform="translate(735.293945 -23.348437) scale(0.49)"/>
     <use xlink:href="#DejaVuSans-Oblique-3b8" transform="translate(779.748274 -50.145312) scale(0.7)"/>
     <path d="M 489.453125 19.26875 
L 489.453125 25.51875 
L 822.575423 25.51875 
L 822.575423 19.26875 
L 489.453125 19.26875 
z
"/>
    </g>
   </g>
   <g id="text_10">
    <!-- Formas Despejadas (útiles para integración) -->
    <g style="fill: #ca8a04" transform="translate(245.145462 233.539735) scale(0.1 -0.1)">
     <defs>
      <path id="SegoeUI-Bold-46" d="M 3103 3659 
L 1522 3659 
L 1522 2559 
L 2975 2559 
L 2975 1741 
L 1522 1741 
L 1522 0 
L 513 0 
L 513 4481 
L 3103 4481 
L 3103 3659 
z
" transform="scale(0.015625)"/>
      <path id="SegoeUI-Bold-72" d="M 2503 2309 
Q 2325 2406 2088 2406 
Q 1766 2406 1584 2170 
Q 1403 1934 1403 1528 
L 1403 0 
L 416 0 
L 416 3200 
L 1403 3200 
L 1403 2606 
L 1416 2606 
Q 1650 3256 2259 3256 
Q 2416 3256 2503 3219 
L 2503 2309 
z
" transform="scale(0.015625)"/>
      <path id="SegoeUI-Bold-6d" d="M 5497 0 
L 4513 0 
L 4513 1825 
Q 4513 2522 4000 2522 
Q 3756 2522 3603 2312 
Q 3450 2103 3450 1791 
L 3450 0 
L 2463 0 
L 2463 1844 
Q 2463 2522 1959 2522 
Q 1706 2522 1554 2322 
Q 1403 2122 1403 1778 
L 1403 0 
L 416 0 
L 416 3200 
L 1403 3200 
L 1403 2700 
L 1416 2700 
Q 1569 2956 1845 3117 
Q 2122 3278 2450 3278 
Q 3128 3278 3378 2681 
Q 3744 3278 4453 3278 
Q 5497 3278 5497 1991 
L 5497 0 
z
" transform="scale(0.015625)"/>
      <path id="SegoeUI-Bold-65" d="M 3291 1319 
L 1203 1319 
Q 1253 622 2081 622 
Q 2609 622 3009 872 
L 3009 159 
Q 2566 -78 1856 -78 
Q 1081 -78 653 351 
Q 225 781 225 1550 
Q 225 2347 687 2812 
Q 1150 3278 1825 3278 
Q 2525 3278 2908 2862 
Q 3291 2447 3291 1734 
L 3291 1319 
z
M 2375 1925 
Q 2375 2613 1819 2613 
Q 1581 2613 1407 2416 
Q 1234 2219 1197 1925 
L 2375 1925 
z
" transform="scale(0.015625)"/>
      <path id="SegoeUI-Bold-70" d="M 1416 372 
L 1403 372 
L 1403 -1472 
L 416 -1472 
L 416 3200 
L 1403 3200 
L 1403 2719 
L 1416 2719 
Q 1781 3278 2444 3278 
Q 3066 3278 3405 2851 
Q 3744 2425 3744 1691 
Q 3744 891 3348 406 
Q 2953 -78 2297 -78 
Q 1719 -78 1416 372 
z
M 1388 1684 
L 1388 1428 
Q 1388 1097 1563 887 
Q 1738 678 2022 678 
Q 2359 678 2545 939 
Q 2731 1200 2731 1678 
Q 2731 2522 2075 2522 
Q 1772 2522 1580 2292 
Q 1388 2063 1388 1684 
z
" transform="scale(0.015625)"/>
      <path id="SegoeUI-Bold-6a" d="M 916 3706 
Q 666 3706 506 3854 
Q 347 4003 347 4219 
Q 347 4441 506 4581 
Q 666 4722 916 4722 
Q 1169 4722 1326 4581 
Q 1484 4441 1484 4219 
Q 1484 3994 1326 3850 
Q 1169 3706 916 3706 
z
M 1403 56 
Q 1403 -653 1056 -1078 
Q 709 -1503 56 -1503 
Q -159 -1503 -416 -1409 
L -416 -634 
Q -209 -750 -50 -750 
Q 416 -750 416 -19 
L 416 3200 
L 1403 3200 
L 1403 56 
z
" transform="scale(0.015625)"/>
      <path id="SegoeUI-Bold-64" d="M 3547 0 
L 2559 0 
L 2559 441 
L 2547 441 
Q 2209 -78 1556 -78 
Q 956 -78 590 345 
Q 225 769 225 1528 
Q 225 2322 628 2800 
Q 1031 3278 1684 3278 
Q 2303 3278 2547 2834 
L 2559 2834 
L 2559 4738 
L 3547 4738 
L 3547 0 
z
M 2578 1556 
L 2578 1797 
Q 2578 2109 2397 2315 
Q 2216 2522 1925 2522 
Q 1597 2522 1412 2264 
Q 1228 2006 1228 1556 
Q 1228 1134 1406 906 
Q 1584 678 1900 678 
Q 2200 678 2389 918 
Q 2578 1159 2578 1556 
z
" transform="scale(0.015625)"/>
      <path id="SegoeUI-Bold-fa" d="M 3456 0 
L 2472 0 
L 2472 488 
L 2456 488 
Q 2091 -78 1478 -78 
Q 366 -78 366 1269 
L 366 3200 
L 1350 3200 
L 1350 1356 
Q 1350 678 1888 678 
Q 2153 678 2312 864 
Q 2472 1050 2472 1369 
L 2472 3200 
L 3456 3200 
L 3456 0 
z
M 3055 4716 
L 2076 3706 
L 1364 3706 
L 2176 4716 
L 3055 4716 
z
" transform="scale(0.015625)"/>
      <path id="SegoeUI-Bold-6c" d="M 1403 0 
L 416 0 
L 416 4738 
L 1403 4738 
L 1403 0 
z
" transform="scale(0.015625)"/>
      <path id="SegoeUI-Bold-67" d="M 3553 366 
Q 3553 -525 3037 -1014 
Q 2522 -1503 1544 -1503 
Q 897 -1503 519 -1319 
L 519 -488 
Q 1013 -775 1516 -775 
Q 2016 -775 2291 -511 
Q 2566 -247 2566 206 
L 2566 459 
L 2553 459 
Q 2216 -78 1556 -78 
Q 944 -78 584 353 
Q 225 784 225 1509 
Q 225 2322 625 2800 
Q 1025 3278 1678 3278 
Q 2263 3278 2553 2828 
L 2566 2828 
L 2566 3200 
L 3553 3200 
L 3553 366 
z
M 2578 1538 
L 2578 1791 
Q 2578 2094 2398 2308 
Q 2219 2522 1931 2522 
Q 1603 2522 1415 2265 
Q 1228 2009 1228 1544 
Q 1228 1144 1406 911 
Q 1584 678 1894 678 
Q 2200 678 2389 914 
Q 2578 1150 2578 1538 
z
" transform="scale(0.015625)"/>
      <path id="SegoeUI-Bold-f3" d="M 1941 -78 
Q 1141 -78 683 370 
Q 225 819 225 1588 
Q 225 2381 700 2829 
Q 1175 3278 1984 3278 
Q 2781 3278 3234 2829 
Q 3688 2381 3688 1644 
Q 3688 847 3220 384 
Q 2753 -78 1941 -78 
z
M 1966 2522 
Q 1616 2522 1422 2281 
Q 1228 2041 1228 1600 
Q 1228 678 1972 678 
Q 2681 678 2681 1625 
Q 2681 2522 1966 2522 
z
M 3023 4716 
L 2044 3706 
L 1332 3706 
L 2144 4716 
L 3023 4716 
z
" transform="scale(0.015625)"/>
     </defs>
     <use xlink:href="#SegoeUI-Bold-46"/>
     <use xlink:href="#SegoeUI-Bold-6f" x="52.001953"/>
     <use xlink:href="#SegoeUI-Bold-72" x="113.134766"/>
     <use xlink:href="#SegoeUI-Bold-6d" x="153.179688"/>
     <use xlink:href="#SegoeUI-Bold-61" x="244.78125"/>
     <use xlink:href="#SegoeUI-Bold-73" x="298.589844"/>
     <use xlink:href="#SegoeUI-Bold-20" x="342.583984"/>
     <use xlink:href="#SegoeUI-Bold-44" x="370.171875"/>
     <use xlink:href="#SegoeUI-Bold-65" x="443.902344"/>
     <use xlink:href="#SegoeUI-Bold-73" x="498.003906"/>
     <use xlink:href="#SegoeUI-Bold-70" x="541.998047"/>
     <use xlink:href="#SegoeUI-Bold-65" x="604.009766"/>
     <use xlink:href="#SegoeUI-Bold-6a" x="658.111328"/>
     <use xlink:href="#SegoeUI-Bold-61" x="686.529297"/>
     <use xlink:href="#SegoeUI-Bold-64" x="740.337891"/>
     <use xlink:href="#SegoeUI-Bold-61" x="802.251953"/>
     <use xlink:href="#SegoeUI-Bold-73" x="856.060547"/>
     <use xlink:href="#SegoeUI-Bold-20" x="900.054688"/>
     <use xlink:href="#SegoeUI-Bold-28" x="927.642578"/>
     <use xlink:href="#SegoeUI-Bold-fa" x="964.556641"/>
     <use xlink:href="#SegoeUI-Bold-74" x="1025.054688"/>
     <use xlink:href="#SegoeUI-Bold-69" x="1063.970703"/>
     <use xlink:href="#SegoeUI-Bold-6c" x="1092.388672"/>
     <use xlink:href="#SegoeUI-Bold-65" x="1120.806641"/>
     <use xlink:href="#SegoeUI-Bold-73" x="1174.908203"/>
     <use xlink:href="#SegoeUI-Bold-20" x="1218.902344"/>
     <use xlink:href="#SegoeUI-Bold-70" x="1246.490234"/>
     <use xlink:href="#SegoeUI-Bold-61" x="1307.501953"/>
     <use xlink:href="#SegoeUI-Bold-72" x="1361.310547"/>
     <use xlink:href="#SegoeUI-Bold-61" x="1401.105469"/>
     <use xlink:href="#SegoeUI-Bold-20" x="1454.914062"/>
     <use xlink:href="#SegoeUI-Bold-69" x="1482.501953"/>
     <use xlink:href="#SegoeUI-Bold-6e" x="1510.919922"/>
     <use xlink:href="#SegoeUI-Bold-74" x="1571.417969"/>
     <use xlink:href="#SegoeUI-Bold-65" x="1609.958984"/>
     <use xlink:href="#SegoeUI-Bold-67" x="1664.060547"/>
     <use xlink:href="#SegoeUI-Bold-72" x="1725.974609"/>
     <use xlink:href="#SegoeUI-Bold-61" x="1765.769531"/>
     <use xlink:href="#SegoeUI-Bold-63" x="1819.578125"/>
     <use xlink:href="#SegoeUI-Bold-69" x="1867.576172"/>
     <use xlink:href="#SegoeUI-Bold-f3" x="1895.994141"/>
     <use xlink:href="#SegoeUI-Bold-6e" x="1957.078125"/>
     <use xlink:href="#SegoeUI-Bold-29" x="2017.576172"/>
    </g>
   </g>
   <g id="text_11">
    <!-- $\sin^2\theta = \frac{1 - \cos(2\theta)}{2}$ -->
    <g style="fill: #2c2f33" transform="translate(308.129837 268.615159) scale(0.1 -0.1)">
     <use xlink:href="#DejaVuSans-73" transform="translate(0 0.235938)"/>
     <use xlink:href="#DejaVuSans-69" transform="translate(52.099609 0.235938)"/>
     <use xlink:href="#DejaVuSans-6e" transform="translate(79.882812 0.235938)"/>
     <use xlink:href="#DejaVuSans-32" transform="translate(144.21875 38.517188) scale(0.7)"/>
     <use xlink:href="#DejaVuSans-Oblique-3b8" transform="translate(207.724934 0.235938)"/>
     <use xlink:href="#DejaVuSans-3d" transform="translate(288.388997 0.235938)"/>
     <use xlink:href="#DejaVuSans-31" transform="translate(391.660481 53.264063) scale(0.7)"/>
     <use xlink:href="#DejaVuSans-2212" transform="translate(449.834309 53.264063) scale(0.7)"/>
     <use xlink:href="#DejaVuSans-63" transform="translate(522.124348 53.264063) scale(0.7)"/>
     <use xlink:href="#DejaVuSans-6f" transform="translate(560.610676 53.264063) scale(0.7)"/>
     <use xlink:href="#DejaVuSans-73" transform="translate(603.437825 53.264063) scale(0.7)"/>
     <use xlink:href="#DejaVuSans-28" transform="translate(639.907551 53.264063) scale(0.7)"/>
     <use xlink:href="#DejaVuSans-32" transform="translate(667.217122 53.264063) scale(0.7)"/>
     <use xlink:href="#DejaVuSans-Oblique-3b8" transform="translate(711.753254 53.264063) scale(0.7)"/>
     <use xlink:href="#DejaVuSans-29" transform="translate(754.580403 53.264063) scale(0.7)"/>
     <use xlink:href="#DejaVuSans-32" transform="translate(564.660481 -39.170312) scale(0.7)"/>
     <path d="M 391.660481 19.032813 
L 391.660481 25.282813 
L 781.889973 25.282813 
L 781.889973 19.032813 
L 391.660481 19.032813 
z
"/>
    </g>
   </g>
   <g id="text_12">
    <!-- $\cos^2\theta = \frac{1 + \cos(2\theta)}{2}$ -->
    <g style="fill: #2c2f33" transform="translate(306.879837 303.690583) scale(0.1 -0.1)">
     <defs>
      <path id="DejaVuSans-2b" d="M 2944 4013 
L 2944 2272 
L 4684 2272 
L 4684 1741 
L 2944 1741 
L 2944 0 
L 2419 0 
L 2419 1741 
L 678 1741 
L 678 2272 
L 2419 2272 
L 2419 4013 
L 2944 4013 
z
" transform="scale(0.015625)"/>
     </defs>
     <use xlink:href="#DejaVuSans-63" transform="translate(0 0.235938)"/>
     <use xlink:href="#DejaVuSans-6f" transform="translate(54.980469 0.235938)"/>
     <use xlink:href="#DejaVuSans-73" transform="translate(116.162109 0.235938)"/>
     <use xlink:href="#DejaVuSans-32" transform="translate(169.21875 38.517188) scale(0.7)"/>
     <use xlink:href="#DejaVuSans-Oblique-3b8" transform="translate(232.724934 0.235938)"/>
     <use xlink:href="#DejaVuSans-3d" transform="translate(313.388997 0.235938)"/>
     <use xlink:href="#DejaVuSans-31" transform="translate(416.660481 53.264063) scale(0.7)"/>
     <use xlink:href="#DejaVuSans-2b" transform="translate(474.834309 53.264063) scale(0.7)"/>
     <use xlink:href="#DejaVuSans-63" transform="translate(547.124348 53.264063) scale(0.7)"/>
     <use xlink:href="#DejaVuSans-6f" transform="translate(585.610676 53.264063) scale(0.7)"/>
     <use xlink:href="#DejaVuSans-73" transform="translate(628.437825 53.264063) scale(0.7)"/>
     <use xlink:href="#DejaVuSans-28" transform="translate(664.907551 53.264063) scale(0.7)"/>
     <use xlink:href="#DejaVuSans-32" transform="translate(692.217122 53.264063) scale(0.7)"/>
     <use xlink:href="#DejaVuSans-Oblique-3b8" transform="translate(736.753254 53.264063) scale(0.7)"/>
     <use xlink:href="#DejaVuSans-29" transform="translate(779.580403 53.264063) scale(0.7)"/>
     <use xlink:href="#DejaVuSans-32" transform="translate(589.660481 -39.170312) scale(0.7)"/>
     <path d="M 416.660481 19.032813 
L 416.660481 25.282813 
L 806.889973 25.282813 
L 806.889973 19.032813 
L 416.660481 19.032813 
z
"/>
    </g>
   </g>
   <g id="text_13">
    <!-- Tip -->
    <g style="fill: #dc2626" transform="translate(821.388044 233.539735) scale(0.1 -0.1)">
     <use xlink:href="#SegoeUI-Bold-54"/>
     <use xlink:href="#SegoeUI-Bold-69" x="58.59375"/>
     <use xlink:href="#SegoeUI-Bold-70" x="87.011719"/>
    </g>
   </g>
   <g id="text_14">
    <!-- Se obtienen de -->
    <g style="fill: #6b7280" transform="translate(798.929372 265.426484) scale(0.09 -0.09)">
     <defs>
      <path id="SegoeUI-53" d="M 378 181 
L 378 800 
Q 484 706 632 631 
Q 781 556 945 504 
Q 1109 453 1275 425 
Q 1441 397 1581 397 
Q 2066 397 2305 576 
Q 2544 756 2544 1094 
Q 2544 1275 2464 1409 
Q 2384 1544 2243 1655 
Q 2103 1766 1911 1867 
Q 1719 1969 1497 2081 
Q 1263 2200 1059 2322 
Q 856 2444 706 2591 
Q 556 2738 470 2923 
Q 384 3109 384 3359 
Q 384 3666 518 3892 
Q 653 4119 872 4266 
Q 1091 4413 1370 4484 
Q 1650 4556 1941 4556 
Q 2603 4556 2906 4397 
L 2906 3806 
Q 2509 4081 1888 4081 
Q 1716 4081 1544 4045 
Q 1372 4009 1237 3928 
Q 1103 3847 1018 3719 
Q 934 3591 934 3406 
Q 934 3234 998 3109 
Q 1063 2984 1188 2881 
Q 1313 2778 1492 2681 
Q 1672 2584 1906 2469 
Q 2147 2350 2362 2219 
Q 2578 2088 2740 1928 
Q 2903 1769 2998 1575 
Q 3094 1381 3094 1131 
Q 3094 800 2964 570 
Q 2834 341 2614 197 
Q 2394 53 2106 -11 
Q 1819 -75 1500 -75 
Q 1394 -75 1237 -58 
Q 1081 -41 918 -8 
Q 756 25 611 73 
Q 466 122 378 181 
z
" transform="scale(0.015625)"/>
      <path id="SegoeUI-65" d="M 3091 1472 
L 831 1472 
Q 844 938 1119 647 
Q 1394 356 1875 356 
Q 2416 356 2869 713 
L 2869 231 
Q 2447 -75 1753 -75 
Q 1075 -75 687 361 
Q 300 797 300 1588 
Q 300 2334 723 2804 
Q 1147 3275 1775 3275 
Q 2403 3275 2747 2869 
Q 3091 2463 3091 1741 
L 3091 1472 
z
M 2566 1906 
Q 2563 2350 2352 2597 
Q 2141 2844 1766 2844 
Q 1403 2844 1150 2584 
Q 897 2325 838 1906 
L 2566 1906 
z
" transform="scale(0.015625)"/>
      <path id="SegoeUI-20" transform="scale(0.015625)"/>
      <path id="SegoeUI-6f" d="M 1856 -75 
Q 1147 -75 723 373 
Q 300 822 300 1563 
Q 300 2369 740 2822 
Q 1181 3275 1931 3275 
Q 2647 3275 3048 2834 
Q 3450 2394 3450 1613 
Q 3450 847 3017 386 
Q 2584 -75 1856 -75 
z
M 1894 2844 
Q 1400 2844 1112 2508 
Q 825 2172 825 1581 
Q 825 1013 1115 684 
Q 1406 356 1894 356 
Q 2391 356 2658 678 
Q 2925 1000 2925 1594 
Q 2925 2194 2658 2519 
Q 2391 2844 1894 2844 
z
" transform="scale(0.015625)"/>
      <path id="SegoeUI-62" d="M 1044 463 
L 1031 463 
L 1031 0 
L 519 0 
L 519 4738 
L 1031 4738 
L 1031 2638 
L 1044 2638 
Q 1422 3275 2150 3275 
Q 2766 3275 3114 2845 
Q 3463 2416 3463 1694 
Q 3463 891 3072 408 
Q 2681 -75 2003 -75 
Q 1369 -75 1044 463 
z
M 1031 1753 
L 1031 1306 
Q 1031 909 1289 632 
Q 1547 356 1944 356 
Q 2409 356 2673 712 
Q 2938 1069 2938 1703 
Q 2938 2238 2691 2541 
Q 2444 2844 2022 2844 
Q 1575 2844 1303 2533 
Q 1031 2222 1031 1753 
z
" transform="scale(0.015625)"/>
      <path id="SegoeUI-74" d="M 2003 31 
Q 1822 -69 1525 -69 
Q 684 -69 684 869 
L 684 2763 
L 134 2763 
L 134 3200 
L 684 3200 
L 684 3981 
L 1197 4147 
L 1197 3200 
L 2003 3200 
L 2003 2763 
L 1197 2763 
L 1197 959 
Q 1197 638 1306 500 
Q 1416 363 1669 363 
Q 1863 363 2003 469 
L 2003 31 
z
" transform="scale(0.015625)"/>
      <path id="SegoeUI-69" d="M 781 4013 
Q 644 4013 547 4106 
Q 450 4200 450 4344 
Q 450 4488 547 4583 
Q 644 4678 781 4678 
Q 922 4678 1020 4583 
Q 1119 4488 1119 4344 
Q 1119 4206 1020 4109 
Q 922 4013 781 4013 
z
M 1031 0 
L 519 0 
L 519 3200 
L 1031 3200 
L 1031 0 
z
" transform="scale(0.015625)"/>
      <path id="SegoeUI-6e" d="M 3175 0 
L 2663 0 
L 2663 1825 
Q 2663 2844 1919 2844 
Q 1534 2844 1282 2555 
Q 1031 2266 1031 1825 
L 1031 0 
L 519 0 
L 519 3200 
L 1031 3200 
L 1031 2669 
L 1044 2669 
Q 1406 3275 2094 3275 
Q 2619 3275 2897 2936 
Q 3175 2597 3175 1956 
L 3175 0 
z
" transform="scale(0.015625)"/>
      <path id="SegoeUI-64" d="M 3250 0 
L 2738 0 
L 2738 544 
L 2725 544 
Q 2369 -75 1625 -75 
Q 1022 -75 661 354 
Q 300 784 300 1525 
Q 300 2319 700 2797 
Q 1100 3275 1766 3275 
Q 2425 3275 2725 2756 
L 2738 2756 
L 2738 4738 
L 3250 4738 
L 3250 0 
z
M 2738 1447 
L 2738 1919 
Q 2738 2306 2481 2575 
Q 2225 2844 1831 2844 
Q 1363 2844 1094 2500 
Q 825 2156 825 1550 
Q 825 997 1083 676 
Q 1341 356 1775 356 
Q 2203 356 2470 665 
Q 2738 975 2738 1447 
z
" transform="scale(0.015625)"/>
     </defs>
     <use xlink:href="#SegoeUI-53"/>
     <use xlink:href="#SegoeUI-65" x="53.125"/>
     <use xlink:href="#SegoeUI-20" x="105.419922"/>
     <use xlink:href="#SegoeUI-6f" x="132.8125"/>
     <use xlink:href="#SegoeUI-62" x="191.40625"/>
     <use xlink:href="#SegoeUI-74" x="250.195312"/>
     <use xlink:href="#SegoeUI-69" x="284.082031"/>
     <use xlink:href="#SegoeUI-65" x="308.300781"/>
     <use xlink:href="#SegoeUI-6e" x="360.595703"/>
     <use xlink:href="#SegoeUI-65" x="417.1875"/>
     <use xlink:href="#SegoeUI-6e" x="469.482422"/>
     <use xlink:href="#SegoeUI-20" x="526.074219"/>
     <use xlink:href="#SegoeUI-64" x="553.466797"/>
     <use xlink:href="#SegoeUI-65" x="612.353516"/>
    </g>
   </g>
   <g id="text_15">
    <!-- las identidades de -->
    <g style="fill: #6b7280" transform="translate(792.974606 290.935883) scale(0.09 -0.09)">
     <defs>
      <path id="SegoeUI-6c" d="M 1031 0 
L 519 0 
L 519 4738 
L 1031 4738 
L 1031 0 
z
" transform="scale(0.015625)"/>
      <path id="SegoeUI-61" d="M 2809 0 
L 2297 0 
L 2297 500 
L 2284 500 
Q 1950 -75 1300 -75 
Q 822 -75 551 178 
Q 281 431 281 850 
Q 281 1747 1338 1894 
L 2297 2028 
Q 2297 2844 1638 2844 
Q 1059 2844 594 2450 
L 594 2975 
Q 1066 3275 1681 3275 
Q 2809 3275 2809 2081 
L 2809 0 
z
M 2297 1619 
L 1525 1513 
Q 1169 1463 987 1336 
Q 806 1209 806 888 
Q 806 653 973 504 
Q 1141 356 1419 356 
Q 1800 356 2048 623 
Q 2297 891 2297 1300 
L 2297 1619 
z
" transform="scale(0.015625)"/>
      <path id="SegoeUI-73" d="M 325 116 
L 325 666 
Q 744 356 1247 356 
Q 1922 356 1922 806 
Q 1922 934 1864 1023 
Q 1806 1113 1707 1181 
Q 1609 1250 1476 1304 
Q 1344 1359 1191 1419 
Q 978 1503 817 1589 
Q 656 1675 548 1783 
Q 441 1891 386 2028 
Q 331 2166 331 2350 
Q 331 2575 434 2748 
Q 538 2922 709 3039 
Q 881 3156 1101 3215 
Q 1322 3275 1556 3275 
Q 1972 3275 2300 3131 
L 2300 2613 
Q 1947 2844 1488 2844 
Q 1344 2844 1228 2811 
Q 1113 2778 1030 2718 
Q 947 2659 901 2576 
Q 856 2494 856 2394 
Q 856 2269 901 2184 
Q 947 2100 1034 2034 
Q 1122 1969 1247 1916 
Q 1372 1863 1531 1800 
Q 1744 1719 1912 1633 
Q 2081 1547 2200 1439 
Q 2319 1331 2383 1190 
Q 2447 1050 2447 856 
Q 2447 619 2342 444 
Q 2238 269 2063 153 
Q 1888 38 1659 -18 
Q 1431 -75 1181 -75 
Q 688 -75 325 116 
z
" transform="scale(0.015625)"/>
     </defs>
     <use xlink:href="#SegoeUI-6c"/>
     <use xlink:href="#SegoeUI-61" x="24.21875"/>
     <use xlink:href="#SegoeUI-73" x="75.097656"/>
     <use xlink:href="#SegoeUI-20" x="117.529297"/>
     <use xlink:href="#SegoeUI-69" x="144.921875"/>
     <use xlink:href="#SegoeUI-64" x="169.140625"/>
     <use xlink:href="#SegoeUI-65" x="228.027344"/>
     <use xlink:href="#SegoeUI-6e" x="280.322266"/>
     <use xlink:href="#SegoeUI-74" x="336.914062"/>
     <use xlink:href="#SegoeUI-69" x="370.800781"/>
     <use xlink:href="#SegoeUI-64" x="395.019531"/>
     <use xlink:href="#SegoeUI-61" x="453.90625"/>
     <use xlink:href="#SegoeUI-64" x="504.785156"/>
     <use xlink:href="#SegoeUI-65" x="563.671875"/>
     <use xlink:href="#SegoeUI-73" x="615.966797"/>
     <use xlink:href="#SegoeUI-20" x="658.398438"/>
     <use xlink:href="#SegoeUI-64" x="685.791016"/>
     <use xlink:href="#SegoeUI-65" x="744.677734"/>
    </g>
   </g>
   <g id="text_16">
    <!-- suma con α = β -->
    <g style="fill: #6b7280" transform="translate(797.717888 316.445282) scale(0.09 -0.09)">
     <defs>
      <path id="SegoeUI-75" d="M 3106 0 
L 2594 0 
L 2594 506 
L 2581 506 
Q 2263 -75 1594 -75 
Q 450 -75 450 1288 
L 450 3200 
L 959 3200 
L 959 1369 
Q 959 356 1734 356 
Q 2109 356 2351 632 
Q 2594 909 2594 1356 
L 2594 3200 
L 3106 3200 
L 3106 0 
z
" transform="scale(0.015625)"/>
      <path id="SegoeUI-6d" d="M 5063 0 
L 4550 0 
L 4550 1838 
Q 4550 2369 4386 2606 
Q 4222 2844 3834 2844 
Q 3506 2844 3276 2544 
Q 3047 2244 3047 1825 
L 3047 0 
L 2534 0 
L 2534 1900 
Q 2534 2844 1806 2844 
Q 1469 2844 1250 2561 
Q 1031 2278 1031 1825 
L 1031 0 
L 519 0 
L 519 3200 
L 1031 3200 
L 1031 2694 
L 1044 2694 
Q 1384 3275 2038 3275 
Q 2366 3275 2609 3092 
Q 2853 2909 2944 2613 
Q 3300 3275 4006 3275 
Q 5063 3275 5063 1972 
L 5063 0 
z
" transform="scale(0.015625)"/>
      <path id="SegoeUI-63" d="M 2700 147 
Q 2331 -75 1825 -75 
Q 1141 -75 720 370 
Q 300 816 300 1525 
Q 300 2316 753 2795 
Q 1206 3275 1963 3275 
Q 2384 3275 2706 3119 
L 2706 2594 
Q 2350 2844 1944 2844 
Q 1453 2844 1139 2492 
Q 825 2141 825 1569 
Q 825 1006 1120 681 
Q 1416 356 1913 356 
Q 2331 356 2700 634 
L 2700 147 
z
" transform="scale(0.015625)"/>
      <path id="SegoeUI-3b1" d="M 3816 16 
Q 3650 -25 3519 -25 
Q 3038 -25 2869 891 
L 2856 891 
Q 2394 -75 1563 -75 
Q 981 -75 631 373 
Q 281 822 281 1506 
Q 281 2288 684 2781 
Q 1088 3275 1775 3275 
Q 2169 3275 2478 3040 
Q 2788 2806 2947 2381 
L 2959 2381 
L 3225 3200 
L 3763 3200 
L 3159 1631 
Q 3266 947 3384 701 
Q 3503 456 3691 456 
Q 3763 456 3816 472 
L 3816 16 
z
M 2728 1625 
Q 2609 2219 2365 2534 
Q 2122 2850 1778 2850 
Q 1334 2850 1070 2472 
Q 806 2094 806 1538 
Q 806 1044 1029 709 
Q 1253 375 1631 375 
Q 1963 375 2233 658 
Q 2503 941 2684 1491 
L 2728 1625 
z
" transform="scale(0.015625)"/>
      <path id="SegoeUI-3d" d="M 3663 2325 
L 725 2325 
L 725 2738 
L 3663 2738 
L 3663 2325 
z
M 3663 994 
L 725 994 
L 725 1406 
L 3663 1406 
L 3663 994 
z
" transform="scale(0.015625)"/>
      <path id="SegoeUI-3b2" d="M 1028 144 
L 1028 -1503 
L 522 -1503 
L 522 3484 
Q 522 4081 865 4434 
Q 1209 4788 1788 4788 
Q 2328 4788 2639 4505 
Q 2950 4222 2950 3722 
Q 2950 3347 2711 3020 
Q 2472 2694 2091 2572 
L 2091 2559 
Q 2656 2469 2961 2133 
Q 3266 1797 3266 1278 
Q 3266 675 2887 298 
Q 2509 -78 1894 -78 
Q 1419 -78 1028 144 
z
M 1553 2316 
L 1553 2725 
Q 1938 2778 2186 3048 
Q 2434 3319 2434 3659 
Q 2434 4350 1778 4350 
Q 1416 4350 1222 4109 
Q 1028 3869 1028 3431 
L 1028 631 
Q 1466 359 1884 359 
Q 2288 359 2514 592 
Q 2741 825 2741 1244 
Q 2741 2191 1553 2316 
z
" transform="scale(0.015625)"/>
     </defs>
     <use xlink:href="#SegoeUI-73"/>
     <use xlink:href="#SegoeUI-75" x="42.431641"/>
     <use xlink:href="#SegoeUI-6d" x="99.023438"/>
     <use xlink:href="#SegoeUI-61" x="185.15625"/>
     <use xlink:href="#SegoeUI-20" x="236.035156"/>
     <use xlink:href="#SegoeUI-63" x="263.427734"/>
     <use xlink:href="#SegoeUI-6f" x="309.619141"/>
     <use xlink:href="#SegoeUI-6e" x="368.212891"/>
     <use xlink:href="#SegoeUI-20" x="424.804688"/>
     <use xlink:href="#SegoeUI-3b1" x="452.197266"/>
     <use xlink:href="#SegoeUI-20" x="513.623047"/>
     <use xlink:href="#SegoeUI-3d" x="541.015625"/>
     <use xlink:href="#SegoeUI-20" x="609.423828"/>
     <use xlink:href="#SegoeUI-3b2" x="636.816406"/>
    </g>
   </g>
  </g>
  <g id="axes_2">
   <g id="patch_8">
    <path d="M 27.23999 714.82217 
L 989.15953 714.82217 
L 989.15953 415.086731 
L 27.23999 415.086731 
z
" clip-path="url(#p394a9c75c6)" style="fill: #f9fafb; stroke: #d1d5db; stroke-width: 1.5; stroke-linejoin: miter"/>
   </g>
   <g id="patch_9">
    <path d="M 37.259986 561.765776 
L 337.859842 561.765776 
L 337.859842 450.162155 
L 37.259986 450.162155 
z
" clip-path="url(#p394a9c75c6)" style="fill: #f0fdf4; stroke: #e12885; stroke-width: 1.5; stroke-linejoin: miter"/>
   </g>
   <g id="patch_10">
    <path d="M 357.899832 561.765776 
L 658.499688 561.765776 
L 658.499688 450.162155 
L 357.899832 450.162155 
z
" clip-path="url(#p394a9c75c6)" style="fill: #eff6ff; stroke: #4b5563; stroke-width: 1.5; stroke-linejoin: miter"/>
   </g>
   <g id="patch_11">
    <path d="M 678.539678 561.765776 
L 979.139534 561.765776 
L 979.139534 450.162155 
L 678.539678 450.162155 
z
" clip-path="url(#p394a9c75c6)" style="fill: #fef3c7; stroke: #f59e0b; stroke-width: 1.5; stroke-linejoin: miter"/>
   </g>
   <g id="patch_12">
    <path d="M 157.499928 682.935421 
L 858.899592 682.935421 
L 858.899592 587.275175 
L 157.499928 587.275175 
z
" clip-path="url(#p394a9c75c6)" style="fill: #fce7f3; stroke: #ec4899; stroke-width: 1.5; stroke-linejoin: miter"/>
   </g>
   <g id="text_17">
    <!-- IDENTIDADES DE MEDIO ÁNGULO -->
    <g style="fill: #39c5bb" transform="translate(403.513197 427.84143) scale(0.13 -0.13)">
     <defs>
      <path id="SegoeUI-Bold-4d" d="M 5619 0 
L 4622 0 
L 4622 2681 
Q 4622 3116 4659 3641 
L 4634 3641 
Q 4556 3228 4494 3047 
L 3444 0 
L 2619 0 
L 1550 3016 
Q 1506 3138 1409 3641 
L 1381 3641 
Q 1422 2978 1422 2478 
L 1422 0 
L 513 0 
L 513 4481 
L 1991 4481 
L 2906 1825 
Q 3016 1506 3066 1184 
L 3084 1184 
Q 3169 1556 3263 1831 
L 4178 4481 
L 5619 4481 
L 5619 0 
z
" transform="scale(0.015625)"/>
     </defs>
     <use xlink:href="#SegoeUI-Bold-49"/>
     <use xlink:href="#SegoeUI-Bold-44" x="31.689453"/>
     <use xlink:href="#SegoeUI-Bold-45" x="105.419922"/>
     <use xlink:href="#SegoeUI-Bold-4e" x="158.642578"/>
     <use xlink:href="#SegoeUI-Bold-54" x="237.646484"/>
     <use xlink:href="#SegoeUI-Bold-49" x="296.240234"/>
     <use xlink:href="#SegoeUI-Bold-44" x="327.929688"/>
     <use xlink:href="#SegoeUI-Bold-41" x="400.160156"/>
     <use xlink:href="#SegoeUI-Bold-44" x="470.472656"/>
     <use xlink:href="#SegoeUI-Bold-45" x="544.203125"/>
     <use xlink:href="#SegoeUI-Bold-53" x="597.425781"/>
     <use xlink:href="#SegoeUI-Bold-20" x="653.480469"/>
     <use xlink:href="#SegoeUI-Bold-44" x="681.068359"/>
     <use xlink:href="#SegoeUI-Bold-45" x="754.798828"/>
     <use xlink:href="#SegoeUI-Bold-20" x="808.021484"/>
     <use xlink:href="#SegoeUI-Bold-4d" x="835.609375"/>
     <use xlink:href="#SegoeUI-Bold-45" x="931.3125"/>
     <use xlink:href="#SegoeUI-Bold-44" x="984.535156"/>
     <use xlink:href="#SegoeUI-Bold-49" x="1058.265625"/>
     <use xlink:href="#SegoeUI-Bold-4f" x="1089.955078"/>
     <use xlink:href="#SegoeUI-Bold-20" x="1165.785156"/>
     <use xlink:href="#SegoeUI-Bold-c1" x="1193.373047"/>
     <use xlink:href="#SegoeUI-Bold-4e" x="1263.685547"/>
     <use xlink:href="#SegoeUI-Bold-47" x="1342.689453"/>
     <use xlink:href="#SegoeUI-Bold-55" x="1413.783203"/>
     <use xlink:href="#SegoeUI-Bold-4c" x="1486.097656"/>
     <use xlink:href="#SegoeUI-Bold-4f" x="1534.720703"/>
    </g>
   </g>
   <g id="text_18">
    <!-- $\sin\frac{\theta}{2}$ -->
    <g style="fill: #e12885" transform="translate(174.539914 466.105529) scale(0.12 -0.12)">
     <use xlink:href="#DejaVuSans-73" transform="translate(0 0.679688)"/>
     <use xlink:href="#DejaVuSans-69" transform="translate(52.099609 0.679688)"/>
     <use xlink:href="#DejaVuSans-6e" transform="translate(79.882812 0.679688)"/>
     <use xlink:href="#DejaVuSans-Oblique-3b8" transform="translate(160.497395 45.264063) scale(0.7)"/>
     <use xlink:href="#DejaVuSans-32" transform="translate(159.497395 -38.726562) scale(0.7)"/>
     <path d="M 159.497395 19.476562 
L 159.497395 25.726562 
L 204.033528 25.726562 
L 204.033528 19.476562 
L 159.497395 19.476562 
z
"/>
    </g>
   </g>
   <g id="text_19">
    <!-- $\sin\frac{\theta}{2} = \pm\sqrt{\frac{1-\cos\theta}{2}}$ -->
    <g style="fill: #2c2f33" transform="translate(142.609914 513.935652) scale(0.1 -0.1)">
     <defs>
      <path id="DejaVuSans-b1" d="M 2944 4013 
L 2944 2803 
L 4684 2803 
L 4684 2272 
L 2944 2272 
L 2944 1063 
L 2419 1063 
L 2419 2272 
L 678 2272 
L 678 2803 
L 2419 2803 
L 2419 4013 
L 2944 4013 
z
M 678 531 
L 4684 531 
L 4684 0 
L 678 0 
L 678 531 
z
" transform="scale(0.015625)"/>
      <path id="STIXSizeOneSym-Regular-221a" d="M 6970 9933 
L 3373 -1888 
L 3104 -1888 
L 1626 2918 
Q 1555 3149 1465 3251 
Q 1376 3354 1229 3354 
Q 1011 3354 794 3181 
L 717 3309 
L 1766 4115 
L 1926 4115 
L 3379 -602 
L 3405 -602 
L 6605 9933 
L 6970 9933 
z
" transform="scale(0.015625)"/>
     </defs>
     <use xlink:href="#DejaVuSans-73" transform="translate(0 0.484375)"/>
     <use xlink:href="#DejaVuSans-69" transform="translate(52.099609 0.484375)"/>
     <use xlink:href="#DejaVuSans-6e" transform="translate(79.882812 0.484375)"/>
     <use xlink:href="#DejaVuSans-Oblique-3b8" transform="translate(160.497395 45.06875) scale(0.7)"/>
     <use xlink:href="#DejaVuSans-32" transform="translate(159.497395 -38.921875) scale(0.7)"/>
     <use xlink:href="#DejaVuSans-3d" transform="translate(236.01595 0.484375)"/>
     <use xlink:href="#DejaVuSans-b1" transform="translate(358.769856 0.484375)"/>
     <use xlink:href="#STIXSizeOneSym-Regular-221a" transform="translate(462.04134 -11.78125) scale(0.91598)"/>
     <use xlink:href="#DejaVuSans-31" transform="translate(571.388966 45.014062) scale(0.7)"/>
     <use xlink:href="#DejaVuSans-2212" transform="translate(629.562794 45.014062) scale(0.7)"/>
     <use xlink:href="#DejaVuSans-63" transform="translate(701.852833 45.014062) scale(0.7)"/>
     <use xlink:href="#DejaVuSans-6f" transform="translate(740.339161 45.014062) scale(0.7)"/>
     <use xlink:href="#DejaVuSans-73" transform="translate(783.16631 45.014062) scale(0.7)"/>
     <use xlink:href="#DejaVuSans-Oblique-3b8" transform="translate(831.00101 45.014062) scale(0.7)"/>
     <use xlink:href="#DejaVuSans-32" transform="translate(700.388966 -39.184375) scale(0.7)"/>
     <path d="M 159.497395 19.28125 
L 159.497395 25.53125 
L 204.033528 25.53125 
L 204.033528 19.28125 
L 159.497395 19.28125 
z
"/>
     <path d="M 558.888966 124.5 
L 558.888966 130.75 
L 898.828158 130.75 
L 898.828158 124.5 
L 558.888966 124.5 
z
"/>
     <path d="M 571.388966 19.01875 
L 571.388966 25.26875 
L 873.828158 25.26875 
L 873.828158 19.01875 
L 571.388966 19.01875 
z
"/>
    </g>
   </g>
   <g id="text_20">
    <!-- $\cos\frac{\theta}{2}$ -->
    <g style="fill: #4b5563" transform="translate(493.67976 466.105529) scale(0.12 -0.12)">
     <use xlink:href="#DejaVuSans-63" transform="translate(0 0.679688)"/>
     <use xlink:href="#DejaVuSans-6f" transform="translate(54.980469 0.679688)"/>
     <use xlink:href="#DejaVuSans-73" transform="translate(116.162109 0.679688)"/>
     <use xlink:href="#DejaVuSans-Oblique-3b8" transform="translate(185.497395 45.264063) scale(0.7)"/>
     <use xlink:href="#DejaVuSans-32" transform="translate(184.497395 -38.726562) scale(0.7)"/>
     <path d="M 184.497395 19.476562 
L 184.497395 25.726562 
L 229.033528 25.726562 
L 229.033528 19.476562 
L 184.497395 19.476562 
z
"/>
    </g>
   </g>
   <g id="text_21">
    <!-- $\cos\frac{\theta}{2} = \pm\sqrt{\frac{1+\cos\theta}{2}}$ -->
    <g style="fill: #2c2f33" transform="translate(461.99976 513.935652) scale(0.1 -0.1)">
     <use xlink:href="#DejaVuSans-63" transform="translate(0 0.484375)"/>
     <use xlink:href="#DejaVuSans-6f" transform="translate(54.980469 0.484375)"/>
     <use xlink:href="#DejaVuSans-73" transform="translate(116.162109 0.484375)"/>
     <use xlink:href="#DejaVuSans-Oblique-3b8" transform="translate(185.497395 45.06875) scale(0.7)"/>
     <use xlink:href="#DejaVuSans-32" transform="translate(184.497395 -38.921875) scale(0.7)"/>
     <use xlink:href="#DejaVuSans-3d" transform="translate(261.01595 0.484375)"/>
     <use xlink:href="#DejaVuSans-b1" transform="translate(383.769856 0.484375)"/>
     <use xlink:href="#STIXSizeOneSym-Regular-221a" transform="translate(487.04134 -11.78125) scale(0.91598)"/>
     <use xlink:href="#DejaVuSans-31" transform="translate(596.388966 45.014062) scale(0.7)"/>
     <use xlink:href="#DejaVuSans-2b" transform="translate(654.562794 45.014062) scale(0.7)"/>
     <use xlink:href="#DejaVuSans-63" transform="translate(726.852833 45.014062) scale(0.7)"/>
     <use xlink:href="#DejaVuSans-6f" transform="translate(765.339161 45.014062) scale(0.7)"/>
     <use xlink:href="#DejaVuSans-73" transform="translate(808.16631 45.014062) scale(0.7)"/>
     <use xlink:href="#DejaVuSans-Oblique-3b8" transform="translate(856.00101 45.014062) scale(0.7)"/>
     <use xlink:href="#DejaVuSans-32" transform="translate(725.388966 -39.184375) scale(0.7)"/>
     <path d="M 184.497395 19.28125 
L 184.497395 25.53125 
L 229.033528 25.53125 
L 229.033528 19.28125 
L 184.497395 19.28125 
z
"/>
     <path d="M 583.888966 124.5 
L 583.888966 130.75 
L 923.828158 130.75 
L 923.828158 124.5 
L 583.888966 124.5 
z
"/>
     <path d="M 596.388966 19.01875 
L 596.388966 25.26875 
L 898.828158 25.26875 
L 898.828158 19.01875 
L 596.388966 19.01875 
z
"/>
    </g>
   </g>
   <g id="text_22">
    <!-- $\tan\frac{\theta}{2}$ -->
    <g style="fill: #f59e0b" transform="translate(814.559606 466.105529) scale(0.12 -0.12)">
     <use xlink:href="#DejaVuSans-74" transform="translate(0 0.679688)"/>
     <use xlink:href="#DejaVuSans-61" transform="translate(39.208984 0.679688)"/>
     <use xlink:href="#DejaVuSans-6e" transform="translate(100.488281 0.679688)"/>
     <use xlink:href="#DejaVuSans-Oblique-3b8" transform="translate(181.102864 45.264063) scale(0.7)"/>
     <use xlink:href="#DejaVuSans-32" transform="translate(180.102864 -38.726562) scale(0.7)"/>
     <path d="M 180.102864 19.476562 
L 180.102864 25.726562 
L 224.638997 25.726562 
L 224.638997 19.476562 
L 180.102864 19.476562 
z
"/>
    </g>
   </g>
   <g id="text_23">
    <!-- $\tan\frac{\theta}{2} = \pm\sqrt{\frac{1-\cos\theta}{1+\cos\theta}}$ -->
    <g style="fill: #2c2f33" transform="translate(787.349606 504.369628) scale(0.09 -0.09)">
     <use xlink:href="#DejaVuSans-74" transform="translate(0 0.41875)"/>
     <use xlink:href="#DejaVuSans-61" transform="translate(39.208984 0.41875)"/>
     <use xlink:href="#DejaVuSans-6e" transform="translate(100.488281 0.41875)"/>
     <use xlink:href="#DejaVuSans-Oblique-3b8" transform="translate(181.102864 45.003125) scale(0.7)"/>
     <use xlink:href="#DejaVuSans-32" transform="translate(180.102864 -38.9875) scale(0.7)"/>
     <use xlink:href="#DejaVuSans-3d" transform="translate(256.621418 0.41875)"/>
     <use xlink:href="#DejaVuSans-b1" transform="translate(379.375325 0.41875)"/>
     <use xlink:href="#STIXSizeOneSym-Regular-221a" transform="translate(482.646809 -14.328125) scale(0.931021)"/>
     <use xlink:href="#DejaVuSans-31" transform="translate(593.579915 45.014062) scale(0.7)"/>
     <use xlink:href="#DejaVuSans-2212" transform="translate(651.753743 45.014062) scale(0.7)"/>
     <use xlink:href="#DejaVuSans-63" transform="translate(724.043782 45.014062) scale(0.7)"/>
     <use xlink:href="#DejaVuSans-6f" transform="translate(762.53011 45.014062) scale(0.7)"/>
     <use xlink:href="#DejaVuSans-73" transform="translate(805.357258 45.014062) scale(0.7)"/>
     <use xlink:href="#DejaVuSans-Oblique-3b8" transform="translate(853.191958 45.014062) scale(0.7)"/>
     <use xlink:href="#DejaVuSans-31" transform="translate(593.579915 -40.967187) scale(0.7)"/>
     <use xlink:href="#DejaVuSans-2b" transform="translate(651.753743 -40.967187) scale(0.7)"/>
     <use xlink:href="#DejaVuSans-63" transform="translate(724.043782 -40.967187) scale(0.7)"/>
     <use xlink:href="#DejaVuSans-6f" transform="translate(762.53011 -40.967187) scale(0.7)"/>
     <use xlink:href="#DejaVuSans-73" transform="translate(805.357258 -40.967187) scale(0.7)"/>
     <use xlink:href="#DejaVuSans-Oblique-3b8" transform="translate(853.191958 -40.967187) scale(0.7)"/>
     <path d="M 180.102864 19.215625 
L 180.102864 25.465625 
L 224.638997 25.465625 
L 224.638997 19.215625 
L 180.102864 19.215625 
z
"/>
     <path d="M 581.079915 123.5 
L 581.079915 129.75 
L 921.019107 129.75 
L 921.019107 123.5 
L 581.079915 123.5 
z
"/>
     <path d="M 593.579915 19.01875 
L 593.579915 25.26875 
L 896.019107 25.26875 
L 896.019107 19.01875 
L 593.579915 19.01875 
z
"/>
    </g>
   </g>
   <g id="text_24">
    <!-- $= \frac{\sin\theta}{1+\cos\theta} = \frac{1-\cos\theta}{\sin\theta}$ -->
    <g style="fill: #6b7280" transform="translate(789.419606 542.633726) scale(0.09 -0.09)">
     <use xlink:href="#DejaVuSans-3d" transform="translate(19.482422 0.471875)"/>
     <use xlink:href="#DejaVuSans-73" transform="translate(196.753906 45.264063) scale(0.7)"/>
     <use xlink:href="#DejaVuSans-69" transform="translate(233.223633 45.264063) scale(0.7)"/>
     <use xlink:href="#DejaVuSans-6e" transform="translate(252.671875 45.264063) scale(0.7)"/>
     <use xlink:href="#DejaVuSans-Oblique-3b8" transform="translate(308.402083 45.264063) scale(0.7)"/>
     <use xlink:href="#DejaVuSans-31" transform="translate(122.753906 -40.717187) scale(0.7)"/>
     <use xlink:href="#DejaVuSans-2b" transform="translate(180.927734 -40.717187) scale(0.7)"/>
     <use xlink:href="#DejaVuSans-63" transform="translate(253.217773 -40.717187) scale(0.7)"/>
     <use xlink:href="#DejaVuSans-6f" transform="translate(291.704102 -40.717187) scale(0.7)"/>
     <use xlink:href="#DejaVuSans-73" transform="translate(334.53125 -40.717187) scale(0.7)"/>
     <use xlink:href="#DejaVuSans-Oblique-3b8" transform="translate(382.36595 -40.717187) scale(0.7)"/>
     <use xlink:href="#DejaVuSans-3d" transform="translate(457.17552 0.471875)"/>
     <use xlink:href="#DejaVuSans-31" transform="translate(560.447005 45.264063) scale(0.7)"/>
     <use xlink:href="#DejaVuSans-2212" transform="translate(618.620833 45.264063) scale(0.7)"/>
     <use xlink:href="#DejaVuSans-63" transform="translate(690.910872 45.264063) scale(0.7)"/>
     <use xlink:href="#DejaVuSans-6f" transform="translate(729.3972 45.264063) scale(0.7)"/>
     <use xlink:href="#DejaVuSans-73" transform="translate(772.224348 45.264063) scale(0.7)"/>
     <use xlink:href="#DejaVuSans-Oblique-3b8" transform="translate(820.059048 45.264063) scale(0.7)"/>
     <use xlink:href="#DejaVuSans-73" transform="translate(634.447005 -40.717187) scale(0.7)"/>
     <use xlink:href="#DejaVuSans-69" transform="translate(670.916731 -40.717187) scale(0.7)"/>
     <use xlink:href="#DejaVuSans-6e" transform="translate(690.364973 -40.717187) scale(0.7)"/>
     <use xlink:href="#DejaVuSans-Oblique-3b8" transform="translate(746.095181 -40.717187) scale(0.7)"/>
     <path d="M 122.753906 19.26875 
L 122.753906 25.51875 
L 425.193098 25.51875 
L 425.193098 19.26875 
L 122.753906 19.26875 
z
"/>
     <path d="M 560.447005 19.26875 
L 560.447005 25.51875 
L 862.886197 25.51875 
L 862.886197 19.26875 
L 560.447005 19.26875 
z
"/>
    </g>
   </g>
   <g id="text_25">
    <!-- ⚠️ El signo (±) depende del cuadrante donde se encuentra θ/2 -->
    <g style="fill: #be185d" transform="translate(361.082572 603.218549) scale(0.1 -0.1)">
     <defs>
      <path id="SegoeUI-Bold-26a0" d="M 519 0 
L 519 4369 
L 3613 4369 
L 3613 0 
L 519 0 
z
M 981 463 
L 3150 463 
L 3150 3906 
L 981 3906 
L 981 463 
z
" transform="scale(0.015625)"/>
      <path id="SegoeUI-Bold-fe0f" d="M 519 0 
L 519 4369 
L 3613 4369 
L 3613 0 
L 519 0 
z
M 981 463 
L 3150 463 
L 3150 3906 
L 981 3906 
L 981 463 
z
" transform="scale(0.015625)"/>
      <path id="SegoeUI-Bold-b1" d="M 3788 2169 
L 2584 2169 
L 2584 959 
L 1953 959 
L 1953 2169 
L 756 2169 
L 756 2803 
L 1953 2803 
L 1953 4025 
L 2584 4025 
L 2584 2803 
L 3788 2803 
L 3788 2169 
z
M 3781 0 
L 744 0 
L 744 634 
L 3781 634 
L 3781 0 
z
" transform="scale(0.015625)"/>
      <path id="SegoeUI-Bold-75" d="M 3456 0 
L 2472 0 
L 2472 488 
L 2456 488 
Q 2091 -78 1478 -78 
Q 366 -78 366 1269 
L 366 3200 
L 1350 3200 
L 1350 1356 
Q 1350 678 1888 678 
Q 2153 678 2312 864 
Q 2472 1050 2472 1369 
L 2472 3200 
L 3456 3200 
L 3456 0 
z
" transform="scale(0.015625)"/>
      <path id="SegoeUI-Bold-2f" d="M 2913 4481 
L 728 -744 
L -153 -744 
L 2022 4481 
L 2913 4481 
z
" transform="scale(0.015625)"/>
     </defs>
     <use xlink:href="#SegoeUI-Bold-26a0"/>
     <use xlink:href="#SegoeUI-Bold-fe0f" x="64.550781"/>
     <use xlink:href="#SegoeUI-Bold-20" x="129.101562"/>
     <use xlink:href="#SegoeUI-Bold-45" x="156.689453"/>
     <use xlink:href="#SegoeUI-Bold-6c" x="209.912109"/>
     <use xlink:href="#SegoeUI-Bold-20" x="238.330078"/>
     <use xlink:href="#SegoeUI-Bold-73" x="265.917969"/>
     <use xlink:href="#SegoeUI-Bold-69" x="309.912109"/>
     <use xlink:href="#SegoeUI-Bold-67" x="338.330078"/>
     <use xlink:href="#SegoeUI-Bold-6e" x="400.244141"/>
     <use xlink:href="#SegoeUI-Bold-6f" x="460.742188"/>
     <use xlink:href="#SegoeUI-Bold-20" x="521.875"/>
     <use xlink:href="#SegoeUI-Bold-28" x="549.462891"/>
     <use xlink:href="#SegoeUI-Bold-b1" x="586.376953"/>
     <use xlink:href="#SegoeUI-Bold-29" x="657.080078"/>
     <use xlink:href="#SegoeUI-Bold-20" x="693.994141"/>
     <use xlink:href="#SegoeUI-Bold-64" x="721.582031"/>
     <use xlink:href="#SegoeUI-Bold-65" x="783.496094"/>
     <use xlink:href="#SegoeUI-Bold-70" x="837.597656"/>
     <use xlink:href="#SegoeUI-Bold-65" x="899.609375"/>
     <use xlink:href="#SegoeUI-Bold-6e" x="953.710938"/>
     <use xlink:href="#SegoeUI-Bold-64" x="1014.208984"/>
     <use xlink:href="#SegoeUI-Bold-65" x="1076.123047"/>
     <use xlink:href="#SegoeUI-Bold-20" x="1130.224609"/>
     <use xlink:href="#SegoeUI-Bold-64" x="1157.8125"/>
     <use xlink:href="#SegoeUI-Bold-65" x="1219.726562"/>
     <use xlink:href="#SegoeUI-Bold-6c" x="1273.828125"/>
     <use xlink:href="#SegoeUI-Bold-20" x="1302.246094"/>
     <use xlink:href="#SegoeUI-Bold-63" x="1329.833984"/>
     <use xlink:href="#SegoeUI-Bold-75" x="1377.832031"/>
     <use xlink:href="#SegoeUI-Bold-61" x="1438.330078"/>
     <use xlink:href="#SegoeUI-Bold-64" x="1492.138672"/>
     <use xlink:href="#SegoeUI-Bold-72" x="1554.052734"/>
     <use xlink:href="#SegoeUI-Bold-61" x="1593.847656"/>
     <use xlink:href="#SegoeUI-Bold-6e" x="1647.65625"/>
     <use xlink:href="#SegoeUI-Bold-74" x="1708.154297"/>
     <use xlink:href="#SegoeUI-Bold-65" x="1746.695312"/>
     <use xlink:href="#SegoeUI-Bold-20" x="1800.796875"/>
     <use xlink:href="#SegoeUI-Bold-64" x="1828.384766"/>
     <use xlink:href="#SegoeUI-Bold-6f" x="1890.298828"/>
     <use xlink:href="#SegoeUI-Bold-6e" x="1951.431641"/>
     <use xlink:href="#SegoeUI-Bold-64" x="2011.929688"/>
     <use xlink:href="#SegoeUI-Bold-65" x="2073.84375"/>
     <use xlink:href="#SegoeUI-Bold-20" x="2127.945312"/>
     <use xlink:href="#SegoeUI-Bold-73" x="2155.533203"/>
     <use xlink:href="#SegoeUI-Bold-65" x="2199.527344"/>
     <use xlink:href="#SegoeUI-Bold-20" x="2253.628906"/>
     <use xlink:href="#SegoeUI-Bold-65" x="2281.216797"/>
     <use xlink:href="#SegoeUI-Bold-6e" x="2335.318359"/>
     <use xlink:href="#SegoeUI-Bold-63" x="2395.816406"/>
     <use xlink:href="#SegoeUI-Bold-75" x="2443.814453"/>
     <use xlink:href="#SegoeUI-Bold-65" x="2504.3125"/>
     <use xlink:href="#SegoeUI-Bold-6e" x="2558.414062"/>
     <use xlink:href="#SegoeUI-Bold-74" x="2618.912109"/>
     <use xlink:href="#SegoeUI-Bold-72" x="2657.828125"/>
     <use xlink:href="#SegoeUI-Bold-61" x="2697.623047"/>
     <use xlink:href="#SegoeUI-Bold-20" x="2751.431641"/>
     <use xlink:href="#SegoeUI-Bold-3b8" x="2779.019531"/>
     <use xlink:href="#SegoeUI-Bold-2f" x="2840.201172"/>
     <use xlink:href="#SegoeUI-Bold-32" x="2884.537109"/>
    </g>
   </g>
   <g id="text_26">
    <!-- Cuadrante I: sin, cos, tan son positivos -->
    <g style="fill: #374151" transform="translate(432.964682 635.105298) scale(0.09 -0.09)">
     <defs>
      <path id="SegoeUI-43" d="M 3638 188 
Q 3141 -75 2400 -75 
Q 1444 -75 869 540 
Q 294 1156 294 2156 
Q 294 3231 941 3893 
Q 1588 4556 2581 4556 
Q 3219 4556 3638 4372 
L 3638 3813 
Q 3156 4081 2575 4081 
Q 1803 4081 1323 3565 
Q 844 3050 844 2188 
Q 844 1369 1292 883 
Q 1741 397 2469 397 
Q 3144 397 3638 697 
L 3638 188 
z
" transform="scale(0.015625)"/>
      <path id="SegoeUI-72" d="M 2188 2681 
Q 2053 2784 1800 2784 
Q 1472 2784 1251 2475 
Q 1031 2166 1031 1631 
L 1031 0 
L 519 0 
L 519 3200 
L 1031 3200 
L 1031 2541 
L 1044 2541 
Q 1153 2878 1378 3067 
Q 1603 3256 1881 3256 
Q 2081 3256 2188 3213 
L 2188 2681 
z
" transform="scale(0.015625)"/>
      <path id="SegoeUI-49" d="M 1113 0 
L 588 0 
L 588 4481 
L 1113 4481 
L 1113 0 
z
" transform="scale(0.015625)"/>
      <path id="SegoeUI-3a" d="M 697 2575 
Q 553 2575 451 2678 
Q 350 2781 350 2925 
Q 350 3069 451 3169 
Q 553 3269 697 3269 
Q 844 3269 947 3169 
Q 1050 3069 1050 2925 
Q 1050 2781 947 2678 
Q 844 2575 697 2575 
z
M 697 -69 
Q 553 -69 451 34 
Q 350 138 350 281 
Q 350 425 451 529 
Q 553 634 697 634 
Q 844 634 947 529 
Q 1050 425 1050 281 
Q 1050 138 947 34 
Q 844 -69 697 -69 
z
" transform="scale(0.015625)"/>
      <path id="SegoeUI-2c" d="M 988 713 
L 488 -825 
L 122 -825 
L 488 713 
L 988 713 
z
" transform="scale(0.015625)"/>
      <path id="SegoeUI-70" d="M 1044 463 
L 1031 463 
L 1031 -1472 
L 519 -1472 
L 519 3200 
L 1031 3200 
L 1031 2638 
L 1044 2638 
Q 1422 3275 2150 3275 
Q 2769 3275 3116 2845 
Q 3463 2416 3463 1694 
Q 3463 891 3072 408 
Q 2681 -75 2003 -75 
Q 1381 -75 1044 463 
z
M 1031 1753 
L 1031 1306 
Q 1031 909 1289 632 
Q 1547 356 1944 356 
Q 2409 356 2673 712 
Q 2938 1069 2938 1703 
Q 2938 2238 2691 2541 
Q 2444 2844 2022 2844 
Q 1575 2844 1303 2533 
Q 1031 2222 1031 1753 
z
" transform="scale(0.015625)"/>
      <path id="SegoeUI-76" d="M 3034 3200 
L 1759 0 
L 1256 0 
L 44 3200 
L 606 3200 
L 1419 875 
Q 1509 619 1531 428 
L 1544 428 
Q 1575 669 1644 863 
L 2494 3200 
L 3034 3200 
z
" transform="scale(0.015625)"/>
     </defs>
     <use xlink:href="#SegoeUI-43"/>
     <use xlink:href="#SegoeUI-75" x="61.914062"/>
     <use xlink:href="#SegoeUI-61" x="118.505859"/>
     <use xlink:href="#SegoeUI-64" x="169.384766"/>
     <use xlink:href="#SegoeUI-72" x="228.271484"/>
     <use xlink:href="#SegoeUI-61" x="263.037109"/>
     <use xlink:href="#SegoeUI-6e" x="313.916016"/>
     <use xlink:href="#SegoeUI-74" x="370.507812"/>
     <use xlink:href="#SegoeUI-65" x="403.644531"/>
     <use xlink:href="#SegoeUI-20" x="455.939453"/>
     <use xlink:href="#SegoeUI-49" x="483.332031"/>
     <use xlink:href="#SegoeUI-3a" x="509.943359"/>
     <use xlink:href="#SegoeUI-20" x="531.623047"/>
     <use xlink:href="#SegoeUI-73" x="559.015625"/>
     <use xlink:href="#SegoeUI-69" x="601.447266"/>
     <use xlink:href="#SegoeUI-6e" x="625.666016"/>
     <use xlink:href="#SegoeUI-2c" x="682.257812"/>
     <use xlink:href="#SegoeUI-20" x="703.9375"/>
     <use xlink:href="#SegoeUI-63" x="731.330078"/>
     <use xlink:href="#SegoeUI-6f" x="777.521484"/>
     <use xlink:href="#SegoeUI-73" x="836.115234"/>
     <use xlink:href="#SegoeUI-2c" x="878.546875"/>
     <use xlink:href="#SegoeUI-20" x="900.226562"/>
     <use xlink:href="#SegoeUI-74" x="927.619141"/>
     <use xlink:href="#SegoeUI-61" x="961.505859"/>
     <use xlink:href="#SegoeUI-6e" x="1012.384766"/>
     <use xlink:href="#SegoeUI-20" x="1068.976562"/>
     <use xlink:href="#SegoeUI-73" x="1096.369141"/>
     <use xlink:href="#SegoeUI-6f" x="1138.800781"/>
     <use xlink:href="#SegoeUI-6e" x="1197.394531"/>
     <use xlink:href="#SegoeUI-20" x="1253.986328"/>
     <use xlink:href="#SegoeUI-70" x="1281.378906"/>
     <use xlink:href="#SegoeUI-6f" x="1340.167969"/>
     <use xlink:href="#SegoeUI-73" x="1398.761719"/>
     <use xlink:href="#SegoeUI-69" x="1441.193359"/>
     <use xlink:href="#SegoeUI-74" x="1465.412109"/>
     <use xlink:href="#SegoeUI-69" x="1499.298828"/>
     <use xlink:href="#SegoeUI-76" x="1523.517578"/>
     <use xlink:href="#SegoeUI-6f" x="1570.792969"/>
     <use xlink:href="#SegoeUI-73" x="1629.386719"/>
    </g>
   </g>
   <g id="text_27">
    <!-- Cuadrante II: solo sin es positivo -->
    <g style="fill: #374151" transform="translate(444.404526 657.426022) scale(0.09 -0.09)">
     <use xlink:href="#SegoeUI-43"/>
     <use xlink:href="#SegoeUI-75" x="61.914062"/>
     <use xlink:href="#SegoeUI-61" x="118.505859"/>
     <use xlink:href="#SegoeUI-64" x="169.384766"/>
     <use xlink:href="#SegoeUI-72" x="228.271484"/>
     <use xlink:href="#SegoeUI-61" x="263.037109"/>
     <use xlink:href="#SegoeUI-6e" x="313.916016"/>
     <use xlink:href="#SegoeUI-74" x="370.507812"/>
     <use xlink:href="#SegoeUI-65" x="403.644531"/>
     <use xlink:href="#SegoeUI-20" x="455.939453"/>
     <use xlink:href="#SegoeUI-49" x="483.332031"/>
     <use xlink:href="#SegoeUI-49" x="509.943359"/>
     <use xlink:href="#SegoeUI-3a" x="536.554688"/>
     <use xlink:href="#SegoeUI-20" x="558.234375"/>
     <use xlink:href="#SegoeUI-73" x="585.626953"/>
     <use xlink:href="#SegoeUI-6f" x="628.058594"/>
     <use xlink:href="#SegoeUI-6c" x="686.652344"/>
     <use xlink:href="#SegoeUI-6f" x="710.871094"/>
     <use xlink:href="#SegoeUI-20" x="769.464844"/>
     <use xlink:href="#SegoeUI-73" x="796.857422"/>
     <use xlink:href="#SegoeUI-69" x="839.289062"/>
     <use xlink:href="#SegoeUI-6e" x="863.507812"/>
     <use xlink:href="#SegoeUI-20" x="920.099609"/>
     <use xlink:href="#SegoeUI-65" x="947.492188"/>
     <use xlink:href="#SegoeUI-73" x="999.787109"/>
     <use xlink:href="#SegoeUI-20" x="1042.21875"/>
     <use xlink:href="#SegoeUI-70" x="1069.611328"/>
     <use xlink:href="#SegoeUI-6f" x="1128.400391"/>
     <use xlink:href="#SegoeUI-73" x="1186.994141"/>
     <use xlink:href="#SegoeUI-69" x="1229.425781"/>
     <use xlink:href="#SegoeUI-74" x="1253.644531"/>
     <use xlink:href="#SegoeUI-69" x="1287.53125"/>
     <use xlink:href="#SegoeUI-76" x="1311.75"/>
     <use xlink:href="#SegoeUI-6f" x="1359.025391"/>
    </g>
   </g>
   <g id="text_28">
    <!-- Cuadrante III: solo tan es positivo  •  Cuadrante IV: solo cos es positivo -->
    <g style="fill: #374151" transform="translate(369.162416 679.746746) scale(0.09 -0.09)">
     <defs>
      <path id="SegoeUI-2022" d="M 1306 1275 
Q 981 1275 747 1503 
Q 513 1731 513 2056 
Q 513 2378 747 2614 
Q 981 2850 1306 2850 
Q 1631 2850 1859 2615 
Q 2088 2381 2088 2056 
Q 2088 1731 1859 1503 
Q 1631 1275 1306 1275 
z
" transform="scale(0.015625)"/>
      <path id="SegoeUI-56" d="M 3919 4481 
L 2259 0 
L 1681 0 
L 56 4481 
L 641 4481 
L 1881 928 
Q 1941 756 1972 531 
L 1984 531 
Q 2009 719 2088 934 
L 3353 4481 
L 3919 4481 
z
" transform="scale(0.015625)"/>
     </defs>
     <use xlink:href="#SegoeUI-43"/>
     <use xlink:href="#SegoeUI-75" x="61.914062"/>
     <use xlink:href="#SegoeUI-61" x="118.505859"/>
     <use xlink:href="#SegoeUI-64" x="169.384766"/>
     <use xlink:href="#SegoeUI-72" x="228.271484"/>
     <use xlink:href="#SegoeUI-61" x="263.037109"/>
     <use xlink:href="#SegoeUI-6e" x="313.916016"/>
     <use xlink:href="#SegoeUI-74" x="370.507812"/>
     <use xlink:href="#SegoeUI-65" x="403.644531"/>
     <use xlink:href="#SegoeUI-20" x="455.939453"/>
     <use xlink:href="#SegoeUI-49" x="483.332031"/>
     <use xlink:href="#SegoeUI-49" x="509.943359"/>
     <use xlink:href="#SegoeUI-49" x="536.554688"/>
     <use xlink:href="#SegoeUI-3a" x="563.166016"/>
     <use xlink:href="#SegoeUI-20" x="584.845703"/>
     <use xlink:href="#SegoeUI-73" x="612.238281"/>
     <use xlink:href="#SegoeUI-6f" x="654.669922"/>
     <use xlink:href="#SegoeUI-6c" x="713.263672"/>
     <use xlink:href="#SegoeUI-6f" x="737.482422"/>
     <use xlink:href="#SegoeUI-20" x="796.076172"/>
     <use xlink:href="#SegoeUI-74" x="823.46875"/>
     <use xlink:href="#SegoeUI-61" x="857.355469"/>
     <use xlink:href="#SegoeUI-6e" x="908.234375"/>
     <use xlink:href="#SegoeUI-20" x="964.826172"/>
     <use xlink:href="#SegoeUI-65" x="992.21875"/>
     <use xlink:href="#SegoeUI-73" x="1044.513672"/>
     <use xlink:href="#SegoeUI-20" x="1086.945312"/>
     <use xlink:href="#SegoeUI-70" x="1114.337891"/>
     <use xlink:href="#SegoeUI-6f" x="1173.126953"/>
     <use xlink:href="#SegoeUI-73" x="1231.720703"/>
     <use xlink:href="#SegoeUI-69" x="1274.152344"/>
     <use xlink:href="#SegoeUI-74" x="1298.371094"/>
     <use xlink:href="#SegoeUI-69" x="1332.257812"/>
     <use xlink:href="#SegoeUI-76" x="1356.476562"/>
     <use xlink:href="#SegoeUI-6f" x="1403.751953"/>
     <use xlink:href="#SegoeUI-20" x="1462.345703"/>
     <use xlink:href="#SegoeUI-20" x="1489.738281"/>
     <use xlink:href="#SegoeUI-2022" x="1517.130859"/>
     <use xlink:href="#SegoeUI-20" x="1557.755859"/>
     <use xlink:href="#SegoeUI-20" x="1585.148438"/>
     <use xlink:href="#SegoeUI-43" x="1612.541016"/>
     <use xlink:href="#SegoeUI-75" x="1674.455078"/>
     <use xlink:href="#SegoeUI-61" x="1731.046875"/>
     <use xlink:href="#SegoeUI-64" x="1781.925781"/>
     <use xlink:href="#SegoeUI-72" x="1840.8125"/>
     <use xlink:href="#SegoeUI-61" x="1875.578125"/>
     <use xlink:href="#SegoeUI-6e" x="1926.457031"/>
     <use xlink:href="#SegoeUI-74" x="1983.048828"/>
     <use xlink:href="#SegoeUI-65" x="2016.185547"/>
     <use xlink:href="#SegoeUI-20" x="2068.480469"/>
     <use xlink:href="#SegoeUI-49" x="2095.873047"/>
     <use xlink:href="#SegoeUI-56" x="2122.484375"/>
     <use xlink:href="#SegoeUI-3a" x="2184.59375"/>
     <use xlink:href="#SegoeUI-20" x="2206.273438"/>
     <use xlink:href="#SegoeUI-73" x="2233.666016"/>
     <use xlink:href="#SegoeUI-6f" x="2276.097656"/>
     <use xlink:href="#SegoeUI-6c" x="2334.691406"/>
     <use xlink:href="#SegoeUI-6f" x="2358.910156"/>
     <use xlink:href="#SegoeUI-20" x="2417.503906"/>
     <use xlink:href="#SegoeUI-63" x="2444.896484"/>
     <use xlink:href="#SegoeUI-6f" x="2491.087891"/>
     <use xlink:href="#SegoeUI-73" x="2549.681641"/>
     <use xlink:href="#SegoeUI-20" x="2592.113281"/>
     <use xlink:href="#SegoeUI-65" x="2619.505859"/>
     <use xlink:href="#SegoeUI-73" x="2671.800781"/>
     <use xlink:href="#SegoeUI-20" x="2714.232422"/>
     <use xlink:href="#SegoeUI-70" x="2741.625"/>
     <use xlink:href="#SegoeUI-6f" x="2800.414062"/>
     <use xlink:href="#SegoeUI-73" x="2859.007812"/>
     <use xlink:href="#SegoeUI-69" x="2901.439453"/>
     <use xlink:href="#SegoeUI-74" x="2925.658203"/>
     <use xlink:href="#SegoeUI-69" x="2959.544922"/>
     <use xlink:href="#SegoeUI-76" x="2983.763672"/>
     <use xlink:href="#SegoeUI-6f" x="3031.039062"/>
    </g>
   </g>
  </g>
  <g id="text_29">
   <!-- Identidades de Ángulo Doble y Medio Ángulo -->
   <g style="fill: #2c2f33" transform="translate(357.486479 20.17625) scale(0.14 -0.14)">
    <defs>
     <path id="SegoeUI-Bold-62" d="M 1416 372 
L 1403 372 
L 1403 0 
L 416 0 
L 416 4738 
L 1403 4738 
L 1403 2719 
L 1416 2719 
Q 1781 3278 2456 3278 
Q 3075 3278 3409 2853 
Q 3744 2428 3744 1691 
Q 3744 891 3353 406 
Q 2963 -78 2309 -78 
Q 1719 -78 1416 372 
z
M 1388 1722 
L 1388 1394 
Q 1388 1084 1566 881 
Q 1744 678 2022 678 
Q 2359 678 2545 939 
Q 2731 1200 2731 1678 
Q 2731 2075 2561 2298 
Q 2391 2522 2075 2522 
Q 1778 2522 1583 2300 
Q 1388 2078 1388 1722 
z
" transform="scale(0.015625)"/>
     <path id="SegoeUI-Bold-79" d="M 3463 3200 
L 2163 -256 
Q 1694 -1503 750 -1503 
Q 391 -1503 159 -1422 
L 159 -634 
Q 356 -750 588 -750 
Q 969 -750 1119 -391 
L 1288 6 
L -13 3200 
L 1081 3200 
L 1678 1253 
Q 1734 1072 1766 825 
L 1778 825 
Q 1806 1006 1881 1247 
L 2484 3200 
L 3463 3200 
z
" transform="scale(0.015625)"/>
    </defs>
    <use xlink:href="#SegoeUI-Bold-49"/>
    <use xlink:href="#SegoeUI-Bold-64" x="31.689453"/>
    <use xlink:href="#SegoeUI-Bold-65" x="93.603516"/>
    <use xlink:href="#SegoeUI-Bold-6e" x="147.705078"/>
    <use xlink:href="#SegoeUI-Bold-74" x="208.203125"/>
    <use xlink:href="#SegoeUI-Bold-69" x="247.119141"/>
    <use xlink:href="#SegoeUI-Bold-64" x="275.537109"/>
    <use xlink:href="#SegoeUI-Bold-61" x="337.451172"/>
    <use xlink:href="#SegoeUI-Bold-64" x="391.259766"/>
    <use xlink:href="#SegoeUI-Bold-65" x="453.173828"/>
    <use xlink:href="#SegoeUI-Bold-73" x="507.275391"/>
    <use xlink:href="#SegoeUI-Bold-20" x="551.269531"/>
    <use xlink:href="#SegoeUI-Bold-64" x="578.857422"/>
    <use xlink:href="#SegoeUI-Bold-65" x="640.771484"/>
    <use xlink:href="#SegoeUI-Bold-20" x="694.873047"/>
    <use xlink:href="#SegoeUI-Bold-c1" x="722.460938"/>
    <use xlink:href="#SegoeUI-Bold-6e" x="792.773438"/>
    <use xlink:href="#SegoeUI-Bold-67" x="853.271484"/>
    <use xlink:href="#SegoeUI-Bold-75" x="915.185547"/>
    <use xlink:href="#SegoeUI-Bold-6c" x="975.683594"/>
    <use xlink:href="#SegoeUI-Bold-6f" x="1004.101562"/>
    <use xlink:href="#SegoeUI-Bold-20" x="1065.234375"/>
    <use xlink:href="#SegoeUI-Bold-44" x="1092.822266"/>
    <use xlink:href="#SegoeUI-Bold-6f" x="1166.552734"/>
    <use xlink:href="#SegoeUI-Bold-62" x="1227.685547"/>
    <use xlink:href="#SegoeUI-Bold-6c" x="1289.697266"/>
    <use xlink:href="#SegoeUI-Bold-65" x="1318.115234"/>
    <use xlink:href="#SegoeUI-Bold-20" x="1372.216797"/>
    <use xlink:href="#SegoeUI-Bold-79" x="1399.804688"/>
    <use xlink:href="#SegoeUI-Bold-20" x="1453.613281"/>
    <use xlink:href="#SegoeUI-Bold-4d" x="1481.201172"/>
    <use xlink:href="#SegoeUI-Bold-65" x="1576.904297"/>
    <use xlink:href="#SegoeUI-Bold-64" x="1631.005859"/>
    <use xlink:href="#SegoeUI-Bold-69" x="1692.919922"/>
    <use xlink:href="#SegoeUI-Bold-6f" x="1721.337891"/>
    <use xlink:href="#SegoeUI-Bold-20" x="1782.470703"/>
    <use xlink:href="#SegoeUI-Bold-c1" x="1810.058594"/>
    <use xlink:href="#SegoeUI-Bold-6e" x="1880.371094"/>
    <use xlink:href="#SegoeUI-Bold-67" x="1940.869141"/>
    <use xlink:href="#SegoeUI-Bold-75" x="2002.783203"/>
    <use xlink:href="#SegoeUI-Bold-6c" x="2063.28125"/>
    <use xlink:href="#SegoeUI-Bold-6f" x="2091.699219"/>
   </g>
  </g>
 </g>
 <defs>
  <clipPath id="pfe57bdc5d2">
   <rect x="7.2" y="29.464542" width="1001.99952" height="318.867489"/>
  </clipPath>
  <clipPath id="p394a9c75c6">
   <rect x="7.2" y="402.332031" width="1001.99952" height="318.867489"/>
  </clipPath>
 </defs>
</svg>
