<?xml version="1.0" encoding="utf-8" standalone="no"?>
<!DOCTYPE svg PUBLIC "-//W3C//DTD SVG 1.1//EN"
  "http://www.w3.org/Graphics/SVG/1.1/DTD/svg11.dtd">
<svg xmlns:xlink="http://www.w3.org/1999/xlink" width="1016.39952pt" height="584.39952pt" viewBox="0 0 1016.39952 584.39952" xmlns="http://www.w3.org/2000/svg" version="1.1">
 <metadata>
  <rdf:RDF xmlns:dc="http://purl.org/dc/elements/1.1/" xmlns:cc="http://creativecommons.org/ns#" xmlns:rdf="http://www.w3.org/1999/02/22-rdf-syntax-ns#">
   <cc:Work>
    <dc:type rdf:resource="http://purl.org/dc/dcmitype/StillImage"/>
    <dc:date>2026-04-11T16:11:46.831746</dc:date>
    <dc:format>image/svg+xml</dc:format>
    <dc:creator>
     <cc:Agent>
      <dc:title>Matplotlib v3.8.4, https://matplotlib.org/</dc:title>
     </cc:Agent>
    </dc:creator>
   </cc:Work>
  </rdf:RDF>
 </metadata>
 <defs>
  <style type="text/css">*{stroke-linejoin: round; stroke-linecap: butt}</style>
 </defs>
 <g id="figure_1">
  <g id="patch_1">
   <path d="M 0 584.39952 
L 1016.39952 584.39952 
L 1016.39952 0 
L 0 0 
z
" style="fill: #ffffff"/>
  </g>
  <g id="axes_1">
   <g id="patch_2">
    <path d="M 68.397788 437.535481 
L 461.812137 437.535481 
L 182.050822 175.259248 
z
" clip-path="url(#p9daf901480)" style="fill: #eff6ff; stroke: #39c5bb; stroke-width: 2.5; stroke-linejoin: miter"/>
   </g>
   <g id="line2d_1">
    <path d="M 182.050822 175.259248 
L 182.050822 437.535481 
" clip-path="url(#p9daf901480)" style="fill: none; stroke-dasharray: 7.4,3.2; stroke-dashoffset: 0; stroke: #9ca3af; stroke-width: 2"/>
   </g>
   <g id="line2d_2">
    <path d="M 195.164633 437.535481 
L 195.164633 424.421669 
L 182.050822 424.421669 
" clip-path="url(#p9daf901480)" style="fill: none; stroke: #6b7280; stroke-linecap: square"/>
   </g>
   <g id="line2d_3">
    <path d="M 461.812137 437.535481 
L 182.050822 175.259248 
" clip-path="url(#p9daf901480)" style="fill: none; stroke: #e12885; stroke-width: 3; stroke-linecap: square"/>
   </g>
   <g id="line2d_4">
    <path d="M 68.397788 437.535481 
L 182.050822 175.259248 
" clip-path="url(#p9daf901480)" style="fill: none; stroke: #4b5563; stroke-width: 3; stroke-linecap: square"/>
   </g>
   <g id="line2d_5">
    <path d="M 68.397788 437.535481 
L 461.812137 437.535481 
" clip-path="url(#p9daf901480)" style="fill: none; stroke: #f59e0b; stroke-width: 3; stroke-linecap: square"/>
   </g>
   <g id="line2d_6">
    <path d="M 68.397788 437.535481 
L 182.050822 437.535481 
" clip-path="url(#p9daf901480)" style="fill: none; stroke: #ec4899; stroke-width: 2.5; stroke-linecap: square"/>
   </g>
   <g id="line2d_7">
    <path d="M 182.050822 437.535481 
L 461.812137 437.535481 
" clip-path="url(#p9daf901480)" style="fill: none; stroke: #8b5cf6; stroke-width: 2.5; stroke-linecap: square"/>
   </g>
   <g id="line2d_8">
    <path d="M 112.110493 437.535481 
L 112.075414 435.784594 
L 111.970232 434.036518 
L 111.795116 432.294058 
L 111.550348 430.56001 
L 111.236319 428.837158 
L 110.853535 427.128267 
L 110.40261 425.436079 
L 109.884267 423.76331 
L 109.299338 422.112646 
L 108.648762 420.486736 
L 107.933583 418.888189 
L 107.15495 417.319571 
L 106.314111 415.783399 
L 105.412416 414.282139 
L 104.451313 412.818201 
L 103.432345 411.393934 
L 102.357145 410.011625 
L 101.227441 408.673491 
L 100.045046 407.38168 
L 98.811856 406.138267 
L 97.529853 404.945246 
L 96.201092 403.804532 
L 94.827707 402.717956 
L 93.411901 401.687263 
L 91.955949 400.714106 
L 90.462185 399.800047 
L 88.933008 398.946553 
L 87.370872 398.154995 
L 85.778284 397.426642 
" clip-path="url(#p9daf901480)" style="fill: none; stroke: #f59e0b; stroke-width: 2; stroke-linecap: square"/>
   </g>
   <g id="text_1">
    <!-- h -->
    <g style="fill: #6b7280" transform="translate(190.793363 306.397364) scale(0.11 -0.11)">
     <defs>
      <path id="SegoeUI-Italic-68" d="M 3238 2394 
Q 3238 2353 3227 2270 
Q 3216 2188 3202 2094 
Q 3188 2000 3170 1908 
Q 3153 1816 3138 1753 
L 2766 0 
L 2247 0 
L 2638 1875 
Q 2650 1925 2662 1990 
Q 2675 2056 2684 2122 
Q 2694 2188 2700 2242 
Q 2706 2297 2706 2328 
Q 2706 2572 2595 2706 
Q 2484 2841 2253 2841 
Q 2053 2841 1853 2723 
Q 1653 2606 1481 2420 
Q 1309 2234 1182 2004 
Q 1056 1775 1006 1550 
L 672 0 
L 153 0 
L 1166 4738 
L 1678 4738 
L 1191 2450 
L 1203 2450 
Q 1319 2628 1456 2779 
Q 1594 2931 1748 3042 
Q 1903 3153 2073 3215 
Q 2244 3278 2425 3278 
Q 2825 3278 3031 3042 
Q 3238 2806 3238 2394 
z
" transform="scale(0.015625)"/>
     </defs>
     <use xlink:href="#SegoeUI-Italic-68"/>
    </g>
   </g>
   <g id="text_2">
    <!-- x -->
    <g style="fill: #ec4899" transform="translate(122.187273 459.391833) scale(0.11 -0.11)">
     <defs>
      <path id="SegoeUI-Bold-78" d="M 3506 3200 
L 2450 1650 
L 3500 0 
L 2363 0 
L 1900 863 
Q 1844 966 1766 1153 
L 1753 1153 
Q 1706 1022 1625 872 
L 1159 0 
L 25 0 
L 1106 1594 
L 91 3200 
L 1234 3200 
L 1691 2303 
Q 1781 2125 1819 2003 
L 1831 2003 
Q 1881 2150 1966 2309 
L 2431 3200 
L 3506 3200 
z
" transform="scale(0.015625)"/>
     </defs>
     <use xlink:href="#SegoeUI-Bold-78"/>
    </g>
   </g>
   <g id="text_3">
    <!-- c - x -->
    <g style="fill: #8b5cf6" transform="translate(310.995073 459.391833) scale(0.11 -0.11)">
     <defs>
      <path id="SegoeUI-Bold-63" d="M 2841 116 
Q 2506 -78 1875 -78 
Q 1138 -78 681 369 
Q 225 816 225 1522 
Q 225 2338 714 2808 
Q 1203 3278 2022 3278 
Q 2588 3278 2841 3128 
L 2841 2291 
Q 2531 2522 2150 2522 
Q 1725 2522 1476 2273 
Q 1228 2025 1228 1588 
Q 1228 1163 1465 920 
Q 1703 678 2119 678 
Q 2488 678 2841 909 
L 2841 116 
z
" transform="scale(0.015625)"/>
      <path id="SegoeUI-Bold-20" transform="scale(0.015625)"/>
      <path id="SegoeUI-Bold-2d" d="M 2156 1363 
L 447 1363 
L 447 2053 
L 2156 2053 
L 2156 1363 
z
" transform="scale(0.015625)"/>
     </defs>
     <use xlink:href="#SegoeUI-Bold-63"/>
     <use xlink:href="#SegoeUI-Bold-20" x="47.998047"/>
     <use xlink:href="#SegoeUI-Bold-2d" x="75.585938"/>
     <use xlink:href="#SegoeUI-Bold-20" x="116.015625"/>
     <use xlink:href="#SegoeUI-Bold-78" x="143.603516"/>
    </g>
   </g>
   <g id="text_4">
    <!-- A -->
    <g style="fill: #39c5bb" transform="translate(42.170164 455.020563) scale(0.12 -0.12)">
     <defs>
      <path id="SegoeUI-Bold-41" d="M 4453 0 
L 3353 0 
L 3034 997 
L 1441 997 
L 1125 0 
L 31 0 
L 1663 4481 
L 2859 4481 
L 4453 0 
z
M 2803 1772 
L 2322 3278 
Q 2269 3447 2247 3681 
L 2222 3681 
Q 2206 3484 2144 3291 
L 1656 1772 
L 2803 1772 
z
" transform="scale(0.015625)"/>
     </defs>
     <use xlink:href="#SegoeUI-Bold-41"/>
    </g>
   </g>
   <g id="text_5">
    <!-- B -->
    <g style="fill: #39c5bb" transform="translate(474.925948 455.020563) scale(0.12 -0.12)">
     <defs>
      <path id="SegoeUI-Bold-42" d="M 513 0 
L 513 4481 
L 2144 4481 
Q 2894 4481 3297 4206 
Q 3700 3931 3700 3431 
Q 3700 3069 3454 2797 
Q 3209 2525 2828 2419 
L 2828 2406 
Q 3306 2347 3592 2053 
Q 3878 1759 3878 1338 
Q 3878 722 3437 361 
Q 2997 0 2234 0 
L 513 0 
z
M 1522 3738 
L 1522 2675 
L 1966 2675 
Q 2278 2675 2458 2826 
Q 2638 2978 2638 3244 
Q 2638 3738 1900 3738 
L 1522 3738 
z
M 1522 1925 
L 1522 744 
L 2069 744 
Q 2419 744 2617 906 
Q 2816 1069 2816 1350 
Q 2816 1619 2620 1772 
Q 2425 1925 2075 1925 
L 1522 1925 
z
" transform="scale(0.015625)"/>
     </defs>
     <use xlink:href="#SegoeUI-Bold-42"/>
    </g>
   </g>
   <g id="text_6">
    <!-- C -->
    <g style="fill: #39c5bb" transform="translate(182.050822 157.774166) scale(0.12 -0.12)">
     <defs>
      <path id="SegoeUI-Bold-43" d="M 3725 159 
Q 3234 -78 2444 -78 
Q 1413 -78 822 528 
Q 231 1134 231 2144 
Q 231 3219 895 3887 
Q 1559 4556 2619 4556 
Q 3275 4556 3725 4391 
L 3725 3419 
Q 3275 3688 2700 3688 
Q 2069 3688 1681 3291 
Q 1294 2894 1294 2216 
Q 1294 1566 1659 1180 
Q 2025 794 2644 794 
Q 3234 794 3725 1081 
L 3725 159 
z
" transform="scale(0.015625)"/>
     </defs>
     <use xlink:href="#SegoeUI-Bold-43"/>
    </g>
   </g>
   <g id="text_7">
    <!-- H -->
    <g style="fill: #39c5bb" transform="translate(182.050822 468.134374) scale(0.12 -0.12)">
     <defs>
      <path id="SegoeUI-Bold-48" d="M 4391 0 
L 3378 0 
L 3378 1825 
L 1522 1825 
L 1522 0 
L 513 0 
L 513 4481 
L 1522 4481 
L 1522 2694 
L 3378 2694 
L 3378 4481 
L 4391 4481 
L 4391 0 
z
" transform="scale(0.015625)"/>
     </defs>
     <use xlink:href="#SegoeUI-Bold-48"/>
    </g>
   </g>
   <g id="text_8">
    <!-- a -->
    <g style="fill: #e12885" transform="translate(339.416561 297.654823) scale(0.13 -0.13)">
     <defs>
      <path id="SegoeUI-Bold-61" d="M 3078 0 
L 2144 0 
L 2144 459 
L 2131 459 
Q 1809 -78 1178 -78 
Q 713 -78 445 186 
Q 178 450 178 891 
Q 178 1822 1281 1966 
L 2150 2081 
Q 2150 2606 1581 2606 
Q 1009 2606 494 2266 
L 494 3009 
Q 700 3116 1058 3197 
Q 1416 3278 1709 3278 
Q 3078 3278 3078 1913 
L 3078 0 
z
M 2150 1300 
L 2150 1516 
L 1569 1441 
Q 1088 1378 1088 1006 
Q 1088 838 1205 730 
Q 1322 622 1522 622 
Q 1800 622 1975 814 
Q 2150 1006 2150 1300 
z
" transform="scale(0.015625)"/>
     </defs>
     <use xlink:href="#SegoeUI-Bold-61"/>
    </g>
   </g>
   <g id="text_9">
    <!-- b -->
    <g style="fill: #4b5563" transform="translate(94.625411 306.397364) scale(0.13 -0.13)">
     <defs>
      <path id="SegoeUI-Bold-62" d="M 1416 372 
L 1403 372 
L 1403 0 
L 416 0 
L 416 4738 
L 1403 4738 
L 1403 2719 
L 1416 2719 
Q 1781 3278 2456 3278 
Q 3075 3278 3409 2853 
Q 3744 2428 3744 1691 
Q 3744 891 3353 406 
Q 2963 -78 2309 -78 
Q 1719 -78 1416 372 
z
M 1388 1722 
L 1388 1394 
Q 1388 1084 1566 881 
Q 1744 678 2022 678 
Q 2359 678 2545 939 
Q 2731 1200 2731 1678 
Q 2731 2075 2561 2298 
Q 2391 2522 2075 2522 
Q 1778 2522 1583 2300 
Q 1388 2078 1388 1722 
z
" transform="scale(0.015625)"/>
     </defs>
     <use xlink:href="#SegoeUI-Bold-62"/>
    </g>
   </g>
   <g id="text_10">
    <!-- c -->
    <g style="fill: #f59e0b" transform="translate(265.104962 420.050398) scale(0.13 -0.13)">
     <use xlink:href="#SegoeUI-Bold-63"/>
    </g>
   </g>
   <g id="text_11">
    <!-- A -->
    <g style="fill: #f59e0b" transform="translate(125.224305 415.679128) scale(0.12 -0.12)">
     <use xlink:href="#SegoeUI-Bold-41"/>
    </g>
   </g>
   <g id="text_12">
    <!-- Derivación Geométrica -->
    <g style="fill: #2c2f33" transform="translate(210.62967 99.318919) scale(0.11 -0.11)">
     <defs>
      <path id="SegoeUI-Bold-44" d="M 513 0 
L 513 4481 
L 2100 4481 
Q 4488 4481 4488 2297 
Q 4488 1250 3836 625 
Q 3184 0 2100 0 
L 513 0 
z
M 1522 3659 
L 1522 819 
L 2022 819 
Q 2678 819 3051 1212 
Q 3425 1606 3425 2284 
Q 3425 2925 3054 3292 
Q 2684 3659 2016 3659 
L 1522 3659 
z
" transform="scale(0.015625)"/>
      <path id="SegoeUI-Bold-65" d="M 3291 1319 
L 1203 1319 
Q 1253 622 2081 622 
Q 2609 622 3009 872 
L 3009 159 
Q 2566 -78 1856 -78 
Q 1081 -78 653 351 
Q 225 781 225 1550 
Q 225 2347 687 2812 
Q 1150 3278 1825 3278 
Q 2525 3278 2908 2862 
Q 3291 2447 3291 1734 
L 3291 1319 
z
M 2375 1925 
Q 2375 2613 1819 2613 
Q 1581 2613 1407 2416 
Q 1234 2219 1197 1925 
L 2375 1925 
z
" transform="scale(0.015625)"/>
      <path id="SegoeUI-Bold-72" d="M 2503 2309 
Q 2325 2406 2088 2406 
Q 1766 2406 1584 2170 
Q 1403 1934 1403 1528 
L 1403 0 
L 416 0 
L 416 3200 
L 1403 3200 
L 1403 2606 
L 1416 2606 
Q 1650 3256 2259 3256 
Q 2416 3256 2503 3219 
L 2503 2309 
z
" transform="scale(0.015625)"/>
      <path id="SegoeUI-Bold-69" d="M 916 3706 
Q 666 3706 506 3854 
Q 347 4003 347 4219 
Q 347 4441 506 4581 
Q 666 4722 916 4722 
Q 1169 4722 1326 4581 
Q 1484 4441 1484 4219 
Q 1484 3994 1326 3850 
Q 1169 3706 916 3706 
z
M 1403 0 
L 416 0 
L 416 3200 
L 1403 3200 
L 1403 0 
z
" transform="scale(0.015625)"/>
      <path id="SegoeUI-Bold-76" d="M 3463 3200 
L 2272 0 
L 1147 0 
L 13 3200 
L 1069 3200 
L 1625 1228 
Q 1719 894 1734 659 
L 1747 659 
Q 1769 881 1863 1209 
L 2431 3200 
L 3463 3200 
z
" transform="scale(0.015625)"/>
      <path id="SegoeUI-Bold-f3" d="M 1941 -78 
Q 1141 -78 683 370 
Q 225 819 225 1588 
Q 225 2381 700 2829 
Q 1175 3278 1984 3278 
Q 2781 3278 3234 2829 
Q 3688 2381 3688 1644 
Q 3688 847 3220 384 
Q 2753 -78 1941 -78 
z
M 1966 2522 
Q 1616 2522 1422 2281 
Q 1228 2041 1228 1600 
Q 1228 678 1972 678 
Q 2681 678 2681 1625 
Q 2681 2522 1966 2522 
z
M 3023 4716 
L 2044 3706 
L 1332 3706 
L 2144 4716 
L 3023 4716 
z
" transform="scale(0.015625)"/>
      <path id="SegoeUI-Bold-6e" d="M 3506 0 
L 2522 0 
L 2522 1778 
Q 2522 2522 1991 2522 
Q 1734 2522 1568 2325 
Q 1403 2128 1403 1825 
L 1403 0 
L 416 0 
L 416 3200 
L 1403 3200 
L 1403 2694 
L 1416 2694 
Q 1769 3278 2444 3278 
Q 3506 3278 3506 1959 
L 3506 0 
z
" transform="scale(0.015625)"/>
      <path id="SegoeUI-Bold-47" d="M 4191 300 
Q 3534 -78 2559 -78 
Q 1478 -78 854 520 
Q 231 1119 231 2169 
Q 231 3225 912 3890 
Q 1594 4556 2725 4556 
Q 3438 4556 3981 4359 
L 3981 3413 
Q 3463 3713 2713 3713 
Q 2084 3713 1689 3305 
Q 1294 2897 1294 2216 
Q 1294 1525 1648 1147 
Q 2003 769 2606 769 
Q 2969 769 3181 872 
L 3181 1747 
L 2284 1747 
L 2284 2553 
L 4191 2553 
L 4191 300 
z
" transform="scale(0.015625)"/>
      <path id="SegoeUI-Bold-6f" d="M 1941 -78 
Q 1141 -78 683 370 
Q 225 819 225 1588 
Q 225 2381 700 2829 
Q 1175 3278 1984 3278 
Q 2781 3278 3234 2829 
Q 3688 2381 3688 1644 
Q 3688 847 3220 384 
Q 2753 -78 1941 -78 
z
M 1966 2522 
Q 1616 2522 1422 2281 
Q 1228 2041 1228 1600 
Q 1228 678 1972 678 
Q 2681 678 2681 1625 
Q 2681 2522 1966 2522 
z
" transform="scale(0.015625)"/>
      <path id="SegoeUI-Bold-6d" d="M 5497 0 
L 4513 0 
L 4513 1825 
Q 4513 2522 4000 2522 
Q 3756 2522 3603 2312 
Q 3450 2103 3450 1791 
L 3450 0 
L 2463 0 
L 2463 1844 
Q 2463 2522 1959 2522 
Q 1706 2522 1554 2322 
Q 1403 2122 1403 1778 
L 1403 0 
L 416 0 
L 416 3200 
L 1403 3200 
L 1403 2700 
L 1416 2700 
Q 1569 2956 1845 3117 
Q 2122 3278 2450 3278 
Q 3128 3278 3378 2681 
Q 3744 3278 4453 3278 
Q 5497 3278 5497 1991 
L 5497 0 
z
" transform="scale(0.015625)"/>
      <path id="SegoeUI-Bold-e9" d="M 3291 1319 
L 1203 1319 
Q 1253 622 2081 622 
Q 2609 622 3009 872 
L 3009 159 
Q 2566 -78 1856 -78 
Q 1081 -78 653 351 
Q 225 781 225 1550 
Q 225 2347 687 2812 
Q 1150 3278 1825 3278 
Q 2525 3278 2908 2862 
Q 3291 2447 3291 1734 
L 3291 1319 
z
M 2375 1925 
Q 2375 2613 1819 2613 
Q 1581 2613 1407 2416 
Q 1234 2219 1197 1925 
L 2375 1925 
z
M 2879 4716 
L 1900 3706 
L 1188 3706 
L 2000 4716 
L 2879 4716 
z
" transform="scale(0.015625)"/>
      <path id="SegoeUI-Bold-74" d="M 2350 38 
Q 2131 -78 1691 -78 
Q 647 -78 647 1006 
L 647 2472 
L 128 2472 
L 128 3200 
L 647 3200 
L 647 3891 
L 1631 4172 
L 1631 3200 
L 2350 3200 
L 2350 2472 
L 1631 2472 
L 1631 1178 
Q 1631 678 2028 678 
Q 2184 678 2350 769 
L 2350 38 
z
" transform="scale(0.015625)"/>
     </defs>
     <use xlink:href="#SegoeUI-Bold-44"/>
     <use xlink:href="#SegoeUI-Bold-65" x="73.730469"/>
     <use xlink:href="#SegoeUI-Bold-72" x="127.832031"/>
     <use xlink:href="#SegoeUI-Bold-69" x="168.001953"/>
     <use xlink:href="#SegoeUI-Bold-76" x="196.419922"/>
     <use xlink:href="#SegoeUI-Bold-61" x="249.119141"/>
     <use xlink:href="#SegoeUI-Bold-63" x="302.927734"/>
     <use xlink:href="#SegoeUI-Bold-69" x="350.925781"/>
     <use xlink:href="#SegoeUI-Bold-f3" x="379.34375"/>
     <use xlink:href="#SegoeUI-Bold-6e" x="440.427734"/>
     <use xlink:href="#SegoeUI-Bold-20" x="500.925781"/>
     <use xlink:href="#SegoeUI-Bold-47" x="528.513672"/>
     <use xlink:href="#SegoeUI-Bold-65" x="599.607422"/>
     <use xlink:href="#SegoeUI-Bold-6f" x="653.708984"/>
     <use xlink:href="#SegoeUI-Bold-6d" x="714.841797"/>
     <use xlink:href="#SegoeUI-Bold-e9" x="806.443359"/>
     <use xlink:href="#SegoeUI-Bold-74" x="860.544922"/>
     <use xlink:href="#SegoeUI-Bold-72" x="899.460938"/>
     <use xlink:href="#SegoeUI-Bold-69" x="939.630859"/>
     <use xlink:href="#SegoeUI-Bold-63" x="968.048828"/>
     <use xlink:href="#SegoeUI-Bold-61" x="1016.046875"/>
    </g>
   </g>
   <g id="line2d_9">
    <defs>
     <path id="m80cf237457" d="M 0 4 
C 1.060812 4 2.078319 3.578535 2.828427 2.828427 
C 3.578535 2.078319 4 1.060812 4 0 
C 4 -1.060812 3.578535 -2.078319 2.828427 -2.828427 
C 2.078319 -3.578535 1.060812 -4 0 -4 
C -1.060812 -4 -2.078319 -3.578535 -2.828427 -2.828427 
C -3.578535 -2.078319 -4 -1.060812 -4 0 
C -4 1.060812 -3.578535 2.078319 -2.828427 2.828427 
C -2.078319 3.578535 -1.060812 4 0 4 
z
" style="stroke: #39c5bb"/>
    </defs>
    <g clip-path="url(#p9daf901480)">
     <use xlink:href="#m80cf237457" x="68.397788" y="437.535481" style="fill: #39c5bb; stroke: #39c5bb"/>
    </g>
   </g>
   <g id="line2d_10">
    <g clip-path="url(#p9daf901480)">
     <use xlink:href="#m80cf237457" x="461.812137" y="437.535481" style="fill: #39c5bb; stroke: #39c5bb"/>
    </g>
   </g>
   <g id="line2d_11">
    <g clip-path="url(#p9daf901480)">
     <use xlink:href="#m80cf237457" x="182.050822" y="175.259248" style="fill: #39c5bb; stroke: #39c5bb"/>
    </g>
   </g>
   <g id="line2d_12">
    <g clip-path="url(#p9daf901480)">
     <use xlink:href="#m80cf237457" x="182.050822" y="437.535481" style="fill: #39c5bb; stroke: #39c5bb"/>
    </g>
   </g>
  </g>
  <g id="axes_2">
   <g id="patch_3">
    <path d="M 585.186277 180.949786 
L 996.085708 180.949786 
L 996.085708 48.866542 
L 585.186277 48.866542 
z
" clip-path="url(#p177d62d125)" style="fill: #fef3c7; stroke: #f59e0b; stroke-width: 2; stroke-linejoin: miter"/>
   </g>
   <g id="patch_4">
    <path d="M 585.186277 346.053842 
L 996.085708 346.053842 
L 996.085708 202.96366 
L 585.186277 202.96366 
z
" clip-path="url(#p177d62d125)" style="fill: #eff6ff; stroke: #39c5bb; stroke-width: 1.5; stroke-linejoin: miter"/>
   </g>
   <g id="patch_5">
    <path d="M 585.186277 483.640555 
L 996.085708 483.640555 
L 996.085708 362.564248 
L 585.186277 362.564248 
z
" clip-path="url(#p177d62d125)" style="fill: #f0fdf4; stroke: #1f2937; stroke-width: 1.5; stroke-linejoin: miter"/>
   </g>
   <g id="text_13">
    <!-- LEY DE COSENOS -->
    <g style="fill: #f59e0b" transform="translate(742.376305 81.887353) scale(0.12 -0.12)">
     <defs>
      <path id="SegoeUI-Bold-4c" d="M 3181 0 
L 513 0 
L 513 4481 
L 1522 4481 
L 1522 819 
L 3181 819 
L 3181 0 
z
" transform="scale(0.015625)"/>
      <path id="SegoeUI-Bold-45" d="M 3200 0 
L 513 0 
L 513 4481 
L 3097 4481 
L 3097 3659 
L 1522 3659 
L 1522 2663 
L 2988 2663 
L 2988 1844 
L 1522 1844 
L 1522 819 
L 3200 819 
L 3200 0 
z
" transform="scale(0.015625)"/>
      <path id="SegoeUI-Bold-59" d="M 3891 4481 
L 2431 1594 
L 2431 0 
L 1422 0 
L 1422 1575 
L 0 4481 
L 1153 4481 
L 1875 2809 
Q 1894 2763 1978 2444 
L 1991 2444 
Q 2031 2669 2088 2797 
L 2822 4481 
L 3891 4481 
z
" transform="scale(0.015625)"/>
      <path id="SegoeUI-Bold-4f" d="M 2406 -78 
Q 1444 -78 837 548 
Q 231 1175 231 2181 
Q 231 3244 847 3900 
Q 1463 4556 2478 4556 
Q 3438 4556 4030 3928 
Q 4622 3300 4622 2272 
Q 4622 1216 4008 569 
Q 3394 -78 2406 -78 
z
M 2450 3688 
Q 1919 3688 1606 3289 
Q 1294 2891 1294 2234 
Q 1294 1569 1606 1181 
Q 1919 794 2425 794 
Q 2947 794 3253 1170 
Q 3559 1547 3559 2216 
Q 3559 2913 3262 3300 
Q 2966 3688 2450 3688 
z
" transform="scale(0.015625)"/>
      <path id="SegoeUI-Bold-53" d="M 306 172 
L 306 1172 
Q 578 944 897 830 
Q 1216 716 1541 716 
Q 1731 716 1873 750 
Q 2016 784 2111 845 
Q 2206 906 2253 989 
Q 2300 1072 2300 1169 
Q 2300 1300 2225 1403 
Q 2150 1506 2020 1593 
Q 1891 1681 1712 1762 
Q 1534 1844 1328 1928 
Q 803 2147 545 2462 
Q 288 2778 288 3225 
Q 288 3575 428 3826 
Q 569 4078 811 4240 
Q 1053 4403 1372 4479 
Q 1691 4556 2047 4556 
Q 2397 4556 2667 4514 
Q 2938 4472 3166 4384 
L 3166 3450 
Q 3053 3528 2920 3587 
Q 2788 3647 2647 3686 
Q 2506 3725 2367 3744 
Q 2228 3763 2103 3763 
Q 1931 3763 1790 3730 
Q 1650 3697 1553 3637 
Q 1456 3578 1403 3495 
Q 1350 3413 1350 3309 
Q 1350 3197 1409 3108 
Q 1469 3019 1578 2939 
Q 1688 2859 1844 2782 
Q 2000 2706 2197 2625 
Q 2466 2513 2680 2386 
Q 2894 2259 3047 2100 
Q 3200 1941 3281 1736 
Q 3363 1531 3363 1259 
Q 3363 884 3220 629 
Q 3078 375 2834 217 
Q 2591 59 2267 -9 
Q 1944 -78 1584 -78 
Q 1216 -78 883 -15 
Q 550 47 306 172 
z
" transform="scale(0.015625)"/>
      <path id="SegoeUI-Bold-4e" d="M 4544 0 
L 3525 0 
L 1678 2816 
Q 1516 3063 1453 3188 
L 1441 3188 
Q 1466 2950 1466 2463 
L 1466 0 
L 513 0 
L 513 4481 
L 1600 4481 
L 3378 1753 
Q 3500 1569 3603 1388 
L 3616 1388 
Q 3591 1544 3591 2003 
L 3591 4481 
L 4544 4481 
L 4544 0 
z
" transform="scale(0.015625)"/>
     </defs>
     <use xlink:href="#SegoeUI-Bold-4c"/>
     <use xlink:href="#SegoeUI-Bold-45" x="51.123047"/>
     <use xlink:href="#SegoeUI-Bold-59" x="104.345703"/>
     <use xlink:href="#SegoeUI-Bold-20" x="165.039062"/>
     <use xlink:href="#SegoeUI-Bold-44" x="192.626953"/>
     <use xlink:href="#SegoeUI-Bold-45" x="266.357422"/>
     <use xlink:href="#SegoeUI-Bold-20" x="319.580078"/>
     <use xlink:href="#SegoeUI-Bold-43" x="347.167969"/>
     <use xlink:href="#SegoeUI-Bold-4f" x="408.320312"/>
     <use xlink:href="#SegoeUI-Bold-53" x="484.150391"/>
     <use xlink:href="#SegoeUI-Bold-45" x="540.205078"/>
     <use xlink:href="#SegoeUI-Bold-4e" x="593.427734"/>
     <use xlink:href="#SegoeUI-Bold-4f" x="672.431641"/>
     <use xlink:href="#SegoeUI-Bold-53" x="748.261719"/>
    </g>
   </g>
   <g id="text_14">
    <!-- $a^2 = b^2 + c^2 - 2bc\cos A$ -->
    <g style="fill: #2c2f33" transform="translate(710.695993 147.928975) scale(0.14 -0.14)">
     <defs>
      <path id="DejaVuSans-Oblique-61" d="M 3438 1997 
L 3047 0 
L 2472 0 
L 2578 531 
Q 2325 219 2001 64 
Q 1678 -91 1281 -91 
Q 834 -91 548 182 
Q 263 456 263 884 
Q 263 1497 752 1853 
Q 1241 2209 2100 2209 
L 2900 2209 
L 2931 2363 
Q 2938 2388 2941 2417 
Q 2944 2447 2944 2509 
Q 2944 2788 2717 2942 
Q 2491 3097 2081 3097 
Q 1800 3097 1504 3025 
Q 1209 2953 897 2809 
L 997 3341 
Q 1322 3463 1633 3523 
Q 1944 3584 2234 3584 
Q 2853 3584 3176 3315 
Q 3500 3047 3500 2534 
Q 3500 2431 3484 2292 
Q 3469 2153 3438 1997 
z
M 2816 1759 
L 2241 1759 
Q 1534 1759 1195 1570 
Q 856 1381 856 984 
Q 856 709 1029 553 
Q 1203 397 1509 397 
Q 1978 397 2328 733 
Q 2678 1069 2791 1631 
L 2816 1759 
z
" transform="scale(0.015625)"/>
      <path id="DejaVuSans-32" d="M 1228 531 
L 3431 531 
L 3431 0 
L 469 0 
L 469 531 
Q 828 903 1448 1529 
Q 2069 2156 2228 2338 
Q 2531 2678 2651 2914 
Q 2772 3150 2772 3378 
Q 2772 3750 2511 3984 
Q 2250 4219 1831 4219 
Q 1534 4219 1204 4116 
Q 875 4013 500 3803 
L 500 4441 
Q 881 4594 1212 4672 
Q 1544 4750 1819 4750 
Q 2544 4750 2975 4387 
Q 3406 4025 3406 3419 
Q 3406 3131 3298 2873 
Q 3191 2616 2906 2266 
Q 2828 2175 2409 1742 
Q 1991 1309 1228 531 
z
" transform="scale(0.015625)"/>
      <path id="DejaVuSans-3d" d="M 678 2906 
L 4684 2906 
L 4684 2381 
L 678 2381 
L 678 2906 
z
M 678 1631 
L 4684 1631 
L 4684 1100 
L 678 1100 
L 678 1631 
z
" transform="scale(0.015625)"/>
      <path id="DejaVuSans-Oblique-62" d="M 3169 2138 
Q 3169 2591 2961 2847 
Q 2753 3103 2388 3103 
Q 2122 3103 1889 2973 
Q 1656 2844 1484 2597 
Q 1303 2338 1198 1995 
Q 1094 1653 1094 1313 
Q 1094 881 1298 636 
Q 1503 391 1863 391 
Q 2134 391 2365 517 
Q 2597 644 2772 891 
Q 2950 1147 3059 1487 
Q 3169 1828 3169 2138 
z
M 1381 2969 
Q 1594 3256 1914 3420 
Q 2234 3584 2584 3584 
Q 3122 3584 3439 3221 
Q 3756 2859 3756 2241 
Q 3756 1734 3570 1259 
Q 3384 784 3041 416 
Q 2816 172 2522 40 
Q 2228 -91 1906 -91 
Q 1566 -91 1316 65 
Q 1066 222 909 531 
L 806 0 
L 231 0 
L 1178 4863 
L 1753 4863 
L 1381 2969 
z
" transform="scale(0.015625)"/>
      <path id="DejaVuSans-2b" d="M 2944 4013 
L 2944 2272 
L 4684 2272 
L 4684 1741 
L 2944 1741 
L 2944 0 
L 2419 0 
L 2419 1741 
L 678 1741 
L 678 2272 
L 2419 2272 
L 2419 4013 
L 2944 4013 
z
" transform="scale(0.015625)"/>
      <path id="DejaVuSans-Oblique-63" d="M 3431 3366 
L 3316 2797 
Q 3109 2947 2876 3022 
Q 2644 3097 2394 3097 
Q 2119 3097 1870 3000 
Q 1622 2903 1453 2725 
Q 1184 2453 1037 2087 
Q 891 1722 891 1331 
Q 891 859 1127 628 
Q 1363 397 1844 397 
Q 2081 397 2348 469 
Q 2616 541 2906 684 
L 2797 116 
Q 2547 13 2283 -39 
Q 2019 -91 1741 -91 
Q 1044 -91 669 257 
Q 294 606 294 1253 
Q 294 1797 489 2255 
Q 684 2713 1069 3078 
Q 1331 3328 1684 3456 
Q 2038 3584 2456 3584 
Q 2700 3584 2940 3529 
Q 3181 3475 3431 3366 
z
" transform="scale(0.015625)"/>
      <path id="DejaVuSans-2212" d="M 678 2272 
L 4684 2272 
L 4684 1741 
L 678 1741 
L 678 2272 
z
" transform="scale(0.015625)"/>
      <path id="DejaVuSans-63" d="M 3122 3366 
L 3122 2828 
Q 2878 2963 2633 3030 
Q 2388 3097 2138 3097 
Q 1578 3097 1268 2742 
Q 959 2388 959 1747 
Q 959 1106 1268 751 
Q 1578 397 2138 397 
Q 2388 397 2633 464 
Q 2878 531 3122 666 
L 3122 134 
Q 2881 22 2623 -34 
Q 2366 -91 2075 -91 
Q 1284 -91 818 406 
Q 353 903 353 1747 
Q 353 2603 823 3093 
Q 1294 3584 2113 3584 
Q 2378 3584 2631 3529 
Q 2884 3475 3122 3366 
z
" transform="scale(0.015625)"/>
      <path id="DejaVuSans-6f" d="M 1959 3097 
Q 1497 3097 1228 2736 
Q 959 2375 959 1747 
Q 959 1119 1226 758 
Q 1494 397 1959 397 
Q 2419 397 2687 759 
Q 2956 1122 2956 1747 
Q 2956 2369 2687 2733 
Q 2419 3097 1959 3097 
z
M 1959 3584 
Q 2709 3584 3137 3096 
Q 3566 2609 3566 1747 
Q 3566 888 3137 398 
Q 2709 -91 1959 -91 
Q 1206 -91 779 398 
Q 353 888 353 1747 
Q 353 2609 779 3096 
Q 1206 3584 1959 3584 
z
" transform="scale(0.015625)"/>
      <path id="DejaVuSans-73" d="M 2834 3397 
L 2834 2853 
Q 2591 2978 2328 3040 
Q 2066 3103 1784 3103 
Q 1356 3103 1142 2972 
Q 928 2841 928 2578 
Q 928 2378 1081 2264 
Q 1234 2150 1697 2047 
L 1894 2003 
Q 2506 1872 2764 1633 
Q 3022 1394 3022 966 
Q 3022 478 2636 193 
Q 2250 -91 1575 -91 
Q 1294 -91 989 -36 
Q 684 19 347 128 
L 347 722 
Q 666 556 975 473 
Q 1284 391 1588 391 
Q 1994 391 2212 530 
Q 2431 669 2431 922 
Q 2431 1156 2273 1281 
Q 2116 1406 1581 1522 
L 1381 1569 
Q 847 1681 609 1914 
Q 372 2147 372 2553 
Q 372 3047 722 3315 
Q 1072 3584 1716 3584 
Q 2034 3584 2315 3537 
Q 2597 3491 2834 3397 
z
" transform="scale(0.015625)"/>
      <path id="DejaVuSans-Oblique-41" d="M 2356 4666 
L 3072 4666 
L 3938 0 
L 3278 0 
L 3084 1197 
L 984 1197 
L 325 0 
L -341 0 
L 2356 4666 
z
M 2584 4044 
L 1275 1722 
L 2988 1722 
L 2584 4044 
z
" transform="scale(0.015625)"/>
     </defs>
     <use xlink:href="#DejaVuSans-Oblique-61" transform="translate(0 0.765625)"/>
     <use xlink:href="#DejaVuSans-32" transform="translate(65.929193 39.046875) scale(0.7)"/>
     <use xlink:href="#DejaVuSans-3d" transform="translate(132.682122 0.765625)"/>
     <use xlink:href="#DejaVuSans-Oblique-62" transform="translate(235.953607 0.765625)"/>
     <use xlink:href="#DejaVuSans-32" transform="translate(306.877878 39.046875) scale(0.7)"/>
     <use xlink:href="#DejaVuSans-2b" transform="translate(373.630807 0.765625)"/>
     <use xlink:href="#DejaVuSans-Oblique-63" transform="translate(476.902292 0.765625)"/>
     <use xlink:href="#DejaVuSans-32" transform="translate(536.532656 39.046875) scale(0.7)"/>
     <use xlink:href="#DejaVuSans-2212" transform="translate(603.285586 0.765625)"/>
     <use xlink:href="#DejaVuSans-32" transform="translate(706.55707 0.765625)"/>
     <use xlink:href="#DejaVuSans-Oblique-62" transform="translate(770.180117 0.765625)"/>
     <use xlink:href="#DejaVuSans-Oblique-63" transform="translate(833.65668 0.765625)"/>
     <use xlink:href="#DejaVuSans-63" transform="translate(888.637148 0.765625)"/>
     <use xlink:href="#DejaVuSans-6f" transform="translate(943.617617 0.765625)"/>
     <use xlink:href="#DejaVuSans-73" transform="translate(1004.799258 0.765625)"/>
     <use xlink:href="#DejaVuSans-Oblique-41" transform="translate(1073.134543 0.765625)"/>
    </g>
   </g>
   <g id="text_15">
    <!-- Tres Formas Equivalentes -->
    <g style="fill: #39c5bb" transform="translate(731.801618 230.481003) scale(0.1 -0.1)">
     <defs>
      <path id="SegoeUI-Bold-54" d="M 3659 3659 
L 2381 3659 
L 2381 0 
L 1369 0 
L 1369 3659 
L 97 3659 
L 97 4481 
L 3659 4481 
L 3659 3659 
z
" transform="scale(0.015625)"/>
      <path id="SegoeUI-Bold-73" d="M 206 84 
L 206 884 
Q 450 738 692 666 
Q 934 594 1150 594 
Q 1413 594 1564 666 
Q 1716 738 1716 884 
Q 1716 978 1647 1040 
Q 1578 1103 1470 1150 
Q 1363 1197 1234 1234 
Q 1106 1272 988 1319 
Q 797 1391 651 1473 
Q 506 1556 407 1665 
Q 309 1775 257 1919 
Q 206 2063 206 2259 
Q 206 2528 323 2722 
Q 441 2916 636 3039 
Q 831 3163 1082 3220 
Q 1334 3278 1606 3278 
Q 1819 3278 2037 3245 
Q 2256 3213 2469 3150 
L 2469 2388 
Q 2281 2497 2067 2551 
Q 1853 2606 1647 2606 
Q 1550 2606 1464 2589 
Q 1378 2572 1312 2539 
Q 1247 2506 1209 2454 
Q 1172 2403 1172 2338 
Q 1172 2250 1228 2187 
Q 1284 2125 1375 2079 
Q 1466 2034 1577 1998 
Q 1688 1963 1797 1925 
Q 1994 1856 2153 1775 
Q 2313 1694 2427 1584 
Q 2541 1475 2602 1328 
Q 2663 1181 2663 978 
Q 2663 694 2539 492 
Q 2416 291 2211 164 
Q 2006 38 1739 -20 
Q 1472 -78 1184 -78 
Q 656 -78 206 84 
z
" transform="scale(0.015625)"/>
      <path id="SegoeUI-Bold-46" d="M 3103 3659 
L 1522 3659 
L 1522 2559 
L 2975 2559 
L 2975 1741 
L 1522 1741 
L 1522 0 
L 513 0 
L 513 4481 
L 3103 4481 
L 3103 3659 
z
" transform="scale(0.015625)"/>
      <path id="SegoeUI-Bold-71" d="M 3547 -1472 
L 2559 -1472 
L 2559 441 
L 2547 441 
Q 2213 -78 1563 -78 
Q 959 -78 592 342 
Q 225 763 225 1522 
Q 225 2322 628 2800 
Q 1031 3278 1678 3278 
Q 2266 3278 2547 2828 
L 2559 2828 
L 2559 3200 
L 3547 3200 
L 3547 -1472 
z
M 2578 1528 
L 2578 1784 
Q 2578 2097 2397 2309 
Q 2216 2522 1931 2522 
Q 1603 2522 1415 2264 
Q 1228 2006 1228 1550 
Q 1228 1141 1411 909 
Q 1594 678 1888 678 
Q 2200 678 2389 912 
Q 2578 1147 2578 1528 
z
" transform="scale(0.015625)"/>
      <path id="SegoeUI-Bold-75" d="M 3456 0 
L 2472 0 
L 2472 488 
L 2456 488 
Q 2091 -78 1478 -78 
Q 366 -78 366 1269 
L 366 3200 
L 1350 3200 
L 1350 1356 
Q 1350 678 1888 678 
Q 2153 678 2312 864 
Q 2472 1050 2472 1369 
L 2472 3200 
L 3456 3200 
L 3456 0 
z
" transform="scale(0.015625)"/>
      <path id="SegoeUI-Bold-6c" d="M 1403 0 
L 416 0 
L 416 4738 
L 1403 4738 
L 1403 0 
z
" transform="scale(0.015625)"/>
     </defs>
     <use xlink:href="#SegoeUI-Bold-54"/>
     <use xlink:href="#SegoeUI-Bold-72" x="51.09375"/>
     <use xlink:href="#SegoeUI-Bold-65" x="90.513672"/>
     <use xlink:href="#SegoeUI-Bold-73" x="144.615234"/>
     <use xlink:href="#SegoeUI-Bold-20" x="188.609375"/>
     <use xlink:href="#SegoeUI-Bold-46" x="216.197266"/>
     <use xlink:href="#SegoeUI-Bold-6f" x="268.199219"/>
     <use xlink:href="#SegoeUI-Bold-72" x="329.332031"/>
     <use xlink:href="#SegoeUI-Bold-6d" x="369.376953"/>
     <use xlink:href="#SegoeUI-Bold-61" x="460.978516"/>
     <use xlink:href="#SegoeUI-Bold-73" x="514.787109"/>
     <use xlink:href="#SegoeUI-Bold-20" x="558.78125"/>
     <use xlink:href="#SegoeUI-Bold-45" x="586.369141"/>
     <use xlink:href="#SegoeUI-Bold-71" x="639.591797"/>
     <use xlink:href="#SegoeUI-Bold-75" x="701.505859"/>
     <use xlink:href="#SegoeUI-Bold-69" x="762.003906"/>
     <use xlink:href="#SegoeUI-Bold-76" x="790.421875"/>
     <use xlink:href="#SegoeUI-Bold-61" x="843.121094"/>
     <use xlink:href="#SegoeUI-Bold-6c" x="896.929688"/>
     <use xlink:href="#SegoeUI-Bold-65" x="925.347656"/>
     <use xlink:href="#SegoeUI-Bold-6e" x="979.449219"/>
     <use xlink:href="#SegoeUI-Bold-74" x="1039.947266"/>
     <use xlink:href="#SegoeUI-Bold-65" x="1078.488281"/>
     <use xlink:href="#SegoeUI-Bold-73" x="1132.589844"/>
    </g>
   </g>
   <g id="text_16">
    <!-- $a^2 = b^2 + c^2 - 2bc\cos A$ -->
    <g style="fill: #e12885" transform="translate(727.825993 269.005283) scale(0.11 -0.11)">
     <use xlink:href="#DejaVuSans-Oblique-61" transform="translate(0 0.765625)"/>
     <use xlink:href="#DejaVuSans-32" transform="translate(65.929193 39.046875) scale(0.7)"/>
     <use xlink:href="#DejaVuSans-3d" transform="translate(132.682122 0.765625)"/>
     <use xlink:href="#DejaVuSans-Oblique-62" transform="translate(235.953607 0.765625)"/>
     <use xlink:href="#DejaVuSans-32" transform="translate(306.877878 39.046875) scale(0.7)"/>
     <use xlink:href="#DejaVuSans-2b" transform="translate(373.630807 0.765625)"/>
     <use xlink:href="#DejaVuSans-Oblique-63" transform="translate(476.902292 0.765625)"/>
     <use xlink:href="#DejaVuSans-32" transform="translate(536.532656 39.046875) scale(0.7)"/>
     <use xlink:href="#DejaVuSans-2212" transform="translate(603.285586 0.765625)"/>
     <use xlink:href="#DejaVuSans-32" transform="translate(706.55707 0.765625)"/>
     <use xlink:href="#DejaVuSans-Oblique-62" transform="translate(770.180117 0.765625)"/>
     <use xlink:href="#DejaVuSans-Oblique-63" transform="translate(833.65668 0.765625)"/>
     <use xlink:href="#DejaVuSans-63" transform="translate(888.637148 0.765625)"/>
     <use xlink:href="#DejaVuSans-6f" transform="translate(943.617617 0.765625)"/>
     <use xlink:href="#DejaVuSans-73" transform="translate(1004.799258 0.765625)"/>
     <use xlink:href="#DejaVuSans-Oblique-41" transform="translate(1073.134543 0.765625)"/>
    </g>
   </g>
   <g id="text_17">
    <!-- $b^2 = a^2 + c^2 - 2ac\cos B$ -->
    <g style="fill: #4b5563" transform="translate(727.935993 304.777828) scale(0.11 -0.11)">
     <defs>
      <path id="DejaVuSans-Oblique-42" d="M 1081 4666 
L 2694 4666 
Q 3350 4666 3675 4422 
Q 4000 4178 4000 3688 
Q 4000 3238 3720 2911 
Q 3441 2584 2988 2516 
Q 3375 2428 3569 2181 
Q 3763 1934 3763 1522 
Q 3763 819 3242 409 
Q 2722 0 1819 0 
L 172 0 
L 1081 4666 
z
M 1234 2228 
L 903 519 
L 1919 519 
Q 2491 519 2800 781 
Q 3109 1044 3109 1522 
Q 3109 1891 2904 2059 
Q 2700 2228 2247 2228 
L 1234 2228 
z
M 1606 4147 
L 1331 2741 
L 2272 2741 
Q 2775 2741 3058 2959 
Q 3341 3178 3341 3566 
Q 3341 3869 3150 4008 
Q 2959 4147 2541 4147 
L 1606 4147 
z
" transform="scale(0.015625)"/>
     </defs>
     <use xlink:href="#DejaVuSans-Oblique-62" transform="translate(0 0.765625)"/>
     <use xlink:href="#DejaVuSans-32" transform="translate(70.924271 39.046875) scale(0.7)"/>
     <use xlink:href="#DejaVuSans-3d" transform="translate(137.677201 0.765625)"/>
     <use xlink:href="#DejaVuSans-Oblique-61" transform="translate(240.948685 0.765625)"/>
     <use xlink:href="#DejaVuSans-32" transform="translate(306.877878 39.046875) scale(0.7)"/>
     <use xlink:href="#DejaVuSans-2b" transform="translate(373.630807 0.765625)"/>
     <use xlink:href="#DejaVuSans-Oblique-63" transform="translate(476.902292 0.765625)"/>
     <use xlink:href="#DejaVuSans-32" transform="translate(536.532656 39.046875) scale(0.7)"/>
     <use xlink:href="#DejaVuSans-2212" transform="translate(603.285586 0.765625)"/>
     <use xlink:href="#DejaVuSans-32" transform="translate(706.55707 0.765625)"/>
     <use xlink:href="#DejaVuSans-Oblique-61" transform="translate(770.180117 0.765625)"/>
     <use xlink:href="#DejaVuSans-Oblique-63" transform="translate(831.459414 0.765625)"/>
     <use xlink:href="#DejaVuSans-63" transform="translate(886.439883 0.765625)"/>
     <use xlink:href="#DejaVuSans-6f" transform="translate(941.420352 0.765625)"/>
     <use xlink:href="#DejaVuSans-73" transform="translate(1002.601992 0.765625)"/>
     <use xlink:href="#DejaVuSans-Oblique-42" transform="translate(1070.937278 0.765625)"/>
    </g>
   </g>
   <g id="text_18">
    <!-- $c^2 = a^2 + b^2 - 2ab\cos C$ -->
    <g style="fill: #f59e0b" transform="translate(727.385993 340.550373) scale(0.11 -0.11)">
     <defs>
      <path id="DejaVuSans-Oblique-43" d="M 4447 4306 
L 4319 3641 
Q 4019 3944 3683 4091 
Q 3347 4238 2956 4238 
Q 2422 4238 2017 3981 
Q 1613 3725 1319 3200 
Q 1131 2863 1032 2486 
Q 934 2109 934 1728 
Q 934 1091 1264 756 
Q 1594 422 2222 422 
Q 2656 422 3056 561 
Q 3456 700 3834 978 
L 3688 231 
Q 3316 72 2936 -9 
Q 2556 -91 2175 -91 
Q 1278 -91 773 396 
Q 269 884 269 1753 
Q 269 2309 461 2846 
Q 653 3384 1013 3828 
Q 1394 4300 1883 4525 
Q 2372 4750 3022 4750 
Q 3422 4750 3780 4639 
Q 4138 4528 4447 4306 
z
" transform="scale(0.015625)"/>
     </defs>
     <use xlink:href="#DejaVuSans-Oblique-63" transform="translate(0 0.765625)"/>
     <use xlink:href="#DejaVuSans-32" transform="translate(59.630365 39.046875) scale(0.7)"/>
     <use xlink:href="#DejaVuSans-3d" transform="translate(126.383294 0.765625)"/>
     <use xlink:href="#DejaVuSans-Oblique-61" transform="translate(229.654779 0.765625)"/>
     <use xlink:href="#DejaVuSans-32" transform="translate(295.583971 39.046875) scale(0.7)"/>
     <use xlink:href="#DejaVuSans-2b" transform="translate(362.336901 0.765625)"/>
     <use xlink:href="#DejaVuSans-Oblique-62" transform="translate(465.608385 0.765625)"/>
     <use xlink:href="#DejaVuSans-32" transform="translate(536.532656 39.046875) scale(0.7)"/>
     <use xlink:href="#DejaVuSans-2212" transform="translate(603.285586 0.765625)"/>
     <use xlink:href="#DejaVuSans-32" transform="translate(706.55707 0.765625)"/>
     <use xlink:href="#DejaVuSans-Oblique-61" transform="translate(770.180117 0.765625)"/>
     <use xlink:href="#DejaVuSans-Oblique-62" transform="translate(831.459414 0.765625)"/>
     <use xlink:href="#DejaVuSans-63" transform="translate(894.935977 0.765625)"/>
     <use xlink:href="#DejaVuSans-6f" transform="translate(949.916445 0.765625)"/>
     <use xlink:href="#DejaVuSans-73" transform="translate(1011.098086 0.765625)"/>
     <use xlink:href="#DejaVuSans-Oblique-43" transform="translate(1079.433372 0.765625)"/>
    </g>
   </g>
   <g id="text_19">
    <!-- Para Encontrar Ángulos -->
    <g style="fill: #1f2937" transform="translate(735.435211 390.08159) scale(0.1 -0.1)">
     <defs>
      <path id="SegoeUI-Bold-50" d="M 1522 1544 
L 1522 0 
L 513 0 
L 513 4481 
L 2094 4481 
Q 3788 4481 3788 3053 
Q 3788 2378 3302 1961 
Q 2816 1544 2003 1544 
L 1522 1544 
z
M 1522 3706 
L 1522 2309 
L 1919 2309 
Q 2725 2309 2725 3016 
Q 2725 3706 1919 3706 
L 1522 3706 
z
" transform="scale(0.015625)"/>
      <path id="SegoeUI-Bold-c1" d="M 4453 0 
L 3353 0 
L 3034 997 
L 1441 997 
L 1125 0 
L 31 0 
L 1663 4481 
L 2859 4481 
L 4453 0 
z
M 2803 1772 
L 2322 3278 
Q 2269 3447 2247 3681 
L 2222 3681 
Q 2206 3484 2144 3291 
L 1656 1772 
L 2803 1772 
z
M 3239 5932 
L 2260 4922 
L 1548 4922 
L 2360 5932 
L 3239 5932 
z
" transform="scale(0.015625)"/>
      <path id="SegoeUI-Bold-67" d="M 3553 366 
Q 3553 -525 3037 -1014 
Q 2522 -1503 1544 -1503 
Q 897 -1503 519 -1319 
L 519 -488 
Q 1013 -775 1516 -775 
Q 2016 -775 2291 -511 
Q 2566 -247 2566 206 
L 2566 459 
L 2553 459 
Q 2216 -78 1556 -78 
Q 944 -78 584 353 
Q 225 784 225 1509 
Q 225 2322 625 2800 
Q 1025 3278 1678 3278 
Q 2263 3278 2553 2828 
L 2566 2828 
L 2566 3200 
L 3553 3200 
L 3553 366 
z
M 2578 1538 
L 2578 1791 
Q 2578 2094 2398 2308 
Q 2219 2522 1931 2522 
Q 1603 2522 1415 2265 
Q 1228 2009 1228 1544 
Q 1228 1144 1406 911 
Q 1584 678 1894 678 
Q 2200 678 2389 914 
Q 2578 1150 2578 1538 
z
" transform="scale(0.015625)"/>
     </defs>
     <use xlink:href="#SegoeUI-Bold-50"/>
     <use xlink:href="#SegoeUI-Bold-61" x="58.925781"/>
     <use xlink:href="#SegoeUI-Bold-72" x="112.734375"/>
     <use xlink:href="#SegoeUI-Bold-61" x="152.529297"/>
     <use xlink:href="#SegoeUI-Bold-20" x="206.337891"/>
     <use xlink:href="#SegoeUI-Bold-45" x="233.925781"/>
     <use xlink:href="#SegoeUI-Bold-6e" x="287.148438"/>
     <use xlink:href="#SegoeUI-Bold-63" x="347.646484"/>
     <use xlink:href="#SegoeUI-Bold-6f" x="395.644531"/>
     <use xlink:href="#SegoeUI-Bold-6e" x="456.777344"/>
     <use xlink:href="#SegoeUI-Bold-74" x="517.275391"/>
     <use xlink:href="#SegoeUI-Bold-72" x="556.191406"/>
     <use xlink:href="#SegoeUI-Bold-61" x="595.986328"/>
     <use xlink:href="#SegoeUI-Bold-72" x="649.794922"/>
     <use xlink:href="#SegoeUI-Bold-20" x="689.589844"/>
     <use xlink:href="#SegoeUI-Bold-c1" x="717.177734"/>
     <use xlink:href="#SegoeUI-Bold-6e" x="787.490234"/>
     <use xlink:href="#SegoeUI-Bold-67" x="847.988281"/>
     <use xlink:href="#SegoeUI-Bold-75" x="909.902344"/>
     <use xlink:href="#SegoeUI-Bold-6c" x="970.400391"/>
     <use xlink:href="#SegoeUI-Bold-6f" x="998.818359"/>
     <use xlink:href="#SegoeUI-Bold-73" x="1059.951172"/>
    </g>
   </g>
   <g id="text_20">
    <!-- $\cos A = \frac{b^2 + c^2 - a^2}{2bc}$ -->
    <g style="fill: #2c2f33" transform="translate(742.815993 445.116275) scale(0.12 -0.12)">
     <use xlink:href="#DejaVuSans-63" transform="translate(0 0.04375)"/>
     <use xlink:href="#DejaVuSans-6f" transform="translate(54.980469 0.04375)"/>
     <use xlink:href="#DejaVuSans-73" transform="translate(116.162109 0.04375)"/>
     <use xlink:href="#DejaVuSans-Oblique-41" transform="translate(184.497395 0.04375)"/>
     <use xlink:href="#DejaVuSans-3d" transform="translate(272.38802 0.04375)"/>
     <use xlink:href="#DejaVuSans-Oblique-62" transform="translate(375.659504 44.835938) scale(0.7)"/>
     <use xlink:href="#DejaVuSans-32" transform="translate(425.306494 71.632812) scale(0.49)"/>
     <use xlink:href="#DejaVuSans-2b" transform="translate(472.033545 44.835938) scale(0.7)"/>
     <use xlink:href="#DejaVuSans-Oblique-63" transform="translate(544.323584 44.835938) scale(0.7)"/>
     <use xlink:href="#DejaVuSans-32" transform="translate(586.064839 71.632812) scale(0.49)"/>
     <use xlink:href="#DejaVuSans-2212" transform="translate(632.79189 44.835938) scale(0.7)"/>
     <use xlink:href="#DejaVuSans-Oblique-61" transform="translate(705.081929 44.835938) scale(0.7)"/>
     <use xlink:href="#DejaVuSans-32" transform="translate(751.232364 71.632812) scale(0.49)"/>
     <use xlink:href="#DejaVuSans-32" transform="translate(516.659504 -40.598437) scale(0.7)"/>
     <use xlink:href="#DejaVuSans-Oblique-62" transform="translate(561.195637 -40.598437) scale(0.7)"/>
     <use xlink:href="#DejaVuSans-Oblique-63" transform="translate(605.629231 -40.598437) scale(0.7)"/>
     <path d="M 375.659504 18.840625 
L 375.659504 25.090625 
L 784.321719 25.090625 
L 784.321719 18.840625 
L 375.659504 18.840625 
z
"/>
    </g>
   </g>
   <g id="text_21">
    <!-- Usar cuando se conocen: -->
    <g style="fill: #6b7280" transform="translate(738.563258 522.164835) scale(0.09 -0.09)">
     <defs>
      <path id="SegoeUI-Bold-55" d="M 4166 1941 
Q 4166 -78 2284 -78 
Q 459 -78 459 1894 
L 459 4481 
L 1472 4481 
L 1472 1881 
Q 1472 794 2322 794 
Q 3156 794 3156 1844 
L 3156 4481 
L 4166 4481 
L 4166 1941 
z
" transform="scale(0.015625)"/>
      <path id="SegoeUI-Bold-64" d="M 3547 0 
L 2559 0 
L 2559 441 
L 2547 441 
Q 2209 -78 1556 -78 
Q 956 -78 590 345 
Q 225 769 225 1528 
Q 225 2322 628 2800 
Q 1031 3278 1684 3278 
Q 2303 3278 2547 2834 
L 2559 2834 
L 2559 4738 
L 3547 4738 
L 3547 0 
z
M 2578 1556 
L 2578 1797 
Q 2578 2109 2397 2315 
Q 2216 2522 1925 2522 
Q 1597 2522 1412 2264 
Q 1228 2006 1228 1556 
Q 1228 1134 1406 906 
Q 1584 678 1900 678 
Q 2200 678 2389 918 
Q 2578 1159 2578 1556 
z
" transform="scale(0.015625)"/>
      <path id="SegoeUI-Bold-3a" d="M 856 2209 
Q 613 2209 450 2357 
Q 288 2506 288 2725 
Q 288 2950 455 3094 
Q 622 3238 872 3238 
Q 1125 3238 1286 3092 
Q 1447 2947 1447 2725 
Q 1447 2497 1283 2353 
Q 1119 2209 856 2209 
z
M 856 -78 
Q 613 -78 450 72 
Q 288 222 288 441 
Q 288 666 455 809 
Q 622 953 872 953 
Q 1125 953 1286 808 
Q 1447 663 1447 441 
Q 1447 213 1283 67 
Q 1119 -78 856 -78 
z
" transform="scale(0.015625)"/>
     </defs>
     <use xlink:href="#SegoeUI-Bold-55"/>
     <use xlink:href="#SegoeUI-Bold-73" x="72.314453"/>
     <use xlink:href="#SegoeUI-Bold-61" x="116.308594"/>
     <use xlink:href="#SegoeUI-Bold-72" x="170.117188"/>
     <use xlink:href="#SegoeUI-Bold-20" x="209.912109"/>
     <use xlink:href="#SegoeUI-Bold-63" x="237.5"/>
     <use xlink:href="#SegoeUI-Bold-75" x="285.498047"/>
     <use xlink:href="#SegoeUI-Bold-61" x="345.996094"/>
     <use xlink:href="#SegoeUI-Bold-6e" x="399.804688"/>
     <use xlink:href="#SegoeUI-Bold-64" x="460.302734"/>
     <use xlink:href="#SegoeUI-Bold-6f" x="522.216797"/>
     <use xlink:href="#SegoeUI-Bold-20" x="583.349609"/>
     <use xlink:href="#SegoeUI-Bold-73" x="610.9375"/>
     <use xlink:href="#SegoeUI-Bold-65" x="654.931641"/>
     <use xlink:href="#SegoeUI-Bold-20" x="709.033203"/>
     <use xlink:href="#SegoeUI-Bold-63" x="736.621094"/>
     <use xlink:href="#SegoeUI-Bold-6f" x="784.619141"/>
     <use xlink:href="#SegoeUI-Bold-6e" x="845.751953"/>
     <use xlink:href="#SegoeUI-Bold-6f" x="906.25"/>
     <use xlink:href="#SegoeUI-Bold-63" x="967.382812"/>
     <use xlink:href="#SegoeUI-Bold-65" x="1015.380859"/>
     <use xlink:href="#SegoeUI-Bold-6e" x="1069.482422"/>
     <use xlink:href="#SegoeUI-Bold-3a" x="1129.980469"/>
    </g>
   </g>
   <g id="text_22">
    <!-- LLL (tres lados) o LAL (dos lados y ángulo incluido) -->
    <g style="fill: #9ca3af" transform="translate(693.104821 555.185646) scale(0.09 -0.09)">
     <defs>
      <path id="SegoeUI-Italic-4c" d="M 2553 0 
L 231 0 
L 1178 4481 
L 1722 4481 
L 872 488 
L 2656 488 
L 2553 0 
z
" transform="scale(0.015625)"/>
      <path id="SegoeUI-Italic-20" transform="scale(0.015625)"/>
      <path id="SegoeUI-Italic-28" d="M 2541 4481 
Q 2153 4100 1842 3694 
Q 1531 3288 1312 2853 
Q 1094 2419 975 1951 
Q 856 1484 856 978 
Q 856 728 889 473 
Q 922 219 987 -26 
Q 1053 -272 1147 -503 
Q 1241 -734 1363 -934 
L 922 -934 
Q 791 -728 692 -495 
Q 594 -263 528 -19 
Q 463 225 430 472 
Q 397 719 397 953 
Q 397 1494 512 1973 
Q 628 2453 840 2887 
Q 1053 3322 1358 3717 
Q 1663 4113 2041 4481 
L 2541 4481 
z
" transform="scale(0.015625)"/>
      <path id="SegoeUI-Italic-74" d="M 2156 2766 
L 1350 2766 
L 991 1069 
Q 972 972 953 859 
Q 934 747 934 678 
Q 934 519 1004 448 
Q 1075 378 1228 378 
Q 1266 378 1325 390 
Q 1384 403 1446 422 
Q 1509 441 1570 464 
Q 1631 488 1678 506 
L 1581 56 
Q 1472 9 1333 -23 
Q 1194 -56 1069 -56 
Q 891 -56 766 -11 
Q 641 34 561 118 
Q 481 203 445 323 
Q 409 444 409 594 
Q 409 684 426 804 
Q 444 925 469 1025 
L 838 2766 
L 306 2766 
L 403 3200 
L 928 3200 
L 1094 3981 
Q 1106 3988 1189 4011 
Q 1272 4034 1370 4064 
Q 1469 4094 1551 4119 
Q 1634 4144 1644 4147 
L 1447 3200 
L 2253 3200 
L 2156 2766 
z
" transform="scale(0.015625)"/>
      <path id="SegoeUI-Italic-72" d="M 2394 2656 
L 2381 2656 
Q 2319 2694 2217 2730 
Q 2116 2766 2016 2766 
Q 1834 2766 1668 2648 
Q 1503 2531 1367 2339 
Q 1231 2147 1129 1900 
Q 1028 1653 972 1394 
L 672 0 
L 159 0 
L 609 2125 
Q 638 2256 666 2400 
Q 694 2544 717 2687 
Q 741 2831 759 2962 
Q 778 3094 788 3200 
L 1294 3200 
Q 1284 3106 1271 3001 
Q 1259 2897 1246 2798 
Q 1234 2700 1221 2620 
Q 1209 2541 1203 2497 
L 1216 2497 
Q 1316 2675 1419 2819 
Q 1522 2963 1636 3064 
Q 1750 3166 1878 3222 
Q 2006 3278 2156 3278 
Q 2244 3278 2330 3261 
Q 2416 3244 2484 3225 
L 2394 2656 
z
" transform="scale(0.015625)"/>
      <path id="SegoeUI-Italic-65" d="M 2994 2450 
Q 2994 2197 2881 1989 
Q 2769 1781 2509 1632 
Q 2250 1484 1825 1403 
Q 1400 1322 775 1319 
Q 769 1284 769 1247 
Q 769 1213 769 1184 
Q 769 1016 816 866 
Q 863 716 961 603 
Q 1059 491 1214 425 
Q 1369 359 1581 359 
Q 1797 359 2055 442 
Q 2313 525 2547 678 
L 2450 172 
Q 2278 72 2040 -3 
Q 1803 -78 1509 -78 
Q 1156 -78 914 31 
Q 672 141 523 323 
Q 375 506 309 745 
Q 244 984 244 1247 
Q 244 1528 306 1789 
Q 369 2050 483 2275 
Q 597 2500 756 2686 
Q 916 2872 1109 3003 
Q 1303 3134 1525 3206 
Q 1747 3278 1984 3278 
Q 2231 3278 2420 3212 
Q 2609 3147 2736 3033 
Q 2863 2919 2928 2769 
Q 2994 2619 2994 2450 
z
M 2472 2425 
Q 2472 2622 2326 2731 
Q 2181 2841 1941 2841 
Q 1750 2841 1572 2758 
Q 1394 2675 1244 2529 
Q 1094 2384 984 2182 
Q 875 1981 825 1747 
Q 1272 1747 1584 1792 
Q 1897 1838 2094 1925 
Q 2291 2013 2381 2139 
Q 2472 2266 2472 2425 
z
" transform="scale(0.015625)"/>
      <path id="SegoeUI-Italic-73" d="M 2266 2638 
Q 2125 2728 1950 2784 
Q 1775 2841 1600 2841 
Q 1306 2841 1145 2706 
Q 984 2572 984 2350 
Q 984 2259 1014 2184 
Q 1044 2109 1101 2042 
Q 1159 1975 1248 1912 
Q 1338 1850 1453 1778 
Q 1803 1575 1958 1361 
Q 2113 1147 2113 878 
Q 2113 697 2045 523 
Q 1978 350 1831 217 
Q 1684 84 1451 3 
Q 1219 -78 884 -78 
Q 791 -78 678 -65 
Q 566 -53 452 -28 
Q 338 -3 233 33 
Q 128 69 50 116 
L 153 603 
Q 216 559 308 515 
Q 400 472 508 437 
Q 616 403 733 381 
Q 850 359 966 359 
Q 1278 359 1433 484 
Q 1588 609 1588 831 
Q 1588 913 1564 981 
Q 1541 1050 1481 1119 
Q 1422 1188 1325 1258 
Q 1228 1328 1081 1416 
Q 763 1609 611 1820 
Q 459 2031 459 2297 
Q 459 2491 531 2667 
Q 603 2844 745 2980 
Q 888 3116 1103 3197 
Q 1319 3278 1606 3278 
Q 1831 3278 2032 3234 
Q 2234 3191 2375 3122 
L 2266 2638 
z
" transform="scale(0.015625)"/>
      <path id="SegoeUI-Italic-6c" d="M 1300 13 
Q 1222 -13 1123 -28 
Q 1025 -44 928 -44 
Q 613 -44 456 114 
Q 300 272 300 538 
Q 300 616 315 722 
Q 331 828 366 984 
L 1166 4741 
L 1684 4741 
L 881 972 
Q 853 841 842 769 
Q 831 697 831 647 
Q 831 519 901 451 
Q 972 384 1125 384 
Q 1206 384 1267 393 
Q 1328 403 1381 422 
L 1300 13 
z
" transform="scale(0.015625)"/>
      <path id="SegoeUI-Italic-61" d="M 2828 1025 
Q 2803 906 2779 757 
Q 2756 609 2739 464 
Q 2722 319 2711 194 
Q 2700 69 2700 0 
L 2169 0 
Q 2172 63 2178 150 
Q 2184 238 2195 331 
Q 2206 425 2217 515 
Q 2228 606 2241 672 
L 2228 672 
Q 2131 519 2031 383 
Q 1931 247 1809 144 
Q 1688 41 1538 -18 
Q 1388 -78 1184 -78 
Q 975 -78 801 -3 
Q 628 72 503 220 
Q 378 369 311 592 
Q 244 816 244 1113 
Q 244 1294 281 1525 
Q 319 1756 408 1997 
Q 497 2238 645 2467 
Q 794 2697 1014 2878 
Q 1234 3059 1534 3168 
Q 1834 3278 2228 3278 
Q 2478 3278 2743 3240 
Q 3009 3203 3272 3150 
L 2828 1025 
z
M 2681 2778 
Q 2572 2803 2425 2822 
Q 2278 2841 2150 2841 
Q 1878 2841 1670 2755 
Q 1463 2669 1309 2530 
Q 1156 2391 1051 2209 
Q 947 2028 884 1839 
Q 822 1650 795 1465 
Q 769 1281 769 1131 
Q 769 953 800 811 
Q 831 669 898 569 
Q 966 469 1070 414 
Q 1175 359 1319 359 
Q 1475 359 1611 423 
Q 1747 488 1865 597 
Q 1984 706 2081 850 
Q 2178 994 2256 1155 
Q 2334 1316 2389 1483 
Q 2444 1650 2478 1806 
L 2681 2778 
z
" transform="scale(0.015625)"/>
      <path id="SegoeUI-Italic-64" d="M 2816 984 
Q 2794 884 2773 743 
Q 2753 603 2737 461 
Q 2722 319 2711 194 
Q 2700 69 2700 0 
L 2169 0 
Q 2169 53 2176 142 
Q 2184 231 2195 328 
Q 2206 425 2218 514 
Q 2231 603 2241 659 
L 2228 659 
Q 2116 478 2003 339 
Q 1891 200 1766 108 
Q 1641 16 1500 -31 
Q 1359 -78 1191 -78 
Q 972 -78 797 0 
Q 622 78 498 229 
Q 375 381 309 604 
Q 244 828 244 1119 
Q 244 1350 292 1600 
Q 341 1850 442 2090 
Q 544 2331 700 2547 
Q 856 2763 1072 2925 
Q 1288 3088 1566 3183 
Q 1844 3278 2188 3278 
Q 2363 3278 2513 3254 
Q 2663 3231 2772 3206 
L 3097 4738 
L 3603 4738 
L 2816 984 
z
M 2681 2766 
Q 2563 2800 2433 2820 
Q 2303 2841 2156 2841 
Q 1884 2841 1676 2756 
Q 1469 2672 1314 2531 
Q 1159 2391 1054 2211 
Q 950 2031 886 1842 
Q 822 1653 795 1470 
Q 769 1288 769 1141 
Q 769 966 798 822 
Q 828 678 895 575 
Q 963 472 1069 415 
Q 1175 359 1325 359 
Q 1481 359 1617 425 
Q 1753 491 1872 603 
Q 1991 716 2087 862 
Q 2184 1009 2262 1175 
Q 2341 1341 2395 1511 
Q 2450 1681 2484 1838 
L 2681 2766 
z
" transform="scale(0.015625)"/>
      <path id="SegoeUI-Italic-6f" d="M 3181 2016 
Q 3181 1591 3061 1209 
Q 2941 828 2714 542 
Q 2488 256 2164 89 
Q 1841 -78 1434 -78 
Q 1159 -78 939 9 
Q 719 97 564 261 
Q 409 425 326 658 
Q 244 891 244 1184 
Q 244 1625 370 2008 
Q 497 2391 726 2673 
Q 956 2956 1276 3117 
Q 1597 3278 1984 3278 
Q 2256 3278 2476 3190 
Q 2697 3103 2853 2939 
Q 3009 2775 3095 2542 
Q 3181 2309 3181 2016 
z
M 2656 1991 
Q 2656 2194 2606 2351 
Q 2556 2509 2465 2617 
Q 2375 2725 2247 2783 
Q 2119 2841 1959 2841 
Q 1684 2841 1462 2700 
Q 1241 2559 1087 2329 
Q 934 2100 851 1808 
Q 769 1516 769 1209 
Q 769 1016 817 858 
Q 866 700 955 589 
Q 1044 478 1173 418 
Q 1303 359 1466 359 
Q 1744 359 1966 498 
Q 2188 638 2341 867 
Q 2494 1097 2575 1390 
Q 2656 1684 2656 1991 
z
" transform="scale(0.015625)"/>
      <path id="SegoeUI-Italic-29" d="M 1575 2591 
Q 1575 2053 1459 1572 
Q 1344 1091 1130 658 
Q 916 225 611 -170 
Q 306 -566 -72 -934 
L -575 -934 
Q -188 -553 125 -148 
Q 438 256 656 690 
Q 875 1125 994 1592 
Q 1113 2059 1113 2566 
Q 1113 2816 1080 3069 
Q 1047 3322 983 3569 
Q 919 3816 825 4047 
Q 731 4278 609 4481 
L 1044 4481 
Q 1175 4272 1275 4037 
Q 1375 3803 1440 3559 
Q 1506 3316 1540 3070 
Q 1575 2825 1575 2591 
z
" transform="scale(0.015625)"/>
      <path id="SegoeUI-Italic-41" d="M 3122 0 
L 2919 1253 
L 1019 1253 
L 294 0 
L -325 0 
L 2344 4481 
L 2894 4481 
L 3675 0 
L 3122 0 
z
M 2547 3634 
Q 2544 3666 2542 3706 
Q 2541 3747 2541 3788 
Q 2541 3831 2541 3869 
Q 2541 3909 2541 3938 
L 2528 3938 
Q 2519 3909 2503 3870 
Q 2488 3831 2469 3789 
Q 2450 3747 2429 3706 
Q 2409 3666 2394 3634 
L 1288 1728 
L 2834 1728 
L 2547 3634 
z
" transform="scale(0.015625)"/>
      <path id="SegoeUI-Italic-79" d="M 1147 -531 
Q 1003 -766 856 -945 
Q 709 -1125 548 -1250 
Q 388 -1375 205 -1439 
Q 22 -1503 -197 -1503 
Q -269 -1503 -358 -1489 
Q -447 -1475 -500 -1459 
L -403 -1006 
Q -356 -1031 -281 -1047 
Q -206 -1063 -134 -1063 
Q 81 -1063 254 -944 
Q 428 -825 581 -581 
L 966 13 
L 384 3200 
L 916 3200 
L 1288 744 
Q 1297 675 1298 611 
Q 1300 547 1294 500 
L 1313 500 
Q 1328 538 1361 606 
Q 1394 675 1434 738 
L 2853 3200 
L 3419 3200 
L 1147 -531 
z
" transform="scale(0.015625)"/>
      <path id="SegoeUI-Italic-e1" d="M 2828 1025 
Q 2803 906 2779 757 
Q 2756 609 2739 464 
Q 2722 319 2711 194 
Q 2700 69 2700 0 
L 2169 0 
Q 2172 63 2178 150 
Q 2184 238 2195 331 
Q 2206 425 2217 515 
Q 2228 606 2241 672 
L 2228 672 
Q 2131 519 2031 383 
Q 1931 247 1809 144 
Q 1688 41 1538 -18 
Q 1388 -78 1184 -78 
Q 975 -78 801 -3 
Q 628 72 503 220 
Q 378 369 311 592 
Q 244 816 244 1113 
Q 244 1294 281 1525 
Q 319 1756 408 1997 
Q 497 2238 645 2467 
Q 794 2697 1014 2878 
Q 1234 3059 1534 3168 
Q 1834 3278 2228 3278 
Q 2478 3278 2743 3240 
Q 3009 3203 3272 3150 
L 2828 1025 
z
M 2681 2778 
Q 2572 2803 2425 2822 
Q 2278 2841 2150 2841 
Q 1878 2841 1670 2755 
Q 1463 2669 1309 2530 
Q 1156 2391 1051 2209 
Q 947 2028 884 1839 
Q 822 1650 795 1465 
Q 769 1281 769 1131 
Q 769 953 800 811 
Q 831 669 898 569 
Q 966 469 1070 414 
Q 1175 359 1319 359 
Q 1475 359 1611 423 
Q 1747 488 1865 597 
Q 1984 706 2081 850 
Q 2178 994 2256 1155 
Q 2334 1316 2389 1483 
Q 2444 1650 2478 1806 
L 2681 2778 
z
M 2182 3809 
L 1798 3809 
L 2701 4831 
L 3204 4831 
L 2182 3809 
z
" transform="scale(0.015625)"/>
      <path id="SegoeUI-Italic-6e" d="M 3269 2400 
Q 3269 2353 3258 2272 
Q 3247 2191 3230 2097 
Q 3213 2003 3195 1911 
Q 3178 1819 3163 1753 
L 2791 0 
L 2272 0 
L 2663 1875 
Q 2675 1925 2687 1990 
Q 2700 2056 2709 2122 
Q 2719 2188 2725 2242 
Q 2731 2297 2731 2328 
Q 2731 2566 2617 2703 
Q 2503 2841 2278 2841 
Q 2072 2841 1869 2719 
Q 1666 2597 1494 2409 
Q 1322 2222 1198 1997 
Q 1075 1772 1031 1563 
L 697 0 
L 178 0 
L 672 2284 
Q 697 2406 722 2539 
Q 747 2672 769 2795 
Q 791 2919 806 3025 
Q 822 3131 831 3200 
L 1331 3200 
Q 1316 3078 1294 2945 
Q 1272 2813 1256 2700 
Q 1238 2569 1216 2444 
L 1228 2444 
Q 1338 2616 1470 2767 
Q 1603 2919 1758 3033 
Q 1913 3147 2086 3212 
Q 2259 3278 2450 3278 
Q 2663 3278 2816 3214 
Q 2969 3150 3070 3034 
Q 3172 2919 3220 2756 
Q 3269 2594 3269 2400 
z
" transform="scale(0.015625)"/>
      <path id="SegoeUI-Italic-67" d="M 2656 231 
Q 2578 -144 2450 -461 
Q 2322 -778 2111 -1011 
Q 1900 -1244 1590 -1373 
Q 1281 -1503 838 -1503 
Q 531 -1503 304 -1431 
Q 78 -1359 -109 -1259 
L -13 -781 
Q 184 -900 406 -981 
Q 628 -1063 884 -1063 
Q 1163 -1063 1367 -981 
Q 1572 -900 1720 -742 
Q 1869 -584 1967 -356 
Q 2066 -128 2131 166 
L 2241 666 
L 2228 666 
Q 2109 475 1995 336 
Q 1881 197 1756 105 
Q 1631 13 1493 -32 
Q 1356 -78 1191 -78 
Q 975 -78 800 -1 
Q 625 75 501 225 
Q 378 375 311 600 
Q 244 825 244 1119 
Q 244 1397 305 1665 
Q 366 1934 481 2175 
Q 597 2416 764 2617 
Q 931 2819 1143 2966 
Q 1356 3113 1611 3195 
Q 1866 3278 2156 3278 
Q 2447 3278 2737 3240 
Q 3028 3203 3272 3156 
L 2656 231 
z
M 2681 2778 
Q 2575 2803 2423 2822 
Q 2272 2841 2100 2841 
Q 1806 2841 1562 2705 
Q 1319 2569 1142 2336 
Q 966 2103 867 1793 
Q 769 1484 769 1141 
Q 769 972 798 828 
Q 828 684 892 581 
Q 956 478 1057 418 
Q 1159 359 1306 359 
Q 1478 359 1623 431 
Q 1769 503 1891 622 
Q 2013 741 2108 892 
Q 2203 1044 2276 1203 
Q 2350 1363 2400 1517 
Q 2450 1672 2478 1797 
L 2681 2778 
z
" transform="scale(0.015625)"/>
      <path id="SegoeUI-Italic-75" d="M 2906 909 
Q 2878 788 2854 656 
Q 2831 525 2809 403 
Q 2788 281 2772 175 
Q 2756 69 2747 0 
L 2247 0 
Q 2263 122 2283 255 
Q 2303 388 2322 500 
Q 2344 631 2363 756 
L 2350 756 
Q 2241 584 2108 432 
Q 1975 281 1820 167 
Q 1666 53 1492 -12 
Q 1319 -78 1131 -78 
Q 925 -78 770 -14 
Q 616 50 512 165 
Q 409 281 357 443 
Q 306 606 306 806 
Q 306 847 318 928 
Q 331 1009 347 1103 
Q 363 1197 383 1289 
Q 403 1381 416 1447 
L 788 3200 
L 1306 3200 
L 909 1325 
Q 897 1275 884 1209 
Q 872 1144 861 1078 
Q 850 1013 844 958 
Q 838 903 838 872 
Q 838 638 952 498 
Q 1066 359 1294 359 
Q 1431 359 1568 415 
Q 1706 472 1836 567 
Q 1966 663 2081 789 
Q 2197 916 2290 1058 
Q 2384 1200 2450 1350 
Q 2516 1500 2547 1638 
L 2881 3200 
L 3397 3200 
L 2906 909 
z
" transform="scale(0.015625)"/>
      <path id="SegoeUI-Italic-69" d="M 1300 13 
Q 1222 -13 1123 -28 
Q 1025 -44 928 -44 
Q 613 -44 456 114 
Q 300 272 300 538 
Q 300 616 315 722 
Q 331 828 366 984 
L 831 3200 
L 1350 3200 
L 881 972 
Q 853 841 842 769 
Q 831 697 831 647 
Q 831 519 901 451 
Q 972 384 1125 384 
Q 1206 384 1267 393 
Q 1328 403 1381 422 
L 1300 13 
z
M 1666 4341 
Q 1666 4200 1570 4100 
Q 1475 4000 1334 4000 
Q 1197 4000 1095 4098 
Q 994 4197 994 4341 
Q 994 4484 1095 4575 
Q 1197 4666 1334 4666 
Q 1472 4666 1569 4573 
Q 1666 4481 1666 4341 
z
" transform="scale(0.015625)"/>
      <path id="SegoeUI-Italic-63" d="M 2700 2566 
Q 2569 2681 2383 2761 
Q 2197 2841 1972 2841 
Q 1756 2841 1582 2766 
Q 1409 2691 1275 2566 
Q 1141 2441 1044 2278 
Q 947 2116 884 1941 
Q 822 1766 792 1592 
Q 763 1419 763 1269 
Q 763 822 959 590 
Q 1156 359 1497 359 
Q 1703 359 1925 445 
Q 2147 531 2344 666 
L 2234 153 
Q 2031 44 1829 -17 
Q 1628 -78 1403 -78 
Q 1109 -78 892 22 
Q 675 122 531 297 
Q 388 472 316 711 
Q 244 950 244 1228 
Q 244 1491 297 1745 
Q 350 2000 454 2226 
Q 559 2453 712 2647 
Q 866 2841 1064 2980 
Q 1263 3119 1506 3198 
Q 1750 3278 2034 3278 
Q 2169 3278 2291 3259 
Q 2413 3241 2513 3209 
Q 2613 3178 2691 3142 
Q 2769 3106 2816 3072 
L 2700 2566 
z
" transform="scale(0.015625)"/>
     </defs>
     <use xlink:href="#SegoeUI-Italic-4c"/>
     <use xlink:href="#SegoeUI-Italic-4c" x="46.289062"/>
     <use xlink:href="#SegoeUI-Italic-4c" x="92.578125"/>
     <use xlink:href="#SegoeUI-Italic-20" x="138.867188"/>
     <use xlink:href="#SegoeUI-Italic-28" x="166.357422"/>
     <use xlink:href="#SegoeUI-Italic-74" x="196.777344"/>
     <use xlink:href="#SegoeUI-Italic-72" x="229.101562"/>
     <use xlink:href="#SegoeUI-Italic-65" x="264.724609"/>
     <use xlink:href="#SegoeUI-Italic-73" x="313.40625"/>
     <use xlink:href="#SegoeUI-Italic-20" x="352.908203"/>
     <use xlink:href="#SegoeUI-Italic-6c" x="380.398438"/>
     <use xlink:href="#SegoeUI-Italic-61" x="406.277344"/>
     <use xlink:href="#SegoeUI-Italic-64" x="460.476562"/>
     <use xlink:href="#SegoeUI-Italic-6f" x="514.675781"/>
     <use xlink:href="#SegoeUI-Italic-73" x="568.191406"/>
     <use xlink:href="#SegoeUI-Italic-29" x="607.693359"/>
     <use xlink:href="#SegoeUI-Italic-20" x="638.113281"/>
     <use xlink:href="#SegoeUI-Italic-6f" x="665.603516"/>
     <use xlink:href="#SegoeUI-Italic-20" x="719.119141"/>
     <use xlink:href="#SegoeUI-Italic-4c" x="746.609375"/>
     <use xlink:href="#SegoeUI-Italic-41" x="795.898438"/>
     <use xlink:href="#SegoeUI-Italic-4c" x="859.082031"/>
     <use xlink:href="#SegoeUI-Italic-20" x="905.371094"/>
     <use xlink:href="#SegoeUI-Italic-28" x="932.861328"/>
     <use xlink:href="#SegoeUI-Italic-64" x="963.28125"/>
     <use xlink:href="#SegoeUI-Italic-6f" x="1017.480469"/>
     <use xlink:href="#SegoeUI-Italic-73" x="1070.996094"/>
     <use xlink:href="#SegoeUI-Italic-20" x="1110.498047"/>
     <use xlink:href="#SegoeUI-Italic-6c" x="1137.988281"/>
     <use xlink:href="#SegoeUI-Italic-61" x="1163.867188"/>
     <use xlink:href="#SegoeUI-Italic-64" x="1218.066406"/>
     <use xlink:href="#SegoeUI-Italic-6f" x="1272.265625"/>
     <use xlink:href="#SegoeUI-Italic-73" x="1325.78125"/>
     <use xlink:href="#SegoeUI-Italic-20" x="1365.283203"/>
     <use xlink:href="#SegoeUI-Italic-79" x="1392.773438"/>
     <use xlink:href="#SegoeUI-Italic-20" x="1441.162109"/>
     <use xlink:href="#SegoeUI-Italic-e1" x="1468.652344"/>
     <use xlink:href="#SegoeUI-Italic-6e" x="1522.851562"/>
     <use xlink:href="#SegoeUI-Italic-67" x="1579.052734"/>
     <use xlink:href="#SegoeUI-Italic-75" x="1633.251953"/>
     <use xlink:href="#SegoeUI-Italic-6c" x="1689.0625"/>
     <use xlink:href="#SegoeUI-Italic-6f" x="1714.941406"/>
     <use xlink:href="#SegoeUI-Italic-20" x="1768.457031"/>
     <use xlink:href="#SegoeUI-Italic-69" x="1795.947266"/>
     <use xlink:href="#SegoeUI-Italic-6e" x="1821.826172"/>
     <use xlink:href="#SegoeUI-Italic-63" x="1878.027344"/>
     <use xlink:href="#SegoeUI-Italic-6c" x="1921.630859"/>
     <use xlink:href="#SegoeUI-Italic-75" x="1947.509766"/>
     <use xlink:href="#SegoeUI-Italic-69" x="2003.320312"/>
     <use xlink:href="#SegoeUI-Italic-64" x="2029.199219"/>
     <use xlink:href="#SegoeUI-Italic-6f" x="2083.398438"/>
     <use xlink:href="#SegoeUI-Italic-29" x="2136.914062"/>
    </g>
   </g>
  </g>
  <g id="text_23">
   <!-- Ley de Cosenos -->
   <g style="fill: #2c2f33" transform="translate(457.970385 17.564375) scale(0.14 -0.14)">
    <defs>
     <path id="SegoeUI-Bold-79" d="M 3463 3200 
L 2163 -256 
Q 1694 -1503 750 -1503 
Q 391 -1503 159 -1422 
L 159 -634 
Q 356 -750 588 -750 
Q 969 -750 1119 -391 
L 1288 6 
L -13 3200 
L 1081 3200 
L 1678 1253 
Q 1734 1072 1766 825 
L 1778 825 
Q 1806 1006 1881 1247 
L 2484 3200 
L 3463 3200 
z
" transform="scale(0.015625)"/>
    </defs>
    <use xlink:href="#SegoeUI-Bold-4c"/>
    <use xlink:href="#SegoeUI-Bold-65" x="51.123047"/>
    <use xlink:href="#SegoeUI-Bold-79" x="105.224609"/>
    <use xlink:href="#SegoeUI-Bold-20" x="159.033203"/>
    <use xlink:href="#SegoeUI-Bold-64" x="186.621094"/>
    <use xlink:href="#SegoeUI-Bold-65" x="248.535156"/>
    <use xlink:href="#SegoeUI-Bold-20" x="302.636719"/>
    <use xlink:href="#SegoeUI-Bold-43" x="330.224609"/>
    <use xlink:href="#SegoeUI-Bold-6f" x="392.626953"/>
    <use xlink:href="#SegoeUI-Bold-73" x="453.759766"/>
    <use xlink:href="#SegoeUI-Bold-65" x="497.753906"/>
    <use xlink:href="#SegoeUI-Bold-6e" x="551.855469"/>
    <use xlink:href="#SegoeUI-Bold-6f" x="612.353516"/>
    <use xlink:href="#SegoeUI-Bold-73" x="673.486328"/>
   </g>
  </g>
 </g>
 <defs>
  <clipPath id="p9daf901480">
   <rect x="7.2" y="105.318919" width="524.552465" height="393.414349"/>
  </clipPath>
  <clipPath id="p177d62d125">
   <rect x="572.072465" y="26.852667" width="437.127055" height="550.346852"/>
  </clipPath>
 </defs>
</svg>
