<?xml version="1.0" encoding="utf-8" standalone="no"?>
<!DOCTYPE svg PUBLIC "-//W3C//DTD SVG 1.1//EN"
  "http://www.w3.org/Graphics/SVG/1.1/DTD/svg11.dtd">
<svg xmlns:xlink="http://www.w3.org/1999/xlink" width="1016.39952pt" height="584.39952pt" viewBox="0 0 1016.39952 584.39952" xmlns="http://www.w3.org/2000/svg" version="1.1">
 <metadata>
  <rdf:RDF xmlns:dc="http://purl.org/dc/elements/1.1/" xmlns:cc="http://creativecommons.org/ns#" xmlns:rdf="http://www.w3.org/1999/02/22-rdf-syntax-ns#">
   <cc:Work>
    <dc:type rdf:resource="http://purl.org/dc/dcmitype/StillImage"/>
    <dc:date>2026-04-11T16:11:47.071786</dc:date>
    <dc:format>image/svg+xml</dc:format>
    <dc:creator>
     <cc:Agent>
      <dc:title>Matplotlib v3.8.4, https://matplotlib.org/</dc:title>
     </cc:Agent>
    </dc:creator>
   </cc:Work>
  </rdf:RDF>
 </metadata>
 <defs>
  <style type="text/css">*{stroke-linejoin: round; stroke-linecap: butt}</style>
 </defs>
 <g id="figure_1">
  <g id="patch_1">
   <path d="M 0 584.39952 
L 1016.39952 584.39952 
L 1016.39952 0 
L 0 0 
z
" style="fill: #ffffff"/>
  </g>
  <g id="axes_1">
   <g id="patch_2">
    <path d="M 97.792998 469.623141 
L 460.164991 469.623141 
L 233.682496 152.547647 
z
" clip-path="url(#p183aed8de4)" style="fill: #eff6ff; stroke: #39c5bb; stroke-width: 2.5; stroke-linejoin: miter"/>
   </g>
   <g id="line2d_1">
    <path d="M 460.164991 469.623141 
L 233.682496 152.547647 
" clip-path="url(#p183aed8de4)" style="fill: none; stroke: #e12885; stroke-width: 3; stroke-linecap: square"/>
   </g>
   <g id="line2d_2">
    <path d="M 97.792998 469.623141 
L 233.682496 152.547647 
" clip-path="url(#p183aed8de4)" style="fill: none; stroke: #4b5563; stroke-width: 3; stroke-linecap: square"/>
   </g>
   <g id="line2d_3">
    <path d="M 97.792998 469.623141 
L 460.164991 469.623141 
" clip-path="url(#p183aed8de4)" style="fill: none; stroke: #f59e0b; stroke-width: 3; stroke-linecap: square"/>
   </g>
   <g id="line2d_4">
    <path d="M 143.089497 469.623141 
L 143.052895 467.802549 
L 142.943148 465.984899 
L 142.760433 464.173129 
L 142.505046 462.370167 
L 142.177399 460.578926 
L 141.778022 458.802302 
L 141.30756 457.043166 
L 140.766774 455.30436 
L 140.156537 453.588695 
L 139.477836 451.898944 
L 138.731768 450.237837 
L 137.919538 448.608058 
L 137.042459 447.012243 
L 136.101948 445.452969 
L 135.099526 443.932757 
L 134.036812 442.454063 
L 132.915525 441.019278 
L 131.737475 439.630719 
L 130.504568 438.290632 
L 129.218794 437.001182 
L 127.882233 435.764452 
L 126.497045 434.582442 
L 125.065468 433.457062 
L 123.589815 432.39013 
L 122.072471 431.38337 
L 120.51589 430.438411 
L 118.922585 429.556778 
L 117.295133 428.739897 
L 115.636163 427.989088 
" clip-path="url(#p183aed8de4)" style="fill: none; stroke: #e12885; stroke-width: 2; stroke-linecap: square"/>
   </g>
   <g id="line2d_5">
    <path d="M 436.469742 436.449791 
L 435.395325 437.244141 
L 434.347518 438.073274 
L 433.327445 438.936301 
L 432.336204 439.832294 
L 431.374857 440.760289 
L 430.444439 441.719292 
L 429.545949 442.70827 
L 428.680352 443.726162 
L 427.848578 444.771874 
L 427.05152 445.844284 
L 426.290035 446.942238 
L 425.564941 448.064557 
L 424.877016 449.210036 
L 424.227 450.377445 
L 423.615592 451.565528 
L 423.043446 452.77301 
L 422.51118 453.998593 
L 422.019363 455.240962 
L 421.568526 456.498781 
L 421.159151 457.770698 
L 420.791678 459.055349 
L 420.466504 460.351352 
L 420.183975 461.657315 
L 419.944398 462.971836 
L 419.748028 464.293503 
L 419.595076 465.620894 
L 419.485708 466.952585 
L 419.420039 468.287145 
L 419.398142 469.623141 
" clip-path="url(#p183aed8de4)" style="fill: none; stroke: #4b5563; stroke-width: 2; stroke-linecap: square"/>
   </g>
   <g id="line2d_6">
    <path d="M 221.19228 181.691483 
L 222.230094 182.114709 
L 223.282218 182.500992 
L 224.347337 182.84985 
L 225.42412 183.160845 
L 226.511221 183.43359 
L 227.607282 183.667744 
L 228.710935 183.863015 
L 229.820799 184.019157 
L 230.935488 184.135977 
L 232.05361 184.213329 
L 233.173767 184.251115 
L 234.294559 184.249288 
L 235.414587 184.207851 
L 236.532451 184.126856 
L 237.646753 184.006403 
L 238.756102 183.846643 
L 239.859113 183.647777 
L 240.954405 183.410051 
L 242.040612 183.133764 
L 243.116375 182.819261 
L 244.180351 182.466933 
L 245.23121 182.077223 
L 246.267639 181.650616 
L 247.288344 181.187646 
L 248.292048 180.688891 
L 249.277499 180.154975 
L 250.243463 179.586564 
L 251.188736 178.984368 
L 252.112134 178.349141 
" clip-path="url(#p183aed8de4)" style="fill: none; stroke: #f59e0b; stroke-width: 2; stroke-linecap: square"/>
   </g>
   <g id="line2d_7">
    <path d="M 490.945119 359.617357 
L 490.518362 346.173635 
L 489.239812 332.784045 
L 487.114615 319.502504 
L 484.151329 306.382492 
L 480.361887 293.476837 
L 475.761547 280.837507 
L 470.368833 268.515395 
L 464.20546 256.560119 
L 457.296246 245.019818 
L 449.66901 233.940961 
L 441.354466 223.368159 
L 432.386094 213.343984 
L 422.800005 203.9088 
L 412.6348 195.100599 
L 401.93141 186.95485 
L 390.732934 179.504351 
L 379.084464 172.779104 
L 367.032905 166.806189 
L 354.626784 161.609656 
L 341.916056 157.21043 
L 328.951903 153.626225 
L 315.786526 150.871475 
L 302.472938 148.95727 
L 289.064749 147.891319 
L 275.615948 147.677914 
L 262.180689 148.317914 
L 248.81307 149.808742 
L 235.566919 152.144396 
L 222.495573 155.31547 
L 209.651666 159.309196 
L 197.086916 164.109492 
L 184.851916 169.697029 
L 172.995933 176.049309 
L 161.566706 183.140752 
L 150.610257 190.942804 
L 140.170703 199.424049 
L 130.290082 208.550336 
L 121.008178 218.284916 
L 112.362367 228.588593 
L 104.387462 239.419875 
L 97.115576 250.735151 
L 90.57599 262.488857 
L 84.795036 274.633665 
L 79.795992 287.120673 
L 75.598988 299.899599 
L 72.220924 312.918987 
L 69.675401 326.126413 
L 67.97267 339.468696 
L 67.119587 352.89211 
L 67.119587 366.342604 
L 67.97267 379.766018 
L 69.675401 393.1083 
L 72.220924 406.315727 
L 75.598988 419.335115 
L 79.795992 432.114041 
L 84.795036 444.601049 
L 90.57599 456.745857 
L 97.115576 468.499563 
L 104.387462 479.814838 
L 112.362367 490.646121 
L 121.008178 500.949798 
L 130.290082 510.684378 
L 140.170703 519.810665 
L 150.610257 528.29191 
L 161.566706 536.093962 
L 172.995933 543.185405 
L 184.851916 549.537684 
L 197.086916 555.125222 
L 209.651666 559.925518 
L 222.495573 563.919244 
L 235.566919 567.090318 
L 248.81307 569.425972 
L 262.180689 570.9168 
L 275.615948 571.5568 
L 289.064749 571.343395 
L 302.472938 570.277444 
L 315.786526 568.363239 
L 328.951903 565.608488 
L 341.916056 562.024284 
L 354.626784 557.625058 
L 367.032905 552.428525 
L 379.084464 546.45561 
L 390.732934 539.730363 
L 401.93141 532.279864 
L 412.6348 524.134115 
L 422.800005 515.325914 
L 432.386094 505.89073 
L 441.354466 495.866555 
L 449.66901 485.293753 
L 457.296246 474.214896 
L 464.20546 462.674595 
L 470.368833 450.719319 
L 475.761547 438.397207 
L 480.361887 425.757877 
L 484.151329 412.852222 
L 487.114615 399.73221 
L 489.239812 386.450669 
L 490.518362 373.061079 
L 490.945119 359.617357 
" clip-path="url(#p183aed8de4)" style="fill: none; stroke-dasharray: 5.55,2.4; stroke-dashoffset: 0; stroke: #d1d5db; stroke-opacity: 0.7; stroke-width: 1.5"/>
   </g>
   <g id="line2d_8">
    <path d="M 278.978995 359.617357 
L 233.682496 152.547647 
" clip-path="url(#p183aed8de4)" style="fill: none; stroke-dasharray: 1.5,2.475; stroke-dashoffset: 0; stroke: #9ca3af; stroke-width: 1.5"/>
   </g>
   <g id="text_1">
    <!-- A -->
    <g style="fill: #39c5bb" transform="translate(75.144749 501.33069) scale(0.14 -0.14)">
     <defs>
      <path id="SegoeUI-Bold-41" d="M 4453 0 
L 3353 0 
L 3034 997 
L 1441 997 
L 1125 0 
L 31 0 
L 1663 4481 
L 2859 4481 
L 4453 0 
z
M 2803 1772 
L 2322 3278 
Q 2269 3447 2247 3681 
L 2222 3681 
Q 2206 3484 2144 3291 
L 1656 1772 
L 2803 1772 
z
" transform="scale(0.015625)"/>
     </defs>
     <use xlink:href="#SegoeUI-Bold-41"/>
    </g>
   </g>
   <g id="text_2">
    <!-- B -->
    <g style="fill: #39c5bb" transform="translate(473.753941 501.33069) scale(0.14 -0.14)">
     <defs>
      <path id="SegoeUI-Bold-42" d="M 513 0 
L 513 4481 
L 2144 4481 
Q 2894 4481 3297 4206 
Q 3700 3931 3700 3431 
Q 3700 3069 3454 2797 
Q 3209 2525 2828 2419 
L 2828 2406 
Q 3306 2347 3592 2053 
Q 3878 1759 3878 1338 
Q 3878 722 3437 361 
Q 2997 0 2234 0 
L 513 0 
z
M 1522 3738 
L 1522 2675 
L 1966 2675 
Q 2278 2675 2458 2826 
Q 2638 2978 2638 3244 
Q 2638 3738 1900 3738 
L 1522 3738 
z
M 1522 1925 
L 1522 744 
L 2069 744 
Q 2419 744 2617 906 
Q 2816 1069 2816 1350 
Q 2816 1619 2620 1772 
Q 2425 1925 2075 1925 
L 1522 1925 
z
" transform="scale(0.015625)"/>
     </defs>
     <use xlink:href="#SegoeUI-Bold-42"/>
    </g>
   </g>
   <g id="text_3">
    <!-- C -->
    <g style="fill: #39c5bb" transform="translate(233.682496 134.429047) scale(0.14 -0.14)">
     <defs>
      <path id="SegoeUI-Bold-43" d="M 3725 159 
Q 3234 -78 2444 -78 
Q 1413 -78 822 528 
Q 231 1134 231 2144 
Q 231 3219 895 3887 
Q 1559 4556 2619 4556 
Q 3275 4556 3725 4391 
L 3725 3419 
Q 3275 3688 2700 3688 
Q 2069 3688 1681 3291 
Q 1294 2894 1294 2216 
Q 1294 1566 1659 1180 
Q 2025 794 2644 794 
Q 3234 794 3725 1081 
L 3725 159 
z
" transform="scale(0.015625)"/>
     </defs>
     <use xlink:href="#SegoeUI-Bold-43"/>
    </g>
   </g>
   <g id="text_4">
    <!-- a -->
    <g style="fill: #e12885" transform="translate(369.571993 311.085394) scale(0.14 -0.14)">
     <defs>
      <path id="SegoeUI-Bold-61" d="M 3078 0 
L 2144 0 
L 2144 459 
L 2131 459 
Q 1809 -78 1178 -78 
Q 713 -78 445 186 
Q 178 450 178 891 
Q 178 1822 1281 1966 
L 2150 2081 
Q 2150 2606 1581 2606 
Q 1009 2606 494 2266 
L 494 3009 
Q 700 3116 1058 3197 
Q 1416 3278 1709 3278 
Q 3078 3278 3078 1913 
L 3078 0 
z
M 2150 1300 
L 2150 1516 
L 1569 1441 
Q 1088 1378 1088 1006 
Q 1088 838 1205 730 
Q 1322 622 1522 622 
Q 1800 622 1975 814 
Q 2150 1006 2150 1300 
z
" transform="scale(0.015625)"/>
     </defs>
     <use xlink:href="#SegoeUI-Bold-61"/>
    </g>
   </g>
   <g id="text_5">
    <!-- b -->
    <g style="fill: #4b5563" transform="translate(134.030198 311.085394) scale(0.14 -0.14)">
     <defs>
      <path id="SegoeUI-Bold-62" d="M 1416 372 
L 1403 372 
L 1403 0 
L 416 0 
L 416 4738 
L 1403 4738 
L 1403 2719 
L 1416 2719 
Q 1781 3278 2456 3278 
Q 3075 3278 3409 2853 
Q 3744 2428 3744 1691 
Q 3744 891 3353 406 
Q 2963 -78 2309 -78 
Q 1719 -78 1416 372 
z
M 1388 1722 
L 1388 1394 
Q 1388 1084 1566 881 
Q 1744 678 2022 678 
Q 2359 678 2545 939 
Q 2731 1200 2731 1678 
Q 2731 2075 2561 2298 
Q 2391 2522 2075 2522 
Q 1778 2522 1583 2300 
Q 1388 2078 1388 1722 
z
" transform="scale(0.015625)"/>
     </defs>
     <use xlink:href="#SegoeUI-Bold-62"/>
    </g>
   </g>
   <g id="text_6">
    <!-- c -->
    <g style="fill: #f59e0b" transform="translate(278.978995 501.33069) scale(0.14 -0.14)">
     <defs>
      <path id="SegoeUI-Bold-63" d="M 2841 116 
Q 2506 -78 1875 -78 
Q 1138 -78 681 369 
Q 225 816 225 1522 
Q 225 2338 714 2808 
Q 1203 3278 2022 3278 
Q 2588 3278 2841 3128 
L 2841 2291 
Q 2531 2522 2150 2522 
Q 1725 2522 1476 2273 
Q 1228 2025 1228 1588 
Q 1228 1163 1465 920 
Q 1703 678 2119 678 
Q 2488 678 2841 909 
L 2841 116 
z
" transform="scale(0.015625)"/>
     </defs>
     <use xlink:href="#SegoeUI-Bold-63"/>
    </g>
   </g>
   <g id="text_7">
    <!-- A -->
    <g style="fill: #e12885" transform="translate(152.148797 446.974891) scale(0.12 -0.12)">
     <use xlink:href="#SegoeUI-Bold-41"/>
    </g>
   </g>
   <g id="text_8">
    <!-- B -->
    <g style="fill: #4b5563" transform="translate(401.279542 449.692681) scale(0.12 -0.12)">
     <use xlink:href="#SegoeUI-Bold-42"/>
    </g>
   </g>
   <g id="text_9">
    <!-- C -->
    <g style="fill: #f59e0b" transform="translate(242.741795 202.373796) scale(0.12 -0.12)">
     <use xlink:href="#SegoeUI-Bold-43"/>
    </g>
   </g>
   <g id="text_10">
    <!-- R -->
    <g style="fill: #9ca3af" transform="translate(265.390045 242.493552) scale(0.1 -0.1)">
     <defs>
      <path id="SegoeUI-Italic-52" d="M 3653 3372 
Q 3653 3081 3551 2847 
Q 3450 2613 3272 2444 
Q 3094 2275 2847 2173 
Q 2600 2072 2309 2047 
L 2309 2034 
Q 2456 1988 2567 1838 
Q 2678 1688 2747 1434 
L 3122 0 
L 2547 0 
L 2216 1338 
Q 2144 1631 1986 1768 
Q 1828 1906 1569 1906 
L 1178 1906 
L 769 0 
L 231 0 
L 1178 4481 
L 2413 4481 
Q 2741 4481 2975 4393 
Q 3209 4306 3359 4154 
Q 3509 4003 3581 3801 
Q 3653 3600 3653 3372 
z
M 3103 3316 
Q 3103 3466 3056 3592 
Q 3009 3719 2912 3811 
Q 2816 3903 2666 3954 
Q 2516 4006 2309 4006 
L 1619 4006 
L 1275 2381 
L 1894 2381 
Q 2222 2381 2451 2459 
Q 2681 2538 2826 2666 
Q 2972 2794 3037 2964 
Q 3103 3134 3103 3316 
z
" transform="scale(0.015625)"/>
     </defs>
     <use xlink:href="#SegoeUI-Italic-52"/>
    </g>
   </g>
   <g id="text_11">
    <!-- Triángulo con Circunferencia Circunscrita -->
    <g style="fill: #2c2f33" transform="translate(172.997432 55.954648) scale(0.11 -0.11)">
     <defs>
      <path id="SegoeUI-Bold-54" d="M 3659 3659 
L 2381 3659 
L 2381 0 
L 1369 0 
L 1369 3659 
L 97 3659 
L 97 4481 
L 3659 4481 
L 3659 3659 
z
" transform="scale(0.015625)"/>
      <path id="SegoeUI-Bold-72" d="M 2503 2309 
Q 2325 2406 2088 2406 
Q 1766 2406 1584 2170 
Q 1403 1934 1403 1528 
L 1403 0 
L 416 0 
L 416 3200 
L 1403 3200 
L 1403 2606 
L 1416 2606 
Q 1650 3256 2259 3256 
Q 2416 3256 2503 3219 
L 2503 2309 
z
" transform="scale(0.015625)"/>
      <path id="SegoeUI-Bold-69" d="M 916 3706 
Q 666 3706 506 3854 
Q 347 4003 347 4219 
Q 347 4441 506 4581 
Q 666 4722 916 4722 
Q 1169 4722 1326 4581 
Q 1484 4441 1484 4219 
Q 1484 3994 1326 3850 
Q 1169 3706 916 3706 
z
M 1403 0 
L 416 0 
L 416 3200 
L 1403 3200 
L 1403 0 
z
" transform="scale(0.015625)"/>
      <path id="SegoeUI-Bold-e1" d="M 3078 0 
L 2144 0 
L 2144 459 
L 2131 459 
Q 1809 -78 1178 -78 
Q 713 -78 445 186 
Q 178 450 178 891 
Q 178 1822 1281 1966 
L 2150 2081 
Q 2150 2606 1581 2606 
Q 1009 2606 494 2266 
L 494 3009 
Q 700 3116 1058 3197 
Q 1416 3278 1709 3278 
Q 3078 3278 3078 1913 
L 3078 0 
z
M 2150 1300 
L 2150 1516 
L 1569 1441 
Q 1088 1378 1088 1006 
Q 1088 838 1205 730 
Q 1322 622 1522 622 
Q 1800 622 1975 814 
Q 2150 1006 2150 1300 
z
M 2783 4716 
L 1804 3706 
L 1092 3706 
L 1904 4716 
L 2783 4716 
z
" transform="scale(0.015625)"/>
      <path id="SegoeUI-Bold-6e" d="M 3506 0 
L 2522 0 
L 2522 1778 
Q 2522 2522 1991 2522 
Q 1734 2522 1568 2325 
Q 1403 2128 1403 1825 
L 1403 0 
L 416 0 
L 416 3200 
L 1403 3200 
L 1403 2694 
L 1416 2694 
Q 1769 3278 2444 3278 
Q 3506 3278 3506 1959 
L 3506 0 
z
" transform="scale(0.015625)"/>
      <path id="SegoeUI-Bold-67" d="M 3553 366 
Q 3553 -525 3037 -1014 
Q 2522 -1503 1544 -1503 
Q 897 -1503 519 -1319 
L 519 -488 
Q 1013 -775 1516 -775 
Q 2016 -775 2291 -511 
Q 2566 -247 2566 206 
L 2566 459 
L 2553 459 
Q 2216 -78 1556 -78 
Q 944 -78 584 353 
Q 225 784 225 1509 
Q 225 2322 625 2800 
Q 1025 3278 1678 3278 
Q 2263 3278 2553 2828 
L 2566 2828 
L 2566 3200 
L 3553 3200 
L 3553 366 
z
M 2578 1538 
L 2578 1791 
Q 2578 2094 2398 2308 
Q 2219 2522 1931 2522 
Q 1603 2522 1415 2265 
Q 1228 2009 1228 1544 
Q 1228 1144 1406 911 
Q 1584 678 1894 678 
Q 2200 678 2389 914 
Q 2578 1150 2578 1538 
z
" transform="scale(0.015625)"/>
      <path id="SegoeUI-Bold-75" d="M 3456 0 
L 2472 0 
L 2472 488 
L 2456 488 
Q 2091 -78 1478 -78 
Q 366 -78 366 1269 
L 366 3200 
L 1350 3200 
L 1350 1356 
Q 1350 678 1888 678 
Q 2153 678 2312 864 
Q 2472 1050 2472 1369 
L 2472 3200 
L 3456 3200 
L 3456 0 
z
" transform="scale(0.015625)"/>
      <path id="SegoeUI-Bold-6c" d="M 1403 0 
L 416 0 
L 416 4738 
L 1403 4738 
L 1403 0 
z
" transform="scale(0.015625)"/>
      <path id="SegoeUI-Bold-6f" d="M 1941 -78 
Q 1141 -78 683 370 
Q 225 819 225 1588 
Q 225 2381 700 2829 
Q 1175 3278 1984 3278 
Q 2781 3278 3234 2829 
Q 3688 2381 3688 1644 
Q 3688 847 3220 384 
Q 2753 -78 1941 -78 
z
M 1966 2522 
Q 1616 2522 1422 2281 
Q 1228 2041 1228 1600 
Q 1228 678 1972 678 
Q 2681 678 2681 1625 
Q 2681 2522 1966 2522 
z
" transform="scale(0.015625)"/>
      <path id="SegoeUI-Bold-20" transform="scale(0.015625)"/>
      <path id="SegoeUI-Bold-66" d="M 2503 3981 
Q 2313 4056 2138 4056 
Q 1663 4056 1663 3541 
L 1663 3200 
L 2394 3200 
L 2394 2472 
L 1663 2472 
L 1663 0 
L 678 0 
L 678 2472 
L 141 2472 
L 141 3200 
L 678 3200 
L 678 3597 
Q 678 4144 1034 4478 
Q 1391 4813 2003 4813 
Q 2303 4813 2503 4750 
L 2503 3981 
z
" transform="scale(0.015625)"/>
      <path id="SegoeUI-Bold-65" d="M 3291 1319 
L 1203 1319 
Q 1253 622 2081 622 
Q 2609 622 3009 872 
L 3009 159 
Q 2566 -78 1856 -78 
Q 1081 -78 653 351 
Q 225 781 225 1550 
Q 225 2347 687 2812 
Q 1150 3278 1825 3278 
Q 2525 3278 2908 2862 
Q 3291 2447 3291 1734 
L 3291 1319 
z
M 2375 1925 
Q 2375 2613 1819 2613 
Q 1581 2613 1407 2416 
Q 1234 2219 1197 1925 
L 2375 1925 
z
" transform="scale(0.015625)"/>
      <path id="SegoeUI-Bold-73" d="M 206 84 
L 206 884 
Q 450 738 692 666 
Q 934 594 1150 594 
Q 1413 594 1564 666 
Q 1716 738 1716 884 
Q 1716 978 1647 1040 
Q 1578 1103 1470 1150 
Q 1363 1197 1234 1234 
Q 1106 1272 988 1319 
Q 797 1391 651 1473 
Q 506 1556 407 1665 
Q 309 1775 257 1919 
Q 206 2063 206 2259 
Q 206 2528 323 2722 
Q 441 2916 636 3039 
Q 831 3163 1082 3220 
Q 1334 3278 1606 3278 
Q 1819 3278 2037 3245 
Q 2256 3213 2469 3150 
L 2469 2388 
Q 2281 2497 2067 2551 
Q 1853 2606 1647 2606 
Q 1550 2606 1464 2589 
Q 1378 2572 1312 2539 
Q 1247 2506 1209 2454 
Q 1172 2403 1172 2338 
Q 1172 2250 1228 2187 
Q 1284 2125 1375 2079 
Q 1466 2034 1577 1998 
Q 1688 1963 1797 1925 
Q 1994 1856 2153 1775 
Q 2313 1694 2427 1584 
Q 2541 1475 2602 1328 
Q 2663 1181 2663 978 
Q 2663 694 2539 492 
Q 2416 291 2211 164 
Q 2006 38 1739 -20 
Q 1472 -78 1184 -78 
Q 656 -78 206 84 
z
" transform="scale(0.015625)"/>
      <path id="SegoeUI-Bold-74" d="M 2350 38 
Q 2131 -78 1691 -78 
Q 647 -78 647 1006 
L 647 2472 
L 128 2472 
L 128 3200 
L 647 3200 
L 647 3891 
L 1631 4172 
L 1631 3200 
L 2350 3200 
L 2350 2472 
L 1631 2472 
L 1631 1178 
Q 1631 678 2028 678 
Q 2184 678 2350 769 
L 2350 38 
z
" transform="scale(0.015625)"/>
     </defs>
     <use xlink:href="#SegoeUI-Bold-54"/>
     <use xlink:href="#SegoeUI-Bold-72" x="51.09375"/>
     <use xlink:href="#SegoeUI-Bold-69" x="91.263672"/>
     <use xlink:href="#SegoeUI-Bold-e1" x="119.681641"/>
     <use xlink:href="#SegoeUI-Bold-6e" x="173.490234"/>
     <use xlink:href="#SegoeUI-Bold-67" x="233.988281"/>
     <use xlink:href="#SegoeUI-Bold-75" x="295.902344"/>
     <use xlink:href="#SegoeUI-Bold-6c" x="356.400391"/>
     <use xlink:href="#SegoeUI-Bold-6f" x="384.818359"/>
     <use xlink:href="#SegoeUI-Bold-20" x="445.951172"/>
     <use xlink:href="#SegoeUI-Bold-63" x="473.539062"/>
     <use xlink:href="#SegoeUI-Bold-6f" x="521.537109"/>
     <use xlink:href="#SegoeUI-Bold-6e" x="582.669922"/>
     <use xlink:href="#SegoeUI-Bold-20" x="643.167969"/>
     <use xlink:href="#SegoeUI-Bold-43" x="670.755859"/>
     <use xlink:href="#SegoeUI-Bold-69" x="733.158203"/>
     <use xlink:href="#SegoeUI-Bold-72" x="761.576172"/>
     <use xlink:href="#SegoeUI-Bold-63" x="800.996094"/>
     <use xlink:href="#SegoeUI-Bold-75" x="848.994141"/>
     <use xlink:href="#SegoeUI-Bold-6e" x="909.492188"/>
     <use xlink:href="#SegoeUI-Bold-66" x="969.990234"/>
     <use xlink:href="#SegoeUI-Bold-65" x="1008.320312"/>
     <use xlink:href="#SegoeUI-Bold-72" x="1062.421875"/>
     <use xlink:href="#SegoeUI-Bold-65" x="1101.841797"/>
     <use xlink:href="#SegoeUI-Bold-6e" x="1155.943359"/>
     <use xlink:href="#SegoeUI-Bold-63" x="1216.441406"/>
     <use xlink:href="#SegoeUI-Bold-69" x="1264.439453"/>
     <use xlink:href="#SegoeUI-Bold-61" x="1292.857422"/>
     <use xlink:href="#SegoeUI-Bold-20" x="1346.666016"/>
     <use xlink:href="#SegoeUI-Bold-43" x="1374.253906"/>
     <use xlink:href="#SegoeUI-Bold-69" x="1436.65625"/>
     <use xlink:href="#SegoeUI-Bold-72" x="1465.074219"/>
     <use xlink:href="#SegoeUI-Bold-63" x="1504.494141"/>
     <use xlink:href="#SegoeUI-Bold-75" x="1552.492188"/>
     <use xlink:href="#SegoeUI-Bold-6e" x="1612.990234"/>
     <use xlink:href="#SegoeUI-Bold-73" x="1673.488281"/>
     <use xlink:href="#SegoeUI-Bold-63" x="1717.482422"/>
     <use xlink:href="#SegoeUI-Bold-72" x="1765.480469"/>
     <use xlink:href="#SegoeUI-Bold-69" x="1805.650391"/>
     <use xlink:href="#SegoeUI-Bold-74" x="1834.068359"/>
     <use xlink:href="#SegoeUI-Bold-61" x="1872.984375"/>
    </g>
   </g>
   <g id="line2d_9">
    <defs>
     <path id="md86ed8188e" d="M 0 5 
C 1.326016 5 2.597899 4.473168 3.535534 3.535534 
C 4.473168 2.597899 5 1.326016 5 0 
C 5 -1.326016 4.473168 -2.597899 3.535534 -3.535534 
C 2.597899 -4.473168 1.326016 -5 0 -5 
C -1.326016 -5 -2.597899 -4.473168 -3.535534 -3.535534 
C -4.473168 -2.597899 -5 -1.326016 -5 0 
C -5 1.326016 -4.473168 2.597899 -3.535534 3.535534 
C -2.597899 4.473168 -1.326016 5 0 5 
z
" style="stroke: #39c5bb"/>
    </defs>
    <g clip-path="url(#p183aed8de4)">
     <use xlink:href="#md86ed8188e" x="97.792998" y="469.623141" style="fill: #39c5bb; stroke: #39c5bb"/>
    </g>
   </g>
   <g id="line2d_10">
    <g clip-path="url(#p183aed8de4)">
     <use xlink:href="#md86ed8188e" x="460.164991" y="469.623141" style="fill: #39c5bb; stroke: #39c5bb"/>
    </g>
   </g>
   <g id="line2d_11">
    <g clip-path="url(#p183aed8de4)">
     <use xlink:href="#md86ed8188e" x="233.682496" y="152.547647" style="fill: #39c5bb; stroke: #39c5bb"/>
    </g>
   </g>
  </g>
  <g id="axes_2">
   <g id="patch_3">
    <path d="M 603.621635 180.949786 
L 996.655874 180.949786 
L 996.655874 48.866542 
L 603.621635 48.866542 
z
" clip-path="url(#p019f269bb2)" style="fill: #fef3c7; stroke: #f59e0b; stroke-width: 2; stroke-linejoin: miter"/>
   </g>
   <g id="patch_4">
    <path d="M 603.621635 302.026094 
L 996.655874 302.026094 
L 996.655874 202.96366 
L 603.621635 202.96366 
z
" clip-path="url(#p019f269bb2)" style="fill: #eff6ff; stroke: #39c5bb; stroke-width: 1.5; stroke-linejoin: miter"/>
   </g>
   <g id="patch_5">
    <path d="M 603.621635 522.164835 
L 996.655874 522.164835 
L 996.655874 324.039968 
L 603.621635 324.039968 
z
" clip-path="url(#p019f269bb2)" style="fill: #f0fdf4; stroke: #1f2937; stroke-width: 1.5; stroke-linejoin: miter"/>
   </g>
   <g id="text_12">
    <!-- LEY DE SENOS -->
    <g style="fill: #f59e0b" transform="translate(760.09813 81.887353) scale(0.12 -0.12)">
     <defs>
      <path id="SegoeUI-Bold-4c" d="M 3181 0 
L 513 0 
L 513 4481 
L 1522 4481 
L 1522 819 
L 3181 819 
L 3181 0 
z
" transform="scale(0.015625)"/>
      <path id="SegoeUI-Bold-45" d="M 3200 0 
L 513 0 
L 513 4481 
L 3097 4481 
L 3097 3659 
L 1522 3659 
L 1522 2663 
L 2988 2663 
L 2988 1844 
L 1522 1844 
L 1522 819 
L 3200 819 
L 3200 0 
z
" transform="scale(0.015625)"/>
      <path id="SegoeUI-Bold-59" d="M 3891 4481 
L 2431 1594 
L 2431 0 
L 1422 0 
L 1422 1575 
L 0 4481 
L 1153 4481 
L 1875 2809 
Q 1894 2763 1978 2444 
L 1991 2444 
Q 2031 2669 2088 2797 
L 2822 4481 
L 3891 4481 
z
" transform="scale(0.015625)"/>
      <path id="SegoeUI-Bold-44" d="M 513 0 
L 513 4481 
L 2100 4481 
Q 4488 4481 4488 2297 
Q 4488 1250 3836 625 
Q 3184 0 2100 0 
L 513 0 
z
M 1522 3659 
L 1522 819 
L 2022 819 
Q 2678 819 3051 1212 
Q 3425 1606 3425 2284 
Q 3425 2925 3054 3292 
Q 2684 3659 2016 3659 
L 1522 3659 
z
" transform="scale(0.015625)"/>
      <path id="SegoeUI-Bold-53" d="M 306 172 
L 306 1172 
Q 578 944 897 830 
Q 1216 716 1541 716 
Q 1731 716 1873 750 
Q 2016 784 2111 845 
Q 2206 906 2253 989 
Q 2300 1072 2300 1169 
Q 2300 1300 2225 1403 
Q 2150 1506 2020 1593 
Q 1891 1681 1712 1762 
Q 1534 1844 1328 1928 
Q 803 2147 545 2462 
Q 288 2778 288 3225 
Q 288 3575 428 3826 
Q 569 4078 811 4240 
Q 1053 4403 1372 4479 
Q 1691 4556 2047 4556 
Q 2397 4556 2667 4514 
Q 2938 4472 3166 4384 
L 3166 3450 
Q 3053 3528 2920 3587 
Q 2788 3647 2647 3686 
Q 2506 3725 2367 3744 
Q 2228 3763 2103 3763 
Q 1931 3763 1790 3730 
Q 1650 3697 1553 3637 
Q 1456 3578 1403 3495 
Q 1350 3413 1350 3309 
Q 1350 3197 1409 3108 
Q 1469 3019 1578 2939 
Q 1688 2859 1844 2782 
Q 2000 2706 2197 2625 
Q 2466 2513 2680 2386 
Q 2894 2259 3047 2100 
Q 3200 1941 3281 1736 
Q 3363 1531 3363 1259 
Q 3363 884 3220 629 
Q 3078 375 2834 217 
Q 2591 59 2267 -9 
Q 1944 -78 1584 -78 
Q 1216 -78 883 -15 
Q 550 47 306 172 
z
" transform="scale(0.015625)"/>
      <path id="SegoeUI-Bold-4e" d="M 4544 0 
L 3525 0 
L 1678 2816 
Q 1516 3063 1453 3188 
L 1441 3188 
Q 1466 2950 1466 2463 
L 1466 0 
L 513 0 
L 513 4481 
L 1600 4481 
L 3378 1753 
Q 3500 1569 3603 1388 
L 3616 1388 
Q 3591 1544 3591 2003 
L 3591 4481 
L 4544 4481 
L 4544 0 
z
" transform="scale(0.015625)"/>
      <path id="SegoeUI-Bold-4f" d="M 2406 -78 
Q 1444 -78 837 548 
Q 231 1175 231 2181 
Q 231 3244 847 3900 
Q 1463 4556 2478 4556 
Q 3438 4556 4030 3928 
Q 4622 3300 4622 2272 
Q 4622 1216 4008 569 
Q 3394 -78 2406 -78 
z
M 2450 3688 
Q 1919 3688 1606 3289 
Q 1294 2891 1294 2234 
Q 1294 1569 1606 1181 
Q 1919 794 2425 794 
Q 2947 794 3253 1170 
Q 3559 1547 3559 2216 
Q 3559 2913 3262 3300 
Q 2966 3688 2450 3688 
z
" transform="scale(0.015625)"/>
     </defs>
     <use xlink:href="#SegoeUI-Bold-4c"/>
     <use xlink:href="#SegoeUI-Bold-45" x="51.123047"/>
     <use xlink:href="#SegoeUI-Bold-59" x="104.345703"/>
     <use xlink:href="#SegoeUI-Bold-20" x="165.039062"/>
     <use xlink:href="#SegoeUI-Bold-44" x="192.626953"/>
     <use xlink:href="#SegoeUI-Bold-45" x="266.357422"/>
     <use xlink:href="#SegoeUI-Bold-20" x="319.580078"/>
     <use xlink:href="#SegoeUI-Bold-53" x="347.167969"/>
     <use xlink:href="#SegoeUI-Bold-45" x="403.222656"/>
     <use xlink:href="#SegoeUI-Bold-4e" x="456.445312"/>
     <use xlink:href="#SegoeUI-Bold-4f" x="535.449219"/>
     <use xlink:href="#SegoeUI-Bold-53" x="611.279297"/>
    </g>
   </g>
   <g id="text_13">
    <!-- $\frac{a}{\sin A} = \frac{b}{\sin B} = \frac{c}{\sin C} = 2R$ -->
    <g style="fill: #2c2f33" transform="translate(728.808755 147.928975) scale(0.14 -0.14)">
     <defs>
      <path id="DejaVuSans-Oblique-61" d="M 3438 1997 
L 3047 0 
L 2472 0 
L 2578 531 
Q 2325 219 2001 64 
Q 1678 -91 1281 -91 
Q 834 -91 548 182 
Q 263 456 263 884 
Q 263 1497 752 1853 
Q 1241 2209 2100 2209 
L 2900 2209 
L 2931 2363 
Q 2938 2388 2941 2417 
Q 2944 2447 2944 2509 
Q 2944 2788 2717 2942 
Q 2491 3097 2081 3097 
Q 1800 3097 1504 3025 
Q 1209 2953 897 2809 
L 997 3341 
Q 1322 3463 1633 3523 
Q 1944 3584 2234 3584 
Q 2853 3584 3176 3315 
Q 3500 3047 3500 2534 
Q 3500 2431 3484 2292 
Q 3469 2153 3438 1997 
z
M 2816 1759 
L 2241 1759 
Q 1534 1759 1195 1570 
Q 856 1381 856 984 
Q 856 709 1029 553 
Q 1203 397 1509 397 
Q 1978 397 2328 733 
Q 2678 1069 2791 1631 
L 2816 1759 
z
" transform="scale(0.015625)"/>
      <path id="DejaVuSans-73" d="M 2834 3397 
L 2834 2853 
Q 2591 2978 2328 3040 
Q 2066 3103 1784 3103 
Q 1356 3103 1142 2972 
Q 928 2841 928 2578 
Q 928 2378 1081 2264 
Q 1234 2150 1697 2047 
L 1894 2003 
Q 2506 1872 2764 1633 
Q 3022 1394 3022 966 
Q 3022 478 2636 193 
Q 2250 -91 1575 -91 
Q 1294 -91 989 -36 
Q 684 19 347 128 
L 347 722 
Q 666 556 975 473 
Q 1284 391 1588 391 
Q 1994 391 2212 530 
Q 2431 669 2431 922 
Q 2431 1156 2273 1281 
Q 2116 1406 1581 1522 
L 1381 1569 
Q 847 1681 609 1914 
Q 372 2147 372 2553 
Q 372 3047 722 3315 
Q 1072 3584 1716 3584 
Q 2034 3584 2315 3537 
Q 2597 3491 2834 3397 
z
" transform="scale(0.015625)"/>
      <path id="DejaVuSans-69" d="M 603 3500 
L 1178 3500 
L 1178 0 
L 603 0 
L 603 3500 
z
M 603 4863 
L 1178 4863 
L 1178 4134 
L 603 4134 
L 603 4863 
z
" transform="scale(0.015625)"/>
      <path id="DejaVuSans-6e" d="M 3513 2113 
L 3513 0 
L 2938 0 
L 2938 2094 
Q 2938 2591 2744 2837 
Q 2550 3084 2163 3084 
Q 1697 3084 1428 2787 
Q 1159 2491 1159 1978 
L 1159 0 
L 581 0 
L 581 3500 
L 1159 3500 
L 1159 2956 
Q 1366 3272 1645 3428 
Q 1925 3584 2291 3584 
Q 2894 3584 3203 3211 
Q 3513 2838 3513 2113 
z
" transform="scale(0.015625)"/>
      <path id="DejaVuSans-Oblique-41" d="M 2356 4666 
L 3072 4666 
L 3938 0 
L 3278 0 
L 3084 1197 
L 984 1197 
L 325 0 
L -341 0 
L 2356 4666 
z
M 2584 4044 
L 1275 1722 
L 2988 1722 
L 2584 4044 
z
" transform="scale(0.015625)"/>
      <path id="DejaVuSans-3d" d="M 678 2906 
L 4684 2906 
L 4684 2381 
L 678 2381 
L 678 2906 
z
M 678 1631 
L 4684 1631 
L 4684 1100 
L 678 1100 
L 678 1631 
z
" transform="scale(0.015625)"/>
      <path id="DejaVuSans-Oblique-62" d="M 3169 2138 
Q 3169 2591 2961 2847 
Q 2753 3103 2388 3103 
Q 2122 3103 1889 2973 
Q 1656 2844 1484 2597 
Q 1303 2338 1198 1995 
Q 1094 1653 1094 1313 
Q 1094 881 1298 636 
Q 1503 391 1863 391 
Q 2134 391 2365 517 
Q 2597 644 2772 891 
Q 2950 1147 3059 1487 
Q 3169 1828 3169 2138 
z
M 1381 2969 
Q 1594 3256 1914 3420 
Q 2234 3584 2584 3584 
Q 3122 3584 3439 3221 
Q 3756 2859 3756 2241 
Q 3756 1734 3570 1259 
Q 3384 784 3041 416 
Q 2816 172 2522 40 
Q 2228 -91 1906 -91 
Q 1566 -91 1316 65 
Q 1066 222 909 531 
L 806 0 
L 231 0 
L 1178 4863 
L 1753 4863 
L 1381 2969 
z
" transform="scale(0.015625)"/>
      <path id="DejaVuSans-Oblique-42" d="M 1081 4666 
L 2694 4666 
Q 3350 4666 3675 4422 
Q 4000 4178 4000 3688 
Q 4000 3238 3720 2911 
Q 3441 2584 2988 2516 
Q 3375 2428 3569 2181 
Q 3763 1934 3763 1522 
Q 3763 819 3242 409 
Q 2722 0 1819 0 
L 172 0 
L 1081 4666 
z
M 1234 2228 
L 903 519 
L 1919 519 
Q 2491 519 2800 781 
Q 3109 1044 3109 1522 
Q 3109 1891 2904 2059 
Q 2700 2228 2247 2228 
L 1234 2228 
z
M 1606 4147 
L 1331 2741 
L 2272 2741 
Q 2775 2741 3058 2959 
Q 3341 3178 3341 3566 
Q 3341 3869 3150 4008 
Q 2959 4147 2541 4147 
L 1606 4147 
z
" transform="scale(0.015625)"/>
      <path id="DejaVuSans-Oblique-63" d="M 3431 3366 
L 3316 2797 
Q 3109 2947 2876 3022 
Q 2644 3097 2394 3097 
Q 2119 3097 1870 3000 
Q 1622 2903 1453 2725 
Q 1184 2453 1037 2087 
Q 891 1722 891 1331 
Q 891 859 1127 628 
Q 1363 397 1844 397 
Q 2081 397 2348 469 
Q 2616 541 2906 684 
L 2797 116 
Q 2547 13 2283 -39 
Q 2019 -91 1741 -91 
Q 1044 -91 669 257 
Q 294 606 294 1253 
Q 294 1797 489 2255 
Q 684 2713 1069 3078 
Q 1331 3328 1684 3456 
Q 2038 3584 2456 3584 
Q 2700 3584 2940 3529 
Q 3181 3475 3431 3366 
z
" transform="scale(0.015625)"/>
      <path id="DejaVuSans-Oblique-43" d="M 4447 4306 
L 4319 3641 
Q 4019 3944 3683 4091 
Q 3347 4238 2956 4238 
Q 2422 4238 2017 3981 
Q 1613 3725 1319 3200 
Q 1131 2863 1032 2486 
Q 934 2109 934 1728 
Q 934 1091 1264 756 
Q 1594 422 2222 422 
Q 2656 422 3056 561 
Q 3456 700 3834 978 
L 3688 231 
Q 3316 72 2936 -9 
Q 2556 -91 2175 -91 
Q 1278 -91 773 396 
Q 269 884 269 1753 
Q 269 2309 461 2846 
Q 653 3384 1013 3828 
Q 1394 4300 1883 4525 
Q 2372 4750 3022 4750 
Q 3422 4750 3780 4639 
Q 4138 4528 4447 4306 
z
" transform="scale(0.015625)"/>
      <path id="DejaVuSans-32" d="M 1228 531 
L 3431 531 
L 3431 0 
L 469 0 
L 469 531 
Q 828 903 1448 1529 
Q 2069 2156 2228 2338 
Q 2531 2678 2651 2914 
Q 2772 3150 2772 3378 
Q 2772 3750 2511 3984 
Q 2250 4219 1831 4219 
Q 1534 4219 1204 4116 
Q 875 4013 500 3803 
L 500 4441 
Q 881 4594 1212 4672 
Q 1544 4750 1819 4750 
Q 2544 4750 2975 4387 
Q 3406 4025 3406 3419 
Q 3406 3131 3298 2873 
Q 3191 2616 2906 2266 
Q 2828 2175 2409 1742 
Q 1991 1309 1228 531 
z
" transform="scale(0.015625)"/>
      <path id="DejaVuSans-Oblique-52" d="M 1613 4147 
L 1294 2491 
L 2106 2491 
Q 2584 2491 2879 2755 
Q 3175 3019 3175 3444 
Q 3175 3784 2976 3965 
Q 2778 4147 2406 4147 
L 1613 4147 
z
M 2772 2241 
Q 2972 2194 3105 2009 
Q 3238 1825 3413 1275 
L 3809 0 
L 3144 0 
L 2778 1197 
Q 2638 1659 2453 1815 
Q 2269 1972 1888 1972 
L 1191 1972 
L 806 0 
L 172 0 
L 1081 4666 
L 2503 4666 
Q 3150 4666 3495 4373 
Q 3841 4081 3841 3531 
Q 3841 3044 3547 2687 
Q 3253 2331 2772 2241 
z
" transform="scale(0.015625)"/>
     </defs>
     <use xlink:href="#DejaVuSans-Oblique-61" transform="translate(58 44.810938) scale(0.7)"/>
     <use xlink:href="#DejaVuSans-73" transform="translate(0 -40.623437) scale(0.7)"/>
     <use xlink:href="#DejaVuSans-69" transform="translate(36.469727 -40.623437) scale(0.7)"/>
     <use xlink:href="#DejaVuSans-6e" transform="translate(55.917969 -40.623437) scale(0.7)"/>
     <use xlink:href="#DejaVuSans-Oblique-41" transform="translate(111.648177 -40.623437) scale(0.7)"/>
     <use xlink:href="#DejaVuSans-3d" transform="translate(191.516341 0.01875)"/>
     <use xlink:href="#DejaVuSans-Oblique-62" transform="translate(352.787825 44.810938) scale(0.7)"/>
     <use xlink:href="#DejaVuSans-73" transform="translate(294.787825 -40.623437) scale(0.7)"/>
     <use xlink:href="#DejaVuSans-69" transform="translate(331.257552 -40.623437) scale(0.7)"/>
     <use xlink:href="#DejaVuSans-6e" transform="translate(350.705794 -40.623437) scale(0.7)"/>
     <use xlink:href="#DejaVuSans-Oblique-42" transform="translate(406.436001 -40.623437) scale(0.7)"/>
     <use xlink:href="#DejaVuSans-3d" transform="translate(486.440884 0.01875)"/>
     <use xlink:href="#DejaVuSans-Oblique-63" transform="translate(650.712369 44.810938) scale(0.7)"/>
     <use xlink:href="#DejaVuSans-73" transform="translate(589.712369 -40.623437) scale(0.7)"/>
     <use xlink:href="#DejaVuSans-69" transform="translate(626.182095 -40.623437) scale(0.7)"/>
     <use xlink:href="#DejaVuSans-6e" transform="translate(645.630337 -40.623437) scale(0.7)"/>
     <use xlink:href="#DejaVuSans-Oblique-43" transform="translate(701.360545 -40.623437) scale(0.7)"/>
     <use xlink:href="#DejaVuSans-3d" transform="translate(782.21992 0.01875)"/>
     <use xlink:href="#DejaVuSans-32" transform="translate(885.491405 0.01875)"/>
     <use xlink:href="#DejaVuSans-Oblique-52" transform="translate(949.114451 0.01875)"/>
     <path d="M 0 18.815625 
L 0 25.065625 
L 159.533919 25.065625 
L 159.533919 18.815625 
L 0 18.815625 
z
"/>
     <path d="M 294.787825 18.815625 
L 294.787825 25.065625 
L 454.458462 25.065625 
L 454.458462 18.815625 
L 294.787825 18.815625 
z
"/>
     <path d="M 589.712369 18.815625 
L 589.712369 25.065625 
L 750.237498 25.065625 
L 750.237498 18.815625 
L 589.712369 18.815625 
z
"/>
    </g>
   </g>
   <g id="text_14">
    <!-- Forma equivalente -->
    <g style="fill: #39c5bb" transform="translate(756.470786 230.481003) scale(0.1 -0.1)">
     <defs>
      <path id="SegoeUI-Bold-46" d="M 3103 3659 
L 1522 3659 
L 1522 2559 
L 2975 2559 
L 2975 1741 
L 1522 1741 
L 1522 0 
L 513 0 
L 513 4481 
L 3103 4481 
L 3103 3659 
z
" transform="scale(0.015625)"/>
      <path id="SegoeUI-Bold-6d" d="M 5497 0 
L 4513 0 
L 4513 1825 
Q 4513 2522 4000 2522 
Q 3756 2522 3603 2312 
Q 3450 2103 3450 1791 
L 3450 0 
L 2463 0 
L 2463 1844 
Q 2463 2522 1959 2522 
Q 1706 2522 1554 2322 
Q 1403 2122 1403 1778 
L 1403 0 
L 416 0 
L 416 3200 
L 1403 3200 
L 1403 2700 
L 1416 2700 
Q 1569 2956 1845 3117 
Q 2122 3278 2450 3278 
Q 3128 3278 3378 2681 
Q 3744 3278 4453 3278 
Q 5497 3278 5497 1991 
L 5497 0 
z
" transform="scale(0.015625)"/>
      <path id="SegoeUI-Bold-71" d="M 3547 -1472 
L 2559 -1472 
L 2559 441 
L 2547 441 
Q 2213 -78 1563 -78 
Q 959 -78 592 342 
Q 225 763 225 1522 
Q 225 2322 628 2800 
Q 1031 3278 1678 3278 
Q 2266 3278 2547 2828 
L 2559 2828 
L 2559 3200 
L 3547 3200 
L 3547 -1472 
z
M 2578 1528 
L 2578 1784 
Q 2578 2097 2397 2309 
Q 2216 2522 1931 2522 
Q 1603 2522 1415 2264 
Q 1228 2006 1228 1550 
Q 1228 1141 1411 909 
Q 1594 678 1888 678 
Q 2200 678 2389 912 
Q 2578 1147 2578 1528 
z
" transform="scale(0.015625)"/>
      <path id="SegoeUI-Bold-76" d="M 3463 3200 
L 2272 0 
L 1147 0 
L 13 3200 
L 1069 3200 
L 1625 1228 
Q 1719 894 1734 659 
L 1747 659 
Q 1769 881 1863 1209 
L 2431 3200 
L 3463 3200 
z
" transform="scale(0.015625)"/>
     </defs>
     <use xlink:href="#SegoeUI-Bold-46"/>
     <use xlink:href="#SegoeUI-Bold-6f" x="52.001953"/>
     <use xlink:href="#SegoeUI-Bold-72" x="113.134766"/>
     <use xlink:href="#SegoeUI-Bold-6d" x="153.179688"/>
     <use xlink:href="#SegoeUI-Bold-61" x="244.78125"/>
     <use xlink:href="#SegoeUI-Bold-20" x="298.589844"/>
     <use xlink:href="#SegoeUI-Bold-65" x="326.177734"/>
     <use xlink:href="#SegoeUI-Bold-71" x="380.279297"/>
     <use xlink:href="#SegoeUI-Bold-75" x="442.193359"/>
     <use xlink:href="#SegoeUI-Bold-69" x="502.691406"/>
     <use xlink:href="#SegoeUI-Bold-76" x="531.109375"/>
     <use xlink:href="#SegoeUI-Bold-61" x="583.808594"/>
     <use xlink:href="#SegoeUI-Bold-6c" x="637.617188"/>
     <use xlink:href="#SegoeUI-Bold-65" x="666.035156"/>
     <use xlink:href="#SegoeUI-Bold-6e" x="720.136719"/>
     <use xlink:href="#SegoeUI-Bold-74" x="780.634766"/>
     <use xlink:href="#SegoeUI-Bold-65" x="819.175781"/>
    </g>
   </g>
   <g id="text_15">
    <!-- $\frac{\sin A}{a} = \frac{\sin B}{b} = \frac{\sin C}{c}$ -->
    <g style="fill: #2c2f33" transform="translate(754.358755 280.01222) scale(0.12 -0.12)">
     <use xlink:href="#DejaVuSans-73" transform="translate(0 44.810938) scale(0.7)"/>
     <use xlink:href="#DejaVuSans-69" transform="translate(36.469727 44.810938) scale(0.7)"/>
     <use xlink:href="#DejaVuSans-6e" transform="translate(55.917969 44.810938) scale(0.7)"/>
     <use xlink:href="#DejaVuSans-Oblique-41" transform="translate(111.648177 44.810938) scale(0.7)"/>
     <use xlink:href="#DejaVuSans-Oblique-61" transform="translate(58 -26.634375) scale(0.7)"/>
     <use xlink:href="#DejaVuSans-3d" transform="translate(191.516341 0.01875)"/>
     <use xlink:href="#DejaVuSans-73" transform="translate(294.787825 44.810938) scale(0.7)"/>
     <use xlink:href="#DejaVuSans-69" transform="translate(331.257552 44.810938) scale(0.7)"/>
     <use xlink:href="#DejaVuSans-6e" transform="translate(350.705794 44.810938) scale(0.7)"/>
     <use xlink:href="#DejaVuSans-Oblique-42" transform="translate(406.436001 44.810938) scale(0.7)"/>
     <use xlink:href="#DejaVuSans-Oblique-62" transform="translate(352.787825 -40.623437) scale(0.7)"/>
     <use xlink:href="#DejaVuSans-3d" transform="translate(486.440884 0.01875)"/>
     <use xlink:href="#DejaVuSans-73" transform="translate(589.712369 44.810938) scale(0.7)"/>
     <use xlink:href="#DejaVuSans-69" transform="translate(626.182095 44.810938) scale(0.7)"/>
     <use xlink:href="#DejaVuSans-6e" transform="translate(645.630337 44.810938) scale(0.7)"/>
     <use xlink:href="#DejaVuSans-Oblique-43" transform="translate(701.360545 44.810938) scale(0.7)"/>
     <use xlink:href="#DejaVuSans-Oblique-63" transform="translate(650.712369 -26.634375) scale(0.7)"/>
     <path d="M 0 18.815625 
L 0 25.065625 
L 159.533919 25.065625 
L 159.533919 18.815625 
L 0 18.815625 
z
"/>
     <path d="M 294.787825 18.815625 
L 294.787825 25.065625 
L 454.458462 25.065625 
L 454.458462 18.815625 
L 294.787825 18.815625 
z
"/>
     <path d="M 589.712369 18.815625 
L 589.712369 25.065625 
L 750.237498 25.065625 
L 750.237498 18.815625 
L 589.712369 18.815625 
z
"/>
    </g>
   </g>
   <g id="text_16">
    <!-- Casos de Aplicación -->
    <g style="fill: #1f2937" transform="translate(753.86063 351.55731) scale(0.1 -0.1)">
     <defs>
      <path id="SegoeUI-Bold-64" d="M 3547 0 
L 2559 0 
L 2559 441 
L 2547 441 
Q 2209 -78 1556 -78 
Q 956 -78 590 345 
Q 225 769 225 1528 
Q 225 2322 628 2800 
Q 1031 3278 1684 3278 
Q 2303 3278 2547 2834 
L 2559 2834 
L 2559 4738 
L 3547 4738 
L 3547 0 
z
M 2578 1556 
L 2578 1797 
Q 2578 2109 2397 2315 
Q 2216 2522 1925 2522 
Q 1597 2522 1412 2264 
Q 1228 2006 1228 1556 
Q 1228 1134 1406 906 
Q 1584 678 1900 678 
Q 2200 678 2389 918 
Q 2578 1159 2578 1556 
z
" transform="scale(0.015625)"/>
      <path id="SegoeUI-Bold-70" d="M 1416 372 
L 1403 372 
L 1403 -1472 
L 416 -1472 
L 416 3200 
L 1403 3200 
L 1403 2719 
L 1416 2719 
Q 1781 3278 2444 3278 
Q 3066 3278 3405 2851 
Q 3744 2425 3744 1691 
Q 3744 891 3348 406 
Q 2953 -78 2297 -78 
Q 1719 -78 1416 372 
z
M 1388 1684 
L 1388 1428 
Q 1388 1097 1563 887 
Q 1738 678 2022 678 
Q 2359 678 2545 939 
Q 2731 1200 2731 1678 
Q 2731 2522 2075 2522 
Q 1772 2522 1580 2292 
Q 1388 2063 1388 1684 
z
" transform="scale(0.015625)"/>
      <path id="SegoeUI-Bold-f3" d="M 1941 -78 
Q 1141 -78 683 370 
Q 225 819 225 1588 
Q 225 2381 700 2829 
Q 1175 3278 1984 3278 
Q 2781 3278 3234 2829 
Q 3688 2381 3688 1644 
Q 3688 847 3220 384 
Q 2753 -78 1941 -78 
z
M 1966 2522 
Q 1616 2522 1422 2281 
Q 1228 2041 1228 1600 
Q 1228 678 1972 678 
Q 2681 678 2681 1625 
Q 2681 2522 1966 2522 
z
M 3023 4716 
L 2044 3706 
L 1332 3706 
L 2144 4716 
L 3023 4716 
z
" transform="scale(0.015625)"/>
     </defs>
     <use xlink:href="#SegoeUI-Bold-43"/>
     <use xlink:href="#SegoeUI-Bold-61" x="62.402344"/>
     <use xlink:href="#SegoeUI-Bold-73" x="116.210938"/>
     <use xlink:href="#SegoeUI-Bold-6f" x="160.205078"/>
     <use xlink:href="#SegoeUI-Bold-73" x="221.337891"/>
     <use xlink:href="#SegoeUI-Bold-20" x="265.332031"/>
     <use xlink:href="#SegoeUI-Bold-64" x="292.919922"/>
     <use xlink:href="#SegoeUI-Bold-65" x="354.833984"/>
     <use xlink:href="#SegoeUI-Bold-20" x="408.935547"/>
     <use xlink:href="#SegoeUI-Bold-41" x="436.523438"/>
     <use xlink:href="#SegoeUI-Bold-70" x="506.835938"/>
     <use xlink:href="#SegoeUI-Bold-6c" x="568.847656"/>
     <use xlink:href="#SegoeUI-Bold-69" x="597.265625"/>
     <use xlink:href="#SegoeUI-Bold-63" x="625.683594"/>
     <use xlink:href="#SegoeUI-Bold-61" x="673.681641"/>
     <use xlink:href="#SegoeUI-Bold-63" x="727.490234"/>
     <use xlink:href="#SegoeUI-Bold-69" x="775.488281"/>
     <use xlink:href="#SegoeUI-Bold-f3" x="803.90625"/>
     <use xlink:href="#SegoeUI-Bold-6e" x="864.990234"/>
    </g>
   </g>
   <g id="text_17">
    <!-- • ALA: Dos ángulos y un lado -->
    <g style="fill: #374151" transform="translate(624.527712 390.08159) scale(0.09 -0.09)">
     <defs>
      <path id="SegoeUI-2022" d="M 1306 1275 
Q 981 1275 747 1503 
Q 513 1731 513 2056 
Q 513 2378 747 2614 
Q 981 2850 1306 2850 
Q 1631 2850 1859 2615 
Q 2088 2381 2088 2056 
Q 2088 1731 1859 1503 
Q 1631 1275 1306 1275 
z
" transform="scale(0.015625)"/>
      <path id="SegoeUI-20" transform="scale(0.015625)"/>
      <path id="SegoeUI-41" d="M 4056 0 
L 3475 0 
L 3000 1256 
L 1100 1256 
L 653 0 
L 69 0 
L 1788 4481 
L 2331 4481 
L 4056 0 
z
M 2828 1728 
L 2125 3638 
Q 2091 3731 2056 3938 
L 2044 3938 
Q 2013 3747 1972 3638 
L 1275 1728 
L 2828 1728 
z
" transform="scale(0.015625)"/>
      <path id="SegoeUI-4c" d="M 2913 0 
L 588 0 
L 588 4481 
L 1113 4481 
L 1113 475 
L 2913 475 
L 2913 0 
z
" transform="scale(0.015625)"/>
      <path id="SegoeUI-3a" d="M 697 2575 
Q 553 2575 451 2678 
Q 350 2781 350 2925 
Q 350 3069 451 3169 
Q 553 3269 697 3269 
Q 844 3269 947 3169 
Q 1050 3069 1050 2925 
Q 1050 2781 947 2678 
Q 844 2575 697 2575 
z
M 697 -69 
Q 553 -69 451 34 
Q 350 138 350 281 
Q 350 425 451 529 
Q 553 634 697 634 
Q 844 634 947 529 
Q 1050 425 1050 281 
Q 1050 138 947 34 
Q 844 -69 697 -69 
z
" transform="scale(0.015625)"/>
      <path id="SegoeUI-44" d="M 588 0 
L 588 4481 
L 1825 4481 
Q 4194 4481 4194 2297 
Q 4194 1259 3536 629 
Q 2878 0 1775 0 
L 588 0 
z
M 1113 4006 
L 1113 475 
L 1781 475 
Q 2663 475 3153 947 
Q 3644 1419 3644 2284 
Q 3644 4006 1813 4006 
L 1113 4006 
z
" transform="scale(0.015625)"/>
      <path id="SegoeUI-6f" d="M 1856 -75 
Q 1147 -75 723 373 
Q 300 822 300 1563 
Q 300 2369 740 2822 
Q 1181 3275 1931 3275 
Q 2647 3275 3048 2834 
Q 3450 2394 3450 1613 
Q 3450 847 3017 386 
Q 2584 -75 1856 -75 
z
M 1894 2844 
Q 1400 2844 1112 2508 
Q 825 2172 825 1581 
Q 825 1013 1115 684 
Q 1406 356 1894 356 
Q 2391 356 2658 678 
Q 2925 1000 2925 1594 
Q 2925 2194 2658 2519 
Q 2391 2844 1894 2844 
z
" transform="scale(0.015625)"/>
      <path id="SegoeUI-73" d="M 325 116 
L 325 666 
Q 744 356 1247 356 
Q 1922 356 1922 806 
Q 1922 934 1864 1023 
Q 1806 1113 1707 1181 
Q 1609 1250 1476 1304 
Q 1344 1359 1191 1419 
Q 978 1503 817 1589 
Q 656 1675 548 1783 
Q 441 1891 386 2028 
Q 331 2166 331 2350 
Q 331 2575 434 2748 
Q 538 2922 709 3039 
Q 881 3156 1101 3215 
Q 1322 3275 1556 3275 
Q 1972 3275 2300 3131 
L 2300 2613 
Q 1947 2844 1488 2844 
Q 1344 2844 1228 2811 
Q 1113 2778 1030 2718 
Q 947 2659 901 2576 
Q 856 2494 856 2394 
Q 856 2269 901 2184 
Q 947 2100 1034 2034 
Q 1122 1969 1247 1916 
Q 1372 1863 1531 1800 
Q 1744 1719 1912 1633 
Q 2081 1547 2200 1439 
Q 2319 1331 2383 1190 
Q 2447 1050 2447 856 
Q 2447 619 2342 444 
Q 2238 269 2063 153 
Q 1888 38 1659 -18 
Q 1431 -75 1181 -75 
Q 688 -75 325 116 
z
" transform="scale(0.015625)"/>
      <path id="SegoeUI-e1" d="M 2809 0 
L 2297 0 
L 2297 500 
L 2284 500 
Q 1950 -75 1300 -75 
Q 822 -75 551 178 
Q 281 431 281 850 
Q 281 1747 1338 1894 
L 2297 2028 
Q 2297 2844 1638 2844 
Q 1059 2844 594 2450 
L 594 2975 
Q 1066 3275 1681 3275 
Q 2809 3275 2809 2081 
L 2809 0 
z
M 2297 1619 
L 1525 1513 
Q 1169 1463 987 1336 
Q 806 1209 806 888 
Q 806 653 973 504 
Q 1141 356 1419 356 
Q 1800 356 2048 623 
Q 2297 891 2297 1300 
L 2297 1619 
z
M 2366 4831 
L 1547 3806 
L 1150 3806 
L 1847 4831 
L 2366 4831 
z
" transform="scale(0.015625)"/>
      <path id="SegoeUI-6e" d="M 3175 0 
L 2663 0 
L 2663 1825 
Q 2663 2844 1919 2844 
Q 1534 2844 1282 2555 
Q 1031 2266 1031 1825 
L 1031 0 
L 519 0 
L 519 3200 
L 1031 3200 
L 1031 2669 
L 1044 2669 
Q 1406 3275 2094 3275 
Q 2619 3275 2897 2936 
Q 3175 2597 3175 1956 
L 3175 0 
z
" transform="scale(0.015625)"/>
      <path id="SegoeUI-67" d="M 3250 256 
Q 3250 -1506 1563 -1506 
Q 969 -1506 525 -1281 
L 525 -769 
Q 1066 -1069 1556 -1069 
Q 2738 -1069 2738 188 
L 2738 538 
L 2725 538 
Q 2359 -75 1625 -75 
Q 1028 -75 664 351 
Q 300 778 300 1497 
Q 300 2313 692 2794 
Q 1084 3275 1766 3275 
Q 2413 3275 2725 2756 
L 2738 2756 
L 2738 3200 
L 3250 3200 
L 3250 256 
z
M 2738 1447 
L 2738 1919 
Q 2738 2300 2480 2572 
Q 2222 2844 1838 2844 
Q 1363 2844 1094 2498 
Q 825 2153 825 1531 
Q 825 997 1083 676 
Q 1341 356 1766 356 
Q 2197 356 2467 662 
Q 2738 969 2738 1447 
z
" transform="scale(0.015625)"/>
      <path id="SegoeUI-75" d="M 3106 0 
L 2594 0 
L 2594 506 
L 2581 506 
Q 2263 -75 1594 -75 
Q 450 -75 450 1288 
L 450 3200 
L 959 3200 
L 959 1369 
Q 959 356 1734 356 
Q 2109 356 2351 632 
Q 2594 909 2594 1356 
L 2594 3200 
L 3106 3200 
L 3106 0 
z
" transform="scale(0.015625)"/>
      <path id="SegoeUI-6c" d="M 1031 0 
L 519 0 
L 519 4738 
L 1031 4738 
L 1031 0 
z
" transform="scale(0.015625)"/>
      <path id="SegoeUI-79" d="M 3066 3200 
L 1594 -513 
Q 1200 -1506 488 -1506 
Q 288 -1506 153 -1466 
L 153 -1006 
Q 319 -1063 456 -1063 
Q 844 -1063 1038 -600 
L 1294 6 
L 44 3200 
L 613 3200 
L 1478 738 
Q 1494 691 1544 494 
L 1563 494 
Q 1578 569 1625 731 
L 2534 3200 
L 3066 3200 
z
" transform="scale(0.015625)"/>
      <path id="SegoeUI-61" d="M 2809 0 
L 2297 0 
L 2297 500 
L 2284 500 
Q 1950 -75 1300 -75 
Q 822 -75 551 178 
Q 281 431 281 850 
Q 281 1747 1338 1894 
L 2297 2028 
Q 2297 2844 1638 2844 
Q 1059 2844 594 2450 
L 594 2975 
Q 1066 3275 1681 3275 
Q 2809 3275 2809 2081 
L 2809 0 
z
M 2297 1619 
L 1525 1513 
Q 1169 1463 987 1336 
Q 806 1209 806 888 
Q 806 653 973 504 
Q 1141 356 1419 356 
Q 1800 356 2048 623 
Q 2297 891 2297 1300 
L 2297 1619 
z
" transform="scale(0.015625)"/>
      <path id="SegoeUI-64" d="M 3250 0 
L 2738 0 
L 2738 544 
L 2725 544 
Q 2369 -75 1625 -75 
Q 1022 -75 661 354 
Q 300 784 300 1525 
Q 300 2319 700 2797 
Q 1100 3275 1766 3275 
Q 2425 3275 2725 2756 
L 2738 2756 
L 2738 4738 
L 3250 4738 
L 3250 0 
z
M 2738 1447 
L 2738 1919 
Q 2738 2306 2481 2575 
Q 2225 2844 1831 2844 
Q 1363 2844 1094 2500 
Q 825 2156 825 1550 
Q 825 997 1083 676 
Q 1341 356 1775 356 
Q 2203 356 2470 665 
Q 2738 975 2738 1447 
z
" transform="scale(0.015625)"/>
     </defs>
     <use xlink:href="#SegoeUI-2022"/>
     <use xlink:href="#SegoeUI-20" x="40.625"/>
     <use xlink:href="#SegoeUI-41" x="68.017578"/>
     <use xlink:href="#SegoeUI-4c" x="132.519531"/>
     <use xlink:href="#SegoeUI-41" x="182.464844"/>
     <use xlink:href="#SegoeUI-3a" x="246.966797"/>
     <use xlink:href="#SegoeUI-20" x="268.646484"/>
     <use xlink:href="#SegoeUI-44" x="296.039062"/>
     <use xlink:href="#SegoeUI-6f" x="366.15625"/>
     <use xlink:href="#SegoeUI-73" x="424.75"/>
     <use xlink:href="#SegoeUI-20" x="467.181641"/>
     <use xlink:href="#SegoeUI-e1" x="494.574219"/>
     <use xlink:href="#SegoeUI-6e" x="545.453125"/>
     <use xlink:href="#SegoeUI-67" x="602.044922"/>
     <use xlink:href="#SegoeUI-75" x="660.931641"/>
     <use xlink:href="#SegoeUI-6c" x="717.523438"/>
     <use xlink:href="#SegoeUI-6f" x="741.742188"/>
     <use xlink:href="#SegoeUI-73" x="800.335938"/>
     <use xlink:href="#SegoeUI-20" x="842.767578"/>
     <use xlink:href="#SegoeUI-79" x="870.160156"/>
     <use xlink:href="#SegoeUI-20" x="918.548828"/>
     <use xlink:href="#SegoeUI-75" x="945.941406"/>
     <use xlink:href="#SegoeUI-6e" x="1002.533203"/>
     <use xlink:href="#SegoeUI-20" x="1059.125"/>
     <use xlink:href="#SegoeUI-6c" x="1086.517578"/>
     <use xlink:href="#SegoeUI-61" x="1110.736328"/>
     <use xlink:href="#SegoeUI-64" x="1161.615234"/>
     <use xlink:href="#SegoeUI-6f" x="1220.501953"/>
    </g>
   </g>
   <g id="text_18">
    <!-- • LAA: Un lado y dos ángulos -->
    <g style="fill: #374151" transform="translate(624.527712 425.854136) scale(0.09 -0.09)">
     <defs>
      <path id="SegoeUI-55" d="M 3866 1813 
Q 3866 -75 2163 -75 
Q 531 -75 531 1741 
L 531 4481 
L 1056 4481 
L 1056 1775 
Q 1056 397 2219 397 
Q 3341 397 3341 1728 
L 3341 4481 
L 3866 4481 
L 3866 1813 
z
" transform="scale(0.015625)"/>
     </defs>
     <use xlink:href="#SegoeUI-2022"/>
     <use xlink:href="#SegoeUI-20" x="40.625"/>
     <use xlink:href="#SegoeUI-4c" x="68.017578"/>
     <use xlink:href="#SegoeUI-41" x="117.962891"/>
     <use xlink:href="#SegoeUI-41" x="182.464844"/>
     <use xlink:href="#SegoeUI-3a" x="246.966797"/>
     <use xlink:href="#SegoeUI-20" x="268.646484"/>
     <use xlink:href="#SegoeUI-55" x="296.039062"/>
     <use xlink:href="#SegoeUI-6e" x="364.740234"/>
     <use xlink:href="#SegoeUI-20" x="421.332031"/>
     <use xlink:href="#SegoeUI-6c" x="448.724609"/>
     <use xlink:href="#SegoeUI-61" x="472.943359"/>
     <use xlink:href="#SegoeUI-64" x="523.822266"/>
     <use xlink:href="#SegoeUI-6f" x="582.708984"/>
     <use xlink:href="#SegoeUI-20" x="641.302734"/>
     <use xlink:href="#SegoeUI-79" x="668.695312"/>
     <use xlink:href="#SegoeUI-20" x="717.083984"/>
     <use xlink:href="#SegoeUI-64" x="744.476562"/>
     <use xlink:href="#SegoeUI-6f" x="803.363281"/>
     <use xlink:href="#SegoeUI-73" x="861.957031"/>
     <use xlink:href="#SegoeUI-20" x="904.388672"/>
     <use xlink:href="#SegoeUI-e1" x="931.78125"/>
     <use xlink:href="#SegoeUI-6e" x="982.660156"/>
     <use xlink:href="#SegoeUI-67" x="1039.251953"/>
     <use xlink:href="#SegoeUI-75" x="1098.138672"/>
     <use xlink:href="#SegoeUI-6c" x="1154.730469"/>
     <use xlink:href="#SegoeUI-6f" x="1178.949219"/>
     <use xlink:href="#SegoeUI-73" x="1237.542969"/>
    </g>
   </g>
   <g id="text_19">
    <!-- • LLA: Dos lados y ángulo opuesto -->
    <g style="fill: #374151" transform="translate(624.527712 461.626681) scale(0.09 -0.09)">
     <defs>
      <path id="SegoeUI-70" d="M 1044 463 
L 1031 463 
L 1031 -1472 
L 519 -1472 
L 519 3200 
L 1031 3200 
L 1031 2638 
L 1044 2638 
Q 1422 3275 2150 3275 
Q 2769 3275 3116 2845 
Q 3463 2416 3463 1694 
Q 3463 891 3072 408 
Q 2681 -75 2003 -75 
Q 1381 -75 1044 463 
z
M 1031 1753 
L 1031 1306 
Q 1031 909 1289 632 
Q 1547 356 1944 356 
Q 2409 356 2673 712 
Q 2938 1069 2938 1703 
Q 2938 2238 2691 2541 
Q 2444 2844 2022 2844 
Q 1575 2844 1303 2533 
Q 1031 2222 1031 1753 
z
" transform="scale(0.015625)"/>
      <path id="SegoeUI-65" d="M 3091 1472 
L 831 1472 
Q 844 938 1119 647 
Q 1394 356 1875 356 
Q 2416 356 2869 713 
L 2869 231 
Q 2447 -75 1753 -75 
Q 1075 -75 687 361 
Q 300 797 300 1588 
Q 300 2334 723 2804 
Q 1147 3275 1775 3275 
Q 2403 3275 2747 2869 
Q 3091 2463 3091 1741 
L 3091 1472 
z
M 2566 1906 
Q 2563 2350 2352 2597 
Q 2141 2844 1766 2844 
Q 1403 2844 1150 2584 
Q 897 2325 838 1906 
L 2566 1906 
z
" transform="scale(0.015625)"/>
      <path id="SegoeUI-74" d="M 2003 31 
Q 1822 -69 1525 -69 
Q 684 -69 684 869 
L 684 2763 
L 134 2763 
L 134 3200 
L 684 3200 
L 684 3981 
L 1197 4147 
L 1197 3200 
L 2003 3200 
L 2003 2763 
L 1197 2763 
L 1197 959 
Q 1197 638 1306 500 
Q 1416 363 1669 363 
Q 1863 363 2003 469 
L 2003 31 
z
" transform="scale(0.015625)"/>
     </defs>
     <use xlink:href="#SegoeUI-2022"/>
     <use xlink:href="#SegoeUI-20" x="40.625"/>
     <use xlink:href="#SegoeUI-4c" x="68.017578"/>
     <use xlink:href="#SegoeUI-4c" x="115.087891"/>
     <use xlink:href="#SegoeUI-41" x="165.033203"/>
     <use xlink:href="#SegoeUI-3a" x="229.535156"/>
     <use xlink:href="#SegoeUI-20" x="251.214844"/>
     <use xlink:href="#SegoeUI-44" x="278.607422"/>
     <use xlink:href="#SegoeUI-6f" x="348.724609"/>
     <use xlink:href="#SegoeUI-73" x="407.318359"/>
     <use xlink:href="#SegoeUI-20" x="449.75"/>
     <use xlink:href="#SegoeUI-6c" x="477.142578"/>
     <use xlink:href="#SegoeUI-61" x="501.361328"/>
     <use xlink:href="#SegoeUI-64" x="552.240234"/>
     <use xlink:href="#SegoeUI-6f" x="611.126953"/>
     <use xlink:href="#SegoeUI-73" x="669.720703"/>
     <use xlink:href="#SegoeUI-20" x="712.152344"/>
     <use xlink:href="#SegoeUI-79" x="739.544922"/>
     <use xlink:href="#SegoeUI-20" x="787.933594"/>
     <use xlink:href="#SegoeUI-e1" x="815.326172"/>
     <use xlink:href="#SegoeUI-6e" x="866.205078"/>
     <use xlink:href="#SegoeUI-67" x="922.796875"/>
     <use xlink:href="#SegoeUI-75" x="981.683594"/>
     <use xlink:href="#SegoeUI-6c" x="1038.275391"/>
     <use xlink:href="#SegoeUI-6f" x="1062.494141"/>
     <use xlink:href="#SegoeUI-20" x="1121.087891"/>
     <use xlink:href="#SegoeUI-6f" x="1148.480469"/>
     <use xlink:href="#SegoeUI-70" x="1207.074219"/>
     <use xlink:href="#SegoeUI-75" x="1265.863281"/>
     <use xlink:href="#SegoeUI-65" x="1322.455078"/>
     <use xlink:href="#SegoeUI-73" x="1374.75"/>
     <use xlink:href="#SegoeUI-74" x="1417.181641"/>
     <use xlink:href="#SegoeUI-6f" x="1450.318359"/>
    </g>
   </g>
   <g id="text_20">
    <!--   (caso ambiguo) -->
    <g style="fill: #374151" transform="translate(624.527712 497.399226) scale(0.09 -0.09)">
     <defs>
      <path id="SegoeUI-28" d="M 1863 -1019 
L 1406 -1019 
Q 438 88 438 1709 
Q 438 3338 1406 4481 
L 1869 4481 
Q 888 3294 888 1716 
Q 888 150 1863 -1019 
z
" transform="scale(0.015625)"/>
      <path id="SegoeUI-63" d="M 2700 147 
Q 2331 -75 1825 -75 
Q 1141 -75 720 370 
Q 300 816 300 1525 
Q 300 2316 753 2795 
Q 1206 3275 1963 3275 
Q 2384 3275 2706 3119 
L 2706 2594 
Q 2350 2844 1944 2844 
Q 1453 2844 1139 2492 
Q 825 2141 825 1569 
Q 825 1006 1120 681 
Q 1416 356 1913 356 
Q 2331 356 2700 634 
L 2700 147 
z
" transform="scale(0.015625)"/>
      <path id="SegoeUI-6d" d="M 5063 0 
L 4550 0 
L 4550 1838 
Q 4550 2369 4386 2606 
Q 4222 2844 3834 2844 
Q 3506 2844 3276 2544 
Q 3047 2244 3047 1825 
L 3047 0 
L 2534 0 
L 2534 1900 
Q 2534 2844 1806 2844 
Q 1469 2844 1250 2561 
Q 1031 2278 1031 1825 
L 1031 0 
L 519 0 
L 519 3200 
L 1031 3200 
L 1031 2694 
L 1044 2694 
Q 1384 3275 2038 3275 
Q 2366 3275 2609 3092 
Q 2853 2909 2944 2613 
Q 3300 3275 4006 3275 
Q 5063 3275 5063 1972 
L 5063 0 
z
" transform="scale(0.015625)"/>
      <path id="SegoeUI-62" d="M 1044 463 
L 1031 463 
L 1031 0 
L 519 0 
L 519 4738 
L 1031 4738 
L 1031 2638 
L 1044 2638 
Q 1422 3275 2150 3275 
Q 2766 3275 3114 2845 
Q 3463 2416 3463 1694 
Q 3463 891 3072 408 
Q 2681 -75 2003 -75 
Q 1369 -75 1044 463 
z
M 1031 1753 
L 1031 1306 
Q 1031 909 1289 632 
Q 1547 356 1944 356 
Q 2409 356 2673 712 
Q 2938 1069 2938 1703 
Q 2938 2238 2691 2541 
Q 2444 2844 2022 2844 
Q 1575 2844 1303 2533 
Q 1031 2222 1031 1753 
z
" transform="scale(0.015625)"/>
      <path id="SegoeUI-69" d="M 781 4013 
Q 644 4013 547 4106 
Q 450 4200 450 4344 
Q 450 4488 547 4583 
Q 644 4678 781 4678 
Q 922 4678 1020 4583 
Q 1119 4488 1119 4344 
Q 1119 4206 1020 4109 
Q 922 4013 781 4013 
z
M 1031 0 
L 519 0 
L 519 3200 
L 1031 3200 
L 1031 0 
z
" transform="scale(0.015625)"/>
      <path id="SegoeUI-29" d="M 531 -1019 
L 75 -1019 
Q 1050 150 1050 1716 
Q 1050 3294 69 4481 
L 531 4481 
Q 1506 3338 1506 1709 
Q 1506 88 531 -1019 
z
" transform="scale(0.015625)"/>
     </defs>
     <use xlink:href="#SegoeUI-20"/>
     <use xlink:href="#SegoeUI-20" x="27.392578"/>
     <use xlink:href="#SegoeUI-28" x="54.785156"/>
     <use xlink:href="#SegoeUI-63" x="84.960938"/>
     <use xlink:href="#SegoeUI-61" x="131.152344"/>
     <use xlink:href="#SegoeUI-73" x="182.03125"/>
     <use xlink:href="#SegoeUI-6f" x="224.462891"/>
     <use xlink:href="#SegoeUI-20" x="283.056641"/>
     <use xlink:href="#SegoeUI-61" x="310.449219"/>
     <use xlink:href="#SegoeUI-6d" x="361.328125"/>
     <use xlink:href="#SegoeUI-62" x="447.460938"/>
     <use xlink:href="#SegoeUI-69" x="506.25"/>
     <use xlink:href="#SegoeUI-67" x="530.46875"/>
     <use xlink:href="#SegoeUI-75" x="589.355469"/>
     <use xlink:href="#SegoeUI-6f" x="645.947266"/>
     <use xlink:href="#SegoeUI-29" x="704.541016"/>
    </g>
   </g>
   <g id="text_21">
    <!-- R = radio de la circunferencia circunscrita -->
    <g style="fill: #6b7280" transform="translate(719.633755 560.689114) scale(0.09 -0.09)">
     <defs>
      <path id="SegoeUI-Italic-20" transform="scale(0.015625)"/>
      <path id="SegoeUI-Italic-3d" d="M 800 2322 
L 800 2741 
L 3738 2741 
L 3738 2322 
L 800 2322 
z
M 800 991 
L 800 1409 
L 3738 1409 
L 3738 991 
L 800 991 
z
" transform="scale(0.015625)"/>
      <path id="SegoeUI-Italic-72" d="M 2394 2656 
L 2381 2656 
Q 2319 2694 2217 2730 
Q 2116 2766 2016 2766 
Q 1834 2766 1668 2648 
Q 1503 2531 1367 2339 
Q 1231 2147 1129 1900 
Q 1028 1653 972 1394 
L 672 0 
L 159 0 
L 609 2125 
Q 638 2256 666 2400 
Q 694 2544 717 2687 
Q 741 2831 759 2962 
Q 778 3094 788 3200 
L 1294 3200 
Q 1284 3106 1271 3001 
Q 1259 2897 1246 2798 
Q 1234 2700 1221 2620 
Q 1209 2541 1203 2497 
L 1216 2497 
Q 1316 2675 1419 2819 
Q 1522 2963 1636 3064 
Q 1750 3166 1878 3222 
Q 2006 3278 2156 3278 
Q 2244 3278 2330 3261 
Q 2416 3244 2484 3225 
L 2394 2656 
z
" transform="scale(0.015625)"/>
      <path id="SegoeUI-Italic-61" d="M 2828 1025 
Q 2803 906 2779 757 
Q 2756 609 2739 464 
Q 2722 319 2711 194 
Q 2700 69 2700 0 
L 2169 0 
Q 2172 63 2178 150 
Q 2184 238 2195 331 
Q 2206 425 2217 515 
Q 2228 606 2241 672 
L 2228 672 
Q 2131 519 2031 383 
Q 1931 247 1809 144 
Q 1688 41 1538 -18 
Q 1388 -78 1184 -78 
Q 975 -78 801 -3 
Q 628 72 503 220 
Q 378 369 311 592 
Q 244 816 244 1113 
Q 244 1294 281 1525 
Q 319 1756 408 1997 
Q 497 2238 645 2467 
Q 794 2697 1014 2878 
Q 1234 3059 1534 3168 
Q 1834 3278 2228 3278 
Q 2478 3278 2743 3240 
Q 3009 3203 3272 3150 
L 2828 1025 
z
M 2681 2778 
Q 2572 2803 2425 2822 
Q 2278 2841 2150 2841 
Q 1878 2841 1670 2755 
Q 1463 2669 1309 2530 
Q 1156 2391 1051 2209 
Q 947 2028 884 1839 
Q 822 1650 795 1465 
Q 769 1281 769 1131 
Q 769 953 800 811 
Q 831 669 898 569 
Q 966 469 1070 414 
Q 1175 359 1319 359 
Q 1475 359 1611 423 
Q 1747 488 1865 597 
Q 1984 706 2081 850 
Q 2178 994 2256 1155 
Q 2334 1316 2389 1483 
Q 2444 1650 2478 1806 
L 2681 2778 
z
" transform="scale(0.015625)"/>
      <path id="SegoeUI-Italic-64" d="M 2816 984 
Q 2794 884 2773 743 
Q 2753 603 2737 461 
Q 2722 319 2711 194 
Q 2700 69 2700 0 
L 2169 0 
Q 2169 53 2176 142 
Q 2184 231 2195 328 
Q 2206 425 2218 514 
Q 2231 603 2241 659 
L 2228 659 
Q 2116 478 2003 339 
Q 1891 200 1766 108 
Q 1641 16 1500 -31 
Q 1359 -78 1191 -78 
Q 972 -78 797 0 
Q 622 78 498 229 
Q 375 381 309 604 
Q 244 828 244 1119 
Q 244 1350 292 1600 
Q 341 1850 442 2090 
Q 544 2331 700 2547 
Q 856 2763 1072 2925 
Q 1288 3088 1566 3183 
Q 1844 3278 2188 3278 
Q 2363 3278 2513 3254 
Q 2663 3231 2772 3206 
L 3097 4738 
L 3603 4738 
L 2816 984 
z
M 2681 2766 
Q 2563 2800 2433 2820 
Q 2303 2841 2156 2841 
Q 1884 2841 1676 2756 
Q 1469 2672 1314 2531 
Q 1159 2391 1054 2211 
Q 950 2031 886 1842 
Q 822 1653 795 1470 
Q 769 1288 769 1141 
Q 769 966 798 822 
Q 828 678 895 575 
Q 963 472 1069 415 
Q 1175 359 1325 359 
Q 1481 359 1617 425 
Q 1753 491 1872 603 
Q 1991 716 2087 862 
Q 2184 1009 2262 1175 
Q 2341 1341 2395 1511 
Q 2450 1681 2484 1838 
L 2681 2766 
z
" transform="scale(0.015625)"/>
      <path id="SegoeUI-Italic-69" d="M 1300 13 
Q 1222 -13 1123 -28 
Q 1025 -44 928 -44 
Q 613 -44 456 114 
Q 300 272 300 538 
Q 300 616 315 722 
Q 331 828 366 984 
L 831 3200 
L 1350 3200 
L 881 972 
Q 853 841 842 769 
Q 831 697 831 647 
Q 831 519 901 451 
Q 972 384 1125 384 
Q 1206 384 1267 393 
Q 1328 403 1381 422 
L 1300 13 
z
M 1666 4341 
Q 1666 4200 1570 4100 
Q 1475 4000 1334 4000 
Q 1197 4000 1095 4098 
Q 994 4197 994 4341 
Q 994 4484 1095 4575 
Q 1197 4666 1334 4666 
Q 1472 4666 1569 4573 
Q 1666 4481 1666 4341 
z
" transform="scale(0.015625)"/>
      <path id="SegoeUI-Italic-6f" d="M 3181 2016 
Q 3181 1591 3061 1209 
Q 2941 828 2714 542 
Q 2488 256 2164 89 
Q 1841 -78 1434 -78 
Q 1159 -78 939 9 
Q 719 97 564 261 
Q 409 425 326 658 
Q 244 891 244 1184 
Q 244 1625 370 2008 
Q 497 2391 726 2673 
Q 956 2956 1276 3117 
Q 1597 3278 1984 3278 
Q 2256 3278 2476 3190 
Q 2697 3103 2853 2939 
Q 3009 2775 3095 2542 
Q 3181 2309 3181 2016 
z
M 2656 1991 
Q 2656 2194 2606 2351 
Q 2556 2509 2465 2617 
Q 2375 2725 2247 2783 
Q 2119 2841 1959 2841 
Q 1684 2841 1462 2700 
Q 1241 2559 1087 2329 
Q 934 2100 851 1808 
Q 769 1516 769 1209 
Q 769 1016 817 858 
Q 866 700 955 589 
Q 1044 478 1173 418 
Q 1303 359 1466 359 
Q 1744 359 1966 498 
Q 2188 638 2341 867 
Q 2494 1097 2575 1390 
Q 2656 1684 2656 1991 
z
" transform="scale(0.015625)"/>
      <path id="SegoeUI-Italic-65" d="M 2994 2450 
Q 2994 2197 2881 1989 
Q 2769 1781 2509 1632 
Q 2250 1484 1825 1403 
Q 1400 1322 775 1319 
Q 769 1284 769 1247 
Q 769 1213 769 1184 
Q 769 1016 816 866 
Q 863 716 961 603 
Q 1059 491 1214 425 
Q 1369 359 1581 359 
Q 1797 359 2055 442 
Q 2313 525 2547 678 
L 2450 172 
Q 2278 72 2040 -3 
Q 1803 -78 1509 -78 
Q 1156 -78 914 31 
Q 672 141 523 323 
Q 375 506 309 745 
Q 244 984 244 1247 
Q 244 1528 306 1789 
Q 369 2050 483 2275 
Q 597 2500 756 2686 
Q 916 2872 1109 3003 
Q 1303 3134 1525 3206 
Q 1747 3278 1984 3278 
Q 2231 3278 2420 3212 
Q 2609 3147 2736 3033 
Q 2863 2919 2928 2769 
Q 2994 2619 2994 2450 
z
M 2472 2425 
Q 2472 2622 2326 2731 
Q 2181 2841 1941 2841 
Q 1750 2841 1572 2758 
Q 1394 2675 1244 2529 
Q 1094 2384 984 2182 
Q 875 1981 825 1747 
Q 1272 1747 1584 1792 
Q 1897 1838 2094 1925 
Q 2291 2013 2381 2139 
Q 2472 2266 2472 2425 
z
" transform="scale(0.015625)"/>
      <path id="SegoeUI-Italic-6c" d="M 1300 13 
Q 1222 -13 1123 -28 
Q 1025 -44 928 -44 
Q 613 -44 456 114 
Q 300 272 300 538 
Q 300 616 315 722 
Q 331 828 366 984 
L 1166 4741 
L 1684 4741 
L 881 972 
Q 853 841 842 769 
Q 831 697 831 647 
Q 831 519 901 451 
Q 972 384 1125 384 
Q 1206 384 1267 393 
Q 1328 403 1381 422 
L 1300 13 
z
" transform="scale(0.015625)"/>
      <path id="SegoeUI-Italic-63" d="M 2700 2566 
Q 2569 2681 2383 2761 
Q 2197 2841 1972 2841 
Q 1756 2841 1582 2766 
Q 1409 2691 1275 2566 
Q 1141 2441 1044 2278 
Q 947 2116 884 1941 
Q 822 1766 792 1592 
Q 763 1419 763 1269 
Q 763 822 959 590 
Q 1156 359 1497 359 
Q 1703 359 1925 445 
Q 2147 531 2344 666 
L 2234 153 
Q 2031 44 1829 -17 
Q 1628 -78 1403 -78 
Q 1109 -78 892 22 
Q 675 122 531 297 
Q 388 472 316 711 
Q 244 950 244 1228 
Q 244 1491 297 1745 
Q 350 2000 454 2226 
Q 559 2453 712 2647 
Q 866 2841 1064 2980 
Q 1263 3119 1506 3198 
Q 1750 3278 2034 3278 
Q 2169 3278 2291 3259 
Q 2413 3241 2513 3209 
Q 2613 3178 2691 3142 
Q 2769 3106 2816 3072 
L 2700 2566 
z
" transform="scale(0.015625)"/>
      <path id="SegoeUI-Italic-75" d="M 2906 909 
Q 2878 788 2854 656 
Q 2831 525 2809 403 
Q 2788 281 2772 175 
Q 2756 69 2747 0 
L 2247 0 
Q 2263 122 2283 255 
Q 2303 388 2322 500 
Q 2344 631 2363 756 
L 2350 756 
Q 2241 584 2108 432 
Q 1975 281 1820 167 
Q 1666 53 1492 -12 
Q 1319 -78 1131 -78 
Q 925 -78 770 -14 
Q 616 50 512 165 
Q 409 281 357 443 
Q 306 606 306 806 
Q 306 847 318 928 
Q 331 1009 347 1103 
Q 363 1197 383 1289 
Q 403 1381 416 1447 
L 788 3200 
L 1306 3200 
L 909 1325 
Q 897 1275 884 1209 
Q 872 1144 861 1078 
Q 850 1013 844 958 
Q 838 903 838 872 
Q 838 638 952 498 
Q 1066 359 1294 359 
Q 1431 359 1568 415 
Q 1706 472 1836 567 
Q 1966 663 2081 789 
Q 2197 916 2290 1058 
Q 2384 1200 2450 1350 
Q 2516 1500 2547 1638 
L 2881 3200 
L 3397 3200 
L 2906 909 
z
" transform="scale(0.015625)"/>
      <path id="SegoeUI-Italic-6e" d="M 3269 2400 
Q 3269 2353 3258 2272 
Q 3247 2191 3230 2097 
Q 3213 2003 3195 1911 
Q 3178 1819 3163 1753 
L 2791 0 
L 2272 0 
L 2663 1875 
Q 2675 1925 2687 1990 
Q 2700 2056 2709 2122 
Q 2719 2188 2725 2242 
Q 2731 2297 2731 2328 
Q 2731 2566 2617 2703 
Q 2503 2841 2278 2841 
Q 2072 2841 1869 2719 
Q 1666 2597 1494 2409 
Q 1322 2222 1198 1997 
Q 1075 1772 1031 1563 
L 697 0 
L 178 0 
L 672 2284 
Q 697 2406 722 2539 
Q 747 2672 769 2795 
Q 791 2919 806 3025 
Q 822 3131 831 3200 
L 1331 3200 
Q 1316 3078 1294 2945 
Q 1272 2813 1256 2700 
Q 1238 2569 1216 2444 
L 1228 2444 
Q 1338 2616 1470 2767 
Q 1603 2919 1758 3033 
Q 1913 3147 2086 3212 
Q 2259 3278 2450 3278 
Q 2663 3278 2816 3214 
Q 2969 3150 3070 3034 
Q 3172 2919 3220 2756 
Q 3269 2594 3269 2400 
z
" transform="scale(0.015625)"/>
      <path id="SegoeUI-Italic-66" d="M 2572 4294 
Q 2541 4309 2497 4323 
Q 2453 4338 2403 4350 
Q 2353 4363 2298 4370 
Q 2244 4378 2194 4378 
Q 1938 4378 1798 4211 
Q 1659 4044 1588 3713 
L 1472 3200 
L 2228 3200 
L 2125 2766 
L 1369 2766 
L 550 -1063 
L 31 -1063 
L 856 2766 
L 306 2766 
L 403 3200 
L 953 3200 
L 1081 3794 
Q 1141 4069 1247 4262 
Q 1353 4456 1500 4578 
Q 1647 4700 1833 4756 
Q 2019 4813 2241 4813 
Q 2356 4813 2467 4794 
Q 2578 4775 2656 4750 
L 2572 4294 
z
" transform="scale(0.015625)"/>
      <path id="SegoeUI-Italic-73" d="M 2266 2638 
Q 2125 2728 1950 2784 
Q 1775 2841 1600 2841 
Q 1306 2841 1145 2706 
Q 984 2572 984 2350 
Q 984 2259 1014 2184 
Q 1044 2109 1101 2042 
Q 1159 1975 1248 1912 
Q 1338 1850 1453 1778 
Q 1803 1575 1958 1361 
Q 2113 1147 2113 878 
Q 2113 697 2045 523 
Q 1978 350 1831 217 
Q 1684 84 1451 3 
Q 1219 -78 884 -78 
Q 791 -78 678 -65 
Q 566 -53 452 -28 
Q 338 -3 233 33 
Q 128 69 50 116 
L 153 603 
Q 216 559 308 515 
Q 400 472 508 437 
Q 616 403 733 381 
Q 850 359 966 359 
Q 1278 359 1433 484 
Q 1588 609 1588 831 
Q 1588 913 1564 981 
Q 1541 1050 1481 1119 
Q 1422 1188 1325 1258 
Q 1228 1328 1081 1416 
Q 763 1609 611 1820 
Q 459 2031 459 2297 
Q 459 2491 531 2667 
Q 603 2844 745 2980 
Q 888 3116 1103 3197 
Q 1319 3278 1606 3278 
Q 1831 3278 2032 3234 
Q 2234 3191 2375 3122 
L 2266 2638 
z
" transform="scale(0.015625)"/>
      <path id="SegoeUI-Italic-74" d="M 2156 2766 
L 1350 2766 
L 991 1069 
Q 972 972 953 859 
Q 934 747 934 678 
Q 934 519 1004 448 
Q 1075 378 1228 378 
Q 1266 378 1325 390 
Q 1384 403 1446 422 
Q 1509 441 1570 464 
Q 1631 488 1678 506 
L 1581 56 
Q 1472 9 1333 -23 
Q 1194 -56 1069 -56 
Q 891 -56 766 -11 
Q 641 34 561 118 
Q 481 203 445 323 
Q 409 444 409 594 
Q 409 684 426 804 
Q 444 925 469 1025 
L 838 2766 
L 306 2766 
L 403 3200 
L 928 3200 
L 1094 3981 
Q 1106 3988 1189 4011 
Q 1272 4034 1370 4064 
Q 1469 4094 1551 4119 
Q 1634 4144 1644 4147 
L 1447 3200 
L 2253 3200 
L 2156 2766 
z
" transform="scale(0.015625)"/>
     </defs>
     <use xlink:href="#SegoeUI-Italic-52"/>
     <use xlink:href="#SegoeUI-Italic-20" x="58.203125"/>
     <use xlink:href="#SegoeUI-Italic-3d" x="85.693359"/>
     <use xlink:href="#SegoeUI-Italic-20" x="154.199219"/>
     <use xlink:href="#SegoeUI-Italic-72" x="181.689453"/>
     <use xlink:href="#SegoeUI-Italic-61" x="216.5625"/>
     <use xlink:href="#SegoeUI-Italic-64" x="270.761719"/>
     <use xlink:href="#SegoeUI-Italic-69" x="324.960938"/>
     <use xlink:href="#SegoeUI-Italic-6f" x="350.839844"/>
     <use xlink:href="#SegoeUI-Italic-20" x="404.355469"/>
     <use xlink:href="#SegoeUI-Italic-64" x="431.845703"/>
     <use xlink:href="#SegoeUI-Italic-65" x="486.044922"/>
     <use xlink:href="#SegoeUI-Italic-20" x="534.726562"/>
     <use xlink:href="#SegoeUI-Italic-6c" x="562.216797"/>
     <use xlink:href="#SegoeUI-Italic-61" x="588.095703"/>
     <use xlink:href="#SegoeUI-Italic-20" x="642.294922"/>
     <use xlink:href="#SegoeUI-Italic-63" x="669.785156"/>
     <use xlink:href="#SegoeUI-Italic-69" x="713.388672"/>
     <use xlink:href="#SegoeUI-Italic-72" x="739.267578"/>
     <use xlink:href="#SegoeUI-Italic-63" x="774.515625"/>
     <use xlink:href="#SegoeUI-Italic-75" x="818.119141"/>
     <use xlink:href="#SegoeUI-Italic-6e" x="873.929688"/>
     <use xlink:href="#SegoeUI-Italic-66" x="930.130859"/>
     <use xlink:href="#SegoeUI-Italic-65" x="959.623047"/>
     <use xlink:href="#SegoeUI-Italic-72" x="1008.304688"/>
     <use xlink:href="#SegoeUI-Italic-65" x="1043.927734"/>
     <use xlink:href="#SegoeUI-Italic-6e" x="1092.609375"/>
     <use xlink:href="#SegoeUI-Italic-63" x="1148.810547"/>
     <use xlink:href="#SegoeUI-Italic-69" x="1192.414062"/>
     <use xlink:href="#SegoeUI-Italic-61" x="1218.292969"/>
     <use xlink:href="#SegoeUI-Italic-20" x="1272.492188"/>
     <use xlink:href="#SegoeUI-Italic-63" x="1299.982422"/>
     <use xlink:href="#SegoeUI-Italic-69" x="1343.585938"/>
     <use xlink:href="#SegoeUI-Italic-72" x="1369.464844"/>
     <use xlink:href="#SegoeUI-Italic-63" x="1404.712891"/>
     <use xlink:href="#SegoeUI-Italic-75" x="1448.316406"/>
     <use xlink:href="#SegoeUI-Italic-6e" x="1504.126953"/>
     <use xlink:href="#SegoeUI-Italic-73" x="1560.328125"/>
     <use xlink:href="#SegoeUI-Italic-63" x="1597.830078"/>
     <use xlink:href="#SegoeUI-Italic-72" x="1641.433594"/>
     <use xlink:href="#SegoeUI-Italic-69" x="1677.056641"/>
     <use xlink:href="#SegoeUI-Italic-74" x="1702.935547"/>
     <use xlink:href="#SegoeUI-Italic-61" x="1734.759766"/>
    </g>
   </g>
  </g>
  <g id="text_22">
   <!-- Ley de Senos -->
   <g style="fill: #2c2f33" transform="translate(465.774291 17.564375) scale(0.14 -0.14)">
    <defs>
     <path id="SegoeUI-Bold-79" d="M 3463 3200 
L 2163 -256 
Q 1694 -1503 750 -1503 
Q 391 -1503 159 -1422 
L 159 -634 
Q 356 -750 588 -750 
Q 969 -750 1119 -391 
L 1288 6 
L -13 3200 
L 1081 3200 
L 1678 1253 
Q 1734 1072 1766 825 
L 1778 825 
Q 1806 1006 1881 1247 
L 2484 3200 
L 3463 3200 
z
" transform="scale(0.015625)"/>
    </defs>
    <use xlink:href="#SegoeUI-Bold-4c"/>
    <use xlink:href="#SegoeUI-Bold-65" x="51.123047"/>
    <use xlink:href="#SegoeUI-Bold-79" x="105.224609"/>
    <use xlink:href="#SegoeUI-Bold-20" x="159.033203"/>
    <use xlink:href="#SegoeUI-Bold-64" x="186.621094"/>
    <use xlink:href="#SegoeUI-Bold-65" x="248.535156"/>
    <use xlink:href="#SegoeUI-Bold-20" x="302.636719"/>
    <use xlink:href="#SegoeUI-Bold-53" x="330.224609"/>
    <use xlink:href="#SegoeUI-Bold-65" x="386.279297"/>
    <use xlink:href="#SegoeUI-Bold-6e" x="440.380859"/>
    <use xlink:href="#SegoeUI-Bold-6f" x="500.878906"/>
    <use xlink:href="#SegoeUI-Bold-73" x="562.011719"/>
   </g>
  </g>
 </g>
 <defs>
  <clipPath id="p183aed8de4">
   <rect x="7.2" y="61.954648" width="543.55799" height="480.142891"/>
  </clipPath>
  <clipPath id="p019f269bb2">
   <rect x="591.07799" y="26.852667" width="418.12153" height="550.346852"/>
  </clipPath>
 </defs>
</svg>
