<?xml version="1.0" encoding="utf-8" standalone="no"?>
<!DOCTYPE svg PUBLIC "-//W3C//DTD SVG 1.1//EN"
  "http://www.w3.org/Graphics/SVG/1.1/DTD/svg11.dtd">
<svg xmlns:xlink="http://www.w3.org/1999/xlink" width="1016.39952pt" height="584.39952pt" viewBox="0 0 1016.39952 584.39952" xmlns="http://www.w3.org/2000/svg" version="1.1">
 <metadata>
  <rdf:RDF xmlns:dc="http://purl.org/dc/elements/1.1/" xmlns:cc="http://creativecommons.org/ns#" xmlns:rdf="http://www.w3.org/1999/02/22-rdf-syntax-ns#">
   <cc:Work>
    <dc:type rdf:resource="http://purl.org/dc/dcmitype/StillImage"/>
    <dc:date>2026-04-11T16:11:47.920319</dc:date>
    <dc:format>image/svg+xml</dc:format>
    <dc:creator>
     <cc:Agent>
      <dc:title>Matplotlib v3.8.4, https://matplotlib.org/</dc:title>
     </cc:Agent>
    </dc:creator>
   </cc:Work>
  </rdf:RDF>
 </metadata>
 <defs>
  <style type="text/css">*{stroke-linejoin: round; stroke-linecap: butt}</style>
 </defs>
 <g id="figure_1">
  <g id="patch_1">
   <path d="M 0 584.39952 
L 1016.39952 584.39952 
L 1016.39952 0 
L 0 0 
z
" style="fill: #ffffff"/>
  </g>
  <g id="axes_1">
   <g id="patch_2">
    <path d="M 130.62411 410.02219 
L 439.184383 410.02219 
L 130.62411 194.029998 
z
" clip-path="url(#pea9ec88332)" style="fill: #39c5bb; opacity: 0.15; stroke: #39c5bb; stroke-width: 2.5; stroke-linejoin: miter"/>
   </g>
   <g id="line2d_1">
    <path d="M 149.137726 410.02219 
L 149.137726 391.508573 
L 130.62411 391.508573 
" clip-path="url(#pea9ec88332)" style="fill: none; stroke: #39c5bb; stroke-width: 1.5; stroke-linecap: square"/>
   </g>
   <g id="line2d_2">
    <path d="M 398.739195 381.710558 
L 398.151978 382.568529 
L 397.582959 383.438675 
L 397.032389 384.320611 
L 396.500513 385.213945 
L 395.987567 386.118282 
L 395.493778 387.033219 
L 395.019366 387.958352 
L 394.56454 388.893269 
L 394.129502 389.837557 
L 393.714445 390.790797 
L 393.319554 391.752565 
L 392.945003 392.722436 
L 392.590959 393.699979 
L 392.257578 394.684761 
L 391.945009 395.676345 
L 391.65339 396.674291 
L 391.38285 397.678156 
L 391.13351 398.687496 
L 390.905479 399.701863 
L 390.69886 400.720807 
L 390.513743 401.743875 
L 390.350211 402.770615 
L 390.208336 403.800571 
L 390.088182 404.833287 
L 389.989801 405.868303 
L 389.913237 406.905162 
L 389.858524 407.943403 
L 389.825687 408.982566 
L 389.81474 410.02219 
" clip-path="url(#pea9ec88332)" style="fill: none; stroke: #f59e0b; stroke-width: 2.5; stroke-linecap: square"/>
   </g>
   <g id="line2d_3">
    <defs>
     <path id="m1c089529b4" d="M 0 3 
C 0.795609 3 1.55874 2.683901 2.12132 2.12132 
C 2.683901 1.55874 3 0.795609 3 0 
C 3 -0.795609 2.683901 -1.55874 2.12132 -2.12132 
C 1.55874 -2.683901 0.795609 -3 0 -3 
C -0.795609 -3 -1.55874 -2.683901 -2.12132 -2.12132 
C -2.683901 -1.55874 -3 -0.795609 -3 0 
C -3 0.795609 -2.683901 1.55874 -2.12132 2.12132 
C -1.55874 2.683901 -0.795609 3 0 3 
z
" style="stroke: #2c2f33"/>
    </defs>
    <g clip-path="url(#pea9ec88332)">
     <use xlink:href="#m1c089529b4" x="130.62411" y="410.02219" style="fill: #2c2f33; stroke: #2c2f33"/>
    </g>
   </g>
   <g id="line2d_4">
    <g clip-path="url(#pea9ec88332)">
     <use xlink:href="#m1c089529b4" x="439.184383" y="410.02219" style="fill: #2c2f33; stroke: #2c2f33"/>
    </g>
   </g>
   <g id="line2d_5">
    <g clip-path="url(#pea9ec88332)">
     <use xlink:href="#m1c089529b4" x="130.62411" y="194.029998" style="fill: #2c2f33; stroke: #2c2f33"/>
    </g>
   </g>
   <g id="text_1">
    <!-- A -->
    <g style="fill: #2c2f33" transform="translate(112.110493 428.535806) scale(0.14 -0.14)">
     <defs>
      <path id="SegoeUI-Bold-41" d="M 4453 0 
L 3353 0 
L 3034 997 
L 1441 997 
L 1125 0 
L 31 0 
L 1663 4481 
L 2859 4481 
L 4453 0 
z
M 2803 1772 
L 2322 3278 
Q 2269 3447 2247 3681 
L 2222 3681 
Q 2206 3484 2144 3291 
L 1656 1772 
L 2803 1772 
z
" transform="scale(0.015625)"/>
     </defs>
     <use xlink:href="#SegoeUI-Bold-41"/>
    </g>
   </g>
   <g id="text_2">
    <!-- B -->
    <g style="fill: #2c2f33" transform="translate(451.526794 428.535806) scale(0.14 -0.14)">
     <defs>
      <path id="SegoeUI-Bold-42" d="M 513 0 
L 513 4481 
L 2144 4481 
Q 2894 4481 3297 4206 
Q 3700 3931 3700 3431 
Q 3700 3069 3454 2797 
Q 3209 2525 2828 2419 
L 2828 2406 
Q 3306 2347 3592 2053 
Q 3878 1759 3878 1338 
Q 3878 722 3437 361 
Q 2997 0 2234 0 
L 513 0 
z
M 1522 3738 
L 1522 2675 
L 1966 2675 
Q 2278 2675 2458 2826 
Q 2638 2978 2638 3244 
Q 2638 3738 1900 3738 
L 1522 3738 
z
M 1522 1925 
L 1522 744 
L 2069 744 
Q 2419 744 2617 906 
Q 2816 1069 2816 1350 
Q 2816 1619 2620 1772 
Q 2425 1925 2075 1925 
L 1522 1925 
z
" transform="scale(0.015625)"/>
     </defs>
     <use xlink:href="#SegoeUI-Bold-42"/>
    </g>
   </g>
   <g id="text_3">
    <!-- C -->
    <g style="fill: #2c2f33" transform="translate(112.110493 181.687587) scale(0.14 -0.14)">
     <defs>
      <path id="SegoeUI-Bold-43" d="M 3725 159 
Q 3234 -78 2444 -78 
Q 1413 -78 822 528 
Q 231 1134 231 2144 
Q 231 3219 895 3887 
Q 1559 4556 2619 4556 
Q 3275 4556 3725 4391 
L 3725 3419 
Q 3275 3688 2700 3688 
Q 2069 3688 1681 3291 
Q 1294 2894 1294 2216 
Q 1294 1566 1659 1180 
Q 2025 794 2644 794 
Q 3234 794 3725 1081 
L 3725 159 
z
" transform="scale(0.015625)"/>
     </defs>
     <use xlink:href="#SegoeUI-Bold-43"/>
    </g>
   </g>
   <g id="text_4">
    <g id="patch_3">
     <path d="M 303.417863 296.563683 
L 311.097863 296.563683 
Q 314.297863 296.563683 314.297863 293.363683 
L 314.297863 277.838683 
Q 314.297863 274.638683 311.097863 274.638683 
L 303.417863 274.638683 
Q 300.217863 274.638683 300.217863 277.838683 
L 300.217863 293.363683 
Q 300.217863 296.563683 303.417863 296.563683 
z
" style="fill: #ffffff; opacity: 0.9"/>
    </g>
    <!-- c -->
    <g style="fill: #e12885" transform="translate(303.417863 289.683683) scale(0.16 -0.16)">
     <defs>
      <path id="SegoeUI-Bold-63" d="M 2841 116 
Q 2506 -78 1875 -78 
Q 1138 -78 681 369 
Q 225 816 225 1522 
Q 225 2338 714 2808 
Q 1203 3278 2022 3278 
Q 2588 3278 2841 3128 
L 2841 2291 
Q 2531 2522 2150 2522 
Q 1725 2522 1476 2273 
Q 1228 2025 1228 1588 
Q 1228 1163 1465 920 
Q 1703 678 2119 678 
Q 2488 678 2841 909 
L 2841 116 
z
" transform="scale(0.015625)"/>
     </defs>
     <use xlink:href="#SegoeUI-Bold-63"/>
    </g>
   </g>
   <g id="text_5">
    <!-- (hipotenusa) -->
    <g style="fill: #e12885" transform="translate(334.27389 320.53971) scale(0.1 -0.1)">
     <defs>
      <path id="SegoeUI-Italic-28" d="M 2541 4481 
Q 2153 4100 1842 3694 
Q 1531 3288 1312 2853 
Q 1094 2419 975 1951 
Q 856 1484 856 978 
Q 856 728 889 473 
Q 922 219 987 -26 
Q 1053 -272 1147 -503 
Q 1241 -734 1363 -934 
L 922 -934 
Q 791 -728 692 -495 
Q 594 -263 528 -19 
Q 463 225 430 472 
Q 397 719 397 953 
Q 397 1494 512 1973 
Q 628 2453 840 2887 
Q 1053 3322 1358 3717 
Q 1663 4113 2041 4481 
L 2541 4481 
z
" transform="scale(0.015625)"/>
      <path id="SegoeUI-Italic-68" d="M 3238 2394 
Q 3238 2353 3227 2270 
Q 3216 2188 3202 2094 
Q 3188 2000 3170 1908 
Q 3153 1816 3138 1753 
L 2766 0 
L 2247 0 
L 2638 1875 
Q 2650 1925 2662 1990 
Q 2675 2056 2684 2122 
Q 2694 2188 2700 2242 
Q 2706 2297 2706 2328 
Q 2706 2572 2595 2706 
Q 2484 2841 2253 2841 
Q 2053 2841 1853 2723 
Q 1653 2606 1481 2420 
Q 1309 2234 1182 2004 
Q 1056 1775 1006 1550 
L 672 0 
L 153 0 
L 1166 4738 
L 1678 4738 
L 1191 2450 
L 1203 2450 
Q 1319 2628 1456 2779 
Q 1594 2931 1748 3042 
Q 1903 3153 2073 3215 
Q 2244 3278 2425 3278 
Q 2825 3278 3031 3042 
Q 3238 2806 3238 2394 
z
" transform="scale(0.015625)"/>
      <path id="SegoeUI-Italic-69" d="M 1300 13 
Q 1222 -13 1123 -28 
Q 1025 -44 928 -44 
Q 613 -44 456 114 
Q 300 272 300 538 
Q 300 616 315 722 
Q 331 828 366 984 
L 831 3200 
L 1350 3200 
L 881 972 
Q 853 841 842 769 
Q 831 697 831 647 
Q 831 519 901 451 
Q 972 384 1125 384 
Q 1206 384 1267 393 
Q 1328 403 1381 422 
L 1300 13 
z
M 1666 4341 
Q 1666 4200 1570 4100 
Q 1475 4000 1334 4000 
Q 1197 4000 1095 4098 
Q 994 4197 994 4341 
Q 994 4484 1095 4575 
Q 1197 4666 1334 4666 
Q 1472 4666 1569 4573 
Q 1666 4481 1666 4341 
z
" transform="scale(0.015625)"/>
      <path id="SegoeUI-Italic-70" d="M 3225 2081 
Q 3225 1850 3175 1601 
Q 3125 1353 3022 1112 
Q 2919 872 2764 656 
Q 2609 441 2400 277 
Q 2191 113 1925 17 
Q 1659 -78 1338 -78 
Q 1153 -78 973 -43 
Q 794 -9 659 38 
L 341 -1484 
L -178 -1484 
L 603 2216 
Q 625 2316 644 2456 
Q 663 2597 677 2739 
Q 691 2881 700 3006 
Q 709 3131 709 3200 
L 1234 3200 
Q 1234 3147 1226 3056 
Q 1219 2966 1206 2867 
Q 1194 2769 1181 2676 
Q 1169 2584 1159 2528 
L 1172 2528 
Q 1394 2906 1672 3092 
Q 1950 3278 2278 3278 
Q 2497 3278 2672 3203 
Q 2847 3128 2970 2978 
Q 3094 2828 3159 2603 
Q 3225 2378 3225 2081 
z
M 2700 2059 
Q 2700 2228 2670 2372 
Q 2641 2516 2572 2619 
Q 2503 2722 2395 2781 
Q 2288 2841 2131 2841 
Q 1969 2841 1826 2773 
Q 1684 2706 1562 2593 
Q 1441 2481 1341 2332 
Q 1241 2184 1162 2025 
Q 1084 1866 1029 1705 
Q 975 1544 947 1403 
L 750 475 
Q 806 450 884 429 
Q 963 409 1047 393 
Q 1131 378 1218 368 
Q 1306 359 1381 359 
Q 1597 359 1780 431 
Q 1963 503 2108 626 
Q 2253 750 2364 917 
Q 2475 1084 2550 1273 
Q 2625 1463 2662 1664 
Q 2700 1866 2700 2059 
z
" transform="scale(0.015625)"/>
      <path id="SegoeUI-Italic-6f" d="M 3181 2016 
Q 3181 1591 3061 1209 
Q 2941 828 2714 542 
Q 2488 256 2164 89 
Q 1841 -78 1434 -78 
Q 1159 -78 939 9 
Q 719 97 564 261 
Q 409 425 326 658 
Q 244 891 244 1184 
Q 244 1625 370 2008 
Q 497 2391 726 2673 
Q 956 2956 1276 3117 
Q 1597 3278 1984 3278 
Q 2256 3278 2476 3190 
Q 2697 3103 2853 2939 
Q 3009 2775 3095 2542 
Q 3181 2309 3181 2016 
z
M 2656 1991 
Q 2656 2194 2606 2351 
Q 2556 2509 2465 2617 
Q 2375 2725 2247 2783 
Q 2119 2841 1959 2841 
Q 1684 2841 1462 2700 
Q 1241 2559 1087 2329 
Q 934 2100 851 1808 
Q 769 1516 769 1209 
Q 769 1016 817 858 
Q 866 700 955 589 
Q 1044 478 1173 418 
Q 1303 359 1466 359 
Q 1744 359 1966 498 
Q 2188 638 2341 867 
Q 2494 1097 2575 1390 
Q 2656 1684 2656 1991 
z
" transform="scale(0.015625)"/>
      <path id="SegoeUI-Italic-74" d="M 2156 2766 
L 1350 2766 
L 991 1069 
Q 972 972 953 859 
Q 934 747 934 678 
Q 934 519 1004 448 
Q 1075 378 1228 378 
Q 1266 378 1325 390 
Q 1384 403 1446 422 
Q 1509 441 1570 464 
Q 1631 488 1678 506 
L 1581 56 
Q 1472 9 1333 -23 
Q 1194 -56 1069 -56 
Q 891 -56 766 -11 
Q 641 34 561 118 
Q 481 203 445 323 
Q 409 444 409 594 
Q 409 684 426 804 
Q 444 925 469 1025 
L 838 2766 
L 306 2766 
L 403 3200 
L 928 3200 
L 1094 3981 
Q 1106 3988 1189 4011 
Q 1272 4034 1370 4064 
Q 1469 4094 1551 4119 
Q 1634 4144 1644 4147 
L 1447 3200 
L 2253 3200 
L 2156 2766 
z
" transform="scale(0.015625)"/>
      <path id="SegoeUI-Italic-65" d="M 2994 2450 
Q 2994 2197 2881 1989 
Q 2769 1781 2509 1632 
Q 2250 1484 1825 1403 
Q 1400 1322 775 1319 
Q 769 1284 769 1247 
Q 769 1213 769 1184 
Q 769 1016 816 866 
Q 863 716 961 603 
Q 1059 491 1214 425 
Q 1369 359 1581 359 
Q 1797 359 2055 442 
Q 2313 525 2547 678 
L 2450 172 
Q 2278 72 2040 -3 
Q 1803 -78 1509 -78 
Q 1156 -78 914 31 
Q 672 141 523 323 
Q 375 506 309 745 
Q 244 984 244 1247 
Q 244 1528 306 1789 
Q 369 2050 483 2275 
Q 597 2500 756 2686 
Q 916 2872 1109 3003 
Q 1303 3134 1525 3206 
Q 1747 3278 1984 3278 
Q 2231 3278 2420 3212 
Q 2609 3147 2736 3033 
Q 2863 2919 2928 2769 
Q 2994 2619 2994 2450 
z
M 2472 2425 
Q 2472 2622 2326 2731 
Q 2181 2841 1941 2841 
Q 1750 2841 1572 2758 
Q 1394 2675 1244 2529 
Q 1094 2384 984 2182 
Q 875 1981 825 1747 
Q 1272 1747 1584 1792 
Q 1897 1838 2094 1925 
Q 2291 2013 2381 2139 
Q 2472 2266 2472 2425 
z
" transform="scale(0.015625)"/>
      <path id="SegoeUI-Italic-6e" d="M 3269 2400 
Q 3269 2353 3258 2272 
Q 3247 2191 3230 2097 
Q 3213 2003 3195 1911 
Q 3178 1819 3163 1753 
L 2791 0 
L 2272 0 
L 2663 1875 
Q 2675 1925 2687 1990 
Q 2700 2056 2709 2122 
Q 2719 2188 2725 2242 
Q 2731 2297 2731 2328 
Q 2731 2566 2617 2703 
Q 2503 2841 2278 2841 
Q 2072 2841 1869 2719 
Q 1666 2597 1494 2409 
Q 1322 2222 1198 1997 
Q 1075 1772 1031 1563 
L 697 0 
L 178 0 
L 672 2284 
Q 697 2406 722 2539 
Q 747 2672 769 2795 
Q 791 2919 806 3025 
Q 822 3131 831 3200 
L 1331 3200 
Q 1316 3078 1294 2945 
Q 1272 2813 1256 2700 
Q 1238 2569 1216 2444 
L 1228 2444 
Q 1338 2616 1470 2767 
Q 1603 2919 1758 3033 
Q 1913 3147 2086 3212 
Q 2259 3278 2450 3278 
Q 2663 3278 2816 3214 
Q 2969 3150 3070 3034 
Q 3172 2919 3220 2756 
Q 3269 2594 3269 2400 
z
" transform="scale(0.015625)"/>
      <path id="SegoeUI-Italic-75" d="M 2906 909 
Q 2878 788 2854 656 
Q 2831 525 2809 403 
Q 2788 281 2772 175 
Q 2756 69 2747 0 
L 2247 0 
Q 2263 122 2283 255 
Q 2303 388 2322 500 
Q 2344 631 2363 756 
L 2350 756 
Q 2241 584 2108 432 
Q 1975 281 1820 167 
Q 1666 53 1492 -12 
Q 1319 -78 1131 -78 
Q 925 -78 770 -14 
Q 616 50 512 165 
Q 409 281 357 443 
Q 306 606 306 806 
Q 306 847 318 928 
Q 331 1009 347 1103 
Q 363 1197 383 1289 
Q 403 1381 416 1447 
L 788 3200 
L 1306 3200 
L 909 1325 
Q 897 1275 884 1209 
Q 872 1144 861 1078 
Q 850 1013 844 958 
Q 838 903 838 872 
Q 838 638 952 498 
Q 1066 359 1294 359 
Q 1431 359 1568 415 
Q 1706 472 1836 567 
Q 1966 663 2081 789 
Q 2197 916 2290 1058 
Q 2384 1200 2450 1350 
Q 2516 1500 2547 1638 
L 2881 3200 
L 3397 3200 
L 2906 909 
z
" transform="scale(0.015625)"/>
      <path id="SegoeUI-Italic-73" d="M 2266 2638 
Q 2125 2728 1950 2784 
Q 1775 2841 1600 2841 
Q 1306 2841 1145 2706 
Q 984 2572 984 2350 
Q 984 2259 1014 2184 
Q 1044 2109 1101 2042 
Q 1159 1975 1248 1912 
Q 1338 1850 1453 1778 
Q 1803 1575 1958 1361 
Q 2113 1147 2113 878 
Q 2113 697 2045 523 
Q 1978 350 1831 217 
Q 1684 84 1451 3 
Q 1219 -78 884 -78 
Q 791 -78 678 -65 
Q 566 -53 452 -28 
Q 338 -3 233 33 
Q 128 69 50 116 
L 153 603 
Q 216 559 308 515 
Q 400 472 508 437 
Q 616 403 733 381 
Q 850 359 966 359 
Q 1278 359 1433 484 
Q 1588 609 1588 831 
Q 1588 913 1564 981 
Q 1541 1050 1481 1119 
Q 1422 1188 1325 1258 
Q 1228 1328 1081 1416 
Q 763 1609 611 1820 
Q 459 2031 459 2297 
Q 459 2491 531 2667 
Q 603 2844 745 2980 
Q 888 3116 1103 3197 
Q 1319 3278 1606 3278 
Q 1831 3278 2032 3234 
Q 2234 3191 2375 3122 
L 2266 2638 
z
" transform="scale(0.015625)"/>
      <path id="SegoeUI-Italic-61" d="M 2828 1025 
Q 2803 906 2779 757 
Q 2756 609 2739 464 
Q 2722 319 2711 194 
Q 2700 69 2700 0 
L 2169 0 
Q 2172 63 2178 150 
Q 2184 238 2195 331 
Q 2206 425 2217 515 
Q 2228 606 2241 672 
L 2228 672 
Q 2131 519 2031 383 
Q 1931 247 1809 144 
Q 1688 41 1538 -18 
Q 1388 -78 1184 -78 
Q 975 -78 801 -3 
Q 628 72 503 220 
Q 378 369 311 592 
Q 244 816 244 1113 
Q 244 1294 281 1525 
Q 319 1756 408 1997 
Q 497 2238 645 2467 
Q 794 2697 1014 2878 
Q 1234 3059 1534 3168 
Q 1834 3278 2228 3278 
Q 2478 3278 2743 3240 
Q 3009 3203 3272 3150 
L 2828 1025 
z
M 2681 2778 
Q 2572 2803 2425 2822 
Q 2278 2841 2150 2841 
Q 1878 2841 1670 2755 
Q 1463 2669 1309 2530 
Q 1156 2391 1051 2209 
Q 947 2028 884 1839 
Q 822 1650 795 1465 
Q 769 1281 769 1131 
Q 769 953 800 811 
Q 831 669 898 569 
Q 966 469 1070 414 
Q 1175 359 1319 359 
Q 1475 359 1611 423 
Q 1747 488 1865 597 
Q 1984 706 2081 850 
Q 2178 994 2256 1155 
Q 2334 1316 2389 1483 
Q 2444 1650 2478 1806 
L 2681 2778 
z
" transform="scale(0.015625)"/>
      <path id="SegoeUI-Italic-29" d="M 1575 2591 
Q 1575 2053 1459 1572 
Q 1344 1091 1130 658 
Q 916 225 611 -170 
Q 306 -566 -72 -934 
L -575 -934 
Q -188 -553 125 -148 
Q 438 256 656 690 
Q 875 1125 994 1592 
Q 1113 2059 1113 2566 
Q 1113 2816 1080 3069 
Q 1047 3322 983 3569 
Q 919 3816 825 4047 
Q 731 4278 609 4481 
L 1044 4481 
Q 1175 4272 1275 4037 
Q 1375 3803 1440 3559 
Q 1506 3316 1540 3070 
Q 1575 2825 1575 2591 
z
" transform="scale(0.015625)"/>
     </defs>
     <use xlink:href="#SegoeUI-Italic-28"/>
     <use xlink:href="#SegoeUI-Italic-68" x="30.419922"/>
     <use xlink:href="#SegoeUI-Italic-69" x="86.132812"/>
     <use xlink:href="#SegoeUI-Italic-70" x="112.011719"/>
     <use xlink:href="#SegoeUI-Italic-6f" x="166.210938"/>
     <use xlink:href="#SegoeUI-Italic-74" x="219.726562"/>
     <use xlink:href="#SegoeUI-Italic-65" x="252.175781"/>
     <use xlink:href="#SegoeUI-Italic-6e" x="300.857422"/>
     <use xlink:href="#SegoeUI-Italic-75" x="357.058594"/>
     <use xlink:href="#SegoeUI-Italic-73" x="412.869141"/>
     <use xlink:href="#SegoeUI-Italic-61" x="451.371094"/>
     <use xlink:href="#SegoeUI-Italic-29" x="505.570312"/>
    </g>
   </g>
   <g id="text_6">
    <g id="patch_4">
     <path d="M 99.768082 308.906094 
L 108.378082 308.906094 
Q 111.578082 308.906094 111.578082 305.706094 
L 111.578082 290.181094 
Q 111.578082 286.981094 108.378082 286.981094 
L 99.768082 286.981094 
Q 96.568082 286.981094 96.568082 290.181094 
L 96.568082 305.706094 
Q 96.568082 308.906094 99.768082 308.906094 
z
" style="fill: #ffffff; opacity: 0.9"/>
    </g>
    <!-- a -->
    <g style="fill: #1f2937" transform="translate(99.768082 302.026094) scale(0.16 -0.16)">
     <defs>
      <path id="SegoeUI-Bold-61" d="M 3078 0 
L 2144 0 
L 2144 459 
L 2131 459 
Q 1809 -78 1178 -78 
Q 713 -78 445 186 
Q 178 450 178 891 
Q 178 1822 1281 1966 
L 2150 2081 
Q 2150 2606 1581 2606 
Q 1009 2606 494 2266 
L 494 3009 
Q 700 3116 1058 3197 
Q 1416 3278 1709 3278 
Q 3078 3278 3078 1913 
L 3078 0 
z
M 2150 1300 
L 2150 1516 
L 1569 1441 
Q 1088 1378 1088 1006 
Q 1088 838 1205 730 
Q 1322 622 1522 622 
Q 1800 622 1975 814 
Q 2150 1006 2150 1300 
z
" transform="scale(0.015625)"/>
     </defs>
     <use xlink:href="#SegoeUI-Bold-61"/>
    </g>
   </g>
   <g id="text_7">
    <!-- (opuesto) -->
    <g style="fill: #1f2937" transform="translate(56.569644 332.882121) scale(0.1 -0.1)">
     <use xlink:href="#SegoeUI-Italic-28"/>
     <use xlink:href="#SegoeUI-Italic-6f" x="30.419922"/>
     <use xlink:href="#SegoeUI-Italic-70" x="83.935547"/>
     <use xlink:href="#SegoeUI-Italic-75" x="138.134766"/>
     <use xlink:href="#SegoeUI-Italic-65" x="193.945312"/>
     <use xlink:href="#SegoeUI-Italic-73" x="242.626953"/>
     <use xlink:href="#SegoeUI-Italic-74" x="282.128906"/>
     <use xlink:href="#SegoeUI-Italic-6f" x="314.578125"/>
     <use xlink:href="#SegoeUI-Italic-29" x="368.09375"/>
    </g>
   </g>
   <g id="text_8">
    <g id="patch_5">
     <path d="M 284.904246 447.758217 
L 294.826746 447.758217 
Q 298.026746 447.758217 298.026746 444.558217 
L 298.026746 429.033217 
Q 298.026746 425.833217 294.826746 425.833217 
L 284.904246 425.833217 
Q 281.704246 425.833217 281.704246 429.033217 
L 281.704246 444.558217 
Q 281.704246 447.758217 284.904246 447.758217 
z
" style="fill: #ffffff; opacity: 0.9"/>
    </g>
    <!-- b -->
    <g style="fill: #4b5563" transform="translate(284.904246 440.878217) scale(0.16 -0.16)">
     <defs>
      <path id="SegoeUI-Bold-62" d="M 1416 372 
L 1403 372 
L 1403 0 
L 416 0 
L 416 4738 
L 1403 4738 
L 1403 2719 
L 1416 2719 
Q 1781 3278 2456 3278 
Q 3075 3278 3409 2853 
Q 3744 2428 3744 1691 
Q 3744 891 3353 406 
Q 2963 -78 2309 -78 
Q 1719 -78 1416 372 
z
M 1388 1722 
L 1388 1394 
Q 1388 1084 1566 881 
Q 1744 678 2022 678 
Q 2359 678 2545 939 
Q 2731 1200 2731 1678 
Q 2731 2075 2561 2298 
Q 2391 2522 2075 2522 
Q 1778 2522 1583 2300 
Q 1388 2078 1388 1722 
z
" transform="scale(0.015625)"/>
     </defs>
     <use xlink:href="#SegoeUI-Bold-62"/>
    </g>
   </g>
   <g id="text_9">
    <!-- (adyacente) -->
    <g style="fill: #4b5563" transform="translate(315.760274 440.878217) scale(0.1 -0.1)">
     <defs>
      <path id="SegoeUI-Italic-64" d="M 2816 984 
Q 2794 884 2773 743 
Q 2753 603 2737 461 
Q 2722 319 2711 194 
Q 2700 69 2700 0 
L 2169 0 
Q 2169 53 2176 142 
Q 2184 231 2195 328 
Q 2206 425 2218 514 
Q 2231 603 2241 659 
L 2228 659 
Q 2116 478 2003 339 
Q 1891 200 1766 108 
Q 1641 16 1500 -31 
Q 1359 -78 1191 -78 
Q 972 -78 797 0 
Q 622 78 498 229 
Q 375 381 309 604 
Q 244 828 244 1119 
Q 244 1350 292 1600 
Q 341 1850 442 2090 
Q 544 2331 700 2547 
Q 856 2763 1072 2925 
Q 1288 3088 1566 3183 
Q 1844 3278 2188 3278 
Q 2363 3278 2513 3254 
Q 2663 3231 2772 3206 
L 3097 4738 
L 3603 4738 
L 2816 984 
z
M 2681 2766 
Q 2563 2800 2433 2820 
Q 2303 2841 2156 2841 
Q 1884 2841 1676 2756 
Q 1469 2672 1314 2531 
Q 1159 2391 1054 2211 
Q 950 2031 886 1842 
Q 822 1653 795 1470 
Q 769 1288 769 1141 
Q 769 966 798 822 
Q 828 678 895 575 
Q 963 472 1069 415 
Q 1175 359 1325 359 
Q 1481 359 1617 425 
Q 1753 491 1872 603 
Q 1991 716 2087 862 
Q 2184 1009 2262 1175 
Q 2341 1341 2395 1511 
Q 2450 1681 2484 1838 
L 2681 2766 
z
" transform="scale(0.015625)"/>
      <path id="SegoeUI-Italic-79" d="M 1147 -531 
Q 1003 -766 856 -945 
Q 709 -1125 548 -1250 
Q 388 -1375 205 -1439 
Q 22 -1503 -197 -1503 
Q -269 -1503 -358 -1489 
Q -447 -1475 -500 -1459 
L -403 -1006 
Q -356 -1031 -281 -1047 
Q -206 -1063 -134 -1063 
Q 81 -1063 254 -944 
Q 428 -825 581 -581 
L 966 13 
L 384 3200 
L 916 3200 
L 1288 744 
Q 1297 675 1298 611 
Q 1300 547 1294 500 
L 1313 500 
Q 1328 538 1361 606 
Q 1394 675 1434 738 
L 2853 3200 
L 3419 3200 
L 1147 -531 
z
" transform="scale(0.015625)"/>
      <path id="SegoeUI-Italic-63" d="M 2700 2566 
Q 2569 2681 2383 2761 
Q 2197 2841 1972 2841 
Q 1756 2841 1582 2766 
Q 1409 2691 1275 2566 
Q 1141 2441 1044 2278 
Q 947 2116 884 1941 
Q 822 1766 792 1592 
Q 763 1419 763 1269 
Q 763 822 959 590 
Q 1156 359 1497 359 
Q 1703 359 1925 445 
Q 2147 531 2344 666 
L 2234 153 
Q 2031 44 1829 -17 
Q 1628 -78 1403 -78 
Q 1109 -78 892 22 
Q 675 122 531 297 
Q 388 472 316 711 
Q 244 950 244 1228 
Q 244 1491 297 1745 
Q 350 2000 454 2226 
Q 559 2453 712 2647 
Q 866 2841 1064 2980 
Q 1263 3119 1506 3198 
Q 1750 3278 2034 3278 
Q 2169 3278 2291 3259 
Q 2413 3241 2513 3209 
Q 2613 3178 2691 3142 
Q 2769 3106 2816 3072 
L 2700 2566 
z
" transform="scale(0.015625)"/>
     </defs>
     <use xlink:href="#SegoeUI-Italic-28"/>
     <use xlink:href="#SegoeUI-Italic-61" x="30.419922"/>
     <use xlink:href="#SegoeUI-Italic-64" x="84.619141"/>
     <use xlink:href="#SegoeUI-Italic-79" x="138.818359"/>
     <use xlink:href="#SegoeUI-Italic-61" x="187.457031"/>
     <use xlink:href="#SegoeUI-Italic-63" x="241.65625"/>
     <use xlink:href="#SegoeUI-Italic-65" x="284.259766"/>
     <use xlink:href="#SegoeUI-Italic-6e" x="332.941406"/>
     <use xlink:href="#SegoeUI-Italic-74" x="389.142578"/>
     <use xlink:href="#SegoeUI-Italic-65" x="421.591797"/>
     <use xlink:href="#SegoeUI-Italic-29" x="470.273438"/>
    </g>
   </g>
   <g id="text_10">
    <!-- θ -->
    <g style="fill: #f59e0b" transform="translate(387.390113 387.524279) scale(0.18 -0.18)">
     <defs>
      <path id="SegoeUI-Bold-3b8" d="M 1938 -78 
Q 1134 -78 679 564 
Q 225 1206 225 2359 
Q 225 3513 692 4158 
Q 1159 4803 1988 4803 
Q 2800 4803 3244 4165 
Q 3688 3528 3688 2425 
Q 3688 1247 3228 584 
Q 2769 -78 1938 -78 
z
M 2669 2744 
Q 2600 4041 1959 4041 
Q 1322 4041 1241 2744 
L 2669 2744 
z
M 2669 2031 
L 1238 2031 
Q 1303 684 1966 684 
Q 2606 684 2669 2031 
z
" transform="scale(0.015625)"/>
     </defs>
     <use xlink:href="#SegoeUI-Bold-3b8"/>
    </g>
   </g>
  </g>
  <g id="axes_2">
   <g id="patch_6">
    <path d="M 593.928818 202.96366 
L 987.343167 202.96366 
L 987.343167 81.887353 
L 593.928818 81.887353 
z
" clip-path="url(#pf509d463c8)" style="fill: #fffbeb; stroke: #f59e0b; stroke-width: 2; stroke-linejoin: miter"/>
   </g>
   <g id="line2d_6">
    <path d="M 593.928818 235.984471 
L 987.343167 235.984471 
" clip-path="url(#pf509d463c8)" style="fill: none; stroke: #d1d5db; stroke-width: 1.5; stroke-linecap: square"/>
   </g>
   <g id="line2d_7">
    <path d="M 593.928818 412.095464 
L 987.343167 412.095464 
" clip-path="url(#pf509d463c8)" style="fill: none; stroke: #d1d5db; stroke-width: 1.5; stroke-linecap: square"/>
   </g>
   <g id="line2d_8">
    <defs>
     <path id="m27686ec1bf" d="M -5 5 
L 5 5 
L 5 -5 
L -5 -5 
z
" style="stroke: #1f2937; stroke-linejoin: miter"/>
    </defs>
    <g clip-path="url(#pf509d463c8)">
     <use xlink:href="#m27686ec1bf" x="624.527712" y="478.137087" style="fill: #1f2937; stroke: #1f2937; stroke-linejoin: miter"/>
    </g>
   </g>
   <g id="line2d_9">
    <defs>
     <path id="mb33a5959f1" d="M -5 5 
L 5 5 
L 5 -5 
L -5 -5 
z
" style="stroke: #4b5563; stroke-linejoin: miter"/>
    </defs>
    <g clip-path="url(#pf509d463c8)">
     <use xlink:href="#mb33a5959f1" x="624.527712" y="505.654429" style="fill: #4b5563; stroke: #4b5563; stroke-linejoin: miter"/>
    </g>
   </g>
   <g id="line2d_10">
    <defs>
     <path id="m0589fac402" d="M -5 5 
L 5 5 
L 5 -5 
L -5 -5 
z
" style="stroke: #e12885; stroke-linejoin: miter"/>
    </defs>
    <g clip-path="url(#pf509d463c8)">
     <use xlink:href="#m0589fac402" x="624.527712" y="533.171772" style="fill: #e12885; stroke: #e12885; stroke-linejoin: miter"/>
    </g>
   </g>
   <g id="line2d_11">
    <defs>
     <path id="mfd70f9f876" d="M -5 5 
L 5 5 
L 5 -5 
L -5 -5 
z
" style="stroke: #f59e0b; stroke-linejoin: miter"/>
    </defs>
    <g clip-path="url(#pf509d463c8)">
     <use xlink:href="#mfd70f9f876" x="624.527712" y="560.689114" style="fill: #f59e0b; stroke: #f59e0b; stroke-linejoin: miter"/>
    </g>
   </g>
   <g id="text_11">
    <!-- RAZONES TRIGONOMÉTRICAS -->
    <g style="fill: #2c2f33" transform="translate(697.056305 63.994073) scale(0.13 -0.13)">
     <defs>
      <path id="SegoeUI-Bold-52" d="M 4272 0 
L 3113 0 
L 2416 1153 
Q 2338 1284 2266 1387 
Q 2194 1491 2120 1564 
Q 2047 1638 1967 1677 
Q 1888 1716 1794 1716 
L 1522 1716 
L 1522 0 
L 513 0 
L 513 4481 
L 2113 4481 
Q 3744 4481 3744 3263 
Q 3744 3028 3672 2829 
Q 3600 2631 3469 2472 
Q 3338 2313 3152 2197 
Q 2966 2081 2738 2016 
L 2738 2003 
Q 2838 1972 2931 1901 
Q 3025 1831 3112 1737 
Q 3200 1644 3279 1536 
Q 3359 1428 3425 1325 
L 4272 0 
z
M 1522 3725 
L 1522 2478 
L 1959 2478 
Q 2284 2478 2481 2666 
Q 2681 2856 2681 3138 
Q 2681 3725 1978 3725 
L 1522 3725 
z
" transform="scale(0.015625)"/>
      <path id="SegoeUI-Bold-5a" d="M 3738 0 
L 128 0 
L 128 581 
L 2425 3659 
L 294 3659 
L 294 4481 
L 3731 4481 
L 3731 3916 
L 1484 819 
L 3738 819 
L 3738 0 
z
" transform="scale(0.015625)"/>
      <path id="SegoeUI-Bold-4f" d="M 2406 -78 
Q 1444 -78 837 548 
Q 231 1175 231 2181 
Q 231 3244 847 3900 
Q 1463 4556 2478 4556 
Q 3438 4556 4030 3928 
Q 4622 3300 4622 2272 
Q 4622 1216 4008 569 
Q 3394 -78 2406 -78 
z
M 2450 3688 
Q 1919 3688 1606 3289 
Q 1294 2891 1294 2234 
Q 1294 1569 1606 1181 
Q 1919 794 2425 794 
Q 2947 794 3253 1170 
Q 3559 1547 3559 2216 
Q 3559 2913 3262 3300 
Q 2966 3688 2450 3688 
z
" transform="scale(0.015625)"/>
      <path id="SegoeUI-Bold-4e" d="M 4544 0 
L 3525 0 
L 1678 2816 
Q 1516 3063 1453 3188 
L 1441 3188 
Q 1466 2950 1466 2463 
L 1466 0 
L 513 0 
L 513 4481 
L 1600 4481 
L 3378 1753 
Q 3500 1569 3603 1388 
L 3616 1388 
Q 3591 1544 3591 2003 
L 3591 4481 
L 4544 4481 
L 4544 0 
z
" transform="scale(0.015625)"/>
      <path id="SegoeUI-Bold-45" d="M 3200 0 
L 513 0 
L 513 4481 
L 3097 4481 
L 3097 3659 
L 1522 3659 
L 1522 2663 
L 2988 2663 
L 2988 1844 
L 1522 1844 
L 1522 819 
L 3200 819 
L 3200 0 
z
" transform="scale(0.015625)"/>
      <path id="SegoeUI-Bold-53" d="M 306 172 
L 306 1172 
Q 578 944 897 830 
Q 1216 716 1541 716 
Q 1731 716 1873 750 
Q 2016 784 2111 845 
Q 2206 906 2253 989 
Q 2300 1072 2300 1169 
Q 2300 1300 2225 1403 
Q 2150 1506 2020 1593 
Q 1891 1681 1712 1762 
Q 1534 1844 1328 1928 
Q 803 2147 545 2462 
Q 288 2778 288 3225 
Q 288 3575 428 3826 
Q 569 4078 811 4240 
Q 1053 4403 1372 4479 
Q 1691 4556 2047 4556 
Q 2397 4556 2667 4514 
Q 2938 4472 3166 4384 
L 3166 3450 
Q 3053 3528 2920 3587 
Q 2788 3647 2647 3686 
Q 2506 3725 2367 3744 
Q 2228 3763 2103 3763 
Q 1931 3763 1790 3730 
Q 1650 3697 1553 3637 
Q 1456 3578 1403 3495 
Q 1350 3413 1350 3309 
Q 1350 3197 1409 3108 
Q 1469 3019 1578 2939 
Q 1688 2859 1844 2782 
Q 2000 2706 2197 2625 
Q 2466 2513 2680 2386 
Q 2894 2259 3047 2100 
Q 3200 1941 3281 1736 
Q 3363 1531 3363 1259 
Q 3363 884 3220 629 
Q 3078 375 2834 217 
Q 2591 59 2267 -9 
Q 1944 -78 1584 -78 
Q 1216 -78 883 -15 
Q 550 47 306 172 
z
" transform="scale(0.015625)"/>
      <path id="SegoeUI-Bold-20" transform="scale(0.015625)"/>
      <path id="SegoeUI-Bold-54" d="M 3659 3659 
L 2381 3659 
L 2381 0 
L 1369 0 
L 1369 3659 
L 97 3659 
L 97 4481 
L 3659 4481 
L 3659 3659 
z
" transform="scale(0.015625)"/>
      <path id="SegoeUI-Bold-49" d="M 1522 0 
L 513 0 
L 513 4481 
L 1522 4481 
L 1522 0 
z
" transform="scale(0.015625)"/>
      <path id="SegoeUI-Bold-47" d="M 4191 300 
Q 3534 -78 2559 -78 
Q 1478 -78 854 520 
Q 231 1119 231 2169 
Q 231 3225 912 3890 
Q 1594 4556 2725 4556 
Q 3438 4556 3981 4359 
L 3981 3413 
Q 3463 3713 2713 3713 
Q 2084 3713 1689 3305 
Q 1294 2897 1294 2216 
Q 1294 1525 1648 1147 
Q 2003 769 2606 769 
Q 2969 769 3181 872 
L 3181 1747 
L 2284 1747 
L 2284 2553 
L 4191 2553 
L 4191 300 
z
" transform="scale(0.015625)"/>
      <path id="SegoeUI-Bold-4d" d="M 5619 0 
L 4622 0 
L 4622 2681 
Q 4622 3116 4659 3641 
L 4634 3641 
Q 4556 3228 4494 3047 
L 3444 0 
L 2619 0 
L 1550 3016 
Q 1506 3138 1409 3641 
L 1381 3641 
Q 1422 2978 1422 2478 
L 1422 0 
L 513 0 
L 513 4481 
L 1991 4481 
L 2906 1825 
Q 3016 1506 3066 1184 
L 3084 1184 
Q 3169 1556 3263 1831 
L 4178 4481 
L 5619 4481 
L 5619 0 
z
" transform="scale(0.015625)"/>
      <path id="SegoeUI-Bold-c9" d="M 3200 0 
L 513 0 
L 513 4481 
L 3097 4481 
L 3097 3659 
L 1522 3659 
L 1522 2663 
L 2988 2663 
L 2988 1844 
L 1522 1844 
L 1522 819 
L 3200 819 
L 3200 0 
z
M 2919 5932 
L 1940 4922 
L 1228 4922 
L 2040 5932 
L 2919 5932 
z
" transform="scale(0.015625)"/>
     </defs>
     <use xlink:href="#SegoeUI-Bold-52"/>
     <use xlink:href="#SegoeUI-Bold-41" x="65.283203"/>
     <use xlink:href="#SegoeUI-Bold-5a" x="136.720703"/>
     <use xlink:href="#SegoeUI-Bold-4f" x="197.414062"/>
     <use xlink:href="#SegoeUI-Bold-4e" x="273.244141"/>
     <use xlink:href="#SegoeUI-Bold-45" x="352.248047"/>
     <use xlink:href="#SegoeUI-Bold-53" x="405.470703"/>
     <use xlink:href="#SegoeUI-Bold-20" x="461.525391"/>
     <use xlink:href="#SegoeUI-Bold-54" x="489.113281"/>
     <use xlink:href="#SegoeUI-Bold-52" x="547.707031"/>
     <use xlink:href="#SegoeUI-Bold-49" x="612.990234"/>
     <use xlink:href="#SegoeUI-Bold-47" x="644.679688"/>
     <use xlink:href="#SegoeUI-Bold-4f" x="715.773438"/>
     <use xlink:href="#SegoeUI-Bold-4e" x="791.603516"/>
     <use xlink:href="#SegoeUI-Bold-4f" x="870.607422"/>
     <use xlink:href="#SegoeUI-Bold-4d" x="946.4375"/>
     <use xlink:href="#SegoeUI-Bold-c9" x="1042.140625"/>
     <use xlink:href="#SegoeUI-Bold-54" x="1095.363281"/>
     <use xlink:href="#SegoeUI-Bold-52" x="1153.957031"/>
     <use xlink:href="#SegoeUI-Bold-49" x="1219.240234"/>
     <use xlink:href="#SegoeUI-Bold-43" x="1250.929688"/>
     <use xlink:href="#SegoeUI-Bold-41" x="1313.332031"/>
     <use xlink:href="#SegoeUI-Bold-53" x="1383.644531"/>
    </g>
   </g>
   <g id="text_12">
    <!-- SOH - CAH - TOA -->
    <g style="fill: #f59e0b" transform="translate(734.036618 109.404695) scale(0.14 -0.14)">
     <defs>
      <path id="SegoeUI-Bold-48" d="M 4391 0 
L 3378 0 
L 3378 1825 
L 1522 1825 
L 1522 0 
L 513 0 
L 513 4481 
L 1522 4481 
L 1522 2694 
L 3378 2694 
L 3378 4481 
L 4391 4481 
L 4391 0 
z
" transform="scale(0.015625)"/>
      <path id="SegoeUI-Bold-2d" d="M 2156 1363 
L 447 1363 
L 447 2053 
L 2156 2053 
L 2156 1363 
z
" transform="scale(0.015625)"/>
     </defs>
     <use xlink:href="#SegoeUI-Bold-53"/>
     <use xlink:href="#SegoeUI-Bold-4f" x="56.054688"/>
     <use xlink:href="#SegoeUI-Bold-48" x="131.884766"/>
     <use xlink:href="#SegoeUI-Bold-20" x="208.496094"/>
     <use xlink:href="#SegoeUI-Bold-2d" x="236.083984"/>
     <use xlink:href="#SegoeUI-Bold-20" x="276.513672"/>
     <use xlink:href="#SegoeUI-Bold-43" x="304.101562"/>
     <use xlink:href="#SegoeUI-Bold-41" x="366.503906"/>
     <use xlink:href="#SegoeUI-Bold-48" x="436.816406"/>
     <use xlink:href="#SegoeUI-Bold-20" x="513.427734"/>
     <use xlink:href="#SegoeUI-Bold-2d" x="541.015625"/>
     <use xlink:href="#SegoeUI-Bold-20" x="581.445312"/>
     <use xlink:href="#SegoeUI-Bold-54" x="609.033203"/>
     <use xlink:href="#SegoeUI-Bold-4f" x="663.876953"/>
     <use xlink:href="#SegoeUI-Bold-41" x="738.207031"/>
    </g>
   </g>
   <g id="text_13">
    <!-- $\sin\theta = \frac{a}{c} = \frac{\text{opuesto}}{\text{hipotenusa}}$ -->
    <g style="fill: #1f2937" transform="translate(735.195993 147.928975) scale(0.12 -0.12)">
     <defs>
      <path id="DejaVuSans-73" d="M 2834 3397 
L 2834 2853 
Q 2591 2978 2328 3040 
Q 2066 3103 1784 3103 
Q 1356 3103 1142 2972 
Q 928 2841 928 2578 
Q 928 2378 1081 2264 
Q 1234 2150 1697 2047 
L 1894 2003 
Q 2506 1872 2764 1633 
Q 3022 1394 3022 966 
Q 3022 478 2636 193 
Q 2250 -91 1575 -91 
Q 1294 -91 989 -36 
Q 684 19 347 128 
L 347 722 
Q 666 556 975 473 
Q 1284 391 1588 391 
Q 1994 391 2212 530 
Q 2431 669 2431 922 
Q 2431 1156 2273 1281 
Q 2116 1406 1581 1522 
L 1381 1569 
Q 847 1681 609 1914 
Q 372 2147 372 2553 
Q 372 3047 722 3315 
Q 1072 3584 1716 3584 
Q 2034 3584 2315 3537 
Q 2597 3491 2834 3397 
z
" transform="scale(0.015625)"/>
      <path id="DejaVuSans-69" d="M 603 3500 
L 1178 3500 
L 1178 0 
L 603 0 
L 603 3500 
z
M 603 4863 
L 1178 4863 
L 1178 4134 
L 603 4134 
L 603 4863 
z
" transform="scale(0.015625)"/>
      <path id="DejaVuSans-6e" d="M 3513 2113 
L 3513 0 
L 2938 0 
L 2938 2094 
Q 2938 2591 2744 2837 
Q 2550 3084 2163 3084 
Q 1697 3084 1428 2787 
Q 1159 2491 1159 1978 
L 1159 0 
L 581 0 
L 581 3500 
L 1159 3500 
L 1159 2956 
Q 1366 3272 1645 3428 
Q 1925 3584 2291 3584 
Q 2894 3584 3203 3211 
Q 3513 2838 3513 2113 
z
" transform="scale(0.015625)"/>
      <path id="DejaVuSans-Oblique-3b8" d="M 2913 2219 
L 925 2219 
Q 791 1284 928 888 
Q 1100 400 1566 400 
Q 2034 400 2391 891 
Q 2703 1322 2913 2219 
z
M 3009 2750 
Q 3094 3638 2984 3950 
Q 2813 4444 2353 4444 
Q 1875 4444 1525 3956 
Q 1250 3563 1034 2750 
L 3009 2750 
z
M 2444 4913 
Q 3194 4913 3494 4250 
Q 3794 3591 3566 2422 
Q 3341 1256 2781 594 
Q 2225 -72 1475 -72 
Q 722 -72 425 594 
Q 128 1256 353 2422 
Q 581 3591 1134 4250 
Q 1691 4913 2444 4913 
z
" transform="scale(0.015625)"/>
      <path id="DejaVuSans-3d" d="M 678 2906 
L 4684 2906 
L 4684 2381 
L 678 2381 
L 678 2906 
z
M 678 1631 
L 4684 1631 
L 4684 1100 
L 678 1100 
L 678 1631 
z
" transform="scale(0.015625)"/>
      <path id="DejaVuSans-Oblique-61" d="M 3438 1997 
L 3047 0 
L 2472 0 
L 2578 531 
Q 2325 219 2001 64 
Q 1678 -91 1281 -91 
Q 834 -91 548 182 
Q 263 456 263 884 
Q 263 1497 752 1853 
Q 1241 2209 2100 2209 
L 2900 2209 
L 2931 2363 
Q 2938 2388 2941 2417 
Q 2944 2447 2944 2509 
Q 2944 2788 2717 2942 
Q 2491 3097 2081 3097 
Q 1800 3097 1504 3025 
Q 1209 2953 897 2809 
L 997 3341 
Q 1322 3463 1633 3523 
Q 1944 3584 2234 3584 
Q 2853 3584 3176 3315 
Q 3500 3047 3500 2534 
Q 3500 2431 3484 2292 
Q 3469 2153 3438 1997 
z
M 2816 1759 
L 2241 1759 
Q 1534 1759 1195 1570 
Q 856 1381 856 984 
Q 856 709 1029 553 
Q 1203 397 1509 397 
Q 1978 397 2328 733 
Q 2678 1069 2791 1631 
L 2816 1759 
z
" transform="scale(0.015625)"/>
      <path id="DejaVuSans-Oblique-63" d="M 3431 3366 
L 3316 2797 
Q 3109 2947 2876 3022 
Q 2644 3097 2394 3097 
Q 2119 3097 1870 3000 
Q 1622 2903 1453 2725 
Q 1184 2453 1037 2087 
Q 891 1722 891 1331 
Q 891 859 1127 628 
Q 1363 397 1844 397 
Q 2081 397 2348 469 
Q 2616 541 2906 684 
L 2797 116 
Q 2547 13 2283 -39 
Q 2019 -91 1741 -91 
Q 1044 -91 669 257 
Q 294 606 294 1253 
Q 294 1797 489 2255 
Q 684 2713 1069 3078 
Q 1331 3328 1684 3456 
Q 2038 3584 2456 3584 
Q 2700 3584 2940 3529 
Q 3181 3475 3431 3366 
z
" transform="scale(0.015625)"/>
      <path id="DejaVuSans-6f" d="M 1959 3097 
Q 1497 3097 1228 2736 
Q 959 2375 959 1747 
Q 959 1119 1226 758 
Q 1494 397 1959 397 
Q 2419 397 2687 759 
Q 2956 1122 2956 1747 
Q 2956 2369 2687 2733 
Q 2419 3097 1959 3097 
z
M 1959 3584 
Q 2709 3584 3137 3096 
Q 3566 2609 3566 1747 
Q 3566 888 3137 398 
Q 2709 -91 1959 -91 
Q 1206 -91 779 398 
Q 353 888 353 1747 
Q 353 2609 779 3096 
Q 1206 3584 1959 3584 
z
" transform="scale(0.015625)"/>
      <path id="DejaVuSans-70" d="M 1159 525 
L 1159 -1331 
L 581 -1331 
L 581 3500 
L 1159 3500 
L 1159 2969 
Q 1341 3281 1617 3432 
Q 1894 3584 2278 3584 
Q 2916 3584 3314 3078 
Q 3713 2572 3713 1747 
Q 3713 922 3314 415 
Q 2916 -91 2278 -91 
Q 1894 -91 1617 61 
Q 1341 213 1159 525 
z
M 3116 1747 
Q 3116 2381 2855 2742 
Q 2594 3103 2138 3103 
Q 1681 3103 1420 2742 
Q 1159 2381 1159 1747 
Q 1159 1113 1420 752 
Q 1681 391 2138 391 
Q 2594 391 2855 752 
Q 3116 1113 3116 1747 
z
" transform="scale(0.015625)"/>
      <path id="DejaVuSans-75" d="M 544 1381 
L 544 3500 
L 1119 3500 
L 1119 1403 
Q 1119 906 1312 657 
Q 1506 409 1894 409 
Q 2359 409 2629 706 
Q 2900 1003 2900 1516 
L 2900 3500 
L 3475 3500 
L 3475 0 
L 2900 0 
L 2900 538 
Q 2691 219 2414 64 
Q 2138 -91 1772 -91 
Q 1169 -91 856 284 
Q 544 659 544 1381 
z
M 1991 3584 
L 1991 3584 
z
" transform="scale(0.015625)"/>
      <path id="DejaVuSans-65" d="M 3597 1894 
L 3597 1613 
L 953 1613 
Q 991 1019 1311 708 
Q 1631 397 2203 397 
Q 2534 397 2845 478 
Q 3156 559 3463 722 
L 3463 178 
Q 3153 47 2828 -22 
Q 2503 -91 2169 -91 
Q 1331 -91 842 396 
Q 353 884 353 1716 
Q 353 2575 817 3079 
Q 1281 3584 2069 3584 
Q 2775 3584 3186 3129 
Q 3597 2675 3597 1894 
z
M 3022 2063 
Q 3016 2534 2758 2815 
Q 2500 3097 2075 3097 
Q 1594 3097 1305 2825 
Q 1016 2553 972 2059 
L 3022 2063 
z
" transform="scale(0.015625)"/>
      <path id="DejaVuSans-74" d="M 1172 4494 
L 1172 3500 
L 2356 3500 
L 2356 3053 
L 1172 3053 
L 1172 1153 
Q 1172 725 1289 603 
Q 1406 481 1766 481 
L 2356 481 
L 2356 0 
L 1766 0 
Q 1100 0 847 248 
Q 594 497 594 1153 
L 594 3053 
L 172 3053 
L 172 3500 
L 594 3500 
L 594 4494 
L 1172 4494 
z
" transform="scale(0.015625)"/>
      <path id="DejaVuSans-68" d="M 3513 2113 
L 3513 0 
L 2938 0 
L 2938 2094 
Q 2938 2591 2744 2837 
Q 2550 3084 2163 3084 
Q 1697 3084 1428 2787 
Q 1159 2491 1159 1978 
L 1159 0 
L 581 0 
L 581 4863 
L 1159 4863 
L 1159 2956 
Q 1366 3272 1645 3428 
Q 1925 3584 2291 3584 
Q 2894 3584 3203 3211 
Q 3513 2838 3513 2113 
z
" transform="scale(0.015625)"/>
      <path id="DejaVuSans-61" d="M 2194 1759 
Q 1497 1759 1228 1600 
Q 959 1441 959 1056 
Q 959 750 1161 570 
Q 1363 391 1709 391 
Q 2188 391 2477 730 
Q 2766 1069 2766 1631 
L 2766 1759 
L 2194 1759 
z
M 3341 1997 
L 3341 0 
L 2766 0 
L 2766 531 
Q 2569 213 2275 61 
Q 1981 -91 1556 -91 
Q 1019 -91 701 211 
Q 384 513 384 1019 
Q 384 1609 779 1909 
Q 1175 2209 1959 2209 
L 2766 2209 
L 2766 2266 
Q 2766 2663 2505 2880 
Q 2244 3097 1772 3097 
Q 1472 3097 1187 3025 
Q 903 2953 641 2809 
L 641 3341 
Q 956 3463 1253 3523 
Q 1550 3584 1831 3584 
Q 2591 3584 2966 3190 
Q 3341 2797 3341 1997 
z
" transform="scale(0.015625)"/>
     </defs>
     <use xlink:href="#DejaVuSans-73" transform="translate(0 0.492188)"/>
     <use xlink:href="#DejaVuSans-69" transform="translate(52.099609 0.492188)"/>
     <use xlink:href="#DejaVuSans-6e" transform="translate(79.882812 0.492188)"/>
     <use xlink:href="#DejaVuSans-Oblique-3b8" transform="translate(159.497395 0.492188)"/>
     <use xlink:href="#DejaVuSans-3d" transform="translate(240.161458 0.492188)"/>
     <use xlink:href="#DejaVuSans-Oblique-61" transform="translate(343.432942 45.284375) scale(0.7)"/>
     <use xlink:href="#DejaVuSans-Oblique-63" transform="translate(345.432942 -26.160937) scale(0.7)"/>
     <use xlink:href="#DejaVuSans-3d" transform="translate(418.310872 0.492188)"/>
     <use xlink:href="#DejaVuSans-6f" transform="translate(575.582356 58.846875) scale(0.7)"/>
     <use xlink:href="#DejaVuSans-70" transform="translate(618.409504 58.846875) scale(0.7)"/>
     <use xlink:href="#DejaVuSans-75" transform="translate(662.843098 58.846875) scale(0.7)"/>
     <use xlink:href="#DejaVuSans-65" transform="translate(707.208333 58.846875) scale(0.7)"/>
     <use xlink:href="#DejaVuSans-73" transform="translate(750.274739 58.846875) scale(0.7)"/>
     <use xlink:href="#DejaVuSans-74" transform="translate(786.744465 58.846875) scale(0.7)"/>
     <use xlink:href="#DejaVuSans-6f" transform="translate(814.190754 58.846875) scale(0.7)"/>
     <use xlink:href="#DejaVuSans-68" transform="translate(521.582356 -40.15) scale(0.7)"/>
     <use xlink:href="#DejaVuSans-69" transform="translate(565.94759 -40.15) scale(0.7)"/>
     <use xlink:href="#DejaVuSans-70" transform="translate(585.395833 -40.15) scale(0.7)"/>
     <use xlink:href="#DejaVuSans-6f" transform="translate(629.829426 -40.15) scale(0.7)"/>
     <use xlink:href="#DejaVuSans-74" transform="translate(672.656575 -40.15) scale(0.7)"/>
     <use xlink:href="#DejaVuSans-65" transform="translate(700.102864 -40.15) scale(0.7)"/>
     <use xlink:href="#DejaVuSans-6e" transform="translate(743.16927 -40.15) scale(0.7)"/>
     <use xlink:href="#DejaVuSans-75" transform="translate(787.534504 -40.15) scale(0.7)"/>
     <use xlink:href="#DejaVuSans-73" transform="translate(831.899739 -40.15) scale(0.7)"/>
     <use xlink:href="#DejaVuSans-61" transform="translate(868.369465 -40.15) scale(0.7)"/>
     <path d="M 343.432942 19.289062 
L 343.432942 25.539062 
L 386.32845 25.539062 
L 386.32845 19.289062 
L 343.432942 19.289062 
z
"/>
     <path d="M 521.582356 19.289062 
L 521.582356 25.539062 
L 911.264973 25.539062 
L 911.264973 19.289062 
L 521.582356 19.289062 
z
"/>
    </g>
   </g>
   <g id="text_14">
    <!-- $\cos\theta = \frac{b}{c} = \frac{\text{adyacente}}{\text{hipotenusa}}$ -->
    <g style="fill: #4b5563" transform="translate(733.575993 175.446318) scale(0.12 -0.12)">
     <defs>
      <path id="DejaVuSans-63" d="M 3122 3366 
L 3122 2828 
Q 2878 2963 2633 3030 
Q 2388 3097 2138 3097 
Q 1578 3097 1268 2742 
Q 959 2388 959 1747 
Q 959 1106 1268 751 
Q 1578 397 2138 397 
Q 2388 397 2633 464 
Q 2878 531 3122 666 
L 3122 134 
Q 2881 22 2623 -34 
Q 2366 -91 2075 -91 
Q 1284 -91 818 406 
Q 353 903 353 1747 
Q 353 2603 823 3093 
Q 1294 3584 2113 3584 
Q 2378 3584 2631 3529 
Q 2884 3475 3122 3366 
z
" transform="scale(0.015625)"/>
      <path id="DejaVuSans-Oblique-62" d="M 3169 2138 
Q 3169 2591 2961 2847 
Q 2753 3103 2388 3103 
Q 2122 3103 1889 2973 
Q 1656 2844 1484 2597 
Q 1303 2338 1198 1995 
Q 1094 1653 1094 1313 
Q 1094 881 1298 636 
Q 1503 391 1863 391 
Q 2134 391 2365 517 
Q 2597 644 2772 891 
Q 2950 1147 3059 1487 
Q 3169 1828 3169 2138 
z
M 1381 2969 
Q 1594 3256 1914 3420 
Q 2234 3584 2584 3584 
Q 3122 3584 3439 3221 
Q 3756 2859 3756 2241 
Q 3756 1734 3570 1259 
Q 3384 784 3041 416 
Q 2816 172 2522 40 
Q 2228 -91 1906 -91 
Q 1566 -91 1316 65 
Q 1066 222 909 531 
L 806 0 
L 231 0 
L 1178 4863 
L 1753 4863 
L 1381 2969 
z
" transform="scale(0.015625)"/>
      <path id="DejaVuSans-64" d="M 2906 2969 
L 2906 4863 
L 3481 4863 
L 3481 0 
L 2906 0 
L 2906 525 
Q 2725 213 2448 61 
Q 2172 -91 1784 -91 
Q 1150 -91 751 415 
Q 353 922 353 1747 
Q 353 2572 751 3078 
Q 1150 3584 1784 3584 
Q 2172 3584 2448 3432 
Q 2725 3281 2906 2969 
z
M 947 1747 
Q 947 1113 1208 752 
Q 1469 391 1925 391 
Q 2381 391 2643 752 
Q 2906 1113 2906 1747 
Q 2906 2381 2643 2742 
Q 2381 3103 1925 3103 
Q 1469 3103 1208 2742 
Q 947 2381 947 1747 
z
" transform="scale(0.015625)"/>
      <path id="DejaVuSans-79" d="M 2059 -325 
Q 1816 -950 1584 -1140 
Q 1353 -1331 966 -1331 
L 506 -1331 
L 506 -850 
L 844 -850 
Q 1081 -850 1212 -737 
Q 1344 -625 1503 -206 
L 1606 56 
L 191 3500 
L 800 3500 
L 1894 763 
L 2988 3500 
L 3597 3500 
L 2059 -325 
z
" transform="scale(0.015625)"/>
     </defs>
     <use xlink:href="#DejaVuSans-63" transform="translate(0 0.45625)"/>
     <use xlink:href="#DejaVuSans-6f" transform="translate(54.980469 0.45625)"/>
     <use xlink:href="#DejaVuSans-73" transform="translate(116.162109 0.45625)"/>
     <use xlink:href="#DejaVuSans-Oblique-3b8" transform="translate(184.497395 0.45625)"/>
     <use xlink:href="#DejaVuSans-3d" transform="translate(265.161458 0.45625)"/>
     <use xlink:href="#DejaVuSans-Oblique-62" transform="translate(368.432942 45.248437) scale(0.7)"/>
     <use xlink:href="#DejaVuSans-Oblique-63" transform="translate(371.432942 -26.196875) scale(0.7)"/>
     <use xlink:href="#DejaVuSans-3d" transform="translate(444.848958 0.45625)"/>
     <use xlink:href="#DejaVuSans-61" transform="translate(559.120442 58.810938) scale(0.7)"/>
     <use xlink:href="#DejaVuSans-64" transform="translate(602.01595 58.810938) scale(0.7)"/>
     <use xlink:href="#DejaVuSans-79" transform="translate(646.449543 58.810938) scale(0.7)"/>
     <use xlink:href="#DejaVuSans-61" transform="translate(687.875325 58.810938) scale(0.7)"/>
     <use xlink:href="#DejaVuSans-63" transform="translate(730.770833 58.810938) scale(0.7)"/>
     <use xlink:href="#DejaVuSans-65" transform="translate(769.257161 58.810938) scale(0.7)"/>
     <use xlink:href="#DejaVuSans-6e" transform="translate(812.323567 58.810938) scale(0.7)"/>
     <use xlink:href="#DejaVuSans-74" transform="translate(856.688801 58.810938) scale(0.7)"/>
     <use xlink:href="#DejaVuSans-65" transform="translate(884.13509 58.810938) scale(0.7)"/>
     <use xlink:href="#DejaVuSans-68" transform="translate(548.120442 -40.185937) scale(0.7)"/>
     <use xlink:href="#DejaVuSans-69" transform="translate(592.485676 -40.185937) scale(0.7)"/>
     <use xlink:href="#DejaVuSans-70" transform="translate(611.933918 -40.185937) scale(0.7)"/>
     <use xlink:href="#DejaVuSans-6f" transform="translate(656.367512 -40.185937) scale(0.7)"/>
     <use xlink:href="#DejaVuSans-74" transform="translate(699.194661 -40.185937) scale(0.7)"/>
     <use xlink:href="#DejaVuSans-65" transform="translate(726.64095 -40.185937) scale(0.7)"/>
     <use xlink:href="#DejaVuSans-6e" transform="translate(769.707356 -40.185937) scale(0.7)"/>
     <use xlink:href="#DejaVuSans-75" transform="translate(814.07259 -40.185937) scale(0.7)"/>
     <use xlink:href="#DejaVuSans-73" transform="translate(858.437825 -40.185937) scale(0.7)"/>
     <use xlink:href="#DejaVuSans-61" transform="translate(894.907551 -40.185937) scale(0.7)"/>
     <path d="M 368.432942 19.253125 
L 368.432942 25.503125 
L 412.866536 25.503125 
L 412.866536 19.253125 
L 368.432942 19.253125 
z
"/>
     <path d="M 548.120442 19.253125 
L 548.120442 25.503125 
L 937.803059 25.503125 
L 937.803059 19.253125 
L 548.120442 19.253125 
z
"/>
    </g>
   </g>
   <g id="text_15">
    <!-- $\tan\theta = \frac{a}{b} = \frac{\text{opuesto}}{\text{adyacente}}$ -->
    <g style="fill: #e12885" transform="translate(735.135993 202.96366) scale(0.12 -0.12)">
     <use xlink:href="#DejaVuSans-74" transform="translate(0 0.492188)"/>
     <use xlink:href="#DejaVuSans-61" transform="translate(39.208984 0.492188)"/>
     <use xlink:href="#DejaVuSans-6e" transform="translate(100.488281 0.492188)"/>
     <use xlink:href="#DejaVuSans-Oblique-3b8" transform="translate(180.102864 0.492188)"/>
     <use xlink:href="#DejaVuSans-3d" transform="translate(260.766926 0.492188)"/>
     <use xlink:href="#DejaVuSans-Oblique-61" transform="translate(365.038411 45.284375) scale(0.7)"/>
     <use xlink:href="#DejaVuSans-Oblique-62" transform="translate(364.038411 -40.15) scale(0.7)"/>
     <use xlink:href="#DejaVuSans-3d" transform="translate(440.454426 0.492188)"/>
     <use xlink:href="#DejaVuSans-6f" transform="translate(586.725911 58.846875) scale(0.7)"/>
     <use xlink:href="#DejaVuSans-70" transform="translate(629.553059 58.846875) scale(0.7)"/>
     <use xlink:href="#DejaVuSans-75" transform="translate(673.986653 58.846875) scale(0.7)"/>
     <use xlink:href="#DejaVuSans-65" transform="translate(718.351887 58.846875) scale(0.7)"/>
     <use xlink:href="#DejaVuSans-73" transform="translate(761.418293 58.846875) scale(0.7)"/>
     <use xlink:href="#DejaVuSans-74" transform="translate(797.88802 58.846875) scale(0.7)"/>
     <use xlink:href="#DejaVuSans-6f" transform="translate(825.334309 58.846875) scale(0.7)"/>
     <use xlink:href="#DejaVuSans-61" transform="translate(543.725911 -40.15) scale(0.7)"/>
     <use xlink:href="#DejaVuSans-64" transform="translate(586.621418 -40.15) scale(0.7)"/>
     <use xlink:href="#DejaVuSans-79" transform="translate(631.055012 -40.15) scale(0.7)"/>
     <use xlink:href="#DejaVuSans-61" transform="translate(672.480793 -40.15) scale(0.7)"/>
     <use xlink:href="#DejaVuSans-63" transform="translate(715.376301 -40.15) scale(0.7)"/>
     <use xlink:href="#DejaVuSans-65" transform="translate(753.862629 -40.15) scale(0.7)"/>
     <use xlink:href="#DejaVuSans-6e" transform="translate(796.929036 -40.15) scale(0.7)"/>
     <use xlink:href="#DejaVuSans-74" transform="translate(841.29427 -40.15) scale(0.7)"/>
     <use xlink:href="#DejaVuSans-65" transform="translate(868.740559 -40.15) scale(0.7)"/>
     <path d="M 364.038411 19.289062 
L 364.038411 25.539062 
L 408.472004 25.539062 
L 408.472004 19.289062 
L 364.038411 19.289062 
z
"/>
     <path d="M 543.725911 19.289062 
L 543.725911 25.539062 
L 911.806965 25.539062 
L 911.806965 19.289062 
L 543.725911 19.289062 
z
"/>
    </g>
   </g>
   <g id="text_16">
    <!-- Razones Recíprocas -->
    <g style="fill: #2c2f33" transform="translate(740.253415 263.501814) scale(0.11 -0.11)">
     <defs>
      <path id="SegoeUI-Bold-7a" d="M 2950 0 
L 78 0 
L 78 409 
L 1684 2472 
L 238 2472 
L 238 3200 
L 2938 3200 
L 2938 2713 
L 1416 728 
L 2950 728 
L 2950 0 
z
" transform="scale(0.015625)"/>
      <path id="SegoeUI-Bold-6f" d="M 1941 -78 
Q 1141 -78 683 370 
Q 225 819 225 1588 
Q 225 2381 700 2829 
Q 1175 3278 1984 3278 
Q 2781 3278 3234 2829 
Q 3688 2381 3688 1644 
Q 3688 847 3220 384 
Q 2753 -78 1941 -78 
z
M 1966 2522 
Q 1616 2522 1422 2281 
Q 1228 2041 1228 1600 
Q 1228 678 1972 678 
Q 2681 678 2681 1625 
Q 2681 2522 1966 2522 
z
" transform="scale(0.015625)"/>
      <path id="SegoeUI-Bold-6e" d="M 3506 0 
L 2522 0 
L 2522 1778 
Q 2522 2522 1991 2522 
Q 1734 2522 1568 2325 
Q 1403 2128 1403 1825 
L 1403 0 
L 416 0 
L 416 3200 
L 1403 3200 
L 1403 2694 
L 1416 2694 
Q 1769 3278 2444 3278 
Q 3506 3278 3506 1959 
L 3506 0 
z
" transform="scale(0.015625)"/>
      <path id="SegoeUI-Bold-65" d="M 3291 1319 
L 1203 1319 
Q 1253 622 2081 622 
Q 2609 622 3009 872 
L 3009 159 
Q 2566 -78 1856 -78 
Q 1081 -78 653 351 
Q 225 781 225 1550 
Q 225 2347 687 2812 
Q 1150 3278 1825 3278 
Q 2525 3278 2908 2862 
Q 3291 2447 3291 1734 
L 3291 1319 
z
M 2375 1925 
Q 2375 2613 1819 2613 
Q 1581 2613 1407 2416 
Q 1234 2219 1197 1925 
L 2375 1925 
z
" transform="scale(0.015625)"/>
      <path id="SegoeUI-Bold-73" d="M 206 84 
L 206 884 
Q 450 738 692 666 
Q 934 594 1150 594 
Q 1413 594 1564 666 
Q 1716 738 1716 884 
Q 1716 978 1647 1040 
Q 1578 1103 1470 1150 
Q 1363 1197 1234 1234 
Q 1106 1272 988 1319 
Q 797 1391 651 1473 
Q 506 1556 407 1665 
Q 309 1775 257 1919 
Q 206 2063 206 2259 
Q 206 2528 323 2722 
Q 441 2916 636 3039 
Q 831 3163 1082 3220 
Q 1334 3278 1606 3278 
Q 1819 3278 2037 3245 
Q 2256 3213 2469 3150 
L 2469 2388 
Q 2281 2497 2067 2551 
Q 1853 2606 1647 2606 
Q 1550 2606 1464 2589 
Q 1378 2572 1312 2539 
Q 1247 2506 1209 2454 
Q 1172 2403 1172 2338 
Q 1172 2250 1228 2187 
Q 1284 2125 1375 2079 
Q 1466 2034 1577 1998 
Q 1688 1963 1797 1925 
Q 1994 1856 2153 1775 
Q 2313 1694 2427 1584 
Q 2541 1475 2602 1328 
Q 2663 1181 2663 978 
Q 2663 694 2539 492 
Q 2416 291 2211 164 
Q 2006 38 1739 -20 
Q 1472 -78 1184 -78 
Q 656 -78 206 84 
z
" transform="scale(0.015625)"/>
      <path id="SegoeUI-Bold-ed" d="M 1403 0 
L 416 0 
L 416 3200 
L 1403 3200 
L 1403 0 
z
M 1911 4716 
L 932 3706 
L 220 3706 
L 1032 4716 
L 1911 4716 
z
" transform="scale(0.015625)"/>
      <path id="SegoeUI-Bold-70" d="M 1416 372 
L 1403 372 
L 1403 -1472 
L 416 -1472 
L 416 3200 
L 1403 3200 
L 1403 2719 
L 1416 2719 
Q 1781 3278 2444 3278 
Q 3066 3278 3405 2851 
Q 3744 2425 3744 1691 
Q 3744 891 3348 406 
Q 2953 -78 2297 -78 
Q 1719 -78 1416 372 
z
M 1388 1684 
L 1388 1428 
Q 1388 1097 1563 887 
Q 1738 678 2022 678 
Q 2359 678 2545 939 
Q 2731 1200 2731 1678 
Q 2731 2522 2075 2522 
Q 1772 2522 1580 2292 
Q 1388 2063 1388 1684 
z
" transform="scale(0.015625)"/>
      <path id="SegoeUI-Bold-72" d="M 2503 2309 
Q 2325 2406 2088 2406 
Q 1766 2406 1584 2170 
Q 1403 1934 1403 1528 
L 1403 0 
L 416 0 
L 416 3200 
L 1403 3200 
L 1403 2606 
L 1416 2606 
Q 1650 3256 2259 3256 
Q 2416 3256 2503 3219 
L 2503 2309 
z
" transform="scale(0.015625)"/>
     </defs>
     <use xlink:href="#SegoeUI-Bold-52"/>
     <use xlink:href="#SegoeUI-Bold-61" x="65.283203"/>
     <use xlink:href="#SegoeUI-Bold-7a" x="119.091797"/>
     <use xlink:href="#SegoeUI-Bold-6f" x="166.992188"/>
     <use xlink:href="#SegoeUI-Bold-6e" x="228.125"/>
     <use xlink:href="#SegoeUI-Bold-65" x="288.623047"/>
     <use xlink:href="#SegoeUI-Bold-73" x="342.724609"/>
     <use xlink:href="#SegoeUI-Bold-20" x="386.71875"/>
     <use xlink:href="#SegoeUI-Bold-52" x="414.306641"/>
     <use xlink:href="#SegoeUI-Bold-65" x="477.089844"/>
     <use xlink:href="#SegoeUI-Bold-63" x="531.191406"/>
     <use xlink:href="#SegoeUI-Bold-ed" x="579.189453"/>
     <use xlink:href="#SegoeUI-Bold-70" x="607.607422"/>
     <use xlink:href="#SegoeUI-Bold-72" x="669.619141"/>
     <use xlink:href="#SegoeUI-Bold-6f" x="709.039062"/>
     <use xlink:href="#SegoeUI-Bold-63" x="770.171875"/>
     <use xlink:href="#SegoeUI-Bold-61" x="818.169922"/>
     <use xlink:href="#SegoeUI-Bold-73" x="871.978516"/>
    </g>
   </g>
   <g id="text_17">
    <!-- $\csc\theta = \frac{1}{\sin\theta} = \frac{c}{a}$ -->
    <g style="fill: #4b5563" transform="translate(751.695993 302.026094) scale(0.11 -0.11)">
     <defs>
      <path id="DejaVuSans-31" d="M 794 531 
L 1825 531 
L 1825 4091 
L 703 3866 
L 703 4441 
L 1819 4666 
L 2450 4666 
L 2450 531 
L 3481 531 
L 3481 0 
L 794 0 
L 794 531 
z
" transform="scale(0.015625)"/>
     </defs>
     <use xlink:href="#DejaVuSans-63" transform="translate(0 0.16875)"/>
     <use xlink:href="#DejaVuSans-73" transform="translate(54.980469 0.16875)"/>
     <use xlink:href="#DejaVuSans-63" transform="translate(107.080078 0.16875)"/>
     <use xlink:href="#DejaVuSans-Oblique-3b8" transform="translate(178.296223 0.16875)"/>
     <use xlink:href="#DejaVuSans-3d" transform="translate(258.960286 0.16875)"/>
     <use xlink:href="#DejaVuSans-31" transform="translate(417.23177 43.965625) scale(0.7)"/>
     <use xlink:href="#DejaVuSans-73" transform="translate(362.23177 -41.020312) scale(0.7)"/>
     <use xlink:href="#DejaVuSans-69" transform="translate(398.701497 -41.020312) scale(0.7)"/>
     <use xlink:href="#DejaVuSans-6e" transform="translate(418.149739 -41.020312) scale(0.7)"/>
     <use xlink:href="#DejaVuSans-Oblique-3b8" transform="translate(473.879947 -41.020312) scale(0.7)"/>
     <use xlink:href="#DejaVuSans-3d" transform="translate(548.689517 0.16875)"/>
     <use xlink:href="#DejaVuSans-Oblique-63" transform="translate(653.961001 44.960938) scale(0.7)"/>
     <use xlink:href="#DejaVuSans-Oblique-61" transform="translate(651.961001 -26.484375) scale(0.7)"/>
     <path d="M 362.23177 18.965625 
L 362.23177 25.215625 
L 516.707095 25.215625 
L 516.707095 18.965625 
L 362.23177 18.965625 
z
"/>
     <path d="M 651.961001 18.965625 
L 651.961001 25.215625 
L 694.856509 25.215625 
L 694.856509 18.965625 
L 651.961001 18.965625 
z
"/>
    </g>
   </g>
   <g id="text_18">
    <!-- $\sec\theta = \frac{1}{\cos\theta} = \frac{c}{b}$ -->
    <g style="fill: #4b5563" transform="translate(750.320993 335.046905) scale(0.11 -0.11)">
     <use xlink:href="#DejaVuSans-73" transform="translate(0 0.16875)"/>
     <use xlink:href="#DejaVuSans-65" transform="translate(52.099609 0.16875)"/>
     <use xlink:href="#DejaVuSans-63" transform="translate(113.623047 0.16875)"/>
     <use xlink:href="#DejaVuSans-Oblique-3b8" transform="translate(184.839192 0.16875)"/>
     <use xlink:href="#DejaVuSans-3d" transform="translate(265.503254 0.16875)"/>
     <use xlink:href="#DejaVuSans-31" transform="translate(432.774739 43.965625) scale(0.7)"/>
     <use xlink:href="#DejaVuSans-63" transform="translate(368.774739 -41.020312) scale(0.7)"/>
     <use xlink:href="#DejaVuSans-6f" transform="translate(407.261067 -41.020312) scale(0.7)"/>
     <use xlink:href="#DejaVuSans-73" transform="translate(450.088215 -41.020312) scale(0.7)"/>
     <use xlink:href="#DejaVuSans-Oblique-3b8" transform="translate(497.922915 -41.020312) scale(0.7)"/>
     <use xlink:href="#DejaVuSans-3d" transform="translate(572.732486 0.16875)"/>
     <use xlink:href="#DejaVuSans-Oblique-63" transform="translate(679.00397 44.960938) scale(0.7)"/>
     <use xlink:href="#DejaVuSans-Oblique-62" transform="translate(676.00397 -40.473437) scale(0.7)"/>
     <path d="M 368.774739 18.965625 
L 368.774739 25.215625 
L 540.750064 25.215625 
L 540.750064 18.965625 
L 368.774739 18.965625 
z
"/>
     <path d="M 676.00397 18.965625 
L 676.00397 25.215625 
L 720.437564 25.215625 
L 720.437564 18.965625 
L 676.00397 18.965625 
z
"/>
    </g>
   </g>
   <g id="text_19">
    <!-- $\cot\theta = \frac{1}{\tan\theta} = \frac{b}{a}$ -->
    <g style="fill: #4b5563" transform="translate(751.200993 368.067716) scale(0.11 -0.11)">
     <use xlink:href="#DejaVuSans-63" transform="translate(0 0.01875)"/>
     <use xlink:href="#DejaVuSans-6f" transform="translate(54.980469 0.01875)"/>
     <use xlink:href="#DejaVuSans-74" transform="translate(116.162109 0.01875)"/>
     <use xlink:href="#DejaVuSans-Oblique-3b8" transform="translate(171.60677 0.01875)"/>
     <use xlink:href="#DejaVuSans-3d" transform="translate(252.270833 0.01875)"/>
     <use xlink:href="#DejaVuSans-31" transform="translate(417.542317 43.815625) scale(0.7)"/>
     <use xlink:href="#DejaVuSans-74" transform="translate(355.542317 -41.170312) scale(0.7)"/>
     <use xlink:href="#DejaVuSans-61" transform="translate(382.988606 -41.170312) scale(0.7)"/>
     <use xlink:href="#DejaVuSans-6e" transform="translate(425.884114 -41.170312) scale(0.7)"/>
     <use xlink:href="#DejaVuSans-Oblique-3b8" transform="translate(481.614322 -41.170312) scale(0.7)"/>
     <use xlink:href="#DejaVuSans-3d" transform="translate(556.423892 0.01875)"/>
     <use xlink:href="#DejaVuSans-Oblique-62" transform="translate(659.695376 44.810938) scale(0.7)"/>
     <use xlink:href="#DejaVuSans-Oblique-61" transform="translate(660.695376 -26.634375) scale(0.7)"/>
     <path d="M 355.542317 18.815625 
L 355.542317 25.065625 
L 524.44147 25.065625 
L 524.44147 18.815625 
L 355.542317 18.815625 
z
"/>
     <path d="M 659.695376 18.815625 
L 659.695376 25.065625 
L 704.12897 25.065625 
L 704.12897 18.815625 
L 659.695376 18.815625 
z
"/>
    </g>
   </g>
   <g id="text_20">
    <!-- Leyenda -->
    <g style="fill: #2c2f33" transform="translate(769.274508 439.612807) scale(0.11 -0.11)">
     <defs>
      <path id="SegoeUI-Bold-4c" d="M 3181 0 
L 513 0 
L 513 4481 
L 1522 4481 
L 1522 819 
L 3181 819 
L 3181 0 
z
" transform="scale(0.015625)"/>
      <path id="SegoeUI-Bold-79" d="M 3463 3200 
L 2163 -256 
Q 1694 -1503 750 -1503 
Q 391 -1503 159 -1422 
L 159 -634 
Q 356 -750 588 -750 
Q 969 -750 1119 -391 
L 1288 6 
L -13 3200 
L 1081 3200 
L 1678 1253 
Q 1734 1072 1766 825 
L 1778 825 
Q 1806 1006 1881 1247 
L 2484 3200 
L 3463 3200 
z
" transform="scale(0.015625)"/>
      <path id="SegoeUI-Bold-64" d="M 3547 0 
L 2559 0 
L 2559 441 
L 2547 441 
Q 2209 -78 1556 -78 
Q 956 -78 590 345 
Q 225 769 225 1528 
Q 225 2322 628 2800 
Q 1031 3278 1684 3278 
Q 2303 3278 2547 2834 
L 2559 2834 
L 2559 4738 
L 3547 4738 
L 3547 0 
z
M 2578 1556 
L 2578 1797 
Q 2578 2109 2397 2315 
Q 2216 2522 1925 2522 
Q 1597 2522 1412 2264 
Q 1228 2006 1228 1556 
Q 1228 1134 1406 906 
Q 1584 678 1900 678 
Q 2200 678 2389 918 
Q 2578 1159 2578 1556 
z
" transform="scale(0.015625)"/>
     </defs>
     <use xlink:href="#SegoeUI-Bold-4c"/>
     <use xlink:href="#SegoeUI-Bold-65" x="51.123047"/>
     <use xlink:href="#SegoeUI-Bold-79" x="105.224609"/>
     <use xlink:href="#SegoeUI-Bold-65" x="158.033203"/>
     <use xlink:href="#SegoeUI-Bold-6e" x="212.134766"/>
     <use xlink:href="#SegoeUI-Bold-64" x="272.632812"/>
     <use xlink:href="#SegoeUI-Bold-61" x="334.546875"/>
    </g>
   </g>
   <g id="text_21">
    <!-- a = cateto opuesto -->
    <g style="fill: #4b5563" transform="translate(650.755335 480.688649) scale(0.1 -0.1)">
     <defs>
      <path id="SegoeUI-61" d="M 2809 0 
L 2297 0 
L 2297 500 
L 2284 500 
Q 1950 -75 1300 -75 
Q 822 -75 551 178 
Q 281 431 281 850 
Q 281 1747 1338 1894 
L 2297 2028 
Q 2297 2844 1638 2844 
Q 1059 2844 594 2450 
L 594 2975 
Q 1066 3275 1681 3275 
Q 2809 3275 2809 2081 
L 2809 0 
z
M 2297 1619 
L 1525 1513 
Q 1169 1463 987 1336 
Q 806 1209 806 888 
Q 806 653 973 504 
Q 1141 356 1419 356 
Q 1800 356 2048 623 
Q 2297 891 2297 1300 
L 2297 1619 
z
" transform="scale(0.015625)"/>
      <path id="SegoeUI-20" transform="scale(0.015625)"/>
      <path id="SegoeUI-3d" d="M 3663 2325 
L 725 2325 
L 725 2738 
L 3663 2738 
L 3663 2325 
z
M 3663 994 
L 725 994 
L 725 1406 
L 3663 1406 
L 3663 994 
z
" transform="scale(0.015625)"/>
      <path id="SegoeUI-63" d="M 2700 147 
Q 2331 -75 1825 -75 
Q 1141 -75 720 370 
Q 300 816 300 1525 
Q 300 2316 753 2795 
Q 1206 3275 1963 3275 
Q 2384 3275 2706 3119 
L 2706 2594 
Q 2350 2844 1944 2844 
Q 1453 2844 1139 2492 
Q 825 2141 825 1569 
Q 825 1006 1120 681 
Q 1416 356 1913 356 
Q 2331 356 2700 634 
L 2700 147 
z
" transform="scale(0.015625)"/>
      <path id="SegoeUI-74" d="M 2003 31 
Q 1822 -69 1525 -69 
Q 684 -69 684 869 
L 684 2763 
L 134 2763 
L 134 3200 
L 684 3200 
L 684 3981 
L 1197 4147 
L 1197 3200 
L 2003 3200 
L 2003 2763 
L 1197 2763 
L 1197 959 
Q 1197 638 1306 500 
Q 1416 363 1669 363 
Q 1863 363 2003 469 
L 2003 31 
z
" transform="scale(0.015625)"/>
      <path id="SegoeUI-65" d="M 3091 1472 
L 831 1472 
Q 844 938 1119 647 
Q 1394 356 1875 356 
Q 2416 356 2869 713 
L 2869 231 
Q 2447 -75 1753 -75 
Q 1075 -75 687 361 
Q 300 797 300 1588 
Q 300 2334 723 2804 
Q 1147 3275 1775 3275 
Q 2403 3275 2747 2869 
Q 3091 2463 3091 1741 
L 3091 1472 
z
M 2566 1906 
Q 2563 2350 2352 2597 
Q 2141 2844 1766 2844 
Q 1403 2844 1150 2584 
Q 897 2325 838 1906 
L 2566 1906 
z
" transform="scale(0.015625)"/>
      <path id="SegoeUI-6f" d="M 1856 -75 
Q 1147 -75 723 373 
Q 300 822 300 1563 
Q 300 2369 740 2822 
Q 1181 3275 1931 3275 
Q 2647 3275 3048 2834 
Q 3450 2394 3450 1613 
Q 3450 847 3017 386 
Q 2584 -75 1856 -75 
z
M 1894 2844 
Q 1400 2844 1112 2508 
Q 825 2172 825 1581 
Q 825 1013 1115 684 
Q 1406 356 1894 356 
Q 2391 356 2658 678 
Q 2925 1000 2925 1594 
Q 2925 2194 2658 2519 
Q 2391 2844 1894 2844 
z
" transform="scale(0.015625)"/>
      <path id="SegoeUI-70" d="M 1044 463 
L 1031 463 
L 1031 -1472 
L 519 -1472 
L 519 3200 
L 1031 3200 
L 1031 2638 
L 1044 2638 
Q 1422 3275 2150 3275 
Q 2769 3275 3116 2845 
Q 3463 2416 3463 1694 
Q 3463 891 3072 408 
Q 2681 -75 2003 -75 
Q 1381 -75 1044 463 
z
M 1031 1753 
L 1031 1306 
Q 1031 909 1289 632 
Q 1547 356 1944 356 
Q 2409 356 2673 712 
Q 2938 1069 2938 1703 
Q 2938 2238 2691 2541 
Q 2444 2844 2022 2844 
Q 1575 2844 1303 2533 
Q 1031 2222 1031 1753 
z
" transform="scale(0.015625)"/>
      <path id="SegoeUI-75" d="M 3106 0 
L 2594 0 
L 2594 506 
L 2581 506 
Q 2263 -75 1594 -75 
Q 450 -75 450 1288 
L 450 3200 
L 959 3200 
L 959 1369 
Q 959 356 1734 356 
Q 2109 356 2351 632 
Q 2594 909 2594 1356 
L 2594 3200 
L 3106 3200 
L 3106 0 
z
" transform="scale(0.015625)"/>
      <path id="SegoeUI-73" d="M 325 116 
L 325 666 
Q 744 356 1247 356 
Q 1922 356 1922 806 
Q 1922 934 1864 1023 
Q 1806 1113 1707 1181 
Q 1609 1250 1476 1304 
Q 1344 1359 1191 1419 
Q 978 1503 817 1589 
Q 656 1675 548 1783 
Q 441 1891 386 2028 
Q 331 2166 331 2350 
Q 331 2575 434 2748 
Q 538 2922 709 3039 
Q 881 3156 1101 3215 
Q 1322 3275 1556 3275 
Q 1972 3275 2300 3131 
L 2300 2613 
Q 1947 2844 1488 2844 
Q 1344 2844 1228 2811 
Q 1113 2778 1030 2718 
Q 947 2659 901 2576 
Q 856 2494 856 2394 
Q 856 2269 901 2184 
Q 947 2100 1034 2034 
Q 1122 1969 1247 1916 
Q 1372 1863 1531 1800 
Q 1744 1719 1912 1633 
Q 2081 1547 2200 1439 
Q 2319 1331 2383 1190 
Q 2447 1050 2447 856 
Q 2447 619 2342 444 
Q 2238 269 2063 153 
Q 1888 38 1659 -18 
Q 1431 -75 1181 -75 
Q 688 -75 325 116 
z
" transform="scale(0.015625)"/>
     </defs>
     <use xlink:href="#SegoeUI-61"/>
     <use xlink:href="#SegoeUI-20" x="50.878906"/>
     <use xlink:href="#SegoeUI-3d" x="78.271484"/>
     <use xlink:href="#SegoeUI-20" x="146.679688"/>
     <use xlink:href="#SegoeUI-63" x="174.072266"/>
     <use xlink:href="#SegoeUI-61" x="220.263672"/>
     <use xlink:href="#SegoeUI-74" x="271.142578"/>
     <use xlink:href="#SegoeUI-65" x="304.279297"/>
     <use xlink:href="#SegoeUI-74" x="356.574219"/>
     <use xlink:href="#SegoeUI-6f" x="389.710938"/>
     <use xlink:href="#SegoeUI-20" x="448.304688"/>
     <use xlink:href="#SegoeUI-6f" x="475.697266"/>
     <use xlink:href="#SegoeUI-70" x="534.291016"/>
     <use xlink:href="#SegoeUI-75" x="593.080078"/>
     <use xlink:href="#SegoeUI-65" x="649.671875"/>
     <use xlink:href="#SegoeUI-73" x="701.966797"/>
     <use xlink:href="#SegoeUI-74" x="744.398438"/>
     <use xlink:href="#SegoeUI-6f" x="777.535156"/>
    </g>
   </g>
   <g id="text_22">
    <!-- b = cateto adyacente -->
    <g style="fill: #4b5563" transform="translate(650.755335 508.179429) scale(0.1 -0.1)">
     <defs>
      <path id="SegoeUI-62" d="M 1044 463 
L 1031 463 
L 1031 0 
L 519 0 
L 519 4738 
L 1031 4738 
L 1031 2638 
L 1044 2638 
Q 1422 3275 2150 3275 
Q 2766 3275 3114 2845 
Q 3463 2416 3463 1694 
Q 3463 891 3072 408 
Q 2681 -75 2003 -75 
Q 1369 -75 1044 463 
z
M 1031 1753 
L 1031 1306 
Q 1031 909 1289 632 
Q 1547 356 1944 356 
Q 2409 356 2673 712 
Q 2938 1069 2938 1703 
Q 2938 2238 2691 2541 
Q 2444 2844 2022 2844 
Q 1575 2844 1303 2533 
Q 1031 2222 1031 1753 
z
" transform="scale(0.015625)"/>
      <path id="SegoeUI-64" d="M 3250 0 
L 2738 0 
L 2738 544 
L 2725 544 
Q 2369 -75 1625 -75 
Q 1022 -75 661 354 
Q 300 784 300 1525 
Q 300 2319 700 2797 
Q 1100 3275 1766 3275 
Q 2425 3275 2725 2756 
L 2738 2756 
L 2738 4738 
L 3250 4738 
L 3250 0 
z
M 2738 1447 
L 2738 1919 
Q 2738 2306 2481 2575 
Q 2225 2844 1831 2844 
Q 1363 2844 1094 2500 
Q 825 2156 825 1550 
Q 825 997 1083 676 
Q 1341 356 1775 356 
Q 2203 356 2470 665 
Q 2738 975 2738 1447 
z
" transform="scale(0.015625)"/>
      <path id="SegoeUI-79" d="M 3066 3200 
L 1594 -513 
Q 1200 -1506 488 -1506 
Q 288 -1506 153 -1466 
L 153 -1006 
Q 319 -1063 456 -1063 
Q 844 -1063 1038 -600 
L 1294 6 
L 44 3200 
L 613 3200 
L 1478 738 
Q 1494 691 1544 494 
L 1563 494 
Q 1578 569 1625 731 
L 2534 3200 
L 3066 3200 
z
" transform="scale(0.015625)"/>
      <path id="SegoeUI-6e" d="M 3175 0 
L 2663 0 
L 2663 1825 
Q 2663 2844 1919 2844 
Q 1534 2844 1282 2555 
Q 1031 2266 1031 1825 
L 1031 0 
L 519 0 
L 519 3200 
L 1031 3200 
L 1031 2669 
L 1044 2669 
Q 1406 3275 2094 3275 
Q 2619 3275 2897 2936 
Q 3175 2597 3175 1956 
L 3175 0 
z
" transform="scale(0.015625)"/>
     </defs>
     <use xlink:href="#SegoeUI-62"/>
     <use xlink:href="#SegoeUI-20" x="58.789062"/>
     <use xlink:href="#SegoeUI-3d" x="86.181641"/>
     <use xlink:href="#SegoeUI-20" x="154.589844"/>
     <use xlink:href="#SegoeUI-63" x="181.982422"/>
     <use xlink:href="#SegoeUI-61" x="228.173828"/>
     <use xlink:href="#SegoeUI-74" x="279.052734"/>
     <use xlink:href="#SegoeUI-65" x="312.189453"/>
     <use xlink:href="#SegoeUI-74" x="364.484375"/>
     <use xlink:href="#SegoeUI-6f" x="397.621094"/>
     <use xlink:href="#SegoeUI-20" x="456.214844"/>
     <use xlink:href="#SegoeUI-61" x="483.607422"/>
     <use xlink:href="#SegoeUI-64" x="534.486328"/>
     <use xlink:href="#SegoeUI-79" x="593.373047"/>
     <use xlink:href="#SegoeUI-61" x="641.761719"/>
     <use xlink:href="#SegoeUI-63" x="692.640625"/>
     <use xlink:href="#SegoeUI-65" x="738.832031"/>
     <use xlink:href="#SegoeUI-6e" x="791.126953"/>
     <use xlink:href="#SegoeUI-74" x="847.71875"/>
     <use xlink:href="#SegoeUI-65" x="880.855469"/>
    </g>
   </g>
   <g id="text_23">
    <!-- c = hipotenusa -->
    <g style="fill: #4b5563" transform="translate(650.755335 535.723334) scale(0.1 -0.1)">
     <defs>
      <path id="SegoeUI-68" d="M 3175 0 
L 2663 0 
L 2663 1844 
Q 2663 2844 1919 2844 
Q 1544 2844 1287 2555 
Q 1031 2266 1031 1813 
L 1031 0 
L 519 0 
L 519 4738 
L 1031 4738 
L 1031 2669 
L 1044 2669 
Q 1413 3275 2094 3275 
Q 3175 3275 3175 1972 
L 3175 0 
z
" transform="scale(0.015625)"/>
      <path id="SegoeUI-69" d="M 781 4013 
Q 644 4013 547 4106 
Q 450 4200 450 4344 
Q 450 4488 547 4583 
Q 644 4678 781 4678 
Q 922 4678 1020 4583 
Q 1119 4488 1119 4344 
Q 1119 4206 1020 4109 
Q 922 4013 781 4013 
z
M 1031 0 
L 519 0 
L 519 3200 
L 1031 3200 
L 1031 0 
z
" transform="scale(0.015625)"/>
     </defs>
     <use xlink:href="#SegoeUI-63"/>
     <use xlink:href="#SegoeUI-20" x="46.191406"/>
     <use xlink:href="#SegoeUI-3d" x="73.583984"/>
     <use xlink:href="#SegoeUI-20" x="141.992188"/>
     <use xlink:href="#SegoeUI-68" x="169.384766"/>
     <use xlink:href="#SegoeUI-69" x="225.976562"/>
     <use xlink:href="#SegoeUI-70" x="250.195312"/>
     <use xlink:href="#SegoeUI-6f" x="308.984375"/>
     <use xlink:href="#SegoeUI-74" x="367.578125"/>
     <use xlink:href="#SegoeUI-65" x="400.714844"/>
     <use xlink:href="#SegoeUI-6e" x="453.009766"/>
     <use xlink:href="#SegoeUI-75" x="509.601562"/>
     <use xlink:href="#SegoeUI-73" x="566.193359"/>
     <use xlink:href="#SegoeUI-61" x="608.625"/>
    </g>
   </g>
   <g id="text_24">
    <!-- θ = ángulo agudo -->
    <g style="fill: #4b5563" transform="translate(650.755335 563.286771) scale(0.1 -0.1)">
     <defs>
      <path id="SegoeUI-3b8" d="M 1844 -75 
Q 1116 -75 709 553 
Q 303 1181 303 2319 
Q 303 3516 726 4155 
Q 1150 4794 1944 4794 
Q 3450 4794 3450 2397 
Q 3450 1216 3029 570 
Q 2609 -75 1844 -75 
z
M 2919 2613 
Q 2863 4356 1891 4356 
Q 1422 4356 1140 3882 
Q 859 3409 828 2613 
L 2919 2613 
z
M 2922 2200 
L 825 2200 
Q 841 1303 1119 833 
Q 1397 363 1888 363 
Q 2366 363 2636 839 
Q 2906 1316 2922 2200 
z
" transform="scale(0.015625)"/>
      <path id="SegoeUI-e1" d="M 2809 0 
L 2297 0 
L 2297 500 
L 2284 500 
Q 1950 -75 1300 -75 
Q 822 -75 551 178 
Q 281 431 281 850 
Q 281 1747 1338 1894 
L 2297 2028 
Q 2297 2844 1638 2844 
Q 1059 2844 594 2450 
L 594 2975 
Q 1066 3275 1681 3275 
Q 2809 3275 2809 2081 
L 2809 0 
z
M 2297 1619 
L 1525 1513 
Q 1169 1463 987 1336 
Q 806 1209 806 888 
Q 806 653 973 504 
Q 1141 356 1419 356 
Q 1800 356 2048 623 
Q 2297 891 2297 1300 
L 2297 1619 
z
M 2366 4831 
L 1547 3806 
L 1150 3806 
L 1847 4831 
L 2366 4831 
z
" transform="scale(0.015625)"/>
      <path id="SegoeUI-67" d="M 3250 256 
Q 3250 -1506 1563 -1506 
Q 969 -1506 525 -1281 
L 525 -769 
Q 1066 -1069 1556 -1069 
Q 2738 -1069 2738 188 
L 2738 538 
L 2725 538 
Q 2359 -75 1625 -75 
Q 1028 -75 664 351 
Q 300 778 300 1497 
Q 300 2313 692 2794 
Q 1084 3275 1766 3275 
Q 2413 3275 2725 2756 
L 2738 2756 
L 2738 3200 
L 3250 3200 
L 3250 256 
z
M 2738 1447 
L 2738 1919 
Q 2738 2300 2480 2572 
Q 2222 2844 1838 2844 
Q 1363 2844 1094 2498 
Q 825 2153 825 1531 
Q 825 997 1083 676 
Q 1341 356 1766 356 
Q 2197 356 2467 662 
Q 2738 969 2738 1447 
z
" transform="scale(0.015625)"/>
      <path id="SegoeUI-6c" d="M 1031 0 
L 519 0 
L 519 4738 
L 1031 4738 
L 1031 0 
z
" transform="scale(0.015625)"/>
     </defs>
     <use xlink:href="#SegoeUI-3b8"/>
     <use xlink:href="#SegoeUI-20" x="58.642578"/>
     <use xlink:href="#SegoeUI-3d" x="86.035156"/>
     <use xlink:href="#SegoeUI-20" x="154.443359"/>
     <use xlink:href="#SegoeUI-e1" x="181.835938"/>
     <use xlink:href="#SegoeUI-6e" x="232.714844"/>
     <use xlink:href="#SegoeUI-67" x="289.306641"/>
     <use xlink:href="#SegoeUI-75" x="348.193359"/>
     <use xlink:href="#SegoeUI-6c" x="404.785156"/>
     <use xlink:href="#SegoeUI-6f" x="429.003906"/>
     <use xlink:href="#SegoeUI-20" x="487.597656"/>
     <use xlink:href="#SegoeUI-61" x="514.990234"/>
     <use xlink:href="#SegoeUI-67" x="565.869141"/>
     <use xlink:href="#SegoeUI-75" x="624.755859"/>
     <use xlink:href="#SegoeUI-64" x="681.347656"/>
     <use xlink:href="#SegoeUI-6f" x="740.234375"/>
    </g>
   </g>
  </g>
  <g id="text_25">
   <!-- Razones Trigonométricas en el Triángulo Rectángulo -->
   <g style="fill: #2c2f33" transform="translate(335.902416 17.564375) scale(0.14 -0.14)">
    <defs>
     <path id="SegoeUI-Bold-69" d="M 916 3706 
Q 666 3706 506 3854 
Q 347 4003 347 4219 
Q 347 4441 506 4581 
Q 666 4722 916 4722 
Q 1169 4722 1326 4581 
Q 1484 4441 1484 4219 
Q 1484 3994 1326 3850 
Q 1169 3706 916 3706 
z
M 1403 0 
L 416 0 
L 416 3200 
L 1403 3200 
L 1403 0 
z
" transform="scale(0.015625)"/>
     <path id="SegoeUI-Bold-67" d="M 3553 366 
Q 3553 -525 3037 -1014 
Q 2522 -1503 1544 -1503 
Q 897 -1503 519 -1319 
L 519 -488 
Q 1013 -775 1516 -775 
Q 2016 -775 2291 -511 
Q 2566 -247 2566 206 
L 2566 459 
L 2553 459 
Q 2216 -78 1556 -78 
Q 944 -78 584 353 
Q 225 784 225 1509 
Q 225 2322 625 2800 
Q 1025 3278 1678 3278 
Q 2263 3278 2553 2828 
L 2566 2828 
L 2566 3200 
L 3553 3200 
L 3553 366 
z
M 2578 1538 
L 2578 1791 
Q 2578 2094 2398 2308 
Q 2219 2522 1931 2522 
Q 1603 2522 1415 2265 
Q 1228 2009 1228 1544 
Q 1228 1144 1406 911 
Q 1584 678 1894 678 
Q 2200 678 2389 914 
Q 2578 1150 2578 1538 
z
" transform="scale(0.015625)"/>
     <path id="SegoeUI-Bold-6d" d="M 5497 0 
L 4513 0 
L 4513 1825 
Q 4513 2522 4000 2522 
Q 3756 2522 3603 2312 
Q 3450 2103 3450 1791 
L 3450 0 
L 2463 0 
L 2463 1844 
Q 2463 2522 1959 2522 
Q 1706 2522 1554 2322 
Q 1403 2122 1403 1778 
L 1403 0 
L 416 0 
L 416 3200 
L 1403 3200 
L 1403 2700 
L 1416 2700 
Q 1569 2956 1845 3117 
Q 2122 3278 2450 3278 
Q 3128 3278 3378 2681 
Q 3744 3278 4453 3278 
Q 5497 3278 5497 1991 
L 5497 0 
z
" transform="scale(0.015625)"/>
     <path id="SegoeUI-Bold-e9" d="M 3291 1319 
L 1203 1319 
Q 1253 622 2081 622 
Q 2609 622 3009 872 
L 3009 159 
Q 2566 -78 1856 -78 
Q 1081 -78 653 351 
Q 225 781 225 1550 
Q 225 2347 687 2812 
Q 1150 3278 1825 3278 
Q 2525 3278 2908 2862 
Q 3291 2447 3291 1734 
L 3291 1319 
z
M 2375 1925 
Q 2375 2613 1819 2613 
Q 1581 2613 1407 2416 
Q 1234 2219 1197 1925 
L 2375 1925 
z
M 2879 4716 
L 1900 3706 
L 1188 3706 
L 2000 4716 
L 2879 4716 
z
" transform="scale(0.015625)"/>
     <path id="SegoeUI-Bold-74" d="M 2350 38 
Q 2131 -78 1691 -78 
Q 647 -78 647 1006 
L 647 2472 
L 128 2472 
L 128 3200 
L 647 3200 
L 647 3891 
L 1631 4172 
L 1631 3200 
L 2350 3200 
L 2350 2472 
L 1631 2472 
L 1631 1178 
Q 1631 678 2028 678 
Q 2184 678 2350 769 
L 2350 38 
z
" transform="scale(0.015625)"/>
     <path id="SegoeUI-Bold-6c" d="M 1403 0 
L 416 0 
L 416 4738 
L 1403 4738 
L 1403 0 
z
" transform="scale(0.015625)"/>
     <path id="SegoeUI-Bold-e1" d="M 3078 0 
L 2144 0 
L 2144 459 
L 2131 459 
Q 1809 -78 1178 -78 
Q 713 -78 445 186 
Q 178 450 178 891 
Q 178 1822 1281 1966 
L 2150 2081 
Q 2150 2606 1581 2606 
Q 1009 2606 494 2266 
L 494 3009 
Q 700 3116 1058 3197 
Q 1416 3278 1709 3278 
Q 3078 3278 3078 1913 
L 3078 0 
z
M 2150 1300 
L 2150 1516 
L 1569 1441 
Q 1088 1378 1088 1006 
Q 1088 838 1205 730 
Q 1322 622 1522 622 
Q 1800 622 1975 814 
Q 2150 1006 2150 1300 
z
M 2783 4716 
L 1804 3706 
L 1092 3706 
L 1904 4716 
L 2783 4716 
z
" transform="scale(0.015625)"/>
     <path id="SegoeUI-Bold-75" d="M 3456 0 
L 2472 0 
L 2472 488 
L 2456 488 
Q 2091 -78 1478 -78 
Q 366 -78 366 1269 
L 366 3200 
L 1350 3200 
L 1350 1356 
Q 1350 678 1888 678 
Q 2153 678 2312 864 
Q 2472 1050 2472 1369 
L 2472 3200 
L 3456 3200 
L 3456 0 
z
" transform="scale(0.015625)"/>
    </defs>
    <use xlink:href="#SegoeUI-Bold-52"/>
    <use xlink:href="#SegoeUI-Bold-61" x="65.283203"/>
    <use xlink:href="#SegoeUI-Bold-7a" x="119.091797"/>
    <use xlink:href="#SegoeUI-Bold-6f" x="166.992188"/>
    <use xlink:href="#SegoeUI-Bold-6e" x="228.125"/>
    <use xlink:href="#SegoeUI-Bold-65" x="288.623047"/>
    <use xlink:href="#SegoeUI-Bold-73" x="342.724609"/>
    <use xlink:href="#SegoeUI-Bold-20" x="386.71875"/>
    <use xlink:href="#SegoeUI-Bold-54" x="414.306641"/>
    <use xlink:href="#SegoeUI-Bold-72" x="465.400391"/>
    <use xlink:href="#SegoeUI-Bold-69" x="505.570312"/>
    <use xlink:href="#SegoeUI-Bold-67" x="533.988281"/>
    <use xlink:href="#SegoeUI-Bold-6f" x="595.902344"/>
    <use xlink:href="#SegoeUI-Bold-6e" x="657.035156"/>
    <use xlink:href="#SegoeUI-Bold-6f" x="717.533203"/>
    <use xlink:href="#SegoeUI-Bold-6d" x="778.666016"/>
    <use xlink:href="#SegoeUI-Bold-e9" x="870.267578"/>
    <use xlink:href="#SegoeUI-Bold-74" x="924.369141"/>
    <use xlink:href="#SegoeUI-Bold-72" x="963.285156"/>
    <use xlink:href="#SegoeUI-Bold-69" x="1003.455078"/>
    <use xlink:href="#SegoeUI-Bold-63" x="1031.873047"/>
    <use xlink:href="#SegoeUI-Bold-61" x="1079.871094"/>
    <use xlink:href="#SegoeUI-Bold-73" x="1133.679688"/>
    <use xlink:href="#SegoeUI-Bold-20" x="1177.673828"/>
    <use xlink:href="#SegoeUI-Bold-65" x="1205.261719"/>
    <use xlink:href="#SegoeUI-Bold-6e" x="1259.363281"/>
    <use xlink:href="#SegoeUI-Bold-20" x="1319.861328"/>
    <use xlink:href="#SegoeUI-Bold-65" x="1347.449219"/>
    <use xlink:href="#SegoeUI-Bold-6c" x="1401.550781"/>
    <use xlink:href="#SegoeUI-Bold-20" x="1429.96875"/>
    <use xlink:href="#SegoeUI-Bold-54" x="1457.556641"/>
    <use xlink:href="#SegoeUI-Bold-72" x="1508.650391"/>
    <use xlink:href="#SegoeUI-Bold-69" x="1548.820312"/>
    <use xlink:href="#SegoeUI-Bold-e1" x="1577.238281"/>
    <use xlink:href="#SegoeUI-Bold-6e" x="1631.046875"/>
    <use xlink:href="#SegoeUI-Bold-67" x="1691.544922"/>
    <use xlink:href="#SegoeUI-Bold-75" x="1753.458984"/>
    <use xlink:href="#SegoeUI-Bold-6c" x="1813.957031"/>
    <use xlink:href="#SegoeUI-Bold-6f" x="1842.375"/>
    <use xlink:href="#SegoeUI-Bold-20" x="1903.507812"/>
    <use xlink:href="#SegoeUI-Bold-52" x="1931.095703"/>
    <use xlink:href="#SegoeUI-Bold-65" x="1993.878906"/>
    <use xlink:href="#SegoeUI-Bold-63" x="2047.980469"/>
    <use xlink:href="#SegoeUI-Bold-74" x="2095.978516"/>
    <use xlink:href="#SegoeUI-Bold-e1" x="2134.894531"/>
    <use xlink:href="#SegoeUI-Bold-6e" x="2188.703125"/>
    <use xlink:href="#SegoeUI-Bold-67" x="2249.201172"/>
    <use xlink:href="#SegoeUI-Bold-75" x="2311.115234"/>
    <use xlink:href="#SegoeUI-Bold-6c" x="2371.613281"/>
    <use xlink:href="#SegoeUI-Bold-6f" x="2400.03125"/>
   </g>
  </g>
 </g>
 <defs>
  <clipPath id="pea9ec88332">
   <rect x="7.2" y="101.461916" width="524.552465" height="401.128356"/>
  </clipPath>
  <clipPath id="pf509d463c8">
   <rect x="572.072465" y="26.852667" width="437.127055" height="550.346852"/>
  </clipPath>
 </defs>
</svg>
